M48
;Layer_Color=9474304
;FILE_FORMAT=2:5
INCH,LZ
T4F00S00C0.20000
%
G90
G05
T04
G00X0282053Y012045
M15
G01X0282053Y0120497
G01X028303Y0120462
G01X02845Y0120607
G01X0286423Y0120989
G01X0287837Y0121418
G01X0289648Y0122168
G01X0290951Y0122865
G01X0292581Y0123954
G01X0293723Y0124891
G01X0295109Y0126277
G01X0296046Y0127419
G01X0297135Y0129049
G01X0297832Y0130352
G01X0298582Y0132163
G01X0299011Y0133577
G01X0299393Y01355
G01X0299586Y0137956
G01X029955Y0202956
G01X0299503Y0202956
G01X0299538Y020393
G01X0299393Y0205401
G01X0299011Y0207323
G01X0298582Y0208737
G01X0297832Y0210548
G01X0297135Y0211851
G01X0296046Y0213481
G01X0295109Y0214623
G01X0293723Y0216009
G01X0292581Y0216947
G01X0290951Y0218036
G01X0289648Y0218732
G01X0287837Y0219482
G01X0286423Y0219911
G01X02845Y0220294
G01X0282048Y0220487
G01X0134801Y022045
G01X0134251Y0220489
G01X0133245Y0220408
G01X0131939Y0220236
G01X0129418Y021956
G01X0128202Y0219057
G01X0125941Y0217751
G01X0124896Y021695
G01X012305Y0215104
G01X0122249Y021406
G01X0120944Y0211799
G01X012044Y0210582
G01X0119764Y0208061
G01X0119592Y0206756
G01X0119507Y0205444
G01X011955Y01357
G01X0119511Y0135152
G01X0119592Y0134145
G01X0119764Y013284
G01X012044Y0130318
G01X0120944Y0129102
G01X0122249Y0126841
G01X012305Y0125797
G01X0124896Y0123951
G01X0125941Y0123149
G01X0128202Y0121844
G01X0129418Y012134
G01X0131939Y0120665
G01X0133245Y0120493
G01X0134553Y0120407
G01X0282053Y012045
M16
M17
M30
