%TF.GenerationSoftware,KiCad,Pcbnew,5.1.5-52549c5~84~ubuntu18.04.1*%
%TF.CreationDate,2020-02-26T10:28:26-05:00*%
%TF.ProjectId,LV_Breakout,4c565f42-7265-4616-9b6f-75742e6b6963,rev?*%
%TF.SameCoordinates,PX678e028PY6d01460*%
%TF.FileFunction,Soldermask,Top*%
%TF.FilePolarity,Negative*%
%FSLAX46Y46*%
G04 Gerber Fmt 4.6, Leading zero omitted, Abs format (unit mm)*
G04 Created by KiCad (PCBNEW 5.1.5-52549c5~84~ubuntu18.04.1) date 2020-02-26 10:28:26*
%MOMM*%
%LPD*%
G04 APERTURE LIST*
%ADD10C,0.100000*%
G04 APERTURE END LIST*
D10*
G36*
X21223831Y5967631D02*
G01*
X21291703Y5960946D01*
X21552966Y5881693D01*
X21552968Y5881692D01*
X21793745Y5752994D01*
X21793747Y5752993D01*
X21793746Y5752993D01*
X22004792Y5579792D01*
X22177993Y5368746D01*
X22306693Y5127966D01*
X22351881Y4979000D01*
X22385946Y4866702D01*
X22412706Y4595000D01*
X22385946Y4323298D01*
X22306692Y4062032D01*
X22177994Y3821255D01*
X22004792Y3610208D01*
X21793745Y3437006D01*
X21552968Y3308308D01*
X21552966Y3308307D01*
X21291703Y3229054D01*
X21223831Y3222369D01*
X21088090Y3209000D01*
X18281910Y3209000D01*
X18146169Y3222369D01*
X18078297Y3229054D01*
X17817034Y3308307D01*
X17817032Y3308308D01*
X17576255Y3437006D01*
X17365208Y3610208D01*
X17192006Y3821255D01*
X17063308Y4062032D01*
X16984054Y4323298D01*
X16957294Y4595000D01*
X16984054Y4866702D01*
X17018119Y4979000D01*
X17063307Y5127966D01*
X17192007Y5368746D01*
X17365208Y5579792D01*
X17576254Y5752993D01*
X17576253Y5752993D01*
X17576255Y5752994D01*
X17817032Y5881692D01*
X17817034Y5881693D01*
X18078297Y5960946D01*
X18146169Y5967631D01*
X18281910Y5981000D01*
X21088090Y5981000D01*
X21223831Y5967631D01*
G37*
G36*
X47928436Y7717365D02*
G01*
X47958027Y7708389D01*
X47985296Y7693813D01*
X48009198Y7674198D01*
X48028813Y7650296D01*
X48043389Y7623027D01*
X48052365Y7593436D01*
X48056000Y7556526D01*
X48056000Y5143474D01*
X48052365Y5106564D01*
X48043389Y5076973D01*
X48028813Y5049704D01*
X48009198Y5025802D01*
X47985296Y5006187D01*
X47958027Y4991611D01*
X47928436Y4982635D01*
X47891526Y4979000D01*
X44818474Y4979000D01*
X44781564Y4982635D01*
X44751973Y4991611D01*
X44724704Y5006187D01*
X44700802Y5025802D01*
X44681187Y5049704D01*
X44666611Y5076973D01*
X44657635Y5106564D01*
X44654000Y5143474D01*
X44654000Y7556526D01*
X44657635Y7593436D01*
X44666611Y7623027D01*
X44681187Y7650296D01*
X44700802Y7674198D01*
X44724704Y7693813D01*
X44751973Y7708389D01*
X44781564Y7717365D01*
X44818474Y7721000D01*
X47891526Y7721000D01*
X47928436Y7717365D01*
G37*
G36*
X69579903Y8942925D02*
G01*
X69807571Y8848622D01*
X70012466Y8711715D01*
X70186715Y8537466D01*
X70186716Y8537464D01*
X70323623Y8332569D01*
X70417925Y8104903D01*
X70466000Y7863214D01*
X70466000Y7616786D01*
X70445156Y7511998D01*
X70417925Y7375097D01*
X70323622Y7147429D01*
X70186715Y6942534D01*
X70012466Y6768285D01*
X69807571Y6631378D01*
X69807570Y6631377D01*
X69807569Y6631377D01*
X69579903Y6537075D01*
X69338214Y6489000D01*
X69091786Y6489000D01*
X68850097Y6537075D01*
X68622431Y6631377D01*
X68622430Y6631377D01*
X68622429Y6631378D01*
X68417534Y6768285D01*
X68243285Y6942534D01*
X68106378Y7147429D01*
X68012075Y7375097D01*
X67984844Y7511998D01*
X67964000Y7616786D01*
X67964000Y7863214D01*
X68012075Y8104903D01*
X68106377Y8332569D01*
X68243284Y8537464D01*
X68243285Y8537466D01*
X68417534Y8711715D01*
X68622429Y8848622D01*
X68850097Y8942925D01*
X69091786Y8991000D01*
X69338214Y8991000D01*
X69579903Y8942925D01*
G37*
G36*
X89899903Y8942925D02*
G01*
X90127571Y8848622D01*
X90332466Y8711715D01*
X90506715Y8537466D01*
X90506716Y8537464D01*
X90643623Y8332569D01*
X90737925Y8104903D01*
X90786000Y7863214D01*
X90786000Y7616786D01*
X90765156Y7511998D01*
X90737925Y7375097D01*
X90643622Y7147429D01*
X90506715Y6942534D01*
X90332466Y6768285D01*
X90127571Y6631378D01*
X90127570Y6631377D01*
X90127569Y6631377D01*
X89899903Y6537075D01*
X89658214Y6489000D01*
X89411786Y6489000D01*
X89170097Y6537075D01*
X88942431Y6631377D01*
X88942430Y6631377D01*
X88942429Y6631378D01*
X88737534Y6768285D01*
X88563285Y6942534D01*
X88426378Y7147429D01*
X88332075Y7375097D01*
X88304844Y7511998D01*
X88284000Y7616786D01*
X88284000Y7863214D01*
X88332075Y8104903D01*
X88426377Y8332569D01*
X88563284Y8537464D01*
X88563285Y8537466D01*
X88737534Y8711715D01*
X88942429Y8848622D01*
X89170097Y8942925D01*
X89411786Y8991000D01*
X89658214Y8991000D01*
X89899903Y8942925D01*
G37*
G36*
X31864436Y10226812D02*
G01*
X31948332Y10210124D01*
X32106390Y10144654D01*
X32248634Y10049610D01*
X32369610Y9928634D01*
X32464654Y9786390D01*
X32530124Y9628332D01*
X32563500Y9460540D01*
X32563500Y9289460D01*
X32530124Y9121668D01*
X32464654Y8963610D01*
X32369610Y8821366D01*
X32248634Y8700390D01*
X32106390Y8605346D01*
X32027360Y8572611D01*
X31948332Y8539876D01*
X31864436Y8523188D01*
X31780541Y8506500D01*
X31609459Y8506500D01*
X31525564Y8523188D01*
X31441668Y8539876D01*
X31362640Y8572611D01*
X31283610Y8605346D01*
X31141366Y8700390D01*
X31020390Y8821366D01*
X30925346Y8963610D01*
X30859876Y9121668D01*
X30826500Y9289460D01*
X30826500Y9460540D01*
X30859876Y9628332D01*
X30925346Y9786390D01*
X31020390Y9928634D01*
X31141366Y10049610D01*
X31283610Y10144654D01*
X31441668Y10210124D01*
X31525564Y10226812D01*
X31609459Y10243500D01*
X31780541Y10243500D01*
X31864436Y10226812D01*
G37*
G36*
X46953761Y11841163D02*
G01*
X47212200Y11762766D01*
X47450372Y11635461D01*
X47659134Y11464134D01*
X47830461Y11255372D01*
X47957766Y11017200D01*
X48036163Y10758761D01*
X48062633Y10490000D01*
X48036163Y10221239D01*
X47957766Y9962800D01*
X47830461Y9724628D01*
X47659134Y9515866D01*
X47450372Y9344539D01*
X47212200Y9217234D01*
X46953761Y9138837D01*
X46752349Y9119000D01*
X45957651Y9119000D01*
X45756239Y9138837D01*
X45497800Y9217234D01*
X45259628Y9344539D01*
X45050866Y9515866D01*
X44879539Y9724628D01*
X44752234Y9962800D01*
X44673837Y10221239D01*
X44647367Y10490000D01*
X44673837Y10758761D01*
X44752234Y11017200D01*
X44879539Y11255372D01*
X45050866Y11464134D01*
X45259628Y11635461D01*
X45497800Y11762766D01*
X45756239Y11841163D01*
X45957651Y11861000D01*
X46752349Y11861000D01*
X46953761Y11841163D01*
G37*
G36*
X46953761Y15981163D02*
G01*
X47212200Y15902766D01*
X47450372Y15775461D01*
X47659134Y15604134D01*
X47830461Y15395372D01*
X47957766Y15157200D01*
X48036163Y14898761D01*
X48062633Y14630000D01*
X48036163Y14361239D01*
X47957766Y14102800D01*
X47830461Y13864628D01*
X47659134Y13655866D01*
X47450372Y13484539D01*
X47212200Y13357234D01*
X46953761Y13278837D01*
X46752349Y13259000D01*
X45957651Y13259000D01*
X45756239Y13278837D01*
X45497800Y13357234D01*
X45259628Y13484539D01*
X45050866Y13655866D01*
X44879539Y13864628D01*
X44752234Y14102800D01*
X44673837Y14361239D01*
X44647367Y14630000D01*
X44673837Y14898761D01*
X44752234Y15157200D01*
X44879539Y15395372D01*
X45050866Y15604134D01*
X45259628Y15775461D01*
X45497800Y15902766D01*
X45756239Y15981163D01*
X45957651Y16001000D01*
X46752349Y16001000D01*
X46953761Y15981163D01*
G37*
G36*
X90786000Y13989000D02*
G01*
X88284000Y13989000D01*
X88284000Y16491000D01*
X90786000Y16491000D01*
X90786000Y13989000D01*
G37*
G36*
X70466000Y13989000D02*
G01*
X67964000Y13989000D01*
X67964000Y16491000D01*
X70466000Y16491000D01*
X70466000Y13989000D01*
G37*
G36*
X46833661Y20647938D02*
G01*
X47132303Y20524236D01*
X47132305Y20524235D01*
X47401076Y20344648D01*
X47629648Y20116076D01*
X47743029Y19946390D01*
X47809236Y19847303D01*
X47932938Y19548661D01*
X47996000Y19231626D01*
X47996000Y18908374D01*
X47932938Y18591339D01*
X47809236Y18292697D01*
X47809235Y18292695D01*
X47629648Y18023924D01*
X47401076Y17795352D01*
X47132305Y17615765D01*
X47132304Y17615764D01*
X47132303Y17615764D01*
X46833661Y17492062D01*
X46516626Y17429000D01*
X46193374Y17429000D01*
X45876339Y17492062D01*
X45577697Y17615764D01*
X45577696Y17615764D01*
X45577695Y17615765D01*
X45308924Y17795352D01*
X45080352Y18023924D01*
X44900765Y18292695D01*
X44900764Y18292697D01*
X44777062Y18591339D01*
X44714000Y18908374D01*
X44714000Y19231626D01*
X44777062Y19548661D01*
X44900764Y19847303D01*
X44966972Y19946390D01*
X45080352Y20116076D01*
X45308924Y20344648D01*
X45577695Y20524235D01*
X45577697Y20524236D01*
X45876339Y20647938D01*
X46193374Y20711000D01*
X46516626Y20711000D01*
X46833661Y20647938D01*
G37*
G36*
X31864436Y20386812D02*
G01*
X31948332Y20370124D01*
X32009836Y20344648D01*
X32106390Y20304654D01*
X32248634Y20209610D01*
X32369610Y20088634D01*
X32464654Y19946390D01*
X32530124Y19788331D01*
X32563500Y19620541D01*
X32563500Y19449459D01*
X32530124Y19281669D01*
X32464654Y19123610D01*
X32369610Y18981366D01*
X32248634Y18860390D01*
X32106390Y18765346D01*
X32027360Y18732611D01*
X31948332Y18699876D01*
X31864436Y18683188D01*
X31780541Y18666500D01*
X31609459Y18666500D01*
X31525564Y18683188D01*
X31441668Y18699876D01*
X31362640Y18732611D01*
X31283610Y18765346D01*
X31141366Y18860390D01*
X31020390Y18981366D01*
X30925346Y19123610D01*
X30859876Y19281669D01*
X30826500Y19449459D01*
X30826500Y19620541D01*
X30859876Y19788331D01*
X30925346Y19946390D01*
X31020390Y20088634D01*
X31141366Y20209610D01*
X31283610Y20304654D01*
X31380164Y20344648D01*
X31441668Y20370124D01*
X31525564Y20386812D01*
X31609459Y20403500D01*
X31780541Y20403500D01*
X31864436Y20386812D01*
G37*
G36*
X16551697Y26299101D02*
G01*
X16836993Y26212557D01*
X17099923Y26072018D01*
X17330384Y25882884D01*
X17519518Y25652424D01*
X17660057Y25389494D01*
X17746601Y25104198D01*
X17768500Y24881852D01*
X17768500Y21808148D01*
X17746601Y21585802D01*
X17660057Y21300506D01*
X17519518Y21037576D01*
X17330384Y20807116D01*
X17099924Y20617982D01*
X16836994Y20477443D01*
X16551698Y20390899D01*
X16255000Y20361677D01*
X15958303Y20390899D01*
X15673007Y20477443D01*
X15410077Y20617982D01*
X15179617Y20807116D01*
X14990483Y21037576D01*
X14849944Y21300506D01*
X14763400Y21585802D01*
X14741501Y21808148D01*
X14741500Y24881851D01*
X14763399Y25104197D01*
X14849943Y25389493D01*
X14990482Y25652423D01*
X15179616Y25882884D01*
X15410076Y26072018D01*
X15673006Y26212557D01*
X15958302Y26299101D01*
X16255000Y26328323D01*
X16551697Y26299101D01*
G37*
G36*
X47906125Y27053312D02*
G01*
X48045324Y27025623D01*
X48153949Y26980629D01*
X48307568Y26916998D01*
X48543583Y26759298D01*
X48744298Y26558583D01*
X48901998Y26322568D01*
X48931642Y26251000D01*
X49010623Y26060324D01*
X49034064Y25942480D01*
X49066000Y25781927D01*
X49066000Y25498073D01*
X49010623Y25219677D01*
X48901998Y24957432D01*
X48744298Y24721417D01*
X48543583Y24520702D01*
X48307568Y24363002D01*
X48153949Y24299371D01*
X48045324Y24254377D01*
X47906125Y24226688D01*
X47766927Y24199000D01*
X47483073Y24199000D01*
X47343875Y24226688D01*
X47204676Y24254377D01*
X47096051Y24299371D01*
X46942432Y24363002D01*
X46706417Y24520702D01*
X46505702Y24721417D01*
X46348002Y24957432D01*
X46239377Y25219677D01*
X46184000Y25498073D01*
X46184000Y25781927D01*
X46215936Y25942480D01*
X46239377Y26060324D01*
X46318358Y26251000D01*
X46348002Y26322568D01*
X46505702Y26558583D01*
X46706417Y26759298D01*
X46942432Y26916998D01*
X47096051Y26980629D01*
X47204676Y27025623D01*
X47343875Y27053312D01*
X47483073Y27081000D01*
X47766927Y27081000D01*
X47906125Y27053312D01*
G37*
G36*
X44506125Y27053312D02*
G01*
X44645324Y27025623D01*
X44753949Y26980629D01*
X44907568Y26916998D01*
X45143583Y26759298D01*
X45344298Y26558583D01*
X45501998Y26322568D01*
X45531642Y26251000D01*
X45610623Y26060324D01*
X45634064Y25942480D01*
X45666000Y25781927D01*
X45666000Y25498073D01*
X45610623Y25219677D01*
X45501998Y24957432D01*
X45344298Y24721417D01*
X45143583Y24520702D01*
X44907568Y24363002D01*
X44753949Y24299371D01*
X44645324Y24254377D01*
X44506125Y24226688D01*
X44366927Y24199000D01*
X44083073Y24199000D01*
X43943875Y24226688D01*
X43804676Y24254377D01*
X43696051Y24299371D01*
X43542432Y24363002D01*
X43306417Y24520702D01*
X43105702Y24721417D01*
X42948002Y24957432D01*
X42839377Y25219677D01*
X42784000Y25498073D01*
X42784000Y25781927D01*
X42815936Y25942480D01*
X42839377Y26060324D01*
X42918358Y26251000D01*
X42948002Y26322568D01*
X43105702Y26558583D01*
X43306417Y26759298D01*
X43542432Y26916998D01*
X43696051Y26980629D01*
X43804676Y27025623D01*
X43943875Y27053312D01*
X44083073Y27081000D01*
X44366927Y27081000D01*
X44506125Y27053312D01*
G37*
G36*
X55493228Y26218297D02*
G01*
X55648100Y26154147D01*
X55787481Y26061015D01*
X55906015Y25942481D01*
X55999147Y25803100D01*
X56063297Y25648228D01*
X56096000Y25483816D01*
X56096000Y25316184D01*
X56063297Y25151772D01*
X55999147Y24996900D01*
X55906015Y24857519D01*
X55787481Y24738985D01*
X55648100Y24645853D01*
X55493228Y24581703D01*
X55328816Y24549000D01*
X55161184Y24549000D01*
X54996772Y24581703D01*
X54841900Y24645853D01*
X54702519Y24738985D01*
X54583985Y24857519D01*
X54490853Y24996900D01*
X54426703Y25151772D01*
X54394000Y25316184D01*
X54394000Y25483816D01*
X54426703Y25648228D01*
X54490853Y25803100D01*
X54583985Y25942481D01*
X54702519Y26061015D01*
X54841900Y26154147D01*
X54996772Y26218297D01*
X55161184Y26251000D01*
X55328816Y26251000D01*
X55493228Y26218297D01*
G37*
G36*
X67788820Y28391897D02*
G01*
X67822985Y28381533D01*
X67854464Y28364707D01*
X67882060Y28342060D01*
X67904707Y28314464D01*
X67921533Y28282985D01*
X67931897Y28248820D01*
X67936000Y28207158D01*
X67936000Y25132842D01*
X67931897Y25091180D01*
X67921533Y25057015D01*
X67904707Y25025536D01*
X67882060Y24997940D01*
X67854464Y24975293D01*
X67822985Y24958467D01*
X67788820Y24948103D01*
X67747158Y24944000D01*
X66497842Y24944000D01*
X66456180Y24948103D01*
X66422015Y24958467D01*
X66390536Y24975293D01*
X66362940Y24997940D01*
X66340293Y25025536D01*
X66323467Y25057015D01*
X66313103Y25091180D01*
X66309000Y25132842D01*
X66309000Y28207158D01*
X66313103Y28248820D01*
X66323467Y28282985D01*
X66340293Y28314464D01*
X66362940Y28342060D01*
X66390536Y28364707D01*
X66422015Y28381533D01*
X66456180Y28391897D01*
X66497842Y28396000D01*
X67747158Y28396000D01*
X67788820Y28391897D01*
G37*
G36*
X61813820Y28391897D02*
G01*
X61847985Y28381533D01*
X61879464Y28364707D01*
X61907060Y28342060D01*
X61929707Y28314464D01*
X61946533Y28282985D01*
X61956897Y28248820D01*
X61961000Y28207158D01*
X61961000Y25132842D01*
X61956897Y25091180D01*
X61946533Y25057015D01*
X61929707Y25025536D01*
X61907060Y24997940D01*
X61879464Y24975293D01*
X61847985Y24958467D01*
X61813820Y24948103D01*
X61772158Y24944000D01*
X60522842Y24944000D01*
X60481180Y24948103D01*
X60447015Y24958467D01*
X60415536Y24975293D01*
X60387940Y24997940D01*
X60365293Y25025536D01*
X60348467Y25057015D01*
X60338103Y25091180D01*
X60334000Y25132842D01*
X60334000Y28207158D01*
X60338103Y28248820D01*
X60348467Y28282985D01*
X60365293Y28314464D01*
X60387940Y28342060D01*
X60415536Y28364707D01*
X60447015Y28381533D01*
X60481180Y28391897D01*
X60522842Y28396000D01*
X61772158Y28396000D01*
X61813820Y28391897D01*
G37*
G36*
X94896125Y29353312D02*
G01*
X95035324Y29325623D01*
X95143949Y29280629D01*
X95297568Y29216998D01*
X95533583Y29059298D01*
X95734298Y28858583D01*
X95891998Y28622568D01*
X96000623Y28360323D01*
X96056000Y28081927D01*
X96056000Y27798073D01*
X96000623Y27519677D01*
X95891998Y27257432D01*
X95734298Y27021417D01*
X95533583Y26820702D01*
X95297568Y26663002D01*
X95143949Y26599371D01*
X95035324Y26554377D01*
X94896125Y26526688D01*
X94756927Y26499000D01*
X94473073Y26499000D01*
X94333875Y26526688D01*
X94194676Y26554377D01*
X94086051Y26599371D01*
X93932432Y26663002D01*
X93696417Y26820702D01*
X93495702Y27021417D01*
X93338002Y27257432D01*
X93229377Y27519677D01*
X93174000Y27798073D01*
X93174000Y28081927D01*
X93229377Y28360323D01*
X93338002Y28622568D01*
X93495702Y28858583D01*
X93696417Y29059298D01*
X93932432Y29216998D01*
X94086051Y29280629D01*
X94194676Y29325623D01*
X94333875Y29353311D01*
X94473073Y29381000D01*
X94756927Y29381000D01*
X94896125Y29353312D01*
G37*
G36*
X98296125Y29353312D02*
G01*
X98435324Y29325623D01*
X98543949Y29280629D01*
X98697568Y29216998D01*
X98933583Y29059298D01*
X99134298Y28858583D01*
X99291998Y28622568D01*
X99400623Y28360323D01*
X99456000Y28081927D01*
X99456000Y27798073D01*
X99400623Y27519677D01*
X99291998Y27257432D01*
X99134298Y27021417D01*
X98933583Y26820702D01*
X98697568Y26663002D01*
X98543949Y26599371D01*
X98435324Y26554377D01*
X98296125Y26526688D01*
X98156927Y26499000D01*
X97873073Y26499000D01*
X97733875Y26526688D01*
X97594676Y26554377D01*
X97486051Y26599371D01*
X97332432Y26663002D01*
X97096417Y26820702D01*
X96895702Y27021417D01*
X96738002Y27257432D01*
X96629377Y27519677D01*
X96574000Y27798073D01*
X96574000Y28081927D01*
X96629377Y28360323D01*
X96738002Y28622568D01*
X96895702Y28858583D01*
X97096417Y29059298D01*
X97332432Y29216998D01*
X97486051Y29280629D01*
X97594676Y29325623D01*
X97733875Y29353311D01*
X97873073Y29381000D01*
X98156927Y29381000D01*
X98296125Y29353312D01*
G37*
G36*
X83429903Y29142925D02*
G01*
X83631800Y29059297D01*
X83657571Y29048622D01*
X83862466Y28911715D01*
X84036715Y28737466D01*
X84173622Y28532571D01*
X84173623Y28532569D01*
X84267925Y28304903D01*
X84302859Y28129280D01*
X84316000Y28063213D01*
X84316000Y27816787D01*
X84267925Y27575097D01*
X84173622Y27347429D01*
X84036715Y27142534D01*
X83862466Y26968285D01*
X83657571Y26831378D01*
X83657570Y26831377D01*
X83657569Y26831377D01*
X83429903Y26737075D01*
X83188214Y26689000D01*
X82941786Y26689000D01*
X82700097Y26737075D01*
X82472431Y26831377D01*
X82472430Y26831377D01*
X82472429Y26831378D01*
X82267534Y26968285D01*
X82093285Y27142534D01*
X81956378Y27347429D01*
X81862075Y27575097D01*
X81814000Y27816787D01*
X81814000Y28063213D01*
X81827142Y28129280D01*
X81862075Y28304903D01*
X81956377Y28532569D01*
X81956378Y28532571D01*
X82093285Y28737466D01*
X82267534Y28911715D01*
X82472429Y29048622D01*
X82498201Y29059297D01*
X82700097Y29142925D01*
X82941786Y29191000D01*
X83188214Y29191000D01*
X83429903Y29142925D01*
G37*
G36*
X76816000Y26689000D02*
G01*
X74314000Y26689000D01*
X74314000Y29191000D01*
X76816000Y29191000D01*
X76816000Y26689000D01*
G37*
G36*
X19928966Y34440703D02*
G01*
X20105324Y34405623D01*
X20213949Y34360629D01*
X20367568Y34296998D01*
X20603583Y34139298D01*
X20804298Y33938583D01*
X20961998Y33702568D01*
X21070623Y33440323D01*
X21126000Y33161927D01*
X21126000Y32878073D01*
X21070623Y32599677D01*
X20961998Y32337432D01*
X20804298Y32101417D01*
X20603583Y31900702D01*
X20367568Y31743002D01*
X20213949Y31679371D01*
X20105324Y31634377D01*
X20053155Y31624000D01*
X19826927Y31579000D01*
X19543073Y31579000D01*
X19316845Y31624000D01*
X19264676Y31634377D01*
X19156051Y31679371D01*
X19002432Y31743002D01*
X18766417Y31900702D01*
X18565702Y32101417D01*
X18408002Y32337432D01*
X18299377Y32599677D01*
X18244000Y32878073D01*
X18244000Y33161927D01*
X18299377Y33440323D01*
X18408002Y33702568D01*
X18565702Y33938583D01*
X18766417Y34139298D01*
X19002432Y34296998D01*
X19156051Y34360629D01*
X19264676Y34405623D01*
X19441034Y34440703D01*
X19543073Y34461000D01*
X19826927Y34461000D01*
X19928966Y34440703D01*
G37*
G36*
X10008966Y34440703D02*
G01*
X10185324Y34405623D01*
X10293949Y34360629D01*
X10447568Y34296998D01*
X10683583Y34139298D01*
X10884298Y33938583D01*
X11041998Y33702568D01*
X11150623Y33440323D01*
X11206000Y33161927D01*
X11206000Y32878073D01*
X11150623Y32599677D01*
X11041998Y32337432D01*
X10884298Y32101417D01*
X10683583Y31900702D01*
X10447568Y31743002D01*
X10293949Y31679371D01*
X10185324Y31634377D01*
X10133155Y31624000D01*
X9906927Y31579000D01*
X9623073Y31579000D01*
X9396845Y31624000D01*
X9344676Y31634377D01*
X9236051Y31679371D01*
X9082432Y31743002D01*
X8846417Y31900702D01*
X8645702Y32101417D01*
X8488002Y32337432D01*
X8379377Y32599677D01*
X8324000Y32878073D01*
X8324000Y33161927D01*
X8379377Y33440323D01*
X8488002Y33702568D01*
X8645702Y33938583D01*
X8846417Y34139298D01*
X9082432Y34296998D01*
X9236051Y34360629D01*
X9344676Y34405623D01*
X9521034Y34440703D01*
X9623073Y34461000D01*
X9906927Y34461000D01*
X10008966Y34440703D01*
G37*
G36*
X64921601Y31624000D02*
G01*
X63064001Y31624000D01*
X63064001Y38226000D01*
X64921601Y38226000D01*
X64921601Y31624000D01*
G37*
G36*
X62665999Y31624000D02*
G01*
X60808399Y31624000D01*
X60808399Y38226000D01*
X62665999Y38226000D01*
X62665999Y31624000D01*
G37*
G36*
X27826125Y34843311D02*
G01*
X27965324Y34815623D01*
X28073949Y34770629D01*
X28227568Y34706998D01*
X28463583Y34549298D01*
X28664298Y34348583D01*
X28821998Y34112568D01*
X28930623Y33850323D01*
X28986000Y33571927D01*
X28986000Y33288073D01*
X28930623Y33009677D01*
X28821998Y32747432D01*
X28664298Y32511417D01*
X28463583Y32310702D01*
X28227568Y32153002D01*
X28103030Y32101417D01*
X27965324Y32044377D01*
X27826125Y32016688D01*
X27686927Y31989000D01*
X27403073Y31989000D01*
X27263875Y32016688D01*
X27124676Y32044377D01*
X26986970Y32101417D01*
X26862432Y32153002D01*
X26626417Y32310702D01*
X26425702Y32511417D01*
X26268002Y32747432D01*
X26159377Y33009677D01*
X26104000Y33288073D01*
X26104000Y33571927D01*
X26159377Y33850323D01*
X26268002Y34112568D01*
X26425702Y34348583D01*
X26626417Y34549298D01*
X26862432Y34706998D01*
X27016051Y34770629D01*
X27124676Y34815623D01*
X27263875Y34843311D01*
X27403073Y34871000D01*
X27686927Y34871000D01*
X27826125Y34843311D01*
G37*
G36*
X37746125Y34843311D02*
G01*
X37885324Y34815623D01*
X37993949Y34770629D01*
X38147568Y34706998D01*
X38383583Y34549298D01*
X38584298Y34348583D01*
X38741998Y34112568D01*
X38850623Y33850323D01*
X38906000Y33571927D01*
X38906000Y33288073D01*
X38850623Y33009677D01*
X38741998Y32747432D01*
X38584298Y32511417D01*
X38383583Y32310702D01*
X38147568Y32153002D01*
X38023030Y32101417D01*
X37885324Y32044377D01*
X37746125Y32016688D01*
X37606927Y31989000D01*
X37323073Y31989000D01*
X37183875Y32016688D01*
X37044676Y32044377D01*
X36906970Y32101417D01*
X36782432Y32153002D01*
X36546417Y32310702D01*
X36345702Y32511417D01*
X36188002Y32747432D01*
X36079377Y33009677D01*
X36024000Y33288073D01*
X36024000Y33571927D01*
X36079377Y33850323D01*
X36188002Y34112568D01*
X36345702Y34348583D01*
X36546417Y34549298D01*
X36782432Y34706998D01*
X36936051Y34770629D01*
X37044676Y34815623D01*
X37183875Y34843312D01*
X37323073Y34871000D01*
X37606927Y34871000D01*
X37746125Y34843311D01*
G37*
G36*
X47906125Y36973312D02*
G01*
X48045324Y36945623D01*
X48153949Y36900629D01*
X48307568Y36836998D01*
X48543583Y36679298D01*
X48744298Y36478583D01*
X48901998Y36242568D01*
X48941404Y36147432D01*
X49010623Y35980324D01*
X49024330Y35911416D01*
X49064255Y35710702D01*
X49066000Y35701926D01*
X49066000Y35418074D01*
X49011285Y35143002D01*
X49010623Y35139677D01*
X48901998Y34877432D01*
X48744298Y34641417D01*
X48543583Y34440702D01*
X48307568Y34283002D01*
X48153949Y34219371D01*
X48045324Y34174377D01*
X47906125Y34146688D01*
X47766927Y34119000D01*
X47483073Y34119000D01*
X47343875Y34146688D01*
X47204676Y34174377D01*
X47096051Y34219371D01*
X46942432Y34283002D01*
X46706417Y34440702D01*
X46505702Y34641417D01*
X46348002Y34877432D01*
X46239377Y35139677D01*
X46238716Y35143002D01*
X46184000Y35418074D01*
X46184000Y35701926D01*
X46185746Y35710702D01*
X46225670Y35911416D01*
X46239377Y35980324D01*
X46308596Y36147432D01*
X46348002Y36242568D01*
X46505702Y36478583D01*
X46706417Y36679298D01*
X46942432Y36836998D01*
X47096051Y36900629D01*
X47204676Y36945623D01*
X47343875Y36973312D01*
X47483073Y37001000D01*
X47766927Y37001000D01*
X47906125Y36973312D01*
G37*
G36*
X44506125Y36973312D02*
G01*
X44645324Y36945623D01*
X44753949Y36900629D01*
X44907568Y36836998D01*
X45143583Y36679298D01*
X45344298Y36478583D01*
X45501998Y36242568D01*
X45541404Y36147432D01*
X45610623Y35980324D01*
X45624330Y35911416D01*
X45664255Y35710702D01*
X45666000Y35701926D01*
X45666000Y35418074D01*
X45611285Y35143002D01*
X45610623Y35139677D01*
X45501998Y34877432D01*
X45344298Y34641417D01*
X45143583Y34440702D01*
X44907568Y34283002D01*
X44753949Y34219371D01*
X44645324Y34174377D01*
X44506125Y34146688D01*
X44366927Y34119000D01*
X44083073Y34119000D01*
X43943875Y34146688D01*
X43804676Y34174377D01*
X43696051Y34219371D01*
X43542432Y34283002D01*
X43306417Y34440702D01*
X43105702Y34641417D01*
X42948002Y34877432D01*
X42839377Y35139677D01*
X42838716Y35143002D01*
X42784000Y35418074D01*
X42784000Y35701926D01*
X42785746Y35710702D01*
X42825670Y35911416D01*
X42839377Y35980324D01*
X42908596Y36147432D01*
X42948002Y36242568D01*
X43105702Y36478583D01*
X43306417Y36679298D01*
X43542432Y36836998D01*
X43696051Y36900629D01*
X43804676Y36945623D01*
X43943875Y36973312D01*
X44083073Y37001000D01*
X44366927Y37001000D01*
X44506125Y36973312D01*
G37*
G36*
X55493228Y36378297D02*
G01*
X55648100Y36314147D01*
X55787481Y36221015D01*
X55906015Y36102481D01*
X55999147Y35963100D01*
X56063297Y35808228D01*
X56096000Y35643816D01*
X56096000Y35476184D01*
X56063297Y35311772D01*
X55999147Y35156900D01*
X55906015Y35017519D01*
X55787481Y34898985D01*
X55648100Y34805853D01*
X55493228Y34741703D01*
X55328816Y34709000D01*
X55161184Y34709000D01*
X54996772Y34741703D01*
X54841900Y34805853D01*
X54702519Y34898985D01*
X54583985Y35017519D01*
X54490853Y35156900D01*
X54426703Y35311772D01*
X54394000Y35476184D01*
X54394000Y35643816D01*
X54426703Y35808228D01*
X54490853Y35963100D01*
X54583985Y36102481D01*
X54702519Y36221015D01*
X54841900Y36314147D01*
X54996772Y36378297D01*
X55161184Y36411000D01*
X55328816Y36411000D01*
X55493228Y36378297D01*
G37*
G36*
X19966125Y37833311D02*
G01*
X20105324Y37805623D01*
X20213949Y37760629D01*
X20367568Y37696998D01*
X20603583Y37539298D01*
X20804298Y37338583D01*
X20961998Y37102568D01*
X21016111Y36971927D01*
X21070623Y36840324D01*
X21071285Y36836997D01*
X21126000Y36561927D01*
X21126000Y36278073D01*
X21114650Y36221015D01*
X21070623Y35999676D01*
X21055471Y35963097D01*
X20961998Y35737432D01*
X20804298Y35501417D01*
X20603583Y35300702D01*
X20367568Y35143002D01*
X20213949Y35079371D01*
X20105324Y35034377D01*
X20020578Y35017520D01*
X19826927Y34979000D01*
X19543073Y34979000D01*
X19349422Y35017520D01*
X19264676Y35034377D01*
X19156051Y35079371D01*
X19002432Y35143002D01*
X18766417Y35300702D01*
X18565702Y35501417D01*
X18408002Y35737432D01*
X18314529Y35963097D01*
X18299377Y35999676D01*
X18255350Y36221015D01*
X18244000Y36278073D01*
X18244000Y36561927D01*
X18298715Y36836997D01*
X18299377Y36840324D01*
X18353889Y36971927D01*
X18408002Y37102568D01*
X18565702Y37338583D01*
X18766417Y37539298D01*
X19002432Y37696998D01*
X19156051Y37760629D01*
X19264676Y37805623D01*
X19403875Y37833311D01*
X19543073Y37861000D01*
X19826927Y37861000D01*
X19966125Y37833311D01*
G37*
G36*
X10046125Y37833311D02*
G01*
X10185324Y37805623D01*
X10293949Y37760629D01*
X10447568Y37696998D01*
X10683583Y37539298D01*
X10884298Y37338583D01*
X11041998Y37102568D01*
X11096111Y36971927D01*
X11150623Y36840324D01*
X11151285Y36836997D01*
X11206000Y36561927D01*
X11206000Y36278073D01*
X11194650Y36221015D01*
X11150623Y35999676D01*
X11135471Y35963097D01*
X11041998Y35737432D01*
X10884298Y35501417D01*
X10683583Y35300702D01*
X10447568Y35143002D01*
X10293949Y35079371D01*
X10185324Y35034377D01*
X10100578Y35017520D01*
X9906927Y34979000D01*
X9623073Y34979000D01*
X9429422Y35017520D01*
X9344676Y35034377D01*
X9236051Y35079371D01*
X9082432Y35143002D01*
X8846417Y35300702D01*
X8645702Y35501417D01*
X8488002Y35737432D01*
X8394529Y35963097D01*
X8379377Y35999676D01*
X8335350Y36221015D01*
X8324000Y36278073D01*
X8324000Y36561927D01*
X8378715Y36836997D01*
X8379377Y36840324D01*
X8433889Y36971927D01*
X8488002Y37102568D01*
X8645702Y37338583D01*
X8846417Y37539298D01*
X9082432Y37696998D01*
X9236051Y37760629D01*
X9344676Y37805623D01*
X9483875Y37833311D01*
X9623073Y37861000D01*
X9906927Y37861000D01*
X10046125Y37833311D01*
G37*
G36*
X27826125Y38243312D02*
G01*
X27965324Y38215623D01*
X28073949Y38170629D01*
X28227568Y38106998D01*
X28463583Y37949298D01*
X28664298Y37748583D01*
X28821998Y37512568D01*
X28865014Y37408718D01*
X28891449Y37344899D01*
X28930623Y37250323D01*
X28986000Y36971927D01*
X28986000Y36688073D01*
X28984254Y36679297D01*
X28932478Y36419000D01*
X28930623Y36409677D01*
X28821998Y36147432D01*
X28664298Y35911417D01*
X28463583Y35710702D01*
X28227568Y35553002D01*
X28103030Y35501417D01*
X27965324Y35444377D01*
X27833090Y35418074D01*
X27686927Y35389000D01*
X27403073Y35389000D01*
X27256910Y35418074D01*
X27124676Y35444377D01*
X26986970Y35501417D01*
X26862432Y35553002D01*
X26626417Y35710702D01*
X26425702Y35911417D01*
X26268002Y36147432D01*
X26159377Y36409677D01*
X26157523Y36419000D01*
X26105746Y36679297D01*
X26104000Y36688073D01*
X26104000Y36971927D01*
X26159377Y37250323D01*
X26198552Y37344899D01*
X26224986Y37408718D01*
X26268002Y37512568D01*
X26425702Y37748583D01*
X26626417Y37949298D01*
X26862432Y38106998D01*
X27016051Y38170629D01*
X27124676Y38215623D01*
X27263875Y38243312D01*
X27403073Y38271000D01*
X27686927Y38271000D01*
X27826125Y38243312D01*
G37*
G36*
X37746125Y38243312D02*
G01*
X37885324Y38215623D01*
X37993949Y38170629D01*
X38147568Y38106998D01*
X38383583Y37949298D01*
X38584298Y37748583D01*
X38741998Y37512568D01*
X38785014Y37408718D01*
X38811449Y37344899D01*
X38850623Y37250323D01*
X38906000Y36971927D01*
X38906000Y36688073D01*
X38904254Y36679297D01*
X38852478Y36419000D01*
X38850623Y36409677D01*
X38741998Y36147432D01*
X38584298Y35911417D01*
X38383583Y35710702D01*
X38147568Y35553002D01*
X38023030Y35501417D01*
X37885324Y35444377D01*
X37753090Y35418074D01*
X37606927Y35389000D01*
X37323073Y35389000D01*
X37176910Y35418074D01*
X37044676Y35444377D01*
X36906970Y35501417D01*
X36782432Y35553002D01*
X36546417Y35710702D01*
X36345702Y35911417D01*
X36188002Y36147432D01*
X36079377Y36409677D01*
X36077523Y36419000D01*
X36025746Y36679297D01*
X36024000Y36688073D01*
X36024000Y36971927D01*
X36079377Y37250323D01*
X36118552Y37344899D01*
X36144986Y37408718D01*
X36188002Y37512568D01*
X36345702Y37748583D01*
X36546417Y37949298D01*
X36782432Y38106998D01*
X36936051Y38170629D01*
X37044676Y38215623D01*
X37183875Y38243312D01*
X37323073Y38271000D01*
X37606927Y38271000D01*
X37746125Y38243312D01*
G37*
G36*
X98296125Y39273312D02*
G01*
X98435324Y39245623D01*
X98543949Y39200629D01*
X98697568Y39136998D01*
X98933583Y38979298D01*
X99134298Y38778583D01*
X99291998Y38542568D01*
X99309099Y38501282D01*
X99400623Y38280324D01*
X99456000Y38001926D01*
X99456000Y37718074D01*
X99400623Y37439676D01*
X99363361Y37349718D01*
X99291998Y37177432D01*
X99134298Y36941417D01*
X98933583Y36740702D01*
X98697568Y36583002D01*
X98543949Y36519371D01*
X98435324Y36474377D01*
X98296125Y36446689D01*
X98156927Y36419000D01*
X97873073Y36419000D01*
X97733875Y36446688D01*
X97594676Y36474377D01*
X97486051Y36519371D01*
X97332432Y36583002D01*
X97096417Y36740702D01*
X96895702Y36941417D01*
X96738002Y37177432D01*
X96666639Y37349718D01*
X96629377Y37439676D01*
X96574000Y37718074D01*
X96574000Y38001926D01*
X96629377Y38280324D01*
X96720901Y38501282D01*
X96738002Y38542568D01*
X96895702Y38778583D01*
X97096417Y38979298D01*
X97332432Y39136998D01*
X97486051Y39200629D01*
X97594676Y39245623D01*
X97733875Y39273312D01*
X97873073Y39301000D01*
X98156927Y39301000D01*
X98296125Y39273312D01*
G37*
G36*
X94896125Y39273312D02*
G01*
X95035324Y39245623D01*
X95143949Y39200629D01*
X95297568Y39136998D01*
X95533583Y38979298D01*
X95734298Y38778583D01*
X95891998Y38542568D01*
X95909099Y38501282D01*
X96000623Y38280324D01*
X96056000Y38001926D01*
X96056000Y37718074D01*
X96000623Y37439676D01*
X95963361Y37349718D01*
X95891998Y37177432D01*
X95734298Y36941417D01*
X95533583Y36740702D01*
X95297568Y36583002D01*
X95143949Y36519371D01*
X95035324Y36474377D01*
X94896125Y36446689D01*
X94756927Y36419000D01*
X94473073Y36419000D01*
X94333875Y36446688D01*
X94194676Y36474377D01*
X94086051Y36519371D01*
X93932432Y36583002D01*
X93696417Y36740702D01*
X93495702Y36941417D01*
X93338002Y37177432D01*
X93266639Y37349718D01*
X93229377Y37439676D01*
X93174000Y37718074D01*
X93174000Y38001926D01*
X93229377Y38280324D01*
X93320901Y38501282D01*
X93338002Y38542568D01*
X93495702Y38778583D01*
X93696417Y38979298D01*
X93932432Y39136998D01*
X94086051Y39200629D01*
X94194676Y39245623D01*
X94333875Y39273312D01*
X94473073Y39301000D01*
X94756927Y39301000D01*
X94896125Y39273312D01*
G37*
G36*
X90758674Y38576535D02*
G01*
X90796367Y38565101D01*
X90831103Y38546534D01*
X90861548Y38521548D01*
X90886534Y38491103D01*
X90905101Y38456367D01*
X90916535Y38418674D01*
X90921000Y38373339D01*
X90921000Y37536661D01*
X90916535Y37491326D01*
X90905101Y37453633D01*
X90886534Y37418897D01*
X90861548Y37388452D01*
X90831103Y37363466D01*
X90796367Y37344899D01*
X90758674Y37333465D01*
X90713339Y37329000D01*
X89626661Y37329000D01*
X89581326Y37333465D01*
X89543633Y37344899D01*
X89508897Y37363466D01*
X89478452Y37388452D01*
X89453466Y37418897D01*
X89434899Y37453633D01*
X89423465Y37491326D01*
X89419000Y37536661D01*
X89419000Y38373339D01*
X89423465Y38418674D01*
X89434899Y38456367D01*
X89453466Y38491103D01*
X89478452Y38521548D01*
X89508897Y38546534D01*
X89543633Y38565101D01*
X89581326Y38576535D01*
X89626661Y38581000D01*
X90713339Y38581000D01*
X90758674Y38576535D01*
G37*
G36*
X90758674Y40626535D02*
G01*
X90796367Y40615101D01*
X90831103Y40596534D01*
X90861548Y40571548D01*
X90886534Y40541103D01*
X90905101Y40506367D01*
X90916535Y40468674D01*
X90921000Y40423339D01*
X90921000Y39586661D01*
X90916535Y39541326D01*
X90905101Y39503633D01*
X90886534Y39468897D01*
X90861548Y39438452D01*
X90831103Y39413466D01*
X90796367Y39394899D01*
X90758674Y39383465D01*
X90713339Y39379000D01*
X89626661Y39379000D01*
X89581326Y39383465D01*
X89543633Y39394899D01*
X89508897Y39413466D01*
X89478452Y39438452D01*
X89453466Y39468897D01*
X89434899Y39503633D01*
X89423465Y39541326D01*
X89419000Y39586661D01*
X89419000Y40423339D01*
X89423465Y40468674D01*
X89434899Y40506367D01*
X89453466Y40541103D01*
X89478452Y40571548D01*
X89508897Y40596534D01*
X89543633Y40615101D01*
X89581326Y40626535D01*
X89626661Y40631000D01*
X90713339Y40631000D01*
X90758674Y40626535D01*
G37*
G36*
X61548674Y41261535D02*
G01*
X61586367Y41250101D01*
X61621103Y41231534D01*
X61651548Y41206548D01*
X61676534Y41176103D01*
X61695101Y41141367D01*
X61706535Y41103674D01*
X61711000Y41058339D01*
X61711000Y40221661D01*
X61706535Y40176326D01*
X61695101Y40138633D01*
X61676534Y40103897D01*
X61651548Y40073452D01*
X61621103Y40048466D01*
X61586367Y40029899D01*
X61548674Y40018465D01*
X61503339Y40014000D01*
X60416661Y40014000D01*
X60371326Y40018465D01*
X60333633Y40029899D01*
X60298897Y40048466D01*
X60268452Y40073452D01*
X60243466Y40103897D01*
X60224899Y40138633D01*
X60213465Y40176326D01*
X60209000Y40221661D01*
X60209000Y41058339D01*
X60213465Y41103674D01*
X60224899Y41141367D01*
X60243466Y41176103D01*
X60268452Y41206548D01*
X60298897Y41231534D01*
X60333633Y41250101D01*
X60371326Y41261535D01*
X60416661Y41266000D01*
X61503339Y41266000D01*
X61548674Y41261535D01*
G37*
G36*
X66609499Y42431555D02*
G01*
X66646995Y42420180D01*
X66681554Y42401708D01*
X66711847Y42376847D01*
X66736708Y42346554D01*
X66755180Y42311995D01*
X66766555Y42274499D01*
X66771000Y42229362D01*
X66771000Y41590638D01*
X66766555Y41545501D01*
X66755180Y41508005D01*
X66736708Y41473446D01*
X66711847Y41443153D01*
X66681554Y41418292D01*
X66646995Y41399820D01*
X66609499Y41388445D01*
X66564362Y41384000D01*
X65825638Y41384000D01*
X65780501Y41388445D01*
X65743005Y41399820D01*
X65708446Y41418292D01*
X65678153Y41443153D01*
X65653292Y41473446D01*
X65634820Y41508005D01*
X65623445Y41545501D01*
X65619000Y41590638D01*
X65619000Y42229362D01*
X65623445Y42274499D01*
X65634820Y42311995D01*
X65653292Y42346554D01*
X65678153Y42376847D01*
X65708446Y42401708D01*
X65743005Y42420180D01*
X65780501Y42431555D01*
X65825638Y42436000D01*
X66564362Y42436000D01*
X66609499Y42431555D01*
G37*
G36*
X68359499Y42431555D02*
G01*
X68396995Y42420180D01*
X68431554Y42401708D01*
X68461847Y42376847D01*
X68486708Y42346554D01*
X68505180Y42311995D01*
X68516555Y42274499D01*
X68521000Y42229362D01*
X68521000Y41590638D01*
X68516555Y41545501D01*
X68505180Y41508005D01*
X68486708Y41473446D01*
X68461847Y41443153D01*
X68431554Y41418292D01*
X68396995Y41399820D01*
X68359499Y41388445D01*
X68314362Y41384000D01*
X67575638Y41384000D01*
X67530501Y41388445D01*
X67493005Y41399820D01*
X67458446Y41418292D01*
X67428153Y41443153D01*
X67403292Y41473446D01*
X67384820Y41508005D01*
X67373445Y41545501D01*
X67369000Y41590638D01*
X67369000Y42229362D01*
X67373445Y42274499D01*
X67384820Y42311995D01*
X67403292Y42346554D01*
X67428153Y42376847D01*
X67458446Y42401708D01*
X67493005Y42420180D01*
X67530501Y42431555D01*
X67575638Y42436000D01*
X68314362Y42436000D01*
X68359499Y42431555D01*
G37*
G36*
X31284286Y44606180D02*
G01*
X31488179Y44565623D01*
X31548744Y44540536D01*
X31750423Y44456998D01*
X31986438Y44299298D01*
X32187153Y44098583D01*
X32344853Y43862568D01*
X32404023Y43719718D01*
X32453478Y43600324D01*
X32508855Y43321926D01*
X32508855Y43038074D01*
X32453478Y42759676D01*
X32408484Y42651051D01*
X32344853Y42497432D01*
X32187153Y42261417D01*
X31986438Y42060702D01*
X31750423Y41903002D01*
X31596804Y41839371D01*
X31488179Y41794377D01*
X31348980Y41766688D01*
X31209782Y41739000D01*
X30925928Y41739000D01*
X30786730Y41766688D01*
X30647531Y41794377D01*
X30538906Y41839371D01*
X30385287Y41903002D01*
X30149272Y42060702D01*
X29948557Y42261417D01*
X29790857Y42497432D01*
X29727226Y42651051D01*
X29682232Y42759676D01*
X29626855Y43038074D01*
X29626855Y43321926D01*
X29682232Y43600324D01*
X29731687Y43719718D01*
X29790857Y43862568D01*
X29948557Y44098583D01*
X30149272Y44299298D01*
X30385287Y44456998D01*
X30586966Y44540536D01*
X30647531Y44565623D01*
X30851424Y44606180D01*
X30925928Y44621000D01*
X31209782Y44621000D01*
X31284286Y44606180D01*
G37*
G36*
X11555716Y44606180D02*
G01*
X11759609Y44565623D01*
X11820174Y44540536D01*
X12021853Y44456998D01*
X12257868Y44299298D01*
X12458583Y44098583D01*
X12616283Y43862568D01*
X12675453Y43719718D01*
X12724908Y43600324D01*
X12780285Y43321926D01*
X12780285Y43038074D01*
X12724908Y42759676D01*
X12679914Y42651051D01*
X12616283Y42497432D01*
X12458583Y42261417D01*
X12257868Y42060702D01*
X12021853Y41903002D01*
X11868234Y41839371D01*
X11759609Y41794377D01*
X11620410Y41766688D01*
X11481212Y41739000D01*
X11197358Y41739000D01*
X11058160Y41766688D01*
X10918961Y41794377D01*
X10810336Y41839371D01*
X10656717Y41903002D01*
X10420702Y42060702D01*
X10219987Y42261417D01*
X10062287Y42497432D01*
X9998656Y42651051D01*
X9953662Y42759676D01*
X9898285Y43038074D01*
X9898285Y43321926D01*
X9953662Y43600324D01*
X10003117Y43719718D01*
X10062287Y43862568D01*
X10219987Y44098583D01*
X10420702Y44299298D01*
X10656717Y44456998D01*
X10858396Y44540536D01*
X10918961Y44565623D01*
X11122854Y44606180D01*
X11197358Y44621000D01*
X11481212Y44621000D01*
X11555716Y44606180D01*
G37*
G36*
X14955716Y44606180D02*
G01*
X15159609Y44565623D01*
X15220174Y44540536D01*
X15421853Y44456998D01*
X15657868Y44299298D01*
X15858583Y44098583D01*
X16016283Y43862568D01*
X16075453Y43719718D01*
X16124908Y43600324D01*
X16180285Y43321926D01*
X16180285Y43038074D01*
X16124908Y42759676D01*
X16079914Y42651051D01*
X16016283Y42497432D01*
X15858583Y42261417D01*
X15657868Y42060702D01*
X15421853Y41903002D01*
X15268234Y41839371D01*
X15159609Y41794377D01*
X15020410Y41766688D01*
X14881212Y41739000D01*
X14597358Y41739000D01*
X14458160Y41766688D01*
X14318961Y41794377D01*
X14210336Y41839371D01*
X14056717Y41903002D01*
X13820702Y42060702D01*
X13619987Y42261417D01*
X13462287Y42497432D01*
X13398656Y42651051D01*
X13353662Y42759676D01*
X13298285Y43038074D01*
X13298285Y43321926D01*
X13353662Y43600324D01*
X13403117Y43719718D01*
X13462287Y43862568D01*
X13619987Y44098583D01*
X13820702Y44299298D01*
X14056717Y44456998D01*
X14258396Y44540536D01*
X14318961Y44565623D01*
X14522854Y44606180D01*
X14597358Y44621000D01*
X14881212Y44621000D01*
X14955716Y44606180D01*
G37*
G36*
X27884286Y44606180D02*
G01*
X28088179Y44565623D01*
X28148744Y44540536D01*
X28350423Y44456998D01*
X28586438Y44299298D01*
X28787153Y44098583D01*
X28944853Y43862568D01*
X29004023Y43719718D01*
X29053478Y43600324D01*
X29108855Y43321926D01*
X29108855Y43038074D01*
X29053478Y42759676D01*
X29008484Y42651051D01*
X28944853Y42497432D01*
X28787153Y42261417D01*
X28586438Y42060702D01*
X28350423Y41903002D01*
X28196804Y41839371D01*
X28088179Y41794377D01*
X27948980Y41766688D01*
X27809782Y41739000D01*
X27525928Y41739000D01*
X27386730Y41766688D01*
X27247531Y41794377D01*
X27138906Y41839371D01*
X26985287Y41903002D01*
X26749272Y42060702D01*
X26548557Y42261417D01*
X26390857Y42497432D01*
X26327226Y42651051D01*
X26282232Y42759676D01*
X26226855Y43038074D01*
X26226855Y43321926D01*
X26282232Y43600324D01*
X26331687Y43719718D01*
X26390857Y43862568D01*
X26548557Y44098583D01*
X26749272Y44299298D01*
X26985287Y44456998D01*
X27186966Y44540536D01*
X27247531Y44565623D01*
X27451424Y44606180D01*
X27525928Y44621000D01*
X27809782Y44621000D01*
X27884286Y44606180D01*
G37*
G36*
X52921431Y44606180D02*
G01*
X53125324Y44565623D01*
X53185889Y44540536D01*
X53387568Y44456998D01*
X53623583Y44299298D01*
X53824298Y44098583D01*
X53981998Y43862568D01*
X54041168Y43719718D01*
X54090623Y43600324D01*
X54146000Y43321926D01*
X54146000Y43038074D01*
X54090623Y42759676D01*
X54045629Y42651051D01*
X53981998Y42497432D01*
X53824298Y42261417D01*
X53623583Y42060702D01*
X53387568Y41903002D01*
X53233949Y41839371D01*
X53125324Y41794377D01*
X52986125Y41766688D01*
X52846927Y41739000D01*
X52563073Y41739000D01*
X52423875Y41766688D01*
X52284676Y41794377D01*
X52176051Y41839371D01*
X52022432Y41903002D01*
X51786417Y42060702D01*
X51585702Y42261417D01*
X51428002Y42497432D01*
X51364371Y42651051D01*
X51319377Y42759676D01*
X51264000Y43038074D01*
X51264000Y43321926D01*
X51319377Y43600324D01*
X51368832Y43719718D01*
X51428002Y43862568D01*
X51585702Y44098583D01*
X51786417Y44299298D01*
X52022432Y44456998D01*
X52224111Y44540536D01*
X52284676Y44565623D01*
X52488569Y44606180D01*
X52563073Y44621000D01*
X52846927Y44621000D01*
X52921431Y44606180D01*
G37*
G36*
X39448571Y44606180D02*
G01*
X39652464Y44565623D01*
X39713029Y44540536D01*
X39914708Y44456998D01*
X40150723Y44299298D01*
X40351438Y44098583D01*
X40509138Y43862568D01*
X40568308Y43719718D01*
X40617763Y43600324D01*
X40673140Y43321926D01*
X40673140Y43038074D01*
X40617763Y42759676D01*
X40572769Y42651051D01*
X40509138Y42497432D01*
X40351438Y42261417D01*
X40150723Y42060702D01*
X39914708Y41903002D01*
X39761089Y41839371D01*
X39652464Y41794377D01*
X39513265Y41766688D01*
X39374067Y41739000D01*
X39090213Y41739000D01*
X38951015Y41766688D01*
X38811816Y41794377D01*
X38703191Y41839371D01*
X38549572Y41903002D01*
X38313557Y42060702D01*
X38112842Y42261417D01*
X37955142Y42497432D01*
X37891511Y42651051D01*
X37846517Y42759676D01*
X37791140Y43038074D01*
X37791140Y43321926D01*
X37846517Y43600324D01*
X37895972Y43719718D01*
X37955142Y43862568D01*
X38112842Y44098583D01*
X38313557Y44299298D01*
X38549572Y44456998D01*
X38751251Y44540536D01*
X38811816Y44565623D01*
X39015709Y44606180D01*
X39090213Y44621000D01*
X39374067Y44621000D01*
X39448571Y44606180D01*
G37*
G36*
X36048571Y44606180D02*
G01*
X36252464Y44565623D01*
X36313029Y44540536D01*
X36514708Y44456998D01*
X36750723Y44299298D01*
X36951438Y44098583D01*
X37109138Y43862568D01*
X37168308Y43719718D01*
X37217763Y43600324D01*
X37273140Y43321926D01*
X37273140Y43038074D01*
X37217763Y42759676D01*
X37172769Y42651051D01*
X37109138Y42497432D01*
X36951438Y42261417D01*
X36750723Y42060702D01*
X36514708Y41903002D01*
X36361089Y41839371D01*
X36252464Y41794377D01*
X36113265Y41766688D01*
X35974067Y41739000D01*
X35690213Y41739000D01*
X35551015Y41766688D01*
X35411816Y41794377D01*
X35303191Y41839371D01*
X35149572Y41903002D01*
X34913557Y42060702D01*
X34712842Y42261417D01*
X34555142Y42497432D01*
X34491511Y42651051D01*
X34446517Y42759676D01*
X34391140Y43038074D01*
X34391140Y43321926D01*
X34446517Y43600324D01*
X34495972Y43719718D01*
X34555142Y43862568D01*
X34712842Y44098583D01*
X34913557Y44299298D01*
X35149572Y44456998D01*
X35351251Y44540536D01*
X35411816Y44565623D01*
X35615709Y44606180D01*
X35690213Y44621000D01*
X35974067Y44621000D01*
X36048571Y44606180D01*
G37*
G36*
X56321431Y44606180D02*
G01*
X56525324Y44565623D01*
X56585889Y44540536D01*
X56787568Y44456998D01*
X57023583Y44299298D01*
X57224298Y44098583D01*
X57381998Y43862568D01*
X57441168Y43719718D01*
X57490623Y43600324D01*
X57546000Y43321926D01*
X57546000Y43038074D01*
X57490623Y42759676D01*
X57445629Y42651051D01*
X57381998Y42497432D01*
X57224298Y42261417D01*
X57023583Y42060702D01*
X56787568Y41903002D01*
X56633949Y41839371D01*
X56525324Y41794377D01*
X56386125Y41766688D01*
X56246927Y41739000D01*
X55963073Y41739000D01*
X55823875Y41766688D01*
X55684676Y41794377D01*
X55576051Y41839371D01*
X55422432Y41903002D01*
X55186417Y42060702D01*
X54985702Y42261417D01*
X54828002Y42497432D01*
X54764371Y42651051D01*
X54719377Y42759676D01*
X54664000Y43038074D01*
X54664000Y43321926D01*
X54719377Y43600324D01*
X54768832Y43719718D01*
X54828002Y43862568D01*
X54985702Y44098583D01*
X55186417Y44299298D01*
X55422432Y44456998D01*
X55624111Y44540536D01*
X55684676Y44565623D01*
X55888569Y44606180D01*
X55963073Y44621000D01*
X56246927Y44621000D01*
X56321431Y44606180D01*
G37*
G36*
X19720001Y44606180D02*
G01*
X19923894Y44565623D01*
X19984459Y44540536D01*
X20186138Y44456998D01*
X20422153Y44299298D01*
X20622868Y44098583D01*
X20780568Y43862568D01*
X20839738Y43719718D01*
X20889193Y43600324D01*
X20944570Y43321926D01*
X20944570Y43038074D01*
X20889193Y42759676D01*
X20844199Y42651051D01*
X20780568Y42497432D01*
X20622868Y42261417D01*
X20422153Y42060702D01*
X20186138Y41903002D01*
X20032519Y41839371D01*
X19923894Y41794377D01*
X19784695Y41766688D01*
X19645497Y41739000D01*
X19361643Y41739000D01*
X19222445Y41766688D01*
X19083246Y41794377D01*
X18974621Y41839371D01*
X18821002Y41903002D01*
X18584987Y42060702D01*
X18384272Y42261417D01*
X18226572Y42497432D01*
X18162941Y42651051D01*
X18117947Y42759676D01*
X18062570Y43038074D01*
X18062570Y43321926D01*
X18117947Y43600324D01*
X18167402Y43719718D01*
X18226572Y43862568D01*
X18384272Y44098583D01*
X18584987Y44299298D01*
X18821002Y44456998D01*
X19022681Y44540536D01*
X19083246Y44565623D01*
X19287139Y44606180D01*
X19361643Y44621000D01*
X19645497Y44621000D01*
X19720001Y44606180D01*
G37*
G36*
X23120001Y44606180D02*
G01*
X23323894Y44565623D01*
X23384459Y44540536D01*
X23586138Y44456998D01*
X23822153Y44299298D01*
X24022868Y44098583D01*
X24180568Y43862568D01*
X24239738Y43719718D01*
X24289193Y43600324D01*
X24344570Y43321926D01*
X24344570Y43038074D01*
X24289193Y42759676D01*
X24244199Y42651051D01*
X24180568Y42497432D01*
X24022868Y42261417D01*
X23822153Y42060702D01*
X23586138Y41903002D01*
X23432519Y41839371D01*
X23323894Y41794377D01*
X23184695Y41766688D01*
X23045497Y41739000D01*
X22761643Y41739000D01*
X22622445Y41766688D01*
X22483246Y41794377D01*
X22374621Y41839371D01*
X22221002Y41903002D01*
X21984987Y42060702D01*
X21784272Y42261417D01*
X21626572Y42497432D01*
X21562941Y42651051D01*
X21517947Y42759676D01*
X21462570Y43038074D01*
X21462570Y43321926D01*
X21517947Y43600324D01*
X21567402Y43719718D01*
X21626572Y43862568D01*
X21784272Y44098583D01*
X21984987Y44299298D01*
X22221002Y44456998D01*
X22422681Y44540536D01*
X22483246Y44565623D01*
X22687139Y44606180D01*
X22761643Y44621000D01*
X23045497Y44621000D01*
X23120001Y44606180D01*
G37*
G36*
X47612856Y44606180D02*
G01*
X47816749Y44565623D01*
X47877314Y44540536D01*
X48078993Y44456998D01*
X48315008Y44299298D01*
X48515723Y44098583D01*
X48673423Y43862568D01*
X48732593Y43719718D01*
X48782048Y43600324D01*
X48837425Y43321926D01*
X48837425Y43038074D01*
X48782048Y42759676D01*
X48737054Y42651051D01*
X48673423Y42497432D01*
X48515723Y42261417D01*
X48315008Y42060702D01*
X48078993Y41903002D01*
X47925374Y41839371D01*
X47816749Y41794377D01*
X47677550Y41766688D01*
X47538352Y41739000D01*
X47254498Y41739000D01*
X47115300Y41766688D01*
X46976101Y41794377D01*
X46867476Y41839371D01*
X46713857Y41903002D01*
X46477842Y42060702D01*
X46277127Y42261417D01*
X46119427Y42497432D01*
X46055796Y42651051D01*
X46010802Y42759676D01*
X45955425Y43038074D01*
X45955425Y43321926D01*
X46010802Y43600324D01*
X46060257Y43719718D01*
X46119427Y43862568D01*
X46277127Y44098583D01*
X46477842Y44299298D01*
X46713857Y44456998D01*
X46915536Y44540536D01*
X46976101Y44565623D01*
X47179994Y44606180D01*
X47254498Y44621000D01*
X47538352Y44621000D01*
X47612856Y44606180D01*
G37*
G36*
X44212856Y44606180D02*
G01*
X44416749Y44565623D01*
X44477314Y44540536D01*
X44678993Y44456998D01*
X44915008Y44299298D01*
X45115723Y44098583D01*
X45273423Y43862568D01*
X45332593Y43719718D01*
X45382048Y43600324D01*
X45437425Y43321926D01*
X45437425Y43038074D01*
X45382048Y42759676D01*
X45337054Y42651051D01*
X45273423Y42497432D01*
X45115723Y42261417D01*
X44915008Y42060702D01*
X44678993Y41903002D01*
X44525374Y41839371D01*
X44416749Y41794377D01*
X44277550Y41766688D01*
X44138352Y41739000D01*
X43854498Y41739000D01*
X43715300Y41766688D01*
X43576101Y41794377D01*
X43467476Y41839371D01*
X43313857Y41903002D01*
X43077842Y42060702D01*
X42877127Y42261417D01*
X42719427Y42497432D01*
X42655796Y42651051D01*
X42610802Y42759676D01*
X42555425Y43038074D01*
X42555425Y43321926D01*
X42610802Y43600324D01*
X42660257Y43719718D01*
X42719427Y43862568D01*
X42877127Y44098583D01*
X43077842Y44299298D01*
X43313857Y44456998D01*
X43515536Y44540536D01*
X43576101Y44565623D01*
X43779994Y44606180D01*
X43854498Y44621000D01*
X44138352Y44621000D01*
X44212856Y44606180D01*
G37*
G36*
X61548674Y43311535D02*
G01*
X61586367Y43300101D01*
X61621103Y43281534D01*
X61651548Y43256548D01*
X61676534Y43226103D01*
X61695101Y43191367D01*
X61706535Y43153674D01*
X61711000Y43108339D01*
X61711000Y42271661D01*
X61706535Y42226326D01*
X61695101Y42188633D01*
X61676534Y42153897D01*
X61651548Y42123452D01*
X61621103Y42098466D01*
X61586367Y42079899D01*
X61548674Y42068465D01*
X61503339Y42064000D01*
X60416661Y42064000D01*
X60371326Y42068465D01*
X60333633Y42079899D01*
X60298897Y42098466D01*
X60268452Y42123452D01*
X60243466Y42153897D01*
X60224899Y42188633D01*
X60213465Y42226326D01*
X60209000Y42271661D01*
X60209000Y43108339D01*
X60213465Y43153674D01*
X60224899Y43191367D01*
X60243466Y43226103D01*
X60268452Y43256548D01*
X60298897Y43281534D01*
X60333633Y43300101D01*
X60371326Y43311535D01*
X60416661Y43316000D01*
X61503339Y43316000D01*
X61548674Y43311535D01*
G37*
G36*
X96203433Y45515107D02*
G01*
X96293657Y45497161D01*
X96399267Y45453415D01*
X96548621Y45391551D01*
X96548622Y45391550D01*
X96778086Y45238228D01*
X96973228Y45043086D01*
X97014094Y44981925D01*
X97126551Y44813621D01*
X97155737Y44743160D01*
X97232161Y44558657D01*
X97243043Y44503950D01*
X97286000Y44287988D01*
X97286000Y44012012D01*
X97267315Y43918075D01*
X97232161Y43741343D01*
X97221207Y43714899D01*
X97126551Y43486379D01*
X97126550Y43486378D01*
X96973228Y43256914D01*
X96778086Y43061772D01*
X96624763Y42959325D01*
X96548621Y42908449D01*
X96399267Y42846585D01*
X96293657Y42802839D01*
X96203433Y42784893D01*
X96022988Y42749000D01*
X95747012Y42749000D01*
X95566567Y42784893D01*
X95476343Y42802839D01*
X95370733Y42846585D01*
X95221379Y42908449D01*
X95145237Y42959325D01*
X94991914Y43061772D01*
X94796772Y43256914D01*
X94643450Y43486378D01*
X94643449Y43486379D01*
X94548793Y43714899D01*
X94537839Y43741343D01*
X94502685Y43918075D01*
X94484000Y44012012D01*
X94484000Y44287988D01*
X94526957Y44503950D01*
X94537839Y44558657D01*
X94614263Y44743160D01*
X94643449Y44813621D01*
X94755906Y44981925D01*
X94796772Y45043086D01*
X94991914Y45238228D01*
X95221378Y45391550D01*
X95221379Y45391551D01*
X95370733Y45453415D01*
X95476343Y45497161D01*
X95566567Y45515107D01*
X95747012Y45551000D01*
X96022988Y45551000D01*
X96203433Y45515107D01*
G37*
G36*
X73243674Y45196535D02*
G01*
X73281367Y45185101D01*
X73316103Y45166534D01*
X73346548Y45141548D01*
X73371534Y45111103D01*
X73390101Y45076367D01*
X73401535Y45038674D01*
X73406000Y44993339D01*
X73406000Y43906661D01*
X73401535Y43861326D01*
X73390101Y43823633D01*
X73371534Y43788897D01*
X73346548Y43758452D01*
X73316103Y43733466D01*
X73281367Y43714899D01*
X73243674Y43703465D01*
X73198339Y43699000D01*
X72361661Y43699000D01*
X72316326Y43703465D01*
X72278633Y43714899D01*
X72243897Y43733466D01*
X72213452Y43758452D01*
X72188466Y43788897D01*
X72169899Y43823633D01*
X72158465Y43861326D01*
X72154000Y43906661D01*
X72154000Y44993339D01*
X72158465Y45038674D01*
X72169899Y45076367D01*
X72188466Y45111103D01*
X72213452Y45141548D01*
X72243897Y45166534D01*
X72278633Y45185101D01*
X72316326Y45196535D01*
X72361661Y45201000D01*
X73198339Y45201000D01*
X73243674Y45196535D01*
G37*
G36*
X71193674Y45196535D02*
G01*
X71231367Y45185101D01*
X71266103Y45166534D01*
X71296548Y45141548D01*
X71321534Y45111103D01*
X71340101Y45076367D01*
X71351535Y45038674D01*
X71356000Y44993339D01*
X71356000Y43906661D01*
X71351535Y43861326D01*
X71340101Y43823633D01*
X71321534Y43788897D01*
X71296548Y43758452D01*
X71266103Y43733466D01*
X71231367Y43714899D01*
X71193674Y43703465D01*
X71148339Y43699000D01*
X70311661Y43699000D01*
X70266326Y43703465D01*
X70228633Y43714899D01*
X70193897Y43733466D01*
X70163452Y43758452D01*
X70138466Y43788897D01*
X70119899Y43823633D01*
X70108465Y43861326D01*
X70104000Y43906661D01*
X70104000Y44993339D01*
X70108465Y45038674D01*
X70119899Y45076367D01*
X70138466Y45111103D01*
X70163452Y45141548D01*
X70193897Y45166534D01*
X70228633Y45185101D01*
X70266326Y45196535D01*
X70311661Y45201000D01*
X71148339Y45201000D01*
X71193674Y45196535D01*
G37*
G36*
X80953820Y46081897D02*
G01*
X80987985Y46071533D01*
X81019464Y46054707D01*
X81047060Y46032060D01*
X81069707Y46004464D01*
X81086533Y45972985D01*
X81096897Y45938820D01*
X81101000Y45897158D01*
X81101000Y44647842D01*
X81096897Y44606180D01*
X81086533Y44572015D01*
X81069707Y44540536D01*
X81047060Y44512940D01*
X81019464Y44490293D01*
X80987985Y44473467D01*
X80953820Y44463103D01*
X80912158Y44459000D01*
X77837842Y44459000D01*
X77796180Y44463103D01*
X77762015Y44473467D01*
X77730536Y44490293D01*
X77702940Y44512940D01*
X77680293Y44540536D01*
X77663467Y44572015D01*
X77653103Y44606180D01*
X77649000Y44647842D01*
X77649000Y45897158D01*
X77653103Y45938820D01*
X77663467Y45972985D01*
X77680293Y46004464D01*
X77702940Y46032060D01*
X77730536Y46054707D01*
X77762015Y46071533D01*
X77796180Y46081897D01*
X77837842Y46086000D01*
X80912158Y46086000D01*
X80953820Y46081897D01*
G37*
G36*
X62659928Y45433236D02*
G01*
X62681009Y45426840D01*
X62700445Y45416452D01*
X62717476Y45402476D01*
X62731452Y45385445D01*
X62741840Y45366009D01*
X62748236Y45344928D01*
X62751000Y45316860D01*
X62751000Y44853140D01*
X62748236Y44825072D01*
X62741840Y44803991D01*
X62731452Y44784555D01*
X62717476Y44767524D01*
X62700445Y44753548D01*
X62681009Y44743160D01*
X62659928Y44736764D01*
X62631860Y44734000D01*
X60818140Y44734000D01*
X60790072Y44736764D01*
X60768991Y44743160D01*
X60749555Y44753548D01*
X60732524Y44767524D01*
X60718548Y44784555D01*
X60708160Y44803991D01*
X60701764Y44825072D01*
X60699000Y44853140D01*
X60699000Y45316860D01*
X60701764Y45344928D01*
X60708160Y45366009D01*
X60718548Y45385445D01*
X60732524Y45402476D01*
X60749555Y45416452D01*
X60768991Y45426840D01*
X60790072Y45433236D01*
X60818140Y45436000D01*
X62631860Y45436000D01*
X62659928Y45433236D01*
G37*
G36*
X67609928Y45433236D02*
G01*
X67631009Y45426840D01*
X67650445Y45416452D01*
X67667476Y45402476D01*
X67681452Y45385445D01*
X67691840Y45366009D01*
X67698236Y45344928D01*
X67701000Y45316860D01*
X67701000Y44853140D01*
X67698236Y44825072D01*
X67691840Y44803991D01*
X67681452Y44784555D01*
X67667476Y44767524D01*
X67650445Y44753548D01*
X67631009Y44743160D01*
X67609928Y44736764D01*
X67581860Y44734000D01*
X65768140Y44734000D01*
X65740072Y44736764D01*
X65718991Y44743160D01*
X65699555Y44753548D01*
X65682524Y44767524D01*
X65668548Y44784555D01*
X65658160Y44803991D01*
X65651764Y44825072D01*
X65649000Y44853140D01*
X65649000Y45316860D01*
X65651764Y45344928D01*
X65658160Y45366009D01*
X65668548Y45385445D01*
X65682524Y45402476D01*
X65699555Y45416452D01*
X65718991Y45426840D01*
X65740072Y45433236D01*
X65768140Y45436000D01*
X67581860Y45436000D01*
X67609928Y45433236D01*
G37*
G36*
X67609928Y46703236D02*
G01*
X67631009Y46696840D01*
X67650445Y46686452D01*
X67667476Y46672476D01*
X67681452Y46655445D01*
X67691840Y46636009D01*
X67698236Y46614928D01*
X67701000Y46586860D01*
X67701000Y46123140D01*
X67698236Y46095072D01*
X67691840Y46073991D01*
X67681452Y46054555D01*
X67667476Y46037524D01*
X67650445Y46023548D01*
X67631009Y46013160D01*
X67609928Y46006764D01*
X67581860Y46004000D01*
X65768140Y46004000D01*
X65740072Y46006764D01*
X65718991Y46013160D01*
X65699555Y46023548D01*
X65682524Y46037524D01*
X65668548Y46054555D01*
X65658160Y46073991D01*
X65651764Y46095072D01*
X65649000Y46123140D01*
X65649000Y46586860D01*
X65651764Y46614928D01*
X65658160Y46636009D01*
X65668548Y46655445D01*
X65682524Y46672476D01*
X65699555Y46686452D01*
X65718991Y46696840D01*
X65740072Y46703236D01*
X65768140Y46706000D01*
X67581860Y46706000D01*
X67609928Y46703236D01*
G37*
G36*
X62659928Y46703236D02*
G01*
X62681009Y46696840D01*
X62700445Y46686452D01*
X62717476Y46672476D01*
X62731452Y46655445D01*
X62741840Y46636009D01*
X62748236Y46614928D01*
X62751000Y46586860D01*
X62751000Y46123140D01*
X62748236Y46095072D01*
X62741840Y46073991D01*
X62731452Y46054555D01*
X62717476Y46037524D01*
X62700445Y46023548D01*
X62681009Y46013160D01*
X62659928Y46006764D01*
X62631860Y46004000D01*
X60818140Y46004000D01*
X60790072Y46006764D01*
X60768991Y46013160D01*
X60749555Y46023548D01*
X60732524Y46037524D01*
X60718548Y46054555D01*
X60708160Y46073991D01*
X60701764Y46095072D01*
X60699000Y46123140D01*
X60699000Y46586860D01*
X60701764Y46614928D01*
X60708160Y46636009D01*
X60718548Y46655445D01*
X60732524Y46672476D01*
X60749555Y46686452D01*
X60768991Y46696840D01*
X60790072Y46703236D01*
X60818140Y46706000D01*
X62631860Y46706000D01*
X62659928Y46703236D01*
G37*
G36*
X89026000Y46203399D02*
G01*
X82424000Y46203399D01*
X82424000Y48060999D01*
X89026000Y48060999D01*
X89026000Y46203399D01*
G37*
G36*
X69579499Y47956555D02*
G01*
X69616995Y47945180D01*
X69651554Y47926708D01*
X69681847Y47901847D01*
X69706708Y47871554D01*
X69725180Y47836995D01*
X69736555Y47799499D01*
X69741000Y47754362D01*
X69741000Y47015638D01*
X69736555Y46970501D01*
X69725180Y46933005D01*
X69706708Y46898446D01*
X69681847Y46868153D01*
X69651554Y46843292D01*
X69616995Y46824820D01*
X69579499Y46813445D01*
X69534362Y46809000D01*
X68895638Y46809000D01*
X68850501Y46813445D01*
X68813005Y46824820D01*
X68778446Y46843292D01*
X68748153Y46868153D01*
X68723292Y46898446D01*
X68704820Y46933005D01*
X68693445Y46970501D01*
X68689000Y47015638D01*
X68689000Y47754362D01*
X68693445Y47799499D01*
X68704820Y47836995D01*
X68723292Y47871554D01*
X68748153Y47901847D01*
X68778446Y47926708D01*
X68813005Y47945180D01*
X68850501Y47956555D01*
X68895638Y47961000D01*
X69534362Y47961000D01*
X69579499Y47956555D01*
G37*
G36*
X62659928Y47973236D02*
G01*
X62681009Y47966840D01*
X62700445Y47956452D01*
X62717476Y47942476D01*
X62731452Y47925445D01*
X62741840Y47906009D01*
X62748236Y47884928D01*
X62751000Y47856860D01*
X62751000Y47393140D01*
X62748236Y47365072D01*
X62741840Y47343991D01*
X62731452Y47324555D01*
X62717476Y47307524D01*
X62700445Y47293548D01*
X62681009Y47283160D01*
X62659928Y47276764D01*
X62631860Y47274000D01*
X60818140Y47274000D01*
X60790072Y47276764D01*
X60768991Y47283160D01*
X60749555Y47293548D01*
X60732524Y47307524D01*
X60718548Y47324555D01*
X60708160Y47343991D01*
X60701764Y47365072D01*
X60699000Y47393140D01*
X60699000Y47856860D01*
X60701764Y47884928D01*
X60708160Y47906009D01*
X60718548Y47925445D01*
X60732524Y47942476D01*
X60749555Y47956452D01*
X60768991Y47966840D01*
X60790072Y47973236D01*
X60818140Y47976000D01*
X62631860Y47976000D01*
X62659928Y47973236D01*
G37*
G36*
X67609928Y47973236D02*
G01*
X67631009Y47966840D01*
X67650445Y47956452D01*
X67667476Y47942476D01*
X67681452Y47925445D01*
X67691840Y47906009D01*
X67698236Y47884928D01*
X67701000Y47856860D01*
X67701000Y47393140D01*
X67698236Y47365072D01*
X67691840Y47343991D01*
X67681452Y47324555D01*
X67667476Y47307524D01*
X67650445Y47293548D01*
X67631009Y47283160D01*
X67609928Y47276764D01*
X67581860Y47274000D01*
X65768140Y47274000D01*
X65740072Y47276764D01*
X65718991Y47283160D01*
X65699555Y47293548D01*
X65682524Y47307524D01*
X65668548Y47324555D01*
X65658160Y47343991D01*
X65651764Y47365072D01*
X65649000Y47393140D01*
X65649000Y47856860D01*
X65651764Y47884928D01*
X65658160Y47906009D01*
X65668548Y47925445D01*
X65682524Y47942476D01*
X65699555Y47956452D01*
X65718991Y47966840D01*
X65740072Y47973236D01*
X65768140Y47976000D01*
X67581860Y47976000D01*
X67609928Y47973236D01*
G37*
G36*
X89026000Y48459001D02*
G01*
X82424000Y48459001D01*
X82424000Y50316601D01*
X89026000Y50316601D01*
X89026000Y48459001D01*
G37*
G36*
X62659928Y49243236D02*
G01*
X62681009Y49236840D01*
X62700445Y49226452D01*
X62717476Y49212476D01*
X62731452Y49195445D01*
X62741840Y49176009D01*
X62748236Y49154928D01*
X62751000Y49126860D01*
X62751000Y48663140D01*
X62748236Y48635072D01*
X62741840Y48613991D01*
X62731452Y48594555D01*
X62717476Y48577524D01*
X62700445Y48563548D01*
X62681009Y48553160D01*
X62659928Y48546764D01*
X62631860Y48544000D01*
X60818140Y48544000D01*
X60790072Y48546764D01*
X60768991Y48553160D01*
X60749555Y48563548D01*
X60732524Y48577524D01*
X60718548Y48594555D01*
X60708160Y48613991D01*
X60701764Y48635072D01*
X60699000Y48663140D01*
X60699000Y49126860D01*
X60701764Y49154928D01*
X60708160Y49176009D01*
X60718548Y49195445D01*
X60732524Y49212476D01*
X60749555Y49226452D01*
X60768991Y49236840D01*
X60790072Y49243236D01*
X60818140Y49246000D01*
X62631860Y49246000D01*
X62659928Y49243236D01*
G37*
G36*
X67609928Y49243236D02*
G01*
X67631009Y49236840D01*
X67650445Y49226452D01*
X67667476Y49212476D01*
X67681452Y49195445D01*
X67691840Y49176009D01*
X67698236Y49154928D01*
X67701000Y49126860D01*
X67701000Y48663140D01*
X67698236Y48635072D01*
X67691840Y48613991D01*
X67681452Y48594555D01*
X67667476Y48577524D01*
X67650445Y48563548D01*
X67631009Y48553160D01*
X67609928Y48546764D01*
X67581860Y48544000D01*
X65768140Y48544000D01*
X65740072Y48546764D01*
X65718991Y48553160D01*
X65699555Y48563548D01*
X65682524Y48577524D01*
X65668548Y48594555D01*
X65658160Y48613991D01*
X65651764Y48635072D01*
X65649000Y48663140D01*
X65649000Y49126860D01*
X65651764Y49154928D01*
X65658160Y49176009D01*
X65668548Y49195445D01*
X65682524Y49212476D01*
X65699555Y49226452D01*
X65718991Y49236840D01*
X65740072Y49243236D01*
X65768140Y49246000D01*
X67581860Y49246000D01*
X67609928Y49243236D01*
G37*
G36*
X69579499Y49706555D02*
G01*
X69616995Y49695180D01*
X69651554Y49676708D01*
X69681847Y49651847D01*
X69706708Y49621554D01*
X69725180Y49586995D01*
X69736555Y49549499D01*
X69741000Y49504362D01*
X69741000Y48765638D01*
X69736555Y48720501D01*
X69725180Y48683005D01*
X69706708Y48648446D01*
X69681847Y48618153D01*
X69651554Y48593292D01*
X69616995Y48574820D01*
X69579499Y48563445D01*
X69534362Y48559000D01*
X68895638Y48559000D01*
X68850501Y48563445D01*
X68813005Y48574820D01*
X68778446Y48593292D01*
X68748153Y48618153D01*
X68723292Y48648446D01*
X68704820Y48683005D01*
X68693445Y48720501D01*
X68689000Y48765638D01*
X68689000Y49504362D01*
X68693445Y49549499D01*
X68704820Y49586995D01*
X68723292Y49621554D01*
X68748153Y49651847D01*
X68778446Y49676708D01*
X68813005Y49695180D01*
X68850501Y49706555D01*
X68895638Y49711000D01*
X69534362Y49711000D01*
X69579499Y49706555D01*
G37*
G36*
X80953820Y52056897D02*
G01*
X80987985Y52046533D01*
X81019464Y52029707D01*
X81047060Y52007060D01*
X81069707Y51979464D01*
X81086533Y51947985D01*
X81096897Y51913820D01*
X81101000Y51872158D01*
X81101000Y50622842D01*
X81096897Y50581180D01*
X81086533Y50547015D01*
X81069707Y50515536D01*
X81047060Y50487940D01*
X81019464Y50465293D01*
X80987985Y50448467D01*
X80953820Y50438103D01*
X80912158Y50434000D01*
X77837842Y50434000D01*
X77796180Y50438103D01*
X77762015Y50448467D01*
X77730536Y50465293D01*
X77702940Y50487940D01*
X77680293Y50515536D01*
X77663467Y50547015D01*
X77653103Y50581180D01*
X77649000Y50622842D01*
X77649000Y51872158D01*
X77653103Y51913820D01*
X77663467Y51947985D01*
X77680293Y51979464D01*
X77702940Y52007060D01*
X77730536Y52029707D01*
X77762015Y52046533D01*
X77796180Y52056897D01*
X77837842Y52061000D01*
X80912158Y52061000D01*
X80953820Y52056897D01*
G37*
G36*
X97159031Y53467379D02*
G01*
X97188486Y53458444D01*
X97215623Y53443938D01*
X97239414Y53424414D01*
X97258938Y53400623D01*
X97273444Y53373486D01*
X97282379Y53344031D01*
X97286000Y53307266D01*
X97286000Y50832734D01*
X97282379Y50795969D01*
X97273444Y50766514D01*
X97258938Y50739377D01*
X97239414Y50715586D01*
X97215623Y50696062D01*
X97188486Y50681556D01*
X97159031Y50672621D01*
X97122266Y50669000D01*
X94647734Y50669000D01*
X94610969Y50672621D01*
X94581514Y50681556D01*
X94554377Y50696062D01*
X94530586Y50715586D01*
X94511062Y50739377D01*
X94496556Y50766514D01*
X94487621Y50795969D01*
X94484000Y50832734D01*
X94484000Y53307266D01*
X94487621Y53344031D01*
X94496556Y53373486D01*
X94511062Y53400623D01*
X94530586Y53424414D01*
X94554377Y53443938D01*
X94581514Y53458444D01*
X94610969Y53467379D01*
X94647734Y53471000D01*
X97122266Y53471000D01*
X97159031Y53467379D01*
G37*
G36*
X47677550Y54513312D02*
G01*
X47816749Y54485623D01*
X47925374Y54440629D01*
X48078993Y54376998D01*
X48315008Y54219298D01*
X48515723Y54018583D01*
X48673423Y53782568D01*
X48737054Y53628949D01*
X48782048Y53520324D01*
X48797242Y53443938D01*
X48837425Y53241927D01*
X48837425Y52958073D01*
X48782048Y52679677D01*
X48673423Y52417432D01*
X48515723Y52181417D01*
X48315008Y51980702D01*
X48078993Y51823002D01*
X47925374Y51759371D01*
X47816749Y51714377D01*
X47677550Y51686688D01*
X47538352Y51659000D01*
X47254498Y51659000D01*
X47115300Y51686688D01*
X46976101Y51714377D01*
X46867476Y51759371D01*
X46713857Y51823002D01*
X46477842Y51980702D01*
X46277127Y52181417D01*
X46119427Y52417432D01*
X46010802Y52679677D01*
X45955425Y52958073D01*
X45955425Y53241927D01*
X45995608Y53443938D01*
X46010802Y53520324D01*
X46055796Y53628949D01*
X46119427Y53782568D01*
X46277127Y54018583D01*
X46477842Y54219298D01*
X46713857Y54376998D01*
X46867476Y54440629D01*
X46976101Y54485623D01*
X47115300Y54513312D01*
X47254498Y54541000D01*
X47538352Y54541000D01*
X47677550Y54513312D01*
G37*
G36*
X36113265Y54513312D02*
G01*
X36252464Y54485623D01*
X36361089Y54440629D01*
X36514708Y54376998D01*
X36750723Y54219298D01*
X36951438Y54018583D01*
X37109138Y53782568D01*
X37172769Y53628949D01*
X37217763Y53520324D01*
X37232957Y53443938D01*
X37273140Y53241927D01*
X37273140Y52958073D01*
X37217763Y52679677D01*
X37109138Y52417432D01*
X36951438Y52181417D01*
X36750723Y51980702D01*
X36514708Y51823002D01*
X36361089Y51759371D01*
X36252464Y51714377D01*
X36113265Y51686688D01*
X35974067Y51659000D01*
X35690213Y51659000D01*
X35551015Y51686688D01*
X35411816Y51714377D01*
X35303191Y51759371D01*
X35149572Y51823002D01*
X34913557Y51980702D01*
X34712842Y52181417D01*
X34555142Y52417432D01*
X34446517Y52679677D01*
X34391140Y52958073D01*
X34391140Y53241927D01*
X34431323Y53443938D01*
X34446517Y53520324D01*
X34491511Y53628949D01*
X34555142Y53782568D01*
X34712842Y54018583D01*
X34913557Y54219298D01*
X35149572Y54376998D01*
X35303191Y54440629D01*
X35411816Y54485623D01*
X35551015Y54513312D01*
X35690213Y54541000D01*
X35974067Y54541000D01*
X36113265Y54513312D01*
G37*
G36*
X23184695Y54513312D02*
G01*
X23323894Y54485623D01*
X23432519Y54440629D01*
X23586138Y54376998D01*
X23822153Y54219298D01*
X24022868Y54018583D01*
X24180568Y53782568D01*
X24244199Y53628949D01*
X24289193Y53520324D01*
X24304387Y53443938D01*
X24344570Y53241927D01*
X24344570Y52958073D01*
X24289193Y52679677D01*
X24180568Y52417432D01*
X24022868Y52181417D01*
X23822153Y51980702D01*
X23586138Y51823002D01*
X23432519Y51759371D01*
X23323894Y51714377D01*
X23184695Y51686688D01*
X23045497Y51659000D01*
X22761643Y51659000D01*
X22622445Y51686688D01*
X22483246Y51714377D01*
X22374621Y51759371D01*
X22221002Y51823002D01*
X21984987Y51980702D01*
X21784272Y52181417D01*
X21626572Y52417432D01*
X21517947Y52679677D01*
X21462570Y52958073D01*
X21462570Y53241927D01*
X21502753Y53443938D01*
X21517947Y53520324D01*
X21562941Y53628949D01*
X21626572Y53782568D01*
X21784272Y54018583D01*
X21984987Y54219298D01*
X22221002Y54376998D01*
X22374621Y54440629D01*
X22483246Y54485623D01*
X22622445Y54513312D01*
X22761643Y54541000D01*
X23045497Y54541000D01*
X23184695Y54513312D01*
G37*
G36*
X31348980Y54513312D02*
G01*
X31488179Y54485623D01*
X31596804Y54440629D01*
X31750423Y54376998D01*
X31986438Y54219298D01*
X32187153Y54018583D01*
X32344853Y53782568D01*
X32408484Y53628949D01*
X32453478Y53520324D01*
X32468672Y53443938D01*
X32508855Y53241927D01*
X32508855Y52958073D01*
X32453478Y52679677D01*
X32344853Y52417432D01*
X32187153Y52181417D01*
X31986438Y51980702D01*
X31750423Y51823002D01*
X31596804Y51759371D01*
X31488179Y51714377D01*
X31348980Y51686688D01*
X31209782Y51659000D01*
X30925928Y51659000D01*
X30786730Y51686688D01*
X30647531Y51714377D01*
X30538906Y51759371D01*
X30385287Y51823002D01*
X30149272Y51980702D01*
X29948557Y52181417D01*
X29790857Y52417432D01*
X29682232Y52679677D01*
X29626855Y52958073D01*
X29626855Y53241927D01*
X29667038Y53443938D01*
X29682232Y53520324D01*
X29727226Y53628949D01*
X29790857Y53782568D01*
X29948557Y54018583D01*
X30149272Y54219298D01*
X30385287Y54376998D01*
X30538906Y54440629D01*
X30647531Y54485623D01*
X30786730Y54513312D01*
X30925928Y54541000D01*
X31209782Y54541000D01*
X31348980Y54513312D01*
G37*
G36*
X19784695Y54513312D02*
G01*
X19923894Y54485623D01*
X20032519Y54440629D01*
X20186138Y54376998D01*
X20422153Y54219298D01*
X20622868Y54018583D01*
X20780568Y53782568D01*
X20844199Y53628949D01*
X20889193Y53520324D01*
X20904387Y53443938D01*
X20944570Y53241927D01*
X20944570Y52958073D01*
X20889193Y52679677D01*
X20780568Y52417432D01*
X20622868Y52181417D01*
X20422153Y51980702D01*
X20186138Y51823002D01*
X20032519Y51759371D01*
X19923894Y51714377D01*
X19784695Y51686688D01*
X19645497Y51659000D01*
X19361643Y51659000D01*
X19222445Y51686688D01*
X19083246Y51714377D01*
X18974621Y51759371D01*
X18821002Y51823002D01*
X18584987Y51980702D01*
X18384272Y52181417D01*
X18226572Y52417432D01*
X18117947Y52679677D01*
X18062570Y52958073D01*
X18062570Y53241927D01*
X18102753Y53443938D01*
X18117947Y53520324D01*
X18162941Y53628949D01*
X18226572Y53782568D01*
X18384272Y54018583D01*
X18584987Y54219298D01*
X18821002Y54376998D01*
X18974621Y54440629D01*
X19083246Y54485623D01*
X19222445Y54513312D01*
X19361643Y54541000D01*
X19645497Y54541000D01*
X19784695Y54513312D01*
G37*
G36*
X39513265Y54513312D02*
G01*
X39652464Y54485623D01*
X39761089Y54440629D01*
X39914708Y54376998D01*
X40150723Y54219298D01*
X40351438Y54018583D01*
X40509138Y53782568D01*
X40572769Y53628949D01*
X40617763Y53520324D01*
X40632957Y53443938D01*
X40673140Y53241927D01*
X40673140Y52958073D01*
X40617763Y52679677D01*
X40509138Y52417432D01*
X40351438Y52181417D01*
X40150723Y51980702D01*
X39914708Y51823002D01*
X39761089Y51759371D01*
X39652464Y51714377D01*
X39513265Y51686688D01*
X39374067Y51659000D01*
X39090213Y51659000D01*
X38951015Y51686688D01*
X38811816Y51714377D01*
X38703191Y51759371D01*
X38549572Y51823002D01*
X38313557Y51980702D01*
X38112842Y52181417D01*
X37955142Y52417432D01*
X37846517Y52679677D01*
X37791140Y52958073D01*
X37791140Y53241927D01*
X37831323Y53443938D01*
X37846517Y53520324D01*
X37891511Y53628949D01*
X37955142Y53782568D01*
X38112842Y54018583D01*
X38313557Y54219298D01*
X38549572Y54376998D01*
X38703191Y54440629D01*
X38811816Y54485623D01*
X38951015Y54513312D01*
X39090213Y54541000D01*
X39374067Y54541000D01*
X39513265Y54513312D01*
G37*
G36*
X15020410Y54513312D02*
G01*
X15159609Y54485623D01*
X15268234Y54440629D01*
X15421853Y54376998D01*
X15657868Y54219298D01*
X15858583Y54018583D01*
X16016283Y53782568D01*
X16079914Y53628949D01*
X16124908Y53520324D01*
X16140102Y53443938D01*
X16180285Y53241927D01*
X16180285Y52958073D01*
X16124908Y52679677D01*
X16016283Y52417432D01*
X15858583Y52181417D01*
X15657868Y51980702D01*
X15421853Y51823002D01*
X15268234Y51759371D01*
X15159609Y51714377D01*
X15020410Y51686688D01*
X14881212Y51659000D01*
X14597358Y51659000D01*
X14458160Y51686688D01*
X14318961Y51714377D01*
X14210336Y51759371D01*
X14056717Y51823002D01*
X13820702Y51980702D01*
X13619987Y52181417D01*
X13462287Y52417432D01*
X13353662Y52679677D01*
X13298285Y52958073D01*
X13298285Y53241927D01*
X13338468Y53443938D01*
X13353662Y53520324D01*
X13398656Y53628949D01*
X13462287Y53782568D01*
X13619987Y54018583D01*
X13820702Y54219298D01*
X14056717Y54376998D01*
X14210336Y54440629D01*
X14318961Y54485623D01*
X14458160Y54513312D01*
X14597358Y54541000D01*
X14881212Y54541000D01*
X15020410Y54513312D01*
G37*
G36*
X11620410Y54513312D02*
G01*
X11759609Y54485623D01*
X11868234Y54440629D01*
X12021853Y54376998D01*
X12257868Y54219298D01*
X12458583Y54018583D01*
X12616283Y53782568D01*
X12679914Y53628949D01*
X12724908Y53520324D01*
X12740102Y53443938D01*
X12780285Y53241927D01*
X12780285Y52958073D01*
X12724908Y52679677D01*
X12616283Y52417432D01*
X12458583Y52181417D01*
X12257868Y51980702D01*
X12021853Y51823002D01*
X11868234Y51759371D01*
X11759609Y51714377D01*
X11620410Y51686688D01*
X11481212Y51659000D01*
X11197358Y51659000D01*
X11058160Y51686688D01*
X10918961Y51714377D01*
X10810336Y51759371D01*
X10656717Y51823002D01*
X10420702Y51980702D01*
X10219987Y52181417D01*
X10062287Y52417432D01*
X9953662Y52679677D01*
X9898285Y52958073D01*
X9898285Y53241927D01*
X9938468Y53443938D01*
X9953662Y53520324D01*
X9998656Y53628949D01*
X10062287Y53782568D01*
X10219987Y54018583D01*
X10420702Y54219298D01*
X10656717Y54376998D01*
X10810336Y54440629D01*
X10918961Y54485623D01*
X11058160Y54513312D01*
X11197358Y54541000D01*
X11481212Y54541000D01*
X11620410Y54513312D01*
G37*
G36*
X44277550Y54513312D02*
G01*
X44416749Y54485623D01*
X44525374Y54440629D01*
X44678993Y54376998D01*
X44915008Y54219298D01*
X45115723Y54018583D01*
X45273423Y53782568D01*
X45337054Y53628949D01*
X45382048Y53520324D01*
X45397242Y53443938D01*
X45437425Y53241927D01*
X45437425Y52958073D01*
X45382048Y52679677D01*
X45273423Y52417432D01*
X45115723Y52181417D01*
X44915008Y51980702D01*
X44678993Y51823002D01*
X44525374Y51759371D01*
X44416749Y51714377D01*
X44277550Y51686688D01*
X44138352Y51659000D01*
X43854498Y51659000D01*
X43715300Y51686688D01*
X43576101Y51714377D01*
X43467476Y51759371D01*
X43313857Y51823002D01*
X43077842Y51980702D01*
X42877127Y52181417D01*
X42719427Y52417432D01*
X42610802Y52679677D01*
X42555425Y52958073D01*
X42555425Y53241927D01*
X42595608Y53443938D01*
X42610802Y53520324D01*
X42655796Y53628949D01*
X42719427Y53782568D01*
X42877127Y54018583D01*
X43077842Y54219298D01*
X43313857Y54376998D01*
X43467476Y54440629D01*
X43576101Y54485623D01*
X43715300Y54513312D01*
X43854498Y54541000D01*
X44138352Y54541000D01*
X44277550Y54513312D01*
G37*
G36*
X56386125Y54513312D02*
G01*
X56525324Y54485623D01*
X56633949Y54440629D01*
X56787568Y54376998D01*
X57023583Y54219298D01*
X57224298Y54018583D01*
X57381998Y53782568D01*
X57445629Y53628949D01*
X57490623Y53520324D01*
X57505817Y53443938D01*
X57546000Y53241927D01*
X57546000Y52958073D01*
X57490623Y52679677D01*
X57381998Y52417432D01*
X57224298Y52181417D01*
X57023583Y51980702D01*
X56787568Y51823002D01*
X56633949Y51759371D01*
X56525324Y51714377D01*
X56386125Y51686688D01*
X56246927Y51659000D01*
X55963073Y51659000D01*
X55823875Y51686688D01*
X55684676Y51714377D01*
X55576051Y51759371D01*
X55422432Y51823002D01*
X55186417Y51980702D01*
X54985702Y52181417D01*
X54828002Y52417432D01*
X54719377Y52679677D01*
X54664000Y52958073D01*
X54664000Y53241927D01*
X54704183Y53443938D01*
X54719377Y53520324D01*
X54764371Y53628949D01*
X54828002Y53782568D01*
X54985702Y54018583D01*
X55186417Y54219298D01*
X55422432Y54376998D01*
X55576051Y54440629D01*
X55684676Y54485623D01*
X55823875Y54513312D01*
X55963073Y54541000D01*
X56246927Y54541000D01*
X56386125Y54513312D01*
G37*
G36*
X27948980Y54513312D02*
G01*
X28088179Y54485623D01*
X28196804Y54440629D01*
X28350423Y54376998D01*
X28586438Y54219298D01*
X28787153Y54018583D01*
X28944853Y53782568D01*
X29008484Y53628949D01*
X29053478Y53520324D01*
X29068672Y53443938D01*
X29108855Y53241927D01*
X29108855Y52958073D01*
X29053478Y52679677D01*
X28944853Y52417432D01*
X28787153Y52181417D01*
X28586438Y51980702D01*
X28350423Y51823002D01*
X28196804Y51759371D01*
X28088179Y51714377D01*
X27948980Y51686688D01*
X27809782Y51659000D01*
X27525928Y51659000D01*
X27386730Y51686688D01*
X27247531Y51714377D01*
X27138906Y51759371D01*
X26985287Y51823002D01*
X26749272Y51980702D01*
X26548557Y52181417D01*
X26390857Y52417432D01*
X26282232Y52679677D01*
X26226855Y52958073D01*
X26226855Y53241927D01*
X26267038Y53443938D01*
X26282232Y53520324D01*
X26327226Y53628949D01*
X26390857Y53782568D01*
X26548557Y54018583D01*
X26749272Y54219298D01*
X26985287Y54376998D01*
X27138906Y54440629D01*
X27247531Y54485623D01*
X27386730Y54513312D01*
X27525928Y54541000D01*
X27809782Y54541000D01*
X27948980Y54513312D01*
G37*
G36*
X52986125Y54513312D02*
G01*
X53125324Y54485623D01*
X53233949Y54440629D01*
X53387568Y54376998D01*
X53623583Y54219298D01*
X53824298Y54018583D01*
X53981998Y53782568D01*
X54045629Y53628949D01*
X54090623Y53520324D01*
X54105817Y53443938D01*
X54146000Y53241927D01*
X54146000Y52958073D01*
X54090623Y52679677D01*
X53981998Y52417432D01*
X53824298Y52181417D01*
X53623583Y51980702D01*
X53387568Y51823002D01*
X53233949Y51759371D01*
X53125324Y51714377D01*
X52986125Y51686688D01*
X52846927Y51659000D01*
X52563073Y51659000D01*
X52423875Y51686688D01*
X52284676Y51714377D01*
X52176051Y51759371D01*
X52022432Y51823002D01*
X51786417Y51980702D01*
X51585702Y52181417D01*
X51428002Y52417432D01*
X51319377Y52679677D01*
X51264000Y52958073D01*
X51264000Y53241927D01*
X51304183Y53443938D01*
X51319377Y53520324D01*
X51364371Y53628949D01*
X51428002Y53782568D01*
X51585702Y54018583D01*
X51786417Y54219298D01*
X52022432Y54376998D01*
X52176051Y54440629D01*
X52284676Y54485623D01*
X52423875Y54513312D01*
X52563073Y54541000D01*
X52846927Y54541000D01*
X52986125Y54513312D01*
G37*
G36*
X70416000Y53809000D02*
G01*
X68014000Y53809000D01*
X68014000Y55411000D01*
X70416000Y55411000D01*
X70416000Y53809000D01*
G37*
G36*
X80488820Y57601897D02*
G01*
X80522985Y57591533D01*
X80554464Y57574707D01*
X80582060Y57552060D01*
X80604707Y57524464D01*
X80621533Y57492985D01*
X80631897Y57458820D01*
X80636000Y57417158D01*
X80636000Y54342842D01*
X80631897Y54301180D01*
X80621533Y54267015D01*
X80604707Y54235536D01*
X80582060Y54207940D01*
X80554464Y54185293D01*
X80522985Y54168467D01*
X80488820Y54158103D01*
X80447158Y54154000D01*
X79197842Y54154000D01*
X79156180Y54158103D01*
X79122015Y54168467D01*
X79090536Y54185293D01*
X79062940Y54207940D01*
X79040293Y54235536D01*
X79023467Y54267015D01*
X79013103Y54301180D01*
X79009000Y54342842D01*
X79009000Y57417158D01*
X79013103Y57458820D01*
X79023467Y57492985D01*
X79040293Y57524464D01*
X79062940Y57552060D01*
X79090536Y57574707D01*
X79122015Y57591533D01*
X79156180Y57601897D01*
X79197842Y57606000D01*
X80447158Y57606000D01*
X80488820Y57601897D01*
G37*
G36*
X74513820Y57601897D02*
G01*
X74547985Y57591533D01*
X74579464Y57574707D01*
X74607060Y57552060D01*
X74629707Y57524464D01*
X74646533Y57492985D01*
X74656897Y57458820D01*
X74661000Y57417158D01*
X74661000Y54342842D01*
X74656897Y54301180D01*
X74646533Y54267015D01*
X74629707Y54235536D01*
X74607060Y54207940D01*
X74579464Y54185293D01*
X74547985Y54168467D01*
X74513820Y54158103D01*
X74472158Y54154000D01*
X73222842Y54154000D01*
X73181180Y54158103D01*
X73147015Y54168467D01*
X73115536Y54185293D01*
X73087940Y54207940D01*
X73065293Y54235536D01*
X73048467Y54267015D01*
X73038103Y54301180D01*
X73034000Y54342842D01*
X73034000Y57417158D01*
X73038103Y57458820D01*
X73048467Y57492985D01*
X73065293Y57524464D01*
X73087940Y57552060D01*
X73115536Y57574707D01*
X73147015Y57591533D01*
X73181180Y57601897D01*
X73222842Y57606000D01*
X74472158Y57606000D01*
X74513820Y57601897D01*
G37*
G36*
X84904780Y54739340D02*
G01*
X83182260Y54739340D01*
X83182260Y57020660D01*
X84904780Y57020660D01*
X84904780Y54739340D01*
G37*
G36*
X89126260Y54739340D02*
G01*
X87403740Y54739340D01*
X87403740Y57020660D01*
X89126260Y57020660D01*
X89126260Y54739340D01*
G37*
G36*
X69693571Y57947137D02*
G01*
X69772023Y57939410D01*
X69832610Y57921031D01*
X69923013Y57893608D01*
X70062165Y57819229D01*
X70184133Y57719133D01*
X70284229Y57597165D01*
X70358608Y57458013D01*
X70358608Y57458012D01*
X70404410Y57307023D01*
X70419875Y57150000D01*
X70404410Y56992977D01*
X70373875Y56892318D01*
X70358608Y56841987D01*
X70284229Y56702835D01*
X70184133Y56580867D01*
X70062165Y56480771D01*
X69923013Y56406392D01*
X69872682Y56391125D01*
X69772023Y56360590D01*
X69693571Y56352863D01*
X69654346Y56349000D01*
X68775654Y56349000D01*
X68736429Y56352863D01*
X68657977Y56360590D01*
X68557318Y56391125D01*
X68506987Y56406392D01*
X68367835Y56480771D01*
X68245867Y56580867D01*
X68145771Y56702835D01*
X68071392Y56841987D01*
X68056125Y56892318D01*
X68025590Y56992977D01*
X68010125Y57150000D01*
X68025590Y57307023D01*
X68071392Y57458012D01*
X68071392Y57458013D01*
X68145771Y57597165D01*
X68245867Y57719133D01*
X68367835Y57819229D01*
X68506987Y57893608D01*
X68597390Y57921031D01*
X68657977Y57939410D01*
X68736429Y57947137D01*
X68775654Y57951000D01*
X69654346Y57951000D01*
X69693571Y57947137D01*
G37*
G36*
X92439499Y58991555D02*
G01*
X92476995Y58980180D01*
X92511554Y58961708D01*
X92541847Y58936847D01*
X92566708Y58906554D01*
X92585180Y58871995D01*
X92596555Y58834499D01*
X92601000Y58789362D01*
X92601000Y58050638D01*
X92596555Y58005501D01*
X92585180Y57968005D01*
X92566708Y57933446D01*
X92541847Y57903153D01*
X92511554Y57878292D01*
X92476995Y57859820D01*
X92439499Y57848445D01*
X92394362Y57844000D01*
X91755638Y57844000D01*
X91710501Y57848445D01*
X91673005Y57859820D01*
X91638446Y57878292D01*
X91608153Y57903153D01*
X91583292Y57933446D01*
X91564820Y57968005D01*
X91553445Y58005501D01*
X91549000Y58050638D01*
X91549000Y58789362D01*
X91553445Y58834499D01*
X91564820Y58871995D01*
X91583292Y58906554D01*
X91608153Y58936847D01*
X91638446Y58961708D01*
X91673005Y58980180D01*
X91710501Y58991555D01*
X91755638Y58996000D01*
X92394362Y58996000D01*
X92439499Y58991555D01*
G37*
G36*
X69693571Y60487137D02*
G01*
X69772023Y60479410D01*
X69872682Y60448875D01*
X69923013Y60433608D01*
X70062165Y60359229D01*
X70184133Y60259133D01*
X70284229Y60137165D01*
X70358608Y59998013D01*
X70358608Y59998012D01*
X70404410Y59847023D01*
X70419875Y59690000D01*
X70404410Y59532977D01*
X70373875Y59432318D01*
X70358608Y59381987D01*
X70284229Y59242835D01*
X70184133Y59120867D01*
X70062165Y59020771D01*
X69923013Y58946392D01*
X69872682Y58931125D01*
X69772023Y58900590D01*
X69693571Y58892863D01*
X69654346Y58889000D01*
X68775654Y58889000D01*
X68736429Y58892863D01*
X68657977Y58900590D01*
X68557318Y58931125D01*
X68506987Y58946392D01*
X68367835Y59020771D01*
X68245867Y59120867D01*
X68145771Y59242835D01*
X68071392Y59381987D01*
X68056125Y59432318D01*
X68025590Y59532977D01*
X68010125Y59690000D01*
X68025590Y59847023D01*
X68071392Y59998012D01*
X68071392Y59998013D01*
X68145771Y60137165D01*
X68245867Y60259133D01*
X68367835Y60359229D01*
X68506987Y60433608D01*
X68557318Y60448875D01*
X68657977Y60479410D01*
X68736429Y60487137D01*
X68775654Y60491000D01*
X69654346Y60491000D01*
X69693571Y60487137D01*
G37*
G36*
X84918674Y60436535D02*
G01*
X84956367Y60425101D01*
X84991103Y60406534D01*
X85021548Y60381548D01*
X85046534Y60351103D01*
X85065101Y60316367D01*
X85076535Y60278674D01*
X85081000Y60233339D01*
X85081000Y59146661D01*
X85076535Y59101326D01*
X85065101Y59063633D01*
X85046534Y59028897D01*
X85021548Y58998452D01*
X84991103Y58973466D01*
X84956367Y58954899D01*
X84918674Y58943465D01*
X84873339Y58939000D01*
X84036661Y58939000D01*
X83991326Y58943465D01*
X83953633Y58954899D01*
X83918897Y58973466D01*
X83888452Y58998452D01*
X83863466Y59028897D01*
X83844899Y59063633D01*
X83833465Y59101326D01*
X83829000Y59146661D01*
X83829000Y60233339D01*
X83833465Y60278674D01*
X83844899Y60316367D01*
X83863466Y60351103D01*
X83888452Y60381548D01*
X83918897Y60406534D01*
X83953633Y60425101D01*
X83991326Y60436535D01*
X84036661Y60441000D01*
X84873339Y60441000D01*
X84918674Y60436535D01*
G37*
G36*
X86968674Y60436535D02*
G01*
X87006367Y60425101D01*
X87041103Y60406534D01*
X87071548Y60381548D01*
X87096534Y60351103D01*
X87115101Y60316367D01*
X87126535Y60278674D01*
X87131000Y60233339D01*
X87131000Y59146661D01*
X87126535Y59101326D01*
X87115101Y59063633D01*
X87096534Y59028897D01*
X87071548Y58998452D01*
X87041103Y58973466D01*
X87006367Y58954899D01*
X86968674Y58943465D01*
X86923339Y58939000D01*
X86086661Y58939000D01*
X86041326Y58943465D01*
X86003633Y58954899D01*
X85968897Y58973466D01*
X85938452Y58998452D01*
X85913466Y59028897D01*
X85894899Y59063633D01*
X85883465Y59101326D01*
X85879000Y59146661D01*
X85879000Y60233339D01*
X85883465Y60278674D01*
X85894899Y60316367D01*
X85913466Y60351103D01*
X85938452Y60381548D01*
X85968897Y60406534D01*
X86003633Y60425101D01*
X86041326Y60436535D01*
X86086661Y60441000D01*
X86923339Y60441000D01*
X86968674Y60436535D01*
G37*
G36*
X92439499Y60741555D02*
G01*
X92476995Y60730180D01*
X92511554Y60711708D01*
X92541847Y60686847D01*
X92566708Y60656554D01*
X92585180Y60621995D01*
X92596555Y60584499D01*
X92601000Y60539362D01*
X92601000Y59800638D01*
X92596555Y59755501D01*
X92585180Y59718005D01*
X92566708Y59683446D01*
X92541847Y59653153D01*
X92511554Y59628292D01*
X92476995Y59609820D01*
X92439499Y59598445D01*
X92394362Y59594000D01*
X91755638Y59594000D01*
X91710501Y59598445D01*
X91673005Y59609820D01*
X91638446Y59628292D01*
X91608153Y59653153D01*
X91583292Y59683446D01*
X91564820Y59718005D01*
X91553445Y59755501D01*
X91549000Y59800638D01*
X91549000Y60539362D01*
X91553445Y60584499D01*
X91564820Y60621995D01*
X91583292Y60656554D01*
X91608153Y60686847D01*
X91638446Y60711708D01*
X91673005Y60730180D01*
X91710501Y60741555D01*
X91755638Y60746000D01*
X92394362Y60746000D01*
X92439499Y60741555D01*
G37*
G36*
X78731000Y59924000D02*
G01*
X73634000Y59924000D01*
X73634000Y60726000D01*
X74154001Y60726000D01*
X74178387Y60728402D01*
X74201836Y60735515D01*
X74223447Y60747066D01*
X74242389Y60762611D01*
X74257934Y60781553D01*
X74269485Y60803164D01*
X74276598Y60826613D01*
X74279000Y60850999D01*
X74279000Y61069001D01*
X74276598Y61093387D01*
X74269485Y61116836D01*
X74257934Y61138447D01*
X74242389Y61157389D01*
X74223447Y61172934D01*
X74201836Y61184485D01*
X74178387Y61191598D01*
X74154001Y61194000D01*
X73634000Y61194000D01*
X73634000Y61996000D01*
X74154001Y61996000D01*
X74178387Y61998402D01*
X74201836Y62005515D01*
X74223447Y62017066D01*
X74242389Y62032611D01*
X74257934Y62051553D01*
X74269485Y62073164D01*
X74276598Y62096613D01*
X74279000Y62120999D01*
X74279000Y62339001D01*
X74276598Y62363387D01*
X74269485Y62386836D01*
X74257934Y62408447D01*
X74242389Y62427389D01*
X74223447Y62442934D01*
X74201836Y62454485D01*
X74178387Y62461598D01*
X74154001Y62464000D01*
X73634000Y62464000D01*
X73634000Y63266000D01*
X74154001Y63266000D01*
X74178387Y63268402D01*
X74201836Y63275515D01*
X74223447Y63287066D01*
X74242389Y63302611D01*
X74257934Y63321553D01*
X74269485Y63343164D01*
X74276598Y63366613D01*
X74279000Y63390999D01*
X74279000Y63609001D01*
X74276598Y63633387D01*
X74269485Y63656836D01*
X74257934Y63678447D01*
X74242389Y63697389D01*
X74223447Y63712934D01*
X74201836Y63724485D01*
X74178387Y63731598D01*
X74154001Y63734000D01*
X73634000Y63734000D01*
X73634000Y64536000D01*
X78731000Y64536000D01*
X78731000Y59924000D01*
G37*
G36*
X80036000Y59924000D02*
G01*
X79234000Y59924000D01*
X79234000Y60726000D01*
X80036000Y60726000D01*
X80036000Y59924000D01*
G37*
G36*
X80036000Y61194000D02*
G01*
X79234000Y61194000D01*
X79234000Y61996000D01*
X80036000Y61996000D01*
X80036000Y61194000D01*
G37*
G36*
X7721564Y63870611D02*
G01*
X7912833Y63791385D01*
X7912835Y63791384D01*
X8084973Y63676365D01*
X8231365Y63529973D01*
X8340519Y63366613D01*
X8346385Y63357833D01*
X8425611Y63166564D01*
X8466000Y62963516D01*
X8466000Y62756484D01*
X8425611Y62553436D01*
X8361291Y62398153D01*
X8346384Y62362165D01*
X8231365Y62190027D01*
X8084973Y62043635D01*
X7912835Y61928616D01*
X7912834Y61928615D01*
X7912833Y61928615D01*
X7721564Y61849389D01*
X7518516Y61809000D01*
X7311484Y61809000D01*
X7108436Y61849389D01*
X6917167Y61928615D01*
X6917166Y61928615D01*
X6917165Y61928616D01*
X6745027Y62043635D01*
X6598635Y62190027D01*
X6483616Y62362165D01*
X6468709Y62398153D01*
X6404389Y62553436D01*
X6364000Y62756484D01*
X6364000Y62963516D01*
X6404389Y63166564D01*
X6483615Y63357833D01*
X6489482Y63366613D01*
X6598635Y63529973D01*
X6745027Y63676365D01*
X6917165Y63791384D01*
X6917167Y63791385D01*
X7108436Y63870611D01*
X7311484Y63911000D01*
X7518516Y63911000D01*
X7721564Y63870611D01*
G37*
G36*
X55121564Y63870611D02*
G01*
X55312833Y63791385D01*
X55312835Y63791384D01*
X55484973Y63676365D01*
X55631365Y63529973D01*
X55740519Y63366613D01*
X55746385Y63357833D01*
X55825611Y63166564D01*
X55866000Y62963516D01*
X55866000Y62756484D01*
X55825611Y62553436D01*
X55761291Y62398153D01*
X55746384Y62362165D01*
X55631365Y62190027D01*
X55484973Y62043635D01*
X55312835Y61928616D01*
X55312834Y61928615D01*
X55312833Y61928615D01*
X55121564Y61849389D01*
X54918516Y61809000D01*
X54711484Y61809000D01*
X54508436Y61849389D01*
X54317167Y61928615D01*
X54317166Y61928615D01*
X54317165Y61928616D01*
X54145027Y62043635D01*
X53998635Y62190027D01*
X53883616Y62362165D01*
X53868709Y62398153D01*
X53804389Y62553436D01*
X53764000Y62756484D01*
X53764000Y62963516D01*
X53804389Y63166564D01*
X53883615Y63357833D01*
X53889482Y63366613D01*
X53998635Y63529973D01*
X54145027Y63676365D01*
X54317165Y63791384D01*
X54317167Y63791385D01*
X54508436Y63870611D01*
X54711484Y63911000D01*
X54918516Y63911000D01*
X55121564Y63870611D01*
G37*
G36*
X87014499Y63386555D02*
G01*
X87051995Y63375180D01*
X87086554Y63356708D01*
X87116847Y63331847D01*
X87141708Y63301554D01*
X87160180Y63266995D01*
X87171555Y63229499D01*
X87176000Y63184362D01*
X87176000Y62545638D01*
X87171555Y62500501D01*
X87160180Y62463005D01*
X87141708Y62428446D01*
X87116847Y62398153D01*
X87086554Y62373292D01*
X87051995Y62354820D01*
X87014499Y62343445D01*
X86969362Y62339000D01*
X86230638Y62339000D01*
X86185501Y62343445D01*
X86148005Y62354820D01*
X86113446Y62373292D01*
X86083153Y62398153D01*
X86058292Y62428446D01*
X86039820Y62463005D01*
X86028445Y62500501D01*
X86024000Y62545638D01*
X86024000Y63184362D01*
X86028445Y63229499D01*
X86039820Y63266995D01*
X86058292Y63301554D01*
X86083153Y63331847D01*
X86113446Y63356708D01*
X86148005Y63375180D01*
X86185501Y63386555D01*
X86230638Y63391000D01*
X86969362Y63391000D01*
X87014499Y63386555D01*
G37*
G36*
X85264499Y63386555D02*
G01*
X85301995Y63375180D01*
X85336554Y63356708D01*
X85366847Y63331847D01*
X85391708Y63301554D01*
X85410180Y63266995D01*
X85421555Y63229499D01*
X85426000Y63184362D01*
X85426000Y62545638D01*
X85421555Y62500501D01*
X85410180Y62463005D01*
X85391708Y62428446D01*
X85366847Y62398153D01*
X85336554Y62373292D01*
X85301995Y62354820D01*
X85264499Y62343445D01*
X85219362Y62339000D01*
X84480638Y62339000D01*
X84435501Y62343445D01*
X84398005Y62354820D01*
X84363446Y62373292D01*
X84333153Y62398153D01*
X84308292Y62428446D01*
X84289820Y62463005D01*
X84278445Y62500501D01*
X84274000Y62545638D01*
X84274000Y63184362D01*
X84278445Y63229499D01*
X84289820Y63266995D01*
X84308292Y63301554D01*
X84333153Y63331847D01*
X84363446Y63356708D01*
X84398005Y63375180D01*
X84435501Y63386555D01*
X84480638Y63391000D01*
X85219362Y63391000D01*
X85264499Y63386555D01*
G37*
G36*
X80036000Y62464000D02*
G01*
X79234000Y62464000D01*
X79234000Y63266000D01*
X80036000Y63266000D01*
X80036000Y62464000D01*
G37*
G36*
X94874928Y64588236D02*
G01*
X94896009Y64581840D01*
X94915445Y64571452D01*
X94932476Y64557476D01*
X94946452Y64540445D01*
X94956840Y64521009D01*
X94963236Y64499928D01*
X94966000Y64471860D01*
X94966000Y62658140D01*
X94963236Y62630072D01*
X94956840Y62608991D01*
X94946452Y62589555D01*
X94932476Y62572524D01*
X94915445Y62558548D01*
X94896009Y62548160D01*
X94874928Y62541764D01*
X94846860Y62539000D01*
X94383140Y62539000D01*
X94355072Y62541764D01*
X94333991Y62548160D01*
X94314555Y62558548D01*
X94297524Y62572524D01*
X94283548Y62589555D01*
X94273160Y62608991D01*
X94266764Y62630072D01*
X94264000Y62658140D01*
X94264000Y64471860D01*
X94266764Y64499928D01*
X94273160Y64521009D01*
X94283548Y64540445D01*
X94297524Y64557476D01*
X94314555Y64571452D01*
X94333991Y64581840D01*
X94355072Y64588236D01*
X94383140Y64591000D01*
X94846860Y64591000D01*
X94874928Y64588236D01*
G37*
G36*
X96144928Y64588236D02*
G01*
X96166009Y64581840D01*
X96185445Y64571452D01*
X96202476Y64557476D01*
X96216452Y64540445D01*
X96226840Y64521009D01*
X96233236Y64499928D01*
X96236000Y64471860D01*
X96236000Y62658140D01*
X96233236Y62630072D01*
X96226840Y62608991D01*
X96216452Y62589555D01*
X96202476Y62572524D01*
X96185445Y62558548D01*
X96166009Y62548160D01*
X96144928Y62541764D01*
X96116860Y62539000D01*
X95653140Y62539000D01*
X95625072Y62541764D01*
X95603991Y62548160D01*
X95584555Y62558548D01*
X95567524Y62572524D01*
X95553548Y62589555D01*
X95543160Y62608991D01*
X95536764Y62630072D01*
X95534000Y62658140D01*
X95534000Y64471860D01*
X95536764Y64499928D01*
X95543160Y64521009D01*
X95553548Y64540445D01*
X95567524Y64557476D01*
X95584555Y64571452D01*
X95603991Y64581840D01*
X95625072Y64588236D01*
X95653140Y64591000D01*
X96116860Y64591000D01*
X96144928Y64588236D01*
G37*
G36*
X97414928Y64588236D02*
G01*
X97436009Y64581840D01*
X97455445Y64571452D01*
X97472476Y64557476D01*
X97486452Y64540445D01*
X97496840Y64521009D01*
X97503236Y64499928D01*
X97506000Y64471860D01*
X97506000Y62658140D01*
X97503236Y62630072D01*
X97496840Y62608991D01*
X97486452Y62589555D01*
X97472476Y62572524D01*
X97455445Y62558548D01*
X97436009Y62548160D01*
X97414928Y62541764D01*
X97386860Y62539000D01*
X96923140Y62539000D01*
X96895072Y62541764D01*
X96873991Y62548160D01*
X96854555Y62558548D01*
X96837524Y62572524D01*
X96823548Y62589555D01*
X96813160Y62608991D01*
X96806764Y62630072D01*
X96804000Y62658140D01*
X96804000Y64471860D01*
X96806764Y64499928D01*
X96813160Y64521009D01*
X96823548Y64540445D01*
X96837524Y64557476D01*
X96854555Y64571452D01*
X96873991Y64581840D01*
X96895072Y64588236D01*
X96923140Y64591000D01*
X97386860Y64591000D01*
X97414928Y64588236D01*
G37*
G36*
X93604928Y64588236D02*
G01*
X93626009Y64581840D01*
X93645445Y64571452D01*
X93662476Y64557476D01*
X93676452Y64540445D01*
X93686840Y64521009D01*
X93693236Y64499928D01*
X93696000Y64471860D01*
X93696000Y62658140D01*
X93693236Y62630072D01*
X93686840Y62608991D01*
X93676452Y62589555D01*
X93662476Y62572524D01*
X93645445Y62558548D01*
X93626009Y62548160D01*
X93604928Y62541764D01*
X93576860Y62539000D01*
X93113140Y62539000D01*
X93085072Y62541764D01*
X93063991Y62548160D01*
X93044555Y62558548D01*
X93027524Y62572524D01*
X93013548Y62589555D01*
X93003160Y62608991D01*
X92996764Y62630072D01*
X92994000Y62658140D01*
X92994000Y64471860D01*
X92996764Y64499928D01*
X93003160Y64521009D01*
X93013548Y64540445D01*
X93027524Y64557476D01*
X93044555Y64571452D01*
X93063991Y64581840D01*
X93085072Y64588236D01*
X93113140Y64591000D01*
X93576860Y64591000D01*
X93604928Y64588236D01*
G37*
G36*
X80036000Y63734000D02*
G01*
X79234000Y63734000D01*
X79234000Y64536000D01*
X80036000Y64536000D01*
X80036000Y63734000D01*
G37*
G36*
X85264499Y65291555D02*
G01*
X85301995Y65280180D01*
X85336554Y65261708D01*
X85366847Y65236847D01*
X85391708Y65206554D01*
X85410180Y65171995D01*
X85421555Y65134499D01*
X85426000Y65089362D01*
X85426000Y64450638D01*
X85421555Y64405501D01*
X85410180Y64368005D01*
X85391708Y64333446D01*
X85366847Y64303153D01*
X85336554Y64278292D01*
X85301995Y64259820D01*
X85264499Y64248445D01*
X85219362Y64244000D01*
X84480638Y64244000D01*
X84435501Y64248445D01*
X84398005Y64259820D01*
X84363446Y64278292D01*
X84333153Y64303153D01*
X84308292Y64333446D01*
X84289820Y64368005D01*
X84278445Y64405501D01*
X84274000Y64450638D01*
X84274000Y65089362D01*
X84278445Y65134499D01*
X84289820Y65171995D01*
X84308292Y65206554D01*
X84333153Y65236847D01*
X84363446Y65261708D01*
X84398005Y65280180D01*
X84435501Y65291555D01*
X84480638Y65296000D01*
X85219362Y65296000D01*
X85264499Y65291555D01*
G37*
G36*
X87014499Y65291555D02*
G01*
X87051995Y65280180D01*
X87086554Y65261708D01*
X87116847Y65236847D01*
X87141708Y65206554D01*
X87160180Y65171995D01*
X87171555Y65134499D01*
X87176000Y65089362D01*
X87176000Y64450638D01*
X87171555Y64405501D01*
X87160180Y64368005D01*
X87141708Y64333446D01*
X87116847Y64303153D01*
X87086554Y64278292D01*
X87051995Y64259820D01*
X87014499Y64248445D01*
X86969362Y64244000D01*
X86230638Y64244000D01*
X86185501Y64248445D01*
X86148005Y64259820D01*
X86113446Y64278292D01*
X86083153Y64303153D01*
X86058292Y64333446D01*
X86039820Y64368005D01*
X86028445Y64405501D01*
X86024000Y64450638D01*
X86024000Y65089362D01*
X86028445Y65134499D01*
X86039820Y65171995D01*
X86058292Y65206554D01*
X86083153Y65236847D01*
X86113446Y65261708D01*
X86148005Y65280180D01*
X86185501Y65291555D01*
X86230638Y65296000D01*
X86969362Y65296000D01*
X87014499Y65291555D01*
G37*
G36*
X85206000Y67254000D02*
G01*
X83544000Y67254000D01*
X83544000Y69906000D01*
X85206000Y69906000D01*
X85206000Y67254000D01*
G37*
G36*
X87906000Y67254000D02*
G01*
X86244000Y67254000D01*
X86244000Y69906000D01*
X87906000Y69906000D01*
X87906000Y67254000D01*
G37*
G36*
X97414928Y69538236D02*
G01*
X97436009Y69531840D01*
X97455445Y69521452D01*
X97472476Y69507476D01*
X97486452Y69490445D01*
X97496840Y69471009D01*
X97503236Y69449928D01*
X97506000Y69421860D01*
X97506000Y67608140D01*
X97503236Y67580072D01*
X97496840Y67558991D01*
X97486452Y67539555D01*
X97472476Y67522524D01*
X97455445Y67508548D01*
X97436009Y67498160D01*
X97414928Y67491764D01*
X97386860Y67489000D01*
X96923140Y67489000D01*
X96895072Y67491764D01*
X96873991Y67498160D01*
X96854555Y67508548D01*
X96837524Y67522524D01*
X96823548Y67539555D01*
X96813160Y67558991D01*
X96806764Y67580072D01*
X96804000Y67608140D01*
X96804000Y69421860D01*
X96806764Y69449928D01*
X96813160Y69471009D01*
X96823548Y69490445D01*
X96837524Y69507476D01*
X96854555Y69521452D01*
X96873991Y69531840D01*
X96895072Y69538236D01*
X96923140Y69541000D01*
X97386860Y69541000D01*
X97414928Y69538236D01*
G37*
G36*
X93604928Y69538236D02*
G01*
X93626009Y69531840D01*
X93645445Y69521452D01*
X93662476Y69507476D01*
X93676452Y69490445D01*
X93686840Y69471009D01*
X93693236Y69449928D01*
X93696000Y69421860D01*
X93696000Y67608140D01*
X93693236Y67580072D01*
X93686840Y67558991D01*
X93676452Y67539555D01*
X93662476Y67522524D01*
X93645445Y67508548D01*
X93626009Y67498160D01*
X93604928Y67491764D01*
X93576860Y67489000D01*
X93113140Y67489000D01*
X93085072Y67491764D01*
X93063991Y67498160D01*
X93044555Y67508548D01*
X93027524Y67522524D01*
X93013548Y67539555D01*
X93003160Y67558991D01*
X92996764Y67580072D01*
X92994000Y67608140D01*
X92994000Y69421860D01*
X92996764Y69449928D01*
X93003160Y69471009D01*
X93013548Y69490445D01*
X93027524Y69507476D01*
X93044555Y69521452D01*
X93063991Y69531840D01*
X93085072Y69538236D01*
X93113140Y69541000D01*
X93576860Y69541000D01*
X93604928Y69538236D01*
G37*
G36*
X96144928Y69538236D02*
G01*
X96166009Y69531840D01*
X96185445Y69521452D01*
X96202476Y69507476D01*
X96216452Y69490445D01*
X96226840Y69471009D01*
X96233236Y69449928D01*
X96236000Y69421860D01*
X96236000Y67608140D01*
X96233236Y67580072D01*
X96226840Y67558991D01*
X96216452Y67539555D01*
X96202476Y67522524D01*
X96185445Y67508548D01*
X96166009Y67498160D01*
X96144928Y67491764D01*
X96116860Y67489000D01*
X95653140Y67489000D01*
X95625072Y67491764D01*
X95603991Y67498160D01*
X95584555Y67508548D01*
X95567524Y67522524D01*
X95553548Y67539555D01*
X95543160Y67558991D01*
X95536764Y67580072D01*
X95534000Y67608140D01*
X95534000Y69421860D01*
X95536764Y69449928D01*
X95543160Y69471009D01*
X95553548Y69490445D01*
X95567524Y69507476D01*
X95584555Y69521452D01*
X95603991Y69531840D01*
X95625072Y69538236D01*
X95653140Y69541000D01*
X96116860Y69541000D01*
X96144928Y69538236D01*
G37*
G36*
X94874928Y69538236D02*
G01*
X94896009Y69531840D01*
X94915445Y69521452D01*
X94932476Y69507476D01*
X94946452Y69490445D01*
X94956840Y69471009D01*
X94963236Y69449928D01*
X94966000Y69421860D01*
X94966000Y67608140D01*
X94963236Y67580072D01*
X94956840Y67558991D01*
X94946452Y67539555D01*
X94932476Y67522524D01*
X94915445Y67508548D01*
X94896009Y67498160D01*
X94874928Y67491764D01*
X94846860Y67489000D01*
X94383140Y67489000D01*
X94355072Y67491764D01*
X94333991Y67498160D01*
X94314555Y67508548D01*
X94297524Y67522524D01*
X94283548Y67539555D01*
X94273160Y67558991D01*
X94266764Y67580072D01*
X94264000Y67608140D01*
X94264000Y69421860D01*
X94266764Y69449928D01*
X94273160Y69471009D01*
X94283548Y69490445D01*
X94297524Y69507476D01*
X94314555Y69521452D01*
X94333991Y69531840D01*
X94355072Y69538236D01*
X94383140Y69541000D01*
X94846860Y69541000D01*
X94874928Y69538236D01*
G37*
G36*
X18478500Y68296500D02*
G01*
X15751500Y68296500D01*
X15751500Y71023500D01*
X18478500Y71023500D01*
X18478500Y68296500D01*
G37*
G36*
X41512717Y70971102D02*
G01*
X41760858Y70868319D01*
X41984180Y70719100D01*
X42174100Y70529180D01*
X42323319Y70305858D01*
X42426102Y70057717D01*
X42478500Y69794294D01*
X42478500Y69525706D01*
X42426102Y69262283D01*
X42323319Y69014142D01*
X42174100Y68790820D01*
X41984180Y68600900D01*
X41760858Y68451681D01*
X41512717Y68348898D01*
X41249294Y68296500D01*
X40980706Y68296500D01*
X40717283Y68348898D01*
X40469142Y68451681D01*
X40245820Y68600900D01*
X40055900Y68790820D01*
X39906681Y69014142D01*
X39803898Y69262283D01*
X39751500Y69525706D01*
X39751500Y69794294D01*
X39803898Y70057717D01*
X39906681Y70305858D01*
X40055900Y70529180D01*
X40245820Y70719100D01*
X40469142Y70868319D01*
X40717283Y70971102D01*
X40980706Y71023500D01*
X41249294Y71023500D01*
X41512717Y70971102D01*
G37*
G36*
X21512717Y70971102D02*
G01*
X21760858Y70868319D01*
X21984180Y70719100D01*
X22174100Y70529180D01*
X22323319Y70305858D01*
X22426102Y70057717D01*
X22478500Y69794294D01*
X22478500Y69525706D01*
X22426102Y69262283D01*
X22323319Y69014142D01*
X22174100Y68790820D01*
X21984180Y68600900D01*
X21760858Y68451681D01*
X21512717Y68348898D01*
X21249294Y68296500D01*
X20980706Y68296500D01*
X20717283Y68348898D01*
X20469142Y68451681D01*
X20245820Y68600900D01*
X20055900Y68790820D01*
X19906681Y69014142D01*
X19803898Y69262283D01*
X19751500Y69525706D01*
X19751500Y69794294D01*
X19803898Y70057717D01*
X19906681Y70305858D01*
X20055900Y70529180D01*
X20245820Y70719100D01*
X20469142Y70868319D01*
X20717283Y70971102D01*
X20980706Y71023500D01*
X21249294Y71023500D01*
X21512717Y70971102D01*
G37*
G36*
X25512717Y70971102D02*
G01*
X25760858Y70868319D01*
X25984180Y70719100D01*
X26174100Y70529180D01*
X26323319Y70305858D01*
X26426102Y70057717D01*
X26478500Y69794294D01*
X26478500Y69525706D01*
X26426102Y69262283D01*
X26323319Y69014142D01*
X26174100Y68790820D01*
X25984180Y68600900D01*
X25760858Y68451681D01*
X25512717Y68348898D01*
X25249294Y68296500D01*
X24980706Y68296500D01*
X24717283Y68348898D01*
X24469142Y68451681D01*
X24245820Y68600900D01*
X24055900Y68790820D01*
X23906681Y69014142D01*
X23803898Y69262283D01*
X23751500Y69525706D01*
X23751500Y69794294D01*
X23803898Y70057717D01*
X23906681Y70305858D01*
X24055900Y70529180D01*
X24245820Y70719100D01*
X24469142Y70868319D01*
X24717283Y70971102D01*
X24980706Y71023500D01*
X25249294Y71023500D01*
X25512717Y70971102D01*
G37*
G36*
X29512717Y70971102D02*
G01*
X29760858Y70868319D01*
X29984180Y70719100D01*
X30174100Y70529180D01*
X30323319Y70305858D01*
X30426102Y70057717D01*
X30478500Y69794294D01*
X30478500Y69525706D01*
X30426102Y69262283D01*
X30323319Y69014142D01*
X30174100Y68790820D01*
X29984180Y68600900D01*
X29760858Y68451681D01*
X29512717Y68348898D01*
X29249294Y68296500D01*
X28980706Y68296500D01*
X28717283Y68348898D01*
X28469142Y68451681D01*
X28245820Y68600900D01*
X28055900Y68790820D01*
X27906681Y69014142D01*
X27803898Y69262283D01*
X27751500Y69525706D01*
X27751500Y69794294D01*
X27803898Y70057717D01*
X27906681Y70305858D01*
X28055900Y70529180D01*
X28245820Y70719100D01*
X28469142Y70868319D01*
X28717283Y70971102D01*
X28980706Y71023500D01*
X29249294Y71023500D01*
X29512717Y70971102D01*
G37*
G36*
X33512717Y70971102D02*
G01*
X33760858Y70868319D01*
X33984180Y70719100D01*
X34174100Y70529180D01*
X34323319Y70305858D01*
X34426102Y70057717D01*
X34478500Y69794294D01*
X34478500Y69525706D01*
X34426102Y69262283D01*
X34323319Y69014142D01*
X34174100Y68790820D01*
X33984180Y68600900D01*
X33760858Y68451681D01*
X33512717Y68348898D01*
X33249294Y68296500D01*
X32980706Y68296500D01*
X32717283Y68348898D01*
X32469142Y68451681D01*
X32245820Y68600900D01*
X32055900Y68790820D01*
X31906681Y69014142D01*
X31803898Y69262283D01*
X31751500Y69525706D01*
X31751500Y69794294D01*
X31803898Y70057717D01*
X31906681Y70305858D01*
X32055900Y70529180D01*
X32245820Y70719100D01*
X32469142Y70868319D01*
X32717283Y70971102D01*
X32980706Y71023500D01*
X33249294Y71023500D01*
X33512717Y70971102D01*
G37*
G36*
X37512717Y70971102D02*
G01*
X37760858Y70868319D01*
X37984180Y70719100D01*
X38174100Y70529180D01*
X38323319Y70305858D01*
X38426102Y70057717D01*
X38478500Y69794294D01*
X38478500Y69525706D01*
X38426102Y69262283D01*
X38323319Y69014142D01*
X38174100Y68790820D01*
X37984180Y68600900D01*
X37760858Y68451681D01*
X37512717Y68348898D01*
X37249294Y68296500D01*
X36980706Y68296500D01*
X36717283Y68348898D01*
X36469142Y68451681D01*
X36245820Y68600900D01*
X36055900Y68790820D01*
X35906681Y69014142D01*
X35803898Y69262283D01*
X35751500Y69525706D01*
X35751500Y69794294D01*
X35803898Y70057717D01*
X35906681Y70305858D01*
X36055900Y70529180D01*
X36245820Y70719100D01*
X36469142Y70868319D01*
X36717283Y70971102D01*
X36980706Y71023500D01*
X37249294Y71023500D01*
X37512717Y70971102D01*
G37*
G36*
X45512717Y70971102D02*
G01*
X45760858Y70868319D01*
X45984180Y70719100D01*
X46174100Y70529180D01*
X46323319Y70305858D01*
X46426102Y70057717D01*
X46478500Y69794294D01*
X46478500Y69525706D01*
X46426102Y69262283D01*
X46323319Y69014142D01*
X46174100Y68790820D01*
X45984180Y68600900D01*
X45760858Y68451681D01*
X45512717Y68348898D01*
X45249294Y68296500D01*
X44980706Y68296500D01*
X44717283Y68348898D01*
X44469142Y68451681D01*
X44245820Y68600900D01*
X44055900Y68790820D01*
X43906681Y69014142D01*
X43803898Y69262283D01*
X43751500Y69525706D01*
X43751500Y69794294D01*
X43803898Y70057717D01*
X43906681Y70305858D01*
X44055900Y70529180D01*
X44245820Y70719100D01*
X44469142Y70868319D01*
X44717283Y70971102D01*
X44980706Y71023500D01*
X45249294Y71023500D01*
X45512717Y70971102D01*
G37*
G36*
X43512717Y74971102D02*
G01*
X43760858Y74868319D01*
X43984180Y74719100D01*
X44174100Y74529180D01*
X44323319Y74305858D01*
X44426102Y74057717D01*
X44478500Y73794294D01*
X44478500Y73525706D01*
X44426102Y73262283D01*
X44323319Y73014142D01*
X44174100Y72790820D01*
X43984180Y72600900D01*
X43760858Y72451681D01*
X43512717Y72348898D01*
X43249294Y72296500D01*
X42980706Y72296500D01*
X42717283Y72348898D01*
X42469142Y72451681D01*
X42245820Y72600900D01*
X42055900Y72790820D01*
X41906681Y73014142D01*
X41803898Y73262283D01*
X41751500Y73525706D01*
X41751500Y73794294D01*
X41803898Y74057717D01*
X41906681Y74305858D01*
X42055900Y74529180D01*
X42245820Y74719100D01*
X42469142Y74868319D01*
X42717283Y74971102D01*
X42980706Y75023500D01*
X43249294Y75023500D01*
X43512717Y74971102D01*
G37*
G36*
X19512717Y74971102D02*
G01*
X19760858Y74868319D01*
X19984180Y74719100D01*
X20174100Y74529180D01*
X20323319Y74305858D01*
X20426102Y74057717D01*
X20478500Y73794294D01*
X20478500Y73525706D01*
X20426102Y73262283D01*
X20323319Y73014142D01*
X20174100Y72790820D01*
X19984180Y72600900D01*
X19760858Y72451681D01*
X19512717Y72348898D01*
X19249294Y72296500D01*
X18980706Y72296500D01*
X18717283Y72348898D01*
X18469142Y72451681D01*
X18245820Y72600900D01*
X18055900Y72790820D01*
X17906681Y73014142D01*
X17803898Y73262283D01*
X17751500Y73525706D01*
X17751500Y73794294D01*
X17803898Y74057717D01*
X17906681Y74305858D01*
X18055900Y74529180D01*
X18245820Y74719100D01*
X18469142Y74868319D01*
X18717283Y74971102D01*
X18980706Y75023500D01*
X19249294Y75023500D01*
X19512717Y74971102D01*
G37*
G36*
X23512717Y74971102D02*
G01*
X23760858Y74868319D01*
X23984180Y74719100D01*
X24174100Y74529180D01*
X24323319Y74305858D01*
X24426102Y74057717D01*
X24478500Y73794294D01*
X24478500Y73525706D01*
X24426102Y73262283D01*
X24323319Y73014142D01*
X24174100Y72790820D01*
X23984180Y72600900D01*
X23760858Y72451681D01*
X23512717Y72348898D01*
X23249294Y72296500D01*
X22980706Y72296500D01*
X22717283Y72348898D01*
X22469142Y72451681D01*
X22245820Y72600900D01*
X22055900Y72790820D01*
X21906681Y73014142D01*
X21803898Y73262283D01*
X21751500Y73525706D01*
X21751500Y73794294D01*
X21803898Y74057717D01*
X21906681Y74305858D01*
X22055900Y74529180D01*
X22245820Y74719100D01*
X22469142Y74868319D01*
X22717283Y74971102D01*
X22980706Y75023500D01*
X23249294Y75023500D01*
X23512717Y74971102D01*
G37*
G36*
X27512717Y74971102D02*
G01*
X27760858Y74868319D01*
X27984180Y74719100D01*
X28174100Y74529180D01*
X28323319Y74305858D01*
X28426102Y74057717D01*
X28478500Y73794294D01*
X28478500Y73525706D01*
X28426102Y73262283D01*
X28323319Y73014142D01*
X28174100Y72790820D01*
X27984180Y72600900D01*
X27760858Y72451681D01*
X27512717Y72348898D01*
X27249294Y72296500D01*
X26980706Y72296500D01*
X26717283Y72348898D01*
X26469142Y72451681D01*
X26245820Y72600900D01*
X26055900Y72790820D01*
X25906681Y73014142D01*
X25803898Y73262283D01*
X25751500Y73525706D01*
X25751500Y73794294D01*
X25803898Y74057717D01*
X25906681Y74305858D01*
X26055900Y74529180D01*
X26245820Y74719100D01*
X26469142Y74868319D01*
X26717283Y74971102D01*
X26980706Y75023500D01*
X27249294Y75023500D01*
X27512717Y74971102D01*
G37*
G36*
X31512717Y74971102D02*
G01*
X31760858Y74868319D01*
X31984180Y74719100D01*
X32174100Y74529180D01*
X32323319Y74305858D01*
X32426102Y74057717D01*
X32478500Y73794294D01*
X32478500Y73525706D01*
X32426102Y73262283D01*
X32323319Y73014142D01*
X32174100Y72790820D01*
X31984180Y72600900D01*
X31760858Y72451681D01*
X31512717Y72348898D01*
X31249294Y72296500D01*
X30980706Y72296500D01*
X30717283Y72348898D01*
X30469142Y72451681D01*
X30245820Y72600900D01*
X30055900Y72790820D01*
X29906681Y73014142D01*
X29803898Y73262283D01*
X29751500Y73525706D01*
X29751500Y73794294D01*
X29803898Y74057717D01*
X29906681Y74305858D01*
X30055900Y74529180D01*
X30245820Y74719100D01*
X30469142Y74868319D01*
X30717283Y74971102D01*
X30980706Y75023500D01*
X31249294Y75023500D01*
X31512717Y74971102D01*
G37*
G36*
X35512717Y74971102D02*
G01*
X35760858Y74868319D01*
X35984180Y74719100D01*
X36174100Y74529180D01*
X36323319Y74305858D01*
X36426102Y74057717D01*
X36478500Y73794294D01*
X36478500Y73525706D01*
X36426102Y73262283D01*
X36323319Y73014142D01*
X36174100Y72790820D01*
X35984180Y72600900D01*
X35760858Y72451681D01*
X35512717Y72348898D01*
X35249294Y72296500D01*
X34980706Y72296500D01*
X34717283Y72348898D01*
X34469142Y72451681D01*
X34245820Y72600900D01*
X34055900Y72790820D01*
X33906681Y73014142D01*
X33803898Y73262283D01*
X33751500Y73525706D01*
X33751500Y73794294D01*
X33803898Y74057717D01*
X33906681Y74305858D01*
X34055900Y74529180D01*
X34245820Y74719100D01*
X34469142Y74868319D01*
X34717283Y74971102D01*
X34980706Y75023500D01*
X35249294Y75023500D01*
X35512717Y74971102D01*
G37*
G36*
X39512717Y74971102D02*
G01*
X39760858Y74868319D01*
X39984180Y74719100D01*
X40174100Y74529180D01*
X40323319Y74305858D01*
X40426102Y74057717D01*
X40478500Y73794294D01*
X40478500Y73525706D01*
X40426102Y73262283D01*
X40323319Y73014142D01*
X40174100Y72790820D01*
X39984180Y72600900D01*
X39760858Y72451681D01*
X39512717Y72348898D01*
X39249294Y72296500D01*
X38980706Y72296500D01*
X38717283Y72348898D01*
X38469142Y72451681D01*
X38245820Y72600900D01*
X38055900Y72790820D01*
X37906681Y73014142D01*
X37803898Y73262283D01*
X37751500Y73525706D01*
X37751500Y73794294D01*
X37803898Y74057717D01*
X37906681Y74305858D01*
X38055900Y74529180D01*
X38245820Y74719100D01*
X38469142Y74868319D01*
X38717283Y74971102D01*
X38980706Y75023500D01*
X39249294Y75023500D01*
X39512717Y74971102D01*
G37*
G36*
X98049499Y74181555D02*
G01*
X98086995Y74170180D01*
X98121554Y74151708D01*
X98151847Y74126847D01*
X98176708Y74096554D01*
X98195180Y74061995D01*
X98206555Y74024499D01*
X98211000Y73979362D01*
X98211000Y73340638D01*
X98206555Y73295501D01*
X98195180Y73258005D01*
X98176708Y73223446D01*
X98151847Y73193153D01*
X98121554Y73168292D01*
X98086995Y73149820D01*
X98049499Y73138445D01*
X98004362Y73134000D01*
X97265638Y73134000D01*
X97220501Y73138445D01*
X97183005Y73149820D01*
X97148446Y73168292D01*
X97118153Y73193153D01*
X97093292Y73223446D01*
X97074820Y73258005D01*
X97063445Y73295501D01*
X97059000Y73340638D01*
X97059000Y73979362D01*
X97063445Y74024499D01*
X97074820Y74061995D01*
X97093292Y74096554D01*
X97118153Y74126847D01*
X97148446Y74151708D01*
X97183005Y74170180D01*
X97220501Y74181555D01*
X97265638Y74186000D01*
X98004362Y74186000D01*
X98049499Y74181555D01*
G37*
G36*
X96299499Y74181555D02*
G01*
X96336995Y74170180D01*
X96371554Y74151708D01*
X96401847Y74126847D01*
X96426708Y74096554D01*
X96445180Y74061995D01*
X96456555Y74024499D01*
X96461000Y73979362D01*
X96461000Y73340638D01*
X96456555Y73295501D01*
X96445180Y73258005D01*
X96426708Y73223446D01*
X96401847Y73193153D01*
X96371554Y73168292D01*
X96336995Y73149820D01*
X96299499Y73138445D01*
X96254362Y73134000D01*
X95515638Y73134000D01*
X95470501Y73138445D01*
X95433005Y73149820D01*
X95398446Y73168292D01*
X95368153Y73193153D01*
X95343292Y73223446D01*
X95324820Y73258005D01*
X95313445Y73295501D01*
X95309000Y73340638D01*
X95309000Y73979362D01*
X95313445Y74024499D01*
X95324820Y74061995D01*
X95343292Y74096554D01*
X95368153Y74126847D01*
X95398446Y74151708D01*
X95433005Y74170180D01*
X95470501Y74181555D01*
X95515638Y74186000D01*
X96254362Y74186000D01*
X96299499Y74181555D01*
G37*
G36*
X17512717Y78971102D02*
G01*
X17760858Y78868319D01*
X17984180Y78719100D01*
X18174100Y78529180D01*
X18323319Y78305858D01*
X18426102Y78057717D01*
X18478500Y77794294D01*
X18478500Y77525706D01*
X18426102Y77262283D01*
X18323319Y77014142D01*
X18174100Y76790820D01*
X17984180Y76600900D01*
X17760858Y76451681D01*
X17512717Y76348898D01*
X17249294Y76296500D01*
X16980706Y76296500D01*
X16717283Y76348898D01*
X16469142Y76451681D01*
X16245820Y76600900D01*
X16055900Y76790820D01*
X15906681Y77014142D01*
X15803898Y77262283D01*
X15751500Y77525706D01*
X15751500Y77794294D01*
X15803898Y78057717D01*
X15906681Y78305858D01*
X16055900Y78529180D01*
X16245820Y78719100D01*
X16469142Y78868319D01*
X16717283Y78971102D01*
X16980706Y79023500D01*
X17249294Y79023500D01*
X17512717Y78971102D01*
G37*
G36*
X21512717Y78971102D02*
G01*
X21760858Y78868319D01*
X21984180Y78719100D01*
X22174100Y78529180D01*
X22323319Y78305858D01*
X22426102Y78057717D01*
X22478500Y77794294D01*
X22478500Y77525706D01*
X22426102Y77262283D01*
X22323319Y77014142D01*
X22174100Y76790820D01*
X21984180Y76600900D01*
X21760858Y76451681D01*
X21512717Y76348898D01*
X21249294Y76296500D01*
X20980706Y76296500D01*
X20717283Y76348898D01*
X20469142Y76451681D01*
X20245820Y76600900D01*
X20055900Y76790820D01*
X19906681Y77014142D01*
X19803898Y77262283D01*
X19751500Y77525706D01*
X19751500Y77794294D01*
X19803898Y78057717D01*
X19906681Y78305858D01*
X20055900Y78529180D01*
X20245820Y78719100D01*
X20469142Y78868319D01*
X20717283Y78971102D01*
X20980706Y79023500D01*
X21249294Y79023500D01*
X21512717Y78971102D01*
G37*
G36*
X25512717Y78971102D02*
G01*
X25760858Y78868319D01*
X25984180Y78719100D01*
X26174100Y78529180D01*
X26323319Y78305858D01*
X26426102Y78057717D01*
X26478500Y77794294D01*
X26478500Y77525706D01*
X26426102Y77262283D01*
X26323319Y77014142D01*
X26174100Y76790820D01*
X25984180Y76600900D01*
X25760858Y76451681D01*
X25512717Y76348898D01*
X25249294Y76296500D01*
X24980706Y76296500D01*
X24717283Y76348898D01*
X24469142Y76451681D01*
X24245820Y76600900D01*
X24055900Y76790820D01*
X23906681Y77014142D01*
X23803898Y77262283D01*
X23751500Y77525706D01*
X23751500Y77794294D01*
X23803898Y78057717D01*
X23906681Y78305858D01*
X24055900Y78529180D01*
X24245820Y78719100D01*
X24469142Y78868319D01*
X24717283Y78971102D01*
X24980706Y79023500D01*
X25249294Y79023500D01*
X25512717Y78971102D01*
G37*
G36*
X29512717Y78971102D02*
G01*
X29760858Y78868319D01*
X29984180Y78719100D01*
X30174100Y78529180D01*
X30323319Y78305858D01*
X30426102Y78057717D01*
X30478500Y77794294D01*
X30478500Y77525706D01*
X30426102Y77262283D01*
X30323319Y77014142D01*
X30174100Y76790820D01*
X29984180Y76600900D01*
X29760858Y76451681D01*
X29512717Y76348898D01*
X29249294Y76296500D01*
X28980706Y76296500D01*
X28717283Y76348898D01*
X28469142Y76451681D01*
X28245820Y76600900D01*
X28055900Y76790820D01*
X27906681Y77014142D01*
X27803898Y77262283D01*
X27751500Y77525706D01*
X27751500Y77794294D01*
X27803898Y78057717D01*
X27906681Y78305858D01*
X28055900Y78529180D01*
X28245820Y78719100D01*
X28469142Y78868319D01*
X28717283Y78971102D01*
X28980706Y79023500D01*
X29249294Y79023500D01*
X29512717Y78971102D01*
G37*
G36*
X33512717Y78971102D02*
G01*
X33760858Y78868319D01*
X33984180Y78719100D01*
X34174100Y78529180D01*
X34323319Y78305858D01*
X34426102Y78057717D01*
X34478500Y77794294D01*
X34478500Y77525706D01*
X34426102Y77262283D01*
X34323319Y77014142D01*
X34174100Y76790820D01*
X33984180Y76600900D01*
X33760858Y76451681D01*
X33512717Y76348898D01*
X33249294Y76296500D01*
X32980706Y76296500D01*
X32717283Y76348898D01*
X32469142Y76451681D01*
X32245820Y76600900D01*
X32055900Y76790820D01*
X31906681Y77014142D01*
X31803898Y77262283D01*
X31751500Y77525706D01*
X31751500Y77794294D01*
X31803898Y78057717D01*
X31906681Y78305858D01*
X32055900Y78529180D01*
X32245820Y78719100D01*
X32469142Y78868319D01*
X32717283Y78971102D01*
X32980706Y79023500D01*
X33249294Y79023500D01*
X33512717Y78971102D01*
G37*
G36*
X37512717Y78971102D02*
G01*
X37760858Y78868319D01*
X37984180Y78719100D01*
X38174100Y78529180D01*
X38323319Y78305858D01*
X38426102Y78057717D01*
X38478500Y77794294D01*
X38478500Y77525706D01*
X38426102Y77262283D01*
X38323319Y77014142D01*
X38174100Y76790820D01*
X37984180Y76600900D01*
X37760858Y76451681D01*
X37512717Y76348898D01*
X37249294Y76296500D01*
X36980706Y76296500D01*
X36717283Y76348898D01*
X36469142Y76451681D01*
X36245820Y76600900D01*
X36055900Y76790820D01*
X35906681Y77014142D01*
X35803898Y77262283D01*
X35751500Y77525706D01*
X35751500Y77794294D01*
X35803898Y78057717D01*
X35906681Y78305858D01*
X36055900Y78529180D01*
X36245820Y78719100D01*
X36469142Y78868319D01*
X36717283Y78971102D01*
X36980706Y79023500D01*
X37249294Y79023500D01*
X37512717Y78971102D01*
G37*
G36*
X41512717Y78971102D02*
G01*
X41760858Y78868319D01*
X41984180Y78719100D01*
X42174100Y78529180D01*
X42323319Y78305858D01*
X42426102Y78057717D01*
X42478500Y77794294D01*
X42478500Y77525706D01*
X42426102Y77262283D01*
X42323319Y77014142D01*
X42174100Y76790820D01*
X41984180Y76600900D01*
X41760858Y76451681D01*
X41512717Y76348898D01*
X41249294Y76296500D01*
X40980706Y76296500D01*
X40717283Y76348898D01*
X40469142Y76451681D01*
X40245820Y76600900D01*
X40055900Y76790820D01*
X39906681Y77014142D01*
X39803898Y77262283D01*
X39751500Y77525706D01*
X39751500Y77794294D01*
X39803898Y78057717D01*
X39906681Y78305858D01*
X40055900Y78529180D01*
X40245820Y78719100D01*
X40469142Y78868319D01*
X40717283Y78971102D01*
X40980706Y79023500D01*
X41249294Y79023500D01*
X41512717Y78971102D01*
G37*
G36*
X45512717Y78971102D02*
G01*
X45760858Y78868319D01*
X45984180Y78719100D01*
X46174100Y78529180D01*
X46323319Y78305858D01*
X46426102Y78057717D01*
X46478500Y77794294D01*
X46478500Y77525706D01*
X46426102Y77262283D01*
X46323319Y77014142D01*
X46174100Y76790820D01*
X45984180Y76600900D01*
X45760858Y76451681D01*
X45512717Y76348898D01*
X45249294Y76296500D01*
X44980706Y76296500D01*
X44717283Y76348898D01*
X44469142Y76451681D01*
X44245820Y76600900D01*
X44055900Y76790820D01*
X43906681Y77014142D01*
X43803898Y77262283D01*
X43751500Y77525706D01*
X43751500Y77794294D01*
X43803898Y78057717D01*
X43906681Y78305858D01*
X44055900Y78529180D01*
X44245820Y78719100D01*
X44469142Y78868319D01*
X44717283Y78971102D01*
X44980706Y79023500D01*
X45249294Y79023500D01*
X45512717Y78971102D01*
G37*
G36*
X68436242Y78116596D02*
G01*
X68473337Y78105343D01*
X68507515Y78087075D01*
X68537481Y78062481D01*
X68562075Y78032515D01*
X68580343Y77998337D01*
X68591596Y77961242D01*
X68596000Y77916526D01*
X68596000Y77023474D01*
X68591596Y76978758D01*
X68580343Y76941663D01*
X68562075Y76907485D01*
X68537481Y76877519D01*
X68507515Y76852925D01*
X68473337Y76834657D01*
X68436242Y76823404D01*
X68391526Y76819000D01*
X67498474Y76819000D01*
X67453758Y76823404D01*
X67416663Y76834657D01*
X67382485Y76852925D01*
X67352519Y76877519D01*
X67327925Y76907485D01*
X67309657Y76941663D01*
X67298404Y76978758D01*
X67294000Y77023474D01*
X67294000Y77916526D01*
X67298404Y77961242D01*
X67309657Y77998337D01*
X67327925Y78032515D01*
X67352519Y78062481D01*
X67382485Y78087075D01*
X67416663Y78105343D01*
X67453758Y78116596D01*
X67498474Y78121000D01*
X68391526Y78121000D01*
X68436242Y78116596D01*
G37*
G36*
X70134890Y78095983D02*
G01*
X70227272Y78057717D01*
X70253364Y78046909D01*
X70359988Y77975665D01*
X70450665Y77884988D01*
X70521909Y77778364D01*
X70570983Y77659890D01*
X70596000Y77534118D01*
X70596000Y77405882D01*
X70570983Y77280110D01*
X70521909Y77161636D01*
X70450665Y77055012D01*
X70359988Y76964335D01*
X70253364Y76893091D01*
X70253363Y76893090D01*
X70253362Y76893090D01*
X70134890Y76844017D01*
X70009119Y76819000D01*
X69880881Y76819000D01*
X69755110Y76844017D01*
X69636638Y76893090D01*
X69636637Y76893090D01*
X69636636Y76893091D01*
X69530012Y76964335D01*
X69439335Y77055012D01*
X69368091Y77161636D01*
X69319017Y77280110D01*
X69294000Y77405882D01*
X69294000Y77534118D01*
X69319017Y77659890D01*
X69368091Y77778364D01*
X69439335Y77884988D01*
X69530012Y77975665D01*
X69636636Y78046909D01*
X69662729Y78057717D01*
X69755110Y78095983D01*
X69880881Y78121000D01*
X70009119Y78121000D01*
X70134890Y78095983D01*
G37*
G36*
X70134890Y80095983D02*
G01*
X70253364Y80046909D01*
X70359988Y79975665D01*
X70450665Y79884988D01*
X70521909Y79778364D01*
X70570983Y79659890D01*
X70596000Y79534118D01*
X70596000Y79405882D01*
X70570983Y79280110D01*
X70521909Y79161636D01*
X70450665Y79055012D01*
X70359988Y78964335D01*
X70253364Y78893091D01*
X70253363Y78893090D01*
X70253362Y78893090D01*
X70134890Y78844017D01*
X70009119Y78819000D01*
X69880881Y78819000D01*
X69755110Y78844017D01*
X69636638Y78893090D01*
X69636637Y78893090D01*
X69636636Y78893091D01*
X69530012Y78964335D01*
X69439335Y79055012D01*
X69368091Y79161636D01*
X69319017Y79280110D01*
X69294000Y79405882D01*
X69294000Y79534118D01*
X69319017Y79659890D01*
X69368091Y79778364D01*
X69439335Y79884988D01*
X69530012Y79975665D01*
X69636636Y80046909D01*
X69755110Y80095983D01*
X69880881Y80121000D01*
X70009119Y80121000D01*
X70134890Y80095983D01*
G37*
G36*
X68134890Y80095983D02*
G01*
X68253364Y80046909D01*
X68359988Y79975665D01*
X68450665Y79884988D01*
X68521909Y79778364D01*
X68570983Y79659890D01*
X68596000Y79534118D01*
X68596000Y79405882D01*
X68570983Y79280110D01*
X68521909Y79161636D01*
X68450665Y79055012D01*
X68359988Y78964335D01*
X68253364Y78893091D01*
X68253363Y78893090D01*
X68253362Y78893090D01*
X68134890Y78844017D01*
X68009119Y78819000D01*
X67880881Y78819000D01*
X67755110Y78844017D01*
X67636638Y78893090D01*
X67636637Y78893090D01*
X67636636Y78893091D01*
X67530012Y78964335D01*
X67439335Y79055012D01*
X67368091Y79161636D01*
X67319017Y79280110D01*
X67294000Y79405882D01*
X67294000Y79534118D01*
X67319017Y79659890D01*
X67368091Y79778364D01*
X67439335Y79884988D01*
X67530012Y79975665D01*
X67636636Y80046909D01*
X67755110Y80095983D01*
X67880881Y80121000D01*
X68009119Y80121000D01*
X68134890Y80095983D01*
G37*
G36*
X56621564Y81970611D02*
G01*
X56812833Y81891385D01*
X56812835Y81891384D01*
X56984973Y81776365D01*
X57131365Y81629973D01*
X57195413Y81534119D01*
X57246385Y81457833D01*
X57325611Y81266564D01*
X57366000Y81063516D01*
X57366000Y80856484D01*
X57325611Y80653436D01*
X57246385Y80462167D01*
X57246384Y80462165D01*
X57131365Y80290027D01*
X56984973Y80143635D01*
X56812835Y80028616D01*
X56812834Y80028615D01*
X56812833Y80028615D01*
X56621564Y79949389D01*
X56418516Y79909000D01*
X56211484Y79909000D01*
X56008436Y79949389D01*
X55817167Y80028615D01*
X55817166Y80028615D01*
X55817165Y80028616D01*
X55645027Y80143635D01*
X55498635Y80290027D01*
X55383616Y80462165D01*
X55383615Y80462167D01*
X55304389Y80653436D01*
X55264000Y80856484D01*
X55264000Y81063516D01*
X55304389Y81266564D01*
X55383615Y81457833D01*
X55434588Y81534119D01*
X55498635Y81629973D01*
X55645027Y81776365D01*
X55817165Y81891384D01*
X55817167Y81891385D01*
X56008436Y81970611D01*
X56211484Y82011000D01*
X56418516Y82011000D01*
X56621564Y81970611D01*
G37*
G36*
X6221564Y81970611D02*
G01*
X6412833Y81891385D01*
X6412835Y81891384D01*
X6584973Y81776365D01*
X6731365Y81629973D01*
X6795413Y81534119D01*
X6846385Y81457833D01*
X6925611Y81266564D01*
X6966000Y81063516D01*
X6966000Y80856484D01*
X6925611Y80653436D01*
X6846385Y80462167D01*
X6846384Y80462165D01*
X6731365Y80290027D01*
X6584973Y80143635D01*
X6412835Y80028616D01*
X6412834Y80028615D01*
X6412833Y80028615D01*
X6221564Y79949389D01*
X6018516Y79909000D01*
X5811484Y79909000D01*
X5608436Y79949389D01*
X5417167Y80028615D01*
X5417166Y80028615D01*
X5417165Y80028616D01*
X5245027Y80143635D01*
X5098635Y80290027D01*
X4983616Y80462165D01*
X4983615Y80462167D01*
X4904389Y80653436D01*
X4864000Y80856484D01*
X4864000Y81063516D01*
X4904389Y81266564D01*
X4983615Y81457833D01*
X5034588Y81534119D01*
X5098635Y81629973D01*
X5245027Y81776365D01*
X5417165Y81891384D01*
X5417167Y81891385D01*
X5608436Y81970611D01*
X5811484Y82011000D01*
X6018516Y82011000D01*
X6221564Y81970611D01*
G37*
G36*
X68134890Y82095983D02*
G01*
X68253364Y82046909D01*
X68359988Y81975665D01*
X68450665Y81884988D01*
X68521909Y81778364D01*
X68570983Y81659890D01*
X68596000Y81534118D01*
X68596000Y81405882D01*
X68570983Y81280110D01*
X68521909Y81161636D01*
X68450665Y81055012D01*
X68359988Y80964335D01*
X68253364Y80893091D01*
X68253363Y80893090D01*
X68253362Y80893090D01*
X68134890Y80844017D01*
X68009119Y80819000D01*
X67880881Y80819000D01*
X67755110Y80844017D01*
X67636638Y80893090D01*
X67636637Y80893090D01*
X67636636Y80893091D01*
X67530012Y80964335D01*
X67439335Y81055012D01*
X67368091Y81161636D01*
X67319017Y81280110D01*
X67294000Y81405882D01*
X67294000Y81534118D01*
X67319017Y81659890D01*
X67368091Y81778364D01*
X67439335Y81884988D01*
X67530012Y81975665D01*
X67636636Y82046909D01*
X67755110Y82095983D01*
X67880881Y82121000D01*
X68009119Y82121000D01*
X68134890Y82095983D01*
G37*
G36*
X70134890Y82095983D02*
G01*
X70253364Y82046909D01*
X70359988Y81975665D01*
X70450665Y81884988D01*
X70521909Y81778364D01*
X70570983Y81659890D01*
X70596000Y81534118D01*
X70596000Y81405882D01*
X70570983Y81280110D01*
X70521909Y81161636D01*
X70450665Y81055012D01*
X70359988Y80964335D01*
X70253364Y80893091D01*
X70253363Y80893090D01*
X70253362Y80893090D01*
X70134890Y80844017D01*
X70009119Y80819000D01*
X69880881Y80819000D01*
X69755110Y80844017D01*
X69636638Y80893090D01*
X69636637Y80893090D01*
X69636636Y80893091D01*
X69530012Y80964335D01*
X69439335Y81055012D01*
X69368091Y81161636D01*
X69319017Y81280110D01*
X69294000Y81405882D01*
X69294000Y81534118D01*
X69319017Y81659890D01*
X69368091Y81778364D01*
X69439335Y81884988D01*
X69530012Y81975665D01*
X69636636Y82046909D01*
X69755110Y82095983D01*
X69880881Y82121000D01*
X70009119Y82121000D01*
X70134890Y82095983D01*
G37*
G36*
X70134890Y84095983D02*
G01*
X70253364Y84046909D01*
X70359988Y83975665D01*
X70450665Y83884988D01*
X70521909Y83778364D01*
X70570983Y83659890D01*
X70596000Y83534118D01*
X70596000Y83405882D01*
X70570983Y83280110D01*
X70521909Y83161636D01*
X70450665Y83055012D01*
X70359988Y82964335D01*
X70253364Y82893091D01*
X70253363Y82893090D01*
X70253362Y82893090D01*
X70134890Y82844017D01*
X70009119Y82819000D01*
X69880881Y82819000D01*
X69755110Y82844017D01*
X69636638Y82893090D01*
X69636637Y82893090D01*
X69636636Y82893091D01*
X69530012Y82964335D01*
X69439335Y83055012D01*
X69368091Y83161636D01*
X69319017Y83280110D01*
X69294000Y83405882D01*
X69294000Y83534118D01*
X69319017Y83659890D01*
X69368091Y83778364D01*
X69439335Y83884988D01*
X69530012Y83975665D01*
X69636636Y84046909D01*
X69755110Y84095983D01*
X69880881Y84121000D01*
X70009119Y84121000D01*
X70134890Y84095983D01*
G37*
G36*
X68134890Y84095983D02*
G01*
X68253364Y84046909D01*
X68359988Y83975665D01*
X68450665Y83884988D01*
X68521909Y83778364D01*
X68570983Y83659890D01*
X68596000Y83534118D01*
X68596000Y83405882D01*
X68570983Y83280110D01*
X68521909Y83161636D01*
X68450665Y83055012D01*
X68359988Y82964335D01*
X68253364Y82893091D01*
X68253363Y82893090D01*
X68253362Y82893090D01*
X68134890Y82844017D01*
X68009119Y82819000D01*
X67880881Y82819000D01*
X67755110Y82844017D01*
X67636638Y82893090D01*
X67636637Y82893090D01*
X67636636Y82893091D01*
X67530012Y82964335D01*
X67439335Y83055012D01*
X67368091Y83161636D01*
X67319017Y83280110D01*
X67294000Y83405882D01*
X67294000Y83534118D01*
X67319017Y83659890D01*
X67368091Y83778364D01*
X67439335Y83884988D01*
X67530012Y83975665D01*
X67636636Y84046909D01*
X67755110Y84095983D01*
X67880881Y84121000D01*
X68009119Y84121000D01*
X68134890Y84095983D01*
G37*
M02*
