%FSLAX45Y45*%
G04 Gerber Fmt 4.5, Leading zero omitted, Abs format (unit mm)*
G04 Created by KiCad (PCBNEW 5.1.5-52549c5~84~ubuntu18.04.1) date 2020-02-26 10:28:31*
%MOMM*%
%LPD*%
G04 APERTURE LIST*
%TA.AperFunction,Profile*%
%ADD10C,0.100000*%
%TD*%
%ADD11C,0.200000*%
%ADD12C,0.300000*%
G04 APERTURE END LIST*
D10*
X10160000Y9080500D02*
X10160000Y0D01*
X0Y9080500D02*
X10160000Y9080500D01*
X0Y0D02*
X0Y9080500D01*
X10160000Y0D02*
X0Y0D01*
D11*
X4806000Y5798500D02*
X4846000Y5758500D01*
X4846000Y5798500D02*
X4806000Y5758500D01*
X5568000Y7322500D02*
X5608000Y7282500D01*
X5608000Y7322500D02*
X5568000Y7282500D01*
X5631500Y5798500D02*
X5671500Y5758500D01*
X5671500Y5798500D02*
X5631500Y5758500D01*
X5949000Y4719000D02*
X5989000Y4679000D01*
X5989000Y4719000D02*
X5949000Y4679000D01*
X6325441Y4787059D02*
X6365441Y4747059D01*
X6365441Y4787059D02*
X6325441Y4747059D01*
X6330000Y4084000D02*
X6370000Y4044000D01*
X6370000Y4084000D02*
X6330000Y4044000D01*
X6393500Y7703500D02*
X6433500Y7663500D01*
X6433500Y7703500D02*
X6393500Y7663500D01*
X6584000Y4020500D02*
X6624000Y3980500D01*
X6624000Y4020500D02*
X6584000Y3980500D01*
X8997000Y6941500D02*
X9037000Y6901500D01*
X9037000Y6941500D02*
X8997000Y6901500D01*
X8997000Y6433500D02*
X9037000Y6393500D01*
X9037000Y6433500D02*
X8997000Y6393500D01*
X8997000Y5798500D02*
X9037000Y5758500D01*
X9037000Y5798500D02*
X8997000Y5758500D01*
X8997000Y5481000D02*
X9037000Y5441000D01*
X9037000Y5481000D02*
X8997000Y5441000D01*
X6832000Y8347000D02*
G75*
G03X6832000Y8347000I-37500J0D01*
G01*
X6832000Y8147000D02*
G75*
G03X6832000Y8147000I-37500J0D01*
G01*
X6832000Y7947000D02*
G75*
G03X6832000Y7947000I-37500J0D01*
G01*
X6832000Y7747000D02*
G75*
G03X6832000Y7747000I-37500J0D01*
G01*
X7032000Y8347000D02*
G75*
G03X7032000Y8347000I-37500J0D01*
G01*
X7032000Y8147000D02*
G75*
G03X7032000Y8147000I-37500J0D01*
G01*
X7032000Y7947000D02*
G75*
G03X7032000Y7947000I-37500J0D01*
G01*
X7032000Y7747000D02*
G75*
G03X7032000Y7747000I-37500J0D01*
G01*
X5524500Y3596000D02*
X5524500Y3516000D01*
X5484500Y3556000D02*
X5564500Y3556000D01*
X5524500Y2580000D02*
X5524500Y2500000D01*
X5484500Y2540000D02*
X5564500Y2540000D01*
X6956856Y5933644D02*
X6956856Y6004356D01*
X6886144Y6004356D01*
X6886144Y5933644D01*
X6956856Y5933644D01*
X6956856Y5679644D02*
X6956856Y5750356D01*
X6886144Y5750356D01*
X6886144Y5679644D01*
X6956856Y5679644D01*
X6956856Y5425644D02*
X6956856Y5496356D01*
X6886144Y5496356D01*
X6886144Y5425644D01*
X6956856Y5425644D01*
X3169500Y1899000D02*
X3224000Y1953500D01*
X3169500Y2008000D01*
X3115000Y1953500D01*
X3169500Y1899000D01*
X3169500Y883000D02*
X3224000Y937500D01*
X3169500Y992000D01*
X3115000Y937500D01*
X3169500Y883000D01*
X7496500Y2854000D02*
X7616500Y2734000D01*
X7616500Y2854000D02*
X7496500Y2734000D01*
X7616500Y2794000D02*
G75*
G03X7616500Y2794000I-60000J0D01*
G01*
X8246500Y2854000D02*
X8366500Y2734000D01*
X8366500Y2854000D02*
X8246500Y2734000D01*
X8366500Y2794000D02*
G75*
G03X8366500Y2794000I-60000J0D01*
G01*
X8893500Y1584000D02*
X9013500Y1464000D01*
X9013500Y1584000D02*
X8893500Y1464000D01*
X9013500Y1524000D02*
G75*
G03X9013500Y1524000I-60000J0D01*
G01*
X8893500Y834000D02*
X9013500Y714000D01*
X9013500Y834000D02*
X8893500Y714000D01*
X9013500Y774000D02*
G75*
G03X9013500Y774000I-60000J0D01*
G01*
X6861500Y1584000D02*
X6981500Y1464000D01*
X6981500Y1584000D02*
X6861500Y1464000D01*
X6981500Y1524000D02*
G75*
G03X6981500Y1524000I-60000J0D01*
G01*
X6861500Y834000D02*
X6981500Y714000D01*
X6981500Y834000D02*
X6861500Y714000D01*
X6981500Y774000D02*
G75*
G03X6981500Y774000I-60000J0D01*
G01*
X4565500Y1533000D02*
X4705500Y1393000D01*
X4705500Y1533000D02*
X4565500Y1393000D01*
X4635500Y1533000D02*
X4635500Y1393000D01*
X4565500Y1463000D02*
X4705500Y1463000D01*
X4565500Y1119000D02*
X4705500Y979000D01*
X4705500Y1119000D02*
X4565500Y979000D01*
X4635500Y1119000D02*
X4635500Y979000D01*
X4565500Y1049000D02*
X4705500Y1049000D01*
X4565500Y705000D02*
X4705500Y565000D01*
X4705500Y705000D02*
X4565500Y565000D01*
X4635500Y705000D02*
X4635500Y565000D01*
X4565500Y635000D02*
X4705500Y635000D01*
X9503500Y5292000D02*
X9673500Y5122000D01*
X9673500Y5292000D02*
X9503500Y5122000D01*
X9648605Y5146895D02*
X9648605Y5267105D01*
X9528395Y5267105D01*
X9528395Y5146895D01*
X9648605Y5146895D01*
X9503500Y4500000D02*
X9673500Y4330000D01*
X9673500Y4500000D02*
X9503500Y4330000D01*
X9648605Y4354895D02*
X9648605Y4475105D01*
X9528395Y4475105D01*
X9528395Y4354895D01*
X9648605Y4354895D01*
X1624000Y7853500D02*
X1799000Y7678500D01*
X1799000Y7853500D02*
X1624000Y7678500D01*
X1711500Y7678500D02*
X1799000Y7766000D01*
X1711500Y7853500D01*
X1624000Y7766000D01*
X1711500Y7678500D01*
X1624000Y7053500D02*
X1799000Y6878500D01*
X1799000Y7053500D02*
X1624000Y6878500D01*
X1711500Y6878500D02*
X1799000Y6966000D01*
X1711500Y7053500D01*
X1624000Y6966000D01*
X1711500Y6878500D01*
X1824000Y7453500D02*
X1999000Y7278500D01*
X1999000Y7453500D02*
X1824000Y7278500D01*
X1911500Y7278500D02*
X1999000Y7366000D01*
X1911500Y7453500D01*
X1824000Y7366000D01*
X1911500Y7278500D01*
X2024000Y7853500D02*
X2199000Y7678500D01*
X2199000Y7853500D02*
X2024000Y7678500D01*
X2111500Y7678500D02*
X2199000Y7766000D01*
X2111500Y7853500D01*
X2024000Y7766000D01*
X2111500Y7678500D01*
X2024000Y7053500D02*
X2199000Y6878500D01*
X2199000Y7053500D02*
X2024000Y6878500D01*
X2111500Y6878500D02*
X2199000Y6966000D01*
X2111500Y7053500D01*
X2024000Y6966000D01*
X2111500Y6878500D01*
X2224000Y7453500D02*
X2399000Y7278500D01*
X2399000Y7453500D02*
X2224000Y7278500D01*
X2311500Y7278500D02*
X2399000Y7366000D01*
X2311500Y7453500D01*
X2224000Y7366000D01*
X2311500Y7278500D01*
X2424000Y7853500D02*
X2599000Y7678500D01*
X2599000Y7853500D02*
X2424000Y7678500D01*
X2511500Y7678500D02*
X2599000Y7766000D01*
X2511500Y7853500D01*
X2424000Y7766000D01*
X2511500Y7678500D01*
X2424000Y7053500D02*
X2599000Y6878500D01*
X2599000Y7053500D02*
X2424000Y6878500D01*
X2511500Y6878500D02*
X2599000Y6966000D01*
X2511500Y7053500D01*
X2424000Y6966000D01*
X2511500Y6878500D01*
X2624000Y7453500D02*
X2799000Y7278500D01*
X2799000Y7453500D02*
X2624000Y7278500D01*
X2711500Y7278500D02*
X2799000Y7366000D01*
X2711500Y7453500D01*
X2624000Y7366000D01*
X2711500Y7278500D01*
X2824000Y7853500D02*
X2999000Y7678500D01*
X2999000Y7853500D02*
X2824000Y7678500D01*
X2911500Y7678500D02*
X2999000Y7766000D01*
X2911500Y7853500D01*
X2824000Y7766000D01*
X2911500Y7678500D01*
X2824000Y7053500D02*
X2999000Y6878500D01*
X2999000Y7053500D02*
X2824000Y6878500D01*
X2911500Y6878500D02*
X2999000Y6966000D01*
X2911500Y7053500D01*
X2824000Y6966000D01*
X2911500Y6878500D01*
X3024000Y7453500D02*
X3199000Y7278500D01*
X3199000Y7453500D02*
X3024000Y7278500D01*
X3111500Y7278500D02*
X3199000Y7366000D01*
X3111500Y7453500D01*
X3024000Y7366000D01*
X3111500Y7278500D01*
X3224000Y7853500D02*
X3399000Y7678500D01*
X3399000Y7853500D02*
X3224000Y7678500D01*
X3311500Y7678500D02*
X3399000Y7766000D01*
X3311500Y7853500D01*
X3224000Y7766000D01*
X3311500Y7678500D01*
X3224000Y7053500D02*
X3399000Y6878500D01*
X3399000Y7053500D02*
X3224000Y6878500D01*
X3311500Y6878500D02*
X3399000Y6966000D01*
X3311500Y7053500D01*
X3224000Y6966000D01*
X3311500Y6878500D01*
X3424000Y7453500D02*
X3599000Y7278500D01*
X3599000Y7453500D02*
X3424000Y7278500D01*
X3511500Y7278500D02*
X3599000Y7366000D01*
X3511500Y7453500D01*
X3424000Y7366000D01*
X3511500Y7278500D01*
X3624000Y7853500D02*
X3799000Y7678500D01*
X3799000Y7853500D02*
X3624000Y7678500D01*
X3711500Y7678500D02*
X3799000Y7766000D01*
X3711500Y7853500D01*
X3624000Y7766000D01*
X3711500Y7678500D01*
X3624000Y7053500D02*
X3799000Y6878500D01*
X3799000Y7053500D02*
X3624000Y6878500D01*
X3711500Y6878500D02*
X3799000Y6966000D01*
X3711500Y7053500D01*
X3624000Y6966000D01*
X3711500Y6878500D01*
X3824000Y7453500D02*
X3999000Y7278500D01*
X3999000Y7453500D02*
X3824000Y7278500D01*
X3911500Y7278500D02*
X3999000Y7366000D01*
X3911500Y7453500D01*
X3824000Y7366000D01*
X3911500Y7278500D01*
X4024000Y7853500D02*
X4199000Y7678500D01*
X4199000Y7853500D02*
X4024000Y7678500D01*
X4111500Y7678500D02*
X4199000Y7766000D01*
X4111500Y7853500D01*
X4024000Y7766000D01*
X4111500Y7678500D01*
X4024000Y7053500D02*
X4199000Y6878500D01*
X4199000Y7053500D02*
X4024000Y6878500D01*
X4111500Y6878500D02*
X4199000Y6966000D01*
X4111500Y7053500D01*
X4024000Y6966000D01*
X4111500Y6878500D01*
X4224000Y7453500D02*
X4399000Y7278500D01*
X4399000Y7453500D02*
X4224000Y7278500D01*
X4311500Y7278500D02*
X4399000Y7366000D01*
X4311500Y7453500D01*
X4224000Y7366000D01*
X4311500Y7278500D01*
X4424000Y7853500D02*
X4599000Y7678500D01*
X4599000Y7853500D02*
X4424000Y7678500D01*
X4511500Y7678500D02*
X4599000Y7766000D01*
X4511500Y7853500D01*
X4424000Y7766000D01*
X4511500Y7678500D01*
X4424000Y7053500D02*
X4599000Y6878500D01*
X4599000Y7053500D02*
X4424000Y6878500D01*
X4511500Y6878500D02*
X4599000Y6966000D01*
X4511500Y7053500D01*
X4424000Y6966000D01*
X4511500Y6878500D01*
X4399643Y5399000D02*
X4399643Y5221000D01*
X4310643Y5310000D02*
X4488643Y5310000D01*
X4488643Y5310000D02*
G75*
G03X4488643Y5310000I-89000J0D01*
G01*
X4399643Y4407000D02*
X4399643Y4229000D01*
X4310643Y4318000D02*
X4488643Y4318000D01*
X4488643Y4318000D02*
G75*
G03X4488643Y4318000I-89000J0D01*
G01*
X4739643Y5399000D02*
X4739643Y5221000D01*
X4650643Y5310000D02*
X4828643Y5310000D01*
X4828643Y5310000D02*
G75*
G03X4828643Y5310000I-89000J0D01*
G01*
X4739643Y4407000D02*
X4739643Y4229000D01*
X4650643Y4318000D02*
X4828643Y4318000D01*
X4828643Y4318000D02*
G75*
G03X4828643Y4318000I-89000J0D01*
G01*
X1968500Y548500D02*
X1968500Y370500D01*
X1879500Y459500D02*
X2057500Y459500D01*
X2057500Y459500D02*
G75*
G03X2057500Y459500I-89000J0D01*
G01*
X1891000Y380500D02*
X2046000Y380500D01*
X1891000Y538500D02*
X2046000Y538500D01*
X2046000Y380500D02*
G75*
G03X2046000Y538500I0J79000D01*
G01*
X1891000Y538500D02*
G75*
G03X1891000Y380500I0J-79000D01*
G01*
X3583214Y5399000D02*
X3583214Y5221000D01*
X3494214Y5310000D02*
X3672214Y5310000D01*
X3672214Y5310000D02*
G75*
G03X3672214Y5310000I-89000J0D01*
G01*
X3583214Y4407000D02*
X3583214Y4229000D01*
X3494214Y4318000D02*
X3672214Y4318000D01*
X3672214Y4318000D02*
G75*
G03X3672214Y4318000I-89000J0D01*
G01*
X3923214Y5399000D02*
X3923214Y5221000D01*
X3834214Y5310000D02*
X4012214Y5310000D01*
X4012214Y5310000D02*
G75*
G03X4012214Y5310000I-89000J0D01*
G01*
X3923214Y4407000D02*
X3923214Y4229000D01*
X3834214Y4318000D02*
X4012214Y4318000D01*
X4012214Y4318000D02*
G75*
G03X4012214Y4318000I-89000J0D01*
G01*
X1133929Y5399000D02*
X1133929Y5221000D01*
X1044928Y5310000D02*
X1222929Y5310000D01*
X1222929Y5310000D02*
G75*
G03X1222929Y5310000I-89000J0D01*
G01*
X1133929Y4407000D02*
X1133929Y4229000D01*
X1044928Y4318000D02*
X1222929Y4318000D01*
X1222929Y4318000D02*
G75*
G03X1222929Y4318000I-89000J0D01*
G01*
X1473928Y5399000D02*
X1473928Y5221000D01*
X1384929Y5310000D02*
X1562928Y5310000D01*
X1562928Y5310000D02*
G75*
G03X1562928Y5310000I-89000J0D01*
G01*
X1473928Y4407000D02*
X1473928Y4229000D01*
X1384929Y4318000D02*
X1562928Y4318000D01*
X1562928Y4318000D02*
G75*
G03X1562928Y4318000I-89000J0D01*
G01*
X976500Y3731000D02*
X976500Y3553000D01*
X887500Y3642000D02*
X1065500Y3642000D01*
X1065500Y3642000D02*
G75*
G03X1065500Y3642000I-89000J0D01*
G01*
X976500Y3391000D02*
X976500Y3213000D01*
X887500Y3302000D02*
X1065500Y3302000D01*
X1065500Y3302000D02*
G75*
G03X1065500Y3302000I-89000J0D01*
G01*
X1968500Y3731000D02*
X1968500Y3553000D01*
X1879500Y3642000D02*
X2057500Y3642000D01*
X2057500Y3642000D02*
G75*
G03X2057500Y3642000I-89000J0D01*
G01*
X1968500Y3391000D02*
X1968500Y3213000D01*
X1879500Y3302000D02*
X2057500Y3302000D01*
X2057500Y3302000D02*
G75*
G03X2057500Y3302000I-89000J0D01*
G01*
X4422500Y3645000D02*
X4422500Y3467000D01*
X4333500Y3556000D02*
X4511500Y3556000D01*
X4511500Y3556000D02*
G75*
G03X4511500Y3556000I-89000J0D01*
G01*
X4422500Y2653000D02*
X4422500Y2475000D01*
X4333500Y2564000D02*
X4511500Y2564000D01*
X4511500Y2564000D02*
G75*
G03X4511500Y2564000I-89000J0D01*
G01*
X4762500Y3645000D02*
X4762500Y3467000D01*
X4673500Y3556000D02*
X4851500Y3556000D01*
X4851500Y3556000D02*
G75*
G03X4851500Y3556000I-89000J0D01*
G01*
X4762500Y2653000D02*
X4762500Y2475000D01*
X4673500Y2564000D02*
X4851500Y2564000D01*
X4851500Y2564000D02*
G75*
G03X4851500Y2564000I-89000J0D01*
G01*
X5270500Y5399000D02*
X5270500Y5221000D01*
X5181500Y5310000D02*
X5359500Y5310000D01*
X5359500Y5310000D02*
G75*
G03X5359500Y5310000I-89000J0D01*
G01*
X5270500Y4407000D02*
X5270500Y4229000D01*
X5181500Y4318000D02*
X5359500Y4318000D01*
X5359500Y4318000D02*
G75*
G03X5359500Y4318000I-89000J0D01*
G01*
X5610500Y5399000D02*
X5610500Y5221000D01*
X5521500Y5310000D02*
X5699500Y5310000D01*
X5699500Y5310000D02*
G75*
G03X5699500Y5310000I-89000J0D01*
G01*
X5610500Y4407000D02*
X5610500Y4229000D01*
X5521500Y4318000D02*
X5699500Y4318000D01*
X5699500Y4318000D02*
G75*
G03X5699500Y4318000I-89000J0D01*
G01*
X1950357Y5399000D02*
X1950357Y5221000D01*
X1861357Y5310000D02*
X2039357Y5310000D01*
X2039357Y5310000D02*
G75*
G03X2039357Y5310000I-89000J0D01*
G01*
X1950357Y4407000D02*
X1950357Y4229000D01*
X1861357Y4318000D02*
X2039357Y4318000D01*
X2039357Y4318000D02*
G75*
G03X2039357Y4318000I-89000J0D01*
G01*
X2290357Y5399000D02*
X2290357Y5221000D01*
X2201357Y5310000D02*
X2379357Y5310000D01*
X2379357Y5310000D02*
G75*
G03X2379357Y5310000I-89000J0D01*
G01*
X2290357Y4407000D02*
X2290357Y4229000D01*
X2201357Y4318000D02*
X2379357Y4318000D01*
X2379357Y4318000D02*
G75*
G03X2379357Y4318000I-89000J0D01*
G01*
X2754500Y3772000D02*
X2754500Y3594000D01*
X2665500Y3683000D02*
X2843500Y3683000D01*
X2843500Y3683000D02*
G75*
G03X2843500Y3683000I-89000J0D01*
G01*
X2754500Y3432000D02*
X2754500Y3254000D01*
X2665500Y3343000D02*
X2843500Y3343000D01*
X2843500Y3343000D02*
G75*
G03X2843500Y3343000I-89000J0D01*
G01*
X3746500Y3772000D02*
X3746500Y3594000D01*
X3657500Y3683000D02*
X3835500Y3683000D01*
X3835500Y3683000D02*
G75*
G03X3835500Y3683000I-89000J0D01*
G01*
X3746500Y3432000D02*
X3746500Y3254000D01*
X3657500Y3343000D02*
X3835500Y3343000D01*
X3835500Y3343000D02*
G75*
G03X3835500Y3343000I-89000J0D01*
G01*
X9461500Y3875000D02*
X9461500Y3697000D01*
X9372500Y3786000D02*
X9550500Y3786000D01*
X9550500Y3786000D02*
G75*
G03X9550500Y3786000I-89000J0D01*
G01*
X9461500Y2883000D02*
X9461500Y2705000D01*
X9372500Y2794000D02*
X9550500Y2794000D01*
X9550500Y2794000D02*
G75*
G03X9550500Y2794000I-89000J0D01*
G01*
X9801500Y3875000D02*
X9801500Y3697000D01*
X9712500Y3786000D02*
X9890500Y3786000D01*
X9890500Y3786000D02*
G75*
G03X9890500Y3786000I-89000J0D01*
G01*
X9801500Y2883000D02*
X9801500Y2705000D01*
X9712500Y2794000D02*
X9890500Y2794000D01*
X9890500Y2794000D02*
G75*
G03X9890500Y2794000I-89000J0D01*
G01*
X2766786Y5399000D02*
X2766786Y5221000D01*
X2677786Y5310000D02*
X2855785Y5310000D01*
X2855785Y5310000D02*
G75*
G03X2855785Y5310000I-89000J0D01*
G01*
X2766786Y4407000D02*
X2766786Y4229000D01*
X2677786Y4318000D02*
X2855785Y4318000D01*
X2855785Y4318000D02*
G75*
G03X2855785Y4318000I-89000J0D01*
G01*
X3106785Y5399000D02*
X3106785Y5221000D01*
X3017785Y5310000D02*
X3195785Y5310000D01*
X3195785Y5310000D02*
G75*
G03X3195785Y5310000I-89000J0D01*
G01*
X3106785Y4407000D02*
X3106785Y4229000D01*
X3017785Y4318000D02*
X3195785Y4318000D01*
X3195785Y4318000D02*
G75*
G03X3195785Y4318000I-89000J0D01*
G01*
X1694444Y2265556D02*
X1694444Y2403444D01*
X1556556Y2403444D01*
X1556556Y2265556D01*
X1694444Y2265556D01*
X1723000Y2334500D02*
G75*
G03X1723000Y2334500I-97500J0D01*
G01*
X1713000Y2232000D02*
X1713000Y2437000D01*
X1538000Y2232000D02*
X1538000Y2437000D01*
X1713000Y2437000D02*
G75*
G03X1538000Y2437000I-87500J0D01*
G01*
X1538000Y2232000D02*
G75*
G03X1713000Y2232000I87500J0D01*
G01*
D12*
X36429Y-715714D02*
X36429Y-415714D01*
X107857Y-415714D01*
X150714Y-430000D01*
X179286Y-458571D01*
X193571Y-487143D01*
X207857Y-544286D01*
X207857Y-587143D01*
X193571Y-644286D01*
X179286Y-672857D01*
X150714Y-701428D01*
X107857Y-715714D01*
X36429Y-715714D01*
X336429Y-715714D02*
X336429Y-515714D01*
X336429Y-572857D02*
X350714Y-544286D01*
X365000Y-530000D01*
X393571Y-515714D01*
X422143Y-515714D01*
X522143Y-715714D02*
X522143Y-515714D01*
X522143Y-415714D02*
X507857Y-430000D01*
X522143Y-444286D01*
X536429Y-430000D01*
X522143Y-415714D01*
X522143Y-444286D01*
X707857Y-715714D02*
X679286Y-701428D01*
X665000Y-672857D01*
X665000Y-415714D01*
X865000Y-715714D02*
X836428Y-701428D01*
X822143Y-672857D01*
X822143Y-415714D01*
X1207857Y-715714D02*
X1207857Y-415714D01*
X1307857Y-630000D01*
X1407857Y-415714D01*
X1407857Y-715714D01*
X1679286Y-715714D02*
X1679286Y-558571D01*
X1665000Y-530000D01*
X1636428Y-515714D01*
X1579286Y-515714D01*
X1550714Y-530000D01*
X1679286Y-701428D02*
X1650714Y-715714D01*
X1579286Y-715714D01*
X1550714Y-701428D01*
X1536428Y-672857D01*
X1536428Y-644286D01*
X1550714Y-615714D01*
X1579286Y-601429D01*
X1650714Y-601429D01*
X1679286Y-587143D01*
X1822143Y-515714D02*
X1822143Y-815714D01*
X1822143Y-530000D02*
X1850714Y-515714D01*
X1907857Y-515714D01*
X1936428Y-530000D01*
X1950714Y-544286D01*
X1965000Y-572857D01*
X1965000Y-658571D01*
X1950714Y-687143D01*
X1936428Y-701428D01*
X1907857Y-715714D01*
X1850714Y-715714D01*
X1822143Y-701428D01*
X2093571Y-687143D02*
X2107857Y-701428D01*
X2093571Y-715714D01*
X2079286Y-701428D01*
X2093571Y-687143D01*
X2093571Y-715714D01*
X2093571Y-530000D02*
X2107857Y-544286D01*
X2093571Y-558571D01*
X2079286Y-544286D01*
X2093571Y-530000D01*
X2093571Y-558571D01*
X-290000Y-1190000D02*
X-250000Y-1230000D01*
X-250000Y-1190000D02*
X-290000Y-1230000D01*
X93571Y-1045714D02*
X122143Y-1045714D01*
X150714Y-1060000D01*
X165000Y-1074286D01*
X179286Y-1102857D01*
X193571Y-1160000D01*
X193571Y-1231429D01*
X179286Y-1288571D01*
X165000Y-1317143D01*
X150714Y-1331429D01*
X122143Y-1345714D01*
X93571Y-1345714D01*
X65000Y-1331429D01*
X50714Y-1317143D01*
X36429Y-1288571D01*
X22143Y-1231429D01*
X22143Y-1160000D01*
X36429Y-1102857D01*
X50714Y-1074286D01*
X65000Y-1060000D01*
X93571Y-1045714D01*
X322143Y-1317143D02*
X336429Y-1331429D01*
X322143Y-1345714D01*
X307857Y-1331429D01*
X322143Y-1317143D01*
X322143Y-1345714D01*
X593571Y-1145714D02*
X593571Y-1345714D01*
X522143Y-1031428D02*
X450714Y-1245714D01*
X636429Y-1245714D01*
X807857Y-1045714D02*
X836428Y-1045714D01*
X865000Y-1060000D01*
X879286Y-1074286D01*
X893571Y-1102857D01*
X907857Y-1160000D01*
X907857Y-1231429D01*
X893571Y-1288571D01*
X879286Y-1317143D01*
X865000Y-1331429D01*
X836428Y-1345714D01*
X807857Y-1345714D01*
X779286Y-1331429D01*
X765000Y-1317143D01*
X750714Y-1288571D01*
X736428Y-1231429D01*
X736428Y-1160000D01*
X750714Y-1102857D01*
X765000Y-1074286D01*
X779286Y-1060000D01*
X807857Y-1045714D01*
X1036428Y-1345714D02*
X1036428Y-1145714D01*
X1036428Y-1174286D02*
X1050714Y-1160000D01*
X1079286Y-1145714D01*
X1122143Y-1145714D01*
X1150714Y-1160000D01*
X1165000Y-1188571D01*
X1165000Y-1345714D01*
X1165000Y-1188571D02*
X1179286Y-1160000D01*
X1207857Y-1145714D01*
X1250714Y-1145714D01*
X1279286Y-1160000D01*
X1293571Y-1188571D01*
X1293571Y-1345714D01*
X1436428Y-1345714D02*
X1436428Y-1145714D01*
X1436428Y-1174286D02*
X1450714Y-1160000D01*
X1479286Y-1145714D01*
X1522143Y-1145714D01*
X1550714Y-1160000D01*
X1565000Y-1188571D01*
X1565000Y-1345714D01*
X1565000Y-1188571D02*
X1579286Y-1160000D01*
X1607857Y-1145714D01*
X1650714Y-1145714D01*
X1679286Y-1160000D01*
X1693571Y-1188571D01*
X1693571Y-1345714D01*
X2279286Y-1031428D02*
X2022143Y-1417143D01*
X2665000Y-1045714D02*
X2693571Y-1045714D01*
X2722143Y-1060000D01*
X2736429Y-1074286D01*
X2750714Y-1102857D01*
X2765000Y-1160000D01*
X2765000Y-1231429D01*
X2750714Y-1288571D01*
X2736429Y-1317143D01*
X2722143Y-1331429D01*
X2693571Y-1345714D01*
X2665000Y-1345714D01*
X2636429Y-1331429D01*
X2622143Y-1317143D01*
X2607857Y-1288571D01*
X2593571Y-1231429D01*
X2593571Y-1160000D01*
X2607857Y-1102857D01*
X2622143Y-1074286D01*
X2636429Y-1060000D01*
X2665000Y-1045714D01*
X2893571Y-1317143D02*
X2907857Y-1331429D01*
X2893571Y-1345714D01*
X2879286Y-1331429D01*
X2893571Y-1317143D01*
X2893571Y-1345714D01*
X3093571Y-1045714D02*
X3122143Y-1045714D01*
X3150714Y-1060000D01*
X3165000Y-1074286D01*
X3179286Y-1102857D01*
X3193571Y-1160000D01*
X3193571Y-1231429D01*
X3179286Y-1288571D01*
X3165000Y-1317143D01*
X3150714Y-1331429D01*
X3122143Y-1345714D01*
X3093571Y-1345714D01*
X3065000Y-1331429D01*
X3050714Y-1317143D01*
X3036428Y-1288571D01*
X3022143Y-1231429D01*
X3022143Y-1160000D01*
X3036428Y-1102857D01*
X3050714Y-1074286D01*
X3065000Y-1060000D01*
X3093571Y-1045714D01*
X3479286Y-1345714D02*
X3307857Y-1345714D01*
X3393571Y-1345714D02*
X3393571Y-1045714D01*
X3365000Y-1088571D01*
X3336428Y-1117143D01*
X3307857Y-1131429D01*
X3736428Y-1045714D02*
X3679286Y-1045714D01*
X3650714Y-1060000D01*
X3636428Y-1074286D01*
X3607857Y-1117143D01*
X3593571Y-1174286D01*
X3593571Y-1288571D01*
X3607857Y-1317143D01*
X3622143Y-1331429D01*
X3650714Y-1345714D01*
X3707857Y-1345714D01*
X3736428Y-1331429D01*
X3750714Y-1317143D01*
X3765000Y-1288571D01*
X3765000Y-1217143D01*
X3750714Y-1188571D01*
X3736428Y-1174286D01*
X3707857Y-1160000D01*
X3650714Y-1160000D01*
X3622143Y-1174286D01*
X3607857Y-1188571D01*
X3593571Y-1217143D01*
X3879286Y-1045714D02*
X3879286Y-1102857D01*
X3993571Y-1045714D02*
X3993571Y-1102857D01*
X4436429Y-1460000D02*
X4422143Y-1445714D01*
X4393571Y-1402857D01*
X4379286Y-1374286D01*
X4365000Y-1331429D01*
X4350714Y-1260000D01*
X4350714Y-1202857D01*
X4365000Y-1131429D01*
X4379286Y-1088571D01*
X4393571Y-1060000D01*
X4422143Y-1017143D01*
X4436429Y-1002857D01*
X4707857Y-1345714D02*
X4536429Y-1345714D01*
X4622143Y-1345714D02*
X4622143Y-1045714D01*
X4593571Y-1088571D01*
X4565000Y-1117143D01*
X4536429Y-1131429D01*
X4822143Y-1074286D02*
X4836429Y-1060000D01*
X4865000Y-1045714D01*
X4936429Y-1045714D01*
X4965000Y-1060000D01*
X4979286Y-1074286D01*
X4993571Y-1102857D01*
X4993571Y-1131429D01*
X4979286Y-1174286D01*
X4807857Y-1345714D01*
X4993571Y-1345714D01*
X5350714Y-1345714D02*
X5350714Y-1045714D01*
X5479286Y-1345714D02*
X5479286Y-1188571D01*
X5465000Y-1160000D01*
X5436429Y-1145714D01*
X5393571Y-1145714D01*
X5365000Y-1160000D01*
X5350714Y-1174286D01*
X5665000Y-1345714D02*
X5636428Y-1331429D01*
X5622143Y-1317143D01*
X5607857Y-1288571D01*
X5607857Y-1202857D01*
X5622143Y-1174286D01*
X5636428Y-1160000D01*
X5665000Y-1145714D01*
X5707857Y-1145714D01*
X5736428Y-1160000D01*
X5750714Y-1174286D01*
X5765000Y-1202857D01*
X5765000Y-1288571D01*
X5750714Y-1317143D01*
X5736428Y-1331429D01*
X5707857Y-1345714D01*
X5665000Y-1345714D01*
X5936428Y-1345714D02*
X5907857Y-1331429D01*
X5893571Y-1302857D01*
X5893571Y-1045714D01*
X6165000Y-1331429D02*
X6136428Y-1345714D01*
X6079286Y-1345714D01*
X6050714Y-1331429D01*
X6036428Y-1302857D01*
X6036428Y-1188571D01*
X6050714Y-1160000D01*
X6079286Y-1145714D01*
X6136428Y-1145714D01*
X6165000Y-1160000D01*
X6179286Y-1188571D01*
X6179286Y-1217143D01*
X6036428Y-1245714D01*
X6293571Y-1331429D02*
X6322143Y-1345714D01*
X6379286Y-1345714D01*
X6407857Y-1331429D01*
X6422143Y-1302857D01*
X6422143Y-1288571D01*
X6407857Y-1260000D01*
X6379286Y-1245714D01*
X6336428Y-1245714D01*
X6307857Y-1231429D01*
X6293571Y-1202857D01*
X6293571Y-1188571D01*
X6307857Y-1160000D01*
X6336428Y-1145714D01*
X6379286Y-1145714D01*
X6407857Y-1160000D01*
X6522143Y-1460000D02*
X6536428Y-1445714D01*
X6565000Y-1402857D01*
X6579286Y-1374286D01*
X6593571Y-1331429D01*
X6607857Y-1260000D01*
X6607857Y-1202857D01*
X6593571Y-1131429D01*
X6579286Y-1088571D01*
X6565000Y-1060000D01*
X6536428Y-1017143D01*
X6522143Y-1002857D01*
X-250000Y-1606000D02*
G75*
G03X-250000Y-1606000I-37500J0D01*
G01*
X93571Y-1441714D02*
X122143Y-1441714D01*
X150714Y-1456000D01*
X165000Y-1470286D01*
X179286Y-1498857D01*
X193571Y-1556000D01*
X193571Y-1627428D01*
X179286Y-1684571D01*
X165000Y-1713143D01*
X150714Y-1727428D01*
X122143Y-1741714D01*
X93571Y-1741714D01*
X65000Y-1727428D01*
X50714Y-1713143D01*
X36429Y-1684571D01*
X22143Y-1627428D01*
X22143Y-1556000D01*
X36429Y-1498857D01*
X50714Y-1470286D01*
X65000Y-1456000D01*
X93571Y-1441714D01*
X322143Y-1713143D02*
X336429Y-1727428D01*
X322143Y-1741714D01*
X307857Y-1727428D01*
X322143Y-1713143D01*
X322143Y-1741714D01*
X436428Y-1441714D02*
X636429Y-1441714D01*
X507857Y-1741714D01*
X893571Y-1441714D02*
X750714Y-1441714D01*
X736428Y-1584571D01*
X750714Y-1570286D01*
X779286Y-1556000D01*
X850714Y-1556000D01*
X879286Y-1570286D01*
X893571Y-1584571D01*
X907857Y-1613143D01*
X907857Y-1684571D01*
X893571Y-1713143D01*
X879286Y-1727428D01*
X850714Y-1741714D01*
X779286Y-1741714D01*
X750714Y-1727428D01*
X736428Y-1713143D01*
X1036428Y-1741714D02*
X1036428Y-1541714D01*
X1036428Y-1570286D02*
X1050714Y-1556000D01*
X1079286Y-1541714D01*
X1122143Y-1541714D01*
X1150714Y-1556000D01*
X1165000Y-1584571D01*
X1165000Y-1741714D01*
X1165000Y-1584571D02*
X1179286Y-1556000D01*
X1207857Y-1541714D01*
X1250714Y-1541714D01*
X1279286Y-1556000D01*
X1293571Y-1584571D01*
X1293571Y-1741714D01*
X1436428Y-1741714D02*
X1436428Y-1541714D01*
X1436428Y-1570286D02*
X1450714Y-1556000D01*
X1479286Y-1541714D01*
X1522143Y-1541714D01*
X1550714Y-1556000D01*
X1565000Y-1584571D01*
X1565000Y-1741714D01*
X1565000Y-1584571D02*
X1579286Y-1556000D01*
X1607857Y-1541714D01*
X1650714Y-1541714D01*
X1679286Y-1556000D01*
X1693571Y-1584571D01*
X1693571Y-1741714D01*
X2279286Y-1427428D02*
X2022143Y-1813143D01*
X2665000Y-1441714D02*
X2693571Y-1441714D01*
X2722143Y-1456000D01*
X2736429Y-1470286D01*
X2750714Y-1498857D01*
X2765000Y-1556000D01*
X2765000Y-1627428D01*
X2750714Y-1684571D01*
X2736429Y-1713143D01*
X2722143Y-1727428D01*
X2693571Y-1741714D01*
X2665000Y-1741714D01*
X2636429Y-1727428D01*
X2622143Y-1713143D01*
X2607857Y-1684571D01*
X2593571Y-1627428D01*
X2593571Y-1556000D01*
X2607857Y-1498857D01*
X2622143Y-1470286D01*
X2636429Y-1456000D01*
X2665000Y-1441714D01*
X2893571Y-1713143D02*
X2907857Y-1727428D01*
X2893571Y-1741714D01*
X2879286Y-1727428D01*
X2893571Y-1713143D01*
X2893571Y-1741714D01*
X3093571Y-1441714D02*
X3122143Y-1441714D01*
X3150714Y-1456000D01*
X3165000Y-1470286D01*
X3179286Y-1498857D01*
X3193571Y-1556000D01*
X3193571Y-1627428D01*
X3179286Y-1684571D01*
X3165000Y-1713143D01*
X3150714Y-1727428D01*
X3122143Y-1741714D01*
X3093571Y-1741714D01*
X3065000Y-1727428D01*
X3050714Y-1713143D01*
X3036428Y-1684571D01*
X3022143Y-1627428D01*
X3022143Y-1556000D01*
X3036428Y-1498857D01*
X3050714Y-1470286D01*
X3065000Y-1456000D01*
X3093571Y-1441714D01*
X3293571Y-1441714D02*
X3479286Y-1441714D01*
X3379286Y-1556000D01*
X3422143Y-1556000D01*
X3450714Y-1570286D01*
X3465000Y-1584571D01*
X3479286Y-1613143D01*
X3479286Y-1684571D01*
X3465000Y-1713143D01*
X3450714Y-1727428D01*
X3422143Y-1741714D01*
X3336428Y-1741714D01*
X3307857Y-1727428D01*
X3293571Y-1713143D01*
X3665000Y-1441714D02*
X3693571Y-1441714D01*
X3722143Y-1456000D01*
X3736428Y-1470286D01*
X3750714Y-1498857D01*
X3765000Y-1556000D01*
X3765000Y-1627428D01*
X3750714Y-1684571D01*
X3736428Y-1713143D01*
X3722143Y-1727428D01*
X3693571Y-1741714D01*
X3665000Y-1741714D01*
X3636428Y-1727428D01*
X3622143Y-1713143D01*
X3607857Y-1684571D01*
X3593571Y-1627428D01*
X3593571Y-1556000D01*
X3607857Y-1498857D01*
X3622143Y-1470286D01*
X3636428Y-1456000D01*
X3665000Y-1441714D01*
X3879286Y-1441714D02*
X3879286Y-1498857D01*
X3993571Y-1441714D02*
X3993571Y-1498857D01*
X4436429Y-1856000D02*
X4422143Y-1841714D01*
X4393571Y-1798857D01*
X4379286Y-1770286D01*
X4365000Y-1727428D01*
X4350714Y-1656000D01*
X4350714Y-1598857D01*
X4365000Y-1527428D01*
X4379286Y-1484571D01*
X4393571Y-1456000D01*
X4422143Y-1413143D01*
X4436429Y-1398857D01*
X4593571Y-1570286D02*
X4565000Y-1556000D01*
X4550714Y-1541714D01*
X4536429Y-1513143D01*
X4536429Y-1498857D01*
X4550714Y-1470286D01*
X4565000Y-1456000D01*
X4593571Y-1441714D01*
X4650714Y-1441714D01*
X4679286Y-1456000D01*
X4693571Y-1470286D01*
X4707857Y-1498857D01*
X4707857Y-1513143D01*
X4693571Y-1541714D01*
X4679286Y-1556000D01*
X4650714Y-1570286D01*
X4593571Y-1570286D01*
X4565000Y-1584571D01*
X4550714Y-1598857D01*
X4536429Y-1627428D01*
X4536429Y-1684571D01*
X4550714Y-1713143D01*
X4565000Y-1727428D01*
X4593571Y-1741714D01*
X4650714Y-1741714D01*
X4679286Y-1727428D01*
X4693571Y-1713143D01*
X4707857Y-1684571D01*
X4707857Y-1627428D01*
X4693571Y-1598857D01*
X4679286Y-1584571D01*
X4650714Y-1570286D01*
X5065000Y-1741714D02*
X5065000Y-1441714D01*
X5193571Y-1741714D02*
X5193571Y-1584571D01*
X5179286Y-1556000D01*
X5150714Y-1541714D01*
X5107857Y-1541714D01*
X5079286Y-1556000D01*
X5065000Y-1570286D01*
X5379286Y-1741714D02*
X5350714Y-1727428D01*
X5336429Y-1713143D01*
X5322143Y-1684571D01*
X5322143Y-1598857D01*
X5336429Y-1570286D01*
X5350714Y-1556000D01*
X5379286Y-1541714D01*
X5422143Y-1541714D01*
X5450714Y-1556000D01*
X5465000Y-1570286D01*
X5479286Y-1598857D01*
X5479286Y-1684571D01*
X5465000Y-1713143D01*
X5450714Y-1727428D01*
X5422143Y-1741714D01*
X5379286Y-1741714D01*
X5650714Y-1741714D02*
X5622143Y-1727428D01*
X5607857Y-1698857D01*
X5607857Y-1441714D01*
X5879286Y-1727428D02*
X5850714Y-1741714D01*
X5793571Y-1741714D01*
X5765000Y-1727428D01*
X5750714Y-1698857D01*
X5750714Y-1584571D01*
X5765000Y-1556000D01*
X5793571Y-1541714D01*
X5850714Y-1541714D01*
X5879286Y-1556000D01*
X5893571Y-1584571D01*
X5893571Y-1613143D01*
X5750714Y-1641714D01*
X6007857Y-1727428D02*
X6036428Y-1741714D01*
X6093571Y-1741714D01*
X6122143Y-1727428D01*
X6136428Y-1698857D01*
X6136428Y-1684571D01*
X6122143Y-1656000D01*
X6093571Y-1641714D01*
X6050714Y-1641714D01*
X6022143Y-1627428D01*
X6007857Y-1598857D01*
X6007857Y-1584571D01*
X6022143Y-1556000D01*
X6050714Y-1541714D01*
X6093571Y-1541714D01*
X6122143Y-1556000D01*
X6236428Y-1856000D02*
X6250714Y-1841714D01*
X6279286Y-1798857D01*
X6293571Y-1770286D01*
X6307857Y-1727428D01*
X6322143Y-1656000D01*
X6322143Y-1598857D01*
X6307857Y-1527428D01*
X6293571Y-1484571D01*
X6279286Y-1456000D01*
X6250714Y-1413143D01*
X6236428Y-1398857D01*
X-290000Y-1962000D02*
X-290000Y-2042000D01*
X-330000Y-2002000D02*
X-250000Y-2002000D01*
X93571Y-1837714D02*
X122143Y-1837714D01*
X150714Y-1852000D01*
X165000Y-1866286D01*
X179286Y-1894857D01*
X193571Y-1952000D01*
X193571Y-2023428D01*
X179286Y-2080571D01*
X165000Y-2109143D01*
X150714Y-2123429D01*
X122143Y-2137714D01*
X93571Y-2137714D01*
X65000Y-2123429D01*
X50714Y-2109143D01*
X36429Y-2080571D01*
X22143Y-2023428D01*
X22143Y-1952000D01*
X36429Y-1894857D01*
X50714Y-1866286D01*
X65000Y-1852000D01*
X93571Y-1837714D01*
X322143Y-2109143D02*
X336429Y-2123429D01*
X322143Y-2137714D01*
X307857Y-2123429D01*
X322143Y-2109143D01*
X322143Y-2137714D01*
X507857Y-1966286D02*
X479286Y-1952000D01*
X465000Y-1937714D01*
X450714Y-1909143D01*
X450714Y-1894857D01*
X465000Y-1866286D01*
X479286Y-1852000D01*
X507857Y-1837714D01*
X565000Y-1837714D01*
X593571Y-1852000D01*
X607857Y-1866286D01*
X622143Y-1894857D01*
X622143Y-1909143D01*
X607857Y-1937714D01*
X593571Y-1952000D01*
X565000Y-1966286D01*
X507857Y-1966286D01*
X479286Y-1980571D01*
X465000Y-1994857D01*
X450714Y-2023428D01*
X450714Y-2080571D01*
X465000Y-2109143D01*
X479286Y-2123429D01*
X507857Y-2137714D01*
X565000Y-2137714D01*
X593571Y-2123429D01*
X607857Y-2109143D01*
X622143Y-2080571D01*
X622143Y-2023428D01*
X607857Y-1994857D01*
X593571Y-1980571D01*
X565000Y-1966286D01*
X807857Y-1837714D02*
X836428Y-1837714D01*
X865000Y-1852000D01*
X879286Y-1866286D01*
X893571Y-1894857D01*
X907857Y-1952000D01*
X907857Y-2023428D01*
X893571Y-2080571D01*
X879286Y-2109143D01*
X865000Y-2123429D01*
X836428Y-2137714D01*
X807857Y-2137714D01*
X779286Y-2123429D01*
X765000Y-2109143D01*
X750714Y-2080571D01*
X736428Y-2023428D01*
X736428Y-1952000D01*
X750714Y-1894857D01*
X765000Y-1866286D01*
X779286Y-1852000D01*
X807857Y-1837714D01*
X1036428Y-2137714D02*
X1036428Y-1937714D01*
X1036428Y-1966286D02*
X1050714Y-1952000D01*
X1079286Y-1937714D01*
X1122143Y-1937714D01*
X1150714Y-1952000D01*
X1165000Y-1980571D01*
X1165000Y-2137714D01*
X1165000Y-1980571D02*
X1179286Y-1952000D01*
X1207857Y-1937714D01*
X1250714Y-1937714D01*
X1279286Y-1952000D01*
X1293571Y-1980571D01*
X1293571Y-2137714D01*
X1436428Y-2137714D02*
X1436428Y-1937714D01*
X1436428Y-1966286D02*
X1450714Y-1952000D01*
X1479286Y-1937714D01*
X1522143Y-1937714D01*
X1550714Y-1952000D01*
X1565000Y-1980571D01*
X1565000Y-2137714D01*
X1565000Y-1980571D02*
X1579286Y-1952000D01*
X1607857Y-1937714D01*
X1650714Y-1937714D01*
X1679286Y-1952000D01*
X1693571Y-1980571D01*
X1693571Y-2137714D01*
X2279286Y-1823428D02*
X2022143Y-2209143D01*
X2665000Y-1837714D02*
X2693571Y-1837714D01*
X2722143Y-1852000D01*
X2736429Y-1866286D01*
X2750714Y-1894857D01*
X2765000Y-1952000D01*
X2765000Y-2023428D01*
X2750714Y-2080571D01*
X2736429Y-2109143D01*
X2722143Y-2123429D01*
X2693571Y-2137714D01*
X2665000Y-2137714D01*
X2636429Y-2123429D01*
X2622143Y-2109143D01*
X2607857Y-2080571D01*
X2593571Y-2023428D01*
X2593571Y-1952000D01*
X2607857Y-1894857D01*
X2622143Y-1866286D01*
X2636429Y-1852000D01*
X2665000Y-1837714D01*
X2893571Y-2109143D02*
X2907857Y-2123429D01*
X2893571Y-2137714D01*
X2879286Y-2123429D01*
X2893571Y-2109143D01*
X2893571Y-2137714D01*
X3093571Y-1837714D02*
X3122143Y-1837714D01*
X3150714Y-1852000D01*
X3165000Y-1866286D01*
X3179286Y-1894857D01*
X3193571Y-1952000D01*
X3193571Y-2023428D01*
X3179286Y-2080571D01*
X3165000Y-2109143D01*
X3150714Y-2123429D01*
X3122143Y-2137714D01*
X3093571Y-2137714D01*
X3065000Y-2123429D01*
X3050714Y-2109143D01*
X3036428Y-2080571D01*
X3022143Y-2023428D01*
X3022143Y-1952000D01*
X3036428Y-1894857D01*
X3050714Y-1866286D01*
X3065000Y-1852000D01*
X3093571Y-1837714D01*
X3293571Y-1837714D02*
X3479286Y-1837714D01*
X3379286Y-1952000D01*
X3422143Y-1952000D01*
X3450714Y-1966286D01*
X3465000Y-1980571D01*
X3479286Y-2009143D01*
X3479286Y-2080571D01*
X3465000Y-2109143D01*
X3450714Y-2123429D01*
X3422143Y-2137714D01*
X3336428Y-2137714D01*
X3307857Y-2123429D01*
X3293571Y-2109143D01*
X3765000Y-2137714D02*
X3593571Y-2137714D01*
X3679286Y-2137714D02*
X3679286Y-1837714D01*
X3650714Y-1880571D01*
X3622143Y-1909143D01*
X3593571Y-1923428D01*
X3879286Y-1837714D02*
X3879286Y-1894857D01*
X3993571Y-1837714D02*
X3993571Y-1894857D01*
X4436429Y-2252000D02*
X4422143Y-2237714D01*
X4393571Y-2194857D01*
X4379286Y-2166286D01*
X4365000Y-2123429D01*
X4350714Y-2052000D01*
X4350714Y-1994857D01*
X4365000Y-1923428D01*
X4379286Y-1880571D01*
X4393571Y-1852000D01*
X4422143Y-1809143D01*
X4436429Y-1794857D01*
X4536429Y-1866286D02*
X4550714Y-1852000D01*
X4579286Y-1837714D01*
X4650714Y-1837714D01*
X4679286Y-1852000D01*
X4693571Y-1866286D01*
X4707857Y-1894857D01*
X4707857Y-1923428D01*
X4693571Y-1966286D01*
X4522143Y-2137714D01*
X4707857Y-2137714D01*
X5065000Y-2137714D02*
X5065000Y-1837714D01*
X5193571Y-2137714D02*
X5193571Y-1980571D01*
X5179286Y-1952000D01*
X5150714Y-1937714D01*
X5107857Y-1937714D01*
X5079286Y-1952000D01*
X5065000Y-1966286D01*
X5379286Y-2137714D02*
X5350714Y-2123429D01*
X5336429Y-2109143D01*
X5322143Y-2080571D01*
X5322143Y-1994857D01*
X5336429Y-1966286D01*
X5350714Y-1952000D01*
X5379286Y-1937714D01*
X5422143Y-1937714D01*
X5450714Y-1952000D01*
X5465000Y-1966286D01*
X5479286Y-1994857D01*
X5479286Y-2080571D01*
X5465000Y-2109143D01*
X5450714Y-2123429D01*
X5422143Y-2137714D01*
X5379286Y-2137714D01*
X5650714Y-2137714D02*
X5622143Y-2123429D01*
X5607857Y-2094857D01*
X5607857Y-1837714D01*
X5879286Y-2123429D02*
X5850714Y-2137714D01*
X5793571Y-2137714D01*
X5765000Y-2123429D01*
X5750714Y-2094857D01*
X5750714Y-1980571D01*
X5765000Y-1952000D01*
X5793571Y-1937714D01*
X5850714Y-1937714D01*
X5879286Y-1952000D01*
X5893571Y-1980571D01*
X5893571Y-2009143D01*
X5750714Y-2037714D01*
X6007857Y-2123429D02*
X6036428Y-2137714D01*
X6093571Y-2137714D01*
X6122143Y-2123429D01*
X6136428Y-2094857D01*
X6136428Y-2080571D01*
X6122143Y-2052000D01*
X6093571Y-2037714D01*
X6050714Y-2037714D01*
X6022143Y-2023428D01*
X6007857Y-1994857D01*
X6007857Y-1980571D01*
X6022143Y-1952000D01*
X6050714Y-1937714D01*
X6093571Y-1937714D01*
X6122143Y-1952000D01*
X6236428Y-2252000D02*
X6250714Y-2237714D01*
X6279286Y-2194857D01*
X6293571Y-2166286D01*
X6307857Y-2123429D01*
X6322143Y-2052000D01*
X6322143Y-1994857D01*
X6307857Y-1923428D01*
X6293571Y-1880571D01*
X6279286Y-1852000D01*
X6250714Y-1809143D01*
X6236428Y-1794857D01*
X-264644Y-2433356D02*
X-264644Y-2362644D01*
X-335356Y-2362644D01*
X-335356Y-2433356D01*
X-264644Y-2433356D01*
X193571Y-2533714D02*
X22143Y-2533714D01*
X107857Y-2533714D02*
X107857Y-2233714D01*
X79286Y-2276571D01*
X50714Y-2305143D01*
X22143Y-2319429D01*
X322143Y-2505143D02*
X336429Y-2519429D01*
X322143Y-2533714D01*
X307857Y-2519429D01*
X322143Y-2505143D01*
X322143Y-2533714D01*
X522143Y-2233714D02*
X550714Y-2233714D01*
X579286Y-2248000D01*
X593571Y-2262286D01*
X607857Y-2290857D01*
X622143Y-2348000D01*
X622143Y-2419429D01*
X607857Y-2476571D01*
X593571Y-2505143D01*
X579286Y-2519429D01*
X550714Y-2533714D01*
X522143Y-2533714D01*
X493571Y-2519429D01*
X479286Y-2505143D01*
X465000Y-2476571D01*
X450714Y-2419429D01*
X450714Y-2348000D01*
X465000Y-2290857D01*
X479286Y-2262286D01*
X493571Y-2248000D01*
X522143Y-2233714D01*
X807857Y-2233714D02*
X836428Y-2233714D01*
X865000Y-2248000D01*
X879286Y-2262286D01*
X893571Y-2290857D01*
X907857Y-2348000D01*
X907857Y-2419429D01*
X893571Y-2476571D01*
X879286Y-2505143D01*
X865000Y-2519429D01*
X836428Y-2533714D01*
X807857Y-2533714D01*
X779286Y-2519429D01*
X765000Y-2505143D01*
X750714Y-2476571D01*
X736428Y-2419429D01*
X736428Y-2348000D01*
X750714Y-2290857D01*
X765000Y-2262286D01*
X779286Y-2248000D01*
X807857Y-2233714D01*
X1036428Y-2533714D02*
X1036428Y-2333714D01*
X1036428Y-2362286D02*
X1050714Y-2348000D01*
X1079286Y-2333714D01*
X1122143Y-2333714D01*
X1150714Y-2348000D01*
X1165000Y-2376571D01*
X1165000Y-2533714D01*
X1165000Y-2376571D02*
X1179286Y-2348000D01*
X1207857Y-2333714D01*
X1250714Y-2333714D01*
X1279286Y-2348000D01*
X1293571Y-2376571D01*
X1293571Y-2533714D01*
X1436428Y-2533714D02*
X1436428Y-2333714D01*
X1436428Y-2362286D02*
X1450714Y-2348000D01*
X1479286Y-2333714D01*
X1522143Y-2333714D01*
X1550714Y-2348000D01*
X1565000Y-2376571D01*
X1565000Y-2533714D01*
X1565000Y-2376571D02*
X1579286Y-2348000D01*
X1607857Y-2333714D01*
X1650714Y-2333714D01*
X1679286Y-2348000D01*
X1693571Y-2376571D01*
X1693571Y-2533714D01*
X2279286Y-2219429D02*
X2022143Y-2605143D01*
X2665000Y-2233714D02*
X2693571Y-2233714D01*
X2722143Y-2248000D01*
X2736429Y-2262286D01*
X2750714Y-2290857D01*
X2765000Y-2348000D01*
X2765000Y-2419429D01*
X2750714Y-2476571D01*
X2736429Y-2505143D01*
X2722143Y-2519429D01*
X2693571Y-2533714D01*
X2665000Y-2533714D01*
X2636429Y-2519429D01*
X2622143Y-2505143D01*
X2607857Y-2476571D01*
X2593571Y-2419429D01*
X2593571Y-2348000D01*
X2607857Y-2290857D01*
X2622143Y-2262286D01*
X2636429Y-2248000D01*
X2665000Y-2233714D01*
X2893571Y-2505143D02*
X2907857Y-2519429D01*
X2893571Y-2533714D01*
X2879286Y-2519429D01*
X2893571Y-2505143D01*
X2893571Y-2533714D01*
X3093571Y-2233714D02*
X3122143Y-2233714D01*
X3150714Y-2248000D01*
X3165000Y-2262286D01*
X3179286Y-2290857D01*
X3193571Y-2348000D01*
X3193571Y-2419429D01*
X3179286Y-2476571D01*
X3165000Y-2505143D01*
X3150714Y-2519429D01*
X3122143Y-2533714D01*
X3093571Y-2533714D01*
X3065000Y-2519429D01*
X3050714Y-2505143D01*
X3036428Y-2476571D01*
X3022143Y-2419429D01*
X3022143Y-2348000D01*
X3036428Y-2290857D01*
X3050714Y-2262286D01*
X3065000Y-2248000D01*
X3093571Y-2233714D01*
X3293571Y-2233714D02*
X3479286Y-2233714D01*
X3379286Y-2348000D01*
X3422143Y-2348000D01*
X3450714Y-2362286D01*
X3465000Y-2376571D01*
X3479286Y-2405143D01*
X3479286Y-2476571D01*
X3465000Y-2505143D01*
X3450714Y-2519429D01*
X3422143Y-2533714D01*
X3336428Y-2533714D01*
X3307857Y-2519429D01*
X3293571Y-2505143D01*
X3622143Y-2533714D02*
X3679286Y-2533714D01*
X3707857Y-2519429D01*
X3722143Y-2505143D01*
X3750714Y-2462286D01*
X3765000Y-2405143D01*
X3765000Y-2290857D01*
X3750714Y-2262286D01*
X3736428Y-2248000D01*
X3707857Y-2233714D01*
X3650714Y-2233714D01*
X3622143Y-2248000D01*
X3607857Y-2262286D01*
X3593571Y-2290857D01*
X3593571Y-2362286D01*
X3607857Y-2390857D01*
X3622143Y-2405143D01*
X3650714Y-2419429D01*
X3707857Y-2419429D01*
X3736428Y-2405143D01*
X3750714Y-2390857D01*
X3765000Y-2362286D01*
X3879286Y-2233714D02*
X3879286Y-2290857D01*
X3993571Y-2233714D02*
X3993571Y-2290857D01*
X4436429Y-2648000D02*
X4422143Y-2633714D01*
X4393571Y-2590857D01*
X4379286Y-2562286D01*
X4365000Y-2519429D01*
X4350714Y-2448000D01*
X4350714Y-2390857D01*
X4365000Y-2319429D01*
X4379286Y-2276571D01*
X4393571Y-2248000D01*
X4422143Y-2205143D01*
X4436429Y-2190857D01*
X4522143Y-2233714D02*
X4707857Y-2233714D01*
X4607857Y-2348000D01*
X4650714Y-2348000D01*
X4679286Y-2362286D01*
X4693571Y-2376571D01*
X4707857Y-2405143D01*
X4707857Y-2476571D01*
X4693571Y-2505143D01*
X4679286Y-2519429D01*
X4650714Y-2533714D01*
X4565000Y-2533714D01*
X4536429Y-2519429D01*
X4522143Y-2505143D01*
X5065000Y-2533714D02*
X5065000Y-2233714D01*
X5193571Y-2533714D02*
X5193571Y-2376571D01*
X5179286Y-2348000D01*
X5150714Y-2333714D01*
X5107857Y-2333714D01*
X5079286Y-2348000D01*
X5065000Y-2362286D01*
X5379286Y-2533714D02*
X5350714Y-2519429D01*
X5336429Y-2505143D01*
X5322143Y-2476571D01*
X5322143Y-2390857D01*
X5336429Y-2362286D01*
X5350714Y-2348000D01*
X5379286Y-2333714D01*
X5422143Y-2333714D01*
X5450714Y-2348000D01*
X5465000Y-2362286D01*
X5479286Y-2390857D01*
X5479286Y-2476571D01*
X5465000Y-2505143D01*
X5450714Y-2519429D01*
X5422143Y-2533714D01*
X5379286Y-2533714D01*
X5650714Y-2533714D02*
X5622143Y-2519429D01*
X5607857Y-2490857D01*
X5607857Y-2233714D01*
X5879286Y-2519429D02*
X5850714Y-2533714D01*
X5793571Y-2533714D01*
X5765000Y-2519429D01*
X5750714Y-2490857D01*
X5750714Y-2376571D01*
X5765000Y-2348000D01*
X5793571Y-2333714D01*
X5850714Y-2333714D01*
X5879286Y-2348000D01*
X5893571Y-2376571D01*
X5893571Y-2405143D01*
X5750714Y-2433714D01*
X6007857Y-2519429D02*
X6036428Y-2533714D01*
X6093571Y-2533714D01*
X6122143Y-2519429D01*
X6136428Y-2490857D01*
X6136428Y-2476571D01*
X6122143Y-2448000D01*
X6093571Y-2433714D01*
X6050714Y-2433714D01*
X6022143Y-2419429D01*
X6007857Y-2390857D01*
X6007857Y-2376571D01*
X6022143Y-2348000D01*
X6050714Y-2333714D01*
X6093571Y-2333714D01*
X6122143Y-2348000D01*
X6236428Y-2648000D02*
X6250714Y-2633714D01*
X6279286Y-2590857D01*
X6293571Y-2562286D01*
X6307857Y-2519429D01*
X6322143Y-2448000D01*
X6322143Y-2390857D01*
X6307857Y-2319429D01*
X6293571Y-2276571D01*
X6279286Y-2248000D01*
X6250714Y-2205143D01*
X6236428Y-2190857D01*
X-304500Y-2848500D02*
X-250000Y-2794000D01*
X-304500Y-2739500D01*
X-359000Y-2794000D01*
X-304500Y-2848500D01*
X193571Y-2929714D02*
X22143Y-2929714D01*
X107857Y-2929714D02*
X107857Y-2629714D01*
X79286Y-2672571D01*
X50714Y-2701143D01*
X22143Y-2715429D01*
X322143Y-2901143D02*
X336429Y-2915428D01*
X322143Y-2929714D01*
X307857Y-2915428D01*
X322143Y-2901143D01*
X322143Y-2929714D01*
X522143Y-2629714D02*
X550714Y-2629714D01*
X579286Y-2644000D01*
X593571Y-2658286D01*
X607857Y-2686857D01*
X622143Y-2744000D01*
X622143Y-2815428D01*
X607857Y-2872571D01*
X593571Y-2901143D01*
X579286Y-2915428D01*
X550714Y-2929714D01*
X522143Y-2929714D01*
X493571Y-2915428D01*
X479286Y-2901143D01*
X465000Y-2872571D01*
X450714Y-2815428D01*
X450714Y-2744000D01*
X465000Y-2686857D01*
X479286Y-2658286D01*
X493571Y-2644000D01*
X522143Y-2629714D01*
X765000Y-2929714D02*
X822143Y-2929714D01*
X850714Y-2915428D01*
X865000Y-2901143D01*
X893571Y-2858286D01*
X907857Y-2801143D01*
X907857Y-2686857D01*
X893571Y-2658286D01*
X879286Y-2644000D01*
X850714Y-2629714D01*
X793571Y-2629714D01*
X765000Y-2644000D01*
X750714Y-2658286D01*
X736428Y-2686857D01*
X736428Y-2758286D01*
X750714Y-2786857D01*
X765000Y-2801143D01*
X793571Y-2815428D01*
X850714Y-2815428D01*
X879286Y-2801143D01*
X893571Y-2786857D01*
X907857Y-2758286D01*
X1036428Y-2929714D02*
X1036428Y-2729714D01*
X1036428Y-2758286D02*
X1050714Y-2744000D01*
X1079286Y-2729714D01*
X1122143Y-2729714D01*
X1150714Y-2744000D01*
X1165000Y-2772571D01*
X1165000Y-2929714D01*
X1165000Y-2772571D02*
X1179286Y-2744000D01*
X1207857Y-2729714D01*
X1250714Y-2729714D01*
X1279286Y-2744000D01*
X1293571Y-2772571D01*
X1293571Y-2929714D01*
X1436428Y-2929714D02*
X1436428Y-2729714D01*
X1436428Y-2758286D02*
X1450714Y-2744000D01*
X1479286Y-2729714D01*
X1522143Y-2729714D01*
X1550714Y-2744000D01*
X1565000Y-2772571D01*
X1565000Y-2929714D01*
X1565000Y-2772571D02*
X1579286Y-2744000D01*
X1607857Y-2729714D01*
X1650714Y-2729714D01*
X1679286Y-2744000D01*
X1693571Y-2772571D01*
X1693571Y-2929714D01*
X2279286Y-2615429D02*
X2022143Y-3001143D01*
X2665000Y-2629714D02*
X2693571Y-2629714D01*
X2722143Y-2644000D01*
X2736429Y-2658286D01*
X2750714Y-2686857D01*
X2765000Y-2744000D01*
X2765000Y-2815428D01*
X2750714Y-2872571D01*
X2736429Y-2901143D01*
X2722143Y-2915428D01*
X2693571Y-2929714D01*
X2665000Y-2929714D01*
X2636429Y-2915428D01*
X2622143Y-2901143D01*
X2607857Y-2872571D01*
X2593571Y-2815428D01*
X2593571Y-2744000D01*
X2607857Y-2686857D01*
X2622143Y-2658286D01*
X2636429Y-2644000D01*
X2665000Y-2629714D01*
X2893571Y-2901143D02*
X2907857Y-2915428D01*
X2893571Y-2929714D01*
X2879286Y-2915428D01*
X2893571Y-2901143D01*
X2893571Y-2929714D01*
X3093571Y-2629714D02*
X3122143Y-2629714D01*
X3150714Y-2644000D01*
X3165000Y-2658286D01*
X3179286Y-2686857D01*
X3193571Y-2744000D01*
X3193571Y-2815428D01*
X3179286Y-2872571D01*
X3165000Y-2901143D01*
X3150714Y-2915428D01*
X3122143Y-2929714D01*
X3093571Y-2929714D01*
X3065000Y-2915428D01*
X3050714Y-2901143D01*
X3036428Y-2872571D01*
X3022143Y-2815428D01*
X3022143Y-2744000D01*
X3036428Y-2686857D01*
X3050714Y-2658286D01*
X3065000Y-2644000D01*
X3093571Y-2629714D01*
X3450714Y-2729714D02*
X3450714Y-2929714D01*
X3379286Y-2615429D02*
X3307857Y-2829714D01*
X3493571Y-2829714D01*
X3579286Y-2629714D02*
X3765000Y-2629714D01*
X3665000Y-2744000D01*
X3707857Y-2744000D01*
X3736428Y-2758286D01*
X3750714Y-2772571D01*
X3765000Y-2801143D01*
X3765000Y-2872571D01*
X3750714Y-2901143D01*
X3736428Y-2915428D01*
X3707857Y-2929714D01*
X3622143Y-2929714D01*
X3593571Y-2915428D01*
X3579286Y-2901143D01*
X3879286Y-2629714D02*
X3879286Y-2686857D01*
X3993571Y-2629714D02*
X3993571Y-2686857D01*
X4436429Y-3044000D02*
X4422143Y-3029714D01*
X4393571Y-2986857D01*
X4379286Y-2958286D01*
X4365000Y-2915428D01*
X4350714Y-2844000D01*
X4350714Y-2786857D01*
X4365000Y-2715429D01*
X4379286Y-2672571D01*
X4393571Y-2644000D01*
X4422143Y-2601143D01*
X4436429Y-2586857D01*
X4536429Y-2658286D02*
X4550714Y-2644000D01*
X4579286Y-2629714D01*
X4650714Y-2629714D01*
X4679286Y-2644000D01*
X4693571Y-2658286D01*
X4707857Y-2686857D01*
X4707857Y-2715429D01*
X4693571Y-2758286D01*
X4522143Y-2929714D01*
X4707857Y-2929714D01*
X5065000Y-2929714D02*
X5065000Y-2629714D01*
X5193571Y-2929714D02*
X5193571Y-2772571D01*
X5179286Y-2744000D01*
X5150714Y-2729714D01*
X5107857Y-2729714D01*
X5079286Y-2744000D01*
X5065000Y-2758286D01*
X5379286Y-2929714D02*
X5350714Y-2915428D01*
X5336429Y-2901143D01*
X5322143Y-2872571D01*
X5322143Y-2786857D01*
X5336429Y-2758286D01*
X5350714Y-2744000D01*
X5379286Y-2729714D01*
X5422143Y-2729714D01*
X5450714Y-2744000D01*
X5465000Y-2758286D01*
X5479286Y-2786857D01*
X5479286Y-2872571D01*
X5465000Y-2901143D01*
X5450714Y-2915428D01*
X5422143Y-2929714D01*
X5379286Y-2929714D01*
X5650714Y-2929714D02*
X5622143Y-2915428D01*
X5607857Y-2886857D01*
X5607857Y-2629714D01*
X5879286Y-2915428D02*
X5850714Y-2929714D01*
X5793571Y-2929714D01*
X5765000Y-2915428D01*
X5750714Y-2886857D01*
X5750714Y-2772571D01*
X5765000Y-2744000D01*
X5793571Y-2729714D01*
X5850714Y-2729714D01*
X5879286Y-2744000D01*
X5893571Y-2772571D01*
X5893571Y-2801143D01*
X5750714Y-2829714D01*
X6007857Y-2915428D02*
X6036428Y-2929714D01*
X6093571Y-2929714D01*
X6122143Y-2915428D01*
X6136428Y-2886857D01*
X6136428Y-2872571D01*
X6122143Y-2844000D01*
X6093571Y-2829714D01*
X6050714Y-2829714D01*
X6022143Y-2815428D01*
X6007857Y-2786857D01*
X6007857Y-2772571D01*
X6022143Y-2744000D01*
X6050714Y-2729714D01*
X6093571Y-2729714D01*
X6122143Y-2744000D01*
X6236428Y-3044000D02*
X6250714Y-3029714D01*
X6279286Y-2986857D01*
X6293571Y-2958286D01*
X6307857Y-2915428D01*
X6322143Y-2844000D01*
X6322143Y-2786857D01*
X6307857Y-2715429D01*
X6293571Y-2672571D01*
X6279286Y-2644000D01*
X6250714Y-2601143D01*
X6236428Y-2586857D01*
X-370000Y-3130000D02*
X-250000Y-3250000D01*
X-250000Y-3130000D02*
X-370000Y-3250000D01*
X-250000Y-3190000D02*
G75*
G03X-250000Y-3190000I-60000J0D01*
G01*
X193571Y-3325714D02*
X22143Y-3325714D01*
X107857Y-3325714D02*
X107857Y-3025714D01*
X79286Y-3068571D01*
X50714Y-3097143D01*
X22143Y-3111428D01*
X322143Y-3297143D02*
X336429Y-3311428D01*
X322143Y-3325714D01*
X307857Y-3311428D01*
X322143Y-3297143D01*
X322143Y-3325714D01*
X450714Y-3054286D02*
X465000Y-3040000D01*
X493571Y-3025714D01*
X565000Y-3025714D01*
X593571Y-3040000D01*
X607857Y-3054286D01*
X622143Y-3082857D01*
X622143Y-3111428D01*
X607857Y-3154286D01*
X436428Y-3325714D01*
X622143Y-3325714D01*
X807857Y-3025714D02*
X836428Y-3025714D01*
X865000Y-3040000D01*
X879286Y-3054286D01*
X893571Y-3082857D01*
X907857Y-3140000D01*
X907857Y-3211428D01*
X893571Y-3268571D01*
X879286Y-3297143D01*
X865000Y-3311428D01*
X836428Y-3325714D01*
X807857Y-3325714D01*
X779286Y-3311428D01*
X765000Y-3297143D01*
X750714Y-3268571D01*
X736428Y-3211428D01*
X736428Y-3140000D01*
X750714Y-3082857D01*
X765000Y-3054286D01*
X779286Y-3040000D01*
X807857Y-3025714D01*
X1036428Y-3325714D02*
X1036428Y-3125714D01*
X1036428Y-3154286D02*
X1050714Y-3140000D01*
X1079286Y-3125714D01*
X1122143Y-3125714D01*
X1150714Y-3140000D01*
X1165000Y-3168571D01*
X1165000Y-3325714D01*
X1165000Y-3168571D02*
X1179286Y-3140000D01*
X1207857Y-3125714D01*
X1250714Y-3125714D01*
X1279286Y-3140000D01*
X1293571Y-3168571D01*
X1293571Y-3325714D01*
X1436428Y-3325714D02*
X1436428Y-3125714D01*
X1436428Y-3154286D02*
X1450714Y-3140000D01*
X1479286Y-3125714D01*
X1522143Y-3125714D01*
X1550714Y-3140000D01*
X1565000Y-3168571D01*
X1565000Y-3325714D01*
X1565000Y-3168571D02*
X1579286Y-3140000D01*
X1607857Y-3125714D01*
X1650714Y-3125714D01*
X1679286Y-3140000D01*
X1693571Y-3168571D01*
X1693571Y-3325714D01*
X2279286Y-3011428D02*
X2022143Y-3397143D01*
X2665000Y-3025714D02*
X2693571Y-3025714D01*
X2722143Y-3040000D01*
X2736429Y-3054286D01*
X2750714Y-3082857D01*
X2765000Y-3140000D01*
X2765000Y-3211428D01*
X2750714Y-3268571D01*
X2736429Y-3297143D01*
X2722143Y-3311428D01*
X2693571Y-3325714D01*
X2665000Y-3325714D01*
X2636429Y-3311428D01*
X2622143Y-3297143D01*
X2607857Y-3268571D01*
X2593571Y-3211428D01*
X2593571Y-3140000D01*
X2607857Y-3082857D01*
X2622143Y-3054286D01*
X2636429Y-3040000D01*
X2665000Y-3025714D01*
X2893571Y-3297143D02*
X2907857Y-3311428D01*
X2893571Y-3325714D01*
X2879286Y-3311428D01*
X2893571Y-3297143D01*
X2893571Y-3325714D01*
X3093571Y-3025714D02*
X3122143Y-3025714D01*
X3150714Y-3040000D01*
X3165000Y-3054286D01*
X3179286Y-3082857D01*
X3193571Y-3140000D01*
X3193571Y-3211428D01*
X3179286Y-3268571D01*
X3165000Y-3297143D01*
X3150714Y-3311428D01*
X3122143Y-3325714D01*
X3093571Y-3325714D01*
X3065000Y-3311428D01*
X3050714Y-3297143D01*
X3036428Y-3268571D01*
X3022143Y-3211428D01*
X3022143Y-3140000D01*
X3036428Y-3082857D01*
X3050714Y-3054286D01*
X3065000Y-3040000D01*
X3093571Y-3025714D01*
X3450714Y-3125714D02*
X3450714Y-3325714D01*
X3379286Y-3011428D02*
X3307857Y-3225714D01*
X3493571Y-3225714D01*
X3579286Y-3025714D02*
X3779286Y-3025714D01*
X3650714Y-3325714D01*
X3879286Y-3025714D02*
X3879286Y-3082857D01*
X3993571Y-3025714D02*
X3993571Y-3082857D01*
X4436429Y-3440000D02*
X4422143Y-3425714D01*
X4393571Y-3382857D01*
X4379286Y-3354286D01*
X4365000Y-3311428D01*
X4350714Y-3240000D01*
X4350714Y-3182857D01*
X4365000Y-3111428D01*
X4379286Y-3068571D01*
X4393571Y-3040000D01*
X4422143Y-2997143D01*
X4436429Y-2982857D01*
X4679286Y-3025714D02*
X4622143Y-3025714D01*
X4593571Y-3040000D01*
X4579286Y-3054286D01*
X4550714Y-3097143D01*
X4536429Y-3154286D01*
X4536429Y-3268571D01*
X4550714Y-3297143D01*
X4565000Y-3311428D01*
X4593571Y-3325714D01*
X4650714Y-3325714D01*
X4679286Y-3311428D01*
X4693571Y-3297143D01*
X4707857Y-3268571D01*
X4707857Y-3197143D01*
X4693571Y-3168571D01*
X4679286Y-3154286D01*
X4650714Y-3140000D01*
X4593571Y-3140000D01*
X4565000Y-3154286D01*
X4550714Y-3168571D01*
X4536429Y-3197143D01*
X5065000Y-3325714D02*
X5065000Y-3025714D01*
X5193571Y-3325714D02*
X5193571Y-3168571D01*
X5179286Y-3140000D01*
X5150714Y-3125714D01*
X5107857Y-3125714D01*
X5079286Y-3140000D01*
X5065000Y-3154286D01*
X5379286Y-3325714D02*
X5350714Y-3311428D01*
X5336429Y-3297143D01*
X5322143Y-3268571D01*
X5322143Y-3182857D01*
X5336429Y-3154286D01*
X5350714Y-3140000D01*
X5379286Y-3125714D01*
X5422143Y-3125714D01*
X5450714Y-3140000D01*
X5465000Y-3154286D01*
X5479286Y-3182857D01*
X5479286Y-3268571D01*
X5465000Y-3297143D01*
X5450714Y-3311428D01*
X5422143Y-3325714D01*
X5379286Y-3325714D01*
X5650714Y-3325714D02*
X5622143Y-3311428D01*
X5607857Y-3282857D01*
X5607857Y-3025714D01*
X5879286Y-3311428D02*
X5850714Y-3325714D01*
X5793571Y-3325714D01*
X5765000Y-3311428D01*
X5750714Y-3282857D01*
X5750714Y-3168571D01*
X5765000Y-3140000D01*
X5793571Y-3125714D01*
X5850714Y-3125714D01*
X5879286Y-3140000D01*
X5893571Y-3168571D01*
X5893571Y-3197143D01*
X5750714Y-3225714D01*
X6007857Y-3311428D02*
X6036428Y-3325714D01*
X6093571Y-3325714D01*
X6122143Y-3311428D01*
X6136428Y-3282857D01*
X6136428Y-3268571D01*
X6122143Y-3240000D01*
X6093571Y-3225714D01*
X6050714Y-3225714D01*
X6022143Y-3211428D01*
X6007857Y-3182857D01*
X6007857Y-3168571D01*
X6022143Y-3140000D01*
X6050714Y-3125714D01*
X6093571Y-3125714D01*
X6122143Y-3140000D01*
X6236428Y-3440000D02*
X6250714Y-3425714D01*
X6279286Y-3382857D01*
X6293571Y-3354286D01*
X6307857Y-3311428D01*
X6322143Y-3240000D01*
X6322143Y-3182857D01*
X6307857Y-3111428D01*
X6293571Y-3068571D01*
X6279286Y-3040000D01*
X6250714Y-2997143D01*
X6236428Y-2982857D01*
X-390000Y-3516000D02*
X-250000Y-3656000D01*
X-250000Y-3516000D02*
X-390000Y-3656000D01*
X-320000Y-3516000D02*
X-320000Y-3656000D01*
X-390000Y-3586000D02*
X-250000Y-3586000D01*
X193571Y-3721714D02*
X22143Y-3721714D01*
X107857Y-3721714D02*
X107857Y-3421714D01*
X79286Y-3464571D01*
X50714Y-3493143D01*
X22143Y-3507428D01*
X322143Y-3693143D02*
X336429Y-3707428D01*
X322143Y-3721714D01*
X307857Y-3707428D01*
X322143Y-3693143D01*
X322143Y-3721714D01*
X593571Y-3521714D02*
X593571Y-3721714D01*
X522143Y-3407428D02*
X450714Y-3621714D01*
X636429Y-3621714D01*
X807857Y-3421714D02*
X836428Y-3421714D01*
X865000Y-3436000D01*
X879286Y-3450286D01*
X893571Y-3478857D01*
X907857Y-3536000D01*
X907857Y-3607428D01*
X893571Y-3664571D01*
X879286Y-3693143D01*
X865000Y-3707428D01*
X836428Y-3721714D01*
X807857Y-3721714D01*
X779286Y-3707428D01*
X765000Y-3693143D01*
X750714Y-3664571D01*
X736428Y-3607428D01*
X736428Y-3536000D01*
X750714Y-3478857D01*
X765000Y-3450286D01*
X779286Y-3436000D01*
X807857Y-3421714D01*
X1036428Y-3721714D02*
X1036428Y-3521714D01*
X1036428Y-3550286D02*
X1050714Y-3536000D01*
X1079286Y-3521714D01*
X1122143Y-3521714D01*
X1150714Y-3536000D01*
X1165000Y-3564571D01*
X1165000Y-3721714D01*
X1165000Y-3564571D02*
X1179286Y-3536000D01*
X1207857Y-3521714D01*
X1250714Y-3521714D01*
X1279286Y-3536000D01*
X1293571Y-3564571D01*
X1293571Y-3721714D01*
X1436428Y-3721714D02*
X1436428Y-3521714D01*
X1436428Y-3550286D02*
X1450714Y-3536000D01*
X1479286Y-3521714D01*
X1522143Y-3521714D01*
X1550714Y-3536000D01*
X1565000Y-3564571D01*
X1565000Y-3721714D01*
X1565000Y-3564571D02*
X1579286Y-3536000D01*
X1607857Y-3521714D01*
X1650714Y-3521714D01*
X1679286Y-3536000D01*
X1693571Y-3564571D01*
X1693571Y-3721714D01*
X2279286Y-3407428D02*
X2022143Y-3793143D01*
X2665000Y-3421714D02*
X2693571Y-3421714D01*
X2722143Y-3436000D01*
X2736429Y-3450286D01*
X2750714Y-3478857D01*
X2765000Y-3536000D01*
X2765000Y-3607428D01*
X2750714Y-3664571D01*
X2736429Y-3693143D01*
X2722143Y-3707428D01*
X2693571Y-3721714D01*
X2665000Y-3721714D01*
X2636429Y-3707428D01*
X2622143Y-3693143D01*
X2607857Y-3664571D01*
X2593571Y-3607428D01*
X2593571Y-3536000D01*
X2607857Y-3478857D01*
X2622143Y-3450286D01*
X2636429Y-3436000D01*
X2665000Y-3421714D01*
X2893571Y-3693143D02*
X2907857Y-3707428D01*
X2893571Y-3721714D01*
X2879286Y-3707428D01*
X2893571Y-3693143D01*
X2893571Y-3721714D01*
X3093571Y-3421714D02*
X3122143Y-3421714D01*
X3150714Y-3436000D01*
X3165000Y-3450286D01*
X3179286Y-3478857D01*
X3193571Y-3536000D01*
X3193571Y-3607428D01*
X3179286Y-3664571D01*
X3165000Y-3693143D01*
X3150714Y-3707428D01*
X3122143Y-3721714D01*
X3093571Y-3721714D01*
X3065000Y-3707428D01*
X3050714Y-3693143D01*
X3036428Y-3664571D01*
X3022143Y-3607428D01*
X3022143Y-3536000D01*
X3036428Y-3478857D01*
X3050714Y-3450286D01*
X3065000Y-3436000D01*
X3093571Y-3421714D01*
X3465000Y-3421714D02*
X3322143Y-3421714D01*
X3307857Y-3564571D01*
X3322143Y-3550286D01*
X3350714Y-3536000D01*
X3422143Y-3536000D01*
X3450714Y-3550286D01*
X3465000Y-3564571D01*
X3479286Y-3593143D01*
X3479286Y-3664571D01*
X3465000Y-3693143D01*
X3450714Y-3707428D01*
X3422143Y-3721714D01*
X3350714Y-3721714D01*
X3322143Y-3707428D01*
X3307857Y-3693143D01*
X3750714Y-3421714D02*
X3607857Y-3421714D01*
X3593571Y-3564571D01*
X3607857Y-3550286D01*
X3636428Y-3536000D01*
X3707857Y-3536000D01*
X3736428Y-3550286D01*
X3750714Y-3564571D01*
X3765000Y-3593143D01*
X3765000Y-3664571D01*
X3750714Y-3693143D01*
X3736428Y-3707428D01*
X3707857Y-3721714D01*
X3636428Y-3721714D01*
X3607857Y-3707428D01*
X3593571Y-3693143D01*
X3879286Y-3421714D02*
X3879286Y-3478857D01*
X3993571Y-3421714D02*
X3993571Y-3478857D01*
X4436429Y-3836000D02*
X4422143Y-3821714D01*
X4393571Y-3778857D01*
X4379286Y-3750286D01*
X4365000Y-3707428D01*
X4350714Y-3636000D01*
X4350714Y-3578857D01*
X4365000Y-3507428D01*
X4379286Y-3464571D01*
X4393571Y-3436000D01*
X4422143Y-3393143D01*
X4436429Y-3378857D01*
X4522143Y-3421714D02*
X4707857Y-3421714D01*
X4607857Y-3536000D01*
X4650714Y-3536000D01*
X4679286Y-3550286D01*
X4693571Y-3564571D01*
X4707857Y-3593143D01*
X4707857Y-3664571D01*
X4693571Y-3693143D01*
X4679286Y-3707428D01*
X4650714Y-3721714D01*
X4565000Y-3721714D01*
X4536429Y-3707428D01*
X4522143Y-3693143D01*
X5065000Y-3721714D02*
X5065000Y-3421714D01*
X5193571Y-3721714D02*
X5193571Y-3564571D01*
X5179286Y-3536000D01*
X5150714Y-3521714D01*
X5107857Y-3521714D01*
X5079286Y-3536000D01*
X5065000Y-3550286D01*
X5379286Y-3721714D02*
X5350714Y-3707428D01*
X5336429Y-3693143D01*
X5322143Y-3664571D01*
X5322143Y-3578857D01*
X5336429Y-3550286D01*
X5350714Y-3536000D01*
X5379286Y-3521714D01*
X5422143Y-3521714D01*
X5450714Y-3536000D01*
X5465000Y-3550286D01*
X5479286Y-3578857D01*
X5479286Y-3664571D01*
X5465000Y-3693143D01*
X5450714Y-3707428D01*
X5422143Y-3721714D01*
X5379286Y-3721714D01*
X5650714Y-3721714D02*
X5622143Y-3707428D01*
X5607857Y-3678857D01*
X5607857Y-3421714D01*
X5879286Y-3707428D02*
X5850714Y-3721714D01*
X5793571Y-3721714D01*
X5765000Y-3707428D01*
X5750714Y-3678857D01*
X5750714Y-3564571D01*
X5765000Y-3536000D01*
X5793571Y-3521714D01*
X5850714Y-3521714D01*
X5879286Y-3536000D01*
X5893571Y-3564571D01*
X5893571Y-3593143D01*
X5750714Y-3621714D01*
X6007857Y-3707428D02*
X6036428Y-3721714D01*
X6093571Y-3721714D01*
X6122143Y-3707428D01*
X6136428Y-3678857D01*
X6136428Y-3664571D01*
X6122143Y-3636000D01*
X6093571Y-3621714D01*
X6050714Y-3621714D01*
X6022143Y-3607428D01*
X6007857Y-3578857D01*
X6007857Y-3564571D01*
X6022143Y-3536000D01*
X6050714Y-3521714D01*
X6093571Y-3521714D01*
X6122143Y-3536000D01*
X6236428Y-3836000D02*
X6250714Y-3821714D01*
X6279286Y-3778857D01*
X6293571Y-3750286D01*
X6307857Y-3707428D01*
X6322143Y-3636000D01*
X6322143Y-3578857D01*
X6307857Y-3507428D01*
X6293571Y-3464571D01*
X6279286Y-3436000D01*
X6250714Y-3393143D01*
X6236428Y-3378857D01*
X-420000Y-3897000D02*
X-250000Y-4067000D01*
X-250000Y-3897000D02*
X-420000Y-4067000D01*
X-274895Y-4042105D02*
X-274895Y-3921895D01*
X-395105Y-3921895D01*
X-395105Y-4042105D01*
X-274895Y-4042105D01*
X193571Y-4117714D02*
X22143Y-4117714D01*
X107857Y-4117714D02*
X107857Y-3817714D01*
X79286Y-3860571D01*
X50714Y-3889143D01*
X22143Y-3903428D01*
X322143Y-4089143D02*
X336429Y-4103428D01*
X322143Y-4117714D01*
X307857Y-4103428D01*
X322143Y-4089143D01*
X322143Y-4117714D01*
X436428Y-3817714D02*
X636429Y-3817714D01*
X507857Y-4117714D01*
X807857Y-3817714D02*
X836428Y-3817714D01*
X865000Y-3832000D01*
X879286Y-3846286D01*
X893571Y-3874857D01*
X907857Y-3932000D01*
X907857Y-4003428D01*
X893571Y-4060571D01*
X879286Y-4089143D01*
X865000Y-4103428D01*
X836428Y-4117714D01*
X807857Y-4117714D01*
X779286Y-4103428D01*
X765000Y-4089143D01*
X750714Y-4060571D01*
X736428Y-4003428D01*
X736428Y-3932000D01*
X750714Y-3874857D01*
X765000Y-3846286D01*
X779286Y-3832000D01*
X807857Y-3817714D01*
X1036428Y-4117714D02*
X1036428Y-3917714D01*
X1036428Y-3946286D02*
X1050714Y-3932000D01*
X1079286Y-3917714D01*
X1122143Y-3917714D01*
X1150714Y-3932000D01*
X1165000Y-3960571D01*
X1165000Y-4117714D01*
X1165000Y-3960571D02*
X1179286Y-3932000D01*
X1207857Y-3917714D01*
X1250714Y-3917714D01*
X1279286Y-3932000D01*
X1293571Y-3960571D01*
X1293571Y-4117714D01*
X1436428Y-4117714D02*
X1436428Y-3917714D01*
X1436428Y-3946286D02*
X1450714Y-3932000D01*
X1479286Y-3917714D01*
X1522143Y-3917714D01*
X1550714Y-3932000D01*
X1565000Y-3960571D01*
X1565000Y-4117714D01*
X1565000Y-3960571D02*
X1579286Y-3932000D01*
X1607857Y-3917714D01*
X1650714Y-3917714D01*
X1679286Y-3932000D01*
X1693571Y-3960571D01*
X1693571Y-4117714D01*
X2279286Y-3803428D02*
X2022143Y-4189143D01*
X2665000Y-3817714D02*
X2693571Y-3817714D01*
X2722143Y-3832000D01*
X2736429Y-3846286D01*
X2750714Y-3874857D01*
X2765000Y-3932000D01*
X2765000Y-4003428D01*
X2750714Y-4060571D01*
X2736429Y-4089143D01*
X2722143Y-4103428D01*
X2693571Y-4117714D01*
X2665000Y-4117714D01*
X2636429Y-4103428D01*
X2622143Y-4089143D01*
X2607857Y-4060571D01*
X2593571Y-4003428D01*
X2593571Y-3932000D01*
X2607857Y-3874857D01*
X2622143Y-3846286D01*
X2636429Y-3832000D01*
X2665000Y-3817714D01*
X2893571Y-4089143D02*
X2907857Y-4103428D01*
X2893571Y-4117714D01*
X2879286Y-4103428D01*
X2893571Y-4089143D01*
X2893571Y-4117714D01*
X3093571Y-3817714D02*
X3122143Y-3817714D01*
X3150714Y-3832000D01*
X3165000Y-3846286D01*
X3179286Y-3874857D01*
X3193571Y-3932000D01*
X3193571Y-4003428D01*
X3179286Y-4060571D01*
X3165000Y-4089143D01*
X3150714Y-4103428D01*
X3122143Y-4117714D01*
X3093571Y-4117714D01*
X3065000Y-4103428D01*
X3050714Y-4089143D01*
X3036428Y-4060571D01*
X3022143Y-4003428D01*
X3022143Y-3932000D01*
X3036428Y-3874857D01*
X3050714Y-3846286D01*
X3065000Y-3832000D01*
X3093571Y-3817714D01*
X3450714Y-3817714D02*
X3393571Y-3817714D01*
X3365000Y-3832000D01*
X3350714Y-3846286D01*
X3322143Y-3889143D01*
X3307857Y-3946286D01*
X3307857Y-4060571D01*
X3322143Y-4089143D01*
X3336428Y-4103428D01*
X3365000Y-4117714D01*
X3422143Y-4117714D01*
X3450714Y-4103428D01*
X3465000Y-4089143D01*
X3479286Y-4060571D01*
X3479286Y-3989143D01*
X3465000Y-3960571D01*
X3450714Y-3946286D01*
X3422143Y-3932000D01*
X3365000Y-3932000D01*
X3336428Y-3946286D01*
X3322143Y-3960571D01*
X3307857Y-3989143D01*
X3579286Y-3817714D02*
X3779286Y-3817714D01*
X3650714Y-4117714D01*
X3879286Y-3817714D02*
X3879286Y-3874857D01*
X3993571Y-3817714D02*
X3993571Y-3874857D01*
X4436429Y-4232000D02*
X4422143Y-4217714D01*
X4393571Y-4174857D01*
X4379286Y-4146286D01*
X4365000Y-4103428D01*
X4350714Y-4032000D01*
X4350714Y-3974857D01*
X4365000Y-3903428D01*
X4379286Y-3860571D01*
X4393571Y-3832000D01*
X4422143Y-3789143D01*
X4436429Y-3774857D01*
X4536429Y-3846286D02*
X4550714Y-3832000D01*
X4579286Y-3817714D01*
X4650714Y-3817714D01*
X4679286Y-3832000D01*
X4693571Y-3846286D01*
X4707857Y-3874857D01*
X4707857Y-3903428D01*
X4693571Y-3946286D01*
X4522143Y-4117714D01*
X4707857Y-4117714D01*
X5065000Y-4117714D02*
X5065000Y-3817714D01*
X5193571Y-4117714D02*
X5193571Y-3960571D01*
X5179286Y-3932000D01*
X5150714Y-3917714D01*
X5107857Y-3917714D01*
X5079286Y-3932000D01*
X5065000Y-3946286D01*
X5379286Y-4117714D02*
X5350714Y-4103428D01*
X5336429Y-4089143D01*
X5322143Y-4060571D01*
X5322143Y-3974857D01*
X5336429Y-3946286D01*
X5350714Y-3932000D01*
X5379286Y-3917714D01*
X5422143Y-3917714D01*
X5450714Y-3932000D01*
X5465000Y-3946286D01*
X5479286Y-3974857D01*
X5479286Y-4060571D01*
X5465000Y-4089143D01*
X5450714Y-4103428D01*
X5422143Y-4117714D01*
X5379286Y-4117714D01*
X5650714Y-4117714D02*
X5622143Y-4103428D01*
X5607857Y-4074857D01*
X5607857Y-3817714D01*
X5879286Y-4103428D02*
X5850714Y-4117714D01*
X5793571Y-4117714D01*
X5765000Y-4103428D01*
X5750714Y-4074857D01*
X5750714Y-3960571D01*
X5765000Y-3932000D01*
X5793571Y-3917714D01*
X5850714Y-3917714D01*
X5879286Y-3932000D01*
X5893571Y-3960571D01*
X5893571Y-3989143D01*
X5750714Y-4017714D01*
X6007857Y-4103428D02*
X6036428Y-4117714D01*
X6093571Y-4117714D01*
X6122143Y-4103428D01*
X6136428Y-4074857D01*
X6136428Y-4060571D01*
X6122143Y-4032000D01*
X6093571Y-4017714D01*
X6050714Y-4017714D01*
X6022143Y-4003428D01*
X6007857Y-3974857D01*
X6007857Y-3960571D01*
X6022143Y-3932000D01*
X6050714Y-3917714D01*
X6093571Y-3917714D01*
X6122143Y-3932000D01*
X6236428Y-4232000D02*
X6250714Y-4217714D01*
X6279286Y-4174857D01*
X6293571Y-4146286D01*
X6307857Y-4103428D01*
X6322143Y-4032000D01*
X6322143Y-3974857D01*
X6307857Y-3903428D01*
X6293571Y-3860571D01*
X6279286Y-3832000D01*
X6250714Y-3789143D01*
X6236428Y-3774857D01*
X-425000Y-4290500D02*
X-250000Y-4465500D01*
X-250000Y-4290500D02*
X-425000Y-4465500D01*
X-337500Y-4465500D02*
X-250000Y-4378000D01*
X-337500Y-4290500D01*
X-425000Y-4378000D01*
X-337500Y-4465500D01*
X193571Y-4513714D02*
X22143Y-4513714D01*
X107857Y-4513714D02*
X107857Y-4213714D01*
X79286Y-4256571D01*
X50714Y-4285143D01*
X22143Y-4299429D01*
X322143Y-4485143D02*
X336429Y-4499429D01*
X322143Y-4513714D01*
X307857Y-4499429D01*
X322143Y-4485143D01*
X322143Y-4513714D01*
X436428Y-4213714D02*
X636429Y-4213714D01*
X507857Y-4513714D01*
X893571Y-4213714D02*
X750714Y-4213714D01*
X736428Y-4356571D01*
X750714Y-4342286D01*
X779286Y-4328000D01*
X850714Y-4328000D01*
X879286Y-4342286D01*
X893571Y-4356571D01*
X907857Y-4385143D01*
X907857Y-4456571D01*
X893571Y-4485143D01*
X879286Y-4499429D01*
X850714Y-4513714D01*
X779286Y-4513714D01*
X750714Y-4499429D01*
X736428Y-4485143D01*
X1036428Y-4513714D02*
X1036428Y-4313714D01*
X1036428Y-4342286D02*
X1050714Y-4328000D01*
X1079286Y-4313714D01*
X1122143Y-4313714D01*
X1150714Y-4328000D01*
X1165000Y-4356571D01*
X1165000Y-4513714D01*
X1165000Y-4356571D02*
X1179286Y-4328000D01*
X1207857Y-4313714D01*
X1250714Y-4313714D01*
X1279286Y-4328000D01*
X1293571Y-4356571D01*
X1293571Y-4513714D01*
X1436428Y-4513714D02*
X1436428Y-4313714D01*
X1436428Y-4342286D02*
X1450714Y-4328000D01*
X1479286Y-4313714D01*
X1522143Y-4313714D01*
X1550714Y-4328000D01*
X1565000Y-4356571D01*
X1565000Y-4513714D01*
X1565000Y-4356571D02*
X1579286Y-4328000D01*
X1607857Y-4313714D01*
X1650714Y-4313714D01*
X1679286Y-4328000D01*
X1693571Y-4356571D01*
X1693571Y-4513714D01*
X2279286Y-4199429D02*
X2022143Y-4585143D01*
X2665000Y-4213714D02*
X2693571Y-4213714D01*
X2722143Y-4228000D01*
X2736429Y-4242286D01*
X2750714Y-4270857D01*
X2765000Y-4328000D01*
X2765000Y-4399429D01*
X2750714Y-4456571D01*
X2736429Y-4485143D01*
X2722143Y-4499429D01*
X2693571Y-4513714D01*
X2665000Y-4513714D01*
X2636429Y-4499429D01*
X2622143Y-4485143D01*
X2607857Y-4456571D01*
X2593571Y-4399429D01*
X2593571Y-4328000D01*
X2607857Y-4270857D01*
X2622143Y-4242286D01*
X2636429Y-4228000D01*
X2665000Y-4213714D01*
X2893571Y-4485143D02*
X2907857Y-4499429D01*
X2893571Y-4513714D01*
X2879286Y-4499429D01*
X2893571Y-4485143D01*
X2893571Y-4513714D01*
X3093571Y-4213714D02*
X3122143Y-4213714D01*
X3150714Y-4228000D01*
X3165000Y-4242286D01*
X3179286Y-4270857D01*
X3193571Y-4328000D01*
X3193571Y-4399429D01*
X3179286Y-4456571D01*
X3165000Y-4485143D01*
X3150714Y-4499429D01*
X3122143Y-4513714D01*
X3093571Y-4513714D01*
X3065000Y-4499429D01*
X3050714Y-4485143D01*
X3036428Y-4456571D01*
X3022143Y-4399429D01*
X3022143Y-4328000D01*
X3036428Y-4270857D01*
X3050714Y-4242286D01*
X3065000Y-4228000D01*
X3093571Y-4213714D01*
X3450714Y-4213714D02*
X3393571Y-4213714D01*
X3365000Y-4228000D01*
X3350714Y-4242286D01*
X3322143Y-4285143D01*
X3307857Y-4342286D01*
X3307857Y-4456571D01*
X3322143Y-4485143D01*
X3336428Y-4499429D01*
X3365000Y-4513714D01*
X3422143Y-4513714D01*
X3450714Y-4499429D01*
X3465000Y-4485143D01*
X3479286Y-4456571D01*
X3479286Y-4385143D01*
X3465000Y-4356571D01*
X3450714Y-4342286D01*
X3422143Y-4328000D01*
X3365000Y-4328000D01*
X3336428Y-4342286D01*
X3322143Y-4356571D01*
X3307857Y-4385143D01*
X3622143Y-4513714D02*
X3679286Y-4513714D01*
X3707857Y-4499429D01*
X3722143Y-4485143D01*
X3750714Y-4442286D01*
X3765000Y-4385143D01*
X3765000Y-4270857D01*
X3750714Y-4242286D01*
X3736428Y-4228000D01*
X3707857Y-4213714D01*
X3650714Y-4213714D01*
X3622143Y-4228000D01*
X3607857Y-4242286D01*
X3593571Y-4270857D01*
X3593571Y-4342286D01*
X3607857Y-4370857D01*
X3622143Y-4385143D01*
X3650714Y-4399429D01*
X3707857Y-4399429D01*
X3736428Y-4385143D01*
X3750714Y-4370857D01*
X3765000Y-4342286D01*
X3879286Y-4213714D02*
X3879286Y-4270857D01*
X3993571Y-4213714D02*
X3993571Y-4270857D01*
X4436429Y-4628000D02*
X4422143Y-4613714D01*
X4393571Y-4570857D01*
X4379286Y-4542286D01*
X4365000Y-4499429D01*
X4350714Y-4428000D01*
X4350714Y-4370857D01*
X4365000Y-4299429D01*
X4379286Y-4256571D01*
X4393571Y-4228000D01*
X4422143Y-4185143D01*
X4436429Y-4170857D01*
X4536429Y-4242286D02*
X4550714Y-4228000D01*
X4579286Y-4213714D01*
X4650714Y-4213714D01*
X4679286Y-4228000D01*
X4693571Y-4242286D01*
X4707857Y-4270857D01*
X4707857Y-4299429D01*
X4693571Y-4342286D01*
X4522143Y-4513714D01*
X4707857Y-4513714D01*
X4807857Y-4213714D02*
X4993571Y-4213714D01*
X4893571Y-4328000D01*
X4936429Y-4328000D01*
X4965000Y-4342286D01*
X4979286Y-4356571D01*
X4993571Y-4385143D01*
X4993571Y-4456571D01*
X4979286Y-4485143D01*
X4965000Y-4499429D01*
X4936429Y-4513714D01*
X4850714Y-4513714D01*
X4822143Y-4499429D01*
X4807857Y-4485143D01*
X5350714Y-4513714D02*
X5350714Y-4213714D01*
X5479286Y-4513714D02*
X5479286Y-4356571D01*
X5465000Y-4328000D01*
X5436429Y-4313714D01*
X5393571Y-4313714D01*
X5365000Y-4328000D01*
X5350714Y-4342286D01*
X5665000Y-4513714D02*
X5636428Y-4499429D01*
X5622143Y-4485143D01*
X5607857Y-4456571D01*
X5607857Y-4370857D01*
X5622143Y-4342286D01*
X5636428Y-4328000D01*
X5665000Y-4313714D01*
X5707857Y-4313714D01*
X5736428Y-4328000D01*
X5750714Y-4342286D01*
X5765000Y-4370857D01*
X5765000Y-4456571D01*
X5750714Y-4485143D01*
X5736428Y-4499429D01*
X5707857Y-4513714D01*
X5665000Y-4513714D01*
X5936428Y-4513714D02*
X5907857Y-4499429D01*
X5893571Y-4470857D01*
X5893571Y-4213714D01*
X6165000Y-4499429D02*
X6136428Y-4513714D01*
X6079286Y-4513714D01*
X6050714Y-4499429D01*
X6036428Y-4470857D01*
X6036428Y-4356571D01*
X6050714Y-4328000D01*
X6079286Y-4313714D01*
X6136428Y-4313714D01*
X6165000Y-4328000D01*
X6179286Y-4356571D01*
X6179286Y-4385143D01*
X6036428Y-4413714D01*
X6293571Y-4499429D02*
X6322143Y-4513714D01*
X6379286Y-4513714D01*
X6407857Y-4499429D01*
X6422143Y-4470857D01*
X6422143Y-4456571D01*
X6407857Y-4428000D01*
X6379286Y-4413714D01*
X6336428Y-4413714D01*
X6307857Y-4399429D01*
X6293571Y-4370857D01*
X6293571Y-4356571D01*
X6307857Y-4328000D01*
X6336428Y-4313714D01*
X6379286Y-4313714D01*
X6407857Y-4328000D01*
X6522143Y-4628000D02*
X6536428Y-4613714D01*
X6565000Y-4570857D01*
X6579286Y-4542286D01*
X6593571Y-4499429D01*
X6607857Y-4428000D01*
X6607857Y-4370857D01*
X6593571Y-4299429D01*
X6579286Y-4256571D01*
X6565000Y-4228000D01*
X6536428Y-4185143D01*
X6522143Y-4170857D01*
X-339000Y-4685000D02*
X-339000Y-4863000D01*
X-428000Y-4774000D02*
X-250000Y-4774000D01*
X-250000Y-4774000D02*
G75*
G03X-250000Y-4774000I-89000J0D01*
G01*
X193571Y-4909714D02*
X22143Y-4909714D01*
X107857Y-4909714D02*
X107857Y-4609714D01*
X79286Y-4652571D01*
X50714Y-4681143D01*
X22143Y-4695429D01*
X322143Y-4881143D02*
X336429Y-4895429D01*
X322143Y-4909714D01*
X307857Y-4895429D01*
X322143Y-4881143D01*
X322143Y-4909714D01*
X436428Y-4609714D02*
X636429Y-4609714D01*
X507857Y-4909714D01*
X793571Y-4738286D02*
X765000Y-4724000D01*
X750714Y-4709714D01*
X736428Y-4681143D01*
X736428Y-4666857D01*
X750714Y-4638286D01*
X765000Y-4624000D01*
X793571Y-4609714D01*
X850714Y-4609714D01*
X879286Y-4624000D01*
X893571Y-4638286D01*
X907857Y-4666857D01*
X907857Y-4681143D01*
X893571Y-4709714D01*
X879286Y-4724000D01*
X850714Y-4738286D01*
X793571Y-4738286D01*
X765000Y-4752571D01*
X750714Y-4766857D01*
X736428Y-4795429D01*
X736428Y-4852571D01*
X750714Y-4881143D01*
X765000Y-4895429D01*
X793571Y-4909714D01*
X850714Y-4909714D01*
X879286Y-4895429D01*
X893571Y-4881143D01*
X907857Y-4852571D01*
X907857Y-4795429D01*
X893571Y-4766857D01*
X879286Y-4752571D01*
X850714Y-4738286D01*
X1036428Y-4909714D02*
X1036428Y-4709714D01*
X1036428Y-4738286D02*
X1050714Y-4724000D01*
X1079286Y-4709714D01*
X1122143Y-4709714D01*
X1150714Y-4724000D01*
X1165000Y-4752571D01*
X1165000Y-4909714D01*
X1165000Y-4752571D02*
X1179286Y-4724000D01*
X1207857Y-4709714D01*
X1250714Y-4709714D01*
X1279286Y-4724000D01*
X1293571Y-4752571D01*
X1293571Y-4909714D01*
X1436428Y-4909714D02*
X1436428Y-4709714D01*
X1436428Y-4738286D02*
X1450714Y-4724000D01*
X1479286Y-4709714D01*
X1522143Y-4709714D01*
X1550714Y-4724000D01*
X1565000Y-4752571D01*
X1565000Y-4909714D01*
X1565000Y-4752571D02*
X1579286Y-4724000D01*
X1607857Y-4709714D01*
X1650714Y-4709714D01*
X1679286Y-4724000D01*
X1693571Y-4752571D01*
X1693571Y-4909714D01*
X2279286Y-4595429D02*
X2022143Y-4981143D01*
X2665000Y-4609714D02*
X2693571Y-4609714D01*
X2722143Y-4624000D01*
X2736429Y-4638286D01*
X2750714Y-4666857D01*
X2765000Y-4724000D01*
X2765000Y-4795429D01*
X2750714Y-4852571D01*
X2736429Y-4881143D01*
X2722143Y-4895429D01*
X2693571Y-4909714D01*
X2665000Y-4909714D01*
X2636429Y-4895429D01*
X2622143Y-4881143D01*
X2607857Y-4852571D01*
X2593571Y-4795429D01*
X2593571Y-4724000D01*
X2607857Y-4666857D01*
X2622143Y-4638286D01*
X2636429Y-4624000D01*
X2665000Y-4609714D01*
X2893571Y-4881143D02*
X2907857Y-4895429D01*
X2893571Y-4909714D01*
X2879286Y-4895429D01*
X2893571Y-4881143D01*
X2893571Y-4909714D01*
X3093571Y-4609714D02*
X3122143Y-4609714D01*
X3150714Y-4624000D01*
X3165000Y-4638286D01*
X3179286Y-4666857D01*
X3193571Y-4724000D01*
X3193571Y-4795429D01*
X3179286Y-4852571D01*
X3165000Y-4881143D01*
X3150714Y-4895429D01*
X3122143Y-4909714D01*
X3093571Y-4909714D01*
X3065000Y-4895429D01*
X3050714Y-4881143D01*
X3036428Y-4852571D01*
X3022143Y-4795429D01*
X3022143Y-4724000D01*
X3036428Y-4666857D01*
X3050714Y-4638286D01*
X3065000Y-4624000D01*
X3093571Y-4609714D01*
X3293571Y-4609714D02*
X3493571Y-4609714D01*
X3365000Y-4909714D01*
X3665000Y-4609714D02*
X3693571Y-4609714D01*
X3722143Y-4624000D01*
X3736428Y-4638286D01*
X3750714Y-4666857D01*
X3765000Y-4724000D01*
X3765000Y-4795429D01*
X3750714Y-4852571D01*
X3736428Y-4881143D01*
X3722143Y-4895429D01*
X3693571Y-4909714D01*
X3665000Y-4909714D01*
X3636428Y-4895429D01*
X3622143Y-4881143D01*
X3607857Y-4852571D01*
X3593571Y-4795429D01*
X3593571Y-4724000D01*
X3607857Y-4666857D01*
X3622143Y-4638286D01*
X3636428Y-4624000D01*
X3665000Y-4609714D01*
X3879286Y-4609714D02*
X3879286Y-4666857D01*
X3993571Y-4609714D02*
X3993571Y-4666857D01*
X4436429Y-5024000D02*
X4422143Y-5009714D01*
X4393571Y-4966857D01*
X4379286Y-4938286D01*
X4365000Y-4895429D01*
X4350714Y-4824000D01*
X4350714Y-4766857D01*
X4365000Y-4695429D01*
X4379286Y-4652571D01*
X4393571Y-4624000D01*
X4422143Y-4581143D01*
X4436429Y-4566857D01*
X4679286Y-4709714D02*
X4679286Y-4909714D01*
X4607857Y-4595429D02*
X4536429Y-4809714D01*
X4722143Y-4809714D01*
X4893571Y-4609714D02*
X4922143Y-4609714D01*
X4950714Y-4624000D01*
X4965000Y-4638286D01*
X4979286Y-4666857D01*
X4993571Y-4724000D01*
X4993571Y-4795429D01*
X4979286Y-4852571D01*
X4965000Y-4881143D01*
X4950714Y-4895429D01*
X4922143Y-4909714D01*
X4893571Y-4909714D01*
X4865000Y-4895429D01*
X4850714Y-4881143D01*
X4836429Y-4852571D01*
X4822143Y-4795429D01*
X4822143Y-4724000D01*
X4836429Y-4666857D01*
X4850714Y-4638286D01*
X4865000Y-4624000D01*
X4893571Y-4609714D01*
X5350714Y-4909714D02*
X5350714Y-4609714D01*
X5479286Y-4909714D02*
X5479286Y-4752571D01*
X5465000Y-4724000D01*
X5436429Y-4709714D01*
X5393571Y-4709714D01*
X5365000Y-4724000D01*
X5350714Y-4738286D01*
X5665000Y-4909714D02*
X5636428Y-4895429D01*
X5622143Y-4881143D01*
X5607857Y-4852571D01*
X5607857Y-4766857D01*
X5622143Y-4738286D01*
X5636428Y-4724000D01*
X5665000Y-4709714D01*
X5707857Y-4709714D01*
X5736428Y-4724000D01*
X5750714Y-4738286D01*
X5765000Y-4766857D01*
X5765000Y-4852571D01*
X5750714Y-4881143D01*
X5736428Y-4895429D01*
X5707857Y-4909714D01*
X5665000Y-4909714D01*
X5936428Y-4909714D02*
X5907857Y-4895429D01*
X5893571Y-4866857D01*
X5893571Y-4609714D01*
X6165000Y-4895429D02*
X6136428Y-4909714D01*
X6079286Y-4909714D01*
X6050714Y-4895429D01*
X6036428Y-4866857D01*
X6036428Y-4752571D01*
X6050714Y-4724000D01*
X6079286Y-4709714D01*
X6136428Y-4709714D01*
X6165000Y-4724000D01*
X6179286Y-4752571D01*
X6179286Y-4781143D01*
X6036428Y-4809714D01*
X6293571Y-4895429D02*
X6322143Y-4909714D01*
X6379286Y-4909714D01*
X6407857Y-4895429D01*
X6422143Y-4866857D01*
X6422143Y-4852571D01*
X6407857Y-4824000D01*
X6379286Y-4809714D01*
X6336428Y-4809714D01*
X6307857Y-4795429D01*
X6293571Y-4766857D01*
X6293571Y-4752571D01*
X6307857Y-4724000D01*
X6336428Y-4709714D01*
X6379286Y-4709714D01*
X6407857Y-4724000D01*
X6779286Y-4795429D02*
X7007857Y-4795429D01*
X6893571Y-4909714D02*
X6893571Y-4681143D01*
X7536428Y-4909714D02*
X7365000Y-4909714D01*
X7450714Y-4909714D02*
X7450714Y-4609714D01*
X7422143Y-4652571D01*
X7393571Y-4681143D01*
X7365000Y-4695429D01*
X7879286Y-4895429D02*
X7907857Y-4909714D01*
X7965000Y-4909714D01*
X7993571Y-4895429D01*
X8007857Y-4866857D01*
X8007857Y-4852571D01*
X7993571Y-4824000D01*
X7965000Y-4809714D01*
X7922143Y-4809714D01*
X7893571Y-4795429D01*
X7879286Y-4766857D01*
X7879286Y-4752571D01*
X7893571Y-4724000D01*
X7922143Y-4709714D01*
X7965000Y-4709714D01*
X7993571Y-4724000D01*
X8179286Y-4909714D02*
X8150714Y-4895429D01*
X8136428Y-4866857D01*
X8136428Y-4609714D01*
X8336428Y-4909714D02*
X8307857Y-4895429D01*
X8293571Y-4881143D01*
X8279286Y-4852571D01*
X8279286Y-4766857D01*
X8293571Y-4738286D01*
X8307857Y-4724000D01*
X8336428Y-4709714D01*
X8379286Y-4709714D01*
X8407857Y-4724000D01*
X8422143Y-4738286D01*
X8436429Y-4766857D01*
X8436429Y-4852571D01*
X8422143Y-4881143D01*
X8407857Y-4895429D01*
X8379286Y-4909714D01*
X8336428Y-4909714D01*
X8522143Y-4709714D02*
X8636429Y-4709714D01*
X8565000Y-4609714D02*
X8565000Y-4866857D01*
X8579286Y-4895429D01*
X8607857Y-4909714D01*
X8636429Y-4909714D01*
X8707857Y-5024000D02*
X8722143Y-5009714D01*
X8750714Y-4966857D01*
X8765000Y-4938286D01*
X8779286Y-4895429D01*
X8793571Y-4824000D01*
X8793571Y-4766857D01*
X8779286Y-4695429D01*
X8765000Y-4652571D01*
X8750714Y-4624000D01*
X8722143Y-4581143D01*
X8707857Y-4566857D01*
X-278556Y-5238944D02*
X-278556Y-5101056D01*
X-416444Y-5101056D01*
X-416444Y-5238944D01*
X-278556Y-5238944D01*
X-250000Y-5170000D02*
G75*
G03X-250000Y-5170000I-97500J0D01*
G01*
X193571Y-5305714D02*
X22143Y-5305714D01*
X107857Y-5305714D02*
X107857Y-5005714D01*
X79286Y-5048571D01*
X50714Y-5077143D01*
X22143Y-5091429D01*
X322143Y-5277143D02*
X336429Y-5291429D01*
X322143Y-5305714D01*
X307857Y-5291429D01*
X322143Y-5277143D01*
X322143Y-5305714D01*
X479286Y-5305714D02*
X536429Y-5305714D01*
X565000Y-5291429D01*
X579286Y-5277143D01*
X607857Y-5234286D01*
X622143Y-5177143D01*
X622143Y-5062857D01*
X607857Y-5034286D01*
X593571Y-5020000D01*
X565000Y-5005714D01*
X507857Y-5005714D01*
X479286Y-5020000D01*
X465000Y-5034286D01*
X450714Y-5062857D01*
X450714Y-5134286D01*
X465000Y-5162857D01*
X479286Y-5177143D01*
X507857Y-5191429D01*
X565000Y-5191429D01*
X593571Y-5177143D01*
X607857Y-5162857D01*
X622143Y-5134286D01*
X893571Y-5005714D02*
X750714Y-5005714D01*
X736428Y-5148571D01*
X750714Y-5134286D01*
X779286Y-5120000D01*
X850714Y-5120000D01*
X879286Y-5134286D01*
X893571Y-5148571D01*
X907857Y-5177143D01*
X907857Y-5248571D01*
X893571Y-5277143D01*
X879286Y-5291429D01*
X850714Y-5305714D01*
X779286Y-5305714D01*
X750714Y-5291429D01*
X736428Y-5277143D01*
X1036428Y-5305714D02*
X1036428Y-5105714D01*
X1036428Y-5134286D02*
X1050714Y-5120000D01*
X1079286Y-5105714D01*
X1122143Y-5105714D01*
X1150714Y-5120000D01*
X1165000Y-5148571D01*
X1165000Y-5305714D01*
X1165000Y-5148571D02*
X1179286Y-5120000D01*
X1207857Y-5105714D01*
X1250714Y-5105714D01*
X1279286Y-5120000D01*
X1293571Y-5148571D01*
X1293571Y-5305714D01*
X1436428Y-5305714D02*
X1436428Y-5105714D01*
X1436428Y-5134286D02*
X1450714Y-5120000D01*
X1479286Y-5105714D01*
X1522143Y-5105714D01*
X1550714Y-5120000D01*
X1565000Y-5148571D01*
X1565000Y-5305714D01*
X1565000Y-5148571D02*
X1579286Y-5120000D01*
X1607857Y-5105714D01*
X1650714Y-5105714D01*
X1679286Y-5120000D01*
X1693571Y-5148571D01*
X1693571Y-5305714D01*
X2279286Y-4991429D02*
X2022143Y-5377143D01*
X2665000Y-5005714D02*
X2693571Y-5005714D01*
X2722143Y-5020000D01*
X2736429Y-5034286D01*
X2750714Y-5062857D01*
X2765000Y-5120000D01*
X2765000Y-5191429D01*
X2750714Y-5248571D01*
X2736429Y-5277143D01*
X2722143Y-5291429D01*
X2693571Y-5305714D01*
X2665000Y-5305714D01*
X2636429Y-5291429D01*
X2622143Y-5277143D01*
X2607857Y-5248571D01*
X2593571Y-5191429D01*
X2593571Y-5120000D01*
X2607857Y-5062857D01*
X2622143Y-5034286D01*
X2636429Y-5020000D01*
X2665000Y-5005714D01*
X2893571Y-5277143D02*
X2907857Y-5291429D01*
X2893571Y-5305714D01*
X2879286Y-5291429D01*
X2893571Y-5277143D01*
X2893571Y-5305714D01*
X3093571Y-5005714D02*
X3122143Y-5005714D01*
X3150714Y-5020000D01*
X3165000Y-5034286D01*
X3179286Y-5062857D01*
X3193571Y-5120000D01*
X3193571Y-5191429D01*
X3179286Y-5248571D01*
X3165000Y-5277143D01*
X3150714Y-5291429D01*
X3122143Y-5305714D01*
X3093571Y-5305714D01*
X3065000Y-5291429D01*
X3050714Y-5277143D01*
X3036428Y-5248571D01*
X3022143Y-5191429D01*
X3022143Y-5120000D01*
X3036428Y-5062857D01*
X3050714Y-5034286D01*
X3065000Y-5020000D01*
X3093571Y-5005714D01*
X3293571Y-5005714D02*
X3493571Y-5005714D01*
X3365000Y-5305714D01*
X3579286Y-5005714D02*
X3779286Y-5005714D01*
X3650714Y-5305714D01*
X3879286Y-5005714D02*
X3879286Y-5062857D01*
X3993571Y-5005714D02*
X3993571Y-5062857D01*
X4436429Y-5420000D02*
X4422143Y-5405714D01*
X4393571Y-5362857D01*
X4379286Y-5334286D01*
X4365000Y-5291429D01*
X4350714Y-5220000D01*
X4350714Y-5162857D01*
X4365000Y-5091429D01*
X4379286Y-5048571D01*
X4393571Y-5020000D01*
X4422143Y-4977143D01*
X4436429Y-4962857D01*
X4707857Y-5305714D02*
X4536429Y-5305714D01*
X4622143Y-5305714D02*
X4622143Y-5005714D01*
X4593571Y-5048571D01*
X4565000Y-5077143D01*
X4536429Y-5091429D01*
X5050714Y-5291429D02*
X5079286Y-5305714D01*
X5136429Y-5305714D01*
X5165000Y-5291429D01*
X5179286Y-5262857D01*
X5179286Y-5248571D01*
X5165000Y-5220000D01*
X5136429Y-5205714D01*
X5093571Y-5205714D01*
X5065000Y-5191429D01*
X5050714Y-5162857D01*
X5050714Y-5148571D01*
X5065000Y-5120000D01*
X5093571Y-5105714D01*
X5136429Y-5105714D01*
X5165000Y-5120000D01*
X5350714Y-5305714D02*
X5322143Y-5291429D01*
X5307857Y-5262857D01*
X5307857Y-5005714D01*
X5507857Y-5305714D02*
X5479286Y-5291429D01*
X5465000Y-5277143D01*
X5450714Y-5248571D01*
X5450714Y-5162857D01*
X5465000Y-5134286D01*
X5479286Y-5120000D01*
X5507857Y-5105714D01*
X5550714Y-5105714D01*
X5579286Y-5120000D01*
X5593571Y-5134286D01*
X5607857Y-5162857D01*
X5607857Y-5248571D01*
X5593571Y-5277143D01*
X5579286Y-5291429D01*
X5550714Y-5305714D01*
X5507857Y-5305714D01*
X5693571Y-5105714D02*
X5807857Y-5105714D01*
X5736428Y-5005714D02*
X5736428Y-5262857D01*
X5750714Y-5291429D01*
X5779286Y-5305714D01*
X5807857Y-5305714D01*
X5879286Y-5420000D02*
X5893571Y-5405714D01*
X5922143Y-5362857D01*
X5936428Y-5334286D01*
X5950714Y-5291429D01*
X5965000Y-5220000D01*
X5965000Y-5162857D01*
X5950714Y-5091429D01*
X5936428Y-5048571D01*
X5922143Y-5020000D01*
X5893571Y-4977143D01*
X5879286Y-4962857D01*
M02*
