%TF.GenerationSoftware,KiCad,Pcbnew,5.1.5-52549c5~84~ubuntu18.04.1*%
%TF.CreationDate,2020-02-26T10:28:40-05:00*%
%TF.ProjectId,LV_Breakout,4c565f42-7265-4616-9b6f-75742e6b6963,rev?*%
%TF.SameCoordinates,PX678e028PY6d01460*%
%TF.FileFunction,Plated,1,2,PTH,Mixed*%
%TF.FilePolarity,Positive*%
%FSLAX46Y46*%
G04 Gerber Fmt 4.6, Leading zero omitted, Abs format (unit mm)*
G04 Created by KiCad (PCBNEW 5.1.5-52549c5~84~ubuntu18.04.1) date 2020-02-26 10:28:40*
%MOMM*%
%LPD*%
G04 APERTURE LIST*
%TA.AperFunction,ViaDrill*%
%ADD10C,0.400000*%
%TD*%
%TA.AperFunction,ComponentDrill*%
%ADD11C,0.750000*%
%TD*%
%TA.AperFunction,ComponentDrill*%
%ADD12C,0.800000*%
%TD*%
%TA.AperFunction,ComponentDrill*%
%ADD13C,1.000000*%
%TD*%
%TA.AperFunction,ComponentDrill*%
%ADD14C,1.090000*%
%TD*%
%TA.AperFunction,ComponentDrill*%
%ADD15C,1.200000*%
%TD*%
%TA.AperFunction,ComponentDrill*%
%ADD16C,1.400000*%
%TD*%
%TA.AperFunction,ComponentDrill*%
%ADD17C,1.700000*%
%TD*%
%TA.AperFunction,ComponentDrill*%
%ADD18C,1.750000*%
%TD*%
%TA.AperFunction,ComponentDrill*%
%ADD19C,1.780000*%
%TD*%
G04 aperture for slot hole*
%TA.AperFunction,ComponentDrill*%
%ADD20C,1.780000*%
%TD*%
G04 aperture for slot hole*
%TA.AperFunction,ComponentDrill*%
%ADD21C,1.950000*%
%TD*%
G04 APERTURE END LIST*
D10*
X48260000Y57785000D03*
X55880000Y73025000D03*
X56515000Y57785000D03*
X59690000Y46990000D03*
X63454409Y47670591D03*
X63500000Y40640000D03*
X64135000Y76835000D03*
X66040000Y40005000D03*
X90170000Y69215000D03*
X90170000Y64135000D03*
X90170000Y57785000D03*
X90170000Y54610000D03*
D11*
%TO.C,J1*%
X67945000Y83470000D03*
X67945000Y81470000D03*
X67945000Y79470000D03*
X67945000Y77470000D03*
X69945000Y83470000D03*
X69945000Y81470000D03*
X69945000Y79470000D03*
X69945000Y77470000D03*
D12*
%TO.C,R1*%
X55245000Y35560000D03*
X55245000Y25400000D03*
D13*
%TO.C,U1*%
X69215000Y59690000D03*
X69215000Y57150000D03*
X69215000Y54610000D03*
D14*
%TO.C,K1*%
X31695000Y19535000D03*
X31695000Y9375000D03*
D15*
%TO.C,C2*%
X75565000Y27940000D03*
X83065000Y27940000D03*
%TO.C,C4*%
X89535000Y15240000D03*
X89535000Y7740000D03*
%TO.C,C3*%
X69215000Y15240000D03*
X69215000Y7740000D03*
D16*
%TO.C,J3*%
X46355000Y14630000D03*
X46355000Y10490000D03*
X46355000Y6350000D03*
D17*
%TO.C,J2*%
X95885000Y52070000D03*
X95885000Y44150000D03*
D18*
%TO.C,J4*%
X17115000Y77660000D03*
X17115000Y69660000D03*
X19115000Y73660000D03*
X21115000Y77660000D03*
X21115000Y69660000D03*
X23115000Y73660000D03*
X25115000Y77660000D03*
X25115000Y69660000D03*
X27115000Y73660000D03*
X29115000Y77660000D03*
X29115000Y69660000D03*
X31115000Y73660000D03*
X33115000Y77660000D03*
X33115000Y69660000D03*
X35115000Y73660000D03*
X37115000Y77660000D03*
X37115000Y69660000D03*
X39115000Y73660000D03*
X41115000Y77660000D03*
X41115000Y69660000D03*
X43115000Y73660000D03*
X45115000Y77660000D03*
X45115000Y69660000D03*
D19*
%TO.C,F3*%
X43996425Y53100000D03*
X43996425Y43180000D03*
X47396425Y53100000D03*
X47396425Y43180000D03*
D20*
%TO.C,K1*%
X20460000Y4595000D02*
X18910000Y4595000D01*
D19*
%TO.C,F10*%
X35832140Y53100000D03*
X35832140Y43180000D03*
X39232140Y53100000D03*
X39232140Y43180000D03*
%TO.C,F7*%
X11339285Y53100000D03*
X11339285Y43180000D03*
X14739285Y53100000D03*
X14739285Y43180000D03*
%TO.C,F9*%
X9765000Y36420000D03*
X9765000Y33020000D03*
X19685000Y36420000D03*
X19685000Y33020000D03*
%TO.C,F2*%
X44225000Y35560000D03*
X44225000Y25640000D03*
X47625000Y35560000D03*
X47625000Y25640000D03*
%TO.C,F5*%
X52705000Y53100000D03*
X52705000Y43180000D03*
X56105000Y53100000D03*
X56105000Y43180000D03*
%TO.C,F4*%
X19503570Y53100000D03*
X19503570Y43180000D03*
X22903570Y53100000D03*
X22903570Y43180000D03*
%TO.C,F8*%
X27545000Y36830000D03*
X27545000Y33430000D03*
X37465000Y36830000D03*
X37465000Y33430000D03*
%TO.C,F1*%
X94615000Y37860000D03*
X94615000Y27940000D03*
X98015000Y37860000D03*
X98015000Y27940000D03*
%TO.C,F6*%
X27667855Y53100000D03*
X27667855Y43180000D03*
X31067855Y53100000D03*
X31067855Y43180000D03*
D21*
%TO.C,K1*%
X16255000Y24370000D02*
X16255000Y22320000D01*
M02*
