%TF.GenerationSoftware,KiCad,Pcbnew,5.1.5-52549c5~84~ubuntu18.04.1*%
%TF.CreationDate,2020-02-26T10:28:26-05:00*%
%TF.ProjectId,LV_Breakout,4c565f42-7265-4616-9b6f-75742e6b6963,rev?*%
%TF.SameCoordinates,PX678e028PY6d01460*%
%TF.FileFunction,Soldermask,Bot*%
%TF.FilePolarity,Negative*%
%FSLAX46Y46*%
G04 Gerber Fmt 4.6, Leading zero omitted, Abs format (unit mm)*
G04 Created by KiCad (PCBNEW 5.1.5-52549c5~84~ubuntu18.04.1) date 2020-02-26 10:28:26*
%MOMM*%
%LPD*%
G04 APERTURE LIST*
%ADD10C,0.100000*%
G04 APERTURE END LIST*
D10*
G36*
X21223831Y5967631D02*
G01*
X21291703Y5960946D01*
X21552966Y5881693D01*
X21552968Y5881692D01*
X21793745Y5752994D01*
X21793747Y5752993D01*
X21793746Y5752993D01*
X22004792Y5579792D01*
X22177993Y5368746D01*
X22306693Y5127966D01*
X22351881Y4979000D01*
X22385946Y4866702D01*
X22412706Y4595000D01*
X22385946Y4323298D01*
X22306692Y4062032D01*
X22177994Y3821255D01*
X22004792Y3610208D01*
X21793745Y3437006D01*
X21552968Y3308308D01*
X21552966Y3308307D01*
X21291703Y3229054D01*
X21223831Y3222369D01*
X21088090Y3209000D01*
X18281910Y3209000D01*
X18146169Y3222369D01*
X18078297Y3229054D01*
X17817034Y3308307D01*
X17817032Y3308308D01*
X17576255Y3437006D01*
X17365208Y3610208D01*
X17192006Y3821255D01*
X17063308Y4062032D01*
X16984054Y4323298D01*
X16957294Y4595000D01*
X16984054Y4866702D01*
X17018119Y4979000D01*
X17063307Y5127966D01*
X17192007Y5368746D01*
X17365208Y5579792D01*
X17576254Y5752993D01*
X17576253Y5752993D01*
X17576255Y5752994D01*
X17817032Y5881692D01*
X17817034Y5881693D01*
X18078297Y5960946D01*
X18146169Y5967631D01*
X18281910Y5981000D01*
X21088090Y5981000D01*
X21223831Y5967631D01*
G37*
G36*
X47928436Y7717365D02*
G01*
X47958027Y7708389D01*
X47985296Y7693813D01*
X48009198Y7674198D01*
X48028813Y7650296D01*
X48043389Y7623027D01*
X48052365Y7593436D01*
X48056000Y7556526D01*
X48056000Y5143474D01*
X48052365Y5106564D01*
X48043389Y5076973D01*
X48028813Y5049704D01*
X48009198Y5025802D01*
X47985296Y5006187D01*
X47958027Y4991611D01*
X47928436Y4982635D01*
X47891526Y4979000D01*
X44818474Y4979000D01*
X44781564Y4982635D01*
X44751973Y4991611D01*
X44724704Y5006187D01*
X44700802Y5025802D01*
X44681187Y5049704D01*
X44666611Y5076973D01*
X44657635Y5106564D01*
X44654000Y5143474D01*
X44654000Y7556526D01*
X44657635Y7593436D01*
X44666611Y7623027D01*
X44681187Y7650296D01*
X44700802Y7674198D01*
X44724704Y7693813D01*
X44751973Y7708389D01*
X44781564Y7717365D01*
X44818474Y7721000D01*
X47891526Y7721000D01*
X47928436Y7717365D01*
G37*
G36*
X89899903Y8942925D02*
G01*
X90127571Y8848622D01*
X90332466Y8711715D01*
X90506715Y8537466D01*
X90506716Y8537464D01*
X90643623Y8332569D01*
X90737925Y8104903D01*
X90786000Y7863214D01*
X90786000Y7616786D01*
X90765156Y7511998D01*
X90737925Y7375097D01*
X90643622Y7147429D01*
X90506715Y6942534D01*
X90332466Y6768285D01*
X90127571Y6631378D01*
X90127570Y6631377D01*
X90127569Y6631377D01*
X89899903Y6537075D01*
X89658214Y6489000D01*
X89411786Y6489000D01*
X89170097Y6537075D01*
X88942431Y6631377D01*
X88942430Y6631377D01*
X88942429Y6631378D01*
X88737534Y6768285D01*
X88563285Y6942534D01*
X88426378Y7147429D01*
X88332075Y7375097D01*
X88304844Y7511998D01*
X88284000Y7616786D01*
X88284000Y7863214D01*
X88332075Y8104903D01*
X88426377Y8332569D01*
X88563284Y8537464D01*
X88563285Y8537466D01*
X88737534Y8711715D01*
X88942429Y8848622D01*
X89170097Y8942925D01*
X89411786Y8991000D01*
X89658214Y8991000D01*
X89899903Y8942925D01*
G37*
G36*
X69579903Y8942925D02*
G01*
X69807571Y8848622D01*
X70012466Y8711715D01*
X70186715Y8537466D01*
X70186716Y8537464D01*
X70323623Y8332569D01*
X70417925Y8104903D01*
X70466000Y7863214D01*
X70466000Y7616786D01*
X70445156Y7511998D01*
X70417925Y7375097D01*
X70323622Y7147429D01*
X70186715Y6942534D01*
X70012466Y6768285D01*
X69807571Y6631378D01*
X69807570Y6631377D01*
X69807569Y6631377D01*
X69579903Y6537075D01*
X69338214Y6489000D01*
X69091786Y6489000D01*
X68850097Y6537075D01*
X68622431Y6631377D01*
X68622430Y6631377D01*
X68622429Y6631378D01*
X68417534Y6768285D01*
X68243285Y6942534D01*
X68106378Y7147429D01*
X68012075Y7375097D01*
X67984844Y7511998D01*
X67964000Y7616786D01*
X67964000Y7863214D01*
X68012075Y8104903D01*
X68106377Y8332569D01*
X68243284Y8537464D01*
X68243285Y8537466D01*
X68417534Y8711715D01*
X68622429Y8848622D01*
X68850097Y8942925D01*
X69091786Y8991000D01*
X69338214Y8991000D01*
X69579903Y8942925D01*
G37*
G36*
X31864436Y10226812D02*
G01*
X31948332Y10210124D01*
X32106390Y10144654D01*
X32248634Y10049610D01*
X32369610Y9928634D01*
X32464654Y9786390D01*
X32530124Y9628332D01*
X32563500Y9460540D01*
X32563500Y9289460D01*
X32530124Y9121668D01*
X32464654Y8963610D01*
X32369610Y8821366D01*
X32248634Y8700390D01*
X32106390Y8605346D01*
X32027360Y8572611D01*
X31948332Y8539876D01*
X31864436Y8523188D01*
X31780541Y8506500D01*
X31609459Y8506500D01*
X31525564Y8523188D01*
X31441668Y8539876D01*
X31362640Y8572611D01*
X31283610Y8605346D01*
X31141366Y8700390D01*
X31020390Y8821366D01*
X30925346Y8963610D01*
X30859876Y9121668D01*
X30826500Y9289460D01*
X30826500Y9460540D01*
X30859876Y9628332D01*
X30925346Y9786390D01*
X31020390Y9928634D01*
X31141366Y10049610D01*
X31283610Y10144654D01*
X31441668Y10210124D01*
X31525564Y10226812D01*
X31609459Y10243500D01*
X31780541Y10243500D01*
X31864436Y10226812D01*
G37*
G36*
X46953761Y11841163D02*
G01*
X47212200Y11762766D01*
X47450372Y11635461D01*
X47659134Y11464134D01*
X47830461Y11255372D01*
X47957766Y11017200D01*
X48036163Y10758761D01*
X48062633Y10490000D01*
X48036163Y10221239D01*
X47957766Y9962800D01*
X47830461Y9724628D01*
X47659134Y9515866D01*
X47450372Y9344539D01*
X47212200Y9217234D01*
X46953761Y9138837D01*
X46752349Y9119000D01*
X45957651Y9119000D01*
X45756239Y9138837D01*
X45497800Y9217234D01*
X45259628Y9344539D01*
X45050866Y9515866D01*
X44879539Y9724628D01*
X44752234Y9962800D01*
X44673837Y10221239D01*
X44647367Y10490000D01*
X44673837Y10758761D01*
X44752234Y11017200D01*
X44879539Y11255372D01*
X45050866Y11464134D01*
X45259628Y11635461D01*
X45497800Y11762766D01*
X45756239Y11841163D01*
X45957651Y11861000D01*
X46752349Y11861000D01*
X46953761Y11841163D01*
G37*
G36*
X46953761Y15981163D02*
G01*
X47212200Y15902766D01*
X47450372Y15775461D01*
X47659134Y15604134D01*
X47830461Y15395372D01*
X47957766Y15157200D01*
X48036163Y14898761D01*
X48062633Y14630000D01*
X48036163Y14361239D01*
X47957766Y14102800D01*
X47830461Y13864628D01*
X47659134Y13655866D01*
X47450372Y13484539D01*
X47212200Y13357234D01*
X46953761Y13278837D01*
X46752349Y13259000D01*
X45957651Y13259000D01*
X45756239Y13278837D01*
X45497800Y13357234D01*
X45259628Y13484539D01*
X45050866Y13655866D01*
X44879539Y13864628D01*
X44752234Y14102800D01*
X44673837Y14361239D01*
X44647367Y14630000D01*
X44673837Y14898761D01*
X44752234Y15157200D01*
X44879539Y15395372D01*
X45050866Y15604134D01*
X45259628Y15775461D01*
X45497800Y15902766D01*
X45756239Y15981163D01*
X45957651Y16001000D01*
X46752349Y16001000D01*
X46953761Y15981163D01*
G37*
G36*
X70466000Y13989000D02*
G01*
X67964000Y13989000D01*
X67964000Y16491000D01*
X70466000Y16491000D01*
X70466000Y13989000D01*
G37*
G36*
X90786000Y13989000D02*
G01*
X88284000Y13989000D01*
X88284000Y16491000D01*
X90786000Y16491000D01*
X90786000Y13989000D01*
G37*
G36*
X46833661Y20647938D02*
G01*
X47132303Y20524236D01*
X47132305Y20524235D01*
X47401076Y20344648D01*
X47629648Y20116076D01*
X47743029Y19946390D01*
X47809236Y19847303D01*
X47932938Y19548661D01*
X47996000Y19231626D01*
X47996000Y18908374D01*
X47932938Y18591339D01*
X47809236Y18292697D01*
X47809235Y18292695D01*
X47629648Y18023924D01*
X47401076Y17795352D01*
X47132305Y17615765D01*
X47132304Y17615764D01*
X47132303Y17615764D01*
X46833661Y17492062D01*
X46516626Y17429000D01*
X46193374Y17429000D01*
X45876339Y17492062D01*
X45577697Y17615764D01*
X45577696Y17615764D01*
X45577695Y17615765D01*
X45308924Y17795352D01*
X45080352Y18023924D01*
X44900765Y18292695D01*
X44900764Y18292697D01*
X44777062Y18591339D01*
X44714000Y18908374D01*
X44714000Y19231626D01*
X44777062Y19548661D01*
X44900764Y19847303D01*
X44966972Y19946390D01*
X45080352Y20116076D01*
X45308924Y20344648D01*
X45577695Y20524235D01*
X45577697Y20524236D01*
X45876339Y20647938D01*
X46193374Y20711000D01*
X46516626Y20711000D01*
X46833661Y20647938D01*
G37*
G36*
X31864436Y20386812D02*
G01*
X31948332Y20370124D01*
X32009836Y20344648D01*
X32106390Y20304654D01*
X32248634Y20209610D01*
X32369610Y20088634D01*
X32464654Y19946390D01*
X32530124Y19788331D01*
X32563500Y19620541D01*
X32563500Y19449459D01*
X32530124Y19281669D01*
X32464654Y19123610D01*
X32369610Y18981366D01*
X32248634Y18860390D01*
X32106390Y18765346D01*
X32027360Y18732611D01*
X31948332Y18699876D01*
X31864436Y18683188D01*
X31780541Y18666500D01*
X31609459Y18666500D01*
X31525564Y18683188D01*
X31441668Y18699876D01*
X31362640Y18732611D01*
X31283610Y18765346D01*
X31141366Y18860390D01*
X31020390Y18981366D01*
X30925346Y19123610D01*
X30859876Y19281669D01*
X30826500Y19449459D01*
X30826500Y19620541D01*
X30859876Y19788331D01*
X30925346Y19946390D01*
X31020390Y20088634D01*
X31141366Y20209610D01*
X31283610Y20304654D01*
X31380164Y20344648D01*
X31441668Y20370124D01*
X31525564Y20386812D01*
X31609459Y20403500D01*
X31780541Y20403500D01*
X31864436Y20386812D01*
G37*
G36*
X16551697Y26299101D02*
G01*
X16836993Y26212557D01*
X17099923Y26072018D01*
X17330384Y25882884D01*
X17519518Y25652424D01*
X17660057Y25389494D01*
X17746601Y25104198D01*
X17768500Y24881852D01*
X17768500Y21808148D01*
X17746601Y21585802D01*
X17660057Y21300506D01*
X17519518Y21037576D01*
X17330384Y20807116D01*
X17099924Y20617982D01*
X16836994Y20477443D01*
X16551698Y20390899D01*
X16255000Y20361677D01*
X15958303Y20390899D01*
X15673007Y20477443D01*
X15410077Y20617982D01*
X15179617Y20807116D01*
X14990483Y21037576D01*
X14849944Y21300506D01*
X14763400Y21585802D01*
X14741501Y21808148D01*
X14741500Y24881851D01*
X14763399Y25104197D01*
X14849943Y25389493D01*
X14990482Y25652423D01*
X15179616Y25882884D01*
X15410076Y26072018D01*
X15673006Y26212557D01*
X15958302Y26299101D01*
X16255000Y26328323D01*
X16551697Y26299101D01*
G37*
G36*
X44506125Y27053312D02*
G01*
X44645324Y27025623D01*
X44753949Y26980629D01*
X44907568Y26916998D01*
X45143583Y26759298D01*
X45344298Y26558583D01*
X45501998Y26322568D01*
X45531642Y26251000D01*
X45610623Y26060324D01*
X45634064Y25942480D01*
X45666000Y25781927D01*
X45666000Y25498073D01*
X45610623Y25219677D01*
X45501998Y24957432D01*
X45344298Y24721417D01*
X45143583Y24520702D01*
X44907568Y24363002D01*
X44753949Y24299371D01*
X44645324Y24254377D01*
X44506125Y24226688D01*
X44366927Y24199000D01*
X44083073Y24199000D01*
X43943875Y24226688D01*
X43804676Y24254377D01*
X43696051Y24299371D01*
X43542432Y24363002D01*
X43306417Y24520702D01*
X43105702Y24721417D01*
X42948002Y24957432D01*
X42839377Y25219677D01*
X42784000Y25498073D01*
X42784000Y25781927D01*
X42815936Y25942480D01*
X42839377Y26060324D01*
X42918358Y26251000D01*
X42948002Y26322568D01*
X43105702Y26558583D01*
X43306417Y26759298D01*
X43542432Y26916998D01*
X43696051Y26980629D01*
X43804676Y27025623D01*
X43943875Y27053312D01*
X44083073Y27081000D01*
X44366927Y27081000D01*
X44506125Y27053312D01*
G37*
G36*
X47906125Y27053312D02*
G01*
X48045324Y27025623D01*
X48153949Y26980629D01*
X48307568Y26916998D01*
X48543583Y26759298D01*
X48744298Y26558583D01*
X48901998Y26322568D01*
X48931642Y26251000D01*
X49010623Y26060324D01*
X49034064Y25942480D01*
X49066000Y25781927D01*
X49066000Y25498073D01*
X49010623Y25219677D01*
X48901998Y24957432D01*
X48744298Y24721417D01*
X48543583Y24520702D01*
X48307568Y24363002D01*
X48153949Y24299371D01*
X48045324Y24254377D01*
X47906125Y24226688D01*
X47766927Y24199000D01*
X47483073Y24199000D01*
X47343875Y24226688D01*
X47204676Y24254377D01*
X47096051Y24299371D01*
X46942432Y24363002D01*
X46706417Y24520702D01*
X46505702Y24721417D01*
X46348002Y24957432D01*
X46239377Y25219677D01*
X46184000Y25498073D01*
X46184000Y25781927D01*
X46215936Y25942480D01*
X46239377Y26060324D01*
X46318358Y26251000D01*
X46348002Y26322568D01*
X46505702Y26558583D01*
X46706417Y26759298D01*
X46942432Y26916998D01*
X47096051Y26980629D01*
X47204676Y27025623D01*
X47343875Y27053312D01*
X47483073Y27081000D01*
X47766927Y27081000D01*
X47906125Y27053312D01*
G37*
G36*
X55493228Y26218297D02*
G01*
X55648100Y26154147D01*
X55787481Y26061015D01*
X55906015Y25942481D01*
X55999147Y25803100D01*
X56063297Y25648228D01*
X56096000Y25483816D01*
X56096000Y25316184D01*
X56063297Y25151772D01*
X55999147Y24996900D01*
X55906015Y24857519D01*
X55787481Y24738985D01*
X55648100Y24645853D01*
X55493228Y24581703D01*
X55328816Y24549000D01*
X55161184Y24549000D01*
X54996772Y24581703D01*
X54841900Y24645853D01*
X54702519Y24738985D01*
X54583985Y24857519D01*
X54490853Y24996900D01*
X54426703Y25151772D01*
X54394000Y25316184D01*
X54394000Y25483816D01*
X54426703Y25648228D01*
X54490853Y25803100D01*
X54583985Y25942481D01*
X54702519Y26061015D01*
X54841900Y26154147D01*
X54996772Y26218297D01*
X55161184Y26251000D01*
X55328816Y26251000D01*
X55493228Y26218297D01*
G37*
G36*
X94896125Y29353312D02*
G01*
X95035324Y29325623D01*
X95143949Y29280629D01*
X95297568Y29216998D01*
X95533583Y29059298D01*
X95734298Y28858583D01*
X95891998Y28622568D01*
X96000623Y28360323D01*
X96056000Y28081927D01*
X96056000Y27798073D01*
X96000623Y27519677D01*
X95891998Y27257432D01*
X95734298Y27021417D01*
X95533583Y26820702D01*
X95297568Y26663002D01*
X95143949Y26599371D01*
X95035324Y26554377D01*
X94896125Y26526688D01*
X94756927Y26499000D01*
X94473073Y26499000D01*
X94333875Y26526688D01*
X94194676Y26554377D01*
X94086051Y26599371D01*
X93932432Y26663002D01*
X93696417Y26820702D01*
X93495702Y27021417D01*
X93338002Y27257432D01*
X93229377Y27519677D01*
X93174000Y27798073D01*
X93174000Y28081927D01*
X93229377Y28360323D01*
X93338002Y28622568D01*
X93495702Y28858583D01*
X93696417Y29059298D01*
X93932432Y29216998D01*
X94086051Y29280629D01*
X94194676Y29325623D01*
X94333875Y29353311D01*
X94473073Y29381000D01*
X94756927Y29381000D01*
X94896125Y29353312D01*
G37*
G36*
X98296125Y29353312D02*
G01*
X98435324Y29325623D01*
X98543949Y29280629D01*
X98697568Y29216998D01*
X98933583Y29059298D01*
X99134298Y28858583D01*
X99291998Y28622568D01*
X99400623Y28360323D01*
X99456000Y28081927D01*
X99456000Y27798073D01*
X99400623Y27519677D01*
X99291998Y27257432D01*
X99134298Y27021417D01*
X98933583Y26820702D01*
X98697568Y26663002D01*
X98543949Y26599371D01*
X98435324Y26554377D01*
X98296125Y26526688D01*
X98156927Y26499000D01*
X97873073Y26499000D01*
X97733875Y26526688D01*
X97594676Y26554377D01*
X97486051Y26599371D01*
X97332432Y26663002D01*
X97096417Y26820702D01*
X96895702Y27021417D01*
X96738002Y27257432D01*
X96629377Y27519677D01*
X96574000Y27798073D01*
X96574000Y28081927D01*
X96629377Y28360323D01*
X96738002Y28622568D01*
X96895702Y28858583D01*
X97096417Y29059298D01*
X97332432Y29216998D01*
X97486051Y29280629D01*
X97594676Y29325623D01*
X97733875Y29353311D01*
X97873073Y29381000D01*
X98156927Y29381000D01*
X98296125Y29353312D01*
G37*
G36*
X76816000Y26689000D02*
G01*
X74314000Y26689000D01*
X74314000Y29191000D01*
X76816000Y29191000D01*
X76816000Y26689000D01*
G37*
G36*
X83429903Y29142925D02*
G01*
X83631800Y29059297D01*
X83657571Y29048622D01*
X83862466Y28911715D01*
X84036715Y28737466D01*
X84173622Y28532571D01*
X84267925Y28304903D01*
X84316000Y28063213D01*
X84316000Y27816787D01*
X84267925Y27575097D01*
X84173622Y27347429D01*
X84036715Y27142534D01*
X83862466Y26968285D01*
X83657571Y26831378D01*
X83657570Y26831377D01*
X83657569Y26831377D01*
X83429903Y26737075D01*
X83188214Y26689000D01*
X82941786Y26689000D01*
X82700097Y26737075D01*
X82472431Y26831377D01*
X82472430Y26831377D01*
X82472429Y26831378D01*
X82267534Y26968285D01*
X82093285Y27142534D01*
X81956378Y27347429D01*
X81862075Y27575097D01*
X81814000Y27816787D01*
X81814000Y28063213D01*
X81862075Y28304903D01*
X81956378Y28532571D01*
X82093285Y28737466D01*
X82267534Y28911715D01*
X82472429Y29048622D01*
X82498201Y29059297D01*
X82700097Y29142925D01*
X82941786Y29191000D01*
X83188214Y29191000D01*
X83429903Y29142925D01*
G37*
G36*
X19928966Y34440703D02*
G01*
X20105324Y34405623D01*
X20213949Y34360629D01*
X20367568Y34296998D01*
X20603583Y34139298D01*
X20804298Y33938583D01*
X20961998Y33702568D01*
X21070623Y33440323D01*
X21126000Y33161927D01*
X21126000Y32878073D01*
X21070623Y32599677D01*
X20961998Y32337432D01*
X20804298Y32101417D01*
X20603583Y31900702D01*
X20367568Y31743002D01*
X20213949Y31679371D01*
X20105324Y31634377D01*
X19966125Y31606689D01*
X19826927Y31579000D01*
X19543073Y31579000D01*
X19403875Y31606689D01*
X19264676Y31634377D01*
X19156051Y31679371D01*
X19002432Y31743002D01*
X18766417Y31900702D01*
X18565702Y32101417D01*
X18408002Y32337432D01*
X18299377Y32599677D01*
X18244000Y32878073D01*
X18244000Y33161927D01*
X18299377Y33440323D01*
X18408002Y33702568D01*
X18565702Y33938583D01*
X18766417Y34139298D01*
X19002432Y34296998D01*
X19156051Y34360629D01*
X19264676Y34405623D01*
X19441034Y34440703D01*
X19543073Y34461000D01*
X19826927Y34461000D01*
X19928966Y34440703D01*
G37*
G36*
X10008966Y34440703D02*
G01*
X10185324Y34405623D01*
X10293949Y34360629D01*
X10447568Y34296998D01*
X10683583Y34139298D01*
X10884298Y33938583D01*
X11041998Y33702568D01*
X11150623Y33440323D01*
X11206000Y33161927D01*
X11206000Y32878073D01*
X11150623Y32599677D01*
X11041998Y32337432D01*
X10884298Y32101417D01*
X10683583Y31900702D01*
X10447568Y31743002D01*
X10293949Y31679371D01*
X10185324Y31634377D01*
X10046125Y31606689D01*
X9906927Y31579000D01*
X9623073Y31579000D01*
X9483875Y31606689D01*
X9344676Y31634377D01*
X9236051Y31679371D01*
X9082432Y31743002D01*
X8846417Y31900702D01*
X8645702Y32101417D01*
X8488002Y32337432D01*
X8379377Y32599677D01*
X8324000Y32878073D01*
X8324000Y33161927D01*
X8379377Y33440323D01*
X8488002Y33702568D01*
X8645702Y33938583D01*
X8846417Y34139298D01*
X9082432Y34296998D01*
X9236051Y34360629D01*
X9344676Y34405623D01*
X9521034Y34440703D01*
X9623073Y34461000D01*
X9906927Y34461000D01*
X10008966Y34440703D01*
G37*
G36*
X37746125Y34843311D02*
G01*
X37885324Y34815623D01*
X37993949Y34770629D01*
X38147568Y34706998D01*
X38383583Y34549298D01*
X38584298Y34348583D01*
X38741998Y34112568D01*
X38850623Y33850323D01*
X38906000Y33571927D01*
X38906000Y33288073D01*
X38850623Y33009677D01*
X38741998Y32747432D01*
X38584298Y32511417D01*
X38383583Y32310702D01*
X38147568Y32153002D01*
X38023030Y32101417D01*
X37885324Y32044377D01*
X37746125Y32016688D01*
X37606927Y31989000D01*
X37323073Y31989000D01*
X37183875Y32016688D01*
X37044676Y32044377D01*
X36906970Y32101417D01*
X36782432Y32153002D01*
X36546417Y32310702D01*
X36345702Y32511417D01*
X36188002Y32747432D01*
X36079377Y33009677D01*
X36024000Y33288073D01*
X36024000Y33571927D01*
X36079377Y33850323D01*
X36188002Y34112568D01*
X36345702Y34348583D01*
X36546417Y34549298D01*
X36782432Y34706998D01*
X36936051Y34770629D01*
X37044676Y34815623D01*
X37183875Y34843312D01*
X37323073Y34871000D01*
X37606927Y34871000D01*
X37746125Y34843311D01*
G37*
G36*
X27826125Y34843311D02*
G01*
X27965324Y34815623D01*
X28073949Y34770629D01*
X28227568Y34706998D01*
X28463583Y34549298D01*
X28664298Y34348583D01*
X28821998Y34112568D01*
X28930623Y33850323D01*
X28986000Y33571927D01*
X28986000Y33288073D01*
X28930623Y33009677D01*
X28821998Y32747432D01*
X28664298Y32511417D01*
X28463583Y32310702D01*
X28227568Y32153002D01*
X28103030Y32101417D01*
X27965324Y32044377D01*
X27826125Y32016688D01*
X27686927Y31989000D01*
X27403073Y31989000D01*
X27263875Y32016688D01*
X27124676Y32044377D01*
X26986970Y32101417D01*
X26862432Y32153002D01*
X26626417Y32310702D01*
X26425702Y32511417D01*
X26268002Y32747432D01*
X26159377Y33009677D01*
X26104000Y33288073D01*
X26104000Y33571927D01*
X26159377Y33850323D01*
X26268002Y34112568D01*
X26425702Y34348583D01*
X26626417Y34549298D01*
X26862432Y34706998D01*
X27016051Y34770629D01*
X27124676Y34815623D01*
X27263875Y34843311D01*
X27403073Y34871000D01*
X27686927Y34871000D01*
X27826125Y34843311D01*
G37*
G36*
X44506125Y36973312D02*
G01*
X44645324Y36945623D01*
X44753949Y36900629D01*
X44907568Y36836998D01*
X45143583Y36679298D01*
X45344298Y36478583D01*
X45501998Y36242568D01*
X45541404Y36147432D01*
X45610623Y35980324D01*
X45624330Y35911416D01*
X45664255Y35710702D01*
X45666000Y35701926D01*
X45666000Y35418074D01*
X45611285Y35143002D01*
X45610623Y35139677D01*
X45501998Y34877432D01*
X45344298Y34641417D01*
X45143583Y34440702D01*
X44907568Y34283002D01*
X44753949Y34219371D01*
X44645324Y34174377D01*
X44506125Y34146688D01*
X44366927Y34119000D01*
X44083073Y34119000D01*
X43943875Y34146688D01*
X43804676Y34174377D01*
X43696051Y34219371D01*
X43542432Y34283002D01*
X43306417Y34440702D01*
X43105702Y34641417D01*
X42948002Y34877432D01*
X42839377Y35139677D01*
X42838716Y35143002D01*
X42784000Y35418074D01*
X42784000Y35701926D01*
X42785746Y35710702D01*
X42825670Y35911416D01*
X42839377Y35980324D01*
X42908596Y36147432D01*
X42948002Y36242568D01*
X43105702Y36478583D01*
X43306417Y36679298D01*
X43542432Y36836998D01*
X43696051Y36900629D01*
X43804676Y36945623D01*
X43943875Y36973312D01*
X44083073Y37001000D01*
X44366927Y37001000D01*
X44506125Y36973312D01*
G37*
G36*
X47906125Y36973312D02*
G01*
X48045324Y36945623D01*
X48153949Y36900629D01*
X48307568Y36836998D01*
X48543583Y36679298D01*
X48744298Y36478583D01*
X48901998Y36242568D01*
X48941404Y36147432D01*
X49010623Y35980324D01*
X49024330Y35911416D01*
X49064255Y35710702D01*
X49066000Y35701926D01*
X49066000Y35418074D01*
X49011285Y35143002D01*
X49010623Y35139677D01*
X48901998Y34877432D01*
X48744298Y34641417D01*
X48543583Y34440702D01*
X48307568Y34283002D01*
X48153949Y34219371D01*
X48045324Y34174377D01*
X47906125Y34146688D01*
X47766927Y34119000D01*
X47483073Y34119000D01*
X47343875Y34146688D01*
X47204676Y34174377D01*
X47096051Y34219371D01*
X46942432Y34283002D01*
X46706417Y34440702D01*
X46505702Y34641417D01*
X46348002Y34877432D01*
X46239377Y35139677D01*
X46238716Y35143002D01*
X46184000Y35418074D01*
X46184000Y35701926D01*
X46185746Y35710702D01*
X46225670Y35911416D01*
X46239377Y35980324D01*
X46308596Y36147432D01*
X46348002Y36242568D01*
X46505702Y36478583D01*
X46706417Y36679298D01*
X46942432Y36836998D01*
X47096051Y36900629D01*
X47204676Y36945623D01*
X47343875Y36973312D01*
X47483073Y37001000D01*
X47766927Y37001000D01*
X47906125Y36973312D01*
G37*
G36*
X55493228Y36378297D02*
G01*
X55648100Y36314147D01*
X55787481Y36221015D01*
X55906015Y36102481D01*
X55999147Y35963100D01*
X56063297Y35808228D01*
X56096000Y35643816D01*
X56096000Y35476184D01*
X56063297Y35311772D01*
X55999147Y35156900D01*
X55906015Y35017519D01*
X55787481Y34898985D01*
X55648100Y34805853D01*
X55493228Y34741703D01*
X55328816Y34709000D01*
X55161184Y34709000D01*
X54996772Y34741703D01*
X54841900Y34805853D01*
X54702519Y34898985D01*
X54583985Y35017519D01*
X54490853Y35156900D01*
X54426703Y35311772D01*
X54394000Y35476184D01*
X54394000Y35643816D01*
X54426703Y35808228D01*
X54490853Y35963100D01*
X54583985Y36102481D01*
X54702519Y36221015D01*
X54841900Y36314147D01*
X54996772Y36378297D01*
X55161184Y36411000D01*
X55328816Y36411000D01*
X55493228Y36378297D01*
G37*
G36*
X10046125Y37833311D02*
G01*
X10185324Y37805623D01*
X10293949Y37760629D01*
X10447568Y37696998D01*
X10683583Y37539298D01*
X10884298Y37338583D01*
X11041998Y37102568D01*
X11096111Y36971927D01*
X11150623Y36840324D01*
X11151285Y36836997D01*
X11206000Y36561927D01*
X11206000Y36278073D01*
X11194650Y36221015D01*
X11150623Y35999676D01*
X11135471Y35963097D01*
X11041998Y35737432D01*
X10884298Y35501417D01*
X10683583Y35300702D01*
X10447568Y35143002D01*
X10293949Y35079371D01*
X10185324Y35034377D01*
X10100578Y35017520D01*
X9906927Y34979000D01*
X9623073Y34979000D01*
X9429422Y35017520D01*
X9344676Y35034377D01*
X9236051Y35079371D01*
X9082432Y35143002D01*
X8846417Y35300702D01*
X8645702Y35501417D01*
X8488002Y35737432D01*
X8394529Y35963097D01*
X8379377Y35999676D01*
X8335350Y36221015D01*
X8324000Y36278073D01*
X8324000Y36561927D01*
X8378715Y36836997D01*
X8379377Y36840324D01*
X8433889Y36971927D01*
X8488002Y37102568D01*
X8645702Y37338583D01*
X8846417Y37539298D01*
X9082432Y37696998D01*
X9236051Y37760629D01*
X9344676Y37805623D01*
X9483875Y37833311D01*
X9623073Y37861000D01*
X9906927Y37861000D01*
X10046125Y37833311D01*
G37*
G36*
X19966125Y37833311D02*
G01*
X20105324Y37805623D01*
X20213949Y37760629D01*
X20367568Y37696998D01*
X20603583Y37539298D01*
X20804298Y37338583D01*
X20961998Y37102568D01*
X21016111Y36971927D01*
X21070623Y36840324D01*
X21071285Y36836997D01*
X21126000Y36561927D01*
X21126000Y36278073D01*
X21114650Y36221015D01*
X21070623Y35999676D01*
X21055471Y35963097D01*
X20961998Y35737432D01*
X20804298Y35501417D01*
X20603583Y35300702D01*
X20367568Y35143002D01*
X20213949Y35079371D01*
X20105324Y35034377D01*
X20020578Y35017520D01*
X19826927Y34979000D01*
X19543073Y34979000D01*
X19349422Y35017520D01*
X19264676Y35034377D01*
X19156051Y35079371D01*
X19002432Y35143002D01*
X18766417Y35300702D01*
X18565702Y35501417D01*
X18408002Y35737432D01*
X18314529Y35963097D01*
X18299377Y35999676D01*
X18255350Y36221015D01*
X18244000Y36278073D01*
X18244000Y36561927D01*
X18298715Y36836997D01*
X18299377Y36840324D01*
X18353889Y36971927D01*
X18408002Y37102568D01*
X18565702Y37338583D01*
X18766417Y37539298D01*
X19002432Y37696998D01*
X19156051Y37760629D01*
X19264676Y37805623D01*
X19403875Y37833311D01*
X19543073Y37861000D01*
X19826927Y37861000D01*
X19966125Y37833311D01*
G37*
G36*
X37746125Y38243312D02*
G01*
X37885324Y38215623D01*
X37993949Y38170629D01*
X38147568Y38106998D01*
X38383583Y37949298D01*
X38584298Y37748583D01*
X38741998Y37512568D01*
X38850623Y37250323D01*
X38906000Y36971927D01*
X38906000Y36688073D01*
X38904254Y36679297D01*
X38852478Y36419000D01*
X38850623Y36409677D01*
X38741998Y36147432D01*
X38584298Y35911417D01*
X38383583Y35710702D01*
X38147568Y35553002D01*
X38023030Y35501417D01*
X37885324Y35444377D01*
X37753090Y35418074D01*
X37606927Y35389000D01*
X37323073Y35389000D01*
X37176910Y35418074D01*
X37044676Y35444377D01*
X36906970Y35501417D01*
X36782432Y35553002D01*
X36546417Y35710702D01*
X36345702Y35911417D01*
X36188002Y36147432D01*
X36079377Y36409677D01*
X36077523Y36419000D01*
X36025746Y36679297D01*
X36024000Y36688073D01*
X36024000Y36971927D01*
X36079377Y37250323D01*
X36188002Y37512568D01*
X36345702Y37748583D01*
X36546417Y37949298D01*
X36782432Y38106998D01*
X36936051Y38170629D01*
X37044676Y38215623D01*
X37183875Y38243312D01*
X37323073Y38271000D01*
X37606927Y38271000D01*
X37746125Y38243312D01*
G37*
G36*
X27826125Y38243312D02*
G01*
X27965324Y38215623D01*
X28073949Y38170629D01*
X28227568Y38106998D01*
X28463583Y37949298D01*
X28664298Y37748583D01*
X28821998Y37512568D01*
X28930623Y37250323D01*
X28986000Y36971927D01*
X28986000Y36688073D01*
X28984254Y36679297D01*
X28932478Y36419000D01*
X28930623Y36409677D01*
X28821998Y36147432D01*
X28664298Y35911417D01*
X28463583Y35710702D01*
X28227568Y35553002D01*
X28103030Y35501417D01*
X27965324Y35444377D01*
X27833090Y35418074D01*
X27686927Y35389000D01*
X27403073Y35389000D01*
X27256910Y35418074D01*
X27124676Y35444377D01*
X26986970Y35501417D01*
X26862432Y35553002D01*
X26626417Y35710702D01*
X26425702Y35911417D01*
X26268002Y36147432D01*
X26159377Y36409677D01*
X26157523Y36419000D01*
X26105746Y36679297D01*
X26104000Y36688073D01*
X26104000Y36971927D01*
X26159377Y37250323D01*
X26268002Y37512568D01*
X26425702Y37748583D01*
X26626417Y37949298D01*
X26862432Y38106998D01*
X27016051Y38170629D01*
X27124676Y38215623D01*
X27263875Y38243312D01*
X27403073Y38271000D01*
X27686927Y38271000D01*
X27826125Y38243312D01*
G37*
G36*
X98296125Y39273312D02*
G01*
X98435324Y39245623D01*
X98543949Y39200629D01*
X98697568Y39136998D01*
X98933583Y38979298D01*
X99134298Y38778583D01*
X99291998Y38542568D01*
X99355629Y38388949D01*
X99400623Y38280324D01*
X99413493Y38215623D01*
X99456000Y38001927D01*
X99456000Y37718073D01*
X99400623Y37439677D01*
X99291998Y37177432D01*
X99134298Y36941417D01*
X98933583Y36740702D01*
X98697568Y36583002D01*
X98543949Y36519371D01*
X98435324Y36474377D01*
X98296125Y36446689D01*
X98156927Y36419000D01*
X97873073Y36419000D01*
X97733875Y36446688D01*
X97594676Y36474377D01*
X97486051Y36519371D01*
X97332432Y36583002D01*
X97096417Y36740702D01*
X96895702Y36941417D01*
X96738002Y37177432D01*
X96629377Y37439677D01*
X96574000Y37718073D01*
X96574000Y38001927D01*
X96616507Y38215623D01*
X96629377Y38280324D01*
X96674371Y38388949D01*
X96738002Y38542568D01*
X96895702Y38778583D01*
X97096417Y38979298D01*
X97332432Y39136998D01*
X97486051Y39200629D01*
X97594676Y39245623D01*
X97733875Y39273312D01*
X97873073Y39301000D01*
X98156927Y39301000D01*
X98296125Y39273312D01*
G37*
G36*
X94896125Y39273312D02*
G01*
X95035324Y39245623D01*
X95143949Y39200629D01*
X95297568Y39136998D01*
X95533583Y38979298D01*
X95734298Y38778583D01*
X95891998Y38542568D01*
X95955629Y38388949D01*
X96000623Y38280324D01*
X96013493Y38215623D01*
X96056000Y38001927D01*
X96056000Y37718073D01*
X96000623Y37439677D01*
X95891998Y37177432D01*
X95734298Y36941417D01*
X95533583Y36740702D01*
X95297568Y36583002D01*
X95143949Y36519371D01*
X95035324Y36474377D01*
X94896125Y36446689D01*
X94756927Y36419000D01*
X94473073Y36419000D01*
X94333875Y36446688D01*
X94194676Y36474377D01*
X94086051Y36519371D01*
X93932432Y36583002D01*
X93696417Y36740702D01*
X93495702Y36941417D01*
X93338002Y37177432D01*
X93229377Y37439677D01*
X93174000Y37718073D01*
X93174000Y38001927D01*
X93216507Y38215623D01*
X93229377Y38280324D01*
X93274371Y38388949D01*
X93338002Y38542568D01*
X93495702Y38778583D01*
X93696417Y38979298D01*
X93932432Y39136998D01*
X94086051Y39200629D01*
X94194676Y39245623D01*
X94333875Y39273312D01*
X94473073Y39301000D01*
X94756927Y39301000D01*
X94896125Y39273312D01*
G37*
G36*
X44277550Y44593311D02*
G01*
X44416749Y44565623D01*
X44525374Y44520629D01*
X44678993Y44456998D01*
X44915008Y44299298D01*
X45115723Y44098583D01*
X45273423Y43862568D01*
X45323635Y43741344D01*
X45382048Y43600324D01*
X45437425Y43321926D01*
X45437425Y43038074D01*
X45382048Y42759676D01*
X45337054Y42651051D01*
X45273423Y42497432D01*
X45115723Y42261417D01*
X44915008Y42060702D01*
X44678993Y41903002D01*
X44525374Y41839371D01*
X44416749Y41794377D01*
X44277550Y41766688D01*
X44138352Y41739000D01*
X43854498Y41739000D01*
X43715300Y41766688D01*
X43576101Y41794377D01*
X43467476Y41839371D01*
X43313857Y41903002D01*
X43077842Y42060702D01*
X42877127Y42261417D01*
X42719427Y42497432D01*
X42655796Y42651051D01*
X42610802Y42759676D01*
X42555425Y43038074D01*
X42555425Y43321926D01*
X42610802Y43600324D01*
X42669215Y43741344D01*
X42719427Y43862568D01*
X42877127Y44098583D01*
X43077842Y44299298D01*
X43313857Y44456998D01*
X43467476Y44520629D01*
X43576101Y44565623D01*
X43715300Y44593311D01*
X43854498Y44621000D01*
X44138352Y44621000D01*
X44277550Y44593311D01*
G37*
G36*
X56386125Y44593311D02*
G01*
X56525324Y44565623D01*
X56633949Y44520629D01*
X56787568Y44456998D01*
X57023583Y44299298D01*
X57224298Y44098583D01*
X57381998Y43862568D01*
X57432210Y43741344D01*
X57490623Y43600324D01*
X57546000Y43321926D01*
X57546000Y43038074D01*
X57490623Y42759676D01*
X57445629Y42651051D01*
X57381998Y42497432D01*
X57224298Y42261417D01*
X57023583Y42060702D01*
X56787568Y41903002D01*
X56633949Y41839371D01*
X56525324Y41794377D01*
X56386125Y41766688D01*
X56246927Y41739000D01*
X55963073Y41739000D01*
X55823875Y41766688D01*
X55684676Y41794377D01*
X55576051Y41839371D01*
X55422432Y41903002D01*
X55186417Y42060702D01*
X54985702Y42261417D01*
X54828002Y42497432D01*
X54764371Y42651051D01*
X54719377Y42759676D01*
X54664000Y43038074D01*
X54664000Y43321926D01*
X54719377Y43600324D01*
X54777790Y43741344D01*
X54828002Y43862568D01*
X54985702Y44098583D01*
X55186417Y44299298D01*
X55422432Y44456998D01*
X55576051Y44520629D01*
X55684676Y44565623D01*
X55823875Y44593311D01*
X55963073Y44621000D01*
X56246927Y44621000D01*
X56386125Y44593311D01*
G37*
G36*
X52986125Y44593311D02*
G01*
X53125324Y44565623D01*
X53233949Y44520629D01*
X53387568Y44456998D01*
X53623583Y44299298D01*
X53824298Y44098583D01*
X53981998Y43862568D01*
X54032210Y43741344D01*
X54090623Y43600324D01*
X54146000Y43321926D01*
X54146000Y43038074D01*
X54090623Y42759676D01*
X54045629Y42651051D01*
X53981998Y42497432D01*
X53824298Y42261417D01*
X53623583Y42060702D01*
X53387568Y41903002D01*
X53233949Y41839371D01*
X53125324Y41794377D01*
X52986125Y41766688D01*
X52846927Y41739000D01*
X52563073Y41739000D01*
X52423875Y41766688D01*
X52284676Y41794377D01*
X52176051Y41839371D01*
X52022432Y41903002D01*
X51786417Y42060702D01*
X51585702Y42261417D01*
X51428002Y42497432D01*
X51364371Y42651051D01*
X51319377Y42759676D01*
X51264000Y43038074D01*
X51264000Y43321926D01*
X51319377Y43600324D01*
X51377790Y43741344D01*
X51428002Y43862568D01*
X51585702Y44098583D01*
X51786417Y44299298D01*
X52022432Y44456998D01*
X52176051Y44520629D01*
X52284676Y44565623D01*
X52423875Y44593311D01*
X52563073Y44621000D01*
X52846927Y44621000D01*
X52986125Y44593311D01*
G37*
G36*
X47677550Y44593311D02*
G01*
X47816749Y44565623D01*
X47925374Y44520629D01*
X48078993Y44456998D01*
X48315008Y44299298D01*
X48515723Y44098583D01*
X48673423Y43862568D01*
X48723635Y43741344D01*
X48782048Y43600324D01*
X48837425Y43321926D01*
X48837425Y43038074D01*
X48782048Y42759676D01*
X48737054Y42651051D01*
X48673423Y42497432D01*
X48515723Y42261417D01*
X48315008Y42060702D01*
X48078993Y41903002D01*
X47925374Y41839371D01*
X47816749Y41794377D01*
X47677550Y41766688D01*
X47538352Y41739000D01*
X47254498Y41739000D01*
X47115300Y41766688D01*
X46976101Y41794377D01*
X46867476Y41839371D01*
X46713857Y41903002D01*
X46477842Y42060702D01*
X46277127Y42261417D01*
X46119427Y42497432D01*
X46055796Y42651051D01*
X46010802Y42759676D01*
X45955425Y43038074D01*
X45955425Y43321926D01*
X46010802Y43600324D01*
X46069215Y43741344D01*
X46119427Y43862568D01*
X46277127Y44098583D01*
X46477842Y44299298D01*
X46713857Y44456998D01*
X46867476Y44520629D01*
X46976101Y44565623D01*
X47115300Y44593311D01*
X47254498Y44621000D01*
X47538352Y44621000D01*
X47677550Y44593311D01*
G37*
G36*
X19784695Y44593311D02*
G01*
X19923894Y44565623D01*
X20032519Y44520629D01*
X20186138Y44456998D01*
X20422153Y44299298D01*
X20622868Y44098583D01*
X20780568Y43862568D01*
X20830780Y43741344D01*
X20889193Y43600324D01*
X20944570Y43321926D01*
X20944570Y43038074D01*
X20889193Y42759676D01*
X20844199Y42651051D01*
X20780568Y42497432D01*
X20622868Y42261417D01*
X20422153Y42060702D01*
X20186138Y41903002D01*
X20032519Y41839371D01*
X19923894Y41794377D01*
X19784695Y41766688D01*
X19645497Y41739000D01*
X19361643Y41739000D01*
X19222445Y41766688D01*
X19083246Y41794377D01*
X18974621Y41839371D01*
X18821002Y41903002D01*
X18584987Y42060702D01*
X18384272Y42261417D01*
X18226572Y42497432D01*
X18162941Y42651051D01*
X18117947Y42759676D01*
X18062570Y43038074D01*
X18062570Y43321926D01*
X18117947Y43600324D01*
X18176360Y43741344D01*
X18226572Y43862568D01*
X18384272Y44098583D01*
X18584987Y44299298D01*
X18821002Y44456998D01*
X18974621Y44520629D01*
X19083246Y44565623D01*
X19222445Y44593311D01*
X19361643Y44621000D01*
X19645497Y44621000D01*
X19784695Y44593311D01*
G37*
G36*
X23184695Y44593311D02*
G01*
X23323894Y44565623D01*
X23432519Y44520629D01*
X23586138Y44456998D01*
X23822153Y44299298D01*
X24022868Y44098583D01*
X24180568Y43862568D01*
X24230780Y43741344D01*
X24289193Y43600324D01*
X24344570Y43321926D01*
X24344570Y43038074D01*
X24289193Y42759676D01*
X24244199Y42651051D01*
X24180568Y42497432D01*
X24022868Y42261417D01*
X23822153Y42060702D01*
X23586138Y41903002D01*
X23432519Y41839371D01*
X23323894Y41794377D01*
X23184695Y41766688D01*
X23045497Y41739000D01*
X22761643Y41739000D01*
X22622445Y41766688D01*
X22483246Y41794377D01*
X22374621Y41839371D01*
X22221002Y41903002D01*
X21984987Y42060702D01*
X21784272Y42261417D01*
X21626572Y42497432D01*
X21562941Y42651051D01*
X21517947Y42759676D01*
X21462570Y43038074D01*
X21462570Y43321926D01*
X21517947Y43600324D01*
X21576360Y43741344D01*
X21626572Y43862568D01*
X21784272Y44098583D01*
X21984987Y44299298D01*
X22221002Y44456998D01*
X22374621Y44520629D01*
X22483246Y44565623D01*
X22622445Y44593311D01*
X22761643Y44621000D01*
X23045497Y44621000D01*
X23184695Y44593311D01*
G37*
G36*
X27948980Y44593311D02*
G01*
X28088179Y44565623D01*
X28196804Y44520629D01*
X28350423Y44456998D01*
X28586438Y44299298D01*
X28787153Y44098583D01*
X28944853Y43862568D01*
X28995065Y43741344D01*
X29053478Y43600324D01*
X29108855Y43321926D01*
X29108855Y43038074D01*
X29053478Y42759676D01*
X29008484Y42651051D01*
X28944853Y42497432D01*
X28787153Y42261417D01*
X28586438Y42060702D01*
X28350423Y41903002D01*
X28196804Y41839371D01*
X28088179Y41794377D01*
X27948980Y41766688D01*
X27809782Y41739000D01*
X27525928Y41739000D01*
X27386730Y41766688D01*
X27247531Y41794377D01*
X27138906Y41839371D01*
X26985287Y41903002D01*
X26749272Y42060702D01*
X26548557Y42261417D01*
X26390857Y42497432D01*
X26327226Y42651051D01*
X26282232Y42759676D01*
X26226855Y43038074D01*
X26226855Y43321926D01*
X26282232Y43600324D01*
X26340645Y43741344D01*
X26390857Y43862568D01*
X26548557Y44098583D01*
X26749272Y44299298D01*
X26985287Y44456998D01*
X27138906Y44520629D01*
X27247531Y44565623D01*
X27386730Y44593311D01*
X27525928Y44621000D01*
X27809782Y44621000D01*
X27948980Y44593311D01*
G37*
G36*
X31348980Y44593311D02*
G01*
X31488179Y44565623D01*
X31596804Y44520629D01*
X31750423Y44456998D01*
X31986438Y44299298D01*
X32187153Y44098583D01*
X32344853Y43862568D01*
X32395065Y43741344D01*
X32453478Y43600324D01*
X32508855Y43321926D01*
X32508855Y43038074D01*
X32453478Y42759676D01*
X32408484Y42651051D01*
X32344853Y42497432D01*
X32187153Y42261417D01*
X31986438Y42060702D01*
X31750423Y41903002D01*
X31596804Y41839371D01*
X31488179Y41794377D01*
X31348980Y41766688D01*
X31209782Y41739000D01*
X30925928Y41739000D01*
X30786730Y41766688D01*
X30647531Y41794377D01*
X30538906Y41839371D01*
X30385287Y41903002D01*
X30149272Y42060702D01*
X29948557Y42261417D01*
X29790857Y42497432D01*
X29727226Y42651051D01*
X29682232Y42759676D01*
X29626855Y43038074D01*
X29626855Y43321926D01*
X29682232Y43600324D01*
X29740645Y43741344D01*
X29790857Y43862568D01*
X29948557Y44098583D01*
X30149272Y44299298D01*
X30385287Y44456998D01*
X30538906Y44520629D01*
X30647531Y44565623D01*
X30786730Y44593311D01*
X30925928Y44621000D01*
X31209782Y44621000D01*
X31348980Y44593311D01*
G37*
G36*
X15020410Y44593311D02*
G01*
X15159609Y44565623D01*
X15268234Y44520629D01*
X15421853Y44456998D01*
X15657868Y44299298D01*
X15858583Y44098583D01*
X16016283Y43862568D01*
X16066495Y43741344D01*
X16124908Y43600324D01*
X16180285Y43321926D01*
X16180285Y43038074D01*
X16124908Y42759676D01*
X16079914Y42651051D01*
X16016283Y42497432D01*
X15858583Y42261417D01*
X15657868Y42060702D01*
X15421853Y41903002D01*
X15268234Y41839371D01*
X15159609Y41794377D01*
X15020410Y41766688D01*
X14881212Y41739000D01*
X14597358Y41739000D01*
X14458160Y41766688D01*
X14318961Y41794377D01*
X14210336Y41839371D01*
X14056717Y41903002D01*
X13820702Y42060702D01*
X13619987Y42261417D01*
X13462287Y42497432D01*
X13398656Y42651051D01*
X13353662Y42759676D01*
X13298285Y43038074D01*
X13298285Y43321926D01*
X13353662Y43600324D01*
X13412075Y43741344D01*
X13462287Y43862568D01*
X13619987Y44098583D01*
X13820702Y44299298D01*
X14056717Y44456998D01*
X14210336Y44520629D01*
X14318961Y44565623D01*
X14458160Y44593311D01*
X14597358Y44621000D01*
X14881212Y44621000D01*
X15020410Y44593311D01*
G37*
G36*
X11620410Y44593311D02*
G01*
X11759609Y44565623D01*
X11868234Y44520629D01*
X12021853Y44456998D01*
X12257868Y44299298D01*
X12458583Y44098583D01*
X12616283Y43862568D01*
X12666495Y43741344D01*
X12724908Y43600324D01*
X12780285Y43321926D01*
X12780285Y43038074D01*
X12724908Y42759676D01*
X12679914Y42651051D01*
X12616283Y42497432D01*
X12458583Y42261417D01*
X12257868Y42060702D01*
X12021853Y41903002D01*
X11868234Y41839371D01*
X11759609Y41794377D01*
X11620410Y41766688D01*
X11481212Y41739000D01*
X11197358Y41739000D01*
X11058160Y41766688D01*
X10918961Y41794377D01*
X10810336Y41839371D01*
X10656717Y41903002D01*
X10420702Y42060702D01*
X10219987Y42261417D01*
X10062287Y42497432D01*
X9998656Y42651051D01*
X9953662Y42759676D01*
X9898285Y43038074D01*
X9898285Y43321926D01*
X9953662Y43600324D01*
X10012075Y43741344D01*
X10062287Y43862568D01*
X10219987Y44098583D01*
X10420702Y44299298D01*
X10656717Y44456998D01*
X10810336Y44520629D01*
X10918961Y44565623D01*
X11058160Y44593311D01*
X11197358Y44621000D01*
X11481212Y44621000D01*
X11620410Y44593311D01*
G37*
G36*
X39513265Y44593311D02*
G01*
X39652464Y44565623D01*
X39761089Y44520629D01*
X39914708Y44456998D01*
X40150723Y44299298D01*
X40351438Y44098583D01*
X40509138Y43862568D01*
X40559350Y43741344D01*
X40617763Y43600324D01*
X40673140Y43321926D01*
X40673140Y43038074D01*
X40617763Y42759676D01*
X40572769Y42651051D01*
X40509138Y42497432D01*
X40351438Y42261417D01*
X40150723Y42060702D01*
X39914708Y41903002D01*
X39761089Y41839371D01*
X39652464Y41794377D01*
X39513265Y41766688D01*
X39374067Y41739000D01*
X39090213Y41739000D01*
X38951015Y41766688D01*
X38811816Y41794377D01*
X38703191Y41839371D01*
X38549572Y41903002D01*
X38313557Y42060702D01*
X38112842Y42261417D01*
X37955142Y42497432D01*
X37891511Y42651051D01*
X37846517Y42759676D01*
X37791140Y43038074D01*
X37791140Y43321926D01*
X37846517Y43600324D01*
X37904930Y43741344D01*
X37955142Y43862568D01*
X38112842Y44098583D01*
X38313557Y44299298D01*
X38549572Y44456998D01*
X38703191Y44520629D01*
X38811816Y44565623D01*
X38951015Y44593311D01*
X39090213Y44621000D01*
X39374067Y44621000D01*
X39513265Y44593311D01*
G37*
G36*
X36113265Y44593311D02*
G01*
X36252464Y44565623D01*
X36361089Y44520629D01*
X36514708Y44456998D01*
X36750723Y44299298D01*
X36951438Y44098583D01*
X37109138Y43862568D01*
X37159350Y43741344D01*
X37217763Y43600324D01*
X37273140Y43321926D01*
X37273140Y43038074D01*
X37217763Y42759676D01*
X37172769Y42651051D01*
X37109138Y42497432D01*
X36951438Y42261417D01*
X36750723Y42060702D01*
X36514708Y41903002D01*
X36361089Y41839371D01*
X36252464Y41794377D01*
X36113265Y41766688D01*
X35974067Y41739000D01*
X35690213Y41739000D01*
X35551015Y41766688D01*
X35411816Y41794377D01*
X35303191Y41839371D01*
X35149572Y41903002D01*
X34913557Y42060702D01*
X34712842Y42261417D01*
X34555142Y42497432D01*
X34491511Y42651051D01*
X34446517Y42759676D01*
X34391140Y43038074D01*
X34391140Y43321926D01*
X34446517Y43600324D01*
X34504930Y43741344D01*
X34555142Y43862568D01*
X34712842Y44098583D01*
X34913557Y44299298D01*
X35149572Y44456998D01*
X35303191Y44520629D01*
X35411816Y44565623D01*
X35551015Y44593311D01*
X35690213Y44621000D01*
X35974067Y44621000D01*
X36113265Y44593311D01*
G37*
G36*
X96203433Y45515107D02*
G01*
X96293657Y45497161D01*
X96399267Y45453415D01*
X96548621Y45391551D01*
X96548622Y45391550D01*
X96778086Y45238228D01*
X96973228Y45043086D01*
X97075675Y44889763D01*
X97126551Y44813621D01*
X97188415Y44664267D01*
X97229276Y44565623D01*
X97232161Y44558656D01*
X97286000Y44287988D01*
X97286000Y44012012D01*
X97232161Y43741344D01*
X97126551Y43486379D01*
X97126550Y43486378D01*
X96973228Y43256914D01*
X96778086Y43061772D01*
X96624763Y42959325D01*
X96548621Y42908449D01*
X96399267Y42846585D01*
X96293657Y42802839D01*
X96203433Y42784893D01*
X96022988Y42749000D01*
X95747012Y42749000D01*
X95566567Y42784893D01*
X95476343Y42802839D01*
X95370733Y42846585D01*
X95221379Y42908449D01*
X95145237Y42959325D01*
X94991914Y43061772D01*
X94796772Y43256914D01*
X94643450Y43486378D01*
X94643449Y43486379D01*
X94537839Y43741344D01*
X94484000Y44012012D01*
X94484000Y44287988D01*
X94537839Y44558656D01*
X94540725Y44565623D01*
X94581585Y44664267D01*
X94643449Y44813621D01*
X94694325Y44889763D01*
X94796772Y45043086D01*
X94991914Y45238228D01*
X95221378Y45391550D01*
X95221379Y45391551D01*
X95370733Y45453415D01*
X95476343Y45497161D01*
X95566567Y45515107D01*
X95747012Y45551000D01*
X96022988Y45551000D01*
X96203433Y45515107D01*
G37*
G36*
X97159031Y53467379D02*
G01*
X97188486Y53458444D01*
X97215623Y53443938D01*
X97239414Y53424414D01*
X97258938Y53400623D01*
X97273444Y53373486D01*
X97282379Y53344031D01*
X97286000Y53307266D01*
X97286000Y50832734D01*
X97282379Y50795969D01*
X97273444Y50766514D01*
X97258938Y50739377D01*
X97239414Y50715586D01*
X97215623Y50696062D01*
X97188486Y50681556D01*
X97159031Y50672621D01*
X97122266Y50669000D01*
X94647734Y50669000D01*
X94610969Y50672621D01*
X94581514Y50681556D01*
X94554377Y50696062D01*
X94530586Y50715586D01*
X94511062Y50739377D01*
X94496556Y50766514D01*
X94487621Y50795969D01*
X94484000Y50832734D01*
X94484000Y53307266D01*
X94487621Y53344031D01*
X94496556Y53373486D01*
X94511062Y53400623D01*
X94530586Y53424414D01*
X94554377Y53443938D01*
X94581514Y53458444D01*
X94610969Y53467379D01*
X94647734Y53471000D01*
X97122266Y53471000D01*
X97159031Y53467379D01*
G37*
G36*
X73919499Y51956555D02*
G01*
X73956995Y51945180D01*
X73991554Y51926708D01*
X74021847Y51901847D01*
X74046708Y51871554D01*
X74065180Y51836995D01*
X74076555Y51799499D01*
X74081000Y51754362D01*
X74081000Y51115638D01*
X74076555Y51070501D01*
X74065180Y51033005D01*
X74046708Y50998446D01*
X74021847Y50968153D01*
X73991554Y50943292D01*
X73956995Y50924820D01*
X73919499Y50913445D01*
X73874362Y50909000D01*
X73135638Y50909000D01*
X73090501Y50913445D01*
X73053005Y50924820D01*
X73018446Y50943292D01*
X72988153Y50968153D01*
X72963292Y50998446D01*
X72944820Y51033005D01*
X72933445Y51070501D01*
X72929000Y51115638D01*
X72929000Y51754362D01*
X72933445Y51799499D01*
X72944820Y51836995D01*
X72963292Y51871554D01*
X72988153Y51901847D01*
X73018446Y51926708D01*
X73053005Y51945180D01*
X73090501Y51956555D01*
X73135638Y51961000D01*
X73874362Y51961000D01*
X73919499Y51956555D01*
G37*
G36*
X72169499Y51956555D02*
G01*
X72206995Y51945180D01*
X72241554Y51926708D01*
X72271847Y51901847D01*
X72296708Y51871554D01*
X72315180Y51836995D01*
X72326555Y51799499D01*
X72331000Y51754362D01*
X72331000Y51115638D01*
X72326555Y51070501D01*
X72315180Y51033005D01*
X72296708Y50998446D01*
X72271847Y50968153D01*
X72241554Y50943292D01*
X72206995Y50924820D01*
X72169499Y50913445D01*
X72124362Y50909000D01*
X71385638Y50909000D01*
X71340501Y50913445D01*
X71303005Y50924820D01*
X71268446Y50943292D01*
X71238153Y50968153D01*
X71213292Y50998446D01*
X71194820Y51033005D01*
X71183445Y51070501D01*
X71179000Y51115638D01*
X71179000Y51754362D01*
X71183445Y51799499D01*
X71194820Y51836995D01*
X71213292Y51871554D01*
X71238153Y51901847D01*
X71268446Y51926708D01*
X71303005Y51945180D01*
X71340501Y51956555D01*
X71385638Y51961000D01*
X72124362Y51961000D01*
X72169499Y51956555D01*
G37*
G36*
X36113265Y54513312D02*
G01*
X36252464Y54485623D01*
X36361089Y54440629D01*
X36514708Y54376998D01*
X36750723Y54219298D01*
X36951438Y54018583D01*
X37109138Y53782568D01*
X37172769Y53628949D01*
X37217763Y53520324D01*
X37232957Y53443938D01*
X37273140Y53241927D01*
X37273140Y52958073D01*
X37217763Y52679677D01*
X37109138Y52417432D01*
X36951438Y52181417D01*
X36750723Y51980702D01*
X36514708Y51823002D01*
X36361089Y51759371D01*
X36252464Y51714377D01*
X36113265Y51686688D01*
X35974067Y51659000D01*
X35690213Y51659000D01*
X35551015Y51686688D01*
X35411816Y51714377D01*
X35303191Y51759371D01*
X35149572Y51823002D01*
X34913557Y51980702D01*
X34712842Y52181417D01*
X34555142Y52417432D01*
X34446517Y52679677D01*
X34391140Y52958073D01*
X34391140Y53241927D01*
X34431323Y53443938D01*
X34446517Y53520324D01*
X34491511Y53628949D01*
X34555142Y53782568D01*
X34712842Y54018583D01*
X34913557Y54219298D01*
X35149572Y54376998D01*
X35303191Y54440629D01*
X35411816Y54485623D01*
X35551015Y54513312D01*
X35690213Y54541000D01*
X35974067Y54541000D01*
X36113265Y54513312D01*
G37*
G36*
X52986125Y54513312D02*
G01*
X53125324Y54485623D01*
X53233949Y54440629D01*
X53387568Y54376998D01*
X53623583Y54219298D01*
X53824298Y54018583D01*
X53981998Y53782568D01*
X54045629Y53628949D01*
X54090623Y53520324D01*
X54105817Y53443938D01*
X54146000Y53241927D01*
X54146000Y52958073D01*
X54090623Y52679677D01*
X53981998Y52417432D01*
X53824298Y52181417D01*
X53623583Y51980702D01*
X53387568Y51823002D01*
X53233949Y51759371D01*
X53125324Y51714377D01*
X52986125Y51686688D01*
X52846927Y51659000D01*
X52563073Y51659000D01*
X52423875Y51686688D01*
X52284676Y51714377D01*
X52176051Y51759371D01*
X52022432Y51823002D01*
X51786417Y51980702D01*
X51585702Y52181417D01*
X51428002Y52417432D01*
X51319377Y52679677D01*
X51264000Y52958073D01*
X51264000Y53241927D01*
X51304183Y53443938D01*
X51319377Y53520324D01*
X51364371Y53628949D01*
X51428002Y53782568D01*
X51585702Y54018583D01*
X51786417Y54219298D01*
X52022432Y54376998D01*
X52176051Y54440629D01*
X52284676Y54485623D01*
X52423875Y54513312D01*
X52563073Y54541000D01*
X52846927Y54541000D01*
X52986125Y54513312D01*
G37*
G36*
X56386125Y54513312D02*
G01*
X56525324Y54485623D01*
X56633949Y54440629D01*
X56787568Y54376998D01*
X57023583Y54219298D01*
X57224298Y54018583D01*
X57381998Y53782568D01*
X57445629Y53628949D01*
X57490623Y53520324D01*
X57505817Y53443938D01*
X57546000Y53241927D01*
X57546000Y52958073D01*
X57490623Y52679677D01*
X57381998Y52417432D01*
X57224298Y52181417D01*
X57023583Y51980702D01*
X56787568Y51823002D01*
X56633949Y51759371D01*
X56525324Y51714377D01*
X56386125Y51686688D01*
X56246927Y51659000D01*
X55963073Y51659000D01*
X55823875Y51686688D01*
X55684676Y51714377D01*
X55576051Y51759371D01*
X55422432Y51823002D01*
X55186417Y51980702D01*
X54985702Y52181417D01*
X54828002Y52417432D01*
X54719377Y52679677D01*
X54664000Y52958073D01*
X54664000Y53241927D01*
X54704183Y53443938D01*
X54719377Y53520324D01*
X54764371Y53628949D01*
X54828002Y53782568D01*
X54985702Y54018583D01*
X55186417Y54219298D01*
X55422432Y54376998D01*
X55576051Y54440629D01*
X55684676Y54485623D01*
X55823875Y54513312D01*
X55963073Y54541000D01*
X56246927Y54541000D01*
X56386125Y54513312D01*
G37*
G36*
X47677550Y54513312D02*
G01*
X47816749Y54485623D01*
X47925374Y54440629D01*
X48078993Y54376998D01*
X48315008Y54219298D01*
X48515723Y54018583D01*
X48673423Y53782568D01*
X48737054Y53628949D01*
X48782048Y53520324D01*
X48797242Y53443938D01*
X48837425Y53241927D01*
X48837425Y52958073D01*
X48782048Y52679677D01*
X48673423Y52417432D01*
X48515723Y52181417D01*
X48315008Y51980702D01*
X48078993Y51823002D01*
X47925374Y51759371D01*
X47816749Y51714377D01*
X47677550Y51686688D01*
X47538352Y51659000D01*
X47254498Y51659000D01*
X47115300Y51686688D01*
X46976101Y51714377D01*
X46867476Y51759371D01*
X46713857Y51823002D01*
X46477842Y51980702D01*
X46277127Y52181417D01*
X46119427Y52417432D01*
X46010802Y52679677D01*
X45955425Y52958073D01*
X45955425Y53241927D01*
X45995608Y53443938D01*
X46010802Y53520324D01*
X46055796Y53628949D01*
X46119427Y53782568D01*
X46277127Y54018583D01*
X46477842Y54219298D01*
X46713857Y54376998D01*
X46867476Y54440629D01*
X46976101Y54485623D01*
X47115300Y54513312D01*
X47254498Y54541000D01*
X47538352Y54541000D01*
X47677550Y54513312D01*
G37*
G36*
X44277550Y54513312D02*
G01*
X44416749Y54485623D01*
X44525374Y54440629D01*
X44678993Y54376998D01*
X44915008Y54219298D01*
X45115723Y54018583D01*
X45273423Y53782568D01*
X45337054Y53628949D01*
X45382048Y53520324D01*
X45397242Y53443938D01*
X45437425Y53241927D01*
X45437425Y52958073D01*
X45382048Y52679677D01*
X45273423Y52417432D01*
X45115723Y52181417D01*
X44915008Y51980702D01*
X44678993Y51823002D01*
X44525374Y51759371D01*
X44416749Y51714377D01*
X44277550Y51686688D01*
X44138352Y51659000D01*
X43854498Y51659000D01*
X43715300Y51686688D01*
X43576101Y51714377D01*
X43467476Y51759371D01*
X43313857Y51823002D01*
X43077842Y51980702D01*
X42877127Y52181417D01*
X42719427Y52417432D01*
X42610802Y52679677D01*
X42555425Y52958073D01*
X42555425Y53241927D01*
X42595608Y53443938D01*
X42610802Y53520324D01*
X42655796Y53628949D01*
X42719427Y53782568D01*
X42877127Y54018583D01*
X43077842Y54219298D01*
X43313857Y54376998D01*
X43467476Y54440629D01*
X43576101Y54485623D01*
X43715300Y54513312D01*
X43854498Y54541000D01*
X44138352Y54541000D01*
X44277550Y54513312D01*
G37*
G36*
X15020410Y54513312D02*
G01*
X15159609Y54485623D01*
X15268234Y54440629D01*
X15421853Y54376998D01*
X15657868Y54219298D01*
X15858583Y54018583D01*
X16016283Y53782568D01*
X16079914Y53628949D01*
X16124908Y53520324D01*
X16140102Y53443938D01*
X16180285Y53241927D01*
X16180285Y52958073D01*
X16124908Y52679677D01*
X16016283Y52417432D01*
X15858583Y52181417D01*
X15657868Y51980702D01*
X15421853Y51823002D01*
X15268234Y51759371D01*
X15159609Y51714377D01*
X15020410Y51686688D01*
X14881212Y51659000D01*
X14597358Y51659000D01*
X14458160Y51686688D01*
X14318961Y51714377D01*
X14210336Y51759371D01*
X14056717Y51823002D01*
X13820702Y51980702D01*
X13619987Y52181417D01*
X13462287Y52417432D01*
X13353662Y52679677D01*
X13298285Y52958073D01*
X13298285Y53241927D01*
X13338468Y53443938D01*
X13353662Y53520324D01*
X13398656Y53628949D01*
X13462287Y53782568D01*
X13619987Y54018583D01*
X13820702Y54219298D01*
X14056717Y54376998D01*
X14210336Y54440629D01*
X14318961Y54485623D01*
X14458160Y54513312D01*
X14597358Y54541000D01*
X14881212Y54541000D01*
X15020410Y54513312D01*
G37*
G36*
X23184695Y54513312D02*
G01*
X23323894Y54485623D01*
X23432519Y54440629D01*
X23586138Y54376998D01*
X23822153Y54219298D01*
X24022868Y54018583D01*
X24180568Y53782568D01*
X24244199Y53628949D01*
X24289193Y53520324D01*
X24304387Y53443938D01*
X24344570Y53241927D01*
X24344570Y52958073D01*
X24289193Y52679677D01*
X24180568Y52417432D01*
X24022868Y52181417D01*
X23822153Y51980702D01*
X23586138Y51823002D01*
X23432519Y51759371D01*
X23323894Y51714377D01*
X23184695Y51686688D01*
X23045497Y51659000D01*
X22761643Y51659000D01*
X22622445Y51686688D01*
X22483246Y51714377D01*
X22374621Y51759371D01*
X22221002Y51823002D01*
X21984987Y51980702D01*
X21784272Y52181417D01*
X21626572Y52417432D01*
X21517947Y52679677D01*
X21462570Y52958073D01*
X21462570Y53241927D01*
X21502753Y53443938D01*
X21517947Y53520324D01*
X21562941Y53628949D01*
X21626572Y53782568D01*
X21784272Y54018583D01*
X21984987Y54219298D01*
X22221002Y54376998D01*
X22374621Y54440629D01*
X22483246Y54485623D01*
X22622445Y54513312D01*
X22761643Y54541000D01*
X23045497Y54541000D01*
X23184695Y54513312D01*
G37*
G36*
X27948980Y54513312D02*
G01*
X28088179Y54485623D01*
X28196804Y54440629D01*
X28350423Y54376998D01*
X28586438Y54219298D01*
X28787153Y54018583D01*
X28944853Y53782568D01*
X29008484Y53628949D01*
X29053478Y53520324D01*
X29068672Y53443938D01*
X29108855Y53241927D01*
X29108855Y52958073D01*
X29053478Y52679677D01*
X28944853Y52417432D01*
X28787153Y52181417D01*
X28586438Y51980702D01*
X28350423Y51823002D01*
X28196804Y51759371D01*
X28088179Y51714377D01*
X27948980Y51686688D01*
X27809782Y51659000D01*
X27525928Y51659000D01*
X27386730Y51686688D01*
X27247531Y51714377D01*
X27138906Y51759371D01*
X26985287Y51823002D01*
X26749272Y51980702D01*
X26548557Y52181417D01*
X26390857Y52417432D01*
X26282232Y52679677D01*
X26226855Y52958073D01*
X26226855Y53241927D01*
X26267038Y53443938D01*
X26282232Y53520324D01*
X26327226Y53628949D01*
X26390857Y53782568D01*
X26548557Y54018583D01*
X26749272Y54219298D01*
X26985287Y54376998D01*
X27138906Y54440629D01*
X27247531Y54485623D01*
X27386730Y54513312D01*
X27525928Y54541000D01*
X27809782Y54541000D01*
X27948980Y54513312D01*
G37*
G36*
X31348980Y54513312D02*
G01*
X31488179Y54485623D01*
X31596804Y54440629D01*
X31750423Y54376998D01*
X31986438Y54219298D01*
X32187153Y54018583D01*
X32344853Y53782568D01*
X32408484Y53628949D01*
X32453478Y53520324D01*
X32468672Y53443938D01*
X32508855Y53241927D01*
X32508855Y52958073D01*
X32453478Y52679677D01*
X32344853Y52417432D01*
X32187153Y52181417D01*
X31986438Y51980702D01*
X31750423Y51823002D01*
X31596804Y51759371D01*
X31488179Y51714377D01*
X31348980Y51686688D01*
X31209782Y51659000D01*
X30925928Y51659000D01*
X30786730Y51686688D01*
X30647531Y51714377D01*
X30538906Y51759371D01*
X30385287Y51823002D01*
X30149272Y51980702D01*
X29948557Y52181417D01*
X29790857Y52417432D01*
X29682232Y52679677D01*
X29626855Y52958073D01*
X29626855Y53241927D01*
X29667038Y53443938D01*
X29682232Y53520324D01*
X29727226Y53628949D01*
X29790857Y53782568D01*
X29948557Y54018583D01*
X30149272Y54219298D01*
X30385287Y54376998D01*
X30538906Y54440629D01*
X30647531Y54485623D01*
X30786730Y54513312D01*
X30925928Y54541000D01*
X31209782Y54541000D01*
X31348980Y54513312D01*
G37*
G36*
X11620410Y54513312D02*
G01*
X11759609Y54485623D01*
X11868234Y54440629D01*
X12021853Y54376998D01*
X12257868Y54219298D01*
X12458583Y54018583D01*
X12616283Y53782568D01*
X12679914Y53628949D01*
X12724908Y53520324D01*
X12740102Y53443938D01*
X12780285Y53241927D01*
X12780285Y52958073D01*
X12724908Y52679677D01*
X12616283Y52417432D01*
X12458583Y52181417D01*
X12257868Y51980702D01*
X12021853Y51823002D01*
X11868234Y51759371D01*
X11759609Y51714377D01*
X11620410Y51686688D01*
X11481212Y51659000D01*
X11197358Y51659000D01*
X11058160Y51686688D01*
X10918961Y51714377D01*
X10810336Y51759371D01*
X10656717Y51823002D01*
X10420702Y51980702D01*
X10219987Y52181417D01*
X10062287Y52417432D01*
X9953662Y52679677D01*
X9898285Y52958073D01*
X9898285Y53241927D01*
X9938468Y53443938D01*
X9953662Y53520324D01*
X9998656Y53628949D01*
X10062287Y53782568D01*
X10219987Y54018583D01*
X10420702Y54219298D01*
X10656717Y54376998D01*
X10810336Y54440629D01*
X10918961Y54485623D01*
X11058160Y54513312D01*
X11197358Y54541000D01*
X11481212Y54541000D01*
X11620410Y54513312D01*
G37*
G36*
X39513265Y54513312D02*
G01*
X39652464Y54485623D01*
X39761089Y54440629D01*
X39914708Y54376998D01*
X40150723Y54219298D01*
X40351438Y54018583D01*
X40509138Y53782568D01*
X40572769Y53628949D01*
X40617763Y53520324D01*
X40632957Y53443938D01*
X40673140Y53241927D01*
X40673140Y52958073D01*
X40617763Y52679677D01*
X40509138Y52417432D01*
X40351438Y52181417D01*
X40150723Y51980702D01*
X39914708Y51823002D01*
X39761089Y51759371D01*
X39652464Y51714377D01*
X39513265Y51686688D01*
X39374067Y51659000D01*
X39090213Y51659000D01*
X38951015Y51686688D01*
X38811816Y51714377D01*
X38703191Y51759371D01*
X38549572Y51823002D01*
X38313557Y51980702D01*
X38112842Y52181417D01*
X37955142Y52417432D01*
X37846517Y52679677D01*
X37791140Y52958073D01*
X37791140Y53241927D01*
X37831323Y53443938D01*
X37846517Y53520324D01*
X37891511Y53628949D01*
X37955142Y53782568D01*
X38112842Y54018583D01*
X38313557Y54219298D01*
X38549572Y54376998D01*
X38703191Y54440629D01*
X38811816Y54485623D01*
X38951015Y54513312D01*
X39090213Y54541000D01*
X39374067Y54541000D01*
X39513265Y54513312D01*
G37*
G36*
X19784695Y54513312D02*
G01*
X19923894Y54485623D01*
X20032519Y54440629D01*
X20186138Y54376998D01*
X20422153Y54219298D01*
X20622868Y54018583D01*
X20780568Y53782568D01*
X20844199Y53628949D01*
X20889193Y53520324D01*
X20904387Y53443938D01*
X20944570Y53241927D01*
X20944570Y52958073D01*
X20889193Y52679677D01*
X20780568Y52417432D01*
X20622868Y52181417D01*
X20422153Y51980702D01*
X20186138Y51823002D01*
X20032519Y51759371D01*
X19923894Y51714377D01*
X19784695Y51686688D01*
X19645497Y51659000D01*
X19361643Y51659000D01*
X19222445Y51686688D01*
X19083246Y51714377D01*
X18974621Y51759371D01*
X18821002Y51823002D01*
X18584987Y51980702D01*
X18384272Y52181417D01*
X18226572Y52417432D01*
X18117947Y52679677D01*
X18062570Y52958073D01*
X18062570Y53241927D01*
X18102753Y53443938D01*
X18117947Y53520324D01*
X18162941Y53628949D01*
X18226572Y53782568D01*
X18384272Y54018583D01*
X18584987Y54219298D01*
X18821002Y54376998D01*
X18974621Y54440629D01*
X19083246Y54485623D01*
X19222445Y54513312D01*
X19361643Y54541000D01*
X19645497Y54541000D01*
X19784695Y54513312D01*
G37*
G36*
X70416000Y53809000D02*
G01*
X68014000Y53809000D01*
X68014000Y55411000D01*
X70416000Y55411000D01*
X70416000Y53809000D01*
G37*
G36*
X69693571Y57947137D02*
G01*
X69772023Y57939410D01*
X69872682Y57908875D01*
X69923013Y57893608D01*
X70062165Y57819229D01*
X70184133Y57719133D01*
X70284229Y57597165D01*
X70358608Y57458013D01*
X70358608Y57458012D01*
X70404410Y57307023D01*
X70419875Y57150000D01*
X70404410Y56992977D01*
X70373875Y56892318D01*
X70358608Y56841987D01*
X70284229Y56702835D01*
X70184133Y56580867D01*
X70062165Y56480771D01*
X69923013Y56406392D01*
X69872682Y56391125D01*
X69772023Y56360590D01*
X69693571Y56352863D01*
X69654346Y56349000D01*
X68775654Y56349000D01*
X68736429Y56352863D01*
X68657977Y56360590D01*
X68557318Y56391125D01*
X68506987Y56406392D01*
X68367835Y56480771D01*
X68245867Y56580867D01*
X68145771Y56702835D01*
X68071392Y56841987D01*
X68056125Y56892318D01*
X68025590Y56992977D01*
X68010125Y57150000D01*
X68025590Y57307023D01*
X68071392Y57458012D01*
X68071392Y57458013D01*
X68145771Y57597165D01*
X68245867Y57719133D01*
X68367835Y57819229D01*
X68506987Y57893608D01*
X68557318Y57908875D01*
X68657977Y57939410D01*
X68736429Y57947137D01*
X68775654Y57951000D01*
X69654346Y57951000D01*
X69693571Y57947137D01*
G37*
G36*
X69693571Y60487137D02*
G01*
X69772023Y60479410D01*
X69872682Y60448875D01*
X69923013Y60433608D01*
X70062165Y60359229D01*
X70184133Y60259133D01*
X70284229Y60137165D01*
X70358608Y59998013D01*
X70358608Y59998012D01*
X70404410Y59847023D01*
X70419875Y59690000D01*
X70404410Y59532977D01*
X70373875Y59432318D01*
X70358608Y59381987D01*
X70284229Y59242835D01*
X70184133Y59120867D01*
X70062165Y59020771D01*
X69923013Y58946392D01*
X69872682Y58931125D01*
X69772023Y58900590D01*
X69693571Y58892863D01*
X69654346Y58889000D01*
X68775654Y58889000D01*
X68736429Y58892863D01*
X68657977Y58900590D01*
X68557318Y58931125D01*
X68506987Y58946392D01*
X68367835Y59020771D01*
X68245867Y59120867D01*
X68145771Y59242835D01*
X68071392Y59381987D01*
X68056125Y59432318D01*
X68025590Y59532977D01*
X68010125Y59690000D01*
X68025590Y59847023D01*
X68071392Y59998012D01*
X68071392Y59998013D01*
X68145771Y60137165D01*
X68245867Y60259133D01*
X68367835Y60359229D01*
X68506987Y60433608D01*
X68557318Y60448875D01*
X68657977Y60479410D01*
X68736429Y60487137D01*
X68775654Y60491000D01*
X69654346Y60491000D01*
X69693571Y60487137D01*
G37*
G36*
X55121564Y63870611D02*
G01*
X55312833Y63791385D01*
X55312835Y63791384D01*
X55400205Y63733005D01*
X55484973Y63676365D01*
X55631365Y63529973D01*
X55746385Y63357833D01*
X55825611Y63166564D01*
X55866000Y62963516D01*
X55866000Y62756484D01*
X55825611Y62553436D01*
X55746385Y62362167D01*
X55746384Y62362165D01*
X55631365Y62190027D01*
X55484973Y62043635D01*
X55312835Y61928616D01*
X55312834Y61928615D01*
X55312833Y61928615D01*
X55121564Y61849389D01*
X54918516Y61809000D01*
X54711484Y61809000D01*
X54508436Y61849389D01*
X54317167Y61928615D01*
X54317166Y61928615D01*
X54317165Y61928616D01*
X54145027Y62043635D01*
X53998635Y62190027D01*
X53883616Y62362165D01*
X53883615Y62362167D01*
X53804389Y62553436D01*
X53764000Y62756484D01*
X53764000Y62963516D01*
X53804389Y63166564D01*
X53883615Y63357833D01*
X53998635Y63529973D01*
X54145027Y63676365D01*
X54229795Y63733005D01*
X54317165Y63791384D01*
X54317167Y63791385D01*
X54508436Y63870611D01*
X54711484Y63911000D01*
X54918516Y63911000D01*
X55121564Y63870611D01*
G37*
G36*
X7721564Y63870611D02*
G01*
X7912833Y63791385D01*
X7912835Y63791384D01*
X8000205Y63733005D01*
X8084973Y63676365D01*
X8231365Y63529973D01*
X8346385Y63357833D01*
X8425611Y63166564D01*
X8466000Y62963516D01*
X8466000Y62756484D01*
X8425611Y62553436D01*
X8346385Y62362167D01*
X8346384Y62362165D01*
X8231365Y62190027D01*
X8084973Y62043635D01*
X7912835Y61928616D01*
X7912834Y61928615D01*
X7912833Y61928615D01*
X7721564Y61849389D01*
X7518516Y61809000D01*
X7311484Y61809000D01*
X7108436Y61849389D01*
X6917167Y61928615D01*
X6917166Y61928615D01*
X6917165Y61928616D01*
X6745027Y62043635D01*
X6598635Y62190027D01*
X6483616Y62362165D01*
X6483615Y62362167D01*
X6404389Y62553436D01*
X6364000Y62756484D01*
X6364000Y62963516D01*
X6404389Y63166564D01*
X6483615Y63357833D01*
X6598635Y63529973D01*
X6745027Y63676365D01*
X6829795Y63733005D01*
X6917165Y63791384D01*
X6917167Y63791385D01*
X7108436Y63870611D01*
X7311484Y63911000D01*
X7518516Y63911000D01*
X7721564Y63870611D01*
G37*
G36*
X69869499Y64656555D02*
G01*
X69906995Y64645180D01*
X69941554Y64626708D01*
X69971847Y64601847D01*
X69996708Y64571554D01*
X70015180Y64536995D01*
X70026555Y64499499D01*
X70031000Y64454362D01*
X70031000Y63815638D01*
X70026555Y63770501D01*
X70015180Y63733005D01*
X69996708Y63698446D01*
X69971847Y63668153D01*
X69941554Y63643292D01*
X69906995Y63624820D01*
X69869499Y63613445D01*
X69824362Y63609000D01*
X69085638Y63609000D01*
X69040501Y63613445D01*
X69003005Y63624820D01*
X68968446Y63643292D01*
X68938153Y63668153D01*
X68913292Y63698446D01*
X68894820Y63733005D01*
X68883445Y63770501D01*
X68879000Y63815638D01*
X68879000Y64454362D01*
X68883445Y64499499D01*
X68894820Y64536995D01*
X68913292Y64571554D01*
X68938153Y64601847D01*
X68968446Y64626708D01*
X69003005Y64645180D01*
X69040501Y64656555D01*
X69085638Y64661000D01*
X69824362Y64661000D01*
X69869499Y64656555D01*
G37*
G36*
X68119499Y64656555D02*
G01*
X68156995Y64645180D01*
X68191554Y64626708D01*
X68221847Y64601847D01*
X68246708Y64571554D01*
X68265180Y64536995D01*
X68276555Y64499499D01*
X68281000Y64454362D01*
X68281000Y63815638D01*
X68276555Y63770501D01*
X68265180Y63733005D01*
X68246708Y63698446D01*
X68221847Y63668153D01*
X68191554Y63643292D01*
X68156995Y63624820D01*
X68119499Y63613445D01*
X68074362Y63609000D01*
X67335638Y63609000D01*
X67290501Y63613445D01*
X67253005Y63624820D01*
X67218446Y63643292D01*
X67188153Y63668153D01*
X67163292Y63698446D01*
X67144820Y63733005D01*
X67133445Y63770501D01*
X67129000Y63815638D01*
X67129000Y64454362D01*
X67133445Y64499499D01*
X67144820Y64536995D01*
X67163292Y64571554D01*
X67188153Y64601847D01*
X67218446Y64626708D01*
X67253005Y64645180D01*
X67290501Y64656555D01*
X67335638Y64661000D01*
X68074362Y64661000D01*
X68119499Y64656555D01*
G37*
G36*
X29512717Y70971102D02*
G01*
X29760858Y70868319D01*
X29984180Y70719100D01*
X30174100Y70529180D01*
X30323319Y70305858D01*
X30426102Y70057717D01*
X30478500Y69794294D01*
X30478500Y69525706D01*
X30426102Y69262283D01*
X30323319Y69014142D01*
X30174100Y68790820D01*
X29984180Y68600900D01*
X29760858Y68451681D01*
X29512717Y68348898D01*
X29249294Y68296500D01*
X28980706Y68296500D01*
X28717283Y68348898D01*
X28469142Y68451681D01*
X28245820Y68600900D01*
X28055900Y68790820D01*
X27906681Y69014142D01*
X27803898Y69262283D01*
X27751500Y69525706D01*
X27751500Y69794294D01*
X27803898Y70057717D01*
X27906681Y70305858D01*
X28055900Y70529180D01*
X28245820Y70719100D01*
X28469142Y70868319D01*
X28717283Y70971102D01*
X28980706Y71023500D01*
X29249294Y71023500D01*
X29512717Y70971102D01*
G37*
G36*
X18478500Y68296500D02*
G01*
X15751500Y68296500D01*
X15751500Y71023500D01*
X18478500Y71023500D01*
X18478500Y68296500D01*
G37*
G36*
X45512717Y70971102D02*
G01*
X45760858Y70868319D01*
X45984180Y70719100D01*
X46174100Y70529180D01*
X46323319Y70305858D01*
X46426102Y70057717D01*
X46478500Y69794294D01*
X46478500Y69525706D01*
X46426102Y69262283D01*
X46323319Y69014142D01*
X46174100Y68790820D01*
X45984180Y68600900D01*
X45760858Y68451681D01*
X45512717Y68348898D01*
X45249294Y68296500D01*
X44980706Y68296500D01*
X44717283Y68348898D01*
X44469142Y68451681D01*
X44245820Y68600900D01*
X44055900Y68790820D01*
X43906681Y69014142D01*
X43803898Y69262283D01*
X43751500Y69525706D01*
X43751500Y69794294D01*
X43803898Y70057717D01*
X43906681Y70305858D01*
X44055900Y70529180D01*
X44245820Y70719100D01*
X44469142Y70868319D01*
X44717283Y70971102D01*
X44980706Y71023500D01*
X45249294Y71023500D01*
X45512717Y70971102D01*
G37*
G36*
X21512717Y70971102D02*
G01*
X21760858Y70868319D01*
X21984180Y70719100D01*
X22174100Y70529180D01*
X22323319Y70305858D01*
X22426102Y70057717D01*
X22478500Y69794294D01*
X22478500Y69525706D01*
X22426102Y69262283D01*
X22323319Y69014142D01*
X22174100Y68790820D01*
X21984180Y68600900D01*
X21760858Y68451681D01*
X21512717Y68348898D01*
X21249294Y68296500D01*
X20980706Y68296500D01*
X20717283Y68348898D01*
X20469142Y68451681D01*
X20245820Y68600900D01*
X20055900Y68790820D01*
X19906681Y69014142D01*
X19803898Y69262283D01*
X19751500Y69525706D01*
X19751500Y69794294D01*
X19803898Y70057717D01*
X19906681Y70305858D01*
X20055900Y70529180D01*
X20245820Y70719100D01*
X20469142Y70868319D01*
X20717283Y70971102D01*
X20980706Y71023500D01*
X21249294Y71023500D01*
X21512717Y70971102D01*
G37*
G36*
X41512717Y70971102D02*
G01*
X41760858Y70868319D01*
X41984180Y70719100D01*
X42174100Y70529180D01*
X42323319Y70305858D01*
X42426102Y70057717D01*
X42478500Y69794294D01*
X42478500Y69525706D01*
X42426102Y69262283D01*
X42323319Y69014142D01*
X42174100Y68790820D01*
X41984180Y68600900D01*
X41760858Y68451681D01*
X41512717Y68348898D01*
X41249294Y68296500D01*
X40980706Y68296500D01*
X40717283Y68348898D01*
X40469142Y68451681D01*
X40245820Y68600900D01*
X40055900Y68790820D01*
X39906681Y69014142D01*
X39803898Y69262283D01*
X39751500Y69525706D01*
X39751500Y69794294D01*
X39803898Y70057717D01*
X39906681Y70305858D01*
X40055900Y70529180D01*
X40245820Y70719100D01*
X40469142Y70868319D01*
X40717283Y70971102D01*
X40980706Y71023500D01*
X41249294Y71023500D01*
X41512717Y70971102D01*
G37*
G36*
X37512717Y70971102D02*
G01*
X37760858Y70868319D01*
X37984180Y70719100D01*
X38174100Y70529180D01*
X38323319Y70305858D01*
X38426102Y70057717D01*
X38478500Y69794294D01*
X38478500Y69525706D01*
X38426102Y69262283D01*
X38323319Y69014142D01*
X38174100Y68790820D01*
X37984180Y68600900D01*
X37760858Y68451681D01*
X37512717Y68348898D01*
X37249294Y68296500D01*
X36980706Y68296500D01*
X36717283Y68348898D01*
X36469142Y68451681D01*
X36245820Y68600900D01*
X36055900Y68790820D01*
X35906681Y69014142D01*
X35803898Y69262283D01*
X35751500Y69525706D01*
X35751500Y69794294D01*
X35803898Y70057717D01*
X35906681Y70305858D01*
X36055900Y70529180D01*
X36245820Y70719100D01*
X36469142Y70868319D01*
X36717283Y70971102D01*
X36980706Y71023500D01*
X37249294Y71023500D01*
X37512717Y70971102D01*
G37*
G36*
X25512717Y70971102D02*
G01*
X25760858Y70868319D01*
X25984180Y70719100D01*
X26174100Y70529180D01*
X26323319Y70305858D01*
X26426102Y70057717D01*
X26478500Y69794294D01*
X26478500Y69525706D01*
X26426102Y69262283D01*
X26323319Y69014142D01*
X26174100Y68790820D01*
X25984180Y68600900D01*
X25760858Y68451681D01*
X25512717Y68348898D01*
X25249294Y68296500D01*
X24980706Y68296500D01*
X24717283Y68348898D01*
X24469142Y68451681D01*
X24245820Y68600900D01*
X24055900Y68790820D01*
X23906681Y69014142D01*
X23803898Y69262283D01*
X23751500Y69525706D01*
X23751500Y69794294D01*
X23803898Y70057717D01*
X23906681Y70305858D01*
X24055900Y70529180D01*
X24245820Y70719100D01*
X24469142Y70868319D01*
X24717283Y70971102D01*
X24980706Y71023500D01*
X25249294Y71023500D01*
X25512717Y70971102D01*
G37*
G36*
X33512717Y70971102D02*
G01*
X33760858Y70868319D01*
X33984180Y70719100D01*
X34174100Y70529180D01*
X34323319Y70305858D01*
X34426102Y70057717D01*
X34478500Y69794294D01*
X34478500Y69525706D01*
X34426102Y69262283D01*
X34323319Y69014142D01*
X34174100Y68790820D01*
X33984180Y68600900D01*
X33760858Y68451681D01*
X33512717Y68348898D01*
X33249294Y68296500D01*
X32980706Y68296500D01*
X32717283Y68348898D01*
X32469142Y68451681D01*
X32245820Y68600900D01*
X32055900Y68790820D01*
X31906681Y69014142D01*
X31803898Y69262283D01*
X31751500Y69525706D01*
X31751500Y69794294D01*
X31803898Y70057717D01*
X31906681Y70305858D01*
X32055900Y70529180D01*
X32245820Y70719100D01*
X32469142Y70868319D01*
X32717283Y70971102D01*
X32980706Y71023500D01*
X33249294Y71023500D01*
X33512717Y70971102D01*
G37*
G36*
X35512717Y74971102D02*
G01*
X35760858Y74868319D01*
X35984180Y74719100D01*
X36174100Y74529180D01*
X36323319Y74305858D01*
X36426102Y74057717D01*
X36478500Y73794294D01*
X36478500Y73525706D01*
X36426102Y73262283D01*
X36323319Y73014142D01*
X36174100Y72790820D01*
X35984180Y72600900D01*
X35760858Y72451681D01*
X35512717Y72348898D01*
X35249294Y72296500D01*
X34980706Y72296500D01*
X34717283Y72348898D01*
X34469142Y72451681D01*
X34245820Y72600900D01*
X34055900Y72790820D01*
X33906681Y73014142D01*
X33803898Y73262283D01*
X33751500Y73525706D01*
X33751500Y73794294D01*
X33803898Y74057717D01*
X33906681Y74305858D01*
X34055900Y74529180D01*
X34245820Y74719100D01*
X34469142Y74868319D01*
X34717283Y74971102D01*
X34980706Y75023500D01*
X35249294Y75023500D01*
X35512717Y74971102D01*
G37*
G36*
X19512717Y74971102D02*
G01*
X19760858Y74868319D01*
X19984180Y74719100D01*
X20174100Y74529180D01*
X20323319Y74305858D01*
X20426102Y74057717D01*
X20478500Y73794294D01*
X20478500Y73525706D01*
X20426102Y73262283D01*
X20323319Y73014142D01*
X20174100Y72790820D01*
X19984180Y72600900D01*
X19760858Y72451681D01*
X19512717Y72348898D01*
X19249294Y72296500D01*
X18980706Y72296500D01*
X18717283Y72348898D01*
X18469142Y72451681D01*
X18245820Y72600900D01*
X18055900Y72790820D01*
X17906681Y73014142D01*
X17803898Y73262283D01*
X17751500Y73525706D01*
X17751500Y73794294D01*
X17803898Y74057717D01*
X17906681Y74305858D01*
X18055900Y74529180D01*
X18245820Y74719100D01*
X18469142Y74868319D01*
X18717283Y74971102D01*
X18980706Y75023500D01*
X19249294Y75023500D01*
X19512717Y74971102D01*
G37*
G36*
X23512717Y74971102D02*
G01*
X23760858Y74868319D01*
X23984180Y74719100D01*
X24174100Y74529180D01*
X24323319Y74305858D01*
X24426102Y74057717D01*
X24478500Y73794294D01*
X24478500Y73525706D01*
X24426102Y73262283D01*
X24323319Y73014142D01*
X24174100Y72790820D01*
X23984180Y72600900D01*
X23760858Y72451681D01*
X23512717Y72348898D01*
X23249294Y72296500D01*
X22980706Y72296500D01*
X22717283Y72348898D01*
X22469142Y72451681D01*
X22245820Y72600900D01*
X22055900Y72790820D01*
X21906681Y73014142D01*
X21803898Y73262283D01*
X21751500Y73525706D01*
X21751500Y73794294D01*
X21803898Y74057717D01*
X21906681Y74305858D01*
X22055900Y74529180D01*
X22245820Y74719100D01*
X22469142Y74868319D01*
X22717283Y74971102D01*
X22980706Y75023500D01*
X23249294Y75023500D01*
X23512717Y74971102D01*
G37*
G36*
X27512717Y74971102D02*
G01*
X27760858Y74868319D01*
X27984180Y74719100D01*
X28174100Y74529180D01*
X28323319Y74305858D01*
X28426102Y74057717D01*
X28478500Y73794294D01*
X28478500Y73525706D01*
X28426102Y73262283D01*
X28323319Y73014142D01*
X28174100Y72790820D01*
X27984180Y72600900D01*
X27760858Y72451681D01*
X27512717Y72348898D01*
X27249294Y72296500D01*
X26980706Y72296500D01*
X26717283Y72348898D01*
X26469142Y72451681D01*
X26245820Y72600900D01*
X26055900Y72790820D01*
X25906681Y73014142D01*
X25803898Y73262283D01*
X25751500Y73525706D01*
X25751500Y73794294D01*
X25803898Y74057717D01*
X25906681Y74305858D01*
X26055900Y74529180D01*
X26245820Y74719100D01*
X26469142Y74868319D01*
X26717283Y74971102D01*
X26980706Y75023500D01*
X27249294Y75023500D01*
X27512717Y74971102D01*
G37*
G36*
X39512717Y74971102D02*
G01*
X39760858Y74868319D01*
X39984180Y74719100D01*
X40174100Y74529180D01*
X40323319Y74305858D01*
X40426102Y74057717D01*
X40478500Y73794294D01*
X40478500Y73525706D01*
X40426102Y73262283D01*
X40323319Y73014142D01*
X40174100Y72790820D01*
X39984180Y72600900D01*
X39760858Y72451681D01*
X39512717Y72348898D01*
X39249294Y72296500D01*
X38980706Y72296500D01*
X38717283Y72348898D01*
X38469142Y72451681D01*
X38245820Y72600900D01*
X38055900Y72790820D01*
X37906681Y73014142D01*
X37803898Y73262283D01*
X37751500Y73525706D01*
X37751500Y73794294D01*
X37803898Y74057717D01*
X37906681Y74305858D01*
X38055900Y74529180D01*
X38245820Y74719100D01*
X38469142Y74868319D01*
X38717283Y74971102D01*
X38980706Y75023500D01*
X39249294Y75023500D01*
X39512717Y74971102D01*
G37*
G36*
X43512717Y74971102D02*
G01*
X43760858Y74868319D01*
X43984180Y74719100D01*
X44174100Y74529180D01*
X44323319Y74305858D01*
X44426102Y74057717D01*
X44478500Y73794294D01*
X44478500Y73525706D01*
X44426102Y73262283D01*
X44323319Y73014142D01*
X44174100Y72790820D01*
X43984180Y72600900D01*
X43760858Y72451681D01*
X43512717Y72348898D01*
X43249294Y72296500D01*
X42980706Y72296500D01*
X42717283Y72348898D01*
X42469142Y72451681D01*
X42245820Y72600900D01*
X42055900Y72790820D01*
X41906681Y73014142D01*
X41803898Y73262283D01*
X41751500Y73525706D01*
X41751500Y73794294D01*
X41803898Y74057717D01*
X41906681Y74305858D01*
X42055900Y74529180D01*
X42245820Y74719100D01*
X42469142Y74868319D01*
X42717283Y74971102D01*
X42980706Y75023500D01*
X43249294Y75023500D01*
X43512717Y74971102D01*
G37*
G36*
X31512717Y74971102D02*
G01*
X31760858Y74868319D01*
X31984180Y74719100D01*
X32174100Y74529180D01*
X32323319Y74305858D01*
X32426102Y74057717D01*
X32478500Y73794294D01*
X32478500Y73525706D01*
X32426102Y73262283D01*
X32323319Y73014142D01*
X32174100Y72790820D01*
X31984180Y72600900D01*
X31760858Y72451681D01*
X31512717Y72348898D01*
X31249294Y72296500D01*
X30980706Y72296500D01*
X30717283Y72348898D01*
X30469142Y72451681D01*
X30245820Y72600900D01*
X30055900Y72790820D01*
X29906681Y73014142D01*
X29803898Y73262283D01*
X29751500Y73525706D01*
X29751500Y73794294D01*
X29803898Y74057717D01*
X29906681Y74305858D01*
X30055900Y74529180D01*
X30245820Y74719100D01*
X30469142Y74868319D01*
X30717283Y74971102D01*
X30980706Y75023500D01*
X31249294Y75023500D01*
X31512717Y74971102D01*
G37*
G36*
X45512717Y78971102D02*
G01*
X45760858Y78868319D01*
X45984180Y78719100D01*
X46174100Y78529180D01*
X46323319Y78305858D01*
X46426102Y78057717D01*
X46478500Y77794294D01*
X46478500Y77525706D01*
X46426102Y77262283D01*
X46323319Y77014142D01*
X46174100Y76790820D01*
X45984180Y76600900D01*
X45760858Y76451681D01*
X45512717Y76348898D01*
X45249294Y76296500D01*
X44980706Y76296500D01*
X44717283Y76348898D01*
X44469142Y76451681D01*
X44245820Y76600900D01*
X44055900Y76790820D01*
X43906681Y77014142D01*
X43803898Y77262283D01*
X43751500Y77525706D01*
X43751500Y77794294D01*
X43803898Y78057717D01*
X43906681Y78305858D01*
X44055900Y78529180D01*
X44245820Y78719100D01*
X44469142Y78868319D01*
X44717283Y78971102D01*
X44980706Y79023500D01*
X45249294Y79023500D01*
X45512717Y78971102D01*
G37*
G36*
X21512717Y78971102D02*
G01*
X21760858Y78868319D01*
X21984180Y78719100D01*
X22174100Y78529180D01*
X22323319Y78305858D01*
X22426102Y78057717D01*
X22478500Y77794294D01*
X22478500Y77525706D01*
X22426102Y77262283D01*
X22323319Y77014142D01*
X22174100Y76790820D01*
X21984180Y76600900D01*
X21760858Y76451681D01*
X21512717Y76348898D01*
X21249294Y76296500D01*
X20980706Y76296500D01*
X20717283Y76348898D01*
X20469142Y76451681D01*
X20245820Y76600900D01*
X20055900Y76790820D01*
X19906681Y77014142D01*
X19803898Y77262283D01*
X19751500Y77525706D01*
X19751500Y77794294D01*
X19803898Y78057717D01*
X19906681Y78305858D01*
X20055900Y78529180D01*
X20245820Y78719100D01*
X20469142Y78868319D01*
X20717283Y78971102D01*
X20980706Y79023500D01*
X21249294Y79023500D01*
X21512717Y78971102D01*
G37*
G36*
X25512717Y78971102D02*
G01*
X25760858Y78868319D01*
X25984180Y78719100D01*
X26174100Y78529180D01*
X26323319Y78305858D01*
X26426102Y78057717D01*
X26478500Y77794294D01*
X26478500Y77525706D01*
X26426102Y77262283D01*
X26323319Y77014142D01*
X26174100Y76790820D01*
X25984180Y76600900D01*
X25760858Y76451681D01*
X25512717Y76348898D01*
X25249294Y76296500D01*
X24980706Y76296500D01*
X24717283Y76348898D01*
X24469142Y76451681D01*
X24245820Y76600900D01*
X24055900Y76790820D01*
X23906681Y77014142D01*
X23803898Y77262283D01*
X23751500Y77525706D01*
X23751500Y77794294D01*
X23803898Y78057717D01*
X23906681Y78305858D01*
X24055900Y78529180D01*
X24245820Y78719100D01*
X24469142Y78868319D01*
X24717283Y78971102D01*
X24980706Y79023500D01*
X25249294Y79023500D01*
X25512717Y78971102D01*
G37*
G36*
X29512717Y78971102D02*
G01*
X29760858Y78868319D01*
X29984180Y78719100D01*
X30174100Y78529180D01*
X30323319Y78305858D01*
X30426102Y78057717D01*
X30478500Y77794294D01*
X30478500Y77525706D01*
X30426102Y77262283D01*
X30323319Y77014142D01*
X30174100Y76790820D01*
X29984180Y76600900D01*
X29760858Y76451681D01*
X29512717Y76348898D01*
X29249294Y76296500D01*
X28980706Y76296500D01*
X28717283Y76348898D01*
X28469142Y76451681D01*
X28245820Y76600900D01*
X28055900Y76790820D01*
X27906681Y77014142D01*
X27803898Y77262283D01*
X27751500Y77525706D01*
X27751500Y77794294D01*
X27803898Y78057717D01*
X27906681Y78305858D01*
X28055900Y78529180D01*
X28245820Y78719100D01*
X28469142Y78868319D01*
X28717283Y78971102D01*
X28980706Y79023500D01*
X29249294Y79023500D01*
X29512717Y78971102D01*
G37*
G36*
X33512717Y78971102D02*
G01*
X33760858Y78868319D01*
X33984180Y78719100D01*
X34174100Y78529180D01*
X34323319Y78305858D01*
X34426102Y78057717D01*
X34478500Y77794294D01*
X34478500Y77525706D01*
X34426102Y77262283D01*
X34323319Y77014142D01*
X34174100Y76790820D01*
X33984180Y76600900D01*
X33760858Y76451681D01*
X33512717Y76348898D01*
X33249294Y76296500D01*
X32980706Y76296500D01*
X32717283Y76348898D01*
X32469142Y76451681D01*
X32245820Y76600900D01*
X32055900Y76790820D01*
X31906681Y77014142D01*
X31803898Y77262283D01*
X31751500Y77525706D01*
X31751500Y77794294D01*
X31803898Y78057717D01*
X31906681Y78305858D01*
X32055900Y78529180D01*
X32245820Y78719100D01*
X32469142Y78868319D01*
X32717283Y78971102D01*
X32980706Y79023500D01*
X33249294Y79023500D01*
X33512717Y78971102D01*
G37*
G36*
X17512717Y78971102D02*
G01*
X17760858Y78868319D01*
X17984180Y78719100D01*
X18174100Y78529180D01*
X18323319Y78305858D01*
X18426102Y78057717D01*
X18478500Y77794294D01*
X18478500Y77525706D01*
X18426102Y77262283D01*
X18323319Y77014142D01*
X18174100Y76790820D01*
X17984180Y76600900D01*
X17760858Y76451681D01*
X17512717Y76348898D01*
X17249294Y76296500D01*
X16980706Y76296500D01*
X16717283Y76348898D01*
X16469142Y76451681D01*
X16245820Y76600900D01*
X16055900Y76790820D01*
X15906681Y77014142D01*
X15803898Y77262283D01*
X15751500Y77525706D01*
X15751500Y77794294D01*
X15803898Y78057717D01*
X15906681Y78305858D01*
X16055900Y78529180D01*
X16245820Y78719100D01*
X16469142Y78868319D01*
X16717283Y78971102D01*
X16980706Y79023500D01*
X17249294Y79023500D01*
X17512717Y78971102D01*
G37*
G36*
X41512717Y78971102D02*
G01*
X41760858Y78868319D01*
X41984180Y78719100D01*
X42174100Y78529180D01*
X42323319Y78305858D01*
X42426102Y78057717D01*
X42478500Y77794294D01*
X42478500Y77525706D01*
X42426102Y77262283D01*
X42323319Y77014142D01*
X42174100Y76790820D01*
X41984180Y76600900D01*
X41760858Y76451681D01*
X41512717Y76348898D01*
X41249294Y76296500D01*
X40980706Y76296500D01*
X40717283Y76348898D01*
X40469142Y76451681D01*
X40245820Y76600900D01*
X40055900Y76790820D01*
X39906681Y77014142D01*
X39803898Y77262283D01*
X39751500Y77525706D01*
X39751500Y77794294D01*
X39803898Y78057717D01*
X39906681Y78305858D01*
X40055900Y78529180D01*
X40245820Y78719100D01*
X40469142Y78868319D01*
X40717283Y78971102D01*
X40980706Y79023500D01*
X41249294Y79023500D01*
X41512717Y78971102D01*
G37*
G36*
X37512717Y78971102D02*
G01*
X37760858Y78868319D01*
X37984180Y78719100D01*
X38174100Y78529180D01*
X38323319Y78305858D01*
X38426102Y78057717D01*
X38478500Y77794294D01*
X38478500Y77525706D01*
X38426102Y77262283D01*
X38323319Y77014142D01*
X38174100Y76790820D01*
X37984180Y76600900D01*
X37760858Y76451681D01*
X37512717Y76348898D01*
X37249294Y76296500D01*
X36980706Y76296500D01*
X36717283Y76348898D01*
X36469142Y76451681D01*
X36245820Y76600900D01*
X36055900Y76790820D01*
X35906681Y77014142D01*
X35803898Y77262283D01*
X35751500Y77525706D01*
X35751500Y77794294D01*
X35803898Y78057717D01*
X35906681Y78305858D01*
X36055900Y78529180D01*
X36245820Y78719100D01*
X36469142Y78868319D01*
X36717283Y78971102D01*
X36980706Y79023500D01*
X37249294Y79023500D01*
X37512717Y78971102D01*
G37*
G36*
X68436242Y78116596D02*
G01*
X68473337Y78105343D01*
X68507515Y78087075D01*
X68537481Y78062481D01*
X68562075Y78032515D01*
X68580343Y77998337D01*
X68591596Y77961242D01*
X68596000Y77916526D01*
X68596000Y77023474D01*
X68591596Y76978758D01*
X68580343Y76941663D01*
X68562075Y76907485D01*
X68537481Y76877519D01*
X68507515Y76852925D01*
X68473337Y76834657D01*
X68436242Y76823404D01*
X68391526Y76819000D01*
X67498474Y76819000D01*
X67453758Y76823404D01*
X67416663Y76834657D01*
X67382485Y76852925D01*
X67352519Y76877519D01*
X67327925Y76907485D01*
X67309657Y76941663D01*
X67298404Y76978758D01*
X67294000Y77023474D01*
X67294000Y77916526D01*
X67298404Y77961242D01*
X67309657Y77998337D01*
X67327925Y78032515D01*
X67352519Y78062481D01*
X67382485Y78087075D01*
X67416663Y78105343D01*
X67453758Y78116596D01*
X67498474Y78121000D01*
X68391526Y78121000D01*
X68436242Y78116596D01*
G37*
G36*
X70134890Y78095983D02*
G01*
X70227272Y78057717D01*
X70253364Y78046909D01*
X70359988Y77975665D01*
X70450665Y77884988D01*
X70521909Y77778364D01*
X70570983Y77659890D01*
X70596000Y77534118D01*
X70596000Y77405882D01*
X70570983Y77280110D01*
X70521909Y77161636D01*
X70450665Y77055012D01*
X70359988Y76964335D01*
X70253364Y76893091D01*
X70253363Y76893090D01*
X70253362Y76893090D01*
X70134890Y76844017D01*
X70009119Y76819000D01*
X69880881Y76819000D01*
X69755110Y76844017D01*
X69636638Y76893090D01*
X69636637Y76893090D01*
X69636636Y76893091D01*
X69530012Y76964335D01*
X69439335Y77055012D01*
X69368091Y77161636D01*
X69319017Y77280110D01*
X69294000Y77405882D01*
X69294000Y77534118D01*
X69319017Y77659890D01*
X69368091Y77778364D01*
X69439335Y77884988D01*
X69530012Y77975665D01*
X69636636Y78046909D01*
X69662729Y78057717D01*
X69755110Y78095983D01*
X69880881Y78121000D01*
X70009119Y78121000D01*
X70134890Y78095983D01*
G37*
G36*
X70134890Y80095983D02*
G01*
X70253364Y80046909D01*
X70359988Y79975665D01*
X70450665Y79884988D01*
X70521909Y79778364D01*
X70570983Y79659890D01*
X70596000Y79534118D01*
X70596000Y79405882D01*
X70570983Y79280110D01*
X70521909Y79161636D01*
X70450665Y79055012D01*
X70359988Y78964335D01*
X70253364Y78893091D01*
X70253363Y78893090D01*
X70253362Y78893090D01*
X70134890Y78844017D01*
X70009119Y78819000D01*
X69880881Y78819000D01*
X69755110Y78844017D01*
X69636638Y78893090D01*
X69636637Y78893090D01*
X69636636Y78893091D01*
X69530012Y78964335D01*
X69439335Y79055012D01*
X69368091Y79161636D01*
X69319017Y79280110D01*
X69294000Y79405882D01*
X69294000Y79534118D01*
X69319017Y79659890D01*
X69368091Y79778364D01*
X69439335Y79884988D01*
X69530012Y79975665D01*
X69636636Y80046909D01*
X69755110Y80095983D01*
X69880881Y80121000D01*
X70009119Y80121000D01*
X70134890Y80095983D01*
G37*
G36*
X68134890Y80095983D02*
G01*
X68253364Y80046909D01*
X68359988Y79975665D01*
X68450665Y79884988D01*
X68521909Y79778364D01*
X68570983Y79659890D01*
X68596000Y79534118D01*
X68596000Y79405882D01*
X68570983Y79280110D01*
X68521909Y79161636D01*
X68450665Y79055012D01*
X68359988Y78964335D01*
X68253364Y78893091D01*
X68253363Y78893090D01*
X68253362Y78893090D01*
X68134890Y78844017D01*
X68009119Y78819000D01*
X67880881Y78819000D01*
X67755110Y78844017D01*
X67636638Y78893090D01*
X67636637Y78893090D01*
X67636636Y78893091D01*
X67530012Y78964335D01*
X67439335Y79055012D01*
X67368091Y79161636D01*
X67319017Y79280110D01*
X67294000Y79405882D01*
X67294000Y79534118D01*
X67319017Y79659890D01*
X67368091Y79778364D01*
X67439335Y79884988D01*
X67530012Y79975665D01*
X67636636Y80046909D01*
X67755110Y80095983D01*
X67880881Y80121000D01*
X68009119Y80121000D01*
X68134890Y80095983D01*
G37*
G36*
X6221564Y81970611D02*
G01*
X6412833Y81891385D01*
X6412835Y81891384D01*
X6584973Y81776365D01*
X6731365Y81629973D01*
X6795413Y81534119D01*
X6846385Y81457833D01*
X6925611Y81266564D01*
X6966000Y81063516D01*
X6966000Y80856484D01*
X6925611Y80653436D01*
X6846385Y80462167D01*
X6846384Y80462165D01*
X6731365Y80290027D01*
X6584973Y80143635D01*
X6412835Y80028616D01*
X6412834Y80028615D01*
X6412833Y80028615D01*
X6221564Y79949389D01*
X6018516Y79909000D01*
X5811484Y79909000D01*
X5608436Y79949389D01*
X5417167Y80028615D01*
X5417166Y80028615D01*
X5417165Y80028616D01*
X5245027Y80143635D01*
X5098635Y80290027D01*
X4983616Y80462165D01*
X4983615Y80462167D01*
X4904389Y80653436D01*
X4864000Y80856484D01*
X4864000Y81063516D01*
X4904389Y81266564D01*
X4983615Y81457833D01*
X5034588Y81534119D01*
X5098635Y81629973D01*
X5245027Y81776365D01*
X5417165Y81891384D01*
X5417167Y81891385D01*
X5608436Y81970611D01*
X5811484Y82011000D01*
X6018516Y82011000D01*
X6221564Y81970611D01*
G37*
G36*
X56621564Y81970611D02*
G01*
X56812833Y81891385D01*
X56812835Y81891384D01*
X56984973Y81776365D01*
X57131365Y81629973D01*
X57195413Y81534119D01*
X57246385Y81457833D01*
X57325611Y81266564D01*
X57366000Y81063516D01*
X57366000Y80856484D01*
X57325611Y80653436D01*
X57246385Y80462167D01*
X57246384Y80462165D01*
X57131365Y80290027D01*
X56984973Y80143635D01*
X56812835Y80028616D01*
X56812834Y80028615D01*
X56812833Y80028615D01*
X56621564Y79949389D01*
X56418516Y79909000D01*
X56211484Y79909000D01*
X56008436Y79949389D01*
X55817167Y80028615D01*
X55817166Y80028615D01*
X55817165Y80028616D01*
X55645027Y80143635D01*
X55498635Y80290027D01*
X55383616Y80462165D01*
X55383615Y80462167D01*
X55304389Y80653436D01*
X55264000Y80856484D01*
X55264000Y81063516D01*
X55304389Y81266564D01*
X55383615Y81457833D01*
X55434588Y81534119D01*
X55498635Y81629973D01*
X55645027Y81776365D01*
X55817165Y81891384D01*
X55817167Y81891385D01*
X56008436Y81970611D01*
X56211484Y82011000D01*
X56418516Y82011000D01*
X56621564Y81970611D01*
G37*
G36*
X70134890Y82095983D02*
G01*
X70253364Y82046909D01*
X70359988Y81975665D01*
X70450665Y81884988D01*
X70521909Y81778364D01*
X70570983Y81659890D01*
X70596000Y81534118D01*
X70596000Y81405882D01*
X70570983Y81280110D01*
X70521909Y81161636D01*
X70450665Y81055012D01*
X70359988Y80964335D01*
X70253364Y80893091D01*
X70253363Y80893090D01*
X70253362Y80893090D01*
X70134890Y80844017D01*
X70009119Y80819000D01*
X69880881Y80819000D01*
X69755110Y80844017D01*
X69636638Y80893090D01*
X69636637Y80893090D01*
X69636636Y80893091D01*
X69530012Y80964335D01*
X69439335Y81055012D01*
X69368091Y81161636D01*
X69319017Y81280110D01*
X69294000Y81405882D01*
X69294000Y81534118D01*
X69319017Y81659890D01*
X69368091Y81778364D01*
X69439335Y81884988D01*
X69530012Y81975665D01*
X69636636Y82046909D01*
X69755110Y82095983D01*
X69880881Y82121000D01*
X70009119Y82121000D01*
X70134890Y82095983D01*
G37*
G36*
X68134890Y82095983D02*
G01*
X68253364Y82046909D01*
X68359988Y81975665D01*
X68450665Y81884988D01*
X68521909Y81778364D01*
X68570983Y81659890D01*
X68596000Y81534118D01*
X68596000Y81405882D01*
X68570983Y81280110D01*
X68521909Y81161636D01*
X68450665Y81055012D01*
X68359988Y80964335D01*
X68253364Y80893091D01*
X68253363Y80893090D01*
X68253362Y80893090D01*
X68134890Y80844017D01*
X68009119Y80819000D01*
X67880881Y80819000D01*
X67755110Y80844017D01*
X67636638Y80893090D01*
X67636637Y80893090D01*
X67636636Y80893091D01*
X67530012Y80964335D01*
X67439335Y81055012D01*
X67368091Y81161636D01*
X67319017Y81280110D01*
X67294000Y81405882D01*
X67294000Y81534118D01*
X67319017Y81659890D01*
X67368091Y81778364D01*
X67439335Y81884988D01*
X67530012Y81975665D01*
X67636636Y82046909D01*
X67755110Y82095983D01*
X67880881Y82121000D01*
X68009119Y82121000D01*
X68134890Y82095983D01*
G37*
G36*
X68134890Y84095983D02*
G01*
X68253364Y84046909D01*
X68359988Y83975665D01*
X68450665Y83884988D01*
X68521909Y83778364D01*
X68570983Y83659890D01*
X68596000Y83534118D01*
X68596000Y83405882D01*
X68570983Y83280110D01*
X68521909Y83161636D01*
X68450665Y83055012D01*
X68359988Y82964335D01*
X68253364Y82893091D01*
X68253363Y82893090D01*
X68253362Y82893090D01*
X68134890Y82844017D01*
X68009119Y82819000D01*
X67880881Y82819000D01*
X67755110Y82844017D01*
X67636638Y82893090D01*
X67636637Y82893090D01*
X67636636Y82893091D01*
X67530012Y82964335D01*
X67439335Y83055012D01*
X67368091Y83161636D01*
X67319017Y83280110D01*
X67294000Y83405882D01*
X67294000Y83534118D01*
X67319017Y83659890D01*
X67368091Y83778364D01*
X67439335Y83884988D01*
X67530012Y83975665D01*
X67636636Y84046909D01*
X67755110Y84095983D01*
X67880881Y84121000D01*
X68009119Y84121000D01*
X68134890Y84095983D01*
G37*
G36*
X70134890Y84095983D02*
G01*
X70253364Y84046909D01*
X70359988Y83975665D01*
X70450665Y83884988D01*
X70521909Y83778364D01*
X70570983Y83659890D01*
X70596000Y83534118D01*
X70596000Y83405882D01*
X70570983Y83280110D01*
X70521909Y83161636D01*
X70450665Y83055012D01*
X70359988Y82964335D01*
X70253364Y82893091D01*
X70253363Y82893090D01*
X70253362Y82893090D01*
X70134890Y82844017D01*
X70009119Y82819000D01*
X69880881Y82819000D01*
X69755110Y82844017D01*
X69636638Y82893090D01*
X69636637Y82893090D01*
X69636636Y82893091D01*
X69530012Y82964335D01*
X69439335Y83055012D01*
X69368091Y83161636D01*
X69319017Y83280110D01*
X69294000Y83405882D01*
X69294000Y83534118D01*
X69319017Y83659890D01*
X69368091Y83778364D01*
X69439335Y83884988D01*
X69530012Y83975665D01*
X69636636Y84046909D01*
X69755110Y84095983D01*
X69880881Y84121000D01*
X70009119Y84121000D01*
X70134890Y84095983D01*
G37*
M02*
