M48
; DRILL file {KiCad 5.1.5-52549c5~84~ubuntu18.04.1} date Wed 26 Feb 2020 10:43:13 AM EST
; FORMAT={3:3/ absolute / metric / suppress leading zeros}
; #@! TF.CreationDate,2020-02-26T10:43:13-05:00
; #@! TF.GenerationSoftware,Kicad,Pcbnew,5.1.5-52549c5~84~ubuntu18.04.1
; #@! TF.FileFunction,Plated,1,2,PTH
FMAT,2
METRIC,TZ
T1C0.400
T2C0.750
T3C0.800
T4C1.000
T5C1.090
T6C1.200
T7C1.400
T8C1.700
T9C1.750
T10C1.780
T11C1.950
%
G90
G05
T1
X48260Y57785
X55880Y73025
X56515Y57785
X59690Y46990
X63454Y47671
X63500Y40640
X64135Y76835
X66040Y40005
X90170Y69215
X90170Y64135
X90170Y57785
X90170Y54610
T2
X67945Y83470
X67945Y81470
X67945Y79470
X67945Y77470
X69945Y83470
X69945Y81470
X69945Y79470
X69945Y77470
T3
X55245Y35560
X55245Y25400
T4
X69215Y59690
X69215Y57150
X69215Y54610
T5
X31695Y19535
X31695Y9375
T6
X69215Y15240
X69215Y7740
X75565Y27940
X83065Y27940
X89535Y15240
X89535Y7740
T7
X46355Y14630
X46355Y10490
X46355Y6350
T8
X95885Y52070
X95885Y44150
T9
X17115Y77660
X17115Y69660
X19115Y73660
X21115Y77660
X21115Y69660
X23115Y73660
X25115Y77660
X25115Y69660
X27115Y73660
X29115Y77660
X29115Y69660
X31115Y73660
X33115Y77660
X33115Y69660
X35115Y73660
X37115Y77660
X37115Y69660
X39115Y73660
X41115Y77660
X41115Y69660
X43115Y73660
X45115Y77660
X45115Y69660
T10
X27668Y53100
X27668Y43180
X31068Y53100
X31068Y43180
X27545Y36830
X27545Y33430
X37465Y36830
X37465Y33430
X94615Y37860
X94615Y27940
X98015Y37860
X98015Y27940
X52705Y53100
X52705Y43180
X56105Y53100
X56105Y43180
X35832Y53100
X35832Y43180
X39232Y53100
X39232Y43180
X11339Y53100
X11339Y43180
X14739Y53100
X14739Y43180
X43996Y53100
X43996Y43180
X47396Y53100
X47396Y43180
X44225Y35560
X44225Y25640
X47625Y35560
X47625Y25640
X19504Y53100
X19504Y43180
X22904Y53100
X22904Y43180
X9765Y36420
X9765Y33020
X19685Y36420
X19685Y33020
T10
G00X18910Y4595
M15
G01X20460Y4595
M16
G05
T11
G00X16255Y22320
M15
G01X16255Y24370
M16
G05
T0
M30
