G04 #@! TF.GenerationSoftware,KiCad,Pcbnew,5.1.5-52549c5~84~ubuntu18.04.1*
G04 #@! TF.CreationDate,2020-03-02T20:09:35-05:00*
G04 #@! TF.ProjectId,LV_Breakout,4c565f42-7265-4616-9b6f-75742e6b6963,rev?*
G04 #@! TF.SameCoordinates,Original*
G04 #@! TF.FileFunction,Soldermask,Top*
G04 #@! TF.FilePolarity,Negative*
%FSLAX46Y46*%
G04 Gerber Fmt 4.6, Leading zero omitted, Abs format (unit mm)*
G04 Created by KiCad (PCBNEW 5.1.5-52549c5~84~ubuntu18.04.1) date 2020-03-02 20:09:35*
%MOMM*%
%LPD*%
G04 APERTURE LIST*
%ADD10C,0.100000*%
G04 APERTURE END LIST*
D10*
G36*
X129808831Y-108332369D02*
G01*
X129876703Y-108339054D01*
X130137966Y-108418307D01*
X130137968Y-108418308D01*
X130378745Y-108547006D01*
X130378747Y-108547007D01*
X130378746Y-108547007D01*
X130589792Y-108720208D01*
X130762993Y-108931254D01*
X130891693Y-109172034D01*
X130970946Y-109433297D01*
X130997706Y-109705000D01*
X130970946Y-109976703D01*
X130940215Y-110078011D01*
X130891692Y-110237968D01*
X130762994Y-110478745D01*
X130589792Y-110689792D01*
X130378745Y-110862994D01*
X130137968Y-110991692D01*
X130137966Y-110991693D01*
X129876703Y-111070946D01*
X129808831Y-111077631D01*
X129673090Y-111091000D01*
X126866910Y-111091000D01*
X126731169Y-111077631D01*
X126663297Y-111070946D01*
X126402034Y-110991693D01*
X126402032Y-110991692D01*
X126161255Y-110862994D01*
X125950208Y-110689792D01*
X125777006Y-110478745D01*
X125648308Y-110237968D01*
X125599786Y-110078011D01*
X125569054Y-109976703D01*
X125542294Y-109705000D01*
X125569054Y-109433297D01*
X125648307Y-109172034D01*
X125777007Y-108931254D01*
X125950208Y-108720208D01*
X126161254Y-108547007D01*
X126161253Y-108547007D01*
X126161255Y-108547006D01*
X126402032Y-108418308D01*
X126402034Y-108418307D01*
X126663297Y-108339054D01*
X126731169Y-108332369D01*
X126866910Y-108319000D01*
X129673090Y-108319000D01*
X129808831Y-108332369D01*
G37*
G36*
X156513436Y-107344635D02*
G01*
X156543027Y-107353611D01*
X156570296Y-107368187D01*
X156594198Y-107387802D01*
X156613813Y-107411704D01*
X156628389Y-107438973D01*
X156637365Y-107468564D01*
X156641000Y-107505474D01*
X156641000Y-109918526D01*
X156637365Y-109955436D01*
X156628389Y-109985027D01*
X156613813Y-110012296D01*
X156594198Y-110036198D01*
X156570296Y-110055813D01*
X156543027Y-110070389D01*
X156513436Y-110079365D01*
X156476526Y-110083000D01*
X153403474Y-110083000D01*
X153366564Y-110079365D01*
X153336973Y-110070389D01*
X153309704Y-110055813D01*
X153285802Y-110036198D01*
X153266187Y-110012296D01*
X153251611Y-109985027D01*
X153242635Y-109955436D01*
X153239000Y-109918526D01*
X153239000Y-107505474D01*
X153242635Y-107468564D01*
X153251611Y-107438973D01*
X153266187Y-107411704D01*
X153285802Y-107387802D01*
X153309704Y-107368187D01*
X153336973Y-107353611D01*
X153366564Y-107344635D01*
X153403474Y-107341000D01*
X156476526Y-107341000D01*
X156513436Y-107344635D01*
G37*
G36*
X193404903Y-106373075D02*
G01*
X193558716Y-106436786D01*
X193632571Y-106467378D01*
X193837466Y-106604285D01*
X194011715Y-106778534D01*
X194148622Y-106983429D01*
X194242925Y-107211097D01*
X194291000Y-107452787D01*
X194291000Y-107699213D01*
X194242925Y-107940903D01*
X194148622Y-108168571D01*
X194011715Y-108373466D01*
X193837466Y-108547715D01*
X193632571Y-108684622D01*
X193632570Y-108684623D01*
X193632569Y-108684623D01*
X193404903Y-108778925D01*
X193163214Y-108827000D01*
X192916786Y-108827000D01*
X192675097Y-108778925D01*
X192447431Y-108684623D01*
X192447430Y-108684623D01*
X192447429Y-108684622D01*
X192242534Y-108547715D01*
X192068285Y-108373466D01*
X191931378Y-108168571D01*
X191837075Y-107940903D01*
X191789000Y-107699213D01*
X191789000Y-107452787D01*
X191837075Y-107211097D01*
X191931378Y-106983429D01*
X192068285Y-106778534D01*
X192242534Y-106604285D01*
X192447429Y-106467378D01*
X192521285Y-106436786D01*
X192675097Y-106373075D01*
X192916786Y-106325000D01*
X193163214Y-106325000D01*
X193404903Y-106373075D01*
G37*
G36*
X173493849Y-105337372D02*
G01*
X173592903Y-105357075D01*
X173820571Y-105451378D01*
X174025466Y-105588285D01*
X174199715Y-105762534D01*
X174336622Y-105967429D01*
X174430925Y-106195097D01*
X174479000Y-106436787D01*
X174479000Y-106683213D01*
X174430925Y-106924903D01*
X174336622Y-107152571D01*
X174199715Y-107357466D01*
X174025466Y-107531715D01*
X173820571Y-107668622D01*
X173820570Y-107668623D01*
X173820569Y-107668623D01*
X173592903Y-107762925D01*
X173351214Y-107811000D01*
X173104786Y-107811000D01*
X172863097Y-107762925D01*
X172635431Y-107668623D01*
X172635430Y-107668623D01*
X172635429Y-107668622D01*
X172430534Y-107531715D01*
X172256285Y-107357466D01*
X172119378Y-107152571D01*
X172025075Y-106924903D01*
X171977000Y-106683213D01*
X171977000Y-106436787D01*
X172025075Y-106195097D01*
X172119378Y-105967429D01*
X172256285Y-105762534D01*
X172430534Y-105588285D01*
X172635429Y-105451378D01*
X172863097Y-105357075D01*
X172962151Y-105337372D01*
X173104786Y-105309000D01*
X173351214Y-105309000D01*
X173493849Y-105337372D01*
G37*
G36*
X155538761Y-103220837D02*
G01*
X155797200Y-103299234D01*
X156035372Y-103426539D01*
X156244134Y-103597866D01*
X156415461Y-103806628D01*
X156542766Y-104044800D01*
X156621163Y-104303239D01*
X156647633Y-104572000D01*
X156621163Y-104840761D01*
X156542766Y-105099200D01*
X156415461Y-105337372D01*
X156244134Y-105546134D01*
X156035372Y-105717461D01*
X155797200Y-105844766D01*
X155538761Y-105923163D01*
X155337349Y-105943000D01*
X154542651Y-105943000D01*
X154341239Y-105923163D01*
X154082800Y-105844766D01*
X153844628Y-105717461D01*
X153635866Y-105546134D01*
X153464539Y-105337372D01*
X153337234Y-105099200D01*
X153258837Y-104840761D01*
X153232367Y-104572000D01*
X153258837Y-104303239D01*
X153337234Y-104044800D01*
X153464539Y-103806628D01*
X153635866Y-103597866D01*
X153844628Y-103426539D01*
X154082800Y-103299234D01*
X154341239Y-103220837D01*
X154542651Y-103201000D01*
X155337349Y-103201000D01*
X155538761Y-103220837D01*
G37*
G36*
X140449436Y-104073188D02*
G01*
X140533332Y-104089876D01*
X140691390Y-104155346D01*
X140833634Y-104250390D01*
X140954610Y-104371366D01*
X141049654Y-104513610D01*
X141115124Y-104671669D01*
X141148500Y-104839459D01*
X141148500Y-105010541D01*
X141115124Y-105178331D01*
X141049654Y-105336390D01*
X140954610Y-105478634D01*
X140833634Y-105599610D01*
X140691390Y-105694654D01*
X140636331Y-105717460D01*
X140533332Y-105760124D01*
X140449436Y-105776812D01*
X140365541Y-105793500D01*
X140194459Y-105793500D01*
X140110564Y-105776812D01*
X140026668Y-105760124D01*
X139923669Y-105717460D01*
X139868610Y-105694654D01*
X139726366Y-105599610D01*
X139605390Y-105478634D01*
X139510346Y-105336390D01*
X139444876Y-105178331D01*
X139411500Y-105010541D01*
X139411500Y-104839459D01*
X139444876Y-104671669D01*
X139510346Y-104513610D01*
X139605390Y-104371366D01*
X139726366Y-104250390D01*
X139868610Y-104155346D01*
X140026668Y-104089876D01*
X140110564Y-104073188D01*
X140194459Y-104056500D01*
X140365541Y-104056500D01*
X140449436Y-104073188D01*
G37*
G36*
X155538761Y-99080837D02*
G01*
X155797200Y-99159234D01*
X156035372Y-99286539D01*
X156244134Y-99457866D01*
X156415461Y-99666628D01*
X156542766Y-99904800D01*
X156621163Y-100163239D01*
X156647633Y-100432000D01*
X156621163Y-100700761D01*
X156542766Y-100959200D01*
X156415461Y-101197372D01*
X156244134Y-101406134D01*
X156035372Y-101577461D01*
X155797200Y-101704766D01*
X155538761Y-101783163D01*
X155337349Y-101803000D01*
X154542651Y-101803000D01*
X154341239Y-101783163D01*
X154082800Y-101704766D01*
X153844628Y-101577461D01*
X153635866Y-101406134D01*
X153464539Y-101197372D01*
X153337234Y-100959200D01*
X153258837Y-100700761D01*
X153232367Y-100432000D01*
X153258837Y-100163239D01*
X153337234Y-99904800D01*
X153464539Y-99666628D01*
X153635866Y-99457866D01*
X153844628Y-99286539D01*
X154082800Y-99159234D01*
X154341239Y-99080837D01*
X154542651Y-99061000D01*
X155337349Y-99061000D01*
X155538761Y-99080837D01*
G37*
G36*
X194291000Y-101327000D02*
G01*
X191789000Y-101327000D01*
X191789000Y-98825000D01*
X194291000Y-98825000D01*
X194291000Y-101327000D01*
G37*
G36*
X174479000Y-100311000D02*
G01*
X171977000Y-100311000D01*
X171977000Y-97809000D01*
X174479000Y-97809000D01*
X174479000Y-100311000D01*
G37*
G36*
X155418661Y-94414062D02*
G01*
X155654304Y-94511669D01*
X155717305Y-94537765D01*
X155986076Y-94717352D01*
X156214648Y-94945924D01*
X156368640Y-95176389D01*
X156394236Y-95214697D01*
X156517938Y-95513339D01*
X156581000Y-95830374D01*
X156581000Y-96153626D01*
X156517938Y-96470661D01*
X156394236Y-96769303D01*
X156394235Y-96769305D01*
X156214648Y-97038076D01*
X155986076Y-97266648D01*
X155717305Y-97446235D01*
X155717304Y-97446236D01*
X155717303Y-97446236D01*
X155418661Y-97569938D01*
X155101626Y-97633000D01*
X154778374Y-97633000D01*
X154461339Y-97569938D01*
X154162697Y-97446236D01*
X154162696Y-97446236D01*
X154162695Y-97446235D01*
X153893924Y-97266648D01*
X153665352Y-97038076D01*
X153485765Y-96769305D01*
X153485764Y-96769303D01*
X153362062Y-96470661D01*
X153299000Y-96153626D01*
X153299000Y-95830374D01*
X153362062Y-95513339D01*
X153485764Y-95214697D01*
X153511361Y-95176389D01*
X153665352Y-94945924D01*
X153893924Y-94717352D01*
X154162695Y-94537765D01*
X154225696Y-94511669D01*
X154461339Y-94414062D01*
X154778374Y-94351000D01*
X155101626Y-94351000D01*
X155418661Y-94414062D01*
G37*
G36*
X140449436Y-93913188D02*
G01*
X140533332Y-93929876D01*
X140612360Y-93962611D01*
X140691390Y-93995346D01*
X140833634Y-94090390D01*
X140954610Y-94211366D01*
X141049654Y-94353610D01*
X141115124Y-94511669D01*
X141148500Y-94679459D01*
X141148500Y-94850541D01*
X141115124Y-95018331D01*
X141049654Y-95176390D01*
X140954610Y-95318634D01*
X140833634Y-95439610D01*
X140691390Y-95534654D01*
X140612360Y-95567389D01*
X140533332Y-95600124D01*
X140449436Y-95616812D01*
X140365541Y-95633500D01*
X140194459Y-95633500D01*
X140110564Y-95616812D01*
X140026668Y-95600124D01*
X139947640Y-95567389D01*
X139868610Y-95534654D01*
X139726366Y-95439610D01*
X139605390Y-95318634D01*
X139510346Y-95176390D01*
X139444876Y-95018331D01*
X139411500Y-94850541D01*
X139411500Y-94679459D01*
X139444876Y-94511669D01*
X139510346Y-94353610D01*
X139605390Y-94211366D01*
X139726366Y-94090390D01*
X139868610Y-93995346D01*
X140026668Y-93929876D01*
X140110564Y-93913188D01*
X140194459Y-93896500D01*
X140365541Y-93896500D01*
X140449436Y-93913188D01*
G37*
G36*
X125136697Y-88000899D02*
G01*
X125421993Y-88087443D01*
X125684923Y-88227982D01*
X125915384Y-88417116D01*
X126104518Y-88647576D01*
X126245057Y-88910506D01*
X126331601Y-89195802D01*
X126353500Y-89418148D01*
X126353500Y-92491852D01*
X126331601Y-92714198D01*
X126245057Y-92999494D01*
X126104518Y-93262424D01*
X125915384Y-93492884D01*
X125684924Y-93682018D01*
X125421994Y-93822557D01*
X125136698Y-93909101D01*
X124840000Y-93938323D01*
X124543303Y-93909101D01*
X124258007Y-93822557D01*
X123995077Y-93682018D01*
X123764617Y-93492884D01*
X123575483Y-93262424D01*
X123434944Y-92999494D01*
X123348400Y-92714198D01*
X123326501Y-92491852D01*
X123326500Y-89418149D01*
X123348399Y-89195803D01*
X123434943Y-88910507D01*
X123575482Y-88647577D01*
X123764616Y-88417116D01*
X123995076Y-88227982D01*
X124258006Y-88087443D01*
X124543302Y-88000899D01*
X124840000Y-87971677D01*
X125136697Y-88000899D01*
G37*
G36*
X203833125Y-90026689D02*
G01*
X203972324Y-90054377D01*
X204080949Y-90099371D01*
X204234568Y-90163002D01*
X204470583Y-90320702D01*
X204671298Y-90521417D01*
X204828998Y-90757432D01*
X204937623Y-91019677D01*
X204993000Y-91298073D01*
X204993000Y-91581927D01*
X204937623Y-91860323D01*
X204828998Y-92122568D01*
X204671298Y-92358583D01*
X204470583Y-92559298D01*
X204234568Y-92716998D01*
X204080949Y-92780629D01*
X203972324Y-92825623D01*
X203833125Y-92853311D01*
X203693927Y-92881000D01*
X203410073Y-92881000D01*
X203270875Y-92853311D01*
X203131676Y-92825623D01*
X203023051Y-92780629D01*
X202869432Y-92716998D01*
X202633417Y-92559298D01*
X202432702Y-92358583D01*
X202275002Y-92122568D01*
X202166377Y-91860323D01*
X202111000Y-91581927D01*
X202111000Y-91298073D01*
X202166377Y-91019677D01*
X202275002Y-90757432D01*
X202432702Y-90521417D01*
X202633417Y-90320702D01*
X202869432Y-90163002D01*
X203023051Y-90099371D01*
X203131676Y-90054377D01*
X203270875Y-90026689D01*
X203410073Y-89999000D01*
X203693927Y-89999000D01*
X203833125Y-90026689D01*
G37*
G36*
X200433125Y-90026689D02*
G01*
X200572324Y-90054377D01*
X200680949Y-90099371D01*
X200834568Y-90163002D01*
X201070583Y-90320702D01*
X201271298Y-90521417D01*
X201428998Y-90757432D01*
X201537623Y-91019677D01*
X201593000Y-91298073D01*
X201593000Y-91581927D01*
X201537623Y-91860323D01*
X201428998Y-92122568D01*
X201271298Y-92358583D01*
X201070583Y-92559298D01*
X200834568Y-92716998D01*
X200680949Y-92780629D01*
X200572324Y-92825623D01*
X200433125Y-92853311D01*
X200293927Y-92881000D01*
X200010073Y-92881000D01*
X199870875Y-92853311D01*
X199731676Y-92825623D01*
X199623051Y-92780629D01*
X199469432Y-92716998D01*
X199233417Y-92559298D01*
X199032702Y-92358583D01*
X198875002Y-92122568D01*
X198766377Y-91860323D01*
X198711000Y-91581927D01*
X198711000Y-91298073D01*
X198766377Y-91019677D01*
X198875002Y-90757432D01*
X199032702Y-90521417D01*
X199233417Y-90320702D01*
X199469432Y-90163002D01*
X199623051Y-90099371D01*
X199731676Y-90054377D01*
X199870875Y-90026689D01*
X200010073Y-89999000D01*
X200293927Y-89999000D01*
X200433125Y-90026689D01*
G37*
G36*
X171250820Y-90570103D02*
G01*
X171284985Y-90580467D01*
X171316464Y-90597293D01*
X171344060Y-90619940D01*
X171366707Y-90647536D01*
X171383533Y-90679015D01*
X171393897Y-90713180D01*
X171398000Y-90754842D01*
X171398000Y-92004158D01*
X171393897Y-92045820D01*
X171383533Y-92079985D01*
X171366707Y-92111464D01*
X171344060Y-92139060D01*
X171316464Y-92161707D01*
X171284985Y-92178533D01*
X171250820Y-92188897D01*
X171209158Y-92193000D01*
X168134842Y-92193000D01*
X168093180Y-92188897D01*
X168059015Y-92178533D01*
X168027536Y-92161707D01*
X167999940Y-92139060D01*
X167977293Y-92111464D01*
X167960467Y-92079985D01*
X167950103Y-92045820D01*
X167946000Y-92004158D01*
X167946000Y-90754842D01*
X167950103Y-90713180D01*
X167960467Y-90679015D01*
X167977293Y-90647536D01*
X167999940Y-90619940D01*
X168027536Y-90597293D01*
X168059015Y-90580467D01*
X168093180Y-90570103D01*
X168134842Y-90566000D01*
X171209158Y-90566000D01*
X171250820Y-90570103D01*
G37*
G36*
X153021821Y-87232903D02*
G01*
X153230324Y-87274377D01*
X153338949Y-87319371D01*
X153492568Y-87383002D01*
X153728583Y-87540702D01*
X153929298Y-87741417D01*
X154086998Y-87977432D01*
X154116642Y-88049000D01*
X154195623Y-88239676D01*
X154219064Y-88357520D01*
X154251000Y-88518073D01*
X154251000Y-88801927D01*
X154195623Y-89080323D01*
X154086998Y-89342568D01*
X153929298Y-89578583D01*
X153728583Y-89779298D01*
X153492568Y-89936998D01*
X153342881Y-89999000D01*
X153230324Y-90045623D01*
X153091125Y-90073312D01*
X152951927Y-90101000D01*
X152668073Y-90101000D01*
X152528875Y-90073312D01*
X152389676Y-90045623D01*
X152277119Y-89999000D01*
X152127432Y-89936998D01*
X151891417Y-89779298D01*
X151690702Y-89578583D01*
X151533002Y-89342568D01*
X151424377Y-89080323D01*
X151369000Y-88801927D01*
X151369000Y-88518073D01*
X151400936Y-88357520D01*
X151424377Y-88239676D01*
X151503358Y-88049000D01*
X151533002Y-87977432D01*
X151690702Y-87741417D01*
X151891417Y-87540702D01*
X152127432Y-87383002D01*
X152281051Y-87319371D01*
X152389676Y-87274377D01*
X152598179Y-87232903D01*
X152668073Y-87219000D01*
X152951927Y-87219000D01*
X153021821Y-87232903D01*
G37*
G36*
X156421821Y-87232903D02*
G01*
X156630324Y-87274377D01*
X156738949Y-87319371D01*
X156892568Y-87383002D01*
X157128583Y-87540702D01*
X157329298Y-87741417D01*
X157486998Y-87977432D01*
X157516642Y-88049000D01*
X157595623Y-88239676D01*
X157619064Y-88357520D01*
X157651000Y-88518073D01*
X157651000Y-88801927D01*
X157595623Y-89080323D01*
X157486998Y-89342568D01*
X157329298Y-89578583D01*
X157128583Y-89779298D01*
X156892568Y-89936998D01*
X156742881Y-89999000D01*
X156630324Y-90045623D01*
X156491125Y-90073312D01*
X156351927Y-90101000D01*
X156068073Y-90101000D01*
X155928875Y-90073312D01*
X155789676Y-90045623D01*
X155677119Y-89999000D01*
X155527432Y-89936998D01*
X155291417Y-89779298D01*
X155090702Y-89578583D01*
X154933002Y-89342568D01*
X154824377Y-89080323D01*
X154769000Y-88801927D01*
X154769000Y-88518073D01*
X154800936Y-88357520D01*
X154824377Y-88239676D01*
X154903358Y-88049000D01*
X154933002Y-87977432D01*
X155090702Y-87741417D01*
X155291417Y-87540702D01*
X155527432Y-87383002D01*
X155681051Y-87319371D01*
X155789676Y-87274377D01*
X155998179Y-87232903D01*
X156068073Y-87219000D01*
X156351927Y-87219000D01*
X156421821Y-87232903D01*
G37*
G36*
X164078228Y-88081703D02*
G01*
X164233100Y-88145853D01*
X164372481Y-88238985D01*
X164491015Y-88357519D01*
X164584147Y-88496900D01*
X164648297Y-88651772D01*
X164681000Y-88816184D01*
X164681000Y-88983816D01*
X164648297Y-89148228D01*
X164584147Y-89303100D01*
X164491015Y-89442481D01*
X164372481Y-89561015D01*
X164233100Y-89654147D01*
X164078228Y-89718297D01*
X163913816Y-89751000D01*
X163746184Y-89751000D01*
X163581772Y-89718297D01*
X163426900Y-89654147D01*
X163287519Y-89561015D01*
X163168985Y-89442481D01*
X163075853Y-89303100D01*
X163011703Y-89148228D01*
X162979000Y-88983816D01*
X162979000Y-88816184D01*
X163011703Y-88651772D01*
X163075853Y-88496900D01*
X163168985Y-88357519D01*
X163287519Y-88238985D01*
X163426900Y-88145853D01*
X163581772Y-88081703D01*
X163746184Y-88049000D01*
X163913816Y-88049000D01*
X164078228Y-88081703D01*
G37*
G36*
X188204903Y-85665075D02*
G01*
X188432571Y-85759378D01*
X188637466Y-85896285D01*
X188811715Y-86070534D01*
X188948622Y-86275429D01*
X189042925Y-86503097D01*
X189091000Y-86744787D01*
X189091000Y-86991213D01*
X189042925Y-87232903D01*
X188948622Y-87460571D01*
X188811715Y-87665466D01*
X188637466Y-87839715D01*
X188432571Y-87976622D01*
X188432570Y-87976623D01*
X188432569Y-87976623D01*
X188204903Y-88070925D01*
X187963214Y-88119000D01*
X187716786Y-88119000D01*
X187475097Y-88070925D01*
X187247431Y-87976623D01*
X187247430Y-87976623D01*
X187247429Y-87976622D01*
X187042534Y-87839715D01*
X186868285Y-87665466D01*
X186731378Y-87460571D01*
X186637075Y-87232903D01*
X186589000Y-86991213D01*
X186589000Y-86744787D01*
X186637075Y-86503097D01*
X186731378Y-86275429D01*
X186868285Y-86070534D01*
X187042534Y-85896285D01*
X187247429Y-85759378D01*
X187475097Y-85665075D01*
X187716786Y-85617000D01*
X187963214Y-85617000D01*
X188204903Y-85665075D01*
G37*
G36*
X181591000Y-88119000D02*
G01*
X179089000Y-88119000D01*
X179089000Y-85617000D01*
X181591000Y-85617000D01*
X181591000Y-88119000D01*
G37*
G36*
X171250820Y-84595103D02*
G01*
X171284985Y-84605467D01*
X171316464Y-84622293D01*
X171344060Y-84644940D01*
X171366707Y-84672536D01*
X171383533Y-84704015D01*
X171393897Y-84738180D01*
X171398000Y-84779842D01*
X171398000Y-86029158D01*
X171393897Y-86070820D01*
X171383533Y-86104985D01*
X171366707Y-86136464D01*
X171344060Y-86164060D01*
X171316464Y-86186707D01*
X171284985Y-86203533D01*
X171250820Y-86213897D01*
X171209158Y-86218000D01*
X168134842Y-86218000D01*
X168093180Y-86213897D01*
X168059015Y-86203533D01*
X168027536Y-86186707D01*
X167999940Y-86164060D01*
X167977293Y-86136464D01*
X167960467Y-86104985D01*
X167950103Y-86070820D01*
X167946000Y-86029158D01*
X167946000Y-84779842D01*
X167950103Y-84738180D01*
X167960467Y-84704015D01*
X167977293Y-84672536D01*
X167999940Y-84644940D01*
X168027536Y-84622293D01*
X168059015Y-84605467D01*
X168093180Y-84595103D01*
X168134842Y-84591000D01*
X171209158Y-84591000D01*
X171250820Y-84595103D01*
G37*
G36*
X200433125Y-80106689D02*
G01*
X200572324Y-80134377D01*
X200635880Y-80160703D01*
X200834568Y-80243002D01*
X201070583Y-80400702D01*
X201271298Y-80601417D01*
X201428998Y-80837432D01*
X201438212Y-80859677D01*
X201537623Y-81099676D01*
X201593000Y-81378074D01*
X201593000Y-81661926D01*
X201537623Y-81940324D01*
X201517337Y-81989298D01*
X201428998Y-82202568D01*
X201271298Y-82438583D01*
X201070583Y-82639298D01*
X200834568Y-82796998D01*
X200680949Y-82860629D01*
X200572324Y-82905623D01*
X200433125Y-82933312D01*
X200293927Y-82961000D01*
X200010073Y-82961000D01*
X199870875Y-82933311D01*
X199731676Y-82905623D01*
X199623051Y-82860629D01*
X199469432Y-82796998D01*
X199233417Y-82639298D01*
X199032702Y-82438583D01*
X198875002Y-82202568D01*
X198786663Y-81989298D01*
X198766377Y-81940324D01*
X198711000Y-81661926D01*
X198711000Y-81378074D01*
X198766377Y-81099676D01*
X198865788Y-80859677D01*
X198875002Y-80837432D01*
X199032702Y-80601417D01*
X199233417Y-80400702D01*
X199469432Y-80243002D01*
X199668120Y-80160703D01*
X199731676Y-80134377D01*
X199870875Y-80106689D01*
X200010073Y-80079000D01*
X200293927Y-80079000D01*
X200433125Y-80106689D01*
G37*
G36*
X203833125Y-80106689D02*
G01*
X203972324Y-80134377D01*
X204035880Y-80160703D01*
X204234568Y-80243002D01*
X204470583Y-80400702D01*
X204671298Y-80601417D01*
X204828998Y-80837432D01*
X204838212Y-80859677D01*
X204937623Y-81099676D01*
X204993000Y-81378074D01*
X204993000Y-81661926D01*
X204937623Y-81940324D01*
X204917337Y-81989298D01*
X204828998Y-82202568D01*
X204671298Y-82438583D01*
X204470583Y-82639298D01*
X204234568Y-82796998D01*
X204080949Y-82860629D01*
X203972324Y-82905623D01*
X203833125Y-82933312D01*
X203693927Y-82961000D01*
X203410073Y-82961000D01*
X203270875Y-82933311D01*
X203131676Y-82905623D01*
X203023051Y-82860629D01*
X202869432Y-82796998D01*
X202633417Y-82639298D01*
X202432702Y-82438583D01*
X202275002Y-82202568D01*
X202186663Y-81989298D01*
X202166377Y-81940324D01*
X202111000Y-81661926D01*
X202111000Y-81378074D01*
X202166377Y-81099676D01*
X202265788Y-80859677D01*
X202275002Y-80837432D01*
X202432702Y-80601417D01*
X202633417Y-80400702D01*
X202869432Y-80243002D01*
X203068120Y-80160703D01*
X203131676Y-80134377D01*
X203270875Y-80106689D01*
X203410073Y-80079000D01*
X203693927Y-80079000D01*
X203833125Y-80106689D01*
G37*
G36*
X122671966Y-79859297D02*
G01*
X122848324Y-79894377D01*
X122956949Y-79939371D01*
X123110568Y-80003002D01*
X123346583Y-80160702D01*
X123547298Y-80361417D01*
X123704998Y-80597432D01*
X123759111Y-80728073D01*
X123804409Y-80837431D01*
X123813623Y-80859677D01*
X123869000Y-81138073D01*
X123869000Y-81421927D01*
X123813623Y-81700323D01*
X123704998Y-81962568D01*
X123547298Y-82198583D01*
X123346583Y-82399298D01*
X123110568Y-82556998D01*
X122956949Y-82620629D01*
X122848324Y-82665623D01*
X122796155Y-82676000D01*
X122569927Y-82721000D01*
X122286073Y-82721000D01*
X122059845Y-82676000D01*
X122007676Y-82665623D01*
X121899051Y-82620629D01*
X121745432Y-82556998D01*
X121509417Y-82399298D01*
X121308702Y-82198583D01*
X121151002Y-81962568D01*
X121042377Y-81700323D01*
X120987000Y-81421927D01*
X120987000Y-81138073D01*
X121042377Y-80859677D01*
X121051592Y-80837431D01*
X121096889Y-80728073D01*
X121151002Y-80597432D01*
X121308702Y-80361417D01*
X121509417Y-80160702D01*
X121745432Y-80003002D01*
X121899051Y-79939371D01*
X122007676Y-79894377D01*
X122184034Y-79859297D01*
X122286073Y-79839000D01*
X122569927Y-79839000D01*
X122671966Y-79859297D01*
G37*
G36*
X112751966Y-79859297D02*
G01*
X112928324Y-79894377D01*
X113036949Y-79939371D01*
X113190568Y-80003002D01*
X113426583Y-80160702D01*
X113627298Y-80361417D01*
X113784998Y-80597432D01*
X113839111Y-80728073D01*
X113884409Y-80837431D01*
X113893623Y-80859677D01*
X113949000Y-81138073D01*
X113949000Y-81421927D01*
X113893623Y-81700323D01*
X113784998Y-81962568D01*
X113627298Y-82198583D01*
X113426583Y-82399298D01*
X113190568Y-82556998D01*
X113036949Y-82620629D01*
X112928324Y-82665623D01*
X112876155Y-82676000D01*
X112649927Y-82721000D01*
X112366073Y-82721000D01*
X112139845Y-82676000D01*
X112087676Y-82665623D01*
X111979051Y-82620629D01*
X111825432Y-82556998D01*
X111589417Y-82399298D01*
X111388702Y-82198583D01*
X111231002Y-81962568D01*
X111122377Y-81700323D01*
X111067000Y-81421927D01*
X111067000Y-81138073D01*
X111122377Y-80859677D01*
X111131592Y-80837431D01*
X111176889Y-80728073D01*
X111231002Y-80597432D01*
X111388702Y-80361417D01*
X111589417Y-80160702D01*
X111825432Y-80003002D01*
X111979051Y-79939371D01*
X112087676Y-79894377D01*
X112264034Y-79859297D01*
X112366073Y-79839000D01*
X112649927Y-79839000D01*
X112751966Y-79859297D01*
G37*
G36*
X173506601Y-82676000D02*
G01*
X171649001Y-82676000D01*
X171649001Y-76074000D01*
X173506601Y-76074000D01*
X173506601Y-82676000D01*
G37*
G36*
X171250999Y-82676000D02*
G01*
X169393399Y-82676000D01*
X169393399Y-76074000D01*
X171250999Y-76074000D01*
X171250999Y-82676000D01*
G37*
G36*
X146331125Y-79456689D02*
G01*
X146470324Y-79484377D01*
X146578949Y-79529371D01*
X146732568Y-79593002D01*
X146968583Y-79750702D01*
X147169298Y-79951417D01*
X147326998Y-80187432D01*
X147350016Y-80243003D01*
X147435623Y-80449676D01*
X147491000Y-80728074D01*
X147491000Y-81011926D01*
X147435623Y-81290324D01*
X147390629Y-81398949D01*
X147326998Y-81552568D01*
X147169298Y-81788583D01*
X146968583Y-81989298D01*
X146732568Y-82146998D01*
X146598407Y-82202569D01*
X146470324Y-82255623D01*
X146331125Y-82283312D01*
X146191927Y-82311000D01*
X145908073Y-82311000D01*
X145768875Y-82283312D01*
X145629676Y-82255623D01*
X145501593Y-82202569D01*
X145367432Y-82146998D01*
X145131417Y-81989298D01*
X144930702Y-81788583D01*
X144773002Y-81552568D01*
X144709371Y-81398949D01*
X144664377Y-81290324D01*
X144609000Y-81011926D01*
X144609000Y-80728074D01*
X144664377Y-80449676D01*
X144749984Y-80243003D01*
X144773002Y-80187432D01*
X144930702Y-79951417D01*
X145131417Y-79750702D01*
X145367432Y-79593002D01*
X145521051Y-79529371D01*
X145629676Y-79484377D01*
X145768875Y-79456688D01*
X145908073Y-79429000D01*
X146191927Y-79429000D01*
X146331125Y-79456689D01*
G37*
G36*
X136411125Y-79456689D02*
G01*
X136550324Y-79484377D01*
X136658949Y-79529371D01*
X136812568Y-79593002D01*
X137048583Y-79750702D01*
X137249298Y-79951417D01*
X137406998Y-80187432D01*
X137430016Y-80243003D01*
X137515623Y-80449676D01*
X137571000Y-80728074D01*
X137571000Y-81011926D01*
X137515623Y-81290324D01*
X137470629Y-81398949D01*
X137406998Y-81552568D01*
X137249298Y-81788583D01*
X137048583Y-81989298D01*
X136812568Y-82146998D01*
X136678407Y-82202569D01*
X136550324Y-82255623D01*
X136411125Y-82283312D01*
X136271927Y-82311000D01*
X135988073Y-82311000D01*
X135848875Y-82283312D01*
X135709676Y-82255623D01*
X135581593Y-82202569D01*
X135447432Y-82146998D01*
X135211417Y-81989298D01*
X135010702Y-81788583D01*
X134853002Y-81552568D01*
X134789371Y-81398949D01*
X134744377Y-81290324D01*
X134689000Y-81011926D01*
X134689000Y-80728074D01*
X134744377Y-80449676D01*
X134829984Y-80243003D01*
X134853002Y-80187432D01*
X135010702Y-79951417D01*
X135211417Y-79750702D01*
X135447432Y-79593002D01*
X135601051Y-79529371D01*
X135709676Y-79484377D01*
X135848875Y-79456689D01*
X135988073Y-79429000D01*
X136271927Y-79429000D01*
X136411125Y-79456689D01*
G37*
G36*
X156491125Y-77326688D02*
G01*
X156630324Y-77354377D01*
X156738949Y-77399371D01*
X156892568Y-77463002D01*
X157128583Y-77620702D01*
X157329298Y-77821417D01*
X157486998Y-78057432D01*
X157526404Y-78152568D01*
X157595623Y-78319676D01*
X157609330Y-78388584D01*
X157649255Y-78589298D01*
X157651000Y-78598074D01*
X157651000Y-78881926D01*
X157596285Y-79156998D01*
X157595623Y-79160323D01*
X157486998Y-79422568D01*
X157329298Y-79658583D01*
X157128583Y-79859298D01*
X156892568Y-80016998D01*
X156742881Y-80079000D01*
X156630324Y-80125623D01*
X156491125Y-80153312D01*
X156351927Y-80181000D01*
X156068073Y-80181000D01*
X155928875Y-80153312D01*
X155789676Y-80125623D01*
X155677119Y-80079000D01*
X155527432Y-80016998D01*
X155291417Y-79859298D01*
X155090702Y-79658583D01*
X154933002Y-79422568D01*
X154824377Y-79160323D01*
X154823716Y-79156998D01*
X154769000Y-78881926D01*
X154769000Y-78598074D01*
X154770746Y-78589298D01*
X154810670Y-78388584D01*
X154824377Y-78319676D01*
X154893596Y-78152568D01*
X154933002Y-78057432D01*
X155090702Y-77821417D01*
X155291417Y-77620702D01*
X155527432Y-77463002D01*
X155681051Y-77399371D01*
X155789676Y-77354377D01*
X155928875Y-77326688D01*
X156068073Y-77299000D01*
X156351927Y-77299000D01*
X156491125Y-77326688D01*
G37*
G36*
X153091125Y-77326688D02*
G01*
X153230324Y-77354377D01*
X153338949Y-77399371D01*
X153492568Y-77463002D01*
X153728583Y-77620702D01*
X153929298Y-77821417D01*
X154086998Y-78057432D01*
X154126404Y-78152568D01*
X154195623Y-78319676D01*
X154209330Y-78388584D01*
X154249255Y-78589298D01*
X154251000Y-78598074D01*
X154251000Y-78881926D01*
X154196285Y-79156998D01*
X154195623Y-79160323D01*
X154086998Y-79422568D01*
X153929298Y-79658583D01*
X153728583Y-79859298D01*
X153492568Y-80016998D01*
X153342881Y-80079000D01*
X153230324Y-80125623D01*
X153091125Y-80153312D01*
X152951927Y-80181000D01*
X152668073Y-80181000D01*
X152528875Y-80153312D01*
X152389676Y-80125623D01*
X152277119Y-80079000D01*
X152127432Y-80016998D01*
X151891417Y-79859298D01*
X151690702Y-79658583D01*
X151533002Y-79422568D01*
X151424377Y-79160323D01*
X151423716Y-79156998D01*
X151369000Y-78881926D01*
X151369000Y-78598074D01*
X151370746Y-78589298D01*
X151410670Y-78388584D01*
X151424377Y-78319676D01*
X151493596Y-78152568D01*
X151533002Y-78057432D01*
X151690702Y-77821417D01*
X151891417Y-77620702D01*
X152127432Y-77463002D01*
X152281051Y-77399371D01*
X152389676Y-77354377D01*
X152528875Y-77326688D01*
X152668073Y-77299000D01*
X152951927Y-77299000D01*
X153091125Y-77326688D01*
G37*
G36*
X164078228Y-77921703D02*
G01*
X164233100Y-77985853D01*
X164372481Y-78078985D01*
X164491015Y-78197519D01*
X164584147Y-78336900D01*
X164648297Y-78491772D01*
X164681000Y-78656184D01*
X164681000Y-78823816D01*
X164648297Y-78988228D01*
X164584147Y-79143100D01*
X164491015Y-79282481D01*
X164372481Y-79401015D01*
X164233100Y-79494147D01*
X164078228Y-79558297D01*
X163913816Y-79591000D01*
X163746184Y-79591000D01*
X163581772Y-79558297D01*
X163426900Y-79494147D01*
X163287519Y-79401015D01*
X163168985Y-79282481D01*
X163075853Y-79143100D01*
X163011703Y-78988228D01*
X162979000Y-78823816D01*
X162979000Y-78656184D01*
X163011703Y-78491772D01*
X163075853Y-78336900D01*
X163168985Y-78197519D01*
X163287519Y-78078985D01*
X163426900Y-77985853D01*
X163581772Y-77921703D01*
X163746184Y-77889000D01*
X163913816Y-77889000D01*
X164078228Y-77921703D01*
G37*
G36*
X122709125Y-76466689D02*
G01*
X122848324Y-76494377D01*
X122956949Y-76539371D01*
X123110568Y-76603002D01*
X123346583Y-76760702D01*
X123547298Y-76961417D01*
X123704998Y-77197432D01*
X123759111Y-77328073D01*
X123813623Y-77459676D01*
X123814285Y-77463003D01*
X123869000Y-77738073D01*
X123869000Y-78021927D01*
X123857650Y-78078985D01*
X123813623Y-78300324D01*
X123798471Y-78336903D01*
X123704998Y-78562568D01*
X123547298Y-78798583D01*
X123346583Y-78999298D01*
X123110568Y-79156998D01*
X122956949Y-79220629D01*
X122848324Y-79265623D01*
X122763578Y-79282480D01*
X122569927Y-79321000D01*
X122286073Y-79321000D01*
X122092422Y-79282480D01*
X122007676Y-79265623D01*
X121899051Y-79220629D01*
X121745432Y-79156998D01*
X121509417Y-78999298D01*
X121308702Y-78798583D01*
X121151002Y-78562568D01*
X121057529Y-78336903D01*
X121042377Y-78300324D01*
X120998350Y-78078985D01*
X120987000Y-78021927D01*
X120987000Y-77738073D01*
X121041715Y-77463003D01*
X121042377Y-77459676D01*
X121096889Y-77328073D01*
X121151002Y-77197432D01*
X121308702Y-76961417D01*
X121509417Y-76760702D01*
X121745432Y-76603002D01*
X121899051Y-76539371D01*
X122007676Y-76494377D01*
X122146875Y-76466689D01*
X122286073Y-76439000D01*
X122569927Y-76439000D01*
X122709125Y-76466689D01*
G37*
G36*
X112789125Y-76466689D02*
G01*
X112928324Y-76494377D01*
X113036949Y-76539371D01*
X113190568Y-76603002D01*
X113426583Y-76760702D01*
X113627298Y-76961417D01*
X113784998Y-77197432D01*
X113839111Y-77328073D01*
X113893623Y-77459676D01*
X113894285Y-77463003D01*
X113949000Y-77738073D01*
X113949000Y-78021927D01*
X113937650Y-78078985D01*
X113893623Y-78300324D01*
X113878471Y-78336903D01*
X113784998Y-78562568D01*
X113627298Y-78798583D01*
X113426583Y-78999298D01*
X113190568Y-79156998D01*
X113036949Y-79220629D01*
X112928324Y-79265623D01*
X112843578Y-79282480D01*
X112649927Y-79321000D01*
X112366073Y-79321000D01*
X112172422Y-79282480D01*
X112087676Y-79265623D01*
X111979051Y-79220629D01*
X111825432Y-79156998D01*
X111589417Y-78999298D01*
X111388702Y-78798583D01*
X111231002Y-78562568D01*
X111137529Y-78336903D01*
X111122377Y-78300324D01*
X111078350Y-78078985D01*
X111067000Y-78021927D01*
X111067000Y-77738073D01*
X111121715Y-77463003D01*
X111122377Y-77459676D01*
X111176889Y-77328073D01*
X111231002Y-77197432D01*
X111388702Y-76961417D01*
X111589417Y-76760702D01*
X111825432Y-76603002D01*
X111979051Y-76539371D01*
X112087676Y-76494377D01*
X112226875Y-76466689D01*
X112366073Y-76439000D01*
X112649927Y-76439000D01*
X112789125Y-76466689D01*
G37*
G36*
X136411125Y-76056688D02*
G01*
X136550324Y-76084377D01*
X136658949Y-76129371D01*
X136812568Y-76193002D01*
X137048583Y-76350702D01*
X137249298Y-76551417D01*
X137406998Y-76787432D01*
X137466168Y-76930282D01*
X137472584Y-76945770D01*
X137515623Y-77049677D01*
X137571000Y-77328073D01*
X137571000Y-77611927D01*
X137569254Y-77620703D01*
X137529330Y-77821417D01*
X137515623Y-77890323D01*
X137406998Y-78152568D01*
X137249298Y-78388583D01*
X137048583Y-78589298D01*
X136812568Y-78746998D01*
X136688030Y-78798583D01*
X136550324Y-78855623D01*
X136418090Y-78881926D01*
X136271927Y-78911000D01*
X135988073Y-78911000D01*
X135841910Y-78881926D01*
X135709676Y-78855623D01*
X135571970Y-78798583D01*
X135447432Y-78746998D01*
X135211417Y-78589298D01*
X135010702Y-78388583D01*
X134853002Y-78152568D01*
X134744377Y-77890323D01*
X134730671Y-77821417D01*
X134690746Y-77620703D01*
X134689000Y-77611927D01*
X134689000Y-77328073D01*
X134744377Y-77049677D01*
X134787417Y-76945770D01*
X134793832Y-76930282D01*
X134853002Y-76787432D01*
X135010702Y-76551417D01*
X135211417Y-76350702D01*
X135447432Y-76193002D01*
X135601051Y-76129371D01*
X135709676Y-76084377D01*
X135848875Y-76056688D01*
X135988073Y-76029000D01*
X136271927Y-76029000D01*
X136411125Y-76056688D01*
G37*
G36*
X146331125Y-76056688D02*
G01*
X146470324Y-76084377D01*
X146578949Y-76129371D01*
X146732568Y-76193002D01*
X146968583Y-76350702D01*
X147169298Y-76551417D01*
X147326998Y-76787432D01*
X147386168Y-76930282D01*
X147392584Y-76945770D01*
X147435623Y-77049677D01*
X147491000Y-77328073D01*
X147491000Y-77611927D01*
X147489254Y-77620703D01*
X147449330Y-77821417D01*
X147435623Y-77890323D01*
X147326998Y-78152568D01*
X147169298Y-78388583D01*
X146968583Y-78589298D01*
X146732568Y-78746998D01*
X146608030Y-78798583D01*
X146470324Y-78855623D01*
X146338090Y-78881926D01*
X146191927Y-78911000D01*
X145908073Y-78911000D01*
X145761910Y-78881926D01*
X145629676Y-78855623D01*
X145491970Y-78798583D01*
X145367432Y-78746998D01*
X145131417Y-78589298D01*
X144930702Y-78388583D01*
X144773002Y-78152568D01*
X144664377Y-77890323D01*
X144650671Y-77821417D01*
X144610746Y-77620703D01*
X144609000Y-77611927D01*
X144609000Y-77328073D01*
X144664377Y-77049677D01*
X144707417Y-76945770D01*
X144713832Y-76930282D01*
X144773002Y-76787432D01*
X144930702Y-76551417D01*
X145131417Y-76350702D01*
X145367432Y-76193002D01*
X145521051Y-76129371D01*
X145629676Y-76084377D01*
X145768875Y-76056688D01*
X145908073Y-76029000D01*
X146191927Y-76029000D01*
X146331125Y-76056688D01*
G37*
G36*
X197068674Y-75453465D02*
G01*
X197106367Y-75464899D01*
X197141103Y-75483466D01*
X197171548Y-75508452D01*
X197196534Y-75538897D01*
X197215101Y-75573633D01*
X197226535Y-75611326D01*
X197231000Y-75656661D01*
X197231000Y-76743339D01*
X197226535Y-76788674D01*
X197215101Y-76826367D01*
X197196534Y-76861103D01*
X197171548Y-76891548D01*
X197141103Y-76916534D01*
X197106367Y-76935101D01*
X197068674Y-76946535D01*
X197023339Y-76951000D01*
X196186661Y-76951000D01*
X196141326Y-76946535D01*
X196103633Y-76935101D01*
X196068897Y-76916534D01*
X196038452Y-76891548D01*
X196013466Y-76861103D01*
X195994899Y-76826367D01*
X195983465Y-76788674D01*
X195979000Y-76743339D01*
X195979000Y-75656661D01*
X195983465Y-75611326D01*
X195994899Y-75573633D01*
X196013466Y-75538897D01*
X196038452Y-75508452D01*
X196068897Y-75483466D01*
X196103633Y-75464899D01*
X196141326Y-75453465D01*
X196186661Y-75449000D01*
X197023339Y-75449000D01*
X197068674Y-75453465D01*
G37*
G36*
X195018674Y-75453465D02*
G01*
X195056367Y-75464899D01*
X195091103Y-75483466D01*
X195121548Y-75508452D01*
X195146534Y-75538897D01*
X195165101Y-75573633D01*
X195176535Y-75611326D01*
X195181000Y-75656661D01*
X195181000Y-76743339D01*
X195176535Y-76788674D01*
X195165101Y-76826367D01*
X195146534Y-76861103D01*
X195121548Y-76891548D01*
X195091103Y-76916534D01*
X195056367Y-76935101D01*
X195018674Y-76946535D01*
X194973339Y-76951000D01*
X194136661Y-76951000D01*
X194091326Y-76946535D01*
X194053633Y-76935101D01*
X194018897Y-76916534D01*
X193988452Y-76891548D01*
X193963466Y-76861103D01*
X193944899Y-76826367D01*
X193933465Y-76788674D01*
X193929000Y-76743339D01*
X193929000Y-75656661D01*
X193933465Y-75611326D01*
X193944899Y-75573633D01*
X193963466Y-75538897D01*
X193988452Y-75508452D01*
X194018897Y-75483466D01*
X194053633Y-75464899D01*
X194091326Y-75453465D01*
X194136661Y-75449000D01*
X194973339Y-75449000D01*
X195018674Y-75453465D01*
G37*
G36*
X170133674Y-73038465D02*
G01*
X170171367Y-73049899D01*
X170206103Y-73068466D01*
X170236548Y-73093452D01*
X170261534Y-73123897D01*
X170280101Y-73158633D01*
X170291535Y-73196326D01*
X170296000Y-73241661D01*
X170296000Y-74078339D01*
X170291535Y-74123674D01*
X170280101Y-74161367D01*
X170261534Y-74196103D01*
X170236548Y-74226548D01*
X170206103Y-74251534D01*
X170171367Y-74270101D01*
X170133674Y-74281535D01*
X170088339Y-74286000D01*
X169001661Y-74286000D01*
X168956326Y-74281535D01*
X168918633Y-74270101D01*
X168883897Y-74251534D01*
X168853452Y-74226548D01*
X168828466Y-74196103D01*
X168809899Y-74161367D01*
X168798465Y-74123674D01*
X168794000Y-74078339D01*
X168794000Y-73241661D01*
X168798465Y-73196326D01*
X168809899Y-73158633D01*
X168828466Y-73123897D01*
X168853452Y-73093452D01*
X168883897Y-73068466D01*
X168918633Y-73049899D01*
X168956326Y-73038465D01*
X169001661Y-73034000D01*
X170088339Y-73034000D01*
X170133674Y-73038465D01*
G37*
G36*
X176944499Y-71868445D02*
G01*
X176981995Y-71879820D01*
X177016554Y-71898292D01*
X177046847Y-71923153D01*
X177071708Y-71953446D01*
X177090180Y-71988005D01*
X177101555Y-72025501D01*
X177106000Y-72070638D01*
X177106000Y-72709362D01*
X177101555Y-72754499D01*
X177090180Y-72791995D01*
X177071708Y-72826554D01*
X177046847Y-72856847D01*
X177016554Y-72881708D01*
X176981995Y-72900180D01*
X176944499Y-72911555D01*
X176899362Y-72916000D01*
X176160638Y-72916000D01*
X176115501Y-72911555D01*
X176078005Y-72900180D01*
X176043446Y-72881708D01*
X176013153Y-72856847D01*
X175988292Y-72826554D01*
X175969820Y-72791995D01*
X175958445Y-72754499D01*
X175954000Y-72709362D01*
X175954000Y-72070638D01*
X175958445Y-72025501D01*
X175969820Y-71988005D01*
X175988292Y-71953446D01*
X176013153Y-71923153D01*
X176043446Y-71898292D01*
X176078005Y-71879820D01*
X176115501Y-71868445D01*
X176160638Y-71864000D01*
X176899362Y-71864000D01*
X176944499Y-71868445D01*
G37*
G36*
X175194499Y-71868445D02*
G01*
X175231995Y-71879820D01*
X175266554Y-71898292D01*
X175296847Y-71923153D01*
X175321708Y-71953446D01*
X175340180Y-71988005D01*
X175351555Y-72025501D01*
X175356000Y-72070638D01*
X175356000Y-72709362D01*
X175351555Y-72754499D01*
X175340180Y-72791995D01*
X175321708Y-72826554D01*
X175296847Y-72856847D01*
X175266554Y-72881708D01*
X175231995Y-72900180D01*
X175194499Y-72911555D01*
X175149362Y-72916000D01*
X174410638Y-72916000D01*
X174365501Y-72911555D01*
X174328005Y-72900180D01*
X174293446Y-72881708D01*
X174263153Y-72856847D01*
X174238292Y-72826554D01*
X174219820Y-72791995D01*
X174208445Y-72754499D01*
X174204000Y-72709362D01*
X174204000Y-72070638D01*
X174208445Y-72025501D01*
X174219820Y-71988005D01*
X174238292Y-71953446D01*
X174263153Y-71923153D01*
X174293446Y-71898292D01*
X174328005Y-71879820D01*
X174365501Y-71868445D01*
X174410638Y-71864000D01*
X175149362Y-71864000D01*
X175194499Y-71868445D01*
G37*
G36*
X123605410Y-69706689D02*
G01*
X123744609Y-69734377D01*
X123853234Y-69779371D01*
X124006853Y-69843002D01*
X124242868Y-70000702D01*
X124443583Y-70201417D01*
X124601283Y-70437432D01*
X124660453Y-70580282D01*
X124666869Y-70595770D01*
X124709908Y-70699677D01*
X124765285Y-70978073D01*
X124765285Y-71261927D01*
X124709908Y-71540323D01*
X124601283Y-71802568D01*
X124443583Y-72038583D01*
X124242868Y-72239298D01*
X124006853Y-72396998D01*
X123853234Y-72460629D01*
X123744609Y-72505623D01*
X123605410Y-72533312D01*
X123466212Y-72561000D01*
X123182358Y-72561000D01*
X123043160Y-72533312D01*
X122903961Y-72505623D01*
X122795336Y-72460629D01*
X122641717Y-72396998D01*
X122405702Y-72239298D01*
X122204987Y-72038583D01*
X122047287Y-71802568D01*
X121938662Y-71540323D01*
X121883285Y-71261927D01*
X121883285Y-70978073D01*
X121938662Y-70699677D01*
X121981702Y-70595770D01*
X121988117Y-70580282D01*
X122047287Y-70437432D01*
X122204987Y-70201417D01*
X122405702Y-70000702D01*
X122641717Y-69843002D01*
X122795336Y-69779371D01*
X122903961Y-69734377D01*
X123043160Y-69706689D01*
X123182358Y-69679000D01*
X123466212Y-69679000D01*
X123605410Y-69706689D01*
G37*
G36*
X152862550Y-69706689D02*
G01*
X153001749Y-69734377D01*
X153110374Y-69779371D01*
X153263993Y-69843002D01*
X153500008Y-70000702D01*
X153700723Y-70201417D01*
X153858423Y-70437432D01*
X153917593Y-70580282D01*
X153924009Y-70595770D01*
X153967048Y-70699677D01*
X154022425Y-70978073D01*
X154022425Y-71261927D01*
X153967048Y-71540323D01*
X153858423Y-71802568D01*
X153700723Y-72038583D01*
X153500008Y-72239298D01*
X153263993Y-72396998D01*
X153110374Y-72460629D01*
X153001749Y-72505623D01*
X152862550Y-72533312D01*
X152723352Y-72561000D01*
X152439498Y-72561000D01*
X152300300Y-72533312D01*
X152161101Y-72505623D01*
X152052476Y-72460629D01*
X151898857Y-72396998D01*
X151662842Y-72239298D01*
X151462127Y-72038583D01*
X151304427Y-71802568D01*
X151195802Y-71540323D01*
X151140425Y-71261927D01*
X151140425Y-70978073D01*
X151195802Y-70699677D01*
X151238842Y-70595770D01*
X151245257Y-70580282D01*
X151304427Y-70437432D01*
X151462127Y-70201417D01*
X151662842Y-70000702D01*
X151898857Y-69843002D01*
X152052476Y-69779371D01*
X152161101Y-69734377D01*
X152300300Y-69706689D01*
X152439498Y-69679000D01*
X152723352Y-69679000D01*
X152862550Y-69706689D01*
G37*
G36*
X156262550Y-69706689D02*
G01*
X156401749Y-69734377D01*
X156510374Y-69779371D01*
X156663993Y-69843002D01*
X156900008Y-70000702D01*
X157100723Y-70201417D01*
X157258423Y-70437432D01*
X157317593Y-70580282D01*
X157324009Y-70595770D01*
X157367048Y-70699677D01*
X157422425Y-70978073D01*
X157422425Y-71261927D01*
X157367048Y-71540323D01*
X157258423Y-71802568D01*
X157100723Y-72038583D01*
X156900008Y-72239298D01*
X156663993Y-72396998D01*
X156510374Y-72460629D01*
X156401749Y-72505623D01*
X156262550Y-72533312D01*
X156123352Y-72561000D01*
X155839498Y-72561000D01*
X155700300Y-72533312D01*
X155561101Y-72505623D01*
X155452476Y-72460629D01*
X155298857Y-72396998D01*
X155062842Y-72239298D01*
X154862127Y-72038583D01*
X154704427Y-71802568D01*
X154595802Y-71540323D01*
X154540425Y-71261927D01*
X154540425Y-70978073D01*
X154595802Y-70699677D01*
X154638842Y-70595770D01*
X154645257Y-70580282D01*
X154704427Y-70437432D01*
X154862127Y-70201417D01*
X155062842Y-70000702D01*
X155298857Y-69843002D01*
X155452476Y-69779371D01*
X155561101Y-69734377D01*
X155700300Y-69706689D01*
X155839498Y-69679000D01*
X156123352Y-69679000D01*
X156262550Y-69706689D01*
G37*
G36*
X120205410Y-69706689D02*
G01*
X120344609Y-69734377D01*
X120453234Y-69779371D01*
X120606853Y-69843002D01*
X120842868Y-70000702D01*
X121043583Y-70201417D01*
X121201283Y-70437432D01*
X121260453Y-70580282D01*
X121266869Y-70595770D01*
X121309908Y-70699677D01*
X121365285Y-70978073D01*
X121365285Y-71261927D01*
X121309908Y-71540323D01*
X121201283Y-71802568D01*
X121043583Y-72038583D01*
X120842868Y-72239298D01*
X120606853Y-72396998D01*
X120453234Y-72460629D01*
X120344609Y-72505623D01*
X120205410Y-72533312D01*
X120066212Y-72561000D01*
X119782358Y-72561000D01*
X119643160Y-72533312D01*
X119503961Y-72505623D01*
X119395336Y-72460629D01*
X119241717Y-72396998D01*
X119005702Y-72239298D01*
X118804987Y-72038583D01*
X118647287Y-71802568D01*
X118538662Y-71540323D01*
X118483285Y-71261927D01*
X118483285Y-70978073D01*
X118538662Y-70699677D01*
X118581702Y-70595770D01*
X118588117Y-70580282D01*
X118647287Y-70437432D01*
X118804987Y-70201417D01*
X119005702Y-70000702D01*
X119241717Y-69843002D01*
X119395336Y-69779371D01*
X119503961Y-69734377D01*
X119643160Y-69706689D01*
X119782358Y-69679000D01*
X120066212Y-69679000D01*
X120205410Y-69706689D01*
G37*
G36*
X131769695Y-69706689D02*
G01*
X131908894Y-69734377D01*
X132017519Y-69779371D01*
X132171138Y-69843002D01*
X132407153Y-70000702D01*
X132607868Y-70201417D01*
X132765568Y-70437432D01*
X132824738Y-70580282D01*
X132831154Y-70595770D01*
X132874193Y-70699677D01*
X132929570Y-70978073D01*
X132929570Y-71261927D01*
X132874193Y-71540323D01*
X132765568Y-71802568D01*
X132607868Y-72038583D01*
X132407153Y-72239298D01*
X132171138Y-72396998D01*
X132017519Y-72460629D01*
X131908894Y-72505623D01*
X131769695Y-72533312D01*
X131630497Y-72561000D01*
X131346643Y-72561000D01*
X131207445Y-72533312D01*
X131068246Y-72505623D01*
X130959621Y-72460629D01*
X130806002Y-72396998D01*
X130569987Y-72239298D01*
X130369272Y-72038583D01*
X130211572Y-71802568D01*
X130102947Y-71540323D01*
X130047570Y-71261927D01*
X130047570Y-70978073D01*
X130102947Y-70699677D01*
X130145987Y-70595770D01*
X130152402Y-70580282D01*
X130211572Y-70437432D01*
X130369272Y-70201417D01*
X130569987Y-70000702D01*
X130806002Y-69843002D01*
X130959621Y-69779371D01*
X131068246Y-69734377D01*
X131207445Y-69706689D01*
X131346643Y-69679000D01*
X131630497Y-69679000D01*
X131769695Y-69706689D01*
G37*
G36*
X128369695Y-69706689D02*
G01*
X128508894Y-69734377D01*
X128617519Y-69779371D01*
X128771138Y-69843002D01*
X129007153Y-70000702D01*
X129207868Y-70201417D01*
X129365568Y-70437432D01*
X129424738Y-70580282D01*
X129431154Y-70595770D01*
X129474193Y-70699677D01*
X129529570Y-70978073D01*
X129529570Y-71261927D01*
X129474193Y-71540323D01*
X129365568Y-71802568D01*
X129207868Y-72038583D01*
X129007153Y-72239298D01*
X128771138Y-72396998D01*
X128617519Y-72460629D01*
X128508894Y-72505623D01*
X128369695Y-72533312D01*
X128230497Y-72561000D01*
X127946643Y-72561000D01*
X127807445Y-72533312D01*
X127668246Y-72505623D01*
X127559621Y-72460629D01*
X127406002Y-72396998D01*
X127169987Y-72239298D01*
X126969272Y-72038583D01*
X126811572Y-71802568D01*
X126702947Y-71540323D01*
X126647570Y-71261927D01*
X126647570Y-70978073D01*
X126702947Y-70699677D01*
X126745987Y-70595770D01*
X126752402Y-70580282D01*
X126811572Y-70437432D01*
X126969272Y-70201417D01*
X127169987Y-70000702D01*
X127406002Y-69843002D01*
X127559621Y-69779371D01*
X127668246Y-69734377D01*
X127807445Y-69706689D01*
X127946643Y-69679000D01*
X128230497Y-69679000D01*
X128369695Y-69706689D01*
G37*
G36*
X136533980Y-69706689D02*
G01*
X136673179Y-69734377D01*
X136781804Y-69779371D01*
X136935423Y-69843002D01*
X137171438Y-70000702D01*
X137372153Y-70201417D01*
X137529853Y-70437432D01*
X137589023Y-70580282D01*
X137595439Y-70595770D01*
X137638478Y-70699677D01*
X137693855Y-70978073D01*
X137693855Y-71261927D01*
X137638478Y-71540323D01*
X137529853Y-71802568D01*
X137372153Y-72038583D01*
X137171438Y-72239298D01*
X136935423Y-72396998D01*
X136781804Y-72460629D01*
X136673179Y-72505623D01*
X136533980Y-72533312D01*
X136394782Y-72561000D01*
X136110928Y-72561000D01*
X135971730Y-72533312D01*
X135832531Y-72505623D01*
X135723906Y-72460629D01*
X135570287Y-72396998D01*
X135334272Y-72239298D01*
X135133557Y-72038583D01*
X134975857Y-71802568D01*
X134867232Y-71540323D01*
X134811855Y-71261927D01*
X134811855Y-70978073D01*
X134867232Y-70699677D01*
X134910272Y-70595770D01*
X134916687Y-70580282D01*
X134975857Y-70437432D01*
X135133557Y-70201417D01*
X135334272Y-70000702D01*
X135570287Y-69843002D01*
X135723906Y-69779371D01*
X135832531Y-69734377D01*
X135971730Y-69706689D01*
X136110928Y-69679000D01*
X136394782Y-69679000D01*
X136533980Y-69706689D01*
G37*
G36*
X144698265Y-69706689D02*
G01*
X144837464Y-69734377D01*
X144946089Y-69779371D01*
X145099708Y-69843002D01*
X145335723Y-70000702D01*
X145536438Y-70201417D01*
X145694138Y-70437432D01*
X145753308Y-70580282D01*
X145759724Y-70595770D01*
X145802763Y-70699677D01*
X145858140Y-70978073D01*
X145858140Y-71261927D01*
X145802763Y-71540323D01*
X145694138Y-71802568D01*
X145536438Y-72038583D01*
X145335723Y-72239298D01*
X145099708Y-72396998D01*
X144946089Y-72460629D01*
X144837464Y-72505623D01*
X144698265Y-72533312D01*
X144559067Y-72561000D01*
X144275213Y-72561000D01*
X144136015Y-72533312D01*
X143996816Y-72505623D01*
X143888191Y-72460629D01*
X143734572Y-72396998D01*
X143498557Y-72239298D01*
X143297842Y-72038583D01*
X143140142Y-71802568D01*
X143031517Y-71540323D01*
X142976140Y-71261927D01*
X142976140Y-70978073D01*
X143031517Y-70699677D01*
X143074557Y-70595770D01*
X143080972Y-70580282D01*
X143140142Y-70437432D01*
X143297842Y-70201417D01*
X143498557Y-70000702D01*
X143734572Y-69843002D01*
X143888191Y-69779371D01*
X143996816Y-69734377D01*
X144136015Y-69706689D01*
X144275213Y-69679000D01*
X144559067Y-69679000D01*
X144698265Y-69706689D01*
G37*
G36*
X164971125Y-69706689D02*
G01*
X165110324Y-69734377D01*
X165218949Y-69779371D01*
X165372568Y-69843002D01*
X165608583Y-70000702D01*
X165809298Y-70201417D01*
X165966998Y-70437432D01*
X166026168Y-70580282D01*
X166032584Y-70595770D01*
X166075623Y-70699677D01*
X166131000Y-70978073D01*
X166131000Y-71261927D01*
X166075623Y-71540323D01*
X165966998Y-71802568D01*
X165809298Y-72038583D01*
X165608583Y-72239298D01*
X165372568Y-72396998D01*
X165218949Y-72460629D01*
X165110324Y-72505623D01*
X164971125Y-72533312D01*
X164831927Y-72561000D01*
X164548073Y-72561000D01*
X164408875Y-72533312D01*
X164269676Y-72505623D01*
X164161051Y-72460629D01*
X164007432Y-72396998D01*
X163771417Y-72239298D01*
X163570702Y-72038583D01*
X163413002Y-71802568D01*
X163304377Y-71540323D01*
X163249000Y-71261927D01*
X163249000Y-70978073D01*
X163304377Y-70699677D01*
X163347417Y-70595770D01*
X163353832Y-70580282D01*
X163413002Y-70437432D01*
X163570702Y-70201417D01*
X163771417Y-70000702D01*
X164007432Y-69843002D01*
X164161051Y-69779371D01*
X164269676Y-69734377D01*
X164408875Y-69706689D01*
X164548073Y-69679000D01*
X164831927Y-69679000D01*
X164971125Y-69706689D01*
G37*
G36*
X161571125Y-69706689D02*
G01*
X161710324Y-69734377D01*
X161818949Y-69779371D01*
X161972568Y-69843002D01*
X162208583Y-70000702D01*
X162409298Y-70201417D01*
X162566998Y-70437432D01*
X162626168Y-70580282D01*
X162632584Y-70595770D01*
X162675623Y-70699677D01*
X162731000Y-70978073D01*
X162731000Y-71261927D01*
X162675623Y-71540323D01*
X162566998Y-71802568D01*
X162409298Y-72038583D01*
X162208583Y-72239298D01*
X161972568Y-72396998D01*
X161818949Y-72460629D01*
X161710324Y-72505623D01*
X161571125Y-72533312D01*
X161431927Y-72561000D01*
X161148073Y-72561000D01*
X161008875Y-72533312D01*
X160869676Y-72505623D01*
X160761051Y-72460629D01*
X160607432Y-72396998D01*
X160371417Y-72239298D01*
X160170702Y-72038583D01*
X160013002Y-71802568D01*
X159904377Y-71540323D01*
X159849000Y-71261927D01*
X159849000Y-70978073D01*
X159904377Y-70699677D01*
X159947417Y-70595770D01*
X159953832Y-70580282D01*
X160013002Y-70437432D01*
X160170702Y-70201417D01*
X160371417Y-70000702D01*
X160607432Y-69843002D01*
X160761051Y-69779371D01*
X160869676Y-69734377D01*
X161008875Y-69706689D01*
X161148073Y-69679000D01*
X161431927Y-69679000D01*
X161571125Y-69706689D01*
G37*
G36*
X148098265Y-69706689D02*
G01*
X148237464Y-69734377D01*
X148346089Y-69779371D01*
X148499708Y-69843002D01*
X148735723Y-70000702D01*
X148936438Y-70201417D01*
X149094138Y-70437432D01*
X149153308Y-70580282D01*
X149159724Y-70595770D01*
X149202763Y-70699677D01*
X149258140Y-70978073D01*
X149258140Y-71261927D01*
X149202763Y-71540323D01*
X149094138Y-71802568D01*
X148936438Y-72038583D01*
X148735723Y-72239298D01*
X148499708Y-72396998D01*
X148346089Y-72460629D01*
X148237464Y-72505623D01*
X148098265Y-72533312D01*
X147959067Y-72561000D01*
X147675213Y-72561000D01*
X147536015Y-72533312D01*
X147396816Y-72505623D01*
X147288191Y-72460629D01*
X147134572Y-72396998D01*
X146898557Y-72239298D01*
X146697842Y-72038583D01*
X146540142Y-71802568D01*
X146431517Y-71540323D01*
X146376140Y-71261927D01*
X146376140Y-70978073D01*
X146431517Y-70699677D01*
X146474557Y-70595770D01*
X146480972Y-70580282D01*
X146540142Y-70437432D01*
X146697842Y-70201417D01*
X146898557Y-70000702D01*
X147134572Y-69843002D01*
X147288191Y-69779371D01*
X147396816Y-69734377D01*
X147536015Y-69706689D01*
X147675213Y-69679000D01*
X147959067Y-69679000D01*
X148098265Y-69706689D01*
G37*
G36*
X139933980Y-69706689D02*
G01*
X140073179Y-69734377D01*
X140181804Y-69779371D01*
X140335423Y-69843002D01*
X140571438Y-70000702D01*
X140772153Y-70201417D01*
X140929853Y-70437432D01*
X140989023Y-70580282D01*
X140995439Y-70595770D01*
X141038478Y-70699677D01*
X141093855Y-70978073D01*
X141093855Y-71261927D01*
X141038478Y-71540323D01*
X140929853Y-71802568D01*
X140772153Y-72038583D01*
X140571438Y-72239298D01*
X140335423Y-72396998D01*
X140181804Y-72460629D01*
X140073179Y-72505623D01*
X139933980Y-72533312D01*
X139794782Y-72561000D01*
X139510928Y-72561000D01*
X139371730Y-72533312D01*
X139232531Y-72505623D01*
X139123906Y-72460629D01*
X138970287Y-72396998D01*
X138734272Y-72239298D01*
X138533557Y-72038583D01*
X138375857Y-71802568D01*
X138267232Y-71540323D01*
X138211855Y-71261927D01*
X138211855Y-70978073D01*
X138267232Y-70699677D01*
X138310272Y-70595770D01*
X138316687Y-70580282D01*
X138375857Y-70437432D01*
X138533557Y-70201417D01*
X138734272Y-70000702D01*
X138970287Y-69843002D01*
X139123906Y-69779371D01*
X139232531Y-69734377D01*
X139371730Y-69706689D01*
X139510928Y-69679000D01*
X139794782Y-69679000D01*
X139933980Y-69706689D01*
G37*
G36*
X195325000Y-72272402D02*
G01*
X188723000Y-72272402D01*
X188723000Y-70414802D01*
X195325000Y-70414802D01*
X195325000Y-72272402D01*
G37*
G36*
X170133674Y-70988465D02*
G01*
X170171367Y-70999899D01*
X170206103Y-71018466D01*
X170236548Y-71043452D01*
X170261534Y-71073897D01*
X170280101Y-71108633D01*
X170291535Y-71146326D01*
X170296000Y-71191661D01*
X170296000Y-72028339D01*
X170291535Y-72073674D01*
X170280101Y-72111367D01*
X170261534Y-72146103D01*
X170236548Y-72176548D01*
X170206103Y-72201534D01*
X170171367Y-72220101D01*
X170133674Y-72231535D01*
X170088339Y-72236000D01*
X169001661Y-72236000D01*
X168956326Y-72231535D01*
X168918633Y-72220101D01*
X168883897Y-72201534D01*
X168853452Y-72176548D01*
X168828466Y-72146103D01*
X168809899Y-72111367D01*
X168798465Y-72073674D01*
X168794000Y-72028339D01*
X168794000Y-71191661D01*
X168798465Y-71146326D01*
X168809899Y-71108633D01*
X168828466Y-71073897D01*
X168853452Y-71043452D01*
X168883897Y-71018466D01*
X168918633Y-70999899D01*
X168956326Y-70988465D01*
X169001661Y-70984000D01*
X170088339Y-70984000D01*
X170133674Y-70988465D01*
G37*
G36*
X181828674Y-69103465D02*
G01*
X181866367Y-69114899D01*
X181901103Y-69133466D01*
X181931548Y-69158452D01*
X181956534Y-69188897D01*
X181975101Y-69223633D01*
X181986535Y-69261326D01*
X181991000Y-69306661D01*
X181991000Y-70393339D01*
X181986535Y-70438674D01*
X181975101Y-70476367D01*
X181956534Y-70511103D01*
X181931548Y-70541548D01*
X181901103Y-70566534D01*
X181866367Y-70585101D01*
X181828674Y-70596535D01*
X181783339Y-70601000D01*
X180946661Y-70601000D01*
X180901326Y-70596535D01*
X180863633Y-70585101D01*
X180828897Y-70566534D01*
X180798452Y-70541548D01*
X180773466Y-70511103D01*
X180754899Y-70476367D01*
X180743465Y-70438674D01*
X180739000Y-70393339D01*
X180739000Y-69306661D01*
X180743465Y-69261326D01*
X180754899Y-69223633D01*
X180773466Y-69188897D01*
X180798452Y-69158452D01*
X180828897Y-69133466D01*
X180863633Y-69114899D01*
X180901326Y-69103465D01*
X180946661Y-69099000D01*
X181783339Y-69099000D01*
X181828674Y-69103465D01*
G37*
G36*
X179778674Y-69103465D02*
G01*
X179816367Y-69114899D01*
X179851103Y-69133466D01*
X179881548Y-69158452D01*
X179906534Y-69188897D01*
X179925101Y-69223633D01*
X179936535Y-69261326D01*
X179941000Y-69306661D01*
X179941000Y-70393339D01*
X179936535Y-70438674D01*
X179925101Y-70476367D01*
X179906534Y-70511103D01*
X179881548Y-70541548D01*
X179851103Y-70566534D01*
X179816367Y-70585101D01*
X179778674Y-70596535D01*
X179733339Y-70601000D01*
X178896661Y-70601000D01*
X178851326Y-70596535D01*
X178813633Y-70585101D01*
X178778897Y-70566534D01*
X178748452Y-70541548D01*
X178723466Y-70511103D01*
X178704899Y-70476367D01*
X178693465Y-70438674D01*
X178689000Y-70393339D01*
X178689000Y-69306661D01*
X178693465Y-69261326D01*
X178704899Y-69223633D01*
X178723466Y-69188897D01*
X178748452Y-69158452D01*
X178778897Y-69133466D01*
X178813633Y-69114899D01*
X178851326Y-69103465D01*
X178896661Y-69099000D01*
X179733339Y-69099000D01*
X179778674Y-69103465D01*
G37*
G36*
X195325000Y-70016800D02*
G01*
X188723000Y-70016800D01*
X188723000Y-68159200D01*
X195325000Y-68159200D01*
X195325000Y-70016800D01*
G37*
G36*
X171244928Y-68866764D02*
G01*
X171266009Y-68873160D01*
X171285445Y-68883548D01*
X171302476Y-68897524D01*
X171316452Y-68914555D01*
X171326840Y-68933991D01*
X171333236Y-68955072D01*
X171336000Y-68983140D01*
X171336000Y-69446860D01*
X171333236Y-69474928D01*
X171326840Y-69496009D01*
X171316452Y-69515445D01*
X171302476Y-69532476D01*
X171285445Y-69546452D01*
X171266009Y-69556840D01*
X171244928Y-69563236D01*
X171216860Y-69566000D01*
X169403140Y-69566000D01*
X169375072Y-69563236D01*
X169353991Y-69556840D01*
X169334555Y-69546452D01*
X169317524Y-69532476D01*
X169303548Y-69515445D01*
X169293160Y-69496009D01*
X169286764Y-69474928D01*
X169284000Y-69446860D01*
X169284000Y-68983140D01*
X169286764Y-68955072D01*
X169293160Y-68933991D01*
X169303548Y-68914555D01*
X169317524Y-68897524D01*
X169334555Y-68883548D01*
X169353991Y-68873160D01*
X169375072Y-68866764D01*
X169403140Y-68864000D01*
X171216860Y-68864000D01*
X171244928Y-68866764D01*
G37*
G36*
X176194928Y-68866764D02*
G01*
X176216009Y-68873160D01*
X176235445Y-68883548D01*
X176252476Y-68897524D01*
X176266452Y-68914555D01*
X176276840Y-68933991D01*
X176283236Y-68955072D01*
X176286000Y-68983140D01*
X176286000Y-69446860D01*
X176283236Y-69474928D01*
X176276840Y-69496009D01*
X176266452Y-69515445D01*
X176252476Y-69532476D01*
X176235445Y-69546452D01*
X176216009Y-69556840D01*
X176194928Y-69563236D01*
X176166860Y-69566000D01*
X174353140Y-69566000D01*
X174325072Y-69563236D01*
X174303991Y-69556840D01*
X174284555Y-69546452D01*
X174267524Y-69532476D01*
X174253548Y-69515445D01*
X174243160Y-69496009D01*
X174236764Y-69474928D01*
X174234000Y-69446860D01*
X174234000Y-68983140D01*
X174236764Y-68955072D01*
X174243160Y-68933991D01*
X174253548Y-68914555D01*
X174267524Y-68897524D01*
X174284555Y-68883548D01*
X174303991Y-68873160D01*
X174325072Y-68866764D01*
X174353140Y-68864000D01*
X176166860Y-68864000D01*
X176194928Y-68866764D01*
G37*
G36*
X171244928Y-67596764D02*
G01*
X171266009Y-67603160D01*
X171285445Y-67613548D01*
X171302476Y-67627524D01*
X171316452Y-67644555D01*
X171326840Y-67663991D01*
X171333236Y-67685072D01*
X171336000Y-67713140D01*
X171336000Y-68176860D01*
X171333236Y-68204928D01*
X171326840Y-68226009D01*
X171316452Y-68245445D01*
X171302476Y-68262476D01*
X171285445Y-68276452D01*
X171266009Y-68286840D01*
X171244928Y-68293236D01*
X171216860Y-68296000D01*
X169403140Y-68296000D01*
X169375072Y-68293236D01*
X169353991Y-68286840D01*
X169334555Y-68276452D01*
X169317524Y-68262476D01*
X169303548Y-68245445D01*
X169293160Y-68226009D01*
X169286764Y-68204928D01*
X169284000Y-68176860D01*
X169284000Y-67713140D01*
X169286764Y-67685072D01*
X169293160Y-67663991D01*
X169303548Y-67644555D01*
X169317524Y-67627524D01*
X169334555Y-67613548D01*
X169353991Y-67603160D01*
X169375072Y-67596764D01*
X169403140Y-67594000D01*
X171216860Y-67594000D01*
X171244928Y-67596764D01*
G37*
G36*
X176194928Y-67596764D02*
G01*
X176216009Y-67603160D01*
X176235445Y-67613548D01*
X176252476Y-67627524D01*
X176266452Y-67644555D01*
X176276840Y-67663991D01*
X176283236Y-67685072D01*
X176286000Y-67713140D01*
X176286000Y-68176860D01*
X176283236Y-68204928D01*
X176276840Y-68226009D01*
X176266452Y-68245445D01*
X176252476Y-68262476D01*
X176235445Y-68276452D01*
X176216009Y-68286840D01*
X176194928Y-68293236D01*
X176166860Y-68296000D01*
X174353140Y-68296000D01*
X174325072Y-68293236D01*
X174303991Y-68286840D01*
X174284555Y-68276452D01*
X174267524Y-68262476D01*
X174253548Y-68245445D01*
X174243160Y-68226009D01*
X174236764Y-68204928D01*
X174234000Y-68176860D01*
X174234000Y-67713140D01*
X174236764Y-67685072D01*
X174243160Y-67663991D01*
X174253548Y-67644555D01*
X174267524Y-67627524D01*
X174284555Y-67613548D01*
X174303991Y-67603160D01*
X174325072Y-67596764D01*
X174353140Y-67594000D01*
X176166860Y-67594000D01*
X176194928Y-67596764D01*
G37*
G36*
X178164499Y-66343445D02*
G01*
X178201995Y-66354820D01*
X178236554Y-66373292D01*
X178266847Y-66398153D01*
X178291708Y-66428446D01*
X178310180Y-66463005D01*
X178321555Y-66500501D01*
X178326000Y-66545638D01*
X178326000Y-67284362D01*
X178321555Y-67329499D01*
X178310180Y-67366995D01*
X178291708Y-67401554D01*
X178266847Y-67431847D01*
X178236554Y-67456708D01*
X178201995Y-67475180D01*
X178164499Y-67486555D01*
X178119362Y-67491000D01*
X177480638Y-67491000D01*
X177435501Y-67486555D01*
X177398005Y-67475180D01*
X177363446Y-67456708D01*
X177333153Y-67431847D01*
X177308292Y-67401554D01*
X177289820Y-67366995D01*
X177278445Y-67329499D01*
X177274000Y-67284362D01*
X177274000Y-66545638D01*
X177278445Y-66500501D01*
X177289820Y-66463005D01*
X177308292Y-66428446D01*
X177333153Y-66398153D01*
X177363446Y-66373292D01*
X177398005Y-66354820D01*
X177435501Y-66343445D01*
X177480638Y-66339000D01*
X178119362Y-66339000D01*
X178164499Y-66343445D01*
G37*
G36*
X176194928Y-66326764D02*
G01*
X176216009Y-66333160D01*
X176235445Y-66343548D01*
X176252476Y-66357524D01*
X176266452Y-66374555D01*
X176276840Y-66393991D01*
X176283236Y-66415072D01*
X176286000Y-66443140D01*
X176286000Y-66906860D01*
X176283236Y-66934928D01*
X176276840Y-66956009D01*
X176266452Y-66975445D01*
X176252476Y-66992476D01*
X176235445Y-67006452D01*
X176216009Y-67016840D01*
X176194928Y-67023236D01*
X176166860Y-67026000D01*
X174353140Y-67026000D01*
X174325072Y-67023236D01*
X174303991Y-67016840D01*
X174284555Y-67006452D01*
X174267524Y-66992476D01*
X174253548Y-66975445D01*
X174243160Y-66956009D01*
X174236764Y-66934928D01*
X174234000Y-66906860D01*
X174234000Y-66443140D01*
X174236764Y-66415072D01*
X174243160Y-66393991D01*
X174253548Y-66374555D01*
X174267524Y-66357524D01*
X174284555Y-66343548D01*
X174303991Y-66333160D01*
X174325072Y-66326764D01*
X174353140Y-66324000D01*
X176166860Y-66324000D01*
X176194928Y-66326764D01*
G37*
G36*
X171244928Y-66326764D02*
G01*
X171266009Y-66333160D01*
X171285445Y-66343548D01*
X171302476Y-66357524D01*
X171316452Y-66374555D01*
X171326840Y-66393991D01*
X171333236Y-66415072D01*
X171336000Y-66443140D01*
X171336000Y-66906860D01*
X171333236Y-66934928D01*
X171326840Y-66956009D01*
X171316452Y-66975445D01*
X171302476Y-66992476D01*
X171285445Y-67006452D01*
X171266009Y-67016840D01*
X171244928Y-67023236D01*
X171216860Y-67026000D01*
X169403140Y-67026000D01*
X169375072Y-67023236D01*
X169353991Y-67016840D01*
X169334555Y-67006452D01*
X169317524Y-66992476D01*
X169303548Y-66975445D01*
X169293160Y-66956009D01*
X169286764Y-66934928D01*
X169284000Y-66906860D01*
X169284000Y-66443140D01*
X169286764Y-66415072D01*
X169293160Y-66393991D01*
X169303548Y-66374555D01*
X169317524Y-66357524D01*
X169334555Y-66343548D01*
X169353991Y-66333160D01*
X169375072Y-66326764D01*
X169403140Y-66324000D01*
X171216860Y-66324000D01*
X171244928Y-66326764D01*
G37*
G36*
X176194928Y-65056764D02*
G01*
X176216009Y-65063160D01*
X176235445Y-65073548D01*
X176252476Y-65087524D01*
X176266452Y-65104555D01*
X176276840Y-65123991D01*
X176283236Y-65145072D01*
X176286000Y-65173140D01*
X176286000Y-65636860D01*
X176283236Y-65664928D01*
X176276840Y-65686009D01*
X176266452Y-65705445D01*
X176252476Y-65722476D01*
X176235445Y-65736452D01*
X176216009Y-65746840D01*
X176194928Y-65753236D01*
X176166860Y-65756000D01*
X174353140Y-65756000D01*
X174325072Y-65753236D01*
X174303991Y-65746840D01*
X174284555Y-65736452D01*
X174267524Y-65722476D01*
X174253548Y-65705445D01*
X174243160Y-65686009D01*
X174236764Y-65664928D01*
X174234000Y-65636860D01*
X174234000Y-65173140D01*
X174236764Y-65145072D01*
X174243160Y-65123991D01*
X174253548Y-65104555D01*
X174267524Y-65087524D01*
X174284555Y-65073548D01*
X174303991Y-65063160D01*
X174325072Y-65056764D01*
X174353140Y-65054000D01*
X176166860Y-65054000D01*
X176194928Y-65056764D01*
G37*
G36*
X171244928Y-65056764D02*
G01*
X171266009Y-65063160D01*
X171285445Y-65073548D01*
X171302476Y-65087524D01*
X171316452Y-65104555D01*
X171326840Y-65123991D01*
X171333236Y-65145072D01*
X171336000Y-65173140D01*
X171336000Y-65636860D01*
X171333236Y-65664928D01*
X171326840Y-65686009D01*
X171316452Y-65705445D01*
X171302476Y-65722476D01*
X171285445Y-65736452D01*
X171266009Y-65746840D01*
X171244928Y-65753236D01*
X171216860Y-65756000D01*
X169403140Y-65756000D01*
X169375072Y-65753236D01*
X169353991Y-65746840D01*
X169334555Y-65736452D01*
X169317524Y-65722476D01*
X169303548Y-65705445D01*
X169293160Y-65686009D01*
X169286764Y-65664928D01*
X169284000Y-65636860D01*
X169284000Y-65173140D01*
X169286764Y-65145072D01*
X169293160Y-65123991D01*
X169303548Y-65104555D01*
X169317524Y-65087524D01*
X169334555Y-65073548D01*
X169353991Y-65063160D01*
X169375072Y-65056764D01*
X169403140Y-65054000D01*
X171216860Y-65054000D01*
X171244928Y-65056764D01*
G37*
G36*
X178164499Y-64593445D02*
G01*
X178201995Y-64604820D01*
X178236554Y-64623292D01*
X178266847Y-64648153D01*
X178291708Y-64678446D01*
X178310180Y-64713005D01*
X178321555Y-64750501D01*
X178326000Y-64795638D01*
X178326000Y-65534362D01*
X178321555Y-65579499D01*
X178310180Y-65616995D01*
X178291708Y-65651554D01*
X178266847Y-65681847D01*
X178236554Y-65706708D01*
X178201995Y-65725180D01*
X178164499Y-65736555D01*
X178119362Y-65741000D01*
X177480638Y-65741000D01*
X177435501Y-65736555D01*
X177398005Y-65725180D01*
X177363446Y-65706708D01*
X177333153Y-65681847D01*
X177308292Y-65651554D01*
X177289820Y-65616995D01*
X177278445Y-65579499D01*
X177274000Y-65534362D01*
X177274000Y-64795638D01*
X177278445Y-64750501D01*
X177289820Y-64713005D01*
X177308292Y-64678446D01*
X177333153Y-64648153D01*
X177363446Y-64623292D01*
X177398005Y-64604820D01*
X177435501Y-64593445D01*
X177480638Y-64589000D01*
X178119362Y-64589000D01*
X178164499Y-64593445D01*
G37*
G36*
X191166320Y-61778103D02*
G01*
X191200485Y-61788467D01*
X191231964Y-61805293D01*
X191259560Y-61827940D01*
X191282207Y-61855536D01*
X191299033Y-61887015D01*
X191309397Y-61921180D01*
X191313500Y-61962842D01*
X191313500Y-65037158D01*
X191309397Y-65078820D01*
X191299033Y-65112985D01*
X191282207Y-65144464D01*
X191259560Y-65172060D01*
X191231964Y-65194707D01*
X191200485Y-65211533D01*
X191166320Y-65221897D01*
X191124658Y-65226000D01*
X189875342Y-65226000D01*
X189833680Y-65221897D01*
X189799515Y-65211533D01*
X189768036Y-65194707D01*
X189740440Y-65172060D01*
X189717793Y-65144464D01*
X189700967Y-65112985D01*
X189690603Y-65078820D01*
X189686500Y-65037158D01*
X189686500Y-61962842D01*
X189690603Y-61921180D01*
X189700967Y-61887015D01*
X189717793Y-61855536D01*
X189740440Y-61827940D01*
X189768036Y-61805293D01*
X189799515Y-61788467D01*
X189833680Y-61778103D01*
X189875342Y-61774000D01*
X191124658Y-61774000D01*
X191166320Y-61778103D01*
G37*
G36*
X185191320Y-61778103D02*
G01*
X185225485Y-61788467D01*
X185256964Y-61805293D01*
X185284560Y-61827940D01*
X185307207Y-61855536D01*
X185324033Y-61887015D01*
X185334397Y-61921180D01*
X185338500Y-61962842D01*
X185338500Y-65037158D01*
X185334397Y-65078820D01*
X185324033Y-65112985D01*
X185307207Y-65144464D01*
X185284560Y-65172060D01*
X185256964Y-65194707D01*
X185225485Y-65211533D01*
X185191320Y-65221897D01*
X185149658Y-65226000D01*
X183900342Y-65226000D01*
X183858680Y-65221897D01*
X183824515Y-65211533D01*
X183793036Y-65194707D01*
X183765440Y-65172060D01*
X183742793Y-65144464D01*
X183725967Y-65112985D01*
X183715603Y-65078820D01*
X183711500Y-65037158D01*
X183711500Y-61962842D01*
X183715603Y-61921180D01*
X183725967Y-61887015D01*
X183742793Y-61855536D01*
X183765440Y-61827940D01*
X183793036Y-61805293D01*
X183824515Y-61788467D01*
X183858680Y-61778103D01*
X183900342Y-61774000D01*
X185149658Y-61774000D01*
X185191320Y-61778103D01*
G37*
G36*
X202286820Y-60332143D02*
G01*
X202463500Y-60367287D01*
X202601373Y-60424396D01*
X202796355Y-60505160D01*
X202814721Y-60517432D01*
X203095920Y-60705323D01*
X203350677Y-60960080D01*
X203350678Y-60960082D01*
X203550840Y-61259645D01*
X203584922Y-61341927D01*
X203688713Y-61592500D01*
X203723857Y-61769180D01*
X203759000Y-61945858D01*
X203759000Y-62306142D01*
X203688713Y-62659499D01*
X203550840Y-62992355D01*
X203550839Y-62992356D01*
X203350677Y-63291920D01*
X203095920Y-63546677D01*
X202945120Y-63647438D01*
X202796355Y-63746840D01*
X202601373Y-63827604D01*
X202463500Y-63884713D01*
X202286821Y-63919856D01*
X202110142Y-63955000D01*
X201749858Y-63955000D01*
X201573179Y-63919856D01*
X201396500Y-63884713D01*
X201258627Y-63827604D01*
X201063645Y-63746840D01*
X200914880Y-63647438D01*
X200764080Y-63546677D01*
X200509323Y-63291920D01*
X200309161Y-62992356D01*
X200309160Y-62992355D01*
X200171287Y-62659499D01*
X200101000Y-62306142D01*
X200101000Y-61945858D01*
X200136143Y-61769180D01*
X200171287Y-61592500D01*
X200275078Y-61341927D01*
X200309160Y-61259645D01*
X200509322Y-60960082D01*
X200509323Y-60960080D01*
X200764080Y-60705323D01*
X201045279Y-60517432D01*
X201063645Y-60505160D01*
X201258627Y-60424396D01*
X201396500Y-60367287D01*
X201573180Y-60332143D01*
X201749858Y-60297000D01*
X202110142Y-60297000D01*
X202286820Y-60332143D01*
G37*
G36*
X123605410Y-59786688D02*
G01*
X123744609Y-59814377D01*
X123853234Y-59859371D01*
X124006853Y-59923002D01*
X124242868Y-60080702D01*
X124443583Y-60281417D01*
X124601283Y-60517432D01*
X124664914Y-60671051D01*
X124709908Y-60779676D01*
X124765285Y-61058074D01*
X124765285Y-61341926D01*
X124715443Y-61592500D01*
X124709908Y-61620323D01*
X124601283Y-61882568D01*
X124443583Y-62118583D01*
X124242868Y-62319298D01*
X124006853Y-62476998D01*
X123853234Y-62540629D01*
X123744609Y-62585623D01*
X123605410Y-62613312D01*
X123466212Y-62641000D01*
X123182358Y-62641000D01*
X123043160Y-62613312D01*
X122903961Y-62585623D01*
X122795336Y-62540629D01*
X122641717Y-62476998D01*
X122405702Y-62319298D01*
X122204987Y-62118583D01*
X122047287Y-61882568D01*
X121938662Y-61620323D01*
X121933128Y-61592500D01*
X121883285Y-61341926D01*
X121883285Y-61058074D01*
X121938662Y-60779676D01*
X121983656Y-60671051D01*
X122047287Y-60517432D01*
X122204987Y-60281417D01*
X122405702Y-60080702D01*
X122641717Y-59923002D01*
X122795336Y-59859371D01*
X122903961Y-59814377D01*
X123043160Y-59786688D01*
X123182358Y-59759000D01*
X123466212Y-59759000D01*
X123605410Y-59786688D01*
G37*
G36*
X164971125Y-59786688D02*
G01*
X165110324Y-59814377D01*
X165218949Y-59859371D01*
X165372568Y-59923002D01*
X165608583Y-60080702D01*
X165809298Y-60281417D01*
X165966998Y-60517432D01*
X166030629Y-60671051D01*
X166075623Y-60779676D01*
X166131000Y-61058074D01*
X166131000Y-61341926D01*
X166081158Y-61592500D01*
X166075623Y-61620323D01*
X165966998Y-61882568D01*
X165809298Y-62118583D01*
X165608583Y-62319298D01*
X165372568Y-62476998D01*
X165218949Y-62540629D01*
X165110324Y-62585623D01*
X164971125Y-62613312D01*
X164831927Y-62641000D01*
X164548073Y-62641000D01*
X164408875Y-62613312D01*
X164269676Y-62585623D01*
X164161051Y-62540629D01*
X164007432Y-62476998D01*
X163771417Y-62319298D01*
X163570702Y-62118583D01*
X163413002Y-61882568D01*
X163304377Y-61620323D01*
X163298843Y-61592500D01*
X163249000Y-61341926D01*
X163249000Y-61058074D01*
X163304377Y-60779676D01*
X163349371Y-60671051D01*
X163413002Y-60517432D01*
X163570702Y-60281417D01*
X163771417Y-60080702D01*
X164007432Y-59923002D01*
X164161051Y-59859371D01*
X164269676Y-59814377D01*
X164408875Y-59786688D01*
X164548073Y-59759000D01*
X164831927Y-59759000D01*
X164971125Y-59786688D01*
G37*
G36*
X128369695Y-59786688D02*
G01*
X128508894Y-59814377D01*
X128617519Y-59859371D01*
X128771138Y-59923002D01*
X129007153Y-60080702D01*
X129207868Y-60281417D01*
X129365568Y-60517432D01*
X129429199Y-60671051D01*
X129474193Y-60779676D01*
X129529570Y-61058074D01*
X129529570Y-61341926D01*
X129479728Y-61592500D01*
X129474193Y-61620323D01*
X129365568Y-61882568D01*
X129207868Y-62118583D01*
X129007153Y-62319298D01*
X128771138Y-62476998D01*
X128617519Y-62540629D01*
X128508894Y-62585623D01*
X128369695Y-62613312D01*
X128230497Y-62641000D01*
X127946643Y-62641000D01*
X127807445Y-62613312D01*
X127668246Y-62585623D01*
X127559621Y-62540629D01*
X127406002Y-62476998D01*
X127169987Y-62319298D01*
X126969272Y-62118583D01*
X126811572Y-61882568D01*
X126702947Y-61620323D01*
X126697413Y-61592500D01*
X126647570Y-61341926D01*
X126647570Y-61058074D01*
X126702947Y-60779676D01*
X126747941Y-60671051D01*
X126811572Y-60517432D01*
X126969272Y-60281417D01*
X127169987Y-60080702D01*
X127406002Y-59923002D01*
X127559621Y-59859371D01*
X127668246Y-59814377D01*
X127807445Y-59786688D01*
X127946643Y-59759000D01*
X128230497Y-59759000D01*
X128369695Y-59786688D01*
G37*
G36*
X131769695Y-59786688D02*
G01*
X131908894Y-59814377D01*
X132017519Y-59859371D01*
X132171138Y-59923002D01*
X132407153Y-60080702D01*
X132607868Y-60281417D01*
X132765568Y-60517432D01*
X132829199Y-60671051D01*
X132874193Y-60779676D01*
X132929570Y-61058074D01*
X132929570Y-61341926D01*
X132879728Y-61592500D01*
X132874193Y-61620323D01*
X132765568Y-61882568D01*
X132607868Y-62118583D01*
X132407153Y-62319298D01*
X132171138Y-62476998D01*
X132017519Y-62540629D01*
X131908894Y-62585623D01*
X131769695Y-62613312D01*
X131630497Y-62641000D01*
X131346643Y-62641000D01*
X131207445Y-62613312D01*
X131068246Y-62585623D01*
X130959621Y-62540629D01*
X130806002Y-62476998D01*
X130569987Y-62319298D01*
X130369272Y-62118583D01*
X130211572Y-61882568D01*
X130102947Y-61620323D01*
X130097413Y-61592500D01*
X130047570Y-61341926D01*
X130047570Y-61058074D01*
X130102947Y-60779676D01*
X130147941Y-60671051D01*
X130211572Y-60517432D01*
X130369272Y-60281417D01*
X130569987Y-60080702D01*
X130806002Y-59923002D01*
X130959621Y-59859371D01*
X131068246Y-59814377D01*
X131207445Y-59786688D01*
X131346643Y-59759000D01*
X131630497Y-59759000D01*
X131769695Y-59786688D01*
G37*
G36*
X161571125Y-59786688D02*
G01*
X161710324Y-59814377D01*
X161818949Y-59859371D01*
X161972568Y-59923002D01*
X162208583Y-60080702D01*
X162409298Y-60281417D01*
X162566998Y-60517432D01*
X162630629Y-60671051D01*
X162675623Y-60779676D01*
X162731000Y-61058074D01*
X162731000Y-61341926D01*
X162681158Y-61592500D01*
X162675623Y-61620323D01*
X162566998Y-61882568D01*
X162409298Y-62118583D01*
X162208583Y-62319298D01*
X161972568Y-62476998D01*
X161818949Y-62540629D01*
X161710324Y-62585623D01*
X161571125Y-62613312D01*
X161431927Y-62641000D01*
X161148073Y-62641000D01*
X161008875Y-62613312D01*
X160869676Y-62585623D01*
X160761051Y-62540629D01*
X160607432Y-62476998D01*
X160371417Y-62319298D01*
X160170702Y-62118583D01*
X160013002Y-61882568D01*
X159904377Y-61620323D01*
X159898843Y-61592500D01*
X159849000Y-61341926D01*
X159849000Y-61058074D01*
X159904377Y-60779676D01*
X159949371Y-60671051D01*
X160013002Y-60517432D01*
X160170702Y-60281417D01*
X160371417Y-60080702D01*
X160607432Y-59923002D01*
X160761051Y-59859371D01*
X160869676Y-59814377D01*
X161008875Y-59786688D01*
X161148073Y-59759000D01*
X161431927Y-59759000D01*
X161571125Y-59786688D01*
G37*
G36*
X139933980Y-59786688D02*
G01*
X140073179Y-59814377D01*
X140181804Y-59859371D01*
X140335423Y-59923002D01*
X140571438Y-60080702D01*
X140772153Y-60281417D01*
X140929853Y-60517432D01*
X140993484Y-60671051D01*
X141038478Y-60779676D01*
X141093855Y-61058074D01*
X141093855Y-61341926D01*
X141044013Y-61592500D01*
X141038478Y-61620323D01*
X140929853Y-61882568D01*
X140772153Y-62118583D01*
X140571438Y-62319298D01*
X140335423Y-62476998D01*
X140181804Y-62540629D01*
X140073179Y-62585623D01*
X139933980Y-62613312D01*
X139794782Y-62641000D01*
X139510928Y-62641000D01*
X139371730Y-62613312D01*
X139232531Y-62585623D01*
X139123906Y-62540629D01*
X138970287Y-62476998D01*
X138734272Y-62319298D01*
X138533557Y-62118583D01*
X138375857Y-61882568D01*
X138267232Y-61620323D01*
X138261698Y-61592500D01*
X138211855Y-61341926D01*
X138211855Y-61058074D01*
X138267232Y-60779676D01*
X138312226Y-60671051D01*
X138375857Y-60517432D01*
X138533557Y-60281417D01*
X138734272Y-60080702D01*
X138970287Y-59923002D01*
X139123906Y-59859371D01*
X139232531Y-59814377D01*
X139371730Y-59786688D01*
X139510928Y-59759000D01*
X139794782Y-59759000D01*
X139933980Y-59786688D01*
G37*
G36*
X144698265Y-59786688D02*
G01*
X144837464Y-59814377D01*
X144946089Y-59859371D01*
X145099708Y-59923002D01*
X145335723Y-60080702D01*
X145536438Y-60281417D01*
X145694138Y-60517432D01*
X145757769Y-60671051D01*
X145802763Y-60779676D01*
X145858140Y-61058074D01*
X145858140Y-61341926D01*
X145808298Y-61592500D01*
X145802763Y-61620323D01*
X145694138Y-61882568D01*
X145536438Y-62118583D01*
X145335723Y-62319298D01*
X145099708Y-62476998D01*
X144946089Y-62540629D01*
X144837464Y-62585623D01*
X144698265Y-62613312D01*
X144559067Y-62641000D01*
X144275213Y-62641000D01*
X144136015Y-62613312D01*
X143996816Y-62585623D01*
X143888191Y-62540629D01*
X143734572Y-62476998D01*
X143498557Y-62319298D01*
X143297842Y-62118583D01*
X143140142Y-61882568D01*
X143031517Y-61620323D01*
X143025983Y-61592500D01*
X142976140Y-61341926D01*
X142976140Y-61058074D01*
X143031517Y-60779676D01*
X143076511Y-60671051D01*
X143140142Y-60517432D01*
X143297842Y-60281417D01*
X143498557Y-60080702D01*
X143734572Y-59923002D01*
X143888191Y-59859371D01*
X143996816Y-59814377D01*
X144136015Y-59786688D01*
X144275213Y-59759000D01*
X144559067Y-59759000D01*
X144698265Y-59786688D01*
G37*
G36*
X120205410Y-59786688D02*
G01*
X120344609Y-59814377D01*
X120453234Y-59859371D01*
X120606853Y-59923002D01*
X120842868Y-60080702D01*
X121043583Y-60281417D01*
X121201283Y-60517432D01*
X121264914Y-60671051D01*
X121309908Y-60779676D01*
X121365285Y-61058074D01*
X121365285Y-61341926D01*
X121315443Y-61592500D01*
X121309908Y-61620323D01*
X121201283Y-61882568D01*
X121043583Y-62118583D01*
X120842868Y-62319298D01*
X120606853Y-62476998D01*
X120453234Y-62540629D01*
X120344609Y-62585623D01*
X120205410Y-62613312D01*
X120066212Y-62641000D01*
X119782358Y-62641000D01*
X119643160Y-62613312D01*
X119503961Y-62585623D01*
X119395336Y-62540629D01*
X119241717Y-62476998D01*
X119005702Y-62319298D01*
X118804987Y-62118583D01*
X118647287Y-61882568D01*
X118538662Y-61620323D01*
X118533128Y-61592500D01*
X118483285Y-61341926D01*
X118483285Y-61058074D01*
X118538662Y-60779676D01*
X118583656Y-60671051D01*
X118647287Y-60517432D01*
X118804987Y-60281417D01*
X119005702Y-60080702D01*
X119241717Y-59923002D01*
X119395336Y-59859371D01*
X119503961Y-59814377D01*
X119643160Y-59786688D01*
X119782358Y-59759000D01*
X120066212Y-59759000D01*
X120205410Y-59786688D01*
G37*
G36*
X136533980Y-59786688D02*
G01*
X136673179Y-59814377D01*
X136781804Y-59859371D01*
X136935423Y-59923002D01*
X137171438Y-60080702D01*
X137372153Y-60281417D01*
X137529853Y-60517432D01*
X137593484Y-60671051D01*
X137638478Y-60779676D01*
X137693855Y-61058074D01*
X137693855Y-61341926D01*
X137644013Y-61592500D01*
X137638478Y-61620323D01*
X137529853Y-61882568D01*
X137372153Y-62118583D01*
X137171438Y-62319298D01*
X136935423Y-62476998D01*
X136781804Y-62540629D01*
X136673179Y-62585623D01*
X136533980Y-62613312D01*
X136394782Y-62641000D01*
X136110928Y-62641000D01*
X135971730Y-62613312D01*
X135832531Y-62585623D01*
X135723906Y-62540629D01*
X135570287Y-62476998D01*
X135334272Y-62319298D01*
X135133557Y-62118583D01*
X134975857Y-61882568D01*
X134867232Y-61620323D01*
X134861698Y-61592500D01*
X134811855Y-61341926D01*
X134811855Y-61058074D01*
X134867232Y-60779676D01*
X134912226Y-60671051D01*
X134975857Y-60517432D01*
X135133557Y-60281417D01*
X135334272Y-60080702D01*
X135570287Y-59923002D01*
X135723906Y-59859371D01*
X135832531Y-59814377D01*
X135971730Y-59786688D01*
X136110928Y-59759000D01*
X136394782Y-59759000D01*
X136533980Y-59786688D01*
G37*
G36*
X152862550Y-59786688D02*
G01*
X153001749Y-59814377D01*
X153110374Y-59859371D01*
X153263993Y-59923002D01*
X153500008Y-60080702D01*
X153700723Y-60281417D01*
X153858423Y-60517432D01*
X153922054Y-60671051D01*
X153967048Y-60779676D01*
X154022425Y-61058074D01*
X154022425Y-61341926D01*
X153972583Y-61592500D01*
X153967048Y-61620323D01*
X153858423Y-61882568D01*
X153700723Y-62118583D01*
X153500008Y-62319298D01*
X153263993Y-62476998D01*
X153110374Y-62540629D01*
X153001749Y-62585623D01*
X152862550Y-62613312D01*
X152723352Y-62641000D01*
X152439498Y-62641000D01*
X152300300Y-62613312D01*
X152161101Y-62585623D01*
X152052476Y-62540629D01*
X151898857Y-62476998D01*
X151662842Y-62319298D01*
X151462127Y-62118583D01*
X151304427Y-61882568D01*
X151195802Y-61620323D01*
X151190268Y-61592500D01*
X151140425Y-61341926D01*
X151140425Y-61058074D01*
X151195802Y-60779676D01*
X151240796Y-60671051D01*
X151304427Y-60517432D01*
X151462127Y-60281417D01*
X151662842Y-60080702D01*
X151898857Y-59923002D01*
X152052476Y-59859371D01*
X152161101Y-59814377D01*
X152300300Y-59786688D01*
X152439498Y-59759000D01*
X152723352Y-59759000D01*
X152862550Y-59786688D01*
G37*
G36*
X156262550Y-59786688D02*
G01*
X156401749Y-59814377D01*
X156510374Y-59859371D01*
X156663993Y-59923002D01*
X156900008Y-60080702D01*
X157100723Y-60281417D01*
X157258423Y-60517432D01*
X157322054Y-60671051D01*
X157367048Y-60779676D01*
X157422425Y-61058074D01*
X157422425Y-61341926D01*
X157372583Y-61592500D01*
X157367048Y-61620323D01*
X157258423Y-61882568D01*
X157100723Y-62118583D01*
X156900008Y-62319298D01*
X156663993Y-62476998D01*
X156510374Y-62540629D01*
X156401749Y-62585623D01*
X156262550Y-62613312D01*
X156123352Y-62641000D01*
X155839498Y-62641000D01*
X155700300Y-62613312D01*
X155561101Y-62585623D01*
X155452476Y-62540629D01*
X155298857Y-62476998D01*
X155062842Y-62319298D01*
X154862127Y-62118583D01*
X154704427Y-61882568D01*
X154595802Y-61620323D01*
X154590268Y-61592500D01*
X154540425Y-61341926D01*
X154540425Y-61058074D01*
X154595802Y-60779676D01*
X154640796Y-60671051D01*
X154704427Y-60517432D01*
X154862127Y-60281417D01*
X155062842Y-60080702D01*
X155298857Y-59923002D01*
X155452476Y-59859371D01*
X155561101Y-59814377D01*
X155700300Y-59786688D01*
X155839498Y-59759000D01*
X156123352Y-59759000D01*
X156262550Y-59786688D01*
G37*
G36*
X148098265Y-59786688D02*
G01*
X148237464Y-59814377D01*
X148346089Y-59859371D01*
X148499708Y-59923002D01*
X148735723Y-60080702D01*
X148936438Y-60281417D01*
X149094138Y-60517432D01*
X149157769Y-60671051D01*
X149202763Y-60779676D01*
X149258140Y-61058074D01*
X149258140Y-61341926D01*
X149208298Y-61592500D01*
X149202763Y-61620323D01*
X149094138Y-61882568D01*
X148936438Y-62118583D01*
X148735723Y-62319298D01*
X148499708Y-62476998D01*
X148346089Y-62540629D01*
X148237464Y-62585623D01*
X148098265Y-62613312D01*
X147959067Y-62641000D01*
X147675213Y-62641000D01*
X147536015Y-62613312D01*
X147396816Y-62585623D01*
X147288191Y-62540629D01*
X147134572Y-62476998D01*
X146898557Y-62319298D01*
X146697842Y-62118583D01*
X146540142Y-61882568D01*
X146431517Y-61620323D01*
X146425983Y-61592500D01*
X146376140Y-61341926D01*
X146376140Y-61058074D01*
X146431517Y-60779676D01*
X146476511Y-60671051D01*
X146540142Y-60517432D01*
X146697842Y-60281417D01*
X146898557Y-60080702D01*
X147134572Y-59923002D01*
X147288191Y-59859371D01*
X147396816Y-59814377D01*
X147536015Y-59786688D01*
X147675213Y-59759000D01*
X147959067Y-59759000D01*
X148098265Y-59786688D01*
G37*
G36*
X179001000Y-60491000D02*
G01*
X176599000Y-60491000D01*
X176599000Y-58889000D01*
X179001000Y-58889000D01*
X179001000Y-60491000D01*
G37*
G36*
X189073820Y-56698103D02*
G01*
X189107985Y-56708467D01*
X189139464Y-56725293D01*
X189167060Y-56747940D01*
X189189707Y-56775536D01*
X189206533Y-56807015D01*
X189216897Y-56841180D01*
X189221000Y-56882842D01*
X189221000Y-59957158D01*
X189216897Y-59998820D01*
X189206533Y-60032985D01*
X189189707Y-60064464D01*
X189167060Y-60092060D01*
X189139464Y-60114707D01*
X189107985Y-60131533D01*
X189073820Y-60141897D01*
X189032158Y-60146000D01*
X187782842Y-60146000D01*
X187741180Y-60141897D01*
X187707015Y-60131533D01*
X187675536Y-60114707D01*
X187647940Y-60092060D01*
X187625293Y-60064464D01*
X187608467Y-60032985D01*
X187598103Y-59998820D01*
X187594000Y-59957158D01*
X187594000Y-56882842D01*
X187598103Y-56841180D01*
X187608467Y-56807015D01*
X187625293Y-56775536D01*
X187647940Y-56747940D01*
X187675536Y-56725293D01*
X187707015Y-56708467D01*
X187741180Y-56698103D01*
X187782842Y-56694000D01*
X189032158Y-56694000D01*
X189073820Y-56698103D01*
G37*
G36*
X183098820Y-56698103D02*
G01*
X183132985Y-56708467D01*
X183164464Y-56725293D01*
X183192060Y-56747940D01*
X183214707Y-56775536D01*
X183231533Y-56807015D01*
X183241897Y-56841180D01*
X183246000Y-56882842D01*
X183246000Y-59957158D01*
X183241897Y-59998820D01*
X183231533Y-60032985D01*
X183214707Y-60064464D01*
X183192060Y-60092060D01*
X183164464Y-60114707D01*
X183132985Y-60131533D01*
X183098820Y-60141897D01*
X183057158Y-60146000D01*
X181807842Y-60146000D01*
X181766180Y-60141897D01*
X181732015Y-60131533D01*
X181700536Y-60114707D01*
X181672940Y-60092060D01*
X181650293Y-60064464D01*
X181633467Y-60032985D01*
X181623103Y-59998820D01*
X181619000Y-59957158D01*
X181619000Y-56882842D01*
X181623103Y-56841180D01*
X181633467Y-56807015D01*
X181650293Y-56775536D01*
X181672940Y-56747940D01*
X181700536Y-56725293D01*
X181732015Y-56708467D01*
X181766180Y-56698103D01*
X181807842Y-56694000D01*
X183057158Y-56694000D01*
X183098820Y-56698103D01*
G37*
G36*
X178278571Y-56352863D02*
G01*
X178357023Y-56360590D01*
X178457682Y-56391125D01*
X178508013Y-56406392D01*
X178647165Y-56480771D01*
X178769133Y-56580867D01*
X178869229Y-56702835D01*
X178943608Y-56841987D01*
X178943608Y-56841988D01*
X178989410Y-56992977D01*
X179004875Y-57150000D01*
X178989410Y-57307023D01*
X178958875Y-57407682D01*
X178943608Y-57458013D01*
X178869229Y-57597165D01*
X178769133Y-57719133D01*
X178647165Y-57819229D01*
X178508013Y-57893608D01*
X178457682Y-57908875D01*
X178357023Y-57939410D01*
X178278571Y-57947137D01*
X178239346Y-57951000D01*
X177360654Y-57951000D01*
X177321429Y-57947137D01*
X177242977Y-57939410D01*
X177142318Y-57908875D01*
X177091987Y-57893608D01*
X176952835Y-57819229D01*
X176830867Y-57719133D01*
X176730771Y-57597165D01*
X176656392Y-57458013D01*
X176641125Y-57407682D01*
X176610590Y-57307023D01*
X176595125Y-57150000D01*
X176610590Y-56992977D01*
X176656392Y-56841988D01*
X176656392Y-56841987D01*
X176730771Y-56702835D01*
X176830867Y-56580867D01*
X176952835Y-56480771D01*
X177091987Y-56406392D01*
X177142318Y-56391125D01*
X177242977Y-56360590D01*
X177321429Y-56352863D01*
X177360654Y-56349000D01*
X178239346Y-56349000D01*
X178278571Y-56352863D01*
G37*
G36*
X202286821Y-52412144D02*
G01*
X202463500Y-52447287D01*
X202569032Y-52491000D01*
X202796355Y-52585160D01*
X202796356Y-52585161D01*
X203095920Y-52785323D01*
X203350677Y-53040080D01*
X203446283Y-53183164D01*
X203550840Y-53339645D01*
X203615950Y-53496836D01*
X203688713Y-53672500D01*
X203759000Y-54025859D01*
X203759000Y-54386141D01*
X203688713Y-54739500D01*
X203631604Y-54877373D01*
X203550840Y-55072355D01*
X203550839Y-55072356D01*
X203350677Y-55371920D01*
X203095920Y-55626677D01*
X202945120Y-55727438D01*
X202796355Y-55826840D01*
X202601373Y-55907604D01*
X202463500Y-55964713D01*
X202286821Y-55999856D01*
X202110142Y-56035000D01*
X201749858Y-56035000D01*
X201573179Y-55999856D01*
X201396500Y-55964713D01*
X201258627Y-55907604D01*
X201063645Y-55826840D01*
X200914880Y-55727438D01*
X200764080Y-55626677D01*
X200509323Y-55371920D01*
X200309161Y-55072356D01*
X200309160Y-55072355D01*
X200228396Y-54877373D01*
X200171287Y-54739500D01*
X200101000Y-54386141D01*
X200101000Y-54025859D01*
X200171287Y-53672500D01*
X200244050Y-53496836D01*
X200309160Y-53339645D01*
X200413717Y-53183164D01*
X200509323Y-53040080D01*
X200764080Y-52785323D01*
X201063644Y-52585161D01*
X201063645Y-52585160D01*
X201290968Y-52491000D01*
X201396500Y-52447287D01*
X201573180Y-52412143D01*
X201749858Y-52377000D01*
X202110142Y-52377000D01*
X202286821Y-52412144D01*
G37*
G36*
X178278571Y-53812863D02*
G01*
X178357023Y-53820590D01*
X178457682Y-53851125D01*
X178508013Y-53866392D01*
X178647165Y-53940771D01*
X178769133Y-54040867D01*
X178869229Y-54162835D01*
X178943608Y-54301987D01*
X178943608Y-54301988D01*
X178989410Y-54452977D01*
X179004875Y-54610000D01*
X178989410Y-54767023D01*
X178958875Y-54867682D01*
X178943608Y-54918013D01*
X178869229Y-55057165D01*
X178769133Y-55179133D01*
X178647165Y-55279229D01*
X178508013Y-55353608D01*
X178457682Y-55368875D01*
X178357023Y-55399410D01*
X178278571Y-55407137D01*
X178239346Y-55411000D01*
X177360654Y-55411000D01*
X177321429Y-55407137D01*
X177242977Y-55399410D01*
X177142318Y-55368875D01*
X177091987Y-55353608D01*
X176952835Y-55279229D01*
X176830867Y-55179133D01*
X176730771Y-55057165D01*
X176656392Y-54918013D01*
X176641125Y-54867682D01*
X176610590Y-54767023D01*
X176595125Y-54610000D01*
X176610590Y-54452977D01*
X176656392Y-54301988D01*
X176656392Y-54301987D01*
X176730771Y-54162835D01*
X176830867Y-54040867D01*
X176952835Y-53940771D01*
X177091987Y-53866392D01*
X177142318Y-53851125D01*
X177242977Y-53820590D01*
X177321429Y-53812863D01*
X177360654Y-53809000D01*
X178239346Y-53809000D01*
X178278571Y-53812863D01*
G37*
G36*
X187316000Y-54376000D02*
G01*
X182219000Y-54376000D01*
X182219000Y-53574000D01*
X182739001Y-53574000D01*
X182763387Y-53571598D01*
X182786836Y-53564485D01*
X182808447Y-53552934D01*
X182827389Y-53537389D01*
X182842934Y-53518447D01*
X182854485Y-53496836D01*
X182861598Y-53473387D01*
X182864000Y-53449001D01*
X182864000Y-53230999D01*
X182861598Y-53206613D01*
X182854485Y-53183164D01*
X182842934Y-53161553D01*
X182827389Y-53142611D01*
X182808447Y-53127066D01*
X182786836Y-53115515D01*
X182763387Y-53108402D01*
X182739001Y-53106000D01*
X182219000Y-53106000D01*
X182219000Y-52304000D01*
X182739001Y-52304000D01*
X182763387Y-52301598D01*
X182786836Y-52294485D01*
X182808447Y-52282934D01*
X182827389Y-52267389D01*
X182842934Y-52248447D01*
X182854485Y-52226836D01*
X182861598Y-52203387D01*
X182864000Y-52179001D01*
X182864000Y-51960999D01*
X182861598Y-51936613D01*
X182854485Y-51913164D01*
X182842934Y-51891553D01*
X182827389Y-51872611D01*
X182808447Y-51857066D01*
X182786836Y-51845515D01*
X182763387Y-51838402D01*
X182739001Y-51836000D01*
X182219000Y-51836000D01*
X182219000Y-51034000D01*
X182739001Y-51034000D01*
X182763387Y-51031598D01*
X182786836Y-51024485D01*
X182808447Y-51012934D01*
X182827389Y-50997389D01*
X182842934Y-50978447D01*
X182854485Y-50956836D01*
X182861598Y-50933387D01*
X182864000Y-50909001D01*
X182864000Y-50690999D01*
X182861598Y-50666613D01*
X182854485Y-50643164D01*
X182842934Y-50621553D01*
X182827389Y-50602611D01*
X182808447Y-50587066D01*
X182786836Y-50575515D01*
X182763387Y-50568402D01*
X182739001Y-50566000D01*
X182219000Y-50566000D01*
X182219000Y-49764000D01*
X187316000Y-49764000D01*
X187316000Y-54376000D01*
G37*
G36*
X188621000Y-54376000D02*
G01*
X187819000Y-54376000D01*
X187819000Y-53574000D01*
X188621000Y-53574000D01*
X188621000Y-54376000D01*
G37*
G36*
X188621000Y-53106000D02*
G01*
X187819000Y-53106000D01*
X187819000Y-52304000D01*
X188621000Y-52304000D01*
X188621000Y-53106000D01*
G37*
G36*
X116306564Y-50429389D02*
G01*
X116497833Y-50508615D01*
X116497835Y-50508616D01*
X116669973Y-50623635D01*
X116816365Y-50770027D01*
X116925519Y-50933387D01*
X116931385Y-50942167D01*
X117010611Y-51133436D01*
X117051000Y-51336484D01*
X117051000Y-51543516D01*
X117010611Y-51746564D01*
X116941603Y-51913164D01*
X116931384Y-51937835D01*
X116816365Y-52109973D01*
X116669973Y-52256365D01*
X116497835Y-52371384D01*
X116497834Y-52371385D01*
X116497833Y-52371385D01*
X116306564Y-52450611D01*
X116103516Y-52491000D01*
X115896484Y-52491000D01*
X115693436Y-52450611D01*
X115502167Y-52371385D01*
X115502166Y-52371385D01*
X115502165Y-52371384D01*
X115330027Y-52256365D01*
X115183635Y-52109973D01*
X115068616Y-51937835D01*
X115058397Y-51913164D01*
X114989389Y-51746564D01*
X114949000Y-51543516D01*
X114949000Y-51336484D01*
X114989389Y-51133436D01*
X115068615Y-50942167D01*
X115074482Y-50933387D01*
X115183635Y-50770027D01*
X115330027Y-50623635D01*
X115502165Y-50508616D01*
X115502167Y-50508615D01*
X115693436Y-50429389D01*
X115896484Y-50389000D01*
X116103516Y-50389000D01*
X116306564Y-50429389D01*
G37*
G36*
X163706564Y-50429389D02*
G01*
X163897833Y-50508615D01*
X163897835Y-50508616D01*
X164069973Y-50623635D01*
X164216365Y-50770027D01*
X164325519Y-50933387D01*
X164331385Y-50942167D01*
X164410611Y-51133436D01*
X164451000Y-51336484D01*
X164451000Y-51543516D01*
X164410611Y-51746564D01*
X164341603Y-51913164D01*
X164331384Y-51937835D01*
X164216365Y-52109973D01*
X164069973Y-52256365D01*
X163897835Y-52371384D01*
X163897834Y-52371385D01*
X163897833Y-52371385D01*
X163706564Y-52450611D01*
X163503516Y-52491000D01*
X163296484Y-52491000D01*
X163093436Y-52450611D01*
X162902167Y-52371385D01*
X162902166Y-52371385D01*
X162902165Y-52371384D01*
X162730027Y-52256365D01*
X162583635Y-52109973D01*
X162468616Y-51937835D01*
X162458397Y-51913164D01*
X162389389Y-51746564D01*
X162349000Y-51543516D01*
X162349000Y-51336484D01*
X162389389Y-51133436D01*
X162468615Y-50942167D01*
X162474482Y-50933387D01*
X162583635Y-50770027D01*
X162730027Y-50623635D01*
X162902165Y-50508616D01*
X162902167Y-50508615D01*
X163093436Y-50429389D01*
X163296484Y-50389000D01*
X163503516Y-50389000D01*
X163706564Y-50429389D01*
G37*
G36*
X188621000Y-51836000D02*
G01*
X187819000Y-51836000D01*
X187819000Y-51034000D01*
X188621000Y-51034000D01*
X188621000Y-51836000D01*
G37*
G36*
X197746037Y-49896267D02*
G01*
X197828253Y-49912621D01*
X197892410Y-49939196D01*
X197983142Y-49976778D01*
X198122540Y-50069921D01*
X198241089Y-50188470D01*
X198334232Y-50327868D01*
X198359553Y-50389000D01*
X198398389Y-50482757D01*
X198431096Y-50647188D01*
X198431096Y-50814840D01*
X198398389Y-50979271D01*
X198376714Y-51031598D01*
X198334232Y-51134160D01*
X198241089Y-51273558D01*
X198122540Y-51392107D01*
X197983142Y-51485250D01*
X197892410Y-51522832D01*
X197828253Y-51549407D01*
X197746038Y-51565760D01*
X197663823Y-51582114D01*
X197496169Y-51582114D01*
X197413954Y-51565760D01*
X197331739Y-51549407D01*
X197267582Y-51522832D01*
X197176850Y-51485250D01*
X197037452Y-51392107D01*
X196918903Y-51273558D01*
X196825760Y-51134160D01*
X196783278Y-51031598D01*
X196761603Y-50979271D01*
X196728896Y-50814840D01*
X196728896Y-50647188D01*
X196761603Y-50482757D01*
X196800439Y-50389000D01*
X196825760Y-50327868D01*
X196918903Y-50188470D01*
X197037452Y-50069921D01*
X197176850Y-49976778D01*
X197267582Y-49939196D01*
X197331739Y-49912621D01*
X197413955Y-49896267D01*
X197496169Y-49879914D01*
X197663823Y-49879914D01*
X197746037Y-49896267D01*
G37*
G36*
X188621000Y-50566000D02*
G01*
X187819000Y-50566000D01*
X187819000Y-49764000D01*
X188621000Y-49764000D01*
X188621000Y-50566000D01*
G37*
G36*
X193418660Y-49532740D02*
G01*
X191137340Y-49532740D01*
X191137340Y-47810220D01*
X193418660Y-47810220D01*
X193418660Y-49532740D01*
G37*
G36*
X187508000Y-46123000D02*
G01*
X184856000Y-46123000D01*
X184856000Y-44461000D01*
X187508000Y-44461000D01*
X187508000Y-46123000D01*
G37*
G36*
X150097717Y-43328898D02*
G01*
X150345858Y-43431681D01*
X150569180Y-43580900D01*
X150759100Y-43770820D01*
X150908319Y-43994142D01*
X151011102Y-44242283D01*
X151063500Y-44505706D01*
X151063500Y-44774294D01*
X151011102Y-45037717D01*
X150908319Y-45285858D01*
X150759100Y-45509180D01*
X150569180Y-45699100D01*
X150345858Y-45848319D01*
X150097717Y-45951102D01*
X149834294Y-46003500D01*
X149565706Y-46003500D01*
X149302283Y-45951102D01*
X149054142Y-45848319D01*
X148830820Y-45699100D01*
X148640900Y-45509180D01*
X148491681Y-45285858D01*
X148388898Y-45037717D01*
X148336500Y-44774294D01*
X148336500Y-44505706D01*
X148388898Y-44242283D01*
X148491681Y-43994142D01*
X148640900Y-43770820D01*
X148830820Y-43580900D01*
X149054142Y-43431681D01*
X149302283Y-43328898D01*
X149565706Y-43276500D01*
X149834294Y-43276500D01*
X150097717Y-43328898D01*
G37*
G36*
X146097717Y-43328898D02*
G01*
X146345858Y-43431681D01*
X146569180Y-43580900D01*
X146759100Y-43770820D01*
X146908319Y-43994142D01*
X147011102Y-44242283D01*
X147063500Y-44505706D01*
X147063500Y-44774294D01*
X147011102Y-45037717D01*
X146908319Y-45285858D01*
X146759100Y-45509180D01*
X146569180Y-45699100D01*
X146345858Y-45848319D01*
X146097717Y-45951102D01*
X145834294Y-46003500D01*
X145565706Y-46003500D01*
X145302283Y-45951102D01*
X145054142Y-45848319D01*
X144830820Y-45699100D01*
X144640900Y-45509180D01*
X144491681Y-45285858D01*
X144388898Y-45037717D01*
X144336500Y-44774294D01*
X144336500Y-44505706D01*
X144388898Y-44242283D01*
X144491681Y-43994142D01*
X144640900Y-43770820D01*
X144830820Y-43580900D01*
X145054142Y-43431681D01*
X145302283Y-43328898D01*
X145565706Y-43276500D01*
X145834294Y-43276500D01*
X146097717Y-43328898D01*
G37*
G36*
X154097717Y-43328898D02*
G01*
X154345858Y-43431681D01*
X154569180Y-43580900D01*
X154759100Y-43770820D01*
X154908319Y-43994142D01*
X155011102Y-44242283D01*
X155063500Y-44505706D01*
X155063500Y-44774294D01*
X155011102Y-45037717D01*
X154908319Y-45285858D01*
X154759100Y-45509180D01*
X154569180Y-45699100D01*
X154345858Y-45848319D01*
X154097717Y-45951102D01*
X153834294Y-46003500D01*
X153565706Y-46003500D01*
X153302283Y-45951102D01*
X153054142Y-45848319D01*
X152830820Y-45699100D01*
X152640900Y-45509180D01*
X152491681Y-45285858D01*
X152388898Y-45037717D01*
X152336500Y-44774294D01*
X152336500Y-44505706D01*
X152388898Y-44242283D01*
X152491681Y-43994142D01*
X152640900Y-43770820D01*
X152830820Y-43580900D01*
X153054142Y-43431681D01*
X153302283Y-43328898D01*
X153565706Y-43276500D01*
X153834294Y-43276500D01*
X154097717Y-43328898D01*
G37*
G36*
X138097717Y-43328898D02*
G01*
X138345858Y-43431681D01*
X138569180Y-43580900D01*
X138759100Y-43770820D01*
X138908319Y-43994142D01*
X139011102Y-44242283D01*
X139063500Y-44505706D01*
X139063500Y-44774294D01*
X139011102Y-45037717D01*
X138908319Y-45285858D01*
X138759100Y-45509180D01*
X138569180Y-45699100D01*
X138345858Y-45848319D01*
X138097717Y-45951102D01*
X137834294Y-46003500D01*
X137565706Y-46003500D01*
X137302283Y-45951102D01*
X137054142Y-45848319D01*
X136830820Y-45699100D01*
X136640900Y-45509180D01*
X136491681Y-45285858D01*
X136388898Y-45037717D01*
X136336500Y-44774294D01*
X136336500Y-44505706D01*
X136388898Y-44242283D01*
X136491681Y-43994142D01*
X136640900Y-43770820D01*
X136830820Y-43580900D01*
X137054142Y-43431681D01*
X137302283Y-43328898D01*
X137565706Y-43276500D01*
X137834294Y-43276500D01*
X138097717Y-43328898D01*
G37*
G36*
X142097717Y-43328898D02*
G01*
X142345858Y-43431681D01*
X142569180Y-43580900D01*
X142759100Y-43770820D01*
X142908319Y-43994142D01*
X143011102Y-44242283D01*
X143063500Y-44505706D01*
X143063500Y-44774294D01*
X143011102Y-45037717D01*
X142908319Y-45285858D01*
X142759100Y-45509180D01*
X142569180Y-45699100D01*
X142345858Y-45848319D01*
X142097717Y-45951102D01*
X141834294Y-46003500D01*
X141565706Y-46003500D01*
X141302283Y-45951102D01*
X141054142Y-45848319D01*
X140830820Y-45699100D01*
X140640900Y-45509180D01*
X140491681Y-45285858D01*
X140388898Y-45037717D01*
X140336500Y-44774294D01*
X140336500Y-44505706D01*
X140388898Y-44242283D01*
X140491681Y-43994142D01*
X140640900Y-43770820D01*
X140830820Y-43580900D01*
X141054142Y-43431681D01*
X141302283Y-43328898D01*
X141565706Y-43276500D01*
X141834294Y-43276500D01*
X142097717Y-43328898D01*
G37*
G36*
X134097717Y-43328898D02*
G01*
X134345858Y-43431681D01*
X134569180Y-43580900D01*
X134759100Y-43770820D01*
X134908319Y-43994142D01*
X135011102Y-44242283D01*
X135063500Y-44505706D01*
X135063500Y-44774294D01*
X135011102Y-45037717D01*
X134908319Y-45285858D01*
X134759100Y-45509180D01*
X134569180Y-45699100D01*
X134345858Y-45848319D01*
X134097717Y-45951102D01*
X133834294Y-46003500D01*
X133565706Y-46003500D01*
X133302283Y-45951102D01*
X133054142Y-45848319D01*
X132830820Y-45699100D01*
X132640900Y-45509180D01*
X132491681Y-45285858D01*
X132388898Y-45037717D01*
X132336500Y-44774294D01*
X132336500Y-44505706D01*
X132388898Y-44242283D01*
X132491681Y-43994142D01*
X132640900Y-43770820D01*
X132830820Y-43580900D01*
X133054142Y-43431681D01*
X133302283Y-43328898D01*
X133565706Y-43276500D01*
X133834294Y-43276500D01*
X134097717Y-43328898D01*
G37*
G36*
X130097717Y-43328898D02*
G01*
X130345858Y-43431681D01*
X130569180Y-43580900D01*
X130759100Y-43770820D01*
X130908319Y-43994142D01*
X131011102Y-44242283D01*
X131063500Y-44505706D01*
X131063500Y-44774294D01*
X131011102Y-45037717D01*
X130908319Y-45285858D01*
X130759100Y-45509180D01*
X130569180Y-45699100D01*
X130345858Y-45848319D01*
X130097717Y-45951102D01*
X129834294Y-46003500D01*
X129565706Y-46003500D01*
X129302283Y-45951102D01*
X129054142Y-45848319D01*
X128830820Y-45699100D01*
X128640900Y-45509180D01*
X128491681Y-45285858D01*
X128388898Y-45037717D01*
X128336500Y-44774294D01*
X128336500Y-44505706D01*
X128388898Y-44242283D01*
X128491681Y-43994142D01*
X128640900Y-43770820D01*
X128830820Y-43580900D01*
X129054142Y-43431681D01*
X129302283Y-43328898D01*
X129565706Y-43276500D01*
X129834294Y-43276500D01*
X130097717Y-43328898D01*
G37*
G36*
X127063500Y-46003500D02*
G01*
X124336500Y-46003500D01*
X124336500Y-43276500D01*
X127063500Y-43276500D01*
X127063500Y-46003500D01*
G37*
G36*
X196930674Y-44608465D02*
G01*
X196968367Y-44619899D01*
X197003103Y-44638466D01*
X197033548Y-44663452D01*
X197058534Y-44693897D01*
X197077101Y-44728633D01*
X197088535Y-44766326D01*
X197093000Y-44811661D01*
X197093000Y-45648339D01*
X197088535Y-45693674D01*
X197077101Y-45731367D01*
X197058534Y-45766103D01*
X197033548Y-45796548D01*
X197003103Y-45821534D01*
X196968367Y-45840101D01*
X196930674Y-45851535D01*
X196885339Y-45856000D01*
X195798661Y-45856000D01*
X195753326Y-45851535D01*
X195715633Y-45840101D01*
X195680897Y-45821534D01*
X195650452Y-45796548D01*
X195625466Y-45766103D01*
X195606899Y-45731367D01*
X195595465Y-45693674D01*
X195591000Y-45648339D01*
X195591000Y-44811661D01*
X195595465Y-44766326D01*
X195606899Y-44728633D01*
X195625466Y-44693897D01*
X195650452Y-44663452D01*
X195680897Y-44638466D01*
X195715633Y-44619899D01*
X195753326Y-44608465D01*
X195798661Y-44604000D01*
X196885339Y-44604000D01*
X196930674Y-44608465D01*
G37*
G36*
X193418660Y-45311260D02*
G01*
X191137340Y-45311260D01*
X191137340Y-43588740D01*
X193418660Y-43588740D01*
X193418660Y-45311260D01*
G37*
G36*
X196930674Y-42558465D02*
G01*
X196968367Y-42569899D01*
X197003103Y-42588466D01*
X197033548Y-42613452D01*
X197058534Y-42643897D01*
X197077101Y-42678633D01*
X197088535Y-42716326D01*
X197093000Y-42761661D01*
X197093000Y-43598339D01*
X197088535Y-43643674D01*
X197077101Y-43681367D01*
X197058534Y-43716103D01*
X197033548Y-43746548D01*
X197003103Y-43771534D01*
X196968367Y-43790101D01*
X196930674Y-43801535D01*
X196885339Y-43806000D01*
X195798661Y-43806000D01*
X195753326Y-43801535D01*
X195715633Y-43790101D01*
X195680897Y-43771534D01*
X195650452Y-43746548D01*
X195625466Y-43716103D01*
X195606899Y-43681367D01*
X195595465Y-43643674D01*
X195591000Y-43598339D01*
X195591000Y-42761661D01*
X195595465Y-42716326D01*
X195606899Y-42678633D01*
X195625466Y-42643897D01*
X195650452Y-42613452D01*
X195680897Y-42588466D01*
X195715633Y-42569899D01*
X195753326Y-42558465D01*
X195798661Y-42554000D01*
X196885339Y-42554000D01*
X196930674Y-42558465D01*
G37*
G36*
X189594499Y-42326445D02*
G01*
X189631995Y-42337820D01*
X189666554Y-42356292D01*
X189696847Y-42381153D01*
X189721708Y-42411446D01*
X189740180Y-42446005D01*
X189751555Y-42483501D01*
X189756000Y-42528638D01*
X189756000Y-43267362D01*
X189751555Y-43312499D01*
X189740180Y-43349995D01*
X189721708Y-43384554D01*
X189696847Y-43414847D01*
X189666554Y-43439708D01*
X189631995Y-43458180D01*
X189594499Y-43469555D01*
X189549362Y-43474000D01*
X188910638Y-43474000D01*
X188865501Y-43469555D01*
X188828005Y-43458180D01*
X188793446Y-43439708D01*
X188763153Y-43414847D01*
X188738292Y-43384554D01*
X188719820Y-43349995D01*
X188708445Y-43312499D01*
X188704000Y-43267362D01*
X188704000Y-42528638D01*
X188708445Y-42483501D01*
X188719820Y-42446005D01*
X188738292Y-42411446D01*
X188763153Y-42381153D01*
X188793446Y-42356292D01*
X188828005Y-42337820D01*
X188865501Y-42326445D01*
X188910638Y-42322000D01*
X189549362Y-42322000D01*
X189594499Y-42326445D01*
G37*
G36*
X187508000Y-43423000D02*
G01*
X184856000Y-43423000D01*
X184856000Y-41761000D01*
X187508000Y-41761000D01*
X187508000Y-43423000D01*
G37*
G36*
X140097717Y-39328898D02*
G01*
X140345858Y-39431681D01*
X140569180Y-39580900D01*
X140759100Y-39770820D01*
X140908319Y-39994142D01*
X141011102Y-40242283D01*
X141063500Y-40505706D01*
X141063500Y-40774294D01*
X141011102Y-41037717D01*
X140908319Y-41285858D01*
X140759100Y-41509180D01*
X140569180Y-41699100D01*
X140345858Y-41848319D01*
X140097717Y-41951102D01*
X139834294Y-42003500D01*
X139565706Y-42003500D01*
X139302283Y-41951102D01*
X139054142Y-41848319D01*
X138830820Y-41699100D01*
X138640900Y-41509180D01*
X138491681Y-41285858D01*
X138388898Y-41037717D01*
X138336500Y-40774294D01*
X138336500Y-40505706D01*
X138388898Y-40242283D01*
X138491681Y-39994142D01*
X138640900Y-39770820D01*
X138830820Y-39580900D01*
X139054142Y-39431681D01*
X139302283Y-39328898D01*
X139565706Y-39276500D01*
X139834294Y-39276500D01*
X140097717Y-39328898D01*
G37*
G36*
X136097717Y-39328898D02*
G01*
X136345858Y-39431681D01*
X136569180Y-39580900D01*
X136759100Y-39770820D01*
X136908319Y-39994142D01*
X137011102Y-40242283D01*
X137063500Y-40505706D01*
X137063500Y-40774294D01*
X137011102Y-41037717D01*
X136908319Y-41285858D01*
X136759100Y-41509180D01*
X136569180Y-41699100D01*
X136345858Y-41848319D01*
X136097717Y-41951102D01*
X135834294Y-42003500D01*
X135565706Y-42003500D01*
X135302283Y-41951102D01*
X135054142Y-41848319D01*
X134830820Y-41699100D01*
X134640900Y-41509180D01*
X134491681Y-41285858D01*
X134388898Y-41037717D01*
X134336500Y-40774294D01*
X134336500Y-40505706D01*
X134388898Y-40242283D01*
X134491681Y-39994142D01*
X134640900Y-39770820D01*
X134830820Y-39580900D01*
X135054142Y-39431681D01*
X135302283Y-39328898D01*
X135565706Y-39276500D01*
X135834294Y-39276500D01*
X136097717Y-39328898D01*
G37*
G36*
X148097717Y-39328898D02*
G01*
X148345858Y-39431681D01*
X148569180Y-39580900D01*
X148759100Y-39770820D01*
X148908319Y-39994142D01*
X149011102Y-40242283D01*
X149063500Y-40505706D01*
X149063500Y-40774294D01*
X149011102Y-41037717D01*
X148908319Y-41285858D01*
X148759100Y-41509180D01*
X148569180Y-41699100D01*
X148345858Y-41848319D01*
X148097717Y-41951102D01*
X147834294Y-42003500D01*
X147565706Y-42003500D01*
X147302283Y-41951102D01*
X147054142Y-41848319D01*
X146830820Y-41699100D01*
X146640900Y-41509180D01*
X146491681Y-41285858D01*
X146388898Y-41037717D01*
X146336500Y-40774294D01*
X146336500Y-40505706D01*
X146388898Y-40242283D01*
X146491681Y-39994142D01*
X146640900Y-39770820D01*
X146830820Y-39580900D01*
X147054142Y-39431681D01*
X147302283Y-39328898D01*
X147565706Y-39276500D01*
X147834294Y-39276500D01*
X148097717Y-39328898D01*
G37*
G36*
X132097717Y-39328898D02*
G01*
X132345858Y-39431681D01*
X132569180Y-39580900D01*
X132759100Y-39770820D01*
X132908319Y-39994142D01*
X133011102Y-40242283D01*
X133063500Y-40505706D01*
X133063500Y-40774294D01*
X133011102Y-41037717D01*
X132908319Y-41285858D01*
X132759100Y-41509180D01*
X132569180Y-41699100D01*
X132345858Y-41848319D01*
X132097717Y-41951102D01*
X131834294Y-42003500D01*
X131565706Y-42003500D01*
X131302283Y-41951102D01*
X131054142Y-41848319D01*
X130830820Y-41699100D01*
X130640900Y-41509180D01*
X130491681Y-41285858D01*
X130388898Y-41037717D01*
X130336500Y-40774294D01*
X130336500Y-40505706D01*
X130388898Y-40242283D01*
X130491681Y-39994142D01*
X130640900Y-39770820D01*
X130830820Y-39580900D01*
X131054142Y-39431681D01*
X131302283Y-39328898D01*
X131565706Y-39276500D01*
X131834294Y-39276500D01*
X132097717Y-39328898D01*
G37*
G36*
X144097717Y-39328898D02*
G01*
X144345858Y-39431681D01*
X144569180Y-39580900D01*
X144759100Y-39770820D01*
X144908319Y-39994142D01*
X145011102Y-40242283D01*
X145063500Y-40505706D01*
X145063500Y-40774294D01*
X145011102Y-41037717D01*
X144908319Y-41285858D01*
X144759100Y-41509180D01*
X144569180Y-41699100D01*
X144345858Y-41848319D01*
X144097717Y-41951102D01*
X143834294Y-42003500D01*
X143565706Y-42003500D01*
X143302283Y-41951102D01*
X143054142Y-41848319D01*
X142830820Y-41699100D01*
X142640900Y-41509180D01*
X142491681Y-41285858D01*
X142388898Y-41037717D01*
X142336500Y-40774294D01*
X142336500Y-40505706D01*
X142388898Y-40242283D01*
X142491681Y-39994142D01*
X142640900Y-39770820D01*
X142830820Y-39580900D01*
X143054142Y-39431681D01*
X143302283Y-39328898D01*
X143565706Y-39276500D01*
X143834294Y-39276500D01*
X144097717Y-39328898D01*
G37*
G36*
X152097717Y-39328898D02*
G01*
X152345858Y-39431681D01*
X152569180Y-39580900D01*
X152759100Y-39770820D01*
X152908319Y-39994142D01*
X153011102Y-40242283D01*
X153063500Y-40505706D01*
X153063500Y-40774294D01*
X153011102Y-41037717D01*
X152908319Y-41285858D01*
X152759100Y-41509180D01*
X152569180Y-41699100D01*
X152345858Y-41848319D01*
X152097717Y-41951102D01*
X151834294Y-42003500D01*
X151565706Y-42003500D01*
X151302283Y-41951102D01*
X151054142Y-41848319D01*
X150830820Y-41699100D01*
X150640900Y-41509180D01*
X150491681Y-41285858D01*
X150388898Y-41037717D01*
X150336500Y-40774294D01*
X150336500Y-40505706D01*
X150388898Y-40242283D01*
X150491681Y-39994142D01*
X150640900Y-39770820D01*
X150830820Y-39580900D01*
X151054142Y-39431681D01*
X151302283Y-39328898D01*
X151565706Y-39276500D01*
X151834294Y-39276500D01*
X152097717Y-39328898D01*
G37*
G36*
X128097717Y-39328898D02*
G01*
X128345858Y-39431681D01*
X128569180Y-39580900D01*
X128759100Y-39770820D01*
X128908319Y-39994142D01*
X129011102Y-40242283D01*
X129063500Y-40505706D01*
X129063500Y-40774294D01*
X129011102Y-41037717D01*
X128908319Y-41285858D01*
X128759100Y-41509180D01*
X128569180Y-41699100D01*
X128345858Y-41848319D01*
X128097717Y-41951102D01*
X127834294Y-42003500D01*
X127565706Y-42003500D01*
X127302283Y-41951102D01*
X127054142Y-41848319D01*
X126830820Y-41699100D01*
X126640900Y-41509180D01*
X126491681Y-41285858D01*
X126388898Y-41037717D01*
X126336500Y-40774294D01*
X126336500Y-40505706D01*
X126388898Y-40242283D01*
X126491681Y-39994142D01*
X126640900Y-39770820D01*
X126830820Y-39580900D01*
X127054142Y-39431681D01*
X127302283Y-39328898D01*
X127565706Y-39276500D01*
X127834294Y-39276500D01*
X128097717Y-39328898D01*
G37*
G36*
X189594499Y-40576445D02*
G01*
X189631995Y-40587820D01*
X189666554Y-40606292D01*
X189696847Y-40631153D01*
X189721708Y-40661446D01*
X189740180Y-40696005D01*
X189751555Y-40733501D01*
X189756000Y-40778638D01*
X189756000Y-41517362D01*
X189751555Y-41562499D01*
X189740180Y-41599995D01*
X189721708Y-41634554D01*
X189696847Y-41664847D01*
X189666554Y-41689708D01*
X189631995Y-41708180D01*
X189594499Y-41719555D01*
X189549362Y-41724000D01*
X188910638Y-41724000D01*
X188865501Y-41719555D01*
X188828005Y-41708180D01*
X188793446Y-41689708D01*
X188763153Y-41664847D01*
X188738292Y-41634554D01*
X188719820Y-41599995D01*
X188708445Y-41562499D01*
X188704000Y-41517362D01*
X188704000Y-40778638D01*
X188708445Y-40733501D01*
X188719820Y-40696005D01*
X188738292Y-40661446D01*
X188763153Y-40631153D01*
X188793446Y-40606292D01*
X188828005Y-40587820D01*
X188865501Y-40576445D01*
X188910638Y-40572000D01*
X189549362Y-40572000D01*
X189594499Y-40576445D01*
G37*
G36*
X206154499Y-40626445D02*
G01*
X206191995Y-40637820D01*
X206226554Y-40656292D01*
X206256847Y-40681153D01*
X206281708Y-40711446D01*
X206300180Y-40746005D01*
X206311555Y-40783501D01*
X206316000Y-40828638D01*
X206316000Y-41467362D01*
X206311555Y-41512499D01*
X206300180Y-41549995D01*
X206281708Y-41584554D01*
X206256847Y-41614847D01*
X206226554Y-41639708D01*
X206191995Y-41658180D01*
X206154499Y-41669555D01*
X206109362Y-41674000D01*
X205370638Y-41674000D01*
X205325501Y-41669555D01*
X205288005Y-41658180D01*
X205253446Y-41639708D01*
X205223153Y-41614847D01*
X205198292Y-41584554D01*
X205179820Y-41549995D01*
X205168445Y-41512499D01*
X205164000Y-41467362D01*
X205164000Y-40828638D01*
X205168445Y-40783501D01*
X205179820Y-40746005D01*
X205198292Y-40711446D01*
X205223153Y-40681153D01*
X205253446Y-40656292D01*
X205288005Y-40637820D01*
X205325501Y-40626445D01*
X205370638Y-40622000D01*
X206109362Y-40622000D01*
X206154499Y-40626445D01*
G37*
G36*
X204404499Y-40626445D02*
G01*
X204441995Y-40637820D01*
X204476554Y-40656292D01*
X204506847Y-40681153D01*
X204531708Y-40711446D01*
X204550180Y-40746005D01*
X204561555Y-40783501D01*
X204566000Y-40828638D01*
X204566000Y-41467362D01*
X204561555Y-41512499D01*
X204550180Y-41549995D01*
X204531708Y-41584554D01*
X204506847Y-41614847D01*
X204476554Y-41639708D01*
X204441995Y-41658180D01*
X204404499Y-41669555D01*
X204359362Y-41674000D01*
X203620638Y-41674000D01*
X203575501Y-41669555D01*
X203538005Y-41658180D01*
X203503446Y-41639708D01*
X203473153Y-41614847D01*
X203448292Y-41584554D01*
X203429820Y-41549995D01*
X203418445Y-41512499D01*
X203414000Y-41467362D01*
X203414000Y-40828638D01*
X203418445Y-40783501D01*
X203429820Y-40746005D01*
X203448292Y-40711446D01*
X203473153Y-40681153D01*
X203503446Y-40656292D01*
X203538005Y-40637820D01*
X203575501Y-40626445D01*
X203620638Y-40622000D01*
X204359362Y-40622000D01*
X204404499Y-40626445D01*
G37*
G36*
X187358499Y-39102445D02*
G01*
X187395995Y-39113820D01*
X187430554Y-39132292D01*
X187460847Y-39157153D01*
X187485708Y-39187446D01*
X187504180Y-39222005D01*
X187515555Y-39259501D01*
X187520000Y-39304638D01*
X187520000Y-39943362D01*
X187515555Y-39988499D01*
X187504180Y-40025995D01*
X187485708Y-40060554D01*
X187460847Y-40090847D01*
X187430554Y-40115708D01*
X187395995Y-40134180D01*
X187358499Y-40145555D01*
X187313362Y-40150000D01*
X186574638Y-40150000D01*
X186529501Y-40145555D01*
X186492005Y-40134180D01*
X186457446Y-40115708D01*
X186427153Y-40090847D01*
X186402292Y-40060554D01*
X186383820Y-40025995D01*
X186372445Y-39988499D01*
X186368000Y-39943362D01*
X186368000Y-39304638D01*
X186372445Y-39259501D01*
X186383820Y-39222005D01*
X186402292Y-39187446D01*
X186427153Y-39157153D01*
X186457446Y-39132292D01*
X186492005Y-39113820D01*
X186529501Y-39102445D01*
X186574638Y-39098000D01*
X187313362Y-39098000D01*
X187358499Y-39102445D01*
G37*
G36*
X185608499Y-39102445D02*
G01*
X185645995Y-39113820D01*
X185680554Y-39132292D01*
X185710847Y-39157153D01*
X185735708Y-39187446D01*
X185754180Y-39222005D01*
X185765555Y-39259501D01*
X185770000Y-39304638D01*
X185770000Y-39943362D01*
X185765555Y-39988499D01*
X185754180Y-40025995D01*
X185735708Y-40060554D01*
X185710847Y-40090847D01*
X185680554Y-40115708D01*
X185645995Y-40134180D01*
X185608499Y-40145555D01*
X185563362Y-40150000D01*
X184824638Y-40150000D01*
X184779501Y-40145555D01*
X184742005Y-40134180D01*
X184707446Y-40115708D01*
X184677153Y-40090847D01*
X184652292Y-40060554D01*
X184633820Y-40025995D01*
X184622445Y-39988499D01*
X184618000Y-39943362D01*
X184618000Y-39304638D01*
X184622445Y-39259501D01*
X184633820Y-39222005D01*
X184652292Y-39187446D01*
X184677153Y-39157153D01*
X184707446Y-39132292D01*
X184742005Y-39113820D01*
X184779501Y-39102445D01*
X184824638Y-39098000D01*
X185563362Y-39098000D01*
X185608499Y-39102445D01*
G37*
G36*
X206126928Y-36757764D02*
G01*
X206148009Y-36764160D01*
X206167445Y-36774548D01*
X206184476Y-36788524D01*
X206198452Y-36805555D01*
X206208840Y-36824991D01*
X206215236Y-36846072D01*
X206218000Y-36874140D01*
X206218000Y-38687860D01*
X206215236Y-38715928D01*
X206208840Y-38737009D01*
X206198452Y-38756445D01*
X206184476Y-38773476D01*
X206167445Y-38787452D01*
X206148009Y-38797840D01*
X206126928Y-38804236D01*
X206098860Y-38807000D01*
X205635140Y-38807000D01*
X205607072Y-38804236D01*
X205585991Y-38797840D01*
X205566555Y-38787452D01*
X205549524Y-38773476D01*
X205535548Y-38756445D01*
X205525160Y-38737009D01*
X205518764Y-38715928D01*
X205516000Y-38687860D01*
X205516000Y-36874140D01*
X205518764Y-36846072D01*
X205525160Y-36824991D01*
X205535548Y-36805555D01*
X205549524Y-36788524D01*
X205566555Y-36774548D01*
X205585991Y-36764160D01*
X205607072Y-36757764D01*
X205635140Y-36755000D01*
X206098860Y-36755000D01*
X206126928Y-36757764D01*
G37*
G36*
X204856928Y-36757764D02*
G01*
X204878009Y-36764160D01*
X204897445Y-36774548D01*
X204914476Y-36788524D01*
X204928452Y-36805555D01*
X204938840Y-36824991D01*
X204945236Y-36846072D01*
X204948000Y-36874140D01*
X204948000Y-38687860D01*
X204945236Y-38715928D01*
X204938840Y-38737009D01*
X204928452Y-38756445D01*
X204914476Y-38773476D01*
X204897445Y-38787452D01*
X204878009Y-38797840D01*
X204856928Y-38804236D01*
X204828860Y-38807000D01*
X204365140Y-38807000D01*
X204337072Y-38804236D01*
X204315991Y-38797840D01*
X204296555Y-38787452D01*
X204279524Y-38773476D01*
X204265548Y-38756445D01*
X204255160Y-38737009D01*
X204248764Y-38715928D01*
X204246000Y-38687860D01*
X204246000Y-36874140D01*
X204248764Y-36846072D01*
X204255160Y-36824991D01*
X204265548Y-36805555D01*
X204279524Y-36788524D01*
X204296555Y-36774548D01*
X204315991Y-36764160D01*
X204337072Y-36757764D01*
X204365140Y-36755000D01*
X204828860Y-36755000D01*
X204856928Y-36757764D01*
G37*
G36*
X202316928Y-36757764D02*
G01*
X202338009Y-36764160D01*
X202357445Y-36774548D01*
X202374476Y-36788524D01*
X202388452Y-36805555D01*
X202398840Y-36824991D01*
X202405236Y-36846072D01*
X202408000Y-36874140D01*
X202408000Y-38687860D01*
X202405236Y-38715928D01*
X202398840Y-38737009D01*
X202388452Y-38756445D01*
X202374476Y-38773476D01*
X202357445Y-38787452D01*
X202338009Y-38797840D01*
X202316928Y-38804236D01*
X202288860Y-38807000D01*
X201825140Y-38807000D01*
X201797072Y-38804236D01*
X201775991Y-38797840D01*
X201756555Y-38787452D01*
X201739524Y-38773476D01*
X201725548Y-38756445D01*
X201715160Y-38737009D01*
X201708764Y-38715928D01*
X201706000Y-38687860D01*
X201706000Y-36874140D01*
X201708764Y-36846072D01*
X201715160Y-36824991D01*
X201725548Y-36805555D01*
X201739524Y-36788524D01*
X201756555Y-36774548D01*
X201775991Y-36764160D01*
X201797072Y-36757764D01*
X201825140Y-36755000D01*
X202288860Y-36755000D01*
X202316928Y-36757764D01*
G37*
G36*
X203586928Y-36757764D02*
G01*
X203608009Y-36764160D01*
X203627445Y-36774548D01*
X203644476Y-36788524D01*
X203658452Y-36805555D01*
X203668840Y-36824991D01*
X203675236Y-36846072D01*
X203678000Y-36874140D01*
X203678000Y-38687860D01*
X203675236Y-38715928D01*
X203668840Y-38737009D01*
X203658452Y-38756445D01*
X203644476Y-38773476D01*
X203627445Y-38787452D01*
X203608009Y-38797840D01*
X203586928Y-38804236D01*
X203558860Y-38807000D01*
X203095140Y-38807000D01*
X203067072Y-38804236D01*
X203045991Y-38797840D01*
X203026555Y-38787452D01*
X203009524Y-38773476D01*
X202995548Y-38756445D01*
X202985160Y-38737009D01*
X202978764Y-38715928D01*
X202976000Y-38687860D01*
X202976000Y-36874140D01*
X202978764Y-36846072D01*
X202985160Y-36824991D01*
X202995548Y-36805555D01*
X203009524Y-36788524D01*
X203026555Y-36774548D01*
X203045991Y-36764160D01*
X203067072Y-36757764D01*
X203095140Y-36755000D01*
X203558860Y-36755000D01*
X203586928Y-36757764D01*
G37*
G36*
X126097717Y-35328898D02*
G01*
X126345858Y-35431681D01*
X126569180Y-35580900D01*
X126759100Y-35770820D01*
X126908319Y-35994142D01*
X127011102Y-36242283D01*
X127063500Y-36505706D01*
X127063500Y-36774294D01*
X127011102Y-37037717D01*
X126908319Y-37285858D01*
X126759100Y-37509180D01*
X126569180Y-37699100D01*
X126345858Y-37848319D01*
X126097717Y-37951102D01*
X125834294Y-38003500D01*
X125565706Y-38003500D01*
X125302283Y-37951102D01*
X125054142Y-37848319D01*
X124830820Y-37699100D01*
X124640900Y-37509180D01*
X124491681Y-37285858D01*
X124388898Y-37037717D01*
X124336500Y-36774294D01*
X124336500Y-36505706D01*
X124388898Y-36242283D01*
X124491681Y-35994142D01*
X124640900Y-35770820D01*
X124830820Y-35580900D01*
X125054142Y-35431681D01*
X125302283Y-35328898D01*
X125565706Y-35276500D01*
X125834294Y-35276500D01*
X126097717Y-35328898D01*
G37*
G36*
X154097717Y-35328898D02*
G01*
X154345858Y-35431681D01*
X154569180Y-35580900D01*
X154759100Y-35770820D01*
X154908319Y-35994142D01*
X155011102Y-36242283D01*
X155063500Y-36505706D01*
X155063500Y-36774294D01*
X155011102Y-37037717D01*
X154908319Y-37285858D01*
X154759100Y-37509180D01*
X154569180Y-37699100D01*
X154345858Y-37848319D01*
X154097717Y-37951102D01*
X153834294Y-38003500D01*
X153565706Y-38003500D01*
X153302283Y-37951102D01*
X153054142Y-37848319D01*
X152830820Y-37699100D01*
X152640900Y-37509180D01*
X152491681Y-37285858D01*
X152388898Y-37037717D01*
X152336500Y-36774294D01*
X152336500Y-36505706D01*
X152388898Y-36242283D01*
X152491681Y-35994142D01*
X152640900Y-35770820D01*
X152830820Y-35580900D01*
X153054142Y-35431681D01*
X153302283Y-35328898D01*
X153565706Y-35276500D01*
X153834294Y-35276500D01*
X154097717Y-35328898D01*
G37*
G36*
X130097717Y-35328898D02*
G01*
X130345858Y-35431681D01*
X130569180Y-35580900D01*
X130759100Y-35770820D01*
X130908319Y-35994142D01*
X131011102Y-36242283D01*
X131063500Y-36505706D01*
X131063500Y-36774294D01*
X131011102Y-37037717D01*
X130908319Y-37285858D01*
X130759100Y-37509180D01*
X130569180Y-37699100D01*
X130345858Y-37848319D01*
X130097717Y-37951102D01*
X129834294Y-38003500D01*
X129565706Y-38003500D01*
X129302283Y-37951102D01*
X129054142Y-37848319D01*
X128830820Y-37699100D01*
X128640900Y-37509180D01*
X128491681Y-37285858D01*
X128388898Y-37037717D01*
X128336500Y-36774294D01*
X128336500Y-36505706D01*
X128388898Y-36242283D01*
X128491681Y-35994142D01*
X128640900Y-35770820D01*
X128830820Y-35580900D01*
X129054142Y-35431681D01*
X129302283Y-35328898D01*
X129565706Y-35276500D01*
X129834294Y-35276500D01*
X130097717Y-35328898D01*
G37*
G36*
X134097717Y-35328898D02*
G01*
X134345858Y-35431681D01*
X134569180Y-35580900D01*
X134759100Y-35770820D01*
X134908319Y-35994142D01*
X135011102Y-36242283D01*
X135063500Y-36505706D01*
X135063500Y-36774294D01*
X135011102Y-37037717D01*
X134908319Y-37285858D01*
X134759100Y-37509180D01*
X134569180Y-37699100D01*
X134345858Y-37848319D01*
X134097717Y-37951102D01*
X133834294Y-38003500D01*
X133565706Y-38003500D01*
X133302283Y-37951102D01*
X133054142Y-37848319D01*
X132830820Y-37699100D01*
X132640900Y-37509180D01*
X132491681Y-37285858D01*
X132388898Y-37037717D01*
X132336500Y-36774294D01*
X132336500Y-36505706D01*
X132388898Y-36242283D01*
X132491681Y-35994142D01*
X132640900Y-35770820D01*
X132830820Y-35580900D01*
X133054142Y-35431681D01*
X133302283Y-35328898D01*
X133565706Y-35276500D01*
X133834294Y-35276500D01*
X134097717Y-35328898D01*
G37*
G36*
X142097717Y-35328898D02*
G01*
X142345858Y-35431681D01*
X142569180Y-35580900D01*
X142759100Y-35770820D01*
X142908319Y-35994142D01*
X143011102Y-36242283D01*
X143063500Y-36505706D01*
X143063500Y-36774294D01*
X143011102Y-37037717D01*
X142908319Y-37285858D01*
X142759100Y-37509180D01*
X142569180Y-37699100D01*
X142345858Y-37848319D01*
X142097717Y-37951102D01*
X141834294Y-38003500D01*
X141565706Y-38003500D01*
X141302283Y-37951102D01*
X141054142Y-37848319D01*
X140830820Y-37699100D01*
X140640900Y-37509180D01*
X140491681Y-37285858D01*
X140388898Y-37037717D01*
X140336500Y-36774294D01*
X140336500Y-36505706D01*
X140388898Y-36242283D01*
X140491681Y-35994142D01*
X140640900Y-35770820D01*
X140830820Y-35580900D01*
X141054142Y-35431681D01*
X141302283Y-35328898D01*
X141565706Y-35276500D01*
X141834294Y-35276500D01*
X142097717Y-35328898D01*
G37*
G36*
X150097717Y-35328898D02*
G01*
X150345858Y-35431681D01*
X150569180Y-35580900D01*
X150759100Y-35770820D01*
X150908319Y-35994142D01*
X151011102Y-36242283D01*
X151063500Y-36505706D01*
X151063500Y-36774294D01*
X151011102Y-37037717D01*
X150908319Y-37285858D01*
X150759100Y-37509180D01*
X150569180Y-37699100D01*
X150345858Y-37848319D01*
X150097717Y-37951102D01*
X149834294Y-38003500D01*
X149565706Y-38003500D01*
X149302283Y-37951102D01*
X149054142Y-37848319D01*
X148830820Y-37699100D01*
X148640900Y-37509180D01*
X148491681Y-37285858D01*
X148388898Y-37037717D01*
X148336500Y-36774294D01*
X148336500Y-36505706D01*
X148388898Y-36242283D01*
X148491681Y-35994142D01*
X148640900Y-35770820D01*
X148830820Y-35580900D01*
X149054142Y-35431681D01*
X149302283Y-35328898D01*
X149565706Y-35276500D01*
X149834294Y-35276500D01*
X150097717Y-35328898D01*
G37*
G36*
X146097717Y-35328898D02*
G01*
X146345858Y-35431681D01*
X146569180Y-35580900D01*
X146759100Y-35770820D01*
X146908319Y-35994142D01*
X147011102Y-36242283D01*
X147063500Y-36505706D01*
X147063500Y-36774294D01*
X147011102Y-37037717D01*
X146908319Y-37285858D01*
X146759100Y-37509180D01*
X146569180Y-37699100D01*
X146345858Y-37848319D01*
X146097717Y-37951102D01*
X145834294Y-38003500D01*
X145565706Y-38003500D01*
X145302283Y-37951102D01*
X145054142Y-37848319D01*
X144830820Y-37699100D01*
X144640900Y-37509180D01*
X144491681Y-37285858D01*
X144388898Y-37037717D01*
X144336500Y-36774294D01*
X144336500Y-36505706D01*
X144388898Y-36242283D01*
X144491681Y-35994142D01*
X144640900Y-35770820D01*
X144830820Y-35580900D01*
X145054142Y-35431681D01*
X145302283Y-35328898D01*
X145565706Y-35276500D01*
X145834294Y-35276500D01*
X146097717Y-35328898D01*
G37*
G36*
X138097717Y-35328898D02*
G01*
X138345858Y-35431681D01*
X138569180Y-35580900D01*
X138759100Y-35770820D01*
X138908319Y-35994142D01*
X139011102Y-36242283D01*
X139063500Y-36505706D01*
X139063500Y-36774294D01*
X139011102Y-37037717D01*
X138908319Y-37285858D01*
X138759100Y-37509180D01*
X138569180Y-37699100D01*
X138345858Y-37848319D01*
X138097717Y-37951102D01*
X137834294Y-38003500D01*
X137565706Y-38003500D01*
X137302283Y-37951102D01*
X137054142Y-37848319D01*
X136830820Y-37699100D01*
X136640900Y-37509180D01*
X136491681Y-37285858D01*
X136388898Y-37037717D01*
X136336500Y-36774294D01*
X136336500Y-36505706D01*
X136388898Y-36242283D01*
X136491681Y-35994142D01*
X136640900Y-35770820D01*
X136830820Y-35580900D01*
X137054142Y-35431681D01*
X137302283Y-35328898D01*
X137565706Y-35276500D01*
X137834294Y-35276500D01*
X138097717Y-35328898D01*
G37*
G36*
X177021242Y-36183404D02*
G01*
X177058337Y-36194657D01*
X177092515Y-36212925D01*
X177122481Y-36237519D01*
X177147075Y-36267485D01*
X177165343Y-36301663D01*
X177176596Y-36338758D01*
X177181000Y-36383474D01*
X177181000Y-37276526D01*
X177176596Y-37321242D01*
X177165343Y-37358337D01*
X177147075Y-37392515D01*
X177122481Y-37422481D01*
X177092515Y-37447075D01*
X177058337Y-37465343D01*
X177021242Y-37476596D01*
X176976526Y-37481000D01*
X176083474Y-37481000D01*
X176038758Y-37476596D01*
X176001663Y-37465343D01*
X175967485Y-37447075D01*
X175937519Y-37422481D01*
X175912925Y-37392515D01*
X175894657Y-37358337D01*
X175883404Y-37321242D01*
X175879000Y-37276526D01*
X175879000Y-36383474D01*
X175883404Y-36338758D01*
X175894657Y-36301663D01*
X175912925Y-36267485D01*
X175937519Y-36237519D01*
X175967485Y-36212925D01*
X176001663Y-36194657D01*
X176038758Y-36183404D01*
X176083474Y-36179000D01*
X176976526Y-36179000D01*
X177021242Y-36183404D01*
G37*
G36*
X178719890Y-36204017D02*
G01*
X178812272Y-36242283D01*
X178838364Y-36253091D01*
X178944988Y-36324335D01*
X179035665Y-36415012D01*
X179096266Y-36505707D01*
X179106910Y-36521638D01*
X179155983Y-36640110D01*
X179180658Y-36764160D01*
X179181000Y-36765882D01*
X179181000Y-36894118D01*
X179155983Y-37019890D01*
X179106909Y-37138364D01*
X179035665Y-37244988D01*
X178944988Y-37335665D01*
X178838364Y-37406909D01*
X178838363Y-37406910D01*
X178838362Y-37406910D01*
X178719890Y-37455983D01*
X178594119Y-37481000D01*
X178465881Y-37481000D01*
X178340110Y-37455983D01*
X178221638Y-37406910D01*
X178221637Y-37406910D01*
X178221636Y-37406909D01*
X178115012Y-37335665D01*
X178024335Y-37244988D01*
X177953091Y-37138364D01*
X177904017Y-37019890D01*
X177879000Y-36894118D01*
X177879000Y-36765882D01*
X177879343Y-36764160D01*
X177904017Y-36640110D01*
X177953090Y-36521638D01*
X177963735Y-36505707D01*
X178024335Y-36415012D01*
X178115012Y-36324335D01*
X178221636Y-36253091D01*
X178247729Y-36242283D01*
X178340110Y-36204017D01*
X178465881Y-36179000D01*
X178594119Y-36179000D01*
X178719890Y-36204017D01*
G37*
G36*
X178719890Y-34204017D02*
G01*
X178838364Y-34253091D01*
X178944988Y-34324335D01*
X179035665Y-34415012D01*
X179106909Y-34521636D01*
X179155983Y-34640110D01*
X179181000Y-34765882D01*
X179181000Y-34894118D01*
X179155983Y-35019890D01*
X179106909Y-35138364D01*
X179035665Y-35244988D01*
X178944988Y-35335665D01*
X178838364Y-35406909D01*
X178838363Y-35406910D01*
X178838362Y-35406910D01*
X178719890Y-35455983D01*
X178594119Y-35481000D01*
X178465881Y-35481000D01*
X178340110Y-35455983D01*
X178221638Y-35406910D01*
X178221637Y-35406910D01*
X178221636Y-35406909D01*
X178115012Y-35335665D01*
X178024335Y-35244988D01*
X177953091Y-35138364D01*
X177904017Y-35019890D01*
X177879000Y-34894118D01*
X177879000Y-34765882D01*
X177904017Y-34640110D01*
X177953091Y-34521636D01*
X178024335Y-34415012D01*
X178115012Y-34324335D01*
X178221636Y-34253091D01*
X178340110Y-34204017D01*
X178465881Y-34179000D01*
X178594119Y-34179000D01*
X178719890Y-34204017D01*
G37*
G36*
X176719890Y-34204017D02*
G01*
X176838364Y-34253091D01*
X176944988Y-34324335D01*
X177035665Y-34415012D01*
X177106909Y-34521636D01*
X177155983Y-34640110D01*
X177181000Y-34765882D01*
X177181000Y-34894118D01*
X177155983Y-35019890D01*
X177106909Y-35138364D01*
X177035665Y-35244988D01*
X176944988Y-35335665D01*
X176838364Y-35406909D01*
X176838363Y-35406910D01*
X176838362Y-35406910D01*
X176719890Y-35455983D01*
X176594119Y-35481000D01*
X176465881Y-35481000D01*
X176340110Y-35455983D01*
X176221638Y-35406910D01*
X176221637Y-35406910D01*
X176221636Y-35406909D01*
X176115012Y-35335665D01*
X176024335Y-35244988D01*
X175953091Y-35138364D01*
X175904017Y-35019890D01*
X175879000Y-34894118D01*
X175879000Y-34765882D01*
X175904017Y-34640110D01*
X175953091Y-34521636D01*
X176024335Y-34415012D01*
X176115012Y-34324335D01*
X176221636Y-34253091D01*
X176340110Y-34204017D01*
X176465881Y-34179000D01*
X176594119Y-34179000D01*
X176719890Y-34204017D01*
G37*
G36*
X165206564Y-32329389D02*
G01*
X165397833Y-32408615D01*
X165397835Y-32408616D01*
X165569973Y-32523635D01*
X165716365Y-32670027D01*
X165780413Y-32765881D01*
X165831385Y-32842167D01*
X165910611Y-33033436D01*
X165951000Y-33236484D01*
X165951000Y-33443516D01*
X165910611Y-33646564D01*
X165844386Y-33806445D01*
X165831384Y-33837835D01*
X165716365Y-34009973D01*
X165569973Y-34156365D01*
X165397835Y-34271384D01*
X165397834Y-34271385D01*
X165397833Y-34271385D01*
X165206564Y-34350611D01*
X165003516Y-34391000D01*
X164796484Y-34391000D01*
X164593436Y-34350611D01*
X164402167Y-34271385D01*
X164402166Y-34271385D01*
X164402165Y-34271384D01*
X164230027Y-34156365D01*
X164083635Y-34009973D01*
X163968616Y-33837835D01*
X163955614Y-33806445D01*
X163889389Y-33646564D01*
X163849000Y-33443516D01*
X163849000Y-33236484D01*
X163889389Y-33033436D01*
X163968615Y-32842167D01*
X164019588Y-32765881D01*
X164083635Y-32670027D01*
X164230027Y-32523635D01*
X164402165Y-32408616D01*
X164402167Y-32408615D01*
X164593436Y-32329389D01*
X164796484Y-32289000D01*
X165003516Y-32289000D01*
X165206564Y-32329389D01*
G37*
G36*
X114806564Y-32329389D02*
G01*
X114997833Y-32408615D01*
X114997835Y-32408616D01*
X115169973Y-32523635D01*
X115316365Y-32670027D01*
X115380413Y-32765881D01*
X115431385Y-32842167D01*
X115510611Y-33033436D01*
X115551000Y-33236484D01*
X115551000Y-33443516D01*
X115510611Y-33646564D01*
X115444386Y-33806445D01*
X115431384Y-33837835D01*
X115316365Y-34009973D01*
X115169973Y-34156365D01*
X114997835Y-34271384D01*
X114997834Y-34271385D01*
X114997833Y-34271385D01*
X114806564Y-34350611D01*
X114603516Y-34391000D01*
X114396484Y-34391000D01*
X114193436Y-34350611D01*
X114002167Y-34271385D01*
X114002166Y-34271385D01*
X114002165Y-34271384D01*
X113830027Y-34156365D01*
X113683635Y-34009973D01*
X113568616Y-33837835D01*
X113555614Y-33806445D01*
X113489389Y-33646564D01*
X113449000Y-33443516D01*
X113449000Y-33236484D01*
X113489389Y-33033436D01*
X113568615Y-32842167D01*
X113619588Y-32765881D01*
X113683635Y-32670027D01*
X113830027Y-32523635D01*
X114002165Y-32408616D01*
X114002167Y-32408615D01*
X114193436Y-32329389D01*
X114396484Y-32289000D01*
X114603516Y-32289000D01*
X114806564Y-32329389D01*
G37*
G36*
X203586928Y-31807764D02*
G01*
X203608009Y-31814160D01*
X203627445Y-31824548D01*
X203644476Y-31838524D01*
X203658452Y-31855555D01*
X203668840Y-31874991D01*
X203675236Y-31896072D01*
X203678000Y-31924140D01*
X203678000Y-33737860D01*
X203675236Y-33765928D01*
X203668840Y-33787009D01*
X203658452Y-33806445D01*
X203644476Y-33823476D01*
X203627445Y-33837452D01*
X203608009Y-33847840D01*
X203586928Y-33854236D01*
X203558860Y-33857000D01*
X203095140Y-33857000D01*
X203067072Y-33854236D01*
X203045991Y-33847840D01*
X203026555Y-33837452D01*
X203009524Y-33823476D01*
X202995548Y-33806445D01*
X202985160Y-33787009D01*
X202978764Y-33765928D01*
X202976000Y-33737860D01*
X202976000Y-31924140D01*
X202978764Y-31896072D01*
X202985160Y-31874991D01*
X202995548Y-31855555D01*
X203009524Y-31838524D01*
X203026555Y-31824548D01*
X203045991Y-31814160D01*
X203067072Y-31807764D01*
X203095140Y-31805000D01*
X203558860Y-31805000D01*
X203586928Y-31807764D01*
G37*
G36*
X202316928Y-31807764D02*
G01*
X202338009Y-31814160D01*
X202357445Y-31824548D01*
X202374476Y-31838524D01*
X202388452Y-31855555D01*
X202398840Y-31874991D01*
X202405236Y-31896072D01*
X202408000Y-31924140D01*
X202408000Y-33737860D01*
X202405236Y-33765928D01*
X202398840Y-33787009D01*
X202388452Y-33806445D01*
X202374476Y-33823476D01*
X202357445Y-33837452D01*
X202338009Y-33847840D01*
X202316928Y-33854236D01*
X202288860Y-33857000D01*
X201825140Y-33857000D01*
X201797072Y-33854236D01*
X201775991Y-33847840D01*
X201756555Y-33837452D01*
X201739524Y-33823476D01*
X201725548Y-33806445D01*
X201715160Y-33787009D01*
X201708764Y-33765928D01*
X201706000Y-33737860D01*
X201706000Y-31924140D01*
X201708764Y-31896072D01*
X201715160Y-31874991D01*
X201725548Y-31855555D01*
X201739524Y-31838524D01*
X201756555Y-31824548D01*
X201775991Y-31814160D01*
X201797072Y-31807764D01*
X201825140Y-31805000D01*
X202288860Y-31805000D01*
X202316928Y-31807764D01*
G37*
G36*
X204856928Y-31807764D02*
G01*
X204878009Y-31814160D01*
X204897445Y-31824548D01*
X204914476Y-31838524D01*
X204928452Y-31855555D01*
X204938840Y-31874991D01*
X204945236Y-31896072D01*
X204948000Y-31924140D01*
X204948000Y-33737860D01*
X204945236Y-33765928D01*
X204938840Y-33787009D01*
X204928452Y-33806445D01*
X204914476Y-33823476D01*
X204897445Y-33837452D01*
X204878009Y-33847840D01*
X204856928Y-33854236D01*
X204828860Y-33857000D01*
X204365140Y-33857000D01*
X204337072Y-33854236D01*
X204315991Y-33847840D01*
X204296555Y-33837452D01*
X204279524Y-33823476D01*
X204265548Y-33806445D01*
X204255160Y-33787009D01*
X204248764Y-33765928D01*
X204246000Y-33737860D01*
X204246000Y-31924140D01*
X204248764Y-31896072D01*
X204255160Y-31874991D01*
X204265548Y-31855555D01*
X204279524Y-31838524D01*
X204296555Y-31824548D01*
X204315991Y-31814160D01*
X204337072Y-31807764D01*
X204365140Y-31805000D01*
X204828860Y-31805000D01*
X204856928Y-31807764D01*
G37*
G36*
X206126928Y-31807764D02*
G01*
X206148009Y-31814160D01*
X206167445Y-31824548D01*
X206184476Y-31838524D01*
X206198452Y-31855555D01*
X206208840Y-31874991D01*
X206215236Y-31896072D01*
X206218000Y-31924140D01*
X206218000Y-33737860D01*
X206215236Y-33765928D01*
X206208840Y-33787009D01*
X206198452Y-33806445D01*
X206184476Y-33823476D01*
X206167445Y-33837452D01*
X206148009Y-33847840D01*
X206126928Y-33854236D01*
X206098860Y-33857000D01*
X205635140Y-33857000D01*
X205607072Y-33854236D01*
X205585991Y-33847840D01*
X205566555Y-33837452D01*
X205549524Y-33823476D01*
X205535548Y-33806445D01*
X205525160Y-33787009D01*
X205518764Y-33765928D01*
X205516000Y-33737860D01*
X205516000Y-31924140D01*
X205518764Y-31896072D01*
X205525160Y-31874991D01*
X205535548Y-31855555D01*
X205549524Y-31838524D01*
X205566555Y-31824548D01*
X205585991Y-31814160D01*
X205607072Y-31807764D01*
X205635140Y-31805000D01*
X206098860Y-31805000D01*
X206126928Y-31807764D01*
G37*
G36*
X176719890Y-32204017D02*
G01*
X176838364Y-32253091D01*
X176944988Y-32324335D01*
X177035665Y-32415012D01*
X177106909Y-32521636D01*
X177155983Y-32640110D01*
X177181000Y-32765882D01*
X177181000Y-32894118D01*
X177155983Y-33019890D01*
X177106909Y-33138364D01*
X177035665Y-33244988D01*
X176944988Y-33335665D01*
X176838364Y-33406909D01*
X176838363Y-33406910D01*
X176838362Y-33406910D01*
X176719890Y-33455983D01*
X176594119Y-33481000D01*
X176465881Y-33481000D01*
X176340110Y-33455983D01*
X176221638Y-33406910D01*
X176221637Y-33406910D01*
X176221636Y-33406909D01*
X176115012Y-33335665D01*
X176024335Y-33244988D01*
X175953091Y-33138364D01*
X175904017Y-33019890D01*
X175879000Y-32894118D01*
X175879000Y-32765882D01*
X175904017Y-32640110D01*
X175953091Y-32521636D01*
X176024335Y-32415012D01*
X176115012Y-32324335D01*
X176221636Y-32253091D01*
X176340110Y-32204017D01*
X176465881Y-32179000D01*
X176594119Y-32179000D01*
X176719890Y-32204017D01*
G37*
G36*
X178719890Y-32204017D02*
G01*
X178838364Y-32253091D01*
X178944988Y-32324335D01*
X179035665Y-32415012D01*
X179106909Y-32521636D01*
X179155983Y-32640110D01*
X179181000Y-32765882D01*
X179181000Y-32894118D01*
X179155983Y-33019890D01*
X179106909Y-33138364D01*
X179035665Y-33244988D01*
X178944988Y-33335665D01*
X178838364Y-33406909D01*
X178838363Y-33406910D01*
X178838362Y-33406910D01*
X178719890Y-33455983D01*
X178594119Y-33481000D01*
X178465881Y-33481000D01*
X178340110Y-33455983D01*
X178221638Y-33406910D01*
X178221637Y-33406910D01*
X178221636Y-33406909D01*
X178115012Y-33335665D01*
X178024335Y-33244988D01*
X177953091Y-33138364D01*
X177904017Y-33019890D01*
X177879000Y-32894118D01*
X177879000Y-32765882D01*
X177904017Y-32640110D01*
X177953091Y-32521636D01*
X178024335Y-32415012D01*
X178115012Y-32324335D01*
X178221636Y-32253091D01*
X178340110Y-32204017D01*
X178465881Y-32179000D01*
X178594119Y-32179000D01*
X178719890Y-32204017D01*
G37*
G36*
X176719890Y-30204017D02*
G01*
X176838364Y-30253091D01*
X176944988Y-30324335D01*
X177035665Y-30415012D01*
X177106909Y-30521636D01*
X177155983Y-30640110D01*
X177181000Y-30765882D01*
X177181000Y-30894118D01*
X177155983Y-31019890D01*
X177106909Y-31138364D01*
X177035665Y-31244988D01*
X176944988Y-31335665D01*
X176838364Y-31406909D01*
X176838363Y-31406910D01*
X176838362Y-31406910D01*
X176719890Y-31455983D01*
X176594119Y-31481000D01*
X176465881Y-31481000D01*
X176340110Y-31455983D01*
X176221638Y-31406910D01*
X176221637Y-31406910D01*
X176221636Y-31406909D01*
X176115012Y-31335665D01*
X176024335Y-31244988D01*
X175953091Y-31138364D01*
X175904017Y-31019890D01*
X175879000Y-30894118D01*
X175879000Y-30765882D01*
X175904017Y-30640110D01*
X175953091Y-30521636D01*
X176024335Y-30415012D01*
X176115012Y-30324335D01*
X176221636Y-30253091D01*
X176340110Y-30204017D01*
X176465881Y-30179000D01*
X176594119Y-30179000D01*
X176719890Y-30204017D01*
G37*
G36*
X178719890Y-30204017D02*
G01*
X178838364Y-30253091D01*
X178944988Y-30324335D01*
X179035665Y-30415012D01*
X179106909Y-30521636D01*
X179155983Y-30640110D01*
X179181000Y-30765882D01*
X179181000Y-30894118D01*
X179155983Y-31019890D01*
X179106909Y-31138364D01*
X179035665Y-31244988D01*
X178944988Y-31335665D01*
X178838364Y-31406909D01*
X178838363Y-31406910D01*
X178838362Y-31406910D01*
X178719890Y-31455983D01*
X178594119Y-31481000D01*
X178465881Y-31481000D01*
X178340110Y-31455983D01*
X178221638Y-31406910D01*
X178221637Y-31406910D01*
X178221636Y-31406909D01*
X178115012Y-31335665D01*
X178024335Y-31244988D01*
X177953091Y-31138364D01*
X177904017Y-31019890D01*
X177879000Y-30894118D01*
X177879000Y-30765882D01*
X177904017Y-30640110D01*
X177953091Y-30521636D01*
X178024335Y-30415012D01*
X178115012Y-30324335D01*
X178221636Y-30253091D01*
X178340110Y-30204017D01*
X178465881Y-30179000D01*
X178594119Y-30179000D01*
X178719890Y-30204017D01*
G37*
G36*
X203691499Y-29146445D02*
G01*
X203728995Y-29157820D01*
X203763554Y-29176292D01*
X203793847Y-29201153D01*
X203818708Y-29231446D01*
X203837180Y-29266005D01*
X203848555Y-29303501D01*
X203853000Y-29348638D01*
X203853000Y-30087362D01*
X203848555Y-30132499D01*
X203837180Y-30169995D01*
X203818708Y-30204554D01*
X203793847Y-30234847D01*
X203763554Y-30259708D01*
X203728995Y-30278180D01*
X203691499Y-30289555D01*
X203646362Y-30294000D01*
X203007638Y-30294000D01*
X202962501Y-30289555D01*
X202925005Y-30278180D01*
X202890446Y-30259708D01*
X202860153Y-30234847D01*
X202835292Y-30204554D01*
X202816820Y-30169995D01*
X202805445Y-30132499D01*
X202801000Y-30087362D01*
X202801000Y-29348638D01*
X202805445Y-29303501D01*
X202816820Y-29266005D01*
X202835292Y-29231446D01*
X202860153Y-29201153D01*
X202890446Y-29176292D01*
X202925005Y-29157820D01*
X202962501Y-29146445D01*
X203007638Y-29142000D01*
X203646362Y-29142000D01*
X203691499Y-29146445D01*
G37*
G36*
X203691499Y-27396445D02*
G01*
X203728995Y-27407820D01*
X203763554Y-27426292D01*
X203793847Y-27451153D01*
X203818708Y-27481446D01*
X203837180Y-27516005D01*
X203848555Y-27553501D01*
X203853000Y-27598638D01*
X203853000Y-28337362D01*
X203848555Y-28382499D01*
X203837180Y-28419995D01*
X203818708Y-28454554D01*
X203793847Y-28484847D01*
X203763554Y-28509708D01*
X203728995Y-28528180D01*
X203691499Y-28539555D01*
X203646362Y-28544000D01*
X203007638Y-28544000D01*
X202962501Y-28539555D01*
X202925005Y-28528180D01*
X202890446Y-28509708D01*
X202860153Y-28484847D01*
X202835292Y-28454554D01*
X202816820Y-28419995D01*
X202805445Y-28382499D01*
X202801000Y-28337362D01*
X202801000Y-27598638D01*
X202805445Y-27553501D01*
X202816820Y-27516005D01*
X202835292Y-27481446D01*
X202860153Y-27451153D01*
X202890446Y-27426292D01*
X202925005Y-27407820D01*
X202962501Y-27396445D01*
X203007638Y-27392000D01*
X203646362Y-27392000D01*
X203691499Y-27396445D01*
G37*
M02*
