G04 #@! TF.GenerationSoftware,KiCad,Pcbnew,5.1.5-52549c5~84~ubuntu18.04.1*
G04 #@! TF.CreationDate,2020-03-02T20:09:35-05:00*
G04 #@! TF.ProjectId,LV_Breakout,4c565f42-7265-4616-9b6f-75742e6b6963,rev?*
G04 #@! TF.SameCoordinates,Original*
G04 #@! TF.FileFunction,Legend,Bot*
G04 #@! TF.FilePolarity,Positive*
%FSLAX46Y46*%
G04 Gerber Fmt 4.6, Leading zero omitted, Abs format (unit mm)*
G04 Created by KiCad (PCBNEW 5.1.5-52549c5~84~ubuntu18.04.1) date 2020-03-02 20:09:35*
%MOMM*%
%LPD*%
G04 APERTURE LIST*
%ADD10C,0.300000*%
%ADD11C,0.010000*%
%ADD12C,0.127000*%
%ADD13C,0.120000*%
%ADD14C,0.150000*%
%ADD15C,0.050000*%
G04 APERTURE END LIST*
D10*
X199060285Y-37752571D02*
X199774571Y-37752571D01*
X199774571Y-36252571D01*
X198774571Y-36252571D02*
X198274571Y-37752571D01*
X197774571Y-36252571D01*
X197274571Y-37752571D02*
X197274571Y-36252571D01*
X196703142Y-36252571D01*
X196560285Y-36324000D01*
X196488857Y-36395428D01*
X196417428Y-36538285D01*
X196417428Y-36752571D01*
X196488857Y-36895428D01*
X196560285Y-36966857D01*
X196703142Y-37038285D01*
X197274571Y-37038285D01*
X195774571Y-37752571D02*
X195774571Y-36252571D01*
X195417428Y-36252571D01*
X195203142Y-36324000D01*
X195060285Y-36466857D01*
X194988857Y-36609714D01*
X194917428Y-36895428D01*
X194917428Y-37109714D01*
X194988857Y-37395428D01*
X195060285Y-37538285D01*
X195203142Y-37681142D01*
X195417428Y-37752571D01*
X195774571Y-37752571D01*
X194274571Y-36252571D02*
X194274571Y-37466857D01*
X194203142Y-37609714D01*
X194131714Y-37681142D01*
X193988857Y-37752571D01*
X193703142Y-37752571D01*
X193560285Y-37681142D01*
X193488857Y-37609714D01*
X193417428Y-37466857D01*
X193417428Y-36252571D01*
X201453142Y-38874000D02*
X201596000Y-38802571D01*
X201810285Y-38802571D01*
X202024571Y-38874000D01*
X202167428Y-39016857D01*
X202238857Y-39159714D01*
X202310285Y-39445428D01*
X202310285Y-39659714D01*
X202238857Y-39945428D01*
X202167428Y-40088285D01*
X202024571Y-40231142D01*
X201810285Y-40302571D01*
X201667428Y-40302571D01*
X201453142Y-40231142D01*
X201381714Y-40159714D01*
X201381714Y-39659714D01*
X201667428Y-39659714D01*
X200738857Y-40159714D02*
X200667428Y-40231142D01*
X200738857Y-40302571D01*
X200810285Y-40231142D01*
X200738857Y-40159714D01*
X200738857Y-40302571D01*
X200096000Y-40231142D02*
X199881714Y-40302571D01*
X199524571Y-40302571D01*
X199381714Y-40231142D01*
X199310285Y-40159714D01*
X199238857Y-40016857D01*
X199238857Y-39874000D01*
X199310285Y-39731142D01*
X199381714Y-39659714D01*
X199524571Y-39588285D01*
X199810285Y-39516857D01*
X199953142Y-39445428D01*
X200024571Y-39374000D01*
X200096000Y-39231142D01*
X200096000Y-39088285D01*
X200024571Y-38945428D01*
X199953142Y-38874000D01*
X199810285Y-38802571D01*
X199453142Y-38802571D01*
X199238857Y-38874000D01*
X198596000Y-39302571D02*
X198596000Y-40802571D01*
X198596000Y-39374000D02*
X198453142Y-39302571D01*
X198167428Y-39302571D01*
X198024571Y-39374000D01*
X197953142Y-39445428D01*
X197881714Y-39588285D01*
X197881714Y-40016857D01*
X197953142Y-40159714D01*
X198024571Y-40231142D01*
X198167428Y-40302571D01*
X198453142Y-40302571D01*
X198596000Y-40231142D01*
X196667428Y-40231142D02*
X196810285Y-40302571D01*
X197096000Y-40302571D01*
X197238857Y-40231142D01*
X197310285Y-40088285D01*
X197310285Y-39516857D01*
X197238857Y-39374000D01*
X197096000Y-39302571D01*
X196810285Y-39302571D01*
X196667428Y-39374000D01*
X196596000Y-39516857D01*
X196596000Y-39659714D01*
X197310285Y-39802571D01*
X195310285Y-40302571D02*
X195310285Y-39516857D01*
X195381714Y-39374000D01*
X195524571Y-39302571D01*
X195810285Y-39302571D01*
X195953142Y-39374000D01*
X195310285Y-40231142D02*
X195453142Y-40302571D01*
X195810285Y-40302571D01*
X195953142Y-40231142D01*
X196024571Y-40088285D01*
X196024571Y-39945428D01*
X195953142Y-39802571D01*
X195810285Y-39731142D01*
X195453142Y-39731142D01*
X195310285Y-39659714D01*
X194596000Y-40302571D02*
X194596000Y-39302571D01*
X194596000Y-39588285D02*
X194524571Y-39445428D01*
X194453142Y-39374000D01*
X194310285Y-39302571D01*
X194167428Y-39302571D01*
X193667428Y-40302571D02*
X193667428Y-39302571D01*
X193667428Y-38802571D02*
X193738857Y-38874000D01*
X193667428Y-38945428D01*
X193596000Y-38874000D01*
X193667428Y-38802571D01*
X193667428Y-38945428D01*
X192953142Y-39302571D02*
X192953142Y-40302571D01*
X192953142Y-39445428D02*
X192881714Y-39374000D01*
X192738857Y-39302571D01*
X192524571Y-39302571D01*
X192381714Y-39374000D01*
X192310285Y-39516857D01*
X192310285Y-40302571D01*
X190953142Y-39302571D02*
X190953142Y-40516857D01*
X191024571Y-40659714D01*
X191096000Y-40731142D01*
X191238857Y-40802571D01*
X191453142Y-40802571D01*
X191596000Y-40731142D01*
X190953142Y-40231142D02*
X191096000Y-40302571D01*
X191381714Y-40302571D01*
X191524571Y-40231142D01*
X191596000Y-40159714D01*
X191667428Y-40016857D01*
X191667428Y-39588285D01*
X191596000Y-39445428D01*
X191524571Y-39374000D01*
X191381714Y-39302571D01*
X191096000Y-39302571D01*
X190953142Y-39374000D01*
X200953142Y-41495428D02*
X200881714Y-41424000D01*
X200738857Y-41352571D01*
X200381714Y-41352571D01*
X200238857Y-41424000D01*
X200167428Y-41495428D01*
X200096000Y-41638285D01*
X200096000Y-41781142D01*
X200167428Y-41995428D01*
X201024571Y-42852571D01*
X200096000Y-42852571D01*
X199167428Y-41352571D02*
X199024571Y-41352571D01*
X198881714Y-41424000D01*
X198810285Y-41495428D01*
X198738857Y-41638285D01*
X198667428Y-41924000D01*
X198667428Y-42281142D01*
X198738857Y-42566857D01*
X198810285Y-42709714D01*
X198881714Y-42781142D01*
X199024571Y-42852571D01*
X199167428Y-42852571D01*
X199310285Y-42781142D01*
X199381714Y-42709714D01*
X199453142Y-42566857D01*
X199524571Y-42281142D01*
X199524571Y-41924000D01*
X199453142Y-41638285D01*
X199381714Y-41495428D01*
X199310285Y-41424000D01*
X199167428Y-41352571D01*
X198024571Y-42709714D02*
X197953142Y-42781142D01*
X198024571Y-42852571D01*
X198096000Y-42781142D01*
X198024571Y-42709714D01*
X198024571Y-42852571D01*
X197024571Y-41352571D02*
X196881714Y-41352571D01*
X196738857Y-41424000D01*
X196667428Y-41495428D01*
X196596000Y-41638285D01*
X196524571Y-41924000D01*
X196524571Y-42281142D01*
X196596000Y-42566857D01*
X196667428Y-42709714D01*
X196738857Y-42781142D01*
X196881714Y-42852571D01*
X197024571Y-42852571D01*
X197167428Y-42781142D01*
X197238857Y-42709714D01*
X197310285Y-42566857D01*
X197381714Y-42281142D01*
X197381714Y-41924000D01*
X197310285Y-41638285D01*
X197238857Y-41495428D01*
X197167428Y-41424000D01*
X197024571Y-41352571D01*
X195953142Y-41495428D02*
X195881714Y-41424000D01*
X195738857Y-41352571D01*
X195381714Y-41352571D01*
X195238857Y-41424000D01*
X195167428Y-41495428D01*
X195096000Y-41638285D01*
X195096000Y-41781142D01*
X195167428Y-41995428D01*
X196024571Y-42852571D01*
X195096000Y-42852571D01*
X194524571Y-41495428D02*
X194453142Y-41424000D01*
X194310285Y-41352571D01*
X193953142Y-41352571D01*
X193810285Y-41424000D01*
X193738857Y-41495428D01*
X193667428Y-41638285D01*
X193667428Y-41781142D01*
X193738857Y-41995428D01*
X194596000Y-42852571D01*
X193667428Y-42852571D01*
X192810285Y-41995428D02*
X192953142Y-41924000D01*
X193024571Y-41852571D01*
X193096000Y-41709714D01*
X193096000Y-41638285D01*
X193024571Y-41495428D01*
X192953142Y-41424000D01*
X192810285Y-41352571D01*
X192524571Y-41352571D01*
X192381714Y-41424000D01*
X192310285Y-41495428D01*
X192238857Y-41638285D01*
X192238857Y-41709714D01*
X192310285Y-41852571D01*
X192381714Y-41924000D01*
X192524571Y-41995428D01*
X192810285Y-41995428D01*
X192953142Y-42066857D01*
X193024571Y-42138285D01*
X193096000Y-42281142D01*
X193096000Y-42566857D01*
X193024571Y-42709714D01*
X192953142Y-42781142D01*
X192810285Y-42852571D01*
X192524571Y-42852571D01*
X192381714Y-42781142D01*
X192310285Y-42709714D01*
X192238857Y-42566857D01*
X192238857Y-42281142D01*
X192310285Y-42138285D01*
X192381714Y-42066857D01*
X192524571Y-41995428D01*
D11*
G36*
X187163708Y-29747394D02*
G01*
X186533962Y-30376412D01*
X186533962Y-33526592D01*
X187846668Y-34837934D01*
X189017984Y-33665096D01*
X189017984Y-33382625D01*
X188143328Y-33382625D01*
X188031013Y-33498504D01*
X187918699Y-33614384D01*
X187681151Y-33378656D01*
X187443603Y-33142929D01*
X187443603Y-30795663D01*
X187793466Y-30447113D01*
X188143328Y-30098564D01*
X188143328Y-33382625D01*
X189017984Y-33382625D01*
X189017984Y-30341405D01*
X188405719Y-29729890D01*
X187793455Y-29118376D01*
X187163708Y-29747394D01*
G37*
X187163708Y-29747394D02*
X186533962Y-30376412D01*
X186533962Y-33526592D01*
X187846668Y-34837934D01*
X189017984Y-33665096D01*
X189017984Y-33382625D01*
X188143328Y-33382625D01*
X188031013Y-33498504D01*
X187918699Y-33614384D01*
X187681151Y-33378656D01*
X187443603Y-33142929D01*
X187443603Y-30795663D01*
X187793466Y-30447113D01*
X188143328Y-30098564D01*
X188143328Y-33382625D01*
X189017984Y-33382625D01*
X189017984Y-30341405D01*
X188405719Y-29729890D01*
X187793455Y-29118376D01*
X187163708Y-29747394D01*
G36*
X189970906Y-29634121D02*
G01*
X189472805Y-30133113D01*
X189472805Y-31040495D01*
X190083643Y-31654177D01*
X189760731Y-31978437D01*
X189437818Y-32302698D01*
X189437818Y-33663646D01*
X189254834Y-33848931D01*
X189071851Y-34034217D01*
X189875904Y-34838270D01*
X190660688Y-34050694D01*
X190488096Y-33858270D01*
X190315503Y-33665846D01*
X190313989Y-33210428D01*
X190312474Y-32755011D01*
X190697322Y-32371356D01*
X191082171Y-31987700D01*
X191082171Y-33703463D01*
X190906854Y-33876144D01*
X190731536Y-34048825D01*
X191124947Y-34443355D01*
X191259821Y-34577260D01*
X191377657Y-34691693D01*
X191469604Y-34778262D01*
X191526816Y-34828577D01*
X191540977Y-34837884D01*
X191571622Y-34813858D01*
X191641574Y-34747504D01*
X191742144Y-34647412D01*
X191864642Y-34522171D01*
X191946490Y-34437024D01*
X192329382Y-34036164D01*
X192143104Y-33852200D01*
X191956827Y-33668236D01*
X191956827Y-31531343D01*
X191152143Y-31531343D01*
X190706241Y-31085440D01*
X190260338Y-30639537D01*
X191152143Y-29747732D01*
X191152143Y-31531343D01*
X191956827Y-31531343D01*
X191956827Y-30239225D01*
X192157121Y-30036818D01*
X192357415Y-29834412D01*
X192009086Y-29484771D01*
X191660756Y-29135130D01*
X190469007Y-29135130D01*
X189970906Y-29634121D01*
G37*
X189970906Y-29634121D02*
X189472805Y-30133113D01*
X189472805Y-31040495D01*
X190083643Y-31654177D01*
X189760731Y-31978437D01*
X189437818Y-32302698D01*
X189437818Y-33663646D01*
X189254834Y-33848931D01*
X189071851Y-34034217D01*
X189875904Y-34838270D01*
X190660688Y-34050694D01*
X190488096Y-33858270D01*
X190315503Y-33665846D01*
X190313989Y-33210428D01*
X190312474Y-32755011D01*
X190697322Y-32371356D01*
X191082171Y-31987700D01*
X191082171Y-33703463D01*
X190906854Y-33876144D01*
X190731536Y-34048825D01*
X191124947Y-34443355D01*
X191259821Y-34577260D01*
X191377657Y-34691693D01*
X191469604Y-34778262D01*
X191526816Y-34828577D01*
X191540977Y-34837884D01*
X191571622Y-34813858D01*
X191641574Y-34747504D01*
X191742144Y-34647412D01*
X191864642Y-34522171D01*
X191946490Y-34437024D01*
X192329382Y-34036164D01*
X192143104Y-33852200D01*
X191956827Y-33668236D01*
X191956827Y-31531343D01*
X191152143Y-31531343D01*
X190706241Y-31085440D01*
X190260338Y-30639537D01*
X191152143Y-29747732D01*
X191152143Y-31531343D01*
X191956827Y-31531343D01*
X191956827Y-30239225D01*
X192157121Y-30036818D01*
X192357415Y-29834412D01*
X192009086Y-29484771D01*
X191660756Y-29135130D01*
X190469007Y-29135130D01*
X189970906Y-29634121D01*
G36*
X196182864Y-29789679D02*
G01*
X195543961Y-30429283D01*
X195875235Y-30761940D01*
X196206508Y-31094597D01*
X196688141Y-30613886D01*
X197169774Y-30133174D01*
X197169774Y-31587091D01*
X196505463Y-31576882D01*
X195841151Y-31566672D01*
X196268781Y-31995254D01*
X196696410Y-32423835D01*
X197169774Y-32423835D01*
X197169774Y-33434874D01*
X197045067Y-33529994D01*
X196920359Y-33625113D01*
X196563589Y-33269558D01*
X196206820Y-32914002D01*
X195891197Y-33229625D01*
X195575575Y-33545248D01*
X196225155Y-34191566D01*
X196399660Y-34364587D01*
X196557708Y-34520125D01*
X196692615Y-34651697D01*
X196797696Y-34752821D01*
X196866268Y-34817012D01*
X196891454Y-34837884D01*
X196919865Y-34814205D01*
X196990415Y-34747800D01*
X197095961Y-34645616D01*
X197229361Y-34514602D01*
X197383474Y-34361704D01*
X197476301Y-34268972D01*
X198044430Y-33700060D01*
X198044430Y-30379604D01*
X197433098Y-29764840D01*
X196821766Y-29150075D01*
X196182864Y-29789679D01*
G37*
X196182864Y-29789679D02*
X195543961Y-30429283D01*
X195875235Y-30761940D01*
X196206508Y-31094597D01*
X196688141Y-30613886D01*
X197169774Y-30133174D01*
X197169774Y-31587091D01*
X196505463Y-31576882D01*
X195841151Y-31566672D01*
X196268781Y-31995254D01*
X196696410Y-32423835D01*
X197169774Y-32423835D01*
X197169774Y-33434874D01*
X197045067Y-33529994D01*
X196920359Y-33625113D01*
X196563589Y-33269558D01*
X196206820Y-32914002D01*
X195891197Y-33229625D01*
X195575575Y-33545248D01*
X196225155Y-34191566D01*
X196399660Y-34364587D01*
X196557708Y-34520125D01*
X196692615Y-34651697D01*
X196797696Y-34752821D01*
X196866268Y-34817012D01*
X196891454Y-34837884D01*
X196919865Y-34814205D01*
X196990415Y-34747800D01*
X197095961Y-34645616D01*
X197229361Y-34514602D01*
X197383474Y-34361704D01*
X197476301Y-34268972D01*
X198044430Y-33700060D01*
X198044430Y-30379604D01*
X197433098Y-29764840D01*
X196821766Y-29150075D01*
X196182864Y-29789679D01*
G36*
X199277339Y-29738988D02*
G01*
X198674182Y-30342884D01*
X198674182Y-33663646D01*
X198491198Y-33848931D01*
X198308214Y-34034217D01*
X198710241Y-34436243D01*
X199112267Y-34838270D01*
X199513346Y-34436050D01*
X199914424Y-34033830D01*
X199548838Y-33663646D01*
X199548838Y-32948628D01*
X200318535Y-32948628D01*
X200318535Y-33663646D01*
X200135551Y-33848931D01*
X199952567Y-34034217D01*
X200756620Y-34838270D01*
X201558776Y-34033830D01*
X201375984Y-33848738D01*
X201193190Y-33663646D01*
X201193190Y-32038986D01*
X200318535Y-32038986D01*
X199548838Y-32038986D01*
X199548838Y-30899990D01*
X199931913Y-30498620D01*
X200314989Y-30097251D01*
X200316762Y-31068119D01*
X200318535Y-32038986D01*
X201193190Y-32038986D01*
X201193190Y-30446422D01*
X200536843Y-29790757D01*
X199880495Y-29135091D01*
X199277339Y-29738988D01*
G37*
X199277339Y-29738988D02*
X198674182Y-30342884D01*
X198674182Y-33663646D01*
X198491198Y-33848931D01*
X198308214Y-34034217D01*
X198710241Y-34436243D01*
X199112267Y-34838270D01*
X199513346Y-34436050D01*
X199914424Y-34033830D01*
X199548838Y-33663646D01*
X199548838Y-32948628D01*
X200318535Y-32948628D01*
X200318535Y-33663646D01*
X200135551Y-33848931D01*
X199952567Y-34034217D01*
X200756620Y-34838270D01*
X201558776Y-34033830D01*
X201375984Y-33848738D01*
X201193190Y-33663646D01*
X201193190Y-32038986D01*
X200318535Y-32038986D01*
X199548838Y-32038986D01*
X199548838Y-30899990D01*
X199931913Y-30498620D01*
X200314989Y-30097251D01*
X200316762Y-31068119D01*
X200318535Y-32038986D01*
X201193190Y-32038986D01*
X201193190Y-30446422D01*
X200536843Y-29790757D01*
X199880495Y-29135091D01*
X199277339Y-29738988D01*
G36*
X193163851Y-29939813D02*
G01*
X193523060Y-30919427D01*
X192979424Y-30919427D01*
X192774358Y-30919846D01*
X192630168Y-30921861D01*
X192537759Y-30926611D01*
X192488035Y-30935234D01*
X192471900Y-30948869D01*
X192480261Y-30968654D01*
X192490289Y-30980653D01*
X192518292Y-31017473D01*
X192583005Y-31105537D01*
X192680378Y-31239215D01*
X192806360Y-31412877D01*
X192956900Y-31620893D01*
X193127948Y-31857633D01*
X193315453Y-32117466D01*
X193515364Y-32394763D01*
X193723630Y-32683893D01*
X193936200Y-32979227D01*
X194149025Y-33275134D01*
X194358053Y-33565985D01*
X194559233Y-33846148D01*
X194748515Y-34109995D01*
X194921847Y-34351895D01*
X195075181Y-34566217D01*
X195204463Y-34747333D01*
X195305645Y-34889611D01*
X195374674Y-34987422D01*
X195407501Y-35035136D01*
X195408220Y-35036265D01*
X195405457Y-35017674D01*
X195381691Y-34939209D01*
X195338989Y-34807056D01*
X195279417Y-34627402D01*
X195205041Y-34406431D01*
X195117928Y-34150332D01*
X195020145Y-33865288D01*
X194927159Y-33596142D01*
X194820276Y-33287551D01*
X194720769Y-32999885D01*
X194630915Y-32739757D01*
X194552994Y-32513778D01*
X194489282Y-32328560D01*
X194442058Y-32190716D01*
X194413599Y-32106858D01*
X194405862Y-32082987D01*
X194438823Y-32079836D01*
X194529606Y-32077166D01*
X194666059Y-32075186D01*
X194836034Y-32074108D01*
X194925786Y-32073973D01*
X195445709Y-32073973D01*
X195054949Y-31190570D01*
X194931406Y-30911003D01*
X194798067Y-30608805D01*
X194663290Y-30302947D01*
X194535431Y-30012400D01*
X194422846Y-29756135D01*
X194369152Y-29633683D01*
X194074117Y-28960199D01*
X192804643Y-28960199D01*
X193163851Y-29939813D01*
G37*
X193163851Y-29939813D02*
X193523060Y-30919427D01*
X192979424Y-30919427D01*
X192774358Y-30919846D01*
X192630168Y-30921861D01*
X192537759Y-30926611D01*
X192488035Y-30935234D01*
X192471900Y-30948869D01*
X192480261Y-30968654D01*
X192490289Y-30980653D01*
X192518292Y-31017473D01*
X192583005Y-31105537D01*
X192680378Y-31239215D01*
X192806360Y-31412877D01*
X192956900Y-31620893D01*
X193127948Y-31857633D01*
X193315453Y-32117466D01*
X193515364Y-32394763D01*
X193723630Y-32683893D01*
X193936200Y-32979227D01*
X194149025Y-33275134D01*
X194358053Y-33565985D01*
X194559233Y-33846148D01*
X194748515Y-34109995D01*
X194921847Y-34351895D01*
X195075181Y-34566217D01*
X195204463Y-34747333D01*
X195305645Y-34889611D01*
X195374674Y-34987422D01*
X195407501Y-35035136D01*
X195408220Y-35036265D01*
X195405457Y-35017674D01*
X195381691Y-34939209D01*
X195338989Y-34807056D01*
X195279417Y-34627402D01*
X195205041Y-34406431D01*
X195117928Y-34150332D01*
X195020145Y-33865288D01*
X194927159Y-33596142D01*
X194820276Y-33287551D01*
X194720769Y-32999885D01*
X194630915Y-32739757D01*
X194552994Y-32513778D01*
X194489282Y-32328560D01*
X194442058Y-32190716D01*
X194413599Y-32106858D01*
X194405862Y-32082987D01*
X194438823Y-32079836D01*
X194529606Y-32077166D01*
X194666059Y-32075186D01*
X194836034Y-32074108D01*
X194925786Y-32073973D01*
X195445709Y-32073973D01*
X195054949Y-31190570D01*
X194931406Y-30911003D01*
X194798067Y-30608805D01*
X194663290Y-30302947D01*
X194535431Y-30012400D01*
X194422846Y-29756135D01*
X194369152Y-29633683D01*
X194074117Y-28960199D01*
X192804643Y-28960199D01*
X193163851Y-29939813D01*
D12*
X114300000Y-56690000D02*
G75*
G02X109300000Y-51690000I0J5000000D01*
G01*
X165100000Y-56690000D02*
X114300000Y-56690000D01*
X170100000Y-51690000D02*
G75*
G02X165100000Y-56690000I-5000000J0D01*
G01*
X170100000Y-29590000D02*
X170100000Y-51690000D01*
X165100000Y-24590000D02*
G75*
G02X170100000Y-29590000I0J-5000000D01*
G01*
X114300000Y-24590000D02*
X165100000Y-24590000D01*
X109300000Y-29590000D02*
G75*
G02X114300000Y-24590000I5000000J0D01*
G01*
X109300000Y-51690000D02*
X109300000Y-29590000D01*
X125930000Y-48260000D02*
G75*
G03X125930000Y-48260000I-200000J0D01*
G01*
D13*
X177336267Y-50675000D02*
X176993733Y-50675000D01*
X177336267Y-49655000D02*
X176993733Y-49655000D01*
X181043733Y-62355000D02*
X181386267Y-62355000D01*
X181043733Y-63375000D02*
X181386267Y-63375000D01*
D14*
X171021333Y-25360380D02*
X171021333Y-26074666D01*
X171068952Y-26217523D01*
X171164190Y-26312761D01*
X171307047Y-26360380D01*
X171402285Y-26360380D01*
X170116571Y-25693714D02*
X170116571Y-26360380D01*
X170354666Y-25312761D02*
X170592761Y-26027047D01*
X169973714Y-26027047D01*
D15*
X120359750Y-21846383D02*
X119558550Y-21846383D01*
X119959150Y-23248483D02*
X119959150Y-21846383D01*
X119091183Y-22514050D02*
X118623816Y-22514050D01*
X118423516Y-23248483D02*
X119091183Y-23248483D01*
X119091183Y-21846383D01*
X118423516Y-21846383D01*
X116887883Y-21846383D02*
X115953150Y-21846383D01*
X116554050Y-23248483D01*
X115552550Y-21846383D02*
X114617816Y-21846383D01*
X115218716Y-23248483D01*
X113482783Y-21846383D02*
X113749850Y-21846383D01*
X113883383Y-21913150D01*
X113950150Y-21979916D01*
X114083683Y-22180216D01*
X114150450Y-22447283D01*
X114150450Y-22981416D01*
X114083683Y-23114950D01*
X114016916Y-23181716D01*
X113883383Y-23248483D01*
X113616316Y-23248483D01*
X113482783Y-23181716D01*
X113416016Y-23114950D01*
X113349250Y-22981416D01*
X113349250Y-22647583D01*
X113416016Y-22514050D01*
X113482783Y-22447283D01*
X113616316Y-22380516D01*
X113883383Y-22380516D01*
X114016916Y-22447283D01*
X114083683Y-22514050D01*
X114150450Y-22647583D01*
X112815116Y-21979916D02*
X112748350Y-21913150D01*
X112614816Y-21846383D01*
X112280983Y-21846383D01*
X112147450Y-21913150D01*
X112080683Y-21979916D01*
X112013916Y-22113450D01*
X112013916Y-22246983D01*
X112080683Y-22447283D01*
X112881883Y-23248483D01*
X112013916Y-23248483D01*
X111479783Y-21979916D02*
X111413016Y-21913150D01*
X111279483Y-21846383D01*
X110945650Y-21846383D01*
X110812116Y-21913150D01*
X110745350Y-21979916D01*
X110678583Y-22113450D01*
X110678583Y-22246983D01*
X110745350Y-22447283D01*
X111546550Y-23248483D01*
X110678583Y-23248483D01*
X109877383Y-22447283D02*
X110010916Y-22380516D01*
X110077683Y-22313750D01*
X110144450Y-22180216D01*
X110144450Y-22113450D01*
X110077683Y-21979916D01*
X110010916Y-21913150D01*
X109877383Y-21846383D01*
X109610316Y-21846383D01*
X109476783Y-21913150D01*
X109410016Y-21979916D01*
X109343250Y-22113450D01*
X109343250Y-22180216D01*
X109410016Y-22313750D01*
X109476783Y-22380516D01*
X109610316Y-22447283D01*
X109877383Y-22447283D01*
X110010916Y-22514050D01*
X110077683Y-22580816D01*
X110144450Y-22714350D01*
X110144450Y-22981416D01*
X110077683Y-23114950D01*
X110010916Y-23181716D01*
X109877383Y-23248483D01*
X109610316Y-23248483D01*
X109476783Y-23181716D01*
X109410016Y-23114950D01*
X109343250Y-22981416D01*
X109343250Y-22714350D01*
X109410016Y-22580816D01*
X109476783Y-22514050D01*
X109610316Y-22447283D01*
X108742350Y-22714350D02*
X107674083Y-22714350D01*
X106271983Y-23248483D02*
X107073183Y-23248483D01*
X106672583Y-23248483D02*
X106672583Y-21846383D01*
X106806116Y-22046683D01*
X106939650Y-22180216D01*
X107073183Y-22246983D01*
D14*
X177331666Y-49092142D02*
X177379285Y-49139761D01*
X177522142Y-49187380D01*
X177617380Y-49187380D01*
X177760238Y-49139761D01*
X177855476Y-49044523D01*
X177903095Y-48949285D01*
X177950714Y-48758809D01*
X177950714Y-48615952D01*
X177903095Y-48425476D01*
X177855476Y-48330238D01*
X177760238Y-48235000D01*
X177617380Y-48187380D01*
X177522142Y-48187380D01*
X177379285Y-48235000D01*
X177331666Y-48282619D01*
X176426904Y-48187380D02*
X176903095Y-48187380D01*
X176950714Y-48663571D01*
X176903095Y-48615952D01*
X176807857Y-48568333D01*
X176569761Y-48568333D01*
X176474523Y-48615952D01*
X176426904Y-48663571D01*
X176379285Y-48758809D01*
X176379285Y-48996904D01*
X176426904Y-49092142D01*
X176474523Y-49139761D01*
X176569761Y-49187380D01*
X176807857Y-49187380D01*
X176903095Y-49139761D01*
X176950714Y-49092142D01*
X181381666Y-64652142D02*
X181429285Y-64699761D01*
X181572142Y-64747380D01*
X181667380Y-64747380D01*
X181810238Y-64699761D01*
X181905476Y-64604523D01*
X181953095Y-64509285D01*
X182000714Y-64318809D01*
X182000714Y-64175952D01*
X181953095Y-63985476D01*
X181905476Y-63890238D01*
X181810238Y-63795000D01*
X181667380Y-63747380D01*
X181572142Y-63747380D01*
X181429285Y-63795000D01*
X181381666Y-63842619D01*
X180429285Y-64747380D02*
X181000714Y-64747380D01*
X180715000Y-64747380D02*
X180715000Y-63747380D01*
X180810238Y-63890238D01*
X180905476Y-63985476D01*
X181000714Y-64033095D01*
M02*
