M48
; DRILL file {KiCad 5.1.5-52549c5~84~ubuntu18.04.1} date Mon 02 Mar 2020 08:09:34 PM EST
; FORMAT={-:-/ absolute / metric / decimal}
; #@! TF.CreationDate,2020-03-02T20:09:34-05:00
; #@! TF.GenerationSoftware,Kicad,Pcbnew,5.1.5-52549c5~84~ubuntu18.04.1
FMAT,2
METRIC
T1C0.400
T2C0.750
T3C0.800
T4C1.000
T5C1.090
T6C1.200
T7C1.400
T8C1.750
T9C1.778
T10C1.780
T11C1.800
T12C1.950
T13C1.600
T14C2.000
T15C3.180
%
G90
G05
T1
X156.845Y-56.515
X161.036Y-84.836
X164.592Y-84.836
X165.1Y-56.515
X166.116Y-39.624
X172.085Y-73.66
X172.212Y-65.024
X172.72Y-37.465
X172.72Y-41.656
X174.625Y-74.295
X179.832Y-55.88
X180.848Y-53.848
X193.167Y-37.465
X198.628Y-37.592
X199.644Y-30.988
T2
X176.53Y-30.83
X176.53Y-32.83
X176.53Y-34.83
X176.53Y-36.83
X178.53Y-30.83
X178.53Y-32.83
X178.53Y-34.83
X178.53Y-36.83
T3
X163.83Y-78.74
X163.83Y-88.9
T4
X177.8Y-54.61
X177.8Y-57.15
X177.8Y-59.69
T5
X140.28Y-94.765
X140.28Y-104.925
T6
X180.34Y-86.868
X187.84Y-86.868
X193.04Y-100.076
X193.04Y-107.576
X173.228Y-99.06
X173.228Y-106.56
T7
X154.94Y-100.432
X154.94Y-104.572
X154.94Y-108.712
T8
X125.7Y-36.64
X125.7Y-44.64
X127.7Y-40.64
X129.7Y-36.64
X129.7Y-44.64
X131.7Y-40.64
X133.7Y-36.64
X133.7Y-44.64
X135.7Y-40.64
X137.7Y-36.64
X137.7Y-44.64
X139.7Y-40.64
X141.7Y-36.64
X141.7Y-44.64
X143.7Y-40.64
X145.7Y-36.64
X145.7Y-44.64
X147.7Y-40.64
X149.7Y-36.64
X149.7Y-44.64
X151.7Y-40.64
X153.7Y-36.64
X153.7Y-44.64
T9
X201.93Y-54.206
X201.93Y-62.126
T10
X128.089Y-61.2
X128.089Y-71.12
X131.489Y-61.2
X131.489Y-71.12
X152.81Y-78.74
X152.81Y-88.66
X156.21Y-78.74
X156.21Y-88.66
X136.253Y-61.2
X136.253Y-71.12
X139.653Y-61.2
X139.653Y-71.12
X119.924Y-61.2
X119.924Y-71.12
X123.324Y-61.2
X123.324Y-71.12
X112.508Y-77.88
X112.508Y-81.28
X122.428Y-77.88
X122.428Y-81.28
X144.417Y-61.2
X144.417Y-71.12
X147.817Y-61.2
X147.817Y-71.12
X136.13Y-77.47
X136.13Y-80.87
X146.05Y-77.47
X146.05Y-80.87
X152.581Y-61.2
X152.581Y-71.12
X155.981Y-61.2
X155.981Y-71.12
X200.152Y-81.52
X200.152Y-91.44
X203.552Y-81.52
X203.552Y-91.44
X161.29Y-61.2
X161.29Y-71.12
X164.69Y-61.2
X164.69Y-71.12
T11
X155.448Y-48.768
X177.8Y-77.47
T13
X197.58Y-50.731
T14
X114.5Y-33.34
X116.0Y-51.44
X163.4Y-51.44
X164.9Y-33.34
T15
X154.94Y-95.992
T10
G00X127.495Y-109.705
M15
G01X129.045Y-109.705
M16
G05
T12
G00X124.84Y-91.98
M15
G01X124.84Y-89.93
M16
G05
T0
M30
