M48
; DRILL file {KiCad 5.1.5-52549c5~84~ubuntu18.04.1} date Sun 01 Mar 2020 09:30:28 PM EST
; FORMAT={-:-/ absolute / metric / decimal}
; #@! TF.CreationDate,2020-03-01T21:30:28-05:00
; #@! TF.GenerationSoftware,Kicad,Pcbnew,5.1.5-52549c5~84~ubuntu18.04.1
FMAT,2
METRIC
T1C0.400
T2C0.600
T3C0.750
T4C0.760
T5C0.900
T6C0.920
T7C1.000
T8C1.750
T9C2.300
T10C3.200
T11C2.000
T12C3.200
T13C3.450
%
G90
G05
T1
X109.347Y-72.39
X110.49Y-71.501
X139.854Y-73.506
X140.562Y-72.798
X142.24Y-62.23
X143.734Y-67.713
X147.32Y-64.77
X148.59Y-64.77
X149.352Y-75.692
X149.86Y-64.77
X151.13Y-64.77
X152.4Y-78.74
X154.305Y-93.345
X156.21Y-83.82
X156.845Y-71.12
X158.496Y-92.075
X158.75Y-64.77
X158.75Y-93.98
X159.158Y-81.634
X159.866Y-80.926
X160.02Y-93.98
X160.528Y-73.152
X160.528Y-78.25
X161.186Y-94.084
X161.29Y-64.77
X161.29Y-66.675
X161.29Y-77.47
X162.56Y-64.77
X163.195Y-60.325
X163.195Y-84.455
X164.465Y-72.39
X164.465Y-78.74
X165.1Y-67.945
X165.735Y-60.325
X166.116Y-84.836
X167.005Y-69.36
X167.005Y-70.975
X167.005Y-76.2
X167.005Y-95.885
X168.275Y-70.195
X168.275Y-71.755
X168.91Y-68.58
X169.155Y-76.2
X169.982Y-67.8
X171.45Y-77.47
X172.085Y-95.25
X172.475Y-84.455
X172.575Y-75.493
X173.355Y-76.2
T2
X117.983Y-67.945
X169.545Y-58.42
T3
X116.365Y-76.708
X118.365Y-76.708
X120.365Y-76.708
X122.365Y-76.708
X124.365Y-76.708
X126.365Y-76.708
X102.616Y-75.692
X102.616Y-77.692
X102.616Y-79.692
X132.875Y-76.232
X132.875Y-78.232
X134.875Y-76.232
X134.875Y-78.232
X136.875Y-76.232
X136.875Y-78.232
X138.875Y-76.232
X138.875Y-78.232
X140.875Y-76.232
X140.875Y-78.232
X142.875Y-76.232
X142.875Y-78.232
T4
X156.464Y-104.394
X156.464Y-106.934
X156.464Y-109.474
X156.464Y-112.014
X159.004Y-103.124
X159.004Y-105.664
X159.004Y-108.204
X159.004Y-110.744
T5
X145.796Y-103.124
X145.796Y-105.664
X145.796Y-108.204
X145.796Y-110.744
X148.336Y-104.394
X148.336Y-106.934
X148.336Y-109.474
X148.336Y-112.014
T6
X141.01Y-88.265
X141.01Y-91.465
X143.51Y-88.265
X143.51Y-91.465
T7
X146.812Y-82.296
X149.352Y-82.296
X151.892Y-82.296
X122.428Y-94.996
X122.428Y-97.766
X122.428Y-100.536
X122.428Y-103.306
X122.428Y-106.076
X125.268Y-96.381
X125.268Y-99.151
X125.268Y-101.921
X125.268Y-104.691
X163.83Y-50.165
X163.83Y-52.705
X163.83Y-55.245
X166.37Y-50.165
X166.37Y-52.705
X166.37Y-55.245
X105.41Y-94.965
X105.41Y-97.735
X105.41Y-100.505
X105.41Y-103.275
X105.41Y-106.045
X108.25Y-96.35
X108.25Y-99.12
X108.25Y-101.89
X108.25Y-104.66
T8
X114.27Y-50.61
X114.27Y-58.61
X116.27Y-54.61
X118.27Y-50.61
X118.27Y-58.61
X120.27Y-54.61
X122.27Y-50.61
X122.27Y-58.61
X124.27Y-54.61
X126.27Y-50.61
X126.27Y-58.61
X128.27Y-54.61
X130.27Y-50.61
X130.27Y-58.61
X132.27Y-54.61
X134.27Y-50.61
X134.27Y-58.61
X136.27Y-54.61
X138.27Y-50.61
X138.27Y-58.61
X140.27Y-54.61
X142.27Y-50.61
X142.27Y-58.61
T9
X136.24Y-90.975
X148.28Y-90.975
T10
X123.848Y-88.036
X123.848Y-113.036
X106.83Y-88.005
X106.83Y-113.005
T11
X103.07Y-61.91
X104.57Y-43.81
X151.97Y-43.81
X153.47Y-61.91
T12
X165.354Y-101.854
X165.354Y-113.284
T13
X139.446Y-101.854
X139.446Y-113.284
T0
M30
