G04 #@! TF.GenerationSoftware,KiCad,Pcbnew,5.1.5-52549c5~84~ubuntu18.04.1*
G04 #@! TF.CreationDate,2020-03-01T21:30:35-05:00*
G04 #@! TF.ProjectId,Port_Panel,506f7274-5f50-4616-9e65-6c2e6b696361,rev?*
G04 #@! TF.SameCoordinates,Original*
G04 #@! TF.FileFunction,Paste,Bot*
G04 #@! TF.FilePolarity,Positive*
%FSLAX46Y46*%
G04 Gerber Fmt 4.6, Leading zero omitted, Abs format (unit mm)*
G04 Created by KiCad (PCBNEW 5.1.5-52549c5~84~ubuntu18.04.1) date 2020-03-01 21:30:35*
%MOMM*%
%LPD*%
G04 APERTURE LIST*
%ADD10C,0.100000*%
%ADD11R,0.900000X0.600000*%
%ADD12R,0.600000X0.900000*%
%ADD13R,0.600000X1.050000*%
%ADD14R,0.800000X0.900000*%
G04 APERTURE END LIST*
D10*
G36*
X103892779Y-67548144D02*
G01*
X103915834Y-67551563D01*
X103938443Y-67557227D01*
X103960387Y-67565079D01*
X103981457Y-67575044D01*
X104001448Y-67587026D01*
X104020168Y-67600910D01*
X104037438Y-67616562D01*
X104053090Y-67633832D01*
X104066974Y-67652552D01*
X104078956Y-67672543D01*
X104088921Y-67693613D01*
X104096773Y-67715557D01*
X104102437Y-67738166D01*
X104105856Y-67761221D01*
X104107000Y-67784500D01*
X104107000Y-68359500D01*
X104105856Y-68382779D01*
X104102437Y-68405834D01*
X104096773Y-68428443D01*
X104088921Y-68450387D01*
X104078956Y-68471457D01*
X104066974Y-68491448D01*
X104053090Y-68510168D01*
X104037438Y-68527438D01*
X104020168Y-68543090D01*
X104001448Y-68556974D01*
X103981457Y-68568956D01*
X103960387Y-68578921D01*
X103938443Y-68586773D01*
X103915834Y-68592437D01*
X103892779Y-68595856D01*
X103869500Y-68597000D01*
X103394500Y-68597000D01*
X103371221Y-68595856D01*
X103348166Y-68592437D01*
X103325557Y-68586773D01*
X103303613Y-68578921D01*
X103282543Y-68568956D01*
X103262552Y-68556974D01*
X103243832Y-68543090D01*
X103226562Y-68527438D01*
X103210910Y-68510168D01*
X103197026Y-68491448D01*
X103185044Y-68471457D01*
X103175079Y-68450387D01*
X103167227Y-68428443D01*
X103161563Y-68405834D01*
X103158144Y-68382779D01*
X103157000Y-68359500D01*
X103157000Y-67784500D01*
X103158144Y-67761221D01*
X103161563Y-67738166D01*
X103167227Y-67715557D01*
X103175079Y-67693613D01*
X103185044Y-67672543D01*
X103197026Y-67652552D01*
X103210910Y-67633832D01*
X103226562Y-67616562D01*
X103243832Y-67600910D01*
X103262552Y-67587026D01*
X103282543Y-67575044D01*
X103303613Y-67565079D01*
X103325557Y-67557227D01*
X103348166Y-67551563D01*
X103371221Y-67548144D01*
X103394500Y-67547000D01*
X103869500Y-67547000D01*
X103892779Y-67548144D01*
G37*
G36*
X103892779Y-69298144D02*
G01*
X103915834Y-69301563D01*
X103938443Y-69307227D01*
X103960387Y-69315079D01*
X103981457Y-69325044D01*
X104001448Y-69337026D01*
X104020168Y-69350910D01*
X104037438Y-69366562D01*
X104053090Y-69383832D01*
X104066974Y-69402552D01*
X104078956Y-69422543D01*
X104088921Y-69443613D01*
X104096773Y-69465557D01*
X104102437Y-69488166D01*
X104105856Y-69511221D01*
X104107000Y-69534500D01*
X104107000Y-70109500D01*
X104105856Y-70132779D01*
X104102437Y-70155834D01*
X104096773Y-70178443D01*
X104088921Y-70200387D01*
X104078956Y-70221457D01*
X104066974Y-70241448D01*
X104053090Y-70260168D01*
X104037438Y-70277438D01*
X104020168Y-70293090D01*
X104001448Y-70306974D01*
X103981457Y-70318956D01*
X103960387Y-70328921D01*
X103938443Y-70336773D01*
X103915834Y-70342437D01*
X103892779Y-70345856D01*
X103869500Y-70347000D01*
X103394500Y-70347000D01*
X103371221Y-70345856D01*
X103348166Y-70342437D01*
X103325557Y-70336773D01*
X103303613Y-70328921D01*
X103282543Y-70318956D01*
X103262552Y-70306974D01*
X103243832Y-70293090D01*
X103226562Y-70277438D01*
X103210910Y-70260168D01*
X103197026Y-70241448D01*
X103185044Y-70221457D01*
X103175079Y-70200387D01*
X103167227Y-70178443D01*
X103161563Y-70155834D01*
X103158144Y-70132779D01*
X103157000Y-70109500D01*
X103157000Y-69534500D01*
X103158144Y-69511221D01*
X103161563Y-69488166D01*
X103167227Y-69465557D01*
X103175079Y-69443613D01*
X103185044Y-69422543D01*
X103197026Y-69402552D01*
X103210910Y-69383832D01*
X103226562Y-69366562D01*
X103243832Y-69350910D01*
X103262552Y-69337026D01*
X103282543Y-69325044D01*
X103303613Y-69315079D01*
X103325557Y-69307227D01*
X103348166Y-69301563D01*
X103371221Y-69298144D01*
X103394500Y-69297000D01*
X103869500Y-69297000D01*
X103892779Y-69298144D01*
G37*
G36*
X112437779Y-60486144D02*
G01*
X112460834Y-60489563D01*
X112483443Y-60495227D01*
X112505387Y-60503079D01*
X112526457Y-60513044D01*
X112546448Y-60525026D01*
X112565168Y-60538910D01*
X112582438Y-60554562D01*
X112598090Y-60571832D01*
X112611974Y-60590552D01*
X112623956Y-60610543D01*
X112633921Y-60631613D01*
X112641773Y-60653557D01*
X112647437Y-60676166D01*
X112650856Y-60699221D01*
X112652000Y-60722500D01*
X112652000Y-61197500D01*
X112650856Y-61220779D01*
X112647437Y-61243834D01*
X112641773Y-61266443D01*
X112633921Y-61288387D01*
X112623956Y-61309457D01*
X112611974Y-61329448D01*
X112598090Y-61348168D01*
X112582438Y-61365438D01*
X112565168Y-61381090D01*
X112546448Y-61394974D01*
X112526457Y-61406956D01*
X112505387Y-61416921D01*
X112483443Y-61424773D01*
X112460834Y-61430437D01*
X112437779Y-61433856D01*
X112414500Y-61435000D01*
X111839500Y-61435000D01*
X111816221Y-61433856D01*
X111793166Y-61430437D01*
X111770557Y-61424773D01*
X111748613Y-61416921D01*
X111727543Y-61406956D01*
X111707552Y-61394974D01*
X111688832Y-61381090D01*
X111671562Y-61365438D01*
X111655910Y-61348168D01*
X111642026Y-61329448D01*
X111630044Y-61309457D01*
X111620079Y-61288387D01*
X111612227Y-61266443D01*
X111606563Y-61243834D01*
X111603144Y-61220779D01*
X111602000Y-61197500D01*
X111602000Y-60722500D01*
X111603144Y-60699221D01*
X111606563Y-60676166D01*
X111612227Y-60653557D01*
X111620079Y-60631613D01*
X111630044Y-60610543D01*
X111642026Y-60590552D01*
X111655910Y-60571832D01*
X111671562Y-60554562D01*
X111688832Y-60538910D01*
X111707552Y-60525026D01*
X111727543Y-60513044D01*
X111748613Y-60503079D01*
X111770557Y-60495227D01*
X111793166Y-60489563D01*
X111816221Y-60486144D01*
X111839500Y-60485000D01*
X112414500Y-60485000D01*
X112437779Y-60486144D01*
G37*
G36*
X110687779Y-60486144D02*
G01*
X110710834Y-60489563D01*
X110733443Y-60495227D01*
X110755387Y-60503079D01*
X110776457Y-60513044D01*
X110796448Y-60525026D01*
X110815168Y-60538910D01*
X110832438Y-60554562D01*
X110848090Y-60571832D01*
X110861974Y-60590552D01*
X110873956Y-60610543D01*
X110883921Y-60631613D01*
X110891773Y-60653557D01*
X110897437Y-60676166D01*
X110900856Y-60699221D01*
X110902000Y-60722500D01*
X110902000Y-61197500D01*
X110900856Y-61220779D01*
X110897437Y-61243834D01*
X110891773Y-61266443D01*
X110883921Y-61288387D01*
X110873956Y-61309457D01*
X110861974Y-61329448D01*
X110848090Y-61348168D01*
X110832438Y-61365438D01*
X110815168Y-61381090D01*
X110796448Y-61394974D01*
X110776457Y-61406956D01*
X110755387Y-61416921D01*
X110733443Y-61424773D01*
X110710834Y-61430437D01*
X110687779Y-61433856D01*
X110664500Y-61435000D01*
X110089500Y-61435000D01*
X110066221Y-61433856D01*
X110043166Y-61430437D01*
X110020557Y-61424773D01*
X109998613Y-61416921D01*
X109977543Y-61406956D01*
X109957552Y-61394974D01*
X109938832Y-61381090D01*
X109921562Y-61365438D01*
X109905910Y-61348168D01*
X109892026Y-61329448D01*
X109880044Y-61309457D01*
X109870079Y-61288387D01*
X109862227Y-61266443D01*
X109856563Y-61243834D01*
X109853144Y-61220779D01*
X109852000Y-61197500D01*
X109852000Y-60722500D01*
X109853144Y-60699221D01*
X109856563Y-60676166D01*
X109862227Y-60653557D01*
X109870079Y-60631613D01*
X109880044Y-60610543D01*
X109892026Y-60590552D01*
X109905910Y-60571832D01*
X109921562Y-60554562D01*
X109938832Y-60538910D01*
X109957552Y-60525026D01*
X109977543Y-60513044D01*
X109998613Y-60503079D01*
X110020557Y-60495227D01*
X110043166Y-60489563D01*
X110066221Y-60486144D01*
X110089500Y-60485000D01*
X110664500Y-60485000D01*
X110687779Y-60486144D01*
G37*
G36*
X109022779Y-60486144D02*
G01*
X109045834Y-60489563D01*
X109068443Y-60495227D01*
X109090387Y-60503079D01*
X109111457Y-60513044D01*
X109131448Y-60525026D01*
X109150168Y-60538910D01*
X109167438Y-60554562D01*
X109183090Y-60571832D01*
X109196974Y-60590552D01*
X109208956Y-60610543D01*
X109218921Y-60631613D01*
X109226773Y-60653557D01*
X109232437Y-60676166D01*
X109235856Y-60699221D01*
X109237000Y-60722500D01*
X109237000Y-61197500D01*
X109235856Y-61220779D01*
X109232437Y-61243834D01*
X109226773Y-61266443D01*
X109218921Y-61288387D01*
X109208956Y-61309457D01*
X109196974Y-61329448D01*
X109183090Y-61348168D01*
X109167438Y-61365438D01*
X109150168Y-61381090D01*
X109131448Y-61394974D01*
X109111457Y-61406956D01*
X109090387Y-61416921D01*
X109068443Y-61424773D01*
X109045834Y-61430437D01*
X109022779Y-61433856D01*
X108999500Y-61435000D01*
X108424500Y-61435000D01*
X108401221Y-61433856D01*
X108378166Y-61430437D01*
X108355557Y-61424773D01*
X108333613Y-61416921D01*
X108312543Y-61406956D01*
X108292552Y-61394974D01*
X108273832Y-61381090D01*
X108256562Y-61365438D01*
X108240910Y-61348168D01*
X108227026Y-61329448D01*
X108215044Y-61309457D01*
X108205079Y-61288387D01*
X108197227Y-61266443D01*
X108191563Y-61243834D01*
X108188144Y-61220779D01*
X108187000Y-61197500D01*
X108187000Y-60722500D01*
X108188144Y-60699221D01*
X108191563Y-60676166D01*
X108197227Y-60653557D01*
X108205079Y-60631613D01*
X108215044Y-60610543D01*
X108227026Y-60590552D01*
X108240910Y-60571832D01*
X108256562Y-60554562D01*
X108273832Y-60538910D01*
X108292552Y-60525026D01*
X108312543Y-60513044D01*
X108333613Y-60503079D01*
X108355557Y-60495227D01*
X108378166Y-60489563D01*
X108401221Y-60486144D01*
X108424500Y-60485000D01*
X108999500Y-60485000D01*
X109022779Y-60486144D01*
G37*
G36*
X107272779Y-60486144D02*
G01*
X107295834Y-60489563D01*
X107318443Y-60495227D01*
X107340387Y-60503079D01*
X107361457Y-60513044D01*
X107381448Y-60525026D01*
X107400168Y-60538910D01*
X107417438Y-60554562D01*
X107433090Y-60571832D01*
X107446974Y-60590552D01*
X107458956Y-60610543D01*
X107468921Y-60631613D01*
X107476773Y-60653557D01*
X107482437Y-60676166D01*
X107485856Y-60699221D01*
X107487000Y-60722500D01*
X107487000Y-61197500D01*
X107485856Y-61220779D01*
X107482437Y-61243834D01*
X107476773Y-61266443D01*
X107468921Y-61288387D01*
X107458956Y-61309457D01*
X107446974Y-61329448D01*
X107433090Y-61348168D01*
X107417438Y-61365438D01*
X107400168Y-61381090D01*
X107381448Y-61394974D01*
X107361457Y-61406956D01*
X107340387Y-61416921D01*
X107318443Y-61424773D01*
X107295834Y-61430437D01*
X107272779Y-61433856D01*
X107249500Y-61435000D01*
X106674500Y-61435000D01*
X106651221Y-61433856D01*
X106628166Y-61430437D01*
X106605557Y-61424773D01*
X106583613Y-61416921D01*
X106562543Y-61406956D01*
X106542552Y-61394974D01*
X106523832Y-61381090D01*
X106506562Y-61365438D01*
X106490910Y-61348168D01*
X106477026Y-61329448D01*
X106465044Y-61309457D01*
X106455079Y-61288387D01*
X106447227Y-61266443D01*
X106441563Y-61243834D01*
X106438144Y-61220779D01*
X106437000Y-61197500D01*
X106437000Y-60722500D01*
X106438144Y-60699221D01*
X106441563Y-60676166D01*
X106447227Y-60653557D01*
X106455079Y-60631613D01*
X106465044Y-60610543D01*
X106477026Y-60590552D01*
X106490910Y-60571832D01*
X106506562Y-60554562D01*
X106523832Y-60538910D01*
X106542552Y-60525026D01*
X106562543Y-60513044D01*
X106583613Y-60503079D01*
X106605557Y-60495227D01*
X106628166Y-60489563D01*
X106651221Y-60486144D01*
X106674500Y-60485000D01*
X107249500Y-60485000D01*
X107272779Y-60486144D01*
G37*
G36*
X103892779Y-66024144D02*
G01*
X103915834Y-66027563D01*
X103938443Y-66033227D01*
X103960387Y-66041079D01*
X103981457Y-66051044D01*
X104001448Y-66063026D01*
X104020168Y-66076910D01*
X104037438Y-66092562D01*
X104053090Y-66109832D01*
X104066974Y-66128552D01*
X104078956Y-66148543D01*
X104088921Y-66169613D01*
X104096773Y-66191557D01*
X104102437Y-66214166D01*
X104105856Y-66237221D01*
X104107000Y-66260500D01*
X104107000Y-66835500D01*
X104105856Y-66858779D01*
X104102437Y-66881834D01*
X104096773Y-66904443D01*
X104088921Y-66926387D01*
X104078956Y-66947457D01*
X104066974Y-66967448D01*
X104053090Y-66986168D01*
X104037438Y-67003438D01*
X104020168Y-67019090D01*
X104001448Y-67032974D01*
X103981457Y-67044956D01*
X103960387Y-67054921D01*
X103938443Y-67062773D01*
X103915834Y-67068437D01*
X103892779Y-67071856D01*
X103869500Y-67073000D01*
X103394500Y-67073000D01*
X103371221Y-67071856D01*
X103348166Y-67068437D01*
X103325557Y-67062773D01*
X103303613Y-67054921D01*
X103282543Y-67044956D01*
X103262552Y-67032974D01*
X103243832Y-67019090D01*
X103226562Y-67003438D01*
X103210910Y-66986168D01*
X103197026Y-66967448D01*
X103185044Y-66947457D01*
X103175079Y-66926387D01*
X103167227Y-66904443D01*
X103161563Y-66881834D01*
X103158144Y-66858779D01*
X103157000Y-66835500D01*
X103157000Y-66260500D01*
X103158144Y-66237221D01*
X103161563Y-66214166D01*
X103167227Y-66191557D01*
X103175079Y-66169613D01*
X103185044Y-66148543D01*
X103197026Y-66128552D01*
X103210910Y-66109832D01*
X103226562Y-66092562D01*
X103243832Y-66076910D01*
X103262552Y-66063026D01*
X103282543Y-66051044D01*
X103303613Y-66041079D01*
X103325557Y-66033227D01*
X103348166Y-66027563D01*
X103371221Y-66024144D01*
X103394500Y-66023000D01*
X103869500Y-66023000D01*
X103892779Y-66024144D01*
G37*
G36*
X103892779Y-64274144D02*
G01*
X103915834Y-64277563D01*
X103938443Y-64283227D01*
X103960387Y-64291079D01*
X103981457Y-64301044D01*
X104001448Y-64313026D01*
X104020168Y-64326910D01*
X104037438Y-64342562D01*
X104053090Y-64359832D01*
X104066974Y-64378552D01*
X104078956Y-64398543D01*
X104088921Y-64419613D01*
X104096773Y-64441557D01*
X104102437Y-64464166D01*
X104105856Y-64487221D01*
X104107000Y-64510500D01*
X104107000Y-65085500D01*
X104105856Y-65108779D01*
X104102437Y-65131834D01*
X104096773Y-65154443D01*
X104088921Y-65176387D01*
X104078956Y-65197457D01*
X104066974Y-65217448D01*
X104053090Y-65236168D01*
X104037438Y-65253438D01*
X104020168Y-65269090D01*
X104001448Y-65282974D01*
X103981457Y-65294956D01*
X103960387Y-65304921D01*
X103938443Y-65312773D01*
X103915834Y-65318437D01*
X103892779Y-65321856D01*
X103869500Y-65323000D01*
X103394500Y-65323000D01*
X103371221Y-65321856D01*
X103348166Y-65318437D01*
X103325557Y-65312773D01*
X103303613Y-65304921D01*
X103282543Y-65294956D01*
X103262552Y-65282974D01*
X103243832Y-65269090D01*
X103226562Y-65253438D01*
X103210910Y-65236168D01*
X103197026Y-65217448D01*
X103185044Y-65197457D01*
X103175079Y-65176387D01*
X103167227Y-65154443D01*
X103161563Y-65131834D01*
X103158144Y-65108779D01*
X103157000Y-65085500D01*
X103157000Y-64510500D01*
X103158144Y-64487221D01*
X103161563Y-64464166D01*
X103167227Y-64441557D01*
X103175079Y-64419613D01*
X103185044Y-64398543D01*
X103197026Y-64378552D01*
X103210910Y-64359832D01*
X103226562Y-64342562D01*
X103243832Y-64326910D01*
X103262552Y-64313026D01*
X103282543Y-64301044D01*
X103303613Y-64291079D01*
X103325557Y-64283227D01*
X103348166Y-64277563D01*
X103371221Y-64274144D01*
X103394500Y-64273000D01*
X103869500Y-64273000D01*
X103892779Y-64274144D01*
G37*
G36*
X118624779Y-63992144D02*
G01*
X118647834Y-63995563D01*
X118670443Y-64001227D01*
X118692387Y-64009079D01*
X118713457Y-64019044D01*
X118733448Y-64031026D01*
X118752168Y-64044910D01*
X118769438Y-64060562D01*
X118785090Y-64077832D01*
X118798974Y-64096552D01*
X118810956Y-64116543D01*
X118820921Y-64137613D01*
X118828773Y-64159557D01*
X118834437Y-64182166D01*
X118837856Y-64205221D01*
X118839000Y-64228500D01*
X118839000Y-64803500D01*
X118837856Y-64826779D01*
X118834437Y-64849834D01*
X118828773Y-64872443D01*
X118820921Y-64894387D01*
X118810956Y-64915457D01*
X118798974Y-64935448D01*
X118785090Y-64954168D01*
X118769438Y-64971438D01*
X118752168Y-64987090D01*
X118733448Y-65000974D01*
X118713457Y-65012956D01*
X118692387Y-65022921D01*
X118670443Y-65030773D01*
X118647834Y-65036437D01*
X118624779Y-65039856D01*
X118601500Y-65041000D01*
X118126500Y-65041000D01*
X118103221Y-65039856D01*
X118080166Y-65036437D01*
X118057557Y-65030773D01*
X118035613Y-65022921D01*
X118014543Y-65012956D01*
X117994552Y-65000974D01*
X117975832Y-64987090D01*
X117958562Y-64971438D01*
X117942910Y-64954168D01*
X117929026Y-64935448D01*
X117917044Y-64915457D01*
X117907079Y-64894387D01*
X117899227Y-64872443D01*
X117893563Y-64849834D01*
X117890144Y-64826779D01*
X117889000Y-64803500D01*
X117889000Y-64228500D01*
X117890144Y-64205221D01*
X117893563Y-64182166D01*
X117899227Y-64159557D01*
X117907079Y-64137613D01*
X117917044Y-64116543D01*
X117929026Y-64096552D01*
X117942910Y-64077832D01*
X117958562Y-64060562D01*
X117975832Y-64044910D01*
X117994552Y-64031026D01*
X118014543Y-64019044D01*
X118035613Y-64009079D01*
X118057557Y-64001227D01*
X118080166Y-63995563D01*
X118103221Y-63992144D01*
X118126500Y-63991000D01*
X118601500Y-63991000D01*
X118624779Y-63992144D01*
G37*
G36*
X118624779Y-62242144D02*
G01*
X118647834Y-62245563D01*
X118670443Y-62251227D01*
X118692387Y-62259079D01*
X118713457Y-62269044D01*
X118733448Y-62281026D01*
X118752168Y-62294910D01*
X118769438Y-62310562D01*
X118785090Y-62327832D01*
X118798974Y-62346552D01*
X118810956Y-62366543D01*
X118820921Y-62387613D01*
X118828773Y-62409557D01*
X118834437Y-62432166D01*
X118837856Y-62455221D01*
X118839000Y-62478500D01*
X118839000Y-63053500D01*
X118837856Y-63076779D01*
X118834437Y-63099834D01*
X118828773Y-63122443D01*
X118820921Y-63144387D01*
X118810956Y-63165457D01*
X118798974Y-63185448D01*
X118785090Y-63204168D01*
X118769438Y-63221438D01*
X118752168Y-63237090D01*
X118733448Y-63250974D01*
X118713457Y-63262956D01*
X118692387Y-63272921D01*
X118670443Y-63280773D01*
X118647834Y-63286437D01*
X118624779Y-63289856D01*
X118601500Y-63291000D01*
X118126500Y-63291000D01*
X118103221Y-63289856D01*
X118080166Y-63286437D01*
X118057557Y-63280773D01*
X118035613Y-63272921D01*
X118014543Y-63262956D01*
X117994552Y-63250974D01*
X117975832Y-63237090D01*
X117958562Y-63221438D01*
X117942910Y-63204168D01*
X117929026Y-63185448D01*
X117917044Y-63165457D01*
X117907079Y-63144387D01*
X117899227Y-63122443D01*
X117893563Y-63099834D01*
X117890144Y-63076779D01*
X117889000Y-63053500D01*
X117889000Y-62478500D01*
X117890144Y-62455221D01*
X117893563Y-62432166D01*
X117899227Y-62409557D01*
X117907079Y-62387613D01*
X117917044Y-62366543D01*
X117929026Y-62346552D01*
X117942910Y-62327832D01*
X117958562Y-62310562D01*
X117975832Y-62294910D01*
X117994552Y-62281026D01*
X118014543Y-62269044D01*
X118035613Y-62259079D01*
X118057557Y-62251227D01*
X118080166Y-62245563D01*
X118103221Y-62242144D01*
X118126500Y-62241000D01*
X118601500Y-62241000D01*
X118624779Y-62242144D01*
G37*
G36*
X106971703Y-68556722D02*
G01*
X106986264Y-68558882D01*
X107000543Y-68562459D01*
X107014403Y-68567418D01*
X107027710Y-68573712D01*
X107040336Y-68581280D01*
X107052159Y-68590048D01*
X107063066Y-68599934D01*
X107072952Y-68610841D01*
X107081720Y-68622664D01*
X107089288Y-68635290D01*
X107095582Y-68648597D01*
X107100541Y-68662457D01*
X107104118Y-68676736D01*
X107106278Y-68691297D01*
X107107000Y-68706000D01*
X107107000Y-70356000D01*
X107106278Y-70370703D01*
X107104118Y-70385264D01*
X107100541Y-70399543D01*
X107095582Y-70413403D01*
X107089288Y-70426710D01*
X107081720Y-70439336D01*
X107072952Y-70451159D01*
X107063066Y-70462066D01*
X107052159Y-70471952D01*
X107040336Y-70480720D01*
X107027710Y-70488288D01*
X107014403Y-70494582D01*
X107000543Y-70499541D01*
X106986264Y-70503118D01*
X106971703Y-70505278D01*
X106957000Y-70506000D01*
X106657000Y-70506000D01*
X106642297Y-70505278D01*
X106627736Y-70503118D01*
X106613457Y-70499541D01*
X106599597Y-70494582D01*
X106586290Y-70488288D01*
X106573664Y-70480720D01*
X106561841Y-70471952D01*
X106550934Y-70462066D01*
X106541048Y-70451159D01*
X106532280Y-70439336D01*
X106524712Y-70426710D01*
X106518418Y-70413403D01*
X106513459Y-70399543D01*
X106509882Y-70385264D01*
X106507722Y-70370703D01*
X106507000Y-70356000D01*
X106507000Y-68706000D01*
X106507722Y-68691297D01*
X106509882Y-68676736D01*
X106513459Y-68662457D01*
X106518418Y-68648597D01*
X106524712Y-68635290D01*
X106532280Y-68622664D01*
X106541048Y-68610841D01*
X106550934Y-68599934D01*
X106561841Y-68590048D01*
X106573664Y-68581280D01*
X106586290Y-68573712D01*
X106599597Y-68567418D01*
X106613457Y-68562459D01*
X106627736Y-68558882D01*
X106642297Y-68556722D01*
X106657000Y-68556000D01*
X106957000Y-68556000D01*
X106971703Y-68556722D01*
G37*
G36*
X108241703Y-68556722D02*
G01*
X108256264Y-68558882D01*
X108270543Y-68562459D01*
X108284403Y-68567418D01*
X108297710Y-68573712D01*
X108310336Y-68581280D01*
X108322159Y-68590048D01*
X108333066Y-68599934D01*
X108342952Y-68610841D01*
X108351720Y-68622664D01*
X108359288Y-68635290D01*
X108365582Y-68648597D01*
X108370541Y-68662457D01*
X108374118Y-68676736D01*
X108376278Y-68691297D01*
X108377000Y-68706000D01*
X108377000Y-70356000D01*
X108376278Y-70370703D01*
X108374118Y-70385264D01*
X108370541Y-70399543D01*
X108365582Y-70413403D01*
X108359288Y-70426710D01*
X108351720Y-70439336D01*
X108342952Y-70451159D01*
X108333066Y-70462066D01*
X108322159Y-70471952D01*
X108310336Y-70480720D01*
X108297710Y-70488288D01*
X108284403Y-70494582D01*
X108270543Y-70499541D01*
X108256264Y-70503118D01*
X108241703Y-70505278D01*
X108227000Y-70506000D01*
X107927000Y-70506000D01*
X107912297Y-70505278D01*
X107897736Y-70503118D01*
X107883457Y-70499541D01*
X107869597Y-70494582D01*
X107856290Y-70488288D01*
X107843664Y-70480720D01*
X107831841Y-70471952D01*
X107820934Y-70462066D01*
X107811048Y-70451159D01*
X107802280Y-70439336D01*
X107794712Y-70426710D01*
X107788418Y-70413403D01*
X107783459Y-70399543D01*
X107779882Y-70385264D01*
X107777722Y-70370703D01*
X107777000Y-70356000D01*
X107777000Y-68706000D01*
X107777722Y-68691297D01*
X107779882Y-68676736D01*
X107783459Y-68662457D01*
X107788418Y-68648597D01*
X107794712Y-68635290D01*
X107802280Y-68622664D01*
X107811048Y-68610841D01*
X107820934Y-68599934D01*
X107831841Y-68590048D01*
X107843664Y-68581280D01*
X107856290Y-68573712D01*
X107869597Y-68567418D01*
X107883457Y-68562459D01*
X107897736Y-68558882D01*
X107912297Y-68556722D01*
X107927000Y-68556000D01*
X108227000Y-68556000D01*
X108241703Y-68556722D01*
G37*
G36*
X109511703Y-68556722D02*
G01*
X109526264Y-68558882D01*
X109540543Y-68562459D01*
X109554403Y-68567418D01*
X109567710Y-68573712D01*
X109580336Y-68581280D01*
X109592159Y-68590048D01*
X109603066Y-68599934D01*
X109612952Y-68610841D01*
X109621720Y-68622664D01*
X109629288Y-68635290D01*
X109635582Y-68648597D01*
X109640541Y-68662457D01*
X109644118Y-68676736D01*
X109646278Y-68691297D01*
X109647000Y-68706000D01*
X109647000Y-70356000D01*
X109646278Y-70370703D01*
X109644118Y-70385264D01*
X109640541Y-70399543D01*
X109635582Y-70413403D01*
X109629288Y-70426710D01*
X109621720Y-70439336D01*
X109612952Y-70451159D01*
X109603066Y-70462066D01*
X109592159Y-70471952D01*
X109580336Y-70480720D01*
X109567710Y-70488288D01*
X109554403Y-70494582D01*
X109540543Y-70499541D01*
X109526264Y-70503118D01*
X109511703Y-70505278D01*
X109497000Y-70506000D01*
X109197000Y-70506000D01*
X109182297Y-70505278D01*
X109167736Y-70503118D01*
X109153457Y-70499541D01*
X109139597Y-70494582D01*
X109126290Y-70488288D01*
X109113664Y-70480720D01*
X109101841Y-70471952D01*
X109090934Y-70462066D01*
X109081048Y-70451159D01*
X109072280Y-70439336D01*
X109064712Y-70426710D01*
X109058418Y-70413403D01*
X109053459Y-70399543D01*
X109049882Y-70385264D01*
X109047722Y-70370703D01*
X109047000Y-70356000D01*
X109047000Y-68706000D01*
X109047722Y-68691297D01*
X109049882Y-68676736D01*
X109053459Y-68662457D01*
X109058418Y-68648597D01*
X109064712Y-68635290D01*
X109072280Y-68622664D01*
X109081048Y-68610841D01*
X109090934Y-68599934D01*
X109101841Y-68590048D01*
X109113664Y-68581280D01*
X109126290Y-68573712D01*
X109139597Y-68567418D01*
X109153457Y-68562459D01*
X109167736Y-68558882D01*
X109182297Y-68556722D01*
X109197000Y-68556000D01*
X109497000Y-68556000D01*
X109511703Y-68556722D01*
G37*
G36*
X110781703Y-68556722D02*
G01*
X110796264Y-68558882D01*
X110810543Y-68562459D01*
X110824403Y-68567418D01*
X110837710Y-68573712D01*
X110850336Y-68581280D01*
X110862159Y-68590048D01*
X110873066Y-68599934D01*
X110882952Y-68610841D01*
X110891720Y-68622664D01*
X110899288Y-68635290D01*
X110905582Y-68648597D01*
X110910541Y-68662457D01*
X110914118Y-68676736D01*
X110916278Y-68691297D01*
X110917000Y-68706000D01*
X110917000Y-70356000D01*
X110916278Y-70370703D01*
X110914118Y-70385264D01*
X110910541Y-70399543D01*
X110905582Y-70413403D01*
X110899288Y-70426710D01*
X110891720Y-70439336D01*
X110882952Y-70451159D01*
X110873066Y-70462066D01*
X110862159Y-70471952D01*
X110850336Y-70480720D01*
X110837710Y-70488288D01*
X110824403Y-70494582D01*
X110810543Y-70499541D01*
X110796264Y-70503118D01*
X110781703Y-70505278D01*
X110767000Y-70506000D01*
X110467000Y-70506000D01*
X110452297Y-70505278D01*
X110437736Y-70503118D01*
X110423457Y-70499541D01*
X110409597Y-70494582D01*
X110396290Y-70488288D01*
X110383664Y-70480720D01*
X110371841Y-70471952D01*
X110360934Y-70462066D01*
X110351048Y-70451159D01*
X110342280Y-70439336D01*
X110334712Y-70426710D01*
X110328418Y-70413403D01*
X110323459Y-70399543D01*
X110319882Y-70385264D01*
X110317722Y-70370703D01*
X110317000Y-70356000D01*
X110317000Y-68706000D01*
X110317722Y-68691297D01*
X110319882Y-68676736D01*
X110323459Y-68662457D01*
X110328418Y-68648597D01*
X110334712Y-68635290D01*
X110342280Y-68622664D01*
X110351048Y-68610841D01*
X110360934Y-68599934D01*
X110371841Y-68590048D01*
X110383664Y-68581280D01*
X110396290Y-68573712D01*
X110409597Y-68567418D01*
X110423457Y-68562459D01*
X110437736Y-68558882D01*
X110452297Y-68556722D01*
X110467000Y-68556000D01*
X110767000Y-68556000D01*
X110781703Y-68556722D01*
G37*
G36*
X112051703Y-68556722D02*
G01*
X112066264Y-68558882D01*
X112080543Y-68562459D01*
X112094403Y-68567418D01*
X112107710Y-68573712D01*
X112120336Y-68581280D01*
X112132159Y-68590048D01*
X112143066Y-68599934D01*
X112152952Y-68610841D01*
X112161720Y-68622664D01*
X112169288Y-68635290D01*
X112175582Y-68648597D01*
X112180541Y-68662457D01*
X112184118Y-68676736D01*
X112186278Y-68691297D01*
X112187000Y-68706000D01*
X112187000Y-70356000D01*
X112186278Y-70370703D01*
X112184118Y-70385264D01*
X112180541Y-70399543D01*
X112175582Y-70413403D01*
X112169288Y-70426710D01*
X112161720Y-70439336D01*
X112152952Y-70451159D01*
X112143066Y-70462066D01*
X112132159Y-70471952D01*
X112120336Y-70480720D01*
X112107710Y-70488288D01*
X112094403Y-70494582D01*
X112080543Y-70499541D01*
X112066264Y-70503118D01*
X112051703Y-70505278D01*
X112037000Y-70506000D01*
X111737000Y-70506000D01*
X111722297Y-70505278D01*
X111707736Y-70503118D01*
X111693457Y-70499541D01*
X111679597Y-70494582D01*
X111666290Y-70488288D01*
X111653664Y-70480720D01*
X111641841Y-70471952D01*
X111630934Y-70462066D01*
X111621048Y-70451159D01*
X111612280Y-70439336D01*
X111604712Y-70426710D01*
X111598418Y-70413403D01*
X111593459Y-70399543D01*
X111589882Y-70385264D01*
X111587722Y-70370703D01*
X111587000Y-70356000D01*
X111587000Y-68706000D01*
X111587722Y-68691297D01*
X111589882Y-68676736D01*
X111593459Y-68662457D01*
X111598418Y-68648597D01*
X111604712Y-68635290D01*
X111612280Y-68622664D01*
X111621048Y-68610841D01*
X111630934Y-68599934D01*
X111641841Y-68590048D01*
X111653664Y-68581280D01*
X111666290Y-68573712D01*
X111679597Y-68567418D01*
X111693457Y-68562459D01*
X111707736Y-68558882D01*
X111722297Y-68556722D01*
X111737000Y-68556000D01*
X112037000Y-68556000D01*
X112051703Y-68556722D01*
G37*
G36*
X113321703Y-68556722D02*
G01*
X113336264Y-68558882D01*
X113350543Y-68562459D01*
X113364403Y-68567418D01*
X113377710Y-68573712D01*
X113390336Y-68581280D01*
X113402159Y-68590048D01*
X113413066Y-68599934D01*
X113422952Y-68610841D01*
X113431720Y-68622664D01*
X113439288Y-68635290D01*
X113445582Y-68648597D01*
X113450541Y-68662457D01*
X113454118Y-68676736D01*
X113456278Y-68691297D01*
X113457000Y-68706000D01*
X113457000Y-70356000D01*
X113456278Y-70370703D01*
X113454118Y-70385264D01*
X113450541Y-70399543D01*
X113445582Y-70413403D01*
X113439288Y-70426710D01*
X113431720Y-70439336D01*
X113422952Y-70451159D01*
X113413066Y-70462066D01*
X113402159Y-70471952D01*
X113390336Y-70480720D01*
X113377710Y-70488288D01*
X113364403Y-70494582D01*
X113350543Y-70499541D01*
X113336264Y-70503118D01*
X113321703Y-70505278D01*
X113307000Y-70506000D01*
X113007000Y-70506000D01*
X112992297Y-70505278D01*
X112977736Y-70503118D01*
X112963457Y-70499541D01*
X112949597Y-70494582D01*
X112936290Y-70488288D01*
X112923664Y-70480720D01*
X112911841Y-70471952D01*
X112900934Y-70462066D01*
X112891048Y-70451159D01*
X112882280Y-70439336D01*
X112874712Y-70426710D01*
X112868418Y-70413403D01*
X112863459Y-70399543D01*
X112859882Y-70385264D01*
X112857722Y-70370703D01*
X112857000Y-70356000D01*
X112857000Y-68706000D01*
X112857722Y-68691297D01*
X112859882Y-68676736D01*
X112863459Y-68662457D01*
X112868418Y-68648597D01*
X112874712Y-68635290D01*
X112882280Y-68622664D01*
X112891048Y-68610841D01*
X112900934Y-68599934D01*
X112911841Y-68590048D01*
X112923664Y-68581280D01*
X112936290Y-68573712D01*
X112949597Y-68567418D01*
X112963457Y-68562459D01*
X112977736Y-68558882D01*
X112992297Y-68556722D01*
X113007000Y-68556000D01*
X113307000Y-68556000D01*
X113321703Y-68556722D01*
G37*
G36*
X114591703Y-68556722D02*
G01*
X114606264Y-68558882D01*
X114620543Y-68562459D01*
X114634403Y-68567418D01*
X114647710Y-68573712D01*
X114660336Y-68581280D01*
X114672159Y-68590048D01*
X114683066Y-68599934D01*
X114692952Y-68610841D01*
X114701720Y-68622664D01*
X114709288Y-68635290D01*
X114715582Y-68648597D01*
X114720541Y-68662457D01*
X114724118Y-68676736D01*
X114726278Y-68691297D01*
X114727000Y-68706000D01*
X114727000Y-70356000D01*
X114726278Y-70370703D01*
X114724118Y-70385264D01*
X114720541Y-70399543D01*
X114715582Y-70413403D01*
X114709288Y-70426710D01*
X114701720Y-70439336D01*
X114692952Y-70451159D01*
X114683066Y-70462066D01*
X114672159Y-70471952D01*
X114660336Y-70480720D01*
X114647710Y-70488288D01*
X114634403Y-70494582D01*
X114620543Y-70499541D01*
X114606264Y-70503118D01*
X114591703Y-70505278D01*
X114577000Y-70506000D01*
X114277000Y-70506000D01*
X114262297Y-70505278D01*
X114247736Y-70503118D01*
X114233457Y-70499541D01*
X114219597Y-70494582D01*
X114206290Y-70488288D01*
X114193664Y-70480720D01*
X114181841Y-70471952D01*
X114170934Y-70462066D01*
X114161048Y-70451159D01*
X114152280Y-70439336D01*
X114144712Y-70426710D01*
X114138418Y-70413403D01*
X114133459Y-70399543D01*
X114129882Y-70385264D01*
X114127722Y-70370703D01*
X114127000Y-70356000D01*
X114127000Y-68706000D01*
X114127722Y-68691297D01*
X114129882Y-68676736D01*
X114133459Y-68662457D01*
X114138418Y-68648597D01*
X114144712Y-68635290D01*
X114152280Y-68622664D01*
X114161048Y-68610841D01*
X114170934Y-68599934D01*
X114181841Y-68590048D01*
X114193664Y-68581280D01*
X114206290Y-68573712D01*
X114219597Y-68567418D01*
X114233457Y-68562459D01*
X114247736Y-68558882D01*
X114262297Y-68556722D01*
X114277000Y-68556000D01*
X114577000Y-68556000D01*
X114591703Y-68556722D01*
G37*
G36*
X115861703Y-68556722D02*
G01*
X115876264Y-68558882D01*
X115890543Y-68562459D01*
X115904403Y-68567418D01*
X115917710Y-68573712D01*
X115930336Y-68581280D01*
X115942159Y-68590048D01*
X115953066Y-68599934D01*
X115962952Y-68610841D01*
X115971720Y-68622664D01*
X115979288Y-68635290D01*
X115985582Y-68648597D01*
X115990541Y-68662457D01*
X115994118Y-68676736D01*
X115996278Y-68691297D01*
X115997000Y-68706000D01*
X115997000Y-70356000D01*
X115996278Y-70370703D01*
X115994118Y-70385264D01*
X115990541Y-70399543D01*
X115985582Y-70413403D01*
X115979288Y-70426710D01*
X115971720Y-70439336D01*
X115962952Y-70451159D01*
X115953066Y-70462066D01*
X115942159Y-70471952D01*
X115930336Y-70480720D01*
X115917710Y-70488288D01*
X115904403Y-70494582D01*
X115890543Y-70499541D01*
X115876264Y-70503118D01*
X115861703Y-70505278D01*
X115847000Y-70506000D01*
X115547000Y-70506000D01*
X115532297Y-70505278D01*
X115517736Y-70503118D01*
X115503457Y-70499541D01*
X115489597Y-70494582D01*
X115476290Y-70488288D01*
X115463664Y-70480720D01*
X115451841Y-70471952D01*
X115440934Y-70462066D01*
X115431048Y-70451159D01*
X115422280Y-70439336D01*
X115414712Y-70426710D01*
X115408418Y-70413403D01*
X115403459Y-70399543D01*
X115399882Y-70385264D01*
X115397722Y-70370703D01*
X115397000Y-70356000D01*
X115397000Y-68706000D01*
X115397722Y-68691297D01*
X115399882Y-68676736D01*
X115403459Y-68662457D01*
X115408418Y-68648597D01*
X115414712Y-68635290D01*
X115422280Y-68622664D01*
X115431048Y-68610841D01*
X115440934Y-68599934D01*
X115451841Y-68590048D01*
X115463664Y-68581280D01*
X115476290Y-68573712D01*
X115489597Y-68567418D01*
X115503457Y-68562459D01*
X115517736Y-68558882D01*
X115532297Y-68556722D01*
X115547000Y-68556000D01*
X115847000Y-68556000D01*
X115861703Y-68556722D01*
G37*
G36*
X115861703Y-63606722D02*
G01*
X115876264Y-63608882D01*
X115890543Y-63612459D01*
X115904403Y-63617418D01*
X115917710Y-63623712D01*
X115930336Y-63631280D01*
X115942159Y-63640048D01*
X115953066Y-63649934D01*
X115962952Y-63660841D01*
X115971720Y-63672664D01*
X115979288Y-63685290D01*
X115985582Y-63698597D01*
X115990541Y-63712457D01*
X115994118Y-63726736D01*
X115996278Y-63741297D01*
X115997000Y-63756000D01*
X115997000Y-65406000D01*
X115996278Y-65420703D01*
X115994118Y-65435264D01*
X115990541Y-65449543D01*
X115985582Y-65463403D01*
X115979288Y-65476710D01*
X115971720Y-65489336D01*
X115962952Y-65501159D01*
X115953066Y-65512066D01*
X115942159Y-65521952D01*
X115930336Y-65530720D01*
X115917710Y-65538288D01*
X115904403Y-65544582D01*
X115890543Y-65549541D01*
X115876264Y-65553118D01*
X115861703Y-65555278D01*
X115847000Y-65556000D01*
X115547000Y-65556000D01*
X115532297Y-65555278D01*
X115517736Y-65553118D01*
X115503457Y-65549541D01*
X115489597Y-65544582D01*
X115476290Y-65538288D01*
X115463664Y-65530720D01*
X115451841Y-65521952D01*
X115440934Y-65512066D01*
X115431048Y-65501159D01*
X115422280Y-65489336D01*
X115414712Y-65476710D01*
X115408418Y-65463403D01*
X115403459Y-65449543D01*
X115399882Y-65435264D01*
X115397722Y-65420703D01*
X115397000Y-65406000D01*
X115397000Y-63756000D01*
X115397722Y-63741297D01*
X115399882Y-63726736D01*
X115403459Y-63712457D01*
X115408418Y-63698597D01*
X115414712Y-63685290D01*
X115422280Y-63672664D01*
X115431048Y-63660841D01*
X115440934Y-63649934D01*
X115451841Y-63640048D01*
X115463664Y-63631280D01*
X115476290Y-63623712D01*
X115489597Y-63617418D01*
X115503457Y-63612459D01*
X115517736Y-63608882D01*
X115532297Y-63606722D01*
X115547000Y-63606000D01*
X115847000Y-63606000D01*
X115861703Y-63606722D01*
G37*
G36*
X114591703Y-63606722D02*
G01*
X114606264Y-63608882D01*
X114620543Y-63612459D01*
X114634403Y-63617418D01*
X114647710Y-63623712D01*
X114660336Y-63631280D01*
X114672159Y-63640048D01*
X114683066Y-63649934D01*
X114692952Y-63660841D01*
X114701720Y-63672664D01*
X114709288Y-63685290D01*
X114715582Y-63698597D01*
X114720541Y-63712457D01*
X114724118Y-63726736D01*
X114726278Y-63741297D01*
X114727000Y-63756000D01*
X114727000Y-65406000D01*
X114726278Y-65420703D01*
X114724118Y-65435264D01*
X114720541Y-65449543D01*
X114715582Y-65463403D01*
X114709288Y-65476710D01*
X114701720Y-65489336D01*
X114692952Y-65501159D01*
X114683066Y-65512066D01*
X114672159Y-65521952D01*
X114660336Y-65530720D01*
X114647710Y-65538288D01*
X114634403Y-65544582D01*
X114620543Y-65549541D01*
X114606264Y-65553118D01*
X114591703Y-65555278D01*
X114577000Y-65556000D01*
X114277000Y-65556000D01*
X114262297Y-65555278D01*
X114247736Y-65553118D01*
X114233457Y-65549541D01*
X114219597Y-65544582D01*
X114206290Y-65538288D01*
X114193664Y-65530720D01*
X114181841Y-65521952D01*
X114170934Y-65512066D01*
X114161048Y-65501159D01*
X114152280Y-65489336D01*
X114144712Y-65476710D01*
X114138418Y-65463403D01*
X114133459Y-65449543D01*
X114129882Y-65435264D01*
X114127722Y-65420703D01*
X114127000Y-65406000D01*
X114127000Y-63756000D01*
X114127722Y-63741297D01*
X114129882Y-63726736D01*
X114133459Y-63712457D01*
X114138418Y-63698597D01*
X114144712Y-63685290D01*
X114152280Y-63672664D01*
X114161048Y-63660841D01*
X114170934Y-63649934D01*
X114181841Y-63640048D01*
X114193664Y-63631280D01*
X114206290Y-63623712D01*
X114219597Y-63617418D01*
X114233457Y-63612459D01*
X114247736Y-63608882D01*
X114262297Y-63606722D01*
X114277000Y-63606000D01*
X114577000Y-63606000D01*
X114591703Y-63606722D01*
G37*
G36*
X113321703Y-63606722D02*
G01*
X113336264Y-63608882D01*
X113350543Y-63612459D01*
X113364403Y-63617418D01*
X113377710Y-63623712D01*
X113390336Y-63631280D01*
X113402159Y-63640048D01*
X113413066Y-63649934D01*
X113422952Y-63660841D01*
X113431720Y-63672664D01*
X113439288Y-63685290D01*
X113445582Y-63698597D01*
X113450541Y-63712457D01*
X113454118Y-63726736D01*
X113456278Y-63741297D01*
X113457000Y-63756000D01*
X113457000Y-65406000D01*
X113456278Y-65420703D01*
X113454118Y-65435264D01*
X113450541Y-65449543D01*
X113445582Y-65463403D01*
X113439288Y-65476710D01*
X113431720Y-65489336D01*
X113422952Y-65501159D01*
X113413066Y-65512066D01*
X113402159Y-65521952D01*
X113390336Y-65530720D01*
X113377710Y-65538288D01*
X113364403Y-65544582D01*
X113350543Y-65549541D01*
X113336264Y-65553118D01*
X113321703Y-65555278D01*
X113307000Y-65556000D01*
X113007000Y-65556000D01*
X112992297Y-65555278D01*
X112977736Y-65553118D01*
X112963457Y-65549541D01*
X112949597Y-65544582D01*
X112936290Y-65538288D01*
X112923664Y-65530720D01*
X112911841Y-65521952D01*
X112900934Y-65512066D01*
X112891048Y-65501159D01*
X112882280Y-65489336D01*
X112874712Y-65476710D01*
X112868418Y-65463403D01*
X112863459Y-65449543D01*
X112859882Y-65435264D01*
X112857722Y-65420703D01*
X112857000Y-65406000D01*
X112857000Y-63756000D01*
X112857722Y-63741297D01*
X112859882Y-63726736D01*
X112863459Y-63712457D01*
X112868418Y-63698597D01*
X112874712Y-63685290D01*
X112882280Y-63672664D01*
X112891048Y-63660841D01*
X112900934Y-63649934D01*
X112911841Y-63640048D01*
X112923664Y-63631280D01*
X112936290Y-63623712D01*
X112949597Y-63617418D01*
X112963457Y-63612459D01*
X112977736Y-63608882D01*
X112992297Y-63606722D01*
X113007000Y-63606000D01*
X113307000Y-63606000D01*
X113321703Y-63606722D01*
G37*
G36*
X112051703Y-63606722D02*
G01*
X112066264Y-63608882D01*
X112080543Y-63612459D01*
X112094403Y-63617418D01*
X112107710Y-63623712D01*
X112120336Y-63631280D01*
X112132159Y-63640048D01*
X112143066Y-63649934D01*
X112152952Y-63660841D01*
X112161720Y-63672664D01*
X112169288Y-63685290D01*
X112175582Y-63698597D01*
X112180541Y-63712457D01*
X112184118Y-63726736D01*
X112186278Y-63741297D01*
X112187000Y-63756000D01*
X112187000Y-65406000D01*
X112186278Y-65420703D01*
X112184118Y-65435264D01*
X112180541Y-65449543D01*
X112175582Y-65463403D01*
X112169288Y-65476710D01*
X112161720Y-65489336D01*
X112152952Y-65501159D01*
X112143066Y-65512066D01*
X112132159Y-65521952D01*
X112120336Y-65530720D01*
X112107710Y-65538288D01*
X112094403Y-65544582D01*
X112080543Y-65549541D01*
X112066264Y-65553118D01*
X112051703Y-65555278D01*
X112037000Y-65556000D01*
X111737000Y-65556000D01*
X111722297Y-65555278D01*
X111707736Y-65553118D01*
X111693457Y-65549541D01*
X111679597Y-65544582D01*
X111666290Y-65538288D01*
X111653664Y-65530720D01*
X111641841Y-65521952D01*
X111630934Y-65512066D01*
X111621048Y-65501159D01*
X111612280Y-65489336D01*
X111604712Y-65476710D01*
X111598418Y-65463403D01*
X111593459Y-65449543D01*
X111589882Y-65435264D01*
X111587722Y-65420703D01*
X111587000Y-65406000D01*
X111587000Y-63756000D01*
X111587722Y-63741297D01*
X111589882Y-63726736D01*
X111593459Y-63712457D01*
X111598418Y-63698597D01*
X111604712Y-63685290D01*
X111612280Y-63672664D01*
X111621048Y-63660841D01*
X111630934Y-63649934D01*
X111641841Y-63640048D01*
X111653664Y-63631280D01*
X111666290Y-63623712D01*
X111679597Y-63617418D01*
X111693457Y-63612459D01*
X111707736Y-63608882D01*
X111722297Y-63606722D01*
X111737000Y-63606000D01*
X112037000Y-63606000D01*
X112051703Y-63606722D01*
G37*
G36*
X110781703Y-63606722D02*
G01*
X110796264Y-63608882D01*
X110810543Y-63612459D01*
X110824403Y-63617418D01*
X110837710Y-63623712D01*
X110850336Y-63631280D01*
X110862159Y-63640048D01*
X110873066Y-63649934D01*
X110882952Y-63660841D01*
X110891720Y-63672664D01*
X110899288Y-63685290D01*
X110905582Y-63698597D01*
X110910541Y-63712457D01*
X110914118Y-63726736D01*
X110916278Y-63741297D01*
X110917000Y-63756000D01*
X110917000Y-65406000D01*
X110916278Y-65420703D01*
X110914118Y-65435264D01*
X110910541Y-65449543D01*
X110905582Y-65463403D01*
X110899288Y-65476710D01*
X110891720Y-65489336D01*
X110882952Y-65501159D01*
X110873066Y-65512066D01*
X110862159Y-65521952D01*
X110850336Y-65530720D01*
X110837710Y-65538288D01*
X110824403Y-65544582D01*
X110810543Y-65549541D01*
X110796264Y-65553118D01*
X110781703Y-65555278D01*
X110767000Y-65556000D01*
X110467000Y-65556000D01*
X110452297Y-65555278D01*
X110437736Y-65553118D01*
X110423457Y-65549541D01*
X110409597Y-65544582D01*
X110396290Y-65538288D01*
X110383664Y-65530720D01*
X110371841Y-65521952D01*
X110360934Y-65512066D01*
X110351048Y-65501159D01*
X110342280Y-65489336D01*
X110334712Y-65476710D01*
X110328418Y-65463403D01*
X110323459Y-65449543D01*
X110319882Y-65435264D01*
X110317722Y-65420703D01*
X110317000Y-65406000D01*
X110317000Y-63756000D01*
X110317722Y-63741297D01*
X110319882Y-63726736D01*
X110323459Y-63712457D01*
X110328418Y-63698597D01*
X110334712Y-63685290D01*
X110342280Y-63672664D01*
X110351048Y-63660841D01*
X110360934Y-63649934D01*
X110371841Y-63640048D01*
X110383664Y-63631280D01*
X110396290Y-63623712D01*
X110409597Y-63617418D01*
X110423457Y-63612459D01*
X110437736Y-63608882D01*
X110452297Y-63606722D01*
X110467000Y-63606000D01*
X110767000Y-63606000D01*
X110781703Y-63606722D01*
G37*
G36*
X109511703Y-63606722D02*
G01*
X109526264Y-63608882D01*
X109540543Y-63612459D01*
X109554403Y-63617418D01*
X109567710Y-63623712D01*
X109580336Y-63631280D01*
X109592159Y-63640048D01*
X109603066Y-63649934D01*
X109612952Y-63660841D01*
X109621720Y-63672664D01*
X109629288Y-63685290D01*
X109635582Y-63698597D01*
X109640541Y-63712457D01*
X109644118Y-63726736D01*
X109646278Y-63741297D01*
X109647000Y-63756000D01*
X109647000Y-65406000D01*
X109646278Y-65420703D01*
X109644118Y-65435264D01*
X109640541Y-65449543D01*
X109635582Y-65463403D01*
X109629288Y-65476710D01*
X109621720Y-65489336D01*
X109612952Y-65501159D01*
X109603066Y-65512066D01*
X109592159Y-65521952D01*
X109580336Y-65530720D01*
X109567710Y-65538288D01*
X109554403Y-65544582D01*
X109540543Y-65549541D01*
X109526264Y-65553118D01*
X109511703Y-65555278D01*
X109497000Y-65556000D01*
X109197000Y-65556000D01*
X109182297Y-65555278D01*
X109167736Y-65553118D01*
X109153457Y-65549541D01*
X109139597Y-65544582D01*
X109126290Y-65538288D01*
X109113664Y-65530720D01*
X109101841Y-65521952D01*
X109090934Y-65512066D01*
X109081048Y-65501159D01*
X109072280Y-65489336D01*
X109064712Y-65476710D01*
X109058418Y-65463403D01*
X109053459Y-65449543D01*
X109049882Y-65435264D01*
X109047722Y-65420703D01*
X109047000Y-65406000D01*
X109047000Y-63756000D01*
X109047722Y-63741297D01*
X109049882Y-63726736D01*
X109053459Y-63712457D01*
X109058418Y-63698597D01*
X109064712Y-63685290D01*
X109072280Y-63672664D01*
X109081048Y-63660841D01*
X109090934Y-63649934D01*
X109101841Y-63640048D01*
X109113664Y-63631280D01*
X109126290Y-63623712D01*
X109139597Y-63617418D01*
X109153457Y-63612459D01*
X109167736Y-63608882D01*
X109182297Y-63606722D01*
X109197000Y-63606000D01*
X109497000Y-63606000D01*
X109511703Y-63606722D01*
G37*
G36*
X108241703Y-63606722D02*
G01*
X108256264Y-63608882D01*
X108270543Y-63612459D01*
X108284403Y-63617418D01*
X108297710Y-63623712D01*
X108310336Y-63631280D01*
X108322159Y-63640048D01*
X108333066Y-63649934D01*
X108342952Y-63660841D01*
X108351720Y-63672664D01*
X108359288Y-63685290D01*
X108365582Y-63698597D01*
X108370541Y-63712457D01*
X108374118Y-63726736D01*
X108376278Y-63741297D01*
X108377000Y-63756000D01*
X108377000Y-65406000D01*
X108376278Y-65420703D01*
X108374118Y-65435264D01*
X108370541Y-65449543D01*
X108365582Y-65463403D01*
X108359288Y-65476710D01*
X108351720Y-65489336D01*
X108342952Y-65501159D01*
X108333066Y-65512066D01*
X108322159Y-65521952D01*
X108310336Y-65530720D01*
X108297710Y-65538288D01*
X108284403Y-65544582D01*
X108270543Y-65549541D01*
X108256264Y-65553118D01*
X108241703Y-65555278D01*
X108227000Y-65556000D01*
X107927000Y-65556000D01*
X107912297Y-65555278D01*
X107897736Y-65553118D01*
X107883457Y-65549541D01*
X107869597Y-65544582D01*
X107856290Y-65538288D01*
X107843664Y-65530720D01*
X107831841Y-65521952D01*
X107820934Y-65512066D01*
X107811048Y-65501159D01*
X107802280Y-65489336D01*
X107794712Y-65476710D01*
X107788418Y-65463403D01*
X107783459Y-65449543D01*
X107779882Y-65435264D01*
X107777722Y-65420703D01*
X107777000Y-65406000D01*
X107777000Y-63756000D01*
X107777722Y-63741297D01*
X107779882Y-63726736D01*
X107783459Y-63712457D01*
X107788418Y-63698597D01*
X107794712Y-63685290D01*
X107802280Y-63672664D01*
X107811048Y-63660841D01*
X107820934Y-63649934D01*
X107831841Y-63640048D01*
X107843664Y-63631280D01*
X107856290Y-63623712D01*
X107869597Y-63617418D01*
X107883457Y-63612459D01*
X107897736Y-63608882D01*
X107912297Y-63606722D01*
X107927000Y-63606000D01*
X108227000Y-63606000D01*
X108241703Y-63606722D01*
G37*
G36*
X106971703Y-63606722D02*
G01*
X106986264Y-63608882D01*
X107000543Y-63612459D01*
X107014403Y-63617418D01*
X107027710Y-63623712D01*
X107040336Y-63631280D01*
X107052159Y-63640048D01*
X107063066Y-63649934D01*
X107072952Y-63660841D01*
X107081720Y-63672664D01*
X107089288Y-63685290D01*
X107095582Y-63698597D01*
X107100541Y-63712457D01*
X107104118Y-63726736D01*
X107106278Y-63741297D01*
X107107000Y-63756000D01*
X107107000Y-65406000D01*
X107106278Y-65420703D01*
X107104118Y-65435264D01*
X107100541Y-65449543D01*
X107095582Y-65463403D01*
X107089288Y-65476710D01*
X107081720Y-65489336D01*
X107072952Y-65501159D01*
X107063066Y-65512066D01*
X107052159Y-65521952D01*
X107040336Y-65530720D01*
X107027710Y-65538288D01*
X107014403Y-65544582D01*
X107000543Y-65549541D01*
X106986264Y-65553118D01*
X106971703Y-65555278D01*
X106957000Y-65556000D01*
X106657000Y-65556000D01*
X106642297Y-65555278D01*
X106627736Y-65553118D01*
X106613457Y-65549541D01*
X106599597Y-65544582D01*
X106586290Y-65538288D01*
X106573664Y-65530720D01*
X106561841Y-65521952D01*
X106550934Y-65512066D01*
X106541048Y-65501159D01*
X106532280Y-65489336D01*
X106524712Y-65476710D01*
X106518418Y-65463403D01*
X106513459Y-65449543D01*
X106509882Y-65435264D01*
X106507722Y-65420703D01*
X106507000Y-65406000D01*
X106507000Y-63756000D01*
X106507722Y-63741297D01*
X106509882Y-63726736D01*
X106513459Y-63712457D01*
X106518418Y-63698597D01*
X106524712Y-63685290D01*
X106532280Y-63672664D01*
X106541048Y-63660841D01*
X106550934Y-63649934D01*
X106561841Y-63640048D01*
X106573664Y-63631280D01*
X106586290Y-63623712D01*
X106599597Y-63617418D01*
X106613457Y-63612459D01*
X106627736Y-63608882D01*
X106642297Y-63606722D01*
X106657000Y-63606000D01*
X106957000Y-63606000D01*
X106971703Y-63606722D01*
G37*
G36*
X144405779Y-64486144D02*
G01*
X144428834Y-64489563D01*
X144451443Y-64495227D01*
X144473387Y-64503079D01*
X144494457Y-64513044D01*
X144514448Y-64525026D01*
X144533168Y-64538910D01*
X144550438Y-64554562D01*
X144566090Y-64571832D01*
X144579974Y-64590552D01*
X144591956Y-64610543D01*
X144601921Y-64631613D01*
X144609773Y-64653557D01*
X144615437Y-64676166D01*
X144618856Y-64699221D01*
X144620000Y-64722500D01*
X144620000Y-65297500D01*
X144618856Y-65320779D01*
X144615437Y-65343834D01*
X144609773Y-65366443D01*
X144601921Y-65388387D01*
X144591956Y-65409457D01*
X144579974Y-65429448D01*
X144566090Y-65448168D01*
X144550438Y-65465438D01*
X144533168Y-65481090D01*
X144514448Y-65494974D01*
X144494457Y-65506956D01*
X144473387Y-65516921D01*
X144451443Y-65524773D01*
X144428834Y-65530437D01*
X144405779Y-65533856D01*
X144382500Y-65535000D01*
X143907500Y-65535000D01*
X143884221Y-65533856D01*
X143861166Y-65530437D01*
X143838557Y-65524773D01*
X143816613Y-65516921D01*
X143795543Y-65506956D01*
X143775552Y-65494974D01*
X143756832Y-65481090D01*
X143739562Y-65465438D01*
X143723910Y-65448168D01*
X143710026Y-65429448D01*
X143698044Y-65409457D01*
X143688079Y-65388387D01*
X143680227Y-65366443D01*
X143674563Y-65343834D01*
X143671144Y-65320779D01*
X143670000Y-65297500D01*
X143670000Y-64722500D01*
X143671144Y-64699221D01*
X143674563Y-64676166D01*
X143680227Y-64653557D01*
X143688079Y-64631613D01*
X143698044Y-64610543D01*
X143710026Y-64590552D01*
X143723910Y-64571832D01*
X143739562Y-64554562D01*
X143756832Y-64538910D01*
X143775552Y-64525026D01*
X143795543Y-64513044D01*
X143816613Y-64503079D01*
X143838557Y-64495227D01*
X143861166Y-64489563D01*
X143884221Y-64486144D01*
X143907500Y-64485000D01*
X144382500Y-64485000D01*
X144405779Y-64486144D01*
G37*
G36*
X144405779Y-62736144D02*
G01*
X144428834Y-62739563D01*
X144451443Y-62745227D01*
X144473387Y-62753079D01*
X144494457Y-62763044D01*
X144514448Y-62775026D01*
X144533168Y-62788910D01*
X144550438Y-62804562D01*
X144566090Y-62821832D01*
X144579974Y-62840552D01*
X144591956Y-62860543D01*
X144601921Y-62881613D01*
X144609773Y-62903557D01*
X144615437Y-62926166D01*
X144618856Y-62949221D01*
X144620000Y-62972500D01*
X144620000Y-63547500D01*
X144618856Y-63570779D01*
X144615437Y-63593834D01*
X144609773Y-63616443D01*
X144601921Y-63638387D01*
X144591956Y-63659457D01*
X144579974Y-63679448D01*
X144566090Y-63698168D01*
X144550438Y-63715438D01*
X144533168Y-63731090D01*
X144514448Y-63744974D01*
X144494457Y-63756956D01*
X144473387Y-63766921D01*
X144451443Y-63774773D01*
X144428834Y-63780437D01*
X144405779Y-63783856D01*
X144382500Y-63785000D01*
X143907500Y-63785000D01*
X143884221Y-63783856D01*
X143861166Y-63780437D01*
X143838557Y-63774773D01*
X143816613Y-63766921D01*
X143795543Y-63756956D01*
X143775552Y-63744974D01*
X143756832Y-63731090D01*
X143739562Y-63715438D01*
X143723910Y-63698168D01*
X143710026Y-63679448D01*
X143698044Y-63659457D01*
X143688079Y-63638387D01*
X143680227Y-63616443D01*
X143674563Y-63593834D01*
X143671144Y-63570779D01*
X143670000Y-63547500D01*
X143670000Y-62972500D01*
X143671144Y-62949221D01*
X143674563Y-62926166D01*
X143680227Y-62903557D01*
X143688079Y-62881613D01*
X143698044Y-62860543D01*
X143710026Y-62840552D01*
X143723910Y-62821832D01*
X143739562Y-62804562D01*
X143756832Y-62788910D01*
X143775552Y-62775026D01*
X143795543Y-62763044D01*
X143816613Y-62753079D01*
X143838557Y-62745227D01*
X143861166Y-62739563D01*
X143884221Y-62736144D01*
X143907500Y-62735000D01*
X144382500Y-62735000D01*
X144405779Y-62736144D01*
G37*
D11*
X149105000Y-59940000D03*
X149105000Y-60790000D03*
X149105000Y-59090000D03*
X146805000Y-59940000D03*
X146805000Y-60790000D03*
X146805000Y-59090000D03*
X147955000Y-59090000D03*
X147955000Y-60790000D03*
D12*
X149835000Y-57240000D03*
X146075000Y-57240000D03*
X148555000Y-57240000D03*
D13*
X148595000Y-62960000D03*
X149865000Y-62960000D03*
X147315000Y-62960000D03*
X146045000Y-62960000D03*
D12*
X147355000Y-57240000D03*
D11*
X147955000Y-59940000D03*
D14*
X138618000Y-84804000D03*
X136718000Y-84804000D03*
X137668000Y-82804000D03*
M02*
