G04 #@! TF.GenerationSoftware,KiCad,Pcbnew,5.1.5-52549c5~84~ubuntu18.04.1*
G04 #@! TF.CreationDate,2020-03-01T21:30:35-05:00*
G04 #@! TF.ProjectId,Port_Panel,506f7274-5f50-4616-9e65-6c2e6b696361,rev?*
G04 #@! TF.SameCoordinates,Original*
G04 #@! TF.FileFunction,Legend,Bot*
G04 #@! TF.FilePolarity,Positive*
%FSLAX46Y46*%
G04 Gerber Fmt 4.6, Leading zero omitted, Abs format (unit mm)*
G04 Created by KiCad (PCBNEW 5.1.5-52549c5~84~ubuntu18.04.1) date 2020-03-01 21:30:35*
%MOMM*%
%LPD*%
G04 APERTURE LIST*
%ADD10C,0.200000*%
%ADD11C,0.300000*%
%ADD12C,0.010000*%
%ADD13C,0.120000*%
%ADD14C,0.150000*%
G04 APERTURE END LIST*
D10*
X117890857Y-96142857D02*
X117319428Y-95742857D01*
X117890857Y-95457142D02*
X116690857Y-95457142D01*
X116690857Y-95914285D01*
X116748000Y-96028571D01*
X116805142Y-96085714D01*
X116919428Y-96142857D01*
X117090857Y-96142857D01*
X117205142Y-96085714D01*
X117262285Y-96028571D01*
X117319428Y-95914285D01*
X117319428Y-95457142D01*
X117890857Y-96657142D02*
X116690857Y-96657142D01*
X117890857Y-97228571D02*
X116690857Y-97228571D01*
X117890857Y-97914285D01*
X116690857Y-97914285D01*
X117262285Y-98485714D02*
X117262285Y-98885714D01*
X117890857Y-99057142D02*
X117890857Y-98485714D01*
X116690857Y-98485714D01*
X116690857Y-99057142D01*
X117890857Y-99571428D02*
X116690857Y-99571428D01*
X117262285Y-99571428D02*
X117262285Y-100257142D01*
X117890857Y-100257142D02*
X116690857Y-100257142D01*
X117548000Y-100771428D02*
X117548000Y-101342857D01*
X117890857Y-100657142D02*
X116690857Y-101057142D01*
X117890857Y-101457142D01*
X117890857Y-102542857D02*
X117319428Y-102142857D01*
X117890857Y-101857142D02*
X116690857Y-101857142D01*
X116690857Y-102314285D01*
X116748000Y-102428571D01*
X116805142Y-102485714D01*
X116919428Y-102542857D01*
X117090857Y-102542857D01*
X117205142Y-102485714D01*
X117262285Y-102428571D01*
X117319428Y-102314285D01*
X117319428Y-101857142D01*
X116690857Y-102885714D02*
X116690857Y-103571428D01*
X117890857Y-103228571D02*
X116690857Y-103228571D01*
X118005142Y-103685714D02*
X118005142Y-104600000D01*
X116690857Y-105114285D02*
X116690857Y-105342857D01*
X116748000Y-105457142D01*
X116862285Y-105571428D01*
X117090857Y-105628571D01*
X117490857Y-105628571D01*
X117719428Y-105571428D01*
X117833714Y-105457142D01*
X117890857Y-105342857D01*
X117890857Y-105114285D01*
X117833714Y-105000000D01*
X117719428Y-104885714D01*
X117490857Y-104828571D01*
X117090857Y-104828571D01*
X116862285Y-104885714D01*
X116748000Y-105000000D01*
X116690857Y-105114285D01*
X116690857Y-106142857D02*
X117662285Y-106142857D01*
X117776571Y-106200000D01*
X117833714Y-106257142D01*
X117890857Y-106371428D01*
X117890857Y-106600000D01*
X117833714Y-106714285D01*
X117776571Y-106771428D01*
X117662285Y-106828571D01*
X116690857Y-106828571D01*
X116690857Y-107228571D02*
X116690857Y-107914285D01*
X117890857Y-107571428D02*
X116690857Y-107571428D01*
X100618857Y-97390285D02*
X99418857Y-97390285D01*
X100618857Y-97961714D02*
X99418857Y-97961714D01*
X100276000Y-98361714D01*
X99418857Y-98761714D01*
X100618857Y-98761714D01*
X99418857Y-99333142D02*
X100390285Y-99333142D01*
X100504571Y-99390285D01*
X100561714Y-99447428D01*
X100618857Y-99561714D01*
X100618857Y-99790285D01*
X100561714Y-99904571D01*
X100504571Y-99961714D01*
X100390285Y-100018857D01*
X99418857Y-100018857D01*
X100733142Y-100304571D02*
X100733142Y-101218857D01*
X100618857Y-101504571D02*
X99418857Y-101504571D01*
X100618857Y-102076000D02*
X99418857Y-102076000D01*
X100618857Y-102761714D01*
X99418857Y-102761714D01*
D11*
X106850571Y-72759714D02*
X105350571Y-72759714D01*
X106850571Y-73474000D02*
X105350571Y-73474000D01*
X106422000Y-73974000D01*
X105350571Y-74474000D01*
X106850571Y-74474000D01*
X105350571Y-75188285D02*
X106564857Y-75188285D01*
X106707714Y-75259714D01*
X106779142Y-75331142D01*
X106850571Y-75474000D01*
X106850571Y-75759714D01*
X106779142Y-75902571D01*
X106707714Y-75974000D01*
X106564857Y-76045428D01*
X105350571Y-76045428D01*
X106993428Y-76402571D02*
X106993428Y-77545428D01*
X105350571Y-77902571D02*
X106564857Y-77902571D01*
X106707714Y-77974000D01*
X106779142Y-78045428D01*
X106850571Y-78188285D01*
X106850571Y-78474000D01*
X106779142Y-78616857D01*
X106707714Y-78688285D01*
X106564857Y-78759714D01*
X105350571Y-78759714D01*
X106422000Y-79402571D02*
X106422000Y-80116857D01*
X106850571Y-79259714D02*
X105350571Y-79759714D01*
X106850571Y-80259714D01*
X106850571Y-81616857D02*
X106136285Y-81116857D01*
X106850571Y-80759714D02*
X105350571Y-80759714D01*
X105350571Y-81331142D01*
X105422000Y-81474000D01*
X105493428Y-81545428D01*
X105636285Y-81616857D01*
X105850571Y-81616857D01*
X105993428Y-81545428D01*
X106064857Y-81474000D01*
X106136285Y-81331142D01*
X106136285Y-80759714D01*
X105350571Y-82045428D02*
X105350571Y-82902571D01*
X106850571Y-82474000D02*
X105350571Y-82474000D01*
X127189714Y-73044857D02*
X127689714Y-73044857D01*
X127689714Y-73830571D02*
X127689714Y-72330571D01*
X126975428Y-72330571D01*
X125546857Y-73830571D02*
X126046857Y-73116285D01*
X126404000Y-73830571D02*
X126404000Y-72330571D01*
X125832571Y-72330571D01*
X125689714Y-72402000D01*
X125618285Y-72473428D01*
X125546857Y-72616285D01*
X125546857Y-72830571D01*
X125618285Y-72973428D01*
X125689714Y-73044857D01*
X125832571Y-73116285D01*
X126404000Y-73116285D01*
X124618285Y-72330571D02*
X124332571Y-72330571D01*
X124189714Y-72402000D01*
X124046857Y-72544857D01*
X123975428Y-72830571D01*
X123975428Y-73330571D01*
X124046857Y-73616285D01*
X124189714Y-73759142D01*
X124332571Y-73830571D01*
X124618285Y-73830571D01*
X124761142Y-73759142D01*
X124904000Y-73616285D01*
X124975428Y-73330571D01*
X124975428Y-72830571D01*
X124904000Y-72544857D01*
X124761142Y-72402000D01*
X124618285Y-72330571D01*
X123332571Y-73830571D02*
X123332571Y-72330571D01*
X122832571Y-73402000D01*
X122332571Y-72330571D01*
X122332571Y-73830571D01*
X119761142Y-73830571D02*
X120475428Y-73830571D01*
X120475428Y-72330571D01*
X119475428Y-72330571D02*
X118975428Y-73830571D01*
X118475428Y-72330571D01*
X117975428Y-73830571D02*
X117975428Y-72330571D01*
X117404000Y-72330571D01*
X117261142Y-72402000D01*
X117189714Y-72473428D01*
X117118285Y-72616285D01*
X117118285Y-72830571D01*
X117189714Y-72973428D01*
X117261142Y-73044857D01*
X117404000Y-73116285D01*
X117975428Y-73116285D01*
X116475428Y-73830571D02*
X116475428Y-72330571D01*
X116118285Y-72330571D01*
X115904000Y-72402000D01*
X115761142Y-72544857D01*
X115689714Y-72687714D01*
X115618285Y-72973428D01*
X115618285Y-73187714D01*
X115689714Y-73473428D01*
X115761142Y-73616285D01*
X115904000Y-73759142D01*
X116118285Y-73830571D01*
X116475428Y-73830571D01*
X114975428Y-72330571D02*
X114975428Y-73544857D01*
X114904000Y-73687714D01*
X114832571Y-73759142D01*
X114689714Y-73830571D01*
X114404000Y-73830571D01*
X114261142Y-73759142D01*
X114189714Y-73687714D01*
X114118285Y-73544857D01*
X114118285Y-72330571D01*
X144739428Y-71520857D02*
X144525142Y-71592285D01*
X144453714Y-71663714D01*
X144382285Y-71806571D01*
X144382285Y-72020857D01*
X144453714Y-72163714D01*
X144525142Y-72235142D01*
X144668000Y-72306571D01*
X145239428Y-72306571D01*
X145239428Y-70806571D01*
X144739428Y-70806571D01*
X144596571Y-70878000D01*
X144525142Y-70949428D01*
X144453714Y-71092285D01*
X144453714Y-71235142D01*
X144525142Y-71378000D01*
X144596571Y-71449428D01*
X144739428Y-71520857D01*
X145239428Y-71520857D01*
X143739428Y-72306571D02*
X143739428Y-70806571D01*
X143239428Y-71878000D01*
X142739428Y-70806571D01*
X142739428Y-72306571D01*
X142096571Y-72235142D02*
X141882285Y-72306571D01*
X141525142Y-72306571D01*
X141382285Y-72235142D01*
X141310857Y-72163714D01*
X141239428Y-72020857D01*
X141239428Y-71878000D01*
X141310857Y-71735142D01*
X141382285Y-71663714D01*
X141525142Y-71592285D01*
X141810857Y-71520857D01*
X141953714Y-71449428D01*
X142025142Y-71378000D01*
X142096571Y-71235142D01*
X142096571Y-71092285D01*
X142025142Y-70949428D01*
X141953714Y-70878000D01*
X141810857Y-70806571D01*
X141453714Y-70806571D01*
X141239428Y-70878000D01*
X138596571Y-72163714D02*
X138668000Y-72235142D01*
X138882285Y-72306571D01*
X139025142Y-72306571D01*
X139239428Y-72235142D01*
X139382285Y-72092285D01*
X139453714Y-71949428D01*
X139525142Y-71663714D01*
X139525142Y-71449428D01*
X139453714Y-71163714D01*
X139382285Y-71020857D01*
X139239428Y-70878000D01*
X139025142Y-70806571D01*
X138882285Y-70806571D01*
X138668000Y-70878000D01*
X138596571Y-70949428D01*
X137668000Y-70806571D02*
X137382285Y-70806571D01*
X137239428Y-70878000D01*
X137096571Y-71020857D01*
X137025142Y-71306571D01*
X137025142Y-71806571D01*
X137096571Y-72092285D01*
X137239428Y-72235142D01*
X137382285Y-72306571D01*
X137668000Y-72306571D01*
X137810857Y-72235142D01*
X137953714Y-72092285D01*
X138025142Y-71806571D01*
X138025142Y-71306571D01*
X137953714Y-71020857D01*
X137810857Y-70878000D01*
X137668000Y-70806571D01*
X136382285Y-72306571D02*
X136382285Y-70806571D01*
X135525142Y-72306571D01*
X135525142Y-70806571D01*
X135025142Y-70806571D02*
X134168000Y-70806571D01*
X134596571Y-72306571D02*
X134596571Y-70806571D01*
X132810857Y-72306571D02*
X133310857Y-71592285D01*
X133668000Y-72306571D02*
X133668000Y-70806571D01*
X133096571Y-70806571D01*
X132953714Y-70878000D01*
X132882285Y-70949428D01*
X132810857Y-71092285D01*
X132810857Y-71306571D01*
X132882285Y-71449428D01*
X132953714Y-71520857D01*
X133096571Y-71592285D01*
X133668000Y-71592285D01*
X131882285Y-70806571D02*
X131596571Y-70806571D01*
X131453714Y-70878000D01*
X131310857Y-71020857D01*
X131239428Y-71306571D01*
X131239428Y-71806571D01*
X131310857Y-72092285D01*
X131453714Y-72235142D01*
X131596571Y-72306571D01*
X131882285Y-72306571D01*
X132025142Y-72235142D01*
X132168000Y-72092285D01*
X132239428Y-71806571D01*
X132239428Y-71306571D01*
X132168000Y-71020857D01*
X132025142Y-70878000D01*
X131882285Y-70806571D01*
X129882285Y-72306571D02*
X130596571Y-72306571D01*
X130596571Y-70806571D01*
X146062000Y-85217142D02*
X145990571Y-85074285D01*
X145990571Y-84860000D01*
X146062000Y-84645714D01*
X146204857Y-84502857D01*
X146347714Y-84431428D01*
X146633428Y-84360000D01*
X146847714Y-84360000D01*
X147133428Y-84431428D01*
X147276285Y-84502857D01*
X147419142Y-84645714D01*
X147490571Y-84860000D01*
X147490571Y-85002857D01*
X147419142Y-85217142D01*
X147347714Y-85288571D01*
X146847714Y-85288571D01*
X146847714Y-85002857D01*
X147490571Y-85931428D02*
X145990571Y-85931428D01*
X147490571Y-86788571D01*
X145990571Y-86788571D01*
X147490571Y-87502857D02*
X145990571Y-87502857D01*
X145990571Y-87860000D01*
X146062000Y-88074285D01*
X146204857Y-88217142D01*
X146347714Y-88288571D01*
X146633428Y-88360000D01*
X146847714Y-88360000D01*
X147133428Y-88288571D01*
X147276285Y-88217142D01*
X147419142Y-88074285D01*
X147490571Y-87860000D01*
X147490571Y-87502857D01*
X152570571Y-85360000D02*
X151856285Y-84860000D01*
X152570571Y-84502857D02*
X151070571Y-84502857D01*
X151070571Y-85074285D01*
X151142000Y-85217142D01*
X151213428Y-85288571D01*
X151356285Y-85360000D01*
X151570571Y-85360000D01*
X151713428Y-85288571D01*
X151784857Y-85217142D01*
X151856285Y-85074285D01*
X151856285Y-84502857D01*
X151070571Y-85860000D02*
X152570571Y-86860000D01*
X151070571Y-86860000D02*
X152570571Y-85860000D01*
X152570571Y-87431428D02*
X151070571Y-87431428D01*
X151070571Y-87788571D01*
X151142000Y-88002857D01*
X151284857Y-88145714D01*
X151427714Y-88217142D01*
X151713428Y-88288571D01*
X151927714Y-88288571D01*
X152213428Y-88217142D01*
X152356285Y-88145714D01*
X152499142Y-88002857D01*
X152570571Y-87788571D01*
X152570571Y-87431428D01*
X148530571Y-84467142D02*
X148530571Y-85324285D01*
X150030571Y-84895714D02*
X148530571Y-84895714D01*
X148530571Y-85681428D02*
X150030571Y-86681428D01*
X148530571Y-86681428D02*
X150030571Y-85681428D01*
X150030571Y-87252857D02*
X148530571Y-87252857D01*
X148530571Y-87610000D01*
X148602000Y-87824285D01*
X148744857Y-87967142D01*
X148887714Y-88038571D01*
X149173428Y-88110000D01*
X149387714Y-88110000D01*
X149673428Y-88038571D01*
X149816285Y-87967142D01*
X149959142Y-87824285D01*
X150030571Y-87610000D01*
X150030571Y-87252857D01*
X139718571Y-41308571D02*
X139718571Y-39808571D01*
X139147142Y-39808571D01*
X139004285Y-39880000D01*
X138932857Y-39951428D01*
X138861428Y-40094285D01*
X138861428Y-40308571D01*
X138932857Y-40451428D01*
X139004285Y-40522857D01*
X139147142Y-40594285D01*
X139718571Y-40594285D01*
X138004285Y-41308571D02*
X138147142Y-41237142D01*
X138218571Y-41165714D01*
X138290000Y-41022857D01*
X138290000Y-40594285D01*
X138218571Y-40451428D01*
X138147142Y-40380000D01*
X138004285Y-40308571D01*
X137790000Y-40308571D01*
X137647142Y-40380000D01*
X137575714Y-40451428D01*
X137504285Y-40594285D01*
X137504285Y-41022857D01*
X137575714Y-41165714D01*
X137647142Y-41237142D01*
X137790000Y-41308571D01*
X138004285Y-41308571D01*
X136861428Y-41308571D02*
X136861428Y-40308571D01*
X136861428Y-40594285D02*
X136790000Y-40451428D01*
X136718571Y-40380000D01*
X136575714Y-40308571D01*
X136432857Y-40308571D01*
X136147142Y-40308571D02*
X135575714Y-40308571D01*
X135932857Y-39808571D02*
X135932857Y-41094285D01*
X135861428Y-41237142D01*
X135718571Y-41308571D01*
X135575714Y-41308571D01*
X133932857Y-41308571D02*
X133932857Y-39808571D01*
X133361428Y-39808571D01*
X133218571Y-39880000D01*
X133147142Y-39951428D01*
X133075714Y-40094285D01*
X133075714Y-40308571D01*
X133147142Y-40451428D01*
X133218571Y-40522857D01*
X133361428Y-40594285D01*
X133932857Y-40594285D01*
X131790000Y-41308571D02*
X131790000Y-40522857D01*
X131861428Y-40380000D01*
X132004285Y-40308571D01*
X132290000Y-40308571D01*
X132432857Y-40380000D01*
X131790000Y-41237142D02*
X131932857Y-41308571D01*
X132290000Y-41308571D01*
X132432857Y-41237142D01*
X132504285Y-41094285D01*
X132504285Y-40951428D01*
X132432857Y-40808571D01*
X132290000Y-40737142D01*
X131932857Y-40737142D01*
X131790000Y-40665714D01*
X131147142Y-41237142D02*
X131004285Y-41308571D01*
X130718571Y-41308571D01*
X130575714Y-41237142D01*
X130504285Y-41094285D01*
X130504285Y-41022857D01*
X130575714Y-40880000D01*
X130718571Y-40808571D01*
X130932857Y-40808571D01*
X131075714Y-40737142D01*
X131147142Y-40594285D01*
X131147142Y-40522857D01*
X131075714Y-40380000D01*
X130932857Y-40308571D01*
X130718571Y-40308571D01*
X130575714Y-40380000D01*
X129932857Y-41237142D02*
X129790000Y-41308571D01*
X129504285Y-41308571D01*
X129361428Y-41237142D01*
X129290000Y-41094285D01*
X129290000Y-41022857D01*
X129361428Y-40880000D01*
X129504285Y-40808571D01*
X129718571Y-40808571D01*
X129861428Y-40737142D01*
X129932857Y-40594285D01*
X129932857Y-40522857D01*
X129861428Y-40380000D01*
X129718571Y-40308571D01*
X129504285Y-40308571D01*
X129361428Y-40380000D01*
X127718571Y-39808571D02*
X126861428Y-39808571D01*
X127290000Y-41308571D02*
X127290000Y-39808571D01*
X126361428Y-41308571D02*
X126361428Y-39808571D01*
X125718571Y-41308571D02*
X125718571Y-40522857D01*
X125790000Y-40380000D01*
X125932857Y-40308571D01*
X126147142Y-40308571D01*
X126290000Y-40380000D01*
X126361428Y-40451428D01*
X125004285Y-41308571D02*
X125004285Y-40308571D01*
X125004285Y-40594285D02*
X124932857Y-40451428D01*
X124861428Y-40380000D01*
X124718571Y-40308571D01*
X124575714Y-40308571D01*
X123861428Y-41308571D02*
X124004285Y-41237142D01*
X124075714Y-41165714D01*
X124147142Y-41022857D01*
X124147142Y-40594285D01*
X124075714Y-40451428D01*
X124004285Y-40380000D01*
X123861428Y-40308571D01*
X123647142Y-40308571D01*
X123504285Y-40380000D01*
X123432857Y-40451428D01*
X123361428Y-40594285D01*
X123361428Y-41022857D01*
X123432857Y-41165714D01*
X123504285Y-41237142D01*
X123647142Y-41308571D01*
X123861428Y-41308571D01*
X122075714Y-40308571D02*
X122075714Y-41308571D01*
X122718571Y-40308571D02*
X122718571Y-41094285D01*
X122647142Y-41237142D01*
X122504285Y-41308571D01*
X122290000Y-41308571D01*
X122147142Y-41237142D01*
X122075714Y-41165714D01*
X120718571Y-40308571D02*
X120718571Y-41522857D01*
X120790000Y-41665714D01*
X120861428Y-41737142D01*
X121004285Y-41808571D01*
X121218571Y-41808571D01*
X121361428Y-41737142D01*
X120718571Y-41237142D02*
X120861428Y-41308571D01*
X121147142Y-41308571D01*
X121290000Y-41237142D01*
X121361428Y-41165714D01*
X121432857Y-41022857D01*
X121432857Y-40594285D01*
X121361428Y-40451428D01*
X121290000Y-40380000D01*
X121147142Y-40308571D01*
X120861428Y-40308571D01*
X120718571Y-40380000D01*
X120004285Y-41308571D02*
X120004285Y-39808571D01*
X119361428Y-41308571D02*
X119361428Y-40522857D01*
X119432857Y-40380000D01*
X119575714Y-40308571D01*
X119790000Y-40308571D01*
X119932857Y-40380000D01*
X120004285Y-40451428D01*
X134397142Y-42430000D02*
X134540000Y-42358571D01*
X134754285Y-42358571D01*
X134968571Y-42430000D01*
X135111428Y-42572857D01*
X135182857Y-42715714D01*
X135254285Y-43001428D01*
X135254285Y-43215714D01*
X135182857Y-43501428D01*
X135111428Y-43644285D01*
X134968571Y-43787142D01*
X134754285Y-43858571D01*
X134611428Y-43858571D01*
X134397142Y-43787142D01*
X134325714Y-43715714D01*
X134325714Y-43215714D01*
X134611428Y-43215714D01*
X133682857Y-43715714D02*
X133611428Y-43787142D01*
X133682857Y-43858571D01*
X133754285Y-43787142D01*
X133682857Y-43715714D01*
X133682857Y-43858571D01*
X133040000Y-43787142D02*
X132825714Y-43858571D01*
X132468571Y-43858571D01*
X132325714Y-43787142D01*
X132254285Y-43715714D01*
X132182857Y-43572857D01*
X132182857Y-43430000D01*
X132254285Y-43287142D01*
X132325714Y-43215714D01*
X132468571Y-43144285D01*
X132754285Y-43072857D01*
X132897142Y-43001428D01*
X132968571Y-42930000D01*
X133040000Y-42787142D01*
X133040000Y-42644285D01*
X132968571Y-42501428D01*
X132897142Y-42430000D01*
X132754285Y-42358571D01*
X132397142Y-42358571D01*
X132182857Y-42430000D01*
X131540000Y-42858571D02*
X131540000Y-44358571D01*
X131540000Y-42930000D02*
X131397142Y-42858571D01*
X131111428Y-42858571D01*
X130968571Y-42930000D01*
X130897142Y-43001428D01*
X130825714Y-43144285D01*
X130825714Y-43572857D01*
X130897142Y-43715714D01*
X130968571Y-43787142D01*
X131111428Y-43858571D01*
X131397142Y-43858571D01*
X131540000Y-43787142D01*
X129611428Y-43787142D02*
X129754285Y-43858571D01*
X130040000Y-43858571D01*
X130182857Y-43787142D01*
X130254285Y-43644285D01*
X130254285Y-43072857D01*
X130182857Y-42930000D01*
X130040000Y-42858571D01*
X129754285Y-42858571D01*
X129611428Y-42930000D01*
X129540000Y-43072857D01*
X129540000Y-43215714D01*
X130254285Y-43358571D01*
X128254285Y-43858571D02*
X128254285Y-43072857D01*
X128325714Y-42930000D01*
X128468571Y-42858571D01*
X128754285Y-42858571D01*
X128897142Y-42930000D01*
X128254285Y-43787142D02*
X128397142Y-43858571D01*
X128754285Y-43858571D01*
X128897142Y-43787142D01*
X128968571Y-43644285D01*
X128968571Y-43501428D01*
X128897142Y-43358571D01*
X128754285Y-43287142D01*
X128397142Y-43287142D01*
X128254285Y-43215714D01*
X127540000Y-43858571D02*
X127540000Y-42858571D01*
X127540000Y-43144285D02*
X127468571Y-43001428D01*
X127397142Y-42930000D01*
X127254285Y-42858571D01*
X127111428Y-42858571D01*
X126611428Y-43858571D02*
X126611428Y-42858571D01*
X126611428Y-42358571D02*
X126682857Y-42430000D01*
X126611428Y-42501428D01*
X126540000Y-42430000D01*
X126611428Y-42358571D01*
X126611428Y-42501428D01*
X125897142Y-42858571D02*
X125897142Y-43858571D01*
X125897142Y-43001428D02*
X125825714Y-42930000D01*
X125682857Y-42858571D01*
X125468571Y-42858571D01*
X125325714Y-42930000D01*
X125254285Y-43072857D01*
X125254285Y-43858571D01*
X123897142Y-42858571D02*
X123897142Y-44072857D01*
X123968571Y-44215714D01*
X124040000Y-44287142D01*
X124182857Y-44358571D01*
X124397142Y-44358571D01*
X124540000Y-44287142D01*
X123897142Y-43787142D02*
X124040000Y-43858571D01*
X124325714Y-43858571D01*
X124468571Y-43787142D01*
X124540000Y-43715714D01*
X124611428Y-43572857D01*
X124611428Y-43144285D01*
X124540000Y-43001428D01*
X124468571Y-42930000D01*
X124325714Y-42858571D01*
X124040000Y-42858571D01*
X123897142Y-42930000D01*
X133897142Y-45051428D02*
X133825714Y-44980000D01*
X133682857Y-44908571D01*
X133325714Y-44908571D01*
X133182857Y-44980000D01*
X133111428Y-45051428D01*
X133040000Y-45194285D01*
X133040000Y-45337142D01*
X133111428Y-45551428D01*
X133968571Y-46408571D01*
X133040000Y-46408571D01*
X132111428Y-44908571D02*
X131968571Y-44908571D01*
X131825714Y-44980000D01*
X131754285Y-45051428D01*
X131682857Y-45194285D01*
X131611428Y-45480000D01*
X131611428Y-45837142D01*
X131682857Y-46122857D01*
X131754285Y-46265714D01*
X131825714Y-46337142D01*
X131968571Y-46408571D01*
X132111428Y-46408571D01*
X132254285Y-46337142D01*
X132325714Y-46265714D01*
X132397142Y-46122857D01*
X132468571Y-45837142D01*
X132468571Y-45480000D01*
X132397142Y-45194285D01*
X132325714Y-45051428D01*
X132254285Y-44980000D01*
X132111428Y-44908571D01*
X130968571Y-46265714D02*
X130897142Y-46337142D01*
X130968571Y-46408571D01*
X131040000Y-46337142D01*
X130968571Y-46265714D01*
X130968571Y-46408571D01*
X129968571Y-44908571D02*
X129825714Y-44908571D01*
X129682857Y-44980000D01*
X129611428Y-45051428D01*
X129540000Y-45194285D01*
X129468571Y-45480000D01*
X129468571Y-45837142D01*
X129540000Y-46122857D01*
X129611428Y-46265714D01*
X129682857Y-46337142D01*
X129825714Y-46408571D01*
X129968571Y-46408571D01*
X130111428Y-46337142D01*
X130182857Y-46265714D01*
X130254285Y-46122857D01*
X130325714Y-45837142D01*
X130325714Y-45480000D01*
X130254285Y-45194285D01*
X130182857Y-45051428D01*
X130111428Y-44980000D01*
X129968571Y-44908571D01*
X128897142Y-45051428D02*
X128825714Y-44980000D01*
X128682857Y-44908571D01*
X128325714Y-44908571D01*
X128182857Y-44980000D01*
X128111428Y-45051428D01*
X128040000Y-45194285D01*
X128040000Y-45337142D01*
X128111428Y-45551428D01*
X128968571Y-46408571D01*
X128040000Y-46408571D01*
X127468571Y-45051428D02*
X127397142Y-44980000D01*
X127254285Y-44908571D01*
X126897142Y-44908571D01*
X126754285Y-44980000D01*
X126682857Y-45051428D01*
X126611428Y-45194285D01*
X126611428Y-45337142D01*
X126682857Y-45551428D01*
X127540000Y-46408571D01*
X126611428Y-46408571D01*
X125754285Y-45551428D02*
X125897142Y-45480000D01*
X125968571Y-45408571D01*
X126040000Y-45265714D01*
X126040000Y-45194285D01*
X125968571Y-45051428D01*
X125897142Y-44980000D01*
X125754285Y-44908571D01*
X125468571Y-44908571D01*
X125325714Y-44980000D01*
X125254285Y-45051428D01*
X125182857Y-45194285D01*
X125182857Y-45265714D01*
X125254285Y-45408571D01*
X125325714Y-45480000D01*
X125468571Y-45551428D01*
X125754285Y-45551428D01*
X125897142Y-45622857D01*
X125968571Y-45694285D01*
X126040000Y-45837142D01*
X126040000Y-46122857D01*
X125968571Y-46265714D01*
X125897142Y-46337142D01*
X125754285Y-46408571D01*
X125468571Y-46408571D01*
X125325714Y-46337142D01*
X125254285Y-46265714D01*
X125182857Y-46122857D01*
X125182857Y-45837142D01*
X125254285Y-45694285D01*
X125325714Y-45622857D01*
X125468571Y-45551428D01*
D12*
G36*
X158207708Y-40923394D02*
G01*
X157577962Y-41552412D01*
X157577962Y-44702592D01*
X158890668Y-46013934D01*
X160061984Y-44841096D01*
X160061984Y-44558625D01*
X159187328Y-44558625D01*
X159075013Y-44674504D01*
X158962699Y-44790384D01*
X158725151Y-44554656D01*
X158487603Y-44318929D01*
X158487603Y-41971663D01*
X158837466Y-41623113D01*
X159187328Y-41274564D01*
X159187328Y-44558625D01*
X160061984Y-44558625D01*
X160061984Y-41517405D01*
X159449719Y-40905890D01*
X158837455Y-40294376D01*
X158207708Y-40923394D01*
G37*
X158207708Y-40923394D02*
X157577962Y-41552412D01*
X157577962Y-44702592D01*
X158890668Y-46013934D01*
X160061984Y-44841096D01*
X160061984Y-44558625D01*
X159187328Y-44558625D01*
X159075013Y-44674504D01*
X158962699Y-44790384D01*
X158725151Y-44554656D01*
X158487603Y-44318929D01*
X158487603Y-41971663D01*
X158837466Y-41623113D01*
X159187328Y-41274564D01*
X159187328Y-44558625D01*
X160061984Y-44558625D01*
X160061984Y-41517405D01*
X159449719Y-40905890D01*
X158837455Y-40294376D01*
X158207708Y-40923394D01*
G36*
X161014906Y-40810121D02*
G01*
X160516805Y-41309113D01*
X160516805Y-42216495D01*
X161127643Y-42830177D01*
X160804731Y-43154437D01*
X160481818Y-43478698D01*
X160481818Y-44839646D01*
X160298834Y-45024931D01*
X160115851Y-45210217D01*
X160919904Y-46014270D01*
X161704688Y-45226694D01*
X161532096Y-45034270D01*
X161359503Y-44841846D01*
X161357989Y-44386428D01*
X161356474Y-43931011D01*
X161741322Y-43547356D01*
X162126171Y-43163700D01*
X162126171Y-44879463D01*
X161950854Y-45052144D01*
X161775536Y-45224825D01*
X162168947Y-45619355D01*
X162303821Y-45753260D01*
X162421657Y-45867693D01*
X162513604Y-45954262D01*
X162570816Y-46004577D01*
X162584977Y-46013884D01*
X162615622Y-45989858D01*
X162685574Y-45923504D01*
X162786144Y-45823412D01*
X162908642Y-45698171D01*
X162990490Y-45613024D01*
X163373382Y-45212164D01*
X163187104Y-45028200D01*
X163000827Y-44844236D01*
X163000827Y-42707343D01*
X162196143Y-42707343D01*
X161750241Y-42261440D01*
X161304338Y-41815537D01*
X162196143Y-40923732D01*
X162196143Y-42707343D01*
X163000827Y-42707343D01*
X163000827Y-41415225D01*
X163201121Y-41212818D01*
X163401415Y-41010412D01*
X163053086Y-40660771D01*
X162704756Y-40311130D01*
X161513007Y-40311130D01*
X161014906Y-40810121D01*
G37*
X161014906Y-40810121D02*
X160516805Y-41309113D01*
X160516805Y-42216495D01*
X161127643Y-42830177D01*
X160804731Y-43154437D01*
X160481818Y-43478698D01*
X160481818Y-44839646D01*
X160298834Y-45024931D01*
X160115851Y-45210217D01*
X160919904Y-46014270D01*
X161704688Y-45226694D01*
X161532096Y-45034270D01*
X161359503Y-44841846D01*
X161357989Y-44386428D01*
X161356474Y-43931011D01*
X161741322Y-43547356D01*
X162126171Y-43163700D01*
X162126171Y-44879463D01*
X161950854Y-45052144D01*
X161775536Y-45224825D01*
X162168947Y-45619355D01*
X162303821Y-45753260D01*
X162421657Y-45867693D01*
X162513604Y-45954262D01*
X162570816Y-46004577D01*
X162584977Y-46013884D01*
X162615622Y-45989858D01*
X162685574Y-45923504D01*
X162786144Y-45823412D01*
X162908642Y-45698171D01*
X162990490Y-45613024D01*
X163373382Y-45212164D01*
X163187104Y-45028200D01*
X163000827Y-44844236D01*
X163000827Y-42707343D01*
X162196143Y-42707343D01*
X161750241Y-42261440D01*
X161304338Y-41815537D01*
X162196143Y-40923732D01*
X162196143Y-42707343D01*
X163000827Y-42707343D01*
X163000827Y-41415225D01*
X163201121Y-41212818D01*
X163401415Y-41010412D01*
X163053086Y-40660771D01*
X162704756Y-40311130D01*
X161513007Y-40311130D01*
X161014906Y-40810121D01*
G36*
X167226864Y-40965679D02*
G01*
X166587961Y-41605283D01*
X166919235Y-41937940D01*
X167250508Y-42270597D01*
X167732141Y-41789886D01*
X168213774Y-41309174D01*
X168213774Y-42763091D01*
X167549463Y-42752882D01*
X166885151Y-42742672D01*
X167312781Y-43171254D01*
X167740410Y-43599835D01*
X168213774Y-43599835D01*
X168213774Y-44610874D01*
X168089067Y-44705994D01*
X167964359Y-44801113D01*
X167607589Y-44445558D01*
X167250820Y-44090002D01*
X166935197Y-44405625D01*
X166619575Y-44721248D01*
X167269155Y-45367566D01*
X167443660Y-45540587D01*
X167601708Y-45696125D01*
X167736615Y-45827697D01*
X167841696Y-45928821D01*
X167910268Y-45993012D01*
X167935454Y-46013884D01*
X167963865Y-45990205D01*
X168034415Y-45923800D01*
X168139961Y-45821616D01*
X168273361Y-45690602D01*
X168427474Y-45537704D01*
X168520301Y-45444972D01*
X169088430Y-44876060D01*
X169088430Y-41555604D01*
X168477098Y-40940840D01*
X167865766Y-40326075D01*
X167226864Y-40965679D01*
G37*
X167226864Y-40965679D02*
X166587961Y-41605283D01*
X166919235Y-41937940D01*
X167250508Y-42270597D01*
X167732141Y-41789886D01*
X168213774Y-41309174D01*
X168213774Y-42763091D01*
X167549463Y-42752882D01*
X166885151Y-42742672D01*
X167312781Y-43171254D01*
X167740410Y-43599835D01*
X168213774Y-43599835D01*
X168213774Y-44610874D01*
X168089067Y-44705994D01*
X167964359Y-44801113D01*
X167607589Y-44445558D01*
X167250820Y-44090002D01*
X166935197Y-44405625D01*
X166619575Y-44721248D01*
X167269155Y-45367566D01*
X167443660Y-45540587D01*
X167601708Y-45696125D01*
X167736615Y-45827697D01*
X167841696Y-45928821D01*
X167910268Y-45993012D01*
X167935454Y-46013884D01*
X167963865Y-45990205D01*
X168034415Y-45923800D01*
X168139961Y-45821616D01*
X168273361Y-45690602D01*
X168427474Y-45537704D01*
X168520301Y-45444972D01*
X169088430Y-44876060D01*
X169088430Y-41555604D01*
X168477098Y-40940840D01*
X167865766Y-40326075D01*
X167226864Y-40965679D01*
G36*
X170321339Y-40914988D02*
G01*
X169718182Y-41518884D01*
X169718182Y-44839646D01*
X169535198Y-45024931D01*
X169352214Y-45210217D01*
X169754241Y-45612243D01*
X170156267Y-46014270D01*
X170557346Y-45612050D01*
X170958424Y-45209830D01*
X170592838Y-44839646D01*
X170592838Y-44124628D01*
X171362535Y-44124628D01*
X171362535Y-44839646D01*
X171179551Y-45024931D01*
X170996567Y-45210217D01*
X171800620Y-46014270D01*
X172602776Y-45209830D01*
X172419984Y-45024738D01*
X172237190Y-44839646D01*
X172237190Y-43214986D01*
X171362535Y-43214986D01*
X170592838Y-43214986D01*
X170592838Y-42075990D01*
X170975913Y-41674620D01*
X171358989Y-41273251D01*
X171360762Y-42244119D01*
X171362535Y-43214986D01*
X172237190Y-43214986D01*
X172237190Y-41622422D01*
X171580843Y-40966757D01*
X170924495Y-40311091D01*
X170321339Y-40914988D01*
G37*
X170321339Y-40914988D02*
X169718182Y-41518884D01*
X169718182Y-44839646D01*
X169535198Y-45024931D01*
X169352214Y-45210217D01*
X169754241Y-45612243D01*
X170156267Y-46014270D01*
X170557346Y-45612050D01*
X170958424Y-45209830D01*
X170592838Y-44839646D01*
X170592838Y-44124628D01*
X171362535Y-44124628D01*
X171362535Y-44839646D01*
X171179551Y-45024931D01*
X170996567Y-45210217D01*
X171800620Y-46014270D01*
X172602776Y-45209830D01*
X172419984Y-45024738D01*
X172237190Y-44839646D01*
X172237190Y-43214986D01*
X171362535Y-43214986D01*
X170592838Y-43214986D01*
X170592838Y-42075990D01*
X170975913Y-41674620D01*
X171358989Y-41273251D01*
X171360762Y-42244119D01*
X171362535Y-43214986D01*
X172237190Y-43214986D01*
X172237190Y-41622422D01*
X171580843Y-40966757D01*
X170924495Y-40311091D01*
X170321339Y-40914988D01*
G36*
X164207851Y-41115813D02*
G01*
X164567060Y-42095427D01*
X164023424Y-42095427D01*
X163818358Y-42095846D01*
X163674168Y-42097861D01*
X163581759Y-42102611D01*
X163532035Y-42111234D01*
X163515900Y-42124869D01*
X163524261Y-42144654D01*
X163534289Y-42156653D01*
X163562292Y-42193473D01*
X163627005Y-42281537D01*
X163724378Y-42415215D01*
X163850360Y-42588877D01*
X164000900Y-42796893D01*
X164171948Y-43033633D01*
X164359453Y-43293466D01*
X164559364Y-43570763D01*
X164767630Y-43859893D01*
X164980200Y-44155227D01*
X165193025Y-44451134D01*
X165402053Y-44741985D01*
X165603233Y-45022148D01*
X165792515Y-45285995D01*
X165965847Y-45527895D01*
X166119181Y-45742217D01*
X166248463Y-45923333D01*
X166349645Y-46065611D01*
X166418674Y-46163422D01*
X166451501Y-46211136D01*
X166452220Y-46212265D01*
X166449457Y-46193674D01*
X166425691Y-46115209D01*
X166382989Y-45983056D01*
X166323417Y-45803402D01*
X166249041Y-45582431D01*
X166161928Y-45326332D01*
X166064145Y-45041288D01*
X165971159Y-44772142D01*
X165864276Y-44463551D01*
X165764769Y-44175885D01*
X165674915Y-43915757D01*
X165596994Y-43689778D01*
X165533282Y-43504560D01*
X165486058Y-43366716D01*
X165457599Y-43282858D01*
X165449862Y-43258987D01*
X165482823Y-43255836D01*
X165573606Y-43253166D01*
X165710059Y-43251186D01*
X165880034Y-43250108D01*
X165969786Y-43249973D01*
X166489709Y-43249973D01*
X166098949Y-42366570D01*
X165975406Y-42087003D01*
X165842067Y-41784805D01*
X165707290Y-41478947D01*
X165579431Y-41188400D01*
X165466846Y-40932135D01*
X165413152Y-40809683D01*
X165118117Y-40136199D01*
X163848643Y-40136199D01*
X164207851Y-41115813D01*
G37*
X164207851Y-41115813D02*
X164567060Y-42095427D01*
X164023424Y-42095427D01*
X163818358Y-42095846D01*
X163674168Y-42097861D01*
X163581759Y-42102611D01*
X163532035Y-42111234D01*
X163515900Y-42124869D01*
X163524261Y-42144654D01*
X163534289Y-42156653D01*
X163562292Y-42193473D01*
X163627005Y-42281537D01*
X163724378Y-42415215D01*
X163850360Y-42588877D01*
X164000900Y-42796893D01*
X164171948Y-43033633D01*
X164359453Y-43293466D01*
X164559364Y-43570763D01*
X164767630Y-43859893D01*
X164980200Y-44155227D01*
X165193025Y-44451134D01*
X165402053Y-44741985D01*
X165603233Y-45022148D01*
X165792515Y-45285995D01*
X165965847Y-45527895D01*
X166119181Y-45742217D01*
X166248463Y-45923333D01*
X166349645Y-46065611D01*
X166418674Y-46163422D01*
X166451501Y-46211136D01*
X166452220Y-46212265D01*
X166449457Y-46193674D01*
X166425691Y-46115209D01*
X166382989Y-45983056D01*
X166323417Y-45803402D01*
X166249041Y-45582431D01*
X166161928Y-45326332D01*
X166064145Y-45041288D01*
X165971159Y-44772142D01*
X165864276Y-44463551D01*
X165764769Y-44175885D01*
X165674915Y-43915757D01*
X165596994Y-43689778D01*
X165533282Y-43504560D01*
X165486058Y-43366716D01*
X165457599Y-43282858D01*
X165449862Y-43258987D01*
X165482823Y-43255836D01*
X165573606Y-43253166D01*
X165710059Y-43251186D01*
X165880034Y-43250108D01*
X165969786Y-43249973D01*
X166489709Y-43249973D01*
X166098949Y-42366570D01*
X165975406Y-42087003D01*
X165842067Y-41784805D01*
X165707290Y-41478947D01*
X165579431Y-41188400D01*
X165466846Y-40932135D01*
X165413152Y-40809683D01*
X165118117Y-40136199D01*
X163848643Y-40136199D01*
X164207851Y-41115813D01*
D13*
X145482000Y-80966000D02*
X145482000Y-82296000D01*
X146812000Y-80966000D02*
X145482000Y-80966000D01*
X148082000Y-80966000D02*
X148082000Y-83626000D01*
X148082000Y-83626000D02*
X153222000Y-83626000D01*
X148082000Y-80966000D02*
X153222000Y-80966000D01*
X153222000Y-80966000D02*
X153222000Y-83626000D01*
X103122000Y-69118267D02*
X103122000Y-68775733D01*
X104142000Y-69118267D02*
X104142000Y-68775733D01*
X111080733Y-60450000D02*
X111423267Y-60450000D01*
X111080733Y-61470000D02*
X111423267Y-61470000D01*
X107665733Y-60450000D02*
X108008267Y-60450000D01*
X107665733Y-61470000D02*
X108008267Y-61470000D01*
X104142000Y-65501733D02*
X104142000Y-65844267D01*
X103122000Y-65501733D02*
X103122000Y-65844267D01*
X118874000Y-63469733D02*
X118874000Y-63812267D01*
X117854000Y-63469733D02*
X117854000Y-63812267D01*
X106192000Y-67056000D02*
X106192000Y-63606000D01*
X106192000Y-67056000D02*
X106192000Y-69006000D01*
X116312000Y-67056000D02*
X116312000Y-65106000D01*
X116312000Y-67056000D02*
X116312000Y-69006000D01*
X145735000Y-75932000D02*
X145135000Y-76232000D01*
X145735000Y-76532000D02*
X145735000Y-75932000D01*
X145135000Y-76232000D02*
X145735000Y-76532000D01*
X130815000Y-74622000D02*
X144935000Y-74622000D01*
X130815000Y-79842000D02*
X130815000Y-74622000D01*
X144935000Y-79842000D02*
X130815000Y-79842000D01*
X144935000Y-74622000D02*
X144935000Y-79842000D01*
X132845000Y-79842000D02*
X132845000Y-79332000D01*
X134345000Y-79842000D02*
X134345000Y-79332000D01*
X142905000Y-79842000D02*
X142905000Y-79332000D01*
X141405000Y-79842000D02*
X141405000Y-79332000D01*
X133405000Y-74622000D02*
X133405000Y-75132000D01*
X134345000Y-74622000D02*
X134345000Y-75132000D01*
X142345000Y-74622000D02*
X142345000Y-75132000D01*
X141405000Y-74622000D02*
X141405000Y-75132000D01*
X130815000Y-78132000D02*
X131675000Y-78132000D01*
X144935000Y-78132000D02*
X144075000Y-78132000D01*
X130815000Y-77332000D02*
X131675000Y-77332000D01*
X144935000Y-77332000D02*
X144075000Y-77332000D01*
X131675000Y-75132000D02*
X144075000Y-75132000D01*
X131675000Y-79332000D02*
X131675000Y-75132000D01*
X144075000Y-79332000D02*
X131675000Y-79332000D01*
X144075000Y-75132000D02*
X144075000Y-79332000D01*
X162500000Y-56575000D02*
X163830000Y-56575000D01*
X162500000Y-55245000D02*
X162500000Y-56575000D01*
X165100000Y-56575000D02*
X167700000Y-56575000D01*
X165100000Y-53975000D02*
X165100000Y-56575000D01*
X162500000Y-53975000D02*
X165100000Y-53975000D01*
X167700000Y-56575000D02*
X167700000Y-48835000D01*
X162500000Y-53975000D02*
X162500000Y-48835000D01*
X162500000Y-48835000D02*
X167700000Y-48835000D01*
X144655000Y-63963733D02*
X144655000Y-64306267D01*
X143635000Y-63963733D02*
X143635000Y-64306267D01*
X145555000Y-62440000D02*
X145355000Y-62440000D01*
X145355000Y-62440000D02*
X145355000Y-58140000D01*
X145355000Y-58140000D02*
X145505000Y-58140000D01*
X150405000Y-58140000D02*
X150555000Y-58140000D01*
X150555000Y-58140000D02*
X150555000Y-62440000D01*
X150555000Y-62440000D02*
X150355000Y-62440000D01*
X159504000Y-99124000D02*
X159004000Y-99624000D01*
X158504000Y-99124000D02*
X159504000Y-99124000D01*
X159004000Y-99624000D02*
X158504000Y-99124000D01*
X173084000Y-99809000D02*
X173084000Y-115329000D01*
X155124000Y-115329000D02*
X173084000Y-115329000D01*
X155124000Y-115329000D02*
X155124000Y-99809000D01*
X155124000Y-99809000D02*
X173084000Y-99809000D01*
X128725000Y-74598000D02*
X128725000Y-75848000D01*
X127475000Y-74598000D02*
X128725000Y-74598000D01*
X117365000Y-79008000D02*
X117365000Y-78508000D01*
X117265000Y-78508000D02*
X117265000Y-79008000D01*
X117465000Y-78508000D02*
X117265000Y-78508000D01*
X117465000Y-79008000D02*
X117465000Y-78508000D01*
X119365000Y-79008000D02*
X119365000Y-78508000D01*
X119265000Y-78508000D02*
X119265000Y-79008000D01*
X119465000Y-78508000D02*
X119265000Y-78508000D01*
X119465000Y-79008000D02*
X119465000Y-78508000D01*
X121365000Y-79008000D02*
X121365000Y-78508000D01*
X121265000Y-78508000D02*
X121265000Y-79008000D01*
X121465000Y-78508000D02*
X121265000Y-78508000D01*
X121465000Y-79008000D02*
X121465000Y-78508000D01*
X123365000Y-79008000D02*
X123365000Y-78508000D01*
X123265000Y-78508000D02*
X123265000Y-79008000D01*
X123465000Y-78508000D02*
X123265000Y-78508000D01*
X123465000Y-79008000D02*
X123465000Y-78508000D01*
X125365000Y-79008000D02*
X125365000Y-78508000D01*
X125265000Y-78508000D02*
X125265000Y-79008000D01*
X125465000Y-78508000D02*
X125265000Y-78508000D01*
X125465000Y-79008000D02*
X125465000Y-78508000D01*
X114305000Y-77508000D02*
X114915000Y-77508000D01*
X114305000Y-76208000D02*
X114915000Y-76208000D01*
X128425000Y-77508000D02*
X127815000Y-77508000D01*
X128425000Y-76208000D02*
X127815000Y-76208000D01*
X116865000Y-75508000D02*
X116865000Y-74898000D01*
X114915000Y-75508000D02*
X116865000Y-75508000D01*
X114915000Y-79008000D02*
X114915000Y-75508000D01*
X127815000Y-79008000D02*
X114915000Y-79008000D01*
X127815000Y-75508000D02*
X127815000Y-79008000D01*
X125865000Y-75508000D02*
X127815000Y-75508000D01*
X125865000Y-74898000D02*
X125865000Y-75508000D01*
X126665000Y-74798000D02*
X126965000Y-74798000D01*
X126965000Y-74698000D02*
X126965000Y-74898000D01*
X126665000Y-74698000D02*
X126965000Y-74698000D01*
X126665000Y-74898000D02*
X126665000Y-74698000D01*
X114305000Y-74898000D02*
X128425000Y-74898000D01*
X114305000Y-79618000D02*
X114305000Y-74898000D01*
X128425000Y-79618000D02*
X114305000Y-79618000D01*
X128425000Y-74898000D02*
X128425000Y-79618000D01*
X104426000Y-81752000D02*
X99706000Y-81752000D01*
X99706000Y-81752000D02*
X99706000Y-73632000D01*
X99706000Y-73632000D02*
X104426000Y-73632000D01*
X104426000Y-73632000D02*
X104426000Y-81752000D01*
X104426000Y-79992000D02*
X104626000Y-79992000D01*
X104626000Y-79992000D02*
X104626000Y-80292000D01*
X104626000Y-80292000D02*
X104426000Y-80292000D01*
X104526000Y-79992000D02*
X104526000Y-80292000D01*
X104426000Y-79192000D02*
X103816000Y-79192000D01*
X103816000Y-79192000D02*
X103816000Y-81142000D01*
X103816000Y-81142000D02*
X100316000Y-81142000D01*
X100316000Y-81142000D02*
X100316000Y-74242000D01*
X100316000Y-74242000D02*
X103816000Y-74242000D01*
X103816000Y-74242000D02*
X103816000Y-76192000D01*
X103816000Y-76192000D02*
X104426000Y-76192000D01*
X103116000Y-81752000D02*
X103116000Y-81142000D01*
X101816000Y-81752000D02*
X101816000Y-81142000D01*
X103116000Y-73632000D02*
X103116000Y-74242000D01*
X101816000Y-73632000D02*
X101816000Y-74242000D01*
X100316000Y-78792000D02*
X100816000Y-78792000D01*
X100816000Y-78792000D02*
X100816000Y-78592000D01*
X100816000Y-78592000D02*
X100316000Y-78592000D01*
X100316000Y-78692000D02*
X100816000Y-78692000D01*
X100316000Y-76792000D02*
X100816000Y-76792000D01*
X100816000Y-76792000D02*
X100816000Y-76592000D01*
X100816000Y-76592000D02*
X100316000Y-76592000D01*
X100316000Y-76692000D02*
X100816000Y-76692000D01*
X104726000Y-80802000D02*
X104726000Y-82052000D01*
X104726000Y-82052000D02*
X103476000Y-82052000D01*
X136088000Y-83044000D02*
X137018000Y-83044000D01*
X139248000Y-83044000D02*
X138318000Y-83044000D01*
X139248000Y-83044000D02*
X139248000Y-85204000D01*
X136088000Y-83044000D02*
X136088000Y-84504000D01*
D14*
X143934380Y-81486476D02*
X144648666Y-81486476D01*
X144791523Y-81438857D01*
X144886761Y-81343619D01*
X144934380Y-81200761D01*
X144934380Y-81105523D01*
X144934380Y-82486476D02*
X144934380Y-81915047D01*
X144934380Y-82200761D02*
X143934380Y-82200761D01*
X144077238Y-82105523D01*
X144172476Y-82010285D01*
X144220095Y-81915047D01*
X144934380Y-83438857D02*
X144934380Y-82867428D01*
X144934380Y-83153142D02*
X143934380Y-83153142D01*
X144077238Y-83057904D01*
X144172476Y-82962666D01*
X144220095Y-82867428D01*
X101957142Y-68304142D02*
X102004761Y-68256523D01*
X102052380Y-68113666D01*
X102052380Y-68018428D01*
X102004761Y-67875571D01*
X101909523Y-67780333D01*
X101814285Y-67732714D01*
X101623809Y-67685095D01*
X101480952Y-67685095D01*
X101290476Y-67732714D01*
X101195238Y-67780333D01*
X101100000Y-67875571D01*
X101052380Y-68018428D01*
X101052380Y-68113666D01*
X101100000Y-68256523D01*
X101147619Y-68304142D01*
X102052380Y-69256523D02*
X102052380Y-68685095D01*
X102052380Y-68970809D02*
X101052380Y-68970809D01*
X101195238Y-68875571D01*
X101290476Y-68780333D01*
X101338095Y-68685095D01*
X101052380Y-69875571D02*
X101052380Y-69970809D01*
X101100000Y-70066047D01*
X101147619Y-70113666D01*
X101242857Y-70161285D01*
X101433333Y-70208904D01*
X101671428Y-70208904D01*
X101861904Y-70161285D01*
X101957142Y-70113666D01*
X102004761Y-70066047D01*
X102052380Y-69970809D01*
X102052380Y-69875571D01*
X102004761Y-69780333D01*
X101957142Y-69732714D01*
X101861904Y-69685095D01*
X101671428Y-69637476D01*
X101433333Y-69637476D01*
X101242857Y-69685095D01*
X101147619Y-69732714D01*
X101100000Y-69780333D01*
X101052380Y-69875571D01*
X111418666Y-59793142D02*
X111466285Y-59840761D01*
X111609142Y-59888380D01*
X111704380Y-59888380D01*
X111847238Y-59840761D01*
X111942476Y-59745523D01*
X111990095Y-59650285D01*
X112037714Y-59459809D01*
X112037714Y-59316952D01*
X111990095Y-59126476D01*
X111942476Y-59031238D01*
X111847238Y-58936000D01*
X111704380Y-58888380D01*
X111609142Y-58888380D01*
X111466285Y-58936000D01*
X111418666Y-58983619D01*
X110942476Y-59888380D02*
X110752000Y-59888380D01*
X110656761Y-59840761D01*
X110609142Y-59793142D01*
X110513904Y-59650285D01*
X110466285Y-59459809D01*
X110466285Y-59078857D01*
X110513904Y-58983619D01*
X110561523Y-58936000D01*
X110656761Y-58888380D01*
X110847238Y-58888380D01*
X110942476Y-58936000D01*
X110990095Y-58983619D01*
X111037714Y-59078857D01*
X111037714Y-59316952D01*
X110990095Y-59412190D01*
X110942476Y-59459809D01*
X110847238Y-59507428D01*
X110656761Y-59507428D01*
X110561523Y-59459809D01*
X110513904Y-59412190D01*
X110466285Y-59316952D01*
X108003666Y-59793142D02*
X108051285Y-59840761D01*
X108194142Y-59888380D01*
X108289380Y-59888380D01*
X108432238Y-59840761D01*
X108527476Y-59745523D01*
X108575095Y-59650285D01*
X108622714Y-59459809D01*
X108622714Y-59316952D01*
X108575095Y-59126476D01*
X108527476Y-59031238D01*
X108432238Y-58936000D01*
X108289380Y-58888380D01*
X108194142Y-58888380D01*
X108051285Y-58936000D01*
X108003666Y-58983619D01*
X107432238Y-59316952D02*
X107527476Y-59269333D01*
X107575095Y-59221714D01*
X107622714Y-59126476D01*
X107622714Y-59078857D01*
X107575095Y-58983619D01*
X107527476Y-58936000D01*
X107432238Y-58888380D01*
X107241761Y-58888380D01*
X107146523Y-58936000D01*
X107098904Y-58983619D01*
X107051285Y-59078857D01*
X107051285Y-59126476D01*
X107098904Y-59221714D01*
X107146523Y-59269333D01*
X107241761Y-59316952D01*
X107432238Y-59316952D01*
X107527476Y-59364571D01*
X107575095Y-59412190D01*
X107622714Y-59507428D01*
X107622714Y-59697904D01*
X107575095Y-59793142D01*
X107527476Y-59840761D01*
X107432238Y-59888380D01*
X107241761Y-59888380D01*
X107146523Y-59840761D01*
X107098904Y-59793142D01*
X107051285Y-59697904D01*
X107051285Y-59507428D01*
X107098904Y-59412190D01*
X107146523Y-59364571D01*
X107241761Y-59316952D01*
X102559142Y-65506333D02*
X102606761Y-65458714D01*
X102654380Y-65315857D01*
X102654380Y-65220619D01*
X102606761Y-65077761D01*
X102511523Y-64982523D01*
X102416285Y-64934904D01*
X102225809Y-64887285D01*
X102082952Y-64887285D01*
X101892476Y-64934904D01*
X101797238Y-64982523D01*
X101702000Y-65077761D01*
X101654380Y-65220619D01*
X101654380Y-65315857D01*
X101702000Y-65458714D01*
X101749619Y-65506333D01*
X101654380Y-65839666D02*
X101654380Y-66506333D01*
X102654380Y-66077761D01*
X120245142Y-63333333D02*
X120292761Y-63285714D01*
X120340380Y-63142857D01*
X120340380Y-63047619D01*
X120292761Y-62904761D01*
X120197523Y-62809523D01*
X120102285Y-62761904D01*
X119911809Y-62714285D01*
X119768952Y-62714285D01*
X119578476Y-62761904D01*
X119483238Y-62809523D01*
X119388000Y-62904761D01*
X119340380Y-63047619D01*
X119340380Y-63142857D01*
X119388000Y-63285714D01*
X119435619Y-63333333D01*
X119340380Y-64190476D02*
X119340380Y-64000000D01*
X119388000Y-63904761D01*
X119435619Y-63857142D01*
X119578476Y-63761904D01*
X119768952Y-63714285D01*
X120149904Y-63714285D01*
X120245142Y-63761904D01*
X120292761Y-63809523D01*
X120340380Y-63904761D01*
X120340380Y-64095238D01*
X120292761Y-64190476D01*
X120245142Y-64238095D01*
X120149904Y-64285714D01*
X119911809Y-64285714D01*
X119816571Y-64238095D01*
X119768952Y-64190476D01*
X119721333Y-64095238D01*
X119721333Y-63904761D01*
X119768952Y-63809523D01*
X119816571Y-63761904D01*
X119911809Y-63714285D01*
X104804380Y-66294095D02*
X105613904Y-66294095D01*
X105709142Y-66341714D01*
X105756761Y-66389333D01*
X105804380Y-66484571D01*
X105804380Y-66675047D01*
X105756761Y-66770285D01*
X105709142Y-66817904D01*
X105613904Y-66865523D01*
X104804380Y-66865523D01*
X105137714Y-67770285D02*
X105804380Y-67770285D01*
X104756761Y-67532190D02*
X105471047Y-67294095D01*
X105471047Y-67913142D01*
X145756380Y-76882666D02*
X146470666Y-76882666D01*
X146613523Y-76835047D01*
X146708761Y-76739809D01*
X146756380Y-76596952D01*
X146756380Y-76501714D01*
X146184952Y-77501714D02*
X146137333Y-77406476D01*
X146089714Y-77358857D01*
X145994476Y-77311238D01*
X145946857Y-77311238D01*
X145851619Y-77358857D01*
X145804000Y-77406476D01*
X145756380Y-77501714D01*
X145756380Y-77692190D01*
X145804000Y-77787428D01*
X145851619Y-77835047D01*
X145946857Y-77882666D01*
X145994476Y-77882666D01*
X146089714Y-77835047D01*
X146137333Y-77787428D01*
X146184952Y-77692190D01*
X146184952Y-77501714D01*
X146232571Y-77406476D01*
X146280190Y-77358857D01*
X146375428Y-77311238D01*
X146565904Y-77311238D01*
X146661142Y-77358857D01*
X146708761Y-77406476D01*
X146756380Y-77501714D01*
X146756380Y-77692190D01*
X146708761Y-77787428D01*
X146661142Y-77835047D01*
X146565904Y-77882666D01*
X146375428Y-77882666D01*
X146280190Y-77835047D01*
X146232571Y-77787428D01*
X146184952Y-77692190D01*
X165433333Y-57027380D02*
X165433333Y-57741666D01*
X165480952Y-57884523D01*
X165576190Y-57979761D01*
X165719047Y-58027380D01*
X165814285Y-58027380D01*
X165052380Y-57027380D02*
X164433333Y-57027380D01*
X164766666Y-57408333D01*
X164623809Y-57408333D01*
X164528571Y-57455952D01*
X164480952Y-57503571D01*
X164433333Y-57598809D01*
X164433333Y-57836904D01*
X164480952Y-57932142D01*
X164528571Y-57979761D01*
X164623809Y-58027380D01*
X164909523Y-58027380D01*
X165004761Y-57979761D01*
X165052380Y-57932142D01*
X143167380Y-63968333D02*
X142691190Y-63635000D01*
X143167380Y-63396904D02*
X142167380Y-63396904D01*
X142167380Y-63777857D01*
X142215000Y-63873095D01*
X142262619Y-63920714D01*
X142357857Y-63968333D01*
X142500714Y-63968333D01*
X142595952Y-63920714D01*
X142643571Y-63873095D01*
X142691190Y-63777857D01*
X142691190Y-63396904D01*
X142167380Y-64873095D02*
X142167380Y-64396904D01*
X142643571Y-64349285D01*
X142595952Y-64396904D01*
X142548333Y-64492142D01*
X142548333Y-64730238D01*
X142595952Y-64825476D01*
X142643571Y-64873095D01*
X142738809Y-64920714D01*
X142976904Y-64920714D01*
X143072142Y-64873095D01*
X143119761Y-64825476D01*
X143167380Y-64730238D01*
X143167380Y-64492142D01*
X143119761Y-64396904D01*
X143072142Y-64349285D01*
X151982619Y-60274761D02*
X151935000Y-60179523D01*
X151839761Y-60084285D01*
X151696904Y-59941428D01*
X151649285Y-59846190D01*
X151649285Y-59750952D01*
X151887380Y-59798571D02*
X151839761Y-59703333D01*
X151744523Y-59608095D01*
X151554047Y-59560476D01*
X151220714Y-59560476D01*
X151030238Y-59608095D01*
X150935000Y-59703333D01*
X150887380Y-59798571D01*
X150887380Y-59989047D01*
X150935000Y-60084285D01*
X151030238Y-60179523D01*
X151220714Y-60227142D01*
X151554047Y-60227142D01*
X151744523Y-60179523D01*
X151839761Y-60084285D01*
X151887380Y-59989047D01*
X151887380Y-59798571D01*
X151887380Y-61179523D02*
X151887380Y-60608095D01*
X151887380Y-60893809D02*
X150887380Y-60893809D01*
X151030238Y-60798571D01*
X151125476Y-60703333D01*
X151173095Y-60608095D01*
X153456380Y-107235666D02*
X154170666Y-107235666D01*
X154313523Y-107188047D01*
X154408761Y-107092809D01*
X154456380Y-106949952D01*
X154456380Y-106854714D01*
X154456380Y-107759476D02*
X154456380Y-107949952D01*
X154408761Y-108045190D01*
X154361142Y-108092809D01*
X154218285Y-108188047D01*
X154027809Y-108235666D01*
X153646857Y-108235666D01*
X153551619Y-108188047D01*
X153504000Y-108140428D01*
X153456380Y-108045190D01*
X153456380Y-107854714D01*
X153504000Y-107759476D01*
X153551619Y-107711857D01*
X153646857Y-107664238D01*
X153884952Y-107664238D01*
X153980190Y-107711857D01*
X154027809Y-107759476D01*
X154075428Y-107854714D01*
X154075428Y-108045190D01*
X154027809Y-108140428D01*
X153980190Y-108188047D01*
X153884952Y-108235666D01*
X121237333Y-80224380D02*
X121237333Y-80938666D01*
X121284952Y-81081523D01*
X121380190Y-81176761D01*
X121523047Y-81224380D01*
X121618285Y-81224380D01*
X120856380Y-80224380D02*
X120189714Y-80224380D01*
X120618285Y-81224380D01*
X102441333Y-82256380D02*
X102441333Y-82970666D01*
X102488952Y-83113523D01*
X102584190Y-83208761D01*
X102727047Y-83256380D01*
X102822285Y-83256380D01*
X102012761Y-82351619D02*
X101965142Y-82304000D01*
X101869904Y-82256380D01*
X101631809Y-82256380D01*
X101536571Y-82304000D01*
X101488952Y-82351619D01*
X101441333Y-82446857D01*
X101441333Y-82542095D01*
X101488952Y-82684952D01*
X102060380Y-83256380D01*
X101441333Y-83256380D01*
X140620380Y-83065904D02*
X139620380Y-83065904D01*
X139620380Y-83304000D01*
X139668000Y-83446857D01*
X139763238Y-83542095D01*
X139858476Y-83589714D01*
X140048952Y-83637333D01*
X140191809Y-83637333D01*
X140382285Y-83589714D01*
X140477523Y-83542095D01*
X140572761Y-83446857D01*
X140620380Y-83304000D01*
X140620380Y-83065904D01*
X140620380Y-84589714D02*
X140620380Y-84018285D01*
X140620380Y-84304000D02*
X139620380Y-84304000D01*
X139763238Y-84208761D01*
X139858476Y-84113523D01*
X139906095Y-84018285D01*
M02*
