G04 #@! TF.GenerationSoftware,KiCad,Pcbnew,5.1.5-52549c5~84~ubuntu18.04.1*
G04 #@! TF.CreationDate,2020-03-02T20:03:48-05:00*
G04 #@! TF.ProjectId,Port_Panel,506f7274-5f50-4616-9e65-6c2e6b696361,rev?*
G04 #@! TF.SameCoordinates,Original*
G04 #@! TF.FileFunction,Legend,Top*
G04 #@! TF.FilePolarity,Positive*
%FSLAX46Y46*%
G04 Gerber Fmt 4.6, Leading zero omitted, Abs format (unit mm)*
G04 Created by KiCad (PCBNEW 5.1.5-52549c5~84~ubuntu18.04.1) date 2020-03-02 20:03:48*
%MOMM*%
%LPD*%
G04 APERTURE LIST*
%ADD10C,0.120000*%
%ADD11C,0.127000*%
%ADD12C,0.150000*%
%ADD13C,0.050000*%
G04 APERTURE END LIST*
D10*
X161165000Y-59861267D02*
X161165000Y-59518733D01*
X160145000Y-59861267D02*
X160145000Y-59518733D01*
X121782252Y-69918000D02*
X119009748Y-69918000D01*
X121782252Y-73338000D02*
X119009748Y-73338000D01*
X132846000Y-115434000D02*
X132846000Y-99704000D01*
X149586000Y-115434000D02*
X132846000Y-115434000D01*
X149586000Y-99704000D02*
X132846000Y-99704000D01*
X149586000Y-115424000D02*
X149586000Y-99704000D01*
X145796000Y-99624000D02*
X146296000Y-99124000D01*
X146296000Y-99124000D02*
X145296000Y-99124000D01*
X145296000Y-99124000D02*
X145796000Y-99624000D01*
D11*
X102870000Y-38560000D02*
G75*
G03X97870000Y-43560000I0J-5000000D01*
G01*
X153670000Y-38560000D02*
X102870000Y-38560000D01*
X158670000Y-43560000D02*
G75*
G03X153670000Y-38560000I-5000000J0D01*
G01*
X158670000Y-65660000D02*
X158670000Y-43560000D01*
X153670000Y-70660000D02*
G75*
G03X158670000Y-65660000I0J5000000D01*
G01*
X102870000Y-70660000D02*
X153670000Y-70660000D01*
X97870000Y-65660000D02*
G75*
G03X102870000Y-70660000I5000000J0D01*
G01*
X97870000Y-43560000D02*
X97870000Y-65660000D01*
X114500000Y-46990000D02*
G75*
G03X114500000Y-46990000I-200000J0D01*
G01*
D10*
X143510000Y-84265000D02*
X144010000Y-83765000D01*
X144010000Y-83765000D02*
X143010000Y-83765000D01*
X143010000Y-83765000D02*
X143510000Y-84265000D01*
X135210000Y-84465000D02*
X149310000Y-84465000D01*
X149310000Y-84465000D02*
X149310000Y-89265000D01*
X149310000Y-92765000D02*
X149310000Y-97565000D01*
X149310000Y-97565000D02*
X135210000Y-97565000D01*
X135210000Y-97565000D02*
X135210000Y-92765000D01*
X135210000Y-89265000D02*
X135210000Y-84465000D01*
X154410000Y-82480000D02*
X154560000Y-82480000D01*
X154410000Y-80080000D02*
X154560000Y-80080000D01*
X156960000Y-80080000D02*
X157010000Y-80080000D01*
X158010000Y-80080000D02*
X157860000Y-80080000D01*
X158010000Y-82480000D02*
X157860000Y-82480000D01*
X158210000Y-80480000D02*
X158210000Y-80080000D01*
X158010000Y-80480000D02*
X158010000Y-80080000D01*
X154410000Y-80480000D02*
X154410000Y-80080000D01*
X158210000Y-82480000D02*
X158210000Y-80480000D01*
X156960000Y-80080000D02*
X156960000Y-79680000D01*
X158010000Y-80480000D02*
X158010000Y-82480000D01*
X154410000Y-82480000D02*
X154410000Y-80480000D01*
X172740000Y-88900000D02*
X172740000Y-86950000D01*
X172740000Y-88900000D02*
X172740000Y-90850000D01*
X167620000Y-88900000D02*
X167620000Y-86950000D01*
X167620000Y-88900000D02*
X167620000Y-92350000D01*
X153500000Y-91440000D02*
X153500000Y-95300000D01*
X153500000Y-95300000D02*
X153745000Y-95300000D01*
X153500000Y-91440000D02*
X153500000Y-87580000D01*
X153500000Y-87580000D02*
X153745000Y-87580000D01*
X165270000Y-91440000D02*
X165270000Y-95300000D01*
X165270000Y-95300000D02*
X165025000Y-95300000D01*
X165270000Y-91440000D02*
X165270000Y-87580000D01*
X165270000Y-87580000D02*
X165025000Y-87580000D01*
X165025000Y-87580000D02*
X165025000Y-85765000D01*
D12*
X163507000Y-73475000D02*
X163732000Y-73475000D01*
X163507000Y-66225000D02*
X163832000Y-66225000D01*
X170757000Y-66225000D02*
X170432000Y-66225000D01*
X170757000Y-73475000D02*
X170432000Y-73475000D01*
X163507000Y-73475000D02*
X163507000Y-73150000D01*
X170757000Y-73475000D02*
X170757000Y-73150000D01*
X170757000Y-66225000D02*
X170757000Y-66550000D01*
X163507000Y-66225000D02*
X163507000Y-66550000D01*
X163732000Y-73475000D02*
X163732000Y-74900000D01*
D10*
X169641733Y-84838000D02*
X169984267Y-84838000D01*
X169641733Y-83818000D02*
X169984267Y-83818000D01*
X167571267Y-76960000D02*
X167228733Y-76960000D01*
X167571267Y-77980000D02*
X167228733Y-77980000D01*
X159510000Y-91268733D02*
X159510000Y-91611267D01*
X160530000Y-91268733D02*
X160530000Y-91611267D01*
X167571267Y-79500000D02*
X167228733Y-79500000D01*
X167571267Y-80520000D02*
X167228733Y-80520000D01*
X117538000Y-114961000D02*
G75*
G03X118598000Y-116021000I1060000J0D01*
G01*
X118598000Y-85051000D02*
G75*
G03X117538000Y-86111000I0J-1060000D01*
G01*
X130158000Y-114961000D02*
G75*
G02X129098000Y-116021000I-1060000J0D01*
G01*
X130158000Y-86111000D02*
G75*
G03X129098000Y-85051000I-1060000J0D01*
G01*
X121786256Y-108402470D02*
G75*
G02X119838000Y-106767689I-288256J1634781D01*
G01*
X121786256Y-92669530D02*
G75*
G03X119838000Y-94304311I-288256J-1634781D01*
G01*
X126486256Y-107573733D02*
G75*
G03X127858000Y-105938952I-288256J1634781D01*
G01*
X126486256Y-93498267D02*
G75*
G02X127858000Y-95133048I-288256J-1634781D01*
G01*
X117538000Y-114961000D02*
X117538000Y-86111000D01*
X118598000Y-85051000D02*
X129098000Y-85051000D01*
X130158000Y-86111000D02*
X130158000Y-114961000D01*
X129098000Y-116021000D02*
X118598000Y-116021000D01*
X116643662Y-95246000D02*
X116643662Y-94746000D01*
X116643662Y-94746000D02*
X117076675Y-94996000D01*
X117076675Y-94996000D02*
X116643662Y-95246000D01*
X119838000Y-106767689D02*
X119838000Y-94304311D01*
X127858000Y-105938952D02*
X127858000Y-95133048D01*
X121786256Y-92669530D02*
X126486256Y-93498267D01*
X121786256Y-108402470D02*
X126486256Y-107573733D01*
X100520000Y-114930000D02*
G75*
G03X101580000Y-115990000I1060000J0D01*
G01*
X101580000Y-85020000D02*
G75*
G03X100520000Y-86080000I0J-1060000D01*
G01*
X113140000Y-114930000D02*
G75*
G02X112080000Y-115990000I-1060000J0D01*
G01*
X113140000Y-86080000D02*
G75*
G03X112080000Y-85020000I-1060000J0D01*
G01*
X104568256Y-108371470D02*
G75*
G02X102620000Y-106736689I-288256J1634781D01*
G01*
X104568256Y-92638530D02*
G75*
G03X102620000Y-94273311I-288256J-1634781D01*
G01*
X109668256Y-107472202D02*
G75*
G03X111040000Y-105837421I-288256J1634781D01*
G01*
X109668256Y-93537798D02*
G75*
G02X111040000Y-95172579I-288256J-1634781D01*
G01*
X100520000Y-114930000D02*
X100520000Y-86080000D01*
X101580000Y-85020000D02*
X112080000Y-85020000D01*
X113140000Y-86080000D02*
X113140000Y-114930000D01*
X112080000Y-115990000D02*
X101580000Y-115990000D01*
X99625662Y-106295000D02*
X99625662Y-105795000D01*
X99625662Y-105795000D02*
X100058675Y-106045000D01*
X100058675Y-106045000D02*
X99625662Y-106295000D01*
X102620000Y-106736689D02*
X102620000Y-94273311D01*
X111040000Y-105837421D02*
X111040000Y-95172579D01*
X104568256Y-92638530D02*
X109668256Y-93537798D01*
X104568256Y-108371470D02*
X109668256Y-107472202D01*
X170111267Y-94740000D02*
X169768733Y-94740000D01*
X170111267Y-95760000D02*
X169768733Y-95760000D01*
X156335000Y-91268733D02*
X156335000Y-91611267D01*
X157355000Y-91268733D02*
X157355000Y-91611267D01*
X166936267Y-61720000D02*
X166593733Y-61720000D01*
X166936267Y-62740000D02*
X166593733Y-62740000D01*
X170591267Y-61720000D02*
X170248733Y-61720000D01*
X170591267Y-62740000D02*
X170248733Y-62740000D01*
X170591267Y-59815000D02*
X170248733Y-59815000D01*
X170591267Y-60835000D02*
X170248733Y-60835000D01*
D12*
X159677380Y-59856666D02*
X159201190Y-60190000D01*
X159677380Y-60428095D02*
X158677380Y-60428095D01*
X158677380Y-60047142D01*
X158725000Y-59951904D01*
X158772619Y-59904285D01*
X158867857Y-59856666D01*
X159010714Y-59856666D01*
X159105952Y-59904285D01*
X159153571Y-59951904D01*
X159201190Y-60047142D01*
X159201190Y-60428095D01*
X158677380Y-58999523D02*
X158677380Y-59190000D01*
X158725000Y-59285238D01*
X158772619Y-59332857D01*
X158915476Y-59428095D01*
X159105952Y-59475714D01*
X159486904Y-59475714D01*
X159582142Y-59428095D01*
X159629761Y-59380476D01*
X159677380Y-59285238D01*
X159677380Y-59094761D01*
X159629761Y-58999523D01*
X159582142Y-58951904D01*
X159486904Y-58904285D01*
X159248809Y-58904285D01*
X159153571Y-58951904D01*
X159105952Y-58999523D01*
X159058333Y-59094761D01*
X159058333Y-59285238D01*
X159105952Y-59380476D01*
X159153571Y-59428095D01*
X159248809Y-59475714D01*
X120062666Y-74206571D02*
X119729333Y-74206571D01*
X119729333Y-74730380D02*
X119729333Y-73730380D01*
X120205523Y-73730380D01*
X121110285Y-74730380D02*
X120538857Y-74730380D01*
X120824571Y-74730380D02*
X120824571Y-73730380D01*
X120729333Y-73873238D01*
X120634095Y-73968476D01*
X120538857Y-74016095D01*
X131248380Y-107907333D02*
X131962666Y-107907333D01*
X132105523Y-107954952D01*
X132200761Y-108050190D01*
X132248380Y-108193047D01*
X132248380Y-108288285D01*
X131248380Y-107002571D02*
X131248380Y-107193047D01*
X131296000Y-107288285D01*
X131343619Y-107335904D01*
X131486476Y-107431142D01*
X131676952Y-107478761D01*
X132057904Y-107478761D01*
X132153142Y-107431142D01*
X132200761Y-107383523D01*
X132248380Y-107288285D01*
X132248380Y-107097809D01*
X132200761Y-107002571D01*
X132153142Y-106954952D01*
X132057904Y-106907333D01*
X131819809Y-106907333D01*
X131724571Y-106954952D01*
X131676952Y-107002571D01*
X131629333Y-107097809D01*
X131629333Y-107288285D01*
X131676952Y-107383523D01*
X131724571Y-107431142D01*
X131819809Y-107478761D01*
X159502380Y-65389523D02*
X160216666Y-65389523D01*
X160359523Y-65437142D01*
X160454761Y-65532380D01*
X160502380Y-65675238D01*
X160502380Y-65770476D01*
X160502380Y-64389523D02*
X160502380Y-64960952D01*
X160502380Y-64675238D02*
X159502380Y-64675238D01*
X159645238Y-64770476D01*
X159740476Y-64865714D01*
X159788095Y-64960952D01*
X159502380Y-63770476D02*
X159502380Y-63675238D01*
X159550000Y-63580000D01*
X159597619Y-63532380D01*
X159692857Y-63484761D01*
X159883333Y-63437142D01*
X160121428Y-63437142D01*
X160311904Y-63484761D01*
X160407142Y-63532380D01*
X160454761Y-63580000D01*
X160502380Y-63675238D01*
X160502380Y-63770476D01*
X160454761Y-63865714D01*
X160407142Y-63913333D01*
X160311904Y-63960952D01*
X160121428Y-64008571D01*
X159883333Y-64008571D01*
X159692857Y-63960952D01*
X159597619Y-63913333D01*
X159550000Y-63865714D01*
X159502380Y-63770476D01*
D13*
X99569350Y-39237183D02*
X100370550Y-39237183D01*
X99969950Y-40639283D02*
X99969950Y-39237183D01*
X100837916Y-39904850D02*
X101305283Y-39904850D01*
X101505583Y-40639283D02*
X100837916Y-40639283D01*
X100837916Y-39237183D01*
X101505583Y-39237183D01*
X103041216Y-39237183D02*
X103975950Y-39237183D01*
X103375050Y-40639283D01*
X104376550Y-39237183D02*
X105311283Y-39237183D01*
X104710383Y-40639283D01*
X106446316Y-39237183D02*
X106179250Y-39237183D01*
X106045716Y-39303950D01*
X105978950Y-39370716D01*
X105845416Y-39571016D01*
X105778650Y-39838083D01*
X105778650Y-40372216D01*
X105845416Y-40505750D01*
X105912183Y-40572516D01*
X106045716Y-40639283D01*
X106312783Y-40639283D01*
X106446316Y-40572516D01*
X106513083Y-40505750D01*
X106579850Y-40372216D01*
X106579850Y-40038383D01*
X106513083Y-39904850D01*
X106446316Y-39838083D01*
X106312783Y-39771316D01*
X106045716Y-39771316D01*
X105912183Y-39838083D01*
X105845416Y-39904850D01*
X105778650Y-40038383D01*
X107113983Y-39370716D02*
X107180750Y-39303950D01*
X107314283Y-39237183D01*
X107648116Y-39237183D01*
X107781650Y-39303950D01*
X107848416Y-39370716D01*
X107915183Y-39504250D01*
X107915183Y-39637783D01*
X107848416Y-39838083D01*
X107047216Y-40639283D01*
X107915183Y-40639283D01*
X108449316Y-39370716D02*
X108516083Y-39303950D01*
X108649616Y-39237183D01*
X108983450Y-39237183D01*
X109116983Y-39303950D01*
X109183750Y-39370716D01*
X109250516Y-39504250D01*
X109250516Y-39637783D01*
X109183750Y-39838083D01*
X108382550Y-40639283D01*
X109250516Y-40639283D01*
X110051716Y-39838083D02*
X109918183Y-39771316D01*
X109851416Y-39704550D01*
X109784650Y-39571016D01*
X109784650Y-39504250D01*
X109851416Y-39370716D01*
X109918183Y-39303950D01*
X110051716Y-39237183D01*
X110318783Y-39237183D01*
X110452316Y-39303950D01*
X110519083Y-39370716D01*
X110585850Y-39504250D01*
X110585850Y-39571016D01*
X110519083Y-39704550D01*
X110452316Y-39771316D01*
X110318783Y-39838083D01*
X110051716Y-39838083D01*
X109918183Y-39904850D01*
X109851416Y-39971616D01*
X109784650Y-40105150D01*
X109784650Y-40372216D01*
X109851416Y-40505750D01*
X109918183Y-40572516D01*
X110051716Y-40639283D01*
X110318783Y-40639283D01*
X110452316Y-40572516D01*
X110519083Y-40505750D01*
X110585850Y-40372216D01*
X110585850Y-40105150D01*
X110519083Y-39971616D01*
X110452316Y-39904850D01*
X110318783Y-39838083D01*
X111186750Y-40105150D02*
X112255016Y-40105150D01*
X113657116Y-40639283D02*
X112855916Y-40639283D01*
X113256516Y-40639283D02*
X113256516Y-39237183D01*
X113122983Y-39437483D01*
X112989450Y-39571016D01*
X112855916Y-39637783D01*
D12*
X137376666Y-83167380D02*
X137376666Y-83881666D01*
X137329047Y-84024523D01*
X137233809Y-84119761D01*
X137090952Y-84167380D01*
X136995714Y-84167380D01*
X138329047Y-83167380D02*
X137852857Y-83167380D01*
X137805238Y-83643571D01*
X137852857Y-83595952D01*
X137948095Y-83548333D01*
X138186190Y-83548333D01*
X138281428Y-83595952D01*
X138329047Y-83643571D01*
X138376666Y-83738809D01*
X138376666Y-83976904D01*
X138329047Y-84072142D01*
X138281428Y-84119761D01*
X138186190Y-84167380D01*
X137948095Y-84167380D01*
X137852857Y-84119761D01*
X137805238Y-84072142D01*
X155733809Y-83706190D02*
X155733809Y-84182380D01*
X155400476Y-83182380D02*
X155733809Y-83706190D01*
X156067142Y-83182380D01*
X156924285Y-84182380D02*
X156352857Y-84182380D01*
X156638571Y-84182380D02*
X156638571Y-83182380D01*
X156543333Y-83325238D01*
X156448095Y-83420476D01*
X156352857Y-83468095D01*
X166232380Y-89661904D02*
X167041904Y-89661904D01*
X167137142Y-89614285D01*
X167184761Y-89566666D01*
X167232380Y-89471428D01*
X167232380Y-89280952D01*
X167184761Y-89185714D01*
X167137142Y-89138095D01*
X167041904Y-89090476D01*
X166232380Y-89090476D01*
X166232380Y-88709523D02*
X166232380Y-88090476D01*
X166613333Y-88423809D01*
X166613333Y-88280952D01*
X166660952Y-88185714D01*
X166708571Y-88138095D01*
X166803809Y-88090476D01*
X167041904Y-88090476D01*
X167137142Y-88138095D01*
X167184761Y-88185714D01*
X167232380Y-88280952D01*
X167232380Y-88566666D01*
X167184761Y-88661904D01*
X167137142Y-88709523D01*
X165557380Y-92201904D02*
X166366904Y-92201904D01*
X166462142Y-92154285D01*
X166509761Y-92106666D01*
X166557380Y-92011428D01*
X166557380Y-91820952D01*
X166509761Y-91725714D01*
X166462142Y-91678095D01*
X166366904Y-91630476D01*
X165557380Y-91630476D01*
X165652619Y-91201904D02*
X165605000Y-91154285D01*
X165557380Y-91059047D01*
X165557380Y-90820952D01*
X165605000Y-90725714D01*
X165652619Y-90678095D01*
X165747857Y-90630476D01*
X165843095Y-90630476D01*
X165985952Y-90678095D01*
X166557380Y-91249523D01*
X166557380Y-90630476D01*
X160534380Y-70611904D02*
X161343904Y-70611904D01*
X161439142Y-70564285D01*
X161486761Y-70516666D01*
X161534380Y-70421428D01*
X161534380Y-70230952D01*
X161486761Y-70135714D01*
X161439142Y-70088095D01*
X161343904Y-70040476D01*
X160534380Y-70040476D01*
X161534380Y-69040476D02*
X161534380Y-69611904D01*
X161534380Y-69326190D02*
X160534380Y-69326190D01*
X160677238Y-69421428D01*
X160772476Y-69516666D01*
X160820095Y-69611904D01*
X169646333Y-83350380D02*
X169313000Y-82874190D01*
X169074904Y-83350380D02*
X169074904Y-82350380D01*
X169455857Y-82350380D01*
X169551095Y-82398000D01*
X169598714Y-82445619D01*
X169646333Y-82540857D01*
X169646333Y-82683714D01*
X169598714Y-82778952D01*
X169551095Y-82826571D01*
X169455857Y-82874190D01*
X169074904Y-82874190D01*
X170503476Y-82683714D02*
X170503476Y-83350380D01*
X170265380Y-82302761D02*
X170027285Y-83017047D01*
X170646333Y-83017047D01*
X164298333Y-77287380D02*
X163965000Y-76811190D01*
X163726904Y-77287380D02*
X163726904Y-76287380D01*
X164107857Y-76287380D01*
X164203095Y-76335000D01*
X164250714Y-76382619D01*
X164298333Y-76477857D01*
X164298333Y-76620714D01*
X164250714Y-76715952D01*
X164203095Y-76763571D01*
X164107857Y-76811190D01*
X163726904Y-76811190D01*
X164631666Y-76287380D02*
X165250714Y-76287380D01*
X164917380Y-76668333D01*
X165060238Y-76668333D01*
X165155476Y-76715952D01*
X165203095Y-76763571D01*
X165250714Y-76858809D01*
X165250714Y-77096904D01*
X165203095Y-77192142D01*
X165155476Y-77239761D01*
X165060238Y-77287380D01*
X164774523Y-77287380D01*
X164679285Y-77239761D01*
X164631666Y-77192142D01*
X161902380Y-91606666D02*
X161426190Y-91940000D01*
X161902380Y-92178095D02*
X160902380Y-92178095D01*
X160902380Y-91797142D01*
X160950000Y-91701904D01*
X160997619Y-91654285D01*
X161092857Y-91606666D01*
X161235714Y-91606666D01*
X161330952Y-91654285D01*
X161378571Y-91701904D01*
X161426190Y-91797142D01*
X161426190Y-92178095D01*
X160997619Y-91225714D02*
X160950000Y-91178095D01*
X160902380Y-91082857D01*
X160902380Y-90844761D01*
X160950000Y-90749523D01*
X160997619Y-90701904D01*
X161092857Y-90654285D01*
X161188095Y-90654285D01*
X161330952Y-90701904D01*
X161902380Y-91273333D01*
X161902380Y-90654285D01*
X167233333Y-81892380D02*
X166900000Y-81416190D01*
X166661904Y-81892380D02*
X166661904Y-80892380D01*
X167042857Y-80892380D01*
X167138095Y-80940000D01*
X167185714Y-80987619D01*
X167233333Y-81082857D01*
X167233333Y-81225714D01*
X167185714Y-81320952D01*
X167138095Y-81368571D01*
X167042857Y-81416190D01*
X166661904Y-81416190D01*
X168185714Y-81892380D02*
X167614285Y-81892380D01*
X167900000Y-81892380D02*
X167900000Y-80892380D01*
X167804761Y-81035238D01*
X167709523Y-81130476D01*
X167614285Y-81178095D01*
X120570666Y-83272380D02*
X120570666Y-83986666D01*
X120523047Y-84129523D01*
X120427809Y-84224761D01*
X120284952Y-84272380D01*
X120189714Y-84272380D01*
X121475428Y-83605714D02*
X121475428Y-84272380D01*
X121237333Y-83224761D02*
X120999238Y-83939047D01*
X121618285Y-83939047D01*
X108378666Y-83272380D02*
X108378666Y-83986666D01*
X108331047Y-84129523D01*
X108235809Y-84224761D01*
X108092952Y-84272380D01*
X107997714Y-84272380D01*
X109378666Y-84272380D02*
X108807238Y-84272380D01*
X109092952Y-84272380D02*
X109092952Y-83272380D01*
X108997714Y-83415238D01*
X108902476Y-83510476D01*
X108807238Y-83558095D01*
X169773333Y-97037142D02*
X169725714Y-97084761D01*
X169582857Y-97132380D01*
X169487619Y-97132380D01*
X169344761Y-97084761D01*
X169249523Y-96989523D01*
X169201904Y-96894285D01*
X169154285Y-96703809D01*
X169154285Y-96560952D01*
X169201904Y-96370476D01*
X169249523Y-96275238D01*
X169344761Y-96180000D01*
X169487619Y-96132380D01*
X169582857Y-96132380D01*
X169725714Y-96180000D01*
X169773333Y-96227619D01*
X170678095Y-96132380D02*
X170201904Y-96132380D01*
X170154285Y-96608571D01*
X170201904Y-96560952D01*
X170297142Y-96513333D01*
X170535238Y-96513333D01*
X170630476Y-96560952D01*
X170678095Y-96608571D01*
X170725714Y-96703809D01*
X170725714Y-96941904D01*
X170678095Y-97037142D01*
X170630476Y-97084761D01*
X170535238Y-97132380D01*
X170297142Y-97132380D01*
X170201904Y-97084761D01*
X170154285Y-97037142D01*
X158632142Y-91606666D02*
X158679761Y-91654285D01*
X158727380Y-91797142D01*
X158727380Y-91892380D01*
X158679761Y-92035238D01*
X158584523Y-92130476D01*
X158489285Y-92178095D01*
X158298809Y-92225714D01*
X158155952Y-92225714D01*
X157965476Y-92178095D01*
X157870238Y-92130476D01*
X157775000Y-92035238D01*
X157727380Y-91892380D01*
X157727380Y-91797142D01*
X157775000Y-91654285D01*
X157822619Y-91606666D01*
X158060714Y-90749523D02*
X158727380Y-90749523D01*
X157679761Y-90987619D02*
X158394047Y-91225714D01*
X158394047Y-90606666D01*
X166598333Y-64017142D02*
X166550714Y-64064761D01*
X166407857Y-64112380D01*
X166312619Y-64112380D01*
X166169761Y-64064761D01*
X166074523Y-63969523D01*
X166026904Y-63874285D01*
X165979285Y-63683809D01*
X165979285Y-63540952D01*
X166026904Y-63350476D01*
X166074523Y-63255238D01*
X166169761Y-63160000D01*
X166312619Y-63112380D01*
X166407857Y-63112380D01*
X166550714Y-63160000D01*
X166598333Y-63207619D01*
X166931666Y-63112380D02*
X167550714Y-63112380D01*
X167217380Y-63493333D01*
X167360238Y-63493333D01*
X167455476Y-63540952D01*
X167503095Y-63588571D01*
X167550714Y-63683809D01*
X167550714Y-63921904D01*
X167503095Y-64017142D01*
X167455476Y-64064761D01*
X167360238Y-64112380D01*
X167074523Y-64112380D01*
X166979285Y-64064761D01*
X166931666Y-64017142D01*
X170253333Y-64017142D02*
X170205714Y-64064761D01*
X170062857Y-64112380D01*
X169967619Y-64112380D01*
X169824761Y-64064761D01*
X169729523Y-63969523D01*
X169681904Y-63874285D01*
X169634285Y-63683809D01*
X169634285Y-63540952D01*
X169681904Y-63350476D01*
X169729523Y-63255238D01*
X169824761Y-63160000D01*
X169967619Y-63112380D01*
X170062857Y-63112380D01*
X170205714Y-63160000D01*
X170253333Y-63207619D01*
X170634285Y-63207619D02*
X170681904Y-63160000D01*
X170777142Y-63112380D01*
X171015238Y-63112380D01*
X171110476Y-63160000D01*
X171158095Y-63207619D01*
X171205714Y-63302857D01*
X171205714Y-63398095D01*
X171158095Y-63540952D01*
X170586666Y-64112380D01*
X171205714Y-64112380D01*
X167473333Y-60682142D02*
X167425714Y-60729761D01*
X167282857Y-60777380D01*
X167187619Y-60777380D01*
X167044761Y-60729761D01*
X166949523Y-60634523D01*
X166901904Y-60539285D01*
X166854285Y-60348809D01*
X166854285Y-60205952D01*
X166901904Y-60015476D01*
X166949523Y-59920238D01*
X167044761Y-59825000D01*
X167187619Y-59777380D01*
X167282857Y-59777380D01*
X167425714Y-59825000D01*
X167473333Y-59872619D01*
X168425714Y-60777380D02*
X167854285Y-60777380D01*
X168140000Y-60777380D02*
X168140000Y-59777380D01*
X168044761Y-59920238D01*
X167949523Y-60015476D01*
X167854285Y-60063095D01*
M02*
