G04*
G04 #@! TF.GenerationSoftware,Altium Limited,Altium Designer,20.0.10 (225)*
G04*
G04 Layer_Color=32768*
%FSLAX25Y25*%
%MOIN*%
G70*
G01*
G75*
%ADD34C,0.00010*%
D34*
X134600Y57867D02*
Y57800D01*
X134533Y57867D01*
X134517D01*
X134500Y57850D01*
Y57817D01*
X134517Y57800D01*
X134600Y57900D02*
X134583D01*
Y57917D01*
X134600D01*
Y57900D01*
X134517Y58150D02*
X134500Y58133D01*
Y58100D01*
X134517Y58083D01*
X134533D01*
X134550Y58100D01*
Y58133D01*
X134567Y58150D01*
X134583D01*
X134600Y58133D01*
Y58100D01*
X134583Y58083D01*
X134517Y58250D02*
X134500Y58233D01*
Y58200D01*
X134517Y58183D01*
X134533D01*
X134550Y58200D01*
Y58233D01*
X134567Y58250D01*
X134583D01*
X134600Y58233D01*
Y58200D01*
X134583Y58183D01*
X134600Y58383D02*
Y58416D01*
Y58400D01*
X134500D01*
X134517Y58383D01*
Y58467D02*
X134500Y58483D01*
Y58516D01*
X134517Y58533D01*
X134583D01*
X134600Y58516D01*
Y58483D01*
X134583Y58467D01*
X134517D01*
X134600Y58633D02*
Y58566D01*
X134533Y58633D01*
X134517D01*
X134500Y58616D01*
Y58583D01*
X134517Y58566D01*
X134500Y58733D02*
Y58666D01*
X134550D01*
X134533Y58700D01*
Y58716D01*
X134550Y58733D01*
X134583D01*
X134600Y58716D01*
Y58683D01*
X134583Y58666D01*
X134600Y58766D02*
Y58800D01*
Y58783D01*
X134500D01*
X134517Y58766D01*
X134600Y58916D02*
Y58850D01*
X134533Y58916D01*
X134517D01*
X134500Y58900D01*
Y58866D01*
X134517Y58850D01*
X134617Y58966D02*
X134600Y58983D01*
X134583D01*
Y58966D01*
X134600D01*
Y58983D01*
X134617Y58966D01*
X134633Y58950D01*
X134600Y59150D02*
X134533D01*
X134500Y59183D01*
X134533Y59216D01*
X134600D01*
X134550D01*
Y59150D01*
X134500Y59250D02*
X134600D01*
Y59299D01*
X134583Y59316D01*
X134517D01*
X134500Y59299D01*
Y59250D01*
Y59350D02*
X134600D01*
Y59399D01*
X134583Y59416D01*
X134517D01*
X134500Y59399D01*
Y59350D01*
Y59516D02*
Y59449D01*
X134600D01*
Y59516D01*
X134550Y59449D02*
Y59483D01*
X134500Y59549D02*
X134600D01*
Y59600D01*
X134583Y59616D01*
X134517D01*
X134500Y59600D01*
Y59549D01*
X134517Y59816D02*
X134500Y59799D01*
Y59766D01*
X134517Y59749D01*
X134533D01*
X134550Y59766D01*
Y59799D01*
X134567Y59816D01*
X134583D01*
X134600Y59799D01*
Y59766D01*
X134583Y59749D01*
X134500Y59849D02*
Y59883D01*
Y59866D01*
X134600D01*
Y59849D01*
Y59883D01*
X134500Y59933D02*
X134600D01*
Y59999D01*
X134500Y60033D02*
X134600D01*
X134567D01*
X134500Y60099D01*
X134550Y60049D01*
X134600Y60099D01*
X134517Y60199D02*
X134500Y60183D01*
Y60149D01*
X134517Y60133D01*
X134533D01*
X134550Y60149D01*
Y60183D01*
X134567Y60199D01*
X134583D01*
X134600Y60183D01*
Y60149D01*
X134583Y60133D01*
X134517Y60299D02*
X134500Y60283D01*
Y60249D01*
X134517Y60233D01*
X134583D01*
X134600Y60249D01*
Y60283D01*
X134583Y60299D01*
X134600Y60333D02*
X134500D01*
Y60383D01*
X134517Y60399D01*
X134550D01*
X134567Y60383D01*
Y60333D01*
Y60366D02*
X134600Y60399D01*
X134500Y60499D02*
Y60433D01*
X134600D01*
Y60499D01*
X134550Y60433D02*
Y60466D01*
X134500Y60599D02*
Y60532D01*
X134600D01*
Y60599D01*
X134550Y60532D02*
Y60566D01*
X134600Y60632D02*
X134500D01*
X134600Y60699D01*
X134500D01*
X134600Y60733D02*
X134583D01*
Y60749D01*
X134600D01*
Y60733D01*
X134100Y57800D02*
X134200D01*
Y57867D01*
X134100Y57950D02*
Y57917D01*
X134117Y57900D01*
X134183D01*
X134200Y57917D01*
Y57950D01*
X134183Y57967D01*
X134117D01*
X134100Y57950D01*
X134117Y58067D02*
X134100Y58050D01*
Y58017D01*
X134117Y58000D01*
X134183D01*
X134200Y58017D01*
Y58050D01*
X134183Y58067D01*
X134200Y58100D02*
X134133D01*
X134100Y58133D01*
X134133Y58167D01*
X134200D01*
X134150D01*
Y58100D01*
X134100Y58200D02*
Y58267D01*
Y58233D01*
X134200D01*
X134100Y58300D02*
Y58333D01*
Y58316D01*
X134200D01*
Y58300D01*
Y58333D01*
X134100Y58433D02*
Y58400D01*
X134117Y58383D01*
X134183D01*
X134200Y58400D01*
Y58433D01*
X134183Y58450D01*
X134117D01*
X134100Y58433D01*
X134200Y58483D02*
X134100D01*
X134200Y58550D01*
X134100D01*
X134133Y58583D02*
Y58600D01*
X134150D01*
Y58583D01*
X134133D01*
X134183D02*
Y58600D01*
X134200D01*
Y58583D01*
X134183D01*
X134117Y58833D02*
X134100Y58816D01*
Y58783D01*
X134117Y58766D01*
X134133D01*
X134150Y58783D01*
Y58816D01*
X134167Y58833D01*
X134183D01*
X134200Y58816D01*
Y58783D01*
X134183Y58766D01*
X134100Y58866D02*
X134183D01*
X134200Y58883D01*
Y58916D01*
X134183Y58933D01*
X134100D01*
X134200Y58966D02*
X134100D01*
Y59016D01*
X134117Y59033D01*
X134150D01*
X134167Y59016D01*
Y58966D01*
Y59000D02*
X134200Y59033D01*
X134100Y59133D02*
Y59066D01*
X134150D01*
Y59100D01*
Y59066D01*
X134200D01*
Y59166D02*
X134133D01*
X134100Y59200D01*
X134133Y59233D01*
X134200D01*
X134150D01*
Y59166D01*
X134117Y59333D02*
X134100Y59316D01*
Y59283D01*
X134117Y59266D01*
X134183D01*
X134200Y59283D01*
Y59316D01*
X134183Y59333D01*
X134100Y59433D02*
Y59366D01*
X134200D01*
Y59433D01*
X134150Y59366D02*
Y59399D01*
X134200Y59466D02*
X134100D01*
X134133Y59500D01*
X134100Y59533D01*
X134200D01*
X134100Y59616D02*
Y59583D01*
X134117Y59566D01*
X134183D01*
X134200Y59583D01*
Y59616D01*
X134183Y59633D01*
X134117D01*
X134100Y59616D01*
Y59666D02*
X134183D01*
X134200Y59683D01*
Y59716D01*
X134183Y59733D01*
X134100D01*
X134200Y59766D02*
X134100D01*
X134200Y59833D01*
X134100D01*
Y59866D02*
Y59933D01*
Y59899D01*
X134200D01*
Y60033D02*
Y59966D01*
X134133Y60033D01*
X134117D01*
X134100Y60016D01*
Y59983D01*
X134117Y59966D01*
X134100Y60066D02*
X134200D01*
Y60133D01*
X134100Y60233D02*
Y60166D01*
X134200D01*
Y60233D01*
X134150Y60166D02*
Y60199D01*
X134200Y60266D02*
X134133D01*
X134100Y60299D01*
X134133Y60333D01*
X134200D01*
X134150D01*
Y60266D01*
X134100Y60366D02*
X134200D01*
Y60416D01*
X134183Y60433D01*
X134117D01*
X134100Y60416D01*
Y60366D01*
X134200Y60466D02*
X134183D01*
Y60483D01*
X134200D01*
Y60466D01*
Y60549D02*
X134100D01*
Y60599D01*
X134117Y60616D01*
X134150D01*
X134167Y60599D01*
Y60549D01*
X134117Y60716D02*
X134100Y60699D01*
Y60666D01*
X134117Y60649D01*
X134183D01*
X134200Y60666D01*
Y60699D01*
X134183Y60716D01*
X134100Y60749D02*
X134200D01*
Y60799D01*
X134183Y60816D01*
X134167D01*
X134150Y60799D01*
Y60749D01*
Y60799D01*
X134133Y60816D01*
X134117D01*
X134100Y60799D01*
Y60749D01*
Y60849D02*
X134200D01*
Y60916D01*
X134100Y60949D02*
Y60982D01*
Y60966D01*
X134200D01*
Y60949D01*
Y60982D01*
X134100Y61032D02*
X134200D01*
Y61082D01*
X134183Y61099D01*
X134167D01*
X134150Y61082D01*
Y61032D01*
Y61082D01*
X134133Y61099D01*
X134117D01*
X134100Y61082D01*
Y61032D01*
X134300Y57800D02*
X134400D01*
X134350D01*
Y57867D01*
X134300D01*
X134400D01*
X134300Y57900D02*
Y57933D01*
Y57917D01*
X134400D01*
Y57900D01*
Y57933D01*
X134317Y58050D02*
X134300Y58033D01*
Y58000D01*
X134317Y57983D01*
X134333D01*
X134350Y58000D01*
Y58033D01*
X134367Y58050D01*
X134383D01*
X134400Y58033D01*
Y58000D01*
X134383Y57983D01*
X134300Y58083D02*
Y58150D01*
Y58117D01*
X134400D01*
X134300Y58233D02*
Y58200D01*
X134317Y58183D01*
X134383D01*
X134400Y58200D01*
Y58233D01*
X134383Y58250D01*
X134317D01*
X134300Y58233D01*
X134400Y58283D02*
X134300D01*
Y58333D01*
X134317Y58350D01*
X134350D01*
X134367Y58333D01*
Y58283D01*
Y58316D02*
X134400Y58350D01*
X134300Y58383D02*
X134317D01*
X134350Y58416D01*
X134317Y58450D01*
X134300D01*
X134350Y58416D02*
X134400D01*
X134333Y58483D02*
Y58500D01*
X134350D01*
Y58483D01*
X134333D01*
X134383D02*
Y58500D01*
X134400D01*
Y58483D01*
X134383D01*
X134400Y58666D02*
X134300D01*
X134333Y58700D01*
X134300Y58733D01*
X134400D01*
X134300Y58766D02*
Y58833D01*
Y58800D01*
X134400D01*
X134317Y58966D02*
X134300Y58983D01*
Y59016D01*
X134317Y59033D01*
X134383D01*
X134400Y59016D01*
Y58983D01*
X134383Y58966D01*
X134317D01*
X134400Y59133D02*
Y59066D01*
X134333Y59133D01*
X134317D01*
X134300Y59116D01*
Y59083D01*
X134317Y59066D01*
X134400Y59166D02*
Y59200D01*
Y59183D01*
X134300D01*
X134317Y59166D01*
X134300Y59250D02*
Y59316D01*
X134317D01*
X134383Y59250D01*
X134400D01*
Y59350D02*
Y59383D01*
Y59366D01*
X134300D01*
X134317Y59350D01*
X134400Y59433D02*
Y59466D01*
Y59449D01*
X134300D01*
X134317Y59433D01*
X134417Y59533D02*
X134400Y59549D01*
X134383D01*
Y59533D01*
X134400D01*
Y59549D01*
X134417Y59533D01*
X134433Y59516D01*
X134300Y59766D02*
Y59733D01*
X134317Y59716D01*
X134383D01*
X134400Y59733D01*
Y59766D01*
X134383Y59783D01*
X134317D01*
X134300Y59766D01*
Y59816D02*
X134400D01*
Y59883D01*
X134300Y59916D02*
X134400D01*
Y59966D01*
X134383Y59983D01*
X134317D01*
X134300Y59966D01*
Y59916D01*
Y60083D02*
Y60016D01*
X134400D01*
Y60083D01*
X134350Y60016D02*
Y60049D01*
X134400Y60116D02*
X134300D01*
Y60166D01*
X134317Y60183D01*
X134350D01*
X134367Y60166D01*
Y60116D01*
Y60149D02*
X134400Y60183D01*
X134300Y60383D02*
Y60316D01*
X134350D01*
Y60349D01*
Y60316D01*
X134400D01*
X134300Y60466D02*
Y60433D01*
X134317Y60416D01*
X134383D01*
X134400Y60433D01*
Y60466D01*
X134383Y60483D01*
X134317D01*
X134300Y60466D01*
Y60566D02*
Y60532D01*
X134317Y60516D01*
X134383D01*
X134400Y60532D01*
Y60566D01*
X134383Y60583D01*
X134317D01*
X134300Y60566D01*
Y60616D02*
Y60682D01*
Y60649D01*
X134400D01*
Y60716D02*
X134300D01*
Y60766D01*
X134317Y60782D01*
X134350D01*
X134367Y60766D01*
Y60716D01*
X134400Y60816D02*
X134300D01*
Y60866D01*
X134317Y60882D01*
X134350D01*
X134367Y60866D01*
Y60816D01*
Y60849D02*
X134400Y60882D01*
X134300Y60916D02*
Y60949D01*
Y60932D01*
X134400D01*
Y60916D01*
Y60949D01*
Y60999D02*
X134300D01*
X134400Y61066D01*
X134300D01*
Y61099D02*
Y61166D01*
Y61132D01*
X134400D01*
Y61199D02*
X134383D01*
Y61216D01*
X134400D01*
Y61199D01*
X134317Y61449D02*
X134300Y61432D01*
Y61399D01*
X134317Y61382D01*
X134333D01*
X134350Y61399D01*
Y61432D01*
X134367Y61449D01*
X134383D01*
X134400Y61432D01*
Y61399D01*
X134383Y61382D01*
X134300Y61482D02*
Y61549D01*
Y61516D01*
X134400D01*
Y61582D02*
X134333D01*
X134300Y61616D01*
X134333Y61649D01*
X134400D01*
X134350D01*
Y61582D01*
X134400Y61682D02*
X134300D01*
X134400Y61749D01*
X134300D01*
Y61782D02*
X134400D01*
Y61832D01*
X134383Y61849D01*
X134317D01*
X134300Y61832D01*
Y61782D01*
X134400Y61882D02*
X134333D01*
X134300Y61915D01*
X134333Y61949D01*
X134400D01*
X134350D01*
Y61882D01*
X134400Y61982D02*
X134300D01*
Y62032D01*
X134317Y62049D01*
X134350D01*
X134367Y62032D01*
Y61982D01*
Y62015D02*
X134400Y62049D01*
X134300Y62082D02*
X134400D01*
Y62132D01*
X134383Y62149D01*
X134317D01*
X134300Y62132D01*
Y62082D01*
X134400Y62282D02*
X134300D01*
X134333Y62315D01*
X134300Y62349D01*
X134400D01*
Y62382D02*
X134333D01*
X134300Y62415D01*
X134333Y62449D01*
X134400D01*
X134350D01*
Y62382D01*
X134300Y62482D02*
X134400Y62549D01*
X134300D02*
X134400Y62482D01*
X134300Y62682D02*
X134400D01*
X134350D01*
Y62748D01*
X134300D01*
X134400D01*
X134300Y62849D02*
Y62782D01*
X134400D01*
Y62849D01*
X134350Y62782D02*
Y62815D01*
X134300Y62882D02*
Y62915D01*
Y62898D01*
X134400D01*
Y62882D01*
Y62915D01*
X134317Y63032D02*
X134300Y63015D01*
Y62982D01*
X134317Y62965D01*
X134383D01*
X134400Y62982D01*
Y63015D01*
X134383Y63032D01*
X134350D01*
Y62998D01*
X134300Y63065D02*
X134400D01*
X134350D01*
Y63132D01*
X134300D01*
X134400D01*
X134300Y63165D02*
Y63232D01*
Y63198D01*
X134400D01*
Y63365D02*
Y63398D01*
Y63382D01*
X134300D01*
X134317Y63365D01*
X134400Y63448D02*
X134383D01*
Y63465D01*
X134400D01*
Y63448D01*
Y63532D02*
Y63565D01*
Y63548D01*
X134300D01*
X134317Y63532D01*
X134400Y63615D02*
X134300D01*
X134333Y63648D01*
X134300Y63682D01*
X134400D01*
Y63715D02*
X134300D01*
X134333Y63748D01*
X134300Y63782D01*
X134400D01*
M02*
