%TF.GenerationSoftware,Altium Limited,Altium Designer,20.0.13 (296)*%
G04 Layer_Color=0*
%FSLAX26Y26*%
%MOIN*%
%TF.FileFunction,Other,Bottom_Component_Outline*%
%TF.Part,Single*%
G01*
G75*
%TA.AperFunction,NonConductor*%
%ADD189C,0.003937*%
%ADD193C,0.005906*%
%ADD194C,0.000100*%
D189*
X1847362Y1587992D02*
G03*
X1847362Y1587992I-19685J0D01*
G01*
X1659197Y1395591D02*
X1785181D01*
Y1344409D02*
Y1395591D01*
X1659197Y1344409D02*
X1785181D01*
X1659197D02*
Y1395591D01*
X1863110Y1426575D02*
Y1623425D01*
X1705630D02*
X1863110D01*
X1705630Y1426575D02*
X1863110D01*
X1705630D02*
Y1623425D01*
D193*
X589409Y1567520D02*
Y1682480D01*
Y1567520D02*
X640591D01*
Y1682480D01*
X589409D02*
X640591D01*
X199409Y1577480D02*
X250591D01*
X199409Y1462520D02*
X250591D01*
Y1577480D01*
X199409Y1462520D02*
Y1577480D01*
D194*
X3737162Y826167D02*
X3736996Y826000D01*
X3736663D01*
X3736496Y826167D01*
Y826333D01*
X3736663Y826500D01*
X3736996D01*
X3737162Y826667D01*
Y826833D01*
X3736996Y827000D01*
X3736663D01*
X3736496Y826833D01*
X3738162Y826167D02*
X3737995Y826000D01*
X3737662D01*
X3737496Y826167D01*
Y826333D01*
X3737662Y826500D01*
X3737995D01*
X3738162Y826667D01*
Y826833D01*
X3737995Y827000D01*
X3737662D01*
X3737496Y826833D01*
X3739495Y827000D02*
X3739828D01*
X3739662D01*
Y826000D01*
X3739495Y826167D01*
X3740328D02*
X3740495Y826000D01*
X3740828D01*
X3740995Y826167D01*
Y826833D01*
X3740828Y827000D01*
X3740495D01*
X3740328Y826833D01*
Y826167D01*
X3741994Y827000D02*
X3741328D01*
X3741994Y826333D01*
Y826167D01*
X3741828Y826000D01*
X3741494D01*
X3741328Y826167D01*
X3742994Y826000D02*
X3742328D01*
Y826500D01*
X3742661Y826333D01*
X3742827D01*
X3742994Y826500D01*
Y826833D01*
X3742827Y827000D01*
X3742494D01*
X3742328Y826833D01*
X3743327Y827000D02*
X3743660D01*
X3743494D01*
Y826000D01*
X3743327Y826167D01*
X3744827Y827000D02*
X3744160D01*
X3744827Y826333D01*
Y826167D01*
X3744660Y826000D01*
X3744327D01*
X3744160Y826167D01*
X3745327Y827167D02*
X3745493Y827000D01*
Y826833D01*
X3745327D01*
Y827000D01*
X3745493D01*
X3745327Y827167D01*
X3745160Y827333D01*
X3747160Y827000D02*
Y826333D01*
X3747493Y826000D01*
X3747826Y826333D01*
Y827000D01*
Y826500D01*
X3747160D01*
X3748159Y826000D02*
Y827000D01*
X3748659D01*
X3748826Y826833D01*
Y826167D01*
X3748659Y826000D01*
X3748159D01*
X3749159D02*
Y827000D01*
X3749659D01*
X3749825Y826833D01*
Y826167D01*
X3749659Y826000D01*
X3749159D01*
X3750825D02*
X3750159D01*
Y827000D01*
X3750825D01*
X3750159Y826500D02*
X3750492D01*
X3751158Y826000D02*
Y827000D01*
X3751658D01*
X3751825Y826833D01*
Y826167D01*
X3751658Y826000D01*
X3751158D01*
X3753824Y826167D02*
X3753657Y826000D01*
X3753324D01*
X3753158Y826167D01*
Y826333D01*
X3753324Y826500D01*
X3753657D01*
X3753824Y826667D01*
Y826833D01*
X3753657Y827000D01*
X3753324D01*
X3753158Y826833D01*
X3754157Y826000D02*
X3754491D01*
X3754324D01*
Y827000D01*
X3754157D01*
X3754491D01*
X3754990Y826000D02*
Y827000D01*
X3755657D01*
X3755990Y826000D02*
Y827000D01*
Y826667D01*
X3756657Y826000D01*
X3756157Y826500D01*
X3756657Y827000D01*
X3757656Y826167D02*
X3757490Y826000D01*
X3757157D01*
X3756990Y826167D01*
Y826333D01*
X3757157Y826500D01*
X3757490D01*
X3757656Y826667D01*
Y826833D01*
X3757490Y827000D01*
X3757157D01*
X3756990Y826833D01*
X3758656Y826167D02*
X3758489Y826000D01*
X3758156D01*
X3757990Y826167D01*
Y826833D01*
X3758156Y827000D01*
X3758489D01*
X3758656Y826833D01*
X3758989Y827000D02*
Y826000D01*
X3759489D01*
X3759656Y826167D01*
Y826500D01*
X3759489Y826667D01*
X3758989D01*
X3759323D02*
X3759656Y827000D01*
X3760655Y826000D02*
X3759989D01*
Y827000D01*
X3760655D01*
X3759989Y826500D02*
X3760322D01*
X3761655Y826000D02*
X3760989D01*
Y827000D01*
X3761655D01*
X3760989Y826500D02*
X3761322D01*
X3761988Y827000D02*
Y826000D01*
X3762655Y827000D01*
Y826000D01*
X3762988Y827000D02*
Y826833D01*
X3763155D01*
Y827000D01*
X3762988D01*
X2038167Y336963D02*
X2038000Y337130D01*
Y337463D01*
X2038167Y337630D01*
X2038333D01*
X2038500Y337463D01*
Y337130D01*
X2038667Y336963D01*
X2038833D01*
X2039000Y337130D01*
Y337463D01*
X2038833Y337630D01*
X2038167Y335964D02*
X2038000Y336130D01*
Y336464D01*
X2038167Y336630D01*
X2038333D01*
X2038500Y336464D01*
Y336130D01*
X2038667Y335964D01*
X2038833D01*
X2039000Y336130D01*
Y336464D01*
X2038833Y336630D01*
X2039000Y334631D02*
Y334298D01*
Y334464D01*
X2038000D01*
X2038167Y334631D01*
Y333798D02*
X2038000Y333631D01*
Y333298D01*
X2038167Y333131D01*
X2038833D01*
X2039000Y333298D01*
Y333631D01*
X2038833Y333798D01*
X2038167D01*
X2039000Y332132D02*
Y332798D01*
X2038333Y332132D01*
X2038167D01*
X2038000Y332298D01*
Y332631D01*
X2038167Y332798D01*
X2038000Y331132D02*
Y331798D01*
X2038500D01*
X2038333Y331465D01*
Y331298D01*
X2038500Y331132D01*
X2038833D01*
X2039000Y331298D01*
Y331632D01*
X2038833Y331798D01*
X2039000Y330799D02*
Y330465D01*
Y330632D01*
X2038000D01*
X2038167Y330799D01*
X2039000Y329299D02*
Y329966D01*
X2038333Y329299D01*
X2038167D01*
X2038000Y329466D01*
Y329799D01*
X2038167Y329966D01*
X2039167Y328799D02*
X2039000Y328633D01*
X2038833D01*
Y328799D01*
X2039000D01*
Y328633D01*
X2039167Y328799D01*
X2039333Y328966D01*
X2039000Y326966D02*
X2038333D01*
X2038000Y326633D01*
X2038333Y326300D01*
X2039000D01*
X2038500D01*
Y326966D01*
X2038000Y325967D02*
X2039000D01*
Y325467D01*
X2038833Y325300D01*
X2038167D01*
X2038000Y325467D01*
Y325967D01*
Y324967D02*
X2039000D01*
Y324467D01*
X2038833Y324300D01*
X2038167D01*
X2038000Y324467D01*
Y324967D01*
Y323301D02*
Y323967D01*
X2039000D01*
Y323301D01*
X2038500Y323967D02*
Y323634D01*
X2038000Y322968D02*
X2039000D01*
Y322468D01*
X2038833Y322301D01*
X2038167D01*
X2038000Y322468D01*
Y322968D01*
X2038167Y320302D02*
X2038000Y320468D01*
Y320802D01*
X2038167Y320968D01*
X2038333D01*
X2038500Y320802D01*
Y320468D01*
X2038667Y320302D01*
X2038833D01*
X2039000Y320468D01*
Y320802D01*
X2038833Y320968D01*
X2038000Y319969D02*
Y319635D01*
Y319802D01*
X2039000D01*
Y319969D01*
Y319635D01*
X2038000Y319135D02*
X2039000D01*
Y318469D01*
X2038000Y318136D02*
X2039000D01*
X2038667D01*
X2038000Y317469D01*
X2038500Y317969D01*
X2039000Y317469D01*
X2038167Y316469D02*
X2038000Y316636D01*
Y316969D01*
X2038167Y317136D01*
X2038333D01*
X2038500Y316969D01*
Y316636D01*
X2038667Y316469D01*
X2038833D01*
X2039000Y316636D01*
Y316969D01*
X2038833Y317136D01*
X2038167Y315470D02*
X2038000Y315637D01*
Y315970D01*
X2038167Y316136D01*
X2038833D01*
X2039000Y315970D01*
Y315637D01*
X2038833Y315470D01*
X2039000Y315137D02*
X2038000D01*
Y314637D01*
X2038167Y314470D01*
X2038500D01*
X2038667Y314637D01*
Y315137D01*
Y314803D02*
X2039000Y314470D01*
X2038000Y313470D02*
Y314137D01*
X2039000D01*
Y313470D01*
X2038500Y314137D02*
Y313804D01*
X2038000Y312471D02*
Y313137D01*
X2039000D01*
Y312471D01*
X2038500Y313137D02*
Y312804D01*
X2039000Y312137D02*
X2038000D01*
X2039000Y311471D01*
X2038000D01*
X2039000Y311138D02*
X2038833D01*
Y310971D01*
X2039000D01*
Y311138D01*
X1973167Y336334D02*
X1973000Y336500D01*
Y336833D01*
X1973167Y337000D01*
X1973333D01*
X1973500Y336833D01*
Y336500D01*
X1973667Y336334D01*
X1973833D01*
X1974000Y336500D01*
Y336833D01*
X1973833Y337000D01*
X1973167Y335334D02*
X1973000Y335500D01*
Y335834D01*
X1973167Y336000D01*
X1973333D01*
X1973500Y335834D01*
Y335500D01*
X1973667Y335334D01*
X1973833D01*
X1974000Y335500D01*
Y335834D01*
X1973833Y336000D01*
X1974000Y334001D02*
Y333668D01*
Y333834D01*
X1973000D01*
X1973167Y334001D01*
Y333168D02*
X1973000Y333001D01*
Y332668D01*
X1973167Y332501D01*
X1973833D01*
X1974000Y332668D01*
Y333001D01*
X1973833Y333168D01*
X1973167D01*
X1974000Y331502D02*
Y332168D01*
X1973333Y331502D01*
X1973167D01*
X1973000Y331668D01*
Y332002D01*
X1973167Y332168D01*
X1973000Y330502D02*
Y331168D01*
X1973500D01*
X1973333Y330835D01*
Y330669D01*
X1973500Y330502D01*
X1973833D01*
X1974000Y330669D01*
Y331002D01*
X1973833Y331168D01*
X1974000Y330169D02*
Y329836D01*
Y330002D01*
X1973000D01*
X1973167Y330169D01*
X1974000Y328669D02*
Y329336D01*
X1973333Y328669D01*
X1973167D01*
X1973000Y328836D01*
Y329169D01*
X1973167Y329336D01*
X1974167Y328169D02*
X1974000Y328003D01*
X1973833D01*
Y328169D01*
X1974000D01*
Y328003D01*
X1974167Y328169D01*
X1974333Y328336D01*
X1974000Y326337D02*
X1973333D01*
X1973000Y326003D01*
X1973333Y325670D01*
X1974000D01*
X1973500D01*
Y326337D01*
X1973000Y325337D02*
X1974000D01*
Y324837D01*
X1973833Y324670D01*
X1973167D01*
X1973000Y324837D01*
Y325337D01*
Y324337D02*
X1974000D01*
Y323837D01*
X1973833Y323671D01*
X1973167D01*
X1973000Y323837D01*
Y324337D01*
Y322671D02*
Y323337D01*
X1974000D01*
Y322671D01*
X1973500Y323337D02*
Y323004D01*
X1973000Y322338D02*
X1974000D01*
Y321838D01*
X1973833Y321671D01*
X1973167D01*
X1973000Y321838D01*
Y322338D01*
X1973167Y319672D02*
X1973000Y319839D01*
Y320172D01*
X1973167Y320338D01*
X1973333D01*
X1973500Y320172D01*
Y319839D01*
X1973667Y319672D01*
X1973833D01*
X1974000Y319839D01*
Y320172D01*
X1973833Y320338D01*
X1973000Y319339D02*
Y319005D01*
Y319172D01*
X1974000D01*
Y319339D01*
Y319005D01*
X1973000Y318505D02*
X1974000D01*
Y317839D01*
X1973000Y317506D02*
X1974000D01*
X1973667D01*
X1973000Y316839D01*
X1973500Y317339D01*
X1974000Y316839D01*
X1973167Y315840D02*
X1973000Y316006D01*
Y316339D01*
X1973167Y316506D01*
X1973333D01*
X1973500Y316339D01*
Y316006D01*
X1973667Y315840D01*
X1973833D01*
X1974000Y316006D01*
Y316339D01*
X1973833Y316506D01*
X1973167Y314840D02*
X1973000Y315007D01*
Y315340D01*
X1973167Y315506D01*
X1973833D01*
X1974000Y315340D01*
Y315007D01*
X1973833Y314840D01*
X1974000Y314507D02*
X1973000D01*
Y314007D01*
X1973167Y313840D01*
X1973500D01*
X1973667Y314007D01*
Y314507D01*
Y314173D02*
X1974000Y313840D01*
X1973000Y312841D02*
Y313507D01*
X1974000D01*
Y312841D01*
X1973500Y313507D02*
Y313174D01*
X1973000Y311841D02*
Y312507D01*
X1974000D01*
Y311841D01*
X1973500Y312507D02*
Y312174D01*
X1974000Y311508D02*
X1973000D01*
X1974000Y310841D01*
X1973000D01*
X1974000Y310508D02*
X1973833D01*
Y310341D01*
X1974000D01*
Y310508D01*
X1291924Y159235D02*
X1292091Y159401D01*
X1292424D01*
X1292591Y159235D01*
Y159068D01*
X1292424Y158901D01*
X1292091D01*
X1291924Y158735D01*
Y158568D01*
X1292091Y158401D01*
X1292424D01*
X1292591Y158568D01*
X1290924Y159235D02*
X1291091Y159401D01*
X1291424D01*
X1291591Y159235D01*
Y159068D01*
X1291424Y158901D01*
X1291091D01*
X1290924Y158735D01*
Y158568D01*
X1291091Y158401D01*
X1291424D01*
X1291591Y158568D01*
X1289591Y158401D02*
X1289258D01*
X1289425D01*
Y159401D01*
X1289591Y159235D01*
X1288758D02*
X1288592Y159401D01*
X1288259D01*
X1288092Y159235D01*
Y158568D01*
X1288259Y158401D01*
X1288592D01*
X1288758Y158568D01*
Y159235D01*
X1287092Y158401D02*
X1287759D01*
X1287092Y159068D01*
Y159235D01*
X1287259Y159401D01*
X1287592D01*
X1287759Y159235D01*
X1286092Y159401D02*
X1286759D01*
Y158901D01*
X1286426Y159068D01*
X1286259D01*
X1286092Y158901D01*
Y158568D01*
X1286259Y158401D01*
X1286592D01*
X1286759Y158568D01*
X1285759Y158401D02*
X1285426D01*
X1285593D01*
Y159401D01*
X1285759Y159235D01*
X1284260Y158401D02*
X1284926D01*
X1284260Y159068D01*
Y159235D01*
X1284426Y159401D01*
X1284760D01*
X1284926Y159235D01*
X1283760Y158235D02*
X1283593Y158401D01*
Y158568D01*
X1283760D01*
Y158401D01*
X1283593D01*
X1283760Y158235D01*
X1283927Y158068D01*
X1281927Y158401D02*
Y159068D01*
X1281594Y159401D01*
X1281261Y159068D01*
Y158401D01*
Y158901D01*
X1281927D01*
X1280927Y159401D02*
Y158401D01*
X1280428D01*
X1280261Y158568D01*
Y159235D01*
X1280428Y159401D01*
X1280927D01*
X1279928D02*
Y158401D01*
X1279428D01*
X1279261Y158568D01*
Y159235D01*
X1279428Y159401D01*
X1279928D01*
X1278262D02*
X1278928D01*
Y158401D01*
X1278262D01*
X1278928Y158901D02*
X1278595D01*
X1277928Y159401D02*
Y158401D01*
X1277428D01*
X1277262Y158568D01*
Y159235D01*
X1277428Y159401D01*
X1277928D01*
X1275262Y159235D02*
X1275429Y159401D01*
X1275762D01*
X1275929Y159235D01*
Y159068D01*
X1275762Y158901D01*
X1275429D01*
X1275262Y158735D01*
Y158568D01*
X1275429Y158401D01*
X1275762D01*
X1275929Y158568D01*
X1274929Y159401D02*
X1274596D01*
X1274763D01*
Y158401D01*
X1274929D01*
X1274596D01*
X1274096Y159401D02*
Y158401D01*
X1273430D01*
X1273096Y159401D02*
Y158401D01*
Y158735D01*
X1272430Y159401D01*
X1272930Y158901D01*
X1272430Y158401D01*
X1271430Y159235D02*
X1271597Y159401D01*
X1271930D01*
X1272097Y159235D01*
Y159068D01*
X1271930Y158901D01*
X1271597D01*
X1271430Y158735D01*
Y158568D01*
X1271597Y158401D01*
X1271930D01*
X1272097Y158568D01*
X1270430Y159235D02*
X1270597Y159401D01*
X1270930D01*
X1271097Y159235D01*
Y158568D01*
X1270930Y158401D01*
X1270597D01*
X1270430Y158568D01*
X1270097Y158401D02*
Y159401D01*
X1269598D01*
X1269431Y159235D01*
Y158901D01*
X1269598Y158735D01*
X1270097D01*
X1269764D02*
X1269431Y158401D01*
X1268431Y159401D02*
X1269098D01*
Y158401D01*
X1268431D01*
X1269098Y158901D02*
X1268764D01*
X1267431Y159401D02*
X1268098D01*
Y158401D01*
X1267431D01*
X1268098Y158901D02*
X1267765D01*
X1267098Y158401D02*
Y159401D01*
X1266432Y158401D01*
Y159401D01*
X1266099Y158401D02*
Y158568D01*
X1265932D01*
Y158401D01*
X1266099D01*
X1919510Y404542D02*
X1919677Y404375D01*
Y404042D01*
X1919510Y403875D01*
X1919344D01*
X1919177Y404042D01*
Y404375D01*
X1919010Y404542D01*
X1918844D01*
X1918677Y404375D01*
Y404042D01*
X1918844Y403875D01*
X1919510Y405542D02*
X1919677Y405375D01*
Y405042D01*
X1919510Y404875D01*
X1919344D01*
X1919177Y405042D01*
Y405375D01*
X1919010Y405542D01*
X1918844D01*
X1918677Y405375D01*
Y405042D01*
X1918844Y404875D01*
X1918677Y406875D02*
Y407208D01*
Y407041D01*
X1919677D01*
X1919510Y406875D01*
Y407708D02*
X1919677Y407874D01*
Y408207D01*
X1919510Y408374D01*
X1918844D01*
X1918677Y408207D01*
Y407874D01*
X1918844Y407708D01*
X1919510D01*
X1918677Y409374D02*
Y408707D01*
X1919344Y409374D01*
X1919510D01*
X1919677Y409207D01*
Y408874D01*
X1919510Y408707D01*
X1919677Y410373D02*
Y409707D01*
X1919177D01*
X1919344Y410040D01*
Y410207D01*
X1919177Y410373D01*
X1918844D01*
X1918677Y410207D01*
Y409874D01*
X1918844Y409707D01*
X1918677Y410707D02*
Y411040D01*
Y410873D01*
X1919677D01*
X1919510Y410707D01*
X1918677Y412206D02*
Y411540D01*
X1919344Y412206D01*
X1919510D01*
X1919677Y412040D01*
Y411706D01*
X1919510Y411540D01*
X1918511Y412706D02*
X1918677Y412873D01*
X1918844D01*
Y412706D01*
X1918677D01*
Y412873D01*
X1918511Y412706D01*
X1918344Y412539D01*
X1918677Y414539D02*
X1919344D01*
X1919677Y414872D01*
X1919344Y415205D01*
X1918677D01*
X1919177D01*
Y414539D01*
X1919677Y415539D02*
X1918677D01*
Y416038D01*
X1918844Y416205D01*
X1919510D01*
X1919677Y416038D01*
Y415539D01*
Y416538D02*
X1918677D01*
Y417038D01*
X1918844Y417205D01*
X1919510D01*
X1919677Y417038D01*
Y416538D01*
Y418204D02*
Y417538D01*
X1918677D01*
Y418204D01*
X1919177Y417538D02*
Y417871D01*
X1919677Y418538D02*
X1918677D01*
Y419038D01*
X1918844Y419204D01*
X1919510D01*
X1919677Y419038D01*
Y418538D01*
X1919510Y421204D02*
X1919677Y421037D01*
Y420704D01*
X1919510Y420537D01*
X1919344D01*
X1919177Y420704D01*
Y421037D01*
X1919010Y421204D01*
X1918844D01*
X1918677Y421037D01*
Y420704D01*
X1918844Y420537D01*
X1919677Y421537D02*
Y421870D01*
Y421703D01*
X1918677D01*
Y421537D01*
Y421870D01*
X1919677Y422370D02*
X1918677D01*
Y423036D01*
X1919677Y423370D02*
X1918677D01*
X1919010D01*
X1919677Y424036D01*
X1919177Y423536D01*
X1918677Y424036D01*
X1919510Y425036D02*
X1919677Y424869D01*
Y424536D01*
X1919510Y424369D01*
X1919344D01*
X1919177Y424536D01*
Y424869D01*
X1919010Y425036D01*
X1918844D01*
X1918677Y424869D01*
Y424536D01*
X1918844Y424369D01*
X1919510Y426036D02*
X1919677Y425869D01*
Y425536D01*
X1919510Y425369D01*
X1918844D01*
X1918677Y425536D01*
Y425869D01*
X1918844Y426036D01*
X1918677Y426369D02*
X1919677D01*
Y426868D01*
X1919510Y427035D01*
X1919177D01*
X1919010Y426868D01*
Y426369D01*
Y426702D02*
X1918677Y427035D01*
X1919677Y428035D02*
Y427368D01*
X1918677D01*
Y428035D01*
X1919177Y427368D02*
Y427702D01*
X1919677Y429035D02*
Y428368D01*
X1918677D01*
Y429035D01*
X1919177Y428368D02*
Y428701D01*
X1918677Y429368D02*
X1919677D01*
X1918677Y430034D01*
X1919677D01*
X1918677Y430368D02*
X1918844D01*
Y430534D01*
X1918677D01*
Y430368D01*
X2165573Y223667D02*
X2165740Y223500D01*
Y223167D01*
X2165573Y223000D01*
X2165407D01*
X2165240Y223167D01*
Y223500D01*
X2165073Y223667D01*
X2164907D01*
X2164740Y223500D01*
Y223167D01*
X2164907Y223000D01*
X2165573Y224666D02*
X2165740Y224500D01*
Y224166D01*
X2165573Y224000D01*
X2165407D01*
X2165240Y224166D01*
Y224500D01*
X2165073Y224666D01*
X2164907D01*
X2164740Y224500D01*
Y224166D01*
X2164907Y224000D01*
X2164740Y225999D02*
Y226332D01*
Y226166D01*
X2165740D01*
X2165573Y225999D01*
Y226832D02*
X2165740Y226999D01*
Y227332D01*
X2165573Y227499D01*
X2164907D01*
X2164740Y227332D01*
Y226999D01*
X2164907Y226832D01*
X2165573D01*
X2164740Y228498D02*
Y227832D01*
X2165407Y228498D01*
X2165573D01*
X2165740Y228332D01*
Y227999D01*
X2165573Y227832D01*
X2165740Y229498D02*
Y228832D01*
X2165240D01*
X2165407Y229165D01*
Y229331D01*
X2165240Y229498D01*
X2164907D01*
X2164740Y229331D01*
Y228998D01*
X2164907Y228832D01*
X2164740Y229831D02*
Y230165D01*
Y229998D01*
X2165740D01*
X2165573Y229831D01*
X2164740Y231331D02*
Y230664D01*
X2165407Y231331D01*
X2165573D01*
X2165740Y231164D01*
Y230831D01*
X2165573Y230664D01*
X2164573Y231831D02*
X2164740Y231997D01*
X2164907D01*
Y231831D01*
X2164740D01*
Y231997D01*
X2164573Y231831D01*
X2164407Y231664D01*
X2164740Y233663D02*
X2165407D01*
X2165740Y233997D01*
X2165407Y234330D01*
X2164740D01*
X2165240D01*
Y233663D01*
X2165740Y234663D02*
X2164740D01*
Y235163D01*
X2164907Y235330D01*
X2165573D01*
X2165740Y235163D01*
Y234663D01*
Y235663D02*
X2164740D01*
Y236163D01*
X2164907Y236329D01*
X2165573D01*
X2165740Y236163D01*
Y235663D01*
Y237329D02*
Y236663D01*
X2164740D01*
Y237329D01*
X2165240Y236663D02*
Y236996D01*
X2165740Y237662D02*
X2164740D01*
Y238162D01*
X2164907Y238329D01*
X2165573D01*
X2165740Y238162D01*
Y237662D01*
X2165573Y240328D02*
X2165740Y240161D01*
Y239828D01*
X2165573Y239662D01*
X2165407D01*
X2165240Y239828D01*
Y240161D01*
X2165073Y240328D01*
X2164907D01*
X2164740Y240161D01*
Y239828D01*
X2164907Y239662D01*
X2165740Y240661D02*
Y240995D01*
Y240828D01*
X2164740D01*
Y240661D01*
Y240995D01*
X2165740Y241494D02*
X2164740D01*
Y242161D01*
X2165740Y242494D02*
X2164740D01*
X2165073D01*
X2165740Y243161D01*
X2165240Y242661D01*
X2164740Y243161D01*
X2165573Y244160D02*
X2165740Y243994D01*
Y243661D01*
X2165573Y243494D01*
X2165407D01*
X2165240Y243661D01*
Y243994D01*
X2165073Y244160D01*
X2164907D01*
X2164740Y243994D01*
Y243661D01*
X2164907Y243494D01*
X2165573Y245160D02*
X2165740Y244993D01*
Y244660D01*
X2165573Y244494D01*
X2164907D01*
X2164740Y244660D01*
Y244993D01*
X2164907Y245160D01*
X2164740Y245493D02*
X2165740D01*
Y245993D01*
X2165573Y246160D01*
X2165240D01*
X2165073Y245993D01*
Y245493D01*
Y245827D02*
X2164740Y246160D01*
X2165740Y247160D02*
Y246493D01*
X2164740D01*
Y247160D01*
X2165240Y246493D02*
Y246826D01*
X2165740Y248159D02*
Y247493D01*
X2164740D01*
Y248159D01*
X2165240Y247493D02*
Y247826D01*
X2164740Y248492D02*
X2165740D01*
X2164740Y249159D01*
X2165740D01*
X2164740Y249492D02*
X2164907D01*
Y249659D01*
X2164740D01*
Y249492D01*
X2222463Y223667D02*
X2222630Y223500D01*
Y223167D01*
X2222463Y223000D01*
X2222296D01*
X2222130Y223167D01*
Y223500D01*
X2221963Y223667D01*
X2221796D01*
X2221630Y223500D01*
Y223167D01*
X2221796Y223000D01*
X2222463Y224666D02*
X2222630Y224500D01*
Y224166D01*
X2222463Y224000D01*
X2222296D01*
X2222130Y224166D01*
Y224500D01*
X2221963Y224666D01*
X2221796D01*
X2221630Y224500D01*
Y224166D01*
X2221796Y224000D01*
X2221630Y225999D02*
Y226332D01*
Y226166D01*
X2222630D01*
X2222463Y225999D01*
Y226832D02*
X2222630Y226999D01*
Y227332D01*
X2222463Y227499D01*
X2221796D01*
X2221630Y227332D01*
Y226999D01*
X2221796Y226832D01*
X2222463D01*
X2221630Y228498D02*
Y227832D01*
X2222296Y228498D01*
X2222463D01*
X2222630Y228332D01*
Y227999D01*
X2222463Y227832D01*
X2222630Y229498D02*
Y228832D01*
X2222130D01*
X2222296Y229165D01*
Y229331D01*
X2222130Y229498D01*
X2221796D01*
X2221630Y229331D01*
Y228998D01*
X2221796Y228832D01*
X2221630Y229831D02*
Y230165D01*
Y229998D01*
X2222630D01*
X2222463Y229831D01*
X2221630Y231331D02*
Y230664D01*
X2222296Y231331D01*
X2222463D01*
X2222630Y231164D01*
Y230831D01*
X2222463Y230664D01*
X2221463Y231831D02*
X2221630Y231997D01*
X2221796D01*
Y231831D01*
X2221630D01*
Y231997D01*
X2221463Y231831D01*
X2221297Y231664D01*
X2221630Y233663D02*
X2222296D01*
X2222630Y233997D01*
X2222296Y234330D01*
X2221630D01*
X2222130D01*
Y233663D01*
X2222630Y234663D02*
X2221630D01*
Y235163D01*
X2221796Y235330D01*
X2222463D01*
X2222630Y235163D01*
Y234663D01*
Y235663D02*
X2221630D01*
Y236163D01*
X2221796Y236329D01*
X2222463D01*
X2222630Y236163D01*
Y235663D01*
Y237329D02*
Y236663D01*
X2221630D01*
Y237329D01*
X2222130Y236663D02*
Y236996D01*
X2222630Y237662D02*
X2221630D01*
Y238162D01*
X2221796Y238329D01*
X2222463D01*
X2222630Y238162D01*
Y237662D01*
X2222463Y240328D02*
X2222630Y240161D01*
Y239828D01*
X2222463Y239662D01*
X2222296D01*
X2222130Y239828D01*
Y240161D01*
X2221963Y240328D01*
X2221796D01*
X2221630Y240161D01*
Y239828D01*
X2221796Y239662D01*
X2222630Y240661D02*
Y240995D01*
Y240828D01*
X2221630D01*
Y240661D01*
Y240995D01*
X2222630Y241494D02*
X2221630D01*
Y242161D01*
X2222630Y242494D02*
X2221630D01*
X2221963D01*
X2222630Y243161D01*
X2222130Y242661D01*
X2221630Y243161D01*
X2222463Y244160D02*
X2222630Y243994D01*
Y243661D01*
X2222463Y243494D01*
X2222296D01*
X2222130Y243661D01*
Y243994D01*
X2221963Y244160D01*
X2221796D01*
X2221630Y243994D01*
Y243661D01*
X2221796Y243494D01*
X2222463Y245160D02*
X2222630Y244993D01*
Y244660D01*
X2222463Y244494D01*
X2221796D01*
X2221630Y244660D01*
Y244993D01*
X2221796Y245160D01*
X2221630Y245493D02*
X2222630D01*
Y245993D01*
X2222463Y246160D01*
X2222130D01*
X2221963Y245993D01*
Y245493D01*
Y245827D02*
X2221630Y246160D01*
X2222630Y247160D02*
Y246493D01*
X2221630D01*
Y247160D01*
X2222130Y246493D02*
Y246826D01*
X2222630Y248159D02*
Y247493D01*
X2221630D01*
Y248159D01*
X2222130Y247493D02*
Y247826D01*
X2221630Y248492D02*
X2222630D01*
X2221630Y249159D01*
X2222630D01*
X2221630Y249492D02*
X2221796D01*
Y249659D01*
X2221630D01*
Y249492D01*
X1398036Y1508167D02*
X1397870Y1508000D01*
X1397537D01*
X1397370Y1508167D01*
Y1508333D01*
X1397537Y1508500D01*
X1397870D01*
X1398036Y1508667D01*
Y1508833D01*
X1397870Y1509000D01*
X1397537D01*
X1397370Y1508833D01*
X1399036Y1508167D02*
X1398870Y1508000D01*
X1398536D01*
X1398370Y1508167D01*
Y1508333D01*
X1398536Y1508500D01*
X1398870D01*
X1399036Y1508667D01*
Y1508833D01*
X1398870Y1509000D01*
X1398536D01*
X1398370Y1508833D01*
X1400369Y1509000D02*
X1400702D01*
X1400536D01*
Y1508000D01*
X1400369Y1508167D01*
X1401202D02*
X1401369Y1508000D01*
X1401702D01*
X1401869Y1508167D01*
Y1508833D01*
X1401702Y1509000D01*
X1401369D01*
X1401202Y1508833D01*
Y1508167D01*
X1402868Y1509000D02*
X1402202D01*
X1402868Y1508333D01*
Y1508167D01*
X1402702Y1508000D01*
X1402369D01*
X1402202Y1508167D01*
X1403868Y1508000D02*
X1403202D01*
Y1508500D01*
X1403535Y1508333D01*
X1403701D01*
X1403868Y1508500D01*
Y1508833D01*
X1403701Y1509000D01*
X1403368D01*
X1403202Y1508833D01*
X1404201Y1509000D02*
X1404534D01*
X1404368D01*
Y1508000D01*
X1404201Y1508167D01*
X1405701Y1509000D02*
X1405034D01*
X1405701Y1508333D01*
Y1508167D01*
X1405534Y1508000D01*
X1405201D01*
X1405034Y1508167D01*
X1406201Y1509167D02*
X1406367Y1509000D01*
Y1508833D01*
X1406201D01*
Y1509000D01*
X1406367D01*
X1406201Y1509167D01*
X1406034Y1509333D01*
X1408034Y1509000D02*
Y1508333D01*
X1408367Y1508000D01*
X1408700Y1508333D01*
Y1509000D01*
Y1508500D01*
X1408034D01*
X1409033Y1508000D02*
Y1509000D01*
X1409533D01*
X1409700Y1508833D01*
Y1508167D01*
X1409533Y1508000D01*
X1409033D01*
X1410033D02*
Y1509000D01*
X1410533D01*
X1410699Y1508833D01*
Y1508167D01*
X1410533Y1508000D01*
X1410033D01*
X1411699D02*
X1411033D01*
Y1509000D01*
X1411699D01*
X1411033Y1508500D02*
X1411366D01*
X1412032Y1508000D02*
Y1509000D01*
X1412532D01*
X1412699Y1508833D01*
Y1508167D01*
X1412532Y1508000D01*
X1412032D01*
X1414698Y1508167D02*
X1414532Y1508000D01*
X1414198D01*
X1414032Y1508167D01*
Y1508333D01*
X1414198Y1508500D01*
X1414532D01*
X1414698Y1508667D01*
Y1508833D01*
X1414532Y1509000D01*
X1414198D01*
X1414032Y1508833D01*
X1415031Y1508000D02*
X1415365D01*
X1415198D01*
Y1509000D01*
X1415031D01*
X1415365D01*
X1415864Y1508000D02*
Y1509000D01*
X1416531D01*
X1416864Y1508000D02*
Y1509000D01*
Y1508667D01*
X1417531Y1508000D01*
X1417031Y1508500D01*
X1417531Y1509000D01*
X1418530Y1508167D02*
X1418364Y1508000D01*
X1418031D01*
X1417864Y1508167D01*
Y1508333D01*
X1418031Y1508500D01*
X1418364D01*
X1418530Y1508667D01*
Y1508833D01*
X1418364Y1509000D01*
X1418031D01*
X1417864Y1508833D01*
X1419530Y1508167D02*
X1419363Y1508000D01*
X1419030D01*
X1418864Y1508167D01*
Y1508833D01*
X1419030Y1509000D01*
X1419363D01*
X1419530Y1508833D01*
X1419863Y1509000D02*
Y1508000D01*
X1420363D01*
X1420530Y1508167D01*
Y1508500D01*
X1420363Y1508667D01*
X1419863D01*
X1420197D02*
X1420530Y1509000D01*
X1421530Y1508000D02*
X1420863D01*
Y1509000D01*
X1421530D01*
X1420863Y1508500D02*
X1421196D01*
X1422529Y1508000D02*
X1421863D01*
Y1509000D01*
X1422529D01*
X1421863Y1508500D02*
X1422196D01*
X1422862Y1509000D02*
Y1508000D01*
X1423529Y1509000D01*
Y1508000D01*
X1423862Y1509000D02*
Y1508833D01*
X1424029D01*
Y1509000D01*
X1423862D01*
X1398036Y1578167D02*
X1397870Y1578000D01*
X1397537D01*
X1397370Y1578167D01*
Y1578333D01*
X1397537Y1578500D01*
X1397870D01*
X1398036Y1578667D01*
Y1578833D01*
X1397870Y1579000D01*
X1397537D01*
X1397370Y1578833D01*
X1399036Y1578167D02*
X1398870Y1578000D01*
X1398536D01*
X1398370Y1578167D01*
Y1578333D01*
X1398536Y1578500D01*
X1398870D01*
X1399036Y1578667D01*
Y1578833D01*
X1398870Y1579000D01*
X1398536D01*
X1398370Y1578833D01*
X1400369Y1579000D02*
X1400702D01*
X1400536D01*
Y1578000D01*
X1400369Y1578167D01*
X1401202D02*
X1401369Y1578000D01*
X1401702D01*
X1401869Y1578167D01*
Y1578833D01*
X1401702Y1579000D01*
X1401369D01*
X1401202Y1578833D01*
Y1578167D01*
X1402868Y1579000D02*
X1402202D01*
X1402868Y1578333D01*
Y1578167D01*
X1402702Y1578000D01*
X1402369D01*
X1402202Y1578167D01*
X1403868Y1578000D02*
X1403202D01*
Y1578500D01*
X1403535Y1578333D01*
X1403701D01*
X1403868Y1578500D01*
Y1578833D01*
X1403701Y1579000D01*
X1403368D01*
X1403202Y1578833D01*
X1404201Y1579000D02*
X1404534D01*
X1404368D01*
Y1578000D01*
X1404201Y1578167D01*
X1405701Y1579000D02*
X1405034D01*
X1405701Y1578333D01*
Y1578167D01*
X1405534Y1578000D01*
X1405201D01*
X1405034Y1578167D01*
X1406201Y1579167D02*
X1406367Y1579000D01*
Y1578833D01*
X1406201D01*
Y1579000D01*
X1406367D01*
X1406201Y1579167D01*
X1406034Y1579333D01*
X1408034Y1579000D02*
Y1578333D01*
X1408367Y1578000D01*
X1408700Y1578333D01*
Y1579000D01*
Y1578500D01*
X1408034D01*
X1409033Y1578000D02*
Y1579000D01*
X1409533D01*
X1409700Y1578833D01*
Y1578167D01*
X1409533Y1578000D01*
X1409033D01*
X1410033D02*
Y1579000D01*
X1410533D01*
X1410699Y1578833D01*
Y1578167D01*
X1410533Y1578000D01*
X1410033D01*
X1411699D02*
X1411033D01*
Y1579000D01*
X1411699D01*
X1411033Y1578500D02*
X1411366D01*
X1412032Y1578000D02*
Y1579000D01*
X1412532D01*
X1412699Y1578833D01*
Y1578167D01*
X1412532Y1578000D01*
X1412032D01*
X1414698Y1578167D02*
X1414532Y1578000D01*
X1414198D01*
X1414032Y1578167D01*
Y1578333D01*
X1414198Y1578500D01*
X1414532D01*
X1414698Y1578667D01*
Y1578833D01*
X1414532Y1579000D01*
X1414198D01*
X1414032Y1578833D01*
X1415031Y1578000D02*
X1415365D01*
X1415198D01*
Y1579000D01*
X1415031D01*
X1415365D01*
X1415864Y1578000D02*
Y1579000D01*
X1416531D01*
X1416864Y1578000D02*
Y1579000D01*
Y1578667D01*
X1417531Y1578000D01*
X1417031Y1578500D01*
X1417531Y1579000D01*
X1418530Y1578167D02*
X1418364Y1578000D01*
X1418031D01*
X1417864Y1578167D01*
Y1578333D01*
X1418031Y1578500D01*
X1418364D01*
X1418530Y1578667D01*
Y1578833D01*
X1418364Y1579000D01*
X1418031D01*
X1417864Y1578833D01*
X1419530Y1578167D02*
X1419363Y1578000D01*
X1419030D01*
X1418864Y1578167D01*
Y1578833D01*
X1419030Y1579000D01*
X1419363D01*
X1419530Y1578833D01*
X1419863Y1579000D02*
Y1578000D01*
X1420363D01*
X1420530Y1578167D01*
Y1578500D01*
X1420363Y1578667D01*
X1419863D01*
X1420197D02*
X1420530Y1579000D01*
X1421530Y1578000D02*
X1420863D01*
Y1579000D01*
X1421530D01*
X1420863Y1578500D02*
X1421196D01*
X1422529Y1578000D02*
X1421863D01*
Y1579000D01*
X1422529D01*
X1421863Y1578500D02*
X1422196D01*
X1422862Y1579000D02*
Y1578000D01*
X1423529Y1579000D01*
Y1578000D01*
X1423862Y1579000D02*
Y1578833D01*
X1424029D01*
Y1579000D01*
X1423862D01*
X3592666Y826167D02*
X3592500Y826000D01*
X3592167D01*
X3592000Y826167D01*
Y826333D01*
X3592167Y826500D01*
X3592500D01*
X3592666Y826667D01*
Y826833D01*
X3592500Y827000D01*
X3592167D01*
X3592000Y826833D01*
X3593666Y826167D02*
X3593499Y826000D01*
X3593166D01*
X3593000Y826167D01*
Y826333D01*
X3593166Y826500D01*
X3593499D01*
X3593666Y826667D01*
Y826833D01*
X3593499Y827000D01*
X3593166D01*
X3593000Y826833D01*
X3594999Y827000D02*
X3595332D01*
X3595166D01*
Y826000D01*
X3594999Y826167D01*
X3595832D02*
X3595999Y826000D01*
X3596332D01*
X3596499Y826167D01*
Y826833D01*
X3596332Y827000D01*
X3595999D01*
X3595832Y826833D01*
Y826167D01*
X3597498Y827000D02*
X3596832D01*
X3597498Y826333D01*
Y826167D01*
X3597332Y826000D01*
X3596999D01*
X3596832Y826167D01*
X3598498Y826000D02*
X3597832D01*
Y826500D01*
X3598165Y826333D01*
X3598331D01*
X3598498Y826500D01*
Y826833D01*
X3598331Y827000D01*
X3597998D01*
X3597832Y826833D01*
X3598831Y827000D02*
X3599164D01*
X3598998D01*
Y826000D01*
X3598831Y826167D01*
X3600331Y827000D02*
X3599664D01*
X3600331Y826333D01*
Y826167D01*
X3600164Y826000D01*
X3599831D01*
X3599664Y826167D01*
X3600831Y827167D02*
X3600997Y827000D01*
Y826833D01*
X3600831D01*
Y827000D01*
X3600997D01*
X3600831Y827167D01*
X3600664Y827333D01*
X3602664Y827000D02*
Y826333D01*
X3602997Y826000D01*
X3603330Y826333D01*
Y827000D01*
Y826500D01*
X3602664D01*
X3603663Y826000D02*
Y827000D01*
X3604163D01*
X3604330Y826833D01*
Y826167D01*
X3604163Y826000D01*
X3603663D01*
X3604663D02*
Y827000D01*
X3605163D01*
X3605329Y826833D01*
Y826167D01*
X3605163Y826000D01*
X3604663D01*
X3606329D02*
X3605663D01*
Y827000D01*
X3606329D01*
X3605663Y826500D02*
X3605996D01*
X3606662Y826000D02*
Y827000D01*
X3607162D01*
X3607329Y826833D01*
Y826167D01*
X3607162Y826000D01*
X3606662D01*
X3609328Y826167D02*
X3609162Y826000D01*
X3608828D01*
X3608662Y826167D01*
Y826333D01*
X3608828Y826500D01*
X3609162D01*
X3609328Y826667D01*
Y826833D01*
X3609162Y827000D01*
X3608828D01*
X3608662Y826833D01*
X3609661Y826000D02*
X3609995D01*
X3609828D01*
Y827000D01*
X3609661D01*
X3609995D01*
X3610494Y826000D02*
Y827000D01*
X3611161D01*
X3611494Y826000D02*
Y827000D01*
Y826667D01*
X3612161Y826000D01*
X3611661Y826500D01*
X3612161Y827000D01*
X3613160Y826167D02*
X3612994Y826000D01*
X3612660D01*
X3612494Y826167D01*
Y826333D01*
X3612660Y826500D01*
X3612994D01*
X3613160Y826667D01*
Y826833D01*
X3612994Y827000D01*
X3612660D01*
X3612494Y826833D01*
X3614160Y826167D02*
X3613993Y826000D01*
X3613660D01*
X3613494Y826167D01*
Y826833D01*
X3613660Y827000D01*
X3613993D01*
X3614160Y826833D01*
X3614493Y827000D02*
Y826000D01*
X3614993D01*
X3615160Y826167D01*
Y826500D01*
X3614993Y826667D01*
X3614493D01*
X3614827D02*
X3615160Y827000D01*
X3616160Y826000D02*
X3615493D01*
Y827000D01*
X3616160D01*
X3615493Y826500D02*
X3615826D01*
X3617159Y826000D02*
X3616493D01*
Y827000D01*
X3617159D01*
X3616493Y826500D02*
X3616826D01*
X3617492Y827000D02*
Y826000D01*
X3618159Y827000D01*
Y826000D01*
X3618492Y827000D02*
Y826833D01*
X3618659D01*
Y827000D01*
X3618492D01*
X3873167Y874869D02*
X3873000Y875036D01*
Y875369D01*
X3873167Y875535D01*
X3873334D01*
X3873500Y875369D01*
Y875036D01*
X3873667Y874869D01*
X3873833D01*
X3874000Y875036D01*
Y875369D01*
X3873833Y875535D01*
X3873167Y873869D02*
X3873000Y874036D01*
Y874369D01*
X3873167Y874536D01*
X3873334D01*
X3873500Y874369D01*
Y874036D01*
X3873667Y873869D01*
X3873833D01*
X3874000Y874036D01*
Y874369D01*
X3873833Y874536D01*
X3874000Y872536D02*
Y872203D01*
Y872370D01*
X3873000D01*
X3873167Y872536D01*
Y871703D02*
X3873000Y871537D01*
Y871203D01*
X3873167Y871037D01*
X3873833D01*
X3874000Y871203D01*
Y871537D01*
X3873833Y871703D01*
X3873167D01*
X3874000Y870037D02*
Y870704D01*
X3873334Y870037D01*
X3873167D01*
X3873000Y870204D01*
Y870537D01*
X3873167Y870704D01*
X3873000Y869037D02*
Y869704D01*
X3873500D01*
X3873334Y869371D01*
Y869204D01*
X3873500Y869037D01*
X3873833D01*
X3874000Y869204D01*
Y869537D01*
X3873833Y869704D01*
X3874000Y868704D02*
Y868371D01*
Y868538D01*
X3873000D01*
X3873167Y868704D01*
X3874000Y867205D02*
Y867871D01*
X3873334Y867205D01*
X3873167D01*
X3873000Y867371D01*
Y867705D01*
X3873167Y867871D01*
X3874167Y866705D02*
X3874000Y866538D01*
X3873833D01*
Y866705D01*
X3874000D01*
Y866538D01*
X3874167Y866705D01*
X3874333Y866871D01*
X3874000Y864872D02*
X3873334D01*
X3873000Y864539D01*
X3873334Y864206D01*
X3874000D01*
X3873500D01*
Y864872D01*
X3873000Y863872D02*
X3874000D01*
Y863372D01*
X3873833Y863206D01*
X3873167D01*
X3873000Y863372D01*
Y863872D01*
Y862873D02*
X3874000D01*
Y862373D01*
X3873833Y862206D01*
X3873167D01*
X3873000Y862373D01*
Y862873D01*
Y861206D02*
Y861873D01*
X3874000D01*
Y861206D01*
X3873500Y861873D02*
Y861540D01*
X3873000Y860873D02*
X3874000D01*
Y860373D01*
X3873833Y860207D01*
X3873167D01*
X3873000Y860373D01*
Y860873D01*
X3873167Y858207D02*
X3873000Y858374D01*
Y858707D01*
X3873167Y858874D01*
X3873334D01*
X3873500Y858707D01*
Y858374D01*
X3873667Y858207D01*
X3873833D01*
X3874000Y858374D01*
Y858707D01*
X3873833Y858874D01*
X3873000Y857874D02*
Y857541D01*
Y857707D01*
X3874000D01*
Y857874D01*
Y857541D01*
X3873000Y857041D02*
X3874000D01*
Y856375D01*
X3873000Y856041D02*
X3874000D01*
X3873667D01*
X3873000Y855375D01*
X3873500Y855875D01*
X3874000Y855375D01*
X3873167Y854375D02*
X3873000Y854542D01*
Y854875D01*
X3873167Y855042D01*
X3873334D01*
X3873500Y854875D01*
Y854542D01*
X3873667Y854375D01*
X3873833D01*
X3874000Y854542D01*
Y854875D01*
X3873833Y855042D01*
X3873167Y853375D02*
X3873000Y853542D01*
Y853875D01*
X3873167Y854042D01*
X3873833D01*
X3874000Y853875D01*
Y853542D01*
X3873833Y853375D01*
X3874000Y853042D02*
X3873000D01*
Y852542D01*
X3873167Y852376D01*
X3873500D01*
X3873667Y852542D01*
Y853042D01*
Y852709D02*
X3874000Y852376D01*
X3873000Y851376D02*
Y852043D01*
X3874000D01*
Y851376D01*
X3873500Y852043D02*
Y851709D01*
X3873000Y850376D02*
Y851043D01*
X3874000D01*
Y850376D01*
X3873500Y851043D02*
Y850710D01*
X3874000Y850043D02*
X3873000D01*
X3874000Y849377D01*
X3873000D01*
X3874000Y849043D02*
X3873833D01*
Y848877D01*
X3874000D01*
Y849043D01*
X1521833Y2988666D02*
X1522000Y2988500D01*
Y2988167D01*
X1521833Y2988000D01*
X1521667D01*
X1521500Y2988167D01*
Y2988500D01*
X1521333Y2988666D01*
X1521167D01*
X1521000Y2988500D01*
Y2988167D01*
X1521167Y2988000D01*
X1521833Y2989666D02*
X1522000Y2989499D01*
Y2989166D01*
X1521833Y2989000D01*
X1521667D01*
X1521500Y2989166D01*
Y2989499D01*
X1521333Y2989666D01*
X1521167D01*
X1521000Y2989499D01*
Y2989166D01*
X1521167Y2989000D01*
X1521000Y2990999D02*
Y2991332D01*
Y2991166D01*
X1522000D01*
X1521833Y2990999D01*
Y2991832D02*
X1522000Y2991999D01*
Y2992332D01*
X1521833Y2992499D01*
X1521167D01*
X1521000Y2992332D01*
Y2991999D01*
X1521167Y2991832D01*
X1521833D01*
X1521000Y2993498D02*
Y2992832D01*
X1521667Y2993498D01*
X1521833D01*
X1522000Y2993332D01*
Y2992999D01*
X1521833Y2992832D01*
X1522000Y2994498D02*
Y2993832D01*
X1521500D01*
X1521667Y2994165D01*
Y2994331D01*
X1521500Y2994498D01*
X1521167D01*
X1521000Y2994331D01*
Y2993998D01*
X1521167Y2993832D01*
X1521000Y2994831D02*
Y2995164D01*
Y2994998D01*
X1522000D01*
X1521833Y2994831D01*
X1521000Y2996331D02*
Y2995664D01*
X1521667Y2996331D01*
X1521833D01*
X1522000Y2996164D01*
Y2995831D01*
X1521833Y2995664D01*
X1520833Y2996831D02*
X1521000Y2996997D01*
X1521167D01*
Y2996831D01*
X1521000D01*
Y2996997D01*
X1520833Y2996831D01*
X1520667Y2996664D01*
X1521000Y2998664D02*
X1521667D01*
X1522000Y2998997D01*
X1521667Y2999330D01*
X1521000D01*
X1521500D01*
Y2998664D01*
X1522000Y2999663D02*
X1521000D01*
Y3000163D01*
X1521167Y3000330D01*
X1521833D01*
X1522000Y3000163D01*
Y2999663D01*
Y3000663D02*
X1521000D01*
Y3001163D01*
X1521167Y3001329D01*
X1521833D01*
X1522000Y3001163D01*
Y3000663D01*
Y3002329D02*
Y3001663D01*
X1521000D01*
Y3002329D01*
X1521500Y3001663D02*
Y3001996D01*
X1522000Y3002662D02*
X1521000D01*
Y3003162D01*
X1521167Y3003329D01*
X1521833D01*
X1522000Y3003162D01*
Y3002662D01*
X1521833Y3005328D02*
X1522000Y3005162D01*
Y3004828D01*
X1521833Y3004662D01*
X1521667D01*
X1521500Y3004828D01*
Y3005162D01*
X1521333Y3005328D01*
X1521167D01*
X1521000Y3005162D01*
Y3004828D01*
X1521167Y3004662D01*
X1522000Y3005661D02*
Y3005995D01*
Y3005828D01*
X1521000D01*
Y3005661D01*
Y3005995D01*
X1522000Y3006494D02*
X1521000D01*
Y3007161D01*
X1522000Y3007494D02*
X1521000D01*
X1521333D01*
X1522000Y3008161D01*
X1521500Y3007661D01*
X1521000Y3008161D01*
X1521833Y3009160D02*
X1522000Y3008994D01*
Y3008660D01*
X1521833Y3008494D01*
X1521667D01*
X1521500Y3008660D01*
Y3008994D01*
X1521333Y3009160D01*
X1521167D01*
X1521000Y3008994D01*
Y3008660D01*
X1521167Y3008494D01*
X1521833Y3010160D02*
X1522000Y3009993D01*
Y3009660D01*
X1521833Y3009494D01*
X1521167D01*
X1521000Y3009660D01*
Y3009993D01*
X1521167Y3010160D01*
X1521000Y3010493D02*
X1522000D01*
Y3010993D01*
X1521833Y3011160D01*
X1521500D01*
X1521333Y3010993D01*
Y3010493D01*
Y3010827D02*
X1521000Y3011160D01*
X1522000Y3012160D02*
Y3011493D01*
X1521000D01*
Y3012160D01*
X1521500Y3011493D02*
Y3011826D01*
X1522000Y3013159D02*
Y3012493D01*
X1521000D01*
Y3013159D01*
X1521500Y3012493D02*
Y3012826D01*
X1521000Y3013492D02*
X1522000D01*
X1521000Y3014159D01*
X1522000D01*
X1521000Y3014492D02*
X1521167D01*
Y3014659D01*
X1521000D01*
Y3014492D01*
X3432000Y493630D02*
Y494630D01*
Y494130D01*
X3432666D01*
Y493630D01*
Y494630D01*
X3433000Y493630D02*
X3433333D01*
X3433166D01*
Y494630D01*
X3433000D01*
X3433333D01*
X3434499Y493797D02*
X3434333Y493630D01*
X3433999D01*
X3433833Y493797D01*
Y493963D01*
X3433999Y494130D01*
X3434333D01*
X3434499Y494297D01*
Y494463D01*
X3434333Y494630D01*
X3433999D01*
X3433833Y494463D01*
X3434832Y493630D02*
X3435499D01*
X3435166D01*
Y494630D01*
X3436332Y493630D02*
X3435999D01*
X3435832Y493797D01*
Y494463D01*
X3435999Y494630D01*
X3436332D01*
X3436499Y494463D01*
Y493797D01*
X3436332Y493630D01*
X3436832Y494630D02*
Y493630D01*
X3437332D01*
X3437498Y493797D01*
Y494130D01*
X3437332Y494297D01*
X3436832D01*
X3437165D02*
X3437498Y494630D01*
X3437832Y493630D02*
Y493797D01*
X3438165Y494130D01*
X3438498Y493797D01*
Y493630D01*
X3438165Y494130D02*
Y494630D01*
X3438831Y493963D02*
X3438998D01*
Y494130D01*
X3438831D01*
Y493963D01*
Y494463D02*
X3438998D01*
Y494630D01*
X3438831D01*
Y494463D01*
X3441331Y493797D02*
X3441164Y493630D01*
X3440831D01*
X3440664Y493797D01*
Y493963D01*
X3440831Y494130D01*
X3441164D01*
X3441331Y494297D01*
Y494463D01*
X3441164Y494630D01*
X3440831D01*
X3440664Y494463D01*
X3442330Y493797D02*
X3442164Y493630D01*
X3441830D01*
X3441664Y493797D01*
Y493963D01*
X3441830Y494130D01*
X3442164D01*
X3442330Y494297D01*
Y494463D01*
X3442164Y494630D01*
X3441830D01*
X3441664Y494463D01*
X3443663Y494630D02*
X3443996D01*
X3443830D01*
Y493630D01*
X3443663Y493797D01*
X3444496D02*
X3444663Y493630D01*
X3444996D01*
X3445163Y493797D01*
Y494463D01*
X3444996Y494630D01*
X3444663D01*
X3444496Y494463D01*
Y493797D01*
X3446162Y494630D02*
X3445496D01*
X3446162Y493963D01*
Y493797D01*
X3445996Y493630D01*
X3445663D01*
X3445496Y493797D01*
X3447162Y493630D02*
X3446496D01*
Y494130D01*
X3446829Y493963D01*
X3446995D01*
X3447162Y494130D01*
Y494463D01*
X3446995Y494630D01*
X3446662D01*
X3446496Y494463D01*
X3447495Y494630D02*
X3447829D01*
X3447662D01*
Y493630D01*
X3447495Y493797D01*
X3448995Y494630D02*
X3448329D01*
X3448995Y493963D01*
Y493797D01*
X3448828Y493630D01*
X3448495D01*
X3448329Y493797D01*
X3449495Y494796D02*
X3449661Y494630D01*
Y494463D01*
X3449495D01*
Y494630D01*
X3449661D01*
X3449495Y494796D01*
X3449328Y494963D01*
X3451328Y494630D02*
Y493963D01*
X3451661Y493630D01*
X3451994Y493963D01*
Y494630D01*
Y494130D01*
X3451328D01*
X3452327Y493630D02*
Y494630D01*
X3452827D01*
X3452994Y494463D01*
Y493797D01*
X3452827Y493630D01*
X3452327D01*
X3453327D02*
Y494630D01*
X3453827D01*
X3453994Y494463D01*
Y493797D01*
X3453827Y493630D01*
X3453327D01*
X3454993D02*
X3454327D01*
Y494630D01*
X3454993D01*
X3454327Y494130D02*
X3454660D01*
X3455326Y493630D02*
Y494630D01*
X3455826D01*
X3455993Y494463D01*
Y493797D01*
X3455826Y493630D01*
X3455326D01*
X3457992Y493797D02*
X3457826Y493630D01*
X3457492D01*
X3457326Y493797D01*
Y494463D01*
X3457492Y494630D01*
X3457826D01*
X3457992Y494463D01*
X3458825Y493630D02*
X3458492D01*
X3458325Y493797D01*
Y494463D01*
X3458492Y494630D01*
X3458825D01*
X3458992Y494463D01*
Y493797D01*
X3458825Y493630D01*
X3459325Y494630D02*
Y493630D01*
X3459658Y493963D01*
X3459992Y493630D01*
Y494630D01*
X3460325D02*
Y493630D01*
X3460825D01*
X3460991Y493797D01*
Y494130D01*
X3460825Y494297D01*
X3460325D01*
X3462991Y493797D02*
X3462824Y493630D01*
X3462491D01*
X3462324Y493797D01*
Y494463D01*
X3462491Y494630D01*
X3462824D01*
X3462991Y494463D01*
X3463824Y493630D02*
X3463491D01*
X3463324Y493797D01*
Y494463D01*
X3463491Y494630D01*
X3463824D01*
X3463990Y494463D01*
Y493797D01*
X3463824Y493630D01*
X3464324D02*
Y494463D01*
X3464490Y494630D01*
X3464823D01*
X3464990Y494463D01*
Y493630D01*
X3465323Y494630D02*
Y493630D01*
X3465823D01*
X3465990Y493797D01*
Y494130D01*
X3465823Y494297D01*
X3465323D01*
X3465657D02*
X3465990Y494630D01*
X3466323Y493630D02*
X3466990D01*
X3466656D01*
Y494630D01*
X3467323Y493630D02*
Y493797D01*
X3467656Y494130D01*
X3467989Y493797D01*
Y493630D01*
X3467656Y494130D02*
Y494630D01*
X3468323D02*
Y493963D01*
X3468656Y493630D01*
X3468989Y493963D01*
Y494630D01*
Y494130D01*
X3468323D01*
X3469322Y494630D02*
Y493630D01*
X3469822D01*
X3469989Y493797D01*
Y494130D01*
X3469822Y494297D01*
X3469322D01*
X3469655D02*
X3469989Y494630D01*
X3470322Y493630D02*
Y494630D01*
X3470822D01*
X3470988Y494463D01*
Y493797D01*
X3470822Y493630D01*
X3470322D01*
X3471488Y494796D02*
X3471655Y494630D01*
Y494463D01*
X3471488D01*
Y494630D01*
X3471655D01*
X3471488Y494796D01*
X3471322Y494963D01*
X3473988Y493797D02*
X3473821Y493630D01*
X3473488D01*
X3473321Y493797D01*
Y494463D01*
X3473488Y494630D01*
X3473821D01*
X3473988Y494463D01*
X3474820Y493630D02*
X3474487D01*
X3474321Y493797D01*
Y494463D01*
X3474487Y494630D01*
X3474820D01*
X3474987Y494463D01*
Y493797D01*
X3474820Y493630D01*
X3475320Y494630D02*
Y493630D01*
X3475654Y493963D01*
X3475987Y493630D01*
Y494630D01*
X3476320D02*
Y493630D01*
X3476820D01*
X3476987Y493797D01*
Y494130D01*
X3476820Y494297D01*
X3476320D01*
X3478819Y493630D02*
X3478486D01*
X3478320Y493797D01*
Y494463D01*
X3478486Y494630D01*
X3478819D01*
X3478986Y494463D01*
Y493797D01*
X3478819Y493630D01*
X3479319D02*
Y494463D01*
X3479486Y494630D01*
X3479819D01*
X3479986Y494463D01*
Y493630D01*
X3480319D02*
X3480985D01*
X3480652D01*
Y494630D01*
X3481319Y493630D02*
Y494630D01*
X3481985D01*
X3482318Y493630D02*
X3482651D01*
X3482485D01*
Y494630D01*
X3482318D01*
X3482651D01*
X3483151D02*
Y493630D01*
X3483818Y494630D01*
Y493630D01*
X3484818D02*
X3484151D01*
Y494630D01*
X3484818D01*
X3484151Y494130D02*
X3484484D01*
X3485317Y494796D02*
X3485484Y494630D01*
Y494463D01*
X3485317D01*
Y494630D01*
X3485484D01*
X3485317Y494796D01*
X3485151Y494963D01*
X3487150Y494630D02*
Y493630D01*
X3487650D01*
X3487817Y493797D01*
Y494130D01*
X3487650Y494297D01*
X3487150D01*
X3487483D02*
X3487817Y494630D01*
X3488816Y493630D02*
X3488150D01*
Y494630D01*
X3488816D01*
X3488150Y494130D02*
X3488483D01*
X3489816Y493797D02*
X3489649Y493630D01*
X3489316D01*
X3489150Y493797D01*
Y493963D01*
X3489316Y494130D01*
X3489649D01*
X3489816Y494297D01*
Y494463D01*
X3489649Y494630D01*
X3489316D01*
X3489150Y494463D01*
X3490149Y493630D02*
Y494630D01*
Y494130D01*
X3490816D01*
Y493630D01*
Y494630D01*
X3491149D02*
Y493963D01*
X3491482Y493630D01*
X3491816Y493963D01*
Y494630D01*
Y494130D01*
X3491149D01*
X3492149Y494630D02*
Y493630D01*
X3492648D01*
X3492815Y493797D01*
Y494130D01*
X3492648Y494297D01*
X3492149D01*
X3493815Y493630D02*
X3493148D01*
Y494630D01*
X3493815D01*
X3493148Y494130D02*
X3493482D01*
X3494148Y493630D02*
Y494630D01*
X3494648D01*
X3494815Y494463D01*
Y493797D01*
X3494648Y493630D01*
X3494148D01*
X3496148Y493797D02*
X3496314Y493630D01*
X3496647D01*
X3496814Y493797D01*
Y493963D01*
X3496647Y494130D01*
X3496481D01*
X3496647D01*
X3496814Y494297D01*
Y494463D01*
X3496647Y494630D01*
X3496314D01*
X3496148Y494463D01*
X3497147Y493630D02*
Y494630D01*
X3497647D01*
X3497814Y494463D01*
Y493797D01*
X3497647Y493630D01*
X3497147D01*
X89000Y1870000D02*
X90000D01*
Y1869333D01*
X89000Y1868501D02*
Y1868834D01*
X89167Y1869000D01*
X89833D01*
X90000Y1868834D01*
Y1868501D01*
X89833Y1868334D01*
X89167D01*
X89000Y1868501D01*
X89167Y1867334D02*
X89000Y1867501D01*
Y1867834D01*
X89167Y1868001D01*
X89833D01*
X90000Y1867834D01*
Y1867501D01*
X89833Y1867334D01*
X90000Y1867001D02*
X89334D01*
X89000Y1866668D01*
X89334Y1866334D01*
X90000D01*
X89500D01*
Y1867001D01*
X89000Y1866001D02*
Y1865335D01*
Y1865668D01*
X90000D01*
X89000Y1865002D02*
Y1864668D01*
Y1864835D01*
X90000D01*
Y1865002D01*
Y1864668D01*
X89000Y1863669D02*
Y1864002D01*
X89167Y1864168D01*
X89833D01*
X90000Y1864002D01*
Y1863669D01*
X89833Y1863502D01*
X89167D01*
X89000Y1863669D01*
X90000Y1863169D02*
X89000D01*
X90000Y1862502D01*
X89000D01*
X89334Y1862169D02*
Y1862002D01*
X89500D01*
Y1862169D01*
X89334D01*
X89833D02*
Y1862002D01*
X90000D01*
Y1862169D01*
X89833D01*
X89167Y1859670D02*
X89000Y1859836D01*
Y1860170D01*
X89167Y1860336D01*
X89334D01*
X89500Y1860170D01*
Y1859836D01*
X89667Y1859670D01*
X89833D01*
X90000Y1859836D01*
Y1860170D01*
X89833Y1860336D01*
X89000Y1859336D02*
X89833D01*
X90000Y1859170D01*
Y1858837D01*
X89833Y1858670D01*
X89000D01*
X90000Y1858337D02*
X89000D01*
Y1857837D01*
X89167Y1857670D01*
X89500D01*
X89667Y1857837D01*
Y1858337D01*
Y1858004D02*
X90000Y1857670D01*
X89000Y1856671D02*
Y1857337D01*
X89500D01*
Y1857004D01*
Y1857337D01*
X90000D01*
Y1856337D02*
X89334D01*
X89000Y1856004D01*
X89334Y1855671D01*
X90000D01*
X89500D01*
Y1856337D01*
X89167Y1854671D02*
X89000Y1854838D01*
Y1855171D01*
X89167Y1855338D01*
X89833D01*
X90000Y1855171D01*
Y1854838D01*
X89833Y1854671D01*
X89000Y1853671D02*
Y1854338D01*
X90000D01*
Y1853671D01*
X89500Y1854338D02*
Y1854005D01*
X90000Y1853338D02*
X89000D01*
X89334Y1853005D01*
X89000Y1852672D01*
X90000D01*
X89000Y1851839D02*
Y1852172D01*
X89167Y1852339D01*
X89833D01*
X90000Y1852172D01*
Y1851839D01*
X89833Y1851672D01*
X89167D01*
X89000Y1851839D01*
Y1851339D02*
X89833D01*
X90000Y1851172D01*
Y1850839D01*
X89833Y1850672D01*
X89000D01*
X90000Y1850339D02*
X89000D01*
X90000Y1849673D01*
X89000D01*
Y1849340D02*
Y1848673D01*
Y1849006D01*
X90000D01*
Y1847673D02*
Y1848340D01*
X89334Y1847673D01*
X89167D01*
X89000Y1847840D01*
Y1848173D01*
X89167Y1848340D01*
X89000Y1847340D02*
X90000D01*
Y1846674D01*
X89000Y1845674D02*
Y1846340D01*
X90000D01*
Y1845674D01*
X89500Y1846340D02*
Y1846007D01*
X90000Y1845341D02*
X89334D01*
X89000Y1845007D01*
X89334Y1844674D01*
X90000D01*
X89500D01*
Y1845341D01*
X89000Y1844341D02*
X90000D01*
Y1843841D01*
X89833Y1843675D01*
X89167D01*
X89000Y1843841D01*
Y1844341D01*
X90000Y1843341D02*
X89833D01*
Y1843175D01*
X90000D01*
Y1843341D01*
Y1842508D02*
X89000D01*
Y1842008D01*
X89167Y1841842D01*
X89500D01*
X89667Y1842008D01*
Y1842508D01*
X89167Y1840842D02*
X89000Y1841009D01*
Y1841342D01*
X89167Y1841508D01*
X89833D01*
X90000Y1841342D01*
Y1841009D01*
X89833Y1840842D01*
X89000Y1840509D02*
X90000D01*
Y1840009D01*
X89833Y1839842D01*
X89667D01*
X89500Y1840009D01*
Y1840509D01*
Y1840009D01*
X89334Y1839842D01*
X89167D01*
X89000Y1840009D01*
Y1840509D01*
Y1839509D02*
X90000D01*
Y1838843D01*
X89000Y1838509D02*
Y1838176D01*
Y1838343D01*
X90000D01*
Y1838509D01*
Y1838176D01*
X89000Y1837676D02*
X90000D01*
Y1837177D01*
X89833Y1837010D01*
X89667D01*
X89500Y1837177D01*
Y1837676D01*
Y1837177D01*
X89334Y1837010D01*
X89167D01*
X89000Y1837177D01*
Y1837676D01*
X91000Y1870000D02*
X92000D01*
X91500D01*
Y1869333D01*
X91000D01*
X92000D01*
X91000Y1869000D02*
Y1868667D01*
Y1868834D01*
X92000D01*
Y1869000D01*
Y1868667D01*
X91167Y1867501D02*
X91000Y1867667D01*
Y1868001D01*
X91167Y1868167D01*
X91334D01*
X91500Y1868001D01*
Y1867667D01*
X91667Y1867501D01*
X91833D01*
X92000Y1867667D01*
Y1868001D01*
X91833Y1868167D01*
X91000Y1867168D02*
Y1866501D01*
Y1866834D01*
X92000D01*
X91000Y1865668D02*
Y1866001D01*
X91167Y1866168D01*
X91833D01*
X92000Y1866001D01*
Y1865668D01*
X91833Y1865501D01*
X91167D01*
X91000Y1865668D01*
X92000Y1865168D02*
X91000D01*
Y1864668D01*
X91167Y1864502D01*
X91500D01*
X91667Y1864668D01*
Y1865168D01*
Y1864835D02*
X92000Y1864502D01*
X91000Y1864168D02*
X91167D01*
X91500Y1863835D01*
X91167Y1863502D01*
X91000D01*
X91500Y1863835D02*
X92000D01*
X91334Y1863169D02*
Y1863002D01*
X91500D01*
Y1863169D01*
X91334D01*
X91833D02*
Y1863002D01*
X92000D01*
Y1863169D01*
X91833D01*
X91000Y1860836D02*
Y1861169D01*
X91167Y1861336D01*
X91833D01*
X92000Y1861169D01*
Y1860836D01*
X91833Y1860669D01*
X91167D01*
X91000Y1860836D01*
Y1860336D02*
X92000D01*
Y1859670D01*
X91000Y1859336D02*
X92000D01*
Y1858837D01*
X91833Y1858670D01*
X91167D01*
X91000Y1858837D01*
Y1859336D01*
Y1857670D02*
Y1858337D01*
X92000D01*
Y1857670D01*
X91500Y1858337D02*
Y1858004D01*
X92000Y1857337D02*
X91000D01*
Y1856837D01*
X91167Y1856671D01*
X91500D01*
X91667Y1856837D01*
Y1857337D01*
Y1857004D02*
X92000Y1856671D01*
X91000Y1854671D02*
Y1855338D01*
X91500D01*
Y1855005D01*
Y1855338D01*
X92000D01*
X91000Y1853838D02*
Y1854171D01*
X91167Y1854338D01*
X91833D01*
X92000Y1854171D01*
Y1853838D01*
X91833Y1853671D01*
X91167D01*
X91000Y1853838D01*
Y1852839D02*
Y1853172D01*
X91167Y1853338D01*
X91833D01*
X92000Y1853172D01*
Y1852839D01*
X91833Y1852672D01*
X91167D01*
X91000Y1852839D01*
Y1852339D02*
Y1851672D01*
Y1852005D01*
X92000D01*
Y1851339D02*
X91000D01*
Y1850839D01*
X91167Y1850672D01*
X91500D01*
X91667Y1850839D01*
Y1851339D01*
X92000Y1850339D02*
X91000D01*
Y1849839D01*
X91167Y1849673D01*
X91500D01*
X91667Y1849839D01*
Y1850339D01*
Y1850006D02*
X92000Y1849673D01*
X91000Y1849340D02*
Y1849006D01*
Y1849173D01*
X92000D01*
Y1849340D01*
Y1849006D01*
Y1848506D02*
X91000D01*
X92000Y1847840D01*
X91000D01*
Y1847507D02*
Y1846840D01*
Y1847174D01*
X92000D01*
Y1846507D02*
X91833D01*
Y1846340D01*
X92000D01*
Y1846507D01*
Y1844674D02*
X91000D01*
X91334Y1844341D01*
X91000Y1844008D01*
X92000D01*
X91000Y1843675D02*
Y1843008D01*
Y1843341D01*
X92000D01*
Y1841675D02*
Y1841342D01*
Y1841508D01*
X91000D01*
X91167Y1841675D01*
Y1840842D02*
X91000Y1840675D01*
Y1840342D01*
X91167Y1840176D01*
X91833D01*
X92000Y1840342D01*
Y1840675D01*
X91833Y1840842D01*
X91167D01*
X92000Y1839176D02*
Y1839842D01*
X91334Y1839176D01*
X91167D01*
X91000Y1839342D01*
Y1839676D01*
X91167Y1839842D01*
X91000Y1838176D02*
X91167Y1838509D01*
X91500Y1838843D01*
X91833D01*
X92000Y1838676D01*
Y1838343D01*
X91833Y1838176D01*
X91667D01*
X91500Y1838343D01*
Y1838843D01*
X92000Y1837843D02*
Y1837510D01*
Y1837676D01*
X91000D01*
X91167Y1837843D01*
Y1837010D02*
X91000Y1836843D01*
Y1836510D01*
X91167Y1836343D01*
X91833D01*
X92000Y1836510D01*
Y1836843D01*
X91833Y1837010D01*
X91167D01*
X92167Y1835843D02*
X92000Y1835677D01*
X91833D01*
Y1835843D01*
X92000D01*
Y1835677D01*
X92167Y1835843D01*
X92333Y1836010D01*
X91167Y1833344D02*
X91000Y1833511D01*
Y1833844D01*
X91167Y1834011D01*
X91833D01*
X92000Y1833844D01*
Y1833511D01*
X91833Y1833344D01*
X91000Y1833011D02*
X92000D01*
X91500D01*
Y1832344D01*
X91000D01*
X92000D01*
X91000Y1831345D02*
Y1832011D01*
X92000D01*
Y1831345D01*
X91500Y1832011D02*
Y1831678D01*
X91167Y1830345D02*
X91000Y1830512D01*
Y1830845D01*
X91167Y1831012D01*
X91833D01*
X92000Y1830845D01*
Y1830512D01*
X91833Y1830345D01*
X91000Y1830012D02*
X92000D01*
X91667D01*
X91000Y1829345D01*
X91500Y1829845D01*
X92000Y1829345D01*
X91000Y1828346D02*
Y1829012D01*
X92000D01*
Y1828346D01*
X91500Y1829012D02*
Y1828679D01*
X91000Y1828013D02*
X92000D01*
Y1827513D01*
X91833Y1827346D01*
X91167D01*
X91000Y1827513D01*
Y1828013D01*
Y1826013D02*
X92000D01*
Y1825513D01*
X91833Y1825347D01*
X91167D01*
X91000Y1825513D01*
Y1826013D01*
Y1825013D02*
Y1824680D01*
Y1824847D01*
X92000D01*
Y1825013D01*
Y1824680D01*
Y1824180D02*
X91000D01*
X91334Y1823847D01*
X91000Y1823514D01*
X92000D01*
X91000Y1822514D02*
Y1823181D01*
X92000D01*
Y1822514D01*
X91500Y1823181D02*
Y1822847D01*
X92000Y1822181D02*
X91000D01*
X92000Y1821514D01*
X91000D01*
X91167Y1820515D02*
X91000Y1820681D01*
Y1821015D01*
X91167Y1821181D01*
X91334D01*
X91500Y1821015D01*
Y1820681D01*
X91667Y1820515D01*
X91833D01*
X92000Y1820681D01*
Y1821015D01*
X91833Y1821181D01*
X91000Y1820181D02*
Y1819848D01*
Y1820015D01*
X92000D01*
Y1820181D01*
Y1819848D01*
X91000Y1818849D02*
Y1819182D01*
X91167Y1819348D01*
X91833D01*
X92000Y1819182D01*
Y1818849D01*
X91833Y1818682D01*
X91167D01*
X91000Y1818849D01*
X92000Y1818349D02*
X91000D01*
X92000Y1817682D01*
X91000D01*
X91167Y1816682D02*
X91000Y1816849D01*
Y1817182D01*
X91167Y1817349D01*
X91334D01*
X91500Y1817182D01*
Y1816849D01*
X91667Y1816682D01*
X91833D01*
X92000Y1816849D01*
Y1817182D01*
X91833Y1817349D01*
X92167Y1816183D02*
X92000Y1816016D01*
X91833D01*
Y1816183D01*
X92000D01*
Y1816016D01*
X92167Y1816183D01*
X92333Y1816349D01*
X92000Y1814350D02*
X91334D01*
X91000Y1814017D01*
X91334Y1813683D01*
X92000D01*
X91500D01*
Y1814350D01*
X91000Y1813350D02*
X92000D01*
Y1812850D01*
X91833Y1812684D01*
X91167D01*
X91000Y1812850D01*
Y1813350D01*
Y1812351D02*
X92000D01*
Y1811851D01*
X91833Y1811684D01*
X91167D01*
X91000Y1811851D01*
Y1812351D01*
Y1810684D02*
Y1811351D01*
X92000D01*
Y1810684D01*
X91500Y1811351D02*
Y1811018D01*
X91000Y1810351D02*
X92000D01*
Y1809851D01*
X91833Y1809685D01*
X91167D01*
X91000Y1809851D01*
Y1810351D01*
X91167Y1807685D02*
X91000Y1807852D01*
Y1808185D01*
X91167Y1808352D01*
X91833D01*
X92000Y1808185D01*
Y1807852D01*
X91833Y1807685D01*
X91000Y1806852D02*
Y1807185D01*
X91167Y1807352D01*
X91833D01*
X92000Y1807185D01*
Y1806852D01*
X91833Y1806686D01*
X91167D01*
X91000Y1806852D01*
Y1806352D02*
X91833D01*
X92000Y1806186D01*
Y1805852D01*
X91833Y1805686D01*
X91000D01*
X92000Y1805353D02*
X91000D01*
Y1804853D01*
X91167Y1804686D01*
X91500D01*
X91667Y1804853D01*
Y1805353D01*
Y1805019D02*
X92000Y1804686D01*
X91000Y1804353D02*
Y1803686D01*
Y1804020D01*
X92000D01*
X91000Y1803353D02*
X91167D01*
X91500Y1803020D01*
X91167Y1802687D01*
X91000D01*
X91500Y1803020D02*
X92000D01*
Y1802353D02*
X91334D01*
X91000Y1802020D01*
X91334Y1801687D01*
X92000D01*
X91500D01*
Y1802353D01*
X92000Y1801354D02*
X91000D01*
Y1800854D01*
X91167Y1800687D01*
X91500D01*
X91667Y1800854D01*
Y1801354D01*
Y1801021D02*
X92000Y1800687D01*
X91000Y1800354D02*
X92000D01*
Y1799854D01*
X91833Y1799688D01*
X91167D01*
X91000Y1799854D01*
Y1800354D01*
X92167Y1799188D02*
X92000Y1799021D01*
X91833D01*
Y1799188D01*
X92000D01*
Y1799021D01*
X92167Y1799188D01*
X92333Y1799354D01*
X91167Y1796688D02*
X91000Y1796855D01*
Y1797188D01*
X91167Y1797355D01*
X91833D01*
X92000Y1797188D01*
Y1796855D01*
X91833Y1796688D01*
X91000Y1795855D02*
Y1796189D01*
X91167Y1796355D01*
X91833D01*
X92000Y1796189D01*
Y1795855D01*
X91833Y1795689D01*
X91167D01*
X91000Y1795855D01*
X92000Y1795356D02*
X91000D01*
X91334Y1795022D01*
X91000Y1794689D01*
X92000D01*
Y1794356D02*
X91000D01*
Y1793856D01*
X91167Y1793689D01*
X91500D01*
X91667Y1793856D01*
Y1794356D01*
X91000Y1792856D02*
Y1793190D01*
X91167Y1793356D01*
X91833D01*
X92000Y1793190D01*
Y1792856D01*
X91833Y1792690D01*
X91167D01*
X91000Y1792856D01*
X92000Y1792357D02*
X91000D01*
X92000Y1791690D01*
X91000D01*
Y1790690D02*
Y1791357D01*
X92000D01*
Y1790690D01*
X91500Y1791357D02*
Y1791024D01*
X92000Y1790357D02*
X91000D01*
X92000Y1789691D01*
X91000D01*
Y1789357D02*
Y1788691D01*
Y1789024D01*
X92000D01*
X91000Y1786858D02*
Y1787191D01*
X91167Y1787358D01*
X91833D01*
X92000Y1787191D01*
Y1786858D01*
X91833Y1786691D01*
X91167D01*
X91000Y1786858D01*
Y1786358D02*
X91833D01*
X92000Y1786192D01*
Y1785859D01*
X91833Y1785692D01*
X91000D01*
Y1785359D02*
Y1784692D01*
Y1785025D01*
X92000D01*
X91000Y1784359D02*
X92000D01*
Y1783692D01*
X91000Y1783359D02*
Y1783026D01*
Y1783193D01*
X92000D01*
Y1783359D01*
Y1783026D01*
Y1782526D02*
X91000D01*
X92000Y1781860D01*
X91000D01*
Y1780860D02*
Y1781526D01*
X92000D01*
Y1780860D01*
X91500Y1781526D02*
Y1781193D01*
X92167Y1780360D02*
X92000Y1780194D01*
X91833D01*
Y1780360D01*
X92000D01*
Y1780194D01*
X92167Y1780360D01*
X92333Y1780527D01*
X91167Y1777861D02*
X91000Y1778027D01*
Y1778361D01*
X91167Y1778527D01*
X91833D01*
X92000Y1778361D01*
Y1778027D01*
X91833Y1777861D01*
X91000Y1776861D02*
Y1777528D01*
X92000D01*
Y1776861D01*
X91500Y1777528D02*
Y1777194D01*
X92000Y1776528D02*
X91000D01*
X92000Y1775861D01*
X91000D01*
Y1775528D02*
Y1774862D01*
Y1775195D01*
X92000D01*
X91000Y1773862D02*
Y1774528D01*
X92000D01*
Y1773862D01*
X91500Y1774528D02*
Y1774195D01*
X92000Y1773529D02*
X91000D01*
Y1773029D01*
X91167Y1772862D01*
X91500D01*
X91667Y1773029D01*
Y1773529D01*
Y1773196D02*
X92000Y1772862D01*
X91000Y1771030D02*
Y1771363D01*
X91167Y1771529D01*
X91833D01*
X92000Y1771363D01*
Y1771030D01*
X91833Y1770863D01*
X91167D01*
X91000Y1771030D01*
Y1769863D02*
Y1770530D01*
X91500D01*
Y1770197D01*
Y1770530D01*
X92000D01*
X91000Y1768031D02*
Y1768364D01*
X91167Y1768530D01*
X91833D01*
X92000Y1768364D01*
Y1768031D01*
X91833Y1767864D01*
X91167D01*
X91000Y1768031D01*
X92000Y1767531D02*
X91000D01*
Y1767031D01*
X91167Y1766864D01*
X91500D01*
X91667Y1767031D01*
Y1767531D01*
Y1767197D02*
X92000Y1766864D01*
X91000Y1766531D02*
Y1766198D01*
Y1766364D01*
X92000D01*
Y1766531D01*
Y1766198D01*
X91000Y1765031D02*
Y1765698D01*
X92000D01*
Y1765031D01*
X91500Y1765698D02*
Y1765365D01*
X92000Y1764698D02*
X91000D01*
X92000Y1764032D01*
X91000D01*
Y1763698D02*
Y1763032D01*
Y1763365D01*
X92000D01*
Y1762699D02*
X91334D01*
X91000Y1762366D01*
X91334Y1762032D01*
X92000D01*
X91500D01*
Y1762699D01*
X91000Y1761699D02*
Y1761033D01*
Y1761366D01*
X92000D01*
X91000Y1760699D02*
Y1760366D01*
Y1760533D01*
X92000D01*
Y1760699D01*
Y1760366D01*
X91000Y1759366D02*
Y1759700D01*
X91167Y1759866D01*
X91833D01*
X92000Y1759700D01*
Y1759366D01*
X91833Y1759200D01*
X91167D01*
X91000Y1759366D01*
X92000Y1758867D02*
X91000D01*
X92000Y1758200D01*
X91000D01*
X92000Y1757867D02*
X91833D01*
Y1757700D01*
X92000D01*
Y1757867D01*
X94000Y1869333D02*
Y1870000D01*
X93334Y1869333D01*
X93167D01*
X93000Y1869500D01*
Y1869833D01*
X93167Y1870000D01*
X94000Y1869000D02*
X93833D01*
Y1868834D01*
X94000D01*
Y1869000D01*
X93000Y1866501D02*
Y1866834D01*
Y1866668D01*
X93833D01*
X94000Y1866834D01*
Y1867001D01*
X93833Y1867168D01*
X93000Y1866168D02*
X94000D01*
Y1865668D01*
X93833Y1865501D01*
X93667D01*
X93500Y1865668D01*
Y1866168D01*
Y1865668D01*
X93334Y1865501D01*
X93167D01*
X93000Y1865668D01*
Y1866168D01*
X93167Y1864168D02*
X93000Y1864002D01*
Y1863669D01*
X93167Y1863502D01*
X93833D01*
X94000Y1863669D01*
Y1864002D01*
X93833Y1864168D01*
X93167D01*
Y1863169D02*
X93000Y1863002D01*
Y1862669D01*
X93167Y1862502D01*
X93334D01*
X93500Y1862669D01*
X93667Y1862502D01*
X93833D01*
X94000Y1862669D01*
Y1863002D01*
X93833Y1863169D01*
X93667D01*
X93500Y1863002D01*
X93334Y1863169D01*
X93167D01*
X93500Y1863002D02*
Y1862669D01*
X94000Y1861503D02*
Y1862169D01*
X93334Y1861503D01*
X93167D01*
X93000Y1861669D01*
Y1862002D01*
X93167Y1862169D01*
Y1861169D02*
X93000Y1861003D01*
Y1860669D01*
X93167Y1860503D01*
X93334D01*
X93500Y1860669D01*
X93667Y1860503D01*
X93833D01*
X94000Y1860669D01*
Y1861003D01*
X93833Y1861169D01*
X93667D01*
X93500Y1861003D01*
X93334Y1861169D01*
X93167D01*
X93500Y1861003D02*
Y1860669D01*
X94000Y1860170D02*
Y1859836D01*
Y1860003D01*
X93000D01*
X93167Y1860170D01*
Y1859336D02*
X93000Y1859170D01*
Y1858837D01*
X93167Y1858670D01*
X93334D01*
X93500Y1858837D01*
Y1859003D01*
Y1858837D01*
X93667Y1858670D01*
X93833D01*
X94000Y1858837D01*
Y1859170D01*
X93833Y1859336D01*
X94000Y1857337D02*
X93334D01*
X93000Y1857004D01*
X93334Y1856671D01*
X94000D01*
X93500D01*
Y1857337D01*
X93000Y1856337D02*
X94000D01*
Y1855838D01*
X93833Y1855671D01*
X93167D01*
X93000Y1855838D01*
Y1856337D01*
Y1855338D02*
X94000D01*
Y1854838D01*
X93833Y1854671D01*
X93167D01*
X93000Y1854838D01*
Y1855338D01*
Y1853671D02*
Y1854338D01*
X94000D01*
Y1853671D01*
X93500Y1854338D02*
Y1854005D01*
X93000Y1853338D02*
X94000D01*
Y1852839D01*
X93833Y1852672D01*
X93167D01*
X93000Y1852839D01*
Y1853338D01*
Y1851339D02*
X94000D01*
Y1850839D01*
X93833Y1850672D01*
X93167D01*
X93000Y1850839D01*
Y1851339D01*
Y1849673D02*
Y1850339D01*
X94000D01*
Y1849673D01*
X93500Y1850339D02*
Y1850006D01*
X93167Y1848673D02*
X93000Y1848840D01*
Y1849173D01*
X93167Y1849340D01*
X93334D01*
X93500Y1849173D01*
Y1848840D01*
X93667Y1848673D01*
X93833D01*
X94000Y1848840D01*
Y1849173D01*
X93833Y1849340D01*
X93000Y1848340D02*
Y1848007D01*
Y1848173D01*
X94000D01*
Y1848340D01*
Y1848007D01*
X93167Y1846840D02*
X93000Y1847007D01*
Y1847340D01*
X93167Y1847507D01*
X93833D01*
X94000Y1847340D01*
Y1847007D01*
X93833Y1846840D01*
X93500D01*
Y1847174D01*
X94000Y1846507D02*
X93000D01*
X94000Y1845841D01*
X93000D01*
Y1844841D02*
Y1845507D01*
X94000D01*
Y1844841D01*
X93500Y1845507D02*
Y1845174D01*
X94000Y1844508D02*
X93000D01*
Y1844008D01*
X93167Y1843841D01*
X93500D01*
X93667Y1844008D01*
Y1844508D01*
Y1844174D02*
X94000Y1843841D01*
Y1842508D02*
X93000D01*
X94000Y1841842D01*
X93000D01*
Y1841009D02*
Y1841342D01*
X93167Y1841508D01*
X93833D01*
X94000Y1841342D01*
Y1841009D01*
X93833Y1840842D01*
X93167D01*
X93000Y1841009D01*
Y1840509D02*
Y1839842D01*
Y1840176D01*
X94000D01*
X93000Y1838843D02*
Y1839509D01*
X94000D01*
Y1838843D01*
X93500Y1839509D02*
Y1839176D01*
X93167Y1836843D02*
X93000Y1837010D01*
Y1837343D01*
X93167Y1837510D01*
X93833D01*
X94000Y1837343D01*
Y1837010D01*
X93833Y1836843D01*
X93000Y1836510D02*
X94000D01*
Y1835843D01*
X93000Y1834844D02*
Y1835510D01*
X94000D01*
Y1834844D01*
X93500Y1835510D02*
Y1835177D01*
X94000Y1834511D02*
X93334D01*
X93000Y1834177D01*
X93334Y1833844D01*
X94000D01*
X93500D01*
Y1834511D01*
X94000Y1833511D02*
X93000D01*
Y1833011D01*
X93167Y1832844D01*
X93500D01*
X93667Y1833011D01*
Y1833511D01*
Y1833178D02*
X94000Y1832844D01*
X93167Y1830845D02*
X93000Y1831012D01*
Y1831345D01*
X93167Y1831512D01*
X93833D01*
X94000Y1831345D01*
Y1831012D01*
X93833Y1830845D01*
X93000Y1830012D02*
Y1830345D01*
X93167Y1830512D01*
X93833D01*
X94000Y1830345D01*
Y1830012D01*
X93833Y1829845D01*
X93167D01*
X93000Y1830012D01*
X94000Y1829512D02*
X93000D01*
Y1829012D01*
X93167Y1828846D01*
X93500D01*
X93667Y1829012D01*
Y1829512D01*
X94000Y1828512D02*
X93000D01*
Y1828013D01*
X93167Y1827846D01*
X93500D01*
X93667Y1828013D01*
Y1828512D01*
X93000Y1826846D02*
Y1827513D01*
X94000D01*
Y1826846D01*
X93500Y1827513D02*
Y1827179D01*
X94000Y1826513D02*
X93000D01*
Y1826013D01*
X93167Y1825847D01*
X93500D01*
X93667Y1826013D01*
Y1826513D01*
Y1826180D02*
X94000Y1825847D01*
X93000Y1824514D02*
X93833D01*
X94000Y1824347D01*
Y1824014D01*
X93833Y1823847D01*
X93000D01*
X94000Y1823514D02*
X93000D01*
X94000Y1822847D01*
X93000D01*
Y1822514D02*
X94000D01*
Y1822014D01*
X93833Y1821848D01*
X93167D01*
X93000Y1822014D01*
Y1822514D01*
Y1820848D02*
Y1821514D01*
X94000D01*
Y1820848D01*
X93500Y1821514D02*
Y1821181D01*
X94000Y1820515D02*
X93000D01*
Y1820015D01*
X93167Y1819848D01*
X93500D01*
X93667Y1820015D01*
Y1820515D01*
Y1820182D02*
X94000Y1819848D01*
X93000Y1817849D02*
Y1818515D01*
X93500D01*
Y1818182D01*
Y1818515D01*
X94000D01*
X93000Y1817516D02*
X93833D01*
X94000Y1817349D01*
Y1817016D01*
X93833Y1816849D01*
X93000D01*
X93167Y1815850D02*
X93000Y1816016D01*
Y1816349D01*
X93167Y1816516D01*
X93334D01*
X93500Y1816349D01*
Y1816016D01*
X93667Y1815850D01*
X93833D01*
X94000Y1816016D01*
Y1816349D01*
X93833Y1816516D01*
X93000Y1814850D02*
Y1815516D01*
X94000D01*
Y1814850D01*
X93500Y1815516D02*
Y1815183D01*
X94000Y1814517D02*
X93833D01*
Y1814350D01*
X94000D01*
Y1814517D01*
X95167Y1870000D02*
X95000Y1869833D01*
Y1869500D01*
X95167Y1869333D01*
X95334D01*
X95500Y1869500D01*
Y1869667D01*
Y1869500D01*
X95667Y1869333D01*
X95833D01*
X96000Y1869500D01*
Y1869833D01*
X95833Y1870000D01*
X96000Y1869000D02*
X95833D01*
Y1868834D01*
X96000D01*
Y1869000D01*
X95000Y1865501D02*
Y1865835D01*
Y1865668D01*
X95833D01*
X96000Y1865835D01*
Y1866001D01*
X95833Y1866168D01*
X95000Y1865168D02*
X96000D01*
Y1864668D01*
X95833Y1864502D01*
X95667D01*
X95500Y1864668D01*
Y1865168D01*
Y1864668D01*
X95334Y1864502D01*
X95167D01*
X95000Y1864668D01*
Y1865168D01*
X96000Y1863169D02*
Y1862835D01*
Y1863002D01*
X95000D01*
X95167Y1863169D01*
X96000Y1861669D02*
Y1862336D01*
X95334Y1861669D01*
X95167D01*
X95000Y1861836D01*
Y1862169D01*
X95167Y1862336D01*
X96000Y1861336D02*
Y1861003D01*
Y1861169D01*
X95000D01*
X95167Y1861336D01*
Y1860503D02*
X95000Y1860336D01*
Y1860003D01*
X95167Y1859836D01*
X95833D01*
X96000Y1860003D01*
Y1860336D01*
X95833Y1860503D01*
X95167D01*
X96000Y1859503D02*
Y1859170D01*
Y1859336D01*
X95000D01*
X95167Y1859503D01*
Y1858670D02*
X95000Y1858503D01*
Y1858170D01*
X95167Y1858004D01*
X95334D01*
X95500Y1858170D01*
Y1858337D01*
Y1858170D01*
X95667Y1858004D01*
X95833D01*
X96000Y1858170D01*
Y1858503D01*
X95833Y1858670D01*
X95167Y1856004D02*
X95000Y1856171D01*
Y1856504D01*
X95167Y1856671D01*
X95833D01*
X96000Y1856504D01*
Y1856171D01*
X95833Y1856004D01*
X95000Y1855671D02*
X96000D01*
X95500D01*
Y1855004D01*
X95000D01*
X96000D01*
Y1854671D02*
X95334D01*
X95000Y1854338D01*
X95334Y1854005D01*
X96000D01*
X95500D01*
Y1854671D01*
X96000Y1853671D02*
X95000D01*
X96000Y1853005D01*
X95000D01*
X95167Y1852005D02*
X95000Y1852172D01*
Y1852505D01*
X95167Y1852672D01*
X95833D01*
X96000Y1852505D01*
Y1852172D01*
X95833Y1852005D01*
X95500D01*
Y1852339D01*
X95000Y1851006D02*
Y1851672D01*
X96000D01*
Y1851006D01*
X95500Y1851672D02*
Y1851339D01*
X95000Y1850672D02*
X96000D01*
Y1850173D01*
X95833Y1850006D01*
X95167D01*
X95000Y1850173D01*
Y1850672D01*
Y1848673D02*
X96000D01*
Y1848006D01*
X95000Y1847673D02*
Y1847340D01*
Y1847507D01*
X96000D01*
Y1847673D01*
Y1847340D01*
X95000Y1846840D02*
X96000D01*
Y1846340D01*
X95833Y1846174D01*
X95667D01*
X95500Y1846340D01*
Y1846840D01*
Y1846340D01*
X95334Y1846174D01*
X95167D01*
X95000Y1846340D01*
Y1846840D01*
X96000Y1845841D02*
X95000D01*
Y1845341D01*
X95167Y1845174D01*
X95500D01*
X95667Y1845341D01*
Y1845841D01*
Y1845507D02*
X96000Y1845174D01*
Y1844841D02*
X95334D01*
X95000Y1844508D01*
X95334Y1844174D01*
X96000D01*
X95500D01*
Y1844841D01*
X96000Y1843841D02*
X95000D01*
Y1843341D01*
X95167Y1843175D01*
X95500D01*
X95667Y1843341D01*
Y1843841D01*
Y1843508D02*
X96000Y1843175D01*
X95000Y1842841D02*
X95167D01*
X95500Y1842508D01*
X95167Y1842175D01*
X95000D01*
X95500Y1842508D02*
X96000D01*
Y1840842D02*
X95000D01*
X96000Y1840176D01*
X95000D01*
Y1839342D02*
Y1839676D01*
X95167Y1839842D01*
X95833D01*
X96000Y1839676D01*
Y1839342D01*
X95833Y1839176D01*
X95167D01*
X95000Y1839342D01*
Y1838843D02*
Y1838176D01*
Y1838509D01*
X96000D01*
X95000Y1837176D02*
Y1837843D01*
X96000D01*
Y1837176D01*
X95500Y1837843D02*
Y1837510D01*
X95000Y1835843D02*
Y1835177D01*
Y1835510D01*
X96000D01*
X95000Y1834344D02*
Y1834677D01*
X95167Y1834844D01*
X95833D01*
X96000Y1834677D01*
Y1834344D01*
X95833Y1834177D01*
X95167D01*
X95000Y1834344D01*
X95167Y1832178D02*
X95000Y1832345D01*
Y1832678D01*
X95167Y1832844D01*
X95833D01*
X96000Y1832678D01*
Y1832345D01*
X95833Y1832178D01*
X95000Y1831845D02*
X96000D01*
Y1831178D01*
X95000Y1830178D02*
Y1830845D01*
X96000D01*
Y1830178D01*
X95500Y1830845D02*
Y1830512D01*
X96000Y1829845D02*
X95334D01*
X95000Y1829512D01*
X95334Y1829179D01*
X96000D01*
X95500D01*
Y1829845D01*
X96000Y1828846D02*
X95000D01*
Y1828346D01*
X95167Y1828179D01*
X95500D01*
X95667Y1828346D01*
Y1828846D01*
Y1828512D02*
X96000Y1828179D01*
X95167Y1826180D02*
X95000Y1826346D01*
Y1826680D01*
X95167Y1826846D01*
X95833D01*
X96000Y1826680D01*
Y1826346D01*
X95833Y1826180D01*
X95000Y1825347D02*
Y1825680D01*
X95167Y1825847D01*
X95833D01*
X96000Y1825680D01*
Y1825347D01*
X95833Y1825180D01*
X95167D01*
X95000Y1825347D01*
X96000Y1824847D02*
X95000D01*
Y1824347D01*
X95167Y1824180D01*
X95500D01*
X95667Y1824347D01*
Y1824847D01*
X96000Y1823847D02*
X95000D01*
Y1823347D01*
X95167Y1823181D01*
X95500D01*
X95667Y1823347D01*
Y1823847D01*
X95000Y1822181D02*
Y1822847D01*
X96000D01*
Y1822181D01*
X95500Y1822847D02*
Y1822514D01*
X96000Y1821848D02*
X95000D01*
Y1821348D01*
X95167Y1821181D01*
X95500D01*
X95667Y1821348D01*
Y1821848D01*
Y1821514D02*
X96000Y1821181D01*
X95000Y1819349D02*
Y1819682D01*
X95167Y1819848D01*
X95833D01*
X96000Y1819682D01*
Y1819349D01*
X95833Y1819182D01*
X95167D01*
X95000Y1819349D01*
X96000Y1818849D02*
X95000D01*
X96000Y1818182D01*
X95000D01*
X96000Y1816849D02*
X95334D01*
X95000Y1816516D01*
X95334Y1816183D01*
X96000D01*
X95500D01*
Y1816849D01*
X95000Y1815850D02*
X96000D01*
Y1815183D01*
X95000Y1814850D02*
X96000D01*
Y1814183D01*
X95000Y1812850D02*
X96000D01*
Y1812184D01*
Y1811851D02*
X95334D01*
X95000Y1811517D01*
X95334Y1811184D01*
X96000D01*
X95500D01*
Y1811851D01*
X95000Y1810851D02*
X95167D01*
X95500Y1810518D01*
X95167Y1810185D01*
X95000D01*
X95500Y1810518D02*
X96000D01*
X95000Y1809185D02*
Y1809851D01*
X96000D01*
Y1809185D01*
X95500Y1809851D02*
Y1809518D01*
X96000Y1808852D02*
X95000D01*
Y1808352D01*
X95167Y1808185D01*
X95500D01*
X95667Y1808352D01*
Y1808852D01*
Y1808518D02*
X96000Y1808185D01*
X95167Y1807185D02*
X95000Y1807352D01*
Y1807685D01*
X95167Y1807852D01*
X95334D01*
X95500Y1807685D01*
Y1807352D01*
X95667Y1807185D01*
X95833D01*
X96000Y1807352D01*
Y1807685D01*
X95833Y1807852D01*
X95000Y1805852D02*
X95833D01*
X96000Y1805686D01*
Y1805353D01*
X95833Y1805186D01*
X95000D01*
X96000Y1804853D02*
X95000D01*
X96000Y1804186D01*
X95000D01*
Y1803853D02*
X96000D01*
Y1803353D01*
X95833Y1803187D01*
X95167D01*
X95000Y1803353D01*
Y1803853D01*
Y1802187D02*
Y1802853D01*
X96000D01*
Y1802187D01*
X95500Y1802853D02*
Y1802520D01*
X96000Y1801854D02*
X95000D01*
Y1801354D01*
X95167Y1801187D01*
X95500D01*
X95667Y1801354D01*
Y1801854D01*
Y1801521D02*
X96000Y1801187D01*
Y1799854D02*
X95000D01*
Y1799354D01*
X95167Y1799188D01*
X95500D01*
X95667Y1799354D01*
Y1799854D01*
X95000Y1798855D02*
Y1798188D01*
Y1798521D01*
X96000D01*
X95167Y1797188D02*
X95000Y1797355D01*
Y1797688D01*
X95167Y1797855D01*
X95833D01*
X96000Y1797688D01*
Y1797355D01*
X95833Y1797188D01*
X95000Y1795189D02*
Y1795855D01*
X95500D01*
Y1795522D01*
Y1795855D01*
X96000D01*
X95000Y1794856D02*
X95833D01*
X96000Y1794689D01*
Y1794356D01*
X95833Y1794189D01*
X95000D01*
X95167Y1793190D02*
X95000Y1793356D01*
Y1793689D01*
X95167Y1793856D01*
X95334D01*
X95500Y1793689D01*
Y1793356D01*
X95667Y1793190D01*
X95833D01*
X96000Y1793356D01*
Y1793689D01*
X95833Y1793856D01*
X95000Y1792190D02*
Y1792856D01*
X96000D01*
Y1792190D01*
X95500Y1792856D02*
Y1792523D01*
X96000Y1790857D02*
X95334D01*
X95000Y1790524D01*
X95334Y1790190D01*
X96000D01*
X95500D01*
Y1790857D01*
X96000Y1789857D02*
X95000D01*
X96000Y1789191D01*
X95000D01*
Y1788858D02*
X96000D01*
Y1788358D01*
X95833Y1788191D01*
X95167D01*
X95000Y1788358D01*
Y1788858D01*
X96000Y1786858D02*
X95334D01*
X95000Y1786525D01*
X95334Y1786192D01*
X96000D01*
X95500D01*
Y1786858D01*
X95000Y1785859D02*
X96000D01*
Y1785359D01*
X95833Y1785192D01*
X95167D01*
X95000Y1785359D01*
Y1785859D01*
Y1784859D02*
X96000D01*
Y1784359D01*
X95833Y1784192D01*
X95167D01*
X95000Y1784359D01*
Y1784859D01*
Y1783193D02*
Y1783859D01*
X96000D01*
Y1783193D01*
X95500Y1783859D02*
Y1783526D01*
X95000Y1782859D02*
X96000D01*
Y1782360D01*
X95833Y1782193D01*
X95167D01*
X95000Y1782360D01*
Y1782859D01*
X96000Y1780860D02*
X95000D01*
X96000Y1780194D01*
X95000D01*
Y1779361D02*
Y1779694D01*
X95167Y1779860D01*
X95833D01*
X96000Y1779694D01*
Y1779361D01*
X95833Y1779194D01*
X95167D01*
X95000Y1779361D01*
Y1778861D02*
Y1778194D01*
Y1778527D01*
X96000D01*
X95000Y1777194D02*
Y1777861D01*
X96000D01*
Y1777194D01*
X95500Y1777861D02*
Y1777528D01*
X96000Y1775861D02*
X95334D01*
X95000Y1775528D01*
X95334Y1775195D01*
X96000D01*
X95500D01*
Y1775861D01*
X95000Y1774862D02*
X95667D01*
X96000Y1774529D01*
X95667Y1774195D01*
X95000D01*
Y1773362D02*
Y1773696D01*
X95167Y1773862D01*
X95833D01*
X96000Y1773696D01*
Y1773362D01*
X95833Y1773196D01*
X95167D01*
X95000Y1773362D01*
Y1772862D02*
Y1772529D01*
Y1772696D01*
X96000D01*
Y1772862D01*
Y1772529D01*
X95000Y1772029D02*
X96000D01*
Y1771530D01*
X95833Y1771363D01*
X95167D01*
X95000Y1771530D01*
Y1772029D01*
Y1770030D02*
X95667D01*
X96000Y1769697D01*
X95667Y1769363D01*
X95000D01*
Y1769030D02*
Y1768697D01*
Y1768864D01*
X96000D01*
Y1769030D01*
Y1768697D01*
Y1768197D02*
X95334D01*
X95000Y1767864D01*
X95334Y1767531D01*
X96000D01*
X95500D01*
Y1768197D01*
Y1767197D02*
Y1766531D01*
X95000Y1766198D02*
Y1765864D01*
Y1766031D01*
X96000D01*
Y1766198D01*
Y1765864D01*
Y1765365D02*
X95000D01*
X96000Y1764698D01*
X95000D01*
X95500Y1764365D02*
Y1763698D01*
X96000Y1763365D02*
X95000D01*
Y1762865D01*
X95167Y1762699D01*
X95500D01*
X95667Y1762865D01*
Y1763365D01*
X96000Y1762366D02*
X95334D01*
X95000Y1762032D01*
X95334Y1761699D01*
X96000D01*
X95500D01*
Y1762366D01*
X95000Y1761366D02*
X96000D01*
Y1760866D01*
X95833Y1760699D01*
X95167D01*
X95000Y1760866D01*
Y1761366D01*
X96000Y1759366D02*
X95334D01*
X95000Y1759033D01*
X95334Y1758700D01*
X96000D01*
X95500D01*
Y1759366D01*
X96000Y1758367D02*
X95000D01*
X96000Y1757700D01*
X95000D01*
Y1757367D02*
X96000D01*
Y1756867D01*
X95833Y1756700D01*
X95167D01*
X95000Y1756867D01*
Y1757367D01*
Y1755368D02*
Y1754701D01*
Y1755034D01*
X96000D01*
X95000Y1754368D02*
X96000D01*
X95500D01*
Y1753701D01*
X95000D01*
X96000D01*
X95000Y1752702D02*
Y1753368D01*
X96000D01*
Y1752702D01*
X95500Y1753368D02*
Y1753035D01*
X96000Y1752369D02*
X95000D01*
Y1751869D01*
X95167Y1751702D01*
X95500D01*
X95667Y1751869D01*
Y1752369D01*
Y1752035D02*
X96000Y1751702D01*
Y1751369D02*
X95000D01*
X95334Y1751036D01*
X95000Y1750702D01*
X96000D01*
Y1750369D02*
X95334D01*
X95000Y1750036D01*
X95334Y1749703D01*
X96000D01*
X95500D01*
Y1750369D01*
X95000Y1749369D02*
X96000D01*
Y1748703D01*
X95167Y1747703D02*
X95000Y1747870D01*
Y1748203D01*
X95167Y1748370D01*
X95334D01*
X95500Y1748203D01*
Y1747870D01*
X95667Y1747703D01*
X95833D01*
X96000Y1747870D01*
Y1748203D01*
X95833Y1748370D01*
X96000Y1747370D02*
X95833D01*
Y1747203D01*
X96000D01*
Y1747370D01*
X707667Y713167D02*
X707500Y713000D01*
X707167D01*
X707000Y713167D01*
Y713333D01*
X707167Y713500D01*
X707500D01*
X707667Y713667D01*
Y713833D01*
X707500Y714000D01*
X707167D01*
X707000Y713833D01*
X708666Y713167D02*
X708500Y713000D01*
X708166D01*
X708000Y713167D01*
Y713333D01*
X708166Y713500D01*
X708500D01*
X708666Y713667D01*
Y713833D01*
X708500Y714000D01*
X708166D01*
X708000Y713833D01*
X709999Y714000D02*
X710332D01*
X710166D01*
Y713000D01*
X709999Y713167D01*
X710832D02*
X710999Y713000D01*
X711332D01*
X711499Y713167D01*
Y713833D01*
X711332Y714000D01*
X710999D01*
X710832Y713833D01*
Y713167D01*
X712498Y714000D02*
X711832D01*
X712498Y713333D01*
Y713167D01*
X712332Y713000D01*
X711999D01*
X711832Y713167D01*
X713498Y713000D02*
X712832D01*
Y713500D01*
X713165Y713333D01*
X713331D01*
X713498Y713500D01*
Y713833D01*
X713331Y714000D01*
X712998D01*
X712832Y713833D01*
X713831Y714000D02*
X714164D01*
X713998D01*
Y713000D01*
X713831Y713167D01*
X715331Y714000D02*
X714664D01*
X715331Y713333D01*
Y713167D01*
X715164Y713000D01*
X714831D01*
X714664Y713167D01*
X715831Y714167D02*
X715997Y714000D01*
Y713833D01*
X715831D01*
Y714000D01*
X715997D01*
X715831Y714167D01*
X715664Y714333D01*
X717663Y714000D02*
Y713333D01*
X717997Y713000D01*
X718330Y713333D01*
Y714000D01*
Y713500D01*
X717663D01*
X718663Y713000D02*
Y714000D01*
X719163D01*
X719330Y713833D01*
Y713167D01*
X719163Y713000D01*
X718663D01*
X719663D02*
Y714000D01*
X720163D01*
X720329Y713833D01*
Y713167D01*
X720163Y713000D01*
X719663D01*
X721329D02*
X720663D01*
Y714000D01*
X721329D01*
X720663Y713500D02*
X720996D01*
X721662Y713000D02*
Y714000D01*
X722162D01*
X722329Y713833D01*
Y713167D01*
X722162Y713000D01*
X721662D01*
X724328Y713167D02*
X724162Y713000D01*
X723828D01*
X723662Y713167D01*
Y713333D01*
X723828Y713500D01*
X724162D01*
X724328Y713667D01*
Y713833D01*
X724162Y714000D01*
X723828D01*
X723662Y713833D01*
X724661Y713000D02*
X724995D01*
X724828D01*
Y714000D01*
X724661D01*
X724995D01*
X725495Y713000D02*
Y714000D01*
X726161D01*
X726494Y713000D02*
Y714000D01*
Y713667D01*
X727161Y713000D01*
X726661Y713500D01*
X727161Y714000D01*
X728160Y713167D02*
X727994Y713000D01*
X727660D01*
X727494Y713167D01*
Y713333D01*
X727660Y713500D01*
X727994D01*
X728160Y713667D01*
Y713833D01*
X727994Y714000D01*
X727660D01*
X727494Y713833D01*
X729160Y713167D02*
X728993Y713000D01*
X728660D01*
X728494Y713167D01*
Y713833D01*
X728660Y714000D01*
X728993D01*
X729160Y713833D01*
X729493Y714000D02*
Y713000D01*
X729993D01*
X730160Y713167D01*
Y713500D01*
X729993Y713667D01*
X729493D01*
X729827D02*
X730160Y714000D01*
X731159Y713000D02*
X730493D01*
Y714000D01*
X731159D01*
X730493Y713500D02*
X730826D01*
X732159Y713000D02*
X731493D01*
Y714000D01*
X732159D01*
X731493Y713500D02*
X731826D01*
X732492Y714000D02*
Y713000D01*
X733159Y714000D01*
Y713000D01*
X733492Y714000D02*
Y713833D01*
X733659D01*
Y714000D01*
X733492D01*
X707667Y783167D02*
X707500Y783000D01*
X707167D01*
X707000Y783167D01*
Y783333D01*
X707167Y783500D01*
X707500D01*
X707667Y783667D01*
Y783833D01*
X707500Y784000D01*
X707167D01*
X707000Y783833D01*
X708666Y783167D02*
X708500Y783000D01*
X708166D01*
X708000Y783167D01*
Y783333D01*
X708166Y783500D01*
X708500D01*
X708666Y783667D01*
Y783833D01*
X708500Y784000D01*
X708166D01*
X708000Y783833D01*
X709999Y784000D02*
X710332D01*
X710166D01*
Y783000D01*
X709999Y783167D01*
X710832D02*
X710999Y783000D01*
X711332D01*
X711499Y783167D01*
Y783833D01*
X711332Y784000D01*
X710999D01*
X710832Y783833D01*
Y783167D01*
X712498Y784000D02*
X711832D01*
X712498Y783333D01*
Y783167D01*
X712332Y783000D01*
X711999D01*
X711832Y783167D01*
X713498Y783000D02*
X712832D01*
Y783500D01*
X713165Y783333D01*
X713331D01*
X713498Y783500D01*
Y783833D01*
X713331Y784000D01*
X712998D01*
X712832Y783833D01*
X713831Y784000D02*
X714164D01*
X713998D01*
Y783000D01*
X713831Y783167D01*
X715331Y784000D02*
X714664D01*
X715331Y783333D01*
Y783167D01*
X715164Y783000D01*
X714831D01*
X714664Y783167D01*
X715831Y784167D02*
X715997Y784000D01*
Y783833D01*
X715831D01*
Y784000D01*
X715997D01*
X715831Y784167D01*
X715664Y784333D01*
X717663Y784000D02*
Y783333D01*
X717997Y783000D01*
X718330Y783333D01*
Y784000D01*
Y783500D01*
X717663D01*
X718663Y783000D02*
Y784000D01*
X719163D01*
X719330Y783833D01*
Y783167D01*
X719163Y783000D01*
X718663D01*
X719663D02*
Y784000D01*
X720163D01*
X720329Y783833D01*
Y783167D01*
X720163Y783000D01*
X719663D01*
X721329D02*
X720663D01*
Y784000D01*
X721329D01*
X720663Y783500D02*
X720996D01*
X721662Y783000D02*
Y784000D01*
X722162D01*
X722329Y783833D01*
Y783167D01*
X722162Y783000D01*
X721662D01*
X724328Y783167D02*
X724162Y783000D01*
X723828D01*
X723662Y783167D01*
Y783333D01*
X723828Y783500D01*
X724162D01*
X724328Y783667D01*
Y783833D01*
X724162Y784000D01*
X723828D01*
X723662Y783833D01*
X724661Y783000D02*
X724995D01*
X724828D01*
Y784000D01*
X724661D01*
X724995D01*
X725495Y783000D02*
Y784000D01*
X726161D01*
X726494Y783000D02*
Y784000D01*
Y783667D01*
X727161Y783000D01*
X726661Y783500D01*
X727161Y784000D01*
X728160Y783167D02*
X727994Y783000D01*
X727660D01*
X727494Y783167D01*
Y783333D01*
X727660Y783500D01*
X727994D01*
X728160Y783667D01*
Y783833D01*
X727994Y784000D01*
X727660D01*
X727494Y783833D01*
X729160Y783167D02*
X728993Y783000D01*
X728660D01*
X728494Y783167D01*
Y783833D01*
X728660Y784000D01*
X728993D01*
X729160Y783833D01*
X729493Y784000D02*
Y783000D01*
X729993D01*
X730160Y783167D01*
Y783500D01*
X729993Y783667D01*
X729493D01*
X729827D02*
X730160Y784000D01*
X731159Y783000D02*
X730493D01*
Y784000D01*
X731159D01*
X730493Y783500D02*
X730826D01*
X732159Y783000D02*
X731493D01*
Y784000D01*
X732159D01*
X731493Y783500D02*
X731826D01*
X732492Y784000D02*
Y783000D01*
X733159Y784000D01*
Y783000D01*
X733492Y784000D02*
Y783833D01*
X733659D01*
Y784000D01*
X733492D01*
X504167Y741333D02*
X504000Y741500D01*
Y741833D01*
X504167Y742000D01*
X504334D01*
X504500Y741833D01*
Y741500D01*
X504667Y741333D01*
X504833D01*
X505000Y741500D01*
Y741833D01*
X504833Y742000D01*
X504167Y740334D02*
X504000Y740500D01*
Y740834D01*
X504167Y741000D01*
X504334D01*
X504500Y740834D01*
Y740500D01*
X504667Y740334D01*
X504833D01*
X505000Y740500D01*
Y740834D01*
X504833Y741000D01*
X505000Y739001D02*
Y738668D01*
Y738834D01*
X504000D01*
X504167Y739001D01*
Y738168D02*
X504000Y738001D01*
Y737668D01*
X504167Y737501D01*
X504833D01*
X505000Y737668D01*
Y738001D01*
X504833Y738168D01*
X504167D01*
X505000Y736502D02*
Y737168D01*
X504334Y736502D01*
X504167D01*
X504000Y736668D01*
Y737001D01*
X504167Y737168D01*
X504000Y735502D02*
Y736168D01*
X504500D01*
X504334Y735835D01*
Y735669D01*
X504500Y735502D01*
X504833D01*
X505000Y735669D01*
Y736002D01*
X504833Y736168D01*
X505000Y735169D02*
Y734836D01*
Y735002D01*
X504000D01*
X504167Y735169D01*
X505000Y733669D02*
Y734336D01*
X504334Y733669D01*
X504167D01*
X504000Y733836D01*
Y734169D01*
X504167Y734336D01*
X505167Y733169D02*
X505000Y733003D01*
X504833D01*
Y733169D01*
X505000D01*
Y733003D01*
X505167Y733169D01*
X505333Y733336D01*
X505000Y731337D02*
X504334D01*
X504000Y731003D01*
X504334Y730670D01*
X505000D01*
X504500D01*
Y731337D01*
X504000Y730337D02*
X505000D01*
Y729837D01*
X504833Y729670D01*
X504167D01*
X504000Y729837D01*
Y730337D01*
Y729337D02*
X505000D01*
Y728837D01*
X504833Y728671D01*
X504167D01*
X504000Y728837D01*
Y729337D01*
Y727671D02*
Y728337D01*
X505000D01*
Y727671D01*
X504500Y728337D02*
Y728004D01*
X504000Y727338D02*
X505000D01*
Y726838D01*
X504833Y726671D01*
X504167D01*
X504000Y726838D01*
Y727338D01*
X504167Y724672D02*
X504000Y724838D01*
Y725172D01*
X504167Y725338D01*
X504334D01*
X504500Y725172D01*
Y724838D01*
X504667Y724672D01*
X504833D01*
X505000Y724838D01*
Y725172D01*
X504833Y725338D01*
X504000Y724339D02*
Y724005D01*
Y724172D01*
X505000D01*
Y724339D01*
Y724005D01*
X504000Y723505D02*
X505000D01*
Y722839D01*
X504000Y722506D02*
X505000D01*
X504667D01*
X504000Y721839D01*
X504500Y722339D01*
X505000Y721839D01*
X504167Y720840D02*
X504000Y721006D01*
Y721340D01*
X504167Y721506D01*
X504334D01*
X504500Y721340D01*
Y721006D01*
X504667Y720840D01*
X504833D01*
X505000Y721006D01*
Y721340D01*
X504833Y721506D01*
X504167Y719840D02*
X504000Y720007D01*
Y720340D01*
X504167Y720506D01*
X504833D01*
X505000Y720340D01*
Y720007D01*
X504833Y719840D01*
X505000Y719507D02*
X504000D01*
Y719007D01*
X504167Y718840D01*
X504500D01*
X504667Y719007D01*
Y719507D01*
Y719173D02*
X505000Y718840D01*
X504000Y717841D02*
Y718507D01*
X505000D01*
Y717841D01*
X504500Y718507D02*
Y718174D01*
X504000Y716841D02*
Y717507D01*
X505000D01*
Y716841D01*
X504500Y717507D02*
Y717174D01*
X505000Y716508D02*
X504000D01*
X505000Y715841D01*
X504000D01*
X505000Y715508D02*
X504833D01*
Y715341D01*
X505000D01*
Y715508D01*
X2496881Y116833D02*
X2497048Y117000D01*
X2497381D01*
X2497547Y116833D01*
Y116666D01*
X2497381Y116500D01*
X2497048D01*
X2496881Y116333D01*
Y116167D01*
X2497048Y116000D01*
X2497381D01*
X2497547Y116167D01*
X2495881Y116833D02*
X2496048Y117000D01*
X2496381D01*
X2496548Y116833D01*
Y116666D01*
X2496381Y116500D01*
X2496048D01*
X2495881Y116333D01*
Y116167D01*
X2496048Y116000D01*
X2496381D01*
X2496548Y116167D01*
X2494548Y116000D02*
X2494215D01*
X2494382D01*
Y117000D01*
X2494548Y116833D01*
X2493715D02*
X2493548Y117000D01*
X2493215D01*
X2493049Y116833D01*
Y116167D01*
X2493215Y116000D01*
X2493548D01*
X2493715Y116167D01*
Y116833D01*
X2492049Y116000D02*
X2492715D01*
X2492049Y116666D01*
Y116833D01*
X2492216Y117000D01*
X2492549D01*
X2492715Y116833D01*
X2491049Y117000D02*
X2491716D01*
Y116500D01*
X2491383Y116666D01*
X2491216D01*
X2491049Y116500D01*
Y116167D01*
X2491216Y116000D01*
X2491549D01*
X2491716Y116167D01*
X2490716Y116000D02*
X2490383D01*
X2490549D01*
Y117000D01*
X2490716Y116833D01*
X2489216Y116000D02*
X2489883D01*
X2489216Y116666D01*
Y116833D01*
X2489383Y117000D01*
X2489716D01*
X2489883Y116833D01*
X2488717Y115833D02*
X2488550Y116000D01*
Y116167D01*
X2488717D01*
Y116000D01*
X2488550D01*
X2488717Y115833D01*
X2488883Y115667D01*
X2486884Y116000D02*
Y116666D01*
X2486551Y117000D01*
X2486217Y116666D01*
Y116000D01*
Y116500D01*
X2486884D01*
X2485884Y117000D02*
Y116000D01*
X2485384D01*
X2485218Y116167D01*
Y116833D01*
X2485384Y117000D01*
X2485884D01*
X2484884D02*
Y116000D01*
X2484385D01*
X2484218Y116167D01*
Y116833D01*
X2484385Y117000D01*
X2484884D01*
X2483218D02*
X2483885D01*
Y116000D01*
X2483218D01*
X2483885Y116500D02*
X2483552D01*
X2482885Y117000D02*
Y116000D01*
X2482385D01*
X2482218Y116167D01*
Y116833D01*
X2482385Y117000D01*
X2482885D01*
X2480219Y116833D02*
X2480386Y117000D01*
X2480719D01*
X2480886Y116833D01*
Y116666D01*
X2480719Y116500D01*
X2480386D01*
X2480219Y116333D01*
Y116167D01*
X2480386Y116000D01*
X2480719D01*
X2480886Y116167D01*
X2479886Y117000D02*
X2479553D01*
X2479719D01*
Y116000D01*
X2479886D01*
X2479553D01*
X2479053Y117000D02*
Y116000D01*
X2478386D01*
X2478053Y117000D02*
Y116000D01*
Y116333D01*
X2477387Y117000D01*
X2477887Y116500D01*
X2477387Y116000D01*
X2476387Y116833D02*
X2476554Y117000D01*
X2476887D01*
X2477053Y116833D01*
Y116666D01*
X2476887Y116500D01*
X2476554D01*
X2476387Y116333D01*
Y116167D01*
X2476554Y116000D01*
X2476887D01*
X2477053Y116167D01*
X2475387Y116833D02*
X2475554Y117000D01*
X2475887D01*
X2476054Y116833D01*
Y116167D01*
X2475887Y116000D01*
X2475554D01*
X2475387Y116167D01*
X2475054Y116000D02*
Y117000D01*
X2474554D01*
X2474387Y116833D01*
Y116500D01*
X2474554Y116333D01*
X2475054D01*
X2474721D02*
X2474387Y116000D01*
X2473388Y117000D02*
X2474054D01*
Y116000D01*
X2473388D01*
X2474054Y116500D02*
X2473721D01*
X2472388Y117000D02*
X2473055D01*
Y116000D01*
X2472388D01*
X2473055Y116500D02*
X2472721D01*
X2472055Y116000D02*
Y117000D01*
X2471388Y116000D01*
Y117000D01*
X2471055Y116000D02*
Y116167D01*
X2470889D01*
Y116000D01*
X2471055D01*
X1836277Y1296940D02*
X1836111Y1297107D01*
Y1297440D01*
X1836277Y1297606D01*
X1836444D01*
X1836610Y1297440D01*
Y1297107D01*
X1836777Y1296940D01*
X1836944D01*
X1837110Y1297107D01*
Y1297440D01*
X1836944Y1297606D01*
X1836277Y1295940D02*
X1836111Y1296107D01*
Y1296440D01*
X1836277Y1296607D01*
X1836444D01*
X1836610Y1296440D01*
Y1296107D01*
X1836777Y1295940D01*
X1836944D01*
X1837110Y1296107D01*
Y1296440D01*
X1836944Y1296607D01*
X1837110Y1294607D02*
Y1294274D01*
Y1294441D01*
X1836111D01*
X1836277Y1294607D01*
Y1293774D02*
X1836111Y1293608D01*
Y1293274D01*
X1836277Y1293108D01*
X1836944D01*
X1837110Y1293274D01*
Y1293608D01*
X1836944Y1293774D01*
X1836277D01*
X1837110Y1292108D02*
Y1292774D01*
X1836444Y1292108D01*
X1836277D01*
X1836111Y1292275D01*
Y1292608D01*
X1836277Y1292774D01*
X1836111Y1291108D02*
Y1291775D01*
X1836610D01*
X1836444Y1291441D01*
Y1291275D01*
X1836610Y1291108D01*
X1836944D01*
X1837110Y1291275D01*
Y1291608D01*
X1836944Y1291775D01*
X1837110Y1290775D02*
Y1290442D01*
Y1290608D01*
X1836111D01*
X1836277Y1290775D01*
X1837110Y1289275D02*
Y1289942D01*
X1836444Y1289275D01*
X1836277D01*
X1836111Y1289442D01*
Y1289775D01*
X1836277Y1289942D01*
X1837277Y1288776D02*
X1837110Y1288609D01*
X1836944D01*
Y1288776D01*
X1837110D01*
Y1288609D01*
X1837277Y1288776D01*
X1837443Y1288942D01*
X1837110Y1286943D02*
X1836444D01*
X1836111Y1286610D01*
X1836444Y1286276D01*
X1837110D01*
X1836610D01*
Y1286943D01*
X1836111Y1285943D02*
X1837110D01*
Y1285443D01*
X1836944Y1285277D01*
X1836277D01*
X1836111Y1285443D01*
Y1285943D01*
Y1284943D02*
X1837110D01*
Y1284444D01*
X1836944Y1284277D01*
X1836277D01*
X1836111Y1284444D01*
Y1284943D01*
Y1283277D02*
Y1283944D01*
X1837110D01*
Y1283277D01*
X1836610Y1283944D02*
Y1283611D01*
X1836111Y1282944D02*
X1837110D01*
Y1282444D01*
X1836944Y1282277D01*
X1836277D01*
X1836111Y1282444D01*
Y1282944D01*
X1836277Y1280278D02*
X1836111Y1280445D01*
Y1280778D01*
X1836277Y1280945D01*
X1836444D01*
X1836610Y1280778D01*
Y1280445D01*
X1836777Y1280278D01*
X1836944D01*
X1837110Y1280445D01*
Y1280778D01*
X1836944Y1280945D01*
X1836111Y1279945D02*
Y1279612D01*
Y1279778D01*
X1837110D01*
Y1279945D01*
Y1279612D01*
X1836111Y1279112D02*
X1837110D01*
Y1278445D01*
X1836111Y1278112D02*
X1837110D01*
X1836777D01*
X1836111Y1277446D01*
X1836610Y1277946D01*
X1837110Y1277446D01*
X1836277Y1276446D02*
X1836111Y1276613D01*
Y1276946D01*
X1836277Y1277112D01*
X1836444D01*
X1836610Y1276946D01*
Y1276613D01*
X1836777Y1276446D01*
X1836944D01*
X1837110Y1276613D01*
Y1276946D01*
X1836944Y1277112D01*
X1836277Y1275446D02*
X1836111Y1275613D01*
Y1275946D01*
X1836277Y1276113D01*
X1836944D01*
X1837110Y1275946D01*
Y1275613D01*
X1836944Y1275446D01*
X1837110Y1275113D02*
X1836111D01*
Y1274613D01*
X1836277Y1274447D01*
X1836610D01*
X1836777Y1274613D01*
Y1275113D01*
Y1274780D02*
X1837110Y1274447D01*
X1836111Y1273447D02*
Y1274113D01*
X1837110D01*
Y1273447D01*
X1836610Y1274113D02*
Y1273780D01*
X1836111Y1272447D02*
Y1273114D01*
X1837110D01*
Y1272447D01*
X1836610Y1273114D02*
Y1272780D01*
X1837110Y1272114D02*
X1836111D01*
X1837110Y1271447D01*
X1836111D01*
X1837110Y1271114D02*
X1836944D01*
Y1270948D01*
X1837110D01*
Y1271114D01*
X2026833Y562667D02*
X2027000Y562500D01*
Y562167D01*
X2026833Y562000D01*
X2026667D01*
X2026500Y562167D01*
Y562500D01*
X2026333Y562667D01*
X2026167D01*
X2026000Y562500D01*
Y562167D01*
X2026167Y562000D01*
X2026833Y563666D02*
X2027000Y563500D01*
Y563166D01*
X2026833Y563000D01*
X2026667D01*
X2026500Y563166D01*
Y563500D01*
X2026333Y563666D01*
X2026167D01*
X2026000Y563500D01*
Y563166D01*
X2026167Y563000D01*
X2026000Y564999D02*
Y565332D01*
Y565166D01*
X2027000D01*
X2026833Y564999D01*
Y565832D02*
X2027000Y565999D01*
Y566332D01*
X2026833Y566499D01*
X2026167D01*
X2026000Y566332D01*
Y565999D01*
X2026167Y565832D01*
X2026833D01*
X2026000Y567498D02*
Y566832D01*
X2026667Y567498D01*
X2026833D01*
X2027000Y567332D01*
Y566999D01*
X2026833Y566832D01*
X2027000Y568498D02*
Y567832D01*
X2026500D01*
X2026667Y568165D01*
Y568331D01*
X2026500Y568498D01*
X2026167D01*
X2026000Y568331D01*
Y567998D01*
X2026167Y567832D01*
X2026000Y568831D02*
Y569164D01*
Y568998D01*
X2027000D01*
X2026833Y568831D01*
X2026000Y570331D02*
Y569664D01*
X2026667Y570331D01*
X2026833D01*
X2027000Y570164D01*
Y569831D01*
X2026833Y569664D01*
X2025833Y570831D02*
X2026000Y570997D01*
X2026167D01*
Y570831D01*
X2026000D01*
Y570997D01*
X2025833Y570831D01*
X2025667Y570664D01*
X2026000Y572663D02*
X2026667D01*
X2027000Y572997D01*
X2026667Y573330D01*
X2026000D01*
X2026500D01*
Y572663D01*
X2027000Y573663D02*
X2026000D01*
Y574163D01*
X2026167Y574330D01*
X2026833D01*
X2027000Y574163D01*
Y573663D01*
Y574663D02*
X2026000D01*
Y575163D01*
X2026167Y575329D01*
X2026833D01*
X2027000Y575163D01*
Y574663D01*
Y576329D02*
Y575663D01*
X2026000D01*
Y576329D01*
X2026500Y575663D02*
Y575996D01*
X2027000Y576662D02*
X2026000D01*
Y577162D01*
X2026167Y577329D01*
X2026833D01*
X2027000Y577162D01*
Y576662D01*
X2026833Y579328D02*
X2027000Y579162D01*
Y578828D01*
X2026833Y578662D01*
X2026667D01*
X2026500Y578828D01*
Y579162D01*
X2026333Y579328D01*
X2026167D01*
X2026000Y579162D01*
Y578828D01*
X2026167Y578662D01*
X2027000Y579661D02*
Y579995D01*
Y579828D01*
X2026000D01*
Y579661D01*
Y579995D01*
X2027000Y580495D02*
X2026000D01*
Y581161D01*
X2027000Y581494D02*
X2026000D01*
X2026333D01*
X2027000Y582161D01*
X2026500Y581661D01*
X2026000Y582161D01*
X2026833Y583160D02*
X2027000Y582994D01*
Y582660D01*
X2026833Y582494D01*
X2026667D01*
X2026500Y582660D01*
Y582994D01*
X2026333Y583160D01*
X2026167D01*
X2026000Y582994D01*
Y582660D01*
X2026167Y582494D01*
X2026833Y584160D02*
X2027000Y583993D01*
Y583660D01*
X2026833Y583494D01*
X2026167D01*
X2026000Y583660D01*
Y583993D01*
X2026167Y584160D01*
X2026000Y584493D02*
X2027000D01*
Y584993D01*
X2026833Y585160D01*
X2026500D01*
X2026333Y584993D01*
Y584493D01*
Y584827D02*
X2026000Y585160D01*
X2027000Y586159D02*
Y585493D01*
X2026000D01*
Y586159D01*
X2026500Y585493D02*
Y585826D01*
X2027000Y587159D02*
Y586493D01*
X2026000D01*
Y587159D01*
X2026500Y586493D02*
Y586826D01*
X2026000Y587492D02*
X2027000D01*
X2026000Y588159D01*
X2027000D01*
X2026000Y588492D02*
X2026167D01*
Y588659D01*
X2026000D01*
Y588492D01*
X1601203Y1385855D02*
X1601370Y1385689D01*
Y1385356D01*
X1601203Y1385189D01*
X1601036D01*
X1600870Y1385356D01*
Y1385689D01*
X1600703Y1385855D01*
X1600537D01*
X1600370Y1385689D01*
Y1385356D01*
X1600537Y1385189D01*
X1601203Y1386855D02*
X1601370Y1386688D01*
Y1386355D01*
X1601203Y1386189D01*
X1601036D01*
X1600870Y1386355D01*
Y1386688D01*
X1600703Y1386855D01*
X1600537D01*
X1600370Y1386688D01*
Y1386355D01*
X1600537Y1386189D01*
X1600370Y1388188D02*
Y1388521D01*
Y1388355D01*
X1601370D01*
X1601203Y1388188D01*
Y1389021D02*
X1601370Y1389188D01*
Y1389521D01*
X1601203Y1389688D01*
X1600537D01*
X1600370Y1389521D01*
Y1389188D01*
X1600537Y1389021D01*
X1601203D01*
X1600370Y1390687D02*
Y1390021D01*
X1601036Y1390687D01*
X1601203D01*
X1601370Y1390521D01*
Y1390188D01*
X1601203Y1390021D01*
X1601370Y1391687D02*
Y1391021D01*
X1600870D01*
X1601036Y1391354D01*
Y1391520D01*
X1600870Y1391687D01*
X1600537D01*
X1600370Y1391520D01*
Y1391187D01*
X1600537Y1391021D01*
X1600370Y1392020D02*
Y1392353D01*
Y1392187D01*
X1601370D01*
X1601203Y1392020D01*
X1600370Y1393520D02*
Y1392853D01*
X1601036Y1393520D01*
X1601203D01*
X1601370Y1393353D01*
Y1393020D01*
X1601203Y1392853D01*
X1600203Y1394020D02*
X1600370Y1394186D01*
X1600537D01*
Y1394020D01*
X1600370D01*
Y1394186D01*
X1600203Y1394020D01*
X1600037Y1393853D01*
X1600370Y1395852D02*
X1601036D01*
X1601370Y1396186D01*
X1601036Y1396519D01*
X1600370D01*
X1600870D01*
Y1395852D01*
X1601370Y1396852D02*
X1600370D01*
Y1397352D01*
X1600537Y1397519D01*
X1601203D01*
X1601370Y1397352D01*
Y1396852D01*
Y1397852D02*
X1600370D01*
Y1398352D01*
X1600537Y1398518D01*
X1601203D01*
X1601370Y1398352D01*
Y1397852D01*
Y1399518D02*
Y1398852D01*
X1600370D01*
Y1399518D01*
X1600870Y1398852D02*
Y1399185D01*
X1601370Y1399851D02*
X1600370D01*
Y1400351D01*
X1600537Y1400518D01*
X1601203D01*
X1601370Y1400351D01*
Y1399851D01*
X1601203Y1402517D02*
X1601370Y1402351D01*
Y1402017D01*
X1601203Y1401851D01*
X1601036D01*
X1600870Y1402017D01*
Y1402351D01*
X1600703Y1402517D01*
X1600537D01*
X1600370Y1402351D01*
Y1402017D01*
X1600537Y1401851D01*
X1601370Y1402850D02*
Y1403184D01*
Y1403017D01*
X1600370D01*
Y1402850D01*
Y1403184D01*
X1601370Y1403684D02*
X1600370D01*
Y1404350D01*
X1601370Y1404683D02*
X1600370D01*
X1600703D01*
X1601370Y1405350D01*
X1600870Y1404850D01*
X1600370Y1405350D01*
X1601203Y1406349D02*
X1601370Y1406183D01*
Y1405850D01*
X1601203Y1405683D01*
X1601036D01*
X1600870Y1405850D01*
Y1406183D01*
X1600703Y1406349D01*
X1600537D01*
X1600370Y1406183D01*
Y1405850D01*
X1600537Y1405683D01*
X1601203Y1407349D02*
X1601370Y1407182D01*
Y1406849D01*
X1601203Y1406683D01*
X1600537D01*
X1600370Y1406849D01*
Y1407182D01*
X1600537Y1407349D01*
X1600370Y1407682D02*
X1601370D01*
Y1408182D01*
X1601203Y1408349D01*
X1600870D01*
X1600703Y1408182D01*
Y1407682D01*
Y1408015D02*
X1600370Y1408349D01*
X1601370Y1409349D02*
Y1408682D01*
X1600370D01*
Y1409349D01*
X1600870Y1408682D02*
Y1409015D01*
X1601370Y1410348D02*
Y1409682D01*
X1600370D01*
Y1410348D01*
X1600870Y1409682D02*
Y1410015D01*
X1600370Y1410681D02*
X1601370D01*
X1600370Y1411348D01*
X1601370D01*
X1600370Y1411681D02*
X1600537D01*
Y1411848D01*
X1600370D01*
Y1411681D01*
X1611203Y1519734D02*
X1611370Y1519567D01*
Y1519234D01*
X1611203Y1519067D01*
X1611036D01*
X1610870Y1519234D01*
Y1519567D01*
X1610703Y1519734D01*
X1610537D01*
X1610370Y1519567D01*
Y1519234D01*
X1610537Y1519067D01*
X1611203Y1520733D02*
X1611370Y1520566D01*
Y1520233D01*
X1611203Y1520067D01*
X1611036D01*
X1610870Y1520233D01*
Y1520566D01*
X1610703Y1520733D01*
X1610537D01*
X1610370Y1520566D01*
Y1520233D01*
X1610537Y1520067D01*
X1610370Y1522066D02*
Y1522399D01*
Y1522233D01*
X1611370D01*
X1611203Y1522066D01*
Y1522899D02*
X1611370Y1523066D01*
Y1523399D01*
X1611203Y1523566D01*
X1610537D01*
X1610370Y1523399D01*
Y1523066D01*
X1610537Y1522899D01*
X1611203D01*
X1610370Y1524565D02*
Y1523899D01*
X1611036Y1524565D01*
X1611203D01*
X1611370Y1524399D01*
Y1524065D01*
X1611203Y1523899D01*
X1611370Y1525565D02*
Y1524899D01*
X1610870D01*
X1611036Y1525232D01*
Y1525398D01*
X1610870Y1525565D01*
X1610537D01*
X1610370Y1525398D01*
Y1525065D01*
X1610537Y1524899D01*
X1610370Y1525898D02*
Y1526232D01*
Y1526065D01*
X1611370D01*
X1611203Y1525898D01*
X1610370Y1527398D02*
Y1526731D01*
X1611036Y1527398D01*
X1611203D01*
X1611370Y1527231D01*
Y1526898D01*
X1611203Y1526731D01*
X1610203Y1527898D02*
X1610370Y1528064D01*
X1610537D01*
Y1527898D01*
X1610370D01*
Y1528064D01*
X1610203Y1527898D01*
X1610037Y1527731D01*
X1610370Y1529730D02*
X1611036D01*
X1611370Y1530064D01*
X1611036Y1530397D01*
X1610370D01*
X1610870D01*
Y1529730D01*
X1611370Y1530730D02*
X1610370D01*
Y1531230D01*
X1610537Y1531397D01*
X1611203D01*
X1611370Y1531230D01*
Y1530730D01*
Y1531730D02*
X1610370D01*
Y1532230D01*
X1610537Y1532396D01*
X1611203D01*
X1611370Y1532230D01*
Y1531730D01*
Y1533396D02*
Y1532730D01*
X1610370D01*
Y1533396D01*
X1610870Y1532730D02*
Y1533063D01*
X1611370Y1533729D02*
X1610370D01*
Y1534229D01*
X1610537Y1534396D01*
X1611203D01*
X1611370Y1534229D01*
Y1533729D01*
X1611203Y1536395D02*
X1611370Y1536228D01*
Y1535895D01*
X1611203Y1535729D01*
X1611036D01*
X1610870Y1535895D01*
Y1536228D01*
X1610703Y1536395D01*
X1610537D01*
X1610370Y1536228D01*
Y1535895D01*
X1610537Y1535729D01*
X1611370Y1536728D02*
Y1537062D01*
Y1536895D01*
X1610370D01*
Y1536728D01*
Y1537062D01*
X1611370Y1537562D02*
X1610370D01*
Y1538228D01*
X1611370Y1538561D02*
X1610370D01*
X1610703D01*
X1611370Y1539228D01*
X1610870Y1538728D01*
X1610370Y1539228D01*
X1611203Y1540227D02*
X1611370Y1540061D01*
Y1539727D01*
X1611203Y1539561D01*
X1611036D01*
X1610870Y1539727D01*
Y1540061D01*
X1610703Y1540227D01*
X1610537D01*
X1610370Y1540061D01*
Y1539727D01*
X1610537Y1539561D01*
X1611203Y1541227D02*
X1611370Y1541060D01*
Y1540727D01*
X1611203Y1540561D01*
X1610537D01*
X1610370Y1540727D01*
Y1541060D01*
X1610537Y1541227D01*
X1610370Y1541560D02*
X1611370D01*
Y1542060D01*
X1611203Y1542227D01*
X1610870D01*
X1610703Y1542060D01*
Y1541560D01*
Y1541893D02*
X1610370Y1542227D01*
X1611370Y1543226D02*
Y1542560D01*
X1610370D01*
Y1543226D01*
X1610870Y1542560D02*
Y1542893D01*
X1611370Y1544226D02*
Y1543560D01*
X1610370D01*
Y1544226D01*
X1610870Y1543560D02*
Y1543893D01*
X1610370Y1544559D02*
X1611370D01*
X1610370Y1545226D01*
X1611370D01*
X1610370Y1545559D02*
X1610537D01*
Y1545726D01*
X1610370D01*
Y1545559D01*
X3381833Y493666D02*
X3382000Y493500D01*
Y493167D01*
X3381833Y493000D01*
X3381666D01*
X3381500Y493167D01*
Y493500D01*
X3381333Y493666D01*
X3381167D01*
X3381000Y493500D01*
Y493167D01*
X3381167Y493000D01*
X3381833Y494666D02*
X3382000Y494500D01*
Y494166D01*
X3381833Y494000D01*
X3381666D01*
X3381500Y494166D01*
Y494500D01*
X3381333Y494666D01*
X3381167D01*
X3381000Y494500D01*
Y494166D01*
X3381167Y494000D01*
X3381000Y495999D02*
Y496332D01*
Y496166D01*
X3382000D01*
X3381833Y495999D01*
Y496832D02*
X3382000Y496999D01*
Y497332D01*
X3381833Y497499D01*
X3381167D01*
X3381000Y497332D01*
Y496999D01*
X3381167Y496832D01*
X3381833D01*
X3381000Y498498D02*
Y497832D01*
X3381666Y498498D01*
X3381833D01*
X3382000Y498332D01*
Y497998D01*
X3381833Y497832D01*
X3382000Y499498D02*
Y498832D01*
X3381500D01*
X3381666Y499165D01*
Y499331D01*
X3381500Y499498D01*
X3381167D01*
X3381000Y499331D01*
Y498998D01*
X3381167Y498832D01*
X3381000Y499831D02*
Y500164D01*
Y499998D01*
X3382000D01*
X3381833Y499831D01*
X3381000Y501331D02*
Y500664D01*
X3381666Y501331D01*
X3381833D01*
X3382000Y501164D01*
Y500831D01*
X3381833Y500664D01*
X3380833Y501831D02*
X3381000Y501997D01*
X3381167D01*
Y501831D01*
X3381000D01*
Y501997D01*
X3380833Y501831D01*
X3380667Y501664D01*
X3381000Y503663D02*
X3381666D01*
X3382000Y503997D01*
X3381666Y504330D01*
X3381000D01*
X3381500D01*
Y503663D01*
X3382000Y504663D02*
X3381000D01*
Y505163D01*
X3381167Y505330D01*
X3381833D01*
X3382000Y505163D01*
Y504663D01*
Y505663D02*
X3381000D01*
Y506163D01*
X3381167Y506329D01*
X3381833D01*
X3382000Y506163D01*
Y505663D01*
Y507329D02*
Y506663D01*
X3381000D01*
Y507329D01*
X3381500Y506663D02*
Y506996D01*
X3382000Y507662D02*
X3381000D01*
Y508162D01*
X3381167Y508329D01*
X3381833D01*
X3382000Y508162D01*
Y507662D01*
X3381833Y510328D02*
X3382000Y510161D01*
Y509828D01*
X3381833Y509662D01*
X3381666D01*
X3381500Y509828D01*
Y510161D01*
X3381333Y510328D01*
X3381167D01*
X3381000Y510161D01*
Y509828D01*
X3381167Y509662D01*
X3382000Y510661D02*
Y510995D01*
Y510828D01*
X3381000D01*
Y510661D01*
Y510995D01*
X3382000Y511495D02*
X3381000D01*
Y512161D01*
X3382000Y512494D02*
X3381000D01*
X3381333D01*
X3382000Y513161D01*
X3381500Y512661D01*
X3381000Y513161D01*
X3381833Y514160D02*
X3382000Y513994D01*
Y513660D01*
X3381833Y513494D01*
X3381666D01*
X3381500Y513660D01*
Y513994D01*
X3381333Y514160D01*
X3381167D01*
X3381000Y513994D01*
Y513660D01*
X3381167Y513494D01*
X3381833Y515160D02*
X3382000Y514993D01*
Y514660D01*
X3381833Y514494D01*
X3381167D01*
X3381000Y514660D01*
Y514993D01*
X3381167Y515160D01*
X3381000Y515493D02*
X3382000D01*
Y515993D01*
X3381833Y516160D01*
X3381500D01*
X3381333Y515993D01*
Y515493D01*
Y515827D02*
X3381000Y516160D01*
X3382000Y517159D02*
Y516493D01*
X3381000D01*
Y517159D01*
X3381500Y516493D02*
Y516826D01*
X3382000Y518159D02*
Y517493D01*
X3381000D01*
Y518159D01*
X3381500Y517493D02*
Y517826D01*
X3381000Y518492D02*
X3382000D01*
X3381000Y519159D01*
X3382000D01*
X3381000Y519492D02*
X3381167D01*
Y519659D01*
X3381000D01*
Y519492D01*
X2877334Y1166833D02*
X2877500Y1167000D01*
X2877833D01*
X2878000Y1166833D01*
Y1166667D01*
X2877833Y1166500D01*
X2877500D01*
X2877334Y1166333D01*
Y1166167D01*
X2877500Y1166000D01*
X2877833D01*
X2878000Y1166167D01*
X2876334Y1166833D02*
X2876501Y1167000D01*
X2876834D01*
X2877000Y1166833D01*
Y1166667D01*
X2876834Y1166500D01*
X2876501D01*
X2876334Y1166333D01*
Y1166167D01*
X2876501Y1166000D01*
X2876834D01*
X2877000Y1166167D01*
X2875001Y1166000D02*
X2874668D01*
X2874834D01*
Y1167000D01*
X2875001Y1166833D01*
X2874168D02*
X2874001Y1167000D01*
X2873668D01*
X2873501Y1166833D01*
Y1166167D01*
X2873668Y1166000D01*
X2874001D01*
X2874168Y1166167D01*
Y1166833D01*
X2872502Y1166000D02*
X2873168D01*
X2872502Y1166667D01*
Y1166833D01*
X2872668Y1167000D01*
X2873001D01*
X2873168Y1166833D01*
X2871502Y1167000D02*
X2872168D01*
Y1166500D01*
X2871835Y1166667D01*
X2871669D01*
X2871502Y1166500D01*
Y1166167D01*
X2871669Y1166000D01*
X2872002D01*
X2872168Y1166167D01*
X2871169Y1166000D02*
X2870836D01*
X2871002D01*
Y1167000D01*
X2871169Y1166833D01*
X2869669Y1166000D02*
X2870336D01*
X2869669Y1166667D01*
Y1166833D01*
X2869836Y1167000D01*
X2870169D01*
X2870336Y1166833D01*
X2869169Y1165833D02*
X2869003Y1166000D01*
Y1166167D01*
X2869169D01*
Y1166000D01*
X2869003D01*
X2869169Y1165833D01*
X2869336Y1165667D01*
X2867336Y1166000D02*
Y1166667D01*
X2867003Y1167000D01*
X2866670Y1166667D01*
Y1166000D01*
Y1166500D01*
X2867336D01*
X2866337Y1167000D02*
Y1166000D01*
X2865837D01*
X2865670Y1166167D01*
Y1166833D01*
X2865837Y1167000D01*
X2866337D01*
X2865337D02*
Y1166000D01*
X2864837D01*
X2864671Y1166167D01*
Y1166833D01*
X2864837Y1167000D01*
X2865337D01*
X2863671D02*
X2864337D01*
Y1166000D01*
X2863671D01*
X2864337Y1166500D02*
X2864004D01*
X2863338Y1167000D02*
Y1166000D01*
X2862838D01*
X2862671Y1166167D01*
Y1166833D01*
X2862838Y1167000D01*
X2863338D01*
X2860672Y1166833D02*
X2860838Y1167000D01*
X2861172D01*
X2861338Y1166833D01*
Y1166667D01*
X2861172Y1166500D01*
X2860838D01*
X2860672Y1166333D01*
Y1166167D01*
X2860838Y1166000D01*
X2861172D01*
X2861338Y1166167D01*
X2860339Y1167000D02*
X2860005D01*
X2860172D01*
Y1166000D01*
X2860339D01*
X2860005D01*
X2859506Y1167000D02*
Y1166000D01*
X2858839D01*
X2858506Y1167000D02*
Y1166000D01*
Y1166333D01*
X2857839Y1167000D01*
X2858339Y1166500D01*
X2857839Y1166000D01*
X2856840Y1166833D02*
X2857006Y1167000D01*
X2857340D01*
X2857506Y1166833D01*
Y1166667D01*
X2857340Y1166500D01*
X2857006D01*
X2856840Y1166333D01*
Y1166167D01*
X2857006Y1166000D01*
X2857340D01*
X2857506Y1166167D01*
X2855840Y1166833D02*
X2856007Y1167000D01*
X2856340D01*
X2856506Y1166833D01*
Y1166167D01*
X2856340Y1166000D01*
X2856007D01*
X2855840Y1166167D01*
X2855507Y1166000D02*
Y1167000D01*
X2855007D01*
X2854840Y1166833D01*
Y1166500D01*
X2855007Y1166333D01*
X2855507D01*
X2855173D02*
X2854840Y1166000D01*
X2853840Y1167000D02*
X2854507D01*
Y1166000D01*
X2853840D01*
X2854507Y1166500D02*
X2854174D01*
X2852841Y1167000D02*
X2853507D01*
Y1166000D01*
X2852841D01*
X2853507Y1166500D02*
X2853174D01*
X2852508Y1166000D02*
Y1167000D01*
X2851841Y1166000D01*
Y1167000D01*
X2851508Y1166000D02*
Y1166167D01*
X2851341D01*
Y1166000D01*
X2851508D01*
X3212666Y1143167D02*
X3212500Y1143000D01*
X3212167D01*
X3212000Y1143167D01*
Y1143333D01*
X3212167Y1143500D01*
X3212500D01*
X3212666Y1143667D01*
Y1143833D01*
X3212500Y1144000D01*
X3212167D01*
X3212000Y1143833D01*
X3213666Y1143167D02*
X3213499Y1143000D01*
X3213166D01*
X3213000Y1143167D01*
Y1143333D01*
X3213166Y1143500D01*
X3213499D01*
X3213666Y1143667D01*
Y1143833D01*
X3213499Y1144000D01*
X3213166D01*
X3213000Y1143833D01*
X3214999Y1144000D02*
X3215332D01*
X3215166D01*
Y1143000D01*
X3214999Y1143167D01*
X3215832D02*
X3215999Y1143000D01*
X3216332D01*
X3216499Y1143167D01*
Y1143833D01*
X3216332Y1144000D01*
X3215999D01*
X3215832Y1143833D01*
Y1143167D01*
X3217498Y1144000D02*
X3216832D01*
X3217498Y1143333D01*
Y1143167D01*
X3217332Y1143000D01*
X3216999D01*
X3216832Y1143167D01*
X3218498Y1143000D02*
X3217832D01*
Y1143500D01*
X3218165Y1143333D01*
X3218331D01*
X3218498Y1143500D01*
Y1143833D01*
X3218331Y1144000D01*
X3217998D01*
X3217832Y1143833D01*
X3218831Y1144000D02*
X3219164D01*
X3218998D01*
Y1143000D01*
X3218831Y1143167D01*
X3220331Y1144000D02*
X3219664D01*
X3220331Y1143333D01*
Y1143167D01*
X3220164Y1143000D01*
X3219831D01*
X3219664Y1143167D01*
X3220831Y1144167D02*
X3220997Y1144000D01*
Y1143833D01*
X3220831D01*
Y1144000D01*
X3220997D01*
X3220831Y1144167D01*
X3220664Y1144333D01*
X3222664Y1144000D02*
Y1143333D01*
X3222997Y1143000D01*
X3223330Y1143333D01*
Y1144000D01*
Y1143500D01*
X3222664D01*
X3223663Y1143000D02*
Y1144000D01*
X3224163D01*
X3224330Y1143833D01*
Y1143167D01*
X3224163Y1143000D01*
X3223663D01*
X3224663D02*
Y1144000D01*
X3225163D01*
X3225329Y1143833D01*
Y1143167D01*
X3225163Y1143000D01*
X3224663D01*
X3226329D02*
X3225663D01*
Y1144000D01*
X3226329D01*
X3225663Y1143500D02*
X3225996D01*
X3226662Y1143000D02*
Y1144000D01*
X3227162D01*
X3227329Y1143833D01*
Y1143167D01*
X3227162Y1143000D01*
X3226662D01*
X3229328Y1143167D02*
X3229162Y1143000D01*
X3228828D01*
X3228662Y1143167D01*
Y1143333D01*
X3228828Y1143500D01*
X3229162D01*
X3229328Y1143667D01*
Y1143833D01*
X3229162Y1144000D01*
X3228828D01*
X3228662Y1143833D01*
X3229661Y1143000D02*
X3229995D01*
X3229828D01*
Y1144000D01*
X3229661D01*
X3229995D01*
X3230494Y1143000D02*
Y1144000D01*
X3231161D01*
X3231494Y1143000D02*
Y1144000D01*
Y1143667D01*
X3232161Y1143000D01*
X3231661Y1143500D01*
X3232161Y1144000D01*
X3233160Y1143167D02*
X3232994Y1143000D01*
X3232660D01*
X3232494Y1143167D01*
Y1143333D01*
X3232660Y1143500D01*
X3232994D01*
X3233160Y1143667D01*
Y1143833D01*
X3232994Y1144000D01*
X3232660D01*
X3232494Y1143833D01*
X3234160Y1143167D02*
X3233993Y1143000D01*
X3233660D01*
X3233494Y1143167D01*
Y1143833D01*
X3233660Y1144000D01*
X3233993D01*
X3234160Y1143833D01*
X3234493Y1144000D02*
Y1143000D01*
X3234993D01*
X3235160Y1143167D01*
Y1143500D01*
X3234993Y1143667D01*
X3234493D01*
X3234827D02*
X3235160Y1144000D01*
X3236160Y1143000D02*
X3235493D01*
Y1144000D01*
X3236160D01*
X3235493Y1143500D02*
X3235826D01*
X3237159Y1143000D02*
X3236493D01*
Y1144000D01*
X3237159D01*
X3236493Y1143500D02*
X3236826D01*
X3237492Y1144000D02*
Y1143000D01*
X3238159Y1144000D01*
Y1143000D01*
X3238492Y1144000D02*
Y1143833D01*
X3238659D01*
Y1144000D01*
X3238492D01*
X3573334Y690258D02*
X3573500Y690425D01*
X3573833D01*
X3574000Y690258D01*
Y690092D01*
X3573833Y689925D01*
X3573500D01*
X3573334Y689758D01*
Y689592D01*
X3573500Y689425D01*
X3573833D01*
X3574000Y689592D01*
X3572334Y690258D02*
X3572501Y690425D01*
X3572834D01*
X3573000Y690258D01*
Y690092D01*
X3572834Y689925D01*
X3572501D01*
X3572334Y689758D01*
Y689592D01*
X3572501Y689425D01*
X3572834D01*
X3573000Y689592D01*
X3571001Y689425D02*
X3570668D01*
X3570834D01*
Y690425D01*
X3571001Y690258D01*
X3570168D02*
X3570001Y690425D01*
X3569668D01*
X3569501Y690258D01*
Y689592D01*
X3569668Y689425D01*
X3570001D01*
X3570168Y689592D01*
Y690258D01*
X3568502Y689425D02*
X3569168D01*
X3568502Y690092D01*
Y690258D01*
X3568668Y690425D01*
X3569001D01*
X3569168Y690258D01*
X3567502Y690425D02*
X3568168D01*
Y689925D01*
X3567835Y690092D01*
X3567669D01*
X3567502Y689925D01*
Y689592D01*
X3567669Y689425D01*
X3568002D01*
X3568168Y689592D01*
X3567169Y689425D02*
X3566836D01*
X3567002D01*
Y690425D01*
X3567169Y690258D01*
X3565669Y689425D02*
X3566336D01*
X3565669Y690092D01*
Y690258D01*
X3565836Y690425D01*
X3566169D01*
X3566336Y690258D01*
X3565169Y689259D02*
X3565003Y689425D01*
Y689592D01*
X3565169D01*
Y689425D01*
X3565003D01*
X3565169Y689259D01*
X3565336Y689092D01*
X3563336Y689425D02*
Y690092D01*
X3563003Y690425D01*
X3562670Y690092D01*
Y689425D01*
Y689925D01*
X3563336D01*
X3562337Y690425D02*
Y689425D01*
X3561837D01*
X3561670Y689592D01*
Y690258D01*
X3561837Y690425D01*
X3562337D01*
X3561337D02*
Y689425D01*
X3560837D01*
X3560671Y689592D01*
Y690258D01*
X3560837Y690425D01*
X3561337D01*
X3559671D02*
X3560337D01*
Y689425D01*
X3559671D01*
X3560337Y689925D02*
X3560004D01*
X3559338Y690425D02*
Y689425D01*
X3558838D01*
X3558671Y689592D01*
Y690258D01*
X3558838Y690425D01*
X3559338D01*
X3556672Y690258D02*
X3556838Y690425D01*
X3557172D01*
X3557338Y690258D01*
Y690092D01*
X3557172Y689925D01*
X3556838D01*
X3556672Y689758D01*
Y689592D01*
X3556838Y689425D01*
X3557172D01*
X3557338Y689592D01*
X3556339Y690425D02*
X3556005D01*
X3556172D01*
Y689425D01*
X3556339D01*
X3556005D01*
X3555506Y690425D02*
Y689425D01*
X3554839D01*
X3554506Y690425D02*
Y689425D01*
Y689758D01*
X3553839Y690425D01*
X3554339Y689925D01*
X3553839Y689425D01*
X3552840Y690258D02*
X3553006Y690425D01*
X3553340D01*
X3553506Y690258D01*
Y690092D01*
X3553340Y689925D01*
X3553006D01*
X3552840Y689758D01*
Y689592D01*
X3553006Y689425D01*
X3553340D01*
X3553506Y689592D01*
X3551840Y690258D02*
X3552007Y690425D01*
X3552340D01*
X3552506Y690258D01*
Y689592D01*
X3552340Y689425D01*
X3552007D01*
X3551840Y689592D01*
X3551507Y689425D02*
Y690425D01*
X3551007D01*
X3550840Y690258D01*
Y689925D01*
X3551007Y689758D01*
X3551507D01*
X3551173D02*
X3550840Y689425D01*
X3549840Y690425D02*
X3550507D01*
Y689425D01*
X3549840D01*
X3550507Y689925D02*
X3550174D01*
X3548841Y690425D02*
X3549507D01*
Y689425D01*
X3548841D01*
X3549507Y689925D02*
X3549174D01*
X3548508Y689425D02*
Y690425D01*
X3547841Y689425D01*
Y690425D01*
X3547508Y689425D02*
Y689592D01*
X3547341D01*
Y689425D01*
X3547508D01*
%TF.MD5,c512118a1f688ff227daa58ccafa2031*%
M02*
