%TF.GenerationSoftware,Altium Limited,Altium Designer,20.0.13 (296)*%
G04 Layer_Color=8388736*
%FSLAX26Y26*%
%MOIN*%
%TF.FileFunction,Soldermask,Top*%
%TF.Part,Single*%
G01*
G75*
%TA.AperFunction,ComponentPad*%
%ADD54C,0.050000*%
%ADD57C,0.125000*%
%ADD77C,0.300000*%
%TA.AperFunction,SMDPad,CuDef*%
%ADD114R,0.048000X0.044000*%
%ADD115R,0.044000X0.048000*%
%ADD118R,0.048307X0.044370*%
%ADD119R,0.044370X0.048307*%
%ADD120R,0.064055X0.056181*%
%ADD121R,0.056181X0.064055*%
%TA.AperFunction,ComponentPad*%
%ADD125O,0.075000X0.105000*%
%ADD126C,0.063661*%
%ADD127R,0.071929X0.071929*%
%ADD128C,0.071929*%
%ADD129C,0.055000*%
%ADD130C,0.272716*%
%ADD131C,0.066024*%
%ADD132C,0.138000*%
%ADD133C,0.100000*%
%ADD134R,0.100000X0.100000*%
%ADD135R,0.125000X0.125000*%
%ADD136C,0.068000*%
%ADD137C,0.083740*%
%ADD138R,0.083740X0.083740*%
%ADD139R,0.066024X0.066024*%
%ADD140C,0.058150*%
%ADD141R,0.058150X0.058150*%
%ADD142C,0.052244*%
%ADD143C,0.064370*%
%ADD144R,0.064370X0.064370*%
%ADD145C,0.064055*%
%ADD146R,0.064055X0.064055*%
%ADD147R,0.056181X0.056181*%
%ADD148C,0.056181*%
%ADD149C,0.305000*%
%ADD150R,0.052244X0.052244*%
%ADD151R,0.067598X0.067598*%
%ADD152C,0.067598*%
%ADD153C,0.060118*%
%ADD154O,0.085000X0.100000*%
%ADD155C,0.065000*%
%ADD156R,0.064370X0.064370*%
%ADD157C,0.099488*%
%ADD158R,0.064055X0.064055*%
%TA.AperFunction,SMDPad,CuDef*%
G04:AMPARAMS|DCode=164|XSize=25.654mil|YSize=25.654mil|CornerRadius=4.707mil|HoleSize=0mil|Usage=FLASHONLY|Rotation=180.000|XOffset=0mil|YOffset=0mil|HoleType=Round|Shape=RoundedRectangle|*
%AMROUNDEDRECTD164*
21,1,0.025654,0.016240,0,0,180.0*
21,1,0.016240,0.025654,0,0,180.0*
1,1,0.009413,-0.008120,0.008120*
1,1,0.009413,0.008120,0.008120*
1,1,0.009413,0.008120,-0.008120*
1,1,0.009413,-0.008120,-0.008120*
%
%ADD164ROUNDEDRECTD164*%
%ADD165R,0.062874X0.044764*%
G04:AMPARAMS|DCode=166|XSize=71.118mil|YSize=263.906mil|CornerRadius=5.356mil|HoleSize=0mil|Usage=FLASHONLY|Rotation=0.000|XOffset=0mil|YOffset=0mil|HoleType=Round|Shape=RoundedRectangle|*
%AMROUNDEDRECTD166*
21,1,0.071118,0.253194,0,0,0.0*
21,1,0.060406,0.263906,0,0,0.0*
1,1,0.010712,0.030203,-0.126597*
1,1,0.010712,-0.030203,-0.126597*
1,1,0.010712,-0.030203,0.126597*
1,1,0.010712,0.030203,0.126597*
%
%ADD166ROUNDEDRECTD166*%
G04:AMPARAMS|DCode=167|XSize=36.496mil|YSize=40.433mil|CornerRadius=10.374mil|HoleSize=0mil|Usage=FLASHONLY|Rotation=180.000|XOffset=0mil|YOffset=0mil|HoleType=Round|Shape=RoundedRectangle|*
%AMROUNDEDRECTD167*
21,1,0.036496,0.019685,0,0,180.0*
21,1,0.015748,0.040433,0,0,180.0*
1,1,0.020748,-0.007874,0.009843*
1,1,0.020748,0.007874,0.009843*
1,1,0.020748,0.007874,-0.009843*
1,1,0.020748,-0.007874,-0.009843*
%
%ADD167ROUNDEDRECTD167*%
G04:AMPARAMS|DCode=168|XSize=32.165mil|YSize=43.976mil|CornerRadius=5.896mil|HoleSize=0mil|Usage=FLASHONLY|Rotation=90.000|XOffset=0mil|YOffset=0mil|HoleType=Round|Shape=RoundedRectangle|*
%AMROUNDEDRECTD168*
21,1,0.032165,0.032185,0,0,90.0*
21,1,0.020374,0.043976,0,0,90.0*
1,1,0.011791,0.016093,0.010187*
1,1,0.011791,0.016093,-0.010187*
1,1,0.011791,-0.016093,-0.010187*
1,1,0.011791,-0.016093,0.010187*
%
%ADD168ROUNDEDRECTD168*%
G04:AMPARAMS|DCode=169|XSize=26.654mil|YSize=64.055mil|CornerRadius=7.913mil|HoleSize=0mil|Usage=FLASHONLY|Rotation=180.000|XOffset=0mil|YOffset=0mil|HoleType=Round|Shape=RoundedRectangle|*
%AMROUNDEDRECTD169*
21,1,0.026654,0.048228,0,0,180.0*
21,1,0.010827,0.064055,0,0,180.0*
1,1,0.015827,-0.005413,0.024114*
1,1,0.015827,0.005413,0.024114*
1,1,0.015827,0.005413,-0.024114*
1,1,0.015827,-0.005413,-0.024114*
%
%ADD169ROUNDEDRECTD169*%
G04:AMPARAMS|DCode=170|XSize=26.654mil|YSize=64.055mil|CornerRadius=7.913mil|HoleSize=0mil|Usage=FLASHONLY|Rotation=270.000|XOffset=0mil|YOffset=0mil|HoleType=Round|Shape=RoundedRectangle|*
%AMROUNDEDRECTD170*
21,1,0.026654,0.048228,0,0,270.0*
21,1,0.010827,0.064055,0,0,270.0*
1,1,0.015827,-0.024114,-0.005413*
1,1,0.015827,-0.024114,0.005413*
1,1,0.015827,0.024114,0.005413*
1,1,0.015827,0.024114,-0.005413*
%
%ADD170ROUNDEDRECTD170*%
G04:AMPARAMS|DCode=171|XSize=35.709mil|YSize=35.709mil|CornerRadius=10.177mil|HoleSize=0mil|Usage=FLASHONLY|Rotation=270.000|XOffset=0mil|YOffset=0mil|HoleType=Round|Shape=RoundedRectangle|*
%AMROUNDEDRECTD171*
21,1,0.035709,0.015354,0,0,270.0*
21,1,0.015354,0.035709,0,0,270.0*
1,1,0.020354,-0.007677,-0.007677*
1,1,0.020354,-0.007677,0.007677*
1,1,0.020354,0.007677,0.007677*
1,1,0.020354,0.007677,-0.007677*
%
%ADD171ROUNDEDRECTD171*%
%ADD172R,0.079803X0.138858*%
%ADD173R,0.115000X0.073000*%
%ADD174R,0.083740X0.123110*%
%ADD175R,0.078000X0.139000*%
%ADD176R,0.119173X0.217598*%
%ADD177R,0.103425X0.201850*%
%ADD178R,0.020748X0.040433*%
%ADD179R,0.053032X0.040827*%
%ADD180R,0.103425X0.162480*%
G04:AMPARAMS|DCode=181|XSize=66.024mil|YSize=28.622mil|CornerRadius=8.406mil|HoleSize=0mil|Usage=FLASHONLY|Rotation=180.000|XOffset=0mil|YOffset=0mil|HoleType=Round|Shape=RoundedRectangle|*
%AMROUNDEDRECTD181*
21,1,0.066024,0.011811,0,0,180.0*
21,1,0.049213,0.028622,0,0,180.0*
1,1,0.016811,-0.024606,0.005906*
1,1,0.016811,0.024606,0.005906*
1,1,0.016811,0.024606,-0.005906*
1,1,0.016811,-0.024606,-0.005906*
%
%ADD181ROUNDEDRECTD181*%
%ADD182R,0.052992X0.040984*%
%ADD183R,0.048000X0.068000*%
%ADD184R,0.071929X0.103425*%
G04:AMPARAMS|DCode=185|XSize=20.748mil|YSize=30.591mil|CornerRadius=4.468mil|HoleSize=0mil|Usage=FLASHONLY|Rotation=90.000|XOffset=0mil|YOffset=0mil|HoleType=Round|Shape=RoundedRectangle|*
%AMROUNDEDRECTD185*
21,1,0.020748,0.021654,0,0,90.0*
21,1,0.011811,0.030591,0,0,90.0*
1,1,0.008937,0.010827,0.005906*
1,1,0.008937,0.010827,-0.005906*
1,1,0.008937,-0.010827,-0.005906*
1,1,0.008937,-0.010827,0.005906*
%
%ADD185ROUNDEDRECTD185*%
D54*
X5145000Y2200000D02*
D03*
X5945394D02*
D03*
D57*
X753000Y2204595D02*
D03*
D77*
X3545000Y1535000D02*
D03*
X5835000Y460000D02*
D03*
X5940000Y4085000D02*
D03*
D114*
X1582996Y400000D02*
D03*
X1649925D02*
D03*
X1493465D02*
D03*
X1426535D02*
D03*
X2131929Y1935000D02*
D03*
X2065000D02*
D03*
X2417638Y1320000D02*
D03*
X2484567D02*
D03*
X959429Y1400000D02*
D03*
X892500D02*
D03*
X1496535Y785000D02*
D03*
X1563465D02*
D03*
X2216535Y90000D02*
D03*
X2283465D02*
D03*
X1231929Y1472599D02*
D03*
X1165000D02*
D03*
X2047834Y1595000D02*
D03*
X1980905D02*
D03*
X2047834Y1525000D02*
D03*
X1980905D02*
D03*
X1980906Y1655000D02*
D03*
X2047835D02*
D03*
X1980906Y1465000D02*
D03*
X2047835D02*
D03*
D115*
X1551461Y566535D02*
D03*
Y633465D02*
D03*
X2490000Y1391535D02*
D03*
Y1458465D02*
D03*
X739429Y1326535D02*
D03*
Y1393465D02*
D03*
X659429Y1394965D02*
D03*
Y1328035D02*
D03*
X1420000Y948071D02*
D03*
Y1015000D02*
D03*
X1340000Y1015000D02*
D03*
Y948071D02*
D03*
X658307Y1476622D02*
D03*
Y1543622D02*
D03*
X1491500Y673500D02*
D03*
Y606500D02*
D03*
D118*
X1045965Y1320000D02*
D03*
X1112894D02*
D03*
X670000Y1890000D02*
D03*
X603071D02*
D03*
D119*
X819429Y1393465D02*
D03*
Y1326535D02*
D03*
X55000Y739370D02*
D03*
Y672441D02*
D03*
X2330000Y733071D02*
D03*
Y800000D02*
D03*
Y586535D02*
D03*
Y653465D02*
D03*
X1495000Y1015000D02*
D03*
Y948071D02*
D03*
X1778000Y673465D02*
D03*
Y606535D02*
D03*
X1698000Y673465D02*
D03*
Y606535D02*
D03*
X1613000Y673465D02*
D03*
Y606535D02*
D03*
X1458465Y1666063D02*
D03*
Y1599134D02*
D03*
X2755000Y466535D02*
D03*
Y533465D02*
D03*
X3335000Y431535D02*
D03*
Y498464D02*
D03*
D120*
X748465Y1890000D02*
D03*
Y1815197D02*
D03*
X858465Y1815197D02*
D03*
Y1890000D02*
D03*
X3490000Y452728D02*
D03*
Y527531D02*
D03*
X55000Y822598D02*
D03*
Y897402D02*
D03*
D121*
X397402Y465000D02*
D03*
X322599D02*
D03*
D125*
X100000Y3058561D02*
D03*
Y3449112D02*
D03*
X233858Y3058561D02*
D03*
Y3449112D02*
D03*
D126*
X3622000Y755000D02*
D03*
X3722000Y655000D02*
D03*
X3622000Y555000D02*
D03*
D127*
X1705000Y295000D02*
D03*
D128*
Y195000D02*
D03*
X1605000Y295000D02*
D03*
Y195000D02*
D03*
X1505000Y295000D02*
D03*
Y195000D02*
D03*
D129*
X3542209Y2452601D02*
D03*
D130*
X5050000Y2520000D02*
D03*
Y3475000D02*
D03*
X2660000Y3300000D02*
D03*
Y2690000D02*
D03*
D131*
X3613000Y945000D02*
D03*
X3995000Y838000D02*
D03*
X808032Y661417D02*
D03*
X708032D02*
D03*
D132*
X4365004Y155000D02*
D03*
X5407004Y125000D02*
D03*
D133*
X4190000Y155000D02*
D03*
X5582008Y125000D02*
D03*
D134*
X4027008Y155000D02*
D03*
X5745000Y125000D02*
D03*
D135*
X753000Y2516405D02*
D03*
D136*
X155000Y2065000D02*
D03*
Y2656000D02*
D03*
D137*
X2335630Y335000D02*
D03*
X2535630D02*
D03*
X2435630D02*
D03*
X5065000Y1102126D02*
D03*
Y610000D02*
D03*
X4671299Y1102126D02*
D03*
Y610000D02*
D03*
D138*
X2635630Y335000D02*
D03*
D139*
X608032Y661417D02*
D03*
D140*
X458740Y1752480D02*
D03*
Y1673740D02*
D03*
X380000Y1752480D02*
D03*
Y1831220D02*
D03*
Y1673740D02*
D03*
X458740Y1516260D02*
D03*
Y1595000D02*
D03*
X380000Y1516260D02*
D03*
Y1595000D02*
D03*
D141*
X458740Y1831220D02*
D03*
D142*
X1495000Y3170000D02*
D03*
Y3270000D02*
D03*
X2300000Y1800000D02*
D03*
X5480000Y1110000D02*
D03*
Y1010000D02*
D03*
D143*
X3370000Y1233150D02*
D03*
X2870000D02*
D03*
X3170000D02*
D03*
X2585669Y1879213D02*
D03*
D144*
X2770000Y1233150D02*
D03*
D145*
X2000000Y3160276D02*
D03*
X1430000Y2685276D02*
D03*
X1200000Y3185000D02*
D03*
D146*
X2000000Y2865000D02*
D03*
X1430000Y2390000D02*
D03*
D147*
X535000Y3448150D02*
D03*
D148*
Y3645000D02*
D03*
D149*
X245000Y220000D02*
D03*
Y4085000D02*
D03*
D150*
X2300000Y1878740D02*
D03*
D151*
X3887000Y470575D02*
D03*
D152*
Y667425D02*
D03*
Y569000D02*
D03*
D153*
X4594449Y290000D02*
D03*
X5185000D02*
D03*
D154*
X5980000Y1675000D02*
D03*
X4897323D02*
D03*
D155*
X3256850Y1830000D02*
D03*
X2863150D02*
D03*
X4195793Y363150D02*
D03*
Y756850D02*
D03*
X4220000Y4157500D02*
D03*
X3826299D02*
D03*
X3266850Y4165000D02*
D03*
X2873150D02*
D03*
X5475000Y731850D02*
D03*
Y338150D02*
D03*
X4226850Y1840000D02*
D03*
X3833150D02*
D03*
D156*
X2585669Y1780787D02*
D03*
D157*
X1921701Y4208000D02*
D03*
X1528000D02*
D03*
D158*
X904724Y3185000D02*
D03*
D164*
X2481713Y75236D02*
D03*
Y104764D02*
D03*
X2377382Y75236D02*
D03*
Y104764D02*
D03*
D165*
X1910000Y140217D02*
D03*
Y63051D02*
D03*
X2005335Y140217D02*
D03*
Y63051D02*
D03*
X2101043Y140217D02*
D03*
Y63051D02*
D03*
D166*
X463402Y3082874D02*
D03*
X376598D02*
D03*
D167*
X2520000Y1624370D02*
D03*
X2555433Y1545630D02*
D03*
X2484567D02*
D03*
D168*
X1079449Y1670000D02*
D03*
Y1595197D02*
D03*
X977480D02*
D03*
Y1632599D02*
D03*
Y1670000D02*
D03*
D169*
X2170236Y452677D02*
D03*
X2138740D02*
D03*
X2107244D02*
D03*
X2075748D02*
D03*
X2044252D02*
D03*
X2012756D02*
D03*
X1981260D02*
D03*
X1949764D02*
D03*
Y787323D02*
D03*
X1981260D02*
D03*
X2012756D02*
D03*
X2044252D02*
D03*
X2075748D02*
D03*
X2107244D02*
D03*
X2138740D02*
D03*
X2170236D02*
D03*
D170*
X1892677Y509764D02*
D03*
Y541260D02*
D03*
Y572756D02*
D03*
Y604252D02*
D03*
Y635748D02*
D03*
Y667244D02*
D03*
Y698740D02*
D03*
Y730236D02*
D03*
X2227323D02*
D03*
Y698740D02*
D03*
Y667244D02*
D03*
Y635748D02*
D03*
Y604252D02*
D03*
Y572756D02*
D03*
Y541260D02*
D03*
Y509764D02*
D03*
D171*
X2135992Y1786669D02*
D03*
Y1861473D02*
D03*
X2045835Y1824071D02*
D03*
D172*
X5395772Y3470000D02*
D03*
X5557772D02*
D03*
D173*
X1280000Y3825000D02*
D03*
Y3711000D02*
D03*
X1115000Y3825000D02*
D03*
Y3711000D02*
D03*
X950000Y3825000D02*
D03*
Y3711000D02*
D03*
X780000Y3825000D02*
D03*
Y3711000D02*
D03*
D174*
X159016Y733000D02*
D03*
X410984D02*
D03*
D175*
X1846500Y4035000D02*
D03*
X1623500D02*
D03*
D176*
X6044882Y975000D02*
D03*
X5655118D02*
D03*
D177*
X1981063Y3670000D02*
D03*
X1488937D02*
D03*
D178*
X188949Y1040118D02*
D03*
X143673D02*
D03*
X188949Y929882D02*
D03*
X143673D02*
D03*
D179*
X219461Y1274370D02*
D03*
Y1145630D02*
D03*
D180*
X1075000Y442480D02*
D03*
Y127520D02*
D03*
X630000Y442480D02*
D03*
Y127520D02*
D03*
D181*
X1374765Y1657599D02*
D03*
Y1707599D02*
D03*
Y1557599D02*
D03*
Y1607599D02*
D03*
X1162165Y1707599D02*
D03*
Y1607599D02*
D03*
Y1657599D02*
D03*
Y1557599D02*
D03*
D182*
X2655000Y1629815D02*
D03*
Y1500815D02*
D03*
D183*
X889465Y1680099D02*
D03*
Y1585099D02*
D03*
X747465Y1680099D02*
D03*
Y1585099D02*
D03*
D184*
X70000Y1328740D02*
D03*
Y1171260D02*
D03*
D185*
X1119784Y1425591D02*
D03*
Y1374409D02*
D03*
X1039075D02*
D03*
Y1425591D02*
D03*
Y1400000D02*
D03*
%TF.MD5,bc69f790b91cf853538346dfe104b5f1*%
M02*
