G04*
G04 #@! TF.GenerationSoftware,Altium Limited,Altium Designer,20.0.13 (296)*
G04*
G04 Layer_Color=128*
%FSTAX25Y25*%
%MOIN*%
G70*
G01*
G75*
%ADD30R,0.04300X0.03900*%
%ADD31R,0.03900X0.04300*%
%ADD32R,0.05118X0.05906*%
%ADD33R,0.05906X0.05118*%
%ADD35R,0.04331X0.03937*%
%ADD36R,0.03937X0.04331*%
G04:AMPARAMS|DCode=160|XSize=65.4mil|YSize=23.5mil|CornerRadius=5.88mil|HoleSize=0mil|Usage=FLASHONLY|Rotation=0.000|XOffset=0mil|YOffset=0mil|HoleType=Round|Shape=RoundedRectangle|*
%AMROUNDEDRECTD160*
21,1,0.06540,0.01175,0,0,0.0*
21,1,0.05365,0.02350,0,0,0.0*
1,1,0.01175,0.02683,-0.00588*
1,1,0.01175,-0.02683,-0.00588*
1,1,0.01175,-0.02683,0.00588*
1,1,0.01175,0.02683,0.00588*
%
%ADD160ROUNDEDRECTD160*%
G04:AMPARAMS|DCode=161|XSize=23.62mil|YSize=74.8mil|CornerRadius=5.91mil|HoleSize=0mil|Usage=FLASHONLY|Rotation=180.000|XOffset=0mil|YOffset=0mil|HoleType=Round|Shape=RoundedRectangle|*
%AMROUNDEDRECTD161*
21,1,0.02362,0.06299,0,0,180.0*
21,1,0.01181,0.07480,0,0,180.0*
1,1,0.01181,-0.00591,0.03150*
1,1,0.01181,0.00591,0.03150*
1,1,0.01181,0.00591,-0.03150*
1,1,0.01181,-0.00591,-0.03150*
%
%ADD161ROUNDEDRECTD161*%
G04:AMPARAMS|DCode=162|XSize=15.75mil|YSize=78.74mil|CornerRadius=3.94mil|HoleSize=0mil|Usage=FLASHONLY|Rotation=180.000|XOffset=0mil|YOffset=0mil|HoleType=Round|Shape=RoundedRectangle|*
%AMROUNDEDRECTD162*
21,1,0.01575,0.07087,0,0,180.0*
21,1,0.00787,0.07874,0,0,180.0*
1,1,0.00787,-0.00394,0.03543*
1,1,0.00787,0.00394,0.03543*
1,1,0.00787,0.00394,-0.03543*
1,1,0.00787,-0.00394,-0.03543*
%
%ADD162ROUNDEDRECTD162*%
G04:AMPARAMS|DCode=163|XSize=23.62mil|YSize=47.24mil|CornerRadius=5.91mil|HoleSize=0mil|Usage=FLASHONLY|Rotation=90.000|XOffset=0mil|YOffset=0mil|HoleType=Round|Shape=RoundedRectangle|*
%AMROUNDEDRECTD163*
21,1,0.02362,0.03543,0,0,90.0*
21,1,0.01181,0.04724,0,0,90.0*
1,1,0.01181,0.01772,0.00591*
1,1,0.01181,0.01772,-0.00591*
1,1,0.01181,-0.01772,-0.00591*
1,1,0.01181,-0.01772,0.00591*
%
%ADD163ROUNDEDRECTD163*%
%ADD164R,0.06299X0.07087*%
%ADD165R,0.13386X0.07480*%
%ADD166R,0.05118X0.04331*%
%ADD167R,0.05118X0.03543*%
G04:AMPARAMS|DCode=168|XSize=23.62mil|YSize=57.09mil|CornerRadius=2.01mil|HoleSize=0mil|Usage=FLASHONLY|Rotation=90.000|XOffset=0mil|YOffset=0mil|HoleType=Round|Shape=RoundedRectangle|*
%AMROUNDEDRECTD168*
21,1,0.02362,0.05307,0,0,90.0*
21,1,0.01961,0.05709,0,0,90.0*
1,1,0.00402,0.02653,0.00980*
1,1,0.00402,0.02653,-0.00980*
1,1,0.00402,-0.02653,-0.00980*
1,1,0.00402,-0.02653,0.00980*
%
%ADD168ROUNDEDRECTD168*%
D30*
X0376003Y00853D02*
D03*
X0382696D02*
D03*
X0126906Y001324D02*
D03*
X0120213D02*
D03*
X0142091Y01535D02*
D03*
X0148784D02*
D03*
X0142091Y01605D02*
D03*
X0148784D02*
D03*
X0361554Y00853D02*
D03*
X0368247D02*
D03*
D31*
X02065Y0031409D02*
D03*
Y0024716D02*
D03*
X02Y0031346D02*
D03*
Y0024654D02*
D03*
X0189268Y0042741D02*
D03*
Y0049434D02*
D03*
X0213874Y0024654D02*
D03*
Y0031346D02*
D03*
X0219563Y0024654D02*
D03*
Y0031346D02*
D03*
X039Y00852D02*
D03*
Y0078507D02*
D03*
X01495Y0301153D02*
D03*
Y0307846D02*
D03*
D32*
X035394Y0065342D02*
D03*
X034646D02*
D03*
D33*
X03345Y005276D02*
D03*
Y006024D02*
D03*
D35*
X0079847Y0074D02*
D03*
X0073154D02*
D03*
X0079847Y0081D02*
D03*
X0073154D02*
D03*
X0240608Y0009D02*
D03*
X0247301D02*
D03*
X0278654Y0114D02*
D03*
X0285347D02*
D03*
X0330346Y0117D02*
D03*
X0323654D02*
D03*
D36*
X00531Y0065053D02*
D03*
Y0071746D02*
D03*
X0186311Y0120614D02*
D03*
Y0127307D02*
D03*
X02Y0065346D02*
D03*
Y0058653D02*
D03*
X0157437Y0147665D02*
D03*
Y0140972D02*
D03*
X0158437Y0161053D02*
D03*
Y015436D02*
D03*
D160*
X0322819Y0043D02*
D03*
Y0048D02*
D03*
Y0053D02*
D03*
Y0058D02*
D03*
X0285181D02*
D03*
Y0053D02*
D03*
Y0048D02*
D03*
Y0043D02*
D03*
D161*
X01395Y0127504D02*
D03*
X01445D02*
D03*
X01495D02*
D03*
X01545D02*
D03*
X01595D02*
D03*
X01645D02*
D03*
X01695D02*
D03*
X01745D02*
D03*
X01795D02*
D03*
X01395Y0090496D02*
D03*
X01445D02*
D03*
X01495D02*
D03*
X01545D02*
D03*
X01595D02*
D03*
X01645D02*
D03*
X01695D02*
D03*
X01745D02*
D03*
X01795D02*
D03*
D162*
X0176943Y0137D02*
D03*
X0172219D02*
D03*
X0167494D02*
D03*
D163*
X0128087Y002798D02*
D03*
Y002424D02*
D03*
Y00205D02*
D03*
X0119032D02*
D03*
Y002798D02*
D03*
D164*
X0354512Y0053513D02*
D03*
X0343488D02*
D03*
D165*
X0017Y0183177D02*
D03*
Y0167823D02*
D03*
D166*
X0065831Y0165453D02*
D03*
X0018169Y0149047D02*
D03*
D167*
X0065831Y015876D02*
D03*
X0057169Y016624D02*
D03*
Y015876D02*
D03*
X0026831Y014826D02*
D03*
Y015574D02*
D03*
X0018169D02*
D03*
D168*
X0189165Y016D02*
D03*
Y0155D02*
D03*
Y015D02*
D03*
Y0145D02*
D03*
X0167709Y016D02*
D03*
Y015D02*
D03*
Y0155D02*
D03*
Y0145D02*
D03*
M02*
