%TF.GenerationSoftware,Altium Limited,Altium Designer,20.0.13 (296)*%
G04 Layer_Color=16711935*
%FSLAX26Y26*%
%MOIN*%
%TF.FileFunction,Soldermask,Bot*%
%TF.Part,Single*%
G01*
G75*
%TA.AperFunction,ComponentPad*%
%ADD54C,0.050000*%
%ADD57C,0.125000*%
%ADD77C,0.300000*%
%TA.AperFunction,SMDPad,CuDef*%
G04:AMPARAMS|DCode=110|XSize=70.402mil|YSize=28.5mil|CornerRadius=8.375mil|HoleSize=0mil|Usage=FLASHONLY|Rotation=0.000|XOffset=0mil|YOffset=0mil|HoleType=Round|Shape=RoundedRectangle|*
%AMROUNDEDRECTD110*
21,1,0.070402,0.011750,0,0,0.0*
21,1,0.053652,0.028500,0,0,0.0*
1,1,0.016750,0.026826,-0.005875*
1,1,0.016750,-0.026826,-0.005875*
1,1,0.016750,-0.026826,0.005875*
1,1,0.016750,0.026826,0.005875*
%
%ADD110ROUNDEDRECTD110*%
G04:AMPARAMS|DCode=111|XSize=28.622mil|YSize=79.803mil|CornerRadius=8.406mil|HoleSize=0mil|Usage=FLASHONLY|Rotation=180.000|XOffset=0mil|YOffset=0mil|HoleType=Round|Shape=RoundedRectangle|*
%AMROUNDEDRECTD111*
21,1,0.028622,0.062992,0,0,180.0*
21,1,0.011811,0.079803,0,0,180.0*
1,1,0.016811,-0.005906,0.031496*
1,1,0.016811,0.005906,0.031496*
1,1,0.016811,0.005906,-0.031496*
1,1,0.016811,-0.005906,-0.031496*
%
%ADD111ROUNDEDRECTD111*%
G04:AMPARAMS|DCode=112|XSize=20.748mil|YSize=83.74mil|CornerRadius=6.437mil|HoleSize=0mil|Usage=FLASHONLY|Rotation=180.000|XOffset=0mil|YOffset=0mil|HoleType=Round|Shape=RoundedRectangle|*
%AMROUNDEDRECTD112*
21,1,0.020748,0.070866,0,0,180.0*
21,1,0.007874,0.083740,0,0,180.0*
1,1,0.012874,-0.003937,0.035433*
1,1,0.012874,0.003937,0.035433*
1,1,0.012874,0.003937,-0.035433*
1,1,0.012874,-0.003937,-0.035433*
%
%ADD112ROUNDEDRECTD112*%
G04:AMPARAMS|DCode=113|XSize=28.622mil|YSize=52.244mil|CornerRadius=8.406mil|HoleSize=0mil|Usage=FLASHONLY|Rotation=90.000|XOffset=0mil|YOffset=0mil|HoleType=Round|Shape=RoundedRectangle|*
%AMROUNDEDRECTD113*
21,1,0.028622,0.035433,0,0,90.0*
21,1,0.011811,0.052244,0,0,90.0*
1,1,0.016811,0.017717,0.005906*
1,1,0.016811,0.017717,-0.005906*
1,1,0.016811,-0.017717,-0.005906*
1,1,0.016811,-0.017717,0.005906*
%
%ADD113ROUNDEDRECTD113*%
%ADD114R,0.048000X0.044000*%
%ADD115R,0.044000X0.048000*%
%ADD116R,0.067992X0.075866*%
%ADD117R,0.138858X0.079803*%
%ADD118R,0.048307X0.044370*%
%ADD119R,0.044370X0.048307*%
%ADD120R,0.064055X0.056181*%
%ADD121R,0.056181X0.064055*%
%ADD122R,0.056181X0.048307*%
%ADD123R,0.056181X0.040433*%
G04:AMPARAMS|DCode=124|XSize=28.622mil|YSize=62.087mil|CornerRadius=4.508mil|HoleSize=0mil|Usage=FLASHONLY|Rotation=90.000|XOffset=0mil|YOffset=0mil|HoleType=Round|Shape=RoundedRectangle|*
%AMROUNDEDRECTD124*
21,1,0.028622,0.053071,0,0,90.0*
21,1,0.019606,0.062087,0,0,90.0*
1,1,0.009016,0.026535,0.009803*
1,1,0.009016,0.026535,-0.009803*
1,1,0.009016,-0.026535,-0.009803*
1,1,0.009016,-0.026535,0.009803*
%
%ADD124ROUNDEDRECTD124*%
%TA.AperFunction,ComponentPad*%
%ADD125O,0.075000X0.105000*%
%ADD126C,0.063661*%
%ADD127R,0.071929X0.071929*%
%ADD128C,0.071929*%
%ADD129C,0.055000*%
%ADD130C,0.272716*%
%ADD131C,0.066024*%
%ADD132C,0.138000*%
%ADD133C,0.100000*%
%ADD134R,0.100000X0.100000*%
%ADD135R,0.125000X0.125000*%
%ADD136C,0.068000*%
%ADD137C,0.083740*%
%ADD138R,0.083740X0.083740*%
%ADD139R,0.066024X0.066024*%
%ADD140C,0.058150*%
%ADD141R,0.058150X0.058150*%
%ADD142C,0.052244*%
%ADD143C,0.064370*%
%ADD144R,0.064370X0.064370*%
%ADD145C,0.064055*%
%ADD146R,0.064055X0.064055*%
%ADD147R,0.056181X0.056181*%
%ADD148C,0.056181*%
%ADD149C,0.305000*%
%ADD150R,0.052244X0.052244*%
%ADD151R,0.067598X0.067598*%
%ADD152C,0.067598*%
%ADD153C,0.060118*%
%ADD154O,0.085000X0.100000*%
%ADD155C,0.065000*%
%ADD156R,0.064370X0.064370*%
%ADD157C,0.099488*%
%ADD158R,0.064055X0.064055*%
D54*
X5145000Y2200000D02*
D03*
X5945394D02*
D03*
D57*
X753000Y2204595D02*
D03*
D77*
X3545000Y1535000D02*
D03*
X5835000Y460000D02*
D03*
X5940000Y4085000D02*
D03*
D110*
X3228189Y430000D02*
D03*
Y480000D02*
D03*
Y530000D02*
D03*
Y580000D02*
D03*
X2851811D02*
D03*
Y530000D02*
D03*
Y480000D02*
D03*
Y430000D02*
D03*
D111*
X1395000Y1275039D02*
D03*
X1445000D02*
D03*
X1495000D02*
D03*
X1545000D02*
D03*
X1595000D02*
D03*
X1645000D02*
D03*
X1695000D02*
D03*
X1745000D02*
D03*
X1795000D02*
D03*
X1395000Y904961D02*
D03*
X1445000D02*
D03*
X1495000D02*
D03*
X1545000D02*
D03*
X1595000D02*
D03*
X1645000D02*
D03*
X1695000D02*
D03*
X1745000D02*
D03*
X1795000D02*
D03*
D112*
X1769433Y1370000D02*
D03*
X1722189D02*
D03*
X1674945D02*
D03*
D113*
X1280866Y279803D02*
D03*
Y242401D02*
D03*
Y205000D02*
D03*
X1190315D02*
D03*
Y279803D02*
D03*
D114*
X3760032Y853000D02*
D03*
X3826961D02*
D03*
X1269055Y132401D02*
D03*
X1202126D02*
D03*
X1420906Y1535000D02*
D03*
X1487835D02*
D03*
X1420906Y1605000D02*
D03*
X1487835D02*
D03*
X3615535Y853000D02*
D03*
X3682465D02*
D03*
D115*
X2065000Y314094D02*
D03*
Y247165D02*
D03*
X2000000Y313464D02*
D03*
Y246535D02*
D03*
X1892677Y427411D02*
D03*
Y494340D02*
D03*
X2138740Y246536D02*
D03*
Y313465D02*
D03*
X2195630Y246536D02*
D03*
Y313465D02*
D03*
X3900000Y852000D02*
D03*
Y785071D02*
D03*
X1495000Y3011535D02*
D03*
Y3078465D02*
D03*
D116*
X3545118Y535130D02*
D03*
X3434882D02*
D03*
D117*
X170000Y1831772D02*
D03*
Y1678228D02*
D03*
D118*
X798465Y740000D02*
D03*
X731535D02*
D03*
X798465Y810000D02*
D03*
X731535D02*
D03*
X2406083Y90000D02*
D03*
X2473012D02*
D03*
X2786535Y1140000D02*
D03*
X2853465D02*
D03*
X3303465Y1170000D02*
D03*
X3236535D02*
D03*
D119*
X531000Y650535D02*
D03*
Y717465D02*
D03*
X1863110Y1206142D02*
D03*
Y1273071D02*
D03*
X2000000Y653465D02*
D03*
Y586535D02*
D03*
X1574370Y1476654D02*
D03*
Y1409725D02*
D03*
X1584370Y1610532D02*
D03*
Y1543602D02*
D03*
D120*
X3345000Y527598D02*
D03*
Y602402D02*
D03*
D121*
X3539401Y653425D02*
D03*
X3464598D02*
D03*
D122*
X658307Y1654528D02*
D03*
X181693Y1490472D02*
D03*
D123*
X658307Y1587598D02*
D03*
X571693Y1662402D02*
D03*
Y1587598D02*
D03*
X268307Y1482598D02*
D03*
Y1557402D02*
D03*
X181693D02*
D03*
D124*
X1891653Y1600000D02*
D03*
Y1550000D02*
D03*
Y1500000D02*
D03*
Y1450000D02*
D03*
X1677087Y1600000D02*
D03*
Y1500000D02*
D03*
Y1550000D02*
D03*
Y1450000D02*
D03*
D125*
X100000Y3058561D02*
D03*
Y3449112D02*
D03*
X233858Y3058561D02*
D03*
Y3449112D02*
D03*
D126*
X3622000Y755000D02*
D03*
X3722000Y655000D02*
D03*
X3622000Y555000D02*
D03*
D127*
X1705000Y295000D02*
D03*
D128*
Y195000D02*
D03*
X1605000Y295000D02*
D03*
Y195000D02*
D03*
X1505000Y295000D02*
D03*
Y195000D02*
D03*
D129*
X3542209Y2452601D02*
D03*
D130*
X5050000Y2520000D02*
D03*
Y3475000D02*
D03*
X2660000Y3300000D02*
D03*
Y2690000D02*
D03*
D131*
X3613000Y945000D02*
D03*
X3995000Y838000D02*
D03*
X808032Y661417D02*
D03*
X708032D02*
D03*
D132*
X4365004Y155000D02*
D03*
X5407004Y125000D02*
D03*
D133*
X4190000Y155000D02*
D03*
X5582008Y125000D02*
D03*
D134*
X4027008Y155000D02*
D03*
X5745000Y125000D02*
D03*
D135*
X753000Y2516405D02*
D03*
D136*
X155000Y2065000D02*
D03*
Y2656000D02*
D03*
D137*
X2335630Y335000D02*
D03*
X2535630D02*
D03*
X2435630D02*
D03*
X5065000Y1102126D02*
D03*
Y610000D02*
D03*
X4671299Y1102126D02*
D03*
Y610000D02*
D03*
D138*
X2635630Y335000D02*
D03*
D139*
X608032Y661417D02*
D03*
D140*
X458740Y1752480D02*
D03*
Y1673740D02*
D03*
X380000Y1752480D02*
D03*
Y1831220D02*
D03*
Y1673740D02*
D03*
X458740Y1516260D02*
D03*
Y1595000D02*
D03*
X380000Y1516260D02*
D03*
Y1595000D02*
D03*
D141*
X458740Y1831220D02*
D03*
D142*
X1495000Y3170000D02*
D03*
Y3270000D02*
D03*
X2300000Y1800000D02*
D03*
X5480000Y1110000D02*
D03*
Y1010000D02*
D03*
D143*
X3370000Y1233150D02*
D03*
X2870000D02*
D03*
X3170000D02*
D03*
X2585669Y1879213D02*
D03*
D144*
X2770000Y1233150D02*
D03*
D145*
X2000000Y3160276D02*
D03*
X1430000Y2685276D02*
D03*
X1200000Y3185000D02*
D03*
D146*
X2000000Y2865000D02*
D03*
X1430000Y2390000D02*
D03*
D147*
X535000Y3448150D02*
D03*
D148*
Y3645000D02*
D03*
D149*
X245000Y220000D02*
D03*
Y4085000D02*
D03*
D150*
X2300000Y1878740D02*
D03*
D151*
X3887000Y470575D02*
D03*
D152*
Y667425D02*
D03*
Y569000D02*
D03*
D153*
X4594449Y290000D02*
D03*
X5185000D02*
D03*
D154*
X5980000Y1675000D02*
D03*
X4897323D02*
D03*
D155*
X3256850Y1830000D02*
D03*
X2863150D02*
D03*
X4195793Y363150D02*
D03*
Y756850D02*
D03*
X4220000Y4157500D02*
D03*
X3826299D02*
D03*
X3266850Y4165000D02*
D03*
X2873150D02*
D03*
X5475000Y731850D02*
D03*
Y338150D02*
D03*
X4226850Y1840000D02*
D03*
X3833150D02*
D03*
D156*
X2585669Y1780787D02*
D03*
D157*
X1921701Y4208000D02*
D03*
X1528000D02*
D03*
D158*
X904724Y3185000D02*
D03*
%TF.MD5,0be63ff440acdacb1f059f9add10ca80*%
M02*
