G04*
G04 #@! TF.GenerationSoftware,Altium Limited,Altium Designer,20.0.13 (296)*
G04*
G04 Layer_Color=8388736*
%FSTAX25Y25*%
%MOIN*%
G70*
G01*
G75*
%ADD17C,0.00500*%
D17*
X0311001Y04229D02*
G03*
X0300998Y04229I-0005001J0D01*
G01*
Y0408D02*
G03*
X0311001Y0408I0005001J0D01*
G01*
X0308502Y01918D02*
G03*
X0298499Y01918I-0005001J0D01*
G01*
Y01742D02*
G03*
X0308502Y01742I0005001J0D01*
G01*
Y01394D02*
G03*
X0298499Y01394I-0005001J0D01*
G01*
Y01036D02*
G03*
X0308502Y01036I0005001J0D01*
G01*
Y00694D02*
G03*
X0298499Y00694I-0005001J0D01*
G01*
Y00311D02*
G03*
X0308502Y00311I0005001J0D01*
G01*
X0020193Y0430469D02*
G03*
X0000193Y0410468I0J-002D01*
G01*
X0620193D02*
G03*
X0600193Y0430469I-002J0D01*
G01*
Y0000469D02*
G03*
X0620193Y0020469I0J002D01*
G01*
X0000193D02*
G03*
X0020193Y0000469I002J0D01*
G01*
X0300998Y0408D02*
Y04229D01*
X0311001Y0408D02*
Y04229D01*
X0298499Y01742D02*
Y01918D01*
X0308502Y01742D02*
Y01918D01*
X0298499Y01036D02*
Y01394D01*
X0308502Y01036D02*
Y01394D01*
X0298499Y00311D02*
Y00694D01*
X0308502Y00311D02*
Y00694D01*
X0000193Y0020469D02*
Y0410468D01*
X0020193Y0430469D02*
X0600193D01*
X0620193Y0020469D02*
Y0410468D01*
X0020193Y0000469D02*
X0600193D01*
M02*
