G04*
G04 #@! TF.GenerationSoftware,Altium Limited,Altium Designer,20.0.13 (296)*
G04*
G04 Layer_Color=32768*
%FSTAX25Y25*%
%MOIN*%
G70*
G01*
G75*
%ADD16C,0.00600*%
%ADD17C,0.00500*%
%ADD18C,0.00800*%
%ADD186C,0.00400*%
D16*
X0554811Y0345001D02*
X0557477D01*
Y0347001D01*
X0556144D01*
X0557477D01*
Y0349D01*
X0553478Y0345001D02*
Y0349D01*
X0551479D01*
X0550813Y0348334D01*
Y0347667D01*
X0551479Y0347001D01*
X0553478D01*
X0551479D01*
X0550813Y0346334D01*
Y0345668D01*
X0551479Y0345001D01*
X0553478D01*
X054948Y0349D02*
X0548147D01*
X0548813D01*
Y0345001D01*
X054948Y0345668D01*
X0014901Y0183034D02*
Y01857D01*
X0016901D01*
Y0184367D01*
Y01857D01*
X00189D01*
Y0179035D02*
Y0181701D01*
X0016234Y0179035D01*
X0015568D01*
X0014901Y0179702D01*
Y0181035D01*
X0015568Y0181701D01*
X0129232Y0384134D02*
X0129899Y0384801D01*
Y0386134D01*
X0129232Y03868D01*
X0126567D01*
X01259Y0386134D01*
Y0384801D01*
X0126567Y0384134D01*
X01259Y0382801D02*
Y0381468D01*
Y0382135D01*
X0129899D01*
X0129232Y0382801D01*
X01259Y0376803D02*
Y0379469D01*
X0128566Y0376803D01*
X0129232D01*
X0129899Y037747D01*
Y0378803D01*
X0129232Y0379469D01*
X0112732Y0384134D02*
X0113399Y0384801D01*
Y0386134D01*
X0112732Y03868D01*
X0110066D01*
X01094Y0386134D01*
Y0384801D01*
X0110066Y0384134D01*
X01094Y0382801D02*
Y0381468D01*
Y0382135D01*
X0113399D01*
X0112732Y0382801D01*
X01094Y0379469D02*
Y0378136D01*
Y0378803D01*
X0113399D01*
X0112732Y0379469D01*
X0096232Y0384134D02*
X0096899Y0384801D01*
Y0386134D01*
X0096232Y03868D01*
X0093566D01*
X00929Y0386134D01*
Y0384801D01*
X0093566Y0384134D01*
X00929Y0382801D02*
Y0381468D01*
Y0382135D01*
X0096899D01*
X0096232Y0382801D01*
Y0379469D02*
X0096899Y0378803D01*
Y037747D01*
X0096232Y0376803D01*
X0093566D01*
X00929Y037747D01*
Y0378803D01*
X0093566Y0379469D01*
X0096232D01*
X0079232Y0384134D02*
X0079899Y0384801D01*
Y0386134D01*
X0079232Y03868D01*
X0076566D01*
X00759Y0386134D01*
Y0384801D01*
X0076566Y0384134D01*
Y0382801D02*
X00759Y0382135D01*
Y0380802D01*
X0076566Y0380135D01*
X0079232D01*
X0079899Y0380802D01*
Y0382135D01*
X0079232Y0382801D01*
X0078566D01*
X0077899Y0382135D01*
Y0380135D01*
D17*
X03762Y008343D02*
Y008717D01*
Y008343D02*
X03825D01*
Y008717D01*
X03762D02*
X03825D01*
X0158496Y003813D02*
Y004187D01*
X0164796D01*
Y003813D02*
Y004187D01*
X0158496Y003813D02*
X0164796D01*
X014915D02*
Y004187D01*
X014285Y003813D02*
X014915D01*
X014285D02*
Y004187D01*
X014915D01*
X0153276Y005685D02*
X0157016D01*
X0153276D02*
Y006315D01*
X0157016D01*
Y005685D02*
Y006315D01*
X0212997Y019163D02*
Y019537D01*
X0206697Y019163D02*
X0212997D01*
X0206697D02*
Y019537D01*
X0212997D01*
X024196Y013013D02*
Y013387D01*
X024826D01*
Y013013D02*
Y013387D01*
X024196Y013013D02*
X024826D01*
X024713Y013935D02*
X025087D01*
X024713D02*
Y014565D01*
X025087D01*
Y013935D02*
Y014565D01*
X0072073Y013285D02*
X0075813D01*
X0072073D02*
Y013915D01*
X0075813D01*
Y013285D02*
Y013915D01*
X0095746Y013813D02*
Y014187D01*
X0089447Y013813D02*
X0095746D01*
X0089447D02*
Y014187D01*
X0095746D01*
X0064073Y01393D02*
X0067813D01*
Y0133D02*
Y01393D01*
X0064073Y0133D02*
X0067813D01*
X0064073D02*
Y01393D01*
X014985Y007663D02*
Y008037D01*
X015615D01*
Y007663D02*
Y008037D01*
X014985Y007663D02*
X015615D01*
X022185Y000713D02*
Y001087D01*
X022815D01*
Y000713D02*
Y001087D01*
X022185Y000713D02*
X022815D01*
X014013Y0095003D02*
X014387D01*
X014013D02*
Y0101304D01*
X014387D01*
Y0095003D02*
Y0101304D01*
X013213D02*
X013587D01*
Y0095003D02*
Y0101304D01*
X013213Y0095003D02*
X013587D01*
X013213D02*
Y0101304D01*
X020463Y0031213D02*
X020837D01*
X020463Y0024913D02*
Y0031213D01*
Y0024913D02*
X020837D01*
Y0031213D01*
X019813Y003115D02*
X020187D01*
X019813Y002485D02*
Y003115D01*
Y002485D02*
X020187D01*
Y003115D01*
X0126709Y001137D02*
Y001511D01*
X0120409D02*
X0126709D01*
X0120409Y001137D02*
Y001511D01*
Y001137D02*
X0126709D01*
X0187398Y0042937D02*
X0191138D01*
Y0049237D01*
X0187398D02*
X0191138D01*
X0187398Y0042937D02*
Y0049237D01*
X0212004Y002485D02*
X0215744D01*
Y003115D01*
X0212004D02*
X0215744D01*
X0212004Y002485D02*
Y003115D01*
X0217693Y002485D02*
X0221433D01*
Y003115D01*
X0217693D02*
X0221433D01*
X0217693Y002485D02*
Y003115D01*
X0122996Y014539D02*
Y014913D01*
X0116697Y014539D02*
X0122996D01*
X0116697D02*
Y014913D01*
X0122996D01*
X0142287Y015163D02*
Y015537D01*
Y015163D02*
X0148587D01*
Y015537D01*
X0142287D02*
X0148587D01*
X0142287Y015863D02*
Y016237D01*
Y015863D02*
X0148587D01*
Y016237D01*
X0142287D02*
X0148587D01*
X0204587Y015763D02*
Y016137D01*
X0198287Y015763D02*
X0204587D01*
X0198287D02*
Y016137D01*
X0204587D01*
Y015063D02*
Y015437D01*
X0198287Y015063D02*
X0204587D01*
X0198287D02*
Y015437D01*
X0204587D01*
X0198287Y016363D02*
Y016737D01*
X0204587D01*
Y016363D02*
Y016737D01*
X0198287Y016363D02*
X0204587D01*
X0198287Y014463D02*
Y014837D01*
X0204587D01*
Y014463D02*
Y014837D01*
X0198287Y014463D02*
X0204587D01*
X036175Y008343D02*
Y008717D01*
Y008343D02*
X036805D01*
Y008717D01*
X036175D02*
X036805D01*
X038813Y0085004D02*
X039187D01*
X038813Y0078703D02*
Y0085004D01*
Y0078703D02*
X039187D01*
Y0085004D01*
X014763Y030135D02*
X015137D01*
Y030765D01*
X014763D02*
X015137D01*
X014763Y030135D02*
Y030765D01*
X0063931Y0147562D02*
Y0154462D01*
Y0147562D02*
X0067731D01*
Y0154462D01*
X0063931D02*
X0067731D01*
X015105Y006055D02*
Y006745D01*
X014725D02*
X015105D01*
X014725Y006055D02*
Y006745D01*
Y006055D02*
X015105D01*
X0111393Y01302D02*
Y01338D01*
X0104493Y01302D02*
X0111393D01*
X0104493D02*
Y01338D01*
X0111393D01*
X0080143Y013255D02*
X0083743D01*
X0080143D02*
Y013945D01*
X0083743D01*
Y013255D02*
Y013945D01*
X007305Y00722D02*
Y00758D01*
Y00722D02*
X007995D01*
Y00758D01*
X007305D02*
X007995D01*
X007305Y00792D02*
Y00828D01*
Y00792D02*
X007995D01*
Y00828D01*
X007305D02*
X007995D01*
X00513Y007185D02*
X00549D01*
X00513Y006495D02*
Y007185D01*
Y006495D02*
X00549D01*
Y007185D01*
X00037Y0067141D02*
X00073D01*
X00037D02*
Y0074041D01*
X00073D01*
Y0067141D02*
Y0074041D01*
X0247405Y00072D02*
Y00108D01*
X0240505D02*
X0247405D01*
X0240505Y00072D02*
Y00108D01*
Y00072D02*
X0247405D01*
X0184511Y0127411D02*
X0188111D01*
X0184511Y0120511D02*
Y0127411D01*
Y0120511D02*
X0188111D01*
Y0127411D01*
X02312Y0080103D02*
X02348D01*
Y0073203D02*
Y0080103D01*
X02312Y0073203D02*
X02348D01*
X02312D02*
Y0080103D01*
Y006545D02*
X02348D01*
Y005855D02*
Y006545D01*
X02312Y005855D02*
X02348D01*
X02312D02*
Y006545D01*
X01477Y0094704D02*
X01513D01*
X01477D02*
Y0101603D01*
X01513D01*
Y0094704D02*
Y0101603D01*
X01982Y005855D02*
X02018D01*
Y006545D01*
X01982D02*
X02018D01*
X01982Y005855D02*
Y006545D01*
X0176Y006055D02*
X01796D01*
X0176D02*
Y006745D01*
X01796D01*
Y006055D02*
Y006745D01*
X0168Y006055D02*
X01716D01*
X0168D02*
Y006745D01*
X01716D01*
Y006055D02*
Y006745D01*
X01595Y006055D02*
X01631D01*
X01595D02*
Y006745D01*
X01631D01*
Y006055D02*
Y006745D01*
X0144046Y015981D02*
X0147646D01*
X0144046D02*
Y016671D01*
X0147646D01*
Y015981D02*
Y016671D01*
X0060203Y01872D02*
Y01908D01*
X0067103D01*
Y01872D02*
Y01908D01*
X0060203Y01872D02*
X0067103D01*
X0155637Y0140869D02*
X0159237D01*
Y0147769D01*
X0155637D02*
X0159237D01*
X0155637Y0140869D02*
Y0147769D01*
X0156637Y0154257D02*
X0160237D01*
Y0161157D01*
X0156637D02*
X0160237D01*
X0156637Y0154257D02*
Y0161157D01*
X0331921Y0052563D02*
Y0060437D01*
X0337079D01*
Y0052563D02*
Y0060437D01*
X0331921Y0052563D02*
X0337079D01*
X028545Y01122D02*
Y01158D01*
X027855D02*
X028545D01*
X027855Y01122D02*
Y01158D01*
Y01122D02*
X028545D01*
X032355Y01152D02*
Y01188D01*
Y01152D02*
X033045D01*
Y01188D01*
X032355D02*
X033045D01*
X0346263Y0062764D02*
X0354137D01*
X0346263D02*
Y0067921D01*
X0354137D01*
Y0062764D02*
Y0067921D01*
X02737Y005345D02*
X02773D01*
Y004655D02*
Y005345D01*
X02737Y004655D02*
X02773D01*
X02737D02*
Y005345D01*
X03317Y004995D02*
X03353D01*
Y004305D02*
Y004995D01*
X03317Y004305D02*
X03353D01*
X03317D02*
Y004995D01*
X037155Y00868D02*
Y0083801D01*
X0373049D01*
X0373549Y0084301D01*
Y00853D01*
X0373049Y00858D01*
X037155D01*
X0372549D02*
X0373549Y00868D01*
X0374549Y0084301D02*
X0375048Y0083801D01*
X0376048D01*
X0376548Y0084301D01*
Y0084801D01*
X0376048Y00853D01*
X0376548Y00858D01*
Y00863D01*
X0376048Y00868D01*
X0375048D01*
X0374549Y00863D01*
Y00858D01*
X0375048Y00853D01*
X0374549Y0084801D01*
Y0084301D01*
X0375048Y00853D02*
X0376048D01*
X0153846Y00385D02*
Y0041499D01*
X0155346D01*
X0155845Y0040999D01*
Y0039999D01*
X0155346Y00395D01*
X0153846D01*
X0154846D02*
X0155845Y00385D01*
X0156845Y0040999D02*
X0157345Y0041499D01*
X0158345D01*
X0158844Y0040999D01*
Y0040499D01*
X0158345Y0039999D01*
X0157845D01*
X0158345D01*
X0158844Y00395D01*
Y0039D01*
X0158345Y00385D01*
X0157345D01*
X0156845Y0039D01*
X0159844D02*
X0160344Y00385D01*
X0161344D01*
X0161844Y0039D01*
Y0040999D01*
X0161344Y0041499D01*
X0160344D01*
X0159844Y0040999D01*
Y0040499D01*
X0160344Y0039999D01*
X0161844D01*
X01538Y00415D02*
Y0038501D01*
X0152301D01*
X0151801Y0039001D01*
Y0040001D01*
X0152301Y00405D01*
X01538D01*
X01528D02*
X0151801Y00415D01*
X0150801Y0039001D02*
X0150301Y0038501D01*
X0149301D01*
X0148802Y0039001D01*
Y0039501D01*
X0149301Y0040001D01*
X0149801D01*
X0149301D01*
X0148802Y00405D01*
Y0041D01*
X0149301Y00415D01*
X0150301D01*
X0150801Y0041D01*
X0147802Y0039001D02*
X0147302Y0038501D01*
X0146302D01*
X0145803Y0039001D01*
Y0039501D01*
X0146302Y0040001D01*
X0145803Y00405D01*
Y0041D01*
X0146302Y00415D01*
X0147302D01*
X0147802Y0041D01*
Y00405D01*
X0147302Y0040001D01*
X0147802Y0039501D01*
Y0039001D01*
X0147302Y0040001D02*
X0146302D01*
X0156646Y00522D02*
X0153647D01*
Y0053699D01*
X0154147Y0054199D01*
X0155147D01*
X0155646Y0053699D01*
Y00522D01*
Y00532D02*
X0156646Y0054199D01*
X0154147Y0055199D02*
X0153647Y0055699D01*
Y0056699D01*
X0154147Y0057198D01*
X0154647D01*
X0155147Y0056699D01*
Y0056199D01*
Y0056699D01*
X0155646Y0057198D01*
X0156146D01*
X0156646Y0056699D01*
Y0055699D01*
X0156146Y0055199D01*
X0153647Y0058198D02*
Y0060197D01*
X0154147D01*
X0156146Y0058198D01*
X0156646D01*
X0217647Y0195D02*
Y0192001D01*
X0216147D01*
X0215647Y0192501D01*
Y01935D01*
X0216147Y0194D01*
X0217647D01*
X0216647D02*
X0215647Y0195D01*
X0214647Y0192501D02*
X0214148Y0192001D01*
X0213148D01*
X0212648Y0192501D01*
Y0193001D01*
X0213148Y01935D01*
X0213648D01*
X0213148D01*
X0212648Y0194D01*
Y01945D01*
X0213148Y0195D01*
X0214148D01*
X0214647Y01945D01*
X0209649Y0192001D02*
X0211648D01*
Y01935D01*
X0210649Y0193001D01*
X0210149D01*
X0209649Y01935D01*
Y01945D01*
X0210149Y0195D01*
X0211149D01*
X0211648Y01945D01*
X023731Y01305D02*
Y0133499D01*
X023881D01*
X023931Y0132999D01*
Y0132D01*
X023881Y01315D01*
X023731D01*
X023831D02*
X023931Y01305D01*
X0240309Y0132999D02*
X0240809Y0133499D01*
X0241809D01*
X0242309Y0132999D01*
Y0132499D01*
X0241809Y0132D01*
X0241309D01*
X0241809D01*
X0242309Y01315D01*
Y0131D01*
X0241809Y01305D01*
X0240809D01*
X0240309Y0131D01*
X0245308Y0133499D02*
X0244308Y0132999D01*
X0243308Y0132D01*
Y0131D01*
X0243808Y01305D01*
X0244808D01*
X0245308Y0131D01*
Y01315D01*
X0244808Y0132D01*
X0243308D01*
X02505Y01347D02*
X0247501D01*
Y0136199D01*
X0248001Y0136699D01*
X0249001D01*
X02495Y0136199D01*
Y01347D01*
Y01357D02*
X02505Y0136699D01*
X0248001Y0137699D02*
X0247501Y0138199D01*
Y0139199D01*
X0248001Y0139698D01*
X0248501D01*
X0249001Y0139199D01*
Y0138699D01*
Y0139199D01*
X02495Y0139698D01*
X025D01*
X02505Y0139199D01*
Y0138199D01*
X025Y0137699D01*
X02505Y0142198D02*
X0247501D01*
X0249001Y0140698D01*
Y0142697D01*
X0075443Y01282D02*
X0072444D01*
Y01297D01*
X0072944Y0130199D01*
X0073943D01*
X0074443Y01297D01*
Y01282D01*
Y01292D02*
X0075443Y0130199D01*
X0072944Y0131199D02*
X0072444Y0131699D01*
Y0132699D01*
X0072944Y0133198D01*
X0073444D01*
X0073943Y0132699D01*
Y0132199D01*
Y0132699D01*
X0074443Y0133198D01*
X0074943D01*
X0075443Y0132699D01*
Y0131699D01*
X0074943Y0131199D01*
X0072944Y0134198D02*
X0072444Y0134698D01*
Y0135698D01*
X0072944Y0136197D01*
X0073444D01*
X0073943Y0135698D01*
Y0135198D01*
Y0135698D01*
X0074443Y0136197D01*
X0074943D01*
X0075443Y0135698D01*
Y0134698D01*
X0074943Y0134198D01*
X0100397Y01415D02*
Y0138501D01*
X0098897D01*
X0098397Y0139001D01*
Y014D01*
X0098897Y01405D01*
X0100397D01*
X0099397D02*
X0098397Y01415D01*
X0097397Y0139001D02*
X0096898Y0138501D01*
X0095898D01*
X0095398Y0139001D01*
Y0139501D01*
X0095898Y014D01*
X0096398D01*
X0095898D01*
X0095398Y01405D01*
Y0141D01*
X0095898Y01415D01*
X0096898D01*
X0097397Y0141D01*
X0092399Y01415D02*
X0094398D01*
X0092399Y0139501D01*
Y0139001D01*
X0092899Y0138501D01*
X0093899D01*
X0094398Y0139001D01*
X0064443Y014395D02*
X0067442D01*
Y014245D01*
X0066942Y0141951D01*
X0065942D01*
X0065443Y014245D01*
Y014395D01*
Y014295D02*
X0064443Y0141951D01*
X0066942Y0140951D02*
X0067442Y0140451D01*
Y0139451D01*
X0066942Y0138952D01*
X0066442D01*
X0065942Y0139451D01*
Y0139951D01*
Y0139451D01*
X0065443Y0138952D01*
X0064943D01*
X0064443Y0139451D01*
Y0140451D01*
X0064943Y0140951D01*
X0064443Y0137952D02*
Y0136952D01*
Y0137452D01*
X0067442D01*
X0066942Y0137952D01*
X00288Y0045D02*
Y0047999D01*
X0030299D01*
X0030799Y0047499D01*
Y0046499D01*
X0030299Y0046D01*
X00288D01*
X00298D02*
X0030799Y0045D01*
X0031799Y0047499D02*
X0032299Y0047999D01*
X0033299D01*
X0033798Y0047499D01*
Y0046999D01*
X0033299Y0046499D01*
X0032799D01*
X0033299D01*
X0033798Y0046D01*
Y00455D01*
X0033299Y0045D01*
X0032299D01*
X0031799Y00455D01*
X0034798Y0047499D02*
X0035298Y0047999D01*
X0036298D01*
X0036797Y0047499D01*
Y00455D01*
X0036298Y0045D01*
X0035298D01*
X0034798Y00455D01*
Y0047499D01*
X01452Y0077D02*
Y0079999D01*
X01467D01*
X0147199Y0079499D01*
Y00785D01*
X01467Y0078D01*
X01452D01*
X01462D02*
X0147199Y0077D01*
X0150198D02*
X0148199D01*
X0150198Y0078999D01*
Y0079499D01*
X0149699Y0079999D01*
X0148699D01*
X0148199Y0079499D01*
X0151198Y00775D02*
X0151698Y0077D01*
X0152698D01*
X0153197Y00775D01*
Y0079499D01*
X0152698Y0079999D01*
X0151698D01*
X0151198Y0079499D01*
Y0078999D01*
X0151698Y00785D01*
X0153197D01*
X02172Y00075D02*
Y0010499D01*
X02187D01*
X0219199Y0009999D01*
Y0008999D01*
X02187Y00085D01*
X02172D01*
X02182D02*
X0219199Y00075D01*
X0222198D02*
X0220199D01*
X0222198Y0009499D01*
Y0009999D01*
X0221698Y0010499D01*
X0220699D01*
X0220199Y0009999D01*
X0223198D02*
X0223698Y0010499D01*
X0224698D01*
X0225197Y0009999D01*
Y0009499D01*
X0224698Y0008999D01*
X0225197Y00085D01*
Y0008D01*
X0224698Y00075D01*
X0223698D01*
X0223198Y0008D01*
Y00085D01*
X0223698Y0008999D01*
X0223198Y0009499D01*
Y0009999D01*
X0223698Y0008999D02*
X0224698D01*
X01435Y0090354D02*
X0140501D01*
Y0091853D01*
X0141001Y0092353D01*
X0142D01*
X01425Y0091853D01*
Y0090354D01*
Y0091353D02*
X01435Y0092353D01*
Y0095352D02*
Y0093353D01*
X0141501Y0095352D01*
X0141001D01*
X0140501Y0094852D01*
Y0093852D01*
X0141001Y0093353D01*
X0140501Y0096352D02*
Y0098351D01*
X0141001D01*
X0143Y0096352D01*
X01435D01*
X01325Y0105954D02*
X0135499D01*
Y0104454D01*
X0134999Y0103954D01*
X0134D01*
X01335Y0104454D01*
Y0105954D01*
Y0104954D02*
X01325Y0103954D01*
Y0100955D02*
Y0102954D01*
X0134499Y0100955D01*
X0134999D01*
X0135499Y0101455D01*
Y0102455D01*
X0134999Y0102954D01*
X0135499Y0097956D02*
X0134999Y0098956D01*
X0134Y0099955D01*
X0133D01*
X01325Y0099456D01*
Y0098456D01*
X0133Y0097956D01*
X01335D01*
X0134Y0098456D01*
Y0099955D01*
X0208Y0035863D02*
X0205001D01*
Y0034363D01*
X0205501Y0033864D01*
X0206501D01*
X0207Y0034363D01*
Y0035863D01*
Y0034863D02*
X0208Y0033864D01*
Y0030865D02*
Y0032864D01*
X0206001Y0030865D01*
X0205501D01*
X0205001Y0031364D01*
Y0032364D01*
X0205501Y0032864D01*
X0205001Y0027866D02*
Y0029865D01*
X0206501D01*
X0206001Y0028865D01*
Y0028365D01*
X0206501Y0027866D01*
X02075D01*
X0208Y0028365D01*
Y0029365D01*
X02075Y0029865D01*
X02015Y00358D02*
X0198501D01*
Y0034301D01*
X0199001Y0033801D01*
X0200001D01*
X02005Y0034301D01*
Y00358D01*
Y00348D02*
X02015Y0033801D01*
Y0030802D02*
Y0032801D01*
X0199501Y0030802D01*
X0199001D01*
X0198501Y0031301D01*
Y0032301D01*
X0199001Y0032801D01*
X02015Y0028302D02*
X0198501D01*
X0200001Y0029802D01*
Y0027803D01*
X0131359Y001174D02*
Y0014739D01*
X0129859D01*
X012936Y0014239D01*
Y001324D01*
X0129859Y001274D01*
X0131359D01*
X0130359D02*
X012936Y001174D01*
X0126361D02*
X012836D01*
X0126361Y0013739D01*
Y0014239D01*
X012686Y0014739D01*
X012786D01*
X012836Y0014239D01*
X0125361D02*
X0124861Y0014739D01*
X0123862D01*
X0123362Y0014239D01*
Y0013739D01*
X0123862Y001324D01*
X0124361D01*
X0123862D01*
X0123362Y001274D01*
Y001224D01*
X0123862Y001174D01*
X0124861D01*
X0125361Y001224D01*
X0187768Y0038287D02*
X0190767D01*
Y0039787D01*
X0190267Y0040287D01*
X0189267D01*
X0188767Y0039787D01*
Y0038287D01*
Y0039287D02*
X0187768Y0040287D01*
Y0043286D02*
Y0041287D01*
X0189767Y0043286D01*
X0190267D01*
X0190767Y0042786D01*
Y0041786D01*
X0190267Y0041287D01*
X0187768Y0046285D02*
Y0044286D01*
X0189767Y0046285D01*
X0190267D01*
X0190767Y0045785D01*
Y0044785D01*
X0190267Y0044286D01*
X0212374Y00202D02*
X0215373D01*
Y00217D01*
X0214873Y0022199D01*
X0213874D01*
X0213374Y00217D01*
Y00202D01*
Y00212D02*
X0212374Y0022199D01*
Y0025198D02*
Y0023199D01*
X0214373Y0025198D01*
X0214873D01*
X0215373Y0024699D01*
Y0023699D01*
X0214873Y0023199D01*
X0212374Y0026198D02*
Y0027198D01*
Y0026698D01*
X0215373D01*
X0214873Y0026198D01*
X0218063Y00202D02*
X0221062D01*
Y00217D01*
X0220562Y0022199D01*
X0219563D01*
X0219063Y00217D01*
Y00202D01*
Y00212D02*
X0218063Y0022199D01*
Y0025198D02*
Y0023199D01*
X0220062Y0025198D01*
X0220562D01*
X0221062Y0024699D01*
Y0023699D01*
X0220562Y0023199D01*
Y0026198D02*
X0221062Y0026698D01*
Y0027698D01*
X0220562Y0028197D01*
X0218563D01*
X0218063Y0027698D01*
Y0026698D01*
X0218563Y0026198D01*
X0220562D01*
X0127647Y014876D02*
Y0145761D01*
X0126147D01*
X0125647Y0146261D01*
Y014726D01*
X0126147Y014776D01*
X0127647D01*
X0126647D02*
X0125647Y014876D01*
X0124647D02*
X0123648D01*
X0124148D01*
Y0145761D01*
X0124647Y0146261D01*
X0122148Y014826D02*
X0121648Y014876D01*
X0120649D01*
X0120149Y014826D01*
Y0146261D01*
X0120649Y0145761D01*
X0121648D01*
X0122148Y0146261D01*
Y014676D01*
X0121648Y014726D01*
X0120149D01*
X0076346Y017806D02*
X0073347D01*
Y0179559D01*
X0073847Y0180059D01*
X0074847D01*
X0075347Y0179559D01*
Y017806D01*
Y017906D02*
X0076346Y0180059D01*
Y0181059D02*
Y0182059D01*
Y0181559D01*
X0073347D01*
X0073847Y0181059D01*
Y0183558D02*
X0073347Y0184058D01*
Y0185058D01*
X0073847Y0185557D01*
X0074347D01*
X0074847Y0185058D01*
X0075347Y0185557D01*
X0075847D01*
X0076346Y0185058D01*
Y0184058D01*
X0075847Y0183558D01*
X0075347D01*
X0074847Y0184058D01*
X0074347Y0183558D01*
X0073847D01*
X0074847Y0184058D02*
Y0185058D01*
X0084346Y019246D02*
X0087345D01*
Y019096D01*
X0086846Y0190461D01*
X0085846D01*
X0085346Y019096D01*
Y019246D01*
Y019146D02*
X0084346Y0190461D01*
Y0189461D02*
Y0188461D01*
Y0188961D01*
X0087345D01*
X0086846Y0189461D01*
X0087345Y0186962D02*
Y0184962D01*
X0086846D01*
X0084846Y0186962D01*
X0084346D01*
X0137637Y0155D02*
Y0152001D01*
X0139137D01*
X0139636Y0152501D01*
Y01535D01*
X0139137Y0154D01*
X0137637D01*
X0138637D02*
X0139636Y0155D01*
X0140636D02*
X0141636D01*
X0141136D01*
Y0152001D01*
X0140636Y0152501D01*
X0145135Y0152001D02*
X0144135Y0152501D01*
X0143135Y01535D01*
Y01545D01*
X0143635Y0155D01*
X0144635D01*
X0145135Y01545D01*
Y0154D01*
X0144635Y01535D01*
X0143135D01*
X0137637Y0162D02*
Y0159001D01*
X0139137D01*
X0139636Y0159501D01*
Y0160501D01*
X0139137Y0161D01*
X0137637D01*
X0138637D02*
X0139636Y0162D01*
X0140636D02*
X0141636D01*
X0141136D01*
Y0159001D01*
X0140636Y0159501D01*
X0144635Y0162D02*
Y0159001D01*
X0143135Y0160501D01*
X0145135D01*
X0209237Y0161D02*
Y0158001D01*
X0207737D01*
X0207238Y0158501D01*
Y0159501D01*
X0207737Y016D01*
X0209237D01*
X0208237D02*
X0207238Y0161D01*
X0206238D02*
X0205238D01*
X0205738D01*
Y0158001D01*
X0206238Y0158501D01*
X0203739D02*
X0203239Y0158001D01*
X0202239D01*
X0201739Y0158501D01*
Y0159001D01*
X0202239Y0159501D01*
X0202739D01*
X0202239D01*
X0201739Y016D01*
Y01605D01*
X0202239Y0161D01*
X0203239D01*
X0203739Y01605D01*
X0209237Y0154D02*
Y0151001D01*
X0207737D01*
X0207238Y0151501D01*
Y01525D01*
X0207737Y0153D01*
X0209237D01*
X0208237D02*
X0207238Y0154D01*
X0206238D02*
X0205238D01*
X0205738D01*
Y0151001D01*
X0206238Y0151501D01*
X0201739Y0154D02*
X0203739D01*
X0201739Y0152001D01*
Y0151501D01*
X0202239Y0151001D01*
X0203239D01*
X0203739Y0151501D01*
X0193637Y0164D02*
Y0166999D01*
X0195136D01*
X0195636Y0166499D01*
Y0165499D01*
X0195136Y0165D01*
X0193637D01*
X0194637D02*
X0195636Y0164D01*
X0196636D02*
X0197636D01*
X0197136D01*
Y0166999D01*
X0196636Y0166499D01*
X0199135Y0164D02*
X0200135D01*
X0199635D01*
Y0166999D01*
X0199135Y0166499D01*
X0193637Y0145D02*
Y0147999D01*
X0195136D01*
X0195636Y0147499D01*
Y01465D01*
X0195136Y0146D01*
X0193637D01*
X0194637D02*
X0195636Y0145D01*
X0196636D02*
X0197636D01*
X0197136D01*
Y0147999D01*
X0196636Y0147499D01*
X0199135D02*
X0199635Y0147999D01*
X0200635D01*
X0201135Y0147499D01*
Y01455D01*
X0200635Y0145D01*
X0199635D01*
X0199135Y01455D01*
Y0147499D01*
X03571Y00868D02*
Y0083801D01*
X0358599D01*
X0359099Y0084301D01*
Y00853D01*
X0358599Y00858D01*
X03571D01*
X03581D02*
X0359099Y00868D01*
X0360099Y00863D02*
X0360599Y00868D01*
X0361598D01*
X0362098Y00863D01*
Y0084301D01*
X0361598Y0083801D01*
X0360599D01*
X0360099Y0084301D01*
Y0084801D01*
X0360599Y00853D01*
X0362098D01*
X03915Y0089653D02*
X0388501D01*
Y0088154D01*
X0389001Y0087654D01*
X0390001D01*
X03905Y0088154D01*
Y0089653D01*
Y0088654D02*
X03915Y0087654D01*
X0388501Y0086655D02*
Y0084655D01*
X0389001D01*
X0391Y0086655D01*
X03915D01*
X03475Y0056213D02*
X0350499D01*
Y0054713D01*
X0349999Y0054214D01*
X0349D01*
X03485Y0054713D01*
Y0056213D01*
Y0055213D02*
X03475Y0054214D01*
X0350499Y0051215D02*
X0349999Y0052214D01*
X0349Y0053214D01*
X0348D01*
X03475Y0052714D01*
Y0051714D01*
X0348Y0051215D01*
X03485D01*
X0349Y0051714D01*
Y0053214D01*
X0148Y02967D02*
X0150999D01*
Y02982D01*
X0150499Y0298699D01*
X0149499D01*
X0149Y02982D01*
Y02967D01*
Y02977D02*
X0148Y0298699D01*
Y0301698D02*
Y0299699D01*
X0149999Y0301698D01*
X0150499D01*
X0150999Y0301199D01*
Y0300199D01*
X0150499Y0299699D01*
X006733Y0156813D02*
Y0158812D01*
X006583D01*
Y0157812D01*
Y0158812D01*
X0064331D01*
X006733Y0155813D02*
X0064331D01*
Y0154314D01*
X0064831Y0153814D01*
X006533D01*
X006583Y0154314D01*
Y0155813D01*
Y0154314D01*
X006633Y0153814D01*
X006683D01*
X006733Y0154314D01*
Y0155813D01*
Y0150815D02*
Y0152814D01*
X006583D01*
X006633Y0151814D01*
Y0151315D01*
X006583Y0150815D01*
X0064831D01*
X0064331Y0151315D01*
Y0152314D01*
X0064831Y0152814D01*
X0147651Y0058199D02*
Y00562D01*
X0149151D01*
Y00572D01*
Y00562D01*
X015065D01*
X0147651Y0059199D02*
X015065D01*
Y0060699D01*
X015015Y0061198D01*
X014965D01*
X0149151Y0060699D01*
Y0059199D01*
Y0060699D01*
X0148651Y0061198D01*
X0148151D01*
X0147651Y0060699D01*
Y0059199D01*
X0148151Y0062198D02*
X0147651Y0062698D01*
Y0063698D01*
X0148151Y0064197D01*
X0148651D01*
X0149151Y0063698D01*
Y0063198D01*
Y0063698D01*
X014965Y0064197D01*
X015015D01*
X015065Y0063698D01*
Y0062698D01*
X015015Y0062198D01*
X0343499Y0052014D02*
X03415D01*
Y0053513D01*
X03425D01*
X03415D01*
Y0055013D01*
X0344499Y0052014D02*
Y0055013D01*
X0345999D01*
X0346498Y0054513D01*
Y0054013D01*
X0345999Y0053513D01*
X0344499D01*
X0345999D01*
X0346498Y0053014D01*
Y0052514D01*
X0345999Y0052014D01*
X0344499D01*
X0349497Y0055013D02*
X0347498D01*
X0349497Y0053014D01*
Y0052514D01*
X0348998Y0052014D01*
X0347998D01*
X0347498Y0052514D01*
X0113744Y0131001D02*
X0114243Y0130501D01*
X0115243D01*
X0115743Y0131001D01*
Y0133D01*
X0115243Y01335D01*
X0114243D01*
X0113744Y0133D01*
X0111244Y01335D02*
Y0130501D01*
X0112744Y0132001D01*
X0110745D01*
X0109745Y0131001D02*
X0109245Y0130501D01*
X0108245D01*
X0107746Y0131001D01*
Y0131501D01*
X0108245Y0132001D01*
X0108745D01*
X0108245D01*
X0107746Y01325D01*
Y0133D01*
X0108245Y01335D01*
X0109245D01*
X0109745Y0133D01*
X0080944Y0130199D02*
X0080444Y01297D01*
Y01287D01*
X0080944Y01282D01*
X0082943D01*
X0083443Y01287D01*
Y01297D01*
X0082943Y0130199D01*
X0083443Y0132699D02*
X0080444D01*
X0081943Y0131199D01*
Y0133198D01*
X0083443Y0136197D02*
Y0134198D01*
X0081444Y0136197D01*
X0080944D01*
X0080444Y0135698D01*
Y0134698D01*
X0080944Y0134198D01*
X0070699Y0073001D02*
X00702Y0072501D01*
X00692D01*
X00687Y0073001D01*
Y0075D01*
X00692Y00755D01*
X00702D01*
X0070699Y0075D01*
X0073199Y00755D02*
Y0072501D01*
X0071699Y0074001D01*
X0073698D01*
X0074698Y00755D02*
X0075698D01*
X0075198D01*
Y0072501D01*
X0074698Y0073001D01*
X0070699Y0080001D02*
X00702Y0079501D01*
X00692D01*
X00687Y0080001D01*
Y0082D01*
X00692Y00825D01*
X00702D01*
X0070699Y0082D01*
X0073199Y00825D02*
Y0079501D01*
X0071699Y0081001D01*
X0073698D01*
X0074698Y0080001D02*
X0075198Y0079501D01*
X0076198D01*
X0076697Y0080001D01*
Y0082D01*
X0076198Y00825D01*
X0075198D01*
X0074698Y0082D01*
Y0080001D01*
X0052101Y0074201D02*
X0051601Y00747D01*
Y00757D01*
X0052101Y00762D01*
X00541D01*
X00546Y00757D01*
Y00747D01*
X00541Y0074201D01*
X0052101Y0073201D02*
X0051601Y0072701D01*
Y0071701D01*
X0052101Y0071202D01*
X0052601D01*
X0053101Y0071701D01*
Y0072201D01*
Y0071701D01*
X00536Y0071202D01*
X00541D01*
X00546Y0071701D01*
Y0072701D01*
X00541Y0073201D01*
Y0070202D02*
X00546Y0069702D01*
Y0068702D01*
X00541Y0068203D01*
X0052101D01*
X0051601Y0068702D01*
Y0069702D01*
X0052101Y0070202D01*
X0052601D01*
X0053101Y0069702D01*
Y0068203D01*
X0004501Y006479D02*
X0004001Y006429D01*
Y006329D01*
X0004501Y0062791D01*
X00065D01*
X0007Y006329D01*
Y006429D01*
X00065Y006479D01*
X0004501Y006579D02*
X0004001Y0066289D01*
Y0067289D01*
X0004501Y0067789D01*
X0005001D01*
X00055Y0067289D01*
Y0066789D01*
Y0067289D01*
X0006Y0067789D01*
X00065D01*
X0007Y0067289D01*
Y0066289D01*
X00065Y006579D01*
X0004501Y0068789D02*
X0004001Y0069288D01*
Y0070288D01*
X0004501Y0070788D01*
X0005001D01*
X00055Y0070288D01*
X0006Y0070788D01*
X00065D01*
X0007Y0070288D01*
Y0069288D01*
X00065Y0068789D01*
X0006D01*
X00055Y0069288D01*
X0005001Y0068789D01*
X0004501D01*
X00055Y0069288D02*
Y0070288D01*
X0249755Y0009999D02*
X0250255Y0010499D01*
X0251255D01*
X0251755Y0009999D01*
Y0008D01*
X0251255Y00075D01*
X0250255D01*
X0249755Y0008D01*
X0248756Y0009999D02*
X0248256Y0010499D01*
X0247256D01*
X0246756Y0009999D01*
Y0009499D01*
X0247256Y0008999D01*
X0247756D01*
X0247256D01*
X0246756Y00085D01*
Y0008D01*
X0247256Y00075D01*
X0248256D01*
X0248756Y0008D01*
X0243757Y0010499D02*
X0245757D01*
Y0008999D01*
X0244757Y0009499D01*
X0244257D01*
X0243757Y0008999D01*
Y0008D01*
X0244257Y00075D01*
X0245257D01*
X0245757Y0008D01*
X0185312Y0129761D02*
X0184812Y0130261D01*
Y0131261D01*
X0185312Y0131761D01*
X0187311D01*
X0187811Y0131261D01*
Y0130261D01*
X0187311Y0129761D01*
X0185312Y0128762D02*
X0184812Y0128262D01*
Y0127262D01*
X0185312Y0126762D01*
X0185812D01*
X0186311Y0127262D01*
Y0127762D01*
Y0127262D01*
X0186811Y0126762D01*
X0187311D01*
X0187811Y0127262D01*
Y0128262D01*
X0187311Y0128762D01*
X0187811Y0124263D02*
X0184812D01*
X0186311Y0125763D01*
Y0123763D01*
X0233999Y0082454D02*
X0234499Y0082954D01*
Y0083954D01*
X0233999Y0084453D01*
X0232D01*
X02315Y0083954D01*
Y0082954D01*
X0232Y0082454D01*
X0233999Y0081454D02*
X0234499Y0080955D01*
Y0079955D01*
X0233999Y0079455D01*
X0233499D01*
X0232999Y0079955D01*
Y0080455D01*
Y0079955D01*
X02325Y0079455D01*
X0232D01*
X02315Y0079955D01*
Y0080955D01*
X0232Y0081454D01*
X0233999Y0078456D02*
X0234499Y0077956D01*
Y0076956D01*
X0233999Y0076456D01*
X0233499D01*
X0232999Y0076956D01*
Y0077456D01*
Y0076956D01*
X02325Y0076456D01*
X0232D01*
X02315Y0076956D01*
Y0077956D01*
X0232Y0078456D01*
X0233999Y0067801D02*
X0234499Y00683D01*
Y00693D01*
X0233999Y00698D01*
X0232D01*
X02315Y00693D01*
Y00683D01*
X0232Y0067801D01*
X0233999Y0066801D02*
X0234499Y0066301D01*
Y0065301D01*
X0233999Y0064802D01*
X0233499D01*
X0232999Y0065301D01*
Y0065801D01*
Y0065301D01*
X02325Y0064802D01*
X0232D01*
X02315Y0065301D01*
Y0066301D01*
X0232Y0066801D01*
X02315Y0061803D02*
Y0063802D01*
X0233499Y0061803D01*
X0233999D01*
X0234499Y0062302D01*
Y0063302D01*
X0233999Y0063802D01*
X0148501Y0092353D02*
X0148001Y0091853D01*
Y0090853D01*
X0148501Y0090354D01*
X01505D01*
X0151Y0090853D01*
Y0091853D01*
X01505Y0092353D01*
X0148501Y0093353D02*
X0148001Y0093852D01*
Y0094852D01*
X0148501Y0095352D01*
X0149001D01*
X0149501Y0094852D01*
Y0094352D01*
Y0094852D01*
X015Y0095352D01*
X01505D01*
X0151Y0094852D01*
Y0093852D01*
X01505Y0093353D01*
X0151Y0096352D02*
Y0097351D01*
Y0096851D01*
X0148001D01*
X0148501Y0096352D01*
X0200999Y0056199D02*
X0201499Y0055699D01*
Y00547D01*
X0200999Y00542D01*
X0199D01*
X01985Y00547D01*
Y0055699D01*
X0199Y0056199D01*
X0200999Y0057199D02*
X0201499Y0057699D01*
Y0058699D01*
X0200999Y0059198D01*
X0200499D01*
X0199999Y0058699D01*
Y0058199D01*
Y0058699D01*
X01995Y0059198D01*
X0199D01*
X01985Y0058699D01*
Y0057699D01*
X0199Y0057199D01*
X0200999Y0060198D02*
X0201499Y0060698D01*
Y0061698D01*
X0200999Y0062197D01*
X0199D01*
X01985Y0061698D01*
Y0060698D01*
X0199Y0060198D01*
X0200999D01*
X0176801Y0058199D02*
X0176301Y00577D01*
Y00567D01*
X0176801Y00562D01*
X01788D01*
X01793Y00567D01*
Y00577D01*
X01788Y0058199D01*
X01793Y0061198D02*
Y0059199D01*
X0177301Y0061198D01*
X0176801D01*
X0176301Y0060699D01*
Y0059699D01*
X0176801Y0059199D01*
X01788Y0062198D02*
X01793Y0062698D01*
Y0063698D01*
X01788Y0064197D01*
X0176801D01*
X0176301Y0063698D01*
Y0062698D01*
X0176801Y0062198D01*
X0177301D01*
X0177801Y0062698D01*
Y0064197D01*
X0168801Y0058199D02*
X0168301Y00577D01*
Y00567D01*
X0168801Y00562D01*
X01708D01*
X01713Y00567D01*
Y00577D01*
X01708Y0058199D01*
X01713Y0061198D02*
Y0059199D01*
X0169301Y0061198D01*
X0168801D01*
X0168301Y0060699D01*
Y0059699D01*
X0168801Y0059199D01*
Y0062198D02*
X0168301Y0062698D01*
Y0063698D01*
X0168801Y0064197D01*
X0169301D01*
X01698Y0063698D01*
X01703Y0064197D01*
X01708D01*
X01713Y0063698D01*
Y0062698D01*
X01708Y0062198D01*
X01703D01*
X01698Y0062698D01*
X0169301Y0062198D01*
X0168801D01*
X01698Y0062698D02*
Y0063698D01*
X0160301Y0058199D02*
X0159801Y00577D01*
Y00567D01*
X0160301Y00562D01*
X01623D01*
X01628Y00567D01*
Y00577D01*
X01623Y0058199D01*
X01628Y0061198D02*
Y0059199D01*
X0160801Y0061198D01*
X0160301D01*
X0159801Y0060699D01*
Y0059699D01*
X0160301Y0059199D01*
X0159801Y0062198D02*
Y0064197D01*
X0160301D01*
X01623Y0062198D01*
X01628D01*
X0144847Y0157459D02*
X0144347Y0156959D01*
Y015596D01*
X0144847Y015546D01*
X0146847D01*
X0147346Y015596D01*
Y0156959D01*
X0146847Y0157459D01*
X0147346Y0160458D02*
Y0158459D01*
X0145347Y0160458D01*
X0144847D01*
X0144347Y0159958D01*
Y0158959D01*
X0144847Y0158459D01*
X0144347Y0163457D02*
X0144847Y0162458D01*
X0145847Y0161458D01*
X0146847D01*
X0147346Y0161958D01*
Y0162957D01*
X0146847Y0163457D01*
X0146347D01*
X0145847Y0162957D01*
Y0161458D01*
X0057853Y0189999D02*
X0057353Y0190499D01*
X0056353D01*
X0055853Y0189999D01*
Y0188D01*
X0056353Y01875D01*
X0057353D01*
X0057853Y0188D01*
X0060852Y01875D02*
X0058853D01*
X0060852Y0189499D01*
Y0189999D01*
X0060352Y0190499D01*
X0059352D01*
X0058853Y0189999D01*
X0063851Y0190499D02*
X0061852D01*
Y0188999D01*
X0062851Y0189499D01*
X0063351D01*
X0063851Y0188999D01*
Y0188D01*
X0063351Y01875D01*
X0062351D01*
X0061852Y0188D01*
X0158436Y0138518D02*
X0158936Y0138018D01*
Y0137019D01*
X0158436Y0136519D01*
X0156437D01*
X0155937Y0137019D01*
Y0138018D01*
X0156437Y0138518D01*
X0155937Y0141517D02*
Y0139518D01*
X0157936Y0141517D01*
X0158436D01*
X0158936Y0141017D01*
Y0140018D01*
X0158436Y0139518D01*
X0155937Y0144017D02*
X0158936D01*
X0157437Y0142517D01*
Y0144516D01*
X0159436Y0151906D02*
X0159936Y0151406D01*
Y0150407D01*
X0159436Y0149907D01*
X0157437D01*
X0156937Y0150407D01*
Y0151406D01*
X0157437Y0151906D01*
X0156937Y0154905D02*
Y0152906D01*
X0158936Y0154905D01*
X0159436D01*
X0159936Y0154405D01*
Y0153406D01*
X0159436Y0152906D01*
Y0155905D02*
X0159936Y0156405D01*
Y0157404D01*
X0159436Y0157904D01*
X0158936D01*
X0158437Y0157404D01*
Y0156904D01*
Y0157404D01*
X0157937Y0157904D01*
X0157437D01*
X0156937Y0157404D01*
Y0156405D01*
X0157437Y0155905D01*
X0335499Y0051599D02*
X0335999Y0051099D01*
Y00501D01*
X0335499Y00496D01*
X03335D01*
X0333Y00501D01*
Y0051099D01*
X03335Y0051599D01*
X0333Y0054598D02*
Y0052599D01*
X0334999Y0054598D01*
X0335499D01*
X0335999Y0054099D01*
Y0053099D01*
X0335499Y0052599D01*
X0333Y0057597D02*
Y0055598D01*
X0334999Y0057597D01*
X0335499D01*
X0335999Y0057098D01*
Y0056098D01*
X0335499Y0055598D01*
X0287801Y0114999D02*
X02883Y0115499D01*
X02893D01*
X02898Y0114999D01*
Y0113D01*
X02893Y01125D01*
X02883D01*
X0287801Y0113D01*
X0284802Y01125D02*
X0286801D01*
X0284802Y0114499D01*
Y0114999D01*
X0285301Y0115499D01*
X0286301D01*
X0286801Y0114999D01*
X0283802Y01125D02*
X0282802D01*
X0283302D01*
Y0115499D01*
X0283802Y0114999D01*
X0321199Y0116001D02*
X03207Y0115501D01*
X03197D01*
X03192Y0116001D01*
Y0118D01*
X03197Y01185D01*
X03207D01*
X0321199Y0118D01*
X0324198Y01185D02*
X0322199D01*
X0324198Y0116501D01*
Y0116001D01*
X0323698Y0115501D01*
X0322699D01*
X0322199Y0116001D01*
X0325198D02*
X0325698Y0115501D01*
X0326698D01*
X0327197Y0116001D01*
Y0118D01*
X0326698Y01185D01*
X0325698D01*
X0325198Y0118D01*
Y0116001D01*
X0355101Y0066342D02*
X0355601Y0066842D01*
X03566D01*
X03571Y0066342D01*
Y0064342D01*
X03566Y0063842D01*
X0355601D01*
X0355101Y0064342D01*
X0354101Y0063842D02*
X0353101D01*
X0353601D01*
Y0066842D01*
X0354101Y0066342D01*
X0351602Y0064342D02*
X0351102Y0063842D01*
X0350102D01*
X0349602Y0064342D01*
Y0066342D01*
X0350102Y0066842D01*
X0351102D01*
X0351602Y0066342D01*
Y0065842D01*
X0351102Y0065342D01*
X0349602D01*
X0276499Y0055801D02*
X0276999Y00563D01*
Y00573D01*
X0276499Y00578D01*
X02745D01*
X0274Y00573D01*
Y00563D01*
X02745Y0055801D01*
X0274Y0054801D02*
Y0053801D01*
Y0054301D01*
X0276999D01*
X0276499Y0054801D01*
Y0052302D02*
X0276999Y0051802D01*
Y0050802D01*
X0276499Y0050302D01*
X0275999D01*
X02755Y0050802D01*
X0275Y0050302D01*
X02745D01*
X0274Y0050802D01*
Y0051802D01*
X02745Y0052302D01*
X0275D01*
X02755Y0051802D01*
X0275999Y0052302D01*
X0276499D01*
X02755Y0051802D02*
Y0050802D01*
X0334499Y0052301D02*
X0334999Y0052801D01*
Y00538D01*
X0334499Y00543D01*
X03325D01*
X0332Y00538D01*
Y0052801D01*
X03325Y0052301D01*
X0332Y0051301D02*
Y0050301D01*
Y0050801D01*
X0334999D01*
X0334499Y0051301D01*
X0334999Y0048802D02*
Y0046802D01*
X0334499D01*
X03325Y0048802D01*
X0332D01*
D18*
X03501Y01526D02*
Y0156599D01*
X0351433Y0155266D01*
X0352766Y0156599D01*
Y01526D01*
X0354099Y0156599D02*
X0356765D01*
X0355432D01*
Y01526D01*
X0360763Y0155932D02*
X0360097Y0156599D01*
X0358764D01*
X0358097Y0155932D01*
Y0153267D01*
X0358764Y01526D01*
X0360097D01*
X0360763Y0153267D01*
Y0154599D01*
X035943D01*
X0364762Y0156599D02*
X0362096D01*
Y0154599D01*
X0363429Y0155266D01*
X0364095D01*
X0364762Y0154599D01*
Y0153267D01*
X0364095Y01526D01*
X0362763D01*
X0362096Y0153267D01*
X05791Y00451D02*
Y0049099D01*
X0580433Y0047766D01*
X0581766Y0049099D01*
Y00451D01*
X0583099Y0049099D02*
X0585765D01*
X0584432D01*
Y00451D01*
X0589763Y0048432D02*
X0589097Y0049099D01*
X0587764D01*
X0587097Y0048432D01*
Y0045766D01*
X0587764Y00451D01*
X0589097D01*
X0589763Y0045766D01*
Y0047099D01*
X058843D01*
X0593095Y00451D02*
Y0049099D01*
X0591096Y0047099D01*
X0593762D01*
X00201Y00211D02*
Y0025099D01*
X0021433Y0023766D01*
X0022766Y0025099D01*
Y00211D01*
X0024099Y0025099D02*
X0026765D01*
X0025432D01*
Y00211D01*
X0030763Y0024432D02*
X0030097Y0025099D01*
X0028764D01*
X0028097Y0024432D01*
Y0021767D01*
X0028764Y00211D01*
X0030097D01*
X0030763Y0021767D01*
Y0023099D01*
X002943D01*
X0034762Y00211D02*
X0032096D01*
X0034762Y0023766D01*
Y0024432D01*
X0034095Y0025099D01*
X0032763D01*
X0032096Y0024432D01*
X00201Y04076D02*
Y0411599D01*
X0021433Y0410266D01*
X0022766Y0411599D01*
Y04076D01*
X0024099Y0411599D02*
X0026765D01*
X0025432D01*
Y04076D01*
X0030763Y0410932D02*
X0030097Y0411599D01*
X0028764D01*
X0028097Y0410932D01*
Y0408266D01*
X0028764Y04076D01*
X0030097D01*
X0030763Y0408266D01*
Y0409599D01*
X002943D01*
X0032096Y04076D02*
X0033429D01*
X0032763D01*
Y0411599D01*
X0032096Y0410932D01*
X05896Y04076D02*
Y0411599D01*
X0590933Y0410266D01*
X0592266Y0411599D01*
Y04076D01*
X0593599Y0411599D02*
X0596265D01*
X0594932D01*
Y04076D01*
X0600263Y0410932D02*
X0599597Y0411599D01*
X0598264D01*
X0597597Y0410932D01*
Y0408266D01*
X0598264Y04076D01*
X0599597D01*
X0600263Y0408266D01*
Y0409599D01*
X059893D01*
X0601596Y0410932D02*
X0602263Y0411599D01*
X0603595D01*
X0604262Y0410932D01*
Y0410266D01*
X0603595Y0409599D01*
X0602929D01*
X0603595D01*
X0604262Y0408933D01*
Y0408266D01*
X0603595Y04076D01*
X0602263D01*
X0601596Y0408266D01*
D186*
X03627Y01535D02*
G03*
X03627Y01535I-00082J0D01*
G01*
X05917Y0046D02*
G03*
X05917Y0046I-00082J0D01*
G01*
X00327Y0022D02*
G03*
X00327Y0022I-00082J0D01*
G01*
Y04085D02*
G03*
X00327Y04085I-00082J0D01*
G01*
X06022D02*
G03*
X06022Y04085I-00082J0D01*
G01*
X00317Y004375D02*
Y004925D01*
X00403D01*
Y004375D02*
Y004925D01*
X00317Y004375D02*
X00403D01*
X0072097Y018096D02*
X0077596D01*
X0072097D02*
Y018956D01*
X0077596D01*
Y018096D02*
Y018956D01*
X0083096D02*
X0088596D01*
Y018096D02*
Y018956D01*
X0083096Y018096D02*
X0088596D01*
X0083096D02*
Y018956D01*
X034625Y0053313D02*
X035175D01*
Y0044713D02*
Y0053313D01*
X034625Y0044713D02*
X035175D01*
X034625D02*
Y0053313D01*
X0008354Y0081472D02*
Y0090528D01*
X0002646Y0081472D02*
X0008354D01*
X0002646D02*
Y0090528D01*
X0008354D01*
X03425Y0050063D02*
Y0056963D01*
X03555D01*
Y0050063D02*
Y0056963D01*
X03425Y0050063D02*
X03555D01*
X0538427Y03403D02*
X0556927D01*
X0538427D02*
Y03537D01*
X0556927D01*
Y03403D02*
Y03537D01*
X00103Y01662D02*
Y01848D01*
Y01662D02*
X00237D01*
Y01848D01*
X00103D02*
X00237D01*
X01225Y03839D02*
X01335D01*
X01225Y03697D02*
Y03839D01*
Y03697D02*
X01335D01*
Y03839D01*
X0106Y03839D02*
X0117D01*
X0106Y03697D02*
Y03839D01*
Y03697D02*
X0117D01*
Y03839D01*
X00895Y03839D02*
X01005D01*
X00895Y03697D02*
Y03839D01*
Y03697D02*
X01005D01*
Y03839D01*
X00725D02*
X00835D01*
X00725Y03697D02*
Y03839D01*
Y03697D02*
X00835D01*
Y03839D01*
X0006899Y0091001D02*
Y0093D01*
X0005399D01*
Y0092D01*
Y0093D01*
X00039D01*
X0006899Y0090001D02*
X00039D01*
Y0088501D01*
X00044Y0088002D01*
X00049D01*
X0005399Y0088501D01*
Y0090001D01*
Y0088501D01*
X0005899Y0088002D01*
X0006399D01*
X0006899Y0088501D01*
Y0090001D01*
X00039Y0085502D02*
X0006899D01*
X0005399Y0087002D01*
Y0085003D01*
M02*
