%TF.GenerationSoftware,Altium Limited,Altium Designer,20.0.13 (296)*%
G04 Layer_Physical_Order=2*
G04 Layer_Color=16711680*
%FSLAX26Y26*%
%MOIN*%
%TF.FileFunction,Copper,L2,Bot,Signal*%
%TF.Part,Single*%
G01*
G75*
%TA.AperFunction,SMDPad,CuDef*%
%ADD18R,0.043000X0.039000*%
%ADD19R,0.039000X0.043000*%
%ADD20R,0.051181X0.059055*%
%ADD21R,0.059055X0.051181*%
%ADD23R,0.043307X0.039370*%
%ADD24R,0.039370X0.043307*%
%TA.AperFunction,Conductor*%
%ADD38C,0.020000*%
%ADD39C,0.010000*%
%ADD40C,0.050000*%
%ADD41C,0.030000*%
%ADD42C,0.040000*%
%TA.AperFunction,ComponentPad*%
%ADD50O,0.070000X0.100000*%
%ADD51C,0.058661*%
%ADD52R,0.066929X0.066929*%
%ADD53C,0.066929*%
%ADD54C,0.050000*%
%ADD55C,0.267716*%
%ADD56C,0.061024*%
%ADD57C,0.125000*%
%ADD58C,0.095000*%
%ADD59R,0.095000X0.095000*%
%ADD60R,0.120000X0.120000*%
%ADD61C,0.120000*%
%ADD62C,0.063000*%
%ADD63C,0.078740*%
%ADD64R,0.078740X0.078740*%
%ADD65R,0.061024X0.061024*%
%ADD66C,0.140000*%
%ADD67C,0.053150*%
%ADD68R,0.053150X0.053150*%
%ADD69C,0.047244*%
%ADD70C,0.059370*%
%ADD71R,0.059370X0.059370*%
%ADD72C,0.059055*%
%ADD73R,0.059055X0.059055*%
%ADD74R,0.051181X0.051181*%
%ADD75C,0.051181*%
%ADD76C,0.045000*%
%ADD77C,0.300000*%
%ADD78R,0.047244X0.047244*%
%ADD79R,0.062598X0.062598*%
%ADD80C,0.062598*%
%ADD81C,0.055118*%
%ADD82O,0.080000X0.095000*%
%ADD83C,0.060000*%
%ADD84R,0.059370X0.059370*%
%ADD85C,0.094488*%
%ADD86R,0.059055X0.059055*%
%TA.AperFunction,ViaPad*%
%ADD87C,0.030000*%
%ADD88C,0.040000*%
%TA.AperFunction,SMDPad,CuDef*%
G04:AMPARAMS|DCode=89|XSize=65.402mil|YSize=23.5mil|CornerRadius=5.875mil|HoleSize=0mil|Usage=FLASHONLY|Rotation=0.000|XOffset=0mil|YOffset=0mil|HoleType=Round|Shape=RoundedRectangle|*
%AMROUNDEDRECTD89*
21,1,0.065402,0.011750,0,0,0.0*
21,1,0.053652,0.023500,0,0,0.0*
1,1,0.011750,0.026826,-0.005875*
1,1,0.011750,-0.026826,-0.005875*
1,1,0.011750,-0.026826,0.005875*
1,1,0.011750,0.026826,0.005875*
%
%ADD89ROUNDEDRECTD89*%
G04:AMPARAMS|DCode=90|XSize=23.622mil|YSize=74.803mil|CornerRadius=5.906mil|HoleSize=0mil|Usage=FLASHONLY|Rotation=180.000|XOffset=0mil|YOffset=0mil|HoleType=Round|Shape=RoundedRectangle|*
%AMROUNDEDRECTD90*
21,1,0.023622,0.062992,0,0,180.0*
21,1,0.011811,0.074803,0,0,180.0*
1,1,0.011811,-0.005906,0.031496*
1,1,0.011811,0.005906,0.031496*
1,1,0.011811,0.005906,-0.031496*
1,1,0.011811,-0.005906,-0.031496*
%
%ADD90ROUNDEDRECTD90*%
G04:AMPARAMS|DCode=91|XSize=15.748mil|YSize=78.74mil|CornerRadius=3.937mil|HoleSize=0mil|Usage=FLASHONLY|Rotation=180.000|XOffset=0mil|YOffset=0mil|HoleType=Round|Shape=RoundedRectangle|*
%AMROUNDEDRECTD91*
21,1,0.015748,0.070866,0,0,180.0*
21,1,0.007874,0.078740,0,0,180.0*
1,1,0.007874,-0.003937,0.035433*
1,1,0.007874,0.003937,0.035433*
1,1,0.007874,0.003937,-0.035433*
1,1,0.007874,-0.003937,-0.035433*
%
%ADD91ROUNDEDRECTD91*%
G04:AMPARAMS|DCode=92|XSize=23.622mil|YSize=47.244mil|CornerRadius=5.906mil|HoleSize=0mil|Usage=FLASHONLY|Rotation=90.000|XOffset=0mil|YOffset=0mil|HoleType=Round|Shape=RoundedRectangle|*
%AMROUNDEDRECTD92*
21,1,0.023622,0.035433,0,0,90.0*
21,1,0.011811,0.047244,0,0,90.0*
1,1,0.011811,0.017717,0.005906*
1,1,0.011811,0.017717,-0.005906*
1,1,0.011811,-0.017717,-0.005906*
1,1,0.011811,-0.017717,0.005906*
%
%ADD92ROUNDEDRECTD92*%
%ADD93R,0.062992X0.070866*%
%ADD94R,0.133858X0.074803*%
%ADD95R,0.051181X0.043307*%
%ADD96R,0.051181X0.035433*%
G04:AMPARAMS|DCode=97|XSize=23.622mil|YSize=57.087mil|CornerRadius=2.008mil|HoleSize=0mil|Usage=FLASHONLY|Rotation=90.000|XOffset=0mil|YOffset=0mil|HoleType=Round|Shape=RoundedRectangle|*
%AMROUNDEDRECTD97*
21,1,0.023622,0.053071,0,0,90.0*
21,1,0.019606,0.057087,0,0,90.0*
1,1,0.004016,0.026535,0.009803*
1,1,0.004016,0.026535,-0.009803*
1,1,0.004016,-0.026535,-0.009803*
1,1,0.004016,-0.026535,0.009803*
%
%ADD97ROUNDEDRECTD97*%
%ADD98R,0.060000X0.060000*%
%ADD99R,0.060000X0.120000*%
%TA.AperFunction,Conductor*%
%ADD100R,0.060000X0.110000*%
%ADD101R,0.086693X0.290000*%
%ADD102R,0.025362X0.015000*%
G36*
X201929Y4290921D02*
X2888506D01*
Y4212092D01*
X2883506Y4209025D01*
X2873150Y4210388D01*
X2861402Y4208842D01*
X2850455Y4204307D01*
X2841055Y4197094D01*
X2833842Y4187694D01*
X2829308Y4176747D01*
X2827761Y4165000D01*
X2829308Y4153253D01*
X2833842Y4142306D01*
X2841055Y4132906D01*
X2850455Y4125693D01*
X2861402Y4121158D01*
X2873150Y4119612D01*
X2883506Y4120975D01*
X2888506Y4117908D01*
Y1879029D01*
X2883506Y1875688D01*
X2878148Y1877907D01*
Y1830000D01*
Y1782093D01*
X2883506Y1784312D01*
X2888506Y1780971D01*
Y1770000D01*
X2630354D01*
Y1825472D01*
X2540984D01*
Y1770000D01*
X2331965D01*
X2329499Y1775000D01*
X2333736Y1780522D01*
X2337628Y1789918D01*
X2338955Y1800000D01*
X2337628Y1810082D01*
X2333736Y1819478D01*
X2327546Y1827546D01*
X2319478Y1833736D01*
X2316141Y1835118D01*
X2317136Y1840118D01*
X2338622D01*
Y1917362D01*
X2261378D01*
Y1840118D01*
X2282864D01*
X2283859Y1835118D01*
X2280522Y1833736D01*
X2272454Y1827546D01*
X2266264Y1819478D01*
X2264953Y1816313D01*
X2133544D01*
X2127301Y1815072D01*
X2122008Y1811535D01*
X2080473Y1770000D01*
X850000D01*
X453313Y2166686D01*
Y2331616D01*
X1085741Y2331616D01*
X1090333Y2333518D01*
X1092235Y2338110D01*
X1092235Y3069259D01*
X1090333Y3073852D01*
X958463Y3205721D01*
X957270Y3206215D01*
X956356Y3207129D01*
X955065D01*
X954252Y3207465D01*
Y3234528D01*
X919724D01*
Y3185000D01*
X889724D01*
Y3234528D01*
X855197D01*
Y3226238D01*
X536983D01*
X425444Y3226486D01*
X425440Y3226485D01*
X425436Y3226486D01*
X423176Y3225553D01*
X420847Y3224595D01*
X420846Y3224591D01*
X420842Y3224589D01*
X417303Y3221058D01*
X417301Y3221054D01*
X417297Y3221053D01*
X416345Y3218754D01*
X415395Y3216468D01*
X415397Y3216464D01*
X415395Y3216461D01*
Y2966345D01*
X410395Y2964274D01*
X399986Y2974683D01*
X400049Y2975000D01*
X398264Y2983974D01*
X393180Y2991582D01*
X385573Y2996666D01*
X376598Y2998451D01*
X367624Y2996666D01*
X360016Y2991582D01*
X354933Y2983974D01*
X353148Y2975000D01*
X354933Y2966026D01*
X360016Y2958418D01*
X367624Y2953334D01*
X376598Y2951549D01*
X376915Y2951612D01*
X390687Y2937841D01*
Y2235846D01*
X386067Y2233932D01*
X365000Y2255000D01*
X15694Y2255000D01*
Y4104685D01*
X15570Y4105304D01*
X17125Y4129015D01*
X21881Y4152929D01*
X29719Y4176017D01*
X40503Y4197885D01*
X54049Y4218158D01*
X70125Y4236489D01*
X88457Y4252565D01*
X108730Y4266111D01*
X130597Y4276895D01*
X153685Y4284733D01*
X177599Y4289489D01*
X201310Y4291044D01*
X201929Y4290921D01*
D02*
G37*
G36*
X536968Y3219744D02*
X860197D01*
Y3140472D01*
X949252D01*
Y3199215D01*
X953871Y3201129D01*
X1085741Y3069259D01*
X1085741Y2338110D01*
X453313Y2338110D01*
Y2941841D01*
X474937Y2963465D01*
X478473Y2968757D01*
X479715Y2975000D01*
X478473Y2981243D01*
X474937Y2986535D01*
X469644Y2990072D01*
X463402Y2991314D01*
X457159Y2990072D01*
X451866Y2986535D01*
X426890Y2961559D01*
X421890Y2963574D01*
Y3216461D01*
X425429Y3219992D01*
X536968Y3219744D01*
D02*
G37*
G36*
X261813Y2248505D02*
Y2010000D01*
X263715Y2005408D01*
X268307Y2003506D01*
X268506D01*
Y1980000D01*
X269000Y1978806D01*
Y1904000D01*
Y1857923D01*
X264441Y1852935D01*
X242929Y1852992D01*
Y1875173D01*
X97071D01*
Y1788370D01*
X242929D01*
Y1806629D01*
X246469Y1810159D01*
X343953Y1809904D01*
X350349Y1801569D01*
X359033Y1794905D01*
X360372Y1794350D01*
Y1789350D01*
X359033Y1788796D01*
X350349Y1782132D01*
X343685Y1773447D01*
X339495Y1763333D01*
X338067Y1752480D01*
X339495Y1741627D01*
X340477Y1739257D01*
X267697Y1666476D01*
X247548Y1646328D01*
X242929Y1648242D01*
Y1721630D01*
X97071D01*
Y1665107D01*
X54860Y1622896D01*
X50218Y1615950D01*
X48589Y1607756D01*
Y1448843D01*
X48334Y1448462D01*
X46549Y1439488D01*
X48334Y1430514D01*
X48589Y1430134D01*
Y1409354D01*
X48334Y1408974D01*
X46549Y1400000D01*
X48334Y1391026D01*
X53418Y1383418D01*
X61026Y1378334D01*
X70000Y1376549D01*
X78974Y1378334D01*
X86582Y1383418D01*
X91665Y1391026D01*
X93451Y1400000D01*
X91665Y1408974D01*
X91411Y1409354D01*
Y1430134D01*
X91665Y1430514D01*
X93451Y1439488D01*
X91665Y1448462D01*
X91411Y1448843D01*
Y1598887D01*
X127351Y1634827D01*
X229514D01*
X231428Y1630207D01*
X182339Y1581118D01*
X150102D01*
Y1533685D01*
X213283D01*
Y1565921D01*
X277392Y1630030D01*
X282455Y1624968D01*
X282392Y1624651D01*
X284177Y1615677D01*
X289260Y1608069D01*
X289953Y1607607D01*
Y1601593D01*
X288370Y1600535D01*
X268953Y1581118D01*
X236717D01*
Y1533685D01*
X290248D01*
X291765Y1528685D01*
X290433Y1527795D01*
X268953Y1506315D01*
X236717D01*
Y1458882D01*
X299898D01*
Y1491118D01*
X308726Y1499946D01*
X341757D01*
X343685Y1495293D01*
X350349Y1486608D01*
X359033Y1479944D01*
X363687Y1478017D01*
Y1400000D01*
X364928Y1393757D01*
X368465Y1388465D01*
X512094Y1244836D01*
X510642Y1240051D01*
X509106Y1239745D01*
X501498Y1234662D01*
X496414Y1227054D01*
X494629Y1218080D01*
X496414Y1209105D01*
X498300Y1206284D01*
X498288Y1206027D01*
X495769Y1201071D01*
X489106Y1199745D01*
X481498Y1194662D01*
X476414Y1187054D01*
X474629Y1178080D01*
X476414Y1169105D01*
X481498Y1161498D01*
X489106Y1156414D01*
X498080Y1154629D01*
X498397Y1154692D01*
X735826Y917263D01*
X741118Y913727D01*
X747361Y912485D01*
X775312D01*
X777669Y908075D01*
X776799Y906773D01*
X775014Y897798D01*
X776799Y888824D01*
X781883Y881216D01*
X782151Y881037D01*
Y835685D01*
X770811D01*
Y784315D01*
X784064D01*
Y765685D01*
X770811D01*
Y714315D01*
X784064D01*
Y700393D01*
X775572Y693877D01*
X768277Y684370D01*
X763691Y673298D01*
X762127Y661417D01*
X763691Y649536D01*
X768277Y638465D01*
X775572Y628958D01*
X785079Y621663D01*
X796150Y617077D01*
X808032Y615513D01*
X819913Y617077D01*
X830984Y621663D01*
X840491Y628958D01*
X847786Y638465D01*
X852372Y649536D01*
X853936Y661417D01*
X852372Y673298D01*
X847786Y684370D01*
X840491Y693877D01*
X830984Y701172D01*
X819913Y705758D01*
X816691Y706182D01*
Y714315D01*
X826118D01*
Y723687D01*
X873243D01*
X923687Y673243D01*
Y424685D01*
X924928Y418442D01*
X928465Y413150D01*
X1068569Y273046D01*
Y155118D01*
X1069810Y148875D01*
X1073347Y143583D01*
X1193480Y23450D01*
X1191409Y18450D01*
X201929D01*
X201310Y18326D01*
X177599Y19881D01*
X153685Y24637D01*
X130597Y32475D01*
X108730Y43259D01*
X88457Y56805D01*
X70125Y72881D01*
X54049Y91212D01*
X40503Y111485D01*
X29719Y133353D01*
X21881Y156441D01*
X17125Y180355D01*
X15570Y204066D01*
X15694Y204685D01*
Y2248506D01*
X261813Y2248505D01*
D02*
G37*
G36*
X381475Y2229340D02*
X382668Y2228846D01*
X383582Y2227932D01*
X384874D01*
X386067Y2227438D01*
X390687Y2224825D01*
Y2082574D01*
X391928Y2076331D01*
X395465Y2071038D01*
X784232Y1682271D01*
X789525Y1678734D01*
X795768Y1677493D01*
X1255342D01*
X1393406Y1539429D01*
Y1509500D01*
X1448406D01*
Y1560500D01*
X1418476D01*
X1404096Y1574881D01*
X1406009Y1579500D01*
X1448406D01*
Y1630500D01*
X1418476D01*
X1301208Y1747768D01*
X1295916Y1751304D01*
X1289673Y1752546D01*
X802525D01*
X453313Y2101757D01*
Y2150969D01*
X457933Y2152882D01*
X845408Y1765408D01*
X850000Y1763505D01*
X2067446D01*
X2069359Y1758886D01*
X2053152Y1742679D01*
X2052835Y1742742D01*
X2043861Y1740957D01*
X2036253Y1735873D01*
X2031170Y1728266D01*
X2029385Y1719291D01*
X2031170Y1710317D01*
X2036253Y1702709D01*
X2043861Y1697626D01*
X2052835Y1695841D01*
X2061809Y1697626D01*
X2069417Y1702709D01*
X2074501Y1710317D01*
X2076286Y1719291D01*
X2076223Y1719608D01*
X2140301Y1783687D01*
X2264953D01*
X2266264Y1780522D01*
X2272454Y1772454D01*
X2280522Y1766264D01*
X2289918Y1762372D01*
X2300000Y1761045D01*
X2310082Y1762372D01*
X2319478Y1766264D01*
X2321894Y1768118D01*
X2325050Y1767381D01*
X2327180Y1765872D01*
X2327372Y1765408D01*
X2328753Y1764836D01*
X2329877Y1763850D01*
X2330961Y1763921D01*
X2331965Y1763505D01*
X2540984D01*
Y1736102D01*
X2630354D01*
Y1763505D01*
X2888506D01*
Y1272939D01*
X2884348Y1270161D01*
X2880360Y1271813D01*
X2875000Y1272519D01*
Y1233150D01*
Y1193781D01*
X2880360Y1194486D01*
X2884348Y1196138D01*
X2888506Y1193360D01*
Y1173282D01*
X2885118Y1169685D01*
X2883506Y1169685D01*
X2858464D01*
Y1140001D01*
Y1110315D01*
X2883506D01*
X2885118Y1110315D01*
X2888506Y1106718D01*
Y603929D01*
X2883506Y601093D01*
X2878637Y602061D01*
X2824985D01*
X2818791Y600829D01*
X2813540Y597320D01*
X2810031Y592069D01*
X2808799Y585875D01*
Y574125D01*
X2810031Y567931D01*
X2813540Y562680D01*
X2818791Y559171D01*
X2824985Y557939D01*
X2878637D01*
X2883506Y558907D01*
X2888506Y556071D01*
Y549576D01*
X2883506Y546904D01*
X2883270Y547061D01*
X2878637Y547983D01*
X2824985D01*
X2820352Y547061D01*
X2816424Y544436D01*
X2814272Y541216D01*
X2709142D01*
X2706582Y545047D01*
X2698974Y550130D01*
X2690000Y551915D01*
X2681026Y550130D01*
X2673418Y545047D01*
X2668334Y537439D01*
X2666549Y528465D01*
X2668334Y519490D01*
X2673418Y511882D01*
X2681026Y506799D01*
X2690000Y505014D01*
X2698974Y506799D01*
X2706582Y511882D01*
X2711194Y518784D01*
X2814272D01*
X2816424Y515564D01*
X2820352Y512939D01*
X2824985Y512017D01*
X2878637D01*
X2883270Y512939D01*
X2883506Y513096D01*
X2888506Y510424D01*
Y499576D01*
X2883506Y496904D01*
X2883270Y497061D01*
X2878637Y497983D01*
X2824985D01*
X2820352Y497061D01*
X2816424Y494436D01*
X2814272Y491216D01*
X2706827D01*
X2706582Y491582D01*
X2698974Y496666D01*
X2690000Y498451D01*
X2681026Y496666D01*
X2673418Y491582D01*
X2668334Y483974D01*
X2666549Y475000D01*
X2668334Y466026D01*
X2673418Y458418D01*
X2681026Y453334D01*
X2690000Y451549D01*
X2698974Y453334D01*
X2706582Y458418D01*
X2711666Y466026D01*
X2712214Y468784D01*
X2814272D01*
X2816424Y465564D01*
X2820352Y462939D01*
X2824985Y462017D01*
X2878637D01*
X2883270Y462939D01*
X2883506Y463096D01*
X2888506Y460424D01*
Y449576D01*
X2883506Y446904D01*
X2883270Y447061D01*
X2878637Y447983D01*
X2824985D01*
X2820352Y447061D01*
X2816424Y444436D01*
X2814272Y441216D01*
X2767627D01*
X2765331Y440759D01*
X2763974Y441666D01*
X2755000Y443451D01*
X2746026Y441666D01*
X2738418Y436582D01*
X2738238Y436313D01*
X2679257D01*
X2651943Y463627D01*
Y982337D01*
X2783921Y1114315D01*
X2814189D01*
Y1165685D01*
X2786314D01*
Y1188465D01*
X2814685D01*
Y1277835D01*
X2725315D01*
Y1188465D01*
X2753686D01*
Y1156535D01*
X2754928Y1150293D01*
X2758465Y1145000D01*
X2758882Y1144583D01*
Y1135417D01*
X2624095Y1000630D01*
X2620558Y995337D01*
X2619316Y989095D01*
Y456870D01*
X2620558Y450627D01*
X2624095Y445335D01*
X2660965Y408465D01*
X2666257Y404928D01*
X2672500Y403687D01*
X2738238D01*
X2738418Y403418D01*
X2738686Y403238D01*
Y123647D01*
X2661353Y46313D01*
X1833836D01*
X1832319Y51313D01*
X1833098Y51834D01*
X1838181Y59442D01*
X1839966Y68416D01*
X1839903Y68733D01*
X1926393Y155222D01*
X1958835Y122780D01*
X1964127Y119243D01*
X1970370Y118001D01*
X2269693D01*
X2275936Y119243D01*
X2281228Y122780D01*
X2353780Y195331D01*
X2357316Y200623D01*
X2358558Y206866D01*
Y285647D01*
X2363050Y287508D01*
X2374407Y296223D01*
X2382865Y307245D01*
X2385548Y307599D01*
X2385711D01*
X2388395Y307245D01*
X2396853Y296223D01*
X2408210Y287508D01*
X2421436Y282029D01*
X2435630Y280161D01*
X2449823Y282029D01*
X2463050Y287508D01*
X2474407Y296223D01*
X2482865Y307245D01*
X2485548Y307599D01*
X2485711D01*
X2488395Y307245D01*
X2496853Y296223D01*
X2508210Y287508D01*
X2521436Y282029D01*
X2535630Y280161D01*
X2549823Y282029D01*
X2563050Y287508D01*
X2574407Y296223D01*
X2581260Y305153D01*
X2586260Y303456D01*
Y285630D01*
X2630631D01*
Y335000D01*
Y384370D01*
X2586260D01*
Y366544D01*
X2581260Y364847D01*
X2574407Y373777D01*
X2563050Y382492D01*
X2549823Y387971D01*
X2535630Y389839D01*
X2521436Y387971D01*
X2508210Y382492D01*
X2496853Y373777D01*
X2488395Y362755D01*
X2485711Y362401D01*
X2485548D01*
X2482865Y362755D01*
X2474407Y373777D01*
X2463050Y382492D01*
X2449823Y387971D01*
X2435630Y389839D01*
X2421436Y387971D01*
X2408210Y382492D01*
X2396853Y373777D01*
X2388395Y362755D01*
X2385711Y362401D01*
X2385548D01*
X2382865Y362755D01*
X2374407Y373777D01*
X2363050Y382492D01*
X2355685Y385543D01*
X2354512Y391441D01*
X2491535Y528465D01*
X2495072Y533757D01*
X2496314Y540000D01*
X2496314Y540000D01*
Y728238D01*
X2496582Y728418D01*
X2501666Y736026D01*
X2503451Y745000D01*
X2501666Y753974D01*
X2496582Y761582D01*
X2488974Y766665D01*
X2480000Y768451D01*
X2471026Y766665D01*
X2463418Y761582D01*
X2458334Y753974D01*
X2456549Y745000D01*
X2458334Y736026D01*
X2463418Y728418D01*
X2463686Y728238D01*
Y546757D01*
X2324095Y407165D01*
X2320558Y401873D01*
X2319316Y395630D01*
Y387093D01*
X2308210Y382492D01*
X2296853Y373777D01*
X2288138Y362420D01*
X2282659Y349193D01*
X2280791Y335000D01*
X2282659Y320807D01*
X2288138Y307580D01*
X2296853Y296223D01*
X2308210Y287508D01*
X2321436Y282029D01*
X2325931Y281438D01*
Y213624D01*
X2262936Y150629D01*
X2198924D01*
X2197407Y155629D01*
X2201582Y158418D01*
X2206666Y166026D01*
X2208451Y175000D01*
X2206666Y183974D01*
X2206341Y184460D01*
X2206845Y186997D01*
Y219036D01*
X2221130D01*
Y274036D01*
X2170130D01*
Y219036D01*
X2184414D01*
Y198334D01*
X2176026Y196666D01*
X2168418Y191582D01*
X2163334Y183974D01*
X2161549Y175000D01*
X2163334Y166026D01*
X2168418Y158418D01*
X2172593Y155629D01*
X2171076Y150629D01*
X1977127D01*
X1952146Y175610D01*
X1995571Y219035D01*
X2025500D01*
Y230852D01*
X2039500D01*
Y219665D01*
X2072218D01*
X2074637Y214665D01*
X2070834Y208974D01*
X2069049Y200000D01*
X2070834Y191026D01*
X2075918Y183418D01*
X2083526Y178334D01*
X2092500Y176549D01*
X2101474Y178334D01*
X2109082Y183418D01*
X2114166Y191026D01*
X2115951Y200000D01*
X2114642Y206577D01*
X2127101Y219036D01*
X2164240D01*
Y274036D01*
X2113240D01*
Y236897D01*
X2098584Y222240D01*
X2092500Y223451D01*
X2090500Y225092D01*
Y274665D01*
X2039500D01*
Y263479D01*
X2025500D01*
Y274035D01*
X1974500D01*
Y244106D01*
X1921972Y191578D01*
X1917467Y190682D01*
X1912175Y187146D01*
X1816833Y91803D01*
X1816516Y91867D01*
X1807542Y90081D01*
X1799934Y84998D01*
X1794850Y77390D01*
X1794636Y76314D01*
X1426757D01*
X1373420Y129651D01*
Y270301D01*
X1462864D01*
X1470435Y260435D01*
X1480559Y252666D01*
X1492348Y247783D01*
X1494333Y247522D01*
Y242478D01*
X1492348Y242217D01*
X1480559Y237334D01*
X1470435Y229565D01*
X1462666Y219441D01*
X1457783Y207652D01*
X1456117Y195000D01*
X1457783Y182348D01*
X1462666Y170559D01*
X1470435Y160435D01*
X1480559Y152666D01*
X1492348Y147783D01*
X1505000Y146117D01*
X1517652Y147783D01*
X1529441Y152666D01*
X1539565Y160435D01*
X1547334Y170559D01*
X1552217Y182348D01*
X1552478Y184333D01*
X1557522D01*
X1557783Y182348D01*
X1562666Y170559D01*
X1570435Y160435D01*
X1580559Y152666D01*
X1592348Y147783D01*
X1605000Y146117D01*
X1617652Y147783D01*
X1629441Y152666D01*
X1639565Y160435D01*
X1647334Y170559D01*
X1652217Y182348D01*
X1652478Y184333D01*
X1657522D01*
X1657783Y182348D01*
X1662666Y170559D01*
X1670435Y160435D01*
X1680559Y152666D01*
X1692348Y147783D01*
X1705000Y146117D01*
X1717652Y147783D01*
X1729441Y152666D01*
X1739565Y160435D01*
X1747334Y170559D01*
X1752217Y182348D01*
X1753883Y195000D01*
X1752217Y207652D01*
X1747334Y219441D01*
X1741343Y227249D01*
X1741403Y228400D01*
X1743503Y232626D01*
X1745899Y233103D01*
X1749538Y235534D01*
X1842930Y328927D01*
X1842931Y328927D01*
X1845362Y332566D01*
X1846216Y336858D01*
Y710068D01*
X1851582Y713654D01*
X1856666Y721262D01*
X1858451Y730236D01*
X1856666Y739211D01*
X1851582Y746818D01*
X1843974Y751902D01*
X1835000Y753687D01*
X1826026Y751902D01*
X1818418Y746818D01*
X1813334Y739211D01*
X1811549Y730236D01*
X1813334Y721262D01*
X1818418Y713654D01*
X1823784Y710068D01*
Y341503D01*
X1753084Y270803D01*
X1748465Y272716D01*
Y290000D01*
X1705000D01*
Y295000D01*
X1700000D01*
Y338464D01*
X1670859D01*
X1668945Y343084D01*
X1784895Y459034D01*
X1784895Y459034D01*
X1787326Y462673D01*
X1788180Y466965D01*
X1788180Y466965D01*
Y757319D01*
X1869646Y838784D01*
X1956202D01*
X1959788Y833418D01*
X1967396Y828335D01*
X1976370Y826549D01*
X1985344Y828335D01*
X1992952Y833418D01*
X1996540Y838788D01*
X2001540Y837271D01*
Y752638D01*
X1955958Y707055D01*
X1949628Y708314D01*
X1940653Y706529D01*
X1933045Y701446D01*
X1927962Y693838D01*
X1926177Y684864D01*
X1927962Y675890D01*
X1933045Y668282D01*
X1940653Y663198D01*
X1948398Y661658D01*
X1951767Y657129D01*
X1951549Y656035D01*
X1953334Y647061D01*
X1958418Y639453D01*
X1966026Y634370D01*
X1974315Y632721D01*
Y625811D01*
X2025685D01*
Y681118D01*
X1977431D01*
X1973182Y684775D01*
X1972942Y685549D01*
X1971819Y691194D01*
X2020687Y740062D01*
X2023118Y743700D01*
X2023972Y747992D01*
X2023971Y747993D01*
Y1183897D01*
X2023972Y1183898D01*
X2023118Y1188190D01*
X2020687Y1191828D01*
X2020686Y1191828D01*
X1942191Y1270323D01*
X1943451Y1276653D01*
X1941666Y1285628D01*
X1936582Y1293236D01*
X1928974Y1298319D01*
X1920000Y1300104D01*
X1911026Y1298319D01*
X1903418Y1293236D01*
X1898334Y1285628D01*
X1897795Y1282917D01*
X1892795Y1283409D01*
Y1304724D01*
X1868111D01*
Y1273070D01*
Y1241417D01*
X1892795D01*
Y1269898D01*
X1897795Y1270390D01*
X1898334Y1267679D01*
X1903418Y1260071D01*
X1911026Y1254988D01*
X1920000Y1253203D01*
X1926330Y1254462D01*
X2001540Y1179252D01*
Y862729D01*
X1996540Y861212D01*
X1992952Y866582D01*
X1985344Y871665D01*
X1976370Y873451D01*
X1970901Y872363D01*
X1969173Y874138D01*
X1967486Y876781D01*
X1969120Y885000D01*
X1967335Y893974D01*
X1962252Y901582D01*
X1954644Y906665D01*
X1945670Y908451D01*
X1936696Y906665D01*
X1929088Y901582D01*
X1925502Y896216D01*
X1877373D01*
X1877373Y896216D01*
X1873081Y895362D01*
X1869442Y892931D01*
X1869442Y892930D01*
X1749524Y773012D01*
X1747092Y769374D01*
X1746238Y765082D01*
X1746239Y765081D01*
Y480564D01*
X1651890Y386216D01*
X1616461D01*
X1616461Y386216D01*
X1612169Y385362D01*
X1608530Y382931D01*
X1608530Y382930D01*
X1549019Y323420D01*
X1544030Y323747D01*
X1539565Y329565D01*
X1529441Y337334D01*
X1517652Y342217D01*
X1505000Y343883D01*
X1492348Y342217D01*
X1480559Y337334D01*
X1470435Y329565D01*
X1462666Y319441D01*
X1457783Y307652D01*
X1457161Y302928D01*
X1442849D01*
Y587461D01*
X1445082Y588953D01*
X1450166Y596561D01*
X1451951Y605535D01*
X1450166Y614510D01*
X1445082Y622118D01*
X1437474Y627201D01*
X1428500Y628986D01*
X1419526Y627201D01*
X1413933Y623464D01*
X1408171Y623911D01*
X1407362Y624299D01*
X1406535Y625535D01*
X1220289Y811782D01*
X1222162Y816980D01*
X1228974Y818335D01*
X1236582Y823418D01*
X1241666Y831026D01*
X1243451Y840000D01*
X1241666Y848974D01*
X1236582Y856582D01*
X1228974Y861665D01*
X1221787Y863095D01*
X893346Y1191535D01*
X888054Y1195072D01*
X881811Y1196313D01*
X801710D01*
X595081Y1402943D01*
X595144Y1403260D01*
X593358Y1412234D01*
X588275Y1419842D01*
X580667Y1424925D01*
X571693Y1426710D01*
X562719Y1424925D01*
X555111Y1419842D01*
X550027Y1412234D01*
X548242Y1403260D01*
X550027Y1394286D01*
X555111Y1386678D01*
X562719Y1381594D01*
X571693Y1379809D01*
X572010Y1379872D01*
X783417Y1168465D01*
X788710Y1164928D01*
X794953Y1163687D01*
X875054D01*
X901512Y1137228D01*
X898325Y1133344D01*
X894243Y1136072D01*
X888000Y1137313D01*
X747757D01*
X475054Y1410017D01*
Y1478017D01*
X479707Y1479944D01*
X488392Y1486608D01*
X495056Y1495293D01*
X498532Y1503687D01*
X634685D01*
X640928Y1504928D01*
X646220Y1508465D01*
X669842Y1532087D01*
X673379Y1537379D01*
X674621Y1543622D01*
Y1563882D01*
X689898D01*
Y1611315D01*
X626717D01*
Y1563882D01*
X641994D01*
Y1550379D01*
X627928Y1536313D01*
X495434D01*
X495056Y1537227D01*
X488392Y1545911D01*
X479707Y1552575D01*
X478368Y1553130D01*
Y1558130D01*
X479707Y1558685D01*
X488392Y1565349D01*
X492947Y1571285D01*
X540102D01*
Y1563882D01*
X603283D01*
Y1611315D01*
X540102D01*
Y1603912D01*
X499500D01*
X499245Y1605853D01*
X495056Y1615967D01*
X488392Y1624651D01*
X479707Y1631315D01*
X478368Y1631870D01*
Y1636870D01*
X479707Y1637425D01*
X488392Y1644089D01*
X492638Y1649622D01*
X498382Y1650849D01*
X499194Y1650379D01*
X503757Y1647330D01*
X510000Y1646088D01*
X540102D01*
Y1638685D01*
X603283D01*
Y1686118D01*
X540102D01*
Y1678715D01*
X516757D01*
X510197Y1685275D01*
X504904Y1688812D01*
X498661Y1690054D01*
X496983D01*
X495056Y1694707D01*
X488392Y1703392D01*
X479707Y1710056D01*
X478368Y1710610D01*
Y1715610D01*
X479707Y1716165D01*
X488392Y1722829D01*
X495056Y1731514D01*
X499245Y1741627D01*
X500674Y1752480D01*
X499245Y1763333D01*
X495056Y1773447D01*
X488392Y1782132D01*
X485116Y1784646D01*
X486813Y1789646D01*
X500315D01*
Y1872795D01*
X417165D01*
Y1859293D01*
X412165Y1857596D01*
X409651Y1860872D01*
X400967Y1867536D01*
X390853Y1871725D01*
X380000Y1873154D01*
X369147Y1871725D01*
X359033Y1867536D01*
X350349Y1860872D01*
X346000Y1855205D01*
X341000Y1856902D01*
Y1904000D01*
Y1978806D01*
X341494Y1980000D01*
Y2003506D01*
X355000D01*
X359592Y2005408D01*
X361494Y2010000D01*
Y2242249D01*
X366494Y2244320D01*
X381475Y2229340D01*
D02*
G37*
G36*
X3900000Y1631496D02*
X3698210Y1631496D01*
X3688905Y1645422D01*
X3673261Y1663261D01*
X3655422Y1678905D01*
X3635694Y1692087D01*
X3614414Y1702581D01*
X3591947Y1710208D01*
X3568676Y1714837D01*
X3545000Y1716388D01*
X3521324Y1714837D01*
X3498053Y1710208D01*
X3489012Y1707139D01*
X3484948Y1710051D01*
Y4245000D01*
X3900000D01*
X3900000Y1631496D01*
D02*
G37*
G36*
X422425Y1495293D02*
X429089Y1486608D01*
X437773Y1479944D01*
X442427Y1478017D01*
Y1403260D01*
X443668Y1397017D01*
X447205Y1391724D01*
X729465Y1109465D01*
X734757Y1105928D01*
X741000Y1104687D01*
X881243D01*
X1378687Y607243D01*
Y526525D01*
X1378418Y526346D01*
X1373334Y518738D01*
X1371549Y509764D01*
X1373334Y500790D01*
X1378418Y493182D01*
X1386026Y488098D01*
X1395000Y486313D01*
X1403974Y488098D01*
X1405812Y489326D01*
X1410222Y486969D01*
Y302928D01*
X1287677D01*
X1281434Y301686D01*
X1276142Y298149D01*
X1275840Y297847D01*
X1263150D01*
X1258504Y296923D01*
X1254566Y294292D01*
X1251935Y290354D01*
X1251011Y285709D01*
Y273898D01*
X1251935Y269252D01*
X1251962Y269212D01*
X1249289Y264212D01*
X1222157D01*
X1221358Y263413D01*
X1217475Y266601D01*
X1219246Y269252D01*
X1220170Y273898D01*
Y285709D01*
X1219246Y290354D01*
X1216615Y294292D01*
X1212677Y296923D01*
X1208032Y297847D01*
X1172599D01*
X1167953Y296923D01*
X1166746Y296117D01*
X1091639D01*
X956313Y431442D01*
Y680000D01*
X955072Y686243D01*
X951535Y691535D01*
X891535Y751535D01*
X886243Y755072D01*
X880000Y756313D01*
X826118D01*
Y765685D01*
X816691D01*
Y784315D01*
X826118D01*
Y835685D01*
X816691D01*
Y883678D01*
X820130Y888824D01*
X821915Y897798D01*
X820130Y906773D01*
X819260Y908075D01*
X821617Y912485D01*
X917200D01*
X1256612Y573073D01*
X1256549Y572756D01*
X1258334Y563782D01*
X1263418Y556174D01*
X1271026Y551090D01*
X1280000Y549305D01*
X1288974Y551090D01*
X1296582Y556174D01*
X1296954Y556731D01*
X1301954Y555214D01*
Y476762D01*
X1301686Y476582D01*
X1296602Y468974D01*
X1294817Y460000D01*
X1296602Y451026D01*
X1301686Y443418D01*
X1309294Y438334D01*
X1318268Y436549D01*
X1327242Y438334D01*
X1334850Y443418D01*
X1339933Y451026D01*
X1341718Y460000D01*
X1339933Y468974D01*
X1334850Y476582D01*
X1334581Y476762D01*
Y581732D01*
X1334581Y581732D01*
X1333340Y587975D01*
X1329803Y593268D01*
X951535Y971535D01*
X946243Y975072D01*
X940000Y976313D01*
X766757D01*
X537430Y1205641D01*
X539745Y1209105D01*
X540051Y1210642D01*
X544836Y1212094D01*
X728465Y1028465D01*
X733757Y1024928D01*
X740000Y1023687D01*
X843238D01*
X843418Y1023418D01*
X851026Y1018335D01*
X860000Y1016549D01*
X868974Y1018335D01*
X876582Y1023418D01*
X881665Y1031026D01*
X883451Y1040000D01*
X881665Y1048974D01*
X876582Y1056582D01*
X868974Y1061666D01*
X860000Y1063451D01*
X851026Y1061666D01*
X843418Y1056582D01*
X843238Y1056313D01*
X746757D01*
X396313Y1406757D01*
Y1478017D01*
X400967Y1479944D01*
X409651Y1486608D01*
X416315Y1495293D01*
X416870Y1496632D01*
X421870D01*
X422425Y1495293D01*
D02*
G37*
G36*
X1340793Y122894D02*
X1342035Y116651D01*
X1345571Y111358D01*
X1405616Y51313D01*
X1403545Y46313D01*
X1216757D01*
X1101196Y161875D01*
Y263490D01*
X1166746D01*
X1167953Y262683D01*
X1172599Y261759D01*
X1208032D01*
X1212677Y262683D01*
X1215329Y264455D01*
X1218516Y260571D01*
X1215773Y257828D01*
Y225607D01*
X1210773Y222499D01*
X1208032Y223044D01*
X1172599D01*
X1167953Y222120D01*
X1164015Y219489D01*
X1161384Y215551D01*
X1160460Y210905D01*
Y199095D01*
X1161384Y194449D01*
X1164015Y190511D01*
X1167953Y187880D01*
X1172599Y186956D01*
X1191618D01*
Y157901D01*
X1174626D01*
Y106901D01*
X1229626D01*
Y127402D01*
X1237555D01*
Y102901D01*
X1300555D01*
Y161901D01*
X1296446D01*
X1293385Y165855D01*
X1298860Y187011D01*
X1303228Y187880D01*
X1307166Y190511D01*
X1309797Y194449D01*
X1310721Y199095D01*
Y210905D01*
X1309797Y215551D01*
X1307237Y219383D01*
X1308416Y223937D01*
X1310050Y225029D01*
X1313565Y230290D01*
X1314800Y236496D01*
Y248307D01*
X1313565Y254513D01*
X1310488Y259118D01*
Y264212D01*
X1310488Y264212D01*
X1310488D01*
X1312773Y268231D01*
X1314496Y270301D01*
X1340793D01*
Y122894D01*
D02*
G37*
G36*
X2816424Y415564D02*
X2820352Y412939D01*
X2824985Y412017D01*
X2878637D01*
X2883270Y412939D01*
X2883506Y413096D01*
X2888506Y410424D01*
Y18450D01*
X2686702D01*
X2684631Y23450D01*
X2766535Y105354D01*
X2770072Y110647D01*
X2771314Y116890D01*
Y403238D01*
X2771582Y403418D01*
X2776666Y411026D01*
X2778209Y418784D01*
X2814272D01*
X2816424Y415564D01*
D02*
G37*
%LPC*%
G36*
X1921701Y4270545D02*
X1909499Y4269343D01*
X1897766Y4265784D01*
X1886953Y4260005D01*
X1877475Y4252226D01*
X1869696Y4242748D01*
X1863917Y4231935D01*
X1860357Y4220202D01*
X1859156Y4208000D01*
X1860357Y4195798D01*
X1863917Y4184065D01*
X1869696Y4173252D01*
X1877475Y4163774D01*
X1886953Y4155995D01*
X1897766Y4150216D01*
X1909499Y4146657D01*
X1921701Y4145455D01*
X1933903Y4146657D01*
X1945636Y4150216D01*
X1956449Y4155995D01*
X1965927Y4163774D01*
X1973705Y4173252D01*
X1979485Y4184065D01*
X1983044Y4195798D01*
X1984246Y4208000D01*
X1983044Y4220202D01*
X1979485Y4231935D01*
X1973705Y4242748D01*
X1965927Y4252226D01*
X1956449Y4260005D01*
X1945636Y4265784D01*
X1933903Y4269343D01*
X1921701Y4270545D01*
D02*
G37*
G36*
X1528000D02*
X1515798Y4269343D01*
X1504065Y4265784D01*
X1493252Y4260005D01*
X1483774Y4252226D01*
X1475995Y4242748D01*
X1470216Y4231935D01*
X1466657Y4220202D01*
X1465455Y4208000D01*
X1466657Y4195798D01*
X1470216Y4184065D01*
X1475995Y4173252D01*
X1483774Y4163774D01*
X1493252Y4155995D01*
X1504065Y4150216D01*
X1515798Y4146657D01*
X1528000Y4145455D01*
X1540202Y4146657D01*
X1551935Y4150216D01*
X1562748Y4155995D01*
X1572226Y4163774D01*
X1580005Y4173252D01*
X1585784Y4184065D01*
X1589343Y4195798D01*
X1590545Y4208000D01*
X1589343Y4220202D01*
X1585784Y4231935D01*
X1580005Y4242748D01*
X1572226Y4252226D01*
X1562748Y4260005D01*
X1551935Y4265784D01*
X1540202Y4269343D01*
X1528000Y4270545D01*
D02*
G37*
G36*
X535000Y3685941D02*
X524404Y3684546D01*
X514530Y3680456D01*
X506050Y3673950D01*
X499544Y3665470D01*
X495454Y3655596D01*
X494059Y3645000D01*
X495454Y3634404D01*
X499544Y3624530D01*
X506050Y3616050D01*
X514530Y3609544D01*
X524404Y3605454D01*
X535000Y3604059D01*
X545596Y3605454D01*
X555470Y3609544D01*
X563949Y3616050D01*
X570456Y3624530D01*
X574546Y3634404D01*
X575941Y3645000D01*
X574546Y3655596D01*
X570456Y3665470D01*
X563949Y3673950D01*
X555470Y3680456D01*
X545596Y3684546D01*
X535000Y3685941D01*
D02*
G37*
G36*
X580591Y3493740D02*
X550001D01*
Y3463150D01*
X580591D01*
Y3493740D01*
D02*
G37*
G36*
X520001D02*
X489409D01*
Y3463150D01*
X520001D01*
Y3493740D01*
D02*
G37*
G36*
X580591Y3433150D02*
X550001D01*
Y3402559D01*
X580591D01*
Y3433150D01*
D02*
G37*
G36*
X520001D02*
X489409D01*
Y3402559D01*
X520001D01*
Y3433150D01*
D02*
G37*
G36*
X233858Y3514543D02*
X220806Y3512825D01*
X208643Y3507787D01*
X198198Y3499772D01*
X190183Y3489327D01*
X185145Y3477164D01*
X183427Y3464112D01*
Y3434112D01*
X185145Y3421059D01*
X190183Y3408896D01*
X198198Y3398451D01*
X208643Y3390437D01*
X220806Y3385399D01*
X233858Y3383680D01*
X246911Y3385399D01*
X259074Y3390437D01*
X269519Y3398451D01*
X277533Y3408896D01*
X282571Y3421059D01*
X284290Y3434112D01*
Y3464112D01*
X282571Y3477164D01*
X277533Y3489327D01*
X269519Y3499772D01*
X259074Y3507787D01*
X246911Y3512825D01*
X233858Y3514543D01*
D02*
G37*
G36*
X100000D02*
X86947Y3512825D01*
X74784Y3507787D01*
X64340Y3499772D01*
X56325Y3489327D01*
X51287Y3477164D01*
X49569Y3464112D01*
Y3434112D01*
X51287Y3421059D01*
X56325Y3408896D01*
X64340Y3398451D01*
X74784Y3390437D01*
X86947Y3385399D01*
X100000Y3383680D01*
X113053Y3385399D01*
X125216Y3390437D01*
X135660Y3398451D01*
X143675Y3408896D01*
X148713Y3421059D01*
X150431Y3434112D01*
Y3464112D01*
X148713Y3477164D01*
X143675Y3489327D01*
X135660Y3499772D01*
X125216Y3507787D01*
X113053Y3512825D01*
X100000Y3514543D01*
D02*
G37*
G36*
X1495000Y3308955D02*
X1484918Y3307628D01*
X1475522Y3303736D01*
X1467454Y3297546D01*
X1461264Y3289478D01*
X1457372Y3280082D01*
X1456045Y3270000D01*
X1457372Y3259918D01*
X1461264Y3250522D01*
X1467454Y3242454D01*
X1475522Y3236264D01*
X1484918Y3232372D01*
X1495000Y3231045D01*
X1505082Y3232372D01*
X1514478Y3236264D01*
X1522546Y3242454D01*
X1528736Y3250522D01*
X1532628Y3259918D01*
X1533955Y3270000D01*
X1532628Y3280082D01*
X1528736Y3289478D01*
X1522546Y3297546D01*
X1514478Y3303736D01*
X1505082Y3307628D01*
X1495000Y3308955D01*
D02*
G37*
G36*
X2660000Y3449318D02*
X2636641Y3447480D01*
X2613858Y3442010D01*
X2592211Y3433044D01*
X2572233Y3420801D01*
X2554416Y3405584D01*
X2539199Y3387767D01*
X2526956Y3367789D01*
X2517990Y3346142D01*
X2512520Y3323359D01*
X2510682Y3300000D01*
X2512520Y3276641D01*
X2517990Y3253858D01*
X2526956Y3232211D01*
X2539199Y3212233D01*
X2554416Y3194416D01*
X2572233Y3179199D01*
X2592211Y3166956D01*
X2613858Y3157990D01*
X2636641Y3152520D01*
X2660000Y3150682D01*
X2683359Y3152520D01*
X2706142Y3157990D01*
X2727789Y3166956D01*
X2747767Y3179199D01*
X2765584Y3194416D01*
X2780801Y3212233D01*
X2793044Y3232211D01*
X2802010Y3253858D01*
X2807480Y3276641D01*
X2809318Y3300000D01*
X2807480Y3323359D01*
X2802010Y3346142D01*
X2793044Y3367789D01*
X2780801Y3387767D01*
X2765584Y3405584D01*
X2747767Y3420801D01*
X2727789Y3433044D01*
X2706142Y3442010D01*
X2683359Y3447480D01*
X2660000Y3449318D01*
D02*
G37*
G36*
X1200000Y3229912D02*
X1188376Y3228381D01*
X1177544Y3223895D01*
X1168243Y3216757D01*
X1161105Y3207456D01*
X1156619Y3196624D01*
X1155088Y3185000D01*
X1156619Y3173376D01*
X1161105Y3162544D01*
X1168243Y3153243D01*
X1177544Y3146105D01*
X1188376Y3141619D01*
X1200000Y3140088D01*
X1211624Y3141619D01*
X1222456Y3146105D01*
X1231757Y3153243D01*
X1238895Y3162544D01*
X1243381Y3173376D01*
X1244912Y3185000D01*
X1243381Y3196624D01*
X1238895Y3207456D01*
X1231757Y3216757D01*
X1222456Y3223895D01*
X1211624Y3228381D01*
X1200000Y3229912D01*
D02*
G37*
G36*
X2000000Y3205187D02*
X1988376Y3203657D01*
X1977544Y3199170D01*
X1968243Y3192033D01*
X1961105Y3182731D01*
X1956619Y3171900D01*
X1955088Y3160276D01*
X1956619Y3148652D01*
X1961105Y3137820D01*
X1968243Y3128518D01*
X1977544Y3121381D01*
X1988376Y3116894D01*
X2000000Y3115364D01*
X2011624Y3116894D01*
X2022456Y3121381D01*
X2031757Y3128518D01*
X2038895Y3137820D01*
X2043381Y3148652D01*
X2044912Y3160276D01*
X2043381Y3171900D01*
X2038895Y3182731D01*
X2031757Y3192033D01*
X2022456Y3199170D01*
X2011624Y3203657D01*
X2000000Y3205187D01*
D02*
G37*
G36*
X1495000Y3208955D02*
X1484918Y3207628D01*
X1475522Y3203736D01*
X1467454Y3197546D01*
X1461264Y3189478D01*
X1457372Y3180082D01*
X1456045Y3170000D01*
X1457372Y3159918D01*
X1461264Y3150522D01*
X1467454Y3142454D01*
X1475522Y3136264D01*
X1478687Y3134953D01*
Y3105965D01*
X1469500D01*
Y3053036D01*
X1469500Y3050965D01*
X1465713Y3048035D01*
X1460500D01*
Y3021535D01*
X1529500D01*
Y3048035D01*
X1524287D01*
X1520500Y3050965D01*
X1520500Y3053036D01*
Y3105965D01*
X1511313D01*
Y3134953D01*
X1514478Y3136264D01*
X1522546Y3142454D01*
X1528736Y3150522D01*
X1532628Y3159918D01*
X1533955Y3170000D01*
X1532628Y3180082D01*
X1528736Y3189478D01*
X1522546Y3197546D01*
X1514478Y3203736D01*
X1505082Y3207628D01*
X1495000Y3208955D01*
D02*
G37*
G36*
X233858Y3123992D02*
X220806Y3122273D01*
X208643Y3117235D01*
X198198Y3109221D01*
X190183Y3098776D01*
X185145Y3086613D01*
X183427Y3073561D01*
Y3043561D01*
X185145Y3030508D01*
X190183Y3018345D01*
X198198Y3007900D01*
X208643Y2999886D01*
X220806Y2994847D01*
X233858Y2993129D01*
X246911Y2994847D01*
X259074Y2999886D01*
X269519Y3007900D01*
X277533Y3018345D01*
X282571Y3030508D01*
X284290Y3043561D01*
Y3073561D01*
X282571Y3086613D01*
X277533Y3098776D01*
X269519Y3109221D01*
X259074Y3117235D01*
X246911Y3122273D01*
X233858Y3123992D01*
D02*
G37*
G36*
X100000D02*
X86947Y3122273D01*
X74784Y3117235D01*
X64340Y3109221D01*
X56325Y3098776D01*
X51287Y3086613D01*
X49569Y3073561D01*
Y3043561D01*
X51287Y3030508D01*
X56325Y3018345D01*
X64340Y3007900D01*
X74784Y2999886D01*
X86947Y2994847D01*
X100000Y2993129D01*
X113053Y2994847D01*
X125216Y2999886D01*
X135660Y3007900D01*
X143675Y3018345D01*
X148713Y3030508D01*
X150431Y3043561D01*
Y3073561D01*
X148713Y3086613D01*
X143675Y3098776D01*
X135660Y3109221D01*
X125216Y3117235D01*
X113053Y3122273D01*
X100000Y3123992D01*
D02*
G37*
G36*
X1529500Y3001535D02*
X1505000D01*
Y2975035D01*
X1529500D01*
Y3001535D01*
D02*
G37*
G36*
X1485000D02*
X1460500D01*
Y2975035D01*
X1485000D01*
Y3001535D01*
D02*
G37*
G36*
X2049528Y2914528D02*
X2015000D01*
Y2880000D01*
X2049528D01*
Y2914528D01*
D02*
G37*
G36*
X1985000D02*
X1950473D01*
Y2880000D01*
X1985000D01*
Y2914528D01*
D02*
G37*
G36*
X2049528Y2850000D02*
X2015000D01*
Y2815472D01*
X2049528D01*
Y2850000D01*
D02*
G37*
G36*
X1985000D02*
X1950473D01*
Y2815472D01*
X1985000D01*
Y2850000D01*
D02*
G37*
G36*
X2675000Y2843153D02*
Y2705000D01*
X2813153D01*
X2812434Y2714143D01*
X2806780Y2737692D01*
X2797513Y2760066D01*
X2784859Y2780715D01*
X2769131Y2799131D01*
X2750715Y2814859D01*
X2730066Y2827513D01*
X2707692Y2836780D01*
X2684143Y2842434D01*
X2675000Y2843153D01*
D02*
G37*
G36*
X2645000D02*
X2635857Y2842434D01*
X2612308Y2836780D01*
X2589934Y2827513D01*
X2569285Y2814859D01*
X2550869Y2799131D01*
X2535141Y2780715D01*
X2522487Y2760066D01*
X2513220Y2737692D01*
X2507566Y2714143D01*
X2506847Y2705000D01*
X2645000D01*
Y2843153D01*
D02*
G37*
G36*
X1430000Y2730187D02*
X1418376Y2728657D01*
X1407544Y2724170D01*
X1398243Y2717033D01*
X1391105Y2707731D01*
X1386619Y2696900D01*
X1385088Y2685276D01*
X1386619Y2673652D01*
X1391105Y2662820D01*
X1398243Y2653518D01*
X1407544Y2646381D01*
X1418376Y2641894D01*
X1430000Y2640364D01*
X1441624Y2641894D01*
X1452456Y2646381D01*
X1461757Y2653518D01*
X1468895Y2662820D01*
X1473381Y2673652D01*
X1474912Y2685276D01*
X1473381Y2696900D01*
X1468895Y2707731D01*
X1461757Y2717033D01*
X1452456Y2724170D01*
X1441624Y2728657D01*
X1430000Y2730187D01*
D02*
G37*
G36*
X155000Y2702901D02*
X142861Y2701303D01*
X131549Y2696618D01*
X121836Y2689164D01*
X114382Y2679451D01*
X109697Y2668139D01*
X108099Y2656000D01*
X109697Y2643861D01*
X114382Y2632549D01*
X121836Y2622836D01*
X131549Y2615382D01*
X142861Y2610697D01*
X155000Y2609099D01*
X167139Y2610697D01*
X178451Y2615382D01*
X188164Y2622836D01*
X195618Y2632549D01*
X200303Y2643861D01*
X201901Y2656000D01*
X200303Y2668139D01*
X195618Y2679451D01*
X188164Y2689164D01*
X178451Y2696618D01*
X167139Y2701303D01*
X155000Y2702901D01*
D02*
G37*
G36*
X2813153Y2675000D02*
X2675000D01*
Y2536847D01*
X2684143Y2537566D01*
X2707692Y2543220D01*
X2730066Y2552487D01*
X2750715Y2565141D01*
X2769131Y2580869D01*
X2784859Y2599285D01*
X2797513Y2619934D01*
X2806780Y2642308D01*
X2812434Y2665857D01*
X2813153Y2675000D01*
D02*
G37*
G36*
X2645000D02*
X2506847D01*
X2507566Y2665857D01*
X2513220Y2642308D01*
X2522487Y2619934D01*
X2535141Y2599285D01*
X2550869Y2580869D01*
X2569285Y2565141D01*
X2589934Y2552487D01*
X2612308Y2543220D01*
X2635857Y2537566D01*
X2645000Y2536847D01*
Y2675000D01*
D02*
G37*
G36*
X1479527Y2439528D02*
X1445000D01*
Y2405000D01*
X1479527D01*
Y2439528D01*
D02*
G37*
G36*
X1415000D02*
X1380473D01*
Y2405000D01*
X1415000D01*
Y2439528D01*
D02*
G37*
G36*
X1479527Y2375000D02*
X1445000D01*
Y2340472D01*
X1479527D01*
Y2375000D01*
D02*
G37*
G36*
X1415000D02*
X1380473D01*
Y2340472D01*
X1415000D01*
Y2375000D01*
D02*
G37*
G36*
X778000Y2296286D02*
Y2229595D01*
X844691D01*
X841193Y2241125D01*
X832372Y2257629D01*
X820500Y2272095D01*
X806035Y2283966D01*
X789531Y2292788D01*
X778000Y2296286D01*
D02*
G37*
G36*
X728000D02*
X716469Y2292788D01*
X699965Y2283966D01*
X685500Y2272095D01*
X673628Y2257629D01*
X664807Y2241125D01*
X661309Y2229595D01*
X728000D01*
Y2296286D01*
D02*
G37*
G36*
X844691Y2179595D02*
X778000D01*
Y2112903D01*
X789531Y2116401D01*
X806035Y2125223D01*
X820500Y2137094D01*
X832372Y2151560D01*
X841193Y2168064D01*
X844691Y2179595D01*
D02*
G37*
G36*
X728000D02*
X661309D01*
X664807Y2168064D01*
X673628Y2151560D01*
X685500Y2137094D01*
X699965Y2125223D01*
X716469Y2116401D01*
X728000Y2112903D01*
Y2179595D01*
D02*
G37*
G36*
X2848148Y1877906D02*
X2837934Y1873675D01*
X2827489Y1865660D01*
X2819475Y1855216D01*
X2815243Y1845000D01*
X2848148D01*
Y1877906D01*
D02*
G37*
G36*
X2585669Y1924283D02*
X2574004Y1922747D01*
X2563134Y1918245D01*
X2553800Y1911082D01*
X2546637Y1901748D01*
X2542134Y1890878D01*
X2540599Y1879213D01*
X2542134Y1867547D01*
X2546637Y1856677D01*
X2553800Y1847343D01*
X2563134Y1840180D01*
X2574004Y1835678D01*
X2585669Y1834142D01*
X2597334Y1835678D01*
X2608205Y1840180D01*
X2617539Y1847343D01*
X2624702Y1856677D01*
X2629204Y1867547D01*
X2630740Y1879213D01*
X2629204Y1890878D01*
X2624702Y1901748D01*
X2617539Y1911082D01*
X2608205Y1918245D01*
X2597334Y1922747D01*
X2585669Y1924283D01*
D02*
G37*
G36*
X2848148Y1815000D02*
X2815243D01*
X2819475Y1804784D01*
X2827489Y1794340D01*
X2837934Y1786325D01*
X2848148Y1782094D01*
Y1815000D01*
D02*
G37*
G36*
X848000Y2611405D02*
X778000D01*
Y2541405D01*
X848000D01*
Y2611405D01*
D02*
G37*
G36*
X728000D02*
X658000D01*
Y2541405D01*
X728000D01*
Y2611405D01*
D02*
G37*
G36*
X848000Y2491405D02*
X778000D01*
Y2421405D01*
X848000D01*
Y2491405D01*
D02*
G37*
G36*
X728000D02*
X658000D01*
Y2421405D01*
X728000D01*
Y2491405D01*
D02*
G37*
G36*
X155000Y2111901D02*
X142861Y2110303D01*
X131549Y2105618D01*
X121836Y2098164D01*
X114382Y2088451D01*
X109697Y2077139D01*
X108099Y2065000D01*
X109697Y2052861D01*
X114382Y2041549D01*
X121836Y2031836D01*
X131549Y2024382D01*
X142861Y2019697D01*
X155000Y2018099D01*
X167139Y2019697D01*
X178451Y2024382D01*
X188164Y2031836D01*
X195618Y2041549D01*
X200303Y2052861D01*
X201901Y2065000D01*
X200303Y2077139D01*
X195618Y2088451D01*
X188164Y2098164D01*
X178451Y2105618D01*
X167139Y2110303D01*
X155000Y2111901D01*
D02*
G37*
G36*
X217283Y1522126D02*
X186692D01*
Y1495472D01*
X217283D01*
Y1522126D01*
D02*
G37*
G36*
X176692D02*
X146102D01*
Y1495472D01*
X176692D01*
Y1522126D01*
D02*
G37*
G36*
X217283Y1485472D02*
X186692D01*
Y1458819D01*
X217283D01*
Y1485472D01*
D02*
G37*
G36*
X176692D02*
X146102D01*
Y1458819D01*
X176692D01*
Y1485472D01*
D02*
G37*
G36*
X763189Y839685D02*
X736536D01*
Y815000D01*
X763189D01*
Y839685D01*
D02*
G37*
G36*
X726536D02*
X699882D01*
Y815000D01*
X726536D01*
Y839685D01*
D02*
G37*
G36*
X763189Y805000D02*
X736536D01*
Y780315D01*
X763189D01*
Y805000D01*
D02*
G37*
G36*
X726536D02*
X699882D01*
Y780315D01*
X726536D01*
Y805000D01*
D02*
G37*
G36*
X763189Y769685D02*
X736536D01*
Y745000D01*
X763189D01*
Y769685D01*
D02*
G37*
G36*
X726536D02*
X699882D01*
Y745000D01*
X726536D01*
Y769685D01*
D02*
G37*
G36*
X560685Y749118D02*
X536000D01*
Y722465D01*
X560685D01*
Y749118D01*
D02*
G37*
G36*
X526000D02*
X501315D01*
Y722465D01*
X526000D01*
Y749118D01*
D02*
G37*
G36*
X763189Y735000D02*
X736536D01*
Y710315D01*
X763189D01*
Y735000D01*
D02*
G37*
G36*
X726536D02*
X699882D01*
Y710315D01*
X726536D01*
Y735000D01*
D02*
G37*
G36*
X526000Y712465D02*
X501315D01*
Y685811D01*
X526000D01*
Y712465D01*
D02*
G37*
G36*
X713032Y701620D02*
Y666417D01*
X748235D01*
X747501Y671993D01*
X743418Y681848D01*
X736925Y690311D01*
X728462Y696804D01*
X718607Y700886D01*
X713032Y701620D01*
D02*
G37*
G36*
X703032D02*
X697456Y700886D01*
X687601Y696804D01*
X679138Y690311D01*
X672644Y681848D01*
X668562Y671993D01*
X667828Y666417D01*
X703032D01*
Y701620D01*
D02*
G37*
G36*
X560685Y712465D02*
X536000D01*
Y685811D01*
X557520D01*
X560685Y685811D01*
X562520Y681571D01*
Y665411D01*
X556685D01*
Y678189D01*
X505315D01*
Y665411D01*
X466851D01*
X464974Y666665D01*
X456000Y668451D01*
X447026Y666665D01*
X445149Y665411D01*
X419354D01*
X418974Y665665D01*
X410000Y667451D01*
X401026Y665665D01*
X393418Y660582D01*
X388334Y652974D01*
X386549Y644000D01*
X388334Y635026D01*
X393418Y627418D01*
X401026Y622335D01*
X410000Y620549D01*
X418974Y622335D01*
X419354Y622589D01*
X450776D01*
X456000Y621549D01*
X461224Y622589D01*
X562520D01*
Y615905D01*
X653543D01*
Y706929D01*
X565685D01*
X562520Y706929D01*
X560685Y711169D01*
Y712465D01*
D02*
G37*
G36*
X748235Y656417D02*
X713032D01*
Y621214D01*
X718607Y621948D01*
X728462Y626030D01*
X736925Y632524D01*
X743418Y640987D01*
X747501Y650842D01*
X748235Y656417D01*
D02*
G37*
G36*
X703032D02*
X667828D01*
X668562Y650842D01*
X672644Y640987D01*
X679138Y632524D01*
X687601Y626030D01*
X697456Y621948D01*
X703032Y621214D01*
Y656417D01*
D02*
G37*
G36*
X653307Y1686181D02*
X622717D01*
Y1659528D01*
X653307D01*
Y1686181D01*
D02*
G37*
G36*
X693898Y1649528D02*
X663307D01*
Y1622874D01*
X693898D01*
Y1649528D01*
D02*
G37*
G36*
X653307D02*
X622717D01*
Y1622874D01*
X653307D01*
Y1649528D01*
D02*
G37*
G36*
X1610055Y1638185D02*
X1558685D01*
Y1621747D01*
X1515335D01*
Y1630500D01*
X1460335D01*
Y1579500D01*
X1515335D01*
Y1599316D01*
X1558685D01*
Y1582878D01*
X1596162D01*
X1598734Y1580306D01*
X1598951Y1578919D01*
X1598653Y1575958D01*
X1598030Y1574375D01*
X1595868Y1572931D01*
X1595868Y1572930D01*
X1594194Y1571256D01*
X1558685D01*
Y1554818D01*
X1515335D01*
Y1560500D01*
X1460335D01*
Y1509500D01*
X1515335D01*
Y1532387D01*
X1558685D01*
Y1525000D01*
X1544370D01*
Y1443189D01*
X1580305D01*
X1582977Y1438189D01*
X1582436Y1437378D01*
X1548685D01*
Y1382071D01*
X1560974D01*
Y1320140D01*
X1555974Y1317468D01*
X1555551Y1317750D01*
X1550906Y1318674D01*
X1539094D01*
X1534449Y1317750D01*
X1530511Y1315119D01*
X1527880Y1311181D01*
X1526956Y1306535D01*
Y1243543D01*
X1527880Y1238898D01*
X1530511Y1234960D01*
X1534449Y1232329D01*
X1539094Y1231405D01*
X1550906D01*
X1555551Y1232329D01*
X1555974Y1232611D01*
X1560974Y1229938D01*
Y1223774D01*
X1555607Y1220188D01*
X1550524Y1212581D01*
X1548738Y1203606D01*
X1550524Y1194632D01*
X1555607Y1187024D01*
X1563215Y1181941D01*
X1572189Y1180156D01*
X1581163Y1181941D01*
X1588771Y1187024D01*
X1593854Y1194632D01*
X1595640Y1203606D01*
X1593854Y1212581D01*
X1588771Y1220188D01*
X1584567Y1222997D01*
X1584405Y1228285D01*
X1588405Y1231542D01*
X1589094Y1231405D01*
X1600906D01*
X1605551Y1232329D01*
X1609489Y1234960D01*
X1612120Y1238898D01*
X1613044Y1243543D01*
Y1306535D01*
X1612120Y1311181D01*
X1609489Y1315119D01*
X1605551Y1317750D01*
X1600906Y1318674D01*
X1589094D01*
X1588405Y1318537D01*
X1583405Y1322608D01*
Y1382071D01*
X1600055D01*
Y1419548D01*
X1619291Y1438784D01*
X1642667D01*
X1643008Y1437072D01*
X1644778Y1434424D01*
X1647427Y1432654D01*
X1650551Y1432032D01*
X1703622D01*
X1706746Y1432654D01*
X1709395Y1434424D01*
X1711165Y1437072D01*
X1711787Y1440197D01*
Y1443189D01*
X1784370D01*
Y1525000D01*
X1610055D01*
Y1553784D01*
X1642386D01*
Y1540197D01*
X1643008Y1537072D01*
X1644778Y1534424D01*
X1647427Y1532654D01*
X1650551Y1532032D01*
X1703622D01*
X1706746Y1532654D01*
X1709395Y1534424D01*
X1711165Y1537072D01*
X1711787Y1540197D01*
Y1559803D01*
X1711165Y1562928D01*
X1709395Y1565576D01*
X1706746Y1567346D01*
X1703622Y1567968D01*
X1660579D01*
X1655616Y1572931D01*
X1655472Y1573027D01*
Y1578291D01*
X1659233Y1582032D01*
X1703622D01*
X1706746Y1582654D01*
X1709395Y1584424D01*
X1711165Y1587072D01*
X1711787Y1590197D01*
Y1609803D01*
X1711165Y1612928D01*
X1709395Y1615576D01*
X1706746Y1617346D01*
X1703622Y1617968D01*
X1650551D01*
X1647427Y1617346D01*
X1644778Y1615576D01*
X1643008Y1612928D01*
X1642386Y1609803D01*
Y1598283D01*
X1612480D01*
X1610055Y1600708D01*
Y1638185D01*
D02*
G37*
G36*
X1980906Y1651784D02*
X1971931Y1649999D01*
X1964323Y1644915D01*
X1959240Y1637307D01*
X1957455Y1628333D01*
X1958459Y1623284D01*
X1946391Y1611216D01*
X1926073D01*
X1925732Y1612928D01*
X1923962Y1615576D01*
X1921313Y1617346D01*
X1918189Y1617968D01*
X1865118D01*
X1861994Y1617346D01*
X1859345Y1615576D01*
X1857575Y1612928D01*
X1856953Y1609803D01*
Y1590197D01*
X1857575Y1587072D01*
X1859345Y1584424D01*
X1861994Y1582654D01*
X1865118Y1582032D01*
X1918189D01*
X1921313Y1582654D01*
X1923962Y1584424D01*
X1925732Y1587072D01*
X1926073Y1588784D01*
X1951036D01*
X1951037Y1588784D01*
X1955329Y1589638D01*
X1958967Y1592069D01*
X1973294Y1606397D01*
X1980906Y1604883D01*
X1989880Y1606668D01*
X1997488Y1611751D01*
X2002571Y1619359D01*
X2004356Y1628333D01*
X2002571Y1637307D01*
X1997488Y1644915D01*
X1989880Y1649999D01*
X1980906Y1651784D01*
D02*
G37*
G36*
X1918189Y1567968D02*
X1865118D01*
X1861994Y1567346D01*
X1859345Y1565576D01*
X1857575Y1562928D01*
X1856953Y1559803D01*
Y1540197D01*
X1857575Y1537072D01*
X1859345Y1534424D01*
X1861994Y1532654D01*
X1865118Y1532032D01*
X1918189D01*
X1921313Y1532654D01*
X1923962Y1534424D01*
X1925732Y1537072D01*
X1926073Y1538784D01*
X1961260D01*
X1969690Y1530354D01*
Y1521834D01*
X1964323Y1518249D01*
X1959240Y1510641D01*
X1957455Y1501667D01*
X1959240Y1492692D01*
X1964323Y1485084D01*
X1971931Y1480001D01*
X1980905Y1478216D01*
X1989880Y1480001D01*
X1997487Y1485084D01*
X2002571Y1492692D01*
X2004356Y1501667D01*
X2002571Y1510641D01*
X1997487Y1518249D01*
X1992121Y1521834D01*
Y1534999D01*
X1992121Y1535000D01*
X1991267Y1539292D01*
X1988836Y1542931D01*
X1973836Y1557931D01*
X1970197Y1560362D01*
X1965905Y1561216D01*
X1965905Y1561216D01*
X1926073D01*
X1925732Y1562928D01*
X1923962Y1565576D01*
X1921313Y1567346D01*
X1918189Y1567968D01*
D02*
G37*
G36*
X1727189Y1419432D02*
Y1375000D01*
X1740336D01*
Y1405433D01*
X1739254Y1410871D01*
X1736174Y1415481D01*
X1731564Y1418561D01*
X1727189Y1419432D01*
D02*
G37*
G36*
X1717189Y1419431D02*
X1712814Y1418561D01*
X1708204Y1415481D01*
X1705124Y1410871D01*
X1704042Y1405433D01*
Y1375000D01*
X1717189D01*
Y1419431D01*
D02*
G37*
G36*
X1678882Y1415565D02*
X1671008D01*
X1667131Y1414793D01*
X1663844Y1412597D01*
X1661647Y1409310D01*
X1660876Y1405433D01*
Y1334567D01*
X1661647Y1330690D01*
X1663844Y1327403D01*
X1667131Y1325206D01*
X1671008Y1324435D01*
X1673152D01*
X1680687Y1316901D01*
X1680511Y1315119D01*
X1677880Y1311181D01*
X1676956Y1306535D01*
Y1243543D01*
X1677880Y1238898D01*
X1680511Y1234960D01*
X1684449Y1232329D01*
X1689094Y1231405D01*
X1700906D01*
X1705551Y1232329D01*
X1709489Y1234960D01*
X1712120Y1238898D01*
X1713044Y1243543D01*
Y1306535D01*
X1712120Y1311181D01*
X1709489Y1315119D01*
X1708414Y1315837D01*
X1708337Y1318416D01*
X1712520Y1321240D01*
X1713252Y1321351D01*
X1717189Y1320568D01*
Y1365000D01*
X1704042D01*
Y1334567D01*
X1704595Y1331786D01*
X1699987Y1329323D01*
X1689014Y1340296D01*
Y1405433D01*
X1688242Y1409310D01*
X1686046Y1412597D01*
X1682759Y1414793D01*
X1678882Y1415565D01*
D02*
G37*
G36*
X1773370D02*
X1765496D01*
X1761619Y1414793D01*
X1758332Y1412597D01*
X1756136Y1409310D01*
X1755364Y1405433D01*
Y1334567D01*
X1756136Y1330690D01*
X1756710Y1329831D01*
X1745553Y1318674D01*
X1739094D01*
X1734449Y1317750D01*
X1732518Y1322076D01*
X1736174Y1324519D01*
X1739254Y1329129D01*
X1740336Y1334567D01*
Y1365000D01*
X1727189D01*
Y1320568D01*
X1731564Y1321438D01*
X1733495Y1317113D01*
X1730511Y1315119D01*
X1727880Y1311181D01*
X1726956Y1306535D01*
Y1243543D01*
X1727880Y1238898D01*
X1730511Y1234960D01*
X1734449Y1232329D01*
X1739094Y1231405D01*
X1750906D01*
X1755551Y1232329D01*
X1759489Y1234960D01*
X1762120Y1238898D01*
X1763044Y1243543D01*
Y1304443D01*
X1768436Y1309834D01*
X1773044Y1307371D01*
X1772877Y1306535D01*
Y1243543D01*
X1774112Y1237337D01*
X1777627Y1232076D01*
X1782889Y1228561D01*
X1785926Y1227957D01*
X1786982Y1222649D01*
X1783300Y1220188D01*
X1778216Y1212581D01*
X1776431Y1203606D01*
X1778216Y1194632D01*
X1783300Y1187024D01*
X1790908Y1181941D01*
X1799882Y1180156D01*
X1808856Y1181941D01*
X1816464Y1187024D01*
X1821547Y1194632D01*
X1821606Y1194926D01*
X1837425D01*
Y1178488D01*
X1888795D01*
Y1233795D01*
X1837425D01*
Y1217357D01*
X1818356D01*
X1816464Y1220188D01*
X1810023Y1224492D01*
X1809359Y1228626D01*
X1809598Y1230222D01*
X1812373Y1232076D01*
X1815888Y1237337D01*
X1817123Y1243543D01*
Y1306535D01*
X1815888Y1312741D01*
X1812373Y1318003D01*
X1807111Y1321518D01*
X1800906Y1322753D01*
X1789094D01*
X1784793Y1321897D01*
X1780876Y1325020D01*
X1780460Y1325745D01*
X1780649Y1326693D01*
X1780649Y1326693D01*
Y1327574D01*
X1782731Y1330690D01*
X1783502Y1334567D01*
Y1405433D01*
X1782731Y1409310D01*
X1780534Y1412597D01*
X1777247Y1414793D01*
X1773370Y1415565D01*
D02*
G37*
G36*
X1858111Y1304724D02*
X1833425D01*
Y1278070D01*
X1858111D01*
Y1304724D01*
D02*
G37*
G36*
Y1268070D02*
X1833425D01*
Y1241417D01*
X1858111D01*
Y1268070D01*
D02*
G37*
G36*
X2865000Y1272519D02*
X2859640Y1271813D01*
X2849986Y1267814D01*
X2841696Y1261453D01*
X2835335Y1253163D01*
X2831336Y1243509D01*
X2830631Y1238150D01*
X2865000D01*
Y1272519D01*
D02*
G37*
G36*
X1650906Y1318674D02*
X1639094D01*
X1634449Y1317750D01*
X1630511Y1315119D01*
X1627880Y1311181D01*
X1626956Y1306535D01*
Y1243543D01*
X1627880Y1238898D01*
X1630511Y1234960D01*
X1634449Y1232329D01*
X1639094Y1231405D01*
X1650906D01*
X1655551Y1232329D01*
X1659489Y1234960D01*
X1662120Y1238898D01*
X1663044Y1243543D01*
Y1306535D01*
X1662120Y1311181D01*
X1659489Y1315119D01*
X1655551Y1317750D01*
X1650906Y1318674D01*
D02*
G37*
G36*
X668091Y1765078D02*
X659116Y1763293D01*
X651508Y1758209D01*
X646425Y1750601D01*
X644640Y1741627D01*
X646425Y1732653D01*
X651508Y1725045D01*
X659116Y1719962D01*
X668091Y1718177D01*
X668407Y1718239D01*
X696574Y1690072D01*
X693394Y1686181D01*
X689106Y1686181D01*
X663307D01*
Y1659528D01*
X693898D01*
Y1681207D01*
X693898Y1685678D01*
X697789Y1688858D01*
X856169Y1530478D01*
X861461Y1526942D01*
X867704Y1525700D01*
X1095874D01*
X1279583Y1341991D01*
X1282392Y1337881D01*
X1277309Y1330273D01*
X1275524Y1321299D01*
X1277309Y1312325D01*
X1282392Y1304717D01*
X1282661Y1304538D01*
Y1289199D01*
X1283902Y1282956D01*
X1287439Y1277664D01*
X1353003Y1212099D01*
X1351314Y1203606D01*
X1352914Y1195563D01*
X1348880Y1191530D01*
X1346449Y1187891D01*
X1345595Y1183599D01*
X1345595Y1183599D01*
Y920168D01*
X1340229Y916582D01*
X1335146Y908974D01*
X1333360Y900000D01*
X1335146Y891026D01*
X1340229Y883418D01*
X1347837Y878335D01*
X1356811Y876549D01*
X1365785Y878335D01*
X1371956Y882457D01*
X1376956Y880435D01*
Y873465D01*
X1377880Y868819D01*
X1380511Y864881D01*
X1384449Y862250D01*
X1389094Y861326D01*
X1395823D01*
X1398496Y856326D01*
X1398334Y856085D01*
X1396549Y847111D01*
X1398334Y838136D01*
X1403418Y830528D01*
X1411026Y825445D01*
X1420000Y823660D01*
X1428974Y825445D01*
X1436582Y830528D01*
X1441666Y838136D01*
X1443451Y847111D01*
X1441666Y856085D01*
X1441481Y856360D01*
X1446447Y861326D01*
X1450906D01*
X1455551Y862250D01*
X1455974Y862532D01*
X1460974Y859860D01*
Y858702D01*
X1460973Y858701D01*
X1461827Y854409D01*
X1464258Y850771D01*
X1474002Y841028D01*
X1473334Y840029D01*
X1471549Y831055D01*
X1473334Y822081D01*
X1478418Y814473D01*
X1486026Y809390D01*
X1495000Y807605D01*
X1503974Y809390D01*
X1511582Y814473D01*
X1516666Y822081D01*
X1518451Y831055D01*
X1516666Y840029D01*
X1511582Y847637D01*
X1503974Y852721D01*
X1495000Y854506D01*
X1493472Y856326D01*
X1495803Y861326D01*
X1500906D01*
X1505551Y862250D01*
X1509489Y864881D01*
X1512120Y868819D01*
X1513044Y873465D01*
Y936457D01*
X1512120Y941102D01*
X1509489Y945040D01*
X1506216Y947227D01*
Y1006890D01*
X1534646Y1035320D01*
X1867751D01*
X1871336Y1029953D01*
X1878944Y1024870D01*
X1887919Y1023085D01*
X1896893Y1024870D01*
X1904501Y1029953D01*
X1909584Y1037561D01*
X1911369Y1046535D01*
X1909584Y1055510D01*
X1904501Y1063118D01*
X1896893Y1068201D01*
X1887919Y1069986D01*
X1878944Y1068201D01*
X1871336Y1063118D01*
X1867751Y1057751D01*
X1530001D01*
X1530000Y1057751D01*
X1525708Y1056897D01*
X1522069Y1054466D01*
X1522069Y1054466D01*
X1510835Y1043232D01*
X1506216Y1045145D01*
Y1232773D01*
X1509489Y1234960D01*
X1512120Y1238898D01*
X1513044Y1243543D01*
Y1306535D01*
X1512120Y1311181D01*
X1509489Y1315119D01*
X1505551Y1317750D01*
X1500906Y1318674D01*
X1489094D01*
X1484449Y1317750D01*
X1480511Y1315119D01*
X1477880Y1311181D01*
X1476956Y1306535D01*
Y1243543D01*
X1477880Y1238898D01*
X1480511Y1234960D01*
X1483784Y1232773D01*
Y1038808D01*
X1464258Y1019282D01*
X1461827Y1015644D01*
X1460973Y1011352D01*
X1460974Y1011351D01*
Y950062D01*
X1455974Y947389D01*
X1455551Y947671D01*
X1450906Y948595D01*
X1439094D01*
X1434449Y947671D01*
X1430511Y945040D01*
X1427880Y941102D01*
X1426956Y936457D01*
Y873557D01*
X1423303Y869904D01*
X1420000Y870561D01*
X1416570Y869879D01*
X1415600Y870849D01*
X1413044Y874275D01*
Y936457D01*
X1412120Y941102D01*
X1409489Y945040D01*
X1405551Y947671D01*
X1400906Y948595D01*
X1389094D01*
X1384449Y947671D01*
X1380511Y945040D01*
X1377880Y941102D01*
X1376956Y936457D01*
Y919757D01*
X1376560Y919405D01*
X1371956Y917543D01*
X1368026Y920168D01*
Y1176935D01*
X1372328Y1180640D01*
X1374765Y1180156D01*
X1383739Y1181941D01*
X1391347Y1187024D01*
X1396430Y1194632D01*
X1398215Y1203606D01*
X1396430Y1212581D01*
X1391347Y1220188D01*
X1385676Y1223977D01*
X1383291Y1227547D01*
X1385581Y1231502D01*
X1386139Y1231993D01*
X1389094Y1231405D01*
X1400906D01*
X1405551Y1232329D01*
X1409489Y1234960D01*
X1412120Y1238898D01*
X1413044Y1243543D01*
Y1306535D01*
X1412120Y1311181D01*
X1409489Y1315119D01*
X1406216Y1317306D01*
Y1318789D01*
X1406216Y1318790D01*
X1405362Y1323082D01*
X1402931Y1326720D01*
X1402930Y1326721D01*
X1385980Y1343671D01*
Y1377692D01*
X1391347Y1381278D01*
X1396430Y1388886D01*
X1398215Y1397860D01*
X1396430Y1406834D01*
X1394733Y1409375D01*
X1397090Y1413784D01*
X1402949D01*
X1433784Y1382949D01*
Y1317306D01*
X1430511Y1315119D01*
X1427880Y1311181D01*
X1426956Y1306535D01*
Y1243543D01*
X1427880Y1238898D01*
X1430511Y1234960D01*
X1434449Y1232329D01*
X1439094Y1231405D01*
X1450906D01*
X1455551Y1232329D01*
X1459489Y1234960D01*
X1462120Y1238898D01*
X1463044Y1243543D01*
Y1306535D01*
X1462120Y1311181D01*
X1459489Y1315119D01*
X1456216Y1317306D01*
Y1387594D01*
X1456216Y1387594D01*
X1455362Y1391887D01*
X1452931Y1395525D01*
X1452930Y1395525D01*
X1415525Y1432931D01*
X1411887Y1435362D01*
X1407594Y1436216D01*
X1407594Y1436216D01*
X1337110D01*
X1326216Y1447110D01*
Y1537431D01*
X1331582Y1541016D01*
X1336666Y1548624D01*
X1338451Y1557599D01*
X1336666Y1566573D01*
X1331582Y1574181D01*
X1323974Y1579264D01*
X1315000Y1581049D01*
X1306026Y1579264D01*
X1298418Y1574181D01*
X1293334Y1566573D01*
X1291549Y1557599D01*
X1293334Y1548624D01*
X1298418Y1541016D01*
X1303784Y1537431D01*
Y1442465D01*
X1303784Y1442465D01*
X1304638Y1438173D01*
X1307069Y1434534D01*
X1324534Y1417070D01*
X1324534Y1417069D01*
X1328173Y1414638D01*
X1332465Y1413784D01*
X1332465Y1413784D01*
X1352440D01*
X1354797Y1409375D01*
X1353099Y1406834D01*
X1351314Y1397860D01*
X1353099Y1388886D01*
X1358182Y1381278D01*
X1363549Y1377692D01*
Y1339026D01*
X1363549Y1339025D01*
X1364403Y1334733D01*
X1366834Y1331095D01*
X1380717Y1317211D01*
X1380511Y1315119D01*
X1377880Y1311181D01*
X1376956Y1306535D01*
Y1243543D01*
X1377498Y1240817D01*
X1372890Y1238354D01*
X1315288Y1295956D01*
Y1304538D01*
X1315556Y1304717D01*
X1320640Y1312325D01*
X1322425Y1321299D01*
X1320640Y1330273D01*
X1315556Y1337881D01*
X1315288Y1338061D01*
Y1345671D01*
X1314046Y1351914D01*
X1310510Y1357206D01*
X1114167Y1553549D01*
X1108874Y1557085D01*
X1102631Y1558327D01*
X874461D01*
X691478Y1741310D01*
X691541Y1741627D01*
X689756Y1750601D01*
X684673Y1758209D01*
X677065Y1763293D01*
X668091Y1765078D01*
D02*
G37*
G36*
X2865000Y1228150D02*
X2830631D01*
X2831336Y1222790D01*
X2835335Y1213136D01*
X2841696Y1204846D01*
X2849986Y1198485D01*
X2859640Y1194486D01*
X2865000Y1193781D01*
Y1228150D01*
D02*
G37*
G36*
X2848464Y1169685D02*
X2821811D01*
Y1145001D01*
X2848464D01*
Y1169685D01*
D02*
G37*
G36*
Y1135001D02*
X2821811D01*
Y1110315D01*
X2848464D01*
Y1135001D01*
D02*
G37*
G36*
X1198465Y1397860D02*
X1189490Y1396075D01*
X1181882Y1390992D01*
X1176799Y1383384D01*
X1175014Y1374409D01*
X1176799Y1365435D01*
X1181882Y1357827D01*
X1188017Y1353729D01*
Y1150768D01*
X1188017Y1150768D01*
X1188870Y1146476D01*
X1191302Y1142837D01*
X1267809Y1066330D01*
X1266549Y1060000D01*
X1268334Y1051026D01*
X1273418Y1043418D01*
X1281026Y1038334D01*
X1290000Y1036549D01*
X1298974Y1038334D01*
X1306582Y1043418D01*
X1311666Y1051026D01*
X1313451Y1060000D01*
X1311666Y1068974D01*
X1306582Y1076582D01*
X1298974Y1081666D01*
X1290000Y1083451D01*
X1283670Y1082191D01*
X1210448Y1155413D01*
Y1354755D01*
X1215047Y1357827D01*
X1220130Y1365435D01*
X1221915Y1374409D01*
X1220130Y1383384D01*
X1215047Y1390992D01*
X1207439Y1396075D01*
X1198465Y1397860D01*
D02*
G37*
G36*
X1800906Y948595D02*
X1789094D01*
X1784449Y947671D01*
X1780511Y945040D01*
X1777880Y941102D01*
X1776956Y936457D01*
Y873465D01*
X1777880Y868819D01*
X1780511Y864881D01*
X1784449Y862250D01*
X1789094Y861326D01*
X1800906D01*
X1805551Y862250D01*
X1809489Y864881D01*
X1812120Y868819D01*
X1813044Y873465D01*
Y936457D01*
X1812120Y941102D01*
X1809489Y945040D01*
X1805551Y947671D01*
X1800906Y948595D01*
D02*
G37*
G36*
X1750906D02*
X1739094D01*
X1734449Y947671D01*
X1730511Y945040D01*
X1727880Y941102D01*
X1726956Y936457D01*
Y873465D01*
X1727880Y868819D01*
X1730511Y864881D01*
X1734449Y862250D01*
X1739094Y861326D01*
X1750906D01*
X1755551Y862250D01*
X1759489Y864881D01*
X1762120Y868819D01*
X1763044Y873465D01*
Y936457D01*
X1762120Y941102D01*
X1759489Y945040D01*
X1755551Y947671D01*
X1750906Y948595D01*
D02*
G37*
G36*
X1595000Y1020986D02*
X1586026Y1019201D01*
X1578418Y1014117D01*
X1573334Y1006510D01*
X1571549Y997535D01*
X1573334Y988561D01*
X1578418Y980953D01*
X1583784Y977367D01*
Y947227D01*
X1580511Y945040D01*
X1577880Y941102D01*
X1576956Y936457D01*
Y873465D01*
X1577880Y868819D01*
X1580511Y864881D01*
X1584449Y862250D01*
X1589094Y861326D01*
X1600906D01*
X1605551Y862250D01*
X1609489Y864881D01*
X1612120Y868819D01*
X1613044Y873465D01*
Y936457D01*
X1612120Y941102D01*
X1609489Y945040D01*
X1606216Y947227D01*
Y977367D01*
X1611582Y980953D01*
X1616666Y988561D01*
X1618451Y997535D01*
X1616666Y1006510D01*
X1611582Y1014117D01*
X1603974Y1019201D01*
X1595000Y1020986D01*
D02*
G37*
G36*
X1545000Y994986D02*
X1536026Y993201D01*
X1528418Y988117D01*
X1523334Y980510D01*
X1521549Y971535D01*
X1523334Y962561D01*
X1528418Y954953D01*
X1533127Y951807D01*
Y946788D01*
X1530511Y945040D01*
X1527880Y941102D01*
X1526956Y936457D01*
Y873465D01*
X1527880Y868819D01*
X1530511Y864881D01*
X1534449Y862250D01*
X1539094Y861326D01*
X1550906D01*
X1555551Y862250D01*
X1559489Y864881D01*
X1562120Y868819D01*
X1563044Y873465D01*
Y936457D01*
X1562120Y941102D01*
X1559489Y945040D01*
X1556873Y946788D01*
Y951807D01*
X1561582Y954953D01*
X1566666Y962561D01*
X1568451Y971535D01*
X1566666Y980510D01*
X1561582Y988117D01*
X1553974Y993201D01*
X1545000Y994986D01*
D02*
G37*
G36*
X2170236Y759199D02*
X2161262Y757414D01*
X2153654Y752330D01*
X2148571Y744722D01*
X2146786Y735748D01*
X2148571Y726774D01*
X2149980Y724665D01*
X2149205Y723208D01*
X2146674Y720612D01*
X2138740Y722191D01*
X2129766Y720406D01*
X2122158Y715322D01*
X2117075Y707714D01*
X2115289Y698740D01*
X2117075Y689766D01*
X2122158Y682158D01*
X2127525Y678572D01*
Y340965D01*
X2113240D01*
Y285965D01*
X2164240D01*
Y340965D01*
X2149956D01*
Y678572D01*
X2154021Y681288D01*
X2159021Y679378D01*
Y668051D01*
X2159021Y668051D01*
X2159874Y663759D01*
X2162306Y660120D01*
X2184414Y638011D01*
Y340965D01*
X2170130D01*
Y285965D01*
X2221130D01*
Y340965D01*
X2206845D01*
Y642656D01*
X2206845Y642657D01*
X2205992Y646949D01*
X2203561Y650587D01*
X2203560Y650588D01*
X2181452Y672696D01*
Y715580D01*
X2186818Y719166D01*
X2191902Y726774D01*
X2193687Y735748D01*
X2191902Y744722D01*
X2186818Y752330D01*
X2179210Y757414D01*
X2170236Y759199D01*
D02*
G37*
G36*
X1650906Y948595D02*
X1639094D01*
X1634449Y947671D01*
X1630511Y945040D01*
X1627880Y941102D01*
X1626956Y936457D01*
Y873465D01*
X1627880Y868819D01*
X1630511Y864881D01*
X1633784Y862694D01*
Y750404D01*
X1628418Y746818D01*
X1623334Y739211D01*
X1621549Y730236D01*
X1623334Y721262D01*
X1628418Y713654D01*
X1636026Y708571D01*
X1645000Y706786D01*
X1653974Y708571D01*
X1661582Y713654D01*
X1666666Y721262D01*
X1668451Y730236D01*
X1666666Y739211D01*
X1661582Y746818D01*
X1656216Y750404D01*
Y862694D01*
X1659489Y864881D01*
X1662120Y868819D01*
X1663044Y873465D01*
Y936457D01*
X1662120Y941102D01*
X1659489Y945040D01*
X1655551Y947671D01*
X1650906Y948595D01*
D02*
G37*
G36*
X1995000Y618189D02*
X1970315D01*
Y591535D01*
X1995000D01*
Y618189D01*
D02*
G37*
G36*
Y581535D02*
X1970315D01*
Y554882D01*
X1995000D01*
Y581535D01*
D02*
G37*
G36*
X1949764Y554451D02*
X1940790Y552665D01*
X1933182Y547582D01*
X1928098Y539974D01*
X1926313Y531000D01*
X1928098Y522026D01*
X1929034Y520625D01*
X1926677Y516216D01*
X1918177D01*
Y521840D01*
X1867177D01*
Y466840D01*
X1918177D01*
Y493784D01*
X1943905D01*
X1943906Y493784D01*
X1948198Y494638D01*
X1951836Y497069D01*
X1957694Y502927D01*
X1957694Y502927D01*
X1960126Y506566D01*
X1960973Y510828D01*
X1966346Y514418D01*
X1971429Y522026D01*
X1973214Y531000D01*
X1971429Y539974D01*
X1966346Y547582D01*
X1958738Y552665D01*
X1949764Y554451D01*
D02*
G37*
G36*
X1700906Y948595D02*
X1689094D01*
X1684449Y947671D01*
X1680511Y945040D01*
X1677880Y941102D01*
X1676956Y936457D01*
Y873465D01*
X1677880Y868819D01*
X1680511Y864881D01*
X1683784Y862694D01*
Y503932D01*
X1678418Y500346D01*
X1673334Y492738D01*
X1671549Y483764D01*
X1673334Y474790D01*
X1678418Y467182D01*
X1686026Y462098D01*
X1695000Y460313D01*
X1703974Y462098D01*
X1711582Y467182D01*
X1716666Y474790D01*
X1718451Y483764D01*
X1716666Y492738D01*
X1711582Y500346D01*
X1706216Y503932D01*
Y862694D01*
X1709489Y864881D01*
X1712120Y868819D01*
X1713044Y873465D01*
Y936457D01*
X1712120Y941102D01*
X1709489Y945040D01*
X1705551Y947671D01*
X1700906Y948595D01*
D02*
G37*
G36*
X2685000Y384370D02*
X2640631D01*
Y340000D01*
X2685000D01*
Y384370D01*
D02*
G37*
G36*
X1918177Y454911D02*
X1867177D01*
Y399911D01*
X1881462D01*
Y380168D01*
X1876095Y376582D01*
X1871012Y368974D01*
X1869226Y360000D01*
X1871012Y351026D01*
X1876095Y343418D01*
X1883703Y338334D01*
X1892677Y336549D01*
X1901651Y338334D01*
X1909259Y343418D01*
X1914343Y351026D01*
X1916128Y360000D01*
X1914343Y368974D01*
X1909259Y376582D01*
X1903893Y380168D01*
Y399911D01*
X1918177D01*
Y454911D01*
D02*
G37*
G36*
X1748465Y338464D02*
X1710000D01*
Y300000D01*
X1748465D01*
Y338464D01*
D02*
G37*
G36*
X1918189Y1517968D02*
X1865118D01*
X1861994Y1517346D01*
X1859345Y1515576D01*
X1857575Y1512928D01*
X1856953Y1509803D01*
Y1497893D01*
X1844180Y1485120D01*
X1841748Y1481481D01*
X1840895Y1477189D01*
X1840895Y1477188D01*
Y1401867D01*
X1840895Y1401866D01*
X1841748Y1397574D01*
X1844180Y1393936D01*
X2033036Y1205079D01*
Y621801D01*
X2029685Y618189D01*
X2028036Y618189D01*
X2005000D01*
Y586535D01*
Y554882D01*
X2028036D01*
X2029685Y554882D01*
X2033036Y551270D01*
Y429070D01*
X1996775Y392809D01*
X1991026Y391666D01*
X1983418Y386582D01*
X1978334Y378974D01*
X1976549Y370000D01*
X1978334Y361026D01*
X1983418Y353418D01*
X1988784Y349832D01*
Y340964D01*
X1974500D01*
Y285964D01*
X2025500D01*
Y340964D01*
X2011216D01*
Y349832D01*
X2016582Y353418D01*
X2021666Y361026D01*
X2023451Y370000D01*
X2021666Y378974D01*
X2018861Y383172D01*
X2048785Y413096D01*
X2053785Y411025D01*
Y390168D01*
X2048418Y386582D01*
X2043334Y378974D01*
X2041549Y370000D01*
X2043334Y361026D01*
X2048418Y353418D01*
X2053785Y349832D01*
Y341594D01*
X2039500D01*
Y286594D01*
X2090500D01*
Y341594D01*
X2076215D01*
Y349832D01*
X2081582Y353418D01*
X2086666Y361026D01*
X2088451Y370000D01*
X2086666Y378974D01*
X2081582Y386582D01*
X2076215Y390168D01*
Y1321156D01*
X2076216Y1321157D01*
X2075362Y1325449D01*
X2072931Y1329088D01*
X2072930Y1329088D01*
X1944088Y1457931D01*
X1940449Y1460362D01*
X1936157Y1461216D01*
X1936156Y1461216D01*
X1926073D01*
X1925732Y1462928D01*
X1923962Y1465576D01*
X1921313Y1467346D01*
X1918189Y1467968D01*
X1865118D01*
X1864763Y1468260D01*
X1864535Y1473753D01*
X1872814Y1482032D01*
X1918189D01*
X1921313Y1482654D01*
X1923962Y1484424D01*
X1925732Y1487072D01*
X1926354Y1490197D01*
Y1509803D01*
X1925732Y1512928D01*
X1923962Y1515576D01*
X1921313Y1517346D01*
X1918189Y1517968D01*
D02*
G37*
G36*
X2685000Y330000D02*
X2640631D01*
Y285630D01*
X2685000D01*
Y330000D01*
D02*
G37*
G36*
X2433736Y115685D02*
X2378429D01*
Y101216D01*
X2359923D01*
X2356337Y106582D01*
X2348729Y111665D01*
X2339755Y113451D01*
X2330781Y111665D01*
X2323173Y106582D01*
X2318090Y98974D01*
X2316304Y90000D01*
X2318090Y81026D01*
X2323173Y73418D01*
X2330781Y68335D01*
X2339755Y66549D01*
X2348729Y68335D01*
X2356337Y73418D01*
X2359923Y78784D01*
X2378429D01*
Y64315D01*
X2433736D01*
Y115685D01*
D02*
G37*
G36*
X2504665Y119685D02*
X2478011D01*
Y95001D01*
X2504665D01*
Y119685D01*
D02*
G37*
G36*
X2468011D02*
X2441358D01*
Y95001D01*
X2468011D01*
Y119685D01*
D02*
G37*
G36*
X2504665Y85001D02*
X2478011D01*
Y60315D01*
X2504665D01*
Y85001D01*
D02*
G37*
G36*
X2468011D02*
X2441358D01*
Y60315D01*
X2468011D01*
Y85001D01*
D02*
G37*
%LPD*%
G36*
X2053785Y1316511D02*
Y1223124D01*
X2048785Y1221053D01*
X1863326Y1406512D01*
Y1430561D01*
X1865118Y1432032D01*
X1918189D01*
X1921313Y1432654D01*
X1923962Y1434424D01*
X1925732Y1437072D01*
X1926073Y1438784D01*
X1931511D01*
X2053785Y1316511D01*
D02*
G37*
%LPC*%
G36*
X3833799Y4201901D02*
Y4165002D01*
X3870700D01*
X3870141Y4169247D01*
X3865607Y4180194D01*
X3858394Y4189594D01*
X3848993Y4196807D01*
X3838047Y4201342D01*
X3833799Y4201901D01*
D02*
G37*
G36*
X3818799D02*
X3814552Y4201342D01*
X3803605Y4196807D01*
X3794205Y4189594D01*
X3786992Y4180194D01*
X3782457Y4169247D01*
X3781898Y4165002D01*
X3818799D01*
Y4201901D01*
D02*
G37*
G36*
X3870700Y4150002D02*
X3833799D01*
Y4113099D01*
X3838047Y4113658D01*
X3848993Y4118193D01*
X3858394Y4125406D01*
X3865607Y4134806D01*
X3870141Y4145753D01*
X3870700Y4150002D01*
D02*
G37*
G36*
X3818799D02*
X3781898D01*
X3782457Y4145753D01*
X3786992Y4134806D01*
X3794205Y4125406D01*
X3803605Y4118193D01*
X3814552Y4113658D01*
X3818799Y4113099D01*
Y4150002D01*
D02*
G37*
G36*
X3549709Y2491959D02*
Y2460101D01*
X3581567D01*
X3581180Y2463043D01*
X3577149Y2472774D01*
X3570737Y2481129D01*
X3562382Y2487541D01*
X3552651Y2491572D01*
X3549709Y2491959D01*
D02*
G37*
G36*
X3534709D02*
X3531767Y2491572D01*
X3522036Y2487541D01*
X3513681Y2481129D01*
X3507269Y2472774D01*
X3503238Y2463043D01*
X3502851Y2460101D01*
X3534709D01*
Y2491959D01*
D02*
G37*
G36*
X3581567Y2445101D02*
X3549709D01*
Y2413243D01*
X3552651Y2413631D01*
X3562382Y2417661D01*
X3570737Y2424073D01*
X3577149Y2432428D01*
X3581180Y2442159D01*
X3581567Y2445101D01*
D02*
G37*
G36*
X3534709D02*
X3502851D01*
X3503238Y2442159D01*
X3507269Y2432428D01*
X3513681Y2424073D01*
X3522036Y2417661D01*
X3531767Y2413631D01*
X3534709Y2413243D01*
Y2445101D01*
D02*
G37*
G36*
X3840650Y1884401D02*
Y1847500D01*
X3877550D01*
X3876991Y1851747D01*
X3872457Y1862694D01*
X3865244Y1872094D01*
X3855844Y1879307D01*
X3844897Y1883842D01*
X3840650Y1884401D01*
D02*
G37*
G36*
X3825650D02*
X3821402Y1883842D01*
X3810455Y1879307D01*
X3801055Y1872094D01*
X3793842Y1862694D01*
X3789308Y1851747D01*
X3788749Y1847500D01*
X3825650D01*
Y1884401D01*
D02*
G37*
G36*
X3877550Y1832500D02*
X3840650D01*
Y1795599D01*
X3844897Y1796158D01*
X3855844Y1800693D01*
X3865244Y1807906D01*
X3872457Y1817306D01*
X3876991Y1828253D01*
X3877550Y1832500D01*
D02*
G37*
G36*
X3825650D02*
X3788749D01*
X3789308Y1828253D01*
X3793842Y1817306D01*
X3801055Y1807906D01*
X3810455Y1800693D01*
X3821402Y1796158D01*
X3825650Y1795599D01*
Y1832500D01*
D02*
G37*
%LPD*%
D18*
X3760032Y853000D02*
D03*
X3826961D02*
D03*
X1269055Y132401D02*
D03*
X1202126D02*
D03*
X1420906Y1535000D02*
D03*
X1487835D02*
D03*
X1420906Y1605000D02*
D03*
X1487835D02*
D03*
X3615535Y853000D02*
D03*
X3682465D02*
D03*
D19*
X2065000Y314094D02*
D03*
Y247165D02*
D03*
X2000000Y313464D02*
D03*
Y246535D02*
D03*
X1892677Y427411D02*
D03*
Y494340D02*
D03*
X2138740Y246536D02*
D03*
Y313465D02*
D03*
X2195630Y246536D02*
D03*
Y313465D02*
D03*
X3900000Y852000D02*
D03*
Y785071D02*
D03*
X1495000Y3011535D02*
D03*
Y3078465D02*
D03*
D20*
X3539401Y653425D02*
D03*
X3464598D02*
D03*
D21*
X3345000Y527598D02*
D03*
Y602402D02*
D03*
D23*
X798465Y740000D02*
D03*
X731535D02*
D03*
X798465Y810000D02*
D03*
X731535D02*
D03*
X2406083Y90000D02*
D03*
X2473012D02*
D03*
X2786535Y1140000D02*
D03*
X2853465D02*
D03*
X3303465Y1170000D02*
D03*
X3236535D02*
D03*
D24*
X531000Y650535D02*
D03*
Y717465D02*
D03*
X1863110Y1206142D02*
D03*
Y1273071D02*
D03*
X2000000Y653465D02*
D03*
Y586535D02*
D03*
X1574370Y1476654D02*
D03*
Y1409725D02*
D03*
X1584370Y1610532D02*
D03*
Y1543602D02*
D03*
D38*
X3738000Y569000D02*
X3887000D01*
X3577614Y502634D02*
X3671634D01*
X3738000Y569000D01*
X3613000Y855535D02*
Y945000D01*
Y855535D02*
X3615535Y853000D01*
X3887000Y771535D02*
X3900535Y785071D01*
X3942071D01*
X3900000D02*
X3900535D01*
X3942071D02*
X3995000Y838000D01*
X3722000Y655000D02*
X3728213Y661213D01*
X3880787D01*
X3887000Y667425D01*
X3545118Y456575D02*
X3873000D01*
X3312638D02*
X3545118D01*
X3622000Y755000D02*
X3682465Y815465D01*
Y853000D01*
X3760032D01*
X3887000Y667425D02*
Y771535D01*
X3900465Y853000D02*
X3901000Y852465D01*
X3826961Y853000D02*
X3900465D01*
X3717039Y659961D02*
X3722000Y655000D01*
X3545937Y659961D02*
X3717039D01*
X3545118Y535130D02*
X3577614Y502634D01*
X3873000Y456575D02*
X3887000Y470575D01*
X800378Y740000D02*
Y895885D01*
X3289213Y480000D02*
X3312638Y456575D01*
X3539401Y653425D02*
X3545937Y659961D01*
X3495000Y800000D02*
Y853000D01*
X3612801D01*
X1210000Y30000D02*
X2668110D01*
X2755000Y116890D01*
X1084882Y155118D02*
X1210000Y30000D01*
X800378Y669071D02*
Y740000D01*
X3305157Y1168307D02*
X3370000Y1233150D01*
X1426535Y604571D02*
X1428500Y606535D01*
X881811Y1180000D02*
X1220906Y840905D01*
X4195793Y756850D02*
X4198694Y753949D01*
X3810000Y1142643D02*
X4195793Y756850D01*
X1929075Y175610D02*
X2000000Y246535D01*
X1929075Y175610D02*
X1929075Y175610D01*
X1357106Y122894D02*
X1420000Y60000D01*
X1813810Y68416D02*
X1816516D01*
X1805394Y60000D02*
X1813810Y68416D01*
X1420000Y60000D02*
X1805394D01*
X710000Y1650000D02*
Y1654528D01*
X3810000Y1142643D02*
Y1670000D01*
X1298974Y1321299D02*
Y1345671D01*
Y1289199D02*
Y1321299D01*
Y1289199D02*
X1370938Y1217235D01*
X1102631Y1542014D02*
X1298974Y1345671D01*
X867704Y1542014D02*
X1102631D01*
X668091Y1741627D02*
X867704Y1542014D01*
X1395000Y509764D02*
Y614000D01*
X794953Y1180000D02*
X881811D01*
X741000Y1121000D02*
X888000D01*
X1395000Y614000D01*
X279232Y1654941D02*
X376772Y1752480D01*
X181693Y1557402D02*
X279232Y1654941D01*
Y1651261D02*
X305842Y1624651D01*
X279232Y1651261D02*
Y1654941D01*
X376772Y1752480D02*
X380000D01*
X2133544Y1800000D02*
X2300000D01*
X2052835Y1719291D02*
X2133544Y1800000D01*
X1816880Y68781D02*
X1923710Y175610D01*
X1929075D01*
X2672500Y420000D02*
X2755000D01*
X2635630Y456870D02*
X2672500Y420000D01*
X2755000Y116890D02*
Y420000D01*
X2635630Y456870D02*
Y989095D01*
X1084882Y155118D02*
Y279803D01*
X2635630Y989095D02*
X2786535Y1140000D01*
X2335630Y395630D02*
X2480000Y540000D01*
X2335630Y335000D02*
Y395630D01*
X2269693Y134315D02*
X2342244Y206866D01*
X2335630Y335000D02*
X2342244Y328386D01*
Y206866D02*
Y328386D01*
X2770000Y1156535D02*
Y1233150D01*
Y1156535D02*
X2786535Y1140000D01*
X2480000Y540000D02*
Y745000D01*
X1929075Y175610D02*
X1970370Y134315D01*
X2269693D01*
X2000000Y246535D02*
X2000630Y247165D01*
X2065000D01*
X1357106Y286614D02*
X1426535D01*
X1287677D02*
X1357106D01*
Y122894D02*
Y286614D01*
X740000Y1040000D02*
X860000D01*
X923957Y928798D02*
X1280000Y572756D01*
X747361Y928798D02*
X923957D01*
X1318268Y460000D02*
Y581732D01*
X1426535Y286614D02*
X1496614D01*
X1426535D02*
Y604571D01*
X940000Y960000D02*
X1318268Y581732D01*
X760000Y960000D02*
X940000D01*
X1496614Y286614D02*
X1505000Y295000D01*
X1280866Y279803D02*
X1287677Y286614D01*
X940000Y424685D02*
Y680000D01*
X1084882Y279803D02*
X1190315D01*
X940000Y424685D02*
X1084882Y279803D01*
X798465Y740000D02*
X800378D01*
X880000D02*
X940000Y680000D01*
X800378Y740000D02*
X880000D01*
X518080Y1201920D02*
X760000Y960000D01*
X380000Y1400000D02*
X740000Y1040000D01*
X518080Y1201920D02*
Y1218080D01*
X498080Y1178080D02*
X747361Y928798D01*
X800378Y669071D02*
X808032Y661417D01*
X798465Y897798D02*
X800378Y895885D01*
X798465Y810000D02*
Y897798D01*
X380000Y1400000D02*
Y1516260D01*
X571693Y1403260D02*
X794953Y1180000D01*
X634685Y1520000D02*
X658307Y1543622D01*
X462480Y1520000D02*
X634685D01*
X458740Y1516260D02*
X462480Y1520000D01*
X458740Y1403260D02*
Y1516260D01*
Y1403260D02*
X741000Y1121000D01*
X407000Y2082574D02*
X795768Y1693806D01*
X1262099D02*
X1420906Y1535000D01*
X795768Y1693806D02*
X1262099D01*
X437000Y2095000D02*
X795768Y1736233D01*
X1289673D01*
X1420906Y1605000D01*
X301969Y1516260D02*
X380000D01*
X268307Y1482598D02*
X301969Y1516260D01*
X374000Y1589000D02*
X380000Y1595000D01*
X299906Y1589000D02*
X374000D01*
X268307Y1557402D02*
X299906Y1589000D01*
X437000Y2948598D02*
X463402Y2975000D01*
X437000Y2095000D02*
Y2948598D01*
X407000Y2082574D02*
Y2944598D01*
X376598Y2975000D02*
X407000Y2944598D01*
X1495000Y3078465D02*
Y3170000D01*
X458740Y1595000D02*
X467711D01*
X475112Y1587598D02*
X571693D01*
X467711Y1595000D02*
X475112Y1587598D01*
X510000Y1662402D02*
X571693D01*
X458740Y1673740D02*
X498661D01*
X510000Y1662402D01*
X658307Y1543622D02*
Y1587598D01*
X3544810Y2450000D02*
X3660000D01*
X3542209Y2452601D02*
X3544810Y2450000D01*
X3271850Y4160000D02*
X3635000D01*
X3266850Y4165000D02*
X3271850Y4160000D01*
X3266850Y1835000D02*
X3584291D01*
X3305157Y1111693D02*
Y1168307D01*
Y1111693D02*
X3306850Y1110000D01*
X3170000Y1233150D02*
X3173386D01*
X3236535Y1170000D01*
X3228189Y430000D02*
X3284500D01*
X3285000Y430500D01*
X3228189Y580000D02*
X3285000D01*
X3228189Y480000D02*
X3289213D01*
X3345000Y527598D02*
X3352531Y535130D01*
X3434882D01*
X3342599Y530000D02*
X3345000Y527598D01*
X3228189Y530000D02*
X3342599D01*
D39*
X2339755Y90000D02*
X2406083D01*
X1495000Y831055D02*
Y835890D01*
X1472189Y858701D02*
Y1011352D01*
Y858701D02*
X1495000Y835890D01*
X1769433Y1326693D02*
Y1370000D01*
X1745000Y1275039D02*
X1751252Y1281291D01*
Y1308512D01*
X1769433Y1326693D01*
X1484335Y1610532D02*
X1584370D01*
X2195630Y186997D02*
Y246536D01*
X2185000Y176368D02*
X2195630Y186997D01*
X2185000Y175000D02*
Y176368D01*
X1891653Y1450000D02*
X1936157D01*
X2065000Y370000D02*
Y1321157D01*
X1936157Y1450000D02*
X2065000Y1321157D01*
X1852110Y1401866D02*
X2044252Y1209724D01*
Y424425D02*
Y1209724D01*
X1852110Y1401866D02*
Y1477189D01*
X1395000Y1275039D02*
Y1318790D01*
X1374765Y1339025D02*
Y1397860D01*
Y1339025D02*
X1395000Y1318790D01*
X1269055Y78307D02*
Y132401D01*
X2690000Y475000D02*
X2695412D01*
X2700412Y480000D02*
X2851811D01*
X2695412Y475000D02*
X2700412Y480000D01*
X2767627Y430000D02*
X2851811D01*
X2757627Y420000D02*
X2767627Y430000D01*
X2755000Y420000D02*
X2757627D01*
X1496437Y1543602D02*
X1584370D01*
X1487835Y1535000D02*
X1496437Y1543602D01*
X1370938Y1207433D02*
X1374765Y1203606D01*
X1370938Y1207433D02*
Y1217235D01*
X1374765Y1201553D02*
Y1203606D01*
X1356811Y900000D02*
X1364478Y907667D01*
X1199232Y1150768D02*
Y1373642D01*
X1198465Y1374409D02*
X1199232Y1373642D01*
Y1150768D02*
X1290000Y1060000D01*
X1519370Y1484094D02*
X1526811Y1476654D01*
X1574370D01*
X1597716Y1500000D01*
X1677087D01*
X1605000Y295000D02*
X1776965Y466965D01*
Y761965D02*
X1865000Y850000D01*
X1776965Y466965D02*
Y761965D01*
X1757454Y475919D02*
Y765082D01*
X1656535Y375000D02*
X1757454Y475919D01*
Y765082D02*
X1877373Y885000D01*
X2690000Y528465D02*
X2691535Y530000D01*
X2851811D01*
X2755000Y580000D02*
X2851811D01*
X2092500Y200000D02*
Y200295D01*
X2138740Y246536D01*
Y314094D02*
Y698740D01*
X1949628Y684864D02*
X2012756Y747992D01*
X2170236Y668051D02*
Y735748D01*
Y668051D02*
X2195630Y642657D01*
X2065000Y314094D02*
Y370000D01*
X2003827Y384000D02*
X2044252Y424425D01*
X2195630Y320104D02*
Y642657D01*
X1645000Y730236D02*
Y904961D01*
X1695000Y483764D02*
Y904961D01*
X1356811Y900000D02*
Y1183599D01*
X1374765Y1201553D01*
X1997429Y656035D02*
X2000000Y653465D01*
X1975000Y656035D02*
X1997429D01*
X1998465Y588071D02*
X2000000Y586535D01*
X1975000Y588071D02*
X1998465D01*
X2012756Y747992D02*
Y1183898D01*
X1920000Y1276653D02*
X2012756Y1183898D01*
X1877373Y885000D02*
X1945670D01*
X1865000Y850000D02*
X1976370D01*
X1235591Y236544D02*
X1241448Y242401D01*
X1235591Y165866D02*
Y236544D01*
Y165866D02*
X1269055Y132401D01*
X1241448Y242401D02*
X1280866D01*
X2000000Y370000D02*
X2003827Y373827D01*
X1892677Y360000D02*
Y427411D01*
X1572189Y1203606D02*
Y1407543D01*
X1574370Y1409725D01*
X1614646Y1450000D01*
X1677087D01*
X1874921Y1500000D02*
X1891653D01*
X1852110Y1477189D02*
X1874921Y1500000D01*
X2003827Y373827D02*
Y384000D01*
X1795000Y1249449D02*
Y1275039D01*
X1799882Y1203606D02*
X1802417Y1206142D01*
X1863110D01*
X1674945Y1338504D02*
Y1370000D01*
Y1338504D02*
X1695000Y1318449D01*
Y1275039D02*
Y1318449D01*
X1861142Y1275039D02*
X1863110Y1273071D01*
X1795000Y1275039D02*
X1861142D01*
X1367184Y904961D02*
X1395000D01*
X1362223Y900000D02*
X1367184Y904961D01*
X1356811Y900000D02*
X1362223D01*
X1472189Y1011352D02*
X1495000Y1034163D01*
X1530000Y1046535D02*
X1887919D01*
X1495000Y1011535D02*
X1530000Y1046535D01*
X1495000Y904961D02*
Y1011535D01*
X1445000Y875740D02*
Y904961D01*
X1420000Y850740D02*
X1445000Y875740D01*
X1420000Y847111D02*
Y850740D01*
X1495000Y1034163D02*
Y1275039D01*
X1545000Y904961D02*
Y971535D01*
X1595000Y904961D02*
Y997535D01*
X1202126Y132401D02*
Y152901D01*
X1190315Y205000D02*
X1202833Y192482D01*
X1202126Y152901D02*
X1202833Y153609D01*
Y192482D01*
X1903337Y505000D02*
X1943906D01*
X1949764Y510858D02*
Y531000D01*
X1943906Y505000D02*
X1949764Y510858D01*
X1892677Y494340D02*
X1903337Y505000D01*
X1835000Y336858D02*
Y730236D01*
X1741607Y243465D02*
X1835000Y336858D01*
X1553465Y312004D02*
X1616461Y375000D01*
X1656535D01*
X1315000Y1442465D02*
Y1557599D01*
Y1442465D02*
X1332465Y1425000D01*
X1407594D01*
X1445000Y1387594D01*
Y1275039D02*
Y1387594D01*
X2000000Y313464D02*
Y370000D01*
X1553465Y243465D02*
Y312004D01*
X1505000Y195000D02*
X1553465Y243465D01*
X1605000Y195000D02*
X1653465Y243465D01*
X1741607D01*
X1584370Y1545571D02*
X1603799Y1565000D01*
X1891653Y1550000D02*
X1965905D01*
X1891653Y1600000D02*
X1951037D01*
X1660354Y1550000D02*
X1677087D01*
X1599055Y1593878D02*
X1601024D01*
X1584370Y1608563D02*
X1599055Y1593878D01*
X1660354Y1600000D02*
X1677087D01*
X1601024Y1593878D02*
X1607834Y1587067D01*
X1653543Y1556811D02*
Y1559142D01*
X1647685Y1565000D02*
X1653543Y1559142D01*
Y1556811D02*
X1660354Y1550000D01*
X1980905Y1501667D02*
Y1535000D01*
X1965905Y1550000D02*
X1980905Y1535000D01*
X1979370Y1628333D02*
X1980906D01*
X1951037Y1600000D02*
X1979370Y1628333D01*
X1653543Y1592925D02*
Y1593189D01*
X1660354Y1600000D01*
X1647685Y1587067D02*
X1653543Y1592925D01*
X1607834Y1587067D02*
X1647685D01*
X1603799Y1565000D02*
X1647685D01*
D40*
X5158394Y1008732D02*
X5480000D01*
X4671299Y1102126D02*
Y1448976D01*
X4897323Y1675000D01*
X4594449Y290000D02*
X4671299Y366850D01*
Y610000D01*
X5065000Y1102126D02*
X5158394Y1008732D01*
X5065000Y410000D02*
X5185000Y290000D01*
X5065000Y410000D02*
Y610000D01*
D41*
X3495000Y853000D02*
Y860512D01*
X410000Y644000D02*
X588000D01*
X606000Y662000D01*
X607000Y661000D01*
X3309370Y604370D02*
X3345000D01*
X70000Y1439488D02*
Y1607756D01*
Y1400000D02*
Y1439488D01*
X140472Y1678228D02*
X170000D01*
X70000Y1607756D02*
X140472Y1678228D01*
X170000Y1831772D02*
X380000Y1831220D01*
X3236535Y1118976D02*
X3495000Y860512D01*
X3236535Y1118976D02*
Y1170000D01*
X3285000Y580000D02*
X3309370Y604370D01*
X3464598Y653425D02*
Y769598D01*
X3495000Y800000D01*
X3396024Y653425D02*
X3464598D01*
X3345000Y602402D02*
X3396024Y653425D01*
D42*
X4309289Y1850000D02*
X4965432Y2506143D01*
X4220000Y1850000D02*
X4309289D01*
X4220000Y4157500D02*
X4221913Y4155587D01*
X4369413D01*
X4980403Y3544597D01*
D50*
X100000Y3058561D02*
D03*
Y3449112D02*
D03*
X233858Y3058561D02*
D03*
Y3449112D02*
D03*
D51*
X3622000Y755000D02*
D03*
X3722000Y655000D02*
D03*
X3622000Y555000D02*
D03*
D52*
X1705000Y295000D02*
D03*
D53*
Y195000D02*
D03*
X1605000Y295000D02*
D03*
Y195000D02*
D03*
X1505000Y295000D02*
D03*
Y195000D02*
D03*
D54*
X3542209Y2452601D02*
D03*
D55*
X5050000Y2520000D02*
D03*
Y3475000D02*
D03*
X2660000Y3300000D02*
D03*
Y2690000D02*
D03*
D56*
X3613000Y945000D02*
D03*
X3995000Y838000D02*
D03*
X808032Y661417D02*
D03*
X708032D02*
D03*
D57*
X4365004Y155000D02*
D03*
X5407004Y125000D02*
D03*
D58*
X4190000Y155000D02*
D03*
X5582008Y125000D02*
D03*
D59*
X4027008Y155000D02*
D03*
X5745000Y125000D02*
D03*
D60*
X753000Y2516405D02*
D03*
D61*
Y2204595D02*
D03*
D62*
X155000Y2065000D02*
D03*
Y2656000D02*
D03*
D63*
X2335630Y335000D02*
D03*
X2535630D02*
D03*
X2435630D02*
D03*
X5065000Y1102126D02*
D03*
Y610000D02*
D03*
X4671299Y1102126D02*
D03*
Y610000D02*
D03*
D64*
X2635630Y335000D02*
D03*
D65*
X608032Y661417D02*
D03*
D66*
X3545000Y1535000D02*
D03*
X5835000Y460000D02*
D03*
X5940000Y4085000D02*
D03*
D67*
X458740Y1752480D02*
D03*
Y1673740D02*
D03*
X380000Y1752480D02*
D03*
Y1831220D02*
D03*
Y1673740D02*
D03*
X458740Y1516260D02*
D03*
Y1595000D02*
D03*
X380000Y1516260D02*
D03*
Y1595000D02*
D03*
D68*
X458740Y1831220D02*
D03*
D69*
X1495000Y3170000D02*
D03*
Y3270000D02*
D03*
X2300000Y1800000D02*
D03*
X5480000Y1110000D02*
D03*
Y1010000D02*
D03*
D70*
X3370000Y1233150D02*
D03*
X2870000D02*
D03*
X3170000D02*
D03*
X2585669Y1879213D02*
D03*
D71*
X2770000Y1233150D02*
D03*
D72*
X2000000Y3160276D02*
D03*
X1430000Y2685276D02*
D03*
X1200000Y3185000D02*
D03*
D73*
X2000000Y2865000D02*
D03*
X1430000Y2390000D02*
D03*
D74*
X535000Y3448150D02*
D03*
D75*
Y3645000D02*
D03*
D76*
X5145000Y2200000D02*
D03*
X5945394D02*
D03*
D77*
X245000Y220000D02*
D03*
Y4085000D02*
D03*
D78*
X2300000Y1878740D02*
D03*
D79*
X3887000Y470575D02*
D03*
D80*
Y667425D02*
D03*
Y569000D02*
D03*
D81*
X4594449Y290000D02*
D03*
X5185000D02*
D03*
D82*
X5980000Y1675000D02*
D03*
X4897323D02*
D03*
D83*
X3256850Y1830000D02*
D03*
X2863150D02*
D03*
X4195793Y363150D02*
D03*
Y756850D02*
D03*
X4220000Y4157500D02*
D03*
X3826299D02*
D03*
X3266850Y4165000D02*
D03*
X2873150D02*
D03*
X5475000Y731850D02*
D03*
Y338150D02*
D03*
X4226850Y1840000D02*
D03*
X3833150D02*
D03*
D84*
X2585669Y1780787D02*
D03*
D85*
X1921701Y4208000D02*
D03*
X1528000D02*
D03*
D86*
X904724Y3185000D02*
D03*
D87*
X1950000Y2670000D02*
D03*
X2350000D02*
D03*
X2400000Y2570000D02*
D03*
X2000000Y2770000D02*
D03*
X2550000Y2470000D02*
D03*
X2650000D02*
D03*
X2150000D02*
D03*
X2500000Y2770000D02*
D03*
Y2570000D02*
D03*
X2250000Y2670000D02*
D03*
X2200000Y2570000D02*
D03*
X2100000Y2770000D02*
D03*
X2300000D02*
D03*
X2100000Y2570000D02*
D03*
X2350000Y2470000D02*
D03*
X2150000Y2670000D02*
D03*
X2300000Y2570000D02*
D03*
X2400000Y2770000D02*
D03*
X2800000Y2570000D02*
D03*
X2000000D02*
D03*
X2450000Y2670000D02*
D03*
X2800000Y2770000D02*
D03*
X2450000Y2470000D02*
D03*
X2750000D02*
D03*
X2050000Y2670000D02*
D03*
Y2470000D02*
D03*
X1950000D02*
D03*
X2250000D02*
D03*
X2200000Y2770000D02*
D03*
X931000Y1007000D02*
D03*
X907000Y805000D02*
D03*
X3545118Y456575D02*
D03*
X2339755Y90000D02*
D03*
X456000Y645000D02*
D03*
X410000Y644000D02*
D03*
X2830000Y220000D02*
D03*
X2750000Y1620000D02*
D03*
X2825000Y1470000D02*
D03*
X2750000Y1320000D02*
D03*
X2600000D02*
D03*
X2675000Y1170000D02*
D03*
X2600000Y1020000D02*
D03*
Y720000D02*
D03*
X2675000Y570000D02*
D03*
X2600000Y420000D02*
D03*
X2675000Y270000D02*
D03*
X2525000Y1170000D02*
D03*
X2450000Y1020000D02*
D03*
X2525000Y870000D02*
D03*
Y570000D02*
D03*
X2450000Y420000D02*
D03*
X2300000Y1620000D02*
D03*
Y1320000D02*
D03*
X2375000Y1170000D02*
D03*
X2300000Y1020000D02*
D03*
X2375000Y870000D02*
D03*
X2225000Y1470000D02*
D03*
X2150000Y1320000D02*
D03*
X2225000Y1170000D02*
D03*
X2150000Y1020000D02*
D03*
X1925000Y1170000D02*
D03*
Y270000D02*
D03*
X1775000Y1170000D02*
D03*
X1700000Y120000D02*
D03*
X1625000Y1170000D02*
D03*
X1550000Y1020000D02*
D03*
Y720000D02*
D03*
Y120000D02*
D03*
X1475000Y1470000D02*
D03*
X1400000Y720000D02*
D03*
X1250000Y1620000D02*
D03*
X1325000Y1170000D02*
D03*
X1250000Y1020000D02*
D03*
X1325000Y870000D02*
D03*
X1100000Y1020000D02*
D03*
X1025000Y1470000D02*
D03*
Y1170000D02*
D03*
Y270000D02*
D03*
X950000Y120000D02*
D03*
X875000Y1470000D02*
D03*
Y570000D02*
D03*
Y270000D02*
D03*
X800000Y120000D02*
D03*
X725000Y1470000D02*
D03*
Y870000D02*
D03*
Y570000D02*
D03*
Y270000D02*
D03*
X500000Y1020000D02*
D03*
X575000Y870000D02*
D03*
Y570000D02*
D03*
Y270000D02*
D03*
X500000Y120000D02*
D03*
X425000Y1170000D02*
D03*
X350000Y1020000D02*
D03*
X425000Y870000D02*
D03*
Y570000D02*
D03*
Y270000D02*
D03*
X275000Y570000D02*
D03*
X200000Y420000D02*
D03*
X125000Y1470000D02*
D03*
X50000Y1020000D02*
D03*
X125000Y570000D02*
D03*
X50000Y420000D02*
D03*
X2253409Y362755D02*
D03*
X1445000Y2065000D02*
D03*
Y1865000D02*
D03*
X1395000Y2165000D02*
D03*
X1345000Y2065000D02*
D03*
X1395000Y1965000D02*
D03*
X1345000Y1865000D02*
D03*
X1295000Y2165000D02*
D03*
X1245000Y2065000D02*
D03*
X1295000Y1965000D02*
D03*
X1245000Y1865000D02*
D03*
X1195000Y2165000D02*
D03*
X1145000Y2065000D02*
D03*
X1195000Y1965000D02*
D03*
X1145000Y1865000D02*
D03*
X1095000Y2165000D02*
D03*
X1045000Y2065000D02*
D03*
X1095000Y1965000D02*
D03*
X1045000Y1865000D02*
D03*
X995000Y2165000D02*
D03*
X945000Y2065000D02*
D03*
X995000Y1965000D02*
D03*
X945000Y1865000D02*
D03*
X895000Y2165000D02*
D03*
X845000Y2065000D02*
D03*
X895000Y1965000D02*
D03*
X745000Y2065000D02*
D03*
X795000Y1965000D02*
D03*
X645000Y2065000D02*
D03*
X695000Y1965000D02*
D03*
X595000Y2165000D02*
D03*
X495000D02*
D03*
X345000Y2265000D02*
D03*
X245000Y2465000D02*
D03*
X295000Y2365000D02*
D03*
Y2165000D02*
D03*
X145000Y2465000D02*
D03*
X195000Y2365000D02*
D03*
X45000Y2465000D02*
D03*
X95000Y2365000D02*
D03*
X1000000Y3070000D02*
D03*
X950000Y2970000D02*
D03*
X1000000Y2870000D02*
D03*
X950000Y2770000D02*
D03*
X1000000Y2670000D02*
D03*
X950000Y2570000D02*
D03*
X1000000Y2470000D02*
D03*
X950000Y2370000D02*
D03*
X900000Y3070000D02*
D03*
X850000Y2970000D02*
D03*
X900000Y2870000D02*
D03*
X850000Y2770000D02*
D03*
X900000Y2670000D02*
D03*
Y2470000D02*
D03*
X850000Y2370000D02*
D03*
X800000Y3070000D02*
D03*
X750000Y2970000D02*
D03*
X800000Y2870000D02*
D03*
X750000Y2770000D02*
D03*
X800000Y2670000D02*
D03*
X750000Y2370000D02*
D03*
X700000Y3070000D02*
D03*
X650000Y2970000D02*
D03*
X700000Y2870000D02*
D03*
X650000Y2770000D02*
D03*
X700000Y2670000D02*
D03*
X650000Y2370000D02*
D03*
X600000Y3070000D02*
D03*
X550000Y2970000D02*
D03*
X600000Y2870000D02*
D03*
X550000Y2770000D02*
D03*
X600000Y2670000D02*
D03*
X550000Y2570000D02*
D03*
Y2370000D02*
D03*
X500000Y2870000D02*
D03*
Y2670000D02*
D03*
Y2470000D02*
D03*
X2419298Y733071D02*
D03*
X1930039Y1365000D02*
D03*
X1269055Y78307D02*
D03*
X971575Y1472599D02*
D03*
X1318268Y460000D02*
D03*
X1134213Y236544D02*
D03*
X1374765Y1397860D02*
D03*
X1298974Y1321299D02*
D03*
X1198465Y1374409D02*
D03*
X929429Y1326535D02*
D03*
X668091Y1741627D02*
D03*
X305842Y1624651D02*
D03*
X2052835Y1719291D02*
D03*
X1800000Y361026D02*
D03*
X1816516Y68416D02*
D03*
X2690000Y475000D02*
D03*
Y528465D02*
D03*
X2755000Y580000D02*
D03*
X2480000Y745000D02*
D03*
X2380000Y585500D02*
D03*
X2185000Y175000D02*
D03*
X1892677Y360000D02*
D03*
X2092500Y200000D02*
D03*
X1655500Y606535D02*
D03*
X1949628Y684864D02*
D03*
X2138740Y698740D02*
D03*
X2170236Y735748D02*
D03*
X860000Y1040000D02*
D03*
X1280000Y572756D02*
D03*
X1220000Y840000D02*
D03*
X1645000Y730236D02*
D03*
X1695000Y483764D02*
D03*
X1395000Y509764D02*
D03*
X1356811Y900000D02*
D03*
X1428500Y605535D02*
D03*
X1945670Y885000D02*
D03*
X1976370Y850000D02*
D03*
X1920000Y1276653D02*
D03*
X2000000Y370000D02*
D03*
X498080Y1178080D02*
D03*
X798465Y897798D02*
D03*
X1572189Y1203606D02*
D03*
X1799882D02*
D03*
X1374765D02*
D03*
X1887919Y1046535D02*
D03*
X1420000Y847111D02*
D03*
X1290000Y1060000D02*
D03*
X1495000Y831055D02*
D03*
X1545000Y971535D02*
D03*
X1595000Y997535D02*
D03*
X518080Y1218080D02*
D03*
X571693Y1403260D02*
D03*
X1975000Y588071D02*
D03*
Y656035D02*
D03*
X1949764Y531000D02*
D03*
X1315000Y1557599D02*
D03*
X2065000Y370000D02*
D03*
X1835000Y730236D02*
D03*
X2755000Y420000D02*
D03*
X305000Y1880000D02*
D03*
Y1909961D02*
D03*
X1028465Y1632599D02*
D03*
X70000Y1400000D02*
D03*
Y1439488D02*
D03*
X463402Y2975000D02*
D03*
X376598D02*
D03*
X670000Y3910591D02*
D03*
Y3830000D02*
D03*
X1386000Y3905000D02*
D03*
Y3820000D02*
D03*
X3495000Y800000D02*
D03*
X3306850Y1110000D02*
D03*
X3285000Y430500D02*
D03*
Y580000D02*
D03*
X1980905Y1501667D02*
D03*
X1980906Y1628333D02*
D03*
D88*
X2729597Y3230403D02*
D03*
X2758425Y3300000D02*
D03*
X2660000Y3201575D02*
D03*
X2590403Y3369597D02*
D03*
X2561575Y3300000D02*
D03*
X2660000Y3398425D02*
D03*
X2590403Y3230403D02*
D03*
X2729597Y3369597D02*
D03*
Y2620403D02*
D03*
X2758425Y2690000D02*
D03*
X2660000Y2591575D02*
D03*
X2590403Y2759597D02*
D03*
X2561575Y2690000D02*
D03*
X2660000Y2788425D02*
D03*
X2590403Y2620403D02*
D03*
X2729597Y2759597D02*
D03*
X5119597Y3405403D02*
D03*
X5148425Y3475000D02*
D03*
X5050000Y3376575D02*
D03*
X4980403Y3544597D02*
D03*
X4951575Y3475000D02*
D03*
X5050000Y3573425D02*
D03*
X4980403Y3405403D02*
D03*
X5119597Y3544597D02*
D03*
Y2450403D02*
D03*
X5148425Y2520000D02*
D03*
X5050000Y2421575D02*
D03*
X4980403Y2589597D02*
D03*
X4951575Y2520000D02*
D03*
X5050000Y2618425D02*
D03*
X4980403Y2450403D02*
D03*
X5119597Y2589597D02*
D03*
D89*
X3228189Y430000D02*
D03*
Y480000D02*
D03*
Y530000D02*
D03*
Y580000D02*
D03*
X2851811D02*
D03*
Y530000D02*
D03*
Y480000D02*
D03*
Y430000D02*
D03*
D90*
X1395000Y1275039D02*
D03*
X1445000D02*
D03*
X1495000D02*
D03*
X1545000D02*
D03*
X1595000D02*
D03*
X1645000D02*
D03*
X1695000D02*
D03*
X1745000D02*
D03*
X1795000D02*
D03*
X1395000Y904961D02*
D03*
X1445000D02*
D03*
X1495000D02*
D03*
X1545000D02*
D03*
X1595000D02*
D03*
X1645000D02*
D03*
X1695000D02*
D03*
X1745000D02*
D03*
X1795000D02*
D03*
D91*
X1769433Y1370000D02*
D03*
X1722189D02*
D03*
X1674945D02*
D03*
D92*
X1280866Y279803D02*
D03*
Y242401D02*
D03*
Y205000D02*
D03*
X1190315D02*
D03*
Y279803D02*
D03*
D93*
X3545118Y535130D02*
D03*
X3434882D02*
D03*
D94*
X170000Y1831772D02*
D03*
Y1678228D02*
D03*
D95*
X658307Y1654528D02*
D03*
X181693Y1490472D02*
D03*
D96*
X658307Y1587598D02*
D03*
X571693Y1662402D02*
D03*
Y1587598D02*
D03*
X268307Y1482598D02*
D03*
Y1557402D02*
D03*
X181693D02*
D03*
D97*
X1891653Y1600000D02*
D03*
Y1550000D02*
D03*
Y1500000D02*
D03*
Y1450000D02*
D03*
X1677087Y1600000D02*
D03*
Y1500000D02*
D03*
Y1550000D02*
D03*
Y1450000D02*
D03*
D98*
X305000Y1890000D02*
D03*
D99*
Y1970000D02*
D03*
D100*
Y2035000D02*
D03*
D101*
X311654Y2155000D02*
D03*
D102*
X3317681Y587500D02*
D03*
%TF.MD5,fe168a77bcc67b364a382e37a6fa539f*%
M02*
