G04*
G04 #@! TF.GenerationSoftware,Altium Limited,Altium Designer,20.0.13 (296)*
G04*
G04 Layer_Color=16711935*
%FSTAX25Y25*%
%MOIN*%
G70*
G01*
G75*
%ADD58R,0.04800X0.04400*%
%ADD59R,0.04400X0.04800*%
%ADD60R,0.05618X0.06406*%
%ADD61R,0.06406X0.05618*%
%ADD63R,0.04831X0.04437*%
%ADD64R,0.04437X0.04831*%
%ADD78O,0.07500X0.10500*%
%ADD79C,0.06366*%
%ADD80R,0.07193X0.07193*%
%ADD81C,0.07193*%
%ADD82C,0.05500*%
%ADD83C,0.27272*%
%ADD84C,0.06602*%
%ADD85C,0.13800*%
%ADD86C,0.10000*%
%ADD87R,0.10000X0.10000*%
%ADD88R,0.12500X0.12500*%
%ADD89C,0.12500*%
%ADD90C,0.06800*%
%ADD91C,0.08374*%
%ADD92R,0.08374X0.08374*%
%ADD93R,0.06602X0.06602*%
%ADD94C,0.30000*%
%ADD95C,0.05815*%
%ADD96R,0.05815X0.05815*%
%ADD97C,0.05224*%
%ADD98C,0.06437*%
%ADD99R,0.06437X0.06437*%
%ADD100C,0.06406*%
%ADD101R,0.06406X0.06406*%
%ADD102R,0.05618X0.05618*%
%ADD103C,0.05618*%
%ADD104C,0.05000*%
%ADD105C,0.30500*%
%ADD106R,0.05224X0.05224*%
%ADD107R,0.06760X0.06760*%
%ADD108C,0.06760*%
%ADD109C,0.06012*%
%ADD110O,0.08500X0.10000*%
%ADD111C,0.06500*%
%ADD112R,0.06437X0.06437*%
%ADD113C,0.09949*%
%ADD114R,0.06406X0.06406*%
G04:AMPARAMS|DCode=174|XSize=70.4mil|YSize=28.5mil|CornerRadius=8.38mil|HoleSize=0mil|Usage=FLASHONLY|Rotation=0.000|XOffset=0mil|YOffset=0mil|HoleType=Round|Shape=RoundedRectangle|*
%AMROUNDEDRECTD174*
21,1,0.07040,0.01175,0,0,0.0*
21,1,0.05365,0.02850,0,0,0.0*
1,1,0.01675,0.02683,-0.00588*
1,1,0.01675,-0.02683,-0.00588*
1,1,0.01675,-0.02683,0.00588*
1,1,0.01675,0.02683,0.00588*
%
%ADD174ROUNDEDRECTD174*%
G04:AMPARAMS|DCode=175|XSize=28.62mil|YSize=79.8mil|CornerRadius=8.41mil|HoleSize=0mil|Usage=FLASHONLY|Rotation=180.000|XOffset=0mil|YOffset=0mil|HoleType=Round|Shape=RoundedRectangle|*
%AMROUNDEDRECTD175*
21,1,0.02862,0.06299,0,0,180.0*
21,1,0.01181,0.07980,0,0,180.0*
1,1,0.01681,-0.00591,0.03150*
1,1,0.01681,0.00591,0.03150*
1,1,0.01681,0.00591,-0.03150*
1,1,0.01681,-0.00591,-0.03150*
%
%ADD175ROUNDEDRECTD175*%
G04:AMPARAMS|DCode=176|XSize=20.75mil|YSize=83.74mil|CornerRadius=6.44mil|HoleSize=0mil|Usage=FLASHONLY|Rotation=180.000|XOffset=0mil|YOffset=0mil|HoleType=Round|Shape=RoundedRectangle|*
%AMROUNDEDRECTD176*
21,1,0.02075,0.07087,0,0,180.0*
21,1,0.00787,0.08374,0,0,180.0*
1,1,0.01287,-0.00394,0.03543*
1,1,0.01287,0.00394,0.03543*
1,1,0.01287,0.00394,-0.03543*
1,1,0.01287,-0.00394,-0.03543*
%
%ADD176ROUNDEDRECTD176*%
G04:AMPARAMS|DCode=177|XSize=28.62mil|YSize=52.24mil|CornerRadius=8.41mil|HoleSize=0mil|Usage=FLASHONLY|Rotation=90.000|XOffset=0mil|YOffset=0mil|HoleType=Round|Shape=RoundedRectangle|*
%AMROUNDEDRECTD177*
21,1,0.02862,0.03543,0,0,90.0*
21,1,0.01181,0.05224,0,0,90.0*
1,1,0.01681,0.01772,0.00591*
1,1,0.01681,0.01772,-0.00591*
1,1,0.01681,-0.01772,-0.00591*
1,1,0.01681,-0.01772,0.00591*
%
%ADD177ROUNDEDRECTD177*%
%ADD178R,0.06799X0.07587*%
%ADD179R,0.13886X0.07980*%
%ADD180R,0.05618X0.04831*%
%ADD181R,0.05618X0.04043*%
G04:AMPARAMS|DCode=182|XSize=28.62mil|YSize=62.09mil|CornerRadius=4.51mil|HoleSize=0mil|Usage=FLASHONLY|Rotation=90.000|XOffset=0mil|YOffset=0mil|HoleType=Round|Shape=RoundedRectangle|*
%AMROUNDEDRECTD182*
21,1,0.02862,0.05307,0,0,90.0*
21,1,0.01961,0.06209,0,0,90.0*
1,1,0.00902,0.02653,0.00980*
1,1,0.00902,0.02653,-0.00980*
1,1,0.00902,-0.02653,-0.00980*
1,1,0.00902,-0.02653,0.00980*
%
%ADD182ROUNDEDRECTD182*%
D58*
X0376003Y00853D02*
D03*
X0382696D02*
D03*
X0126906Y001324D02*
D03*
X0120213D02*
D03*
X0142091Y01535D02*
D03*
X0148784D02*
D03*
X0142091Y01605D02*
D03*
X0148784D02*
D03*
X0361554Y00853D02*
D03*
X0368247D02*
D03*
D59*
X02065Y0031409D02*
D03*
Y0024716D02*
D03*
X02Y0031346D02*
D03*
Y0024654D02*
D03*
X0189268Y0042741D02*
D03*
Y0049434D02*
D03*
X0213874Y0024654D02*
D03*
Y0031346D02*
D03*
X0219563Y0024654D02*
D03*
Y0031346D02*
D03*
X039Y00852D02*
D03*
Y0078507D02*
D03*
X01495Y0301153D02*
D03*
Y0307846D02*
D03*
D60*
X035394Y0065342D02*
D03*
X034646D02*
D03*
D61*
X03345Y005276D02*
D03*
Y006024D02*
D03*
D63*
X0079847Y0074D02*
D03*
X0073154D02*
D03*
X0079847Y0081D02*
D03*
X0073154D02*
D03*
X0240608Y0009D02*
D03*
X0247301D02*
D03*
X0278654Y0114D02*
D03*
X0285347D02*
D03*
X0330346Y0117D02*
D03*
X0323654D02*
D03*
D64*
X00531Y0065053D02*
D03*
Y0071746D02*
D03*
X0186311Y0120614D02*
D03*
Y0127307D02*
D03*
X02Y0065346D02*
D03*
Y0058653D02*
D03*
X0157437Y0147665D02*
D03*
Y0140972D02*
D03*
X0158437Y0161053D02*
D03*
Y015436D02*
D03*
D78*
X001Y0305856D02*
D03*
Y0344911D02*
D03*
X0023386Y0305856D02*
D03*
Y0344911D02*
D03*
D79*
X03622Y00755D02*
D03*
X03722Y00655D02*
D03*
X03622Y00555D02*
D03*
D80*
X01705Y00295D02*
D03*
D81*
Y00195D02*
D03*
X01605Y00295D02*
D03*
Y00195D02*
D03*
X01505Y00295D02*
D03*
Y00195D02*
D03*
D82*
X0354221Y024526D02*
D03*
D83*
X0505Y0252D02*
D03*
Y03475D02*
D03*
X0266Y033D02*
D03*
Y0269D02*
D03*
D84*
X03613Y00945D02*
D03*
X03995Y00838D02*
D03*
X0080803Y0066142D02*
D03*
X0070803D02*
D03*
D85*
X04365Y00155D02*
D03*
X05407Y00125D02*
D03*
D86*
X0419Y00155D02*
D03*
X0558201Y00125D02*
D03*
D87*
X0402701Y00155D02*
D03*
X05745Y00125D02*
D03*
D88*
X00753Y0251641D02*
D03*
D89*
Y022046D02*
D03*
D90*
X00155Y02065D02*
D03*
Y02656D02*
D03*
D91*
X0233563Y00335D02*
D03*
X0253563D02*
D03*
X0243563D02*
D03*
X05065Y0110213D02*
D03*
Y0061D02*
D03*
X046713Y0110213D02*
D03*
Y0061D02*
D03*
D92*
X0263563Y00335D02*
D03*
D93*
X0060803Y0066142D02*
D03*
D94*
X03545Y01535D02*
D03*
X05835Y0046D02*
D03*
X0594Y04085D02*
D03*
D95*
X0045874Y0175248D02*
D03*
Y0167374D02*
D03*
X0038Y0175248D02*
D03*
Y0183122D02*
D03*
Y0167374D02*
D03*
X0045874Y0151626D02*
D03*
Y01595D02*
D03*
X0038Y0151626D02*
D03*
Y01595D02*
D03*
D96*
X0045874Y0183122D02*
D03*
D97*
X01495Y0317D02*
D03*
Y0327D02*
D03*
X023Y018D02*
D03*
X0548Y0111D02*
D03*
Y0101D02*
D03*
D98*
X0337Y0123315D02*
D03*
X0287D02*
D03*
X0317D02*
D03*
X0258567Y0187921D02*
D03*
D99*
X0277Y0123315D02*
D03*
D100*
X02Y0316028D02*
D03*
X0143Y0268528D02*
D03*
X012Y03185D02*
D03*
D101*
X02Y02865D02*
D03*
X0143Y0239D02*
D03*
D102*
X00535Y0344815D02*
D03*
D103*
Y03645D02*
D03*
D104*
X05145Y022D02*
D03*
X0594539D02*
D03*
D105*
X00245Y0022D02*
D03*
Y04085D02*
D03*
D106*
X023Y0187874D02*
D03*
D107*
X03887Y0047058D02*
D03*
D108*
Y0066742D02*
D03*
Y00569D02*
D03*
D109*
X0459445Y0029D02*
D03*
X05185D02*
D03*
D110*
X0598Y01675D02*
D03*
X0489732D02*
D03*
D111*
X0325685Y0183D02*
D03*
X0286315D02*
D03*
X0419579Y0036315D02*
D03*
Y0075685D02*
D03*
X0422Y041575D02*
D03*
X038263D02*
D03*
X0326685Y04165D02*
D03*
X0287315D02*
D03*
X05475Y0073185D02*
D03*
Y0033815D02*
D03*
X0422685Y0184D02*
D03*
X0383315D02*
D03*
D112*
X0258567Y0178079D02*
D03*
D113*
X019217Y04208D02*
D03*
X01528D02*
D03*
D114*
X0090472Y03185D02*
D03*
D174*
X0322819Y0043D02*
D03*
Y0048D02*
D03*
Y0053D02*
D03*
Y0058D02*
D03*
X0285181D02*
D03*
Y0053D02*
D03*
Y0048D02*
D03*
Y0043D02*
D03*
D175*
X01395Y0127504D02*
D03*
X01445D02*
D03*
X01495D02*
D03*
X01545D02*
D03*
X01595D02*
D03*
X01645D02*
D03*
X01695D02*
D03*
X01745D02*
D03*
X01795D02*
D03*
X01395Y0090496D02*
D03*
X01445D02*
D03*
X01495D02*
D03*
X01545D02*
D03*
X01595D02*
D03*
X01645D02*
D03*
X01695D02*
D03*
X01745D02*
D03*
X01795D02*
D03*
D176*
X0176943Y0137D02*
D03*
X0172219D02*
D03*
X0167494D02*
D03*
D177*
X0128087Y002798D02*
D03*
Y002424D02*
D03*
Y00205D02*
D03*
X0119032D02*
D03*
Y002798D02*
D03*
D178*
X0354512Y0053513D02*
D03*
X0343488D02*
D03*
D179*
X0017Y0183177D02*
D03*
Y0167823D02*
D03*
D180*
X0065831Y0165453D02*
D03*
X0018169Y0149047D02*
D03*
D181*
X0065831Y015876D02*
D03*
X0057169Y016624D02*
D03*
Y015876D02*
D03*
X0026831Y014826D02*
D03*
Y015574D02*
D03*
X0018169D02*
D03*
D182*
X0189165Y016D02*
D03*
Y0155D02*
D03*
Y015D02*
D03*
Y0145D02*
D03*
X0167709Y016D02*
D03*
Y015D02*
D03*
Y0155D02*
D03*
Y0145D02*
D03*
M02*
