%TF.GenerationSoftware,Altium Limited,Altium Designer,20.0.13 (296)*%
G04 Layer_Color=128*
%FSLAX26Y26*%
%MOIN*%
%TF.FileFunction,Drillmap*%
%TF.Part,Single*%
G01*
G75*
%TA.AperFunction,NonConductor*%
%ADD108C,0.005000*%
D108*
X80000Y3058561D02*
X120000D01*
X100000Y3038561D02*
Y3078561D01*
X80000Y3449112D02*
X120000D01*
X100000Y3429112D02*
Y3469112D01*
X213858Y3058561D02*
X253858D01*
X233858Y3038561D02*
Y3078561D01*
X213858Y3449112D02*
X253858D01*
X233858Y3429112D02*
Y3469112D01*
X3606449Y755000D02*
X3637551D01*
X3622000Y739449D02*
Y770551D01*
X3706449Y655000D02*
X3737551D01*
X3722000Y639449D02*
Y670551D01*
X3606449Y555000D02*
X3637551D01*
X3622000Y539449D02*
Y570551D01*
X1683347Y295000D02*
X1726653D01*
X1705000Y273346D02*
Y316654D01*
X1683347Y195000D02*
X1726653D01*
X1705000Y173346D02*
Y216654D01*
X1583347Y295000D02*
X1626653D01*
X1605000Y273346D02*
Y316654D01*
X1583347Y195000D02*
X1626653D01*
X1605000Y173346D02*
Y216654D01*
X1483347Y295000D02*
X1526653D01*
X1505000Y273346D02*
Y316654D01*
X1483347Y195000D02*
X1526653D01*
X1505000Y173346D02*
Y216654D01*
X3528709Y2452601D02*
X3555709D01*
X3542209Y2439101D02*
Y2466101D01*
X4987008Y2520000D02*
X5112992D01*
X5050000Y2457008D02*
Y2582992D01*
X4987008Y3475000D02*
X5112992D01*
X5050000Y3412008D02*
Y3537992D01*
X2597008Y3300000D02*
X2722992D01*
X2660000Y3237008D02*
Y3362992D01*
X2597008Y2690000D02*
X2722992D01*
X2660000Y2627008D02*
Y2752992D01*
X3593000Y945000D02*
X3633000D01*
X3613000Y925000D02*
Y965000D01*
X3975000Y838000D02*
X4015000D01*
X3995000Y818000D02*
Y858000D01*
X4302504Y155000D02*
X4427504D01*
X4365004Y92500D02*
Y217500D01*
X4162500Y155000D02*
X4217500D01*
X4190000Y127500D02*
Y182500D01*
X3999508Y155000D02*
X4054508D01*
X4027008Y127500D02*
Y182500D01*
X5344504Y125000D02*
X5469504D01*
X5407004Y62500D02*
Y187500D01*
X5554508Y125000D02*
X5609508D01*
X5582008Y97500D02*
Y152500D01*
X5717500Y125000D02*
X5772500D01*
X5745000Y97500D02*
Y152500D01*
X723000Y2516405D02*
X783000D01*
X753000Y2486405D02*
Y2546405D01*
X723000Y2204595D02*
X783000D01*
X753000Y2174595D02*
Y2234595D01*
X123500Y2065000D02*
X186500D01*
X155000Y2033500D02*
Y2096500D01*
X123500Y2656000D02*
X186500D01*
X155000Y2624500D02*
Y2687500D01*
X2313878Y335000D02*
X2357382D01*
X2335630Y313248D02*
Y356752D01*
X2613878Y335000D02*
X2657382D01*
X2635630Y313248D02*
Y356752D01*
X2513878Y335000D02*
X2557382D01*
X2535630Y313248D02*
Y356752D01*
X2413878Y335000D02*
X2457382D01*
X2435630Y313248D02*
Y356752D01*
X788346Y661417D02*
X827716D01*
X808032Y641732D02*
Y681102D01*
X688346Y661417D02*
X727716D01*
X708032Y641732D02*
Y681102D01*
X588346Y661417D02*
X627716D01*
X608032Y641732D02*
Y681102D01*
X3474000Y1535000D02*
X3616000D01*
X3545000Y1464000D02*
Y1606000D01*
X441024Y1752480D02*
X476457D01*
X458740Y1734764D02*
Y1770197D01*
X441024Y1831220D02*
X476457D01*
X458740Y1813504D02*
Y1848937D01*
X441024Y1673740D02*
X476457D01*
X458740Y1656024D02*
Y1691457D01*
X362284Y1752480D02*
X397716D01*
X380000Y1734764D02*
Y1770197D01*
X362284Y1831220D02*
X397716D01*
X380000Y1813504D02*
Y1848937D01*
X362284Y1673740D02*
X397716D01*
X380000Y1656024D02*
Y1691457D01*
X441024Y1516260D02*
X476457D01*
X458740Y1498543D02*
Y1533976D01*
X441024Y1595000D02*
X476457D01*
X458740Y1577284D02*
Y1612716D01*
X362284Y1516260D02*
X397716D01*
X380000Y1498543D02*
Y1533976D01*
X362284Y1595000D02*
X397716D01*
X380000Y1577284D02*
Y1612716D01*
X1481220Y3170000D02*
X1508780D01*
X1495000Y3156220D02*
Y3183780D01*
X1481220Y3270000D02*
X1508780D01*
X1495000Y3256220D02*
Y3283780D01*
X3350315Y1233150D02*
X3389685D01*
X3370000Y1213465D02*
Y1252835D01*
X2850315Y1233150D02*
X2889685D01*
X2870000Y1213465D02*
Y1252835D01*
X2750315Y1233150D02*
X2789685D01*
X2770000Y1213465D02*
Y1252835D01*
X3150315Y1233150D02*
X3189685D01*
X3170000Y1213465D02*
Y1252835D01*
X1980315Y3160276D02*
X2019685D01*
X2000000Y3140591D02*
Y3179961D01*
X1980315Y2865000D02*
X2019685D01*
X2000000Y2845315D02*
Y2884685D01*
X519252Y3448150D02*
X550748D01*
X535000Y3432402D02*
Y3463898D01*
X519252Y3645000D02*
X550748D01*
X535000Y3629252D02*
Y3660748D01*
X1410315Y2390000D02*
X1449685D01*
X1430000Y2370315D02*
Y2409685D01*
X1410315Y2685276D02*
X1449685D01*
X1430000Y2665591D02*
Y2704961D01*
X5130000Y2200000D02*
X5160000D01*
X5145000Y2185000D02*
Y2215000D01*
X5930394Y2200000D02*
X5960394D01*
X5945394Y2185000D02*
Y2215000D01*
X5764000Y460000D02*
X5906000D01*
X5835000Y389000D02*
Y531000D01*
X174000Y220000D02*
X316000D01*
X245000Y149000D02*
Y291000D01*
X2286220Y1878740D02*
X2313780D01*
X2300000Y1864961D02*
Y1892520D01*
X2286220Y1800000D02*
X2313780D01*
X2300000Y1786220D02*
Y1813780D01*
X5045315Y1102126D02*
X5084685D01*
X5065000Y1082441D02*
Y1121811D01*
X5045315Y610000D02*
X5084685D01*
X5065000Y590315D02*
Y629685D01*
X4651614Y1102126D02*
X4690984D01*
X4671299Y1082441D02*
Y1121811D01*
X4651614Y610000D02*
X4690984D01*
X4671299Y590315D02*
Y629685D01*
X3866134Y470575D02*
X3907866D01*
X3887000Y449709D02*
Y491441D01*
X3866134Y667425D02*
X3907866D01*
X3887000Y646559D02*
Y688291D01*
X3866134Y569000D02*
X3907866D01*
X3887000Y548134D02*
Y589866D01*
X4578701Y290000D02*
X4610197D01*
X4594449Y274252D02*
Y305748D01*
X5169252Y290000D02*
X5200748D01*
X5185000Y274252D02*
Y305748D01*
X5960315Y1675000D02*
X5999685D01*
X5980000Y1655315D02*
Y1694685D01*
X4877638Y1675000D02*
X4917008D01*
X4897323Y1655315D02*
Y1694685D01*
X3239350Y1830000D02*
X3274350D01*
X3256850Y1812500D02*
Y1847500D01*
X2845650Y1830000D02*
X2880650D01*
X2863150Y1812500D02*
Y1847500D01*
X2565984Y1879213D02*
X2605354D01*
X2585669Y1859528D02*
Y1898898D01*
X2565984Y1780787D02*
X2605354D01*
X2585669Y1761102D02*
Y1800472D01*
X1896110Y4208000D02*
X1947291D01*
X1921701Y4182409D02*
Y4233591D01*
X1502409Y4208000D02*
X1553591D01*
X1528000Y4182409D02*
Y4233591D01*
X4178293Y363150D02*
X4213293D01*
X4195793Y345650D02*
Y380650D01*
X4178293Y756850D02*
X4213293D01*
X4195793Y739350D02*
Y774350D01*
X4202500Y4157500D02*
X4237500D01*
X4220000Y4140000D02*
Y4175000D01*
X3808799Y4157500D02*
X3843799D01*
X3826299Y4140000D02*
Y4175000D01*
X3249350Y4165000D02*
X3284350D01*
X3266850Y4147500D02*
Y4182500D01*
X2855650Y4165000D02*
X2890650D01*
X2873150Y4147500D02*
Y4182500D01*
X1180315Y3185000D02*
X1219685D01*
X1200000Y3165315D02*
Y3204685D01*
X885039Y3185000D02*
X924409D01*
X904724Y3165315D02*
Y3204685D01*
X5457500Y731850D02*
X5492500D01*
X5475000Y714350D02*
Y749350D01*
X5457500Y338150D02*
X5492500D01*
X5475000Y320650D02*
Y355650D01*
X4209350Y1840000D02*
X4244350D01*
X4226850Y1822500D02*
Y1857500D01*
X3815650Y1840000D02*
X3850650D01*
X3833150Y1822500D02*
Y1857500D01*
X5466221Y1110000D02*
X5493779D01*
X5480000Y1096220D02*
Y1123780D01*
X5466221Y1010000D02*
X5493779D01*
X5480000Y996221D02*
Y1023779D01*
X174000Y4085000D02*
X316000D01*
X245000Y4014000D02*
Y4156000D01*
X5869000Y4085000D02*
X6011000D01*
X5940000Y4014000D02*
Y4156000D01*
X1942500Y2670000D02*
X1957500D01*
X1950000Y2662500D02*
Y2677500D01*
X2342500Y2670000D02*
X2357500D01*
X2350000Y2662500D02*
Y2677500D01*
X2392500Y2570000D02*
X2407500D01*
X2400000Y2562500D02*
Y2577500D01*
X1992500Y2770000D02*
X2007500D01*
X2000000Y2762500D02*
Y2777500D01*
X2542500Y2470000D02*
X2557500D01*
X2550000Y2462500D02*
Y2477500D01*
X2642500Y2470000D02*
X2657500D01*
X2650000Y2462500D02*
Y2477500D01*
X2142500Y2470000D02*
X2157500D01*
X2150000Y2462500D02*
Y2477500D01*
X2492500Y2770000D02*
X2507500D01*
X2500000Y2762500D02*
Y2777500D01*
X2492500Y2570000D02*
X2507500D01*
X2500000Y2562500D02*
Y2577500D01*
X2242500Y2670000D02*
X2257500D01*
X2250000Y2662500D02*
Y2677500D01*
X2192500Y2570000D02*
X2207500D01*
X2200000Y2562500D02*
Y2577500D01*
X2092500Y2770000D02*
X2107500D01*
X2100000Y2762500D02*
Y2777500D01*
X2292500Y2770000D02*
X2307500D01*
X2300000Y2762500D02*
Y2777500D01*
X2092500Y2570000D02*
X2107500D01*
X2100000Y2562500D02*
Y2577500D01*
X2342500Y2470000D02*
X2357500D01*
X2350000Y2462500D02*
Y2477500D01*
X2142500Y2670000D02*
X2157500D01*
X2150000Y2662500D02*
Y2677500D01*
X2292500Y2570000D02*
X2307500D01*
X2300000Y2562500D02*
Y2577500D01*
X2392500Y2770000D02*
X2407500D01*
X2400000Y2762500D02*
Y2777500D01*
X2792500Y2570000D02*
X2807500D01*
X2800000Y2562500D02*
Y2577500D01*
X1992500Y2570000D02*
X2007500D01*
X2000000Y2562500D02*
Y2577500D01*
X2442500Y2670000D02*
X2457500D01*
X2450000Y2662500D02*
Y2677500D01*
X2792500Y2770000D02*
X2807500D01*
X2800000Y2762500D02*
Y2777500D01*
X2442500Y2470000D02*
X2457500D01*
X2450000Y2462500D02*
Y2477500D01*
X2742500Y2470000D02*
X2757500D01*
X2750000Y2462500D02*
Y2477500D01*
X2042500Y2670000D02*
X2057500D01*
X2050000Y2662500D02*
Y2677500D01*
X2042500Y2470000D02*
X2057500D01*
X2050000Y2462500D02*
Y2477500D01*
X1942500Y2470000D02*
X1957500D01*
X1950000Y2462500D02*
Y2477500D01*
X2242500Y2470000D02*
X2257500D01*
X2250000Y2462500D02*
Y2477500D01*
X2192500Y2770000D02*
X2207500D01*
X2200000Y2762500D02*
Y2777500D01*
X2719597Y3230403D02*
X2739597D01*
X2729597Y3220403D02*
Y3240403D01*
X2748425Y3300000D02*
X2768425D01*
X2758425Y3290000D02*
Y3310000D01*
X2650000Y3201575D02*
X2670000D01*
X2660000Y3191575D02*
Y3211575D01*
X2580403Y3369597D02*
X2600403D01*
X2590403Y3359597D02*
Y3379597D01*
X2551575Y3300000D02*
X2571575D01*
X2561575Y3290000D02*
Y3310000D01*
X2650000Y3398425D02*
X2670000D01*
X2660000Y3388425D02*
Y3408425D01*
X2580403Y3230403D02*
X2600403D01*
X2590403Y3220403D02*
Y3240403D01*
X2719597Y3369597D02*
X2739597D01*
X2729597Y3359597D02*
Y3379597D01*
X2719597Y2620403D02*
X2739597D01*
X2729597Y2610403D02*
Y2630403D01*
X2748425Y2690000D02*
X2768425D01*
X2758425Y2680000D02*
Y2700000D01*
X2650000Y2591575D02*
X2670000D01*
X2660000Y2581575D02*
Y2601575D01*
X2580403Y2759597D02*
X2600403D01*
X2590403Y2749597D02*
Y2769597D01*
X2551575Y2690000D02*
X2571575D01*
X2561575Y2680000D02*
Y2700000D01*
X2650000Y2788425D02*
X2670000D01*
X2660000Y2778425D02*
Y2798425D01*
X2580403Y2620403D02*
X2600403D01*
X2590403Y2610403D02*
Y2630403D01*
X2719597Y2759597D02*
X2739597D01*
X2729597Y2749597D02*
Y2769597D01*
X5109597Y3405403D02*
X5129597D01*
X5119597Y3395403D02*
Y3415403D01*
X5138425Y3475000D02*
X5158425D01*
X5148425Y3465000D02*
Y3485000D01*
X5040000Y3376575D02*
X5060000D01*
X5050000Y3366575D02*
Y3386575D01*
X4970403Y3544597D02*
X4990403D01*
X4980403Y3534597D02*
Y3554597D01*
X4941575Y3475000D02*
X4961575D01*
X4951575Y3465000D02*
Y3485000D01*
X5040000Y3573425D02*
X5060000D01*
X5050000Y3563425D02*
Y3583425D01*
X4970403Y3405403D02*
X4990403D01*
X4980403Y3395403D02*
Y3415403D01*
X5109597Y3544597D02*
X5129597D01*
X5119597Y3534597D02*
Y3554597D01*
X5109597Y2450403D02*
X5129597D01*
X5119597Y2440403D02*
Y2460403D01*
X5138425Y2520000D02*
X5158425D01*
X5148425Y2510000D02*
Y2530000D01*
X5040000Y2421575D02*
X5060000D01*
X5050000Y2411575D02*
Y2431575D01*
X4970403Y2589597D02*
X4990403D01*
X4980403Y2579597D02*
Y2599597D01*
X4941575Y2520000D02*
X4961575D01*
X4951575Y2510000D02*
Y2530000D01*
X5040000Y2618425D02*
X5060000D01*
X5050000Y2608425D02*
Y2628425D01*
X4970403Y2450403D02*
X4990403D01*
X4980403Y2440403D02*
Y2460403D01*
X5109597Y2589597D02*
X5129597D01*
X5119597Y2579597D02*
Y2599597D01*
X923500Y1007000D02*
X938500D01*
X931000Y999500D02*
Y1014500D01*
X899500Y805000D02*
X914500D01*
X907000Y797500D02*
Y812500D01*
X3537618Y456575D02*
X3552618D01*
X3545118Y449075D02*
Y464075D01*
X2332255Y90000D02*
X2347255D01*
X2339755Y82500D02*
Y97500D01*
X448500Y645000D02*
X463500D01*
X456000Y637500D02*
Y652500D01*
X402500Y644000D02*
X417500D01*
X410000Y636500D02*
Y651500D01*
X2822500Y220000D02*
X2837500D01*
X2830000Y212500D02*
Y227500D01*
X2742500Y1620000D02*
X2757500D01*
X2750000Y1612500D02*
Y1627500D01*
X2817500Y1470000D02*
X2832500D01*
X2825000Y1462500D02*
Y1477500D01*
X2742500Y1320000D02*
X2757500D01*
X2750000Y1312500D02*
Y1327500D01*
X2592500Y1320000D02*
X2607500D01*
X2600000Y1312500D02*
Y1327500D01*
X2667500Y1170000D02*
X2682500D01*
X2675000Y1162500D02*
Y1177500D01*
X2592500Y1020000D02*
X2607500D01*
X2600000Y1012500D02*
Y1027500D01*
X2592500Y720000D02*
X2607500D01*
X2600000Y712500D02*
Y727500D01*
X2667500Y570000D02*
X2682500D01*
X2675000Y562500D02*
Y577500D01*
X2592500Y420000D02*
X2607500D01*
X2600000Y412500D02*
Y427500D01*
X2667500Y270000D02*
X2682500D01*
X2675000Y262500D02*
Y277500D01*
X2517500Y1170000D02*
X2532500D01*
X2525000Y1162500D02*
Y1177500D01*
X2442500Y1020000D02*
X2457500D01*
X2450000Y1012500D02*
Y1027500D01*
X2517500Y870000D02*
X2532500D01*
X2525000Y862500D02*
Y877500D01*
X2517500Y570000D02*
X2532500D01*
X2525000Y562500D02*
Y577500D01*
X2442500Y420000D02*
X2457500D01*
X2450000Y412500D02*
Y427500D01*
X2292500Y1620000D02*
X2307500D01*
X2300000Y1612500D02*
Y1627500D01*
X2292500Y1320000D02*
X2307500D01*
X2300000Y1312500D02*
Y1327500D01*
X2367500Y1170000D02*
X2382500D01*
X2375000Y1162500D02*
Y1177500D01*
X2292500Y1020000D02*
X2307500D01*
X2300000Y1012500D02*
Y1027500D01*
X2367500Y870000D02*
X2382500D01*
X2375000Y862500D02*
Y877500D01*
X2217500Y1470000D02*
X2232500D01*
X2225000Y1462500D02*
Y1477500D01*
X2142500Y1320000D02*
X2157500D01*
X2150000Y1312500D02*
Y1327500D01*
X2217500Y1170000D02*
X2232500D01*
X2225000Y1162500D02*
Y1177500D01*
X2142500Y1020000D02*
X2157500D01*
X2150000Y1012500D02*
Y1027500D01*
X1917500Y1170000D02*
X1932500D01*
X1925000Y1162500D02*
Y1177500D01*
X1917500Y270000D02*
X1932500D01*
X1925000Y262500D02*
Y277500D01*
X1767500Y1170000D02*
X1782500D01*
X1775000Y1162500D02*
Y1177500D01*
X1692500Y120000D02*
X1707500D01*
X1700000Y112500D02*
Y127500D01*
X1617500Y1170000D02*
X1632500D01*
X1625000Y1162500D02*
Y1177500D01*
X1542500Y1020000D02*
X1557500D01*
X1550000Y1012500D02*
Y1027500D01*
X1542500Y720000D02*
X1557500D01*
X1550000Y712500D02*
Y727500D01*
X1542500Y120000D02*
X1557500D01*
X1550000Y112500D02*
Y127500D01*
X1467500Y1470000D02*
X1482500D01*
X1475000Y1462500D02*
Y1477500D01*
X1392500Y720000D02*
X1407500D01*
X1400000Y712500D02*
Y727500D01*
X1242500Y1620000D02*
X1257500D01*
X1250000Y1612500D02*
Y1627500D01*
X1317500Y1170000D02*
X1332500D01*
X1325000Y1162500D02*
Y1177500D01*
X1242500Y1020000D02*
X1257500D01*
X1250000Y1012500D02*
Y1027500D01*
X1317500Y870000D02*
X1332500D01*
X1325000Y862500D02*
Y877500D01*
X1092500Y1020000D02*
X1107500D01*
X1100000Y1012500D02*
Y1027500D01*
X1017500Y1470000D02*
X1032500D01*
X1025000Y1462500D02*
Y1477500D01*
X1017500Y1170000D02*
X1032500D01*
X1025000Y1162500D02*
Y1177500D01*
X1017500Y270000D02*
X1032500D01*
X1025000Y262500D02*
Y277500D01*
X942500Y120000D02*
X957500D01*
X950000Y112500D02*
Y127500D01*
X867500Y1470000D02*
X882500D01*
X875000Y1462500D02*
Y1477500D01*
X867500Y570000D02*
X882500D01*
X875000Y562500D02*
Y577500D01*
X867500Y270000D02*
X882500D01*
X875000Y262500D02*
Y277500D01*
X792500Y120000D02*
X807500D01*
X800000Y112500D02*
Y127500D01*
X717500Y1470000D02*
X732500D01*
X725000Y1462500D02*
Y1477500D01*
X717500Y870000D02*
X732500D01*
X725000Y862500D02*
Y877500D01*
X717500Y570000D02*
X732500D01*
X725000Y562500D02*
Y577500D01*
X717500Y270000D02*
X732500D01*
X725000Y262500D02*
Y277500D01*
X492500Y1020000D02*
X507500D01*
X500000Y1012500D02*
Y1027500D01*
X567500Y870000D02*
X582500D01*
X575000Y862500D02*
Y877500D01*
X567500Y570000D02*
X582500D01*
X575000Y562500D02*
Y577500D01*
X567500Y270000D02*
X582500D01*
X575000Y262500D02*
Y277500D01*
X492500Y120000D02*
X507500D01*
X500000Y112500D02*
Y127500D01*
X417500Y1170000D02*
X432500D01*
X425000Y1162500D02*
Y1177500D01*
X342500Y1020000D02*
X357500D01*
X350000Y1012500D02*
Y1027500D01*
X417500Y870000D02*
X432500D01*
X425000Y862500D02*
Y877500D01*
X417500Y570000D02*
X432500D01*
X425000Y562500D02*
Y577500D01*
X417500Y270000D02*
X432500D01*
X425000Y262500D02*
Y277500D01*
X267500Y570000D02*
X282500D01*
X275000Y562500D02*
Y577500D01*
X192500Y420000D02*
X207500D01*
X200000Y412500D02*
Y427500D01*
X117500Y1470000D02*
X132500D01*
X125000Y1462500D02*
Y1477500D01*
X42500Y1020000D02*
X57500D01*
X50000Y1012500D02*
Y1027500D01*
X117500Y570000D02*
X132500D01*
X125000Y562500D02*
Y577500D01*
X42500Y420000D02*
X57500D01*
X50000Y412500D02*
Y427500D01*
X2245909Y362755D02*
X2260909D01*
X2253409Y355255D02*
Y370255D01*
X1437500Y2065000D02*
X1452500D01*
X1445000Y2057500D02*
Y2072500D01*
X1437500Y1865000D02*
X1452500D01*
X1445000Y1857500D02*
Y1872500D01*
X1387500Y2165000D02*
X1402500D01*
X1395000Y2157500D02*
Y2172500D01*
X1337500Y2065000D02*
X1352500D01*
X1345000Y2057500D02*
Y2072500D01*
X1387500Y1965000D02*
X1402500D01*
X1395000Y1957500D02*
Y1972500D01*
X1337500Y1865000D02*
X1352500D01*
X1345000Y1857500D02*
Y1872500D01*
X1287500Y2165000D02*
X1302500D01*
X1295000Y2157500D02*
Y2172500D01*
X1237500Y2065000D02*
X1252500D01*
X1245000Y2057500D02*
Y2072500D01*
X1287500Y1965000D02*
X1302500D01*
X1295000Y1957500D02*
Y1972500D01*
X1237500Y1865000D02*
X1252500D01*
X1245000Y1857500D02*
Y1872500D01*
X1187500Y2165000D02*
X1202500D01*
X1195000Y2157500D02*
Y2172500D01*
X1137500Y2065000D02*
X1152500D01*
X1145000Y2057500D02*
Y2072500D01*
X1187500Y1965000D02*
X1202500D01*
X1195000Y1957500D02*
Y1972500D01*
X1137500Y1865000D02*
X1152500D01*
X1145000Y1857500D02*
Y1872500D01*
X1087500Y2165000D02*
X1102500D01*
X1095000Y2157500D02*
Y2172500D01*
X1037500Y2065000D02*
X1052500D01*
X1045000Y2057500D02*
Y2072500D01*
X1087500Y1965000D02*
X1102500D01*
X1095000Y1957500D02*
Y1972500D01*
X1037500Y1865000D02*
X1052500D01*
X1045000Y1857500D02*
Y1872500D01*
X987500Y2165000D02*
X1002500D01*
X995000Y2157500D02*
Y2172500D01*
X937500Y2065000D02*
X952500D01*
X945000Y2057500D02*
Y2072500D01*
X987500Y1965000D02*
X1002500D01*
X995000Y1957500D02*
Y1972500D01*
X937500Y1865000D02*
X952500D01*
X945000Y1857500D02*
Y1872500D01*
X887500Y2165000D02*
X902500D01*
X895000Y2157500D02*
Y2172500D01*
X837500Y2065000D02*
X852500D01*
X845000Y2057500D02*
Y2072500D01*
X887500Y1965000D02*
X902500D01*
X895000Y1957500D02*
Y1972500D01*
X737500Y2065000D02*
X752500D01*
X745000Y2057500D02*
Y2072500D01*
X787500Y1965000D02*
X802500D01*
X795000Y1957500D02*
Y1972500D01*
X637500Y2065000D02*
X652500D01*
X645000Y2057500D02*
Y2072500D01*
X687500Y1965000D02*
X702500D01*
X695000Y1957500D02*
Y1972500D01*
X587500Y2165000D02*
X602500D01*
X595000Y2157500D02*
Y2172500D01*
X487500Y2165000D02*
X502500D01*
X495000Y2157500D02*
Y2172500D01*
X337500Y2265000D02*
X352500D01*
X345000Y2257500D02*
Y2272500D01*
X237500Y2465000D02*
X252500D01*
X245000Y2457500D02*
Y2472500D01*
X287500Y2365000D02*
X302500D01*
X295000Y2357500D02*
Y2372500D01*
X287500Y2165000D02*
X302500D01*
X295000Y2157500D02*
Y2172500D01*
X137500Y2465000D02*
X152500D01*
X145000Y2457500D02*
Y2472500D01*
X187500Y2365000D02*
X202500D01*
X195000Y2357500D02*
Y2372500D01*
X37500Y2465000D02*
X52500D01*
X45000Y2457500D02*
Y2472500D01*
X87500Y2365000D02*
X102500D01*
X95000Y2357500D02*
Y2372500D01*
X992500Y3070000D02*
X1007500D01*
X1000000Y3062500D02*
Y3077500D01*
X942500Y2970000D02*
X957500D01*
X950000Y2962500D02*
Y2977500D01*
X992500Y2870000D02*
X1007500D01*
X1000000Y2862500D02*
Y2877500D01*
X942500Y2770000D02*
X957500D01*
X950000Y2762500D02*
Y2777500D01*
X992500Y2670000D02*
X1007500D01*
X1000000Y2662500D02*
Y2677500D01*
X942500Y2570000D02*
X957500D01*
X950000Y2562500D02*
Y2577500D01*
X992500Y2470000D02*
X1007500D01*
X1000000Y2462500D02*
Y2477500D01*
X942500Y2370000D02*
X957500D01*
X950000Y2362500D02*
Y2377500D01*
X892500Y3070000D02*
X907500D01*
X900000Y3062500D02*
Y3077500D01*
X842500Y2970000D02*
X857500D01*
X850000Y2962500D02*
Y2977500D01*
X892500Y2870000D02*
X907500D01*
X900000Y2862500D02*
Y2877500D01*
X842500Y2770000D02*
X857500D01*
X850000Y2762500D02*
Y2777500D01*
X892500Y2670000D02*
X907500D01*
X900000Y2662500D02*
Y2677500D01*
X892500Y2470000D02*
X907500D01*
X900000Y2462500D02*
Y2477500D01*
X842500Y2370000D02*
X857500D01*
X850000Y2362500D02*
Y2377500D01*
X792500Y3070000D02*
X807500D01*
X800000Y3062500D02*
Y3077500D01*
X742500Y2970000D02*
X757500D01*
X750000Y2962500D02*
Y2977500D01*
X792500Y2870000D02*
X807500D01*
X800000Y2862500D02*
Y2877500D01*
X742500Y2770000D02*
X757500D01*
X750000Y2762500D02*
Y2777500D01*
X792500Y2670000D02*
X807500D01*
X800000Y2662500D02*
Y2677500D01*
X742500Y2370000D02*
X757500D01*
X750000Y2362500D02*
Y2377500D01*
X692500Y3070000D02*
X707500D01*
X700000Y3062500D02*
Y3077500D01*
X642500Y2970000D02*
X657500D01*
X650000Y2962500D02*
Y2977500D01*
X692500Y2870000D02*
X707500D01*
X700000Y2862500D02*
Y2877500D01*
X642500Y2770000D02*
X657500D01*
X650000Y2762500D02*
Y2777500D01*
X692500Y2670000D02*
X707500D01*
X700000Y2662500D02*
Y2677500D01*
X642500Y2370000D02*
X657500D01*
X650000Y2362500D02*
Y2377500D01*
X592500Y3070000D02*
X607500D01*
X600000Y3062500D02*
Y3077500D01*
X542500Y2970000D02*
X557500D01*
X550000Y2962500D02*
Y2977500D01*
X592500Y2870000D02*
X607500D01*
X600000Y2862500D02*
Y2877500D01*
X542500Y2770000D02*
X557500D01*
X550000Y2762500D02*
Y2777500D01*
X592500Y2670000D02*
X607500D01*
X600000Y2662500D02*
Y2677500D01*
X542500Y2570000D02*
X557500D01*
X550000Y2562500D02*
Y2577500D01*
X542500Y2370000D02*
X557500D01*
X550000Y2362500D02*
Y2377500D01*
X492500Y2870000D02*
X507500D01*
X500000Y2862500D02*
Y2877500D01*
X492500Y2670000D02*
X507500D01*
X500000Y2662500D02*
Y2677500D01*
X492500Y2470000D02*
X507500D01*
X500000Y2462500D02*
Y2477500D01*
X2411798Y733071D02*
X2426798D01*
X2419298Y725571D02*
Y740571D01*
X1922539Y1365000D02*
X1937539D01*
X1930039Y1357500D02*
Y1372500D01*
X1261555Y78307D02*
X1276555D01*
X1269055Y70807D02*
Y85807D01*
X964075Y1472599D02*
X979075D01*
X971575Y1465099D02*
Y1480099D01*
X1310768Y460000D02*
X1325768D01*
X1318268Y452500D02*
Y467500D01*
X1126713Y236544D02*
X1141713D01*
X1134213Y229044D02*
Y244044D01*
X1367265Y1397860D02*
X1382265D01*
X1374765Y1390360D02*
Y1405360D01*
X1291474Y1321299D02*
X1306474D01*
X1298974Y1313799D02*
Y1328799D01*
X1190965Y1374409D02*
X1205965D01*
X1198465Y1366909D02*
Y1381909D01*
X921929Y1326535D02*
X936929D01*
X929429Y1319035D02*
Y1334035D01*
X660591Y1741627D02*
X675591D01*
X668091Y1734127D02*
Y1749127D01*
X298342Y1624651D02*
X313342D01*
X305842Y1617151D02*
Y1632151D01*
X2045335Y1719291D02*
X2060335D01*
X2052835Y1711791D02*
Y1726791D01*
X1792500Y361026D02*
X1807500D01*
X1800000Y353526D02*
Y368526D01*
X1809016Y68416D02*
X1824016D01*
X1816516Y60916D02*
Y75916D01*
X2682500Y475000D02*
X2697500D01*
X2690000Y467500D02*
Y482500D01*
X2682500Y528465D02*
X2697500D01*
X2690000Y520965D02*
Y535965D01*
X2747500Y580000D02*
X2762500D01*
X2755000Y572500D02*
Y587500D01*
X2472500Y745000D02*
X2487500D01*
X2480000Y737500D02*
Y752500D01*
X2372500Y585500D02*
X2387500D01*
X2380000Y578000D02*
Y593000D01*
X2177500Y175000D02*
X2192500D01*
X2185000Y167500D02*
Y182500D01*
X1885177Y360000D02*
X1900177D01*
X1892677Y352500D02*
Y367500D01*
X2085000Y200000D02*
X2100000D01*
X2092500Y192500D02*
Y207500D01*
X1648000Y606535D02*
X1663000D01*
X1655500Y599035D02*
Y614035D01*
X1942128Y684864D02*
X1957128D01*
X1949628Y677364D02*
Y692364D01*
X2131240Y698740D02*
X2146240D01*
X2138740Y691240D02*
Y706240D01*
X2162736Y735748D02*
X2177736D01*
X2170236Y728248D02*
Y743248D01*
X852500Y1040000D02*
X867500D01*
X860000Y1032500D02*
Y1047500D01*
X1272500Y572756D02*
X1287500D01*
X1280000Y565256D02*
Y580256D01*
X1212500Y840000D02*
X1227500D01*
X1220000Y832500D02*
Y847500D01*
X1637500Y730236D02*
X1652500D01*
X1645000Y722736D02*
Y737736D01*
X1687500Y483764D02*
X1702500D01*
X1695000Y476264D02*
Y491264D01*
X1387500Y509764D02*
X1402500D01*
X1395000Y502264D02*
Y517264D01*
X1349311Y900000D02*
X1364311D01*
X1356811Y892500D02*
Y907500D01*
X1421000Y605535D02*
X1436000D01*
X1428500Y598035D02*
Y613035D01*
X1938170Y885000D02*
X1953170D01*
X1945670Y877500D02*
Y892500D01*
X1968870Y850000D02*
X1983870D01*
X1976370Y842500D02*
Y857500D01*
X1912500Y1276653D02*
X1927500D01*
X1920000Y1269153D02*
Y1284153D01*
X1992500Y370000D02*
X2007500D01*
X2000000Y362500D02*
Y377500D01*
X490580Y1178080D02*
X505580D01*
X498080Y1170580D02*
Y1185580D01*
X790965Y897798D02*
X805965D01*
X798465Y890298D02*
Y905298D01*
X1564689Y1203606D02*
X1579689D01*
X1572189Y1196106D02*
Y1211106D01*
X1792382Y1203606D02*
X1807382D01*
X1799882Y1196106D02*
Y1211106D01*
X1367265Y1203606D02*
X1382265D01*
X1374765Y1196106D02*
Y1211106D01*
X1880419Y1046535D02*
X1895419D01*
X1887919Y1039035D02*
Y1054035D01*
X1412500Y847111D02*
X1427500D01*
X1420000Y839611D02*
Y854611D01*
X1282500Y1060000D02*
X1297500D01*
X1290000Y1052500D02*
Y1067500D01*
X1487500Y831055D02*
X1502500D01*
X1495000Y823555D02*
Y838555D01*
X1537500Y971535D02*
X1552500D01*
X1545000Y964035D02*
Y979035D01*
X1587500Y997535D02*
X1602500D01*
X1595000Y990035D02*
Y1005035D01*
X510580Y1218080D02*
X525580D01*
X518080Y1210580D02*
Y1225580D01*
X564193Y1403260D02*
X579193D01*
X571693Y1395760D02*
Y1410760D01*
X1967500Y588071D02*
X1982500D01*
X1975000Y580571D02*
Y595571D01*
X1967500Y656035D02*
X1982500D01*
X1975000Y648535D02*
Y663535D01*
X1942264Y531000D02*
X1957264D01*
X1949764Y523500D02*
Y538500D01*
X1307500Y1557599D02*
X1322500D01*
X1315000Y1550099D02*
Y1565099D01*
X2057500Y370000D02*
X2072500D01*
X2065000Y362500D02*
Y377500D01*
X1827500Y730236D02*
X1842500D01*
X1835000Y722736D02*
Y737736D01*
X2747500Y420000D02*
X2762500D01*
X2755000Y412500D02*
Y427500D01*
X297500Y1880000D02*
X312500D01*
X305000Y1872500D02*
Y1887500D01*
X297500Y1909961D02*
X312500D01*
X305000Y1902461D02*
Y1917461D01*
X1020965Y1632599D02*
X1035965D01*
X1028465Y1625099D02*
Y1640099D01*
X62500Y1400000D02*
X77500D01*
X70000Y1392500D02*
Y1407500D01*
X62500Y1439488D02*
X77500D01*
X70000Y1431988D02*
Y1446988D01*
X455902Y2975000D02*
X470902D01*
X463402Y2967500D02*
Y2982500D01*
X369098Y2975000D02*
X384098D01*
X376598Y2967500D02*
Y2982500D01*
X662500Y3910591D02*
X677500D01*
X670000Y3903091D02*
Y3918091D01*
X662500Y3830000D02*
X677500D01*
X670000Y3822500D02*
Y3837500D01*
X1378500Y3905000D02*
X1393500D01*
X1386000Y3897500D02*
Y3912500D01*
X1378500Y3820000D02*
X1393500D01*
X1386000Y3812500D02*
Y3827500D01*
X3487500Y800000D02*
X3502500D01*
X3495000Y792500D02*
Y807500D01*
X3299350Y1110000D02*
X3314350D01*
X3306850Y1102500D02*
Y1117500D01*
X3277500Y430500D02*
X3292500D01*
X3285000Y423000D02*
Y438000D01*
X3277500Y580000D02*
X3292500D01*
X3285000Y572500D02*
Y587500D01*
X1973405Y1501667D02*
X1988405D01*
X1980905Y1494167D02*
Y1509167D01*
X1973406Y1628333D02*
X1988406D01*
X1980906Y1620833D02*
Y1635833D01*
%TF.MD5,b62bf7fe6eb4382373e0920cbce35fbc*%
M02*
