G04*
G04 #@! TF.GenerationSoftware,Altium Limited,Altium Designer,20.0.13 (296)*
G04*
G04 Layer_Color=32768*
%FSTAX25Y25*%
%MOIN*%
G70*
G01*
G75*
%ADD12C,0.00787*%
G36*
X0159847Y002454D02*
X015987Y0024538D01*
X0159898Y0024536D01*
X015993Y0024531D01*
X0159967Y0024525D01*
X0160005Y0024518D01*
X0160045Y0024507D01*
X0160087Y0024496D01*
X0160129Y002448D01*
X0160171Y0024462D01*
X0160212Y002444D01*
X0160252Y0024415D01*
X0160291Y0024385D01*
X0160325Y0024353D01*
X0160327Y0024351D01*
X0160333Y0024343D01*
X0160342Y0024333D01*
X0160353Y0024316D01*
X0160365Y0024296D01*
X016038Y0024272D01*
X0160396Y0024243D01*
X0160411Y0024211D01*
X0160427Y0024172D01*
X0160444Y002413D01*
X0160456Y0024083D01*
X0160469Y0024032D01*
X016048Y0023978D01*
X0160487Y0023918D01*
X0160493Y0023854D01*
Y0023787D01*
X0160192Y0023745D01*
Y0023748D01*
Y0023757D01*
X0160191Y0023772D01*
X0160189Y0023792D01*
X0160187Y0023816D01*
X0160183Y0023841D01*
X016018Y002387D01*
X0160174Y0023903D01*
X0160161Y0023969D01*
X0160143Y0024034D01*
X0160131Y0024063D01*
X0160118Y0024092D01*
X0160101Y0024118D01*
X0160085Y002414D01*
X0160083Y0024141D01*
X0160081Y0024143D01*
X0160074Y0024149D01*
X0160067Y0024156D01*
X0160058Y0024163D01*
X0160045Y0024172D01*
X0160032Y0024183D01*
X0160016Y0024192D01*
X0159998Y0024202D01*
X0159978Y0024212D01*
X0159956Y0024221D01*
X0159932Y0024229D01*
X0159905Y0024236D01*
X0159878Y002424D01*
X0159848Y0024243D01*
X0159818Y0024245D01*
X0159805D01*
X0159796Y0024243D01*
X0159785D01*
X0159772Y0024242D01*
X0159743Y0024238D01*
X015971Y0024231D01*
X0159674Y0024221D01*
X0159635Y0024207D01*
X0159601Y0024189D01*
X0159599D01*
X0159597Y0024185D01*
X0159586Y0024178D01*
X015957Y0024165D01*
X0159552Y0024147D01*
X015953Y0024125D01*
X015951Y0024098D01*
X015949Y0024067D01*
X0159475Y0024032D01*
Y002403D01*
X0159474Y0024027D01*
X0159472Y0024021D01*
X015947Y0024014D01*
X0159468Y0024003D01*
X0159464Y002399D01*
X0159461Y0023974D01*
X0159457Y0023956D01*
X0159455Y0023936D01*
X0159452Y0023912D01*
X0159448Y0023887D01*
X0159446Y0023857D01*
X0159444Y0023827D01*
X0159443Y0023794D01*
X0159441Y0023757D01*
Y0023717D01*
Y0021981D01*
X0159108D01*
Y0023697D01*
Y0023701D01*
Y0023712D01*
Y0023728D01*
X0159109Y002375D01*
Y0023776D01*
X0159111Y0023807D01*
X0159115Y0023841D01*
X0159117Y0023878D01*
X0159122Y0023916D01*
X0159126Y0023956D01*
X0159141Y0024038D01*
X015915Y0024078D01*
X015916Y0024116D01*
X0159171Y0024152D01*
X0159186Y0024187D01*
Y0024189D01*
X015919Y0024194D01*
X0159193Y0024203D01*
X0159201Y0024216D01*
X0159208Y0024231D01*
X0159219Y0024247D01*
X0159231Y0024265D01*
X0159244Y0024285D01*
X0159261Y0024305D01*
X0159279Y0024327D01*
X0159299Y0024349D01*
X0159321Y0024371D01*
X0159344Y0024393D01*
X015937Y0024413D01*
X0159397Y0024433D01*
X0159428Y0024451D01*
X015943Y0024453D01*
X0159435Y0024454D01*
X0159444Y002446D01*
X0159457Y0024465D01*
X0159474Y0024473D01*
X0159492Y002448D01*
X0159514Y0024487D01*
X0159539Y0024496D01*
X0159566Y0024506D01*
X0159596Y0024513D01*
X0159628Y002452D01*
X0159661Y0024527D01*
X0159697Y0024533D01*
X0159736Y0024538D01*
X0159774Y002454D01*
X0159816Y0024542D01*
X015983D01*
X0159847Y002454D01*
D02*
G37*
G36*
X0157834Y0022531D02*
X0157835Y0022533D01*
X0157839Y0022536D01*
X0157845Y0022542D01*
X0157854Y0022549D01*
X0157865Y0022558D01*
X0157879Y0022571D01*
X0157896Y0022583D01*
X0157912Y0022598D01*
X0157934Y0022613D01*
X0157956Y0022631D01*
X0157979Y0022647D01*
X0158005Y0022667D01*
X0158034Y0022685D01*
X0158063Y0022705D01*
X0158128Y0022746D01*
X015813Y0022747D01*
X0158136Y0022751D01*
X0158147Y0022756D01*
X0158159Y0022762D01*
X0158174Y0022771D01*
X0158192Y0022782D01*
X0158214Y0022793D01*
X0158236Y0022806D01*
X0158287Y0022831D01*
X0158342Y0022857D01*
X0158398Y0022882D01*
X0158452Y0022904D01*
Y0022605D01*
X0158449Y0022604D01*
X0158442Y00226D01*
X0158427Y0022593D01*
X0158409Y0022583D01*
X0158387Y0022573D01*
X015836Y0022558D01*
X0158331Y0022542D01*
X01583Y0022524D01*
X0158265Y0022502D01*
X0158229Y002248D01*
X0158152Y0022429D01*
X0158074Y0022372D01*
X0157999Y002231D01*
X0157998Y0022309D01*
X015799Y0022303D01*
X0157981Y0022294D01*
X0157968Y0022281D01*
X0157952Y0022265D01*
X0157934Y0022247D01*
X0157914Y0022225D01*
X0157892Y0022203D01*
X015787Y0022178D01*
X0157846Y002215D01*
X0157801Y0022094D01*
X0157759Y0022034D01*
X0157741Y0022003D01*
X0157724Y0021972D01*
X0157524D01*
Y00245D01*
X0157834D01*
Y0022531D01*
D02*
G37*
G36*
X0155946Y002454D02*
X0155972Y0024538D01*
X0156003Y0024535D01*
X0156039Y0024527D01*
X0156077Y002452D01*
X0156121Y0024509D01*
X0156167Y0024496D01*
X0156212Y0024478D01*
X0156259Y0024458D01*
X0156308Y0024433D01*
X0156356Y0024404D01*
X0156401Y0024369D01*
X0156445Y0024329D01*
X0156485Y0024283D01*
Y0024282D01*
X0156487Y002428D01*
X0156491Y0024274D01*
X0156496Y0024269D01*
X0156501Y002426D01*
X0156509Y0024249D01*
X0156516Y0024238D01*
X0156523Y0024223D01*
X0156532Y0024207D01*
X0156543Y0024189D01*
X0156552Y0024169D01*
X0156563Y0024147D01*
X0156574Y0024121D01*
X0156585Y0024096D01*
X0156598Y0024067D01*
X0156609Y0024038D01*
X015662Y0024005D01*
X0156632Y002397D01*
X0156643Y0023934D01*
X0156654Y0023894D01*
X0156665Y0023854D01*
X0156674Y002381D01*
X0156685Y0023766D01*
X0156694Y0023717D01*
X0156702Y0023668D01*
X0156709Y0023617D01*
X0156716Y0023563D01*
X0156722Y0023506D01*
X0156727Y0023448D01*
X0156729Y0023388D01*
X0156733Y0023324D01*
Y0023259D01*
Y0023257D01*
Y0023253D01*
Y0023248D01*
Y0023239D01*
Y0023228D01*
Y0023215D01*
X0156731Y0023201D01*
Y0023184D01*
X0156729Y0023148D01*
X0156727Y0023104D01*
X0156725Y0023055D01*
X0156722Y0023002D01*
X0156716Y0022946D01*
X0156711Y0022887D01*
X0156694Y0022767D01*
X0156684Y0022707D01*
X0156671Y0022649D01*
X0156658Y0022593D01*
X0156642Y002254D01*
X015664Y0022536D01*
X0156638Y0022527D01*
X0156632Y0022514D01*
X0156625Y0022494D01*
X0156614Y0022472D01*
X0156603Y0022445D01*
X0156589Y0022416D01*
X0156572Y0022385D01*
X0156556Y0022352D01*
X0156534Y0022318D01*
X0156512Y0022281D01*
X0156489Y0022247D01*
X0156461Y0022212D01*
X0156432Y0022179D01*
X0156401Y0022149D01*
X0156369Y0022119D01*
X0156367Y0022118D01*
X015636Y0022112D01*
X015635Y0022105D01*
X0156336Y0022096D01*
X0156318Y0022085D01*
X0156296Y0022072D01*
X0156272Y0022059D01*
X0156243Y0022045D01*
X0156212Y0022032D01*
X0156177Y0022019D01*
X0156139Y0022007D01*
X0156099Y0021996D01*
X0156056Y0021985D01*
X015601Y0021978D01*
X0155963Y0021974D01*
X0155912Y0021972D01*
X0155892D01*
X0155877Y0021974D01*
X0155861D01*
X0155839Y0021976D01*
X0155817Y0021979D01*
X0155792Y0021983D01*
X0155737Y0021992D01*
X0155677Y0022007D01*
X0155615Y0022027D01*
X0155586Y0022039D01*
X0155557Y0022054D01*
X0155555D01*
X015555Y0022058D01*
X0155542Y0022063D01*
X0155531Y0022069D01*
X0155519Y0022078D01*
X0155504Y0022088D01*
X0155486Y0022099D01*
X0155468Y0022114D01*
X0155428Y0022147D01*
X0155386Y0022189D01*
X0155344Y0022236D01*
X0155306Y002229D01*
X0155304Y0022292D01*
X0155302Y0022298D01*
X0155297Y0022307D01*
X0155289Y0022318D01*
X015528Y0022332D01*
X0155271Y0022351D01*
X015526Y0022371D01*
X0155249Y0022394D01*
X0155237Y002242D01*
X0155224Y0022449D01*
X0155211Y002248D01*
X0155196Y0022513D01*
X0155184Y0022547D01*
X0155173Y0022583D01*
X015516Y0022624D01*
X0155149Y0022664D01*
Y0022665D01*
X0155147Y0022674D01*
X0155144Y0022685D01*
X015514Y0022704D01*
X0155137Y0022726D01*
X0155131Y0022753D01*
X0155125Y0022784D01*
X015512Y002282D01*
X0155115Y002286D01*
X0155109Y0022906D01*
X0155104Y0022955D01*
X01551Y0023008D01*
X0155096Y0023064D01*
X0155093Y0023126D01*
X0155091Y002319D01*
Y0023259D01*
Y0023261D01*
Y0023264D01*
Y002327D01*
Y0023279D01*
Y0023288D01*
Y0023301D01*
X0155093Y0023315D01*
Y0023332D01*
X0155095Y002337D01*
X0155096Y0023414D01*
X0155098Y0023461D01*
X0155102Y0023514D01*
X0155107Y002357D01*
X0155113Y0023628D01*
X0155129Y0023746D01*
X015514Y0023807D01*
X0155153Y0023865D01*
X0155167Y0023921D01*
X0155184Y0023974D01*
X0155186Y0023978D01*
X0155187Y0023987D01*
X0155193Y0024D01*
X01552Y002402D01*
X0155211Y0024041D01*
X0155222Y0024069D01*
X0155237Y0024098D01*
X0155251Y0024129D01*
X0155269Y0024161D01*
X0155291Y0024196D01*
X0155313Y0024231D01*
X0155337Y0024267D01*
X0155364Y0024302D01*
X0155393Y0024334D01*
X0155424Y0024365D01*
X0155457Y0024394D01*
X0155459Y0024396D01*
X0155466Y00244D01*
X0155475Y0024407D01*
X015549Y0024418D01*
X0155508Y0024429D01*
X0155528Y0024442D01*
X0155553Y0024454D01*
X015558Y0024467D01*
X0155613Y0024482D01*
X0155648Y0024495D01*
X0155684Y0024507D01*
X0155724Y0024518D01*
X0155768Y0024527D01*
X0155814Y0024535D01*
X0155861Y002454D01*
X0155912Y0024542D01*
X0155928D01*
X0155946Y002454D01*
D02*
G37*
%LPC*%
G36*
X0155912Y0024287D02*
X0155903D01*
X0155892Y0024285D01*
X0155877Y0024283D01*
X0155859Y0024282D01*
X0155837Y0024276D01*
X0155814Y0024271D01*
X0155788Y0024262D01*
X0155761Y0024251D01*
X0155732Y0024238D01*
X0155702Y0024221D01*
X0155672Y0024202D01*
X0155642Y0024178D01*
X0155612Y0024151D01*
X0155582Y002412D01*
X0155555Y0024083D01*
X0155553Y0024081D01*
X015555Y0024072D01*
X0155542Y002406D01*
X0155531Y0024041D01*
X015552Y0024016D01*
X015551Y0023985D01*
X0155495Y0023948D01*
X0155482Y0023903D01*
X0155475Y0023878D01*
X015547Y002385D01*
X0155462Y0023823D01*
X0155455Y0023792D01*
X0155449Y0023759D01*
X0155444Y0023725D01*
X0155437Y0023688D01*
X0155431Y0023648D01*
X0155428Y0023608D01*
X0155422Y0023564D01*
X0155419Y0023519D01*
X0155415Y0023472D01*
X0155413Y0023423D01*
X0155411Y002337D01*
X015541Y0023315D01*
Y0023259D01*
Y0023257D01*
Y0023252D01*
Y0023242D01*
Y0023232D01*
Y0023217D01*
Y0023201D01*
X0155411Y002318D01*
Y0023159D01*
X0155413Y0023135D01*
Y0023108D01*
X0155417Y0023051D01*
X0155422Y0022989D01*
X0155428Y0022922D01*
X0155435Y0022855D01*
X0155444Y0022786D01*
X0155457Y0022716D01*
X0155471Y0022649D01*
X0155488Y0022585D01*
X0155508Y0022529D01*
X0155519Y0022502D01*
X015553Y0022478D01*
X0155542Y0022454D01*
X0155555Y0022434D01*
X0155557Y0022433D01*
X0155562Y0022425D01*
X015557Y0022416D01*
X015558Y0022401D01*
X0155595Y0022387D01*
X0155612Y0022369D01*
X0155631Y0022351D01*
X0155653Y0022331D01*
X0155679Y0022312D01*
X0155706Y0022294D01*
X0155735Y0022276D01*
X0155768Y0022261D01*
X0155803Y0022247D01*
X0155837Y0022238D01*
X0155875Y002223D01*
X0155915Y0022229D01*
X0155924D01*
X0155935Y002223D01*
X015595Y0022232D01*
X0155968Y0022234D01*
X015599Y0022238D01*
X0156012Y0022243D01*
X0156037Y0022251D01*
X0156065Y0022261D01*
X0156092Y0022272D01*
X0156121Y0022287D01*
X0156148Y0022305D01*
X0156177Y0022325D01*
X0156205Y0022349D01*
X015623Y0022378D01*
X0156256Y0022409D01*
X0156258Y0022411D01*
X0156263Y002242D01*
X015627Y0022434D01*
X0156281Y0022454D01*
X0156292Y0022482D01*
X0156305Y0022514D01*
X0156319Y0022554D01*
X0156334Y0022602D01*
X0156343Y0022627D01*
X015635Y0022656D01*
X0156358Y0022685D01*
X0156363Y0022718D01*
X015637Y0022751D01*
X0156378Y0022787D01*
X0156383Y0022826D01*
X0156389Y0022866D01*
X0156394Y0022907D01*
X01564Y0022951D01*
X0156403Y0022997D01*
X0156407Y0023044D01*
X0156411Y0023095D01*
X0156412Y0023148D01*
X0156414Y0023202D01*
Y0023259D01*
Y0023261D01*
Y0023266D01*
Y0023273D01*
Y0023286D01*
Y0023301D01*
X0156412Y0023317D01*
Y0023337D01*
Y0023359D01*
X0156411Y0023382D01*
Y0023408D01*
X0156407Y0023466D01*
X0156401Y0023528D01*
X0156396Y0023594D01*
X0156389Y0023663D01*
X0156379Y0023732D01*
X0156367Y0023801D01*
X0156354Y0023868D01*
X0156338Y0023932D01*
X0156318Y0023989D01*
X0156307Y0024016D01*
X0156296Y0024039D01*
X0156283Y0024063D01*
X015627Y0024083D01*
X0156269Y0024085D01*
X0156263Y0024092D01*
X0156256Y0024101D01*
X0156245Y0024114D01*
X015623Y002413D01*
X0156212Y0024147D01*
X0156194Y0024167D01*
X015617Y0024185D01*
X0156147Y0024203D01*
X0156119Y0024223D01*
X015609Y002424D01*
X0156057Y0024254D01*
X0156025Y0024269D01*
X0155988Y0024278D01*
X015595Y0024285D01*
X0155912Y0024287D01*
D02*
G37*
%LPD*%
D12*
X0144516Y0013811D02*
X0176484D01*
X0144516Y0035189D02*
X0176484D01*
X0144516Y0013811D02*
Y0035189D01*
X0176484Y0013811D02*
Y0035189D01*
M02*
