G04*
G04 #@! TF.GenerationSoftware,Altium Limited,Altium Designer,20.0.13 (296)*
G04*
G04 Layer_Color=8388736*
%FSTAX25Y25*%
%MOIN*%
G70*
G01*
G75*
%ADD12C,0.00787*%
%ADD15C,0.01000*%
%ADD183C,0.00197*%
%ADD184C,0.00394*%
%ADD186C,0.00400*%
D12*
X0068783Y0156122D02*
Y0168878D01*
X0054216D02*
X0068783D01*
X0054216Y0156122D02*
X0068783D01*
X0054216D02*
Y0168878D01*
X0029783Y0145622D02*
Y0158378D01*
X0015216D02*
X0029783D01*
X0015216Y0145622D02*
X0029783D01*
X0015216D02*
Y0158378D01*
D15*
X03285Y00365D02*
Y00645D01*
X02795Y00365D02*
X03285D01*
X02795D02*
Y00645D01*
X03285D01*
D183*
X0135681Y013213D02*
X0183319D01*
X0135681Y008587D02*
X0183319D01*
X0135681D02*
Y013213D01*
X0183319Y008587D02*
Y013213D01*
X0165231Y0141331D02*
X0179207D01*
Y0132669D02*
Y0141331D01*
X0165231Y0132669D02*
X0179207D01*
X0165231D02*
Y0141331D01*
X0131827Y001735D02*
Y003113D01*
X0115291Y001735D02*
Y003113D01*
X0131827D01*
X0115291Y001735D02*
X0131827D01*
X0193004Y0141673D02*
Y0163327D01*
X016387D02*
X0193004D01*
X016387Y0141673D02*
X0193004D01*
X016387D02*
Y0163327D01*
D184*
X01595Y0107032D02*
Y0110968D01*
X0157531Y0109D02*
X0161469D01*
X0121591Y002424D02*
X0125528D01*
X0123559Y0022272D02*
Y0026209D01*
D186*
X037285Y00823D02*
X038585D01*
Y00883D01*
X037285D02*
X038585D01*
X037285Y00823D02*
Y00883D01*
X0161646Y0039D02*
Y0041D01*
X0160646Y004D02*
X0162646D01*
X0146Y0039D02*
Y0041D01*
X0145Y004D02*
X0147D01*
X0154146Y006D02*
X0156146D01*
X0155146Y0059D02*
Y0061D01*
X0209846Y01925D02*
Y01945D01*
X0208846Y01935D02*
X0210846D01*
X024511Y0131D02*
Y0133D01*
X024411Y0132D02*
X024611D01*
X0248Y01425D02*
X025D01*
X0249Y01415D02*
Y01435D01*
X0072943Y0136D02*
X0074943D01*
X0073943Y0135D02*
Y0137D01*
X0092597Y0139D02*
Y0141D01*
X0091597Y014D02*
X0093597D01*
X0064943Y013615D02*
X0066943D01*
X0065943Y013515D02*
Y013715D01*
X0036Y00455D02*
Y00475D01*
X0035Y00465D02*
X0037D01*
X0153Y00775D02*
Y00795D01*
X0152Y00785D02*
X0154D01*
X0225Y0008D02*
Y001D01*
X0224Y0009D02*
X0226D01*
X0141Y0098154D02*
X0143D01*
X0142Y0097154D02*
Y0099154D01*
X0133Y0098154D02*
X0135D01*
X0134Y0097154D02*
Y0099154D01*
X02035Y0021563D02*
Y0034563D01*
Y0021563D02*
X02095D01*
Y0034563D01*
X02035D02*
X02095D01*
X0197Y00215D02*
Y00345D01*
Y00215D02*
X0203D01*
Y00345D01*
X0197D02*
X0203D01*
X0117059Y001624D02*
X0130059D01*
X0117059Y001024D02*
Y001624D01*
Y001024D02*
X0130059D01*
Y001624D01*
X0192268Y0039588D02*
Y0052587D01*
X0186268D02*
X0192268D01*
X0186268Y0039588D02*
Y0052587D01*
Y0039588D02*
X0192268D01*
X0216874Y00215D02*
Y00345D01*
X0210874D02*
X0216874D01*
X0210874Y00215D02*
Y00345D01*
Y00215D02*
X0216874D01*
X0222563D02*
Y00345D01*
X0216563D02*
X0222563D01*
X0216563Y00215D02*
Y00345D01*
Y00215D02*
X0222563D01*
X0119846Y014626D02*
Y014826D01*
X0118846Y014726D02*
X0120846D01*
X0073847Y018526D02*
X0075846D01*
X0074847Y018426D02*
Y018626D01*
X0084847Y018526D02*
X0086847D01*
X0085847Y018426D02*
Y018626D01*
X0138937Y01505D02*
X0151937D01*
Y01565D01*
X0138937D02*
X0151937D01*
X0138937Y01505D02*
Y01565D01*
Y01575D02*
X0151937D01*
Y01635D01*
X0138937D02*
X0151937D01*
X0138937Y01575D02*
Y01635D01*
X0201437Y01585D02*
Y01605D01*
X0200437Y01595D02*
X0202437D01*
X0201437Y01515D02*
Y01535D01*
X0200437Y01525D02*
X0202437D01*
X0201437Y01645D02*
Y01665D01*
X0200437Y01655D02*
X0202437D01*
X0201437Y01455D02*
Y01475D01*
X0200437Y01465D02*
X0202437D01*
X03584Y00823D02*
X03714D01*
Y00883D01*
X03584D02*
X03714D01*
X03584Y00823D02*
Y00883D01*
X0387Y0075353D02*
Y0088354D01*
Y0075353D02*
X0393D01*
Y0088354D01*
X0387D02*
X0393D01*
X0348Y0049013D02*
X035D01*
X0349Y0048013D02*
Y0050013D01*
X01525Y0298D02*
Y0311D01*
X01465D02*
X01525D01*
X01465Y0298D02*
Y0311D01*
Y0298D02*
X01525D01*
X0065831Y0150012D02*
Y0152012D01*
X0064831Y0151012D02*
X0066831D01*
X00045Y0086D02*
X00065D01*
X00055Y0085D02*
Y0087D01*
X014915Y0063D02*
Y0065D01*
X014815Y0064D02*
X015015D01*
X03395Y0058013D02*
X03585D01*
Y0049013D02*
Y0058013D01*
X03395Y0049013D02*
X03585D01*
X03395D02*
Y0058013D01*
X0547677Y0346D02*
Y0348D01*
X0546677Y0347D02*
X0548677D01*
X00085Y0188D02*
X00255D01*
Y0163D02*
Y0188D01*
X00085Y0163D02*
X00255D01*
X00085D02*
Y0188D01*
X0107943Y0131D02*
Y0133D01*
X0106943Y0132D02*
X0108943D01*
X0080943Y0136D02*
X0082943D01*
X0081943Y0135D02*
Y0137D01*
X007Y0071D02*
X0083D01*
Y0077D01*
X007D02*
X0083D01*
X007Y0071D02*
Y0077D01*
Y0078D02*
X0083D01*
Y0084D01*
X007D02*
X0083D01*
X007Y0078D02*
Y0084D01*
X00501Y00619D02*
Y00749D01*
Y00619D02*
X00561D01*
Y00749D01*
X00501D02*
X00561D01*
X00045Y0070591D02*
X00065D01*
X00055Y0069591D02*
Y0071591D01*
X0237455Y0012D02*
X0250455D01*
X0237455Y0006D02*
Y0012D01*
Y0006D02*
X0250455D01*
Y0012D01*
X0183311Y0117461D02*
Y0130461D01*
Y0117461D02*
X0189311D01*
Y0130461D01*
X0183311D02*
X0189311D01*
X0232Y0076653D02*
X0234D01*
X0233Y0075653D02*
Y0077653D01*
X0232Y0062D02*
X0234D01*
X0233Y0061D02*
Y0063D01*
X01485Y0098154D02*
X01505D01*
X01495Y0097154D02*
Y0099154D01*
X0203Y00555D02*
Y00685D01*
X0197D02*
X0203D01*
X0197Y00555D02*
Y00685D01*
Y00555D02*
X0203D01*
X01768Y0064D02*
X01788D01*
X01778Y0063D02*
Y0065D01*
X01688Y0064D02*
X01708D01*
X01698Y0063D02*
Y0065D01*
X01603Y0064D02*
X01623D01*
X01613Y0063D02*
Y0065D01*
X0144846Y016326D02*
X0146846D01*
X0145846Y016226D02*
Y016426D01*
X0063653Y0188D02*
Y019D01*
X0062653Y0189D02*
X0064653D01*
X0160437Y0137819D02*
Y0150819D01*
X0154437D02*
X0160437D01*
X0154437Y0137819D02*
Y0150819D01*
Y0137819D02*
X0160437D01*
X0161437Y0151207D02*
Y0164207D01*
X0155437D02*
X0161437D01*
X0155437Y0151207D02*
Y0164207D01*
Y0151207D02*
X0161437D01*
X03305Y0049D02*
X03385D01*
X03305D02*
Y0064D01*
X03385D01*
Y0049D02*
Y0064D01*
X02755Y0117D02*
X02885D01*
X02755Y0111D02*
Y0117D01*
Y0111D02*
X02885D01*
Y0117D01*
X03205Y0114D02*
X03335D01*
Y012D01*
X03205D02*
X03335D01*
X03205Y0114D02*
Y012D01*
X03577Y0061343D02*
Y0069342D01*
X03427Y0061343D02*
X03577D01*
X03427D02*
Y0069342D01*
X03577D01*
X02745Y005D02*
X02765D01*
X02755Y0049D02*
Y0051D01*
X03325Y00465D02*
X03345D01*
X03335Y00455D02*
Y00475D01*
X01265Y03768D02*
X01295D01*
X0128Y03753D02*
Y03783D01*
X011Y03768D02*
X0113D01*
X01115Y03753D02*
Y03783D01*
X00935Y03768D02*
X00965D01*
X0095Y03753D02*
Y03783D01*
X00765Y03768D02*
X00795D01*
X0078Y03753D02*
Y03783D01*
X03545Y01535D02*
Y01635D01*
X03445Y01535D02*
X03545D01*
Y01435D02*
Y01535D01*
X03645D01*
X05835Y0046D02*
Y0056D01*
X05735Y0046D02*
X05835D01*
Y0036D02*
Y0046D01*
X05935D01*
X00245Y0022D02*
X00345D01*
X00245D02*
Y0032D01*
Y0012D02*
Y0022D01*
X00145D02*
X00245D01*
Y04085D02*
X00345D01*
X00245D02*
Y04185D01*
Y03985D02*
Y04085D01*
X00145D02*
X00245D01*
X0594D02*
Y04185D01*
X0584Y04085D02*
X0594D01*
Y03985D02*
Y04085D01*
X0604D01*
M02*
