%TF.GenerationSoftware,Altium Limited,Altium Designer,20.0.13 (296)*%
G04 Layer_Color=16711935*
%FSLAX26Y26*%
%MOIN*%
%TF.FileFunction,Other,Mechanical_13*%
%TF.Part,Single*%
G01*
G75*
%TA.AperFunction,NonConductor*%
%ADD189C,0.003937*%
%ADD196R,0.114961X0.024358*%
D189*
X3663000Y945000D02*
G03*
X3663000Y945000I-50000J0D01*
G01*
X4045000Y838000D02*
G03*
X4045000Y838000I-50000J0D01*
G01*
X2182047Y517638D02*
G03*
X2182047Y517638I-19685J0D01*
G01*
X1271850Y285000D02*
G03*
X1271850Y285000I-196850J0D01*
G01*
X826850D02*
G03*
X826850Y285000I-196850J0D01*
G01*
X1922205Y757795D02*
X2197795D01*
X1922205Y482205D02*
X2197795D01*
X1922205D02*
Y757795D01*
X2197795Y482205D02*
Y757795D01*
X219461Y918071D02*
Y1051929D01*
X113161D02*
X219461D01*
X113161Y918071D02*
X219461D01*
X113161D02*
Y1051929D01*
X250957Y1157047D02*
Y1262953D01*
X187964Y1157047D02*
Y1262953D01*
X250957D01*
X187964Y1157047D02*
X250957D01*
X2686496Y1512165D02*
Y1618465D01*
X2623504Y1512165D02*
Y1618465D01*
X2686496D01*
X2623504Y1512165D02*
X2686496D01*
X127480Y1159449D02*
Y1340551D01*
X12520D02*
X127480D01*
X12520Y1159449D02*
X127480D01*
X12520D02*
Y1340551D01*
X1106988Y1357677D02*
Y1442323D01*
X1051870D02*
X1106988D01*
X1051870Y1357677D02*
X1106988D01*
X1051870D02*
Y1442323D01*
D196*
X70000Y1171629D02*
D03*
%TF.MD5,ee2cc01beff1e4e4bfd458571319a87a*%
M02*
