%TF.GenerationSoftware,Altium Limited,Altium Designer,20.0.13 (296)*%
G04 Layer_Color=8388736*
%FSLAX26Y26*%
%MOIN*%
%TF.FileFunction,Other,Board*%
%TF.Part,Single*%
G01*
G75*
%TA.AperFunction,NonConductor*%
%ADD108C,0.005000*%
D108*
X3110015Y4229000D02*
G03*
X3009985Y4229000I-50015J0D01*
G01*
Y4080000D02*
G03*
X3110015Y4080000I50015J0D01*
G01*
X3085015Y1918000D02*
G03*
X2984985Y1918000I-50015J0D01*
G01*
Y1742000D02*
G03*
X3085015Y1742000I50015J0D01*
G01*
Y1394000D02*
G03*
X2984985Y1394000I-50015J0D01*
G01*
Y1036000D02*
G03*
X3085015Y1036000I50015J0D01*
G01*
Y694000D02*
G03*
X2984985Y694000I-50015J0D01*
G01*
Y311000D02*
G03*
X3085015Y311000I50015J0D01*
G01*
X201929Y4304685D02*
G03*
X1929Y4104685I0J-200000D01*
G01*
X6201929D02*
G03*
X6001929Y4304685I-200000J0D01*
G01*
Y4685D02*
G03*
X6201929Y204685I0J200000D01*
G01*
X1929D02*
G03*
X201929Y4685I200000J0D01*
G01*
X3009985Y4080000D02*
Y4229000D01*
X3110015Y4080000D02*
Y4229000D01*
X2984985Y1742000D02*
Y1918000D01*
X3085015Y1742000D02*
Y1918000D01*
X2984985Y1036000D02*
Y1394000D01*
X3085015Y1036000D02*
Y1394000D01*
X2984985Y311000D02*
Y694000D01*
X3085015Y311000D02*
Y694000D01*
X1929Y204685D02*
Y4104685D01*
X201929Y4304685D02*
X6001929D01*
X6201929Y204685D02*
Y4104685D01*
X201929Y4685D02*
X6001929D01*
%TF.MD5,5cb69e9f1d0ecfe4e7ae082ee4378295*%
M02*
