G04*
G04 #@! TF.GenerationSoftware,Altium Limited,Altium Designer,20.0.13 (296)*
G04*
G04 Layer_Color=128*
%FSTAX25Y25*%
%MOIN*%
G70*
G01*
G75*
%ADD185C,0.00200*%
D185*
X0008Y0305856D02*
X0012D01*
X001Y0303856D02*
Y0307856D01*
X0008Y0344911D02*
X0012D01*
X001Y0342911D02*
Y0346911D01*
X0021386Y0305856D02*
X0025386D01*
X0023386Y0303856D02*
Y0307856D01*
X0021386Y0344911D02*
X0025386D01*
X0023386Y0342911D02*
Y0346911D01*
X0360645Y00755D02*
X0363755D01*
X03622Y0073945D02*
Y0077055D01*
X0370645Y00655D02*
X0373755D01*
X03722Y0063945D02*
Y0067055D01*
X0360645Y00555D02*
X0363755D01*
X03622Y0053945D02*
Y0057055D01*
X0168335Y00295D02*
X0172665D01*
X01705Y0027335D02*
Y0031665D01*
X0168335Y00195D02*
X0172665D01*
X01705Y0017335D02*
Y0021665D01*
X0158335Y00295D02*
X0162665D01*
X01605Y0027335D02*
Y0031665D01*
X0158335Y00195D02*
X0162665D01*
X01605Y0017335D02*
Y0021665D01*
X0148335Y00295D02*
X0152665D01*
X01505Y0027335D02*
Y0031665D01*
X0148335Y00195D02*
X0152665D01*
X01505Y0017335D02*
Y0021665D01*
X0352871Y024526D02*
X0355571D01*
X0354221Y024391D02*
Y024661D01*
X0498701Y0252D02*
X0511299D01*
X0505Y0245701D02*
Y0258299D01*
X0498701Y03475D02*
X0511299D01*
X0505Y0341201D02*
Y0353799D01*
X0259701Y033D02*
X0272299D01*
X0266Y0323701D02*
Y0336299D01*
X0259701Y0269D02*
X0272299D01*
X0266Y0262701D02*
Y0275299D01*
X03593Y00945D02*
X03633D01*
X03613Y00925D02*
Y00965D01*
X03975Y00838D02*
X04015D01*
X03995Y00818D02*
Y00858D01*
X043025Y00155D02*
X044275D01*
X04365Y000925D02*
Y002175D01*
X041625Y00155D02*
X042175D01*
X0419Y001275D02*
Y001825D01*
X0399951Y00155D02*
X0405451D01*
X0402701Y001275D02*
Y001825D01*
X053445Y00125D02*
X054695D01*
X05407Y000625D02*
Y001875D01*
X0555451Y00125D02*
X0560951D01*
X0558201Y000975D02*
Y001525D01*
X057175Y00125D02*
X057725D01*
X05745Y000975D02*
Y001525D01*
X00723Y0251641D02*
X00783D01*
X00753Y024864D02*
Y0254641D01*
X00723Y022046D02*
X00783D01*
X00753Y021746D02*
Y022346D01*
X001235Y02065D02*
X001865D01*
X00155Y020335D02*
Y020965D01*
X001235Y02656D02*
X001865D01*
X00155Y026245D02*
Y026875D01*
X0231388Y00335D02*
X0235738D01*
X0233563Y0031325D02*
Y0035675D01*
X0261388Y00335D02*
X0265738D01*
X0263563Y0031325D02*
Y0035675D01*
X0251388Y00335D02*
X0255738D01*
X0253563Y0031325D02*
Y0035675D01*
X0241388Y00335D02*
X0245738D01*
X0243563Y0031325D02*
Y0035675D01*
X0078835Y0066142D02*
X0082772D01*
X0080803Y0064173D02*
Y006811D01*
X0068835Y0066142D02*
X0072772D01*
X0070803Y0064173D02*
Y006811D01*
X0058835Y0066142D02*
X0062772D01*
X0060803Y0064173D02*
Y006811D01*
X03474Y01535D02*
X03616D01*
X03545Y01464D02*
Y01606D01*
X0044102Y0175248D02*
X0047646D01*
X0045874Y0173476D02*
Y017702D01*
X0044102Y0183122D02*
X0047646D01*
X0045874Y018135D02*
Y0184894D01*
X0044102Y0167374D02*
X0047646D01*
X0045874Y0165602D02*
Y0169146D01*
X0036228Y0175248D02*
X0039772D01*
X0038Y0173476D02*
Y017702D01*
X0036228Y0183122D02*
X0039772D01*
X0038Y018135D02*
Y0184894D01*
X0036228Y0167374D02*
X0039772D01*
X0038Y0165602D02*
Y0169146D01*
X0044102Y0151626D02*
X0047646D01*
X0045874Y0149854D02*
Y0153398D01*
X0044102Y01595D02*
X0047646D01*
X0045874Y0157728D02*
Y0161272D01*
X0036228Y0151626D02*
X0039772D01*
X0038Y0149854D02*
Y0153398D01*
X0036228Y01595D02*
X0039772D01*
X0038Y0157728D02*
Y0161272D01*
X0148122Y0317D02*
X0150878D01*
X01495Y0315622D02*
Y0318378D01*
X0148122Y0327D02*
X0150878D01*
X01495Y0325622D02*
Y0328378D01*
X0335032Y0123315D02*
X0338968D01*
X0337Y0121346D02*
Y0125284D01*
X0285032Y0123315D02*
X0288968D01*
X0287Y0121346D02*
Y0125284D01*
X0275031Y0123315D02*
X0278969D01*
X0277Y0121346D02*
Y0125284D01*
X0315032Y0123315D02*
X0318969D01*
X0317Y0121346D02*
Y0125284D01*
X0198031Y0316028D02*
X0201969D01*
X02Y0314059D02*
Y0317996D01*
X0198031Y02865D02*
X0201969D01*
X02Y0284531D02*
Y0288469D01*
X0051925Y0344815D02*
X0055075D01*
X00535Y034324D02*
Y034639D01*
X0051925Y03645D02*
X0055075D01*
X00535Y0362925D02*
Y0366075D01*
X0141032Y0239D02*
X0144968D01*
X0143Y0237032D02*
Y0240968D01*
X0141032Y0268528D02*
X0144968D01*
X0143Y0266559D02*
Y0270496D01*
X0513Y022D02*
X0516D01*
X05145Y02185D02*
Y02215D01*
X0593039Y022D02*
X0596039D01*
X0594539Y02185D02*
Y02215D01*
X05764Y0046D02*
X05906D01*
X05835Y00389D02*
Y00531D01*
X00174Y0022D02*
X00316D01*
X00245Y00149D02*
Y00291D01*
X0228622Y0187874D02*
X0231378D01*
X023Y0186496D02*
Y0189252D01*
X0228622Y018D02*
X0231378D01*
X023Y0178622D02*
Y0181378D01*
X0504531Y0110213D02*
X0508468D01*
X05065Y0108244D02*
Y0112181D01*
X0504531Y0061D02*
X0508468D01*
X05065Y0059031D02*
Y0062968D01*
X0465161Y0110213D02*
X0469098D01*
X046713Y0108244D02*
Y0112181D01*
X0465161Y0061D02*
X0469098D01*
X046713Y0059031D02*
Y0062968D01*
X0386613Y0047058D02*
X0390787D01*
X03887Y0044971D02*
Y0049144D01*
X0386613Y0066742D02*
X0390787D01*
X03887Y0064656D02*
Y0068829D01*
X0386613Y00569D02*
X0390787D01*
X03887Y0054813D02*
Y0058987D01*
X045787Y0029D02*
X046102D01*
X0459445Y0027425D02*
Y0030575D01*
X0516925Y0029D02*
X0520075D01*
X05185Y0027425D02*
Y0030575D01*
X0596032Y01675D02*
X0599968D01*
X0598Y0165532D02*
Y0169468D01*
X0487764Y01675D02*
X0491701D01*
X0489732Y0165532D02*
Y0169468D01*
X0323935Y0183D02*
X0327435D01*
X0325685Y018125D02*
Y018475D01*
X0284565Y0183D02*
X0288065D01*
X0286315Y018125D02*
Y018475D01*
X0256598Y0187921D02*
X0260535D01*
X0258567Y0185953D02*
Y018989D01*
X0256598Y0178079D02*
X0260535D01*
X0258567Y017611D02*
Y0180047D01*
X0189611Y04208D02*
X0194729D01*
X019217Y0418241D02*
Y0423359D01*
X0150241Y04208D02*
X0155359D01*
X01528Y0418241D02*
Y0423359D01*
X0417829Y0036315D02*
X0421329D01*
X0419579Y0034565D02*
Y0038065D01*
X0417829Y0075685D02*
X0421329D01*
X0419579Y0073935D02*
Y0077435D01*
X042025Y041575D02*
X042375D01*
X0422Y0414D02*
Y04175D01*
X038088Y041575D02*
X038438D01*
X038263Y0414D02*
Y04175D01*
X0324935Y04165D02*
X0328435D01*
X0326685Y041475D02*
Y041825D01*
X0285565Y04165D02*
X0289065D01*
X0287315Y041475D02*
Y041825D01*
X0118032Y03185D02*
X0121968D01*
X012Y0316531D02*
Y0320468D01*
X0088504Y03185D02*
X0092441D01*
X0090472Y0316531D02*
Y0320468D01*
X054575Y0073185D02*
X054925D01*
X05475Y0071435D02*
Y0074935D01*
X054575Y0033815D02*
X054925D01*
X05475Y0032065D02*
Y0035565D01*
X0420935Y0184D02*
X0424435D01*
X0422685Y018225D02*
Y018575D01*
X0381565Y0184D02*
X0385065D01*
X0383315Y018225D02*
Y018575D01*
X0546622Y0111D02*
X0549378D01*
X0548Y0109622D02*
Y0112378D01*
X0546622Y0101D02*
X0549378D01*
X0548Y0099622D02*
Y0102378D01*
X00174Y04085D02*
X00316D01*
X00245Y04014D02*
Y04156D01*
X05869Y04085D02*
X06011D01*
X0594Y04014D02*
Y04156D01*
X019425Y0267D02*
X019575D01*
X0195Y026625D02*
Y026775D01*
X023425Y0267D02*
X023575D01*
X0235Y026625D02*
Y026775D01*
X023925Y0257D02*
X024075D01*
X024Y025625D02*
Y025775D01*
X019925Y0277D02*
X020075D01*
X02Y027625D02*
Y027775D01*
X025425Y0247D02*
X025575D01*
X0255Y024625D02*
Y024775D01*
X026425Y0247D02*
X026575D01*
X0265Y024625D02*
Y024775D01*
X021425Y0247D02*
X021575D01*
X0215Y024625D02*
Y024775D01*
X024925Y0277D02*
X025075D01*
X025Y027625D02*
Y027775D01*
X024925Y0257D02*
X025075D01*
X025Y025625D02*
Y025775D01*
X022425Y0267D02*
X022575D01*
X0225Y026625D02*
Y026775D01*
X021925Y0257D02*
X022075D01*
X022Y025625D02*
Y025775D01*
X020925Y0277D02*
X021075D01*
X021Y027625D02*
Y027775D01*
X022925Y0277D02*
X023075D01*
X023Y027625D02*
Y027775D01*
X020925Y0257D02*
X021075D01*
X021Y025625D02*
Y025775D01*
X023425Y0247D02*
X023575D01*
X0235Y024625D02*
Y024775D01*
X021425Y0267D02*
X021575D01*
X0215Y026625D02*
Y026775D01*
X022925Y0257D02*
X023075D01*
X023Y025625D02*
Y025775D01*
X023925Y0277D02*
X024075D01*
X024Y027625D02*
Y027775D01*
X027925Y0257D02*
X028075D01*
X028Y025625D02*
Y025775D01*
X019925Y0257D02*
X020075D01*
X02Y025625D02*
Y025775D01*
X024425Y0267D02*
X024575D01*
X0245Y026625D02*
Y026775D01*
X027925Y0277D02*
X028075D01*
X028Y027625D02*
Y027775D01*
X024425Y0247D02*
X024575D01*
X0245Y024625D02*
Y024775D01*
X027425Y0247D02*
X027575D01*
X0275Y024625D02*
Y024775D01*
X020425Y0267D02*
X020575D01*
X0205Y026625D02*
Y026775D01*
X020425Y0247D02*
X020575D01*
X0205Y024625D02*
Y024775D01*
X019425Y0247D02*
X019575D01*
X0195Y024625D02*
Y024775D01*
X022425Y0247D02*
X022575D01*
X0225Y024625D02*
Y024775D01*
X021925Y0277D02*
X022075D01*
X022Y027625D02*
Y027775D01*
X027196Y032304D02*
X027396D01*
X027296Y032204D02*
Y032404D01*
X0274843Y033D02*
X0276842D01*
X0275842Y0329D02*
Y0331D01*
X0265Y0320158D02*
X0267D01*
X0266Y0319158D02*
Y0321158D01*
X025804Y033696D02*
X026004D01*
X025904Y033596D02*
Y033796D01*
X0255157Y033D02*
X0257157D01*
X0256157Y0329D02*
Y0331D01*
X0265Y0339843D02*
X0267D01*
X0266Y0338843D02*
Y0340843D01*
X025804Y032304D02*
X026004D01*
X025904Y032204D02*
Y032404D01*
X027196Y033696D02*
X027396D01*
X027296Y033596D02*
Y033796D01*
X027196Y026204D02*
X027396D01*
X027296Y026104D02*
Y026304D01*
X0274843Y0269D02*
X0276842D01*
X0275842Y0268D02*
Y027D01*
X0265Y0259157D02*
X0267D01*
X0266Y0258157D02*
Y0260157D01*
X025804Y027596D02*
X026004D01*
X025904Y027496D02*
Y027696D01*
X0255157Y0269D02*
X0257157D01*
X0256157Y0268D02*
Y027D01*
X0265Y0278842D02*
X0267D01*
X0266Y0277842D02*
Y0279842D01*
X025804Y026204D02*
X026004D01*
X025904Y026104D02*
Y026304D01*
X027196Y027596D02*
X027396D01*
X027296Y027496D02*
Y027696D01*
X051096Y034054D02*
X051296D01*
X051196Y033954D02*
Y034154D01*
X0513842Y03475D02*
X0515842D01*
X0514843Y03465D02*
Y03485D01*
X0504Y0337657D02*
X0506D01*
X0505Y0336658D02*
Y0338657D01*
X049704Y035446D02*
X049904D01*
X049804Y035346D02*
Y035546D01*
X0494158Y03475D02*
X0496158D01*
X0495157Y03465D02*
Y03485D01*
X0504Y0357343D02*
X0506D01*
X0505Y0356343D02*
Y0358343D01*
X049704Y034054D02*
X049904D01*
X049804Y033954D02*
Y034154D01*
X051096Y035446D02*
X051296D01*
X051196Y035346D02*
Y035546D01*
X051096Y024504D02*
X051296D01*
X051196Y024404D02*
Y024604D01*
X0513842Y0252D02*
X0515842D01*
X0514843Y0251D02*
Y0253D01*
X0504Y0242158D02*
X0506D01*
X0505Y0241158D02*
Y0243158D01*
X049704Y025896D02*
X049904D01*
X049804Y025796D02*
Y025996D01*
X0494158Y0252D02*
X0496158D01*
X0495157Y0251D02*
Y0253D01*
X0504Y0261842D02*
X0506D01*
X0505Y0260842D02*
Y0262842D01*
X049704Y024504D02*
X049904D01*
X049804Y024404D02*
Y024604D01*
X051096Y025896D02*
X051296D01*
X051196Y025796D02*
Y025996D01*
X009235Y01007D02*
X009385D01*
X00931Y009995D02*
Y010145D01*
X008995Y00805D02*
X009145D01*
X00907Y007975D02*
Y008125D01*
X0353762Y0045658D02*
X0355262D01*
X0354512Y0044908D02*
Y0046407D01*
X0233225Y0009D02*
X0234725D01*
X0233976Y000825D02*
Y000975D01*
X004485Y00645D02*
X004635D01*
X00456Y006375D02*
Y006525D01*
X004025Y00644D02*
X004175D01*
X0041Y006365D02*
Y006515D01*
X028225Y0022D02*
X028375D01*
X0283Y002125D02*
Y002275D01*
X027425Y0162D02*
X027575D01*
X0275Y016125D02*
Y016275D01*
X028175Y0147D02*
X028325D01*
X02825Y014625D02*
Y014775D01*
X027425Y0132D02*
X027575D01*
X0275Y013125D02*
Y013275D01*
X025925Y0132D02*
X026075D01*
X026Y013125D02*
Y013275D01*
X026675Y0117D02*
X026825D01*
X02675Y011625D02*
Y011775D01*
X025925Y0102D02*
X026075D01*
X026Y010125D02*
Y010275D01*
X025925Y0072D02*
X026075D01*
X026Y007125D02*
Y007275D01*
X026675Y0057D02*
X026825D01*
X02675Y005625D02*
Y005775D01*
X025925Y0042D02*
X026075D01*
X026Y004125D02*
Y004275D01*
X026675Y0027D02*
X026825D01*
X02675Y002625D02*
Y002775D01*
X025175Y0117D02*
X025325D01*
X02525Y011625D02*
Y011775D01*
X024425Y0102D02*
X024575D01*
X0245Y010125D02*
Y010275D01*
X025175Y0087D02*
X025325D01*
X02525Y008625D02*
Y008775D01*
X025175Y0057D02*
X025325D01*
X02525Y005625D02*
Y005775D01*
X024425Y0042D02*
X024575D01*
X0245Y004125D02*
Y004275D01*
X022925Y0162D02*
X023075D01*
X023Y016125D02*
Y016275D01*
X022925Y0132D02*
X023075D01*
X023Y013125D02*
Y013275D01*
X023675Y0117D02*
X023825D01*
X02375Y011625D02*
Y011775D01*
X022925Y0102D02*
X023075D01*
X023Y010125D02*
Y010275D01*
X023675Y0087D02*
X023825D01*
X02375Y008625D02*
Y008775D01*
X022175Y0147D02*
X022325D01*
X02225Y014625D02*
Y014775D01*
X021425Y0132D02*
X021575D01*
X0215Y013125D02*
Y013275D01*
X022175Y0117D02*
X022325D01*
X02225Y011625D02*
Y011775D01*
X021425Y0102D02*
X021575D01*
X0215Y010125D02*
Y010275D01*
X019175Y0117D02*
X019325D01*
X01925Y011625D02*
Y011775D01*
X019175Y0027D02*
X019325D01*
X01925Y002625D02*
Y002775D01*
X017675Y0117D02*
X017825D01*
X01775Y011625D02*
Y011775D01*
X016925Y0012D02*
X017075D01*
X017Y001125D02*
Y001275D01*
X016175Y0117D02*
X016325D01*
X01625Y011625D02*
Y011775D01*
X015425Y0102D02*
X015575D01*
X0155Y010125D02*
Y010275D01*
X015425Y0072D02*
X015575D01*
X0155Y007125D02*
Y007275D01*
X015425Y0012D02*
X015575D01*
X0155Y001125D02*
Y001275D01*
X014675Y0147D02*
X014825D01*
X01475Y014625D02*
Y014775D01*
X013925Y0072D02*
X014075D01*
X014Y007125D02*
Y007275D01*
X012425Y0162D02*
X012575D01*
X0125Y016125D02*
Y016275D01*
X013175Y0117D02*
X013325D01*
X01325Y011625D02*
Y011775D01*
X012425Y0102D02*
X012575D01*
X0125Y010125D02*
Y010275D01*
X013175Y0087D02*
X013325D01*
X01325Y008625D02*
Y008775D01*
X010925Y0102D02*
X011075D01*
X011Y010125D02*
Y010275D01*
X010175Y0147D02*
X010325D01*
X01025Y014625D02*
Y014775D01*
X010175Y0117D02*
X010325D01*
X01025Y011625D02*
Y011775D01*
X010175Y0027D02*
X010325D01*
X01025Y002625D02*
Y002775D01*
X009425Y0012D02*
X009575D01*
X0095Y001125D02*
Y001275D01*
X008675Y0147D02*
X008825D01*
X00875Y014625D02*
Y014775D01*
X008675Y0057D02*
X008825D01*
X00875Y005625D02*
Y005775D01*
X008675Y0027D02*
X008825D01*
X00875Y002625D02*
Y002775D01*
X007925Y0012D02*
X008075D01*
X008Y001125D02*
Y001275D01*
X007175Y0147D02*
X007325D01*
X00725Y014625D02*
Y014775D01*
X007175Y0087D02*
X007325D01*
X00725Y008625D02*
Y008775D01*
X007175Y0057D02*
X007325D01*
X00725Y005625D02*
Y005775D01*
X007175Y0027D02*
X007325D01*
X00725Y002625D02*
Y002775D01*
X004925Y0102D02*
X005075D01*
X005Y010125D02*
Y010275D01*
X005675Y0087D02*
X005825D01*
X00575Y008625D02*
Y008775D01*
X005675Y0057D02*
X005825D01*
X00575Y005625D02*
Y005775D01*
X005675Y0027D02*
X005825D01*
X00575Y002625D02*
Y002775D01*
X004925Y0012D02*
X005075D01*
X005Y001125D02*
Y001275D01*
X004175Y0117D02*
X004325D01*
X00425Y011625D02*
Y011775D01*
X003425Y0102D02*
X003575D01*
X0035Y010125D02*
Y010275D01*
X004175Y0087D02*
X004325D01*
X00425Y008625D02*
Y008775D01*
X004175Y0057D02*
X004325D01*
X00425Y005625D02*
Y005775D01*
X004175Y0027D02*
X004325D01*
X00425Y002625D02*
Y002775D01*
X002675Y0057D02*
X002825D01*
X00275Y005625D02*
Y005775D01*
X001925Y0042D02*
X002075D01*
X002Y004125D02*
Y004275D01*
X001175Y0147D02*
X001325D01*
X00125Y014625D02*
Y014775D01*
X000425Y0102D02*
X000575D01*
X0005Y010125D02*
Y010275D01*
X001175Y0057D02*
X001325D01*
X00125Y005625D02*
Y005775D01*
X000425Y0042D02*
X000575D01*
X0005Y004125D02*
Y004275D01*
X0224591Y0036276D02*
X0226091D01*
X0225341Y0035526D02*
Y0037025D01*
X014375Y02065D02*
X014525D01*
X01445Y020575D02*
Y020725D01*
X014375Y01865D02*
X014525D01*
X01445Y018575D02*
Y018725D01*
X013875Y02165D02*
X014025D01*
X01395Y021575D02*
Y021725D01*
X013375Y02065D02*
X013525D01*
X01345Y020575D02*
Y020725D01*
X013875Y01965D02*
X014025D01*
X01395Y019575D02*
Y019725D01*
X013375Y01865D02*
X013525D01*
X01345Y018575D02*
Y018725D01*
X012875Y02165D02*
X013025D01*
X01295Y021575D02*
Y021725D01*
X012375Y02065D02*
X012525D01*
X01245Y020575D02*
Y020725D01*
X012875Y01965D02*
X013025D01*
X01295Y019575D02*
Y019725D01*
X012375Y01865D02*
X012525D01*
X01245Y018575D02*
Y018725D01*
X011875Y02165D02*
X012025D01*
X01195Y021575D02*
Y021725D01*
X011375Y02065D02*
X011525D01*
X01145Y020575D02*
Y020725D01*
X011875Y01965D02*
X012025D01*
X01195Y019575D02*
Y019725D01*
X011375Y01865D02*
X011525D01*
X01145Y018575D02*
Y018725D01*
X010875Y02165D02*
X011025D01*
X01095Y021575D02*
Y021725D01*
X010375Y02065D02*
X010525D01*
X01045Y020575D02*
Y020725D01*
X010875Y01965D02*
X011025D01*
X01095Y019575D02*
Y019725D01*
X010375Y01865D02*
X010525D01*
X01045Y018575D02*
Y018725D01*
X009875Y02165D02*
X010025D01*
X00995Y021575D02*
Y021725D01*
X009375Y02065D02*
X009525D01*
X00945Y020575D02*
Y020725D01*
X009875Y01965D02*
X010025D01*
X00995Y019575D02*
Y019725D01*
X009375Y01865D02*
X009525D01*
X00945Y018575D02*
Y018725D01*
X008875Y02165D02*
X009025D01*
X00895Y021575D02*
Y021725D01*
X008375Y02065D02*
X008525D01*
X00845Y020575D02*
Y020725D01*
X008875Y01965D02*
X009025D01*
X00895Y019575D02*
Y019725D01*
X007375Y02065D02*
X007525D01*
X00745Y020575D02*
Y020725D01*
X007875Y01965D02*
X008025D01*
X00795Y019575D02*
Y019725D01*
X006375Y02065D02*
X006525D01*
X00645Y020575D02*
Y020725D01*
X006875Y01965D02*
X007025D01*
X00695Y019575D02*
Y019725D01*
X005875Y02165D02*
X006025D01*
X00595Y021575D02*
Y021725D01*
X004875Y02165D02*
X005025D01*
X00495Y021575D02*
Y021725D01*
X003375Y02265D02*
X003525D01*
X00345Y022575D02*
Y022725D01*
X002375Y02465D02*
X002525D01*
X00245Y024575D02*
Y024725D01*
X002875Y02365D02*
X003025D01*
X00295Y023575D02*
Y023725D01*
X002875Y02165D02*
X003025D01*
X00295Y021575D02*
Y021725D01*
X001375Y02465D02*
X001525D01*
X00145Y024575D02*
Y024725D01*
X001875Y02365D02*
X002025D01*
X00195Y023575D02*
Y023725D01*
X000375Y02465D02*
X000525D01*
X00045Y024575D02*
Y024725D01*
X000875Y02365D02*
X001025D01*
X00095Y023575D02*
Y023725D01*
X009925Y0307D02*
X010075D01*
X01Y030625D02*
Y030775D01*
X009425Y0297D02*
X009575D01*
X0095Y029625D02*
Y029775D01*
X009925Y0287D02*
X010075D01*
X01Y028625D02*
Y028775D01*
X009425Y0277D02*
X009575D01*
X0095Y027625D02*
Y027775D01*
X009925Y0267D02*
X010075D01*
X01Y026625D02*
Y026775D01*
X009425Y0257D02*
X009575D01*
X0095Y025625D02*
Y025775D01*
X009925Y0247D02*
X010075D01*
X01Y024625D02*
Y024775D01*
X009425Y0237D02*
X009575D01*
X0095Y023625D02*
Y023775D01*
X008925Y0307D02*
X009075D01*
X009Y030625D02*
Y030775D01*
X008425Y0297D02*
X008575D01*
X0085Y029625D02*
Y029775D01*
X008925Y0287D02*
X009075D01*
X009Y028625D02*
Y028775D01*
X008425Y0277D02*
X008575D01*
X0085Y027625D02*
Y027775D01*
X008925Y0267D02*
X009075D01*
X009Y026625D02*
Y026775D01*
X008925Y0247D02*
X009075D01*
X009Y024625D02*
Y024775D01*
X008425Y0237D02*
X008575D01*
X0085Y023625D02*
Y023775D01*
X007925Y0307D02*
X008075D01*
X008Y030625D02*
Y030775D01*
X007425Y0297D02*
X007575D01*
X0075Y029625D02*
Y029775D01*
X007925Y0287D02*
X008075D01*
X008Y028625D02*
Y028775D01*
X007425Y0277D02*
X007575D01*
X0075Y027625D02*
Y027775D01*
X007925Y0267D02*
X008075D01*
X008Y026625D02*
Y026775D01*
X007425Y0237D02*
X007575D01*
X0075Y023625D02*
Y023775D01*
X006925Y0307D02*
X007075D01*
X007Y030625D02*
Y030775D01*
X006425Y0297D02*
X006575D01*
X0065Y029625D02*
Y029775D01*
X006925Y0287D02*
X007075D01*
X007Y028625D02*
Y028775D01*
X006425Y0277D02*
X006575D01*
X0065Y027625D02*
Y027775D01*
X006925Y0267D02*
X007075D01*
X007Y026625D02*
Y026775D01*
X006425Y0237D02*
X006575D01*
X0065Y023625D02*
Y023775D01*
X005925Y0307D02*
X006075D01*
X006Y030625D02*
Y030775D01*
X005425Y0297D02*
X005575D01*
X0055Y029625D02*
Y029775D01*
X005925Y0287D02*
X006075D01*
X006Y028625D02*
Y028775D01*
X005425Y0277D02*
X005575D01*
X0055Y027625D02*
Y027775D01*
X005925Y0267D02*
X006075D01*
X006Y026625D02*
Y026775D01*
X005425Y0257D02*
X005575D01*
X0055Y025625D02*
Y025775D01*
X005425Y0237D02*
X005575D01*
X0055Y023625D02*
Y023775D01*
X004925Y0287D02*
X005075D01*
X005Y028625D02*
Y028775D01*
X004925Y0267D02*
X005075D01*
X005Y026625D02*
Y026775D01*
X004925Y0247D02*
X005075D01*
X005Y024625D02*
Y024775D01*
X024118Y0073307D02*
X024268D01*
X024193Y0072557D02*
Y0074057D01*
X0192254Y01365D02*
X0193754D01*
X0193004Y013575D02*
Y013725D01*
X0126155Y0007831D02*
X0127655D01*
X0126906Y0007081D02*
Y0008581D01*
X0096408Y014726D02*
X0097908D01*
X0097158Y014651D02*
Y014801D01*
X0131077Y0046D02*
X0132577D01*
X0131827Y004525D02*
Y004675D01*
X0112671Y0023654D02*
X0114171D01*
X0113421Y0022904D02*
Y0024404D01*
X0136726Y0139786D02*
X0138226D01*
X0137477Y0139036D02*
Y0140536D01*
X0129147Y013213D02*
X0130647D01*
X0129897Y013138D02*
Y013288D01*
X0119097Y0137441D02*
X0120597D01*
X0119846Y0136691D02*
Y0138191D01*
X0092193Y0132653D02*
X0093693D01*
X0092943Y0131904D02*
Y0133404D01*
X0066059Y0174163D02*
X0067559D01*
X0066809Y0173413D02*
Y0174913D01*
X0029834Y0162465D02*
X0031334D01*
X0030584Y0161715D02*
Y0163215D01*
X0204534Y0171929D02*
X0206033D01*
X0205283Y0171179D02*
Y0172679D01*
X017925Y0036103D02*
X018075D01*
X018Y0035353D02*
Y0036853D01*
X0180902Y0006842D02*
X0182402D01*
X0181652Y0006092D02*
Y0007592D01*
X026825Y00475D02*
X026975D01*
X0269Y004675D02*
Y004825D01*
X026825Y0052846D02*
X026975D01*
X0269Y0052096D02*
Y0053597D01*
X027475Y0058D02*
X027625D01*
X02755Y005725D02*
Y005875D01*
X024725Y00745D02*
X024875D01*
X0248Y007375D02*
Y007525D01*
X023725Y005855D02*
X023875D01*
X0238Y00578D02*
Y00593D01*
X021775Y00175D02*
X021925D01*
X02185Y001675D02*
Y001825D01*
X0188518Y0036D02*
X0190018D01*
X0189268Y003525D02*
Y003675D01*
X02085Y002D02*
X021D01*
X020925Y001925D02*
Y002075D01*
X01648Y0060654D02*
X01663D01*
X016555Y0059904D02*
Y0061404D01*
X0194213Y0068486D02*
X0195713D01*
X0194963Y0067736D02*
Y0069236D01*
X0213124Y0069874D02*
X0214624D01*
X0213874Y0069124D02*
Y0070624D01*
X0216274Y0073575D02*
X0217774D01*
X0217024Y0072825D02*
Y0074325D01*
X008525Y0104D02*
X008675D01*
X0086Y010325D02*
Y010475D01*
X012725Y0057276D02*
X012875D01*
X0128Y0056526D02*
Y0058026D01*
X012125Y0084D02*
X012275D01*
X0122Y008325D02*
Y008475D01*
X016375Y0073024D02*
X016525D01*
X01645Y0072274D02*
Y0073774D01*
X016875Y0048376D02*
X017025D01*
X01695Y0047626D02*
Y0049126D01*
X013875Y0050976D02*
X014025D01*
X01395Y0050226D02*
Y0051726D01*
X0134931Y009D02*
X0136431D01*
X0135681Y008925D02*
Y009075D01*
X01421Y0060553D02*
X01436D01*
X014285Y0059803D02*
Y0061304D01*
X0193817Y00885D02*
X0195317D01*
X0194567Y008775D02*
Y008925D01*
X0196887Y0085D02*
X0198387D01*
X0197637Y008425D02*
Y008575D01*
X019125Y0127665D02*
X019275D01*
X0192Y0126915D02*
Y0128415D01*
X019925Y0037D02*
X020075D01*
X02Y003625D02*
Y003775D01*
X0049058Y0117808D02*
X0050558D01*
X0049808Y0117058D02*
Y0118558D01*
X0079097Y008978D02*
X0080597D01*
X0079847Y008903D02*
Y009053D01*
X0156469Y0120361D02*
X0157969D01*
X0157219Y0119611D02*
Y0121111D01*
X0179238Y0120361D02*
X0180738D01*
X0179988Y0119611D02*
Y0121111D01*
X0136726Y0120361D02*
X0138226D01*
X0137477Y0119611D02*
Y0121111D01*
X0188042Y0104654D02*
X0189542D01*
X0188792Y0103903D02*
Y0105403D01*
X014125Y0084711D02*
X014275D01*
X0142Y0083961D02*
Y0085461D01*
X012825Y0106D02*
X012975D01*
X0129Y010525D02*
Y010675D01*
X014875Y0083105D02*
X015025D01*
X01495Y0082355D02*
Y0083855D01*
X015375Y0097154D02*
X015525D01*
X01545Y0096403D02*
Y0097904D01*
X015875Y0099753D02*
X016025D01*
X01595Y0099003D02*
Y0100504D01*
X0051058Y0121808D02*
X0052558D01*
X0051808Y0121058D02*
Y0122558D01*
X0056419Y0140326D02*
X0057919D01*
X0057169Y0139576D02*
Y0141076D01*
X019675Y0058807D02*
X019825D01*
X01975Y0058057D02*
Y0059557D01*
X019675Y0065604D02*
X019825D01*
X01975Y0064854D02*
Y0066353D01*
X0194226Y00531D02*
X0195726D01*
X0194976Y005235D02*
Y005385D01*
X013075Y015576D02*
X013225D01*
X01315Y015501D02*
Y015651D01*
X020575Y0037D02*
X020725D01*
X02065Y003625D02*
Y003775D01*
X018275Y0073024D02*
X018425D01*
X01835Y0072274D02*
Y0073774D01*
X027475Y0042D02*
X027625D01*
X02755Y004125D02*
Y004275D01*
X002975Y0188D02*
X003125D01*
X00305Y018725D02*
Y018875D01*
X002975Y0190996D02*
X003125D01*
X00305Y0190246D02*
Y0191746D01*
X0102096Y016326D02*
X0103596D01*
X0102847Y016251D02*
Y016401D01*
X000625Y014D02*
X000775D01*
X0007Y013925D02*
Y014075D01*
X000625Y0143949D02*
X000775D01*
X0007Y0143199D02*
Y0144699D01*
X004559Y02975D02*
X004709D01*
X004634Y029675D02*
Y029825D01*
X003691Y02975D02*
X003841D01*
X003766Y029675D02*
Y029825D01*
X006625Y0391059D02*
X006775D01*
X0067Y0390309D02*
Y0391809D01*
X006625Y0383D02*
X006775D01*
X0067Y038225D02*
Y038375D01*
X013785Y03905D02*
X013935D01*
X01386Y038975D02*
Y039125D01*
X013785Y0382D02*
X013935D01*
X01386Y038125D02*
Y038275D01*
X034875Y008D02*
X035025D01*
X03495Y007925D02*
Y008075D01*
X0329935Y0111D02*
X0331435D01*
X0330685Y011025D02*
Y011175D01*
X032775Y004305D02*
X032925D01*
X03285Y00423D02*
Y00438D01*
X032775Y0058D02*
X032925D01*
X03285Y005725D02*
Y005875D01*
X0197341Y0150167D02*
X019884D01*
X0198091Y0149417D02*
Y0150917D01*
X0197341Y0162833D02*
X0198841D01*
X0198091Y0162083D02*
Y0163583D01*
M02*
