%TF.GenerationSoftware,Altium Limited,Altium Designer,20.0.13 (296)*%
G04 Layer_Color=32768*
%FSLAX26Y26*%
%MOIN*%
%TF.FileFunction,Other,Fab_Notes*%
%TF.Part,Single*%
G01*
G75*
%TA.AperFunction,NonConductor*%
%ADD107C,0.010000*%
%ADD186C,0.015000*%
%ADD192C,0.001000*%
D107*
X6350934Y3798652D02*
Y3758945D01*
X6377405D01*
X6397258Y3785416D02*
X6410494D01*
X6417112Y3778799D01*
Y3758945D01*
X6397258D01*
X6390641Y3765563D01*
X6397258Y3772181D01*
X6417112D01*
X6430348Y3785416D02*
Y3765563D01*
X6436966Y3758945D01*
X6456819D01*
Y3752327D01*
X6450201Y3745709D01*
X6443583D01*
X6456819Y3758945D02*
Y3785416D01*
X6489908Y3758945D02*
X6476673D01*
X6470055Y3765563D01*
Y3778799D01*
X6476673Y3785416D01*
X6489908D01*
X6496526Y3778799D01*
Y3772181D01*
X6470055D01*
X6509762Y3785416D02*
Y3758945D01*
Y3772181D01*
X6516380Y3778799D01*
X6522998Y3785416D01*
X6529615D01*
X6377405Y3361747D02*
X6350934D01*
X6377405Y3388218D01*
Y3394836D01*
X6370787Y3401454D01*
X6357551D01*
X6350934Y3394836D01*
Y3520626D02*
X6364169D01*
X6357551D01*
Y3560333D01*
X6350934Y3553715D01*
X6629055Y3758945D02*
Y3798652D01*
X6655527Y3758945D01*
Y3798652D01*
X6675380Y3785416D02*
X6688616D01*
X6695234Y3778799D01*
Y3758945D01*
X6675380D01*
X6668762Y3765563D01*
X6675380Y3772181D01*
X6695234D01*
X6708469Y3758945D02*
Y3785416D01*
X6715087D01*
X6721705Y3778799D01*
Y3758945D01*
Y3778799D01*
X6728323Y3785416D01*
X6734941Y3778799D01*
Y3758945D01*
X6768030D02*
X6754794D01*
X6748176Y3765563D01*
Y3778799D01*
X6754794Y3785416D01*
X6768030D01*
X6774648Y3778799D01*
Y3772181D01*
X6748176D01*
X6629055Y3242574D02*
Y3202867D01*
X6648909D01*
X6655527Y3209485D01*
Y3216103D01*
X6648909Y3222721D01*
X6629055D01*
X6648909D01*
X6655527Y3229339D01*
Y3235956D01*
X6648909Y3242574D01*
X6629055D01*
X6675380Y3202867D02*
X6688616D01*
X6695234Y3209485D01*
Y3222721D01*
X6688616Y3229339D01*
X6675380D01*
X6668762Y3222721D01*
Y3209485D01*
X6675380Y3202867D01*
X6715087Y3235956D02*
Y3229339D01*
X6708469D01*
X6721705D01*
X6715087D01*
Y3209485D01*
X6721705Y3202867D01*
X6748176Y3235956D02*
Y3229339D01*
X6741559D01*
X6754794D01*
X6748176D01*
Y3209485D01*
X6754794Y3202867D01*
X6781266D02*
X6794501D01*
X6801119Y3209485D01*
Y3222721D01*
X6794501Y3229339D01*
X6781266D01*
X6774648Y3222721D01*
Y3209485D01*
X6781266Y3202867D01*
X6814355D02*
Y3229339D01*
X6820973D01*
X6827591Y3222721D01*
Y3202867D01*
Y3222721D01*
X6834208Y3229339D01*
X6840826Y3222721D01*
Y3202867D01*
X6913623Y3242574D02*
X6900387D01*
X6893769Y3235956D01*
Y3209485D01*
X6900387Y3202867D01*
X6913623D01*
X6920240Y3209485D01*
Y3235956D01*
X6913623Y3242574D01*
X6933476Y3229339D02*
X6946712Y3202867D01*
X6959948Y3229339D01*
X6993037Y3202867D02*
X6979801D01*
X6973183Y3209485D01*
Y3222721D01*
X6979801Y3229339D01*
X6993037D01*
X6999655Y3222721D01*
Y3216103D01*
X6973183D01*
X7012890Y3229339D02*
Y3202867D01*
Y3216103D01*
X7019508Y3222721D01*
X7026126Y3229339D01*
X7032744D01*
X7052597Y3202867D02*
X7065833D01*
X7059215D01*
Y3242574D01*
X7052597D01*
X7092305Y3229339D02*
X7105540D01*
X7112158Y3222721D01*
Y3202867D01*
X7092305D01*
X7085687Y3209485D01*
X7092305Y3216103D01*
X7112158D01*
X7125394Y3229339D02*
Y3209485D01*
X7132012Y3202867D01*
X7151865D01*
Y3196249D01*
X7145247Y3189631D01*
X7138630D01*
X7151865Y3202867D02*
Y3229339D01*
X6629055Y3322014D02*
Y3282307D01*
X6648909D01*
X6655527Y3288925D01*
Y3295543D01*
X6648909Y3302160D01*
X6629055D01*
X6648909D01*
X6655527Y3308778D01*
Y3315396D01*
X6648909Y3322014D01*
X6629055D01*
X6675380Y3282307D02*
X6688616D01*
X6695234Y3288925D01*
Y3302160D01*
X6688616Y3308778D01*
X6675380D01*
X6668762Y3302160D01*
Y3288925D01*
X6675380Y3282307D01*
X6715087Y3315396D02*
Y3308778D01*
X6708469D01*
X6721705D01*
X6715087D01*
Y3288925D01*
X6721705Y3282307D01*
X6748176Y3315396D02*
Y3308778D01*
X6741559D01*
X6754794D01*
X6748176D01*
Y3288925D01*
X6754794Y3282307D01*
X6781266D02*
X6794501D01*
X6801119Y3288925D01*
Y3302160D01*
X6794501Y3308778D01*
X6781266D01*
X6774648Y3302160D01*
Y3288925D01*
X6781266Y3282307D01*
X6814355D02*
Y3308778D01*
X6820973D01*
X6827591Y3302160D01*
Y3282307D01*
Y3302160D01*
X6834208Y3308778D01*
X6840826Y3302160D01*
Y3282307D01*
X6920240Y3315396D02*
X6913623Y3322014D01*
X6900387D01*
X6893769Y3315396D01*
Y3308778D01*
X6900387Y3302160D01*
X6913623D01*
X6920240Y3295543D01*
Y3288925D01*
X6913623Y3282307D01*
X6900387D01*
X6893769Y3288925D01*
X6940094Y3282307D02*
X6953330D01*
X6959948Y3288925D01*
Y3302160D01*
X6953330Y3308778D01*
X6940094D01*
X6933476Y3302160D01*
Y3288925D01*
X6940094Y3282307D01*
X6973183D02*
X6986419D01*
X6979801D01*
Y3322014D01*
X6973183D01*
X7032744D02*
Y3282307D01*
X7012890D01*
X7006273Y3288925D01*
Y3302160D01*
X7012890Y3308778D01*
X7032744D01*
X7065833Y3282307D02*
X7052597D01*
X7045980Y3288925D01*
Y3302160D01*
X7052597Y3308778D01*
X7065833D01*
X7072451Y3302160D01*
Y3295543D01*
X7045980D01*
X7085687Y3308778D02*
Y3282307D01*
Y3295543D01*
X7092305Y3302160D01*
X7098922Y3308778D01*
X7105540D01*
X6629055Y3401454D02*
Y3361747D01*
X6648909D01*
X6655527Y3368364D01*
Y3374982D01*
X6648909Y3381600D01*
X6629055D01*
X6648909D01*
X6655527Y3388218D01*
Y3394836D01*
X6648909Y3401454D01*
X6629055D01*
X6675380Y3361747D02*
X6688616D01*
X6695234Y3368364D01*
Y3381600D01*
X6688616Y3388218D01*
X6675380D01*
X6668762Y3381600D01*
Y3368364D01*
X6675380Y3361747D01*
X6715087Y3394836D02*
Y3388218D01*
X6708469D01*
X6721705D01*
X6715087D01*
Y3368364D01*
X6721705Y3361747D01*
X6748176Y3394836D02*
Y3388218D01*
X6741559D01*
X6754794D01*
X6748176D01*
Y3368364D01*
X6754794Y3361747D01*
X6781266D02*
X6794501D01*
X6801119Y3368364D01*
Y3381600D01*
X6794501Y3388218D01*
X6781266D01*
X6774648Y3381600D01*
Y3368364D01*
X6781266Y3361747D01*
X6814355D02*
Y3388218D01*
X6820973D01*
X6827591Y3381600D01*
Y3361747D01*
Y3381600D01*
X6834208Y3388218D01*
X6840826Y3381600D01*
Y3361747D01*
X6893769Y3401454D02*
Y3361747D01*
X6920240D01*
X6940094Y3388218D02*
X6953330D01*
X6959948Y3381600D01*
Y3361747D01*
X6940094D01*
X6933476Y3368364D01*
X6940094Y3374982D01*
X6959948D01*
X6973183Y3388218D02*
Y3368364D01*
X6979801Y3361747D01*
X6999655D01*
Y3355129D01*
X6993037Y3348511D01*
X6986419D01*
X6999655Y3361747D02*
Y3388218D01*
X7032744Y3361747D02*
X7019508D01*
X7012890Y3368364D01*
Y3381600D01*
X7019508Y3388218D01*
X7032744D01*
X7039362Y3381600D01*
Y3374982D01*
X7012890D01*
X7052597Y3388218D02*
Y3361747D01*
Y3374982D01*
X7059215Y3381600D01*
X7065833Y3388218D01*
X7072451D01*
X6655527Y3474276D02*
X6648909Y3480893D01*
X6635673D01*
X6629055Y3474276D01*
Y3447804D01*
X6635673Y3441186D01*
X6648909D01*
X6655527Y3447804D01*
X6675380Y3441186D02*
X6688616D01*
X6695234Y3447804D01*
Y3461040D01*
X6688616Y3467658D01*
X6675380D01*
X6668762Y3461040D01*
Y3447804D01*
X6675380Y3441186D01*
X6708469Y3467658D02*
Y3441186D01*
Y3454422D01*
X6715087Y3461040D01*
X6721705Y3467658D01*
X6728323D01*
X6768030Y3441186D02*
X6754794D01*
X6748176Y3447804D01*
Y3461040D01*
X6754794Y3467658D01*
X6768030D01*
X6774648Y3461040D01*
Y3454422D01*
X6748176D01*
X6629055Y3560333D02*
X6655527D01*
X6642291D01*
Y3520626D01*
X6675380D02*
X6688616D01*
X6695234Y3527244D01*
Y3540479D01*
X6688616Y3547097D01*
X6675380D01*
X6668762Y3540479D01*
Y3527244D01*
X6675380Y3520626D01*
X6708469Y3507390D02*
Y3547097D01*
X6728323D01*
X6734941Y3540479D01*
Y3527244D01*
X6728323Y3520626D01*
X6708469D01*
X6787884Y3560333D02*
Y3520626D01*
X6814355D01*
X6834208Y3547097D02*
X6847444D01*
X6854062Y3540479D01*
Y3520626D01*
X6834208D01*
X6827591Y3527244D01*
X6834208Y3533862D01*
X6854062D01*
X6867298Y3547097D02*
Y3527244D01*
X6873916Y3520626D01*
X6893769D01*
Y3514008D01*
X6887151Y3507390D01*
X6880533D01*
X6893769Y3520626D02*
Y3547097D01*
X6926858Y3520626D02*
X6913623D01*
X6907005Y3527244D01*
Y3540479D01*
X6913623Y3547097D01*
X6926858D01*
X6933476Y3540479D01*
Y3533862D01*
X6907005D01*
X6946712Y3547097D02*
Y3520626D01*
Y3533862D01*
X6953330Y3540479D01*
X6959948Y3547097D01*
X6966565D01*
X6629055Y3639773D02*
X6655527D01*
X6642291D01*
Y3600066D01*
X6675380D02*
X6688616D01*
X6695234Y3606684D01*
Y3619919D01*
X6688616Y3626537D01*
X6675380D01*
X6668762Y3619919D01*
Y3606684D01*
X6675380Y3600066D01*
X6708469Y3586830D02*
Y3626537D01*
X6728323D01*
X6734941Y3619919D01*
Y3606684D01*
X6728323Y3600066D01*
X6708469D01*
X6814355Y3633155D02*
X6807737Y3639773D01*
X6794501D01*
X6787884Y3633155D01*
Y3626537D01*
X6794501Y3619919D01*
X6807737D01*
X6814355Y3613301D01*
Y3606684D01*
X6807737Y3600066D01*
X6794501D01*
X6787884Y3606684D01*
X6834208Y3600066D02*
X6847444D01*
X6854062Y3606684D01*
Y3619919D01*
X6847444Y3626537D01*
X6834208D01*
X6827591Y3619919D01*
Y3606684D01*
X6834208Y3600066D01*
X6867298D02*
X6880533D01*
X6873916D01*
Y3639773D01*
X6867298D01*
X6926858D02*
Y3600066D01*
X6907005D01*
X6900387Y3606684D01*
Y3619919D01*
X6907005Y3626537D01*
X6926858D01*
X6959948Y3600066D02*
X6946712D01*
X6940094Y3606684D01*
Y3619919D01*
X6946712Y3626537D01*
X6959948D01*
X6966565Y3619919D01*
Y3613301D01*
X6940094D01*
X6979801Y3626537D02*
Y3600066D01*
Y3613301D01*
X6986419Y3619919D01*
X6993037Y3626537D01*
X6999655D01*
X6629055Y3719213D02*
X6655527D01*
X6642291D01*
Y3679505D01*
X6675380D02*
X6688616D01*
X6695234Y3686123D01*
Y3699359D01*
X6688616Y3705977D01*
X6675380D01*
X6668762Y3699359D01*
Y3686123D01*
X6675380Y3679505D01*
X6708469Y3666270D02*
Y3705977D01*
X6728323D01*
X6734941Y3699359D01*
Y3686123D01*
X6728323Y3679505D01*
X6708469D01*
X6807737Y3719213D02*
X6794501D01*
X6787884Y3712595D01*
Y3686123D01*
X6794501Y3679505D01*
X6807737D01*
X6814355Y3686123D01*
Y3712595D01*
X6807737Y3719213D01*
X6827591Y3705977D02*
X6840826Y3679505D01*
X6854062Y3705977D01*
X6887151Y3679505D02*
X6873916D01*
X6867298Y3686123D01*
Y3699359D01*
X6873916Y3705977D01*
X6887151D01*
X6893769Y3699359D01*
Y3692741D01*
X6867298D01*
X6907005Y3705977D02*
Y3679505D01*
Y3692741D01*
X6913623Y3699359D01*
X6920241Y3705977D01*
X6926858D01*
X6946712Y3679505D02*
X6959948D01*
X6953330D01*
Y3719213D01*
X6946712D01*
X6986419Y3705977D02*
X6999655D01*
X7006273Y3699359D01*
Y3679505D01*
X6986419D01*
X6979801Y3686123D01*
X6986419Y3692741D01*
X7006273D01*
X7019508Y3705977D02*
Y3686123D01*
X7026126Y3679505D01*
X7045980D01*
Y3672888D01*
X7039362Y3666270D01*
X7032744D01*
X7045980Y3679505D02*
Y3705977D01*
X7251305Y3758945D02*
Y3798652D01*
X7264541Y3785416D01*
X7277776Y3798652D01*
Y3758945D01*
X7297630Y3785416D02*
X7310866D01*
X7317484Y3778799D01*
Y3758945D01*
X7297630D01*
X7291012Y3765563D01*
X7297630Y3772181D01*
X7317484D01*
X7337337Y3792034D02*
Y3785416D01*
X7330719D01*
X7343955D01*
X7337337D01*
Y3765563D01*
X7343955Y3758945D01*
X7383662D02*
X7370426D01*
X7363808Y3765563D01*
Y3778799D01*
X7370426Y3785416D01*
X7383662D01*
X7390280Y3778799D01*
Y3772181D01*
X7363808D01*
X7403516Y3785416D02*
Y3758945D01*
Y3772181D01*
X7410133Y3778799D01*
X7416751Y3785416D01*
X7423369D01*
X7443223Y3758945D02*
X7456458D01*
X7449840D01*
Y3785416D01*
X7443223D01*
X7482930D02*
X7496165D01*
X7502783Y3778799D01*
Y3758945D01*
X7482930D01*
X7476312Y3765563D01*
X7482930Y3772181D01*
X7502783D01*
X7516019Y3758945D02*
X7529255D01*
X7522637D01*
Y3798652D01*
X7516019D01*
X7277776Y3315396D02*
X7271158Y3322014D01*
X7257923D01*
X7251305Y3315396D01*
Y3288925D01*
X7257923Y3282307D01*
X7271158D01*
X7277776Y3288925D01*
Y3302160D01*
X7264541D01*
X7291012Y3308778D02*
Y3282307D01*
Y3295543D01*
X7297630Y3302160D01*
X7304248Y3308778D01*
X7310866D01*
X7350573Y3282307D02*
X7337337D01*
X7330719Y3288925D01*
Y3302160D01*
X7337337Y3308778D01*
X7350573D01*
X7357191Y3302160D01*
Y3295543D01*
X7330719D01*
X7390280Y3282307D02*
X7377044D01*
X7370426Y3288925D01*
Y3302160D01*
X7377044Y3308778D01*
X7390280D01*
X7396898Y3302160D01*
Y3295543D01*
X7370426D01*
X7410133Y3282307D02*
Y3308778D01*
X7429987D01*
X7436605Y3302160D01*
Y3282307D01*
X7489548D02*
Y3322014D01*
X7502783Y3308778D01*
X7516019Y3322014D01*
Y3282307D01*
X7535873Y3308778D02*
X7549108D01*
X7555726Y3302160D01*
Y3282307D01*
X7535873D01*
X7529255Y3288925D01*
X7535873Y3295543D01*
X7555726D01*
X7568962Y3282307D02*
X7588815D01*
X7595433Y3288925D01*
X7588815Y3295543D01*
X7575580D01*
X7568962Y3302160D01*
X7575580Y3308778D01*
X7595433D01*
X7608669Y3282307D02*
Y3322014D01*
Y3295543D02*
X7628522Y3308778D01*
X7608669Y3295543D02*
X7628522Y3282307D01*
X7277776Y3394836D02*
X7271158Y3401454D01*
X7257923D01*
X7251305Y3394836D01*
Y3368364D01*
X7257923Y3361747D01*
X7271158D01*
X7277776Y3368364D01*
X7297630Y3361747D02*
X7310866D01*
X7317484Y3368364D01*
Y3381600D01*
X7310866Y3388218D01*
X7297630D01*
X7291012Y3381600D01*
Y3368364D01*
X7297630Y3361747D01*
X7330719Y3348511D02*
Y3388218D01*
X7350573D01*
X7357191Y3381600D01*
Y3368364D01*
X7350573Y3361747D01*
X7330719D01*
X7370426Y3348511D02*
Y3388218D01*
X7390280D01*
X7396898Y3381600D01*
Y3368364D01*
X7390280Y3361747D01*
X7370426D01*
X7429987D02*
X7416751D01*
X7410133Y3368364D01*
Y3381600D01*
X7416751Y3388218D01*
X7429987D01*
X7436605Y3381600D01*
Y3374982D01*
X7410133D01*
X7449841Y3388218D02*
Y3361747D01*
Y3374982D01*
X7456458Y3381600D01*
X7463076Y3388218D01*
X7469694D01*
X7277776Y3480893D02*
X7251305D01*
Y3461040D01*
X7264541D01*
X7251305D01*
Y3441186D01*
X7291012D02*
Y3480893D01*
X7310866D01*
X7317484Y3474276D01*
Y3461040D01*
X7310866Y3454422D01*
X7291012D01*
X7304248D02*
X7317484Y3441186D01*
X7330719Y3461040D02*
X7357191D01*
X7390280Y3441186D02*
Y3480893D01*
X7370426Y3461040D01*
X7396898D01*
X7277776Y3553715D02*
X7271158Y3560333D01*
X7257923D01*
X7251305Y3553715D01*
Y3527244D01*
X7257923Y3520626D01*
X7271158D01*
X7277776Y3527244D01*
X7297630Y3520626D02*
X7310866D01*
X7317484Y3527244D01*
Y3540479D01*
X7310866Y3547097D01*
X7297630D01*
X7291012Y3540479D01*
Y3527244D01*
X7297630Y3520626D01*
X7330719Y3507390D02*
Y3547097D01*
X7350573D01*
X7357191Y3540479D01*
Y3527244D01*
X7350573Y3520626D01*
X7330719D01*
X7370426Y3507390D02*
Y3547097D01*
X7390280D01*
X7396898Y3540479D01*
Y3527244D01*
X7390280Y3520626D01*
X7370426D01*
X7429987D02*
X7416751D01*
X7410133Y3527244D01*
Y3540479D01*
X7416751Y3547097D01*
X7429987D01*
X7436605Y3540479D01*
Y3533862D01*
X7410133D01*
X7449841Y3547097D02*
Y3520626D01*
Y3533862D01*
X7456458Y3540479D01*
X7463076Y3547097D01*
X7469694D01*
X7277776Y3633155D02*
X7271158Y3639773D01*
X7257923D01*
X7251305Y3633155D01*
Y3606684D01*
X7257923Y3600066D01*
X7271158D01*
X7277776Y3606684D01*
Y3619919D01*
X7264541D01*
X7291012Y3626537D02*
Y3600066D01*
Y3613301D01*
X7297630Y3619919D01*
X7304248Y3626537D01*
X7310866D01*
X7350573Y3600066D02*
X7337337D01*
X7330719Y3606684D01*
Y3619919D01*
X7337337Y3626537D01*
X7350573D01*
X7357191Y3619919D01*
Y3613301D01*
X7330719D01*
X7390280Y3600066D02*
X7377044D01*
X7370426Y3606684D01*
Y3619919D01*
X7377044Y3626537D01*
X7390280D01*
X7396898Y3619919D01*
Y3613301D01*
X7370426D01*
X7410133Y3600066D02*
Y3626537D01*
X7429987D01*
X7436605Y3619919D01*
Y3600066D01*
X7489548D02*
Y3639773D01*
X7502783Y3626537D01*
X7516019Y3639773D01*
Y3600066D01*
X7535873Y3626537D02*
X7549108D01*
X7555726Y3619919D01*
Y3600066D01*
X7535873D01*
X7529255Y3606684D01*
X7535873Y3613301D01*
X7555726D01*
X7568962Y3600066D02*
X7588815D01*
X7595433Y3606684D01*
X7588815Y3613301D01*
X7575580D01*
X7568962Y3619919D01*
X7575580Y3626537D01*
X7595433D01*
X7608669Y3600066D02*
Y3639773D01*
Y3613301D02*
X7628522Y3626537D01*
X7608669Y3613301D02*
X7628522Y3600066D01*
X7727962Y3798652D02*
X7754434D01*
X7741198D01*
Y3758945D01*
X7767669Y3798652D02*
Y3758945D01*
Y3778799D01*
X7774287Y3785416D01*
X7787523D01*
X7794141Y3778799D01*
Y3758945D01*
X7807376D02*
X7820612D01*
X7813994D01*
Y3785416D01*
X7807376D01*
X7866937D02*
X7847083D01*
X7840466Y3778799D01*
Y3765563D01*
X7847083Y3758945D01*
X7866937D01*
X7880173D02*
Y3798652D01*
Y3772181D02*
X7900026Y3785416D01*
X7880173Y3772181D02*
X7900026Y3758945D01*
X7919880D02*
Y3785416D01*
X7939733D01*
X7946351Y3778799D01*
Y3758945D01*
X7979440D02*
X7966205D01*
X7959587Y3765563D01*
Y3778799D01*
X7966205Y3785416D01*
X7979440D01*
X7986058Y3778799D01*
Y3772181D01*
X7959587D01*
X7999294Y3758945D02*
X8019148D01*
X8025765Y3765563D01*
X8019148Y3772181D01*
X8005912D01*
X7999294Y3778799D01*
X8005912Y3785416D01*
X8025765D01*
X8039001Y3758945D02*
X8058855D01*
X8065472Y3765563D01*
X8058855Y3772181D01*
X8045619D01*
X8039001Y3778799D01*
X8045619Y3785416D01*
X8065472D01*
X7727962Y3315396D02*
X7734580Y3322014D01*
X7747816D01*
X7754434Y3315396D01*
Y3288925D01*
X7747816Y3282307D01*
X7734580D01*
X7727962Y3288925D01*
Y3315396D01*
X7767669Y3282307D02*
Y3288925D01*
X7774287D01*
Y3282307D01*
X7767669D01*
X7800758Y3315396D02*
X7807376Y3322014D01*
X7820612D01*
X7827230Y3315396D01*
Y3308778D01*
X7820612Y3302160D01*
X7827230Y3295543D01*
Y3288925D01*
X7820612Y3282307D01*
X7807376D01*
X7800758Y3288925D01*
Y3295543D01*
X7807376Y3302160D01*
X7800758Y3308778D01*
Y3315396D01*
X7807376Y3302160D02*
X7820612D01*
X7840466Y3315396D02*
X7847083Y3322014D01*
X7860319D01*
X7866937Y3315396D01*
Y3288925D01*
X7860319Y3282307D01*
X7847083D01*
X7840466Y3288925D01*
Y3315396D01*
X7880173Y3282307D02*
Y3308778D01*
X7886791D01*
X7893408Y3302160D01*
Y3282307D01*
Y3302160D01*
X7900026Y3308778D01*
X7906644Y3302160D01*
Y3282307D01*
X7919880D02*
X7933115D01*
X7926498D01*
Y3308778D01*
X7919880D01*
X7952969Y3282307D02*
X7966205D01*
X7959587D01*
Y3322014D01*
X7952969D01*
X7727962Y3361747D02*
X7741198D01*
X7734580D01*
Y3401454D01*
X7727962Y3394836D01*
X7761051Y3361747D02*
Y3368364D01*
X7767669D01*
Y3361747D01*
X7761051D01*
X7813994D02*
Y3401454D01*
X7794141Y3381600D01*
X7820612D01*
X7833848Y3394836D02*
X7840466Y3401454D01*
X7853701D01*
X7860319Y3394836D01*
Y3368364D01*
X7853701Y3361747D01*
X7840466D01*
X7833848Y3368364D01*
Y3394836D01*
X7873555Y3361747D02*
Y3388218D01*
X7880173D01*
X7886791Y3381600D01*
Y3361747D01*
Y3381600D01*
X7893408Y3388218D01*
X7900026Y3381600D01*
Y3361747D01*
X7913262D02*
X7926498D01*
X7919880D01*
Y3388218D01*
X7913262D01*
X7946351Y3361747D02*
X7959587D01*
X7952969D01*
Y3401454D01*
X7946351D01*
X7754434Y3480893D02*
X7727962D01*
Y3461040D01*
X7741198Y3467658D01*
X7747816D01*
X7754434Y3461040D01*
Y3447804D01*
X7747816Y3441186D01*
X7734580D01*
X7727962Y3447804D01*
X7767669Y3474276D02*
X7774287Y3480893D01*
X7787523D01*
X7794141Y3474276D01*
Y3467658D01*
X7787523Y3461040D01*
X7794141Y3454422D01*
Y3447804D01*
X7787523Y3441186D01*
X7774287D01*
X7767669Y3447804D01*
Y3454422D01*
X7774287Y3461040D01*
X7767669Y3467658D01*
Y3474276D01*
X7774287Y3461040D02*
X7787523D01*
X7807376Y3441186D02*
Y3447804D01*
X7813994D01*
Y3441186D01*
X7807376D01*
X7840466Y3474276D02*
X7847083Y3480893D01*
X7860319D01*
X7866937Y3474276D01*
Y3447804D01*
X7860319Y3441186D01*
X7847083D01*
X7840466Y3447804D01*
Y3474276D01*
X7880173D02*
X7886791Y3480893D01*
X7900026D01*
X7906644Y3474276D01*
Y3447804D01*
X7900026Y3441186D01*
X7886791D01*
X7880173Y3447804D01*
Y3474276D01*
X7919880Y3441186D02*
Y3467658D01*
X7926498D01*
X7933115Y3461040D01*
Y3441186D01*
Y3461040D01*
X7939733Y3467658D01*
X7946351Y3461040D01*
Y3441186D01*
X7959587D02*
X7972823D01*
X7966205D01*
Y3467658D01*
X7959587D01*
X7992676Y3441186D02*
X8005912D01*
X7999294D01*
Y3480893D01*
X7992676D01*
X7727962Y3520626D02*
X7741198D01*
X7734580D01*
Y3560333D01*
X7727962Y3553715D01*
X7761051Y3520626D02*
Y3527244D01*
X7767669D01*
Y3520626D01*
X7761051D01*
X7813994D02*
Y3560333D01*
X7794141Y3540479D01*
X7820612D01*
X7833848Y3553715D02*
X7840466Y3560333D01*
X7853701D01*
X7860319Y3553715D01*
Y3527244D01*
X7853701Y3520626D01*
X7840466D01*
X7833848Y3527244D01*
Y3553715D01*
X7873555Y3520626D02*
Y3547097D01*
X7880173D01*
X7886791Y3540479D01*
Y3520626D01*
Y3540479D01*
X7893408Y3547097D01*
X7900026Y3540479D01*
Y3520626D01*
X7913262D02*
X7926498D01*
X7919880D01*
Y3547097D01*
X7913262D01*
X7946351Y3520626D02*
X7959587D01*
X7952969D01*
Y3560333D01*
X7946351D01*
X7727962Y3633155D02*
X7734580Y3639773D01*
X7747816D01*
X7754434Y3633155D01*
Y3606684D01*
X7747816Y3600066D01*
X7734580D01*
X7727962Y3606684D01*
Y3633155D01*
X7767669Y3600066D02*
Y3606684D01*
X7774287D01*
Y3600066D01*
X7767669D01*
X7800758Y3633155D02*
X7807376Y3639773D01*
X7820612D01*
X7827230Y3633155D01*
Y3626537D01*
X7820612Y3619919D01*
X7827230Y3613301D01*
Y3606684D01*
X7820612Y3600066D01*
X7807376D01*
X7800758Y3606684D01*
Y3613301D01*
X7807376Y3619919D01*
X7800758Y3626537D01*
Y3633155D01*
X7807376Y3619919D02*
X7820612D01*
X7840466Y3633155D02*
X7847083Y3639773D01*
X7860319D01*
X7866937Y3633155D01*
Y3606684D01*
X7860319Y3600066D01*
X7847083D01*
X7840466Y3606684D01*
Y3633155D01*
X7880173Y3600066D02*
Y3626537D01*
X7886791D01*
X7893408Y3619919D01*
Y3600066D01*
Y3619919D01*
X7900026Y3626537D01*
X7906644Y3619919D01*
Y3600066D01*
X7919880D02*
X7933115D01*
X7926498D01*
Y3626537D01*
X7919880D01*
X7952969Y3600066D02*
X7966205D01*
X7959587D01*
Y3639773D01*
X7952969D01*
X8191384Y3792034D02*
X8184766Y3798652D01*
X8171530D01*
X8164912Y3792034D01*
Y3765563D01*
X8171530Y3758945D01*
X8184766D01*
X8191384Y3765563D01*
X8211237Y3758945D02*
X8224473D01*
X8231091Y3765563D01*
Y3778799D01*
X8224473Y3785416D01*
X8211237D01*
X8204619Y3778799D01*
Y3765563D01*
X8211237Y3758945D01*
X8244326D02*
Y3785416D01*
X8264180D01*
X8270798Y3778799D01*
Y3758945D01*
X8284034D02*
X8303887D01*
X8310505Y3765563D01*
X8303887Y3772181D01*
X8290651D01*
X8284034Y3778799D01*
X8290651Y3785416D01*
X8310505D01*
X8330359Y3792034D02*
Y3785416D01*
X8323741D01*
X8336976D01*
X8330359D01*
Y3765563D01*
X8336976Y3758945D01*
X8363448Y3785416D02*
X8376683D01*
X8383301Y3778799D01*
Y3758945D01*
X8363448D01*
X8356830Y3765563D01*
X8363448Y3772181D01*
X8383301D01*
X8396537Y3758945D02*
Y3785416D01*
X8416390D01*
X8423008Y3778799D01*
Y3758945D01*
X8442862Y3792034D02*
Y3785416D01*
X8436244D01*
X8449480D01*
X8442862D01*
Y3765563D01*
X8449480Y3758945D01*
X8184766Y3282307D02*
Y3322014D01*
X8164912Y3302160D01*
X8191384D01*
X8184766Y3441186D02*
Y3480893D01*
X8164912Y3461040D01*
X8191384D01*
X8204619Y3441186D02*
Y3447804D01*
X8211237D01*
Y3441186D01*
X8204619D01*
X8264180D02*
X8237709D01*
X8264180Y3467658D01*
Y3474276D01*
X8257562Y3480893D01*
X8244326D01*
X8237709Y3474276D01*
X8184766Y3600066D02*
Y3639773D01*
X8164912Y3619919D01*
X8191384D01*
X8575391Y3792034D02*
X8568773Y3798652D01*
X8555537D01*
X8548920Y3792034D01*
Y3765563D01*
X8555537Y3758945D01*
X8568773D01*
X8575391Y3765563D01*
Y3778799D01*
X8562155D01*
X8608480Y3758945D02*
X8595245D01*
X8588627Y3765563D01*
Y3778799D01*
X8595245Y3785416D01*
X8608480D01*
X8615098Y3778799D01*
Y3772181D01*
X8588627D01*
X8628334Y3785416D02*
Y3758945D01*
Y3772181D01*
X8634952Y3778799D01*
X8641569Y3785416D01*
X8648187D01*
X8668041Y3798652D02*
Y3758945D01*
X8687894D01*
X8694512Y3765563D01*
Y3772181D01*
Y3778799D01*
X8687894Y3785416D01*
X8668041D01*
X8727602Y3758945D02*
X8714366D01*
X8707748Y3765563D01*
Y3778799D01*
X8714366Y3785416D01*
X8727602D01*
X8734219Y3778799D01*
Y3772181D01*
X8707748D01*
X8747455Y3785416D02*
Y3758945D01*
Y3772181D01*
X8754073Y3778799D01*
X8760691Y3785416D01*
X8767309D01*
X8575391Y3235956D02*
X8568773Y3242574D01*
X8555537D01*
X8548920Y3235956D01*
Y3209485D01*
X8555537Y3202867D01*
X8568773D01*
X8575391Y3209485D01*
Y3222721D01*
X8562155D01*
X8588627Y3242574D02*
Y3202867D01*
X8608480D01*
X8615098Y3209485D01*
Y3216103D01*
X8608480Y3222721D01*
X8588627D01*
X8608480D01*
X8615098Y3229339D01*
Y3235956D01*
X8608480Y3242574D01*
X8588627D01*
X8648187D02*
X8634952D01*
X8628334Y3235956D01*
Y3209485D01*
X8634952Y3202867D01*
X8648187D01*
X8654805Y3209485D01*
Y3235956D01*
X8648187Y3242574D01*
X8575391Y3315396D02*
X8568773Y3322014D01*
X8555537D01*
X8548920Y3315396D01*
Y3288925D01*
X8555537Y3282307D01*
X8568773D01*
X8575391Y3288925D01*
Y3302160D01*
X8562155D01*
X8588627Y3322014D02*
Y3282307D01*
X8608480D01*
X8615098Y3288925D01*
Y3295543D01*
X8608480Y3302160D01*
X8588627D01*
X8608480D01*
X8615098Y3308778D01*
Y3315396D01*
X8608480Y3322014D01*
X8588627D01*
X8654805Y3315396D02*
X8648187Y3322014D01*
X8634952D01*
X8628334Y3315396D01*
Y3308778D01*
X8634952Y3302160D01*
X8648187D01*
X8654805Y3295543D01*
Y3288925D01*
X8648187Y3282307D01*
X8634952D01*
X8628334Y3288925D01*
X8575391Y3394836D02*
X8568773Y3401454D01*
X8555537D01*
X8548920Y3394836D01*
Y3368364D01*
X8555537Y3361747D01*
X8568773D01*
X8575391Y3368364D01*
Y3381600D01*
X8562155D01*
X8588627Y3401454D02*
Y3361747D01*
X8608480D01*
X8615098Y3368364D01*
Y3374982D01*
X8608480Y3381600D01*
X8588627D01*
X8608480D01*
X8615098Y3388218D01*
Y3394836D01*
X8608480Y3401454D01*
X8588627D01*
X8628334D02*
Y3361747D01*
X8654805D01*
X8575391Y3553715D02*
X8568773Y3560333D01*
X8555537D01*
X8548920Y3553715D01*
Y3527244D01*
X8555537Y3520626D01*
X8568773D01*
X8575391Y3527244D01*
Y3540479D01*
X8562155D01*
X8588627Y3560333D02*
X8615098D01*
X8601862D01*
Y3520626D01*
X8628334Y3560333D02*
Y3520626D01*
X8654805D01*
X8575391Y3633155D02*
X8568773Y3639773D01*
X8555537D01*
X8548920Y3633155D01*
Y3606684D01*
X8555537Y3600066D01*
X8568773D01*
X8575391Y3606684D01*
Y3619919D01*
X8562155D01*
X8588627Y3639773D02*
X8615098D01*
X8601862D01*
Y3600066D01*
X8654805Y3633155D02*
X8648187Y3639773D01*
X8634952D01*
X8628334Y3633155D01*
Y3626537D01*
X8634952Y3619919D01*
X8648187D01*
X8654805Y3613301D01*
Y3606684D01*
X8648187Y3600066D01*
X8634952D01*
X8628334Y3606684D01*
X8575391Y3712595D02*
X8568773Y3719213D01*
X8555537D01*
X8548920Y3712595D01*
Y3686123D01*
X8555537Y3679505D01*
X8568773D01*
X8575391Y3686123D01*
Y3699359D01*
X8562155D01*
X8588627Y3719213D02*
X8615098D01*
X8601862D01*
Y3679505D01*
X8648187Y3719213D02*
X8634952D01*
X8628334Y3712595D01*
Y3686123D01*
X8634952Y3679505D01*
X8648187D01*
X8654805Y3686123D01*
Y3712595D01*
X8648187Y3719213D01*
X8866748Y3798652D02*
Y3758945D01*
X8886602D01*
X8893220Y3765563D01*
Y3772181D01*
X8886602Y3778799D01*
X8866748D01*
X8886602D01*
X8893220Y3785416D01*
Y3792034D01*
X8886602Y3798652D01*
X8866748D01*
X8913073Y3758945D02*
X8926309D01*
X8932927Y3765563D01*
Y3778799D01*
X8926309Y3785416D01*
X8913073D01*
X8906456Y3778799D01*
Y3765563D01*
X8913073Y3758945D01*
X8952780Y3785416D02*
X8966016D01*
X8972634Y3778799D01*
Y3758945D01*
X8952780D01*
X8946163Y3765563D01*
X8952780Y3772181D01*
X8972634D01*
X8985870Y3785416D02*
Y3758945D01*
Y3772181D01*
X8992487Y3778799D01*
X8999105Y3785416D01*
X9005723D01*
X9052048Y3798652D02*
Y3758945D01*
X9032195D01*
X9025577Y3765563D01*
Y3778799D01*
X9032195Y3785416D01*
X9052048D01*
X9104991Y3798652D02*
Y3758945D01*
X9131462D01*
X9151316Y3785416D02*
X9164552D01*
X9171169Y3778799D01*
Y3758945D01*
X9151316D01*
X9144698Y3765563D01*
X9151316Y3772181D01*
X9171169D01*
X9184405Y3785416D02*
Y3765563D01*
X9191023Y3758945D01*
X9210877D01*
Y3752327D01*
X9204259Y3745709D01*
X9197641D01*
X9210877Y3758945D02*
Y3785416D01*
X9243966Y3758945D02*
X9230730D01*
X9224112Y3765563D01*
Y3778799D01*
X9230730Y3785416D01*
X9243966D01*
X9250584Y3778799D01*
Y3772181D01*
X9224112D01*
X9263819Y3785416D02*
Y3758945D01*
Y3772181D01*
X9270437Y3778799D01*
X9277055Y3785416D01*
X9283673D01*
X9369705Y3792034D02*
X9363087Y3798652D01*
X9349851D01*
X9343234Y3792034D01*
Y3785416D01*
X9349851Y3778799D01*
X9363087D01*
X9369705Y3772181D01*
Y3765563D01*
X9363087Y3758945D01*
X9349851D01*
X9343234Y3765563D01*
X9389558Y3792034D02*
Y3785416D01*
X9382941D01*
X9396176D01*
X9389558D01*
Y3765563D01*
X9396176Y3758945D01*
X9422648Y3785416D02*
X9435883D01*
X9442501Y3778799D01*
Y3758945D01*
X9422648D01*
X9416030Y3765563D01*
X9422648Y3772181D01*
X9442501D01*
X9482208Y3785416D02*
X9462355D01*
X9455737Y3778799D01*
Y3765563D01*
X9462355Y3758945D01*
X9482208D01*
X9495444D02*
Y3798652D01*
Y3772181D02*
X9515298Y3785416D01*
X9495444Y3772181D02*
X9515298Y3758945D01*
D186*
X6301214Y3739085D02*
X9565017D01*
X6301214Y3818525D02*
X9565017D01*
X6301214Y3183007D02*
Y3818525D01*
Y3183007D02*
X6579335D01*
X6301214Y3262447D02*
X6579335D01*
X6301214Y3341887D02*
X6579335D01*
X6301214Y3421326D02*
X6579335D01*
X6301214Y3500766D02*
X6579335D01*
X6301214Y3580206D02*
X6579335D01*
X6301214Y3659646D02*
X6579335D01*
Y3183007D02*
Y3818525D01*
Y3183007D02*
X7201585D01*
X6579335Y3262447D02*
X7201585D01*
X6579335Y3341887D02*
X7201585D01*
X6579335Y3421326D02*
X7201585D01*
X6579335Y3500766D02*
X7201585D01*
X6579335Y3580206D02*
X7201585D01*
X6579335Y3659646D02*
X7201585D01*
Y3183007D02*
Y3818525D01*
Y3183007D02*
X7678242D01*
X7201585Y3262447D02*
X7678242D01*
X7201585Y3341887D02*
X7678242D01*
X7201585Y3421326D02*
X7678242D01*
X7201585Y3500766D02*
X7678242D01*
X7201585Y3580206D02*
X7678242D01*
X7201585Y3659646D02*
X7678242D01*
Y3183007D02*
Y3818525D01*
Y3183007D02*
X8115192D01*
X7678242Y3262447D02*
X8115192D01*
X7678242Y3341887D02*
X8115192D01*
X7678242Y3421326D02*
X8115192D01*
X7678242Y3500766D02*
X8115192D01*
X7678242Y3580206D02*
X8115192D01*
X7678242Y3659646D02*
X8115192D01*
Y3183007D02*
Y3818525D01*
Y3183007D02*
X8499200D01*
X8115192Y3262447D02*
X8499200D01*
X8115192Y3341887D02*
X8499200D01*
X8115192Y3421326D02*
X8499200D01*
X8115192Y3500766D02*
X8499200D01*
X8115192Y3580206D02*
X8499200D01*
X8115192Y3659646D02*
X8499200D01*
Y3183007D02*
Y3818525D01*
Y3183007D02*
X8817029D01*
X8499200Y3262447D02*
X8817029D01*
X8499200Y3341887D02*
X8817029D01*
X8499200Y3421326D02*
X8817029D01*
X8499200Y3500766D02*
X8817029D01*
X8499200Y3580206D02*
X8817029D01*
X8499200Y3659646D02*
X8817029D01*
Y3183007D02*
Y3818525D01*
Y3183007D02*
X9565017D01*
X8817029Y3262447D02*
X9565017D01*
X8817029Y3341887D02*
X9565017D01*
X8817029Y3421326D02*
X9565017D01*
X8817029Y3500766D02*
X9565017D01*
X8817029Y3580206D02*
X9565017D01*
X8817029Y3659646D02*
X9565017D01*
Y3183007D02*
Y3818525D01*
X6301213Y997925D02*
Y1004826D01*
Y997925D02*
X6303015Y984241D01*
X6306587Y970910D01*
X6311868Y958159D01*
X6318769Y946207D01*
X6327171Y935258D01*
X6336930Y925499D01*
X6347879Y917097D01*
X6359832Y910196D01*
X6372582Y904915D01*
X6385914Y901343D01*
X6399597Y899541D01*
X6406498D01*
X9459734D01*
X9466634D01*
X9480317Y901343D01*
X9493649Y904915D01*
X9506399Y910196D01*
X9518352Y917097D01*
X9529301Y925499D01*
X9539060Y935258D01*
X9547462Y946207D01*
X9554363Y958159D01*
X9559644Y970910D01*
X9563216Y984241D01*
X9565018Y997925D01*
Y1004826D01*
Y3057863D01*
Y3064764D01*
X9563216Y3078447D02*
X9565018Y3064764D01*
X9559644Y3091779D02*
X9563216Y3078447D01*
X9554363Y3104529D02*
X9559644Y3091779D01*
X9547462Y3116482D02*
X9554363Y3104529D01*
X9539060Y3127431D02*
X9547462Y3116482D01*
X9529301Y3137190D02*
X9539060Y3127431D01*
X9518352Y3145592D02*
X9529301Y3137190D01*
X9506399Y3152493D02*
X9518352Y3145592D01*
X9493649Y3157774D02*
X9506399Y3152493D01*
X9480317Y3161346D02*
X9493649Y3157774D01*
X9466634Y3163148D02*
X9480317Y3161346D01*
X9459734Y3163148D02*
X9466634D01*
X6406498D02*
X9459734D01*
X6399597D02*
X6406498D01*
X6385914Y3161346D02*
X6399597Y3163148D01*
X6372582Y3157774D02*
X6385914Y3161346D01*
X6359832Y3152493D02*
X6372582Y3157774D01*
X6347879Y3145592D02*
X6359832Y3152493D01*
X6336930Y3137190D02*
X6347879Y3145592D01*
X6327171Y3127431D02*
X6336930Y3137190D01*
X6318769Y3116482D02*
X6327171Y3127431D01*
X6311868Y3104529D02*
X6318769Y3116482D01*
X6306587Y3091779D02*
X6311868Y3104529D01*
X6303015Y3078447D02*
X6306587Y3091779D01*
X6301213Y3064764D02*
X6303015Y3078447D01*
X6301213Y3057863D02*
Y3064764D01*
Y1004826D02*
Y3057863D01*
D192*
X9525298Y3183007D02*
X9565017Y3222727D01*
X9485578Y3183007D02*
X9565017Y3262447D01*
X9445858Y3183007D02*
X9525298Y3262447D01*
X9406138Y3183007D02*
X9485578Y3262447D01*
X9366418Y3183007D02*
X9445858Y3262447D01*
X9326698Y3183007D02*
X9406138Y3262447D01*
X9286978Y3183007D02*
X9366418Y3262447D01*
X9247258Y3183007D02*
X9326698Y3262447D01*
X9207538Y3183007D02*
X9286978Y3262447D01*
X9167818Y3183007D02*
X9247258Y3262447D01*
X9128099Y3183007D02*
X9207538Y3262447D01*
X9088379Y3183007D02*
X9167818Y3262447D01*
X9048659Y3183007D02*
X9128099Y3262447D01*
X9008939Y3183007D02*
X9088379Y3262447D01*
X8969219Y3183007D02*
X9048659Y3262447D01*
X8929499Y3183007D02*
X9008939Y3262447D01*
X8889779Y3183007D02*
X8969219Y3262447D01*
X8850059Y3183007D02*
X8929499Y3262447D01*
X8817029Y3189696D02*
X8889779Y3262447D01*
X8817029Y3229416D02*
X8850059Y3262447D01*
X9525298D02*
X9565017Y3302167D01*
X9485578Y3262447D02*
X9565017Y3341887D01*
X9445858Y3262447D02*
X9525298Y3341887D01*
X9406138Y3262447D02*
X9485578Y3341887D01*
X9366418Y3262447D02*
X9445858Y3341887D01*
X9326698Y3262447D02*
X9406138Y3341887D01*
X9286978Y3262447D02*
X9366418Y3341887D01*
X9247258Y3262447D02*
X9326698Y3341887D01*
X9207538Y3262447D02*
X9286978Y3341887D01*
X9167818Y3262447D02*
X9247258Y3341887D01*
X9128099Y3262447D02*
X9207538Y3341887D01*
X9088379Y3262447D02*
X9167818Y3341887D01*
X9048659Y3262447D02*
X9128099Y3341887D01*
X9008939Y3262447D02*
X9088379Y3341887D01*
X8969219Y3262447D02*
X9048659Y3341887D01*
X8929499Y3262447D02*
X9008939Y3341887D01*
X8889779Y3262447D02*
X8969219Y3341887D01*
X8850059Y3262447D02*
X8929499Y3341887D01*
X8817029Y3269136D02*
X8889779Y3341887D01*
X8817029Y3308856D02*
X8850059Y3341887D01*
X9525298D02*
X9565017Y3381607D01*
X9485578Y3341887D02*
X9565017Y3421326D01*
X9445858Y3341887D02*
X9525298Y3421326D01*
X9406138Y3341887D02*
X9485578Y3421326D01*
X9366418Y3341887D02*
X9445858Y3421326D01*
X9326698Y3341887D02*
X9406138Y3421326D01*
X9286978Y3341887D02*
X9366418Y3421326D01*
X9247258Y3341887D02*
X9326698Y3421326D01*
X9207538Y3341887D02*
X9286978Y3421326D01*
X9167818Y3341887D02*
X9247258Y3421326D01*
X9128099Y3341887D02*
X9207538Y3421326D01*
X9088379Y3341887D02*
X9167818Y3421326D01*
X9048659Y3341887D02*
X9128099Y3421326D01*
X9008939Y3341887D02*
X9088379Y3421326D01*
X8969219Y3341887D02*
X9048659Y3421326D01*
X8929499Y3341887D02*
X9008939Y3421326D01*
X8889779Y3341887D02*
X8969219Y3421326D01*
X8850059Y3341887D02*
X8929499Y3421326D01*
X8817029Y3348576D02*
X8889779Y3421326D01*
X8817029Y3388296D02*
X8850059Y3421326D01*
X9525298D02*
X9565017Y3461046D01*
X9485578Y3421326D02*
X9565017Y3500766D01*
X9445858Y3421326D02*
X9525298Y3500766D01*
X9406138Y3421326D02*
X9485578Y3500766D01*
X9366418Y3421326D02*
X9445858Y3500766D01*
X9326698Y3421326D02*
X9406138Y3500766D01*
X9286978Y3421326D02*
X9366418Y3500766D01*
X9247258Y3421326D02*
X9326698Y3500766D01*
X9207538Y3421326D02*
X9286978Y3500766D01*
X9167818Y3421326D02*
X9247258Y3500766D01*
X9128099Y3421326D02*
X9207538Y3500766D01*
X9088379Y3421326D02*
X9167818Y3500766D01*
X9048659Y3421326D02*
X9128099Y3500766D01*
X9008939Y3421326D02*
X9088379Y3500766D01*
X8969219Y3421326D02*
X9048659Y3500766D01*
X8929499Y3421326D02*
X9008939Y3500766D01*
X8889779Y3421326D02*
X8969219Y3500766D01*
X8850059Y3421326D02*
X8929499Y3500766D01*
X8817029Y3428015D02*
X8889779Y3500766D01*
X8817029Y3467735D02*
X8850059Y3500766D01*
X9525298D02*
X9565017Y3540486D01*
X9485578Y3500766D02*
X9565017Y3580206D01*
X9445858Y3500766D02*
X9525298Y3580206D01*
X9406138Y3500766D02*
X9485578Y3580206D01*
X9366418Y3500766D02*
X9445858Y3580206D01*
X9326698Y3500766D02*
X9406138Y3580206D01*
X9286978Y3500766D02*
X9366418Y3580206D01*
X9247258Y3500766D02*
X9326698Y3580206D01*
X9207538Y3500766D02*
X9286978Y3580206D01*
X9167818Y3500766D02*
X9247258Y3580206D01*
X9128099Y3500766D02*
X9207538Y3580206D01*
X9088379Y3500766D02*
X9167818Y3580206D01*
X9048659Y3500766D02*
X9128099Y3580206D01*
X9008939Y3500766D02*
X9088379Y3580206D01*
X8969219Y3500766D02*
X9048659Y3580206D01*
X8929499Y3500766D02*
X9008939Y3580206D01*
X8889779Y3500766D02*
X8969219Y3580206D01*
X8850059Y3500766D02*
X8929499Y3580206D01*
X8817029Y3507455D02*
X8889779Y3580206D01*
X8817029Y3547175D02*
X8850059Y3580206D01*
X9525298D02*
X9565017Y3619926D01*
X9485578Y3580206D02*
X9565017Y3659646D01*
X9445858Y3580206D02*
X9525298Y3659646D01*
X9406138Y3580206D02*
X9485578Y3659646D01*
X9366418Y3580206D02*
X9445858Y3659646D01*
X9326698Y3580206D02*
X9406138Y3659646D01*
X9286978Y3580206D02*
X9366418Y3659646D01*
X9247258Y3580206D02*
X9326698Y3659646D01*
X9207538Y3580206D02*
X9286978Y3659646D01*
X9167818Y3580206D02*
X9247258Y3659646D01*
X9128099Y3580206D02*
X9207538Y3659646D01*
X9088379Y3580206D02*
X9167818Y3659646D01*
X9048659Y3580206D02*
X9128099Y3659646D01*
X9008939Y3580206D02*
X9088379Y3659646D01*
X8969219Y3580206D02*
X9048659Y3659646D01*
X8929499Y3580206D02*
X9008939Y3659646D01*
X8889779Y3580206D02*
X8969219Y3659646D01*
X8850059Y3580206D02*
X8929499Y3659646D01*
X8817029Y3586895D02*
X8889779Y3659646D01*
X8817029Y3626615D02*
X8850059Y3659646D01*
X9525298D02*
X9565017Y3699365D01*
X9485578Y3659646D02*
X9565017Y3739085D01*
X9445858Y3659646D02*
X9525298Y3739085D01*
X9406138Y3659646D02*
X9485578Y3739085D01*
X9366418Y3659646D02*
X9445858Y3739085D01*
X9326698Y3659646D02*
X9406138Y3739085D01*
X9286978Y3659646D02*
X9366418Y3739085D01*
X9247258Y3659646D02*
X9326698Y3739085D01*
X9207538Y3659646D02*
X9286978Y3739085D01*
X9167818Y3659646D02*
X9247258Y3739085D01*
X9128099Y3659646D02*
X9207538Y3739085D01*
X9088379Y3659646D02*
X9167818Y3739085D01*
X9048659Y3659646D02*
X9128099Y3739085D01*
X9008939Y3659646D02*
X9088379Y3739085D01*
X8969219Y3659646D02*
X9048659Y3739085D01*
X8929499Y3659646D02*
X9008939Y3739085D01*
X8889779Y3659646D02*
X8969219Y3739085D01*
X8850059Y3659646D02*
X8929499Y3739085D01*
X8817029Y3666335D02*
X8889779Y3739085D01*
X8817029Y3706055D02*
X8850059Y3739085D01*
X9488919Y902882D02*
X9560912Y974875D01*
X9445317Y899000D02*
X9565018Y1018701D01*
X9405597Y899000D02*
X9565018Y1058421D01*
X9365877Y899000D02*
X9565018Y1098141D01*
X9326157Y899000D02*
X9565018Y1137861D01*
X9286437Y899000D02*
X9565018Y1177581D01*
X9246717Y899000D02*
X9565018Y1217300D01*
X9206997Y899000D02*
X9565018Y1257020D01*
X9167278Y899000D02*
X9565018Y1296740D01*
X9127558Y899000D02*
X9565018Y1336460D01*
X9087838Y899000D02*
X9565018Y1376180D01*
X9048118Y899000D02*
X9565018Y1415900D01*
X9008398Y899000D02*
X9565018Y1455620D01*
X8968678Y899000D02*
X9565018Y1495340D01*
X8928958Y899000D02*
X9565018Y1535060D01*
X8889238Y899000D02*
X9565018Y1574780D01*
X8849518Y899000D02*
X9565018Y1614499D01*
X8809799Y899000D02*
X9565018Y1654219D01*
X8770079Y899000D02*
X9565018Y1693939D01*
X8730359Y899000D02*
X9565018Y1733659D01*
X8690639Y899000D02*
X9565018Y1773379D01*
X8650919Y899000D02*
X9565018Y1813099D01*
X8611199Y899000D02*
X9565018Y1852819D01*
X8571479Y899000D02*
X9565018Y1892539D01*
X8531759Y899000D02*
X9565018Y1932259D01*
X8492039Y899000D02*
X9565018Y1971978D01*
X8452319Y899000D02*
X9565018Y2011698D01*
X8412600Y899000D02*
X9565018Y2051418D01*
X8372880Y899000D02*
X9565018Y2091138D01*
X8333160Y899000D02*
X9565018Y2130858D01*
X8293440Y899000D02*
X9565018Y2170578D01*
X8253720Y899000D02*
X9565018Y2210298D01*
X8214000Y899000D02*
X9565018Y2250018D01*
X8174280Y899000D02*
X9565018Y2289738D01*
X8134560Y899000D02*
X9565018Y2329458D01*
X8094840Y899000D02*
X9565018Y2369177D01*
X8055120Y899000D02*
X9565018Y2408897D01*
X8015400Y899000D02*
X9565018Y2448617D01*
X7975681Y899000D02*
X9565018Y2488337D01*
X7935961Y899000D02*
X9565018Y2528057D01*
X7896241Y899000D02*
X9565018Y2567777D01*
X7856521Y899000D02*
X9565018Y2607497D01*
X7816801Y899000D02*
X9565018Y2647217D01*
X7777081Y899000D02*
X9565018Y2686937D01*
X7737361Y899000D02*
X9565018Y2726657D01*
X7697641Y899000D02*
X9565018Y2766376D01*
X7657921Y899000D02*
X9565018Y2806096D01*
X7618202Y899000D02*
X9565018Y2845816D01*
X7578482Y899000D02*
X9565018Y2885536D01*
X7538762Y899000D02*
X9565018Y2925256D01*
X7499042Y899000D02*
X9565018Y2964976D01*
X7459322Y899000D02*
X9565018Y3004696D01*
X7419602Y899000D02*
X9565018Y3044416D01*
X7379882Y899000D02*
X9562557Y3081675D01*
X7340162Y899000D02*
X9551469Y3110307D01*
X7300442Y899000D02*
X9534350Y3132907D01*
X7260722Y899000D02*
X9511840Y3150117D01*
X7221002Y899000D02*
X9483312Y3161309D01*
X7181283Y899000D02*
X9445971Y3163689D01*
X7141563Y899000D02*
X9406252Y3163689D01*
X7101843Y899000D02*
X9366532Y3163689D01*
X7062123Y899000D02*
X9326812Y3163689D01*
X7022403Y899000D02*
X9287092Y3163689D01*
X6982683Y899000D02*
X9247372Y3163689D01*
X6942963Y899000D02*
X9207652Y3163689D01*
X6903243Y899000D02*
X9167932Y3163689D01*
X6863523Y899000D02*
X9128212Y3163689D01*
X6823803Y899000D02*
X9088492Y3163689D01*
X6784084Y899000D02*
X9048772Y3163689D01*
X6744364Y899000D02*
X9009053Y3163689D01*
X6704644Y899000D02*
X8969333Y3163689D01*
X6664924Y899000D02*
X8929613Y3163689D01*
X6625204Y899000D02*
X8889893Y3163689D01*
X6585484Y899000D02*
X8850173Y3163689D01*
X6545764Y899000D02*
X8810453Y3163689D01*
X6506044Y899000D02*
X8770733Y3163689D01*
X6466324Y899000D02*
X8731013Y3163689D01*
X6426605Y899000D02*
X8691293Y3163689D01*
X6388165Y900281D02*
X8651574Y3163689D01*
X6358414Y910249D02*
X8611854Y3163689D01*
X6335054Y926609D02*
X8572134Y3163689D01*
X6317084Y948360D02*
X8532414Y3163689D01*
X6305015Y976010D02*
X8492694Y3163689D01*
X6301213Y1011928D02*
X8452974Y3163689D01*
X6301213Y1051648D02*
X8413254Y3163689D01*
X6301213Y1091368D02*
X8373534Y3163689D01*
X6301213Y1131088D02*
X8333814Y3163689D01*
X6301213Y1170808D02*
X8294094Y3163689D01*
X6301213Y1210528D02*
X8254374Y3163689D01*
X6301213Y1250248D02*
X8214655Y3163689D01*
X6301213Y1289967D02*
X8174935Y3163689D01*
X6301213Y1329687D02*
X8135215Y3163689D01*
X6301213Y1369407D02*
X8095495Y3163689D01*
X6301213Y1409127D02*
X8055775Y3163689D01*
X6301213Y1448847D02*
X8016055Y3163689D01*
X6301213Y1488567D02*
X7976335Y3163689D01*
X6301213Y1528287D02*
X7936615Y3163689D01*
X6301213Y1568007D02*
X7896895Y3163689D01*
X6301213Y1607727D02*
X7857176Y3163689D01*
X6301213Y1647447D02*
X7817456Y3163689D01*
X6301213Y1687167D02*
X7777736Y3163689D01*
X6301213Y1726886D02*
X7738016Y3163689D01*
X6301213Y1766606D02*
X7698296Y3163689D01*
X6301213Y1806326D02*
X7658576Y3163689D01*
X6301213Y1846046D02*
X7618856Y3163689D01*
X6301213Y1885766D02*
X7579136Y3163689D01*
X6301213Y1925486D02*
X7539416Y3163689D01*
X6301213Y1965206D02*
X7499696Y3163689D01*
X6301213Y2004926D02*
X7459976Y3163689D01*
X6301213Y2044646D02*
X7420257Y3163689D01*
X6301213Y2084365D02*
X7380537Y3163689D01*
X6301213Y2124085D02*
X7340817Y3163689D01*
X6301213Y2163805D02*
X7301097Y3163689D01*
X6301213Y2203525D02*
X7261377Y3163689D01*
X6301213Y2243245D02*
X7221657Y3163689D01*
X6301213Y2282965D02*
X7181937Y3163689D01*
X6301213Y2322685D02*
X7142217Y3163689D01*
X6301213Y2362405D02*
X7102497Y3163689D01*
X6301213Y2402125D02*
X7062778Y3163689D01*
X6301213Y2441845D02*
X7023058Y3163689D01*
X6301213Y2481564D02*
X6983338Y3163689D01*
X6301213Y2521284D02*
X6943618Y3163689D01*
X6301213Y2561004D02*
X6903898Y3163689D01*
X6301213Y2600724D02*
X6864178Y3163689D01*
X6301213Y2640444D02*
X6824458Y3163689D01*
X6301213Y2680164D02*
X6784738Y3163689D01*
X6301213Y2719884D02*
X6745018Y3163689D01*
X6301213Y2759604D02*
X6705298Y3163689D01*
X6301213Y2799324D02*
X6665578Y3163689D01*
X6301213Y2839044D02*
X6625859Y3163689D01*
X6301213Y2878764D02*
X6586139Y3163689D01*
X6301213Y2918483D02*
X6546419Y3163689D01*
X6301213Y2958203D02*
X6506699Y3163689D01*
X6301213Y2997923D02*
X6466979Y3163689D01*
X6301213Y3037643D02*
X6427259Y3163689D01*
X6303007Y3079157D02*
X6385969Y3162119D01*
%TF.MD5,089e7e7b67c1473e547863d375ab65c6*%
M02*
