%TF.GenerationSoftware,Altium Limited,Altium Designer,20.0.13 (296)*%
G04 Layer_Color=16711935*
%FSLAX26Y26*%
%MOIN*%
%TF.FileFunction,Other,Top_Courtyard*%
%TF.Part,Single*%
G01*
G75*
%TA.AperFunction,NonConductor*%
%ADD106C,0.007874*%
%ADD107C,0.010000*%
%ADD159C,0.008000*%
%ADD188C,0.004000*%
%ADD189C,0.003937*%
%ADD195C,0.001968*%
D106*
X952126Y568898D02*
Y930000D01*
X467874Y568898D02*
Y930000D01*
X952126D01*
X467874Y568898D02*
X952126D01*
X1409213Y1529252D02*
Y1735945D01*
X1127716D02*
X1409213D01*
X1127716Y1529252D02*
X1409213D01*
X1127716D02*
Y1735945D01*
D107*
X3766997Y407501D02*
Y842499D01*
X3577000Y407501D02*
X3766997D01*
X3577000D02*
Y842499D01*
X3766997D01*
X3905004Y35000D02*
X4442008D01*
X3905004Y275000D02*
X4442008D01*
X3905004Y35000D02*
Y275000D01*
X4442008Y35000D02*
Y275000D01*
X5330000Y245000D02*
X5867004D01*
X5330000Y5000D02*
X5867004D01*
Y245000D01*
X5330000Y5000D02*
Y245000D01*
X328039Y2937921D02*
Y3227827D01*
Y2937921D02*
X511961D01*
Y3227827D01*
X328039D02*
X511961D01*
X977000Y1955500D02*
Y2765500D01*
X-202000D02*
X977000D01*
X-202000Y1955500D02*
Y2765500D01*
Y1955500D02*
X977000D01*
X2686220Y175000D02*
Y385000D01*
X2280630D02*
X2686220D01*
X2280630Y175000D02*
Y385000D01*
Y175000D02*
X2686220D01*
X6011190Y2135050D02*
Y2270000D01*
X5078543D02*
X6011190D01*
X5078543Y2128994D02*
X6011190Y2135050D01*
X5078543Y2128994D02*
Y2270000D01*
X925965Y1538599D02*
Y1726599D01*
X710965D02*
X925965D01*
X710965Y1538599D02*
X925965D01*
X710965D02*
Y1726599D01*
X5345000Y1190000D02*
X5345000Y510000D01*
X4385000Y1190000D02*
X5345000D01*
X4385000Y530000D02*
X5345000Y510000D01*
X4385000Y530000D02*
Y1190000D01*
X5295000Y90000D02*
Y495000D01*
X4485000D02*
X5295000D01*
X4485000Y90000D02*
X5295000D01*
X4485000D02*
Y495000D01*
D159*
X3335591Y1711890D02*
Y1948110D01*
X2784409D02*
X3335591D01*
X2784409Y1711890D02*
X3335591D01*
X2784409D02*
Y1948110D01*
X4313903Y284409D02*
Y835591D01*
X4077682D02*
X4313903D01*
X4077682Y284409D02*
X4313903D01*
X4077682D02*
Y835591D01*
X4298740Y4039390D02*
Y4275610D01*
X3747559D02*
X4298740D01*
X3747559Y4039390D02*
X4298740D01*
X3747559D02*
Y4275610D01*
X3345591Y4046890D02*
Y4283110D01*
X2794409D02*
X3345591D01*
X2794409Y4046890D02*
X3345591D01*
X2794409D02*
Y4283110D01*
X5593110Y259409D02*
Y810591D01*
X5356890D02*
X5593110D01*
X5356890Y259409D02*
X5593110D01*
X5356890D02*
Y810591D01*
X4305591Y1721890D02*
Y1958110D01*
X3754409D02*
X4305591D01*
X3754409Y1721890D02*
X4305591D01*
X3754409D02*
Y1958110D01*
D188*
X3715000Y1535000D02*
G03*
X3715000Y1535000I-170000J0D01*
G01*
X6005000Y460000D02*
G03*
X6005000Y460000I-170000J0D01*
G01*
X415000Y220000D02*
G03*
X415000Y220000I-170000J0D01*
G01*
Y4085000D02*
G03*
X415000Y4085000I-170000J0D01*
G01*
X6110000D02*
G03*
X6110000Y4085000I-170000J0D01*
G01*
X3793496Y843000D02*
Y863000D01*
X3783496Y853000D02*
X3803496D01*
X1551461Y430000D02*
X1681461D01*
Y370000D02*
Y430000D01*
X1551461Y370000D02*
X1681461D01*
X1551461D02*
Y430000D01*
X1395000Y370000D02*
X1525000D01*
X1395000D02*
Y430000D01*
X1525000D01*
Y370000D02*
Y430000D01*
X1521461Y535000D02*
Y665000D01*
X1581461D01*
Y535000D02*
Y665000D01*
X1521461Y535000D02*
X1581461D01*
X2033465Y1905000D02*
X2163465D01*
X2033465D02*
Y1965000D01*
X2163465D01*
Y1905000D02*
Y1965000D01*
X2386102Y1350000D02*
X2516102D01*
Y1290000D02*
Y1350000D01*
X2386102Y1290000D02*
X2516102D01*
X2386102D02*
Y1350000D01*
X2460000Y1360000D02*
Y1490000D01*
X2520000D01*
Y1360000D02*
Y1490000D01*
X2460000Y1360000D02*
X2520000D01*
X709429Y1295000D02*
Y1425000D01*
X769429D01*
Y1295000D02*
Y1425000D01*
X709429Y1295000D02*
X769429D01*
X860965Y1370000D02*
X990965D01*
X860965D02*
Y1430000D01*
X990965D01*
Y1370000D02*
Y1430000D01*
X689429Y1296500D02*
Y1426500D01*
X629429Y1296500D02*
X689429D01*
X629429D02*
Y1426500D01*
X689429D01*
X285000Y505000D02*
X435000D01*
Y425000D02*
Y505000D01*
X285000Y425000D02*
X435000D01*
X285000D02*
Y505000D01*
X1465000Y815000D02*
X1595000D01*
Y755000D02*
Y815000D01*
X1465000Y755000D02*
X1595000D01*
X1465000D02*
Y815000D01*
X2185000Y120000D02*
X2315000D01*
Y60000D02*
Y120000D01*
X2185000Y60000D02*
X2315000D01*
X2185000D02*
Y120000D01*
X1390000Y916535D02*
Y1046535D01*
X1450000D01*
Y916535D02*
Y1046535D01*
X1390000Y916535D02*
X1450000D01*
X1370000D02*
Y1046535D01*
X1310000Y916535D02*
X1370000D01*
X1310000D02*
Y1046535D01*
X1370000D01*
X2055000Y280630D02*
X2075000D01*
X2065000Y270630D02*
Y290630D01*
X1990000Y280000D02*
X2010000D01*
X2000000Y270000D02*
Y290000D01*
X1235591Y122401D02*
Y142401D01*
X1225591Y132401D02*
X1245591D01*
X1882677Y460875D02*
X1902677D01*
X1892677Y450875D02*
Y470875D01*
X2128740Y280000D02*
X2148740D01*
X2138740Y270000D02*
Y290000D01*
X2185630Y280000D02*
X2205630D01*
X2195630Y270000D02*
Y290000D01*
X1133465Y1442599D02*
X1263465D01*
X1133465D02*
Y1502599D01*
X1263465D01*
Y1442599D02*
Y1502599D01*
X708465Y1777599D02*
Y1927599D01*
X788465D01*
Y1777599D02*
Y1927599D01*
X708465Y1777599D02*
X788465D01*
X898465D02*
Y1927599D01*
X818465Y1777599D02*
X898465D01*
X818465D02*
Y1927599D01*
X898465D01*
X1454370Y1525000D02*
Y1545000D01*
X1444370Y1535000D02*
X1464370D01*
X1454370Y1595000D02*
Y1615000D01*
X1444370Y1605000D02*
X1464370D01*
X1949370Y1565000D02*
X2079370D01*
X1949370D02*
Y1625000D01*
X2079370D01*
Y1565000D02*
Y1625000D01*
X1949370Y1495000D02*
X2079370D01*
X1949370D02*
Y1555000D01*
X2079370D01*
Y1495000D02*
Y1555000D01*
X1949370Y1685000D02*
X2079370D01*
Y1625000D02*
Y1685000D01*
X1949370Y1625000D02*
X2079370D01*
X1949370D02*
Y1685000D01*
Y1495000D02*
X2079370D01*
Y1435000D02*
Y1495000D01*
X1949370Y1435000D02*
X2079370D01*
X1949370D02*
Y1495000D01*
X3649000Y843000D02*
Y863000D01*
X3639000Y853000D02*
X3659000D01*
X3890000Y818535D02*
X3910000D01*
X3900000Y808535D02*
Y828535D01*
X3530000Y415130D02*
Y565130D01*
X3450000Y415130D02*
X3530000D01*
X3450000D02*
Y565130D01*
X3530000D01*
X1485000Y3045000D02*
X1505000D01*
X1495000Y3035000D02*
Y3055000D01*
X628307Y1575122D02*
X688307D01*
X628307Y1445122D02*
Y1575122D01*
Y1445122D02*
X688307D01*
Y1575122D01*
X14000Y934000D02*
X96000D01*
X14000Y786000D02*
Y934000D01*
Y786000D02*
X96000D01*
Y934000D01*
X1461500Y575000D02*
X1521500D01*
Y705000D01*
X1461500D02*
X1521500D01*
X1461500Y575000D02*
Y705000D01*
X5351772Y3560000D02*
X5601772D01*
X5351772Y3380000D02*
Y3560000D01*
Y3380000D02*
X5601772D01*
Y3560000D01*
X150000Y1755000D02*
X170000D01*
Y1735000D02*
Y1755000D01*
Y1775000D01*
Y1755000D02*
X190000D01*
X1014429Y1290000D02*
X1144429D01*
X1014429D02*
Y1350000D01*
X1144429D01*
Y1290000D02*
Y1350000D01*
X789429Y1295000D02*
Y1425000D01*
X849429D01*
Y1295000D02*
Y1425000D01*
X789429Y1295000D02*
X849429D01*
X765000Y730000D02*
Y750000D01*
X755000Y740000D02*
X775000D01*
X765000Y800000D02*
Y820000D01*
X755000Y810000D02*
X775000D01*
X521000Y684000D02*
X541000D01*
X531000Y674000D02*
Y694000D01*
X25000Y640905D02*
Y770905D01*
X85000D01*
Y640905D02*
Y770905D01*
X25000Y640905D02*
X85000D01*
X2439547Y80000D02*
Y100000D01*
X2429547Y90000D02*
X2449547D01*
X1853110Y1239606D02*
X1873110D01*
X1863110Y1229606D02*
Y1249606D01*
X2360000Y701535D02*
Y831535D01*
X2300000Y701535D02*
X2360000D01*
X2300000D02*
Y831535D01*
X2360000D01*
Y555000D02*
Y685000D01*
X2300000Y555000D02*
X2360000D01*
X2300000D02*
Y685000D01*
X2360000D01*
X1465000Y916535D02*
Y1046535D01*
X1525000D01*
Y916535D02*
Y1046535D01*
X1465000Y916535D02*
X1525000D01*
X1990000Y620000D02*
X2010000D01*
X2000000Y610000D02*
Y630000D01*
X1748000Y575000D02*
Y705000D01*
X1808000D01*
Y575000D02*
Y705000D01*
X1748000Y575000D02*
X1808000D01*
X1668000D02*
Y705000D01*
X1728000D01*
Y575000D02*
Y705000D01*
X1668000Y575000D02*
X1728000D01*
X1583000D02*
Y705000D01*
X1643000D01*
Y575000D02*
Y705000D01*
X1583000Y575000D02*
X1643000D01*
X1428465Y1567599D02*
Y1697599D01*
X1488465D01*
Y1567599D02*
Y1697599D01*
X1428465Y1567599D02*
X1488465D01*
X571535Y1920000D02*
X701535D01*
Y1860000D02*
Y1920000D01*
X571535Y1860000D02*
X701535D01*
X571535D02*
Y1920000D01*
X1564370Y1443189D02*
X1584370D01*
X1574370Y1433189D02*
Y1453189D01*
Y1577067D02*
X1594370D01*
X1584370Y1567067D02*
Y1587067D01*
X3345000Y555000D02*
Y575000D01*
X3335000Y565000D02*
X3355000D01*
X2820000Y1130000D02*
Y1150000D01*
X2810000Y1140000D02*
X2830000D01*
X3270000Y1160000D02*
Y1180000D01*
X3260000Y1170000D02*
X3280000D01*
X3492000Y653425D02*
X3512000D01*
X3502000Y643425D02*
Y663425D01*
X2785000Y435000D02*
Y565000D01*
X2725000Y435000D02*
X2785000D01*
X2725000D02*
Y565000D01*
X2785000D01*
X3365000Y400000D02*
Y530000D01*
X3305000Y400000D02*
X3365000D01*
X3305000D02*
Y530000D01*
X3365000D01*
X1205000Y3873000D02*
X1355000D01*
X1205000Y3663000D02*
Y3873000D01*
Y3663000D02*
X1355000D01*
Y3873000D01*
X1040000Y3873000D02*
X1190000D01*
X1040000Y3663000D02*
Y3873000D01*
Y3663000D02*
X1190000D01*
Y3873000D01*
X875000Y3873000D02*
X1025000D01*
X875000Y3663000D02*
Y3873000D01*
Y3663000D02*
X1025000D01*
Y3873000D01*
X705000D02*
X855000D01*
X705000Y3663000D02*
Y3873000D01*
Y3663000D02*
X855000D01*
Y3873000D01*
D189*
X2500315Y1585000D02*
X2539685D01*
X2520000Y1565315D02*
Y1604685D01*
X1028465Y1612914D02*
Y1652284D01*
X1008779Y1632599D02*
X1048150D01*
X2060000Y600315D02*
Y639685D01*
X2040315Y620000D02*
X2079685D01*
X2071228Y1824071D02*
X2110598D01*
X2090913Y1804386D02*
Y1843756D01*
X1895000Y3955000D02*
Y4115000D01*
X1575000D02*
X1895000D01*
X1575000Y3955000D02*
X1895000D01*
X1575000D02*
Y4115000D01*
X6125591Y719095D02*
Y1230906D01*
X5574409D02*
X6125591D01*
X5574409Y719095D02*
X6125591D01*
X5574409D02*
Y1230906D01*
X2020433Y3394409D02*
Y3945590D01*
X1449567D02*
X2020433D01*
X1449567Y3394409D02*
X2020433D01*
X1449567D02*
Y3945590D01*
D195*
X2356713Y131339D02*
X2502382D01*
Y48661D02*
Y131339D01*
X2356713Y48661D02*
X2502382D01*
X2356713D02*
Y131339D01*
X2588898Y1511181D02*
Y1658819D01*
X2451102Y1511181D02*
Y1658819D01*
X2588898D01*
X2451102Y1511181D02*
X2588898D01*
X945787Y1561732D02*
X1111142D01*
X945787Y1703465D02*
X1111142D01*
Y1561732D02*
Y1703465D01*
X945787Y1561732D02*
Y1703465D01*
X1854291Y825709D02*
X2265709D01*
X1854291Y414291D02*
X2265709D01*
X1854291D02*
Y825709D01*
X2265709Y414291D02*
Y825709D01*
X2166701Y1755173D02*
Y1892969D01*
X2015126Y1755173D02*
Y1892969D01*
Y1755173D02*
X2166701D01*
X2015126Y1892969D02*
X2166701D01*
X109803Y573551D02*
X460197D01*
X109803D02*
Y892449D01*
X460197D01*
Y573551D02*
Y892449D01*
X527638Y1429646D02*
Y1919803D01*
X-62913D02*
X527638D01*
X-62913Y1429646D02*
X527638D01*
X-62913D02*
Y1919803D01*
X3463701Y1052047D02*
Y1307953D01*
X2676299D02*
X3463701D01*
X2676299Y1052047D02*
X3463701D01*
X2676299D02*
Y1307953D01*
X4030701Y364276D02*
Y775693D01*
X3784638D02*
X4030701D01*
X3784638Y364276D02*
X4030701D01*
X3784638D02*
Y775693D01*
X2688032Y1674488D02*
Y1985512D01*
X2441968D02*
X2688032D01*
X2441968Y1674488D02*
X2688032D01*
X2441968D02*
Y1985512D01*
%TF.MD5,ef42e4e655baf61f5de201751e1cba57*%
M02*
