%TF.GenerationSoftware,Altium Limited,Altium Designer,20.0.13 (296)*%
G04 Layer_Color=0*
%FSLAX26Y26*%
%MOIN*%
%TF.FileFunction,NonPlated,1,2,NPTH,Drill*%
%TF.Part,Single*%
G01*
G75*
%TA.AperFunction,ComponentDrill*%
%ADD199C,0.125000*%
%ADD200C,0.063000*%
%ADD201C,0.142000*%
G36*
X2984985Y311000D02*
Y304415D01*
X2988393Y291695D01*
X2994978Y280290D01*
X3004290Y270978D01*
X3015695Y264393D01*
X3028415Y260985D01*
X3041584D01*
X3054305Y264393D01*
X3065710Y270978D01*
X3075022Y280290D01*
X3081606Y291695D01*
X3085015Y304415D01*
Y311000D01*
D01*
Y694000D01*
Y700585D01*
X3081606Y713305D01*
X3075022Y724710D01*
X3065710Y734022D01*
X3054305Y740606D01*
X3041584Y744015D01*
X3028415D01*
X3015695Y740606D01*
X3004290Y734022D01*
X2994978Y724710D01*
X2988393Y713305D01*
X2984985Y700585D01*
Y694000D01*
D01*
Y311000D01*
D02*
G37*
G36*
Y1036000D02*
Y1029415D01*
X2988393Y1016695D01*
X2994978Y1005290D01*
X3004290Y995978D01*
X3015695Y989393D01*
X3028415Y985985D01*
X3041584D01*
X3054305Y989393D01*
X3065710Y995978D01*
X3075022Y1005290D01*
X3081606Y1016695D01*
X3085015Y1029415D01*
Y1036000D01*
D01*
Y1394000D01*
Y1400584D01*
X3081606Y1413305D01*
X3075022Y1424710D01*
X3065710Y1434022D01*
X3054305Y1440607D01*
X3041584Y1444015D01*
X3028415D01*
X3015695Y1440607D01*
X3004290Y1434022D01*
X2994978Y1424710D01*
X2988393Y1413305D01*
X2984985Y1400584D01*
Y1394000D01*
D01*
Y1036000D01*
D02*
G37*
G36*
Y1742000D02*
Y1735415D01*
X2988393Y1722695D01*
X2994978Y1711290D01*
X3004290Y1701978D01*
X3015695Y1695393D01*
X3028415Y1691985D01*
X3041584D01*
X3054305Y1695393D01*
X3065710Y1701978D01*
X3075022Y1711290D01*
X3081606Y1722695D01*
X3085015Y1735415D01*
Y1742000D01*
D01*
Y1918000D01*
Y1924584D01*
X3081606Y1937305D01*
X3075022Y1948710D01*
X3065710Y1958022D01*
X3054305Y1964607D01*
X3041584Y1968015D01*
X3028415D01*
X3015695Y1964607D01*
X3004290Y1958022D01*
X2994978Y1948710D01*
X2988393Y1937305D01*
X2984985Y1924584D01*
Y1918000D01*
D01*
Y1742000D01*
D02*
G37*
G36*
X3009985Y4080000D02*
Y4073415D01*
X3013393Y4060695D01*
X3019978Y4049290D01*
X3029290Y4039978D01*
X3040695Y4033393D01*
X3053415Y4029985D01*
X3066584D01*
X3079305Y4033393D01*
X3090710Y4039978D01*
X3100022Y4049290D01*
X3106606Y4060695D01*
X3110015Y4073415D01*
Y4080000D01*
D01*
Y4229000D01*
Y4235584D01*
X3106606Y4248305D01*
X3100022Y4259710D01*
X3090710Y4269022D01*
X3079305Y4275606D01*
X3066584Y4279015D01*
X3053415D01*
X3040695Y4275606D01*
X3029290Y4269022D01*
X3019978Y4259710D01*
X3013393Y4248305D01*
X3009985Y4235584D01*
Y4229000D01*
D01*
Y4080000D01*
D02*
G37*
D199*
X4365004Y155000D02*
D03*
X5407004Y125000D02*
D03*
D200*
X155000Y2065000D02*
D03*
Y2656000D02*
D03*
D201*
X3545000Y1535000D02*
D03*
X5835000Y460000D02*
D03*
X5940000Y4085000D02*
D03*
%TF.MD5,7d41fe98f3773daf4d89879e30cd617a*%
M02*
