%TF.GenerationSoftware,Altium Limited,Altium Designer,20.0.13 (296)*%
G04 Layer_Color=8388736*
%FSLAX26Y26*%
%MOIN*%
%TF.FileFunction,Other,Top_Assembly*%
%TF.Part,Single*%
G01*
G75*
%TA.AperFunction,NonConductor*%
%ADD106C,0.007874*%
%ADD159C,0.008000*%
%ADD189C,0.003937*%
G36*
X192118Y3236856D02*
X189151D01*
Y3250506D01*
X181344D01*
Y3238694D01*
X178377D01*
Y3250506D01*
X166929D01*
Y3253836D01*
X192118D01*
Y3236856D01*
D02*
G37*
G36*
X185893Y3231377D02*
X185930Y3231305D01*
X186003Y3231159D01*
X186094Y3230977D01*
X186203Y3230758D01*
X186349Y3230485D01*
X186512Y3230194D01*
X186694Y3229885D01*
X186913Y3229539D01*
X187131Y3229175D01*
X187641Y3228411D01*
X188205Y3227628D01*
X188824Y3226882D01*
X188842Y3226864D01*
X188897Y3226791D01*
X188988Y3226700D01*
X189115Y3226573D01*
X189279Y3226409D01*
X189461Y3226227D01*
X189679Y3226026D01*
X189898Y3225808D01*
X190152Y3225590D01*
X190425Y3225353D01*
X190989Y3224898D01*
X191590Y3224479D01*
X191899Y3224298D01*
X192209Y3224134D01*
Y3222132D01*
X166929D01*
Y3225226D01*
X186621D01*
X186603Y3225244D01*
X186567Y3225280D01*
X186512Y3225335D01*
X186440Y3225426D01*
X186349Y3225535D01*
X186221Y3225681D01*
X186094Y3225845D01*
X185948Y3226008D01*
X185803Y3226227D01*
X185620Y3226445D01*
X185457Y3226682D01*
X185256Y3226936D01*
X185075Y3227228D01*
X184874Y3227519D01*
X184474Y3228174D01*
X184456Y3228192D01*
X184419Y3228247D01*
X184365Y3228356D01*
X184310Y3228483D01*
X184219Y3228629D01*
X184110Y3228811D01*
X184001Y3229030D01*
X183873Y3229248D01*
X183619Y3229758D01*
X183364Y3230303D01*
X183109Y3230868D01*
X182891Y3231414D01*
X185875D01*
X185893Y3231377D01*
D02*
G37*
D106*
X27559Y3575686D02*
X306299D01*
X27559Y2931986D02*
X306299D01*
X27559D02*
Y3575686D01*
X306299Y2931986D02*
Y3575686D01*
D159*
X2228000Y2117989D02*
Y2068000D01*
Y2117989D02*
X2261326Y2068000D01*
Y2117989D02*
Y2068000D01*
X2291796Y2117989D02*
Y2068000D01*
X2275133Y2117989D02*
X2308459D01*
X2350117Y2106087D02*
X2347736Y2110848D01*
X2342975Y2115609D01*
X2338215Y2117989D01*
X2328693D01*
X2323932Y2115609D01*
X2319171Y2110848D01*
X2316791Y2106087D01*
X2314410Y2098946D01*
Y2087044D01*
X2316791Y2079902D01*
X2319171Y2075141D01*
X2323932Y2070380D01*
X2328693Y2068000D01*
X2338215D01*
X2342975Y2070380D01*
X2347736Y2075141D01*
X2350117Y2079902D01*
X2528000Y2077989D02*
Y2028000D01*
Y2077989D02*
X2558946D01*
X2528000Y2054185D02*
X2547044D01*
X2602746Y2028000D02*
X2583702Y2077989D01*
X2564659Y2028000D01*
X2571800Y2044663D02*
X2595605D01*
X2614410Y2077989D02*
Y2028000D01*
Y2077989D02*
X2647736Y2028000D01*
Y2077989D02*
Y2028000D01*
D189*
X2579055Y1557441D02*
Y1612559D01*
X2460945Y1557441D02*
Y1612559D01*
X2579055D01*
X2460945Y1557441D02*
X2579055D01*
X994016Y1572559D02*
X1062913D01*
X994016Y1692638D02*
X1062913D01*
Y1572559D02*
Y1692638D01*
X994016Y1572559D02*
Y1692638D01*
X2118472Y1764228D02*
Y1883914D01*
X2063354Y1764228D02*
Y1883914D01*
Y1764228D02*
X2118472D01*
X2063354Y1883914D02*
X2118472D01*
%TF.MD5,ca113f5b216d54d8850e1945bc197c56*%
M02*
