%TF.GenerationSoftware,Altium Limited,Altium Designer,20.0.13 (296)*%
G04 Layer_Color=8388736*
%FSLAX26Y26*%
%MOIN*%
%TF.FileFunction,Other,Dimensions*%
%TF.Part,Single*%
G01*
G75*
%TA.AperFunction,NonConductor*%
%ADD105C,0.006000*%
%ADD107C,0.010000*%
D105*
X2929053Y4409977D02*
X2939050Y4399981D01*
X2959044D01*
X2969040Y4409977D01*
Y4449964D01*
X2959044Y4459961D01*
X2939050D01*
X2929053Y4449964D01*
Y4439968D01*
X2939050Y4429971D01*
X2969040D01*
X2989034Y4399981D02*
Y4409977D01*
X2999031D01*
Y4399981D01*
X2989034D01*
X3079005Y4459961D02*
X3059011Y4449964D01*
X3039018Y4429971D01*
Y4409977D01*
X3049014Y4399981D01*
X3069008D01*
X3079005Y4409977D01*
Y4419974D01*
X3069008Y4429971D01*
X3039018D01*
X3138985Y4459961D02*
X3098998D01*
Y4429971D01*
X3118992Y4439968D01*
X3128988D01*
X3138985Y4429971D01*
Y4409977D01*
X3128988Y4399981D01*
X3108995D01*
X3098998Y4409977D01*
X3158979Y4399981D02*
Y4439968D01*
X3168976D01*
X3178972Y4429971D01*
Y4399981D01*
Y4429971D01*
X3188969Y4439968D01*
X3198966Y4429971D01*
Y4399981D01*
X3218959D02*
Y4439968D01*
X3228956D01*
X3238953Y4429971D01*
Y4399981D01*
Y4429971D01*
X3248950Y4439968D01*
X3258947Y4429971D01*
Y4399981D01*
X6563891Y4394217D02*
Y4454197D01*
X6593882D01*
X6603879Y4444200D01*
Y4424207D01*
X6593882Y4414210D01*
X6563891D01*
X6583885D02*
X6603879Y4394217D01*
X6723840Y4454197D02*
X6683853D01*
Y4424207D01*
X6703846Y4434204D01*
X6713843D01*
X6723840Y4424207D01*
Y4404213D01*
X6713843Y4394217D01*
X6693850D01*
X6683853Y4404213D01*
X6743833Y4394217D02*
Y4404213D01*
X6753830D01*
Y4394217D01*
X6743833D01*
X6793817Y4444200D02*
X6803814Y4454197D01*
X6823807D01*
X6833804Y4444200D01*
Y4404213D01*
X6823807Y4394217D01*
X6803814D01*
X6793817Y4404213D01*
Y4444200D01*
X6853798D02*
X6863794Y4454197D01*
X6883788D01*
X6893785Y4444200D01*
Y4434204D01*
X6883788Y4424207D01*
X6893785Y4414210D01*
Y4404213D01*
X6883788Y4394217D01*
X6863794D01*
X6853798Y4404213D01*
Y4414210D01*
X6863794Y4424207D01*
X6853798Y4434204D01*
Y4444200D01*
X6863794Y4424207D02*
X6883788D01*
X6913778Y4394217D02*
Y4434204D01*
X6923775D01*
X6933772Y4424207D01*
Y4394217D01*
Y4424207D01*
X6943769Y4434204D01*
X6953765Y4424207D01*
Y4394217D01*
X6973759D02*
Y4434204D01*
X6983756D01*
X6993752Y4424207D01*
Y4394217D01*
Y4424207D01*
X7003749Y4434204D01*
X7013746Y4424207D01*
Y4394217D01*
X2866000Y4501010D02*
X2885994D01*
X2875997D01*
Y4560990D01*
X2866000Y4550993D01*
X2955971Y4560990D02*
X2915984D01*
Y4531000D01*
X2935977Y4540997D01*
X2945974D01*
X2955971Y4531000D01*
Y4511007D01*
X2945974Y4501010D01*
X2925981D01*
X2915984Y4511007D01*
X2975965Y4560990D02*
X3015952D01*
Y4550993D01*
X2975965Y4511007D01*
Y4501010D01*
X3035945D02*
Y4511007D01*
X3045942D01*
Y4501010D01*
X3035945D01*
X3115919D02*
Y4560990D01*
X3085929Y4531000D01*
X3125916D01*
X3145910Y4550993D02*
X3155906Y4560990D01*
X3175900D01*
X3185897Y4550993D01*
Y4540997D01*
X3175900Y4531000D01*
X3185897Y4521003D01*
Y4511007D01*
X3175900Y4501010D01*
X3155906D01*
X3145910Y4511007D01*
Y4521003D01*
X3155906Y4531000D01*
X3145910Y4540997D01*
Y4550993D01*
X3155906Y4531000D02*
X3175900D01*
X3205890Y4501010D02*
Y4540997D01*
X3215887D01*
X3225884Y4531000D01*
Y4501010D01*
Y4531000D01*
X3235881Y4540997D01*
X3245877Y4531000D01*
Y4501010D01*
X3265871D02*
Y4540997D01*
X3275868D01*
X3285864Y4531000D01*
Y4501010D01*
Y4531000D01*
X3295861Y4540997D01*
X3305858Y4531000D01*
Y4501010D01*
X-655010Y1918756D02*
Y1938750D01*
Y1928753D01*
X-714990D01*
X-704994Y1918756D01*
Y1968740D02*
X-714990Y1978737D01*
Y1998730D01*
X-704994Y2008727D01*
X-665006D01*
X-655010Y1998730D01*
Y1978737D01*
X-665006Y1968740D01*
X-704994D01*
X-665006Y2028720D02*
X-655010Y2038717D01*
Y2058711D01*
X-665006Y2068708D01*
X-704994D01*
X-714990Y2058711D01*
Y2038717D01*
X-704994Y2028720D01*
X-694997D01*
X-685000Y2038717D01*
Y2068708D01*
X-655010Y2088701D02*
X-665006D01*
Y2098698D01*
X-655010D01*
Y2088701D01*
Y2178672D02*
Y2138685D01*
X-694997Y2178672D01*
X-704994D01*
X-714990Y2168675D01*
Y2148682D01*
X-704994Y2138685D01*
X-655010Y2238653D02*
Y2198666D01*
X-694997Y2238653D01*
X-704994D01*
X-714990Y2228656D01*
Y2208662D01*
X-704994Y2198666D01*
X-655010Y2258646D02*
X-694997D01*
Y2268643D01*
X-685000Y2278640D01*
X-655010D01*
X-685000D01*
X-694997Y2288636D01*
X-685000Y2298633D01*
X-655010D01*
Y2318627D02*
X-694997D01*
Y2328624D01*
X-685000Y2338620D01*
X-655010D01*
X-685000D01*
X-694997Y2348617D01*
X-685000Y2358614D01*
X-655010D01*
D107*
X3300000Y4328000D02*
X3360000Y4348000D01*
X3300000Y4328000D02*
X3360000Y4308000D01*
X2860000D02*
X2920000Y4328000D01*
X2860000Y4348000D02*
X2920000Y4328000D01*
X3300000D02*
X3400000D01*
X2820000D02*
X2920000D01*
Y20000D02*
Y4338000D01*
X3300000Y19685D02*
Y4338000D01*
X6143350Y4246106D02*
X6171635Y4302675D01*
X6143350Y4246106D02*
X6199919Y4274391D01*
X6143350Y4246106D02*
X6327451Y4430207D01*
X6553891D01*
X1929Y4537000D02*
X61929Y4557000D01*
X1929Y4537000D02*
X61929Y4517000D01*
X6141929D02*
X6201929Y4537000D01*
X6141929Y4557000D02*
X6201929Y4537000D01*
X1929D02*
X2850000D01*
X3321858D02*
X6201929D01*
X1929Y4104685D02*
Y4547000D01*
X6201929Y4114685D02*
Y4547000D01*
X-711000Y64685D02*
X-691000Y4685D01*
X-671000Y64685D01*
X-691000Y4304685D02*
X-671000Y4244685D01*
X-711000D02*
X-691000Y4304685D01*
Y4685D02*
Y1902756D01*
Y2374614D02*
Y4304685D01*
X-701000Y4685D02*
X201929D01*
X-701000Y4304685D02*
X201929D01*
%TF.MD5,d321cda1e1d98674856432a1616099c8*%
M02*
