G04*
G04 #@! TF.GenerationSoftware,Altium Limited,Altium Designer,20.0.13 (296)*
G04*
G04 Layer_Color=8388736*
%FSTAX25Y25*%
%MOIN*%
G70*
G01*
G75*
G04:AMPARAMS|DCode=50|XSize=25.65mil|YSize=25.65mil|CornerRadius=4.71mil|HoleSize=0mil|Usage=FLASHONLY|Rotation=180.000|XOffset=0mil|YOffset=0mil|HoleType=Round|Shape=RoundedRectangle|*
%AMROUNDEDRECTD50*
21,1,0.02565,0.01624,0,0,180.0*
21,1,0.01624,0.02565,0,0,180.0*
1,1,0.00941,-0.00812,0.00812*
1,1,0.00941,0.00812,0.00812*
1,1,0.00941,0.00812,-0.00812*
1,1,0.00941,-0.00812,-0.00812*
%
%ADD50ROUNDEDRECTD50*%
%ADD51R,0.06287X0.04476*%
G04:AMPARAMS|DCode=52|XSize=71.12mil|YSize=263.91mil|CornerRadius=5.36mil|HoleSize=0mil|Usage=FLASHONLY|Rotation=0.000|XOffset=0mil|YOffset=0mil|HoleType=Round|Shape=RoundedRectangle|*
%AMROUNDEDRECTD52*
21,1,0.07112,0.25319,0,0,0.0*
21,1,0.06041,0.26391,0,0,0.0*
1,1,0.01071,0.03020,-0.12660*
1,1,0.01071,-0.03020,-0.12660*
1,1,0.01071,-0.03020,0.12660*
1,1,0.01071,0.03020,0.12660*
%
%ADD52ROUNDEDRECTD52*%
G04:AMPARAMS|DCode=53|XSize=36.5mil|YSize=40.43mil|CornerRadius=10.37mil|HoleSize=0mil|Usage=FLASHONLY|Rotation=180.000|XOffset=0mil|YOffset=0mil|HoleType=Round|Shape=RoundedRectangle|*
%AMROUNDEDRECTD53*
21,1,0.03650,0.01968,0,0,180.0*
21,1,0.01575,0.04043,0,0,180.0*
1,1,0.02075,-0.00787,0.00984*
1,1,0.02075,0.00787,0.00984*
1,1,0.02075,0.00787,-0.00984*
1,1,0.02075,-0.00787,-0.00984*
%
%ADD53ROUNDEDRECTD53*%
G04:AMPARAMS|DCode=54|XSize=32.17mil|YSize=43.98mil|CornerRadius=5.9mil|HoleSize=0mil|Usage=FLASHONLY|Rotation=90.000|XOffset=0mil|YOffset=0mil|HoleType=Round|Shape=RoundedRectangle|*
%AMROUNDEDRECTD54*
21,1,0.03217,0.03219,0,0,90.0*
21,1,0.02037,0.04398,0,0,90.0*
1,1,0.01179,0.01609,0.01019*
1,1,0.01179,0.01609,-0.01019*
1,1,0.01179,-0.01609,-0.01019*
1,1,0.01179,-0.01609,0.01019*
%
%ADD54ROUNDEDRECTD54*%
G04:AMPARAMS|DCode=55|XSize=26.65mil|YSize=64.06mil|CornerRadius=7.91mil|HoleSize=0mil|Usage=FLASHONLY|Rotation=180.000|XOffset=0mil|YOffset=0mil|HoleType=Round|Shape=RoundedRectangle|*
%AMROUNDEDRECTD55*
21,1,0.02665,0.04823,0,0,180.0*
21,1,0.01083,0.06406,0,0,180.0*
1,1,0.01583,-0.00541,0.02411*
1,1,0.01583,0.00541,0.02411*
1,1,0.01583,0.00541,-0.02411*
1,1,0.01583,-0.00541,-0.02411*
%
%ADD55ROUNDEDRECTD55*%
G04:AMPARAMS|DCode=56|XSize=26.65mil|YSize=64.06mil|CornerRadius=7.91mil|HoleSize=0mil|Usage=FLASHONLY|Rotation=270.000|XOffset=0mil|YOffset=0mil|HoleType=Round|Shape=RoundedRectangle|*
%AMROUNDEDRECTD56*
21,1,0.02665,0.04823,0,0,270.0*
21,1,0.01083,0.06406,0,0,270.0*
1,1,0.01583,-0.02411,-0.00541*
1,1,0.01583,-0.02411,0.00541*
1,1,0.01583,0.02411,0.00541*
1,1,0.01583,0.02411,-0.00541*
%
%ADD56ROUNDEDRECTD56*%
G04:AMPARAMS|DCode=57|XSize=35.71mil|YSize=35.71mil|CornerRadius=10.18mil|HoleSize=0mil|Usage=FLASHONLY|Rotation=270.000|XOffset=0mil|YOffset=0mil|HoleType=Round|Shape=RoundedRectangle|*
%AMROUNDEDRECTD57*
21,1,0.03571,0.01535,0,0,270.0*
21,1,0.01535,0.03571,0,0,270.0*
1,1,0.02035,-0.00768,-0.00768*
1,1,0.02035,-0.00768,0.00768*
1,1,0.02035,0.00768,0.00768*
1,1,0.02035,0.00768,-0.00768*
%
%ADD57ROUNDEDRECTD57*%
%ADD58R,0.04800X0.04400*%
%ADD59R,0.04400X0.04800*%
%ADD60R,0.05618X0.06406*%
%ADD61R,0.06406X0.05618*%
%ADD62R,0.07980X0.13886*%
%ADD63R,0.04831X0.04437*%
%ADD64R,0.04437X0.04831*%
%ADD65R,0.11500X0.07300*%
%ADD66R,0.08374X0.12311*%
%ADD67R,0.07800X0.13900*%
%ADD68R,0.11917X0.21760*%
%ADD69R,0.10343X0.20185*%
%ADD70R,0.02075X0.04043*%
%ADD71R,0.05303X0.04083*%
%ADD72R,0.10343X0.16248*%
G04:AMPARAMS|DCode=73|XSize=66.02mil|YSize=28.62mil|CornerRadius=8.41mil|HoleSize=0mil|Usage=FLASHONLY|Rotation=180.000|XOffset=0mil|YOffset=0mil|HoleType=Round|Shape=RoundedRectangle|*
%AMROUNDEDRECTD73*
21,1,0.06602,0.01181,0,0,180.0*
21,1,0.04921,0.02862,0,0,180.0*
1,1,0.01681,-0.02461,0.00591*
1,1,0.01681,0.02461,0.00591*
1,1,0.01681,0.02461,-0.00591*
1,1,0.01681,-0.02461,-0.00591*
%
%ADD73ROUNDEDRECTD73*%
%ADD74R,0.05299X0.04098*%
%ADD75R,0.04800X0.06800*%
%ADD76R,0.07193X0.10343*%
G04:AMPARAMS|DCode=77|XSize=20.75mil|YSize=30.59mil|CornerRadius=4.47mil|HoleSize=0mil|Usage=FLASHONLY|Rotation=90.000|XOffset=0mil|YOffset=0mil|HoleType=Round|Shape=RoundedRectangle|*
%AMROUNDEDRECTD77*
21,1,0.02075,0.02165,0,0,90.0*
21,1,0.01181,0.03059,0,0,90.0*
1,1,0.00894,0.01083,0.00591*
1,1,0.00894,0.01083,-0.00591*
1,1,0.00894,-0.01083,-0.00591*
1,1,0.00894,-0.01083,0.00591*
%
%ADD77ROUNDEDRECTD77*%
%ADD78O,0.07500X0.10500*%
%ADD79C,0.06366*%
%ADD80R,0.07193X0.07193*%
%ADD81C,0.07193*%
%ADD82C,0.05500*%
%ADD83C,0.27272*%
%ADD84C,0.06602*%
%ADD85C,0.13800*%
%ADD86C,0.10000*%
%ADD87R,0.10000X0.10000*%
%ADD88R,0.12500X0.12500*%
%ADD89C,0.12500*%
%ADD90C,0.06800*%
%ADD91C,0.08374*%
%ADD92R,0.08374X0.08374*%
%ADD93R,0.06602X0.06602*%
%ADD94C,0.30000*%
%ADD95C,0.05815*%
%ADD96R,0.05815X0.05815*%
%ADD97C,0.05224*%
%ADD98C,0.06437*%
%ADD99R,0.06437X0.06437*%
%ADD100C,0.06406*%
%ADD101R,0.06406X0.06406*%
%ADD102R,0.05618X0.05618*%
%ADD103C,0.05618*%
%ADD104C,0.05000*%
%ADD105C,0.30500*%
%ADD106R,0.05224X0.05224*%
%ADD107R,0.06760X0.06760*%
%ADD108C,0.06760*%
%ADD109C,0.06012*%
%ADD110O,0.08500X0.10000*%
%ADD111C,0.06500*%
%ADD112R,0.06437X0.06437*%
%ADD113C,0.09949*%
%ADD114R,0.06406X0.06406*%
D50*
X0248171Y0007524D02*
D03*
Y0010476D02*
D03*
X0237738Y0007524D02*
D03*
Y0010476D02*
D03*
D51*
X0191Y0014022D02*
D03*
Y0006305D02*
D03*
X0200534Y0014022D02*
D03*
Y0006305D02*
D03*
X0210104Y0014022D02*
D03*
Y0006305D02*
D03*
D52*
X004634Y0308287D02*
D03*
X003766D02*
D03*
D53*
X0252Y0162437D02*
D03*
X0255543Y0154563D02*
D03*
X0248457D02*
D03*
D54*
X0107945Y0167D02*
D03*
Y015952D02*
D03*
X0097748D02*
D03*
Y016326D02*
D03*
Y0167D02*
D03*
D55*
X0217024Y0045268D02*
D03*
X0213874D02*
D03*
X0210724D02*
D03*
X0207575D02*
D03*
X0204425D02*
D03*
X0201276D02*
D03*
X0198126D02*
D03*
X0194976D02*
D03*
Y0078732D02*
D03*
X0198126D02*
D03*
X0201276D02*
D03*
X0204425D02*
D03*
X0207575D02*
D03*
X0210724D02*
D03*
X0213874D02*
D03*
X0217024D02*
D03*
D56*
X0189268Y0050976D02*
D03*
Y0054126D02*
D03*
Y0057276D02*
D03*
Y0060425D02*
D03*
Y0063575D02*
D03*
Y0066724D02*
D03*
Y0069874D02*
D03*
Y0073024D02*
D03*
X0222732D02*
D03*
Y0069874D02*
D03*
Y0066724D02*
D03*
Y0063575D02*
D03*
Y0060425D02*
D03*
Y0057276D02*
D03*
Y0054126D02*
D03*
Y0050976D02*
D03*
D57*
X0213599Y0178667D02*
D03*
Y0186147D02*
D03*
X0204584Y0182407D02*
D03*
D58*
X01583Y004D02*
D03*
X0164992D02*
D03*
X0149346D02*
D03*
X0142654D02*
D03*
X0213193Y01935D02*
D03*
X02065D02*
D03*
X0241764Y0132D02*
D03*
X0248457D02*
D03*
X0095943Y014D02*
D03*
X008925D02*
D03*
X0149653Y00785D02*
D03*
X0156346D02*
D03*
X0221654Y0009D02*
D03*
X0228346D02*
D03*
X0123193Y014726D02*
D03*
X01165D02*
D03*
X0204783Y01595D02*
D03*
X0198091D02*
D03*
X0204783Y01525D02*
D03*
X0198091D02*
D03*
X0198091Y01655D02*
D03*
X0204784D02*
D03*
X0198091Y01465D02*
D03*
X0204784D02*
D03*
D59*
X0155146Y0056653D02*
D03*
Y0063346D02*
D03*
X0249Y0139154D02*
D03*
Y0145846D02*
D03*
X0073943Y0132653D02*
D03*
Y0139347D02*
D03*
X0065943Y0139497D02*
D03*
Y0132803D02*
D03*
X0142Y0094807D02*
D03*
Y01015D02*
D03*
X0134Y01015D02*
D03*
Y0094807D02*
D03*
X0065831Y0147662D02*
D03*
Y0154362D02*
D03*
X014915Y006735D02*
D03*
Y006065D02*
D03*
D60*
X003974Y00465D02*
D03*
X003226D02*
D03*
D61*
X0074847Y0189D02*
D03*
Y018152D02*
D03*
X0085847Y018152D02*
D03*
Y0189D02*
D03*
X0349Y0045273D02*
D03*
Y0052753D02*
D03*
X00055Y008226D02*
D03*
Y008974D02*
D03*
D62*
X0539577Y0347D02*
D03*
X0555777D02*
D03*
D63*
X0104596Y0132D02*
D03*
X0111289D02*
D03*
X0067Y0189D02*
D03*
X0060307D02*
D03*
D64*
X0081943Y0139347D02*
D03*
Y0132653D02*
D03*
X00055Y0073937D02*
D03*
Y0067244D02*
D03*
X0233Y0073307D02*
D03*
Y008D02*
D03*
Y0058653D02*
D03*
Y0065346D02*
D03*
X01495Y01015D02*
D03*
Y0094807D02*
D03*
X01778Y0067347D02*
D03*
Y0060654D02*
D03*
X01698Y0067347D02*
D03*
Y0060654D02*
D03*
X01613Y0067347D02*
D03*
Y0060654D02*
D03*
X0145846Y0166606D02*
D03*
Y0159913D02*
D03*
X02755Y0046654D02*
D03*
Y0053347D02*
D03*
X03335Y0043154D02*
D03*
Y0049846D02*
D03*
D65*
X0128Y03825D02*
D03*
Y03711D02*
D03*
X01115Y03825D02*
D03*
Y03711D02*
D03*
X0095Y03825D02*
D03*
Y03711D02*
D03*
X0078Y03825D02*
D03*
Y03711D02*
D03*
D66*
X0015902Y00733D02*
D03*
X0041098D02*
D03*
D67*
X018465Y04035D02*
D03*
X016235D02*
D03*
D68*
X0604488Y00975D02*
D03*
X0565512D02*
D03*
D69*
X0198106Y0367D02*
D03*
X0148894D02*
D03*
D70*
X0018895Y0104012D02*
D03*
X0014367D02*
D03*
X0018895Y0092988D02*
D03*
X0014367D02*
D03*
D71*
X0021946Y0127437D02*
D03*
Y0114563D02*
D03*
D72*
X01075Y0044248D02*
D03*
Y0012752D02*
D03*
X0063Y0044248D02*
D03*
Y0012752D02*
D03*
D73*
X0137477Y016576D02*
D03*
Y017076D02*
D03*
Y015576D02*
D03*
Y016076D02*
D03*
X0116217Y017076D02*
D03*
Y016076D02*
D03*
Y016576D02*
D03*
Y015576D02*
D03*
D74*
X02655Y0162981D02*
D03*
Y0150082D02*
D03*
D75*
X0088946Y016801D02*
D03*
Y015851D02*
D03*
X0074747Y016801D02*
D03*
Y015851D02*
D03*
D76*
X0007Y0132874D02*
D03*
Y0117126D02*
D03*
D77*
X0111978Y0142559D02*
D03*
Y0137441D02*
D03*
X0103908D02*
D03*
Y0142559D02*
D03*
Y014D02*
D03*
D78*
X001Y0305856D02*
D03*
Y0344911D02*
D03*
X0023386Y0305856D02*
D03*
Y0344911D02*
D03*
D79*
X03622Y00755D02*
D03*
X03722Y00655D02*
D03*
X03622Y00555D02*
D03*
D80*
X01705Y00295D02*
D03*
D81*
Y00195D02*
D03*
X01605Y00295D02*
D03*
Y00195D02*
D03*
X01505Y00295D02*
D03*
Y00195D02*
D03*
D82*
X0354221Y024526D02*
D03*
D83*
X0505Y0252D02*
D03*
Y03475D02*
D03*
X0266Y033D02*
D03*
Y0269D02*
D03*
D84*
X03613Y00945D02*
D03*
X03995Y00838D02*
D03*
X0080803Y0066142D02*
D03*
X0070803D02*
D03*
D85*
X04365Y00155D02*
D03*
X05407Y00125D02*
D03*
D86*
X0419Y00155D02*
D03*
X0558201Y00125D02*
D03*
D87*
X0402701Y00155D02*
D03*
X05745Y00125D02*
D03*
D88*
X00753Y0251641D02*
D03*
D89*
Y022046D02*
D03*
D90*
X00155Y02065D02*
D03*
Y02656D02*
D03*
D91*
X0233563Y00335D02*
D03*
X0253563D02*
D03*
X0243563D02*
D03*
X05065Y0110213D02*
D03*
Y0061D02*
D03*
X046713Y0110213D02*
D03*
Y0061D02*
D03*
D92*
X0263563Y00335D02*
D03*
D93*
X0060803Y0066142D02*
D03*
D94*
X03545Y01535D02*
D03*
X05835Y0046D02*
D03*
X0594Y04085D02*
D03*
D95*
X0045874Y0175248D02*
D03*
Y0167374D02*
D03*
X0038Y0175248D02*
D03*
Y0183122D02*
D03*
Y0167374D02*
D03*
X0045874Y0151626D02*
D03*
Y01595D02*
D03*
X0038Y0151626D02*
D03*
Y01595D02*
D03*
D96*
X0045874Y0183122D02*
D03*
D97*
X01495Y0317D02*
D03*
Y0327D02*
D03*
X023Y018D02*
D03*
X0548Y0111D02*
D03*
Y0101D02*
D03*
D98*
X0337Y0123315D02*
D03*
X0287D02*
D03*
X0317D02*
D03*
X0258567Y0187921D02*
D03*
D99*
X0277Y0123315D02*
D03*
D100*
X02Y0316028D02*
D03*
X0143Y0268528D02*
D03*
X012Y03185D02*
D03*
D101*
X02Y02865D02*
D03*
X0143Y0239D02*
D03*
D102*
X00535Y0344815D02*
D03*
D103*
Y03645D02*
D03*
D104*
X05145Y022D02*
D03*
X0594539D02*
D03*
D105*
X00245Y0022D02*
D03*
Y04085D02*
D03*
D106*
X023Y0187874D02*
D03*
D107*
X03887Y0047058D02*
D03*
D108*
Y0066742D02*
D03*
Y00569D02*
D03*
D109*
X0459445Y0029D02*
D03*
X05185D02*
D03*
D110*
X0598Y01675D02*
D03*
X0489732D02*
D03*
D111*
X0325685Y0183D02*
D03*
X0286315D02*
D03*
X0419579Y0036315D02*
D03*
Y0075685D02*
D03*
X0422Y041575D02*
D03*
X038263D02*
D03*
X0326685Y04165D02*
D03*
X0287315D02*
D03*
X05475Y0073185D02*
D03*
Y0033815D02*
D03*
X0422685Y0184D02*
D03*
X0383315D02*
D03*
D112*
X0258567Y0178079D02*
D03*
D113*
X019217Y04208D02*
D03*
X01528D02*
D03*
D114*
X0090472Y03185D02*
D03*
M02*
