G04*
G04 #@! TF.GenerationSoftware,Altium Limited,Altium Designer,20.0.13 (296)*
G04*
G04 Layer_Color=16711935*
%FSTAX25Y25*%
%MOIN*%
G70*
G01*
G75*
%ADD15C,0.01000*%
%ADD192C,0.10000*%
G36*
X0306475Y0096889D02*
X0306506D01*
X0306544Y0096884D01*
X0306589Y0096878D01*
X0306639Y009687D01*
X0306694Y0096861D01*
X0306749Y0096848D01*
X030681Y0096831D01*
X0306871Y0096809D01*
X0306932Y0096784D01*
X0306996Y0096756D01*
X0307057Y009672D01*
X0307115Y0096681D01*
X030717Y0096637D01*
X0307173Y0096634D01*
X0307184Y0096626D01*
X0307198Y0096609D01*
X0307218Y009659D01*
X030724Y0096565D01*
X0307265Y0096532D01*
X0307292Y0096496D01*
X0307323Y0096454D01*
X0307353Y0096407D01*
X0307384Y0096355D01*
X0307414Y0096296D01*
X0307439Y0096233D01*
X0307467Y0096166D01*
X0307489Y0096094D01*
X0307506Y0096017D01*
X030752Y0095936D01*
X0307051Y00959D01*
Y0095903D01*
X0307049Y0095911D01*
X0307046Y0095928D01*
X030704Y0095945D01*
X0307032Y0095969D01*
X0307026Y0095994D01*
X0307004Y0096055D01*
X0306979Y0096119D01*
X0306949Y0096186D01*
X0306913Y0096249D01*
X0306893Y0096277D01*
X0306871Y0096302D01*
X0306869Y0096305D01*
X0306863Y009631D01*
X0306852Y0096321D01*
X0306838Y0096332D01*
X0306819Y0096349D01*
X0306797Y0096366D01*
X0306771Y0096385D01*
X0306741Y0096404D01*
X0306708Y0096421D01*
X0306672Y009644D01*
X0306636Y0096457D01*
X0306594Y0096474D01*
X030655Y0096485D01*
X0306503Y0096496D01*
X0306453Y0096501D01*
X0306403Y0096504D01*
X0306381D01*
X0306364Y0096501D01*
X0306345D01*
X0306323Y0096499D01*
X0306298Y0096493D01*
X0306267Y0096487D01*
X0306206Y0096474D01*
X030614Y0096451D01*
X0306073Y0096418D01*
X030604Y0096399D01*
X0306007Y0096377D01*
X0306004Y0096374D01*
X0305999Y0096368D01*
X0305985Y009636D01*
X0305971Y0096346D01*
X0305952Y009633D01*
X0305929Y009631D01*
X0305907Y0096285D01*
X030588Y0096258D01*
X0305852Y0096227D01*
X0305824Y0096191D01*
X0305794Y0096152D01*
X0305766Y0096111D01*
X0305736Y0096064D01*
X0305708Y0096014D01*
X030568Y0095961D01*
X0305655Y0095906D01*
Y0095903D01*
X030565Y0095892D01*
X0305644Y0095873D01*
X0305636Y0095848D01*
X0305625Y0095817D01*
X0305614Y0095778D01*
X0305603Y0095731D01*
X0305592Y0095679D01*
X030558Y0095621D01*
X0305567Y0095554D01*
X0305556Y0095479D01*
X0305547Y0095402D01*
X0305539Y0095316D01*
X0305531Y0095224D01*
X0305528Y0095125D01*
X0305525Y0095019D01*
X0305528Y0095022D01*
X0305533Y009503D01*
X0305542Y0095044D01*
X0305556Y0095061D01*
X0305572Y0095083D01*
X0305592Y0095108D01*
X0305614Y0095136D01*
X0305641Y0095166D01*
X0305669Y0095197D01*
X03057Y0095227D01*
X0305772Y0095291D01*
X0305849Y0095352D01*
X0305893Y009538D01*
X0305938Y0095404D01*
X0305941Y0095407D01*
X0305949Y009541D01*
X0305963Y0095416D01*
X0305979Y0095424D01*
X0306004Y0095435D01*
X0306029Y0095446D01*
X030606Y0095457D01*
X0306096Y0095468D01*
X0306132Y0095479D01*
X0306173Y009549D01*
X0306259Y0095512D01*
X0306356Y0095526D01*
X0306406Y0095532D01*
X0306478D01*
X0306503Y0095529D01*
X0306533Y0095526D01*
X0306575Y0095521D01*
X0306622Y0095512D01*
X0306675Y0095501D01*
X0306733Y0095487D01*
X0306794Y0095471D01*
X0306857Y0095446D01*
X0306924Y0095418D01*
X0306993Y0095385D01*
X030706Y0095344D01*
X0307126Y0095299D01*
X0307193Y0095244D01*
X0307256Y0095183D01*
X0307259Y009518D01*
X030727Y0095166D01*
X0307287Y0095147D01*
X0307309Y0095119D01*
X0307334Y0095086D01*
X0307362Y0095044D01*
X0307392Y0094997D01*
X0307422Y0094942D01*
X0307453Y0094881D01*
X0307483Y0094812D01*
X0307511Y009474D01*
X0307536Y0094659D01*
X0307558Y0094573D01*
X0307575Y0094485D01*
X0307586Y0094388D01*
X0307589Y0094288D01*
Y0094285D01*
Y0094271D01*
Y0094252D01*
X0307586Y0094227D01*
X0307583Y0094194D01*
X030758Y0094158D01*
X0307575Y0094116D01*
X0307569Y0094069D01*
X0307561Y0094019D01*
X030755Y0093967D01*
X0307539Y0093911D01*
X0307522Y0093853D01*
X0307503Y0093795D01*
X0307483Y0093737D01*
X0307458Y0093676D01*
X0307431Y0093618D01*
X0307428Y0093615D01*
X0307422Y0093604D01*
X0307414Y0093587D01*
X0307403Y0093568D01*
X0307386Y009354D01*
X0307367Y009351D01*
X0307345Y0093479D01*
X030732Y0093443D01*
X030729Y0093405D01*
X0307259Y0093366D01*
X0307223Y0093327D01*
X0307184Y0093288D01*
X0307146Y0093249D01*
X0307101Y0093211D01*
X0307054Y0093177D01*
X0307004Y0093144D01*
X0307001Y0093141D01*
X0306993Y0093136D01*
X0306977Y009313D01*
X0306957Y0093119D01*
X0306929Y0093105D01*
X0306899Y0093091D01*
X0306866Y0093078D01*
X0306824Y0093064D01*
X0306783Y0093047D01*
X0306735Y0093033D01*
X0306683Y0093019D01*
X030663Y0093006D01*
X0306572Y0092994D01*
X0306514Y0092989D01*
X030645Y0092983D01*
X0306386Y0092981D01*
X0306362D01*
X0306348Y0092983D01*
X0306331D01*
X030629Y0092986D01*
X030624Y0092994D01*
X0306182Y0093003D01*
X0306118Y0093017D01*
X0306046Y0093036D01*
X0305971Y0093058D01*
X0305893Y0093086D01*
X0305816Y0093122D01*
X0305736Y0093164D01*
X0305655Y0093213D01*
X0305575Y0093271D01*
X03055Y0093338D01*
X0305428Y0093413D01*
X0305425Y0093418D01*
X0305412Y0093432D01*
X0305395Y009346D01*
X030537Y0093496D01*
X0305342Y0093543D01*
X0305326Y0093571D01*
X0305312Y0093601D01*
X0305295Y0093634D01*
X0305278Y009367D01*
X0305259Y0093712D01*
X0305242Y0093753D01*
X0305226Y0093798D01*
X0305209Y0093845D01*
X030519Y0093897D01*
X0305173Y009395D01*
X0305159Y0094008D01*
X0305143Y0094067D01*
X0305129Y009413D01*
X0305115Y0094197D01*
X0305101Y0094266D01*
X030509Y0094338D01*
X0305082Y0094413D01*
X0305073Y009449D01*
X0305065Y0094573D01*
X0305063Y0094656D01*
X0305057Y0094745D01*
Y0094837D01*
Y0094839D01*
Y009485D01*
Y0094864D01*
Y0094886D01*
X030506Y0094911D01*
Y0094942D01*
X0305063Y0094978D01*
Y0095019D01*
X0305065Y0095061D01*
X0305071Y0095111D01*
X0305073Y0095161D01*
X0305079Y0095216D01*
X030509Y009533D01*
X030511Y0095454D01*
X0305129Y0095584D01*
X0305157Y009572D01*
X030519Y0095853D01*
X0305229Y0095986D01*
X0305276Y0096116D01*
X0305331Y0096238D01*
X0305362Y0096296D01*
X0305395Y0096349D01*
X0305431Y0096402D01*
X0305467Y0096451D01*
X0305472Y0096457D01*
X0305484Y0096471D01*
X0305503Y0096493D01*
X0305533Y0096521D01*
X0305569Y0096554D01*
X0305611Y009659D01*
X0305663Y0096631D01*
X0305722Y0096673D01*
X0305788Y0096712D01*
X030586Y0096753D01*
X0305938Y0096789D01*
X0306024Y0096823D01*
X0306118Y009685D01*
X0306215Y0096873D01*
X030632Y0096886D01*
X0306431Y0096892D01*
X030645D01*
X0306475Y0096889D01*
D02*
G37*
G36*
X0318569Y0095881D02*
X0318599D01*
X0318633Y0095875D01*
X0318671Y0095873D01*
X0318716Y0095864D01*
X0318766Y0095856D01*
X0318815Y0095842D01*
X0318865Y0095828D01*
X0318918Y0095809D01*
X0318973Y0095787D01*
X0319023Y0095762D01*
X0319073Y0095728D01*
X031912Y0095695D01*
X0319164Y0095654D01*
X0319167Y0095651D01*
X0319176Y0095643D01*
X0319187Y0095629D01*
X03192Y0095609D01*
X0319217Y0095587D01*
X0319236Y0095557D01*
X0319256Y0095521D01*
X0319278Y0095479D01*
X0319298Y0095432D01*
X0319317Y0095382D01*
X0319336Y0095324D01*
X0319353Y009526D01*
X031937Y0095191D01*
X0319381Y0095116D01*
X0319386Y0095036D01*
X0319389Y009495D01*
Y0093044D01*
X0318918D01*
Y0094792D01*
Y0094795D01*
Y0094806D01*
Y009482D01*
Y0094839D01*
Y0094862D01*
X0318915Y0094889D01*
X0318913Y009495D01*
X0318907Y0095017D01*
X0318899Y0095083D01*
X0318887Y0095147D01*
X0318879Y0095174D01*
X0318871Y0095199D01*
Y0095202D01*
X0318868Y0095205D01*
X0318863Y0095219D01*
X0318851Y0095244D01*
X0318835Y0095271D01*
X031881Y0095302D01*
X0318782Y0095335D01*
X0318746Y0095368D01*
X0318705Y0095399D01*
X0318699Y0095402D01*
X0318683Y009541D01*
X0318658Y0095424D01*
X0318624Y0095438D01*
X0318583Y0095451D01*
X0318536Y0095465D01*
X031848Y0095474D01*
X0318422Y0095476D01*
X0318394D01*
X0318375Y0095474D01*
X031835Y0095471D01*
X031832Y0095465D01*
X0318286Y009546D01*
X0318253Y0095451D01*
X0318214Y009544D01*
X0318176Y0095429D01*
X0318137Y0095413D01*
X0318095Y0095393D01*
X0318054Y0095371D01*
X0318015Y0095344D01*
X0317976Y0095316D01*
X0317937Y009528D01*
X0317935Y0095277D01*
X0317929Y0095271D01*
X0317921Y009526D01*
X0317907Y0095244D01*
X0317893Y0095222D01*
X0317877Y0095197D01*
X031786Y0095166D01*
X0317841Y009513D01*
X0317824Y0095089D01*
X0317805Y0095042D01*
X0317788Y0094992D01*
X0317774Y0094936D01*
X031776Y0094873D01*
X0317752Y0094806D01*
X0317746Y0094734D01*
X0317743Y0094656D01*
Y0093044D01*
X0317273D01*
Y0094848D01*
Y009485D01*
Y0094862D01*
Y0094878D01*
X031727Y00949D01*
Y0094925D01*
X0317267Y0094956D01*
X0317264Y0094989D01*
X0317259Y0095025D01*
X0317245Y00951D01*
X0317223Y0095177D01*
X0317195Y0095252D01*
X0317176Y0095288D01*
X0317156Y0095319D01*
Y0095321D01*
X0317151Y0095324D01*
X0317145Y0095332D01*
X0317134Y0095344D01*
X0317123Y0095355D01*
X0317106Y0095368D01*
X0317087Y0095382D01*
X0317068Y0095399D01*
X0317043Y0095413D01*
X0317015Y0095427D01*
X0316985Y009544D01*
X0316949Y0095451D01*
X0316913Y0095463D01*
X0316871Y0095471D01*
X0316827Y0095474D01*
X031678Y0095476D01*
X031676D01*
X0316746Y0095474D01*
X031673D01*
X0316707Y0095471D01*
X031666Y0095463D01*
X0316605Y0095451D01*
X0316541Y0095432D01*
X0316478Y0095407D01*
X0316414Y0095371D01*
X0316411D01*
X0316406Y0095366D01*
X0316397Y009536D01*
X0316386Y0095352D01*
X0316356Y0095327D01*
X031632Y0095294D01*
X0316278Y0095249D01*
X0316239Y0095197D01*
X0316201Y0095136D01*
X0316167Y0095064D01*
Y0095061D01*
X0316165Y0095055D01*
X0316162Y0095042D01*
X0316156Y0095028D01*
X0316151Y0095006D01*
X0316143Y0094981D01*
X0316137Y009495D01*
X0316131Y0094917D01*
X0316123Y0094878D01*
X0316118Y0094834D01*
X0316109Y0094787D01*
X0316104Y0094734D01*
X0316101Y0094679D01*
X0316095Y0094618D01*
X0316093Y0094554D01*
Y0094485D01*
Y0093044D01*
X0315622D01*
Y0095823D01*
X0316043D01*
Y0095429D01*
X0316045Y0095432D01*
X0316048Y0095438D01*
X0316057Y0095449D01*
X0316068Y0095463D01*
X0316079Y0095482D01*
X0316095Y0095501D01*
X0316134Y0095548D01*
X0316184Y0095601D01*
X0316245Y0095654D01*
X0316311Y0095709D01*
X0316389Y0095759D01*
X0316392Y0095762D01*
X03164Y0095764D01*
X0316411Y009577D01*
X0316428Y0095778D01*
X0316447Y0095787D01*
X0316472Y0095798D01*
X0316503Y0095809D01*
X0316533Y0095823D01*
X0316569Y0095834D01*
X0316605Y0095845D01*
X0316647Y0095856D01*
X0316691Y0095864D01*
X0316785Y0095878D01*
X0316835Y0095884D01*
X0316915D01*
X0316937Y0095881D01*
X0316962D01*
X0316993Y0095878D01*
X0317029Y0095873D01*
X0317065Y0095867D01*
X0317145Y0095853D01*
X0317228Y0095828D01*
X0317314Y0095798D01*
X0317353Y0095776D01*
X0317392Y0095753D01*
X0317394Y0095751D01*
X03174Y0095748D01*
X0317411Y009574D01*
X0317425Y0095731D01*
X0317439Y0095717D01*
X0317458Y0095701D01*
X03175Y0095662D01*
X0317547Y0095609D01*
X0317591Y0095548D01*
X0317633Y0095476D01*
X0317669Y0095396D01*
Y0095399D01*
X0317671Y0095402D01*
X0317685Y0095418D01*
X0317702Y009544D01*
X031773Y0095474D01*
X0317763Y009551D01*
X0317802Y0095551D01*
X0317849Y0095596D01*
X0317901Y009564D01*
X031796Y0095684D01*
X0318026Y0095728D01*
X0318095Y009577D01*
X0318173Y0095809D01*
X0318253Y0095839D01*
X0318342Y0095862D01*
X0318433Y0095878D01*
X031848Y0095884D01*
X031855D01*
X0318569Y0095881D01*
D02*
G37*
G36*
X0314109D02*
X031414D01*
X0314173Y0095875D01*
X0314212Y0095873D01*
X0314256Y0095864D01*
X0314306Y0095856D01*
X0314356Y0095842D01*
X0314406Y0095828D01*
X0314458Y0095809D01*
X0314514Y0095787D01*
X0314564Y0095762D01*
X0314613Y0095728D01*
X0314661Y0095695D01*
X0314705Y0095654D01*
X0314708Y0095651D01*
X0314716Y0095643D01*
X0314727Y0095629D01*
X0314741Y0095609D01*
X0314757Y0095587D01*
X0314777Y0095557D01*
X0314796Y0095521D01*
X0314818Y0095479D01*
X0314838Y0095432D01*
X0314857Y0095382D01*
X0314877Y0095324D01*
X0314893Y009526D01*
X031491Y0095191D01*
X0314921Y0095116D01*
X0314926Y0095036D01*
X0314929Y009495D01*
Y0093044D01*
X0314458D01*
Y0094792D01*
Y0094795D01*
Y0094806D01*
Y009482D01*
Y0094839D01*
Y0094862D01*
X0314456Y0094889D01*
X0314453Y009495D01*
X0314447Y0095017D01*
X0314439Y0095083D01*
X0314428Y0095147D01*
X031442Y0095174D01*
X0314411Y0095199D01*
Y0095202D01*
X0314408Y0095205D01*
X0314403Y0095219D01*
X0314392Y0095244D01*
X0314375Y0095271D01*
X031435Y0095302D01*
X0314323Y0095335D01*
X0314287Y0095368D01*
X0314245Y0095399D01*
X031424Y0095402D01*
X0314223Y009541D01*
X0314198Y0095424D01*
X0314165Y0095438D01*
X0314123Y0095451D01*
X0314076Y0095465D01*
X0314021Y0095474D01*
X0313963Y0095476D01*
X0313935D01*
X0313915Y0095474D01*
X0313891Y0095471D01*
X031386Y0095465D01*
X0313827Y009546D01*
X0313793Y0095451D01*
X0313755Y009544D01*
X0313716Y0095429D01*
X0313677Y0095413D01*
X0313636Y0095393D01*
X0313594Y0095371D01*
X0313555Y0095344D01*
X0313516Y0095316D01*
X0313478Y009528D01*
X0313475Y0095277D01*
X0313469Y0095271D01*
X0313461Y009526D01*
X0313447Y0095244D01*
X0313433Y0095222D01*
X0313417Y0095197D01*
X03134Y0095166D01*
X0313381Y009513D01*
X0313364Y0095089D01*
X0313345Y0095042D01*
X0313328Y0094992D01*
X0313314Y0094936D01*
X03133Y0094873D01*
X0313292Y0094806D01*
X0313287Y0094734D01*
X0313284Y0094656D01*
Y0093044D01*
X0312813D01*
Y0094848D01*
Y009485D01*
Y0094862D01*
Y0094878D01*
X031281Y00949D01*
Y0094925D01*
X0312807Y0094956D01*
X0312805Y0094989D01*
X0312799Y0095025D01*
X0312785Y00951D01*
X0312763Y0095177D01*
X0312735Y0095252D01*
X0312716Y0095288D01*
X0312697Y0095319D01*
Y0095321D01*
X0312691Y0095324D01*
X0312685Y0095332D01*
X0312674Y0095344D01*
X0312663Y0095355D01*
X0312647Y0095368D01*
X0312627Y0095382D01*
X0312608Y0095399D01*
X0312583Y0095413D01*
X0312555Y0095427D01*
X0312525Y009544D01*
X0312489Y0095451D01*
X0312453Y0095463D01*
X0312411Y0095471D01*
X0312367Y0095474D01*
X031232Y0095476D01*
X03123D01*
X0312287Y0095474D01*
X031227D01*
X0312248Y0095471D01*
X0312201Y0095463D01*
X0312145Y0095451D01*
X0312082Y0095432D01*
X0312018Y0095407D01*
X0311954Y0095371D01*
X0311951D01*
X0311946Y0095366D01*
X0311938Y009536D01*
X0311927Y0095352D01*
X0311896Y0095327D01*
X031186Y0095294D01*
X0311819Y0095249D01*
X031178Y0095197D01*
X0311741Y0095136D01*
X0311708Y0095064D01*
Y0095061D01*
X0311705Y0095055D01*
X0311702Y0095042D01*
X0311697Y0095028D01*
X0311691Y0095006D01*
X0311683Y0094981D01*
X0311677Y009495D01*
X0311672Y0094917D01*
X0311663Y0094878D01*
X0311658Y0094834D01*
X0311649Y0094787D01*
X0311644Y0094734D01*
X0311641Y0094679D01*
X0311636Y0094618D01*
X0311633Y0094554D01*
Y0094485D01*
Y0093044D01*
X0311162D01*
Y0095823D01*
X0311583D01*
Y0095429D01*
X0311586Y0095432D01*
X0311589Y0095438D01*
X0311597Y0095449D01*
X0311608Y0095463D01*
X0311619Y0095482D01*
X0311636Y0095501D01*
X0311674Y0095548D01*
X0311724Y0095601D01*
X0311785Y0095654D01*
X0311852Y0095709D01*
X0311929Y0095759D01*
X0311932Y0095762D01*
X031194Y0095764D01*
X0311951Y009577D01*
X0311968Y0095778D01*
X0311987Y0095787D01*
X0312012Y0095798D01*
X0312043Y0095809D01*
X0312073Y0095823D01*
X0312109Y0095834D01*
X0312145Y0095845D01*
X0312187Y0095856D01*
X0312231Y0095864D01*
X0312325Y0095878D01*
X0312375Y0095884D01*
X0312456D01*
X0312478Y0095881D01*
X0312503D01*
X0312533Y0095878D01*
X0312569Y0095873D01*
X0312605Y0095867D01*
X0312685Y0095853D01*
X0312769Y0095828D01*
X0312855Y0095798D01*
X0312893Y0095776D01*
X0312932Y0095753D01*
X0312935Y0095751D01*
X031294Y0095748D01*
X0312951Y009574D01*
X0312965Y0095731D01*
X0312979Y0095717D01*
X0312999Y0095701D01*
X031304Y0095662D01*
X0313087Y0095609D01*
X0313131Y0095548D01*
X0313173Y0095476D01*
X0313209Y0095396D01*
Y0095399D01*
X0313212Y0095402D01*
X0313226Y0095418D01*
X0313242Y009544D01*
X031327Y0095474D01*
X0313303Y009551D01*
X0313342Y0095551D01*
X0313389Y0095596D01*
X0313442Y009564D01*
X03135Y0095684D01*
X0313566Y0095728D01*
X0313636Y009577D01*
X0313713Y0095809D01*
X0313793Y0095839D01*
X0313882Y0095862D01*
X0313973Y0095878D01*
X0314021Y0095884D01*
X031409D01*
X0314109Y0095881D01*
D02*
G37*
G36*
X0310417Y009638D02*
X0308882D01*
X0308677Y0095346D01*
X030868Y0095349D01*
X0308694Y0095357D01*
X0308711Y0095368D01*
X0308738Y0095385D01*
X0308769Y0095402D01*
X0308805Y0095424D01*
X0308849Y0095443D01*
X0308896Y0095468D01*
X0308949Y009549D01*
X0309004Y0095512D01*
X0309065Y0095532D01*
X0309126Y0095548D01*
X0309192Y0095565D01*
X0309259Y0095576D01*
X0309331Y0095584D01*
X03094Y0095587D01*
X0309422D01*
X030945Y0095584D01*
X0309483Y0095582D01*
X0309528Y0095576D01*
X0309578Y0095568D01*
X0309636Y0095557D01*
X0309697Y0095543D01*
X030976Y0095526D01*
X030983Y0095501D01*
X0309899Y0095474D01*
X0309971Y009544D01*
X0310043Y0095399D01*
X0310115Y0095355D01*
X0310184Y0095299D01*
X0310251Y0095238D01*
X0310253Y0095236D01*
X0310264Y0095222D01*
X0310284Y0095202D01*
X0310306Y0095174D01*
X0310331Y0095141D01*
X0310362Y00951D01*
X0310392Y009505D01*
X0310425Y0094994D01*
X0310456Y0094933D01*
X0310486Y0094867D01*
X0310517Y0094792D01*
X0310544Y0094715D01*
X0310564Y0094629D01*
X0310583Y0094537D01*
X0310594Y0094443D01*
X0310597Y0094344D01*
Y0094341D01*
Y0094338D01*
Y009433D01*
Y0094321D01*
X0310594Y0094294D01*
X0310591Y0094258D01*
X0310589Y0094211D01*
X031058Y0094158D01*
X0310572Y00941D01*
X0310558Y0094036D01*
X0310542Y0093967D01*
X0310522Y0093895D01*
X0310497Y009382D01*
X031047Y0093745D01*
X0310434Y0093668D01*
X0310392Y0093593D01*
X0310345Y0093518D01*
X0310292Y0093446D01*
X0310287Y0093441D01*
X0310276Y0093427D01*
X0310253Y0093405D01*
X0310226Y0093374D01*
X0310187Y0093338D01*
X0310143Y0093299D01*
X031009Y0093258D01*
X0310029Y0093213D01*
X030996Y0093169D01*
X0309885Y0093128D01*
X0309802Y0093089D01*
X0309711Y0093053D01*
X0309614Y0093025D01*
X0309511Y0093D01*
X03094Y0092986D01*
X0309284Y0092981D01*
X0309262D01*
X0309234Y0092983D01*
X0309198Y0092986D01*
X0309154Y0092989D01*
X0309101Y0092997D01*
X0309043Y0093006D01*
X0308982Y0093017D01*
X0308915Y0093033D01*
X0308846Y0093053D01*
X0308774Y0093075D01*
X0308702Y0093103D01*
X0308633Y0093136D01*
X0308561Y0093175D01*
X0308494Y0093222D01*
X0308431Y0093271D01*
X0308428Y0093274D01*
X0308417Y0093285D01*
X03084Y0093302D01*
X0308378Y0093324D01*
X0308353Y0093355D01*
X0308323Y0093391D01*
X0308292Y0093432D01*
X0308259Y0093479D01*
X0308226Y0093532D01*
X0308195Y009359D01*
X0308162Y0093654D01*
X0308132Y0093723D01*
X0308107Y0093798D01*
X0308085Y0093878D01*
X0308065Y0093961D01*
X0308054Y009405D01*
X0308547Y0094091D01*
Y0094089D01*
X030855Y0094075D01*
X0308553Y0094058D01*
X0308558Y0094033D01*
X0308566Y0094003D01*
X0308575Y0093967D01*
X0308586Y0093928D01*
X03086Y0093887D01*
X0308633Y0093801D01*
X0308652Y0093753D01*
X0308675Y0093709D01*
X0308702Y0093665D01*
X030873Y0093623D01*
X0308763Y0093585D01*
X0308799Y0093549D01*
X0308802Y0093546D01*
X0308807Y009354D01*
X0308819Y0093532D01*
X0308835Y0093521D01*
X0308855Y0093507D01*
X0308879Y009349D01*
X0308904Y0093476D01*
X0308935Y009346D01*
X0308968Y0093441D01*
X0309007Y0093427D01*
X0309046Y009341D01*
X030909Y0093396D01*
X0309134Y0093385D01*
X0309181Y0093377D01*
X0309231Y0093371D01*
X0309284Y0093369D01*
X0309301D01*
X0309317Y0093371D01*
X0309342D01*
X030937Y0093377D01*
X0309406Y0093382D01*
X0309445Y0093391D01*
X0309486Y0093402D01*
X030953Y0093413D01*
X0309578Y0093429D01*
X0309625Y0093452D01*
X0309675Y0093476D01*
X0309722Y0093504D01*
X0309771Y009354D01*
X0309819Y0093579D01*
X0309863Y0093623D01*
X0309866Y0093626D01*
X0309874Y0093634D01*
X0309885Y0093651D01*
X0309899Y009367D01*
X0309918Y0093695D01*
X0309938Y0093726D01*
X030996Y0093762D01*
X0309982Y0093803D01*
X0310001Y009385D01*
X0310023Y00939D01*
X0310043Y0093956D01*
X0310062Y0094017D01*
X0310076Y0094083D01*
X0310087Y0094152D01*
X0310096Y0094224D01*
X0310098Y0094302D01*
Y0094308D01*
Y0094319D01*
X0310096Y0094341D01*
Y0094368D01*
X0310093Y0094402D01*
X0310087Y0094443D01*
X0310079Y0094485D01*
X0310071Y0094535D01*
X0310057Y0094585D01*
X0310043Y0094634D01*
X0310023Y0094687D01*
X0310001Y0094742D01*
X0309976Y0094795D01*
X0309946Y0094845D01*
X030991Y0094895D01*
X0309871Y0094939D01*
X0309868Y0094942D01*
X030986Y009495D01*
X0309849Y0094961D01*
X030983Y0094975D01*
X0309807Y0094994D01*
X030978Y0095014D01*
X0309749Y0095033D01*
X0309713Y0095055D01*
X0309672Y0095078D01*
X0309627Y0095097D01*
X030958Y0095119D01*
X0309528Y0095136D01*
X030947Y009515D01*
X0309409Y0095161D01*
X0309345Y0095169D01*
X0309278Y0095172D01*
X0309256D01*
X030924Y0095169D01*
X030922D01*
X0309195Y0095166D01*
X030917Y0095163D01*
X030914Y0095158D01*
X0309076Y0095147D01*
X0309007Y0095127D01*
X0308935Y0095103D01*
X0308866Y0095066D01*
X0308863D01*
X0308857Y0095061D01*
X0308849Y0095055D01*
X0308835Y0095047D01*
X0308802Y0095025D01*
X030876Y0094994D01*
X0308716Y0094956D01*
X0308669Y0094911D01*
X0308622Y0094859D01*
X030858Y0094801D01*
X0308137Y0094859D01*
X0308508Y0096828D01*
X0310417D01*
Y009638D01*
D02*
G37*
G36*
X030188Y0096889D02*
X0301913Y0096886D01*
X0301952Y0096881D01*
X0301993Y0096875D01*
X030204Y0096867D01*
X0302093Y0096856D01*
X0302146Y0096842D01*
X0302204Y0096825D01*
X0302262Y0096806D01*
X030232Y0096784D01*
X0302381Y0096756D01*
X0302439Y0096726D01*
X0302497Y009669D01*
X03025Y0096687D01*
X0302511Y0096681D01*
X0302528Y0096667D01*
X0302547Y0096654D01*
X0302575Y0096631D01*
X0302606Y0096607D01*
X0302636Y0096576D01*
X0302672Y0096543D01*
X0302711Y0096504D01*
X0302749Y009646D01*
X0302788Y0096413D01*
X0302827Y009636D01*
X0302866Y0096305D01*
X0302902Y0096246D01*
X0302938Y0096183D01*
X0302968Y0096114D01*
X0302971Y0096108D01*
X0302977Y0096097D01*
X0302982Y0096075D01*
X0302993Y0096044D01*
X0303007Y0096005D01*
X0303021Y0095958D01*
X0303035Y0095903D01*
X0303051Y0095839D01*
X0303065Y0095767D01*
X0303079Y0095687D01*
X0303093Y0095601D01*
X0303107Y0095504D01*
X0303118Y0095399D01*
X0303123Y0095288D01*
X0303129Y0095166D01*
X0303132Y0095039D01*
Y0095036D01*
Y009503D01*
Y0095019D01*
Y0095006D01*
Y0094989D01*
Y0094969D01*
X0303129Y0094945D01*
Y0094917D01*
Y0094886D01*
X0303126Y0094856D01*
X0303123Y0094784D01*
X0303118Y0094704D01*
X0303112Y0094618D01*
X0303104Y0094526D01*
X0303093Y0094432D01*
X0303079Y0094332D01*
X0303065Y0094235D01*
X0303046Y0094138D01*
X0303024Y0094044D01*
X0302999Y0093956D01*
X0302971Y009387D01*
X0302968Y0093864D01*
X0302963Y009385D01*
X0302955Y0093828D01*
X0302941Y0093798D01*
X0302924Y0093762D01*
X0302905Y009372D01*
X030288Y0093673D01*
X0302852Y0093623D01*
X0302819Y0093571D01*
X0302785Y0093518D01*
X0302744Y0093463D01*
X0302702Y0093407D01*
X0302655Y0093355D01*
X0302606Y0093302D01*
X0302553Y0093252D01*
X0302495Y0093208D01*
X0302492Y0093205D01*
X0302481Y0093199D01*
X0302464Y0093186D01*
X0302439Y0093172D01*
X0302409Y0093155D01*
X0302373Y0093136D01*
X0302331Y0093116D01*
X0302284Y0093094D01*
X0302234Y0093072D01*
X0302176Y0093053D01*
X0302118Y0093033D01*
X0302051Y0093017D01*
X0301982Y0093003D01*
X030191Y0092992D01*
X0301835Y0092983D01*
X0301758Y0092981D01*
X0301739D01*
X0301713Y0092983D01*
X0301683D01*
X0301644Y0092989D01*
X03016Y0092994D01*
X030155Y0093003D01*
X0301498Y0093011D01*
X0301439Y0093025D01*
X0301378Y0093042D01*
X0301317Y0093061D01*
X0301256Y0093086D01*
X0301196Y0093114D01*
X0301135Y0093147D01*
X0301076Y0093186D01*
X0301021Y009323D01*
X0301018Y0093233D01*
X030101Y0093241D01*
X0300993Y0093255D01*
X0300977Y0093277D01*
X0300955Y0093302D01*
X0300927Y0093332D01*
X0300899Y0093369D01*
X0300871Y0093413D01*
X0300841Y009346D01*
X0300813Y0093512D01*
X0300783Y0093568D01*
X0300758Y0093632D01*
X0300733Y0093701D01*
X0300711Y0093773D01*
X0300694Y009385D01*
X030068Y0093934D01*
X0301132Y0093975D01*
Y0093972D01*
X0301135Y0093961D01*
X0301137Y0093945D01*
X0301143Y0093923D01*
X0301149Y0093897D01*
X0301157Y0093867D01*
X0301168Y0093831D01*
X0301179Y0093798D01*
X0301209Y009372D01*
X0301248Y0093643D01*
X0301295Y0093571D01*
X030132Y0093537D01*
X0301351Y009351D01*
X0301353Y0093507D01*
X0301359Y0093504D01*
X0301367Y0093496D01*
X0301381Y0093488D01*
X0301395Y0093476D01*
X0301414Y0093465D01*
X0301439Y0093452D01*
X0301464Y0093441D01*
X0301492Y0093427D01*
X0301525Y0093413D01*
X0301594Y0093391D01*
X0301675Y0093374D01*
X0301719Y0093371D01*
X0301766Y0093369D01*
X0301788D01*
X0301802Y0093371D01*
X0301822D01*
X0301844Y0093374D01*
X0301896Y0093379D01*
X0301955Y0093393D01*
X0302021Y009341D01*
X0302085Y0093432D01*
X0302148Y0093465D01*
X0302151D01*
X0302157Y0093471D01*
X0302165Y0093476D01*
X0302176Y0093485D01*
X0302207Y0093507D01*
X0302243Y0093537D01*
X0302284Y0093573D01*
X0302328Y0093621D01*
X0302373Y0093673D01*
X0302414Y0093731D01*
Y0093734D01*
X030242Y009374D01*
X0302425Y0093748D01*
X0302431Y0093762D01*
X0302442Y0093778D01*
X030245Y0093798D01*
X0302464Y0093823D01*
X0302475Y009385D01*
X0302489Y0093881D01*
X0302503Y0093914D01*
X0302517Y009395D01*
X0302533Y0093989D01*
X0302547Y0094033D01*
X0302561Y0094078D01*
X0302575Y0094127D01*
X0302589Y0094177D01*
Y009418D01*
X0302592Y0094191D01*
X0302594Y0094205D01*
X03026Y0094227D01*
X0302606Y0094252D01*
X0302611Y0094283D01*
X0302619Y0094316D01*
X0302625Y0094355D01*
X030263Y0094396D01*
X0302639Y0094443D01*
X030265Y009454D01*
X0302658Y0094645D01*
X0302661Y0094753D01*
Y0094756D01*
Y0094759D01*
Y0094767D01*
Y0094776D01*
Y0094789D01*
Y0094806D01*
Y0094826D01*
Y0094848D01*
X0302658Y0094845D01*
X0302655Y0094837D01*
X0302647Y0094826D01*
X0302636Y0094809D01*
X0302619Y0094789D01*
X0302603Y0094767D01*
X0302583Y0094742D01*
X0302558Y0094718D01*
X0302533Y0094687D01*
X0302503Y0094659D01*
X0302472Y0094629D01*
X0302436Y0094598D01*
X0302362Y0094537D01*
X0302273Y0094482D01*
X030227Y0094479D01*
X0302262Y0094476D01*
X0302248Y0094468D01*
X0302232Y009446D01*
X0302207Y0094449D01*
X0302182Y0094438D01*
X0302151Y0094427D01*
X0302115Y0094413D01*
X0302076Y0094399D01*
X0302038Y0094388D01*
X0301946Y0094366D01*
X0301849Y0094349D01*
X0301797Y0094346D01*
X0301744Y0094344D01*
X0301722D01*
X0301697Y0094346D01*
X0301664Y0094349D01*
X0301625Y0094355D01*
X0301575Y0094363D01*
X0301522Y0094371D01*
X0301464Y0094388D01*
X0301403Y0094404D01*
X0301337Y0094427D01*
X030127Y0094454D01*
X0301204Y0094488D01*
X0301135Y0094529D01*
X0301068Y0094573D01*
X0301002Y0094626D01*
X0300938Y0094687D01*
X0300935Y009469D01*
X0300924Y0094704D01*
X0300907Y0094723D01*
X0300888Y0094751D01*
X0300863Y0094784D01*
X0300835Y0094826D01*
X0300805Y0094875D01*
X0300775Y0094931D01*
X0300744Y0094992D01*
X0300714Y0095061D01*
X0300686Y0095136D01*
X0300661Y0095216D01*
X0300641Y0095302D01*
X0300625Y0095396D01*
X0300614Y0095493D01*
X0300611Y0095596D01*
Y0095598D01*
Y0095601D01*
Y0095609D01*
Y0095621D01*
X0300614Y0095634D01*
Y0095651D01*
X0300617Y0095692D01*
X0300622Y0095742D01*
X030063Y0095801D01*
X0300639Y0095864D01*
X0300655Y0095934D01*
X0300672Y0096005D01*
X0300694Y0096083D01*
X0300722Y0096161D01*
X0300755Y0096238D01*
X0300797Y0096316D01*
X0300841Y0096393D01*
X0300894Y0096465D01*
X0300955Y0096535D01*
X0300957Y0096537D01*
X0300971Y0096551D01*
X0300991Y0096568D01*
X0301015Y009659D01*
X0301049Y0096618D01*
X030109Y0096648D01*
X0301137Y0096681D01*
X030119Y0096715D01*
X0301251Y0096748D01*
X0301315Y0096778D01*
X0301387Y0096809D01*
X0301464Y0096837D01*
X0301545Y0096859D01*
X030163Y0096875D01*
X0301722Y0096889D01*
X0301816Y0096892D01*
X0301852D01*
X030188Y0096889D01*
D02*
G37*
G36*
X0304389Y0093044D02*
X0303855D01*
Y0093579D01*
X0304389D01*
Y0093044D01*
D02*
G37*
%LPC*%
G36*
X0306359Y0095116D02*
X0306345D01*
X0306328Y0095114D01*
X0306306D01*
X0306278Y0095108D01*
X0306245Y0095105D01*
X0306212Y0095097D01*
X0306173Y0095089D01*
X0306132Y0095075D01*
X0306087Y0095061D01*
X0306043Y0095042D01*
X0305996Y0095019D01*
X0305952Y0094994D01*
X0305905Y0094961D01*
X030586Y0094928D01*
X0305819Y0094886D01*
X0305816Y0094884D01*
X030581Y0094875D01*
X0305799Y0094862D01*
X0305785Y0094845D01*
X0305766Y0094823D01*
X0305749Y0094795D01*
X0305727Y0094762D01*
X0305708Y0094726D01*
X0305689Y0094684D01*
X0305666Y009464D01*
X030565Y009459D01*
X0305633Y0094537D01*
X0305616Y0094479D01*
X0305605Y0094418D01*
X03056Y0094355D01*
X0305597Y0094288D01*
Y0094285D01*
Y0094277D01*
Y0094263D01*
X03056Y0094247D01*
Y0094224D01*
X0305603Y00942D01*
X0305605Y0094169D01*
X0305611Y0094138D01*
X0305622Y0094067D01*
X0305641Y0093989D01*
X0305666Y0093906D01*
X03057Y009382D01*
Y0093817D01*
X0305705Y0093812D01*
X0305711Y0093798D01*
X0305719Y0093784D01*
X030573Y0093765D01*
X0305741Y0093745D01*
X0305774Y0093695D01*
X0305813Y009364D01*
X0305863Y0093585D01*
X0305921Y0093529D01*
X0305985Y0093482D01*
X0305988D01*
X0305993Y0093476D01*
X0306004Y0093471D01*
X0306018Y0093465D01*
X0306035Y0093457D01*
X0306054Y0093446D01*
X0306076Y0093435D01*
X0306104Y0093427D01*
X0306162Y0093405D01*
X0306229Y0093385D01*
X0306301Y0093374D01*
X0306375Y0093369D01*
X0306389D01*
X0306406Y0093371D01*
X0306425D01*
X030645Y0093377D01*
X0306481Y0093382D01*
X0306514Y0093388D01*
X0306553Y0093399D01*
X0306592Y009341D01*
X0306633Y0093427D01*
X0306675Y0093446D01*
X0306719Y0093468D01*
X0306761Y0093496D01*
X0306805Y0093529D01*
X0306846Y0093565D01*
X0306888Y0093607D01*
X0306891Y0093609D01*
X0306896Y0093618D01*
X0306907Y0093632D01*
X0306921Y0093651D01*
X0306938Y0093676D01*
X0306957Y0093704D01*
X0306977Y009374D01*
X0306996Y0093778D01*
X0307015Y0093823D01*
X0307035Y0093873D01*
X0307054Y0093925D01*
X0307071Y0093983D01*
X0307085Y0094047D01*
X0307096Y0094114D01*
X0307101Y0094186D01*
X0307104Y009426D01*
Y0094266D01*
Y0094277D01*
Y0094299D01*
X0307101Y0094327D01*
X0307098Y009436D01*
X0307093Y0094399D01*
X0307087Y0094441D01*
X0307076Y0094488D01*
X0307065Y0094537D01*
X0307051Y0094587D01*
X0307035Y009464D01*
X0307015Y0094692D01*
X030699Y0094742D01*
X030696Y0094792D01*
X0306929Y0094842D01*
X0306891Y0094886D01*
X0306888Y0094889D01*
X0306882Y0094898D01*
X0306869Y0094909D01*
X0306852Y0094922D01*
X0306833Y0094939D01*
X0306808Y0094959D01*
X0306777Y0094981D01*
X0306747Y0095003D01*
X0306708Y0095022D01*
X0306669Y0095044D01*
X0306625Y0095064D01*
X0306578Y009508D01*
X0306528Y0095094D01*
X0306475Y0095105D01*
X0306417Y0095114D01*
X0306359Y0095116D01*
D02*
G37*
G36*
X0301874Y0096501D02*
X030186D01*
X0301844Y0096499D01*
X0301822D01*
X0301794Y0096493D01*
X0301763Y0096487D01*
X0301727Y0096479D01*
X0301689Y0096468D01*
X0301644Y0096454D01*
X0301603Y0096438D01*
X0301556Y0096418D01*
X0301509Y0096393D01*
X0301462Y0096363D01*
X0301417Y009633D01*
X030137Y0096288D01*
X0301326Y0096244D01*
X0301323Y0096241D01*
X0301315Y0096233D01*
X0301304Y0096219D01*
X030129Y0096197D01*
X0301273Y0096172D01*
X0301254Y0096141D01*
X0301232Y0096105D01*
X0301212Y0096066D01*
X030119Y0096019D01*
X0301168Y0095969D01*
X0301149Y0095917D01*
X0301132Y0095856D01*
X0301118Y0095795D01*
X0301107Y0095728D01*
X0301099Y0095657D01*
X0301096Y0095582D01*
Y0095579D01*
Y0095565D01*
X0301099Y0095546D01*
Y0095521D01*
X0301101Y009549D01*
X0301107Y0095454D01*
X0301115Y0095413D01*
X0301123Y0095371D01*
X0301135Y0095324D01*
X0301149Y0095277D01*
X0301168Y0095227D01*
X0301187Y0095177D01*
X0301212Y0095127D01*
X0301243Y0095078D01*
X0301276Y009503D01*
X0301315Y0094986D01*
X0301317Y0094983D01*
X0301326Y0094978D01*
X0301337Y0094964D01*
X0301353Y009495D01*
X0301376Y0094933D01*
X03014Y0094914D01*
X0301431Y0094895D01*
X0301464Y0094873D01*
X0301503Y009485D01*
X0301545Y0094831D01*
X0301589Y0094812D01*
X0301636Y0094795D01*
X0301689Y0094781D01*
X0301744Y009477D01*
X0301799Y0094762D01*
X030186Y0094759D01*
X0301874D01*
X0301891Y0094762D01*
X0301916D01*
X0301943Y0094767D01*
X0301974Y009477D01*
X030201Y0094778D01*
X0302051Y0094787D01*
X0302093Y0094801D01*
X0302135Y0094814D01*
X0302179Y0094834D01*
X0302226Y0094856D01*
X030227Y0094881D01*
X0302315Y0094911D01*
X0302356Y0094947D01*
X0302398Y0094986D01*
X03024Y0094989D01*
X0302406Y0094997D01*
X0302417Y0095011D01*
X0302431Y0095028D01*
X0302448Y0095053D01*
X0302464Y009508D01*
X0302484Y0095114D01*
X0302503Y0095152D01*
X0302522Y0095194D01*
X0302542Y0095241D01*
X0302558Y0095294D01*
X0302575Y0095352D01*
X0302589Y0095413D01*
X03026Y0095476D01*
X0302606Y0095546D01*
X0302608Y0095621D01*
Y0095626D01*
Y0095637D01*
Y0095659D01*
X0302606Y0095687D01*
X0302603Y0095723D01*
X0302597Y0095762D01*
X0302589Y0095806D01*
X030258Y0095853D01*
X030257Y0095903D01*
X0302556Y0095956D01*
X0302539Y0096008D01*
X0302517Y0096064D01*
X0302492Y0096116D01*
X0302464Y0096166D01*
X0302431Y0096216D01*
X0302392Y0096263D01*
X0302389Y0096266D01*
X0302381Y0096274D01*
X030237Y0096285D01*
X0302353Y0096299D01*
X0302334Y0096319D01*
X0302309Y0096338D01*
X0302279Y009636D01*
X0302245Y0096382D01*
X0302209Y0096404D01*
X0302171Y0096426D01*
X0302129Y0096446D01*
X0302082Y0096465D01*
X0302035Y0096479D01*
X0301982Y009649D01*
X030193Y0096499D01*
X0301874Y0096501D01*
D02*
G37*
%LPD*%
D15*
X033Y0000469D02*
X033Y04305D01*
X0292Y00005D02*
Y0430469D01*
Y0095D02*
X0298Y0097D01*
X0292Y0095D02*
X0298Y0093D01*
X0324D02*
X033Y0095D01*
X0324Y0097D02*
X033Y0095D01*
X0292D02*
X0299611D01*
X0320389D02*
X033D01*
X0292Y00005D02*
Y0096D01*
X033Y0000469D02*
Y0096D01*
D192*
X0306Y0408D02*
Y04229D01*
X03035Y01742D02*
Y01918D01*
Y00311D02*
Y00694D01*
Y01036D02*
Y01394D01*
M02*
