G04*
G04 #@! TF.GenerationSoftware,Altium Limited,Altium Designer,20.0.13 (296)*
G04*
G04 Layer_Color=16711935*
%FSTAX25Y25*%
%MOIN*%
G70*
G01*
G75*
%ADD15C,0.01000*%
%ADD18C,0.00800*%
%ADD190C,0.00390*%
G36*
X0874527Y-0274582D02*
X087503D01*
Y-027475D01*
X0874862D01*
Y-0274917D01*
X0875365D01*
Y-0275085D01*
X0875197D01*
Y-0275253D01*
X08757D01*
Y-027542D01*
X0875533D01*
Y-0275588D01*
X0876036D01*
Y-0275756D01*
X0875868D01*
Y-0275923D01*
X0876371D01*
Y-0276091D01*
X0876204D01*
Y-0276259D01*
X0876707D01*
Y-0276427D01*
X0876539D01*
Y-0276594D01*
X0877042D01*
Y-0276762D01*
X0876874D01*
Y-027693D01*
X0877378D01*
Y-0277097D01*
X087721D01*
Y-0277265D01*
X0877713D01*
Y-0277433D01*
X0877545D01*
Y-0277601D01*
X0878048D01*
Y-0277768D01*
X0877881D01*
Y-0277936D01*
X0878384D01*
Y-0278104D01*
X0878216D01*
Y-0278271D01*
X0878719D01*
Y-0278439D01*
X0878551D01*
Y-0278607D01*
X0879055D01*
Y-0278774D01*
X0878887D01*
Y-0278942D01*
X087939D01*
Y-027911D01*
X0879222D01*
Y-0279278D01*
X0879725D01*
Y-0279445D01*
X0879558D01*
Y-0279613D01*
X0880061D01*
Y-0279781D01*
X0879893D01*
Y-0279948D01*
X0880396D01*
Y-0280116D01*
X0880228D01*
Y-0280284D01*
X0880732D01*
Y-0280451D01*
X0880564D01*
Y-0280619D01*
X0881067D01*
Y-0280787D01*
X0880899D01*
Y-0280955D01*
X0881402D01*
Y-0281122D01*
X0881235D01*
Y-028129D01*
X0881738D01*
Y-0281458D01*
X088157D01*
Y-0281625D01*
X0882073D01*
Y-0281793D01*
X0881905D01*
Y-0281961D01*
X0882409D01*
Y-0282129D01*
X0882241D01*
Y-0282296D01*
X0882744D01*
Y-0282464D01*
X0882576D01*
Y-0282632D01*
X0883079D01*
Y-0282799D01*
X0882912D01*
Y-0282967D01*
X0883415D01*
Y-0283135D01*
X0883247D01*
Y-0283302D01*
X088375D01*
Y-028347D01*
X0883582D01*
Y-0283638D01*
X0884086D01*
Y-0283805D01*
X0883918D01*
Y-0283973D01*
X0884421D01*
Y-0284141D01*
X0884253D01*
Y-0284309D01*
X0884756D01*
Y-0284476D01*
X0884589D01*
Y-0284644D01*
X0885092D01*
Y-0284812D01*
X0884924D01*
Y-028498D01*
X0884756D01*
Y-0285147D01*
X0884589D01*
Y-0285315D01*
X0884421D01*
Y-0285483D01*
X0884253D01*
Y-028565D01*
X0884086D01*
Y-0285818D01*
X0883918D01*
Y-0285986D01*
X088375D01*
Y-0286153D01*
X0883582D01*
Y-0286321D01*
X0883415D01*
Y-0286489D01*
X0883247D01*
Y-0286656D01*
X0883079D01*
Y-0286824D01*
X0882912D01*
Y-0286992D01*
X0882744D01*
Y-028716D01*
X0882576D01*
Y-0287327D01*
X0882409D01*
Y-0287495D01*
X0882241D01*
Y-0287663D01*
X0882073D01*
Y-028783D01*
X0881905D01*
Y-0287998D01*
X0881738D01*
Y-0288166D01*
X088157D01*
Y-0288334D01*
X0881402D01*
Y-0288501D01*
X0881235D01*
Y-0288669D01*
X0881067D01*
Y-0288837D01*
X0880899D01*
Y-0289004D01*
X0880732D01*
Y-0289172D01*
X0880564D01*
Y-028934D01*
X0880396D01*
Y-0289507D01*
X0880228D01*
Y-0289675D01*
X0880061D01*
Y-0289843D01*
X0879893D01*
Y-029001D01*
X0879725D01*
Y-0290178D01*
X0879558D01*
Y-0290346D01*
X087939D01*
Y-0290178D01*
X0879222D01*
Y-029001D01*
X0879055D01*
Y-0289843D01*
X0878887D01*
Y-0289675D01*
X0878719D01*
Y-0289507D01*
X0878551D01*
Y-028934D01*
X0878384D01*
Y-0289172D01*
X0878216D01*
Y-0289004D01*
X0878048D01*
Y-0288837D01*
X0877881D01*
Y-0288669D01*
X0877713D01*
Y-0288501D01*
X0877545D01*
Y-0288334D01*
X0877378D01*
Y-0288166D01*
X087721D01*
Y-0287998D01*
X0877042D01*
Y-028783D01*
X0876874D01*
Y-0287663D01*
X0876707D01*
Y-0287495D01*
X0876539D01*
Y-0287327D01*
X0876371D01*
Y-028716D01*
X0876204D01*
Y-0286992D01*
X0876036D01*
Y-0286824D01*
X0875868D01*
Y-0286656D01*
X08757D01*
Y-0286489D01*
X0875533D01*
Y-0286321D01*
X0875365D01*
Y-0286153D01*
X0875197D01*
Y-0285986D01*
X087503D01*
Y-0285818D01*
X0874862D01*
Y-028565D01*
X0874694D01*
Y-0285483D01*
X0874527D01*
Y-0285315D01*
X0874359D01*
Y-0285147D01*
X0874191D01*
Y-028498D01*
X0874024D01*
Y-0284812D01*
X0873856D01*
Y-0284644D01*
X0873688D01*
Y-0284476D01*
X087352D01*
Y-0284309D01*
X0873353D01*
Y-0284141D01*
X0873185D01*
Y-0283973D01*
X0873017D01*
Y-0283805D01*
X0872849D01*
Y-0283638D01*
X0872682D01*
Y-028347D01*
X0872514D01*
Y-0283302D01*
X0872346D01*
Y-0283135D01*
X0872179D01*
Y-0282967D01*
X0872011D01*
Y-0282799D01*
X0871843D01*
Y-0282632D01*
X0871676D01*
Y-0282464D01*
X0871508D01*
Y-0282632D01*
X0871676D01*
Y-0282799D01*
X0871508D01*
Y-0282967D01*
X0871676D01*
Y-0283135D01*
X0871508D01*
Y-0283302D01*
X0871676D01*
Y-028347D01*
X0871508D01*
Y-0283638D01*
X0871676D01*
Y-0283805D01*
X0871508D01*
Y-0283973D01*
X0871676D01*
Y-0284141D01*
X0871508D01*
Y-0284309D01*
X0871676D01*
Y-0284476D01*
X0871508D01*
Y-0284644D01*
X0871676D01*
Y-0284812D01*
X0871508D01*
Y-028498D01*
X0871676D01*
Y-0285147D01*
X0871508D01*
Y-0285315D01*
X0871676D01*
Y-0285483D01*
X0871508D01*
Y-028565D01*
X0871676D01*
Y-0285818D01*
X0871508D01*
Y-0285986D01*
X0871676D01*
Y-0286153D01*
X0871508D01*
Y-0286321D01*
X0871676D01*
Y-0286489D01*
X0871508D01*
Y-0286656D01*
X0871676D01*
Y-0286824D01*
X0871508D01*
Y-0286992D01*
X0871676D01*
Y-028716D01*
X0871508D01*
Y-0287327D01*
X0871676D01*
Y-0287495D01*
X0871508D01*
Y-0287663D01*
X0871676D01*
Y-028783D01*
X0871508D01*
Y-0287998D01*
X0871676D01*
Y-0288166D01*
X0871508D01*
Y-0288334D01*
X0871676D01*
Y-0288501D01*
X0871508D01*
Y-0288669D01*
X0871676D01*
Y-0288837D01*
X0871508D01*
Y-0289004D01*
X0871676D01*
Y-0289172D01*
X0871508D01*
Y-028934D01*
X0871676D01*
Y-0289507D01*
X0871508D01*
Y-0289675D01*
X0871676D01*
Y-0289843D01*
X0871508D01*
Y-029001D01*
X0871676D01*
Y-0290178D01*
X0871508D01*
Y-0290346D01*
X0871676D01*
Y-0290514D01*
X0871508D01*
Y-0290681D01*
X0871676D01*
Y-0290849D01*
X0871508D01*
Y-0291017D01*
X0871676D01*
Y-0291184D01*
X0871508D01*
Y-0291352D01*
X0871676D01*
Y-029152D01*
X0871508D01*
Y-0291688D01*
X0871676D01*
Y-0291855D01*
X0871508D01*
Y-0292023D01*
X0871676D01*
Y-0292191D01*
X0871508D01*
Y-0292358D01*
X0871676D01*
Y-0292526D01*
X0871508D01*
Y-0292694D01*
X0871676D01*
Y-0292862D01*
X0871508D01*
Y-0293029D01*
X0871676D01*
Y-0293197D01*
X0871508D01*
Y-0293365D01*
X0871676D01*
Y-0293532D01*
X0871508D01*
Y-02937D01*
X0871676D01*
Y-0293868D01*
X0871508D01*
Y-0294035D01*
X0871676D01*
Y-0294203D01*
X0871843D01*
Y-0294371D01*
X0872011D01*
Y-0294203D01*
X0872179D01*
Y-0294035D01*
X0872346D01*
Y-0294203D01*
X0872514D01*
Y-0294371D01*
X0872682D01*
Y-0294203D01*
X0872849D01*
Y-0294035D01*
X0873017D01*
Y-0294203D01*
X0873185D01*
Y-0294371D01*
X0873353D01*
Y-0294203D01*
X087352D01*
Y-0294035D01*
X0873688D01*
Y-0294203D01*
X0873856D01*
Y-0294371D01*
X0874024D01*
Y-0294203D01*
X0874191D01*
Y-0294035D01*
X0874359D01*
Y-0294203D01*
X0874527D01*
Y-0294371D01*
X0874694D01*
Y-0294203D01*
X0874862D01*
Y-0294035D01*
X087503D01*
Y-0294203D01*
X0875197D01*
Y-0294371D01*
X0875365D01*
Y-0294203D01*
X0875533D01*
Y-0294035D01*
X08757D01*
Y-0294203D01*
X0875868D01*
Y-0294371D01*
X0876036D01*
Y-0294203D01*
X0876204D01*
Y-0294035D01*
X0876371D01*
Y-0294203D01*
X0876539D01*
Y-0294371D01*
X0876707D01*
Y-0294203D01*
X0876874D01*
Y-0294035D01*
X0877042D01*
Y-0294203D01*
X087721D01*
Y-0294371D01*
X0877378D01*
Y-0294203D01*
X0877545D01*
Y-0294035D01*
X0877713D01*
Y-0294203D01*
X0877881D01*
Y-0294371D01*
X0878048D01*
Y-0294203D01*
X0878216D01*
Y-0294035D01*
X0878384D01*
Y-0294203D01*
X0878551D01*
Y-0294371D01*
X0878719D01*
Y-0294203D01*
X0878887D01*
Y-0294035D01*
X0879055D01*
Y-0294203D01*
X0879222D01*
Y-0294371D01*
X087939D01*
Y-0294203D01*
X0879558D01*
Y-0294035D01*
X0879725D01*
Y-0294203D01*
X0879893D01*
Y-0294371D01*
X0880061D01*
Y-0294203D01*
X0880228D01*
Y-0294035D01*
X0880396D01*
Y-0294203D01*
X0880564D01*
Y-0294371D01*
X0880732D01*
Y-0294203D01*
X0880899D01*
Y-0294035D01*
X0881067D01*
Y-0294203D01*
X0881235D01*
Y-0294371D01*
X0881402D01*
Y-0294203D01*
X088157D01*
Y-0294035D01*
X0881738D01*
Y-0294203D01*
X0881905D01*
Y-0294371D01*
X0882073D01*
Y-0294203D01*
X0882241D01*
Y-0294371D01*
X0882409D01*
Y-0294538D01*
X0882241D01*
Y-0294706D01*
X0882073D01*
Y-0294874D01*
X0881738D01*
Y-0295042D01*
Y-0295209D01*
X0881402D01*
Y-0295377D01*
Y-0295545D01*
X0881067D01*
Y-0295712D01*
Y-029588D01*
X0880899D01*
Y-0296048D01*
X0880732D01*
Y-0296216D01*
X0880396D01*
Y-0296383D01*
Y-0296551D01*
X0880061D01*
Y-0296719D01*
Y-0296886D01*
X0879725D01*
Y-0297054D01*
Y-0297222D01*
X0879558D01*
Y-0297389D01*
X087939D01*
Y-0297557D01*
X0879222D01*
Y-0297725D01*
X0879055D01*
Y-0297893D01*
X0878887D01*
Y-029806D01*
X0878719D01*
Y-0298228D01*
X0878551D01*
Y-0298396D01*
X0878384D01*
Y-0298563D01*
X0878216D01*
Y-0298731D01*
X0878048D01*
Y-0298899D01*
X0877881D01*
Y-0299066D01*
X0877713D01*
Y-0299234D01*
X0877545D01*
Y-0299402D01*
X0877378D01*
Y-029957D01*
X087721D01*
Y-0299737D01*
X0877042D01*
Y-0299905D01*
X0876874D01*
Y-0300073D01*
X0876707D01*
Y-030024D01*
X0876539D01*
Y-0300408D01*
X0876371D01*
Y-0300576D01*
X0876204D01*
Y-0300744D01*
X0876036D01*
Y-0300911D01*
X0875868D01*
Y-0301079D01*
X08757D01*
Y-0301247D01*
X0871508D01*
Y-0301414D01*
X0871676D01*
Y-0301582D01*
X0871508D01*
Y-030175D01*
X0871676D01*
Y-0301917D01*
X0871508D01*
Y-0302085D01*
X0871676D01*
Y-0302253D01*
X0871508D01*
Y-030242D01*
X0871676D01*
Y-0302588D01*
X0871508D01*
Y-0302756D01*
X0871676D01*
Y-0302924D01*
X0871508D01*
Y-0303091D01*
X0871676D01*
Y-0303259D01*
X0871508D01*
Y-0303427D01*
X0871676D01*
Y-0303594D01*
X0871508D01*
Y-0303762D01*
X0871676D01*
Y-030393D01*
X0871508D01*
Y-0304098D01*
X0871676D01*
Y-0304265D01*
X0871508D01*
Y-0304433D01*
X0871676D01*
Y-0304601D01*
X0871508D01*
Y-0304768D01*
X0871676D01*
Y-0304936D01*
X0871508D01*
Y-0305104D01*
X0871676D01*
Y-0305272D01*
X0871508D01*
Y-0305439D01*
X0871676D01*
Y-0305607D01*
X0871508D01*
Y-0305774D01*
X0871676D01*
Y-0305942D01*
X0871508D01*
Y-030611D01*
X0871676D01*
Y-0306278D01*
X0871508D01*
Y-0306445D01*
X0871676D01*
Y-0306613D01*
X0871508D01*
Y-0306781D01*
X0871676D01*
Y-0306948D01*
X0871508D01*
Y-0307116D01*
X0871676D01*
Y-0307284D01*
X0871508D01*
Y-0307452D01*
X0871676D01*
Y-0307619D01*
X0871508D01*
Y-0307787D01*
X0871676D01*
Y-0307955D01*
X0871508D01*
Y-0308122D01*
X0871676D01*
Y-030829D01*
X0871508D01*
Y-0308458D01*
X0871676D01*
Y-0308626D01*
X0871508D01*
Y-0308793D01*
X0871676D01*
Y-0308961D01*
X0871508D01*
Y-0309129D01*
X0871676D01*
Y-0309296D01*
X0871508D01*
Y-0309464D01*
X0871843D01*
Y-0309632D01*
Y-0309799D01*
X0872346D01*
Y-0309967D01*
Y-0310135D01*
X0872682D01*
Y-0310302D01*
X0872514D01*
Y-031047D01*
X0873017D01*
Y-0310638D01*
Y-0310806D01*
X0873353D01*
Y-0310973D01*
Y-0311141D01*
X0873688D01*
Y-0310973D01*
Y-0310806D01*
X0874024D01*
Y-0310638D01*
X0873856D01*
Y-031047D01*
X0874359D01*
Y-0310302D01*
Y-0310135D01*
X0874694D01*
Y-0309967D01*
X0874527D01*
Y-0309799D01*
X087503D01*
Y-0309632D01*
Y-0309464D01*
X0875365D01*
Y-0309296D01*
X0875197D01*
Y-0309129D01*
X08757D01*
Y-0308961D01*
X0875868D01*
Y-0308793D01*
X0876036D01*
Y-0308626D01*
X0875868D01*
Y-0308458D01*
X0876371D01*
Y-030829D01*
Y-0308122D01*
X0876707D01*
Y-0307955D01*
X0876539D01*
Y-0307787D01*
X0877042D01*
Y-0307619D01*
Y-0307452D01*
X0877378D01*
Y-0307284D01*
X087721D01*
Y-0307116D01*
X0877713D01*
Y-0306948D01*
Y-0306781D01*
X0878048D01*
Y-0306613D01*
X0877881D01*
Y-0306445D01*
X0878384D01*
Y-0306278D01*
X0878551D01*
Y-030611D01*
X0878719D01*
Y-0305942D01*
X0878551D01*
Y-0305774D01*
X0879055D01*
Y-0305607D01*
Y-0305439D01*
X087939D01*
Y-0305272D01*
X0879222D01*
Y-0305104D01*
X087939D01*
Y-0305272D01*
X0879558D01*
Y-0305439D01*
X0879725D01*
Y-0305607D01*
X0879893D01*
Y-0305774D01*
X0880061D01*
Y-0305942D01*
X0880228D01*
Y-030611D01*
X0880396D01*
Y-0306278D01*
X0880564D01*
Y-0306445D01*
X0880732D01*
Y-0306613D01*
X0880899D01*
Y-0306781D01*
X0881067D01*
Y-0306948D01*
X0881235D01*
Y-0307116D01*
X0881402D01*
Y-0307284D01*
X088157D01*
Y-0307452D01*
X0881738D01*
Y-0307619D01*
X0881905D01*
Y-0307787D01*
X0882073D01*
Y-0307955D01*
X0882241D01*
Y-0308122D01*
X0882409D01*
Y-030829D01*
X0882576D01*
Y-0308458D01*
X0882744D01*
Y-0308626D01*
X0882912D01*
Y-0308793D01*
X0883079D01*
Y-0308961D01*
X0883247D01*
Y-0309129D01*
X0883582D01*
Y-0309296D01*
Y-0309464D01*
X0883918D01*
Y-0309632D01*
Y-0309799D01*
X0884253D01*
Y-0309967D01*
Y-0310135D01*
X0884421D01*
Y-0310302D01*
X0884589D01*
Y-031047D01*
X0884756D01*
Y-0310638D01*
X0884421D01*
Y-0310806D01*
Y-0310973D01*
X0883918D01*
Y-0311141D01*
X0884086D01*
Y-0311309D01*
X088375D01*
Y-0311476D01*
Y-0311644D01*
X0883247D01*
Y-0311812D01*
X0883415D01*
Y-031198D01*
X0883079D01*
Y-0312147D01*
Y-0312315D01*
X0882576D01*
Y-0312483D01*
X0882744D01*
Y-031265D01*
X0882409D01*
Y-0312818D01*
Y-0312986D01*
X0881905D01*
Y-0313154D01*
X0882073D01*
Y-0313321D01*
X0881738D01*
Y-0313489D01*
Y-0313657D01*
X0881235D01*
Y-0313824D01*
X0881402D01*
Y-0313992D01*
X0880899D01*
Y-031416D01*
X0881067D01*
Y-0314327D01*
X0880564D01*
Y-0314495D01*
X0880732D01*
Y-0314663D01*
X0880228D01*
Y-031483D01*
X0880396D01*
Y-0314998D01*
X0879893D01*
Y-0315166D01*
X0880061D01*
Y-0315334D01*
X0879558D01*
Y-0315501D01*
X0879725D01*
Y-0315669D01*
X0879222D01*
Y-0315837D01*
X087939D01*
Y-0316004D01*
X0878887D01*
Y-0316172D01*
X0879055D01*
Y-031634D01*
X0878551D01*
Y-0316508D01*
X0878719D01*
Y-0316675D01*
X0878216D01*
Y-0316843D01*
X0878384D01*
Y-0317011D01*
X0878216D01*
Y-0316843D01*
X0878048D01*
Y-0317011D01*
X0877881D01*
Y-0317178D01*
X0878048D01*
Y-0317346D01*
X0877545D01*
Y-0317514D01*
X0877713D01*
Y-0317681D01*
X087721D01*
Y-0317849D01*
X0877378D01*
Y-0318017D01*
X0876874D01*
Y-0318185D01*
X0877042D01*
Y-0318352D01*
X0876874D01*
Y-0318185D01*
X0876707D01*
Y-0318352D01*
X0876539D01*
Y-031852D01*
X0876707D01*
Y-0318688D01*
X0876204D01*
Y-0318855D01*
X0876371D01*
Y-0319023D01*
X0875868D01*
Y-0319191D01*
X0876036D01*
Y-0319358D01*
X0875533D01*
Y-0319526D01*
X0875365D01*
Y-0319694D01*
X0875197D01*
Y-0319862D01*
X0875365D01*
Y-0320029D01*
X0874862D01*
Y-0320197D01*
X0874694D01*
Y-0320365D01*
X0874527D01*
Y-0320532D01*
X0874694D01*
Y-03207D01*
X0874527D01*
Y-0320532D01*
X0874359D01*
Y-03207D01*
X0874191D01*
Y-0320868D01*
X0874024D01*
Y-0321036D01*
X0873856D01*
Y-0321203D01*
X0873688D01*
Y-0321036D01*
X087352D01*
Y-0320868D01*
X0873353D01*
Y-03207D01*
X0873185D01*
Y-0320532D01*
X0873017D01*
Y-0320365D01*
X0872849D01*
Y-0320197D01*
X0872682D01*
Y-0320029D01*
X0872514D01*
Y-0319862D01*
X0872346D01*
Y-0319694D01*
X0872179D01*
Y-0319526D01*
X0872011D01*
Y-0319358D01*
X0871843D01*
Y-0319191D01*
X0872011D01*
Y-0319023D01*
X0871508D01*
Y-0318855D01*
X0871676D01*
Y-0318688D01*
X0871173D01*
Y-031852D01*
X087134D01*
Y-0318352D01*
X0870837D01*
Y-0318185D01*
X0871005D01*
Y-0318017D01*
X0870502D01*
Y-0317849D01*
X0870669D01*
Y-0317681D01*
X0870166D01*
Y-0317514D01*
X0870334D01*
Y-0317346D01*
X0869831D01*
Y-0317178D01*
X0869999D01*
Y-0317011D01*
X0869495D01*
Y-0316843D01*
X0869663D01*
Y-0316675D01*
X086916D01*
Y-0316508D01*
X0869328D01*
Y-031634D01*
X0868825D01*
Y-0316172D01*
X0868992D01*
Y-0316004D01*
X0868489D01*
Y-0315837D01*
X0868657D01*
Y-0315669D01*
X0868154D01*
Y-0315501D01*
X0868322D01*
Y-0315334D01*
X0867819D01*
Y-0315166D01*
X0867986D01*
Y-0314998D01*
X0867483D01*
Y-031483D01*
X0867651D01*
Y-0314663D01*
X0867148D01*
Y-0314495D01*
X0867315D01*
Y-0314327D01*
X0866812D01*
Y-031416D01*
X086698D01*
Y-0313992D01*
X0866477D01*
Y-0313824D01*
X0866644D01*
Y-0313657D01*
X0866141D01*
Y-0313489D01*
X0866309D01*
Y-0313321D01*
X0865806D01*
Y-0313154D01*
X0865974D01*
Y-0312986D01*
X0865471D01*
Y-0312818D01*
X0865638D01*
Y-031265D01*
X0865135D01*
Y-0312483D01*
X0865303D01*
Y-0312315D01*
X08648D01*
Y-0312147D01*
X0864968D01*
Y-031198D01*
X0864464D01*
Y-0311812D01*
X0864632D01*
Y-0311644D01*
X0864464D01*
Y-0311476D01*
X0864297D01*
Y-0311309D01*
X0864464D01*
Y-0311141D01*
X0864297D01*
Y-0310973D01*
X0864464D01*
Y-0310806D01*
X0864297D01*
Y-0310638D01*
X0864464D01*
Y-031047D01*
X0864297D01*
Y-0310302D01*
X0864464D01*
Y-0310135D01*
X0864297D01*
Y-0309967D01*
X0864464D01*
Y-0309799D01*
X0864297D01*
Y-0309632D01*
X0864464D01*
Y-0309464D01*
X0864297D01*
Y-0309296D01*
X0864464D01*
Y-0309129D01*
X0864297D01*
Y-0308961D01*
X0864464D01*
Y-0308793D01*
X0864297D01*
Y-0308626D01*
X0864464D01*
Y-0308458D01*
X0864297D01*
Y-030829D01*
X0864464D01*
Y-0308122D01*
X0864297D01*
Y-0307955D01*
X0864464D01*
Y-0307787D01*
X0864297D01*
Y-0307619D01*
X0864464D01*
Y-0307452D01*
X0864297D01*
Y-0307284D01*
X0864464D01*
Y-0307116D01*
X0864297D01*
Y-0306948D01*
X0864464D01*
Y-0306781D01*
X0864297D01*
Y-0306613D01*
X0864464D01*
Y-0306445D01*
X0864297D01*
Y-0306278D01*
X0864464D01*
Y-030611D01*
X0864297D01*
Y-0305942D01*
X0864464D01*
Y-0305774D01*
X0864297D01*
Y-0305607D01*
X0864464D01*
Y-0305439D01*
X0864297D01*
Y-0305272D01*
X0864464D01*
Y-0305104D01*
X0864297D01*
Y-0304936D01*
X0864464D01*
Y-0304768D01*
X0864297D01*
Y-0304601D01*
X0864464D01*
Y-0304433D01*
X0864297D01*
Y-0304265D01*
X0864464D01*
Y-0304098D01*
X0864297D01*
Y-030393D01*
X0864464D01*
Y-0303762D01*
X0864297D01*
Y-0303594D01*
X0864464D01*
Y-0303427D01*
X0864297D01*
Y-0303259D01*
X0864464D01*
Y-0303091D01*
X0864297D01*
Y-0302924D01*
X0864464D01*
Y-0302756D01*
X0864297D01*
Y-0302588D01*
X0864464D01*
Y-030242D01*
X0864297D01*
Y-0302253D01*
X0864464D01*
Y-0302085D01*
X0864297D01*
Y-0301917D01*
X0864464D01*
Y-030175D01*
X0864297D01*
Y-0301582D01*
X0864464D01*
Y-0301414D01*
X0864297D01*
Y-0301247D01*
X0864464D01*
Y-0301079D01*
X0864297D01*
Y-0300911D01*
X0864464D01*
Y-0300744D01*
X0864297D01*
Y-0300576D01*
X0864464D01*
Y-0300408D01*
X0864297D01*
Y-030024D01*
X0864464D01*
Y-0300073D01*
X0864297D01*
Y-0299905D01*
X0864464D01*
Y-0299737D01*
X0864297D01*
Y-029957D01*
X0864464D01*
Y-0299402D01*
X0864297D01*
Y-0299234D01*
X0864464D01*
Y-0299066D01*
X0864297D01*
Y-0298899D01*
X0864464D01*
Y-0298731D01*
X0864297D01*
Y-0298563D01*
X0864464D01*
Y-0298396D01*
X0864297D01*
Y-0298228D01*
X0864464D01*
Y-029806D01*
X0864297D01*
Y-0297893D01*
X0864464D01*
Y-0297725D01*
X0864297D01*
Y-0297557D01*
X0864464D01*
Y-0297389D01*
X0864297D01*
Y-0297222D01*
X0864464D01*
Y-0297054D01*
X0864297D01*
Y-0296886D01*
X0864464D01*
Y-0296719D01*
X0864297D01*
Y-0296551D01*
X0864464D01*
Y-0296383D01*
X0864297D01*
Y-0296216D01*
X0864464D01*
Y-0296048D01*
X0864297D01*
Y-029588D01*
X0864464D01*
Y-0295712D01*
X0864297D01*
Y-0295545D01*
X0864464D01*
Y-0295377D01*
X0864297D01*
Y-0295209D01*
X0864464D01*
Y-0295042D01*
X0864297D01*
Y-0294874D01*
X0864464D01*
Y-0294706D01*
X0864297D01*
Y-0294538D01*
X0864464D01*
Y-0294371D01*
X0864297D01*
Y-0294203D01*
X0864464D01*
Y-0294035D01*
X0864297D01*
Y-0293868D01*
X0864464D01*
Y-02937D01*
X0864297D01*
Y-0293532D01*
X0864464D01*
Y-0293365D01*
X0864297D01*
Y-0293197D01*
X0864464D01*
Y-0293029D01*
X0864297D01*
Y-0292862D01*
X0864464D01*
Y-0292694D01*
X0864297D01*
Y-0292526D01*
X0864464D01*
Y-0292358D01*
X0864297D01*
Y-0292191D01*
X0864464D01*
Y-0292023D01*
X0864297D01*
Y-0291855D01*
X0864464D01*
Y-0291688D01*
X0864297D01*
Y-029152D01*
X0864464D01*
Y-0291352D01*
X0864297D01*
Y-0291184D01*
X0864464D01*
Y-0291017D01*
X0864297D01*
Y-0290849D01*
X0864464D01*
Y-0290681D01*
X0864297D01*
Y-0290514D01*
X0864464D01*
Y-0290346D01*
X0864297D01*
Y-0290178D01*
X0864464D01*
Y-029001D01*
X0864297D01*
Y-0289843D01*
X0864464D01*
Y-0289675D01*
X0864297D01*
Y-0289507D01*
X0864464D01*
Y-028934D01*
X0864297D01*
Y-0289172D01*
X0864464D01*
Y-0289004D01*
X0864297D01*
Y-0288837D01*
X0864464D01*
Y-0288669D01*
X0864297D01*
Y-0288501D01*
X0864464D01*
Y-0288334D01*
X0864297D01*
Y-0288166D01*
X0864464D01*
Y-0287998D01*
X0864297D01*
Y-028783D01*
X0864464D01*
Y-0287663D01*
X0864297D01*
Y-0287495D01*
X0864464D01*
Y-0287327D01*
X0864297D01*
Y-028716D01*
X0864464D01*
Y-0286992D01*
X0864297D01*
Y-0286824D01*
X0864464D01*
Y-0286656D01*
X0864297D01*
Y-0286489D01*
X0864464D01*
Y-0286321D01*
X0864297D01*
Y-0286153D01*
X0864464D01*
Y-0285986D01*
X0864297D01*
Y-0285818D01*
X0864464D01*
Y-028565D01*
X0864297D01*
Y-0285483D01*
X0864464D01*
Y-0285315D01*
X0864297D01*
Y-0285147D01*
X0864464D01*
Y-028498D01*
X0864297D01*
Y-0284812D01*
X0864464D01*
Y-0284644D01*
X0864297D01*
Y-0284476D01*
X0864464D01*
Y-0284309D01*
X0864632D01*
Y-0284141D01*
X08648D01*
Y-0283973D01*
X0864968D01*
Y-0283805D01*
Y-0283638D01*
X0865303D01*
Y-028347D01*
X0865471D01*
Y-0283302D01*
X0865638D01*
Y-0283135D01*
Y-0282967D01*
X0865974D01*
Y-0282799D01*
X0866141D01*
Y-0282632D01*
X0866309D01*
Y-0282464D01*
Y-0282296D01*
X0866644D01*
Y-0282129D01*
X0866812D01*
Y-0281961D01*
X086698D01*
Y-0281793D01*
Y-0281625D01*
X0867315D01*
Y-0281458D01*
X0867483D01*
Y-028129D01*
X0867651D01*
Y-0281122D01*
Y-0280955D01*
X0867986D01*
Y-0280787D01*
X0868154D01*
Y-0280619D01*
X0868322D01*
Y-0280451D01*
Y-0280284D01*
X0868657D01*
Y-0280116D01*
X0868825D01*
Y-0279948D01*
X0868992D01*
Y-0279781D01*
Y-0279613D01*
X0869328D01*
Y-0279445D01*
X0869495D01*
Y-0279278D01*
X0869663D01*
Y-027911D01*
Y-0278942D01*
X0869999D01*
Y-0278774D01*
X0870166D01*
Y-0278607D01*
X0870334D01*
Y-0278439D01*
Y-0278271D01*
X0870669D01*
Y-0278104D01*
X0870837D01*
Y-0277936D01*
X0871005D01*
Y-0277768D01*
Y-0277601D01*
X087134D01*
Y-0277433D01*
X0871508D01*
Y-0277265D01*
X0871676D01*
Y-0277097D01*
Y-027693D01*
X0872011D01*
Y-0276762D01*
X0872179D01*
Y-0276594D01*
X0872346D01*
Y-0276427D01*
Y-0276259D01*
X0872682D01*
Y-0276091D01*
X0872849D01*
Y-0275923D01*
X0873017D01*
Y-0275756D01*
Y-0275588D01*
X0873353D01*
Y-027542D01*
X087352D01*
Y-0275253D01*
X0873688D01*
Y-0275085D01*
Y-0274917D01*
X0874024D01*
Y-027475D01*
X0874191D01*
Y-0274582D01*
X0874359D01*
Y-0274414D01*
X0874527D01*
Y-0274582D01*
D02*
G37*
G36*
X0851551Y-0274414D02*
X0851719D01*
Y-0274582D01*
X0851887D01*
Y-027475D01*
X0852054D01*
Y-0274917D01*
X0852222D01*
Y-0275085D01*
X085239D01*
Y-0275253D01*
X0852557D01*
Y-027542D01*
X0852725D01*
Y-0275588D01*
X0852893D01*
Y-0275756D01*
X0853061D01*
Y-0275923D01*
X0853228D01*
Y-0276091D01*
X0853396D01*
Y-0276259D01*
X0853564D01*
Y-0276427D01*
X0853732D01*
Y-0276594D01*
X0853899D01*
Y-0276762D01*
X0854067D01*
Y-027693D01*
X0854235D01*
Y-0277097D01*
X0854402D01*
Y-0277265D01*
X085457D01*
Y-0277433D01*
X0854738D01*
Y-0277601D01*
X0854905D01*
Y-0277768D01*
X0855073D01*
Y-0277936D01*
X0855241D01*
Y-0278104D01*
X0855408D01*
Y-0278271D01*
X0855576D01*
Y-0278439D01*
X0855744D01*
Y-0278607D01*
X0855912D01*
Y-0278774D01*
X0856079D01*
Y-0278942D01*
X0856247D01*
Y-027911D01*
X0856415D01*
Y-0279278D01*
X0856582D01*
Y-0279445D01*
X085675D01*
Y-0279613D01*
X0856918D01*
Y-0279781D01*
X0857086D01*
Y-0279948D01*
X0857253D01*
Y-0280116D01*
X0857421D01*
Y-0280284D01*
X0857589D01*
Y-0280451D01*
X0857756D01*
Y-0280619D01*
X0857924D01*
Y-0280787D01*
X0858092D01*
Y-0280955D01*
X0858259D01*
Y-0281122D01*
X0858427D01*
Y-028129D01*
X0858595D01*
Y-0281458D01*
X0858762D01*
Y-0281625D01*
X085893D01*
Y-0281793D01*
X0859098D01*
Y-0281961D01*
X0859266D01*
Y-0282129D01*
X0859433D01*
Y-0282296D01*
X0859601D01*
Y-0282464D01*
X0859769D01*
Y-0282632D01*
X0859936D01*
Y-0282799D01*
X0860104D01*
Y-0282967D01*
X0860272D01*
Y-0283135D01*
X086044D01*
Y-0283302D01*
X0860607D01*
Y-028347D01*
X0860775D01*
Y-0283638D01*
X0860943D01*
Y-0283805D01*
X086111D01*
Y-0283973D01*
X0861278D01*
Y-0284141D01*
X0861446D01*
Y-0284309D01*
X0861613D01*
Y-0284476D01*
X0861446D01*
Y-0284644D01*
X0861613D01*
Y-0284812D01*
X0861446D01*
Y-028498D01*
X0861613D01*
Y-0285147D01*
X0861446D01*
Y-0285315D01*
X0861613D01*
Y-0285483D01*
X0861446D01*
Y-028565D01*
X0861613D01*
Y-0285818D01*
X0861446D01*
Y-0285986D01*
X0861613D01*
Y-0286153D01*
X0861446D01*
Y-0286321D01*
X0861613D01*
Y-0286489D01*
X0861446D01*
Y-0286656D01*
X0861613D01*
Y-0286824D01*
X0861446D01*
Y-0286992D01*
X0861613D01*
Y-028716D01*
X0861446D01*
Y-0287327D01*
X0861613D01*
Y-0287495D01*
X0861446D01*
Y-0287663D01*
X0861613D01*
Y-028783D01*
X0861446D01*
Y-0287998D01*
X0861613D01*
Y-0288166D01*
X0861446D01*
Y-0288334D01*
X0861613D01*
Y-0288501D01*
X0861446D01*
Y-0288669D01*
X0861613D01*
Y-0288837D01*
X0861446D01*
Y-0289004D01*
X0861613D01*
Y-0289172D01*
X0861446D01*
Y-028934D01*
X0861613D01*
Y-0289507D01*
X0861446D01*
Y-0289675D01*
X0861613D01*
Y-0289843D01*
X0861446D01*
Y-029001D01*
X0861613D01*
Y-0290178D01*
X0861446D01*
Y-0290346D01*
X0861613D01*
Y-0290514D01*
X0861446D01*
Y-0290681D01*
X0861613D01*
Y-0290849D01*
X0861446D01*
Y-0291017D01*
X0861613D01*
Y-0291184D01*
X0861446D01*
Y-0291352D01*
X0861613D01*
Y-029152D01*
X0861446D01*
Y-0291688D01*
X0861613D01*
Y-0291855D01*
X0861446D01*
Y-0292023D01*
X0861613D01*
Y-0292191D01*
X0861446D01*
Y-0292358D01*
X0861613D01*
Y-0292526D01*
X0861446D01*
Y-0292694D01*
X0861613D01*
Y-0292862D01*
X0861446D01*
Y-0293029D01*
X0861613D01*
Y-0293197D01*
X0861446D01*
Y-0293365D01*
X0861613D01*
Y-0293532D01*
X0861446D01*
Y-02937D01*
X0861613D01*
Y-0293868D01*
X0861446D01*
Y-0294035D01*
X0861613D01*
Y-0294203D01*
X0861446D01*
Y-0294371D01*
X0861613D01*
Y-0294538D01*
X0861446D01*
Y-0294706D01*
X0861613D01*
Y-0294874D01*
X0861446D01*
Y-0295042D01*
X0861613D01*
Y-0295209D01*
X0861446D01*
Y-0295377D01*
X0861613D01*
Y-0295545D01*
X0861446D01*
Y-0295712D01*
X0861613D01*
Y-029588D01*
X0861446D01*
Y-0296048D01*
X0861613D01*
Y-0296216D01*
X0861446D01*
Y-0296383D01*
X0861613D01*
Y-0296551D01*
X0861446D01*
Y-0296719D01*
X0861613D01*
Y-0296886D01*
X0861446D01*
Y-0297054D01*
X0861613D01*
Y-0297222D01*
X0861446D01*
Y-0297389D01*
X0861613D01*
Y-0297557D01*
X0861446D01*
Y-0297725D01*
X0861613D01*
Y-0297893D01*
X0861446D01*
Y-029806D01*
X0861613D01*
Y-0298228D01*
X0861446D01*
Y-0298396D01*
X0861613D01*
Y-0298563D01*
X0861446D01*
Y-0298731D01*
X0861613D01*
Y-0298899D01*
X0861446D01*
Y-0299066D01*
X0861613D01*
Y-0299234D01*
X0861446D01*
Y-0299402D01*
X0861613D01*
Y-029957D01*
X0861446D01*
Y-0299737D01*
X0861613D01*
Y-0299905D01*
X0861446D01*
Y-0300073D01*
X0861613D01*
Y-030024D01*
X0861446D01*
Y-0300408D01*
X0861613D01*
Y-0300576D01*
X0861446D01*
Y-0300744D01*
X0861613D01*
Y-0300911D01*
X0861446D01*
Y-0301079D01*
X0861613D01*
Y-0301247D01*
X0861446D01*
Y-0301414D01*
X0861613D01*
Y-0301582D01*
X0861446D01*
Y-030175D01*
X0861613D01*
Y-0301917D01*
X0861446D01*
Y-0302085D01*
X0861613D01*
Y-0302253D01*
X0861446D01*
Y-030242D01*
X0861613D01*
Y-0302588D01*
X0861446D01*
Y-0302756D01*
X0861613D01*
Y-0302924D01*
X0861446D01*
Y-0303091D01*
X0861613D01*
Y-0303259D01*
X0861446D01*
Y-0303427D01*
X0861613D01*
Y-0303594D01*
X0861446D01*
Y-0303762D01*
X0861613D01*
Y-030393D01*
X0861446D01*
Y-0304098D01*
X0861613D01*
Y-0304265D01*
X0861446D01*
Y-0304433D01*
X0861613D01*
Y-0304601D01*
X0861446D01*
Y-0304768D01*
X0861613D01*
Y-0304936D01*
X0861446D01*
Y-0305104D01*
X0861613D01*
Y-0305272D01*
X0861446D01*
Y-0305439D01*
X0861613D01*
Y-0305607D01*
X0861446D01*
Y-0305774D01*
X0861613D01*
Y-0305942D01*
X0861446D01*
Y-030611D01*
X0861613D01*
Y-0306278D01*
X0861446D01*
Y-0306445D01*
X0861613D01*
Y-0306613D01*
X0861446D01*
Y-0306781D01*
X0861613D01*
Y-0306948D01*
X0861446D01*
Y-0307116D01*
X0861613D01*
Y-0307284D01*
X0861446D01*
Y-0307452D01*
X0861613D01*
Y-0307619D01*
X0861446D01*
Y-0307787D01*
X0861613D01*
Y-0307955D01*
X0861446D01*
Y-0308122D01*
X0861613D01*
Y-030829D01*
X0861446D01*
Y-0308458D01*
X0861613D01*
Y-0308626D01*
X0861446D01*
Y-0308793D01*
X0861613D01*
Y-0308961D01*
X0861446D01*
Y-0309129D01*
X0861613D01*
Y-0309296D01*
X0861446D01*
Y-0309464D01*
X0861613D01*
Y-0309632D01*
X0861446D01*
Y-0309799D01*
X0861613D01*
Y-0309967D01*
X0861446D01*
Y-0310135D01*
X0861613D01*
Y-0310302D01*
X0861446D01*
Y-031047D01*
X0861613D01*
Y-0310638D01*
X0861446D01*
Y-0310806D01*
X0861613D01*
Y-0310973D01*
X0861446D01*
Y-0311141D01*
X0861613D01*
Y-0311309D01*
X0861446D01*
Y-0311476D01*
X0861613D01*
Y-0311644D01*
Y-0311812D01*
X0861949D01*
Y-031198D01*
Y-0312147D01*
X0862284D01*
Y-0312315D01*
X0862117D01*
Y-0312483D01*
X086262D01*
Y-031265D01*
X0862452D01*
Y-0312818D01*
X0862955D01*
Y-0312986D01*
X0862787D01*
Y-0313154D01*
X0862955D01*
Y-0313321D01*
X0863123D01*
Y-0313489D01*
X0863291D01*
Y-0313657D01*
X0863458D01*
Y-0313824D01*
X0863626D01*
Y-0313992D01*
X0863794D01*
Y-031416D01*
X0863961D01*
Y-0314327D01*
X0864129D01*
Y-0314495D01*
X0864297D01*
Y-0314663D01*
X0864129D01*
Y-031483D01*
X0863961D01*
Y-0314998D01*
X0863794D01*
Y-0315166D01*
X0863626D01*
Y-0315334D01*
X0863458D01*
Y-0315501D01*
X0863291D01*
Y-0315669D01*
X0863123D01*
Y-0315837D01*
X0862955D01*
Y-0316004D01*
X0862787D01*
Y-0316172D01*
X086262D01*
Y-031634D01*
X0862452D01*
Y-0316508D01*
X0862284D01*
Y-0316675D01*
X0862117D01*
Y-0316843D01*
X0861949D01*
Y-0317011D01*
X0861781D01*
Y-0317178D01*
X0861613D01*
Y-0317346D01*
X0861446D01*
Y-0317514D01*
X0861278D01*
Y-0317681D01*
X086111D01*
Y-0317849D01*
X0860943D01*
Y-0318017D01*
X0860775D01*
Y-0318185D01*
X0860607D01*
Y-0318352D01*
X086044D01*
Y-031852D01*
X0860272D01*
Y-0318688D01*
X0860104D01*
Y-0318855D01*
X0859936D01*
Y-0319023D01*
X0859769D01*
Y-0319191D01*
X0859601D01*
Y-0319358D01*
X0859433D01*
Y-0319526D01*
X0859266D01*
Y-0319694D01*
X0859098D01*
Y-0319862D01*
X085893D01*
Y-0320029D01*
X0858762D01*
Y-0320197D01*
X0858595D01*
Y-0320365D01*
X0858427D01*
Y-0320532D01*
X0858259D01*
Y-03207D01*
X0858092D01*
Y-0320868D01*
X0857924D01*
Y-0321036D01*
X0857756D01*
Y-0321203D01*
X0857589D01*
Y-0321036D01*
X0857421D01*
Y-0320868D01*
X0857253D01*
Y-03207D01*
X0857086D01*
Y-0320532D01*
X0856918D01*
Y-0320365D01*
X085675D01*
Y-0320197D01*
X0856582D01*
Y-0320029D01*
X0856415D01*
Y-0319862D01*
X0856247D01*
Y-0319694D01*
X0856079D01*
Y-0319526D01*
X0855912D01*
Y-0319358D01*
X0855744D01*
Y-0319191D01*
X0855576D01*
Y-0319023D01*
X0855408D01*
Y-0318855D01*
X0855241D01*
Y-0318688D01*
X0855073D01*
Y-031852D01*
X0854905D01*
Y-0318352D01*
X0854738D01*
Y-0318185D01*
X085457D01*
Y-0318017D01*
X0854402D01*
Y-0317849D01*
X0854235D01*
Y-0317681D01*
X0854067D01*
Y-0317514D01*
X0853899D01*
Y-0317346D01*
X0853732D01*
Y-0317178D01*
X0853899D01*
Y-0317011D01*
X0853396D01*
Y-0316843D01*
X0853564D01*
Y-0316675D01*
X0853061D01*
Y-0316508D01*
X0853228D01*
Y-031634D01*
X0852725D01*
Y-0316172D01*
X0852893D01*
Y-0316004D01*
X085239D01*
Y-0315837D01*
X0852557D01*
Y-0315669D01*
X0852054D01*
Y-0315501D01*
X0852222D01*
Y-0315334D01*
X0851719D01*
Y-0315166D01*
X0851887D01*
Y-0314998D01*
X0851384D01*
Y-031483D01*
X0851551D01*
Y-0314663D01*
X0851048D01*
Y-0314495D01*
X0851551D01*
Y-0314327D01*
X0851384D01*
Y-031416D01*
X0851719D01*
Y-0313992D01*
Y-0313824D01*
X0852222D01*
Y-0313657D01*
X0852054D01*
Y-0313489D01*
X085239D01*
Y-0313321D01*
Y-0313154D01*
X0852893D01*
Y-0312986D01*
X0852725D01*
Y-0312818D01*
X0853061D01*
Y-031265D01*
Y-0312483D01*
X0853396D01*
Y-0312315D01*
Y-0312147D01*
X0853732D01*
Y-031198D01*
Y-0311812D01*
X0854067D01*
Y-0311644D01*
Y-0311476D01*
X0854235D01*
Y-0311309D01*
X0854067D01*
Y-0311141D01*
X0854235D01*
Y-0310973D01*
X0854067D01*
Y-0310806D01*
X0854235D01*
Y-0310638D01*
X0854067D01*
Y-031047D01*
X0854235D01*
Y-0310302D01*
X0854067D01*
Y-0310135D01*
X0854235D01*
Y-0309967D01*
X0854067D01*
Y-0309799D01*
X0854235D01*
Y-0309632D01*
X0854067D01*
Y-0309464D01*
X0854235D01*
Y-0309296D01*
X0854067D01*
Y-0309129D01*
X0854235D01*
Y-0308961D01*
X0854067D01*
Y-0308793D01*
X0854235D01*
Y-0308626D01*
X0854067D01*
Y-0308458D01*
X0854235D01*
Y-030829D01*
X0854067D01*
Y-0308122D01*
X0854235D01*
Y-0307955D01*
X0854067D01*
Y-0307787D01*
X0854235D01*
Y-0307619D01*
X0854067D01*
Y-0307452D01*
X0854235D01*
Y-0307284D01*
X0854067D01*
Y-0307116D01*
X0854235D01*
Y-0306948D01*
X0854067D01*
Y-0306781D01*
X0854235D01*
Y-0306613D01*
X0854067D01*
Y-0306445D01*
X0854235D01*
Y-0306278D01*
X0854067D01*
Y-030611D01*
X0854235D01*
Y-0305942D01*
X0854067D01*
Y-0305774D01*
X0854235D01*
Y-0305607D01*
X084803D01*
Y-0305774D01*
X0847862D01*
Y-0305942D01*
X084803D01*
Y-030611D01*
X0847862D01*
Y-0306278D01*
Y-0306445D01*
Y-0306613D01*
X084803D01*
Y-0306781D01*
X0847862D01*
Y-0306948D01*
Y-0307116D01*
Y-0307284D01*
X084803D01*
Y-0307452D01*
X0847862D01*
Y-0307619D01*
Y-0307787D01*
Y-0307955D01*
X084803D01*
Y-0308122D01*
X0847862D01*
Y-030829D01*
Y-0308458D01*
Y-0308626D01*
X084803D01*
Y-0308793D01*
X0847862D01*
Y-0308961D01*
Y-0309129D01*
Y-0309296D01*
X084803D01*
Y-0309464D01*
X0847862D01*
Y-0309632D01*
Y-0309799D01*
Y-0309967D01*
X084803D01*
Y-0310135D01*
X0847862D01*
Y-0310302D01*
Y-031047D01*
Y-0310638D01*
X084803D01*
Y-0310806D01*
X0847862D01*
Y-0310973D01*
Y-0311141D01*
Y-0311309D01*
X084803D01*
Y-0311476D01*
X0847862D01*
Y-0311644D01*
X084803D01*
Y-0311812D01*
X0848197D01*
Y-031198D01*
X0848365D01*
Y-0312147D01*
X0848533D01*
Y-0312315D01*
X08487D01*
Y-0312483D01*
X0848868D01*
Y-031265D01*
X0849036D01*
Y-0312818D01*
X0849203D01*
Y-0312986D01*
X0849371D01*
Y-0313154D01*
X0849539D01*
Y-0313321D01*
X0849707D01*
Y-0313489D01*
X0849874D01*
Y-0313657D01*
X0850042D01*
Y-0313824D01*
X085021D01*
Y-0313992D01*
X0850377D01*
Y-031416D01*
X0850545D01*
Y-0314327D01*
X0850713D01*
Y-0314495D01*
X0850881D01*
Y-0314663D01*
X0850713D01*
Y-031483D01*
X0850545D01*
Y-0314998D01*
X0850377D01*
Y-0315166D01*
X085021D01*
Y-0315334D01*
X0850042D01*
Y-0315501D01*
X0849874D01*
Y-0315669D01*
X0849707D01*
Y-0315837D01*
X0849539D01*
Y-0316004D01*
X0849371D01*
Y-0316172D01*
X0849203D01*
Y-031634D01*
X0849036D01*
Y-0316508D01*
X0848868D01*
Y-0316675D01*
X08487D01*
Y-0316843D01*
X0848533D01*
Y-0317011D01*
X0848365D01*
Y-0317178D01*
X0848197D01*
Y-0317346D01*
X084803D01*
Y-0317514D01*
X0847862D01*
Y-0317681D01*
X0847694D01*
Y-0317849D01*
X0847526D01*
Y-0318017D01*
X0847359D01*
Y-0318185D01*
X0847191D01*
Y-0318352D01*
X0847023D01*
Y-031852D01*
X0846856D01*
Y-0318688D01*
X0846688D01*
Y-0318855D01*
X084652D01*
Y-0319023D01*
X0846352D01*
Y-0319191D01*
X0846185D01*
Y-0319358D01*
X0846017D01*
Y-0319526D01*
X0845849D01*
Y-0319694D01*
X0845682D01*
Y-0319862D01*
X0845514D01*
Y-0320029D01*
X0845346D01*
Y-0320197D01*
X0845179D01*
Y-0320365D01*
X0845011D01*
Y-0320532D01*
X0844843D01*
Y-03207D01*
X0844676D01*
Y-0320868D01*
X0844508D01*
Y-0321036D01*
X084434D01*
Y-0321203D01*
X0844172D01*
Y-0321036D01*
X0844005D01*
Y-0320868D01*
X0843837D01*
Y-03207D01*
X0843669D01*
Y-0320532D01*
X0843502D01*
Y-0320365D01*
X0843334D01*
Y-0320197D01*
X0843166D01*
Y-0320029D01*
X0842999D01*
Y-0319862D01*
X0842831D01*
Y-0319694D01*
X0842663D01*
Y-0319526D01*
X0842495D01*
Y-0319358D01*
X0842328D01*
Y-0319191D01*
X084216D01*
Y-0319023D01*
X0841992D01*
Y-0318855D01*
X0841825D01*
Y-0318688D01*
X0841657D01*
Y-031852D01*
X0841489D01*
Y-0318352D01*
X0841321D01*
Y-0318185D01*
X0841154D01*
Y-0318017D01*
X0840986D01*
Y-0317849D01*
X0840818D01*
Y-0317681D01*
X0840651D01*
Y-0317514D01*
X0840483D01*
Y-0317346D01*
X0840315D01*
Y-0317178D01*
X0840148D01*
Y-0317011D01*
X083998D01*
Y-0316843D01*
X0839812D01*
Y-0316675D01*
X0839644D01*
Y-0316508D01*
X0839477D01*
Y-031634D01*
X0839309D01*
Y-0316172D01*
X0839141D01*
Y-0316004D01*
X0838974D01*
Y-0315837D01*
X0838806D01*
Y-0315669D01*
X0838638D01*
Y-0315501D01*
X083847D01*
Y-0315334D01*
X0838303D01*
Y-0315166D01*
X0838135D01*
Y-0314998D01*
X0837967D01*
Y-031483D01*
X08378D01*
Y-0314663D01*
X0837632D01*
Y-0314495D01*
X08378D01*
Y-0314327D01*
X0837967D01*
Y-031416D01*
X0838135D01*
Y-0313992D01*
X0838303D01*
Y-0313824D01*
X083847D01*
Y-0313657D01*
X0838638D01*
Y-0313489D01*
X0838806D01*
Y-0313321D01*
X0838974D01*
Y-0313154D01*
X0839141D01*
Y-0312986D01*
X0839309D01*
Y-0312818D01*
X0839477D01*
Y-031265D01*
X0839644D01*
Y-0312483D01*
X0839812D01*
Y-0312315D01*
X083998D01*
Y-0312147D01*
X0840148D01*
Y-031198D01*
X0840315D01*
Y-0311812D01*
X0840483D01*
Y-0311644D01*
X0840651D01*
Y-0311476D01*
X0840483D01*
Y-0311309D01*
X0840651D01*
Y-0311141D01*
Y-0310973D01*
Y-0310806D01*
X0840483D01*
Y-0310638D01*
X0840651D01*
Y-031047D01*
Y-0310302D01*
Y-0310135D01*
X0840483D01*
Y-0309967D01*
X0840651D01*
Y-0309799D01*
Y-0309632D01*
Y-0309464D01*
X0840483D01*
Y-0309296D01*
X0840651D01*
Y-0309129D01*
Y-0308961D01*
Y-0308793D01*
X0840483D01*
Y-0308626D01*
X0840651D01*
Y-0308458D01*
Y-030829D01*
Y-0308122D01*
X0840483D01*
Y-0307955D01*
X0840651D01*
Y-0307787D01*
Y-0307619D01*
Y-0307452D01*
X0840483D01*
Y-0307284D01*
X0840651D01*
Y-0307116D01*
Y-0306948D01*
Y-0306781D01*
X0840483D01*
Y-0306613D01*
X0840651D01*
Y-0306445D01*
Y-0306278D01*
Y-030611D01*
X0840483D01*
Y-0305942D01*
X0840651D01*
Y-0305774D01*
Y-0305607D01*
Y-0305439D01*
X0840483D01*
Y-0305272D01*
X0840651D01*
Y-0305104D01*
Y-0304936D01*
Y-0304768D01*
X0840483D01*
Y-0304601D01*
X0840651D01*
Y-0304433D01*
Y-0304265D01*
Y-0304098D01*
X0840483D01*
Y-030393D01*
X0840651D01*
Y-0303762D01*
Y-0303594D01*
Y-0303427D01*
X0840483D01*
Y-0303259D01*
X0840651D01*
Y-0303091D01*
Y-0302924D01*
Y-0302756D01*
X0840483D01*
Y-0302588D01*
X0840651D01*
Y-030242D01*
Y-0302253D01*
Y-0302085D01*
X0840483D01*
Y-0301917D01*
X0840651D01*
Y-030175D01*
Y-0301582D01*
Y-0301414D01*
X0840483D01*
Y-0301247D01*
X0840651D01*
Y-0301079D01*
Y-0300911D01*
Y-0300744D01*
X0840483D01*
Y-0300576D01*
X0840651D01*
Y-0300408D01*
Y-030024D01*
Y-0300073D01*
X0840483D01*
Y-0299905D01*
X0840651D01*
Y-0299737D01*
Y-029957D01*
Y-0299402D01*
X0840483D01*
Y-0299234D01*
X0840651D01*
Y-0299066D01*
Y-0298899D01*
Y-0298731D01*
X0840483D01*
Y-0298563D01*
X0840651D01*
Y-0298396D01*
Y-0298228D01*
Y-029806D01*
X0840483D01*
Y-0297893D01*
X0840651D01*
Y-0297725D01*
Y-0297557D01*
Y-0297389D01*
X0840483D01*
Y-0297222D01*
X0840651D01*
Y-0297054D01*
Y-0296886D01*
Y-0296719D01*
X0840483D01*
Y-0296551D01*
X0840651D01*
Y-0296383D01*
Y-0296216D01*
Y-0296048D01*
X0840483D01*
Y-029588D01*
X0840651D01*
Y-0295712D01*
Y-0295545D01*
Y-0295377D01*
X0840483D01*
Y-0295209D01*
X0840651D01*
Y-0295042D01*
Y-0294874D01*
Y-0294706D01*
X0840483D01*
Y-0294538D01*
X0840651D01*
Y-0294371D01*
Y-0294203D01*
Y-0294035D01*
X0840483D01*
Y-0293868D01*
X0840651D01*
Y-02937D01*
Y-0293532D01*
Y-0293365D01*
X0840483D01*
Y-0293197D01*
X0840651D01*
Y-0293029D01*
Y-0292862D01*
Y-0292694D01*
X0840483D01*
Y-0292526D01*
X0840651D01*
Y-0292358D01*
Y-0292191D01*
Y-0292023D01*
X0840483D01*
Y-0291855D01*
X0840651D01*
Y-0291688D01*
Y-029152D01*
Y-0291352D01*
X0840483D01*
Y-0291184D01*
X0840651D01*
Y-0291017D01*
Y-0290849D01*
Y-0290681D01*
X0840483D01*
Y-0290514D01*
X0840651D01*
Y-0290346D01*
Y-0290178D01*
Y-029001D01*
X0840483D01*
Y-0289843D01*
X0840651D01*
Y-0289675D01*
Y-0289507D01*
Y-028934D01*
X0840483D01*
Y-0289172D01*
X0840651D01*
Y-0289004D01*
Y-0288837D01*
Y-0288669D01*
X0840483D01*
Y-0288501D01*
X0840651D01*
Y-0288334D01*
Y-0288166D01*
Y-0287998D01*
X0840483D01*
Y-028783D01*
X0840651D01*
Y-0287663D01*
Y-0287495D01*
Y-0287327D01*
X0840483D01*
Y-028716D01*
X0840651D01*
Y-0286992D01*
Y-0286824D01*
Y-0286656D01*
X0840483D01*
Y-0286489D01*
X0840651D01*
Y-0286321D01*
Y-0286153D01*
Y-0285986D01*
X0840483D01*
Y-0285818D01*
X0840651D01*
Y-028565D01*
Y-0285483D01*
Y-0285315D01*
X0840483D01*
Y-0285147D01*
X0840651D01*
Y-028498D01*
X0840818D01*
Y-0284812D01*
X0840986D01*
Y-0284644D01*
X0841154D01*
Y-0284476D01*
X0841321D01*
Y-0284309D01*
X0841489D01*
Y-0284141D01*
X0841657D01*
Y-0283973D01*
X0841825D01*
Y-0283805D01*
X0841992D01*
Y-0283638D01*
X084216D01*
Y-028347D01*
X0842328D01*
Y-0283302D01*
X0842495D01*
Y-0283135D01*
X0842663D01*
Y-0282967D01*
X0842831D01*
Y-0282799D01*
X0842999D01*
Y-0282632D01*
X0843166D01*
Y-0282464D01*
X0843334D01*
Y-0282296D01*
X0843502D01*
Y-0282129D01*
X0843669D01*
Y-0281961D01*
X0843837D01*
Y-0281793D01*
X0844005D01*
Y-0281625D01*
X0844172D01*
Y-0281458D01*
X084434D01*
Y-028129D01*
X0844508D01*
Y-0281122D01*
X0844676D01*
Y-0280955D01*
X0844843D01*
Y-0280787D01*
X0845011D01*
Y-0280619D01*
X0845179D01*
Y-0280451D01*
X0845346D01*
Y-0280284D01*
X0845514D01*
Y-0280116D01*
X0845682D01*
Y-0279948D01*
X0845849D01*
Y-0279781D01*
X0846017D01*
Y-0279613D01*
X0846185D01*
Y-0279445D01*
X0846352D01*
Y-0279278D01*
X084652D01*
Y-027911D01*
X0846688D01*
Y-0278942D01*
X0846856D01*
Y-0278774D01*
X0847023D01*
Y-0278607D01*
X0847191D01*
Y-0278439D01*
X0847359D01*
Y-0278271D01*
X0847526D01*
Y-0278104D01*
X0847694D01*
Y-0277936D01*
X0847862D01*
Y-0277768D01*
X084803D01*
Y-0277601D01*
X0848197D01*
Y-0277433D01*
X0848365D01*
Y-0277265D01*
X0848533D01*
Y-0277097D01*
X08487D01*
Y-027693D01*
X0848868D01*
Y-0276762D01*
X0849036D01*
Y-0276594D01*
X0849203D01*
Y-0276427D01*
X0849371D01*
Y-0276259D01*
X0849539D01*
Y-0276091D01*
X0849707D01*
Y-0275923D01*
X0849874D01*
Y-0275756D01*
X0850042D01*
Y-0275588D01*
X085021D01*
Y-027542D01*
X0850377D01*
Y-0275253D01*
X0850545D01*
Y-0275085D01*
X0850713D01*
Y-0274917D01*
X0850881D01*
Y-027475D01*
X0851048D01*
Y-0274582D01*
X0851216D01*
Y-0274414D01*
X0851384D01*
Y-0274247D01*
X0851551D01*
Y-0274414D01*
D02*
G37*
G36*
X0906558D02*
X090639D01*
Y-0274582D01*
X0906558D01*
Y-027475D01*
X090639D01*
Y-0274917D01*
X0906222D01*
Y-0275085D01*
Y-0275253D01*
Y-027542D01*
X0906055D01*
Y-0275588D01*
X0906222D01*
Y-0275756D01*
X0906055D01*
Y-0275923D01*
X0905887D01*
Y-0276091D01*
X0905719D01*
Y-0276259D01*
X0905887D01*
Y-0276427D01*
X0905719D01*
Y-0276594D01*
Y-0276762D01*
Y-027693D01*
X0905552D01*
Y-0277097D01*
X0905384D01*
Y-0277265D01*
X0905552D01*
Y-0277433D01*
X0905384D01*
Y-0277601D01*
X0905216D01*
Y-0277768D01*
Y-0277936D01*
Y-0278104D01*
X0905048D01*
Y-0278271D01*
X0905216D01*
Y-0278439D01*
X0905048D01*
Y-0278607D01*
X0904881D01*
Y-0278774D01*
X0904713D01*
Y-0278942D01*
X0904881D01*
Y-027911D01*
X0904713D01*
Y-0279278D01*
Y-0279445D01*
Y-0279613D01*
X0904545D01*
Y-0279781D01*
X0904378D01*
Y-0279948D01*
X0904545D01*
Y-0280116D01*
X0904378D01*
Y-0280284D01*
Y-0280451D01*
Y-0280619D01*
X090421D01*
Y-0280787D01*
X0904042D01*
Y-0280955D01*
X090421D01*
Y-0281122D01*
X0904042D01*
Y-028129D01*
Y-0281458D01*
X0903874D01*
Y-0281625D01*
Y-0281793D01*
X0903707D01*
Y-0281961D01*
X0903874D01*
Y-0282129D01*
X0903707D01*
Y-0282296D01*
X0903539D01*
Y-0282464D01*
Y-0282632D01*
Y-0282799D01*
X0903371D01*
Y-0282967D01*
X0903539D01*
Y-0283135D01*
X0903371D01*
Y-0283302D01*
X0903204D01*
Y-028347D01*
X0903036D01*
Y-0283638D01*
X0903204D01*
Y-0283805D01*
X0903036D01*
Y-0283973D01*
X0902868D01*
Y-0284141D01*
Y-0284309D01*
Y-0284476D01*
X0902701D01*
Y-0284644D01*
X0902868D01*
Y-0284812D01*
X0902701D01*
Y-028498D01*
X0902533D01*
Y-0285147D01*
Y-0285315D01*
Y-0285483D01*
X0902365D01*
Y-028565D01*
Y-0285818D01*
Y-0285986D01*
X0902197D01*
Y-0286153D01*
X090203D01*
Y-0286321D01*
X0902197D01*
Y-0286489D01*
X090203D01*
Y-0286656D01*
Y-0286824D01*
Y-0286992D01*
X0901862D01*
Y-028716D01*
X0901694D01*
Y-0287327D01*
X0901862D01*
Y-0287495D01*
X0901694D01*
Y-0287663D01*
Y-028783D01*
Y-0287998D01*
X0901527D01*
Y-0288166D01*
X0901359D01*
Y-0288334D01*
X0901527D01*
Y-0288501D01*
X0901359D01*
Y-0288669D01*
X0901191D01*
Y-0288837D01*
Y-0289004D01*
Y-0289172D01*
X0901024D01*
Y-028934D01*
X0901191D01*
Y-0289507D01*
X0901024D01*
Y-0289675D01*
X0900856D01*
Y-0289843D01*
X0901024D01*
Y-029001D01*
X0901191D01*
Y-0289843D01*
X0901359D01*
Y-029001D01*
X0901527D01*
Y-0289843D01*
X0901359D01*
Y-0289675D01*
X0901527D01*
Y-0289843D01*
X0901694D01*
Y-029001D01*
X0901862D01*
Y-0289843D01*
X090203D01*
Y-029001D01*
X0902197D01*
Y-0289843D01*
X090203D01*
Y-0289675D01*
X0902197D01*
Y-0289843D01*
X0902365D01*
Y-029001D01*
X0902533D01*
Y-0289843D01*
X0902701D01*
Y-029001D01*
X0902868D01*
Y-0289843D01*
X0902701D01*
Y-0289675D01*
X0902868D01*
Y-0289843D01*
X0903036D01*
Y-029001D01*
X0903204D01*
Y-0289843D01*
X0903371D01*
Y-029001D01*
X0903539D01*
Y-0289843D01*
X0903371D01*
Y-0289675D01*
X0903539D01*
Y-0289843D01*
X0903707D01*
Y-029001D01*
X0903874D01*
Y-0289843D01*
X0904042D01*
Y-029001D01*
X090421D01*
Y-0289843D01*
X0904042D01*
Y-0289675D01*
X090421D01*
Y-0289843D01*
X0904378D01*
Y-029001D01*
X0904545D01*
Y-0289843D01*
X0904713D01*
Y-029001D01*
X0904881D01*
Y-0289843D01*
X0904713D01*
Y-0289675D01*
X0904881D01*
Y-0289843D01*
X0905048D01*
Y-029001D01*
X0905216D01*
Y-0289843D01*
X0905384D01*
Y-029001D01*
X0905552D01*
Y-0289843D01*
X0905384D01*
Y-0289675D01*
X0905552D01*
Y-0289843D01*
X0905719D01*
Y-029001D01*
X0905887D01*
Y-0289843D01*
X0906055D01*
Y-029001D01*
X0906222D01*
Y-0289843D01*
X0906055D01*
Y-0289675D01*
X0906222D01*
Y-0289843D01*
X090639D01*
Y-029001D01*
X0906558D01*
Y-0289843D01*
X0906725D01*
Y-029001D01*
X0906893D01*
Y-0289843D01*
X0906725D01*
Y-0289675D01*
X0906893D01*
Y-0289843D01*
X0907061D01*
Y-029001D01*
X0907228D01*
Y-0289843D01*
X0907396D01*
Y-029001D01*
X0907564D01*
Y-0289843D01*
X0907396D01*
Y-0289675D01*
X0907564D01*
Y-0289843D01*
X0907732D01*
Y-029001D01*
X0907899D01*
Y-0289843D01*
X0908067D01*
Y-029001D01*
X0908235D01*
Y-0289843D01*
X0908067D01*
Y-0289675D01*
X0908235D01*
Y-0289843D01*
X0908403D01*
Y-029001D01*
X090857D01*
Y-0289843D01*
X0908738D01*
Y-029001D01*
X0908906D01*
Y-0289843D01*
X0908738D01*
Y-0289675D01*
X0908906D01*
Y-0289843D01*
X0909073D01*
Y-029001D01*
X0909241D01*
Y-0290178D01*
X0909073D01*
Y-0290346D01*
X0908906D01*
Y-0290514D01*
X0908738D01*
Y-0290681D01*
Y-0290849D01*
Y-0291017D01*
X090857D01*
Y-0291184D01*
X0908403D01*
Y-0291352D01*
X0908235D01*
Y-029152D01*
X0908067D01*
Y-0291688D01*
X0908235D01*
Y-0291855D01*
X0907732D01*
Y-0292023D01*
X0907899D01*
Y-0292191D01*
X0907732D01*
Y-0292358D01*
X0907564D01*
Y-0292526D01*
X0907396D01*
Y-0292694D01*
X0907228D01*
Y-0292862D01*
X0907061D01*
Y-0293029D01*
Y-0293197D01*
Y-0293365D01*
X0906893D01*
Y-0293532D01*
X0906725D01*
Y-02937D01*
X0906558D01*
Y-0293868D01*
X090639D01*
Y-0294035D01*
X0906222D01*
Y-0294203D01*
X0906055D01*
Y-0294371D01*
X0906222D01*
Y-0294538D01*
X0906055D01*
Y-0294706D01*
X0905887D01*
Y-0294874D01*
X0905719D01*
Y-0295042D01*
X0905552D01*
Y-0295209D01*
X0905384D01*
Y-0295377D01*
Y-0295545D01*
X0905216D01*
Y-0295712D01*
Y-029588D01*
X0905048D01*
Y-0296048D01*
X0904881D01*
Y-0296216D01*
X0904713D01*
Y-0296383D01*
X0904545D01*
Y-0296551D01*
X0904378D01*
Y-0296719D01*
X0904545D01*
Y-0296886D01*
X090421D01*
Y-0297054D01*
Y-0297222D01*
X0904042D01*
Y-0297389D01*
X0903874D01*
Y-0297557D01*
X0903707D01*
Y-0297725D01*
Y-0297893D01*
X0903539D01*
Y-029806D01*
Y-0298228D01*
X0903371D01*
Y-0298396D01*
X0903204D01*
Y-0298563D01*
X0903036D01*
Y-0298731D01*
X0902868D01*
Y-0298899D01*
X0902701D01*
Y-0299066D01*
X0902868D01*
Y-0299234D01*
X0902533D01*
Y-0299402D01*
Y-029957D01*
X0902365D01*
Y-0299737D01*
X0902197D01*
Y-0299905D01*
X090203D01*
Y-0300073D01*
Y-030024D01*
X0901862D01*
Y-0300408D01*
Y-0300576D01*
X0901694D01*
Y-0300744D01*
X0901527D01*
Y-0300911D01*
X0901359D01*
Y-0301079D01*
X0901191D01*
Y-0301247D01*
X0901024D01*
Y-0301414D01*
X0901191D01*
Y-0301582D01*
X0900856D01*
Y-030175D01*
Y-0301917D01*
X0900688D01*
Y-0302085D01*
X090052D01*
Y-0302253D01*
X0900353D01*
Y-030242D01*
Y-0302588D01*
X0900185D01*
Y-0302756D01*
Y-0302924D01*
X0900017D01*
Y-0303091D01*
X089985D01*
Y-0303259D01*
X0899682D01*
Y-0303427D01*
X0899514D01*
Y-0303594D01*
X0899347D01*
Y-0303762D01*
X0899514D01*
Y-030393D01*
X0899179D01*
Y-0304098D01*
Y-0304265D01*
X0899011D01*
Y-0304433D01*
X0898843D01*
Y-0304601D01*
X0898676D01*
Y-0304768D01*
Y-0304936D01*
X089834D01*
Y-0305104D01*
X0898508D01*
Y-0305272D01*
X089834D01*
Y-0305439D01*
X0898173D01*
Y-0305607D01*
X0898005D01*
Y-0305774D01*
X0897837D01*
Y-0305942D01*
X089767D01*
Y-030611D01*
X0897837D01*
Y-0306278D01*
X0897334D01*
Y-0306445D01*
X0897502D01*
Y-0306613D01*
X0897334D01*
Y-0306781D01*
X0897166D01*
Y-0306948D01*
X0896999D01*
Y-0307116D01*
Y-0307284D01*
X0896663D01*
Y-0307452D01*
Y-0307619D01*
Y-0307787D01*
X0896496D01*
Y-0307955D01*
X0896328D01*
Y-0308122D01*
X089616D01*
Y-030829D01*
X0895992D01*
Y-0308458D01*
X089616D01*
Y-0308626D01*
X0895657D01*
Y-0308793D01*
X0895825D01*
Y-0308961D01*
X0895657D01*
Y-0309129D01*
X0895489D01*
Y-0309296D01*
X0895322D01*
Y-0309464D01*
X0895154D01*
Y-0309632D01*
X0894986D01*
Y-0309799D01*
X0895154D01*
Y-0309967D01*
X0894986D01*
Y-0310135D01*
X0894818D01*
Y-0310302D01*
X0894651D01*
Y-031047D01*
X0894483D01*
Y-0310638D01*
X0894316D01*
Y-0310806D01*
X0894148D01*
Y-0310973D01*
X089398D01*
Y-0311141D01*
X0894148D01*
Y-0311309D01*
X089398D01*
Y-0311476D01*
X0893812D01*
Y-0311644D01*
X0893645D01*
Y-0311812D01*
X0893477D01*
Y-031198D01*
X0893309D01*
Y-0312147D01*
Y-0312315D01*
Y-0312483D01*
X0893141D01*
Y-031265D01*
X0892974D01*
Y-0312818D01*
X0892806D01*
Y-0312986D01*
X0892638D01*
Y-0313154D01*
X0892806D01*
Y-0313321D01*
X0892638D01*
Y-0313154D01*
X0892471D01*
Y-0313321D01*
X0892303D01*
Y-0313489D01*
X0892471D01*
Y-0313657D01*
X0892303D01*
Y-0313824D01*
X0892135D01*
Y-0313992D01*
X0891968D01*
Y-031416D01*
X08918D01*
Y-0314327D01*
X0891632D01*
Y-0314495D01*
Y-0314663D01*
Y-031483D01*
X0891465D01*
Y-0314998D01*
X0891297D01*
Y-0315166D01*
X0891129D01*
Y-0315334D01*
X0890961D01*
Y-0315501D01*
X0890794D01*
Y-0315669D01*
X0890626D01*
Y-0315837D01*
X0890794D01*
Y-0316004D01*
X0890626D01*
Y-0316172D01*
X0890458D01*
Y-031634D01*
X0890291D01*
Y-0316508D01*
X0890123D01*
Y-0316675D01*
X0889955D01*
Y-0316843D01*
Y-0317011D01*
X0889787D01*
Y-0317178D01*
Y-0317346D01*
X088962D01*
Y-0317514D01*
X0889452D01*
Y-0317681D01*
X0889284D01*
Y-0317849D01*
X0889117D01*
Y-0318017D01*
X0888949D01*
Y-0318185D01*
X0889117D01*
Y-0318352D01*
X0888614D01*
Y-031852D01*
X0888781D01*
Y-0318688D01*
X0888614D01*
Y-0318855D01*
X0888446D01*
Y-0319023D01*
X0888278D01*
Y-0319191D01*
Y-0319358D01*
X0888111D01*
Y-0319526D01*
Y-0319694D01*
X0887943D01*
Y-0319862D01*
X0887775D01*
Y-0320029D01*
X0887607D01*
Y-0320197D01*
X088744D01*
Y-0320365D01*
X0887272D01*
Y-0320532D01*
X088744D01*
Y-03207D01*
X0887104D01*
Y-0320868D01*
Y-0321036D01*
X0886936D01*
Y-0321203D01*
X0886769D01*
Y-0321371D01*
X0886601D01*
Y-0321539D01*
Y-0321706D01*
X0886433D01*
Y-0321874D01*
Y-0322042D01*
X0886266D01*
Y-0322209D01*
X0886098D01*
Y-0322377D01*
X088593D01*
Y-0322545D01*
X0885763D01*
Y-0322377D01*
X0885595D01*
Y-0322209D01*
X0885763D01*
Y-0322042D01*
X088593D01*
Y-0321874D01*
X0886098D01*
Y-0321706D01*
X088593D01*
Y-0321539D01*
X0886098D01*
Y-0321371D01*
X088593D01*
Y-0321203D01*
X0886098D01*
Y-0321036D01*
X0886266D01*
Y-0320868D01*
X0886433D01*
Y-03207D01*
X0886266D01*
Y-0320532D01*
X0886433D01*
Y-0320365D01*
Y-0320197D01*
Y-0320029D01*
X0886601D01*
Y-0319862D01*
X0886769D01*
Y-0319694D01*
X0886601D01*
Y-0319526D01*
X0886769D01*
Y-0319358D01*
X0886601D01*
Y-0319191D01*
X0886936D01*
Y-0319023D01*
Y-0318855D01*
X0887104D01*
Y-0318688D01*
X0886936D01*
Y-031852D01*
X0887104D01*
Y-0318352D01*
Y-0318185D01*
X0887272D01*
Y-0318017D01*
Y-0317849D01*
X088744D01*
Y-0317681D01*
X0887272D01*
Y-0317514D01*
X088744D01*
Y-0317346D01*
X0887272D01*
Y-0317178D01*
X0887607D01*
Y-0317011D01*
Y-0316843D01*
X0887775D01*
Y-0316675D01*
X0887607D01*
Y-0316508D01*
X0887775D01*
Y-031634D01*
X0887943D01*
Y-0316172D01*
Y-0316004D01*
Y-0315837D01*
X0888111D01*
Y-0315669D01*
X0887943D01*
Y-0315501D01*
X0888111D01*
Y-0315334D01*
X0888278D01*
Y-0315166D01*
Y-0314998D01*
Y-031483D01*
X0888446D01*
Y-0314663D01*
Y-0314495D01*
Y-0314327D01*
X0888614D01*
Y-031416D01*
Y-0313992D01*
Y-0313824D01*
X0888781D01*
Y-0313657D01*
Y-0313489D01*
Y-0313321D01*
X0888949D01*
Y-0313154D01*
X0889117D01*
Y-0312986D01*
X0888949D01*
Y-0312818D01*
X0889117D01*
Y-031265D01*
Y-0312483D01*
Y-0312315D01*
X0889284D01*
Y-0312147D01*
Y-031198D01*
Y-0311812D01*
X0889452D01*
Y-0311644D01*
Y-0311476D01*
Y-0311309D01*
X088962D01*
Y-0311141D01*
X0889787D01*
Y-0310973D01*
X088962D01*
Y-0310806D01*
X0889787D01*
Y-0310638D01*
Y-031047D01*
Y-0310302D01*
X0889955D01*
Y-0310135D01*
X0890123D01*
Y-0309967D01*
X0889955D01*
Y-0309799D01*
X0890123D01*
Y-0309632D01*
X0890291D01*
Y-0309464D01*
X0890123D01*
Y-0309296D01*
X0890291D01*
Y-0309129D01*
X0890458D01*
Y-0308961D01*
X0890291D01*
Y-0308793D01*
X0890458D01*
Y-0308626D01*
X0890626D01*
Y-0308458D01*
Y-030829D01*
Y-0308122D01*
X0890794D01*
Y-0307955D01*
X0890626D01*
Y-0307787D01*
X0890794D01*
Y-0307619D01*
X0890961D01*
Y-0307452D01*
Y-0307284D01*
Y-0307116D01*
X0891129D01*
Y-0306948D01*
X0890961D01*
Y-0306781D01*
X0891129D01*
Y-0306613D01*
X0891297D01*
Y-0306445D01*
X0891465D01*
Y-0306278D01*
X0891297D01*
Y-030611D01*
X0891465D01*
Y-0305942D01*
X0891297D01*
Y-0305774D01*
X0891465D01*
Y-0305607D01*
X0891632D01*
Y-0305439D01*
X08918D01*
Y-0305272D01*
X0891632D01*
Y-0305104D01*
X08918D01*
Y-0304936D01*
Y-0304768D01*
Y-0304601D01*
X0891968D01*
Y-0304433D01*
X0892135D01*
Y-0304265D01*
X0891968D01*
Y-0304098D01*
X0892135D01*
Y-030393D01*
X0891968D01*
Y-0303762D01*
X0892135D01*
Y-0303594D01*
X0892303D01*
Y-0303427D01*
X0892471D01*
Y-0303259D01*
X0892303D01*
Y-0303091D01*
X0892471D01*
Y-0302924D01*
Y-0302756D01*
X0892638D01*
Y-0302588D01*
Y-030242D01*
X0892806D01*
Y-0302253D01*
X0892638D01*
Y-0302085D01*
X0892806D01*
Y-0301917D01*
Y-030175D01*
X0892974D01*
Y-0301582D01*
Y-0301414D01*
X0893141D01*
Y-0301247D01*
X0892974D01*
Y-0301079D01*
X0893141D01*
Y-0300911D01*
X0893309D01*
Y-0300744D01*
Y-0300576D01*
Y-0300408D01*
X0893477D01*
Y-030024D01*
X0893309D01*
Y-0300073D01*
X0893477D01*
Y-0299905D01*
Y-0299737D01*
X0893645D01*
Y-029957D01*
Y-0299402D01*
X0893812D01*
Y-0299234D01*
X0893645D01*
Y-0299066D01*
X0893477D01*
Y-0298899D01*
X0893309D01*
Y-0299066D01*
X0892806D01*
Y-0298899D01*
X0892638D01*
Y-0299066D01*
X0892135D01*
Y-0298899D01*
X0891968D01*
Y-0299066D01*
X0891465D01*
Y-0298899D01*
X0891297D01*
Y-0299066D01*
X0890794D01*
Y-0298899D01*
X0890626D01*
Y-0299066D01*
X0890123D01*
Y-0298899D01*
X0889955D01*
Y-0299066D01*
X0889452D01*
Y-0298899D01*
X0889284D01*
Y-0299066D01*
X0888781D01*
Y-0298899D01*
X0888614D01*
Y-0299066D01*
X0888111D01*
Y-0298899D01*
X0887943D01*
Y-0299066D01*
X088744D01*
Y-0298899D01*
X0887272D01*
Y-0299066D01*
X0886769D01*
Y-0298899D01*
X0886601D01*
Y-0299066D01*
X0886098D01*
Y-0298899D01*
X088593D01*
Y-0299066D01*
X0885763D01*
Y-0298899D01*
X0885595D01*
Y-0298731D01*
X0885763D01*
Y-0298563D01*
Y-0298396D01*
Y-0298228D01*
X088593D01*
Y-029806D01*
X0886098D01*
Y-0297893D01*
X088593D01*
Y-0297725D01*
X0886098D01*
Y-0297557D01*
X0886266D01*
Y-0297389D01*
X0886433D01*
Y-0297222D01*
X0886266D01*
Y-0297054D01*
X0886433D01*
Y-0296886D01*
X0886601D01*
Y-0296719D01*
Y-0296551D01*
Y-0296383D01*
X0886769D01*
Y-0296216D01*
Y-0296048D01*
Y-029588D01*
X0886936D01*
Y-0295712D01*
X0887104D01*
Y-0295545D01*
X0886936D01*
Y-0295377D01*
X0887104D01*
Y-0295209D01*
X0887272D01*
Y-0295042D01*
X088744D01*
Y-0294874D01*
X0887272D01*
Y-0294706D01*
X088744D01*
Y-0294538D01*
X0887607D01*
Y-0294371D01*
Y-0294203D01*
Y-0294035D01*
X0887775D01*
Y-0293868D01*
Y-02937D01*
X0887943D01*
Y-0293532D01*
Y-0293365D01*
X0888111D01*
Y-0293197D01*
X0887943D01*
Y-0293029D01*
X0888111D01*
Y-0292862D01*
X0888278D01*
Y-0292694D01*
X0888446D01*
Y-0292526D01*
X0888278D01*
Y-0292358D01*
X0888446D01*
Y-0292191D01*
X0888614D01*
Y-0292023D01*
Y-0291855D01*
Y-0291688D01*
X0888781D01*
Y-029152D01*
X0888949D01*
Y-0291352D01*
X0889117D01*
Y-0291184D01*
X0888949D01*
Y-0291017D01*
X0889117D01*
Y-0290849D01*
Y-0290681D01*
X0889284D01*
Y-0290514D01*
Y-0290346D01*
X0889452D01*
Y-0290178D01*
Y-029001D01*
Y-0289843D01*
X088962D01*
Y-0289675D01*
X0889787D01*
Y-0289507D01*
X088962D01*
Y-028934D01*
X0889787D01*
Y-0289172D01*
X0889955D01*
Y-0289004D01*
X0890123D01*
Y-0288837D01*
X0889955D01*
Y-0288669D01*
X0890123D01*
Y-0288501D01*
Y-0288334D01*
X0890291D01*
Y-0288166D01*
Y-0287998D01*
X0890458D01*
Y-028783D01*
Y-0287663D01*
Y-0287495D01*
X0890626D01*
Y-0287327D01*
X0890794D01*
Y-028716D01*
X0890626D01*
Y-0286992D01*
X0890794D01*
Y-0286824D01*
X0890961D01*
Y-0286656D01*
X0891129D01*
Y-0286489D01*
X0890961D01*
Y-0286321D01*
X0891129D01*
Y-0286153D01*
X0891297D01*
Y-0285986D01*
Y-0285818D01*
Y-028565D01*
X0891465D01*
Y-0285483D01*
Y-0285315D01*
Y-0285147D01*
X0891632D01*
Y-028498D01*
X08918D01*
Y-0284812D01*
Y-0284644D01*
Y-0284476D01*
X0891968D01*
Y-0284309D01*
X0892135D01*
Y-0284141D01*
X0891968D01*
Y-0283973D01*
X0892135D01*
Y-0283805D01*
X0892303D01*
Y-0283638D01*
X0892471D01*
Y-028347D01*
X0892303D01*
Y-0283302D01*
X0892471D01*
Y-0283135D01*
X0892638D01*
Y-0282967D01*
Y-0282799D01*
Y-0282632D01*
X0892806D01*
Y-0282464D01*
X0892638D01*
Y-0282296D01*
X0892974D01*
Y-0282129D01*
Y-0281961D01*
X0893141D01*
Y-0281793D01*
Y-0281625D01*
Y-0281458D01*
X0893309D01*
Y-028129D01*
X0893477D01*
Y-0281122D01*
X0893309D01*
Y-0280955D01*
X0893477D01*
Y-0280787D01*
X0893645D01*
Y-0280619D01*
X0893812D01*
Y-0280451D01*
X0893645D01*
Y-0280284D01*
X0893812D01*
Y-0280116D01*
Y-0279948D01*
X089398D01*
Y-0279781D01*
Y-0279613D01*
X0894148D01*
Y-0279445D01*
Y-0279278D01*
Y-027911D01*
X0894316D01*
Y-0278942D01*
X0894483D01*
Y-0278774D01*
X0894316D01*
Y-0278607D01*
X0894483D01*
Y-0278439D01*
X0894651D01*
Y-0278271D01*
X0894818D01*
Y-0278104D01*
X0894651D01*
Y-0277936D01*
X0894818D01*
Y-0277768D01*
Y-0277601D01*
X0894986D01*
Y-0277433D01*
Y-0277265D01*
X0895154D01*
Y-0277097D01*
Y-027693D01*
Y-0276762D01*
X0895322D01*
Y-027693D01*
X0895489D01*
Y-0276762D01*
X0895322D01*
Y-0276594D01*
X0895489D01*
Y-0276427D01*
X0895322D01*
Y-0276259D01*
X0895489D01*
Y-0276091D01*
X0895657D01*
Y-0275923D01*
X0895825D01*
Y-0275756D01*
X0895657D01*
Y-0275588D01*
X0895825D01*
Y-027542D01*
X0895992D01*
Y-0275253D01*
Y-0275085D01*
Y-0274917D01*
X089616D01*
Y-027475D01*
X0896328D01*
Y-0274582D01*
Y-0274414D01*
Y-0274247D01*
X0906558D01*
Y-0274414D01*
D02*
G37*
G36*
X09458D02*
X0945968D01*
Y-0274582D01*
X0946136D01*
Y-027475D01*
X0946303D01*
Y-0274917D01*
X0946471D01*
Y-0275085D01*
X0946639D01*
Y-0275253D01*
X0946806D01*
Y-027542D01*
X0946974D01*
Y-0275588D01*
X0947142D01*
Y-0275756D01*
X0947309D01*
Y-0275923D01*
X0947477D01*
Y-0276091D01*
X0947645D01*
Y-0276259D01*
X0947812D01*
Y-0276427D01*
X094798D01*
Y-0276594D01*
X0948148D01*
Y-0276762D01*
X0948316D01*
Y-027693D01*
X0948483D01*
Y-0277097D01*
X0948651D01*
Y-0277265D01*
X0948819D01*
Y-0277433D01*
X0948987D01*
Y-0277601D01*
X0949154D01*
Y-0277768D01*
X0949322D01*
Y-0277936D01*
X094949D01*
Y-0278104D01*
X0949657D01*
Y-0278271D01*
X0949825D01*
Y-0278439D01*
X0949993D01*
Y-0278607D01*
X095016D01*
Y-0278774D01*
X0950328D01*
Y-0278942D01*
X0950496D01*
Y-027911D01*
X0950663D01*
Y-0279278D01*
X0950831D01*
Y-0279445D01*
X0950999D01*
Y-0279613D01*
X0951167D01*
Y-0279781D01*
X0951334D01*
Y-0279948D01*
X0951502D01*
Y-0280116D01*
X095167D01*
Y-0280284D01*
X0951837D01*
Y-0280451D01*
X0952005D01*
Y-0280619D01*
X0952173D01*
Y-0280787D01*
X0952341D01*
Y-0280955D01*
X0952508D01*
Y-0281122D01*
X0952676D01*
Y-028129D01*
X0952844D01*
Y-0281458D01*
X0953011D01*
Y-0281625D01*
X0953179D01*
Y-0281793D01*
X0953347D01*
Y-0281961D01*
X0953514D01*
Y-0282129D01*
X0953682D01*
Y-0282296D01*
X095385D01*
Y-0282464D01*
X0954018D01*
Y-0282632D01*
X0954185D01*
Y-0282799D01*
X0954353D01*
Y-0282967D01*
X0954521D01*
Y-0283135D01*
X0954688D01*
Y-0283302D01*
X0954856D01*
Y-028347D01*
X0955024D01*
Y-0283638D01*
X0955191D01*
Y-0283805D01*
X0955359D01*
Y-0283973D01*
X0955527D01*
Y-0284141D01*
X0955694D01*
Y-0284309D01*
X0955862D01*
Y-0284476D01*
X095603D01*
Y-0284644D01*
Y-0284812D01*
Y-028498D01*
Y-0285147D01*
Y-0285315D01*
Y-0285483D01*
Y-028565D01*
Y-0285818D01*
Y-0285986D01*
Y-0286153D01*
Y-0286321D01*
Y-0286489D01*
Y-0286656D01*
Y-0286824D01*
Y-0286992D01*
Y-028716D01*
Y-0287327D01*
Y-0287495D01*
Y-0287663D01*
Y-028783D01*
Y-0287998D01*
Y-0288166D01*
Y-0288334D01*
Y-0288501D01*
Y-0288669D01*
Y-0288837D01*
Y-0289004D01*
Y-0289172D01*
Y-028934D01*
Y-0289507D01*
Y-0289675D01*
Y-0289843D01*
Y-029001D01*
Y-0290178D01*
Y-0290346D01*
Y-0290514D01*
Y-0290681D01*
Y-0290849D01*
Y-0291017D01*
Y-0291184D01*
Y-0291352D01*
Y-029152D01*
Y-0291688D01*
Y-0291855D01*
Y-0292023D01*
Y-0292191D01*
Y-0292358D01*
Y-0292526D01*
Y-0292694D01*
Y-0292862D01*
Y-0293029D01*
Y-0293197D01*
Y-0293365D01*
Y-0293532D01*
Y-02937D01*
Y-0293868D01*
Y-0294035D01*
Y-0294203D01*
Y-0294371D01*
Y-0294538D01*
Y-0294706D01*
Y-0294874D01*
Y-0295042D01*
Y-0295209D01*
Y-0295377D01*
Y-0295545D01*
Y-0295712D01*
Y-029588D01*
Y-0296048D01*
Y-0296216D01*
Y-0296383D01*
Y-0296551D01*
Y-0296719D01*
Y-0296886D01*
Y-0297054D01*
Y-0297222D01*
Y-0297389D01*
Y-0297557D01*
Y-0297725D01*
Y-0297893D01*
Y-029806D01*
Y-0298228D01*
Y-0298396D01*
Y-0298563D01*
Y-0298731D01*
Y-0298899D01*
Y-0299066D01*
Y-0299234D01*
Y-0299402D01*
Y-029957D01*
Y-0299737D01*
Y-0299905D01*
Y-0300073D01*
Y-030024D01*
Y-0300408D01*
Y-0300576D01*
Y-0300744D01*
Y-0300911D01*
Y-0301079D01*
Y-0301247D01*
Y-0301414D01*
Y-0301582D01*
Y-030175D01*
Y-0301917D01*
Y-0302085D01*
Y-0302253D01*
Y-030242D01*
Y-0302588D01*
Y-0302756D01*
Y-0302924D01*
Y-0303091D01*
Y-0303259D01*
Y-0303427D01*
Y-0303594D01*
Y-0303762D01*
Y-030393D01*
Y-0304098D01*
Y-0304265D01*
Y-0304433D01*
Y-0304601D01*
Y-0304768D01*
Y-0304936D01*
Y-0305104D01*
Y-0305272D01*
Y-0305439D01*
Y-0305607D01*
Y-0305774D01*
Y-0305942D01*
Y-030611D01*
Y-0306278D01*
Y-0306445D01*
Y-0306613D01*
Y-0306781D01*
Y-0306948D01*
Y-0307116D01*
Y-0307284D01*
Y-0307452D01*
Y-0307619D01*
Y-0307787D01*
Y-0307955D01*
Y-0308122D01*
Y-030829D01*
Y-0308458D01*
Y-0308626D01*
Y-0308793D01*
Y-0308961D01*
Y-0309129D01*
Y-0309296D01*
Y-0309464D01*
Y-0309632D01*
Y-0309799D01*
Y-0309967D01*
Y-0310135D01*
Y-0310302D01*
Y-031047D01*
X0955862D01*
Y-0310638D01*
X0955694D01*
Y-0310806D01*
X0955527D01*
Y-0310973D01*
X0955359D01*
Y-0311141D01*
X0955191D01*
Y-0311309D01*
X0955024D01*
Y-0311476D01*
X0954856D01*
Y-0311644D01*
X0954688D01*
Y-0311812D01*
X0954521D01*
Y-031198D01*
X0954353D01*
Y-0312147D01*
X0954185D01*
Y-0312315D01*
X0954018D01*
Y-0312483D01*
X095385D01*
Y-031265D01*
X0953682D01*
Y-0312818D01*
X0953514D01*
Y-0312986D01*
X0953347D01*
Y-0313154D01*
X0953179D01*
Y-0313321D01*
X0953011D01*
Y-0313489D01*
X0952844D01*
Y-0313657D01*
X0952676D01*
Y-0313824D01*
X0952508D01*
Y-0313992D01*
X0952341D01*
Y-031416D01*
X0952173D01*
Y-0314327D01*
X0952005D01*
Y-0314495D01*
X0951837D01*
Y-0314663D01*
X095167D01*
Y-031483D01*
X0951502D01*
Y-0314998D01*
X0951334D01*
Y-0315166D01*
X0951167D01*
Y-0315334D01*
X0950999D01*
Y-0315501D01*
X0950831D01*
Y-0315669D01*
X0950663D01*
Y-0315837D01*
X0950496D01*
Y-0316004D01*
X0950328D01*
Y-0316172D01*
X095016D01*
Y-031634D01*
X0949993D01*
Y-0316508D01*
X0949825D01*
Y-0316675D01*
X0949657D01*
Y-0316843D01*
X094949D01*
Y-0317011D01*
X0949322D01*
Y-0317178D01*
X0949154D01*
Y-0317346D01*
X0948987D01*
Y-0317514D01*
X0948819D01*
Y-0317681D01*
X0948651D01*
Y-0317849D01*
X0948483D01*
Y-0318017D01*
X0948316D01*
Y-0318185D01*
X0948148D01*
Y-0318352D01*
X094798D01*
Y-031852D01*
X0947812D01*
Y-0318688D01*
X0947645D01*
Y-0318855D01*
X0947477D01*
Y-0319023D01*
X0947309D01*
Y-0319191D01*
X0947142D01*
Y-0319358D01*
X0946974D01*
Y-0319526D01*
X0946806D01*
Y-0319694D01*
X0946639D01*
Y-0319862D01*
X0946471D01*
Y-0320029D01*
X0946303D01*
Y-0320197D01*
X0946136D01*
Y-0320365D01*
X0945968D01*
Y-0320532D01*
X09458D01*
Y-03207D01*
X0945632D01*
Y-0320868D01*
X0945465D01*
Y-0321036D01*
X0945297D01*
Y-0321203D01*
X0945129D01*
Y-0321036D01*
X0944962D01*
Y-0320868D01*
X0944794D01*
Y-03207D01*
X0944626D01*
Y-0320532D01*
X0944458D01*
Y-0320365D01*
X0944291D01*
Y-0320197D01*
X0944123D01*
Y-0320029D01*
X0943955D01*
Y-0319862D01*
X0943788D01*
Y-0319694D01*
X094362D01*
Y-0319526D01*
X0943452D01*
Y-0319358D01*
X0943285D01*
Y-0319191D01*
X0943117D01*
Y-0319023D01*
X0942949D01*
Y-0318855D01*
X0942782D01*
Y-0318688D01*
X0942614D01*
Y-031852D01*
X0942446D01*
Y-0318352D01*
X0942278D01*
Y-0318185D01*
X0942111D01*
Y-0318017D01*
X0941943D01*
Y-0317849D01*
X0941775D01*
Y-0317681D01*
X0941607D01*
Y-0317514D01*
X094144D01*
Y-0317346D01*
X0941272D01*
Y-0317178D01*
X0941104D01*
Y-0317011D01*
X0940937D01*
Y-0316843D01*
X0940769D01*
Y-0316675D01*
X0940601D01*
Y-0316508D01*
X0940434D01*
Y-031634D01*
X0940266D01*
Y-0316172D01*
X0940098D01*
Y-0316004D01*
X0939931D01*
Y-0315837D01*
X0939763D01*
Y-0315669D01*
X0939595D01*
Y-0315501D01*
X0939427D01*
Y-0315334D01*
X093926D01*
Y-0315166D01*
X0939092D01*
Y-0314998D01*
X0938924D01*
Y-031483D01*
X0938757D01*
Y-0314663D01*
X0938589D01*
Y-0314495D01*
X0938421D01*
Y-0314327D01*
X0938253D01*
Y-031416D01*
X0938086D01*
Y-0313992D01*
X0937918D01*
Y-0313824D01*
X093775D01*
Y-0313657D01*
X0937583D01*
Y-0313489D01*
X0937415D01*
Y-0313321D01*
X0937247D01*
Y-0313154D01*
X093708D01*
Y-0312986D01*
X0936912D01*
Y-0312818D01*
X0936744D01*
Y-031265D01*
X0936576D01*
Y-0312483D01*
X0936409D01*
Y-0312315D01*
X0936241D01*
Y-0312147D01*
X0936073D01*
Y-031198D01*
X0935906D01*
Y-0311812D01*
X0935738D01*
Y-0311644D01*
X093557D01*
Y-0311476D01*
X0935738D01*
Y-0311309D01*
X093557D01*
Y-0311141D01*
X0935738D01*
Y-0310973D01*
X093557D01*
Y-0310806D01*
X0935738D01*
Y-0310638D01*
X093557D01*
Y-031047D01*
X0935738D01*
Y-0310302D01*
X093557D01*
Y-0310135D01*
X0935738D01*
Y-0309967D01*
X093557D01*
Y-0309799D01*
X0935738D01*
Y-0309632D01*
X093557D01*
Y-0309464D01*
X0935738D01*
Y-0309296D01*
X093557D01*
Y-0309129D01*
X0935738D01*
Y-0308961D01*
X093557D01*
Y-0308793D01*
X0935738D01*
Y-0308626D01*
X093557D01*
Y-0308458D01*
X0935738D01*
Y-030829D01*
X093557D01*
Y-0308122D01*
X0935738D01*
Y-0307955D01*
X093557D01*
Y-0307787D01*
X0935738D01*
Y-0307619D01*
X093557D01*
Y-0307452D01*
X0935738D01*
Y-0307284D01*
X093557D01*
Y-0307116D01*
X0935738D01*
Y-0306948D01*
X093557D01*
Y-0306781D01*
X0935738D01*
Y-0306613D01*
X093557D01*
Y-0306445D01*
X0935738D01*
Y-0306278D01*
X093557D01*
Y-030611D01*
X0935738D01*
Y-0305942D01*
X093557D01*
Y-0305774D01*
X0935738D01*
Y-0305607D01*
X093557D01*
Y-0305439D01*
X0935738D01*
Y-0305272D01*
X093557D01*
Y-0305104D01*
X0935738D01*
Y-0304936D01*
X093557D01*
Y-0304768D01*
X0935738D01*
Y-0304601D01*
X093557D01*
Y-0304433D01*
X0935738D01*
Y-0304265D01*
X093557D01*
Y-0304098D01*
X0935738D01*
Y-030393D01*
X093557D01*
Y-0303762D01*
X0935738D01*
Y-0303594D01*
X093557D01*
Y-0303427D01*
X0935738D01*
Y-0303259D01*
X093557D01*
Y-0303091D01*
X0935738D01*
Y-0302924D01*
X093557D01*
Y-0302756D01*
X0935738D01*
Y-0302588D01*
X093557D01*
Y-030242D01*
X0935738D01*
Y-0302253D01*
X093557D01*
Y-0302085D01*
X0935738D01*
Y-0301917D01*
X093557D01*
Y-030175D01*
X0935738D01*
Y-0301582D01*
X093557D01*
Y-0301414D01*
X0935738D01*
Y-0301247D01*
X093557D01*
Y-0301079D01*
X0935738D01*
Y-0300911D01*
X093557D01*
Y-0300744D01*
X0935738D01*
Y-0300576D01*
X093557D01*
Y-0300408D01*
X0935738D01*
Y-030024D01*
X093557D01*
Y-0300073D01*
X0935738D01*
Y-0299905D01*
X093557D01*
Y-0299737D01*
X0935738D01*
Y-029957D01*
X093557D01*
Y-0299402D01*
X0935738D01*
Y-0299234D01*
X093557D01*
Y-0299066D01*
X0935738D01*
Y-0298899D01*
X093557D01*
Y-0298731D01*
X0935738D01*
Y-0298563D01*
X093557D01*
Y-0298396D01*
X0935738D01*
Y-0298228D01*
X093557D01*
Y-029806D01*
X0935738D01*
Y-0297893D01*
X093557D01*
Y-0297725D01*
X0935738D01*
Y-0297557D01*
X093557D01*
Y-0297389D01*
X0935738D01*
Y-0297222D01*
X093557D01*
Y-0297054D01*
X0935738D01*
Y-0296886D01*
X093557D01*
Y-0296719D01*
X0935738D01*
Y-0296551D01*
X093557D01*
Y-0296383D01*
X0935738D01*
Y-0296216D01*
X093557D01*
Y-0296048D01*
X0935738D01*
Y-029588D01*
X093557D01*
Y-0295712D01*
X0935738D01*
Y-0295545D01*
X093557D01*
Y-0295377D01*
X0935738D01*
Y-0295209D01*
X093557D01*
Y-0295042D01*
X0935738D01*
Y-0294874D01*
X093557D01*
Y-0294706D01*
X0935738D01*
Y-0294538D01*
X093557D01*
Y-0294371D01*
X0935738D01*
Y-0294203D01*
X093557D01*
Y-0294035D01*
X0935738D01*
Y-0293868D01*
X093557D01*
Y-02937D01*
X0935738D01*
Y-0293532D01*
X093557D01*
Y-0293365D01*
X0935738D01*
Y-0293197D01*
X093557D01*
Y-0293029D01*
X0935738D01*
Y-0292862D01*
X093557D01*
Y-0292694D01*
X0935738D01*
Y-0292526D01*
X093557D01*
Y-0292358D01*
X0935738D01*
Y-0292191D01*
X093557D01*
Y-0292023D01*
X0935738D01*
Y-0291855D01*
X093557D01*
Y-0291688D01*
X0935738D01*
Y-029152D01*
X093557D01*
Y-0291352D01*
X0935738D01*
Y-0291184D01*
X093557D01*
Y-0291017D01*
X0935738D01*
Y-0290849D01*
X093557D01*
Y-0290681D01*
X0935738D01*
Y-0290514D01*
X093557D01*
Y-0290346D01*
X0935738D01*
Y-0290178D01*
X093557D01*
Y-029001D01*
X0935738D01*
Y-0289843D01*
X093557D01*
Y-0289675D01*
X0935738D01*
Y-0289507D01*
X093557D01*
Y-028934D01*
X0935738D01*
Y-0289172D01*
X093557D01*
Y-0289004D01*
X0935738D01*
Y-0288837D01*
X093557D01*
Y-0288669D01*
X0935738D01*
Y-0288501D01*
X093557D01*
Y-0288334D01*
X0935738D01*
Y-0288166D01*
X093557D01*
Y-0287998D01*
X0935738D01*
Y-028783D01*
X093557D01*
Y-0287663D01*
X0935738D01*
Y-0287495D01*
X093557D01*
Y-0287327D01*
X0935738D01*
Y-028716D01*
X093557D01*
Y-0286992D01*
X0935738D01*
Y-0286824D01*
X093557D01*
Y-0286656D01*
X0935738D01*
Y-0286489D01*
X093557D01*
Y-0286321D01*
X0935738D01*
Y-0286153D01*
X093557D01*
Y-0285986D01*
X0935738D01*
Y-0285818D01*
X093557D01*
Y-028565D01*
X0935738D01*
Y-0285483D01*
X093557D01*
Y-0285315D01*
X0935738D01*
Y-0285147D01*
X093557D01*
Y-028498D01*
X0935738D01*
Y-0284812D01*
X093557D01*
Y-0284644D01*
X0935738D01*
Y-0284476D01*
X093557D01*
Y-0284309D01*
X0935738D01*
Y-0284141D01*
X0935906D01*
Y-0283973D01*
X0936073D01*
Y-0283805D01*
X0936241D01*
Y-0283638D01*
X0936409D01*
Y-028347D01*
X0936576D01*
Y-0283302D01*
X0936744D01*
Y-0283135D01*
X0936912D01*
Y-0282967D01*
X093708D01*
Y-0282799D01*
X0937247D01*
Y-0282632D01*
X0937415D01*
Y-0282464D01*
X0937583D01*
Y-0282296D01*
X093775D01*
Y-0282129D01*
X0937918D01*
Y-0281961D01*
X0938086D01*
Y-0281793D01*
X0938253D01*
Y-0281625D01*
X0938421D01*
Y-0281458D01*
X0938589D01*
Y-028129D01*
X0938757D01*
Y-0281122D01*
X0938924D01*
Y-0280955D01*
X0939092D01*
Y-0280787D01*
X093926D01*
Y-0280619D01*
X0939427D01*
Y-0280451D01*
X0939595D01*
Y-0280284D01*
X0939763D01*
Y-0280116D01*
X0939931D01*
Y-0279948D01*
X0940098D01*
Y-0279781D01*
X0940266D01*
Y-0279613D01*
X0940434D01*
Y-0279445D01*
X0940601D01*
Y-0279278D01*
X0940769D01*
Y-027911D01*
X0940937D01*
Y-0278942D01*
X0941104D01*
Y-0278774D01*
X0941272D01*
Y-0278607D01*
X094144D01*
Y-0278439D01*
X0941607D01*
Y-0278271D01*
X0941775D01*
Y-0278104D01*
X0941943D01*
Y-0277936D01*
X0942111D01*
Y-0277768D01*
X0942278D01*
Y-0277601D01*
X0942446D01*
Y-0277433D01*
X0942614D01*
Y-0277265D01*
X0942782D01*
Y-0277097D01*
X0942949D01*
Y-027693D01*
X0943117D01*
Y-0276762D01*
X0943285D01*
Y-0276594D01*
X0943452D01*
Y-0276427D01*
X094362D01*
Y-0276259D01*
X0943788D01*
Y-0276091D01*
X0943955D01*
Y-0275923D01*
X0944123D01*
Y-0275756D01*
X0944291D01*
Y-0275588D01*
X0944458D01*
Y-027542D01*
X0944626D01*
Y-0275253D01*
X0944794D01*
Y-0275085D01*
X0944962D01*
Y-0274917D01*
X0945129D01*
Y-027475D01*
X0945297D01*
Y-0274582D01*
X0945465D01*
Y-0274414D01*
X0945632D01*
Y-0274247D01*
X09458D01*
Y-0274414D01*
D02*
G37*
G36*
X092467D02*
Y-0274582D01*
X0925005D01*
Y-027475D01*
X0925173D01*
Y-0274917D01*
X092534D01*
Y-0275085D01*
X0925508D01*
Y-0275253D01*
X0925676D01*
Y-027542D01*
X0925844D01*
Y-0275588D01*
X0926011D01*
Y-0275756D01*
X0926179D01*
Y-0275923D01*
X0926347D01*
Y-0276091D01*
X0926514D01*
Y-0276259D01*
X0926682D01*
Y-0276427D01*
X092685D01*
Y-0276594D01*
X0927017D01*
Y-0276762D01*
X0927185D01*
Y-027693D01*
X0927353D01*
Y-0277097D01*
X092752D01*
Y-0277265D01*
X0927688D01*
Y-0277433D01*
X0927856D01*
Y-0277601D01*
X0928024D01*
Y-0277768D01*
X0928191D01*
Y-0277936D01*
X0928359D01*
Y-0278104D01*
X0928527D01*
Y-0278271D01*
X0928694D01*
Y-0278439D01*
X0928862D01*
Y-0278607D01*
X092903D01*
Y-0278774D01*
X0929198D01*
Y-0278942D01*
X0929365D01*
Y-027911D01*
X0929533D01*
Y-0279278D01*
X0929701D01*
Y-0279445D01*
X0929868D01*
Y-0279613D01*
X0930036D01*
Y-0279781D01*
X0930204D01*
Y-0279948D01*
X0930371D01*
Y-0280116D01*
X0930539D01*
Y-0280284D01*
X0930707D01*
Y-0280451D01*
X0930875D01*
Y-0280619D01*
X0931042D01*
Y-0280787D01*
X093121D01*
Y-0280955D01*
X0931378D01*
Y-0281122D01*
X0931545D01*
Y-028129D01*
X0931713D01*
Y-0281458D01*
X0931881D01*
Y-0281625D01*
X0932049D01*
Y-0281793D01*
X0932216D01*
Y-0281961D01*
X0932384D01*
Y-0282129D01*
X0932552D01*
Y-0282296D01*
X0932719D01*
Y-0282464D01*
Y-0282632D01*
Y-0282799D01*
Y-0282967D01*
Y-0283135D01*
Y-0283302D01*
Y-028347D01*
Y-0283638D01*
Y-0283805D01*
X0932552D01*
Y-0283973D01*
X0932719D01*
Y-0284141D01*
Y-0284309D01*
Y-0284476D01*
X0932552D01*
Y-0284644D01*
X0932719D01*
Y-0284812D01*
Y-028498D01*
Y-0285147D01*
X0932552D01*
Y-0285315D01*
X0932719D01*
Y-0285483D01*
Y-028565D01*
Y-0285818D01*
Y-0285986D01*
Y-0286153D01*
Y-0286321D01*
Y-0286489D01*
X0932552D01*
Y-0286656D01*
X0932719D01*
Y-0286824D01*
Y-0286992D01*
Y-028716D01*
X0932552D01*
Y-0287327D01*
X0932719D01*
Y-0287495D01*
Y-0287663D01*
Y-028783D01*
X0932552D01*
Y-0287998D01*
X0932719D01*
Y-0288166D01*
Y-0288334D01*
Y-0288501D01*
Y-0288669D01*
Y-0288837D01*
Y-0289004D01*
Y-0289172D01*
X0932552D01*
Y-028934D01*
X0932719D01*
Y-0289507D01*
Y-0289675D01*
Y-0289843D01*
X0932552D01*
Y-029001D01*
X0932384D01*
Y-0290178D01*
X0932216D01*
Y-0290346D01*
X0932049D01*
Y-0290514D01*
X0931881D01*
Y-0290681D01*
X0931713D01*
Y-0290849D01*
X0931545D01*
Y-0291017D01*
X0931378D01*
Y-0291184D01*
X093121D01*
Y-0291352D01*
X0931042D01*
Y-029152D01*
X0930875D01*
Y-0291688D01*
X0930707D01*
Y-0291855D01*
X0930539D01*
Y-0292023D01*
X0930371D01*
Y-0292191D01*
X0930204D01*
Y-0292358D01*
X0930036D01*
Y-0292526D01*
X0929868D01*
Y-0292694D01*
X0929701D01*
Y-0292862D01*
X0929533D01*
Y-0293029D01*
X0929365D01*
Y-0293197D01*
X0929198D01*
Y-0293365D01*
X092903D01*
Y-0293532D01*
X0928862D01*
Y-02937D01*
X0928694D01*
Y-0293868D01*
X0928527D01*
Y-0294035D01*
X0928359D01*
Y-0294203D01*
X0928191D01*
Y-0294371D01*
X0928024D01*
Y-0294538D01*
X0927856D01*
Y-0294706D01*
X0927688D01*
Y-0294874D01*
Y-0295042D01*
X0928024D01*
Y-0295209D01*
Y-0295377D01*
X0928359D01*
Y-0295545D01*
Y-0295712D01*
X0928694D01*
Y-029588D01*
Y-0296048D01*
X092903D01*
Y-0296216D01*
Y-0296383D01*
X0929365D01*
Y-0296551D01*
X0929198D01*
Y-0296719D01*
X0929701D01*
Y-0296886D01*
X0929533D01*
Y-0297054D01*
X0930036D01*
Y-0297222D01*
X0929868D01*
Y-0297389D01*
X0930371D01*
Y-0297557D01*
X0930204D01*
Y-0297725D01*
X0930707D01*
Y-0297893D01*
X0930539D01*
Y-029806D01*
X0930875D01*
Y-0298228D01*
Y-0298396D01*
X0931378D01*
Y-0298563D01*
X093121D01*
Y-0298731D01*
X0931713D01*
Y-0298899D01*
X0931545D01*
Y-0299066D01*
X0932049D01*
Y-0299234D01*
X0931881D01*
Y-0299402D01*
X0932216D01*
Y-029957D01*
Y-0299737D01*
X0932552D01*
Y-0299905D01*
Y-0300073D01*
X0932887D01*
Y-030024D01*
Y-0300408D01*
X0933055D01*
Y-0300576D01*
X0932887D01*
Y-0300744D01*
X0933055D01*
Y-0300911D01*
X0932887D01*
Y-0301079D01*
X0933055D01*
Y-0301247D01*
X0932887D01*
Y-0301414D01*
X0933055D01*
Y-0301582D01*
X0932887D01*
Y-030175D01*
X0933055D01*
Y-0301917D01*
X0932887D01*
Y-0302085D01*
X0933055D01*
Y-0302253D01*
X0932887D01*
Y-030242D01*
X0933055D01*
Y-0302588D01*
X0932887D01*
Y-0302756D01*
X0933055D01*
Y-0302924D01*
X0932887D01*
Y-0303091D01*
X0933055D01*
Y-0303259D01*
X0932887D01*
Y-0303427D01*
X0933055D01*
Y-0303594D01*
X0932887D01*
Y-0303762D01*
X0933055D01*
Y-030393D01*
X0932887D01*
Y-0304098D01*
X0933055D01*
Y-0304265D01*
X0932887D01*
Y-0304433D01*
X0933055D01*
Y-0304601D01*
X0932887D01*
Y-0304768D01*
X0933055D01*
Y-0304936D01*
X0932887D01*
Y-0305104D01*
X0933055D01*
Y-0305272D01*
X0932887D01*
Y-0305439D01*
X0933055D01*
Y-0305607D01*
X0932887D01*
Y-0305774D01*
X0933055D01*
Y-0305942D01*
X0932887D01*
Y-030611D01*
X0933055D01*
Y-0306278D01*
X0932887D01*
Y-0306445D01*
X0933055D01*
Y-0306613D01*
X0932887D01*
Y-0306781D01*
X0933055D01*
Y-0306948D01*
X0932887D01*
Y-0307116D01*
X0933055D01*
Y-0307284D01*
X0932887D01*
Y-0307452D01*
X0933055D01*
Y-0307619D01*
X0932887D01*
Y-0307787D01*
X0933055D01*
Y-0307955D01*
X0932887D01*
Y-0308122D01*
X0933055D01*
Y-030829D01*
X0932887D01*
Y-0308458D01*
X0933055D01*
Y-0308626D01*
X0932887D01*
Y-0308793D01*
X0933055D01*
Y-0308961D01*
X0932887D01*
Y-0309129D01*
X0933055D01*
Y-0309296D01*
X0932887D01*
Y-0309464D01*
X0933055D01*
Y-0309632D01*
X0932887D01*
Y-0309799D01*
X0933055D01*
Y-0309967D01*
X0932887D01*
Y-0310135D01*
X0933055D01*
Y-0310302D01*
X0932887D01*
Y-031047D01*
X0933055D01*
Y-0310638D01*
X0932887D01*
Y-0310806D01*
X0933055D01*
Y-0310973D01*
X0932887D01*
Y-0311141D01*
X0933055D01*
Y-0311309D01*
X0932887D01*
Y-0311476D01*
X0933055D01*
Y-0311644D01*
X0932887D01*
Y-0311812D01*
X093339D01*
Y-031198D01*
X0933558D01*
Y-0312147D01*
X0933725D01*
Y-0312315D01*
Y-0312483D01*
X0934061D01*
Y-031265D01*
X0934229D01*
Y-0312818D01*
X0934396D01*
Y-0312986D01*
X0934229D01*
Y-0313154D01*
X0934732D01*
Y-0313321D01*
X09349D01*
Y-0313489D01*
X0935067D01*
Y-0313657D01*
Y-0313824D01*
X0935402D01*
Y-0313992D01*
X093557D01*
Y-031416D01*
X0935738D01*
Y-0314327D01*
X093557D01*
Y-0314495D01*
X0936073D01*
Y-0314663D01*
X0935906D01*
Y-031483D01*
X0935738D01*
Y-0314998D01*
X093557D01*
Y-0315166D01*
X0935402D01*
Y-0315334D01*
X0935235D01*
Y-0315501D01*
X0935067D01*
Y-0315669D01*
X09349D01*
Y-0315837D01*
X0934732D01*
Y-0316004D01*
X0934564D01*
Y-0316172D01*
X0934396D01*
Y-031634D01*
X0934229D01*
Y-0316508D01*
X0934061D01*
Y-0316675D01*
X0933893D01*
Y-0316843D01*
X0933725D01*
Y-0317011D01*
X0933558D01*
Y-0317178D01*
X093339D01*
Y-0317346D01*
X0933222D01*
Y-0317514D01*
X0933055D01*
Y-0317681D01*
X0932887D01*
Y-0317849D01*
X0932719D01*
Y-0318017D01*
X0932552D01*
Y-0318185D01*
X0932384D01*
Y-0318352D01*
X0932216D01*
Y-031852D01*
X0932049D01*
Y-0318688D01*
X0931881D01*
Y-0318855D01*
X0931713D01*
Y-0319023D01*
X0931545D01*
Y-0319191D01*
X0931378D01*
Y-0319358D01*
X093121D01*
Y-0319526D01*
X0931042D01*
Y-0319694D01*
X0930875D01*
Y-0319862D01*
X0930707D01*
Y-0320029D01*
X0930539D01*
Y-0320197D01*
X0930371D01*
Y-0320365D01*
X0930204D01*
Y-0320532D01*
X0930036D01*
Y-03207D01*
X0929868D01*
Y-0320868D01*
X0929701D01*
Y-0321036D01*
X0929533D01*
Y-0321203D01*
X0929365D01*
Y-0321036D01*
X0929198D01*
Y-0320868D01*
X092903D01*
Y-03207D01*
X0928862D01*
Y-0320532D01*
X0928694D01*
Y-0320365D01*
X0928527D01*
Y-0320197D01*
X0928359D01*
Y-0320029D01*
X0928191D01*
Y-0319862D01*
X0928024D01*
Y-0319694D01*
X0927856D01*
Y-0319526D01*
X0927688D01*
Y-0319358D01*
X092752D01*
Y-0319191D01*
X0927353D01*
Y-0319023D01*
X0927185D01*
Y-0318855D01*
X0927017D01*
Y-0318688D01*
X092685D01*
Y-031852D01*
X0926682D01*
Y-0318352D01*
X0926514D01*
Y-0318185D01*
X0926347D01*
Y-0318017D01*
X0926179D01*
Y-0317849D01*
X0926011D01*
Y-0317681D01*
X0925844D01*
Y-0317514D01*
X0925676D01*
Y-0317346D01*
X0925508D01*
Y-0317178D01*
X092534D01*
Y-0317011D01*
X0925173D01*
Y-0316843D01*
X0925005D01*
Y-0316675D01*
X0924837D01*
Y-0316508D01*
X092467D01*
Y-031634D01*
X0924502D01*
Y-0316172D01*
X0924334D01*
Y-0316004D01*
X0924166D01*
Y-0315837D01*
X0923999D01*
Y-0315669D01*
X0923831D01*
Y-0315501D01*
X0923663D01*
Y-0315334D01*
X0923496D01*
Y-0315166D01*
X0923328D01*
Y-0314998D01*
X092316D01*
Y-031483D01*
X0922993D01*
Y-0314663D01*
X0922825D01*
Y-0314495D01*
X0922993D01*
Y-0314327D01*
X092316D01*
Y-031416D01*
X0923328D01*
Y-0313992D01*
X0923496D01*
Y-0313824D01*
X0923663D01*
Y-0313657D01*
X0923831D01*
Y-0313489D01*
X0923999D01*
Y-0313321D01*
X0924166D01*
Y-0313154D01*
X0924334D01*
Y-0312986D01*
X0924502D01*
Y-0312818D01*
X092467D01*
Y-031265D01*
X0924837D01*
Y-0312483D01*
X0925005D01*
Y-0312315D01*
X0925173D01*
Y-0312147D01*
X092534D01*
Y-031198D01*
Y-0311812D01*
X0925676D01*
Y-0311644D01*
X0925508D01*
Y-0311476D01*
X0925676D01*
Y-0311309D01*
X0925508D01*
Y-0311141D01*
X0925676D01*
Y-0310973D01*
Y-0310806D01*
Y-0310638D01*
X0925508D01*
Y-031047D01*
X0925676D01*
Y-0310302D01*
X0925508D01*
Y-0310135D01*
X0925676D01*
Y-0309967D01*
X0925508D01*
Y-0309799D01*
X0925676D01*
Y-0309632D01*
Y-0309464D01*
Y-0309296D01*
X0925508D01*
Y-0309129D01*
X0925676D01*
Y-0308961D01*
X0925508D01*
Y-0308793D01*
X0925676D01*
Y-0308626D01*
X0925508D01*
Y-0308458D01*
X0925676D01*
Y-030829D01*
Y-0308122D01*
Y-0307955D01*
X0925508D01*
Y-0307787D01*
X0925676D01*
Y-0307619D01*
X0925508D01*
Y-0307452D01*
X0925676D01*
Y-0307284D01*
X0925508D01*
Y-0307116D01*
X0925676D01*
Y-0306948D01*
Y-0306781D01*
Y-0306613D01*
X0925508D01*
Y-0306445D01*
X0925676D01*
Y-0306278D01*
X0925508D01*
Y-030611D01*
X0925676D01*
Y-0305942D01*
X0925508D01*
Y-0305774D01*
X0925676D01*
Y-0305607D01*
Y-0305439D01*
Y-0305272D01*
X0925508D01*
Y-0305104D01*
X0925676D01*
Y-0304936D01*
X0925508D01*
Y-0304768D01*
X0925676D01*
Y-0304601D01*
X0925508D01*
Y-0304433D01*
X0925676D01*
Y-0304265D01*
Y-0304098D01*
Y-030393D01*
X0925508D01*
Y-0303762D01*
X092534D01*
Y-0303594D01*
X0925173D01*
Y-0303427D01*
X0925005D01*
Y-0303259D01*
X0924837D01*
Y-0303091D01*
X092467D01*
Y-0302924D01*
X0924502D01*
Y-0302756D01*
X0924334D01*
Y-0302588D01*
X0924166D01*
Y-030242D01*
X0923999D01*
Y-0302253D01*
X0923831D01*
Y-0302085D01*
X0923663D01*
Y-0301917D01*
X0923496D01*
Y-030175D01*
X0923328D01*
Y-0301582D01*
X092316D01*
Y-0301414D01*
X0922993D01*
Y-0301247D01*
X0922825D01*
Y-0301079D01*
X0922993D01*
Y-0300911D01*
X0922489D01*
Y-0300744D01*
X0922657D01*
Y-0300576D01*
X0922154D01*
Y-0300408D01*
X0922322D01*
Y-030024D01*
X0921819D01*
Y-0300073D01*
X0921986D01*
Y-0299905D01*
X0921483D01*
Y-0299737D01*
X0921651D01*
Y-029957D01*
X0921148D01*
Y-0299402D01*
X0921315D01*
Y-0299234D01*
X0920812D01*
Y-0299066D01*
X092098D01*
Y-0298899D01*
X0920477D01*
Y-0298731D01*
X0920645D01*
Y-0298563D01*
X0920142D01*
Y-0298396D01*
X0920309D01*
Y-0298228D01*
X0919806D01*
Y-029806D01*
X0919974D01*
Y-0297893D01*
X0919471D01*
Y-0297725D01*
X0919303D01*
Y-0297893D01*
X0919471D01*
Y-029806D01*
X0919303D01*
Y-0298228D01*
X0919471D01*
Y-0298396D01*
X0919303D01*
Y-0298563D01*
X0919471D01*
Y-0298731D01*
X0919303D01*
Y-0298899D01*
X0919471D01*
Y-0299066D01*
X0919303D01*
Y-0299234D01*
X0919471D01*
Y-0299402D01*
X0919303D01*
Y-029957D01*
X0919471D01*
Y-0299737D01*
X0919303D01*
Y-0299905D01*
X0919471D01*
Y-0300073D01*
X0919303D01*
Y-030024D01*
X0919471D01*
Y-0300408D01*
X0919303D01*
Y-0300576D01*
X0919471D01*
Y-0300744D01*
X0919303D01*
Y-0300911D01*
X0919471D01*
Y-0301079D01*
X0919303D01*
Y-0301247D01*
X0919471D01*
Y-0301414D01*
X0919303D01*
Y-0301582D01*
X0919471D01*
Y-030175D01*
X0919303D01*
Y-0301917D01*
X0919471D01*
Y-0302085D01*
X0919303D01*
Y-0302253D01*
X0919471D01*
Y-030242D01*
X0919303D01*
Y-0302588D01*
X0919471D01*
Y-0302756D01*
X0919303D01*
Y-0302924D01*
X0919471D01*
Y-0303091D01*
X0919303D01*
Y-0303259D01*
X0919471D01*
Y-0303427D01*
X0919303D01*
Y-0303594D01*
X0919471D01*
Y-0303762D01*
X0919303D01*
Y-030393D01*
X0919471D01*
Y-0304098D01*
X0919303D01*
Y-0304265D01*
X0919471D01*
Y-0304433D01*
X0919303D01*
Y-0304601D01*
X0919471D01*
Y-0304768D01*
X0919303D01*
Y-0304936D01*
X0919471D01*
Y-0305104D01*
X0919303D01*
Y-0305272D01*
X0919471D01*
Y-0305439D01*
X0919303D01*
Y-0305607D01*
X0919471D01*
Y-0305774D01*
X0919303D01*
Y-0305942D01*
X0919471D01*
Y-030611D01*
X0919303D01*
Y-0306278D01*
X0919471D01*
Y-0306445D01*
X0919303D01*
Y-0306613D01*
X0919471D01*
Y-0306781D01*
X0919303D01*
Y-0306948D01*
X0919471D01*
Y-0307116D01*
X0919303D01*
Y-0307284D01*
X0919471D01*
Y-0307452D01*
X0919303D01*
Y-0307619D01*
X0919471D01*
Y-0307787D01*
X0919303D01*
Y-0307955D01*
X0919471D01*
Y-0308122D01*
X0919303D01*
Y-030829D01*
X0919471D01*
Y-0308458D01*
X0919303D01*
Y-0308626D01*
X0919471D01*
Y-0308793D01*
X0919303D01*
Y-0308961D01*
X0919471D01*
Y-0309129D01*
X0919303D01*
Y-0309296D01*
X0919471D01*
Y-0309464D01*
X0919303D01*
Y-0309632D01*
X0919471D01*
Y-0309799D01*
X0919303D01*
Y-0309967D01*
X0919471D01*
Y-0310135D01*
X0919303D01*
Y-0310302D01*
X0919471D01*
Y-031047D01*
X0919303D01*
Y-0310638D01*
X0919471D01*
Y-0310806D01*
X0919303D01*
Y-0310973D01*
X0919471D01*
Y-0311141D01*
X0919303D01*
Y-0311309D01*
X0919471D01*
Y-0311476D01*
X0919303D01*
Y-0311644D01*
X0919471D01*
Y-0311812D01*
X0919639D01*
Y-031198D01*
X0919806D01*
Y-0312147D01*
X0919974D01*
Y-0312315D01*
X0920142D01*
Y-0312483D01*
X0920309D01*
Y-031265D01*
X0920477D01*
Y-0312818D01*
X0920645D01*
Y-0312986D01*
X0920812D01*
Y-0313154D01*
X092098D01*
Y-0313321D01*
X0921148D01*
Y-0313489D01*
X0921315D01*
Y-0313657D01*
X0921483D01*
Y-0313824D01*
X0921651D01*
Y-0313992D01*
X0921819D01*
Y-031416D01*
X0921986D01*
Y-0314327D01*
X0922154D01*
Y-0314495D01*
X0922322D01*
Y-0314663D01*
X0922154D01*
Y-031483D01*
X0921986D01*
Y-0314998D01*
X0921819D01*
Y-0315166D01*
X0921651D01*
Y-0315334D01*
X0921483D01*
Y-0315501D01*
X0921315D01*
Y-0315669D01*
X0921148D01*
Y-0315837D01*
X092098D01*
Y-0316004D01*
X0920812D01*
Y-0316172D01*
X0920645D01*
Y-031634D01*
X0920477D01*
Y-0316508D01*
X0920309D01*
Y-0316675D01*
X0920142D01*
Y-0316843D01*
X0919974D01*
Y-0317011D01*
X0919806D01*
Y-0317178D01*
X0919639D01*
Y-0317346D01*
X0919471D01*
Y-0317514D01*
X0919303D01*
Y-0317681D01*
X0919135D01*
Y-0317849D01*
X0918968D01*
Y-0318017D01*
X09188D01*
Y-0318185D01*
X0918632D01*
Y-0318352D01*
X0918465D01*
Y-031852D01*
X0918297D01*
Y-0318688D01*
X0918129D01*
Y-0318855D01*
X0917962D01*
Y-0319023D01*
X0917794D01*
Y-0319191D01*
X0917626D01*
Y-0319358D01*
X0917458D01*
Y-0319526D01*
X0917291D01*
Y-0319694D01*
X0917123D01*
Y-0319862D01*
X0916955D01*
Y-0320029D01*
X0916788D01*
Y-0320197D01*
X091662D01*
Y-0320365D01*
X0916452D01*
Y-0320532D01*
X0916284D01*
Y-03207D01*
X0916117D01*
Y-0320868D01*
X0915949D01*
Y-0321036D01*
X0915781D01*
Y-0321203D01*
X0915614D01*
Y-0321036D01*
X0915446D01*
Y-0320868D01*
X0915278D01*
Y-03207D01*
X091511D01*
Y-0320532D01*
X0914943D01*
Y-0320365D01*
X0914775D01*
Y-0320197D01*
X0914607D01*
Y-0320029D01*
X091444D01*
Y-0319862D01*
X0914272D01*
Y-0319694D01*
X0914104D01*
Y-0319526D01*
X0913937D01*
Y-0319358D01*
X0913769D01*
Y-0319191D01*
X0913601D01*
Y-0319023D01*
X0913433D01*
Y-0318855D01*
X0913266D01*
Y-0318688D01*
X0913098D01*
Y-031852D01*
X091293D01*
Y-0318352D01*
X0912763D01*
Y-0318185D01*
X0912595D01*
Y-0318017D01*
X0912427D01*
Y-0317849D01*
X091226D01*
Y-0317681D01*
X0912092D01*
Y-0317514D01*
X0911924D01*
Y-0317346D01*
X0911757D01*
Y-0317178D01*
X0911589D01*
Y-0317011D01*
X0911421D01*
Y-0316843D01*
X0911253D01*
Y-0316675D01*
X0911086D01*
Y-0316508D01*
X0910918D01*
Y-031634D01*
X091075D01*
Y-0316172D01*
X0910583D01*
Y-0316004D01*
X0910415D01*
Y-0315837D01*
X0910247D01*
Y-0315669D01*
X0910079D01*
Y-0315501D01*
X0909912D01*
Y-0315334D01*
X0909744D01*
Y-0315166D01*
X0909576D01*
Y-0314998D01*
X0909409D01*
Y-031483D01*
X0909241D01*
Y-0314663D01*
X0909073D01*
Y-0314495D01*
X0909241D01*
Y-0314327D01*
X0909409D01*
Y-031416D01*
X0909576D01*
Y-0313992D01*
X0909744D01*
Y-0313824D01*
X0909912D01*
Y-0313657D01*
X0910079D01*
Y-0313489D01*
X0910247D01*
Y-0313321D01*
X0910415D01*
Y-0313154D01*
X0910583D01*
Y-0312986D01*
X091075D01*
Y-0312818D01*
X0910918D01*
Y-031265D01*
X0911086D01*
Y-0312483D01*
X0911253D01*
Y-0312315D01*
X0911421D01*
Y-0312147D01*
X0911589D01*
Y-031198D01*
X0911757D01*
Y-0311812D01*
X0911924D01*
Y-0311644D01*
X0912092D01*
Y-0311476D01*
Y-0311309D01*
Y-0311141D01*
X091226D01*
Y-0310973D01*
X0912092D01*
Y-0310806D01*
Y-0310638D01*
Y-031047D01*
X091226D01*
Y-0310302D01*
X0912092D01*
Y-0310135D01*
Y-0309967D01*
Y-0309799D01*
X091226D01*
Y-0309632D01*
X0912092D01*
Y-0309464D01*
Y-0309296D01*
Y-0309129D01*
X091226D01*
Y-0308961D01*
X0912092D01*
Y-0308793D01*
Y-0308626D01*
Y-0308458D01*
X091226D01*
Y-030829D01*
X0912092D01*
Y-0308122D01*
Y-0307955D01*
Y-0307787D01*
X091226D01*
Y-0307619D01*
X0912092D01*
Y-0307452D01*
Y-0307284D01*
Y-0307116D01*
X091226D01*
Y-0306948D01*
X0912092D01*
Y-0306781D01*
Y-0306613D01*
Y-0306445D01*
X091226D01*
Y-0306278D01*
X0912092D01*
Y-030611D01*
Y-0305942D01*
Y-0305774D01*
X091226D01*
Y-0305607D01*
X0912092D01*
Y-0305439D01*
Y-0305272D01*
Y-0305104D01*
X091226D01*
Y-0304936D01*
X0912092D01*
Y-0304768D01*
Y-0304601D01*
Y-0304433D01*
X091226D01*
Y-0304265D01*
X0912092D01*
Y-0304098D01*
Y-030393D01*
Y-0303762D01*
X091226D01*
Y-0303594D01*
X0912092D01*
Y-0303427D01*
Y-0303259D01*
Y-0303091D01*
X091226D01*
Y-0302924D01*
X0912092D01*
Y-0302756D01*
Y-0302588D01*
Y-030242D01*
X091226D01*
Y-0302253D01*
X0912092D01*
Y-0302085D01*
Y-0301917D01*
Y-030175D01*
X091226D01*
Y-0301582D01*
X0912092D01*
Y-0301414D01*
Y-0301247D01*
Y-0301079D01*
X091226D01*
Y-0300911D01*
X0912092D01*
Y-0300744D01*
Y-0300576D01*
Y-0300408D01*
X091226D01*
Y-030024D01*
X0912092D01*
Y-0300073D01*
Y-0299905D01*
Y-0299737D01*
X091226D01*
Y-029957D01*
X0912092D01*
Y-0299402D01*
Y-0299234D01*
Y-0299066D01*
X091226D01*
Y-0298899D01*
X0912092D01*
Y-0298731D01*
Y-0298563D01*
Y-0298396D01*
X091226D01*
Y-0298228D01*
X0912092D01*
Y-029806D01*
Y-0297893D01*
Y-0297725D01*
X091226D01*
Y-0297557D01*
X0912092D01*
Y-0297389D01*
Y-0297222D01*
Y-0297054D01*
X091226D01*
Y-0296886D01*
X0912092D01*
Y-0296719D01*
Y-0296551D01*
Y-0296383D01*
X091226D01*
Y-0296216D01*
X0912092D01*
Y-0296048D01*
Y-029588D01*
Y-0295712D01*
X091226D01*
Y-0295545D01*
X0912092D01*
Y-0295377D01*
Y-0295209D01*
Y-0295042D01*
X091226D01*
Y-0294874D01*
X0912092D01*
Y-0294706D01*
Y-0294538D01*
Y-0294371D01*
X091226D01*
Y-0294203D01*
X0912092D01*
Y-0294035D01*
Y-0293868D01*
Y-02937D01*
X091226D01*
Y-0293532D01*
X0912092D01*
Y-0293365D01*
Y-0293197D01*
Y-0293029D01*
X091226D01*
Y-0292862D01*
X0912092D01*
Y-0292694D01*
Y-0292526D01*
Y-0292358D01*
X091226D01*
Y-0292191D01*
X0912092D01*
Y-0292023D01*
Y-0291855D01*
Y-0291688D01*
X091226D01*
Y-029152D01*
X0912092D01*
Y-0291352D01*
Y-0291184D01*
Y-0291017D01*
X091226D01*
Y-0290849D01*
X0912092D01*
Y-0290681D01*
Y-0290514D01*
Y-0290346D01*
X091226D01*
Y-0290178D01*
X0912092D01*
Y-029001D01*
Y-0289843D01*
Y-0289675D01*
X091226D01*
Y-0289507D01*
X0912092D01*
Y-028934D01*
Y-0289172D01*
Y-0289004D01*
X091226D01*
Y-0288837D01*
X0912092D01*
Y-0288669D01*
Y-0288501D01*
Y-0288334D01*
X091226D01*
Y-0288166D01*
X0912092D01*
Y-0287998D01*
Y-028783D01*
Y-0287663D01*
X091226D01*
Y-0287495D01*
X0912092D01*
Y-0287327D01*
Y-028716D01*
Y-0286992D01*
X091226D01*
Y-0286824D01*
X0912092D01*
Y-0286656D01*
Y-0286489D01*
Y-0286321D01*
X091226D01*
Y-0286153D01*
X0912092D01*
Y-0285986D01*
Y-0285818D01*
Y-028565D01*
X091226D01*
Y-0285483D01*
X0912092D01*
Y-0285315D01*
Y-0285147D01*
Y-028498D01*
X091226D01*
Y-0284812D01*
X0912092D01*
Y-0284644D01*
Y-0284476D01*
Y-0284309D01*
X091226D01*
Y-0284141D01*
X0912092D01*
Y-0283973D01*
Y-0283805D01*
Y-0283638D01*
X091226D01*
Y-028347D01*
X0912092D01*
Y-0283302D01*
Y-0283135D01*
Y-0282967D01*
X0911924D01*
Y-0282799D01*
X0911757D01*
Y-0282632D01*
X0911589D01*
Y-0282464D01*
X0911253D01*
Y-0282296D01*
Y-0282129D01*
X0910918D01*
Y-0281961D01*
Y-0281793D01*
X0910583D01*
Y-0281625D01*
Y-0281458D01*
X0910247D01*
Y-028129D01*
X0910079D01*
Y-0281122D01*
X0909744D01*
Y-0280955D01*
X0909912D01*
Y-0280787D01*
X0909409D01*
Y-0280619D01*
Y-0280451D01*
X0909073D01*
Y-0280284D01*
Y-0280116D01*
X0908906D01*
Y-0279948D01*
X0909241D01*
Y-0279781D01*
X0909073D01*
Y-0279613D01*
X0909576D01*
Y-0279445D01*
X0909409D01*
Y-0279278D01*
X0909912D01*
Y-027911D01*
X0909744D01*
Y-0278942D01*
X0910247D01*
Y-0278774D01*
X0910079D01*
Y-0278607D01*
X0910583D01*
Y-0278439D01*
X0910415D01*
Y-0278271D01*
X0910918D01*
Y-0278104D01*
X091075D01*
Y-0277936D01*
X0911253D01*
Y-0277768D01*
X0911086D01*
Y-0277601D01*
X0911589D01*
Y-0277433D01*
X0911421D01*
Y-0277265D01*
X0911924D01*
Y-0277097D01*
X0911757D01*
Y-027693D01*
X091226D01*
Y-0276762D01*
X0912092D01*
Y-0276594D01*
X0912595D01*
Y-0276427D01*
X0912427D01*
Y-0276259D01*
X091293D01*
Y-0276091D01*
X0912763D01*
Y-0275923D01*
X0913266D01*
Y-0275756D01*
X0913098D01*
Y-0275588D01*
X0913601D01*
Y-027542D01*
X0913433D01*
Y-0275253D01*
X0913937D01*
Y-0275085D01*
X0913769D01*
Y-0274917D01*
X0914272D01*
Y-027475D01*
X0914104D01*
Y-0274582D01*
X0914607D01*
Y-0274414D01*
X091444D01*
Y-0274247D01*
X092467D01*
Y-0274414D01*
D02*
G37*
%LPC*%
G36*
X0872682Y-0319694D02*
X0872514D01*
Y-0319862D01*
X0872682D01*
Y-0319694D01*
D02*
G37*
G36*
X0873353Y-0320365D02*
X0873185D01*
Y-0320532D01*
X0873353D01*
Y-0320365D01*
D02*
G37*
G36*
X0853899Y-0276762D02*
X0853732D01*
Y-027693D01*
X0853899D01*
Y-0276762D01*
D02*
G37*
G36*
X0855241Y-0278104D02*
X0855073D01*
Y-0278271D01*
X0855241D01*
Y-0278104D01*
D02*
G37*
G36*
X0857924Y-0280787D02*
X0857756D01*
Y-0280955D01*
X0857924D01*
Y-0280787D01*
D02*
G37*
G36*
X0859266Y-0282129D02*
X0859098D01*
Y-0282296D01*
X0859266D01*
Y-0282129D01*
D02*
G37*
G36*
X0848197Y-0282464D02*
X084803D01*
Y-0282632D01*
X0847862D01*
Y-0282799D01*
Y-0282967D01*
Y-0283135D01*
X084803D01*
Y-0283302D01*
X0847862D01*
Y-028347D01*
Y-0283638D01*
Y-0283805D01*
X084803D01*
Y-0283973D01*
X0847862D01*
Y-0284141D01*
Y-0284309D01*
Y-0284476D01*
X084803D01*
Y-0284644D01*
X0847862D01*
Y-0284812D01*
Y-028498D01*
Y-0285147D01*
X084803D01*
Y-0285315D01*
X0847862D01*
Y-0285483D01*
Y-028565D01*
Y-0285818D01*
X084803D01*
Y-0285986D01*
X0847862D01*
Y-0286153D01*
Y-0286321D01*
Y-0286489D01*
X084803D01*
Y-0286656D01*
X0847862D01*
Y-0286824D01*
Y-0286992D01*
Y-028716D01*
X084803D01*
Y-0287327D01*
X0847862D01*
Y-0287495D01*
Y-0287663D01*
Y-028783D01*
X084803D01*
Y-0287998D01*
X0847862D01*
Y-0288166D01*
Y-0288334D01*
Y-0288501D01*
X084803D01*
Y-0288669D01*
X0847862D01*
Y-0288837D01*
Y-0289004D01*
Y-0289172D01*
X084803D01*
Y-028934D01*
X0847862D01*
Y-0289507D01*
Y-0289675D01*
Y-0289843D01*
X084803D01*
Y-029001D01*
X0847862D01*
Y-0290178D01*
Y-0290346D01*
Y-0290514D01*
X084803D01*
Y-0290681D01*
X0847862D01*
Y-0290849D01*
Y-0291017D01*
Y-0291184D01*
X084803D01*
Y-0291352D01*
X0847862D01*
Y-029152D01*
Y-0291688D01*
Y-0291855D01*
X084803D01*
Y-0292023D01*
X0847862D01*
Y-0292191D01*
Y-0292358D01*
Y-0292526D01*
X084803D01*
Y-0292694D01*
X0847862D01*
Y-0292862D01*
Y-0293029D01*
Y-0293197D01*
X084803D01*
Y-0293365D01*
X0847862D01*
Y-0293532D01*
Y-02937D01*
Y-0293868D01*
X084803D01*
Y-0294035D01*
X0847862D01*
Y-0294203D01*
Y-0294371D01*
Y-0294538D01*
X084803D01*
Y-0294706D01*
X0847862D01*
Y-0294874D01*
Y-0295042D01*
Y-0295209D01*
X084803D01*
Y-0295377D01*
X0847862D01*
Y-0295545D01*
Y-0295712D01*
Y-029588D01*
X084803D01*
Y-0296048D01*
X0847862D01*
Y-0296216D01*
Y-0296383D01*
Y-0296551D01*
X084803D01*
Y-0296719D01*
X0847862D01*
Y-0296886D01*
Y-0297054D01*
Y-0297222D01*
X084803D01*
Y-0297389D01*
X0847862D01*
Y-0297557D01*
Y-0297725D01*
Y-0297893D01*
X084803D01*
Y-029806D01*
X0854235D01*
Y-0297893D01*
X0854067D01*
Y-0297725D01*
X0854235D01*
Y-0297557D01*
X0854067D01*
Y-0297389D01*
X0854235D01*
Y-0297222D01*
X0854067D01*
Y-0297054D01*
X0854235D01*
Y-0296886D01*
X0854067D01*
Y-0296719D01*
X0854235D01*
Y-0296551D01*
X0854067D01*
Y-0296383D01*
X0854235D01*
Y-0296216D01*
X0854067D01*
Y-0296048D01*
X0854235D01*
Y-029588D01*
X0854067D01*
Y-0295712D01*
X0854235D01*
Y-0295545D01*
X0854067D01*
Y-0295377D01*
X0854235D01*
Y-0295209D01*
X0854067D01*
Y-0295042D01*
X0854235D01*
Y-0294874D01*
X0854067D01*
Y-0294706D01*
X0854235D01*
Y-0294538D01*
X0854067D01*
Y-0294371D01*
X0854235D01*
Y-0294203D01*
X0854067D01*
Y-0294035D01*
X0854235D01*
Y-0293868D01*
X0854067D01*
Y-02937D01*
X0854235D01*
Y-0293532D01*
X0854067D01*
Y-0293365D01*
X0854235D01*
Y-0293197D01*
X0854067D01*
Y-0293029D01*
X0854235D01*
Y-0292862D01*
X0854067D01*
Y-0292694D01*
X0854235D01*
Y-0292526D01*
X0854067D01*
Y-0292358D01*
X0854235D01*
Y-0292191D01*
X0854067D01*
Y-0292023D01*
X0854235D01*
Y-0291855D01*
X0854067D01*
Y-0291688D01*
X0854235D01*
Y-029152D01*
X0854067D01*
Y-0291352D01*
X0854235D01*
Y-0291184D01*
X0854067D01*
Y-0291017D01*
X0854235D01*
Y-0290849D01*
X0854067D01*
Y-0290681D01*
X0854235D01*
Y-0290514D01*
X0854067D01*
Y-0290346D01*
X0854235D01*
Y-0290178D01*
X0854067D01*
Y-029001D01*
X0854235D01*
Y-0289843D01*
X0854067D01*
Y-0289675D01*
X0854235D01*
Y-0289507D01*
X0854067D01*
Y-028934D01*
X0854235D01*
Y-0289172D01*
X0854067D01*
Y-0289004D01*
X0854235D01*
Y-0288837D01*
X0854067D01*
Y-0288669D01*
X0853899D01*
Y-0288501D01*
X0853732D01*
Y-0288334D01*
X0853564D01*
Y-0288166D01*
X0853396D01*
Y-0287998D01*
X0853564D01*
Y-028783D01*
X0853061D01*
Y-0287663D01*
X0853228D01*
Y-0287495D01*
X0852725D01*
Y-0287327D01*
X0852893D01*
Y-028716D01*
X085239D01*
Y-0286992D01*
X0852557D01*
Y-0286824D01*
X0852054D01*
Y-0286656D01*
X0852222D01*
Y-0286489D01*
X0851719D01*
Y-0286321D01*
X0851887D01*
Y-0286153D01*
X0851384D01*
Y-0285986D01*
X0851551D01*
Y-0285818D01*
X0851048D01*
Y-028565D01*
X0851216D01*
Y-0285483D01*
X0850713D01*
Y-0285315D01*
X0850881D01*
Y-0285147D01*
X0850377D01*
Y-028498D01*
X0850545D01*
Y-0284812D01*
X0850042D01*
Y-0284644D01*
X085021D01*
Y-0284476D01*
X0849707D01*
Y-0284309D01*
X0849874D01*
Y-0284141D01*
X0849539D01*
Y-0283973D01*
Y-0283805D01*
X0849036D01*
Y-0283638D01*
X0849203D01*
Y-028347D01*
X0848868D01*
Y-0283302D01*
Y-0283135D01*
X0848365D01*
Y-0282967D01*
X0848533D01*
Y-0282799D01*
X0848197D01*
Y-0282632D01*
Y-0282464D01*
D02*
G37*
G36*
X085457Y-0317681D02*
X0854402D01*
Y-0317849D01*
X085457D01*
Y-0317681D01*
D02*
G37*
G36*
X0855241Y-0318352D02*
X0855073D01*
Y-031852D01*
X0855241D01*
Y-0318352D01*
D02*
G37*
G36*
X0855912Y-0319023D02*
X0855744D01*
Y-0319191D01*
X0855912D01*
Y-0319023D01*
D02*
G37*
G36*
X0856582Y-0319694D02*
X0856415D01*
Y-0319862D01*
X0856582D01*
Y-0319694D01*
D02*
G37*
G36*
X0943117Y-0282464D02*
X0942949D01*
Y-0282632D01*
Y-0282799D01*
Y-0282967D01*
X0942782D01*
Y-0283135D01*
X0942949D01*
Y-0283302D01*
Y-028347D01*
Y-0283638D01*
Y-0283805D01*
Y-0283973D01*
Y-0284141D01*
Y-0284309D01*
X0942782D01*
Y-0284476D01*
X0942949D01*
Y-0284644D01*
Y-0284812D01*
Y-028498D01*
Y-0285147D01*
Y-0285315D01*
Y-0285483D01*
Y-028565D01*
X0942782D01*
Y-0285818D01*
X0942949D01*
Y-0285986D01*
Y-0286153D01*
Y-0286321D01*
Y-0286489D01*
Y-0286656D01*
Y-0286824D01*
Y-0286992D01*
X0942782D01*
Y-028716D01*
X0942949D01*
Y-0287327D01*
Y-0287495D01*
Y-0287663D01*
Y-028783D01*
Y-0287998D01*
Y-0288166D01*
Y-0288334D01*
X0942782D01*
Y-0288501D01*
X0942949D01*
Y-0288669D01*
Y-0288837D01*
Y-0289004D01*
Y-0289172D01*
Y-028934D01*
Y-0289507D01*
Y-0289675D01*
X0942782D01*
Y-0289843D01*
X0942949D01*
Y-029001D01*
Y-0290178D01*
Y-0290346D01*
Y-0290514D01*
Y-0290681D01*
Y-0290849D01*
Y-0291017D01*
X0942782D01*
Y-0291184D01*
X0942949D01*
Y-0291352D01*
Y-029152D01*
Y-0291688D01*
Y-0291855D01*
Y-0292023D01*
Y-0292191D01*
Y-0292358D01*
X0942782D01*
Y-0292526D01*
X0942949D01*
Y-0292694D01*
Y-0292862D01*
Y-0293029D01*
Y-0293197D01*
Y-0293365D01*
Y-0293532D01*
Y-02937D01*
X0942782D01*
Y-0293868D01*
X0942949D01*
Y-0294035D01*
Y-0294203D01*
Y-0294371D01*
Y-0294538D01*
Y-0294706D01*
Y-0294874D01*
Y-0295042D01*
X0942782D01*
Y-0295209D01*
X0942949D01*
Y-0295377D01*
Y-0295545D01*
Y-0295712D01*
Y-029588D01*
Y-0296048D01*
Y-0296216D01*
Y-0296383D01*
X0942782D01*
Y-0296551D01*
X0942949D01*
Y-0296719D01*
Y-0296886D01*
Y-0297054D01*
Y-0297222D01*
Y-0297389D01*
Y-0297557D01*
Y-0297725D01*
X0942782D01*
Y-0297893D01*
X0942949D01*
Y-029806D01*
Y-0298228D01*
Y-0298396D01*
Y-0298563D01*
Y-0298731D01*
Y-0298899D01*
Y-0299066D01*
X0942782D01*
Y-0299234D01*
X0942949D01*
Y-0299402D01*
Y-029957D01*
Y-0299737D01*
Y-0299905D01*
Y-0300073D01*
Y-030024D01*
Y-0300408D01*
X0942782D01*
Y-0300576D01*
X0942949D01*
Y-0300744D01*
Y-0300911D01*
Y-0301079D01*
Y-0301247D01*
Y-0301414D01*
Y-0301582D01*
Y-030175D01*
X0942782D01*
Y-0301917D01*
X0942949D01*
Y-0302085D01*
Y-0302253D01*
Y-030242D01*
Y-0302588D01*
Y-0302756D01*
Y-0302924D01*
Y-0303091D01*
X0942782D01*
Y-0303259D01*
X0942949D01*
Y-0303427D01*
Y-0303594D01*
Y-0303762D01*
Y-030393D01*
Y-0304098D01*
Y-0304265D01*
Y-0304433D01*
X0942782D01*
Y-0304601D01*
X0942949D01*
Y-0304768D01*
Y-0304936D01*
Y-0305104D01*
Y-0305272D01*
Y-0305439D01*
Y-0305607D01*
Y-0305774D01*
X0942782D01*
Y-0305942D01*
X0942949D01*
Y-030611D01*
Y-0306278D01*
Y-0306445D01*
Y-0306613D01*
Y-0306781D01*
Y-0306948D01*
Y-0307116D01*
X0942782D01*
Y-0307284D01*
X0942949D01*
Y-0307452D01*
Y-0307619D01*
Y-0307787D01*
Y-0307955D01*
Y-0308122D01*
Y-030829D01*
Y-0308458D01*
X0942782D01*
Y-0308626D01*
X0942949D01*
Y-0308793D01*
Y-0308961D01*
Y-0309129D01*
Y-0309296D01*
Y-0309464D01*
X0943117D01*
Y-0309632D01*
X0943285D01*
Y-0309799D01*
X0943452D01*
Y-0309967D01*
X094362D01*
Y-0310135D01*
X0943788D01*
Y-0310302D01*
X0943955D01*
Y-031047D01*
X0944123D01*
Y-0310638D01*
X0944291D01*
Y-0310806D01*
X0944458D01*
Y-0310973D01*
X0944626D01*
Y-0311141D01*
X0944794D01*
Y-0310973D01*
X0944962D01*
Y-0310806D01*
X0945129D01*
Y-0310638D01*
X0945297D01*
Y-031047D01*
X0945465D01*
Y-0310302D01*
X0945632D01*
Y-0310135D01*
X09458D01*
Y-0309967D01*
X0945968D01*
Y-0309799D01*
X0946136D01*
Y-0309632D01*
X0946303D01*
Y-0309464D01*
X0946471D01*
Y-0309296D01*
X0946639D01*
Y-0309129D01*
X0946806D01*
Y-0308961D01*
X0946974D01*
Y-0308793D01*
X0947142D01*
Y-0308626D01*
X0947309D01*
Y-0308458D01*
X0947477D01*
Y-030829D01*
X0947645D01*
Y-0308122D01*
X0947812D01*
Y-0307955D01*
X094798D01*
Y-0307787D01*
X0948148D01*
Y-0307619D01*
X0948316D01*
Y-0307452D01*
X0948483D01*
Y-0307284D01*
X0948651D01*
Y-0307116D01*
X0948819D01*
Y-0306948D01*
X0948651D01*
Y-0306781D01*
X0948819D01*
Y-0306613D01*
X0948651D01*
Y-0306445D01*
X0948819D01*
Y-0306278D01*
X0948651D01*
Y-030611D01*
X0948819D01*
Y-0305942D01*
X0948651D01*
Y-0305774D01*
X0948819D01*
Y-0305607D01*
X0948651D01*
Y-0305439D01*
X0948819D01*
Y-0305272D01*
X0948651D01*
Y-0305104D01*
X0948819D01*
Y-0304936D01*
X0948651D01*
Y-0304768D01*
X0948819D01*
Y-0304601D01*
X0948651D01*
Y-0304433D01*
X0948819D01*
Y-0304265D01*
X0948651D01*
Y-0304098D01*
X0948819D01*
Y-030393D01*
X0948651D01*
Y-0303762D01*
X0948819D01*
Y-0303594D01*
X0948651D01*
Y-0303427D01*
X0948819D01*
Y-0303259D01*
X0948651D01*
Y-0303091D01*
X0948819D01*
Y-0302924D01*
X0948651D01*
Y-0302756D01*
X0948819D01*
Y-0302588D01*
X0948651D01*
Y-030242D01*
X0948819D01*
Y-0302253D01*
X0948651D01*
Y-0302085D01*
X0948819D01*
Y-0301917D01*
X0948651D01*
Y-030175D01*
X0948819D01*
Y-0301582D01*
X0948651D01*
Y-0301414D01*
X0948819D01*
Y-0301247D01*
X0948651D01*
Y-0301079D01*
X0948819D01*
Y-0300911D01*
X0948651D01*
Y-0300744D01*
X0948819D01*
Y-0300576D01*
X0948651D01*
Y-0300408D01*
X0948819D01*
Y-030024D01*
X0948651D01*
Y-0300073D01*
X0948819D01*
Y-0299905D01*
X0948651D01*
Y-0299737D01*
X0948819D01*
Y-029957D01*
X0948651D01*
Y-0299402D01*
X0948819D01*
Y-0299234D01*
X0948651D01*
Y-0299066D01*
X0948819D01*
Y-0298899D01*
X0948651D01*
Y-0298731D01*
X0948819D01*
Y-0298563D01*
X0948651D01*
Y-0298396D01*
X0948819D01*
Y-0298228D01*
X0948651D01*
Y-029806D01*
X0948819D01*
Y-0297893D01*
X0948651D01*
Y-0297725D01*
X0948819D01*
Y-0297557D01*
X0948651D01*
Y-0297389D01*
X0948819D01*
Y-0297222D01*
X0948651D01*
Y-0297054D01*
X0948819D01*
Y-0296886D01*
X0948651D01*
Y-0296719D01*
X0948819D01*
Y-0296551D01*
X0948651D01*
Y-0296383D01*
X0948819D01*
Y-0296216D01*
X0948651D01*
Y-0296048D01*
X0948819D01*
Y-029588D01*
X0948651D01*
Y-0295712D01*
X0948819D01*
Y-0295545D01*
X0948651D01*
Y-0295377D01*
X0948819D01*
Y-0295209D01*
X0948651D01*
Y-0295042D01*
X0948819D01*
Y-0294874D01*
X0948651D01*
Y-0294706D01*
X0948819D01*
Y-0294538D01*
X0948651D01*
Y-0294371D01*
X0948819D01*
Y-0294203D01*
X0948651D01*
Y-0294035D01*
X0948819D01*
Y-0293868D01*
X0948651D01*
Y-02937D01*
X0948819D01*
Y-0293532D01*
X0948651D01*
Y-0293365D01*
X0948819D01*
Y-0293197D01*
X0948651D01*
Y-0293029D01*
X0948819D01*
Y-0292862D01*
X0948651D01*
Y-0292694D01*
X0948819D01*
Y-0292526D01*
X0948651D01*
Y-0292358D01*
X0948819D01*
Y-0292191D01*
X0948651D01*
Y-0292023D01*
X0948819D01*
Y-0291855D01*
X0948651D01*
Y-0291688D01*
X0948819D01*
Y-029152D01*
X0948651D01*
Y-0291352D01*
X0948819D01*
Y-0291184D01*
X0948651D01*
Y-0291017D01*
X0948819D01*
Y-0290849D01*
X0948651D01*
Y-0290681D01*
X0948819D01*
Y-0290514D01*
X0948651D01*
Y-0290346D01*
X0948819D01*
Y-0290178D01*
X0948651D01*
Y-029001D01*
X0948819D01*
Y-0289843D01*
X0948651D01*
Y-0289675D01*
X0948819D01*
Y-0289507D01*
X0948651D01*
Y-028934D01*
X0948819D01*
Y-0289172D01*
X0948651D01*
Y-0289004D01*
X0948819D01*
Y-0288837D01*
X0948651D01*
Y-0288669D01*
X0948819D01*
Y-0288501D01*
X0948651D01*
Y-0288334D01*
X0948819D01*
Y-0288166D01*
X0948651D01*
Y-0287998D01*
X0948483D01*
Y-028783D01*
X0948316D01*
Y-0287663D01*
X0948148D01*
Y-0287495D01*
X094798D01*
Y-0287327D01*
X0947812D01*
Y-028716D01*
X0947645D01*
Y-0286992D01*
X0947477D01*
Y-0286824D01*
X0947309D01*
Y-0286656D01*
X0947142D01*
Y-0286489D01*
X0946974D01*
Y-0286321D01*
X0946806D01*
Y-0286153D01*
X0946639D01*
Y-0285986D01*
X0946471D01*
Y-0285818D01*
X0946303D01*
Y-028565D01*
X0946136D01*
Y-0285483D01*
X0945968D01*
Y-0285315D01*
X09458D01*
Y-0285147D01*
X0945632D01*
Y-028498D01*
X0945465D01*
Y-0284812D01*
X0945297D01*
Y-0284644D01*
X0945129D01*
Y-0284476D01*
X0944962D01*
Y-0284309D01*
X0944794D01*
Y-0284141D01*
X0944626D01*
Y-0283973D01*
X0944458D01*
Y-0283805D01*
X0944291D01*
Y-0283638D01*
X0944123D01*
Y-028347D01*
X0943955D01*
Y-0283302D01*
X0943788D01*
Y-0283135D01*
X094362D01*
Y-0282967D01*
X0943452D01*
Y-0282799D01*
X0943285D01*
Y-0282632D01*
X0943117D01*
Y-0282464D01*
D02*
G37*
G36*
X0918968Y-0279445D02*
X09188D01*
Y-0279613D01*
X0918968D01*
Y-0279781D01*
Y-0279948D01*
Y-0280116D01*
X09188D01*
Y-0280284D01*
X0918968D01*
Y-0280451D01*
Y-0280619D01*
Y-0280787D01*
X09188D01*
Y-0280955D01*
X0918968D01*
Y-0281122D01*
Y-028129D01*
Y-0281458D01*
X09188D01*
Y-0281625D01*
X0918968D01*
Y-0281793D01*
Y-0281961D01*
Y-0282129D01*
X09188D01*
Y-0282296D01*
X0918968D01*
Y-0282464D01*
Y-0282632D01*
Y-0282799D01*
X09188D01*
Y-0282967D01*
X0918968D01*
Y-0283135D01*
Y-0283302D01*
Y-028347D01*
X09188D01*
Y-0283638D01*
X0918968D01*
Y-0283805D01*
Y-0283973D01*
Y-0284141D01*
X09188D01*
Y-0284309D01*
X0918968D01*
Y-0284476D01*
Y-0284644D01*
Y-0284812D01*
X09188D01*
Y-028498D01*
X0918968D01*
Y-0285147D01*
Y-0285315D01*
Y-0285483D01*
X09188D01*
Y-028565D01*
X0918968D01*
Y-0285818D01*
Y-0285986D01*
Y-0286153D01*
X09188D01*
Y-0286321D01*
X0918968D01*
Y-0286489D01*
Y-0286656D01*
Y-0286824D01*
X09188D01*
Y-0286992D01*
X0918968D01*
Y-028716D01*
Y-0287327D01*
Y-0287495D01*
X09188D01*
Y-0287663D01*
X0918968D01*
Y-028783D01*
Y-0287998D01*
Y-0288166D01*
X09188D01*
Y-0288334D01*
X0918968D01*
Y-0288501D01*
Y-0288669D01*
Y-0288837D01*
X09188D01*
Y-0289004D01*
X0918968D01*
Y-0289172D01*
Y-028934D01*
Y-0289507D01*
X09188D01*
Y-0289675D01*
X0918968D01*
Y-0289843D01*
Y-029001D01*
Y-0290178D01*
X09188D01*
Y-0290346D01*
X0918968D01*
Y-0290514D01*
Y-0290681D01*
Y-0290849D01*
X09188D01*
Y-0291017D01*
X0918968D01*
Y-0291184D01*
Y-0291352D01*
Y-029152D01*
X09188D01*
Y-0291688D01*
X0918968D01*
Y-0291855D01*
Y-0292023D01*
Y-0292191D01*
X09188D01*
Y-0292358D01*
X0918968D01*
Y-0292526D01*
Y-0292694D01*
Y-0292862D01*
X09188D01*
Y-0293029D01*
X0918968D01*
Y-0293197D01*
Y-0293365D01*
Y-0293532D01*
X09188D01*
Y-02937D01*
X0919303D01*
Y-0293532D01*
Y-0293365D01*
X0919639D01*
Y-0293197D01*
X0919471D01*
Y-0293029D01*
X0919974D01*
Y-0292862D01*
X0920142D01*
Y-0292694D01*
X0920309D01*
Y-0292526D01*
X0920142D01*
Y-0292358D01*
X0920645D01*
Y-0292191D01*
X0920812D01*
Y-0292023D01*
X092098D01*
Y-0291855D01*
X0920812D01*
Y-0291688D01*
X0921315D01*
Y-029152D01*
X0921483D01*
Y-0291352D01*
X0921651D01*
Y-0291184D01*
X0921483D01*
Y-0291017D01*
X0921986D01*
Y-0290849D01*
X0922154D01*
Y-0290681D01*
X0922322D01*
Y-0290514D01*
X0922489D01*
Y-0290346D01*
X0922657D01*
Y-0290178D01*
X0922825D01*
Y-029001D01*
X0922993D01*
Y-0289843D01*
X092316D01*
Y-0289675D01*
X0923328D01*
Y-0289507D01*
X0923496D01*
Y-028934D01*
X0923663D01*
Y-0289172D01*
X0923831D01*
Y-0289004D01*
X0923999D01*
Y-0288837D01*
X0924166D01*
Y-0288669D01*
X0924334D01*
Y-0288501D01*
X0924502D01*
Y-0288334D01*
X092467D01*
Y-0288166D01*
X0924837D01*
Y-0287998D01*
X0925005D01*
Y-028783D01*
X0925173D01*
Y-0287663D01*
X092534D01*
Y-0287495D01*
X0925508D01*
Y-0287327D01*
X0925676D01*
Y-028716D01*
X0925844D01*
Y-0286992D01*
X0926011D01*
Y-0286824D01*
X0926179D01*
Y-0286656D01*
X0926011D01*
Y-0286489D01*
X0925844D01*
Y-0286321D01*
X0925676D01*
Y-0286153D01*
X0925508D01*
Y-0285986D01*
X092534D01*
Y-0285818D01*
X0925173D01*
Y-028565D01*
X0925005D01*
Y-0285483D01*
X0924837D01*
Y-0285315D01*
X092467D01*
Y-0285147D01*
X0924502D01*
Y-028498D01*
X0924334D01*
Y-0284812D01*
X0924166D01*
Y-0284644D01*
X0923999D01*
Y-0284476D01*
X0923831D01*
Y-0284309D01*
X0923663D01*
Y-0284141D01*
X0923496D01*
Y-0283973D01*
X0923328D01*
Y-0283805D01*
X092316D01*
Y-0283638D01*
X0922993D01*
Y-028347D01*
X0922825D01*
Y-0283302D01*
X0922657D01*
Y-0283135D01*
X0922489D01*
Y-0282967D01*
X0922322D01*
Y-0282799D01*
X0922154D01*
Y-0282632D01*
X0921986D01*
Y-0282464D01*
X0921819D01*
Y-0282296D01*
X0921651D01*
Y-0282129D01*
X0921483D01*
Y-0281961D01*
X0921315D01*
Y-0281793D01*
X0921148D01*
Y-0281625D01*
X092098D01*
Y-0281458D01*
X0920812D01*
Y-028129D01*
X0920645D01*
Y-0281122D01*
X0920477D01*
Y-0280955D01*
X0920309D01*
Y-0280787D01*
X0920142D01*
Y-0280619D01*
X0919974D01*
Y-0280451D01*
X0919806D01*
Y-0280284D01*
X0919639D01*
Y-0280116D01*
X0919471D01*
Y-0279948D01*
X0919303D01*
Y-0279781D01*
X0919135D01*
Y-0279613D01*
X0918968D01*
Y-0279445D01*
D02*
G37*
G36*
X0919639Y-0297557D02*
X0919471D01*
Y-0297725D01*
X0919639D01*
Y-0297557D01*
D02*
G37*
%LPD*%
D15*
X0873052Y-0332699D02*
Y-0334535D01*
X0873664Y-0335147D01*
X0874276Y-0334535D01*
X0874888Y-0335147D01*
X08755Y-0334535D01*
Y-0332699D01*
X0876723D02*
Y-0334535D01*
X0877335Y-0335147D01*
X0877947Y-0334535D01*
X0878559Y-0335147D01*
X0879171Y-0334535D01*
Y-0332699D01*
X0880395D02*
Y-0334535D01*
X0881007Y-0335147D01*
X0881619Y-0334535D01*
X0882231Y-0335147D01*
X0882843Y-0334535D01*
Y-0332699D01*
X0884067Y-0335147D02*
Y-0334535D01*
X0884679D01*
Y-0335147D01*
X0884067D01*
X0887126Y-0332699D02*
Y-0334535D01*
X0887738Y-0335147D01*
X0889574D01*
Y-0332699D01*
X0890798D02*
X0892022Y-0335147D01*
X0893246Y-0332699D01*
X089447Y-0335147D02*
Y-0332699D01*
X0895082D01*
X0895693Y-0333311D01*
Y-0335147D01*
Y-0333311D01*
X0896305Y-0332699D01*
X0896917Y-0333311D01*
Y-0335147D01*
X0898753Y-0332699D02*
X0899977D01*
X0900589Y-0333311D01*
Y-0335147D01*
X0898753D01*
X0898141Y-0334535D01*
X0898753Y-0333923D01*
X0900589D01*
X0903648Y-0335147D02*
X0902425D01*
X0901813Y-0334535D01*
Y-0333311D01*
X0902425Y-0332699D01*
X0903648D01*
X0904261Y-0333311D01*
Y-0333923D01*
X0901813D01*
X0905484Y-0332699D02*
Y-0335147D01*
Y-0333923D01*
X0906096Y-0333311D01*
X0906708Y-0332699D01*
X090732D01*
X0909768Y-0335147D02*
X0910992D01*
X0911604Y-0334535D01*
Y-0333311D01*
X0910992Y-0332699D01*
X0909768D01*
X0909156Y-0333311D01*
Y-0334535D01*
X0909768Y-0335147D01*
X0912827D02*
Y-0334535D01*
X0913439D01*
Y-0335147D01*
X0912827D01*
X0916499D02*
X0917723D01*
X0918335Y-0334535D01*
Y-0333311D01*
X0917723Y-0332699D01*
X0916499D01*
X0915887Y-0333311D01*
Y-0334535D01*
X0916499Y-0335147D01*
X0919559Y-0332699D02*
Y-0335147D01*
Y-0333923D01*
X0920171Y-0333311D01*
X0920783Y-0332699D01*
X0921395D01*
X0924454Y-033637D02*
X0925066D01*
X0925678Y-0335758D01*
Y-0332699D01*
X0923842D01*
X092323Y-0333311D01*
Y-0334535D01*
X0923842Y-0335147D01*
X0925678D01*
X0535543Y-02758D02*
X0539937D01*
X053774D01*
Y-0282392D01*
X0542135D02*
X0544332D01*
X0543234D01*
Y-0277997D01*
X0542135D01*
X0548727Y-0276899D02*
Y-0277997D01*
X0547628D01*
X0549826D01*
X0548727D01*
Y-0281293D01*
X0549826Y-0282392D01*
X0553122D02*
X0555319D01*
X0554221D01*
Y-02758D01*
X0553122D01*
X0561911Y-0282392D02*
X0559714D01*
X0558615Y-0281293D01*
Y-0279096D01*
X0559714Y-0277997D01*
X0561911D01*
X056301Y-0279096D01*
Y-0280195D01*
X0558615D01*
X0565208Y-0277997D02*
X0566306D01*
Y-0279096D01*
X0565208D01*
Y-0277997D01*
Y-0281293D02*
X0566306D01*
Y-0282392D01*
X0565208D01*
Y-0281293D01*
X0570515Y-0277107D02*
Y-0283449D01*
Y-0280278D01*
X0574743D01*
Y-0277107D01*
Y-0283449D01*
X0576857Y-0277107D02*
Y-0281335D01*
X0578971Y-0283449D01*
X0581085Y-0281335D01*
Y-0277107D01*
X0589541D02*
X0591655D01*
X0590598D01*
Y-0283449D01*
X0589541D01*
X0591655D01*
X0594826D02*
Y-0279221D01*
X0597996D01*
X0599053Y-0280278D01*
Y-0283449D01*
X0602224Y-0278164D02*
Y-0279221D01*
X0601167D01*
X0603281D01*
X0602224D01*
Y-0282392D01*
X0603281Y-0283449D01*
X0609623D02*
X0607509D01*
X0606452Y-0282392D01*
Y-0280278D01*
X0607509Y-0279221D01*
X0609623D01*
X061068Y-0280278D01*
Y-0281335D01*
X0606452D01*
X0612794Y-0279221D02*
Y-0283449D01*
Y-0281335D01*
X0613851Y-0280278D01*
X0614908Y-0279221D01*
X0615965D01*
X0620193Y-0283449D02*
Y-0278164D01*
Y-0280278D01*
X0619136D01*
X062125D01*
X0620193D01*
Y-0278164D01*
X062125Y-0277107D01*
X0625478Y-0279221D02*
X0627592D01*
X0628649Y-0280278D01*
Y-0283449D01*
X0625478D01*
X0624421Y-0282392D01*
X0625478Y-0281335D01*
X0628649D01*
X0634991Y-0279221D02*
X063182D01*
X0630763Y-0280278D01*
Y-0282392D01*
X063182Y-0283449D01*
X0634991D01*
X0640275D02*
X0638162D01*
X0637105Y-0282392D01*
Y-0280278D01*
X0638162Y-0279221D01*
X0640275D01*
X0641332Y-0280278D01*
Y-0281335D01*
X0637105D01*
X0643446Y-0283449D02*
Y-0282392D01*
X0644503D01*
Y-0283449D01*
X0643446D01*
X0648731D02*
Y-0277107D01*
X0651902D01*
X0652959Y-0278164D01*
Y-0280278D01*
X0651902Y-0281335D01*
X0648731D01*
X0659301Y-0279221D02*
X065613D01*
X0655073Y-0280278D01*
Y-0282392D01*
X065613Y-0283449D01*
X0659301D01*
X0661415Y-0277107D02*
Y-0283449D01*
X0664586D01*
X0665643Y-0282392D01*
Y-0281335D01*
Y-0280278D01*
X0664586Y-0279221D01*
X0661415D01*
X0667757Y-0277107D02*
Y-0283449D01*
X0670928D01*
X0671985Y-0282392D01*
Y-0278164D01*
X0670928Y-0277107D01*
X0667757D01*
X0675156Y-0283449D02*
X067727D01*
X0678327Y-0282392D01*
Y-0280278D01*
X067727Y-0279221D01*
X0675156D01*
X0674099Y-0280278D01*
Y-0282392D01*
X0675156Y-0283449D01*
X0684668Y-0279221D02*
X0681498D01*
X0680441Y-0280278D01*
Y-0282392D01*
X0681498Y-0283449D01*
X0684668D01*
X0977329Y0373284D02*
Y0376511D01*
X0978942Y0378124D01*
X0980556Y0376511D01*
Y0373284D01*
Y0375704D01*
X0977329D01*
X-0102639Y0373284D02*
Y0376511D01*
X-0101026Y0378124D01*
X-0099413Y0376511D01*
Y0373284D01*
Y0375704D01*
X-0102639D01*
X0977746Y0165603D02*
Y0160763D01*
X0980166D01*
X0980973Y016157D01*
Y0162376D01*
X0980166Y0163183D01*
X0977746D01*
X0980166D01*
X0980973Y016399D01*
Y0164796D01*
X0980166Y0165603D01*
X0977746D01*
X-0102138D02*
Y0160763D01*
X-0099718D01*
X-0098912Y016157D01*
Y0162376D01*
X-0099718Y0163183D01*
X-0102138D01*
X-0099718D01*
X-0098912Y016399D01*
Y0164796D01*
X-0099718Y0165603D01*
X-0102138D01*
X0980889Y-0047724D02*
X0980083Y-0046918D01*
X0978469D01*
X0977663Y-0047724D01*
Y-0050951D01*
X0978469Y-0051758D01*
X0980083D01*
X0980889Y-0050951D01*
X-0098995Y-0047724D02*
X-0099802Y-0046918D01*
X-0101415D01*
X-0102222Y-0047724D01*
Y-0050951D01*
X-0101415Y-0051758D01*
X-0099802D01*
X-0098995Y-0050951D01*
X0977412Y-0259439D02*
Y-0264279D01*
X0979832D01*
X0980639Y-0263472D01*
Y-0260245D01*
X0979832Y-0259439D01*
X0977412D01*
X-0102472D02*
Y-0264279D01*
X-0100052D01*
X-0099246Y-0263472D01*
Y-0260245D01*
X-0100052Y-0259439D01*
X-0102472D01*
X0851211Y0469528D02*
Y0474368D01*
X0848791Y0471948D01*
X0852018D01*
X0851211Y-0360522D02*
Y-0355682D01*
X0848791Y-0358102D01*
X0852018D01*
X0574271Y0473561D02*
X0575078Y0474368D01*
X0576691D01*
X0577497Y0473561D01*
Y0472754D01*
X0576691Y0471948D01*
X0575884D01*
X0576691D01*
X0577497Y0471141D01*
Y0470334D01*
X0576691Y0469528D01*
X0575078D01*
X0574271Y0470334D01*
Y-0356489D02*
X0575078Y-0355682D01*
X0576691D01*
X0577497Y-0356489D01*
Y-0357296D01*
X0576691Y-0358102D01*
X0575884D01*
X0576691D01*
X0577497Y-0358909D01*
Y-0359716D01*
X0576691Y-0360522D01*
X0575078D01*
X0574271Y-0359716D01*
X0302143Y0469528D02*
X0298916D01*
X0302143Y0472754D01*
Y0473561D01*
X0301336Y0474368D01*
X0299723D01*
X0298916Y0473561D01*
X0302143Y-0360522D02*
X0298916D01*
X0302143Y-0357296D01*
Y-0356489D01*
X0301336Y-0355682D01*
X0299723D01*
X0298916Y-0356489D01*
X0024647Y0469528D02*
X002626D01*
X0025453D01*
Y0474368D01*
X0024647Y0473561D01*
Y-0360522D02*
X002626D01*
X0025453D01*
Y-0355682D01*
X0024647Y-0356489D01*
D18*
X0560383Y-0289063D02*
Y-0292317D01*
Y-029069D01*
X0562552D01*
Y-0289063D01*
Y-0292317D01*
X0564179D02*
X0565264D01*
X0565806Y-0291775D01*
Y-029069D01*
X0565264Y-0290147D01*
X0564179D01*
X0563637Y-029069D01*
Y-0291775D01*
X0564179Y-0292317D01*
X0566891Y-0290147D02*
Y-0291775D01*
X0567434Y-0292317D01*
X0569061D01*
Y-0290147D01*
X0570146Y-0292317D02*
X0571773D01*
X0572315Y-0291775D01*
X0571773Y-0291232D01*
X0570688D01*
X0570146Y-029069D01*
X0570688Y-0290147D01*
X0572315D01*
X0575027Y-0292317D02*
X0573943D01*
X05734Y-0291775D01*
Y-029069D01*
X0573943Y-0290147D01*
X0575027D01*
X057557Y-029069D01*
Y-0291232D01*
X05734D01*
X0576654Y-0292317D02*
X0578282D01*
X0578824Y-0291775D01*
X0578282Y-0291232D01*
X0577197D01*
X0576654Y-029069D01*
X0577197Y-0290147D01*
X0578824D01*
X0583163Y-0289063D02*
Y-0291232D01*
X0584248Y-0292317D01*
X0585333Y-0291232D01*
Y-0289063D01*
X0586418Y-0292317D02*
X0587502D01*
X058696D01*
Y-0290147D01*
X0586418D01*
X0591299D02*
X0589672D01*
X058913Y-029069D01*
Y-0291775D01*
X0589672Y-0292317D01*
X0591299D01*
X0592926D02*
X0594011D01*
X0594554Y-0291775D01*
Y-029069D01*
X0594011Y-0290147D01*
X0592926D01*
X0592384Y-029069D01*
Y-0291775D01*
X0592926Y-0292317D01*
X0595638Y-0290147D02*
Y-0292317D01*
Y-0291232D01*
X0596181Y-029069D01*
X0596723Y-0290147D01*
X0597265D01*
X0602147Y-0289063D02*
Y-0292317D01*
X0603774D01*
X0604317Y-0291775D01*
Y-0289605D01*
X0603774Y-0289063D01*
X0602147D01*
X0607571Y-0289605D02*
X0607029Y-0289063D01*
X0605944D01*
X0605402Y-0289605D01*
Y-0291775D01*
X0605944Y-0292317D01*
X0607029D01*
X0607571Y-0291775D01*
X0608656Y-0292317D02*
X0610825Y-0290147D01*
X061191Y-0289063D02*
Y-0292317D01*
X0613537D01*
X061408Y-0291775D01*
Y-0289605D01*
X0613537Y-0289063D01*
X061191D01*
X0617334Y-0289605D02*
X0616792Y-0289063D01*
X0615707D01*
X0615165Y-0289605D01*
Y-0291775D01*
X0615707Y-0292317D01*
X0616792D01*
X0617334Y-0291775D01*
X0621673Y-0292317D02*
Y-0289063D01*
X0622758Y-0290147D01*
X0623843Y-0289063D01*
Y-0292317D01*
X062547D02*
X0626555D01*
X0627097Y-0291775D01*
Y-029069D01*
X0626555Y-0290147D01*
X062547D01*
X0624928Y-029069D01*
Y-0291775D01*
X062547Y-0292317D01*
X0630352Y-0289063D02*
Y-0292317D01*
X0628724D01*
X0628182Y-0291775D01*
Y-029069D01*
X0628724Y-0290147D01*
X0630352D01*
X0631436D02*
Y-0291775D01*
X0631979Y-0292317D01*
X0633606D01*
Y-0290147D01*
X0634691Y-0292317D02*
X0635776D01*
X0635233D01*
Y-0289063D01*
X0634691D01*
X063903Y-0292317D02*
X0637945D01*
X0637403Y-0291775D01*
Y-029069D01*
X0637945Y-0290147D01*
X063903D01*
X0639572Y-029069D01*
Y-0291232D01*
X0637403D01*
X06412Y-029286D02*
X0641742Y-0292317D01*
Y-0291775D01*
X06412D01*
Y-0292317D01*
X0641742D01*
X06412Y-029286D01*
X0640657Y-0293402D01*
X0649336Y-0290147D02*
X0647708D01*
X0647166Y-029069D01*
Y-0291775D01*
X0647708Y-0292317D01*
X0649336D01*
X0650963D02*
X0652048D01*
X065259Y-0291775D01*
Y-029069D01*
X0652048Y-0290147D01*
X0650963D01*
X065042Y-029069D01*
Y-0291775D01*
X0650963Y-0292317D01*
X0653675D02*
Y-0290147D01*
X0655302D01*
X0655844Y-029069D01*
Y-0292317D01*
X0657472Y-0289605D02*
Y-0290147D01*
X0656929D01*
X0658014D01*
X0657472D01*
Y-0291775D01*
X0658014Y-0292317D01*
X0659641Y-0290147D02*
Y-0292317D01*
Y-0291232D01*
X0660183Y-029069D01*
X0660726Y-0290147D01*
X0661268D01*
X0663438Y-0292317D02*
X0664523D01*
X0665065Y-0291775D01*
Y-029069D01*
X0664523Y-0290147D01*
X0663438D01*
X0662895Y-029069D01*
Y-0291775D01*
X0663438Y-0292317D01*
X066615D02*
X0667235D01*
X0666692D01*
Y-0289063D01*
X066615D01*
X0668862Y-0292317D02*
X0670489D01*
X0671032Y-0291775D01*
X0670489Y-0291232D01*
X0669404D01*
X0668862Y-029069D01*
X0669404Y-0290147D01*
X0671032D01*
X0675913Y-0292317D02*
Y-0289605D01*
Y-029069D01*
X0675371D01*
X0676455D01*
X0675913D01*
Y-0289605D01*
X0676455Y-0289063D01*
X0678625Y-0290147D02*
X067971D01*
X0680252Y-029069D01*
Y-0292317D01*
X0678625D01*
X0678083Y-0291775D01*
X0678625Y-0291232D01*
X0680252D01*
X0681337Y-0292317D02*
Y-0290147D01*
X0682964D01*
X0683507Y-029069D01*
Y-0292317D01*
X0684591D02*
X0686219D01*
X0686761Y-0291775D01*
X0686219Y-0291232D01*
X0685134D01*
X0684591Y-029069D01*
X0685134Y-0290147D01*
X0686761D01*
X06911Y-0292317D02*
X0692185D01*
X0691643D01*
Y-0290147D01*
X06911D01*
X0693812Y-0292317D02*
Y-0290147D01*
X0695439D01*
X0695982Y-029069D01*
Y-0292317D01*
X0560925Y-0302168D02*
X056201D01*
X0562552Y-030271D01*
Y-0304337D01*
X0560925D01*
X0560383Y-0303795D01*
X0560925Y-0303252D01*
X0562552D01*
X0563637Y-0304337D02*
Y-0302168D01*
X0565264D01*
X0565806Y-030271D01*
Y-0304337D01*
X0569061Y-0301083D02*
Y-0304337D01*
X0567434D01*
X0566891Y-0303795D01*
Y-030271D01*
X0567434Y-0302168D01*
X0569061D01*
X05734Y-0304337D02*
X0574485D01*
X0573943D01*
Y-0301083D01*
X05734D01*
X0576654Y-0304337D02*
X0577739D01*
X0578282Y-0303795D01*
Y-030271D01*
X0577739Y-0302168D01*
X0576654D01*
X0576112Y-030271D01*
Y-0303795D01*
X0576654Y-0304337D01*
X0580451Y-0305422D02*
X0580994D01*
X0581536Y-0304879D01*
Y-0302168D01*
X0579909D01*
X0579366Y-030271D01*
Y-0303795D01*
X0579909Y-0304337D01*
X0581536D01*
X0582621D02*
X0584248D01*
X058479Y-0303795D01*
X0584248Y-0303252D01*
X0583163D01*
X0582621Y-030271D01*
X0583163Y-0302168D01*
X058479D01*
X0589672Y-0301625D02*
Y-0302168D01*
X058913D01*
X0590214D01*
X0589672D01*
Y-0303795D01*
X0590214Y-0304337D01*
X0591842Y-0301083D02*
Y-0304337D01*
Y-030271D01*
X0592384Y-0302168D01*
X0593469D01*
X0594011Y-030271D01*
Y-0304337D01*
X0596723D02*
X0595638D01*
X0595096Y-0303795D01*
Y-030271D01*
X0595638Y-0302168D01*
X0596723D01*
X0597265Y-030271D01*
Y-0303252D01*
X0595096D01*
X0602147Y-0304337D02*
X0603232D01*
X0603774Y-0303795D01*
Y-030271D01*
X0603232Y-0302168D01*
X0602147D01*
X0601605Y-030271D01*
Y-0303795D01*
X0602147Y-0304337D01*
X0604859Y-0302168D02*
Y-0303795D01*
X0605402Y-0304337D01*
X0607029D01*
Y-0302168D01*
X0608656Y-0301625D02*
Y-0302168D01*
X0608113D01*
X0609198D01*
X0608656D01*
Y-0303795D01*
X0609198Y-0304337D01*
X0610825Y-0305422D02*
Y-0302168D01*
X0612453D01*
X0612995Y-030271D01*
Y-0303795D01*
X0612453Y-0304337D01*
X0610825D01*
X061408Y-0302168D02*
Y-0303795D01*
X0614622Y-0304337D01*
X0616249D01*
Y-0302168D01*
X0617877Y-0301625D02*
Y-0302168D01*
X0617334D01*
X0618419D01*
X0617877D01*
Y-0303795D01*
X0618419Y-0304337D01*
X0620046D02*
X0621673D01*
X0622216Y-0303795D01*
X0621673Y-0303252D01*
X0620589D01*
X0620046Y-030271D01*
X0620589Y-0302168D01*
X0622216D01*
X0627097Y-0301625D02*
Y-0302168D01*
X0626555D01*
X062764D01*
X0627097D01*
Y-0303795D01*
X062764Y-0304337D01*
X0629809D02*
X0630894D01*
X0631436Y-0303795D01*
Y-030271D01*
X0630894Y-0302168D01*
X0629809D01*
X0629267Y-030271D01*
Y-0303795D01*
X0629809Y-0304337D01*
X0637945Y-0301625D02*
X0637403Y-0301083D01*
X0636318D01*
X0635776Y-0301625D01*
Y-0303795D01*
X0636318Y-0304337D01*
X0637403D01*
X0637945Y-0303795D01*
X063903Y-0304337D02*
Y-0302168D01*
X0640115Y-0301083D01*
X06412Y-0302168D01*
Y-0304337D01*
Y-030271D01*
X063903D01*
X0642284Y-0304337D02*
Y-0301083D01*
X0644454Y-0304337D01*
Y-0301083D01*
X0560383Y-0295073D02*
Y-0298327D01*
Y-02967D01*
X0562552D01*
Y-0295073D01*
Y-0298327D01*
X0563637Y-0295073D02*
Y-0297242D01*
X0564722Y-0298327D01*
X0565806Y-0297242D01*
Y-0295073D01*
X0570146D02*
Y-0298327D01*
X0571773D01*
X0572315Y-0297785D01*
Y-0297242D01*
Y-02967D01*
X0571773Y-0296158D01*
X0570146D01*
X0573943Y-0298327D02*
X0575027D01*
X057557Y-0297785D01*
Y-02967D01*
X0575027Y-0296158D01*
X0573943D01*
X05734Y-02967D01*
Y-0297785D01*
X0573943Y-0298327D01*
X0576654Y-0296158D02*
X0578824Y-0298327D01*
X0577739Y-0297242D01*
X0578824Y-0296158D01*
X0576654Y-0298327D01*
X0580451Y-0298869D02*
X0580994Y-0298327D01*
Y-0297785D01*
X0580451D01*
Y-0298327D01*
X0580994D01*
X0580451Y-0298869D01*
X0579909Y-0299412D01*
X058696Y-0296158D02*
X0588045D01*
X0588587Y-02967D01*
Y-0298327D01*
X058696D01*
X0586418Y-0297785D01*
X058696Y-0297242D01*
X0588587D01*
X0589672Y-0298327D02*
Y-0296158D01*
X0591299D01*
X0591842Y-02967D01*
Y-0298327D01*
X0595096Y-0295073D02*
Y-0298327D01*
X0593469D01*
X0592926Y-0297785D01*
Y-02967D01*
X0593469Y-0296158D01*
X0595096D01*
X0599435Y-0298327D02*
X060052D01*
X0599977D01*
Y-0295073D01*
X0599435D01*
X060269Y-0298327D02*
X0603774D01*
X0604317Y-0297785D01*
Y-02967D01*
X0603774Y-0296158D01*
X060269D01*
X0602147Y-02967D01*
Y-0297785D01*
X060269Y-0298327D01*
X0606486Y-0299412D02*
X0607029D01*
X0607571Y-0298869D01*
Y-0296158D01*
X0605944D01*
X0605402Y-02967D01*
Y-0297785D01*
X0605944Y-0298327D01*
X0607571D01*
X0608656D02*
X0610283D01*
X0610825Y-0297785D01*
X0610283Y-0297242D01*
X0609198D01*
X0608656Y-02967D01*
X0609198Y-0296158D01*
X0610825D01*
X0615707Y-0295615D02*
Y-0296158D01*
X0615165D01*
X0616249D01*
X0615707D01*
Y-0297785D01*
X0616249Y-0298327D01*
X0619504D02*
X0618419D01*
X0617877Y-0297785D01*
Y-02967D01*
X0618419Y-0296158D01*
X0619504D01*
X0620046Y-02967D01*
Y-0297242D01*
X0617877D01*
X0621131Y-0298327D02*
Y-0296158D01*
X0621673D01*
X0622216Y-02967D01*
Y-0298327D01*
Y-02967D01*
X0622758Y-0296158D01*
X0623301Y-02967D01*
Y-0298327D01*
X0624385Y-0299412D02*
Y-0296158D01*
X0626013D01*
X0626555Y-02967D01*
Y-0297785D01*
X0626013Y-0298327D01*
X0624385D01*
X0629267D02*
X0628182D01*
X062764Y-0297785D01*
Y-02967D01*
X0628182Y-0296158D01*
X0629267D01*
X0629809Y-02967D01*
Y-0297242D01*
X062764D01*
X0630894Y-0296158D02*
Y-0298327D01*
Y-0297242D01*
X0631436Y-02967D01*
X0631979Y-0296158D01*
X0632521D01*
X0634691D02*
X0635776D01*
X0636318Y-02967D01*
Y-0298327D01*
X0634691D01*
X0634149Y-0297785D01*
X0634691Y-0297242D01*
X0636318D01*
X0637945Y-0295615D02*
Y-0296158D01*
X0637403D01*
X0638488D01*
X0637945D01*
Y-0297785D01*
X0638488Y-0298327D01*
X0640115Y-0296158D02*
Y-0297785D01*
X0640657Y-0298327D01*
X0642284D01*
Y-0296158D01*
X0643369D02*
Y-0298327D01*
Y-0297242D01*
X0643912Y-02967D01*
X0644454Y-0296158D01*
X0644996D01*
X0648251Y-0298327D02*
X0647166D01*
X0646624Y-0297785D01*
Y-02967D01*
X0647166Y-0296158D01*
X0648251D01*
X0648793Y-02967D01*
Y-0297242D01*
X0646624D01*
X0649878Y-0298327D02*
X0651505D01*
X0652048Y-0297785D01*
X0651505Y-0297242D01*
X065042D01*
X0649878Y-02967D01*
X065042Y-0296158D01*
X0652048D01*
X0653132Y-0298327D02*
Y-0297785D01*
X0653675D01*
Y-0298327D01*
X0653132D01*
X0659099Y-0295073D02*
X0661268D01*
X0660183D01*
Y-0298327D01*
X0662895Y-0296158D02*
X066398D01*
X0664523Y-02967D01*
Y-0298327D01*
X0662895D01*
X0662353Y-0297785D01*
X0662895Y-0297242D01*
X0664523D01*
X0665608Y-0298327D02*
Y-0295073D01*
Y-0297242D02*
X0667235Y-0296158D01*
X0665608Y-0297242D02*
X0667235Y-0298327D01*
X0670489D02*
X0669404D01*
X0668862Y-0297785D01*
Y-02967D01*
X0669404Y-0296158D01*
X0670489D01*
X0671032Y-02967D01*
Y-0297242D01*
X0668862D01*
X0672116Y-0298327D02*
X0673743D01*
X0674286Y-0297785D01*
X0673743Y-0297242D01*
X0672659D01*
X0672116Y-02967D01*
X0672659Y-0296158D01*
X0674286D01*
X0678625Y-0295073D02*
Y-0298327D01*
X0680252D01*
X0680795Y-0297785D01*
Y-0297242D01*
X0680252Y-02967D01*
X0678625D01*
X0680252D01*
X0680795Y-0296158D01*
Y-0295615D01*
X0680252Y-0295073D01*
X0678625D01*
X0684049Y-0295615D02*
X0683507Y-0295073D01*
X0682422D01*
X0681879Y-0295615D01*
Y-0296158D01*
X0682422Y-02967D01*
X0683507D01*
X0684049Y-0297242D01*
Y-0297785D01*
X0683507Y-0298327D01*
X0682422D01*
X0681879Y-0297785D01*
X0685134Y-0298327D02*
Y-0295073D01*
X0686761D01*
X0687303Y-0295615D01*
Y-02967D01*
X0686761Y-0297242D01*
X0685134D01*
X0688388Y-0295073D02*
Y-0298327D01*
X0690015D01*
X0690558Y-0297785D01*
Y-0295615D01*
X0690015Y-0295073D01*
X0688388D01*
X0695439Y-0298327D02*
X0696524D01*
X0697066Y-0297785D01*
Y-02967D01*
X0696524Y-0296158D01*
X0695439D01*
X0694897Y-02967D01*
Y-0297785D01*
X0695439Y-0298327D01*
X0698151Y-0296158D02*
Y-0297785D01*
X0698694Y-0298327D01*
X0700321D01*
Y-0296158D01*
X0701948Y-0295615D02*
Y-0296158D01*
X0701406D01*
X0702491D01*
X0701948D01*
Y-0297785D01*
X0702491Y-0298327D01*
X0704118Y-0299412D02*
Y-0296158D01*
X0705745D01*
X0706287Y-02967D01*
Y-0297785D01*
X0705745Y-0298327D01*
X0704118D01*
X0707372Y-0296158D02*
Y-0297785D01*
X0707914Y-0298327D01*
X0709542D01*
Y-0296158D01*
X0711169Y-0295615D02*
Y-0296158D01*
X0710626D01*
X0711711D01*
X0711169D01*
Y-0297785D01*
X0711711Y-0298327D01*
X0713338D02*
X0714966D01*
X0715508Y-0297785D01*
X0714966Y-0297242D01*
X0713881D01*
X0713338Y-02967D01*
X0713881Y-0296158D01*
X0715508D01*
X0535343Y-0297034D02*
Y-0301206D01*
X0537429D01*
X0538124Y-0300511D01*
Y-0297729D01*
X0537429Y-0297034D01*
X0535343D01*
X0541601Y-0301206D02*
X054021D01*
X0539515Y-0300511D01*
Y-029912D01*
X054021Y-0298425D01*
X0541601D01*
X0542297Y-029912D01*
Y-0299816D01*
X0539515D01*
X0543687Y-0301206D02*
X0545773D01*
X0546469Y-0300511D01*
X0545773Y-0299816D01*
X0544383D01*
X0543687Y-029912D01*
X0544383Y-0298425D01*
X0546469D01*
X0550641D02*
X0548555D01*
X0547859Y-029912D01*
Y-0300511D01*
X0548555Y-0301206D01*
X0550641D01*
X0552032Y-0298425D02*
X0552727D01*
Y-029912D01*
X0552032D01*
Y-0298425D01*
Y-0300511D02*
X0552727D01*
Y-0301206D01*
X0552032D01*
Y-0300511D01*
X0726007Y-0315871D02*
Y-0317262D01*
X0725312Y-0317957D01*
X0728093Y-0320739D02*
Y-0320043D01*
X0728789D01*
Y-0320739D01*
X0728093D01*
X073157D02*
Y-0316567D01*
X0733656D01*
X0734351Y-0317262D01*
Y-0318653D01*
X0733656Y-0319348D01*
X073157D01*
X0735742Y-0317957D02*
Y-0320739D01*
Y-0319348D01*
X0736438Y-0318653D01*
X0737133Y-0317957D01*
X0737828D01*
X074061Y-0320739D02*
X0742001D01*
X0742696Y-0320043D01*
Y-0318653D01*
X0742001Y-0317957D01*
X074061D01*
X0739915Y-0318653D01*
Y-0320043D01*
X074061Y-0320739D01*
X0744087Y-032213D02*
X0744782D01*
X0745478Y-0321434D01*
Y-0317957D01*
X0748259Y-0320739D02*
Y-0316567D01*
X0751041Y-0320739D01*
Y-0316567D01*
X0753127Y-0317957D02*
X0754518D01*
X0755213Y-0318653D01*
Y-0320739D01*
X0753127D01*
X0752431Y-0320043D01*
X0753127Y-0319348D01*
X0755213D01*
X0756604Y-0320739D02*
Y-0317957D01*
X0757299D01*
X0757994Y-0318653D01*
Y-0320739D01*
Y-0318653D01*
X075869Y-0317957D01*
X0759385Y-0318653D01*
Y-0320739D01*
X0762862D02*
X0761471D01*
X0760776Y-0320043D01*
Y-0318653D01*
X0761471Y-0317957D01*
X0762862D01*
X0763557Y-0318653D01*
Y-0319348D01*
X0760776D01*
X0765644Y-0315871D02*
Y-0317262D01*
X0764948Y-0317957D01*
X0705363Y-0320739D02*
Y-0316567D01*
X0707449D01*
X0708145Y-0317262D01*
Y-0318653D01*
X0707449Y-0319348D01*
X0705363D01*
X0709536Y-0317957D02*
Y-0320739D01*
Y-0319348D01*
X0710231Y-0318653D01*
X0710926Y-0317957D01*
X0711622D01*
X0714403Y-0320739D02*
X0715794D01*
X0716489Y-0320043D01*
Y-0318653D01*
X0715794Y-0317957D01*
X0714403D01*
X0713708Y-0318653D01*
Y-0320043D01*
X0714403Y-0320739D01*
X071788Y-032213D02*
X0718575D01*
X0719271Y-0321434D01*
Y-0317957D01*
X0722052D02*
X0722748D01*
Y-0318653D01*
X0722052D01*
Y-0317957D01*
Y-0320043D02*
X0722748D01*
Y-0320739D01*
X0722052D01*
Y-0320043D01*
X0595355Y-0320739D02*
Y-0317957D01*
X0596746Y-0316567D01*
X0598136Y-0317957D01*
Y-0320739D01*
Y-0318653D01*
X0595355D01*
X0599527Y-0317957D02*
Y-0320043D01*
X0600222Y-0320739D01*
X0602309D01*
Y-0317957D01*
X0604395Y-0317262D02*
Y-0317957D01*
X0603699D01*
X060509D01*
X0604395D01*
Y-0320043D01*
X060509Y-0320739D01*
X0607176Y-0316567D02*
Y-0320739D01*
Y-0318653D01*
X0607872Y-0317957D01*
X0609262D01*
X0609958Y-0318653D01*
Y-0320739D01*
X0611348Y-0317957D02*
X0612044D01*
Y-0318653D01*
X0611348D01*
Y-0317957D01*
Y-0320043D02*
X0612044D01*
Y-0320739D01*
X0611348D01*
Y-0320043D01*
X0555375Y-0316567D02*
Y-0320739D01*
X0558156D01*
X0561633D02*
X0560242D01*
X0559547Y-0320043D01*
Y-0318653D01*
X0560242Y-0317957D01*
X0561633D01*
X0562328Y-0318653D01*
Y-0319348D01*
X0559547D01*
X0564415Y-0317262D02*
Y-0317957D01*
X0563719D01*
X056511D01*
X0564415D01*
Y-0320043D01*
X056511Y-0320739D01*
X0567891Y-0317262D02*
Y-0317957D01*
X0567196D01*
X0568587D01*
X0567891D01*
Y-0320043D01*
X0568587Y-0320739D01*
X0572759D02*
X0571368D01*
X0570673Y-0320043D01*
Y-0318653D01*
X0571368Y-0317957D01*
X0572759D01*
X0573454Y-0318653D01*
Y-0319348D01*
X0570673D01*
X0574845Y-0317957D02*
Y-0320739D01*
Y-0319348D01*
X057554Y-0318653D01*
X0576236Y-0317957D01*
X0576931D01*
X0707811Y-0332899D02*
X0707199Y-0332287D01*
X0705975D01*
X0705363Y-0332899D01*
Y-0333511D01*
X0705975Y-0334123D01*
X0707199D01*
X0707811Y-0334735D01*
Y-0335347D01*
X0707199Y-0335959D01*
X0705975D01*
X0705363Y-0335347D01*
X0711482Y-0332899D02*
X0710871Y-0332287D01*
X0709647D01*
X0709035Y-0332899D01*
Y-0335347D01*
X0709647Y-0335959D01*
X0710871D01*
X0711482Y-0335347D01*
X0712706Y-0335959D02*
Y-0333511D01*
X071393Y-0332287D01*
X0715154Y-0333511D01*
Y-0335959D01*
Y-0334123D01*
X0712706D01*
X0716378Y-0332287D02*
Y-0335959D01*
X0718826D01*
X0722497Y-0332287D02*
X072005D01*
Y-0335959D01*
X0722497D01*
X072005Y-0334123D02*
X0721274D01*
X0723721Y-0333511D02*
X0724333D01*
Y-0334123D01*
X0723721D01*
Y-0333511D01*
Y-0335347D02*
X0724333D01*
Y-0335959D01*
X0723721D01*
Y-0335347D01*
X0730452Y-0335959D02*
X0731676D01*
X0731064D01*
Y-0332287D01*
X0730452Y-0332899D01*
X0733512Y-0335959D02*
Y-0335347D01*
X0734124D01*
Y-0335959D01*
X0733512D01*
X0736572Y-0332899D02*
X0737184Y-0332287D01*
X0738408D01*
X0739019Y-0332899D01*
Y-0335347D01*
X0738408Y-0335959D01*
X0737184D01*
X0736572Y-0335347D01*
Y-0332899D01*
X0740243D02*
X0740855Y-0332287D01*
X0742079D01*
X0742691Y-0332899D01*
Y-0335347D01*
X0742079Y-0335959D01*
X0740855D01*
X0740243Y-0335347D01*
Y-0332899D01*
X053779Y-0341692D02*
X0535343D01*
Y-0343528D01*
X0536567D01*
X0535343D01*
Y-0345363D01*
X0539014D02*
X0540238D01*
X0539626D01*
Y-0342916D01*
X0539014D01*
X0542074Y-0345363D02*
X0543298D01*
X0542686D01*
Y-0341692D01*
X0542074D01*
X0546969Y-0345363D02*
X0545746D01*
X0545134Y-0344751D01*
Y-0343528D01*
X0545746Y-0342916D01*
X0546969D01*
X0547581Y-0343528D01*
Y-0344139D01*
X0545134D01*
X0548805Y-0342916D02*
X0549417D01*
Y-0343528D01*
X0548805D01*
Y-0342916D01*
Y-0344751D02*
X0549417D01*
Y-0345363D01*
X0548805D01*
Y-0344751D01*
X0535343Y-0331675D02*
Y-0335347D01*
X0537179D01*
X053779Y-0334735D01*
Y-0332287D01*
X0537179Y-0331675D01*
X0535343D01*
X0539626Y-0332899D02*
X054085D01*
X0541462Y-0333511D01*
Y-0335347D01*
X0539626D01*
X0539014Y-0334735D01*
X0539626Y-0334123D01*
X0541462D01*
X0543298Y-0332287D02*
Y-0332899D01*
X0542686D01*
X054391D01*
X0543298D01*
Y-0334735D01*
X054391Y-0335347D01*
X0547581D02*
X0546357D01*
X0545746Y-0334735D01*
Y-0333511D01*
X0546357Y-0332899D01*
X0547581D01*
X0548193Y-0333511D01*
Y-0334123D01*
X0545746D01*
X0549417Y-0332899D02*
X0550029D01*
Y-0333511D01*
X0549417D01*
Y-0332899D01*
Y-0334735D02*
X0550029D01*
Y-0335347D01*
X0549417D01*
Y-0334735D01*
X0538124Y-0317763D02*
X0537429Y-0317068D01*
X0536038D01*
X0535343Y-0317763D01*
Y-0318458D01*
X0536038Y-0319154D01*
X0537429D01*
X0538124Y-0319849D01*
Y-0320544D01*
X0537429Y-032124D01*
X0536038D01*
X0535343Y-0320544D01*
X0539515Y-032124D02*
X0540906D01*
X054021D01*
Y-0318458D01*
X0539515D01*
X0542992D02*
X0545773D01*
X0542992Y-032124D01*
X0545773D01*
X054925D02*
X0547859D01*
X0547164Y-0320544D01*
Y-0319154D01*
X0547859Y-0318458D01*
X054925D01*
X0549946Y-0319154D01*
Y-0319849D01*
X0547164D01*
X0551336Y-0318458D02*
X0552032D01*
Y-0319154D01*
X0551336D01*
Y-0318458D01*
Y-0320544D02*
X0552032D01*
Y-032124D01*
X0551336D01*
Y-0320544D01*
X056283Y-0341692D02*
X0562218Y-034108D01*
X0560994D01*
X0560383Y-0341692D01*
Y-0344139D01*
X0560994Y-0344751D01*
X0562218D01*
X056283Y-0344139D01*
X0564054Y-0342304D02*
X0564666D01*
Y-0342916D01*
X0564054D01*
Y-0342304D01*
Y-0344139D02*
X0564666D01*
Y-0344751D01*
X0564054D01*
Y-0344139D01*
X0569562Y-0344751D02*
X0567114Y-0342304D01*
X0572009Y-0345975D02*
X0572621D01*
X0573233Y-0345363D01*
Y-0342304D01*
X0571397D01*
X0570785Y-0342916D01*
Y-0344139D01*
X0571397Y-0344751D01*
X0573233D01*
X0574457D02*
X0575681D01*
X0575069D01*
Y-0342304D01*
X0574457D01*
X0578129Y-0341692D02*
Y-0342304D01*
X0577517D01*
X0578741D01*
X0578129D01*
Y-0344139D01*
X0578741Y-0344751D01*
X0583024D02*
X0580576Y-0342304D01*
X0584248Y-0344751D02*
Y-0342304D01*
X0585472Y-034108D01*
X0586696Y-0342304D01*
Y-0344751D01*
Y-0342916D01*
X0584248D01*
X0590367Y-034108D02*
X058792D01*
Y-0344751D01*
X0590367D01*
X058792Y-0342916D02*
X0589143D01*
X0591591Y-0344751D02*
Y-034108D01*
X0593427D01*
X0594039Y-0341692D01*
Y-0342916D01*
X0593427Y-0343528D01*
X0591591D01*
X0592815D02*
X0594039Y-0344751D01*
X0597099Y-034108D02*
X0595875D01*
X0595263Y-0341692D01*
Y-0344139D01*
X0595875Y-0344751D01*
X0597099D01*
X0597711Y-0344139D01*
Y-0341692D01*
X0597099Y-034108D01*
X0598934Y-0345363D02*
X0601382D01*
X0605054Y-0344751D02*
X0602606D01*
X0605054Y-0342304D01*
Y-0341692D01*
X0604442Y-034108D01*
X0603218D01*
X0602606Y-0341692D01*
X0606278D02*
X0606889Y-034108D01*
X0608113D01*
X0608725Y-0341692D01*
Y-0344139D01*
X0608113Y-0344751D01*
X0606889D01*
X0606278Y-0344139D01*
Y-0341692D01*
X0609949Y-0344751D02*
X0611173D01*
X0610561D01*
Y-034108D01*
X0609949Y-0341692D01*
X0613009Y-0344139D02*
X0613621Y-0344751D01*
X0614845D01*
X0615457Y-0344139D01*
Y-0341692D01*
X0614845Y-034108D01*
X0613621D01*
X0613009Y-0341692D01*
Y-0342304D01*
X0613621Y-0342916D01*
X0615457D01*
X061668D02*
X0619128D01*
X06228Y-0344751D02*
X0620352D01*
X06228Y-0342304D01*
Y-0341692D01*
X0622188Y-034108D01*
X0620964D01*
X0620352Y-0341692D01*
X0624024D02*
X0624636Y-034108D01*
X0625859D01*
X0626471Y-0341692D01*
Y-0344139D01*
X0625859Y-0344751D01*
X0624636D01*
X0624024Y-0344139D01*
Y-0341692D01*
X0630143Y-0344751D02*
X0627695D01*
X0630143Y-0342304D01*
Y-0341692D01*
X0629531Y-034108D01*
X0628307D01*
X0627695Y-0341692D01*
X0631367D02*
X0631979Y-034108D01*
X0633203D01*
X0633815Y-0341692D01*
Y-0344139D01*
X0633203Y-0344751D01*
X0631979D01*
X0631367Y-0344139D01*
Y-0341692D01*
X0637486Y-0344751D02*
X0635038Y-0342304D01*
X063871Y-034108D02*
Y-0344751D01*
Y-0342916D01*
X0641158D01*
Y-034108D01*
Y-0344751D01*
X0642382Y-034108D02*
Y-0343528D01*
X0643606Y-0344751D01*
X0644829Y-0343528D01*
Y-034108D01*
X0649725D02*
X0650949D01*
X0650337D01*
Y-0344751D01*
X0649725D01*
X0650949D01*
X0652784D02*
Y-0342304D01*
X065462D01*
X0655232Y-0342916D01*
Y-0344751D01*
X0657068Y-0341692D02*
Y-0342304D01*
X0656456D01*
X065768D01*
X0657068D01*
Y-0344139D01*
X065768Y-0344751D01*
X0661352D02*
X0660128D01*
X0659516Y-0344139D01*
Y-0342916D01*
X0660128Y-0342304D01*
X0661352D01*
X0661964Y-0342916D01*
Y-0343528D01*
X0659516D01*
X0663187Y-0342304D02*
Y-0344751D01*
Y-0343528D01*
X0663799Y-0342916D01*
X0664411Y-0342304D01*
X0665023D01*
X0667471Y-0344751D02*
Y-0341692D01*
Y-0342916D01*
X0666859D01*
X0668083D01*
X0667471D01*
Y-0341692D01*
X0668083Y-034108D01*
X0670531Y-0342304D02*
X0671754D01*
X0672366Y-0342916D01*
Y-0344751D01*
X0670531D01*
X0669919Y-0344139D01*
X0670531Y-0343528D01*
X0672366D01*
X0676038Y-0342304D02*
X0674202D01*
X067359Y-0342916D01*
Y-0344139D01*
X0674202Y-0344751D01*
X0676038D01*
X0679098D02*
X0677874D01*
X0677262Y-0344139D01*
Y-0342916D01*
X0677874Y-0342304D01*
X0679098D01*
X067971Y-0342916D01*
Y-0343528D01*
X0677262D01*
X0683381Y-0344751D02*
X0680933Y-0342304D01*
X0684605Y-034108D02*
Y-0344751D01*
Y-0342916D01*
X0687053D01*
Y-034108D01*
Y-0344751D01*
X0688277Y-034108D02*
Y-0343528D01*
X0689501Y-0344751D01*
X0690724Y-0343528D01*
Y-034108D01*
X069562D02*
X0696844D01*
X0696232D01*
Y-0344751D01*
X069562D01*
X0696844D01*
X0698679D02*
Y-0342304D01*
X0700515D01*
X0701127Y-0342916D01*
Y-0344751D01*
X0702963Y-0341692D02*
Y-0342304D01*
X0702351D01*
X0703575D01*
X0702963D01*
Y-0344139D01*
X0703575Y-0344751D01*
X0707247D02*
X0706023D01*
X0705411Y-0344139D01*
Y-0342916D01*
X0706023Y-0342304D01*
X0707247D01*
X0707859Y-0342916D01*
Y-0343528D01*
X0705411D01*
X0709082Y-0342304D02*
Y-0344751D01*
Y-0343528D01*
X0709694Y-0342916D01*
X0710306Y-0342304D01*
X0710918D01*
X0713366Y-0344751D02*
Y-0341692D01*
Y-0342916D01*
X0712754D01*
X0713978D01*
X0713366D01*
Y-0341692D01*
X0713978Y-034108D01*
X0716426Y-0342304D02*
X0717649D01*
X0718261Y-0342916D01*
Y-0344751D01*
X0716426D01*
X0715814Y-0344139D01*
X0716426Y-0343528D01*
X0718261D01*
X0721933Y-0342304D02*
X0720097D01*
X0719485Y-0342916D01*
Y-0344139D01*
X0720097Y-0344751D01*
X0721933D01*
X0724993D02*
X0723769D01*
X0723157Y-0344139D01*
Y-0342916D01*
X0723769Y-0342304D01*
X0724993D01*
X0725605Y-0342916D01*
Y-0343528D01*
X0723157D01*
X0726828Y-0344751D02*
Y-0344139D01*
X072744D01*
Y-0344751D01*
X0726828D01*
X0729888D02*
Y-034108D01*
X0731724D01*
X0732336Y-0341692D01*
Y-0342916D01*
X0731724Y-0343528D01*
X0729888D01*
X0736007Y-0342304D02*
X0734172D01*
X073356Y-0342916D01*
Y-0344139D01*
X0734172Y-0344751D01*
X0736007D01*
X0737231Y-034108D02*
Y-0344751D01*
X0739067D01*
X0739679Y-0344139D01*
Y-0343528D01*
Y-0342916D01*
X0739067Y-0342304D01*
X0737231D01*
X0740903Y-034108D02*
Y-0344751D01*
X0742739D01*
X0743351Y-0344139D01*
Y-0341692D01*
X0742739Y-034108D01*
X0740903D01*
X0745186Y-0344751D02*
X074641D01*
X0747022Y-0344139D01*
Y-0342916D01*
X074641Y-0342304D01*
X0745186D01*
X0744574Y-0342916D01*
Y-0344139D01*
X0745186Y-0344751D01*
X0750694Y-0342304D02*
X0748858D01*
X0748246Y-0342916D01*
Y-0344139D01*
X0748858Y-0344751D01*
X0750694D01*
X0656369Y-0331675D02*
X0658816D01*
Y-0332287D01*
X0656369Y-0334735D01*
Y-0335347D01*
X066004Y-0332899D02*
X0660652D01*
Y-0333511D01*
X066004D01*
Y-0332899D01*
Y-0334735D02*
X0660652D01*
Y-0335347D01*
X066004D01*
Y-0334735D01*
X06631Y-0335347D02*
X0664324D01*
X0663712D01*
Y-0331675D01*
X06631Y-0332287D01*
X0668607Y-0331675D02*
X0666159D01*
Y-0333511D01*
X0667383Y-0332899D01*
X0667995D01*
X0668607Y-0333511D01*
Y-0334735D01*
X0667995Y-0335347D01*
X0666772D01*
X0666159Y-0334735D01*
X0669831Y-0332899D02*
X0670443D01*
Y-0333511D01*
X0669831D01*
Y-0332899D01*
Y-0334735D02*
X0670443D01*
Y-0335347D01*
X0669831D01*
Y-0334735D01*
X0675339Y-0331675D02*
X0672891D01*
Y-0333511D01*
X0674115Y-0332899D01*
X0674727D01*
X0675339Y-0333511D01*
Y-0334735D01*
X0674727Y-0335347D01*
X0673503D01*
X0672891Y-0334735D01*
X067901Y-0331675D02*
X0677786Y-0332287D01*
X0676562Y-0333511D01*
Y-0334735D01*
X0677174Y-0335347D01*
X0678398D01*
X067901Y-0334735D01*
Y-0334123D01*
X0678398Y-0333511D01*
X0676562D01*
X0683906Y-0335347D02*
Y-0331675D01*
X0685741D01*
X0686353Y-0332287D01*
Y-0333511D01*
X0685741Y-0334123D01*
X0683906D01*
X0687577Y-0335347D02*
Y-0331675D01*
X0688801Y-0332899D01*
X0690025Y-0331675D01*
Y-0335347D01*
X0560383Y-0332287D02*
X0560994Y-0331675D01*
X0562218D01*
X056283Y-0332287D01*
Y-0332899D01*
X0562218Y-0333511D01*
X0561606D01*
X0562218D01*
X056283Y-0334123D01*
Y-0334735D01*
X0562218Y-0335347D01*
X0560994D01*
X0560383Y-0334735D01*
X0564054Y-0335347D02*
X0566502Y-0332899D01*
X0567726Y-0335347D02*
X056895D01*
X0568338D01*
Y-0331675D01*
X0567726Y-0332287D01*
X0573233Y-0331675D02*
X0572009Y-0332287D01*
X0570785Y-0333511D01*
Y-0334735D01*
X0571397Y-0335347D01*
X0572621D01*
X0573233Y-0334735D01*
Y-0334123D01*
X0572621Y-0333511D01*
X0570785D01*
X0574457Y-0335347D02*
X0576905Y-0332899D01*
X0580576Y-0335347D02*
X0578129D01*
X0580576Y-0332899D01*
Y-0332287D01*
X0579964Y-0331675D01*
X0578741D01*
X0578129Y-0332287D01*
X05818D02*
X0582412Y-0331675D01*
X0583636D01*
X0584248Y-0332287D01*
Y-0334735D01*
X0583636Y-0335347D01*
X0582412D01*
X05818Y-0334735D01*
Y-0332287D01*
X058792Y-0335347D02*
X0585472D01*
X058792Y-0332899D01*
Y-0332287D01*
X0587308Y-0331675D01*
X0586084D01*
X0585472Y-0332287D01*
X0589143D02*
X0589755Y-0331675D01*
X0590979D01*
X0591591Y-0332287D01*
Y-0334735D01*
X0590979Y-0335347D01*
X0589755D01*
X0589143Y-0334735D01*
Y-0332287D01*
X0621007Y-0315871D02*
Y-0317262D01*
X0620311Y-0317957D01*
X0623093Y-0320739D02*
Y-0320043D01*
X0623788D01*
Y-0320739D01*
X0623093D01*
X062657D02*
Y-0316567D01*
X0628656D01*
X0629351Y-0317262D01*
Y-0318653D01*
X0628656Y-0319348D01*
X062657D01*
X0630742Y-0317957D02*
Y-0320739D01*
Y-0319348D01*
X0631437Y-0318653D01*
X0632133Y-0317957D01*
X0632828D01*
X0635609Y-0320739D02*
X0637D01*
X0637696Y-0320043D01*
Y-0318653D01*
X0637Y-0317957D01*
X0635609D01*
X0634914Y-0318653D01*
Y-0320043D01*
X0635609Y-0320739D01*
X0639086Y-032213D02*
X0639782D01*
X0640477Y-0321434D01*
Y-0317957D01*
X0643259Y-0320739D02*
Y-0317957D01*
X064465Y-0316567D01*
X064604Y-0317957D01*
Y-0320739D01*
Y-0318653D01*
X0643259D01*
X0647431Y-0317957D02*
Y-0320043D01*
X0648126Y-0320739D01*
X0650212D01*
Y-0317957D01*
X0652299Y-0317262D02*
Y-0317957D01*
X0651603D01*
X0652994D01*
X0652299D01*
Y-0320043D01*
X0652994Y-0320739D01*
X065508Y-0316567D02*
Y-0320739D01*
Y-0318653D01*
X0655775Y-0317957D01*
X0657166D01*
X0657862Y-0318653D01*
Y-0320739D01*
X0659948Y-0315871D02*
Y-0317262D01*
X0659252Y-0317957D01*
D190*
X0530618Y-0337233D02*
X0970568D01*
X0770583Y-02672D02*
X0970568D01*
X0530618Y-0327217D02*
X0970568D01*
X0700597Y-0337233D02*
Y-0307225D01*
X0590589Y-0327217D02*
Y-0307225D01*
X0530618D02*
X082058D01*
Y-0337233D02*
Y-02672D01*
X0530618Y-0347208D02*
Y-02672D01*
X0970568D01*
Y04828D02*
X0990558D01*
X-0109358D02*
X-0089358D01*
X0970568Y0270279D02*
X0990558D01*
X-0109358Y02703D02*
X-0089358D01*
X0970568Y00578D02*
X0990558D01*
X-0109358D02*
X-0089347D01*
X0970568Y-0154721D02*
X0990558D01*
X-0109358Y-01547D02*
X-0089347D01*
X0990558Y0462767D02*
Y04828D01*
Y-03672D02*
Y-0347208D01*
X0715579Y0462767D02*
Y04828D01*
Y-03672D02*
Y-0347208D01*
X04406Y0462787D02*
Y04828D01*
Y-03672D02*
Y-0347208D01*
X0165621Y0462798D02*
Y04828D01*
Y-03672D02*
Y-0347208D01*
X-0089326D02*
Y0462767D01*
Y-0347208D02*
X0970568D01*
Y0462767D01*
X-0089326D02*
X0970568D01*
X-0089326D02*
X0970568D01*
Y-0347208D02*
Y0462767D01*
X-0089326Y-0347208D02*
X0970568D01*
X-0089326D02*
Y0462767D01*
X-0109358Y-03672D02*
Y04828D01*
Y-03672D02*
X0990558D01*
Y04828D01*
X-0109358D02*
X0990558D01*
X-0109358D02*
X0990558D01*
Y-03672D02*
Y04828D01*
X-0109358Y-03672D02*
X0990558D01*
X-0109358D02*
Y04828D01*
M02*
