G04*
G04 #@! TF.GenerationSoftware,Altium Limited,Altium Designer,20.0.13 (296)*
G04*
G04 Layer_Color=32896*
%FSTAX25Y25*%
%MOIN*%
G70*
G01*
G75*
%ADD10C,0.03000*%
%ADD11C,0.02000*%
%ADD12C,0.00787*%
%ADD13C,0.00984*%
%ADD14C,0.02362*%
%ADD15C,0.01000*%
%ADD16C,0.00600*%
%ADD17C,0.00500*%
G36*
X0407027Y0342689D02*
X0407434Y0342504D01*
X040773Y0342282D01*
X0408027Y034206D01*
X0408212Y0341875D01*
X040836Y0341689D01*
X0408434Y0341578D01*
X0408471Y0341541D01*
X044987Y0269925D01*
X0450056Y0269407D01*
X045013Y0268925D01*
Y0268481D01*
X0450093Y0268074D01*
X0450019Y026774D01*
X0449944Y0267518D01*
X0449907Y026737D01*
X044987Y0267296D01*
X0449537Y0266852D01*
X0449204Y0266556D01*
X0448797Y0266333D01*
X0448463Y0266148D01*
X044813Y0266074D01*
X0447871Y0266037D01*
X0447686Y0266D01*
X0364813Y0266D01*
X0364331Y0266074D01*
X0363924Y0266222D01*
X0363516Y0266407D01*
X036322Y0266667D01*
X0362961Y0266889D01*
X0362776Y0267111D01*
X0362665Y0267259D01*
X0362628Y0267296D01*
X0362406Y0267777D01*
X0362332Y0268222D01*
X0362295Y0268666D01*
X0362332Y0269074D01*
X0362443Y0269407D01*
X0362517Y0269703D01*
X0362591Y0269851D01*
X0362628Y0269925D01*
X0403953Y0341541D01*
X0404138Y0341837D01*
X0404361Y034206D01*
X0404583Y0342245D01*
X0404805Y034243D01*
X0405249Y0342652D01*
X0405657Y03428D01*
X0406027Y0342874D01*
X0406582D01*
X0407027Y0342689D01*
D02*
G37*
G36*
X0275231Y0103009D02*
X0275411Y0102995D01*
X0275587Y0102976D01*
X0275758Y0102948D01*
X0275929Y0102916D01*
X0276095Y0102879D01*
X0276252Y0102833D01*
X0276409Y0102782D01*
X0276562Y0102727D01*
X027671Y0102671D01*
X0276853Y0102611D01*
X0276991Y0102547D01*
X0277125Y0102482D01*
X027725Y0102413D01*
X027737Y0102343D01*
X027749Y0102274D01*
X0277601Y0102205D01*
X0277703Y0102135D01*
X02778Y0102071D01*
X0277892Y0102001D01*
X027798Y0101937D01*
X0278059Y0101877D01*
X0278133Y0101821D01*
X0278197Y0101766D01*
X0278257Y0101715D01*
X0278308Y0101673D01*
X027835Y0101632D01*
X0278387Y01016D01*
X0278414Y0101572D01*
X0278433Y0101553D01*
X0278447Y0101539D01*
X0278451Y0101535D01*
X0278576Y0101396D01*
X0278696Y0101253D01*
X0278807Y0101105D01*
X0278913Y0100957D01*
X027901Y0100805D01*
X0279098Y0100657D01*
X0279181Y0100505D01*
X027926Y0100352D01*
X0279329Y01002D01*
X0279394Y0100047D01*
X0279454Y0099899D01*
X0279505Y0099752D01*
X0279556Y0099608D01*
X0279597Y0099465D01*
X0279671Y0099192D01*
X0279703Y0099059D01*
X0279731Y0098934D01*
X0279754Y0098814D01*
X0279773Y0098698D01*
X0279791Y0098587D01*
X0279805Y0098486D01*
X0279814Y0098393D01*
X0279823Y0098305D01*
X0279833Y0098227D01*
X0279837Y0098158D01*
X0279842Y0098097D01*
Y0098047D01*
X0279847Y009801D01*
Y0097954D01*
X0279842Y009776D01*
X0279833Y0097566D01*
X0279814Y0097377D01*
X0279786Y0097197D01*
X0279754Y0097016D01*
X0279717Y0096841D01*
X0279676Y009667D01*
X0279629Y0096504D01*
X0279579Y0096342D01*
X0279523Y0096189D01*
X0279468Y0096037D01*
X0279403Y0095894D01*
X0279343Y0095755D01*
X0279278Y0095621D01*
X0279214Y0095492D01*
X0279149Y0095372D01*
X0279084Y0095256D01*
X027902Y009515D01*
X0278955Y0095044D01*
X0278895Y0094951D01*
X0278835Y0094859D01*
X0278775Y009478D01*
X0278719Y0094706D01*
X0278668Y0094637D01*
X0278622Y0094577D01*
X0278581Y0094522D01*
X0278544Y009448D01*
X0278511Y0094443D01*
X0278484Y0094411D01*
X0278465Y0094392D01*
X0278456Y0094378D01*
X0278451Y0094374D01*
X0278317Y009424D01*
X0278179Y0094115D01*
X0278035Y0093995D01*
X0277892Y0093884D01*
X0277749Y0093782D01*
X0277606Y009369D01*
X0277458Y0093602D01*
X0277315Y0093519D01*
X0277172Y0093445D01*
X0277028Y0093376D01*
X0276885Y0093311D01*
X0276747Y0093256D01*
X0276608Y0093205D01*
X0276474Y0093159D01*
X027634Y0093117D01*
X0276211Y009308D01*
X0276086Y0093048D01*
X027597Y009302D01*
X0275855Y0092992D01*
X0275744Y0092974D01*
X0275642Y0092955D01*
X027555Y0092942D01*
X0275458Y0092928D01*
X0275379Y0092918D01*
X0275305Y0092909D01*
X0275236Y0092905D01*
X027518Y00929D01*
X0275134D01*
X0275097Y0092895D01*
X0275069D01*
X0275051D01*
X0275046D01*
X0274862Y00929D01*
X0274681Y0092914D01*
X0274501Y0092932D01*
X0274326Y009296D01*
X0274155Y0092992D01*
X0273988Y0093034D01*
X0273827Y0093076D01*
X027367Y0093126D01*
X0273517Y0093182D01*
X0273369Y0093237D01*
X0273226Y0093297D01*
X0273088Y0093362D01*
X0272958Y0093431D01*
X0272829Y0093496D01*
X0272709Y0093565D01*
X0272593Y0093635D01*
X0272482Y0093704D01*
X0272376Y0093773D01*
X0272279Y0093843D01*
X0272187Y0093907D01*
X0272099Y0093972D01*
X027202Y0094032D01*
X0271951Y0094087D01*
X0271886Y0094143D01*
X0271826Y0094194D01*
X0271775Y009424D01*
X0271734Y0094277D01*
X0271697Y0094309D01*
X0271669Y0094337D01*
X0271651Y0094355D01*
X0271637Y0094369D01*
X0271632Y0094374D01*
X0271508Y0094512D01*
X0271387Y0094656D01*
X0271276Y0094803D01*
X027117Y0094951D01*
X0271073Y0095099D01*
X0270985Y0095252D01*
X0270902Y0095399D01*
X0270824Y0095552D01*
X0270754Y0095704D01*
X0270685Y0095857D01*
X027063Y0096005D01*
X0270574Y0096153D01*
X0270523Y0096296D01*
X0270482Y0096439D01*
X0270408Y0096716D01*
X0270376Y0096846D01*
X0270348Y0096975D01*
X0270325Y0097095D01*
X0270306Y0097211D01*
X0270288Y0097317D01*
X0270274Y0097418D01*
X0270265Y0097515D01*
X0270255Y0097603D01*
X0270246Y0097682D01*
X0270242Y0097751D01*
X0270237Y0097811D01*
Y0097862D01*
X0270232Y0097899D01*
Y0097954D01*
X0270237Y0098148D01*
X0270246Y0098342D01*
X0270269Y0098527D01*
X0270292Y0098712D01*
X0270325Y0098892D01*
X0270362Y0099068D01*
X0270403Y0099234D01*
X0270449Y00994D01*
X02705Y0099562D01*
X0270556Y0099714D01*
X0270616Y0099867D01*
X0270676Y010001D01*
X0270736Y0100149D01*
X0270801Y0100283D01*
X0270865Y0100412D01*
X0270935Y0100532D01*
X0270999Y0100648D01*
X0271064Y0100759D01*
X0271129Y010086D01*
X0271189Y0100957D01*
X0271249Y0101045D01*
X0271309Y0101128D01*
X0271364Y0101202D01*
X0271415Y0101271D01*
X0271461Y0101331D01*
X0271503Y0101387D01*
X027154Y0101428D01*
X0271572Y0101465D01*
X02716Y0101498D01*
X0271618Y0101516D01*
X0271628Y010153D01*
X0271632Y0101535D01*
X0271766Y0101669D01*
X0271905Y0101794D01*
X0272043Y0101914D01*
X0272187Y0102024D01*
X027233Y0102126D01*
X0272473Y0102218D01*
X0272621Y0102306D01*
X0272764Y010239D01*
X0272907Y0102463D01*
X027305Y0102533D01*
X0273194Y0102597D01*
X0273337Y0102653D01*
X0273476Y0102704D01*
X027361Y010275D01*
X0273744Y0102791D01*
X0273873Y0102828D01*
X0273998Y0102861D01*
X0274118Y0102888D01*
X0274229Y0102916D01*
X027434Y0102935D01*
X0274446Y0102953D01*
X0274538Y0102967D01*
X0274631Y0102981D01*
X0274714Y010299D01*
X0274788Y0102999D01*
X0274852Y0103004D01*
X0274912Y0103009D01*
X0274959D01*
X0274996Y0103013D01*
X0275023D01*
X0275042D01*
X0275046D01*
X0275231Y0103009D01*
D02*
G37*
G36*
X0044199Y0332811D02*
X0044458Y0332774D01*
X0044717Y03327D01*
X0044921Y0332645D01*
X0045106Y0332571D01*
X0045235Y0332497D01*
X004531Y033246D01*
X0045347Y0332441D01*
X0045439Y0332386D01*
X0045513Y0332349D01*
X004555Y0332312D01*
X0045735Y0332164D01*
X0045902Y0332015D01*
X004605Y0331849D01*
X004618Y0331701D01*
X0046272Y0331571D01*
X0046346Y033146D01*
X0046383Y0331386D01*
X0046402Y0331368D01*
X0057563Y0312025D01*
X0057582D01*
X00576Y0312006D01*
Y0311988D01*
Y0311969D01*
X0057674Y0311821D01*
X0057748Y0311692D01*
X0057767Y0311617D01*
X0057785Y031158D01*
X0057804Y0311543D01*
X0057822Y0311488D01*
X0057859Y0311358D01*
X0057878Y0311247D01*
X0057896Y031121D01*
Y0311192D01*
X0057952Y0310803D01*
X0057933Y0310433D01*
X0057896Y0310081D01*
X0057804Y0309785D01*
X005773Y0309544D01*
X0057637Y0309359D01*
X0057619Y0309285D01*
X0057582Y030923D01*
X0057563Y0309211D01*
Y0309193D01*
Y0309174D01*
X0057489Y0309045D01*
X0057415Y0308934D01*
X0057341Y0308859D01*
X0057323Y0308822D01*
X005723Y0308712D01*
X0057138Y0308619D01*
X0057063Y0308545D01*
X0057026Y0308526D01*
X005686Y0308378D01*
X0056693Y0308267D01*
X005636Y0308064D01*
X0056027Y0307934D01*
X0055731Y0307841D01*
X0055453Y0307786D01*
X0055231Y0307767D01*
X0055157Y0307749D01*
X0032686D01*
X0032501Y0307767D01*
X0032353Y0307786D01*
X0032279Y0307804D01*
X003226D01*
X0032149Y0307823D01*
X0032001Y030786D01*
X003189Y0307878D01*
X0031871Y0307897D01*
X0031853D01*
X0031483Y0308045D01*
X0031168Y0308249D01*
X003089Y0308452D01*
X0030668Y0308674D01*
X0030483Y0308878D01*
X0030372Y0309045D01*
X0030279Y0309156D01*
X0030261Y0309174D01*
Y0309193D01*
X0030242D01*
X003015Y0309359D01*
X0030094Y0309489D01*
X0030076Y0309563D01*
X0030057Y0309581D01*
X0030002Y0309748D01*
X0029965Y0309878D01*
X0029946Y0309952D01*
Y0309989D01*
X0029909Y0310192D01*
X0029891Y0310396D01*
Y0310785D01*
X0029946Y0311136D01*
X003002Y0311451D01*
X0030113Y031171D01*
X0030187Y0311914D01*
X0030224Y0311988D01*
X0030261Y0312043D01*
X0030279Y0312062D01*
Y031208D01*
X0041441Y0331423D01*
X0041533Y0331553D01*
X0041608Y0331664D01*
X0041663Y0331738D01*
X0041682Y0331775D01*
X0041774Y0331868D01*
X0041867Y033196D01*
X0041941Y0332034D01*
X0041959Y0332071D01*
X0041978D01*
X0042292Y033233D01*
X0042626Y0332515D01*
X004294Y0332645D01*
X0043237Y0332737D01*
X0043514Y0332793D01*
X0043718Y0332811D01*
X0043792Y033283D01*
X0043903D01*
X0044199Y0332811D01*
D02*
G37*
G36*
X0044884Y0303751D02*
X004444D01*
Y0306546D01*
X004257Y0303751D01*
X0042089D01*
Y0307286D01*
X0042533D01*
Y030451D01*
X0044403Y0307286D01*
X0044884D01*
Y0303751D01*
D02*
G37*
G36*
X0033056D02*
X0032612D01*
Y0306546D01*
X0030742Y0303751D01*
X0030261D01*
Y0307286D01*
X0030705D01*
Y030451D01*
X0032575Y0307286D01*
X0033056D01*
Y0303751D01*
D02*
G37*
G36*
X0057563D02*
X0057063D01*
X0056675Y0304824D01*
X0055194D01*
X0054787Y0303751D01*
X005425D01*
X0055694Y0307286D01*
X0056212D01*
X0057563Y0303751D01*
D02*
G37*
G36*
X0054509Y0306879D02*
X0053343D01*
Y0303751D01*
X0052862D01*
Y0306879D01*
X0051696D01*
Y0307286D01*
X0054509D01*
Y0306879D01*
D02*
G37*
G36*
X0051473D02*
X0050307D01*
Y0303751D01*
X0049845D01*
Y0306879D01*
X004866D01*
Y0307286D01*
X0051473D01*
Y0306879D01*
D02*
G37*
G36*
X0048179Y0303751D02*
X0045532D01*
Y0304158D01*
X0047697D01*
Y030538D01*
X0045754D01*
Y0305787D01*
X0047697D01*
Y0306879D01*
X0045606D01*
Y0307286D01*
X0048179D01*
Y0303751D01*
D02*
G37*
G36*
X0041571Y0306879D02*
X0040404D01*
Y0303751D01*
X0039923D01*
Y0306879D01*
X0038757D01*
Y0307286D01*
X0041571D01*
Y0306879D01*
D02*
G37*
G36*
X0038202Y0303751D02*
X0037721D01*
Y0307286D01*
X0038202D01*
Y0303751D01*
D02*
G37*
G36*
X003561Y0307342D02*
X0035851Y0307286D01*
X0036055Y0307194D01*
X003624Y030712D01*
X0036388Y0307027D01*
X003648Y0306934D01*
X0036554Y0306879D01*
X0036573Y030686D01*
X0036721Y0306657D01*
X0036832Y0306435D01*
X0036925Y0306194D01*
X003698Y0305972D01*
X0037017Y0305787D01*
X0037036Y030562D01*
Y0305509D01*
Y0305491D01*
Y0305472D01*
X0036999Y0305139D01*
X003698Y0304972D01*
X0036943Y0304843D01*
X0036906Y0304732D01*
X0036887Y0304658D01*
X0036851Y0304602D01*
Y0304584D01*
X0036758Y0304436D01*
X0036665Y0304306D01*
X0036573Y0304195D01*
X0036462Y0304102D01*
X0036388Y0304028D01*
X0036314Y0303973D01*
X0036258Y0303954D01*
X003624Y0303936D01*
X0036092Y0303862D01*
X0035943Y0303806D01*
X0035647Y0303732D01*
X0035536Y0303714D01*
X0035444Y0303695D01*
X0035351D01*
X0035185Y0303714D01*
X0035018Y0303732D01*
X003487Y0303769D01*
X003474Y0303806D01*
X0034629Y0303843D01*
X0034555Y030388D01*
X00345Y0303917D01*
X0034481D01*
X0034352Y030401D01*
X0034222Y0304102D01*
X0034037Y0304306D01*
X0033963Y0304399D01*
X0033907Y0304473D01*
X0033889Y0304528D01*
X003387Y0304547D01*
X0033796Y0304713D01*
X0033741Y030488D01*
X0033704Y0305047D01*
X0033667Y0305194D01*
Y0305324D01*
X0033648Y0305417D01*
Y0305491D01*
Y0305509D01*
Y0305713D01*
X0033685Y0305879D01*
X0033704Y0306046D01*
X0033741Y0306194D01*
X0033778Y0306305D01*
X0033815Y0306398D01*
X0033833Y0306453D01*
X0033852Y0306472D01*
X0034037Y0306749D01*
X0034148Y030686D01*
X0034241Y0306953D01*
X0034333Y0307027D01*
X0034389Y0307083D01*
X0034444Y0307101D01*
X0034463Y030712D01*
X0034611Y0307194D01*
X0034759Y0307268D01*
X0035037Y0307323D01*
X0035166Y0307342D01*
X0035259Y030736D01*
X0035351D01*
X003561Y0307342D01*
D02*
G37*
G36*
X0052325Y0301437D02*
X0052103D01*
Y0302252D01*
X0051177D01*
Y0301437D01*
X0050937D01*
Y0303177D01*
X0051177D01*
Y0302455D01*
X0052103D01*
Y0303177D01*
X0052325D01*
Y0301437D01*
D02*
G37*
G36*
X004481Y0302159D02*
X0044791Y0301974D01*
X0044773Y0301826D01*
X0044754Y0301752D01*
X0044736Y0301715D01*
X004468Y0301622D01*
X0044606Y0301548D01*
X0044532Y0301511D01*
X0044514Y0301493D01*
X0044384Y0301437D01*
X0044254Y0301418D01*
X0044144Y03014D01*
X0044106D01*
X004394Y0301418D01*
X004381Y0301455D01*
X0043718Y0301493D01*
X0043699Y0301511D01*
X0043588Y0301585D01*
X0043533Y0301659D01*
X0043496Y0301715D01*
X0043477Y0301733D01*
X004344Y0301863D01*
X0043422Y0302011D01*
Y0302122D01*
Y030214D01*
Y0302159D01*
Y0303177D01*
X0043644D01*
Y0302159D01*
Y0302048D01*
X0043662Y0301955D01*
X0043699Y0301807D01*
X0043736Y0301715D01*
X0043755Y0301696D01*
X0043866Y0301659D01*
X0043977Y0301641D01*
X0044088Y0301622D01*
X0044236D01*
X004431Y0301641D01*
X0044384D01*
X0044458Y0301696D01*
X0044495Y0301752D01*
X0044532Y0301807D01*
Y0301826D01*
X0044551Y0301918D01*
X0044569Y0302029D01*
Y0302122D01*
Y030214D01*
Y0302159D01*
Y0303177D01*
X004481D01*
Y0302159D01*
D02*
G37*
G36*
X0037591Y0303196D02*
X0037739Y0303158D01*
X0037832Y0303121D01*
X003785Y0303103D01*
X0037869D01*
X0037998Y030301D01*
X0038091Y0302899D01*
X0038146Y0302825D01*
X0038165Y0302807D01*
Y0302788D01*
X003822Y030264D01*
X0038257Y0302474D01*
X0038276Y0302362D01*
Y0302326D01*
Y0302307D01*
X0038257Y0302122D01*
X003822Y0301974D01*
X0038202Y0301863D01*
X0038183Y0301844D01*
Y0301826D01*
X0038109Y0301696D01*
X0038017Y0301604D01*
X0037943Y0301548D01*
X0037906Y030153D01*
X0037758Y0301455D01*
X0037609Y0301418D01*
X0037535Y03014D01*
X0037424D01*
X0037239Y0301418D01*
X0037091Y0301493D01*
X0036999Y0301548D01*
X0036962Y0301567D01*
X0036906Y0301604D01*
X0036851Y0301678D01*
X0036777Y0301807D01*
X0036721Y0301918D01*
X0036702Y0301955D01*
Y0301974D01*
X0036943Y0302029D01*
X003698Y0301881D01*
X0037054Y0301789D01*
X003711Y0301715D01*
X0037128Y0301696D01*
X0037239Y0301641D01*
X003735Y0301622D01*
X0037424Y0301604D01*
X0037461D01*
X0037572Y0301622D01*
X0037665Y0301641D01*
X0037739Y0301659D01*
X0037758D01*
X003785Y0301733D01*
X0037906Y0301826D01*
X0037943Y0301881D01*
X0037961Y0301918D01*
X0037998Y0302048D01*
X0038017Y0302177D01*
X0038035Y030227D01*
Y0302289D01*
Y0302307D01*
X0038017Y0302437D01*
X0037998Y0302548D01*
X003798Y0302622D01*
X0037961Y030264D01*
X0037906Y0302751D01*
X003785Y0302844D01*
X0037795Y0302899D01*
X0037776Y0302918D01*
X0037665Y0302973D01*
X0037554Y0302992D01*
X0037461Y030301D01*
X0037424D01*
X0037313Y0302992D01*
X0037221Y0302973D01*
X0037165Y0302936D01*
X0037147Y0302918D01*
X0037073Y0302844D01*
X0037017Y0302751D01*
X003698Y0302677D01*
X0036962Y030264D01*
X003674Y0302696D01*
X0036814Y0302862D01*
X0036887Y0302973D01*
X0036943Y0303047D01*
X003698Y0303066D01*
X0037128Y0303158D01*
X0037276Y0303196D01*
X0037387Y0303214D01*
X0037424D01*
X0037591Y0303196D01*
D02*
G37*
G36*
X0048752Y0302973D02*
X004816D01*
Y0301437D01*
X0047938D01*
Y0302973D01*
X0047346D01*
Y0303177D01*
X0048752D01*
Y0302973D01*
D02*
G37*
G36*
X0043014Y0301437D02*
X0042774D01*
Y0302196D01*
X0042404D01*
X0042385Y0302177D01*
X0042292Y0302159D01*
X0042274Y030214D01*
X0042237Y0302103D01*
X00422Y0302066D01*
X0042163Y0302048D01*
X0042144Y0302029D01*
X0042107Y0301974D01*
X0042052Y0301881D01*
X0041996Y0301807D01*
X0041978Y0301789D01*
Y030177D01*
X0041756Y0301437D01*
X004146D01*
X0041756Y03019D01*
X0041848Y0301992D01*
X0041904Y0302066D01*
X0041941Y0302103D01*
X0041959Y0302122D01*
X0041996Y0302159D01*
X0042033Y0302177D01*
X004207Y0302214D01*
X0042089D01*
X0041922Y0302252D01*
X0041811Y0302307D01*
X0041737Y0302362D01*
X0041719Y0302381D01*
X0041645Y0302492D01*
X0041608Y0302585D01*
X0041589Y0302659D01*
Y0302696D01*
X0041608Y0302788D01*
X0041626Y0302881D01*
X0041645Y0302955D01*
X0041663Y0302973D01*
X0041737Y0303047D01*
X0041793Y0303103D01*
X0041848Y0303121D01*
X0041867Y030314D01*
X0041978Y0303158D01*
X0042107Y0303177D01*
X0043014D01*
Y0301437D01*
D02*
G37*
G36*
X0041219D02*
X0040997D01*
Y0302214D01*
X0040164D01*
Y0302418D01*
X0040997D01*
Y0302973D01*
X0040034D01*
Y0303177D01*
X0041219D01*
Y0301437D01*
D02*
G37*
G36*
X0040053D02*
X0039794D01*
X0039608Y0301937D01*
X0038868D01*
X0038664Y0301437D01*
X0038387D01*
X0039127Y0303177D01*
X0039368D01*
X0040053Y0301437D01*
D02*
G37*
G36*
X0036406D02*
X0035074D01*
Y0301622D01*
X0036166D01*
Y0302214D01*
X0035185D01*
Y0302437D01*
X0036166D01*
Y0302973D01*
X0035129D01*
Y0303177D01*
X0036406D01*
Y0301437D01*
D02*
G37*
G36*
X00499Y0303196D02*
X005003Y0303177D01*
X0050215Y0303103D01*
X0050289Y0303047D01*
X0050344Y030301D01*
X0050363Y0302992D01*
X0050381Y0302973D01*
X0050455Y0302862D01*
X0050511Y0302751D01*
X0050585Y0302511D01*
X0050603Y0302418D01*
X0050622Y0302344D01*
Y0302289D01*
Y030227D01*
X0050603Y0302103D01*
X0050566Y0301955D01*
X0050529Y0301863D01*
X0050511Y0301844D01*
Y0301826D01*
X0050418Y0301696D01*
X0050326Y0301604D01*
X0050252Y0301548D01*
X0050215Y030153D01*
X0050067Y0301455D01*
X0049919Y0301418D01*
X0049808Y03014D01*
X0049771D01*
X0049604Y0301418D01*
X0049474Y0301455D01*
X0049382Y0301493D01*
X0049345Y0301511D01*
X0049215Y0301604D01*
X0049104Y0301696D01*
X0049049Y030177D01*
X004903Y0301807D01*
X0048956Y0301974D01*
X0048937Y0302122D01*
X0048919Y0302252D01*
Y030227D01*
Y0302289D01*
X0048937Y0302474D01*
X0048956Y0302622D01*
X0048993Y0302733D01*
X0049012Y0302751D01*
Y030277D01*
X0049104Y0302918D01*
X0049215Y030301D01*
X0049289Y0303066D01*
X0049308Y0303084D01*
X0049326D01*
X0049474Y0303158D01*
X0049622Y0303196D01*
X0049733Y0303214D01*
X0049771D01*
X00499Y0303196D01*
D02*
G37*
G36*
X0046087D02*
X0046161Y0303177D01*
X004618Y0303158D01*
X0046272Y0303103D01*
X0046346Y0303047D01*
X0046383Y0302992D01*
X0046402Y0302973D01*
X0046439Y0302881D01*
X0046457Y0302788D01*
X0046476Y0302733D01*
Y0302714D01*
X0046457Y0302622D01*
X0046439Y0302566D01*
X004642Y0302529D01*
X0046402Y0302511D01*
X0046346Y0302437D01*
X0046291Y0302381D01*
X0046235Y0302362D01*
X0046217Y0302344D01*
X0046124Y0302289D01*
X0046013Y030227D01*
X004592Y0302233D01*
X0045883D01*
X0045791Y0302196D01*
X0045717Y0302177D01*
X0045661Y0302159D01*
X0045606D01*
X0045569Y030214D01*
X0045495Y0302103D01*
X0045439Y0302066D01*
X0045421Y0302048D01*
X0045402Y0302029D01*
X0045365Y0301992D01*
X0045347Y0301937D01*
Y03019D01*
Y0301881D01*
Y0301826D01*
X0045365Y0301789D01*
X0045384Y0301752D01*
X0045402Y0301733D01*
X0045495Y0301659D01*
X0045532Y0301641D01*
X004555Y0301622D01*
X0045902D01*
X0045976Y0301641D01*
X0046069D01*
X0046143Y0301678D01*
X0046198Y0301733D01*
X0046235Y0301752D01*
Y030177D01*
X0046272Y0301844D01*
X0046291Y0301918D01*
X0046309Y0301974D01*
Y0301992D01*
X004655Y0301974D01*
X0046531Y0301844D01*
X0046494Y0301752D01*
X0046457Y0301678D01*
X0046439Y0301659D01*
X0046365Y0301585D01*
X0046291Y030153D01*
X0046217Y0301493D01*
X0046198Y0301474D01*
X004605Y0301437D01*
X004592Y0301418D01*
X0045809Y03014D01*
X0045772D01*
X0045643Y0301418D01*
X004555Y0301437D01*
X0045476Y0301455D01*
X0045439Y0301474D01*
X0045347Y030153D01*
X0045273Y0301585D01*
X0045236Y0301622D01*
X0045217Y0301641D01*
X0045162Y0301733D01*
X0045143Y0301807D01*
X0045125Y0301881D01*
Y03019D01*
X0045143Y0302011D01*
X0045162Y0302085D01*
X004518Y030214D01*
X0045199Y0302159D01*
X0045273Y0302233D01*
X0045347Y0302289D01*
X0045402Y0302326D01*
X0045439Y0302344D01*
X0045476Y0302362D01*
X0045532Y0302381D01*
X0045661Y0302418D01*
X0045772Y0302437D01*
X0045809Y0302455D01*
X0045828D01*
X004592Y0302474D01*
X0045994Y0302492D01*
X0046106Y0302529D01*
X0046161Y0302566D01*
X004618D01*
X0046217Y0302622D01*
X0046235Y0302677D01*
Y0302714D01*
Y0302733D01*
X0046217Y0302807D01*
X0046198Y0302881D01*
X004618Y0302918D01*
X0046161Y0302936D01*
X0046069Y0302973D01*
X0045957Y030301D01*
X0045828D01*
X0045698Y0302992D01*
X0045606Y0302973D01*
X004555Y0302936D01*
X0045532Y0302918D01*
X0045458Y0302844D01*
X0045421Y030277D01*
X0045402Y0302696D01*
Y0302659D01*
X004518Y0302677D01*
X0045199Y0302788D01*
X0045217Y0302881D01*
X0045254Y0302955D01*
X0045273Y0302973D01*
X0045347Y0303047D01*
X0045402Y0303103D01*
X0045476Y0303121D01*
X0045495Y030314D01*
X0045606Y0303177D01*
X0045717Y0303214D01*
X0045976D01*
X0046087Y0303196D01*
D02*
G37*
G36*
X0055338Y0220455D02*
X0064346D01*
Y0219664D01*
X0055338D01*
Y0220455D01*
X0055317D01*
Y0219664D01*
X0055338D01*
Y0215507D01*
X0054539D01*
Y0224702D01*
X0055338D01*
Y0220455D01*
D02*
G37*
G36*
X005184Y0218283D02*
X0051049D01*
Y0221933D01*
X005184D01*
Y0218283D01*
D02*
G37*
G36*
X0053568Y0216895D02*
X0052777D01*
Y0223259D01*
X0053568D01*
Y0216895D01*
D02*
G37*
G36*
X0251836Y0230837D02*
X0251045D01*
Y0230817D01*
X0251836D01*
Y0230837D01*
X0255993D01*
Y0230039D01*
X0246798D01*
Y0230837D01*
X0251045D01*
Y0239846D01*
X0251836D01*
Y0230837D01*
D02*
G37*
G36*
X0254605Y0228277D02*
X0248241D01*
Y0229068D01*
X0254605D01*
Y0228277D01*
D02*
G37*
G36*
X0253217Y0226549D02*
X0249567D01*
Y022734D01*
X0253217D01*
Y0226549D01*
D02*
G37*
G36*
X0347641Y0082549D02*
X0347683Y008254D01*
X0347711Y0082531D01*
X0347729Y0082526D01*
X0347738Y0082521D01*
X0347794Y008248D01*
X0347831Y0082438D01*
X0347858Y0082388D01*
X0347882Y0082346D01*
X0347891Y0082304D01*
X0347895Y0082272D01*
X03479Y0082249D01*
Y0071909D01*
X0347891Y0071849D01*
X0347872Y0071798D01*
X0347849Y0071748D01*
X0347817Y0071711D01*
X0347789Y0071678D01*
X0347761Y0071655D01*
X0347743Y0071641D01*
X0347738Y0071637D01*
X0347678Y0071609D01*
X0347623Y00716D01*
X0347567Y0071595D01*
X0347516Y00716D01*
X0347475Y0071614D01*
X0347438Y0071623D01*
X034742Y0071632D01*
X034741Y0071637D01*
X0338475Y0076793D01*
X0338438Y0076816D01*
X033841Y0076844D01*
X0338387Y0076871D01*
X0338364Y0076899D01*
X0338337Y0076954D01*
X0338318Y0077005D01*
X0338309Y0077051D01*
Y0077121D01*
X0338332Y0077176D01*
X0338355Y0077227D01*
X0338383Y0077264D01*
X033841Y0077301D01*
X0338434Y0077324D01*
X0338457Y0077342D01*
X0338471Y0077352D01*
X0338475Y0077356D01*
X034741Y0082521D01*
X0347475Y0082545D01*
X0347535Y0082554D01*
X034759D01*
X0347641Y0082549D01*
D02*
G37*
%LPC*%
G36*
X0406212Y033458D02*
X0371108Y0272739D01*
X0441391Y027274D01*
X0406212Y033458D01*
D02*
G37*
%LPD*%
G36*
X0413914Y0291847D02*
X0403361Y0296105D01*
X0407138Y0283108D01*
X04091D01*
X0406582Y027585D01*
X0401954Y0282812D01*
X0403953D01*
X0398584Y0302882D01*
X0409323Y0298549D01*
X0401768Y0315842D01*
X0407138D01*
X0413914Y0291847D01*
D02*
G37*
%LPC*%
G36*
X0275093Y0102487D02*
X0275065D01*
X0275051D01*
X0275046D01*
X027488Y0102482D01*
X0274718Y0102473D01*
X0274561Y0102454D01*
X0274409Y0102431D01*
X0274256Y0102399D01*
X0274109Y0102366D01*
X0273965Y0102325D01*
X0273827Y0102283D01*
X0273559Y0102182D01*
X0273429Y0102126D01*
X0273309Y0102071D01*
X0273189Y0102015D01*
X0273078Y0101955D01*
X0272967Y0101891D01*
X0272866Y010183D01*
X0272769Y010177D01*
X0272676Y010171D01*
X0272588Y010165D01*
X0272505Y010159D01*
X0272431Y0101535D01*
X0272362Y0101479D01*
X0272298Y0101428D01*
X0272242Y0101378D01*
X0272187Y0101336D01*
X0272145Y0101295D01*
X0272103Y0101262D01*
X0272071Y010123D01*
X0272048Y0101207D01*
X0272029Y0101188D01*
X027202Y0101179D01*
X0272016Y0101174D01*
X02719Y010105D01*
X0271794Y0100916D01*
X0271692Y0100786D01*
X02716Y0100652D01*
X0271512Y0100518D01*
X0271433Y010038D01*
X027136Y0100241D01*
X027129Y0100107D01*
X0271226Y0099969D01*
X0271166Y0099835D01*
X0271115Y0099701D01*
X0271064Y0099567D01*
X0270981Y0099308D01*
X0270916Y0099063D01*
X0270888Y0098943D01*
X0270865Y0098832D01*
X0270842Y0098721D01*
X0270824Y009862D01*
X027081Y0098523D01*
X0270796Y009843D01*
X0270787Y0098347D01*
X0270778Y0098268D01*
X0270773Y0098199D01*
X0270768Y0098139D01*
X0270764Y0098084D01*
Y0098037D01*
X0270759Y0098001D01*
Y0097954D01*
X0270764Y0097779D01*
X0270773Y0097608D01*
X0270791Y0097437D01*
X0270814Y0097275D01*
X0270842Y0097113D01*
X0270875Y0096956D01*
X0270958Y0096656D01*
X0270999Y0096513D01*
X027105Y009637D01*
X0271101Y0096236D01*
X0271156Y0096106D01*
X0271212Y0095982D01*
X0271272Y0095861D01*
X0271327Y0095746D01*
X0271387Y009564D01*
X0271447Y0095533D01*
X0271503Y0095436D01*
X0271563Y0095344D01*
X0271618Y0095256D01*
X0271674Y0095178D01*
X0271725Y0095104D01*
X0271775Y0095034D01*
X0271822Y0094974D01*
X0271863Y0094924D01*
X02719Y0094873D01*
X0271933Y0094831D01*
X027196Y0094799D01*
X0271983Y0094771D01*
X0272002Y0094753D01*
X0272011Y0094743D01*
X0272016Y0094739D01*
X0272136Y0094619D01*
X0272256Y0094508D01*
X0272381Y0094402D01*
X0272505Y0094305D01*
X0272635Y0094212D01*
X0272764Y0094129D01*
X0272889Y009405D01*
X0273018Y0093976D01*
X0273148Y0093912D01*
X0273277Y0093852D01*
X0273402Y0093796D01*
X0273526Y0093745D01*
X0273651Y0093699D01*
X0273771Y0093658D01*
X0274002Y0093588D01*
X0274219Y0093533D01*
X0274321Y009351D01*
X0274418Y0093491D01*
X0274511Y0093477D01*
X0274598Y0093464D01*
X0274677Y009345D01*
X0274751Y0093441D01*
X0274815Y0093436D01*
X0274875Y0093431D01*
X0274926Y0093427D01*
X0274968D01*
X0275Y0093422D01*
X0275028D01*
X0275042D01*
X0275046D01*
X0275208Y0093427D01*
X027537Y0093436D01*
X0275527Y0093454D01*
X0275679Y0093477D01*
X0275827Y009351D01*
X0275975Y0093542D01*
X0276118Y0093584D01*
X0276257Y009363D01*
X027652Y0093727D01*
X027677Y0093838D01*
X027689Y0093898D01*
X0277001Y0093958D01*
X0277107Y0094018D01*
X0277213Y0094083D01*
X027731Y0094143D01*
X0277403Y0094203D01*
X027749Y0094263D01*
X0277569Y0094323D01*
X0277647Y0094378D01*
X0277717Y0094434D01*
X0277781Y0094485D01*
X0277837Y0094535D01*
X0277888Y0094577D01*
X0277934Y0094619D01*
X0277976Y0094651D01*
X0278008Y0094683D01*
X0278031Y0094706D01*
X0278049Y0094725D01*
X0278059Y0094734D01*
X0278063Y0094739D01*
X0278179Y0094863D01*
X0278285Y0094993D01*
X0278387Y0095127D01*
X0278479Y0095256D01*
X0278567Y009539D01*
X0278645Y0095529D01*
X0278719Y0095663D01*
X0278789Y0095801D01*
X0278853Y0095935D01*
X0278913Y0096074D01*
X0278964Y0096208D01*
X0279015Y0096337D01*
X0279098Y0096596D01*
X0279163Y0096846D01*
X027919Y0096961D01*
X0279214Y0097076D01*
X0279237Y0097183D01*
X0279255Y0097284D01*
X0279269Y0097386D01*
X0279283Y0097474D01*
X0279292Y0097562D01*
X0279301Y009764D01*
X0279306Y0097709D01*
X0279311Y0097769D01*
X0279315Y0097825D01*
X027932Y0097871D01*
Y0097954D01*
X0279315Y009813D01*
X0279306Y0098301D01*
X0279288Y0098467D01*
X0279264Y0098633D01*
X0279237Y0098795D01*
X0279204Y0098948D01*
X0279126Y0099252D01*
X027908Y0099396D01*
X0279029Y0099534D01*
X0278978Y0099668D01*
X0278923Y0099798D01*
X0278867Y0099927D01*
X0278807Y0100047D01*
X0278752Y0100158D01*
X0278692Y0100269D01*
X0278631Y0100375D01*
X0278576Y0100472D01*
X0278516Y0100565D01*
X0278461Y0100652D01*
X0278405Y0100731D01*
X0278354Y0100805D01*
X0278304Y0100874D01*
X0278262Y0100934D01*
X0278216Y010099D01*
X0278179Y010104D01*
X0278146Y0101077D01*
X0278119Y0101114D01*
X0278096Y0101142D01*
X0278077Y0101161D01*
X0278068Y010117D01*
X0278063Y0101174D01*
X0277943Y0101295D01*
X0277823Y0101405D01*
X0277698Y0101512D01*
X0277569Y0101609D01*
X0277444Y0101697D01*
X0277315Y0101784D01*
X0277185Y0101863D01*
X0277056Y0101932D01*
X0276931Y0102001D01*
X0276802Y0102061D01*
X0276677Y0102117D01*
X0276553Y0102168D01*
X0276432Y0102214D01*
X0276312Y0102251D01*
X0276081Y0102325D01*
X0275864Y0102376D01*
X0275763Y0102399D01*
X0275665Y0102417D01*
X0275578Y0102431D01*
X027549Y0102445D01*
X0275411Y0102459D01*
X0275342Y0102468D01*
X0275273Y0102473D01*
X0275217Y0102477D01*
X0275167Y0102482D01*
X0275125D01*
X0275093Y0102487D01*
D02*
G37*
%LPD*%
G36*
X027209Y0096749D02*
X0271558D01*
Y0099188D01*
X027209D01*
Y0096749D01*
D02*
G37*
G36*
X0273037Y0095829D02*
X027251D01*
Y010007D01*
X0273037D01*
Y0095829D01*
D02*
G37*
G36*
X0274011Y0098204D02*
X0278946D01*
Y0097672D01*
X0274011D01*
Y0094891D01*
X0273485D01*
Y0101022D01*
X0274011D01*
Y0098204D01*
D02*
G37*
%LPC*%
G36*
X0043977Y0330942D02*
X0043903D01*
Y0330924D01*
X0043681Y0330905D01*
X0043496Y0330868D01*
X004331Y0330794D01*
X0043162Y033072D01*
X0043033Y0330646D01*
X004294Y0330572D01*
X0042885Y0330535D01*
X0042866Y0330516D01*
X0042774Y0330424D01*
X0042737Y0330387D01*
X0042718Y0330368D01*
X0042663Y0330294D01*
X0042626Y033022D01*
X0042589Y0330183D01*
Y0330165D01*
X004257D01*
X0031964Y0311803D01*
Y0311784D01*
X0031853Y0311562D01*
X0031797Y0311358D01*
X003176Y0311266D01*
Y0311192D01*
X0031742Y0311155D01*
Y0311136D01*
X003176D01*
X0031742Y0311044D01*
Y0311025D01*
Y0311007D01*
Y0310859D01*
X0031779Y0310711D01*
X0031797Y0310581D01*
X0031834Y0310451D01*
X0031871Y0310359D01*
X0031908Y0310285D01*
X0031927Y0310248D01*
X0031945Y0310229D01*
X0032075Y0310044D01*
X0032223Y0309896D01*
X0032371Y0309767D01*
X0032519Y0309674D01*
X0032649Y03096D01*
X0032741Y0309563D01*
X0032815Y0309526D01*
X0032871D01*
X0032945Y0309507D01*
X0033019Y0309489D01*
X0033037Y030947D01*
X0033278D01*
Y0309452D01*
X0054509D01*
X0054731Y030947D01*
X0054935Y0309507D01*
X005512Y0309581D01*
X0055287Y0309655D01*
X0055416Y030973D01*
X0055509Y0309804D01*
X0055564Y0309841D01*
X0055583Y0309859D01*
X0055657Y0309933D01*
X0055694Y0309989D01*
X0055731Y0310007D01*
Y0310026D01*
X0055786Y03101D01*
X0055823Y0310155D01*
X005586Y0310211D01*
Y0310229D01*
X0055879D01*
X0055971Y0310414D01*
X0056027Y0310599D01*
X0056045Y0310785D01*
X0056064Y0310951D01*
Y0311099D01*
Y031121D01*
X0056045Y0311284D01*
Y0311303D01*
X0056027Y0311395D01*
X0056008Y0311469D01*
X005599Y0311507D01*
Y0311525D01*
X0055971Y031158D01*
X0055934Y0311654D01*
X0055916Y031171D01*
X0055897Y0311729D01*
X0055879Y0311747D01*
Y0311766D01*
X0045254Y0330146D01*
X0045106Y033035D01*
X0044976Y0330516D01*
X0044847Y0330627D01*
X0044828Y0330646D01*
X004481Y0330664D01*
X0044791D01*
X0044773Y0330683D01*
X0044736Y0330701D01*
X0044717Y033072D01*
X0044699D01*
X0044551Y0330794D01*
X0044421Y0330849D01*
X0044162Y0330924D01*
X0044051D01*
X0043977Y0330942D01*
D02*
G37*
%LPD*%
G36*
X0045976Y0324963D02*
X0046161Y0324797D01*
X0046254Y0324723D01*
X0046309Y0324667D01*
X0046346Y032463D01*
X0046365Y0324611D01*
X004655Y0324389D01*
X0046716Y0324186D01*
X0046772Y0324112D01*
X0046809Y0324038D01*
X0046827Y0324001D01*
X0046846Y0323982D01*
X0047049Y0323649D01*
X0047198Y0323297D01*
X0047327Y0322964D01*
X004742Y032265D01*
X0047494Y032239D01*
X0047531Y0322168D01*
X0047549Y0322094D01*
X0047568Y0322039D01*
Y0322002D01*
Y0321983D01*
X0047586Y0321576D01*
X0047568Y0321169D01*
X0047512Y0320798D01*
X004742Y0320465D01*
X0047327Y0320169D01*
X004729Y0320058D01*
X0047253Y0319947D01*
X0047216Y0319873D01*
X0047179Y0319817D01*
X0047161Y031978D01*
Y0319762D01*
X0047087Y0319632D01*
X0046994Y0319484D01*
X0046809Y0319188D01*
X0046716Y0319077D01*
X0046661Y0318985D01*
X0046605Y0318911D01*
X0046587Y0318892D01*
X0046383Y0318596D01*
X0046235Y0318318D01*
X0046124Y0318077D01*
X0046031Y0317855D01*
X0045994Y031767D01*
X0045957Y0317522D01*
X0045939Y0317448D01*
Y0317411D01*
Y0317282D01*
Y0317189D01*
Y0317133D01*
Y0317115D01*
Y0317004D01*
Y0316911D01*
X0045957Y0316837D01*
Y03168D01*
X0045994Y0316634D01*
X0046013Y0316486D01*
X0046106Y0316227D01*
X004618Y0316041D01*
X0046272Y0315912D01*
X0046346Y0315819D01*
X004642Y0315764D01*
X0046457Y0315727D01*
X0046476D01*
X0046217Y0314949D01*
X0046069Y0315023D01*
X004592Y0315097D01*
X0045809Y0315209D01*
X004568Y0315338D01*
X0045495Y0315616D01*
X0045365Y031593D01*
X0045254Y0316208D01*
X0045217Y0316338D01*
X0045199Y0316449D01*
X0045162Y031656D01*
Y0316634D01*
X0045143Y0316671D01*
Y0316689D01*
X0045125Y03168D01*
Y0316948D01*
X0045106Y0317059D01*
Y0317078D01*
Y0317096D01*
Y0317208D01*
Y0317337D01*
X0045125Y0317448D01*
Y0317467D01*
Y0317485D01*
X0045162Y0317726D01*
X0045199Y0317948D01*
X0045236Y0318133D01*
X0045291Y0318281D01*
X0045347Y0318411D01*
X0045384Y0318503D01*
X0045402Y0318559D01*
X0045421Y0318577D01*
X0045606Y0318892D01*
X004568Y0319022D01*
X0045754Y0319151D01*
X0045828Y0319244D01*
X0045883Y0319318D01*
X0045902Y0319373D01*
X004592Y0319392D01*
X004605Y0319558D01*
X0046161Y0319706D01*
X0046235Y0319836D01*
X0046309Y0319947D01*
X0046365Y032004D01*
X0046402Y0320095D01*
X004642Y0320132D01*
Y0320151D01*
X004655Y0320465D01*
X0046661Y032078D01*
X0046716Y0321095D01*
X0046735Y0321391D01*
Y0321687D01*
X0046716Y0321965D01*
X0046661Y0322224D01*
X0046605Y0322464D01*
X004655Y0322687D01*
X0046476Y032289D01*
X0046383Y0323075D01*
X0046328Y0323223D01*
X0046254Y0323353D01*
X0046198Y0323445D01*
X004618Y0323501D01*
X0046161Y0323519D01*
X0046013Y0323723D01*
X0045883Y0323908D01*
X0045791Y0324019D01*
X0045772Y0324038D01*
X0045754Y0324056D01*
X0045587Y0324223D01*
X0045439Y0324352D01*
X0045328Y0324445D01*
X004531Y0324482D01*
X0045273D01*
X0045569Y0324852D01*
X0045772Y032513D01*
X0045976Y0324963D01*
D02*
G37*
G36*
X0043921D02*
X0044106Y0324797D01*
X0044181Y0324723D01*
X0044236Y0324667D01*
X0044273Y032463D01*
X0044291Y0324611D01*
X0044495Y0324389D01*
X0044643Y0324186D01*
X0044699Y0324112D01*
X0044754Y0324038D01*
X0044773Y0324001D01*
X0044791Y0323982D01*
X0044976Y0323649D01*
X0045143Y0323297D01*
X0045254Y0322964D01*
X0045365Y032265D01*
X0045439Y032239D01*
X0045476Y0322168D01*
X0045495Y0322094D01*
X0045513Y0322039D01*
Y0322002D01*
Y0321983D01*
X0045532Y0321576D01*
X0045513Y0321169D01*
X0045439Y0320798D01*
X0045347Y0320465D01*
X0045254Y0320169D01*
X0045217Y0320058D01*
X004518Y0319947D01*
X0045143Y0319873D01*
X0045106Y0319817D01*
X0045088Y031978D01*
Y0319762D01*
X0045013Y0319632D01*
X0044939Y0319503D01*
X0044754Y0319225D01*
X0044662Y0319096D01*
X0044606Y0318985D01*
X0044551Y0318911D01*
X0044532Y0318892D01*
X0044329Y0318596D01*
X0044181Y0318318D01*
X0044051Y0318077D01*
X0043977Y0317855D01*
X0043921Y031767D01*
X0043903Y0317522D01*
X0043884Y0317448D01*
Y0317411D01*
Y03173D01*
Y0317208D01*
Y0317133D01*
Y0317115D01*
Y0317004D01*
Y0316911D01*
X0043903Y0316837D01*
Y03168D01*
X004394Y0316634D01*
X0043958Y0316486D01*
X0044051Y0316227D01*
X0044125Y0316041D01*
X0044199Y0315912D01*
X0044291Y0315819D01*
X0044347Y0315764D01*
X0044384Y0315727D01*
X0044403D01*
X0044144Y0314949D01*
X0043995Y0315023D01*
X0043847Y0315097D01*
X0043736Y0315209D01*
X0043625Y0315338D01*
X004344Y0315616D01*
X0043292Y031593D01*
X00432Y0316208D01*
X0043162Y0316338D01*
X0043125Y0316449D01*
X0043107Y031656D01*
Y0316634D01*
X0043088Y0316671D01*
Y0316689D01*
X004307Y03168D01*
Y0316948D01*
X0043051Y0317059D01*
Y0317078D01*
Y0317096D01*
Y0317263D01*
Y0317393D01*
Y0317467D01*
Y0317485D01*
X0043088Y0317726D01*
X0043125Y0317948D01*
X0043162Y0318133D01*
X0043218Y0318281D01*
X0043273Y0318411D01*
X004331Y0318503D01*
X0043329Y0318559D01*
X0043347Y0318577D01*
X0043533Y0318892D01*
X0043625Y0319022D01*
X0043699Y0319151D01*
X0043773Y0319244D01*
X004381Y0319318D01*
X0043847Y0319373D01*
X0043866Y0319392D01*
X0043995Y0319558D01*
X0044088Y0319706D01*
X0044181Y0319836D01*
X0044236Y0319947D01*
X0044291Y032004D01*
X0044329Y0320095D01*
X0044347Y0320132D01*
Y0320151D01*
X0044477Y0320465D01*
X0044588Y032078D01*
X0044643Y0321095D01*
X0044662Y0321391D01*
Y0321687D01*
X0044643Y0321965D01*
X0044588Y0322224D01*
X0044532Y0322464D01*
X0044477Y0322687D01*
X0044403Y032289D01*
X004431Y0323075D01*
X0044254Y0323223D01*
X0044181Y0323353D01*
X0044125Y0323445D01*
X0044106Y0323501D01*
X0044088Y0323519D01*
X004394Y0323742D01*
X0043829Y0323908D01*
X0043736Y0324019D01*
X0043699Y0324038D01*
Y0324056D01*
X0043533Y0324223D01*
X0043366Y0324352D01*
X0043255Y0324445D01*
X0043237Y0324482D01*
X0043218D01*
X0043496Y0324852D01*
X0043718Y032513D01*
X0043921Y0324963D01*
D02*
G37*
G36*
X0041867Y0324945D02*
X0042052Y0324778D01*
X0042126Y0324704D01*
X0042181Y0324667D01*
X0042218Y032463D01*
X0042237Y0324611D01*
X0042422Y0324389D01*
X0042589Y0324186D01*
X0042644Y0324112D01*
X0042681Y0324038D01*
X00427Y0324001D01*
X0042718Y0323982D01*
X0042922Y0323649D01*
X004307Y0323297D01*
X00432Y0322964D01*
X0043292Y032265D01*
X0043366Y032239D01*
X0043403Y0322168D01*
X0043422Y0322094D01*
X004344Y0322039D01*
Y0322002D01*
Y0321983D01*
X0043459Y0321576D01*
X004344Y0321169D01*
X0043385Y0320798D01*
X0043292Y0320465D01*
X00432Y0320169D01*
X0043162Y0320058D01*
X0043125Y0319947D01*
X0043088Y0319873D01*
X0043051Y0319817D01*
X0043033Y031978D01*
Y0319762D01*
X0042866Y0319466D01*
X0042681Y0319188D01*
X0042607Y0319058D01*
X0042533Y0318966D01*
X0042496Y0318911D01*
X0042478Y0318892D01*
X0042274Y0318614D01*
X0042126Y0318337D01*
X0042015Y0318077D01*
X0041922Y0317855D01*
X0041867Y031767D01*
X004183Y0317541D01*
X0041811Y0317448D01*
Y0317411D01*
Y0317319D01*
Y0317226D01*
Y0317152D01*
Y0317133D01*
Y0317115D01*
Y0317022D01*
Y031693D01*
X004183Y0316837D01*
Y0316819D01*
Y03168D01*
X0041867Y0316634D01*
X0041904Y0316486D01*
X0041978Y0316227D01*
X004207Y0316041D01*
X0042144Y0315912D01*
X0042218Y0315819D01*
X0042292Y0315764D01*
X0042329Y0315727D01*
X0042348D01*
X004207Y0314949D01*
X0041922Y0315023D01*
X0041793Y0315097D01*
X0041663Y0315209D01*
X0041552Y0315338D01*
X0041367Y0315616D01*
X0041237Y031593D01*
X0041145Y0316208D01*
X0041108Y0316338D01*
X0041071Y0316449D01*
X0041052Y031656D01*
Y0316634D01*
X0041034Y0316671D01*
Y0316689D01*
X0041015Y0316819D01*
X0040997Y0316948D01*
Y0317059D01*
Y0317078D01*
Y0317096D01*
Y0317245D01*
Y0317374D01*
Y0317448D01*
Y0317485D01*
X0041034Y0317726D01*
X0041071Y0317948D01*
X0041108Y0318133D01*
X0041163Y0318281D01*
X0041219Y0318411D01*
X0041256Y0318503D01*
X0041274Y0318559D01*
X0041293Y0318577D01*
X0041478Y0318892D01*
X0041571Y0319022D01*
X0041645Y0319151D01*
X0041719Y0319244D01*
X0041756Y0319318D01*
X0041793Y0319373D01*
X0041811Y0319392D01*
X0041941Y0319577D01*
X0042033Y0319725D01*
X0042126Y0319854D01*
X0042181Y0319966D01*
X0042237Y032004D01*
X0042274Y0320114D01*
X0042292Y0320132D01*
Y0320151D01*
X0042422Y0320465D01*
X0042533Y032078D01*
X0042589Y0321095D01*
X0042607Y0321391D01*
Y0321687D01*
X0042589Y0321965D01*
X0042533Y0322224D01*
X0042478Y0322464D01*
X0042422Y0322687D01*
X0042348Y032289D01*
X0042255Y0323075D01*
X00422Y0323223D01*
X0042126Y0323353D01*
X004207Y0323445D01*
X0042052Y0323501D01*
X0042033Y0323519D01*
X0041885Y0323742D01*
X0041756Y0323908D01*
X0041663Y0324019D01*
X0041626Y0324038D01*
Y0324056D01*
X0041441Y0324241D01*
X0041293Y0324371D01*
X0041182Y0324445D01*
X0041163Y0324482D01*
X0041145D01*
X0041441Y0324852D01*
X0041645Y032513D01*
X0041867Y0324945D01*
D02*
G37*
G36*
X0050104Y0312969D02*
X0037721D01*
Y0314005D01*
X0050104D01*
Y0312969D01*
D02*
G37*
%LPC*%
G36*
X0055971Y0306916D02*
X0055897Y0306657D01*
X0055805Y0306435D01*
X0055768Y0306342D01*
X0055731Y0306268D01*
X0055712Y0306213D01*
Y0306194D01*
X0055342Y0305213D01*
X0056545D01*
X0056156Y030625D01*
X0056064Y030649D01*
X0056008Y0306712D01*
X005599Y0306786D01*
Y030686D01*
X0055971Y0306897D01*
Y0306916D01*
D02*
G37*
G36*
X0035425Y0306953D02*
X0035333D01*
X0035092Y0306916D01*
X0034907Y030686D01*
X0034814Y0306823D01*
X0034759Y0306805D01*
X0034722Y0306768D01*
X0034703D01*
X0034518Y030662D01*
X0034389Y0306453D01*
X0034333Y0306379D01*
X0034296Y0306324D01*
X0034278Y0306287D01*
Y0306268D01*
X0034185Y0306009D01*
X0034148Y0305768D01*
X003413Y0305657D01*
Y0305583D01*
Y0305528D01*
Y0305509D01*
X0034148Y0305269D01*
X0034185Y0305065D01*
X0034241Y030488D01*
X0034296Y0304732D01*
X003437Y0304621D01*
X0034426Y0304528D01*
X0034463Y0304473D01*
X0034481Y0304454D01*
X0034611Y0304325D01*
X0034759Y0304232D01*
X0034907Y0304176D01*
X0035037Y0304139D01*
X0035166Y0304102D01*
X0035259Y0304084D01*
X0035351D01*
X0035536Y0304102D01*
X0035703Y0304139D01*
X0035851Y0304195D01*
X003598Y0304269D01*
X0036073Y0304343D01*
X0036166Y0304399D01*
X0036203Y0304436D01*
X0036221Y0304454D01*
X0036332Y0304602D01*
X0036406Y0304769D01*
X003648Y0304954D01*
X0036517Y0305102D01*
X0036536Y030525D01*
X0036554Y0305361D01*
Y0305454D01*
Y0305472D01*
X0036536Y030575D01*
X0036499Y0305991D01*
X0036443Y0306194D01*
X0036369Y0306342D01*
X0036314Y0306472D01*
X0036258Y0306546D01*
X0036221Y0306601D01*
X0036203Y030662D01*
X0036055Y0306731D01*
X0035925Y0306805D01*
X0035777Y0306879D01*
X0035629Y0306916D01*
X0035518Y0306934D01*
X0035425Y0306953D01*
D02*
G37*
G36*
X0042774Y0302992D02*
X0042218D01*
X0042089Y0302973D01*
X0042015Y0302955D01*
X0041959Y0302918D01*
X0041941Y0302899D01*
X0041885Y0302844D01*
X0041867Y030277D01*
X0041848Y0302714D01*
Y0302696D01*
Y0302622D01*
X0041867Y0302585D01*
X0041885Y0302548D01*
X0041922Y0302492D01*
X0041978Y0302474D01*
X0042015Y0302437D01*
X0042033D01*
X0042126Y0302418D01*
X00422Y0302399D01*
X0042774D01*
Y0302992D01*
D02*
G37*
G36*
X0039257D02*
X003922Y0302881D01*
X0039183Y0302751D01*
X0039146Y0302659D01*
X0039127Y030264D01*
Y0302622D01*
X0038942Y030214D01*
X0039535D01*
X0039349Y0302659D01*
X0039294Y0302788D01*
X0039275Y0302881D01*
X0039257Y0302955D01*
Y0302992D01*
D02*
G37*
G36*
X0049808Y030301D02*
X0049771D01*
X0049641Y0302992D01*
X0049548Y0302973D01*
X0049474Y0302936D01*
X0049456Y0302918D01*
X0049363Y0302844D01*
X0049289Y030277D01*
X0049252Y0302696D01*
X0049234Y0302677D01*
X0049197Y0302548D01*
X004916Y0302418D01*
Y0302326D01*
Y0302307D01*
Y0302289D01*
X0049197Y0302066D01*
X0049252Y03019D01*
X0049308Y0301807D01*
X0049345Y030177D01*
X0049474Y0301678D01*
X0049604Y0301622D01*
X0049715Y0301604D01*
X0049771D01*
X0049937Y0301622D01*
X0050085Y0301678D01*
X0050159Y0301733D01*
X0050196Y0301752D01*
X0050307Y0301918D01*
X0050363Y0302085D01*
Y0302159D01*
X0050381Y0302214D01*
Y0302252D01*
Y030227D01*
Y0302399D01*
X0050344Y0302529D01*
X0050326Y0302622D01*
X0050289Y0302696D01*
X0050233Y0302807D01*
X0050196Y0302844D01*
X0050048Y0302936D01*
X0049919Y0302992D01*
X0049808Y030301D01*
D02*
G37*
G36*
X0347059Y0081463D02*
X0339344Y0077074D01*
X0347059Y0072695D01*
Y0081463D01*
D02*
G37*
%LPD*%
G36*
X0344144Y0076719D02*
X0345766Y007719D01*
Y0077435D01*
X0346671Y0077121D01*
X0345802Y0076543D01*
Y0076793D01*
X0343299Y0076123D01*
X0343839Y0077463D01*
X0341682Y007652D01*
Y007719D01*
X0344675Y0078035D01*
X0344144Y0076719D01*
D02*
G37*
D10*
X033Y00005D02*
Y0047D01*
Y0422D02*
Y0430469D01*
X0292Y0422D02*
Y0430469D01*
X033Y0129D02*
Y0176D01*
Y00655D02*
Y0112D01*
X0292Y00005D02*
Y0117D01*
Y0129D02*
Y0176D01*
Y01905D02*
Y0409D01*
X033Y01905D02*
X033Y0409D01*
D11*
X0285106Y0038051D02*
G03*
X0285106Y0038051I-0000625J0D01*
G01*
X0275144Y0237998D02*
X0276572Y0237522D01*
X0277524Y0236093D01*
X0278Y0233713D01*
Y0232285D01*
X0277524Y0229904D01*
X0276572Y0228476D01*
X0275144Y0228D01*
X0274191D01*
X0272763Y0228476D01*
X0271811Y0229904D01*
X0271335Y0232285D01*
Y0233713D01*
X0271811Y0236093D01*
X0272763Y0237522D01*
X0274191Y0237998D01*
X0275144D01*
X0269097D02*
X0265288Y0228D01*
X026148Y0237998D02*
X0265288Y0228D01*
X0278841Y007047D02*
X0279983Y0069898D01*
X0281126Y0068756D01*
X0281697Y0067613D01*
Y0065328D01*
X0281126Y0064185D01*
X0279983Y0063043D01*
X0278841Y0062471D01*
X0277127Y00619D01*
X027427D01*
X0272556Y0062471D01*
X0271414Y0063043D01*
X0270271Y0064185D01*
X02697Y0065328D01*
Y0067613D01*
X0270271Y0068756D01*
X0271414Y0069898D01*
X0272556Y007047D01*
X027427D01*
Y0067613D02*
Y007047D01*
X0281697Y0073212D02*
X02697D01*
Y0080067D01*
X0281697Y0081381D02*
X02697Y0085952D01*
X0281697Y0090522D02*
X02697Y0085952D01*
X0270851Y037096D02*
Y036239D01*
X0275136Y0366675D02*
X0266566D01*
X0263615Y0370484D02*
X0262662Y037096D01*
X0261234Y0372388D01*
Y036239D01*
X0255807Y0370008D02*
Y0370484D01*
X0255331Y0371436D01*
X0254854Y0371912D01*
X0253902Y0372388D01*
X0251998D01*
X0251046Y0371912D01*
X025057Y0371436D01*
X0250094Y0370484D01*
Y0369532D01*
X025057Y0368579D01*
X0251522Y0367151D01*
X0256283Y036239D01*
X0249618D01*
X0488Y0256998D02*
Y0247D01*
X0481335Y0256998D02*
Y0247D01*
X0488Y0252237D02*
X0481335D01*
X0478573Y0256998D02*
X0474765Y0247D01*
X0470956Y0256998D02*
X0474765Y0247D01*
X0469671Y0251285D02*
X0461101D01*
X0336703Y0106901D02*
X03487D01*
X0336703Y01109D02*
Y0102902D01*
X0338417Y0093475D02*
X0337274Y0094618D01*
X0336703Y0096332D01*
Y0098617D01*
X0337274Y0100331D01*
X0338417Y0101473D01*
X0339559D01*
X0340702Y0100902D01*
X0341273Y0100331D01*
X0341844Y0099188D01*
X0342987Y009576D01*
X0343558Y0094618D01*
X034413Y0094046D01*
X0345272Y0093475D01*
X0346986D01*
X0348129Y0094618D01*
X03487Y0096332D01*
Y0098617D01*
X0348129Y0100331D01*
X0346986Y0101473D01*
X0336703Y009079D02*
X03487Y008622D01*
X0336703Y0081649D02*
X03487Y008622D01*
X04885Y0352998D02*
Y0343D01*
X0481835Y0352998D02*
Y0343D01*
X04885Y0348237D02*
X0481835D01*
X0479073Y0352998D02*
X0475265Y0343D01*
X0471456Y0352998D02*
X0475265Y0343D01*
X0465886Y035157D02*
Y0343D01*
X0470171Y0347285D02*
X0461601D01*
D12*
X0136665Y0122386D02*
X0182335D01*
X0136665Y0095614D02*
X0182335D01*
X0136665D02*
Y0122386D01*
X0182335Y0095614D02*
Y0122386D01*
X03478Y0056963D02*
X03502D01*
X03478Y0050063D02*
X03502D01*
X00103Y01729D02*
Y01781D01*
X00237Y01729D02*
Y01781D01*
X0059531Y0169508D02*
X0063468D01*
X0059531Y0155492D02*
X0063468D01*
X0020531Y0159008D02*
X0024468D01*
X0020531Y0144992D02*
X0024468D01*
X0184736Y0142657D02*
Y0162343D01*
X0172138Y0142657D02*
Y0162343D01*
X0184736D01*
X0172138Y0142657D02*
X0184736D01*
D13*
X0136646Y0127504D02*
G03*
X0136646Y0127504I-0000492J0D01*
G01*
X0165034Y0137D02*
G03*
X0165034Y0137I-0000492J0D01*
G01*
X0128579Y0031327D02*
G03*
X0128579Y0031327I-0000492J0D01*
G01*
X0071244Y0165787D02*
G03*
X0071244Y0165787I-0000492J0D01*
G01*
X001374Y0148713D02*
G03*
X001374Y0148713I-0000492J0D01*
G01*
X0189657Y0163347D02*
G03*
X0189657Y0163347I-0000492J0D01*
G01*
D14*
X0141783Y0118449D02*
G03*
X0141783Y0118449I-0001181J0D01*
G01*
X018198Y0158405D02*
G03*
X018198Y0158405I-0001181J0D01*
G01*
D15*
X0122378Y0030146D02*
X0124759D01*
X0122378Y0018335D02*
X0124759D01*
Y0030146D01*
X0122378Y0018335D02*
Y0030146D01*
X0051Y02515D02*
X0059D01*
Y02465D02*
Y0257D01*
D16*
X0319264Y0038484D02*
Y0040617D01*
X0288736Y0060383D02*
Y0062516D01*
Y0038484D02*
Y0040617D01*
Y0038484D02*
X0319264D01*
Y0060383D02*
Y0062516D01*
X0288736D02*
X0319264D01*
X0382391Y00809D02*
Y00777D01*
Y00809D02*
X038102D01*
X0380563Y0080747D01*
X038041Y0080595D01*
X0380258Y008029D01*
Y0079986D01*
X038041Y0079681D01*
X0380563Y0079528D01*
X038102Y0079376D01*
X0382391D01*
X0381324D02*
X0380258Y00777D01*
X037878Y00809D02*
X0379237Y0080747D01*
X037939Y0080443D01*
Y0080138D01*
X0379237Y0079833D01*
X0378933Y0079681D01*
X0378323Y0079528D01*
X0377866Y0079376D01*
X0377561Y0079071D01*
X0377409Y0078767D01*
Y007831D01*
X0377561Y0078005D01*
X0377714Y0077853D01*
X0378171Y00777D01*
X037878D01*
X0379237Y0077853D01*
X037939Y0078005D01*
X0379542Y007831D01*
Y0078767D01*
X037939Y0079071D01*
X0379085Y0079376D01*
X0378628Y0079528D01*
X0378018Y0079681D01*
X0377714Y0079833D01*
X0377561Y0080138D01*
Y0080443D01*
X0377714Y0080747D01*
X0378171Y00809D01*
X037878D01*
X01919Y0058599D02*
Y00554D01*
Y0058599D02*
X0190529D01*
X0190072Y0058447D01*
X0189919Y0058295D01*
X0189767Y005799D01*
Y0057685D01*
X0189919Y005738D01*
X0190072Y0057228D01*
X0190529Y0057076D01*
X01919D01*
X0190834D02*
X0189767Y00554D01*
X0188899Y0057838D02*
Y005799D01*
X0188746Y0058295D01*
X0188594Y0058447D01*
X0188289Y0058599D01*
X018768D01*
X0187375Y0058447D01*
X0187223Y0058295D01*
X0187071Y005799D01*
Y0057685D01*
X0187223Y005738D01*
X0187528Y0056924D01*
X0189051Y00554D01*
X0186918D01*
X018605Y0057838D02*
Y005799D01*
X0185898Y0058295D01*
X0185745Y0058447D01*
X018544Y0058599D01*
X0184831D01*
X0184526Y0058447D01*
X0184374Y0058295D01*
X0184222Y005799D01*
Y0057685D01*
X0184374Y005738D01*
X0184679Y0056924D01*
X0186202Y00554D01*
X0184069D01*
X0371615Y00927D02*
Y00895D01*
Y00927D02*
X0370244D01*
X0369787Y0092547D01*
X0369634Y0092395D01*
X0369482Y009209D01*
Y0091786D01*
X0369634Y0091481D01*
X0369787Y0091329D01*
X0370244Y0091176D01*
X0371615D01*
X0370548D02*
X0369482Y00895D01*
X0366785Y0091633D02*
X0366938Y0091176D01*
X0367242Y0090872D01*
X0367699Y0090719D01*
X0367852D01*
X0368309Y0090872D01*
X0368614Y0091176D01*
X0368766Y0091633D01*
Y0091786D01*
X0368614Y0092243D01*
X0368309Y0092547D01*
X0367852Y00927D01*
X0367699D01*
X0367242Y0092547D01*
X0366938Y0092243D01*
X0366785Y0091633D01*
Y0090872D01*
X0366938Y009011D01*
X0367242Y0089653D01*
X0367699Y00895D01*
X0368004D01*
X0368461Y0089653D01*
X0368614Y0089957D01*
X0392491Y00748D02*
Y00716D01*
Y00748D02*
X039112D01*
X0390663Y0074647D01*
X039051Y0074495D01*
X0390358Y007419D01*
Y0073886D01*
X039051Y0073581D01*
X0390663Y0073428D01*
X039112Y0073276D01*
X0392491D01*
X0391424D02*
X0390358Y00716D01*
X0387509Y00748D02*
X0389033Y00716D01*
X0389642Y00748D02*
X0387509D01*
X0144991Y03061D02*
Y03029D01*
Y03061D02*
X014362D01*
X0143163Y0305947D01*
X014301Y0305795D01*
X0142858Y030549D01*
Y0305186D01*
X014301Y0304881D01*
X0143163Y0304729D01*
X014362Y0304576D01*
X0144991D01*
X0143924D02*
X0142858Y03029D01*
X014199Y0305338D02*
Y030549D01*
X0141837Y0305795D01*
X0141685Y0305947D01*
X014138Y03061D01*
X0140771D01*
X0140466Y0305947D01*
X0140314Y0305795D01*
X0140161Y030549D01*
Y0305186D01*
X0140314Y0304881D01*
X0140619Y0304424D01*
X0142142Y03029D01*
X0140009D01*
X0210398Y0062838D02*
X021055Y0063143D01*
X0210855Y0063447D01*
X0211159Y00636D01*
X0211769D01*
X0212073Y0063447D01*
X0212378Y0063143D01*
X0212531Y0062838D01*
X0212683Y0062381D01*
Y0061619D01*
X0212531Y0061162D01*
X0212378Y0060857D01*
X0212073Y0060553D01*
X0211769Y00604D01*
X0211159D01*
X0210855Y0060553D01*
X021055Y0060857D01*
X0210398Y0061162D01*
X0209194Y00636D02*
X0207518D01*
X0208432Y0062381D01*
X0207975D01*
X0207671Y0062229D01*
X0207518Y0062076D01*
X0207366Y0061619D01*
Y0061314D01*
X0207518Y0060857D01*
X0207823Y0060553D01*
X020828Y00604D01*
X0208737D01*
X0209194Y0060553D01*
X0209347Y0060705D01*
X0209499Y006101D01*
X0205736Y00636D02*
X0206193Y0063447D01*
X0206498Y006299D01*
X020665Y0062229D01*
Y0061772D01*
X0206498Y006101D01*
X0206193Y0060553D01*
X0205736Y00604D01*
X0205431D01*
X0204974Y0060553D01*
X0204669Y006101D01*
X0204517Y0061772D01*
Y0062229D01*
X0204669Y006299D01*
X0204974Y0063447D01*
X0205431Y00636D01*
X0205736D01*
X0285889Y00341D02*
Y0031814D01*
X0285737Y0031357D01*
X0285432Y0031053D01*
X0284975Y00309D01*
X028467D01*
X0284213Y0031053D01*
X0283909Y0031357D01*
X0283756Y0031814D01*
Y00341D01*
X0282873Y003349D02*
X0282568Y0033643D01*
X0282111Y00341D01*
Y00309D01*
X0283612Y0108838D02*
X0283765Y0109143D01*
X0284069Y0109447D01*
X0284374Y01096D01*
X0284983D01*
X0285288Y0109447D01*
X0285593Y0109143D01*
X0285745Y0108838D01*
X0285897Y0108381D01*
Y0107619D01*
X0285745Y0107162D01*
X0285593Y0106857D01*
X0285288Y0106553D01*
X0284983Y01064D01*
X0284374D01*
X0284069Y0106553D01*
X0283765Y0106857D01*
X0283612Y0107162D01*
X0282561Y0108838D02*
Y010899D01*
X0282409Y0109295D01*
X0282256Y0109447D01*
X0281951Y01096D01*
X0281342D01*
X0281037Y0109447D01*
X0280885Y0109295D01*
X0280733Y010899D01*
Y0108686D01*
X0280885Y0108381D01*
X028119Y0107924D01*
X0282713Y01064D01*
X028058D01*
X0279864Y010899D02*
X027956Y0109143D01*
X0279103Y01096D01*
Y01064D01*
X0352664Y00466D02*
Y00434D01*
Y00466D02*
X0350683D01*
X0352664Y0045076D02*
X0351445D01*
X0350318Y00466D02*
Y00434D01*
Y00466D02*
X0348947D01*
X034849Y0046447D01*
X0348337Y0046295D01*
X0348185Y004599D01*
Y0045686D01*
X0348337Y0045381D01*
X034849Y0045228D01*
X0348947Y0045076D01*
X0350318D02*
X0348947D01*
X034849Y0044924D01*
X0348337Y0044772D01*
X0348185Y0044467D01*
Y004401D01*
X0348337Y0043705D01*
X034849Y0043553D01*
X0348947Y00434D01*
X0350318D01*
X0347317Y0045838D02*
Y004599D01*
X0347164Y0046295D01*
X0347012Y0046447D01*
X0346707Y00466D01*
X0346098D01*
X0345793Y0046447D01*
X0345641Y0046295D01*
X0345488Y004599D01*
Y0045686D01*
X0345641Y0045381D01*
X0345945Y0044924D01*
X0347469Y00434D01*
X0345336D01*
X0007739Y01771D02*
Y01739D01*
Y01771D02*
X0005759D01*
X0007739Y0175576D02*
X0006521D01*
X0005241Y0176338D02*
Y017649D01*
X0005089Y0176795D01*
X0004936Y0176947D01*
X0004632Y01771D01*
X0004022D01*
X0003717Y0176947D01*
X0003565Y0176795D01*
X0003413Y017649D01*
Y0176186D01*
X0003565Y0175881D01*
X000387Y0175424D01*
X0005393Y01739D01*
X000326D01*
X0065612Y0074838D02*
X0065764Y0075143D01*
X0066069Y0075447D01*
X0066374Y00756D01*
X0066983D01*
X0067288Y0075447D01*
X0067593Y0075143D01*
X0067745Y0074838D01*
X0067897Y0074381D01*
Y0073619D01*
X0067745Y0073162D01*
X0067593Y0072857D01*
X0067288Y0072553D01*
X0066983Y00724D01*
X0066374D01*
X0066069Y0072553D01*
X0065764Y0072857D01*
X0065612Y0073162D01*
X006319Y00756D02*
X0064713Y0073467D01*
X0062428D01*
X006319Y00756D02*
Y00724D01*
X0061864Y007499D02*
X006156Y0075143D01*
X0061103Y00756D01*
Y00724D01*
X0066298Y0081838D02*
X006645Y0082143D01*
X0066755Y0082447D01*
X0067059Y00826D01*
X0067669D01*
X0067974Y0082447D01*
X0068278Y0082143D01*
X0068431Y0081838D01*
X0068583Y0081381D01*
Y0080619D01*
X0068431Y0080162D01*
X0068278Y0079857D01*
X0067974Y0079553D01*
X0067669Y00794D01*
X0067059D01*
X0066755Y0079553D01*
X006645Y0079857D01*
X0066298Y0080162D01*
X0063875Y00826D02*
X0065399Y0080467D01*
X0063114D01*
X0063875Y00826D02*
Y00794D01*
X0061636Y00826D02*
X0062093Y0082447D01*
X0062398Y008199D01*
X006255Y0081229D01*
Y0080771D01*
X0062398Y008001D01*
X0062093Y0079553D01*
X0061636Y00794D01*
X0061331D01*
X0060874Y0079553D01*
X0060569Y008001D01*
X0060417Y0080771D01*
Y0081229D01*
X0060569Y008199D01*
X0060874Y0082447D01*
X0061331Y00826D01*
X0061636D01*
X0054038Y0055379D02*
X0054343Y0055226D01*
X0054647Y0054921D01*
X00548Y0054617D01*
Y0054007D01*
X0054647Y0053703D01*
X0054343Y0053398D01*
X0054038Y0053246D01*
X0053581Y0053093D01*
X0052819D01*
X0052362Y0053246D01*
X0052057Y0053398D01*
X0051753Y0053703D01*
X00516Y0054007D01*
Y0054617D01*
X0051753Y0054921D01*
X0052057Y0055226D01*
X0052362Y0055379D01*
X00548Y0056582D02*
Y0058258D01*
X0053581Y0057344D01*
Y0057801D01*
X0053429Y0058105D01*
X0053276Y0058258D01*
X0052819Y005841D01*
X0052514D01*
X0052057Y0058258D01*
X0051753Y0057953D01*
X00516Y0057496D01*
Y0057039D01*
X0051753Y0056582D01*
X0051905Y005643D01*
X005221Y0056277D01*
X0053733Y0061107D02*
X0053276Y0060954D01*
X0052972Y006065D01*
X0052819Y0060193D01*
Y006004D01*
X0052972Y0059583D01*
X0053276Y0059279D01*
X0053733Y0059126D01*
X0053886D01*
X0054343Y0059279D01*
X0054647Y0059583D01*
X00548Y006004D01*
Y0060193D01*
X0054647Y006065D01*
X0054343Y0060954D01*
X0053733Y0061107D01*
X0052972D01*
X005221Y0060954D01*
X0051753Y006065D01*
X00516Y0060193D01*
Y0059888D01*
X0051753Y0059431D01*
X0052057Y0059279D01*
X0333662Y0071798D02*
X0333357Y007195D01*
X0333053Y0072255D01*
X03329Y0072559D01*
Y0073169D01*
X0333053Y0073474D01*
X0333357Y0073778D01*
X0333662Y0073931D01*
X0334119Y0074083D01*
X0334881D01*
X0335338Y0073931D01*
X0335643Y0073778D01*
X0335947Y0073474D01*
X03361Y0073169D01*
Y0072559D01*
X0335947Y0072255D01*
X0335643Y007195D01*
X0335338Y0071798D01*
X0333662Y0070746D02*
X033351D01*
X0333205Y0070594D01*
X0333053Y0070442D01*
X03329Y0070137D01*
Y0069528D01*
X0333053Y0069223D01*
X0333205Y0069071D01*
X033351Y0068918D01*
X0333814D01*
X0334119Y0069071D01*
X0334576Y0069375D01*
X03361Y0070899D01*
Y0068766D01*
X0333662Y0067898D02*
X033351D01*
X0333205Y0067745D01*
X0333053Y0067593D01*
X03329Y0067288D01*
Y0066679D01*
X0333053Y0066374D01*
X0333205Y0066222D01*
X033351Y0066069D01*
X0333814D01*
X0334119Y0066222D01*
X0334576Y0066527D01*
X03361Y006805D01*
Y0065917D01*
X035497Y0073538D02*
X0355122Y0073843D01*
X0355427Y0074147D01*
X0355732Y00743D01*
X0356341D01*
X0356646Y0074147D01*
X0356951Y0073843D01*
X0357103Y0073538D01*
X0357255Y0073081D01*
Y0072319D01*
X0357103Y0071862D01*
X0356951Y0071557D01*
X0356646Y0071253D01*
X0356341Y00711D01*
X0355732D01*
X0355427Y0071253D01*
X0355122Y0071557D01*
X035497Y0071862D01*
X0354071Y007369D02*
X0353767Y0073843D01*
X035331Y00743D01*
Y00711D01*
X0349745Y0073233D02*
X0349897Y0072776D01*
X0350202Y0072471D01*
X0350659Y0072319D01*
X0350811D01*
X0351268Y0072471D01*
X0351573Y0072776D01*
X0351725Y0073233D01*
Y0073386D01*
X0351573Y0073843D01*
X0351268Y0074147D01*
X0350811Y00743D01*
X0350659D01*
X0350202Y0074147D01*
X0349897Y0073843D01*
X0349745Y0073233D01*
Y0072471D01*
X0349897Y007171D01*
X0350202Y0071253D01*
X0350659Y00711D01*
X0350963D01*
X035142Y0071253D01*
X0351573Y0071557D01*
X0330815Y0125238D02*
X0330967Y0125542D01*
X0331272Y0125847D01*
X0331576Y0125999D01*
X0332186D01*
X0332491Y0125847D01*
X0332795Y0125542D01*
X0332948Y0125238D01*
X03331Y012478D01*
Y0124019D01*
X0332948Y0123562D01*
X0332795Y0123257D01*
X0332491Y0122952D01*
X0332186Y01228D01*
X0331576D01*
X0331272Y0122952D01*
X0330967Y0123257D01*
X0330815Y0123562D01*
X0329764Y0125238D02*
Y012539D01*
X0329611Y0125695D01*
X0329459Y0125847D01*
X0329154Y0125999D01*
X0328545D01*
X032824Y0125847D01*
X0328088Y0125695D01*
X0327935Y012539D01*
Y0125085D01*
X0328088Y012478D01*
X0328392Y0124323D01*
X0329916Y01228D01*
X0327783D01*
X0326153Y0125999D02*
X032661Y0125847D01*
X0326915Y012539D01*
X0327067Y0124628D01*
Y0124171D01*
X0326915Y0123409D01*
X032661Y0122952D01*
X0326153Y01228D01*
X0325848D01*
X0325391Y0122952D01*
X0325086Y0123409D01*
X0324934Y0124171D01*
Y0124628D01*
X0325086Y012539D01*
X0325391Y0125847D01*
X0325848Y0125999D01*
X0326153D01*
X02049Y0043407D02*
X02081D01*
X02049D02*
Y0042036D01*
X0205053Y0041579D01*
X0205205Y0041427D01*
X020551Y0041275D01*
X0205814D01*
X0206119Y0041427D01*
X0206272Y0041579D01*
X0206424Y0042036D01*
Y0043407D01*
Y0042341D02*
X02081Y0041275D01*
X0205662Y0040406D02*
X020551D01*
X0205205Y0040254D01*
X0205053Y0040102D01*
X02049Y0039797D01*
Y0039187D01*
X0205053Y0038883D01*
X0205205Y003873D01*
X020551Y0038578D01*
X0205814D01*
X0206119Y003873D01*
X0206576Y0039035D01*
X02081Y0040559D01*
Y0038426D01*
X02049Y0035882D02*
Y0037405D01*
X0206272Y0037557D01*
X0206119Y0037405D01*
X0205967Y0036948D01*
Y0036491D01*
X0206119Y0036034D01*
X0206424Y0035729D01*
X0206881Y0035577D01*
X0207186D01*
X0207643Y0035729D01*
X0207947Y0036034D01*
X02081Y0036491D01*
Y0036948D01*
X0207947Y0037405D01*
X0207795Y0037557D01*
X020749Y003771D01*
X01984Y004356D02*
X02016D01*
X01984D02*
Y0042189D01*
X0198553Y0041732D01*
X0198705Y0041579D01*
X019901Y0041427D01*
X0199314D01*
X0199619Y0041579D01*
X0199771Y0041732D01*
X0199924Y0042189D01*
Y004356D01*
Y0042493D02*
X02016Y0041427D01*
X0199162Y0040559D02*
X019901D01*
X0198705Y0040406D01*
X0198553Y0040254D01*
X01984Y0039949D01*
Y003934D01*
X0198553Y0039035D01*
X0198705Y0038883D01*
X019901Y003873D01*
X0199314D01*
X0199619Y0038883D01*
X0200076Y0039187D01*
X02016Y0040711D01*
Y0038578D01*
X01984Y0036338D02*
X0200533Y0037862D01*
Y0035577D01*
X01984Y0036338D02*
X02016D01*
X0024991Y01421D02*
Y01389D01*
Y01421D02*
X0023924D01*
X0023467Y0141947D01*
X0023163Y0141643D01*
X002301Y0141338D01*
X0022858Y0140881D01*
Y0140119D01*
X002301Y0139662D01*
X0023163Y0139357D01*
X0023467Y0139053D01*
X0023924Y01389D01*
X0024991D01*
X0021837Y01421D02*
X0020161D01*
X0021076Y0140881D01*
X0020618D01*
X0020314Y0140728D01*
X0020161Y0140576D01*
X0020009Y0140119D01*
Y0139814D01*
X0020161Y0139357D01*
X0020466Y0139053D01*
X0020923Y01389D01*
X002138D01*
X0021837Y0139053D01*
X002199Y0139205D01*
X0022142Y013951D01*
X0062805Y01751D02*
Y01719D01*
Y01751D02*
X0061739D01*
X0061282Y0174947D01*
X0060977Y0174643D01*
X0060825Y0174338D01*
X0060672Y0173881D01*
Y0173119D01*
X0060825Y0172662D01*
X0060977Y0172357D01*
X0061282Y0172053D01*
X0061739Y01719D01*
X0062805D01*
X0059956Y017449D02*
X0059652Y0174643D01*
X0059195Y01751D01*
Y01719D01*
X0180454Y0138805D02*
X0181977Y0137586D01*
X0183653D01*
X0180454Y0136368D02*
X0181977Y0137586D01*
X0181063Y0135956D02*
X0180911Y0135652D01*
X0180454Y0135195D01*
X0183653D01*
X0185058Y0111377D02*
X0187343D01*
X01878Y0111225D01*
X0188105Y011092D01*
X0188257Y0110463D01*
Y0110158D01*
X0188105Y0109701D01*
X01878Y0109396D01*
X0187343Y0109244D01*
X0185058D01*
X0185515Y0106532D02*
X0185211Y0106685D01*
X0185058Y0107142D01*
Y0107446D01*
X0185211Y0107903D01*
X0185668Y0108208D01*
X0186429Y0108361D01*
X0187191D01*
X01878Y0108208D01*
X0188105Y0107903D01*
X0188257Y0107446D01*
Y0107294D01*
X0188105Y0106837D01*
X01878Y0106532D01*
X0187343Y010638D01*
X0187191D01*
X0186734Y0106532D01*
X0186429Y0106837D01*
X0186277Y0107294D01*
Y0107446D01*
X0186429Y0107903D01*
X0186734Y0108208D01*
X0187191Y0108361D01*
X0124151Y00361D02*
Y0033814D01*
X0123998Y0033357D01*
X0123694Y0033053D01*
X0123237Y00329D01*
X0122932D01*
X0122475Y0033053D01*
X012217Y0033357D01*
X0122018Y0033814D01*
Y00361D01*
X0119611D02*
X0121134Y0033967D01*
X0118849D01*
X0119611Y00361D02*
Y00329D01*
X0181012Y01681D02*
Y0165814D01*
X0180859Y0165357D01*
X0180555Y0165053D01*
X0180098Y01649D01*
X0179793D01*
X0179336Y0165053D01*
X0179031Y0165357D01*
X0178879Y0165814D01*
Y01681D01*
X0177843Y0167338D02*
Y016749D01*
X017769Y0167795D01*
X0177538Y0167947D01*
X0177233Y01681D01*
X0176624D01*
X0176319Y0167947D01*
X0176167Y0167795D01*
X0176015Y016749D01*
Y0167186D01*
X0176167Y0166881D01*
X0176472Y0166424D01*
X0177995Y01649D01*
X0175862D01*
X0123415Y00086D02*
Y00054D01*
Y00086D02*
X0122044D01*
X0121587Y0008447D01*
X0121435Y0008295D01*
X0121282Y000799D01*
Y0007686D01*
X0121435Y0007381D01*
X0121587Y0007228D01*
X0122044Y0007076D01*
X0123415D01*
X0122349D02*
X0121282Y00054D01*
X0120414Y0007838D02*
Y000799D01*
X0120262Y0008295D01*
X0120109Y0008447D01*
X0119805Y00086D01*
X0119195D01*
X0118891Y0008447D01*
X0118738Y0008295D01*
X0118586Y000799D01*
Y0007686D01*
X0118738Y0007381D01*
X0119043Y0006924D01*
X0120566Y00054D01*
X0118434D01*
X0117413Y00086D02*
X0115737D01*
X0116651Y0007381D01*
X0116194D01*
X0115889Y0007228D01*
X0115737Y0007076D01*
X0115585Y0006619D01*
Y0006314D01*
X0115737Y0005857D01*
X0116042Y0005553D01*
X0116499Y00054D01*
X0116956D01*
X0117413Y0005553D01*
X0117565Y0005705D01*
X0117718Y000601D01*
X0212274Y0042798D02*
X0215474D01*
X0212274D02*
Y0041427D01*
X0212427Y004097D01*
X0212579Y0040817D01*
X0212884Y0040665D01*
X0213188D01*
X0213493Y0040817D01*
X0213646Y004097D01*
X0213798Y0041427D01*
Y0042798D01*
Y0041732D02*
X0215474Y0040665D01*
X0213036Y0039797D02*
X0212884D01*
X0212579Y0039645D01*
X0212427Y0039492D01*
X0212274Y0039187D01*
Y0038578D01*
X0212427Y0038273D01*
X0212579Y0038121D01*
X0212884Y0037969D01*
X0213188D01*
X0213493Y0038121D01*
X021395Y0038426D01*
X0215474Y0039949D01*
Y0037816D01*
X0212884Y00371D02*
X0212731Y0036795D01*
X0212274Y0036338D01*
X0215474D01*
X0217963Y0043811D02*
X0221163D01*
X0217963D02*
Y004244D01*
X0218116Y0041983D01*
X0218268Y0041831D01*
X0218573Y0041678D01*
X0218877D01*
X0219182Y0041831D01*
X0219335Y0041983D01*
X0219487Y004244D01*
Y0043811D01*
Y0042745D02*
X0221163Y0041678D01*
X0218725Y004081D02*
X0218573D01*
X0218268Y0040658D01*
X0218116Y0040505D01*
X0217963Y00402D01*
Y0039591D01*
X0218116Y0039287D01*
X0218268Y0039134D01*
X0218573Y0038982D01*
X0218877D01*
X0219182Y0039134D01*
X0219639Y0039439D01*
X0221163Y0040962D01*
Y0038829D01*
X0217963Y0037199D02*
X0218116Y0037656D01*
X0218573Y0037961D01*
X0219335Y0038113D01*
X0219792D01*
X0220553Y0037961D01*
X022101Y0037656D01*
X0221163Y0037199D01*
Y0036895D01*
X022101Y0036437D01*
X0220553Y0036133D01*
X0219792Y003598D01*
X0219335D01*
X0218573Y0036133D01*
X0218116Y0036437D01*
X0217963Y0036895D01*
Y0037199D01*
X0142588Y01501D02*
Y01469D01*
Y01501D02*
X0141217D01*
X014076Y0149947D01*
X0140607Y0149795D01*
X0140455Y014949D01*
Y0149186D01*
X0140607Y0148881D01*
X014076Y0148729D01*
X0141217Y0148576D01*
X0142588D01*
X0141521D02*
X0140455Y01469D01*
X0139739Y014949D02*
X0139434Y0149643D01*
X0138977Y01501D01*
Y01469D01*
X0135565Y0149643D02*
X0135717Y0149947D01*
X0136174Y01501D01*
X0136479D01*
X0136936Y0149947D01*
X013724Y014949D01*
X0137393Y0148729D01*
Y0147967D01*
X013724Y0147357D01*
X0136936Y0147053D01*
X0136479Y01469D01*
X0136326D01*
X0135869Y0147053D01*
X0135565Y0147357D01*
X0135412Y0147814D01*
Y0147967D01*
X0135565Y0148424D01*
X0135869Y0148729D01*
X0136326Y0148881D01*
X0136479D01*
X0136936Y0148729D01*
X013724Y0148424D01*
X0137393Y0147967D01*
X0149177Y0168443D02*
Y0165244D01*
Y0168443D02*
X0147806D01*
X0147349Y0168291D01*
X0147197Y0168138D01*
X0147044Y0167834D01*
Y0167529D01*
X0147197Y0167224D01*
X0147349Y0167072D01*
X0147806Y016692D01*
X0149177D01*
X0148111D02*
X0147044Y0165244D01*
X0146328Y0167834D02*
X0146023Y0167986D01*
X0145566Y0168443D01*
Y0165244D01*
X0142459Y0168443D02*
X0143982Y016631D01*
X0141697D01*
X0142459Y0168443D02*
Y0165244D01*
X0253968Y0008162D02*
X0253816Y0007857D01*
X0253511Y0007553D01*
X0253206Y00074D01*
X0252597D01*
X0252292Y0007553D01*
X0251988Y0007857D01*
X0251835Y0008162D01*
X0251683Y0008619D01*
Y0009381D01*
X0251835Y0009838D01*
X0251988Y0010143D01*
X0252292Y0010447D01*
X0252597Y00106D01*
X0253206D01*
X0253511Y0010447D01*
X0253816Y0010143D01*
X0253968Y0009838D01*
X0255172Y00074D02*
X0256847D01*
X0255933Y0008619D01*
X025639D01*
X0256695Y0008771D01*
X0256847Y0008924D01*
X0257Y0009381D01*
Y0009686D01*
X0256847Y0010143D01*
X0256543Y0010447D01*
X0256086Y00106D01*
X0255629D01*
X0255172Y0010447D01*
X0255019Y0010295D01*
X0254867Y000999D01*
X0259544Y00074D02*
X025802D01*
X0257868Y0008771D01*
X025802Y0008619D01*
X0258478Y0008467D01*
X0258935D01*
X0259392Y0008619D01*
X0259696Y0008924D01*
X0259849Y0009381D01*
Y0009686D01*
X0259696Y0010143D01*
X0259392Y0010447D01*
X0258935Y00106D01*
X0258478D01*
X025802Y0010447D01*
X0257868Y0010295D01*
X0257716Y000999D01*
X0192166Y0125835D02*
X0191861Y0125987D01*
X0191557Y0126292D01*
X0191404Y0126596D01*
Y0127206D01*
X0191557Y012751D01*
X0191861Y0127815D01*
X0192166Y0127967D01*
X0192623Y012812D01*
X0193385D01*
X0193842Y0127967D01*
X0194147Y0127815D01*
X0194451Y012751D01*
X0194604Y0127206D01*
Y0126596D01*
X0194451Y0126292D01*
X0194147Y0125987D01*
X0193842Y0125835D01*
X0191404Y0124631D02*
Y0122955D01*
X0192623Y0123869D01*
Y0123412D01*
X0192775Y0123108D01*
X0192928Y0122955D01*
X0193385Y0122803D01*
X019369D01*
X0194147Y0122955D01*
X0194451Y012326D01*
X0194604Y0123717D01*
Y0124174D01*
X0194451Y0124631D01*
X0194299Y0124783D01*
X0193994Y0124936D01*
X0191404Y0120563D02*
X0193537Y0122087D01*
Y0119801D01*
X0191404Y0120563D02*
X0194604D01*
X0150162Y0140874D02*
X0149857Y0141026D01*
X0149553Y0141331D01*
X01494Y0141636D01*
Y0142245D01*
X0149553Y014255D01*
X0149857Y0142854D01*
X0150162Y0143007D01*
X0150619Y0143159D01*
X0151381D01*
X0151838Y0143007D01*
X0152143Y0142854D01*
X0152447Y014255D01*
X01526Y0142245D01*
Y0141636D01*
X0152447Y0141331D01*
X0152143Y0141026D01*
X0151838Y0140874D01*
X0150162Y0139823D02*
X015001D01*
X0149705Y013967D01*
X0149553Y0139518D01*
X01494Y0139213D01*
Y0138604D01*
X0149553Y0138299D01*
X0149705Y0138147D01*
X015001Y0137995D01*
X0150314D01*
X0150619Y0138147D01*
X0151076Y0138452D01*
X01526Y0139975D01*
Y0137842D01*
X01494Y0135603D02*
X0151533Y0137126D01*
Y0134841D01*
X01494Y0135603D02*
X01526D01*
X0160235Y0168338D02*
X0160387Y0168643D01*
X0160692Y0168947D01*
X0160996Y01691D01*
X0161606D01*
X016191Y0168947D01*
X0162215Y0168643D01*
X0162368Y0168338D01*
X016252Y0167881D01*
Y0167119D01*
X0162368Y0166662D01*
X0162215Y0166357D01*
X016191Y0166053D01*
X0161606Y01659D01*
X0160996D01*
X0160692Y0166053D01*
X0160387Y0166357D01*
X0160235Y0166662D01*
X0159184Y0168338D02*
Y016849D01*
X0159031Y0168795D01*
X0158879Y0168947D01*
X0158574Y01691D01*
X0157965D01*
X015766Y0168947D01*
X0157508Y0168795D01*
X0157355Y016849D01*
Y0168186D01*
X0157508Y0167881D01*
X0157812Y0167424D01*
X0159336Y01659D01*
X0157203D01*
X0156182Y01691D02*
X0154506D01*
X015542Y0167881D01*
X0154964D01*
X0154659Y0167728D01*
X0154506Y0167576D01*
X0154354Y0167119D01*
Y0166814D01*
X0154506Y0166357D01*
X0154811Y0166053D01*
X0155268Y01659D01*
X0155725D01*
X0156182Y0166053D01*
X0156335Y0166205D01*
X0156487Y016651D01*
D17*
X037815Y008255D02*
X038055D01*
X037815Y008805D02*
X038055D01*
X020375Y0026863D02*
Y0029263D01*
X020925Y0026863D02*
Y0029263D01*
X019725Y00268D02*
Y00292D01*
X020275Y00268D02*
Y00292D01*
X0122359Y001599D02*
X0124759D01*
X0122359Y001049D02*
X0124759D01*
X0192018Y0044888D02*
Y0047287D01*
X0186518Y0044888D02*
Y0047287D01*
X0216624Y00268D02*
Y00292D01*
X0211124Y00268D02*
Y00292D01*
X0222313Y00268D02*
Y00292D01*
X0216813Y00268D02*
Y00292D01*
X0144237Y015075D02*
X0146637D01*
X0144237Y015625D02*
X0146637D01*
X0144237Y015775D02*
X0146637D01*
X0144237Y016325D02*
X0146637D01*
X03637Y008255D02*
X03661D01*
X03637Y008805D02*
X03661D01*
X038725Y0080654D02*
Y0083053D01*
X039275Y0080654D02*
Y0083053D01*
X015225Y03033D02*
Y03057D01*
X014675Y03033D02*
Y03057D01*
X00753Y007675D02*
X00777D01*
X00753Y007125D02*
X00777D01*
X00753Y008375D02*
X00777D01*
X00753Y007825D02*
X00777D01*
X005585Y00672D02*
Y00696D01*
X005035Y00672D02*
Y00696D01*
X0242755Y000625D02*
X0245155D01*
X0242755Y001175D02*
X0245155D01*
X0189061Y0122761D02*
Y0125161D01*
X0183561Y0122761D02*
Y0125161D01*
X019725Y00608D02*
Y00632D01*
X020275Y00608D02*
Y00632D01*
X0154687Y0143119D02*
Y0145519D01*
X0160187Y0143119D02*
Y0145519D01*
X0155687Y0156507D02*
Y0158907D01*
X0161187Y0156507D02*
Y0158907D01*
X03307Y00553D02*
Y00577D01*
X03383Y00553D02*
Y00577D01*
X02808Y011125D02*
X02832D01*
X02808Y011675D02*
X02832D01*
X03258Y011975D02*
X03282D01*
X03258Y011425D02*
X03282D01*
X0349Y0061542D02*
X03514D01*
X0349Y0069143D02*
X03514D01*
X0062999Y0248002D02*
Y0250002D01*
X0063999Y0249002D02*
X0062D01*
X00615Y0251002D02*
Y0252001D01*
Y0251501D01*
X0064499D01*
X0063999Y0251002D01*
X00615Y02555D02*
Y0253501D01*
X0063499Y02555D01*
X0063999D01*
X0064499Y0255D01*
Y0254D01*
X0063999Y0253501D01*
M02*
