G04*
G04 #@! TF.GenerationSoftware,Altium Limited,Altium Designer,20.0.13 (296)*
G04*
G04 Layer_Color=0*
%FSTAX25Y25*%
%MOIN*%
G70*
G01*
G75*
%ADD184C,0.00394*%
%ADD187C,0.00591*%
%ADD188C,0.00010*%
D184*
X0184736Y0158799D02*
G03*
X0184736Y0158799I-0001969J0D01*
G01*
X016592Y0139559D02*
X0178518D01*
Y0134441D02*
Y0139559D01*
X016592Y0134441D02*
X0178518D01*
X016592D02*
Y0139559D01*
X0186311Y0142657D02*
Y0162343D01*
X0170563D02*
X0186311D01*
X0170563Y0142657D02*
X0186311D01*
X0170563D02*
Y0162343D01*
D187*
X0058941Y0156752D02*
Y0168248D01*
Y0156752D02*
X0064059D01*
Y0168248D01*
X0058941D02*
X0064059D01*
X0019941Y0157748D02*
X0025059D01*
X0019941Y0146252D02*
X0025059D01*
Y0157748D01*
X0019941Y0146252D02*
Y0157748D01*
D188*
X0373716Y0082617D02*
X03737Y00826D01*
X0373666D01*
X037365Y0082617D01*
Y0082633D01*
X0373666Y008265D01*
X03737D01*
X0373716Y0082667D01*
Y0082683D01*
X03737Y00827D01*
X0373666D01*
X037365Y0082683D01*
X0373816Y0082617D02*
X0373799Y00826D01*
X0373766D01*
X037375Y0082617D01*
Y0082633D01*
X0373766Y008265D01*
X0373799D01*
X0373816Y0082667D01*
Y0082683D01*
X0373799Y00827D01*
X0373766D01*
X037375Y0082683D01*
X037395Y00827D02*
X0373983D01*
X0373966D01*
Y00826D01*
X037395Y0082617D01*
X0374033D02*
X0374049Y00826D01*
X0374083D01*
X0374099Y0082617D01*
Y0082683D01*
X0374083Y00827D01*
X0374049D01*
X0374033Y0082683D01*
Y0082617D01*
X0374199Y00827D02*
X0374133D01*
X0374199Y0082633D01*
Y0082617D01*
X0374183Y00826D01*
X0374149D01*
X0374133Y0082617D01*
X0374299Y00826D02*
X0374233D01*
Y008265D01*
X0374266Y0082633D01*
X0374283D01*
X0374299Y008265D01*
Y0082683D01*
X0374283Y00827D01*
X0374249D01*
X0374233Y0082683D01*
X0374333Y00827D02*
X0374366D01*
X0374349D01*
Y00826D01*
X0374333Y0082617D01*
X0374483Y00827D02*
X0374416D01*
X0374483Y0082633D01*
Y0082617D01*
X0374466Y00826D01*
X0374433D01*
X0374416Y0082617D01*
X0374533Y0082717D02*
X0374549Y00827D01*
Y0082683D01*
X0374533D01*
Y00827D01*
X0374549D01*
X0374533Y0082717D01*
X0374516Y0082733D01*
X0374716Y00827D02*
Y0082633D01*
X0374749Y00826D01*
X0374783Y0082633D01*
Y00827D01*
Y008265D01*
X0374716D01*
X0374816Y00826D02*
Y00827D01*
X0374866D01*
X0374883Y0082683D01*
Y0082617D01*
X0374866Y00826D01*
X0374816D01*
X0374916D02*
Y00827D01*
X0374966D01*
X0374983Y0082683D01*
Y0082617D01*
X0374966Y00826D01*
X0374916D01*
X0375082D02*
X0375016D01*
Y00827D01*
X0375082D01*
X0375016Y008265D02*
X0375049D01*
X0375116Y00826D02*
Y00827D01*
X0375166D01*
X0375183Y0082683D01*
Y0082617D01*
X0375166Y00826D01*
X0375116D01*
X0375382Y0082617D02*
X0375366Y00826D01*
X0375332D01*
X0375316Y0082617D01*
Y0082633D01*
X0375332Y008265D01*
X0375366D01*
X0375382Y0082667D01*
Y0082683D01*
X0375366Y00827D01*
X0375332D01*
X0375316Y0082683D01*
X0375416Y00826D02*
X0375449D01*
X0375432D01*
Y00827D01*
X0375416D01*
X0375449D01*
X0375499Y00826D02*
Y00827D01*
X0375566D01*
X0375599Y00826D02*
Y00827D01*
Y0082667D01*
X0375666Y00826D01*
X0375616Y008265D01*
X0375666Y00827D01*
X0375766Y0082617D02*
X0375749Y00826D01*
X0375716D01*
X0375699Y0082617D01*
Y0082633D01*
X0375716Y008265D01*
X0375749D01*
X0375766Y0082667D01*
Y0082683D01*
X0375749Y00827D01*
X0375716D01*
X0375699Y0082683D01*
X0375866Y0082617D02*
X0375849Y00826D01*
X0375816D01*
X0375799Y0082617D01*
Y0082683D01*
X0375816Y00827D01*
X0375849D01*
X0375866Y0082683D01*
X0375899Y00827D02*
Y00826D01*
X0375949D01*
X0375966Y0082617D01*
Y008265D01*
X0375949Y0082667D01*
X0375899D01*
X0375932D02*
X0375966Y00827D01*
X0376065Y00826D02*
X0375999D01*
Y00827D01*
X0376065D01*
X0375999Y008265D02*
X0376032D01*
X0376166Y00826D02*
X0376099D01*
Y00827D01*
X0376166D01*
X0376099Y008265D02*
X0376132D01*
X0376199Y00827D02*
Y00826D01*
X0376266Y00827D01*
Y00826D01*
X0376299Y00827D02*
Y0082683D01*
X0376315D01*
Y00827D01*
X0376299D01*
X0203817Y0033696D02*
X02038Y0033713D01*
Y0033746D01*
X0203817Y0033763D01*
X0203833D01*
X020385Y0033746D01*
Y0033713D01*
X0203867Y0033696D01*
X0203883D01*
X02039Y0033713D01*
Y0033746D01*
X0203883Y0033763D01*
X0203817Y0033596D02*
X02038Y0033613D01*
Y0033646D01*
X0203817Y0033663D01*
X0203833D01*
X020385Y0033646D01*
Y0033613D01*
X0203867Y0033596D01*
X0203883D01*
X02039Y0033613D01*
Y0033646D01*
X0203883Y0033663D01*
X02039Y0033463D02*
Y003343D01*
Y0033446D01*
X02038D01*
X0203817Y0033463D01*
Y003338D02*
X02038Y0033363D01*
Y003333D01*
X0203817Y0033313D01*
X0203883D01*
X02039Y003333D01*
Y0033363D01*
X0203883Y003338D01*
X0203817D01*
X02039Y0033213D02*
Y003328D01*
X0203833Y0033213D01*
X0203817D01*
X02038Y003323D01*
Y0033263D01*
X0203817Y003328D01*
X02038Y0033113D02*
Y003318D01*
X020385D01*
X0203833Y0033147D01*
Y003313D01*
X020385Y0033113D01*
X0203883D01*
X02039Y003313D01*
Y0033163D01*
X0203883Y003318D01*
X02039Y003308D02*
Y0033046D01*
Y0033063D01*
X02038D01*
X0203817Y003308D01*
X02039Y003293D02*
Y0032997D01*
X0203833Y003293D01*
X0203817D01*
X02038Y0032947D01*
Y003298D01*
X0203817Y0032997D01*
X0203917Y003288D02*
X02039Y0032863D01*
X0203883D01*
Y003288D01*
X02039D01*
Y0032863D01*
X0203917Y003288D01*
X0203933Y0032897D01*
X02039Y0032697D02*
X0203833D01*
X02038Y0032663D01*
X0203833Y003263D01*
X02039D01*
X020385D01*
Y0032697D01*
X02038Y0032597D02*
X02039D01*
Y0032547D01*
X0203883Y003253D01*
X0203817D01*
X02038Y0032547D01*
Y0032597D01*
Y0032497D02*
X02039D01*
Y0032447D01*
X0203883Y003243D01*
X0203817D01*
X02038Y0032447D01*
Y0032497D01*
Y003233D02*
Y0032397D01*
X02039D01*
Y003233D01*
X020385Y0032397D02*
Y0032363D01*
X02038Y0032297D02*
X02039D01*
Y0032247D01*
X0203883Y003223D01*
X0203817D01*
X02038Y0032247D01*
Y0032297D01*
X0203817Y003203D02*
X02038Y0032047D01*
Y003208D01*
X0203817Y0032097D01*
X0203833D01*
X020385Y003208D01*
Y0032047D01*
X0203867Y003203D01*
X0203883D01*
X02039Y0032047D01*
Y003208D01*
X0203883Y0032097D01*
X02038Y0031997D02*
Y0031964D01*
Y003198D01*
X02039D01*
Y0031997D01*
Y0031964D01*
X02038Y0031914D02*
X02039D01*
Y0031847D01*
X02038Y0031814D02*
X02039D01*
X0203867D01*
X02038Y0031747D01*
X020385Y0031797D01*
X02039Y0031747D01*
X0203817Y0031647D02*
X02038Y0031664D01*
Y0031697D01*
X0203817Y0031714D01*
X0203833D01*
X020385Y0031697D01*
Y0031664D01*
X0203867Y0031647D01*
X0203883D01*
X02039Y0031664D01*
Y0031697D01*
X0203883Y0031714D01*
X0203817Y0031547D02*
X02038Y0031564D01*
Y0031597D01*
X0203817Y0031614D01*
X0203883D01*
X02039Y0031597D01*
Y0031564D01*
X0203883Y0031547D01*
X02039Y0031514D02*
X02038D01*
Y0031464D01*
X0203817Y0031447D01*
X020385D01*
X0203867Y0031464D01*
Y0031514D01*
Y003148D02*
X02039Y0031447D01*
X02038Y0031347D02*
Y0031414D01*
X02039D01*
Y0031347D01*
X020385Y0031414D02*
Y003138D01*
X02038Y0031247D02*
Y0031314D01*
X02039D01*
Y0031247D01*
X020385Y0031314D02*
Y003128D01*
X02039Y0031214D02*
X02038D01*
X02039Y0031147D01*
X02038D01*
X02039Y0031114D02*
X0203883D01*
Y0031097D01*
X02039D01*
Y0031114D01*
X0197317Y0033633D02*
X01973Y003365D01*
Y0033683D01*
X0197317Y00337D01*
X0197333D01*
X019735Y0033683D01*
Y003365D01*
X0197367Y0033633D01*
X0197383D01*
X01974Y003365D01*
Y0033683D01*
X0197383Y00337D01*
X0197317Y0033533D02*
X01973Y003355D01*
Y0033583D01*
X0197317Y00336D01*
X0197333D01*
X019735Y0033583D01*
Y003355D01*
X0197367Y0033533D01*
X0197383D01*
X01974Y003355D01*
Y0033583D01*
X0197383Y00336D01*
X01974Y00334D02*
Y0033367D01*
Y0033383D01*
X01973D01*
X0197317Y00334D01*
Y0033317D02*
X01973Y00333D01*
Y0033267D01*
X0197317Y003325D01*
X0197383D01*
X01974Y0033267D01*
Y00333D01*
X0197383Y0033317D01*
X0197317D01*
X01974Y003315D02*
Y0033217D01*
X0197333Y003315D01*
X0197317D01*
X01973Y0033167D01*
Y00332D01*
X0197317Y0033217D01*
X01973Y003305D02*
Y0033117D01*
X019735D01*
X0197333Y0033084D01*
Y0033067D01*
X019735Y003305D01*
X0197383D01*
X01974Y0033067D01*
Y00331D01*
X0197383Y0033117D01*
X01974Y0033017D02*
Y0032984D01*
Y0033D01*
X01973D01*
X0197317Y0033017D01*
X01974Y0032867D02*
Y0032934D01*
X0197333Y0032867D01*
X0197317D01*
X01973Y0032884D01*
Y0032917D01*
X0197317Y0032934D01*
X0197417Y0032817D02*
X01974Y00328D01*
X0197383D01*
Y0032817D01*
X01974D01*
Y00328D01*
X0197417Y0032817D01*
X0197433Y0032834D01*
X01974Y0032634D02*
X0197333D01*
X01973Y00326D01*
X0197333Y0032567D01*
X01974D01*
X019735D01*
Y0032634D01*
X01973Y0032534D02*
X01974D01*
Y0032484D01*
X0197383Y0032467D01*
X0197317D01*
X01973Y0032484D01*
Y0032534D01*
Y0032434D02*
X01974D01*
Y0032384D01*
X0197383Y0032367D01*
X0197317D01*
X01973Y0032384D01*
Y0032434D01*
Y0032267D02*
Y0032334D01*
X01974D01*
Y0032267D01*
X019735Y0032334D02*
Y00323D01*
X01973Y0032234D02*
X01974D01*
Y0032184D01*
X0197383Y0032167D01*
X0197317D01*
X01973Y0032184D01*
Y0032234D01*
X0197317Y0031967D02*
X01973Y0031984D01*
Y0032017D01*
X0197317Y0032034D01*
X0197333D01*
X019735Y0032017D01*
Y0031984D01*
X0197367Y0031967D01*
X0197383D01*
X01974Y0031984D01*
Y0032017D01*
X0197383Y0032034D01*
X01973Y0031934D02*
Y0031901D01*
Y0031917D01*
X01974D01*
Y0031934D01*
Y0031901D01*
X01973Y003185D02*
X01974D01*
Y0031784D01*
X01973Y0031751D02*
X01974D01*
X0197367D01*
X01973Y0031684D01*
X019735Y0031734D01*
X01974Y0031684D01*
X0197317Y0031584D02*
X01973Y0031601D01*
Y0031634D01*
X0197317Y0031651D01*
X0197333D01*
X019735Y0031634D01*
Y0031601D01*
X0197367Y0031584D01*
X0197383D01*
X01974Y0031601D01*
Y0031634D01*
X0197383Y0031651D01*
X0197317Y0031484D02*
X01973Y0031501D01*
Y0031534D01*
X0197317Y0031551D01*
X0197383D01*
X01974Y0031534D01*
Y0031501D01*
X0197383Y0031484D01*
X01974Y0031451D02*
X01973D01*
Y0031401D01*
X0197317Y0031384D01*
X019735D01*
X0197367Y0031401D01*
Y0031451D01*
Y0031417D02*
X01974Y0031384D01*
X01973Y0031284D02*
Y0031351D01*
X01974D01*
Y0031284D01*
X019735Y0031351D02*
Y0031317D01*
X01973Y0031184D02*
Y0031251D01*
X01974D01*
Y0031184D01*
X019735Y0031251D02*
Y0031217D01*
X01974Y0031151D02*
X01973D01*
X01974Y0031084D01*
X01973D01*
X01974Y0031051D02*
X0197383D01*
Y0031034D01*
X01974D01*
Y0031051D01*
X0129192Y0015924D02*
X0129209Y001594D01*
X0129242D01*
X0129259Y0015924D01*
Y0015907D01*
X0129242Y001589D01*
X0129209D01*
X0129192Y0015874D01*
Y0015857D01*
X0129209Y001584D01*
X0129242D01*
X0129259Y0015857D01*
X0129092Y0015924D02*
X0129109Y001594D01*
X0129142D01*
X0129159Y0015924D01*
Y0015907D01*
X0129142Y001589D01*
X0129109D01*
X0129092Y0015874D01*
Y0015857D01*
X0129109Y001584D01*
X0129142D01*
X0129159Y0015857D01*
X0128959Y001584D02*
X0128926D01*
X0128943D01*
Y001594D01*
X0128959Y0015924D01*
X0128876D02*
X0128859Y001594D01*
X0128826D01*
X0128809Y0015924D01*
Y0015857D01*
X0128826Y001584D01*
X0128859D01*
X0128876Y0015857D01*
Y0015924D01*
X0128709Y001584D02*
X0128776D01*
X0128709Y0015907D01*
Y0015924D01*
X0128726Y001594D01*
X0128759D01*
X0128776Y0015924D01*
X0128609Y001594D02*
X0128676D01*
Y001589D01*
X0128643Y0015907D01*
X0128626D01*
X0128609Y001589D01*
Y0015857D01*
X0128626Y001584D01*
X0128659D01*
X0128676Y0015857D01*
X0128576Y001584D02*
X0128543D01*
X0128559D01*
Y001594D01*
X0128576Y0015924D01*
X0128426Y001584D02*
X0128493D01*
X0128426Y0015907D01*
Y0015924D01*
X0128443Y001594D01*
X0128476D01*
X0128493Y0015924D01*
X0128376Y0015823D02*
X0128359Y001584D01*
Y0015857D01*
X0128376D01*
Y001584D01*
X0128359D01*
X0128376Y0015823D01*
X0128393Y0015807D01*
X0128193Y001584D02*
Y0015907D01*
X0128159Y001594D01*
X0128126Y0015907D01*
Y001584D01*
Y001589D01*
X0128193D01*
X0128093Y001594D02*
Y001584D01*
X0128043D01*
X0128026Y0015857D01*
Y0015924D01*
X0128043Y001594D01*
X0128093D01*
X0127993D02*
Y001584D01*
X0127943D01*
X0127926Y0015857D01*
Y0015924D01*
X0127943Y001594D01*
X0127993D01*
X0127826D02*
X0127893D01*
Y001584D01*
X0127826D01*
X0127893Y001589D02*
X0127859D01*
X0127793Y001594D02*
Y001584D01*
X0127743D01*
X0127726Y0015857D01*
Y0015924D01*
X0127743Y001594D01*
X0127793D01*
X0127526Y0015924D02*
X0127543Y001594D01*
X0127576D01*
X0127593Y0015924D01*
Y0015907D01*
X0127576Y001589D01*
X0127543D01*
X0127526Y0015874D01*
Y0015857D01*
X0127543Y001584D01*
X0127576D01*
X0127593Y0015857D01*
X0127493Y001594D02*
X012746D01*
X0127476D01*
Y001584D01*
X0127493D01*
X012746D01*
X012741Y001594D02*
Y001584D01*
X0127343D01*
X012731Y001594D02*
Y001584D01*
Y0015874D01*
X0127243Y001594D01*
X0127293Y001589D01*
X0127243Y001584D01*
X0127143Y0015924D02*
X012716Y001594D01*
X0127193D01*
X012721Y0015924D01*
Y0015907D01*
X0127193Y001589D01*
X012716D01*
X0127143Y0015874D01*
Y0015857D01*
X012716Y001584D01*
X0127193D01*
X012721Y0015857D01*
X0127043Y0015924D02*
X012706Y001594D01*
X0127093D01*
X012711Y0015924D01*
Y0015857D01*
X0127093Y001584D01*
X012706D01*
X0127043Y0015857D01*
X012701Y001584D02*
Y001594D01*
X012696D01*
X0126943Y0015924D01*
Y001589D01*
X012696Y0015874D01*
X012701D01*
X0126976D02*
X0126943Y001584D01*
X0126843Y001594D02*
X012691D01*
Y001584D01*
X0126843D01*
X012691Y001589D02*
X0126876D01*
X0126743Y001594D02*
X012681D01*
Y001584D01*
X0126743D01*
X012681Y001589D02*
X0126777D01*
X012671Y001584D02*
Y001594D01*
X0126643Y001584D01*
Y001594D01*
X012661Y001584D02*
Y0015857D01*
X0126593D01*
Y001584D01*
X012661D01*
X0191951Y0040454D02*
X0191968Y0040437D01*
Y0040404D01*
X0191951Y0040387D01*
X0191934D01*
X0191918Y0040404D01*
Y0040437D01*
X0191901Y0040454D01*
X0191884D01*
X0191868Y0040437D01*
Y0040404D01*
X0191884Y0040387D01*
X0191951Y0040554D02*
X0191968Y0040538D01*
Y0040504D01*
X0191951Y0040488D01*
X0191934D01*
X0191918Y0040504D01*
Y0040538D01*
X0191901Y0040554D01*
X0191884D01*
X0191868Y0040538D01*
Y0040504D01*
X0191884Y0040488D01*
X0191868Y0040688D02*
Y0040721D01*
Y0040704D01*
X0191968D01*
X0191951Y0040688D01*
Y0040771D02*
X0191968Y0040787D01*
Y0040821D01*
X0191951Y0040837D01*
X0191884D01*
X0191868Y0040821D01*
Y0040787D01*
X0191884Y0040771D01*
X0191951D01*
X0191868Y0040937D02*
Y0040871D01*
X0191934Y0040937D01*
X0191951D01*
X0191968Y0040921D01*
Y0040887D01*
X0191951Y0040871D01*
X0191968Y0041037D02*
Y0040971D01*
X0191918D01*
X0191934Y0041004D01*
Y0041021D01*
X0191918Y0041037D01*
X0191884D01*
X0191868Y0041021D01*
Y0040987D01*
X0191884Y0040971D01*
X0191868Y0041071D02*
Y0041104D01*
Y0041087D01*
X0191968D01*
X0191951Y0041071D01*
X0191868Y0041221D02*
Y0041154D01*
X0191934Y0041221D01*
X0191951D01*
X0191968Y0041204D01*
Y0041171D01*
X0191951Y0041154D01*
X0191851Y0041271D02*
X0191868Y0041287D01*
X0191884D01*
Y0041271D01*
X0191868D01*
Y0041287D01*
X0191851Y0041271D01*
X0191834Y0041254D01*
X0191868Y0041454D02*
X0191934D01*
X0191968Y0041487D01*
X0191934Y0041521D01*
X0191868D01*
X0191918D01*
Y0041454D01*
X0191968Y0041554D02*
X0191868D01*
Y0041604D01*
X0191884Y004162D01*
X0191951D01*
X0191968Y0041604D01*
Y0041554D01*
Y0041654D02*
X0191868D01*
Y0041704D01*
X0191884Y0041721D01*
X0191951D01*
X0191968Y0041704D01*
Y0041654D01*
Y004182D02*
Y0041754D01*
X0191868D01*
Y004182D01*
X0191918Y0041754D02*
Y0041787D01*
X0191968Y0041854D02*
X0191868D01*
Y0041904D01*
X0191884Y004192D01*
X0191951D01*
X0191968Y0041904D01*
Y0041854D01*
X0191951Y004212D02*
X0191968Y0042104D01*
Y004207D01*
X0191951Y0042054D01*
X0191934D01*
X0191918Y004207D01*
Y0042104D01*
X0191901Y004212D01*
X0191884D01*
X0191868Y0042104D01*
Y004207D01*
X0191884Y0042054D01*
X0191968Y0042154D02*
Y0042187D01*
Y004217D01*
X0191868D01*
Y0042154D01*
Y0042187D01*
X0191968Y0042237D02*
X0191868D01*
Y0042304D01*
X0191968Y0042337D02*
X0191868D01*
X0191901D01*
X0191968Y0042404D01*
X0191918Y0042354D01*
X0191868Y0042404D01*
X0191951Y0042504D02*
X0191968Y0042487D01*
Y0042454D01*
X0191951Y0042437D01*
X0191934D01*
X0191918Y0042454D01*
Y0042487D01*
X0191901Y0042504D01*
X0191884D01*
X0191868Y0042487D01*
Y0042454D01*
X0191884Y0042437D01*
X0191951Y0042604D02*
X0191968Y0042587D01*
Y0042554D01*
X0191951Y0042537D01*
X0191884D01*
X0191868Y0042554D01*
Y0042587D01*
X0191884Y0042604D01*
X0191868Y0042637D02*
X0191968D01*
Y0042687D01*
X0191951Y0042704D01*
X0191918D01*
X0191901Y0042687D01*
Y0042637D01*
Y004267D02*
X0191868Y0042704D01*
X0191968Y0042803D02*
Y0042737D01*
X0191868D01*
Y0042803D01*
X0191918Y0042737D02*
Y004277D01*
X0191968Y0042904D02*
Y0042837D01*
X0191868D01*
Y0042904D01*
X0191918Y0042837D02*
Y004287D01*
X0191868Y0042937D02*
X0191968D01*
X0191868Y0043003D01*
X0191968D01*
X0191868Y0043037D02*
X0191884D01*
Y0043053D01*
X0191868D01*
Y0043037D01*
X0216557Y0022367D02*
X0216574Y002235D01*
Y0022317D01*
X0216557Y00223D01*
X0216541D01*
X0216524Y0022317D01*
Y002235D01*
X0216507Y0022367D01*
X0216491D01*
X0216474Y002235D01*
Y0022317D01*
X0216491Y00223D01*
X0216557Y0022467D02*
X0216574Y002245D01*
Y0022417D01*
X0216557Y00224D01*
X0216541D01*
X0216524Y0022417D01*
Y002245D01*
X0216507Y0022467D01*
X0216491D01*
X0216474Y002245D01*
Y0022417D01*
X0216491Y00224D01*
X0216474Y00226D02*
Y0022633D01*
Y0022617D01*
X0216574D01*
X0216557Y00226D01*
Y0022683D02*
X0216574Y00227D01*
Y0022733D01*
X0216557Y002275D01*
X0216491D01*
X0216474Y0022733D01*
Y00227D01*
X0216491Y0022683D01*
X0216557D01*
X0216474Y002285D02*
Y0022783D01*
X0216541Y002285D01*
X0216557D01*
X0216574Y0022833D01*
Y00228D01*
X0216557Y0022783D01*
X0216574Y002295D02*
Y0022883D01*
X0216524D01*
X0216541Y0022917D01*
Y0022933D01*
X0216524Y002295D01*
X0216491D01*
X0216474Y0022933D01*
Y00229D01*
X0216491Y0022883D01*
X0216474Y0022983D02*
Y0023017D01*
Y0023D01*
X0216574D01*
X0216557Y0022983D01*
X0216474Y0023133D02*
Y0023066D01*
X0216541Y0023133D01*
X0216557D01*
X0216574Y0023116D01*
Y0023083D01*
X0216557Y0023066D01*
X0216457Y0023183D02*
X0216474Y00232D01*
X0216491D01*
Y0023183D01*
X0216474D01*
Y00232D01*
X0216457Y0023183D01*
X0216441Y0023166D01*
X0216474Y0023366D02*
X0216541D01*
X0216574Y00234D01*
X0216541Y0023433D01*
X0216474D01*
X0216524D01*
Y0023366D01*
X0216574Y0023466D02*
X0216474D01*
Y0023516D01*
X0216491Y0023533D01*
X0216557D01*
X0216574Y0023516D01*
Y0023466D01*
Y0023566D02*
X0216474D01*
Y0023616D01*
X0216491Y0023633D01*
X0216557D01*
X0216574Y0023616D01*
Y0023566D01*
Y0023733D02*
Y0023666D01*
X0216474D01*
Y0023733D01*
X0216524Y0023666D02*
Y00237D01*
X0216574Y0023766D02*
X0216474D01*
Y0023816D01*
X0216491Y0023833D01*
X0216557D01*
X0216574Y0023816D01*
Y0023766D01*
X0216557Y0024033D02*
X0216574Y0024016D01*
Y0023983D01*
X0216557Y0023966D01*
X0216541D01*
X0216524Y0023983D01*
Y0024016D01*
X0216507Y0024033D01*
X0216491D01*
X0216474Y0024016D01*
Y0023983D01*
X0216491Y0023966D01*
X0216574Y0024066D02*
Y00241D01*
Y0024083D01*
X0216474D01*
Y0024066D01*
Y00241D01*
X0216574Y0024149D02*
X0216474D01*
Y0024216D01*
X0216574Y0024249D02*
X0216474D01*
X0216507D01*
X0216574Y0024316D01*
X0216524Y0024266D01*
X0216474Y0024316D01*
X0216557Y0024416D02*
X0216574Y0024399D01*
Y0024366D01*
X0216557Y0024349D01*
X0216541D01*
X0216524Y0024366D01*
Y0024399D01*
X0216507Y0024416D01*
X0216491D01*
X0216474Y0024399D01*
Y0024366D01*
X0216491Y0024349D01*
X0216557Y0024516D02*
X0216574Y0024499D01*
Y0024466D01*
X0216557Y0024449D01*
X0216491D01*
X0216474Y0024466D01*
Y0024499D01*
X0216491Y0024516D01*
X0216474Y0024549D02*
X0216574D01*
Y0024599D01*
X0216557Y0024616D01*
X0216524D01*
X0216507Y0024599D01*
Y0024549D01*
Y0024583D02*
X0216474Y0024616D01*
X0216574Y0024716D02*
Y0024649D01*
X0216474D01*
Y0024716D01*
X0216524Y0024649D02*
Y0024683D01*
X0216574Y0024816D02*
Y0024749D01*
X0216474D01*
Y0024816D01*
X0216524Y0024749D02*
Y0024783D01*
X0216474Y0024849D02*
X0216574D01*
X0216474Y0024916D01*
X0216574D01*
X0216474Y0024949D02*
X0216491D01*
Y0024966D01*
X0216474D01*
Y0024949D01*
X0222246Y0022367D02*
X0222263Y002235D01*
Y0022317D01*
X0222246Y00223D01*
X022223D01*
X0222213Y0022317D01*
Y002235D01*
X0222196Y0022367D01*
X022218D01*
X0222163Y002235D01*
Y0022317D01*
X022218Y00223D01*
X0222246Y0022467D02*
X0222263Y002245D01*
Y0022417D01*
X0222246Y00224D01*
X022223D01*
X0222213Y0022417D01*
Y002245D01*
X0222196Y0022467D01*
X022218D01*
X0222163Y002245D01*
Y0022417D01*
X022218Y00224D01*
X0222163Y00226D02*
Y0022633D01*
Y0022617D01*
X0222263D01*
X0222246Y00226D01*
Y0022683D02*
X0222263Y00227D01*
Y0022733D01*
X0222246Y002275D01*
X022218D01*
X0222163Y0022733D01*
Y00227D01*
X022218Y0022683D01*
X0222246D01*
X0222163Y002285D02*
Y0022783D01*
X022223Y002285D01*
X0222246D01*
X0222263Y0022833D01*
Y00228D01*
X0222246Y0022783D01*
X0222263Y002295D02*
Y0022883D01*
X0222213D01*
X022223Y0022917D01*
Y0022933D01*
X0222213Y002295D01*
X022218D01*
X0222163Y0022933D01*
Y00229D01*
X022218Y0022883D01*
X0222163Y0022983D02*
Y0023017D01*
Y0023D01*
X0222263D01*
X0222246Y0022983D01*
X0222163Y0023133D02*
Y0023066D01*
X022223Y0023133D01*
X0222246D01*
X0222263Y0023116D01*
Y0023083D01*
X0222246Y0023066D01*
X0222146Y0023183D02*
X0222163Y00232D01*
X022218D01*
Y0023183D01*
X0222163D01*
Y00232D01*
X0222146Y0023183D01*
X022213Y0023166D01*
X0222163Y0023366D02*
X022223D01*
X0222263Y00234D01*
X022223Y0023433D01*
X0222163D01*
X0222213D01*
Y0023366D01*
X0222263Y0023466D02*
X0222163D01*
Y0023516D01*
X022218Y0023533D01*
X0222246D01*
X0222263Y0023516D01*
Y0023466D01*
Y0023566D02*
X0222163D01*
Y0023616D01*
X022218Y0023633D01*
X0222246D01*
X0222263Y0023616D01*
Y0023566D01*
Y0023733D02*
Y0023666D01*
X0222163D01*
Y0023733D01*
X0222213Y0023666D02*
Y00237D01*
X0222263Y0023766D02*
X0222163D01*
Y0023816D01*
X022218Y0023833D01*
X0222246D01*
X0222263Y0023816D01*
Y0023766D01*
X0222246Y0024033D02*
X0222263Y0024016D01*
Y0023983D01*
X0222246Y0023966D01*
X022223D01*
X0222213Y0023983D01*
Y0024016D01*
X0222196Y0024033D01*
X022218D01*
X0222163Y0024016D01*
Y0023983D01*
X022218Y0023966D01*
X0222263Y0024066D02*
Y00241D01*
Y0024083D01*
X0222163D01*
Y0024066D01*
Y00241D01*
X0222263Y0024149D02*
X0222163D01*
Y0024216D01*
X0222263Y0024249D02*
X0222163D01*
X0222196D01*
X0222263Y0024316D01*
X0222213Y0024266D01*
X0222163Y0024316D01*
X0222246Y0024416D02*
X0222263Y0024399D01*
Y0024366D01*
X0222246Y0024349D01*
X022223D01*
X0222213Y0024366D01*
Y0024399D01*
X0222196Y0024416D01*
X022218D01*
X0222163Y0024399D01*
Y0024366D01*
X022218Y0024349D01*
X0222246Y0024516D02*
X0222263Y0024499D01*
Y0024466D01*
X0222246Y0024449D01*
X022218D01*
X0222163Y0024466D01*
Y0024499D01*
X022218Y0024516D01*
X0222163Y0024549D02*
X0222263D01*
Y0024599D01*
X0222246Y0024616D01*
X0222213D01*
X0222196Y0024599D01*
Y0024549D01*
Y0024583D02*
X0222163Y0024616D01*
X0222263Y0024716D02*
Y0024649D01*
X0222163D01*
Y0024716D01*
X0222213Y0024649D02*
Y0024683D01*
X0222263Y0024816D02*
Y0024749D01*
X0222163D01*
Y0024816D01*
X0222213Y0024749D02*
Y0024783D01*
X0222163Y0024849D02*
X0222263D01*
X0222163Y0024916D01*
X0222263D01*
X0222163Y0024949D02*
X022218D01*
Y0024966D01*
X0222163D01*
Y0024949D01*
X0139804Y0150817D02*
X0139787Y01508D01*
X0139754D01*
X0139737Y0150817D01*
Y0150833D01*
X0139754Y015085D01*
X0139787D01*
X0139804Y0150867D01*
Y0150883D01*
X0139787Y01509D01*
X0139754D01*
X0139737Y0150883D01*
X0139904Y0150817D02*
X0139887Y01508D01*
X0139854D01*
X0139837Y0150817D01*
Y0150833D01*
X0139854Y015085D01*
X0139887D01*
X0139904Y0150867D01*
Y0150883D01*
X0139887Y01509D01*
X0139854D01*
X0139837Y0150883D01*
X0140037Y01509D02*
X014007D01*
X0140054D01*
Y01508D01*
X0140037Y0150817D01*
X014012D02*
X0140137Y01508D01*
X014017D01*
X0140187Y0150817D01*
Y0150883D01*
X014017Y01509D01*
X0140137D01*
X014012Y0150883D01*
Y0150817D01*
X0140287Y01509D02*
X014022D01*
X0140287Y0150833D01*
Y0150817D01*
X014027Y01508D01*
X0140237D01*
X014022Y0150817D01*
X0140387Y01508D02*
X014032D01*
Y015085D01*
X0140354Y0150833D01*
X014037D01*
X0140387Y015085D01*
Y0150883D01*
X014037Y01509D01*
X0140337D01*
X014032Y0150883D01*
X014042Y01509D02*
X0140453D01*
X0140437D01*
Y01508D01*
X014042Y0150817D01*
X014057Y01509D02*
X0140503D01*
X014057Y0150833D01*
Y0150817D01*
X0140553Y01508D01*
X014052D01*
X0140503Y0150817D01*
X014062Y0150917D02*
X0140637Y01509D01*
Y0150883D01*
X014062D01*
Y01509D01*
X0140637D01*
X014062Y0150917D01*
X0140603Y0150933D01*
X0140803Y01509D02*
Y0150833D01*
X0140837Y01508D01*
X014087Y0150833D01*
Y01509D01*
Y015085D01*
X0140803D01*
X0140903Y01508D02*
Y01509D01*
X0140953D01*
X014097Y0150883D01*
Y0150817D01*
X0140953Y01508D01*
X0140903D01*
X0141003D02*
Y01509D01*
X0141053D01*
X014107Y0150883D01*
Y0150817D01*
X0141053Y01508D01*
X0141003D01*
X014117D02*
X0141103D01*
Y01509D01*
X014117D01*
X0141103Y015085D02*
X0141137D01*
X0141203Y01508D02*
Y01509D01*
X0141253D01*
X014127Y0150883D01*
Y0150817D01*
X0141253Y01508D01*
X0141203D01*
X014147Y0150817D02*
X0141453Y01508D01*
X014142D01*
X0141403Y0150817D01*
Y0150833D01*
X014142Y015085D01*
X0141453D01*
X014147Y0150867D01*
Y0150883D01*
X0141453Y01509D01*
X014142D01*
X0141403Y0150883D01*
X0141503Y01508D02*
X0141536D01*
X014152D01*
Y01509D01*
X0141503D01*
X0141536D01*
X0141586Y01508D02*
Y01509D01*
X0141653D01*
X0141686Y01508D02*
Y01509D01*
Y0150867D01*
X0141753Y01508D01*
X0141703Y015085D01*
X0141753Y01509D01*
X0141853Y0150817D02*
X0141836Y01508D01*
X0141803D01*
X0141786Y0150817D01*
Y0150833D01*
X0141803Y015085D01*
X0141836D01*
X0141853Y0150867D01*
Y0150883D01*
X0141836Y01509D01*
X0141803D01*
X0141786Y0150883D01*
X0141953Y0150817D02*
X0141936Y01508D01*
X0141903D01*
X0141886Y0150817D01*
Y0150883D01*
X0141903Y01509D01*
X0141936D01*
X0141953Y0150883D01*
X0141986Y01509D02*
Y01508D01*
X0142036D01*
X0142053Y0150817D01*
Y015085D01*
X0142036Y0150867D01*
X0141986D01*
X014202D02*
X0142053Y01509D01*
X0142153Y01508D02*
X0142086D01*
Y01509D01*
X0142153D01*
X0142086Y015085D02*
X014212D01*
X0142253Y01508D02*
X0142186D01*
Y01509D01*
X0142253D01*
X0142186Y015085D02*
X014222D01*
X0142286Y01509D02*
Y01508D01*
X0142353Y01509D01*
Y01508D01*
X0142386Y01509D02*
Y0150883D01*
X0142403D01*
Y01509D01*
X0142386D01*
X0139804Y0157817D02*
X0139787Y01578D01*
X0139754D01*
X0139737Y0157817D01*
Y0157833D01*
X0139754Y015785D01*
X0139787D01*
X0139804Y0157867D01*
Y0157883D01*
X0139787Y01579D01*
X0139754D01*
X0139737Y0157883D01*
X0139904Y0157817D02*
X0139887Y01578D01*
X0139854D01*
X0139837Y0157817D01*
Y0157833D01*
X0139854Y015785D01*
X0139887D01*
X0139904Y0157867D01*
Y0157883D01*
X0139887Y01579D01*
X0139854D01*
X0139837Y0157883D01*
X0140037Y01579D02*
X014007D01*
X0140054D01*
Y01578D01*
X0140037Y0157817D01*
X014012D02*
X0140137Y01578D01*
X014017D01*
X0140187Y0157817D01*
Y0157883D01*
X014017Y01579D01*
X0140137D01*
X014012Y0157883D01*
Y0157817D01*
X0140287Y01579D02*
X014022D01*
X0140287Y0157833D01*
Y0157817D01*
X014027Y01578D01*
X0140237D01*
X014022Y0157817D01*
X0140387Y01578D02*
X014032D01*
Y015785D01*
X0140354Y0157833D01*
X014037D01*
X0140387Y015785D01*
Y0157883D01*
X014037Y01579D01*
X0140337D01*
X014032Y0157883D01*
X014042Y01579D02*
X0140453D01*
X0140437D01*
Y01578D01*
X014042Y0157817D01*
X014057Y01579D02*
X0140503D01*
X014057Y0157833D01*
Y0157817D01*
X0140553Y01578D01*
X014052D01*
X0140503Y0157817D01*
X014062Y0157917D02*
X0140637Y01579D01*
Y0157883D01*
X014062D01*
Y01579D01*
X0140637D01*
X014062Y0157917D01*
X0140603Y0157933D01*
X0140803Y01579D02*
Y0157833D01*
X0140837Y01578D01*
X014087Y0157833D01*
Y01579D01*
Y015785D01*
X0140803D01*
X0140903Y01578D02*
Y01579D01*
X0140953D01*
X014097Y0157883D01*
Y0157817D01*
X0140953Y01578D01*
X0140903D01*
X0141003D02*
Y01579D01*
X0141053D01*
X014107Y0157883D01*
Y0157817D01*
X0141053Y01578D01*
X0141003D01*
X014117D02*
X0141103D01*
Y01579D01*
X014117D01*
X0141103Y015785D02*
X0141137D01*
X0141203Y01578D02*
Y01579D01*
X0141253D01*
X014127Y0157883D01*
Y0157817D01*
X0141253Y01578D01*
X0141203D01*
X014147Y0157817D02*
X0141453Y01578D01*
X014142D01*
X0141403Y0157817D01*
Y0157833D01*
X014142Y015785D01*
X0141453D01*
X014147Y0157867D01*
Y0157883D01*
X0141453Y01579D01*
X014142D01*
X0141403Y0157883D01*
X0141503Y01578D02*
X0141536D01*
X014152D01*
Y01579D01*
X0141503D01*
X0141536D01*
X0141586Y01578D02*
Y01579D01*
X0141653D01*
X0141686Y01578D02*
Y01579D01*
Y0157867D01*
X0141753Y01578D01*
X0141703Y015785D01*
X0141753Y01579D01*
X0141853Y0157817D02*
X0141836Y01578D01*
X0141803D01*
X0141786Y0157817D01*
Y0157833D01*
X0141803Y015785D01*
X0141836D01*
X0141853Y0157867D01*
Y0157883D01*
X0141836Y01579D01*
X0141803D01*
X0141786Y0157883D01*
X0141953Y0157817D02*
X0141936Y01578D01*
X0141903D01*
X0141886Y0157817D01*
Y0157883D01*
X0141903Y01579D01*
X0141936D01*
X0141953Y0157883D01*
X0141986Y01579D02*
Y01578D01*
X0142036D01*
X0142053Y0157817D01*
Y015785D01*
X0142036Y0157867D01*
X0141986D01*
X014202D02*
X0142053Y01579D01*
X0142153Y01578D02*
X0142086D01*
Y01579D01*
X0142153D01*
X0142086Y015785D02*
X014212D01*
X0142253Y01578D02*
X0142186D01*
Y01579D01*
X0142253D01*
X0142186Y015785D02*
X014222D01*
X0142286Y01579D02*
Y01578D01*
X0142353Y01579D01*
Y01578D01*
X0142386Y01579D02*
Y0157883D01*
X0142403D01*
Y01579D01*
X0142386D01*
X0359267Y0082617D02*
X035925Y00826D01*
X0359217D01*
X03592Y0082617D01*
Y0082633D01*
X0359217Y008265D01*
X035925D01*
X0359267Y0082667D01*
Y0082683D01*
X035925Y00827D01*
X0359217D01*
X03592Y0082683D01*
X0359367Y0082617D02*
X035935Y00826D01*
X0359317D01*
X03593Y0082617D01*
Y0082633D01*
X0359317Y008265D01*
X035935D01*
X0359367Y0082667D01*
Y0082683D01*
X035935Y00827D01*
X0359317D01*
X03593Y0082683D01*
X03595Y00827D02*
X0359533D01*
X0359517D01*
Y00826D01*
X03595Y0082617D01*
X0359583D02*
X03596Y00826D01*
X0359633D01*
X035965Y0082617D01*
Y0082683D01*
X0359633Y00827D01*
X03596D01*
X0359583Y0082683D01*
Y0082617D01*
X035975Y00827D02*
X0359683D01*
X035975Y0082633D01*
Y0082617D01*
X0359733Y00826D01*
X03597D01*
X0359683Y0082617D01*
X035985Y00826D02*
X0359783D01*
Y008265D01*
X0359817Y0082633D01*
X0359833D01*
X035985Y008265D01*
Y0082683D01*
X0359833Y00827D01*
X03598D01*
X0359783Y0082683D01*
X0359883Y00827D02*
X0359916D01*
X03599D01*
Y00826D01*
X0359883Y0082617D01*
X0360033Y00827D02*
X0359966D01*
X0360033Y0082633D01*
Y0082617D01*
X0360016Y00826D01*
X0359983D01*
X0359966Y0082617D01*
X0360083Y0082717D02*
X03601Y00827D01*
Y0082683D01*
X0360083D01*
Y00827D01*
X03601D01*
X0360083Y0082717D01*
X0360066Y0082733D01*
X0360266Y00827D02*
Y0082633D01*
X03603Y00826D01*
X0360333Y0082633D01*
Y00827D01*
Y008265D01*
X0360266D01*
X0360366Y00826D02*
Y00827D01*
X0360416D01*
X0360433Y0082683D01*
Y0082617D01*
X0360416Y00826D01*
X0360366D01*
X0360466D02*
Y00827D01*
X0360516D01*
X0360533Y0082683D01*
Y0082617D01*
X0360516Y00826D01*
X0360466D01*
X0360633D02*
X0360566D01*
Y00827D01*
X0360633D01*
X0360566Y008265D02*
X03606D01*
X0360666Y00826D02*
Y00827D01*
X0360716D01*
X0360733Y0082683D01*
Y0082617D01*
X0360716Y00826D01*
X0360666D01*
X0360933Y0082617D02*
X0360916Y00826D01*
X0360883D01*
X0360866Y0082617D01*
Y0082633D01*
X0360883Y008265D01*
X0360916D01*
X0360933Y0082667D01*
Y0082683D01*
X0360916Y00827D01*
X0360883D01*
X0360866Y0082683D01*
X0360966Y00826D02*
X0360999D01*
X0360983D01*
Y00827D01*
X0360966D01*
X0360999D01*
X0361049Y00826D02*
Y00827D01*
X0361116D01*
X0361149Y00826D02*
Y00827D01*
Y0082667D01*
X0361216Y00826D01*
X0361166Y008265D01*
X0361216Y00827D01*
X0361316Y0082617D02*
X0361299Y00826D01*
X0361266D01*
X0361249Y0082617D01*
Y0082633D01*
X0361266Y008265D01*
X0361299D01*
X0361316Y0082667D01*
Y0082683D01*
X0361299Y00827D01*
X0361266D01*
X0361249Y0082683D01*
X0361416Y0082617D02*
X0361399Y00826D01*
X0361366D01*
X0361349Y0082617D01*
Y0082683D01*
X0361366Y00827D01*
X0361399D01*
X0361416Y0082683D01*
X0361449Y00827D02*
Y00826D01*
X0361499D01*
X0361516Y0082617D01*
Y008265D01*
X0361499Y0082667D01*
X0361449D01*
X0361483D02*
X0361516Y00827D01*
X0361616Y00826D02*
X0361549D01*
Y00827D01*
X0361616D01*
X0361549Y008265D02*
X0361583D01*
X0361716Y00826D02*
X0361649D01*
Y00827D01*
X0361716D01*
X0361649Y008265D02*
X0361683D01*
X0361749Y00827D02*
Y00826D01*
X0361816Y00827D01*
Y00826D01*
X0361849Y00827D02*
Y0082683D01*
X0361866D01*
Y00827D01*
X0361849D01*
X0387317Y0087487D02*
X03873Y0087504D01*
Y0087537D01*
X0387317Y0087554D01*
X0387333D01*
X038735Y0087537D01*
Y0087504D01*
X0387367Y0087487D01*
X0387383D01*
X03874Y0087504D01*
Y0087537D01*
X0387383Y0087554D01*
X0387317Y0087387D02*
X03873Y0087404D01*
Y0087437D01*
X0387317Y0087454D01*
X0387333D01*
X038735Y0087437D01*
Y0087404D01*
X0387367Y0087387D01*
X0387383D01*
X03874Y0087404D01*
Y0087437D01*
X0387383Y0087454D01*
X03874Y0087254D02*
Y008722D01*
Y0087237D01*
X03873D01*
X0387317Y0087254D01*
Y008717D02*
X03873Y0087154D01*
Y008712D01*
X0387317Y0087104D01*
X0387383D01*
X03874Y008712D01*
Y0087154D01*
X0387383Y008717D01*
X0387317D01*
X03874Y0087004D02*
Y008707D01*
X0387333Y0087004D01*
X0387317D01*
X03873Y008702D01*
Y0087054D01*
X0387317Y008707D01*
X03873Y0086904D02*
Y008697D01*
X038735D01*
X0387333Y0086937D01*
Y008692D01*
X038735Y0086904D01*
X0387383D01*
X03874Y008692D01*
Y0086954D01*
X0387383Y008697D01*
X03874Y008687D02*
Y0086837D01*
Y0086854D01*
X03873D01*
X0387317Y008687D01*
X03874Y0086721D02*
Y0086787D01*
X0387333Y0086721D01*
X0387317D01*
X03873Y0086737D01*
Y008677D01*
X0387317Y0086787D01*
X0387417Y0086671D02*
X03874Y0086654D01*
X0387383D01*
Y0086671D01*
X03874D01*
Y0086654D01*
X0387417Y0086671D01*
X0387433Y0086687D01*
X03874Y0086487D02*
X0387333D01*
X03873Y0086454D01*
X0387333Y0086421D01*
X03874D01*
X038735D01*
Y0086487D01*
X03873Y0086387D02*
X03874D01*
Y0086337D01*
X0387383Y0086321D01*
X0387317D01*
X03873Y0086337D01*
Y0086387D01*
Y0086287D02*
X03874D01*
Y0086237D01*
X0387383Y0086221D01*
X0387317D01*
X03873Y0086237D01*
Y0086287D01*
Y0086121D02*
Y0086187D01*
X03874D01*
Y0086121D01*
X038735Y0086187D02*
Y0086154D01*
X03873Y0086087D02*
X03874D01*
Y0086037D01*
X0387383Y0086021D01*
X0387317D01*
X03873Y0086037D01*
Y0086087D01*
X0387317Y0085821D02*
X03873Y0085837D01*
Y0085871D01*
X0387317Y0085887D01*
X0387333D01*
X038735Y0085871D01*
Y0085837D01*
X0387367Y0085821D01*
X0387383D01*
X03874Y0085837D01*
Y0085871D01*
X0387383Y0085887D01*
X03873Y0085787D02*
Y0085754D01*
Y0085771D01*
X03874D01*
Y0085787D01*
Y0085754D01*
X03873Y0085704D02*
X03874D01*
Y0085637D01*
X03873Y0085604D02*
X03874D01*
X0387367D01*
X03873Y0085537D01*
X038735Y0085588D01*
X03874Y0085537D01*
X0387317Y0085438D02*
X03873Y0085454D01*
Y0085488D01*
X0387317Y0085504D01*
X0387333D01*
X038735Y0085488D01*
Y0085454D01*
X0387367Y0085438D01*
X0387383D01*
X03874Y0085454D01*
Y0085488D01*
X0387383Y0085504D01*
X0387317Y0085338D02*
X03873Y0085354D01*
Y0085387D01*
X0387317Y0085404D01*
X0387383D01*
X03874Y0085387D01*
Y0085354D01*
X0387383Y0085338D01*
X03874Y0085304D02*
X03873D01*
Y0085254D01*
X0387317Y0085238D01*
X038735D01*
X0387367Y0085254D01*
Y0085304D01*
Y0085271D02*
X03874Y0085238D01*
X03873Y0085138D02*
Y0085204D01*
X03874D01*
Y0085138D01*
X038735Y0085204D02*
Y0085171D01*
X03873Y0085038D02*
Y0085104D01*
X03874D01*
Y0085038D01*
X038735Y0085104D02*
Y0085071D01*
X03874Y0085004D02*
X03873D01*
X03874Y0084938D01*
X03873D01*
X03874Y0084904D02*
X0387383D01*
Y0084888D01*
X03874D01*
Y0084904D01*
X0152183Y0298867D02*
X01522Y029885D01*
Y0298817D01*
X0152183Y02988D01*
X0152167D01*
X015215Y0298817D01*
Y029885D01*
X0152133Y0298867D01*
X0152117D01*
X01521Y029885D01*
Y0298817D01*
X0152117Y02988D01*
X0152183Y0298967D02*
X01522Y029895D01*
Y0298917D01*
X0152183Y02989D01*
X0152167D01*
X015215Y0298917D01*
Y029895D01*
X0152133Y0298967D01*
X0152117D01*
X01521Y029895D01*
Y0298917D01*
X0152117Y02989D01*
X01521Y02991D02*
Y0299133D01*
Y0299117D01*
X01522D01*
X0152183Y02991D01*
Y0299183D02*
X01522Y02992D01*
Y0299233D01*
X0152183Y029925D01*
X0152117D01*
X01521Y0299233D01*
Y02992D01*
X0152117Y0299183D01*
X0152183D01*
X01521Y029935D02*
Y0299283D01*
X0152167Y029935D01*
X0152183D01*
X01522Y0299333D01*
Y02993D01*
X0152183Y0299283D01*
X01522Y029945D02*
Y0299383D01*
X015215D01*
X0152167Y0299416D01*
Y0299433D01*
X015215Y029945D01*
X0152117D01*
X01521Y0299433D01*
Y02994D01*
X0152117Y0299383D01*
X01521Y0299483D02*
Y0299516D01*
Y02995D01*
X01522D01*
X0152183Y0299483D01*
X01521Y0299633D02*
Y0299566D01*
X0152167Y0299633D01*
X0152183D01*
X01522Y0299616D01*
Y0299583D01*
X0152183Y0299566D01*
X0152083Y0299683D02*
X01521Y02997D01*
X0152117D01*
Y0299683D01*
X01521D01*
Y02997D01*
X0152083Y0299683D01*
X0152067Y0299666D01*
X01521Y0299866D02*
X0152167D01*
X01522Y02999D01*
X0152167Y0299933D01*
X01521D01*
X015215D01*
Y0299866D01*
X01522Y0299966D02*
X01521D01*
Y0300016D01*
X0152117Y0300033D01*
X0152183D01*
X01522Y0300016D01*
Y0299966D01*
Y0300066D02*
X01521D01*
Y0300116D01*
X0152117Y0300133D01*
X0152183D01*
X01522Y0300116D01*
Y0300066D01*
Y0300233D02*
Y0300166D01*
X01521D01*
Y0300233D01*
X015215Y0300166D02*
Y03002D01*
X01522Y0300266D02*
X01521D01*
Y0300316D01*
X0152117Y0300333D01*
X0152183D01*
X01522Y0300316D01*
Y0300266D01*
X0152183Y0300533D02*
X01522Y0300516D01*
Y0300483D01*
X0152183Y0300466D01*
X0152167D01*
X015215Y0300483D01*
Y0300516D01*
X0152133Y0300533D01*
X0152117D01*
X01521Y0300516D01*
Y0300483D01*
X0152117Y0300466D01*
X01522Y0300566D02*
Y03006D01*
Y0300583D01*
X01521D01*
Y0300566D01*
Y03006D01*
X01522Y0300649D02*
X01521D01*
Y0300716D01*
X01522Y0300749D02*
X01521D01*
X0152133D01*
X01522Y0300816D01*
X015215Y0300766D01*
X01521Y0300816D01*
X0152183Y0300916D02*
X01522Y0300899D01*
Y0300866D01*
X0152183Y0300849D01*
X0152167D01*
X015215Y0300866D01*
Y0300899D01*
X0152133Y0300916D01*
X0152117D01*
X01521Y0300899D01*
Y0300866D01*
X0152117Y0300849D01*
X0152183Y0301016D02*
X01522Y0300999D01*
Y0300966D01*
X0152183Y0300949D01*
X0152117D01*
X01521Y0300966D01*
Y0300999D01*
X0152117Y0301016D01*
X01521Y0301049D02*
X01522D01*
Y0301099D01*
X0152183Y0301116D01*
X015215D01*
X0152133Y0301099D01*
Y0301049D01*
Y0301083D02*
X01521Y0301116D01*
X01522Y0301216D02*
Y0301149D01*
X01521D01*
Y0301216D01*
X015215Y0301149D02*
Y0301183D01*
X01522Y0301316D02*
Y0301249D01*
X01521D01*
Y0301316D01*
X015215Y0301249D02*
Y0301283D01*
X01521Y0301349D02*
X01522D01*
X01521Y0301416D01*
X01522D01*
X01521Y0301449D02*
X0152117D01*
Y0301466D01*
X01521D01*
Y0301449D01*
X03432Y0049363D02*
Y0049463D01*
Y0049413D01*
X0343267D01*
Y0049363D01*
Y0049463D01*
X03433Y0049363D02*
X0343333D01*
X0343317D01*
Y0049463D01*
X03433D01*
X0343333D01*
X034345Y004938D02*
X0343433Y0049363D01*
X03434D01*
X0343383Y004938D01*
Y0049396D01*
X03434Y0049413D01*
X0343433D01*
X034345Y004943D01*
Y0049446D01*
X0343433Y0049463D01*
X03434D01*
X0343383Y0049446D01*
X0343483Y0049363D02*
X034355D01*
X0343517D01*
Y0049463D01*
X0343633Y0049363D02*
X03436D01*
X0343583Y004938D01*
Y0049446D01*
X03436Y0049463D01*
X0343633D01*
X034365Y0049446D01*
Y004938D01*
X0343633Y0049363D01*
X0343683Y0049463D02*
Y0049363D01*
X0343733D01*
X034375Y004938D01*
Y0049413D01*
X0343733Y004943D01*
X0343683D01*
X0343717D02*
X034375Y0049463D01*
X0343783Y0049363D02*
Y004938D01*
X0343816Y0049413D01*
X034385Y004938D01*
Y0049363D01*
X0343816Y0049413D02*
Y0049463D01*
X0343883Y0049396D02*
X03439D01*
Y0049413D01*
X0343883D01*
Y0049396D01*
Y0049446D02*
X03439D01*
Y0049463D01*
X0343883D01*
Y0049446D01*
X0344133Y004938D02*
X0344116Y0049363D01*
X0344083D01*
X0344066Y004938D01*
Y0049396D01*
X0344083Y0049413D01*
X0344116D01*
X0344133Y004943D01*
Y0049446D01*
X0344116Y0049463D01*
X0344083D01*
X0344066Y0049446D01*
X0344233Y004938D02*
X0344216Y0049363D01*
X0344183D01*
X0344166Y004938D01*
Y0049396D01*
X0344183Y0049413D01*
X0344216D01*
X0344233Y004943D01*
Y0049446D01*
X0344216Y0049463D01*
X0344183D01*
X0344166Y0049446D01*
X0344366Y0049463D02*
X03444D01*
X0344383D01*
Y0049363D01*
X0344366Y004938D01*
X034445D02*
X0344466Y0049363D01*
X03445D01*
X0344516Y004938D01*
Y0049446D01*
X03445Y0049463D01*
X0344466D01*
X034445Y0049446D01*
Y004938D01*
X0344616Y0049463D02*
X034455D01*
X0344616Y0049396D01*
Y004938D01*
X03446Y0049363D01*
X0344566D01*
X034455Y004938D01*
X0344716Y0049363D02*
X034465D01*
Y0049413D01*
X0344683Y0049396D01*
X03447D01*
X0344716Y0049413D01*
Y0049446D01*
X03447Y0049463D01*
X0344666D01*
X034465Y0049446D01*
X0344749Y0049463D02*
X0344783D01*
X0344766D01*
Y0049363D01*
X0344749Y004938D01*
X03449Y0049463D02*
X0344833D01*
X03449Y0049396D01*
Y004938D01*
X0344883Y0049363D01*
X0344849D01*
X0344833Y004938D01*
X034495Y004948D02*
X0344966Y0049463D01*
Y0049446D01*
X034495D01*
Y0049463D01*
X0344966D01*
X034495Y004948D01*
X0344933Y0049496D01*
X0345133Y0049463D02*
Y0049396D01*
X0345166Y0049363D01*
X0345199Y0049396D01*
Y0049463D01*
Y0049413D01*
X0345133D01*
X0345233Y0049363D02*
Y0049463D01*
X0345283D01*
X0345299Y0049446D01*
Y004938D01*
X0345283Y0049363D01*
X0345233D01*
X0345333D02*
Y0049463D01*
X0345383D01*
X0345399Y0049446D01*
Y004938D01*
X0345383Y0049363D01*
X0345333D01*
X0345499D02*
X0345433D01*
Y0049463D01*
X0345499D01*
X0345433Y0049413D02*
X0345466D01*
X0345533Y0049363D02*
Y0049463D01*
X0345583D01*
X0345599Y0049446D01*
Y004938D01*
X0345583Y0049363D01*
X0345533D01*
X0345799Y004938D02*
X0345783Y0049363D01*
X0345749D01*
X0345733Y004938D01*
Y0049446D01*
X0345749Y0049463D01*
X0345783D01*
X0345799Y0049446D01*
X0345883Y0049363D02*
X0345849D01*
X0345832Y004938D01*
Y0049446D01*
X0345849Y0049463D01*
X0345883D01*
X0345899Y0049446D01*
Y004938D01*
X0345883Y0049363D01*
X0345933Y0049463D02*
Y0049363D01*
X0345966Y0049396D01*
X0345999Y0049363D01*
Y0049463D01*
X0346033D02*
Y0049363D01*
X0346082D01*
X0346099Y004938D01*
Y0049413D01*
X0346082Y004943D01*
X0346033D01*
X0346299Y004938D02*
X0346282Y0049363D01*
X0346249D01*
X0346232Y004938D01*
Y0049446D01*
X0346249Y0049463D01*
X0346282D01*
X0346299Y0049446D01*
X0346382Y0049363D02*
X0346349D01*
X0346332Y004938D01*
Y0049446D01*
X0346349Y0049463D01*
X0346382D01*
X0346399Y0049446D01*
Y004938D01*
X0346382Y0049363D01*
X0346432D02*
Y0049446D01*
X0346449Y0049463D01*
X0346482D01*
X0346499Y0049446D01*
Y0049363D01*
X0346532Y0049463D02*
Y0049363D01*
X0346582D01*
X0346599Y004938D01*
Y0049413D01*
X0346582Y004943D01*
X0346532D01*
X0346566D02*
X0346599Y0049463D01*
X0346632Y0049363D02*
X0346699D01*
X0346666D01*
Y0049463D01*
X0346732Y0049363D02*
Y004938D01*
X0346766Y0049413D01*
X0346799Y004938D01*
Y0049363D01*
X0346766Y0049413D02*
Y0049463D01*
X0346832D02*
Y0049396D01*
X0346866Y0049363D01*
X0346899Y0049396D01*
Y0049463D01*
Y0049413D01*
X0346832D01*
X0346932Y0049463D02*
Y0049363D01*
X0346982D01*
X0346999Y004938D01*
Y0049413D01*
X0346982Y004943D01*
X0346932D01*
X0346966D02*
X0346999Y0049463D01*
X0347032Y0049363D02*
Y0049463D01*
X0347082D01*
X0347099Y0049446D01*
Y004938D01*
X0347082Y0049363D01*
X0347032D01*
X0347149Y004948D02*
X0347165Y0049463D01*
Y0049446D01*
X0347149D01*
Y0049463D01*
X0347165D01*
X0347149Y004948D01*
X0347132Y0049496D01*
X0347399Y004938D02*
X0347382Y0049363D01*
X0347349D01*
X0347332Y004938D01*
Y0049446D01*
X0347349Y0049463D01*
X0347382D01*
X0347399Y0049446D01*
X0347482Y0049363D02*
X0347449D01*
X0347432Y004938D01*
Y0049446D01*
X0347449Y0049463D01*
X0347482D01*
X0347499Y0049446D01*
Y004938D01*
X0347482Y0049363D01*
X0347532Y0049463D02*
Y0049363D01*
X0347565Y0049396D01*
X0347599Y0049363D01*
Y0049463D01*
X0347632D02*
Y0049363D01*
X0347682D01*
X0347699Y004938D01*
Y0049413D01*
X0347682Y004943D01*
X0347632D01*
X0347882Y0049363D02*
X0347849D01*
X0347832Y004938D01*
Y0049446D01*
X0347849Y0049463D01*
X0347882D01*
X0347899Y0049446D01*
Y004938D01*
X0347882Y0049363D01*
X0347932D02*
Y0049446D01*
X0347949Y0049463D01*
X0347982D01*
X0347999Y0049446D01*
Y0049363D01*
X0348032D02*
X0348098D01*
X0348065D01*
Y0049463D01*
X0348132Y0049363D02*
Y0049463D01*
X0348199D01*
X0348232Y0049363D02*
X0348265D01*
X0348249D01*
Y0049463D01*
X0348232D01*
X0348265D01*
X0348315D02*
Y0049363D01*
X0348382Y0049463D01*
Y0049363D01*
X0348482D02*
X0348415D01*
Y0049463D01*
X0348482D01*
X0348415Y0049413D02*
X0348448D01*
X0348532Y004948D02*
X0348548Y0049463D01*
Y0049446D01*
X0348532D01*
Y0049463D01*
X0348548D01*
X0348532Y004948D01*
X0348515Y0049496D01*
X0348715Y0049463D02*
Y0049363D01*
X0348765D01*
X0348782Y004938D01*
Y0049413D01*
X0348765Y004943D01*
X0348715D01*
X0348748D02*
X0348782Y0049463D01*
X0348882Y0049363D02*
X0348815D01*
Y0049463D01*
X0348882D01*
X0348815Y0049413D02*
X0348848D01*
X0348982Y004938D02*
X0348965Y0049363D01*
X0348932D01*
X0348915Y004938D01*
Y0049396D01*
X0348932Y0049413D01*
X0348965D01*
X0348982Y004943D01*
Y0049446D01*
X0348965Y0049463D01*
X0348932D01*
X0348915Y0049446D01*
X0349015Y0049363D02*
Y0049463D01*
Y0049413D01*
X0349082D01*
Y0049363D01*
Y0049463D01*
X0349115D02*
Y0049396D01*
X0349148Y0049363D01*
X0349182Y0049396D01*
Y0049463D01*
Y0049413D01*
X0349115D01*
X0349215Y0049463D02*
Y0049363D01*
X0349265D01*
X0349282Y004938D01*
Y0049413D01*
X0349265Y004943D01*
X0349215D01*
X0349381Y0049363D02*
X0349315D01*
Y0049463D01*
X0349381D01*
X0349315Y0049413D02*
X0349348D01*
X0349415Y0049363D02*
Y0049463D01*
X0349465D01*
X0349482Y0049446D01*
Y004938D01*
X0349465Y0049363D01*
X0349415D01*
X0349615Y004938D02*
X0349631Y0049363D01*
X0349665D01*
X0349681Y004938D01*
Y0049396D01*
X0349665Y0049413D01*
X0349648D01*
X0349665D01*
X0349681Y004943D01*
Y0049446D01*
X0349665Y0049463D01*
X0349631D01*
X0349615Y0049446D01*
X0349715Y0049363D02*
Y0049463D01*
X0349765D01*
X0349781Y0049446D01*
Y004938D01*
X0349765Y0049363D01*
X0349715D01*
X00089Y0187D02*
X0009D01*
Y0186933D01*
X00089Y018685D02*
Y0186883D01*
X0008917Y01869D01*
X0008983D01*
X0009Y0186883D01*
Y018685D01*
X0008983Y0186833D01*
X0008917D01*
X00089Y018685D01*
X0008917Y0186733D02*
X00089Y018675D01*
Y0186783D01*
X0008917Y01868D01*
X0008983D01*
X0009Y0186783D01*
Y018675D01*
X0008983Y0186733D01*
X0009Y01867D02*
X0008933D01*
X00089Y0186667D01*
X0008933Y0186633D01*
X0009D01*
X000895D01*
Y01867D01*
X00089Y01866D02*
Y0186533D01*
Y0186567D01*
X0009D01*
X00089Y01865D02*
Y0186467D01*
Y0186484D01*
X0009D01*
Y01865D01*
Y0186467D01*
X00089Y0186367D02*
Y01864D01*
X0008917Y0186417D01*
X0008983D01*
X0009Y01864D01*
Y0186367D01*
X0008983Y018635D01*
X0008917D01*
X00089Y0186367D01*
X0009Y0186317D02*
X00089D01*
X0009Y018625D01*
X00089D01*
X0008933Y0186217D02*
Y01862D01*
X000895D01*
Y0186217D01*
X0008933D01*
X0008983D02*
Y01862D01*
X0009D01*
Y0186217D01*
X0008983D01*
X0008917Y0185967D02*
X00089Y0185984D01*
Y0186017D01*
X0008917Y0186034D01*
X0008933D01*
X000895Y0186017D01*
Y0185984D01*
X0008967Y0185967D01*
X0008983D01*
X0009Y0185984D01*
Y0186017D01*
X0008983Y0186034D01*
X00089Y0185934D02*
X0008983D01*
X0009Y0185917D01*
Y0185884D01*
X0008983Y0185867D01*
X00089D01*
X0009Y0185834D02*
X00089D01*
Y0185784D01*
X0008917Y0185767D01*
X000895D01*
X0008967Y0185784D01*
Y0185834D01*
Y01858D02*
X0009Y0185767D01*
X00089Y0185667D02*
Y0185734D01*
X000895D01*
Y01857D01*
Y0185734D01*
X0009D01*
Y0185634D02*
X0008933D01*
X00089Y01856D01*
X0008933Y0185567D01*
X0009D01*
X000895D01*
Y0185634D01*
X0008917Y0185467D02*
X00089Y0185484D01*
Y0185517D01*
X0008917Y0185534D01*
X0008983D01*
X0009Y0185517D01*
Y0185484D01*
X0008983Y0185467D01*
X00089Y0185367D02*
Y0185434D01*
X0009D01*
Y0185367D01*
X000895Y0185434D02*
Y01854D01*
X0009Y0185334D02*
X00089D01*
X0008933Y0185301D01*
X00089Y0185267D01*
X0009D01*
X00089Y0185184D02*
Y0185217D01*
X0008917Y0185234D01*
X0008983D01*
X0009Y0185217D01*
Y0185184D01*
X0008983Y0185167D01*
X0008917D01*
X00089Y0185184D01*
Y0185134D02*
X0008983D01*
X0009Y0185117D01*
Y0185084D01*
X0008983Y0185067D01*
X00089D01*
X0009Y0185034D02*
X00089D01*
X0009Y0184967D01*
X00089D01*
Y0184934D02*
Y0184867D01*
Y0184901D01*
X0009D01*
Y0184767D02*
Y0184834D01*
X0008933Y0184767D01*
X0008917D01*
X00089Y0184784D01*
Y0184817D01*
X0008917Y0184834D01*
X00089Y0184734D02*
X0009D01*
Y0184667D01*
X00089Y0184567D02*
Y0184634D01*
X0009D01*
Y0184567D01*
X000895Y0184634D02*
Y0184601D01*
X0009Y0184534D02*
X0008933D01*
X00089Y0184501D01*
X0008933Y0184467D01*
X0009D01*
X000895D01*
Y0184534D01*
X00089Y0184434D02*
X0009D01*
Y0184384D01*
X0008983Y0184368D01*
X0008917D01*
X00089Y0184384D01*
Y0184434D01*
X0009Y0184334D02*
X0008983D01*
Y0184318D01*
X0009D01*
Y0184334D01*
Y0184251D02*
X00089D01*
Y0184201D01*
X0008917Y0184184D01*
X000895D01*
X0008967Y0184201D01*
Y0184251D01*
X0008917Y0184084D02*
X00089Y0184101D01*
Y0184134D01*
X0008917Y0184151D01*
X0008983D01*
X0009Y0184134D01*
Y0184101D01*
X0008983Y0184084D01*
X00089Y0184051D02*
X0009D01*
Y0184001D01*
X0008983Y0183984D01*
X0008967D01*
X000895Y0184001D01*
Y0184051D01*
Y0184001D01*
X0008933Y0183984D01*
X0008917D01*
X00089Y0184001D01*
Y0184051D01*
Y0183951D02*
X0009D01*
Y0183884D01*
X00089Y0183851D02*
Y0183818D01*
Y0183834D01*
X0009D01*
Y0183851D01*
Y0183818D01*
X00089Y0183768D02*
X0009D01*
Y0183718D01*
X0008983Y0183701D01*
X0008967D01*
X000895Y0183718D01*
Y0183768D01*
Y0183718D01*
X0008933Y0183701D01*
X0008917D01*
X00089Y0183718D01*
Y0183768D01*
X00091Y0187D02*
X00092D01*
X000915D01*
Y0186933D01*
X00091D01*
X00092D01*
X00091Y01869D02*
Y0186867D01*
Y0186883D01*
X00092D01*
Y01869D01*
Y0186867D01*
X0009117Y018675D02*
X00091Y0186767D01*
Y01868D01*
X0009117Y0186817D01*
X0009133D01*
X000915Y01868D01*
Y0186767D01*
X0009167Y018675D01*
X0009183D01*
X00092Y0186767D01*
Y01868D01*
X0009183Y0186817D01*
X00091Y0186717D02*
Y018665D01*
Y0186683D01*
X00092D01*
X00091Y0186567D02*
Y01866D01*
X0009117Y0186617D01*
X0009183D01*
X00092Y01866D01*
Y0186567D01*
X0009183Y018655D01*
X0009117D01*
X00091Y0186567D01*
X00092Y0186517D02*
X00091D01*
Y0186467D01*
X0009117Y018645D01*
X000915D01*
X0009167Y0186467D01*
Y0186517D01*
Y0186484D02*
X00092Y018645D01*
X00091Y0186417D02*
X0009117D01*
X000915Y0186383D01*
X0009117Y018635D01*
X00091D01*
X000915Y0186383D02*
X00092D01*
X0009133Y0186317D02*
Y01863D01*
X000915D01*
Y0186317D01*
X0009133D01*
X0009183D02*
Y01863D01*
X00092D01*
Y0186317D01*
X0009183D01*
X00091Y0186084D02*
Y0186117D01*
X0009117Y0186134D01*
X0009183D01*
X00092Y0186117D01*
Y0186084D01*
X0009183Y0186067D01*
X0009117D01*
X00091Y0186084D01*
Y0186034D02*
X00092D01*
Y0185967D01*
X00091Y0185934D02*
X00092D01*
Y0185884D01*
X0009183Y0185867D01*
X0009117D01*
X00091Y0185884D01*
Y0185934D01*
Y0185767D02*
Y0185834D01*
X00092D01*
Y0185767D01*
X000915Y0185834D02*
Y01858D01*
X00092Y0185734D02*
X00091D01*
Y0185684D01*
X0009117Y0185667D01*
X000915D01*
X0009167Y0185684D01*
Y0185734D01*
Y01857D02*
X00092Y0185667D01*
X00091Y0185467D02*
Y0185534D01*
X000915D01*
Y0185501D01*
Y0185534D01*
X00092D01*
X00091Y0185384D02*
Y0185417D01*
X0009117Y0185434D01*
X0009183D01*
X00092Y0185417D01*
Y0185384D01*
X0009183Y0185367D01*
X0009117D01*
X00091Y0185384D01*
Y0185284D02*
Y0185317D01*
X0009117Y0185334D01*
X0009183D01*
X00092Y0185317D01*
Y0185284D01*
X0009183Y0185267D01*
X0009117D01*
X00091Y0185284D01*
Y0185234D02*
Y0185167D01*
Y0185201D01*
X00092D01*
Y0185134D02*
X00091D01*
Y0185084D01*
X0009117Y0185067D01*
X000915D01*
X0009167Y0185084D01*
Y0185134D01*
X00092Y0185034D02*
X00091D01*
Y0184984D01*
X0009117Y0184967D01*
X000915D01*
X0009167Y0184984D01*
Y0185034D01*
Y0185001D02*
X00092Y0184967D01*
X00091Y0184934D02*
Y0184901D01*
Y0184917D01*
X00092D01*
Y0184934D01*
Y0184901D01*
Y0184851D02*
X00091D01*
X00092Y0184784D01*
X00091D01*
Y0184751D02*
Y0184684D01*
Y0184717D01*
X00092D01*
Y0184651D02*
X0009183D01*
Y0184634D01*
X00092D01*
Y0184651D01*
Y0184467D02*
X00091D01*
X0009133Y0184434D01*
X00091Y0184401D01*
X00092D01*
X00091Y0184368D02*
Y0184301D01*
Y0184334D01*
X00092D01*
Y0184168D02*
Y0184134D01*
Y0184151D01*
X00091D01*
X0009117Y0184168D01*
Y0184084D02*
X00091Y0184067D01*
Y0184034D01*
X0009117Y0184018D01*
X0009183D01*
X00092Y0184034D01*
Y0184067D01*
X0009183Y0184084D01*
X0009117D01*
X00092Y0183918D02*
Y0183984D01*
X0009133Y0183918D01*
X0009117D01*
X00091Y0183934D01*
Y0183968D01*
X0009117Y0183984D01*
X00091Y0183818D02*
X0009117Y0183851D01*
X000915Y0183884D01*
X0009183D01*
X00092Y0183868D01*
Y0183834D01*
X0009183Y0183818D01*
X0009167D01*
X000915Y0183834D01*
Y0183884D01*
X00092Y0183784D02*
Y0183751D01*
Y0183768D01*
X00091D01*
X0009117Y0183784D01*
Y0183701D02*
X00091Y0183684D01*
Y0183651D01*
X0009117Y0183634D01*
X0009183D01*
X00092Y0183651D01*
Y0183684D01*
X0009183Y0183701D01*
X0009117D01*
X0009217Y0183584D02*
X00092Y0183568D01*
X0009183D01*
Y0183584D01*
X00092D01*
Y0183568D01*
X0009217Y0183584D01*
X0009233Y0183601D01*
X0009117Y0183334D02*
X00091Y0183351D01*
Y0183384D01*
X0009117Y0183401D01*
X0009183D01*
X00092Y0183384D01*
Y0183351D01*
X0009183Y0183334D01*
X00091Y0183301D02*
X00092D01*
X000915D01*
Y0183234D01*
X00091D01*
X00092D01*
X00091Y0183134D02*
Y0183201D01*
X00092D01*
Y0183134D01*
X000915Y0183201D02*
Y0183168D01*
X0009117Y0183035D02*
X00091Y0183051D01*
Y0183084D01*
X0009117Y0183101D01*
X0009183D01*
X00092Y0183084D01*
Y0183051D01*
X0009183Y0183035D01*
X00091Y0183001D02*
X00092D01*
X0009167D01*
X00091Y0182934D01*
X000915Y0182984D01*
X00092Y0182934D01*
X00091Y0182835D02*
Y0182901D01*
X00092D01*
Y0182835D01*
X000915Y0182901D02*
Y0182868D01*
X00091Y0182801D02*
X00092D01*
Y0182751D01*
X0009183Y0182735D01*
X0009117D01*
X00091Y0182751D01*
Y0182801D01*
Y0182601D02*
X00092D01*
Y0182551D01*
X0009183Y0182535D01*
X0009117D01*
X00091Y0182551D01*
Y0182601D01*
Y0182501D02*
Y0182468D01*
Y0182485D01*
X00092D01*
Y0182501D01*
Y0182468D01*
Y0182418D02*
X00091D01*
X0009133Y0182385D01*
X00091Y0182351D01*
X00092D01*
X00091Y0182251D02*
Y0182318D01*
X00092D01*
Y0182251D01*
X000915Y0182318D02*
Y0182285D01*
X00092Y0182218D02*
X00091D01*
X00092Y0182151D01*
X00091D01*
X0009117Y0182052D02*
X00091Y0182068D01*
Y0182102D01*
X0009117Y0182118D01*
X0009133D01*
X000915Y0182102D01*
Y0182068D01*
X0009167Y0182052D01*
X0009183D01*
X00092Y0182068D01*
Y0182102D01*
X0009183Y0182118D01*
X00091Y0182018D02*
Y0181985D01*
Y0182001D01*
X00092D01*
Y0182018D01*
Y0181985D01*
X00091Y0181885D02*
Y0181918D01*
X0009117Y0181935D01*
X0009183D01*
X00092Y0181918D01*
Y0181885D01*
X0009183Y0181868D01*
X0009117D01*
X00091Y0181885D01*
X00092Y0181835D02*
X00091D01*
X00092Y0181768D01*
X00091D01*
X0009117Y0181668D02*
X00091Y0181685D01*
Y0181718D01*
X0009117Y0181735D01*
X0009133D01*
X000915Y0181718D01*
Y0181685D01*
X0009167Y0181668D01*
X0009183D01*
X00092Y0181685D01*
Y0181718D01*
X0009183Y0181735D01*
X0009217Y0181618D02*
X00092Y0181602D01*
X0009183D01*
Y0181618D01*
X00092D01*
Y0181602D01*
X0009217Y0181618D01*
X0009233Y0181635D01*
X00092Y0181435D02*
X0009133D01*
X00091Y0181402D01*
X0009133Y0181368D01*
X00092D01*
X000915D01*
Y0181435D01*
X00091Y0181335D02*
X00092D01*
Y0181285D01*
X0009183Y0181268D01*
X0009117D01*
X00091Y0181285D01*
Y0181335D01*
Y0181235D02*
X00092D01*
Y0181185D01*
X0009183Y0181168D01*
X0009117D01*
X00091Y0181185D01*
Y0181235D01*
Y0181068D02*
Y0181135D01*
X00092D01*
Y0181068D01*
X000915Y0181135D02*
Y0181102D01*
X00091Y0181035D02*
X00092D01*
Y0180985D01*
X0009183Y0180968D01*
X0009117D01*
X00091Y0180985D01*
Y0181035D01*
X0009117Y0180769D02*
X00091Y0180785D01*
Y0180818D01*
X0009117Y0180835D01*
X0009183D01*
X00092Y0180818D01*
Y0180785D01*
X0009183Y0180769D01*
X00091Y0180685D02*
Y0180719D01*
X0009117Y0180735D01*
X0009183D01*
X00092Y0180719D01*
Y0180685D01*
X0009183Y0180669D01*
X0009117D01*
X00091Y0180685D01*
Y0180635D02*
X0009183D01*
X00092Y0180619D01*
Y0180585D01*
X0009183Y0180569D01*
X00091D01*
X00092Y0180535D02*
X00091D01*
Y0180485D01*
X0009117Y0180469D01*
X000915D01*
X0009167Y0180485D01*
Y0180535D01*
Y0180502D02*
X00092Y0180469D01*
X00091Y0180435D02*
Y0180369D01*
Y0180402D01*
X00092D01*
X00091Y0180335D02*
X0009117D01*
X000915Y0180302D01*
X0009117Y0180269D01*
X00091D01*
X000915Y0180302D02*
X00092D01*
Y0180235D02*
X0009133D01*
X00091Y0180202D01*
X0009133Y0180169D01*
X00092D01*
X000915D01*
Y0180235D01*
X00092Y0180135D02*
X00091D01*
Y0180085D01*
X0009117Y0180069D01*
X000915D01*
X0009167Y0180085D01*
Y0180135D01*
Y0180102D02*
X00092Y0180069D01*
X00091Y0180035D02*
X00092D01*
Y0179985D01*
X0009183Y0179969D01*
X0009117D01*
X00091Y0179985D01*
Y0180035D01*
X0009217Y0179919D02*
X00092Y0179902D01*
X0009183D01*
Y0179919D01*
X00092D01*
Y0179902D01*
X0009217Y0179919D01*
X0009233Y0179935D01*
X0009117Y0179669D02*
X00091Y0179685D01*
Y0179719D01*
X0009117Y0179736D01*
X0009183D01*
X00092Y0179719D01*
Y0179685D01*
X0009183Y0179669D01*
X00091Y0179586D02*
Y0179619D01*
X0009117Y0179636D01*
X0009183D01*
X00092Y0179619D01*
Y0179586D01*
X0009183Y0179569D01*
X0009117D01*
X00091Y0179586D01*
X00092Y0179536D02*
X00091D01*
X0009133Y0179502D01*
X00091Y0179469D01*
X00092D01*
Y0179436D02*
X00091D01*
Y0179386D01*
X0009117Y0179369D01*
X000915D01*
X0009167Y0179386D01*
Y0179436D01*
X00091Y0179286D02*
Y0179319D01*
X0009117Y0179336D01*
X0009183D01*
X00092Y0179319D01*
Y0179286D01*
X0009183Y0179269D01*
X0009117D01*
X00091Y0179286D01*
X00092Y0179236D02*
X00091D01*
X00092Y0179169D01*
X00091D01*
Y0179069D02*
Y0179136D01*
X00092D01*
Y0179069D01*
X000915Y0179136D02*
Y0179102D01*
X00092Y0179036D02*
X00091D01*
X00092Y0178969D01*
X00091D01*
Y0178936D02*
Y0178869D01*
Y0178902D01*
X00092D01*
X00091Y0178686D02*
Y0178719D01*
X0009117Y0178736D01*
X0009183D01*
X00092Y0178719D01*
Y0178686D01*
X0009183Y0178669D01*
X0009117D01*
X00091Y0178686D01*
Y0178636D02*
X0009183D01*
X00092Y0178619D01*
Y0178586D01*
X0009183Y0178569D01*
X00091D01*
Y0178536D02*
Y0178469D01*
Y0178503D01*
X00092D01*
X00091Y0178436D02*
X00092D01*
Y0178369D01*
X00091Y0178336D02*
Y0178303D01*
Y0178319D01*
X00092D01*
Y0178336D01*
Y0178303D01*
Y0178253D02*
X00091D01*
X00092Y0178186D01*
X00091D01*
Y0178086D02*
Y0178153D01*
X00092D01*
Y0178086D01*
X000915Y0178153D02*
Y0178119D01*
X0009217Y0178036D02*
X00092Y0178019D01*
X0009183D01*
Y0178036D01*
X00092D01*
Y0178019D01*
X0009217Y0178036D01*
X0009233Y0178053D01*
X0009117Y0177786D02*
X00091Y0177803D01*
Y0177836D01*
X0009117Y0177853D01*
X0009183D01*
X00092Y0177836D01*
Y0177803D01*
X0009183Y0177786D01*
X00091Y0177686D02*
Y0177753D01*
X00092D01*
Y0177686D01*
X000915Y0177753D02*
Y0177719D01*
X00092Y0177653D02*
X00091D01*
X00092Y0177586D01*
X00091D01*
Y0177553D02*
Y0177486D01*
Y017752D01*
X00092D01*
X00091Y0177386D02*
Y0177453D01*
X00092D01*
Y0177386D01*
X000915Y0177453D02*
Y0177419D01*
X00092Y0177353D02*
X00091D01*
Y0177303D01*
X0009117Y0177286D01*
X000915D01*
X0009167Y0177303D01*
Y0177353D01*
Y017732D02*
X00092Y0177286D01*
X00091Y0177103D02*
Y0177136D01*
X0009117Y0177153D01*
X0009183D01*
X00092Y0177136D01*
Y0177103D01*
X0009183Y0177086D01*
X0009117D01*
X00091Y0177103D01*
Y0176986D02*
Y0177053D01*
X000915D01*
Y017702D01*
Y0177053D01*
X00092D01*
X00091Y0176803D02*
Y0176836D01*
X0009117Y0176853D01*
X0009183D01*
X00092Y0176836D01*
Y0176803D01*
X0009183Y0176786D01*
X0009117D01*
X00091Y0176803D01*
X00092Y0176753D02*
X00091D01*
Y0176703D01*
X0009117Y0176686D01*
X000915D01*
X0009167Y0176703D01*
Y0176753D01*
Y017672D02*
X00092Y0176686D01*
X00091Y0176653D02*
Y017662D01*
Y0176636D01*
X00092D01*
Y0176653D01*
Y017662D01*
X00091Y0176503D02*
Y017657D01*
X00092D01*
Y0176503D01*
X000915Y017657D02*
Y0176537D01*
X00092Y017647D02*
X00091D01*
X00092Y0176403D01*
X00091D01*
Y017637D02*
Y0176303D01*
Y0176337D01*
X00092D01*
Y017627D02*
X0009133D01*
X00091Y0176237D01*
X0009133Y0176203D01*
X00092D01*
X000915D01*
Y017627D01*
X00091Y017617D02*
Y0176103D01*
Y0176137D01*
X00092D01*
X00091Y017607D02*
Y0176037D01*
Y0176053D01*
X00092D01*
Y017607D01*
Y0176037D01*
X00091Y0175937D02*
Y017597D01*
X0009117Y0175987D01*
X0009183D01*
X00092Y017597D01*
Y0175937D01*
X0009183Y017592D01*
X0009117D01*
X00091Y0175937D01*
X00092Y0175887D02*
X00091D01*
X00092Y017582D01*
X00091D01*
X00092Y0175787D02*
X0009183D01*
Y017577D01*
X00092D01*
Y0175787D01*
X00094Y0186933D02*
Y0187D01*
X0009333Y0186933D01*
X0009317D01*
X00093Y018695D01*
Y0186983D01*
X0009317Y0187D01*
X00094Y01869D02*
X0009383D01*
Y0186883D01*
X00094D01*
Y01869D01*
X00093Y018665D02*
Y0186683D01*
Y0186667D01*
X0009383D01*
X00094Y0186683D01*
Y01867D01*
X0009383Y0186717D01*
X00093Y0186617D02*
X00094D01*
Y0186567D01*
X0009383Y018655D01*
X0009367D01*
X000935Y0186567D01*
Y0186617D01*
Y0186567D01*
X0009333Y018655D01*
X0009317D01*
X00093Y0186567D01*
Y0186617D01*
X0009317Y0186417D02*
X00093Y01864D01*
Y0186367D01*
X0009317Y018635D01*
X0009383D01*
X00094Y0186367D01*
Y01864D01*
X0009383Y0186417D01*
X0009317D01*
Y0186317D02*
X00093Y01863D01*
Y0186267D01*
X0009317Y018625D01*
X0009333D01*
X000935Y0186267D01*
X0009367Y018625D01*
X0009383D01*
X00094Y0186267D01*
Y01863D01*
X0009383Y0186317D01*
X0009367D01*
X000935Y01863D01*
X0009333Y0186317D01*
X0009317D01*
X000935Y01863D02*
Y0186267D01*
X00094Y018615D02*
Y0186217D01*
X0009333Y018615D01*
X0009317D01*
X00093Y0186167D01*
Y01862D01*
X0009317Y0186217D01*
Y0186117D02*
X00093Y01861D01*
Y0186067D01*
X0009317Y018605D01*
X0009333D01*
X000935Y0186067D01*
X0009367Y018605D01*
X0009383D01*
X00094Y0186067D01*
Y01861D01*
X0009383Y0186117D01*
X0009367D01*
X000935Y01861D01*
X0009333Y0186117D01*
X0009317D01*
X000935Y01861D02*
Y0186067D01*
X00094Y0186017D02*
Y0185984D01*
Y0186D01*
X00093D01*
X0009317Y0186017D01*
Y0185934D02*
X00093Y0185917D01*
Y0185884D01*
X0009317Y0185867D01*
X0009333D01*
X000935Y0185884D01*
Y01859D01*
Y0185884D01*
X0009367Y0185867D01*
X0009383D01*
X00094Y0185884D01*
Y0185917D01*
X0009383Y0185934D01*
X00094Y0185734D02*
X0009333D01*
X00093Y01857D01*
X0009333Y0185667D01*
X00094D01*
X000935D01*
Y0185734D01*
X00093Y0185634D02*
X00094D01*
Y0185584D01*
X0009383Y0185567D01*
X0009317D01*
X00093Y0185584D01*
Y0185634D01*
Y0185534D02*
X00094D01*
Y0185484D01*
X0009383Y0185467D01*
X0009317D01*
X00093Y0185484D01*
Y0185534D01*
Y0185367D02*
Y0185434D01*
X00094D01*
Y0185367D01*
X000935Y0185434D02*
Y01854D01*
X00093Y0185334D02*
X00094D01*
Y0185284D01*
X0009383Y0185267D01*
X0009317D01*
X00093Y0185284D01*
Y0185334D01*
Y0185134D02*
X00094D01*
Y0185084D01*
X0009383Y0185067D01*
X0009317D01*
X00093Y0185084D01*
Y0185134D01*
Y0184967D02*
Y0185034D01*
X00094D01*
Y0184967D01*
X000935Y0185034D02*
Y0185001D01*
X0009317Y0184867D02*
X00093Y0184884D01*
Y0184917D01*
X0009317Y0184934D01*
X0009333D01*
X000935Y0184917D01*
Y0184884D01*
X0009367Y0184867D01*
X0009383D01*
X00094Y0184884D01*
Y0184917D01*
X0009383Y0184934D01*
X00093Y0184834D02*
Y0184801D01*
Y0184817D01*
X00094D01*
Y0184834D01*
Y0184801D01*
X0009317Y0184684D02*
X00093Y0184701D01*
Y0184734D01*
X0009317Y0184751D01*
X0009383D01*
X00094Y0184734D01*
Y0184701D01*
X0009383Y0184684D01*
X000935D01*
Y0184717D01*
X00094Y0184651D02*
X00093D01*
X00094Y0184584D01*
X00093D01*
Y0184484D02*
Y0184551D01*
X00094D01*
Y0184484D01*
X000935Y0184551D02*
Y0184517D01*
X00094Y0184451D02*
X00093D01*
Y0184401D01*
X0009317Y0184384D01*
X000935D01*
X0009367Y0184401D01*
Y0184451D01*
Y0184417D02*
X00094Y0184384D01*
Y0184251D02*
X00093D01*
X00094Y0184184D01*
X00093D01*
Y0184101D02*
Y0184134D01*
X0009317Y0184151D01*
X0009383D01*
X00094Y0184134D01*
Y0184101D01*
X0009383Y0184084D01*
X0009317D01*
X00093Y0184101D01*
Y0184051D02*
Y0183984D01*
Y0184018D01*
X00094D01*
X00093Y0183884D02*
Y0183951D01*
X00094D01*
Y0183884D01*
X000935Y0183951D02*
Y0183918D01*
X0009317Y0183684D02*
X00093Y0183701D01*
Y0183734D01*
X0009317Y0183751D01*
X0009383D01*
X00094Y0183734D01*
Y0183701D01*
X0009383Y0183684D01*
X00093Y0183651D02*
X00094D01*
Y0183584D01*
X00093Y0183484D02*
Y0183551D01*
X00094D01*
Y0183484D01*
X000935Y0183551D02*
Y0183518D01*
X00094Y0183451D02*
X0009333D01*
X00093Y0183418D01*
X0009333Y0183384D01*
X00094D01*
X000935D01*
Y0183451D01*
X00094Y0183351D02*
X00093D01*
Y0183301D01*
X0009317Y0183284D01*
X000935D01*
X0009367Y0183301D01*
Y0183351D01*
Y0183318D02*
X00094Y0183284D01*
X0009317Y0183084D02*
X00093Y0183101D01*
Y0183134D01*
X0009317Y0183151D01*
X0009383D01*
X00094Y0183134D01*
Y0183101D01*
X0009383Y0183084D01*
X00093Y0183001D02*
Y0183035D01*
X0009317Y0183051D01*
X0009383D01*
X00094Y0183035D01*
Y0183001D01*
X0009383Y0182984D01*
X0009317D01*
X00093Y0183001D01*
X00094Y0182951D02*
X00093D01*
Y0182901D01*
X0009317Y0182885D01*
X000935D01*
X0009367Y0182901D01*
Y0182951D01*
X00094Y0182851D02*
X00093D01*
Y0182801D01*
X0009317Y0182785D01*
X000935D01*
X0009367Y0182801D01*
Y0182851D01*
X00093Y0182685D02*
Y0182751D01*
X00094D01*
Y0182685D01*
X000935Y0182751D02*
Y0182718D01*
X00094Y0182651D02*
X00093D01*
Y0182601D01*
X0009317Y0182585D01*
X000935D01*
X0009367Y0182601D01*
Y0182651D01*
Y0182618D02*
X00094Y0182585D01*
X00093Y0182451D02*
X0009383D01*
X00094Y0182435D01*
Y0182401D01*
X0009383Y0182385D01*
X00093D01*
X00094Y0182351D02*
X00093D01*
X00094Y0182285D01*
X00093D01*
Y0182251D02*
X00094D01*
Y0182201D01*
X0009383Y0182185D01*
X0009317D01*
X00093Y0182201D01*
Y0182251D01*
Y0182085D02*
Y0182151D01*
X00094D01*
Y0182085D01*
X000935Y0182151D02*
Y0182118D01*
X00094Y0182052D02*
X00093D01*
Y0182001D01*
X0009317Y0181985D01*
X000935D01*
X0009367Y0182001D01*
Y0182052D01*
Y0182018D02*
X00094Y0181985D01*
X00093Y0181785D02*
Y0181851D01*
X000935D01*
Y0181818D01*
Y0181851D01*
X00094D01*
X00093Y0181752D02*
X0009383D01*
X00094Y0181735D01*
Y0181702D01*
X0009383Y0181685D01*
X00093D01*
X0009317Y0181585D02*
X00093Y0181602D01*
Y0181635D01*
X0009317Y0181652D01*
X0009333D01*
X000935Y0181635D01*
Y0181602D01*
X0009367Y0181585D01*
X0009383D01*
X00094Y0181602D01*
Y0181635D01*
X0009383Y0181652D01*
X00093Y0181485D02*
Y0181552D01*
X00094D01*
Y0181485D01*
X000935Y0181552D02*
Y0181518D01*
X00094Y0181452D02*
X0009383D01*
Y0181435D01*
X00094D01*
Y0181452D01*
X0009517Y0187D02*
X00095Y0186983D01*
Y018695D01*
X0009517Y0186933D01*
X0009533D01*
X000955Y018695D01*
Y0186967D01*
Y018695D01*
X0009567Y0186933D01*
X0009583D01*
X00096Y018695D01*
Y0186983D01*
X0009583Y0187D01*
X00096Y01869D02*
X0009583D01*
Y0186883D01*
X00096D01*
Y01869D01*
X00095Y018655D02*
Y0186583D01*
Y0186567D01*
X0009583D01*
X00096Y0186583D01*
Y01866D01*
X0009583Y0186617D01*
X00095Y0186517D02*
X00096D01*
Y0186467D01*
X0009583Y018645D01*
X0009567D01*
X000955Y0186467D01*
Y0186517D01*
Y0186467D01*
X0009533Y018645D01*
X0009517D01*
X00095Y0186467D01*
Y0186517D01*
X00096Y0186317D02*
Y0186284D01*
Y01863D01*
X00095D01*
X0009517Y0186317D01*
X00096Y0186167D02*
Y0186234D01*
X0009533Y0186167D01*
X0009517D01*
X00095Y0186184D01*
Y0186217D01*
X0009517Y0186234D01*
X00096Y0186134D02*
Y01861D01*
Y0186117D01*
X00095D01*
X0009517Y0186134D01*
Y018605D02*
X00095Y0186034D01*
Y0186D01*
X0009517Y0185984D01*
X0009583D01*
X00096Y0186D01*
Y0186034D01*
X0009583Y018605D01*
X0009517D01*
X00096Y018595D02*
Y0185917D01*
Y0185934D01*
X00095D01*
X0009517Y018595D01*
Y0185867D02*
X00095Y018585D01*
Y0185817D01*
X0009517Y01858D01*
X0009533D01*
X000955Y0185817D01*
Y0185834D01*
Y0185817D01*
X0009567Y01858D01*
X0009583D01*
X00096Y0185817D01*
Y018585D01*
X0009583Y0185867D01*
X0009517Y01856D02*
X00095Y0185617D01*
Y018565D01*
X0009517Y0185667D01*
X0009583D01*
X00096Y018565D01*
Y0185617D01*
X0009583Y01856D01*
X00095Y0185567D02*
X00096D01*
X000955D01*
Y01855D01*
X00095D01*
X00096D01*
Y0185467D02*
X0009533D01*
X00095Y0185434D01*
X0009533Y01854D01*
X00096D01*
X000955D01*
Y0185467D01*
X00096Y0185367D02*
X00095D01*
X00096Y0185301D01*
X00095D01*
X0009517Y0185201D02*
X00095Y0185217D01*
Y018525D01*
X0009517Y0185267D01*
X0009583D01*
X00096Y018525D01*
Y0185217D01*
X0009583Y0185201D01*
X000955D01*
Y0185234D01*
X00095Y0185101D02*
Y0185167D01*
X00096D01*
Y0185101D01*
X000955Y0185167D02*
Y0185134D01*
X00095Y0185067D02*
X00096D01*
Y0185017D01*
X0009583Y0185001D01*
X0009517D01*
X00095Y0185017D01*
Y0185067D01*
Y0184867D02*
X00096D01*
Y0184801D01*
X00095Y0184767D02*
Y0184734D01*
Y0184751D01*
X00096D01*
Y0184767D01*
Y0184734D01*
X00095Y0184684D02*
X00096D01*
Y0184634D01*
X0009583Y0184617D01*
X0009567D01*
X000955Y0184634D01*
Y0184684D01*
Y0184634D01*
X0009533Y0184617D01*
X0009517D01*
X00095Y0184634D01*
Y0184684D01*
X00096Y0184584D02*
X00095D01*
Y0184534D01*
X0009517Y0184517D01*
X000955D01*
X0009567Y0184534D01*
Y0184584D01*
Y0184551D02*
X00096Y0184517D01*
Y0184484D02*
X0009533D01*
X00095Y0184451D01*
X0009533Y0184417D01*
X00096D01*
X000955D01*
Y0184484D01*
X00096Y0184384D02*
X00095D01*
Y0184334D01*
X0009517Y0184318D01*
X000955D01*
X0009567Y0184334D01*
Y0184384D01*
Y0184351D02*
X00096Y0184318D01*
X00095Y0184284D02*
X0009517D01*
X000955Y0184251D01*
X0009517Y0184218D01*
X00095D01*
X000955Y0184251D02*
X00096D01*
Y0184084D02*
X00095D01*
X00096Y0184018D01*
X00095D01*
Y0183934D02*
Y0183968D01*
X0009517Y0183984D01*
X0009583D01*
X00096Y0183968D01*
Y0183934D01*
X0009583Y0183918D01*
X0009517D01*
X00095Y0183934D01*
Y0183884D02*
Y0183818D01*
Y0183851D01*
X00096D01*
X00095Y0183718D02*
Y0183784D01*
X00096D01*
Y0183718D01*
X000955Y0183784D02*
Y0183751D01*
X00095Y0183584D02*
Y0183518D01*
Y0183551D01*
X00096D01*
X00095Y0183434D02*
Y0183468D01*
X0009517Y0183484D01*
X0009583D01*
X00096Y0183468D01*
Y0183434D01*
X0009583Y0183418D01*
X0009517D01*
X00095Y0183434D01*
X0009517Y0183218D02*
X00095Y0183235D01*
Y0183268D01*
X0009517Y0183284D01*
X0009583D01*
X00096Y0183268D01*
Y0183235D01*
X0009583Y0183218D01*
X00095Y0183185D02*
X00096D01*
Y0183118D01*
X00095Y0183018D02*
Y0183084D01*
X00096D01*
Y0183018D01*
X000955Y0183084D02*
Y0183051D01*
X00096Y0182984D02*
X0009533D01*
X00095Y0182951D01*
X0009533Y0182918D01*
X00096D01*
X000955D01*
Y0182984D01*
X00096Y0182885D02*
X00095D01*
Y0182835D01*
X0009517Y0182818D01*
X000955D01*
X0009567Y0182835D01*
Y0182885D01*
Y0182851D02*
X00096Y0182818D01*
X0009517Y0182618D02*
X00095Y0182635D01*
Y0182668D01*
X0009517Y0182685D01*
X0009583D01*
X00096Y0182668D01*
Y0182635D01*
X0009583Y0182618D01*
X00095Y0182535D02*
Y0182568D01*
X0009517Y0182585D01*
X0009583D01*
X00096Y0182568D01*
Y0182535D01*
X0009583Y0182518D01*
X0009517D01*
X00095Y0182535D01*
X00096Y0182485D02*
X00095D01*
Y0182435D01*
X0009517Y0182418D01*
X000955D01*
X0009567Y0182435D01*
Y0182485D01*
X00096Y0182385D02*
X00095D01*
Y0182335D01*
X0009517Y0182318D01*
X000955D01*
X0009567Y0182335D01*
Y0182385D01*
X00095Y0182218D02*
Y0182285D01*
X00096D01*
Y0182218D01*
X000955Y0182285D02*
Y0182251D01*
X00096Y0182185D02*
X00095D01*
Y0182135D01*
X0009517Y0182118D01*
X000955D01*
X0009567Y0182135D01*
Y0182185D01*
Y0182151D02*
X00096Y0182118D01*
X00095Y0181935D02*
Y0181968D01*
X0009517Y0181985D01*
X0009583D01*
X00096Y0181968D01*
Y0181935D01*
X0009583Y0181918D01*
X0009517D01*
X00095Y0181935D01*
X00096Y0181885D02*
X00095D01*
X00096Y0181818D01*
X00095D01*
X00096Y0181685D02*
X0009533D01*
X00095Y0181652D01*
X0009533Y0181618D01*
X00096D01*
X000955D01*
Y0181685D01*
X00095Y0181585D02*
X00096D01*
Y0181518D01*
X00095Y0181485D02*
X00096D01*
Y0181418D01*
X00095Y0181285D02*
X00096D01*
Y0181218D01*
Y0181185D02*
X0009533D01*
X00095Y0181152D01*
X0009533Y0181118D01*
X00096D01*
X000955D01*
Y0181185D01*
X00095Y0181085D02*
X0009517D01*
X000955Y0181052D01*
X0009517Y0181018D01*
X00095D01*
X000955Y0181052D02*
X00096D01*
X00095Y0180919D02*
Y0180985D01*
X00096D01*
Y0180919D01*
X000955Y0180985D02*
Y0180952D01*
X00096Y0180885D02*
X00095D01*
Y0180835D01*
X0009517Y0180818D01*
X000955D01*
X0009567Y0180835D01*
Y0180885D01*
Y0180852D02*
X00096Y0180818D01*
X0009517Y0180719D02*
X00095Y0180735D01*
Y0180769D01*
X0009517Y0180785D01*
X0009533D01*
X000955Y0180769D01*
Y0180735D01*
X0009567Y0180719D01*
X0009583D01*
X00096Y0180735D01*
Y0180769D01*
X0009583Y0180785D01*
X00095Y0180585D02*
X0009583D01*
X00096Y0180569D01*
Y0180535D01*
X0009583Y0180519D01*
X00095D01*
X00096Y0180485D02*
X00095D01*
X00096Y0180419D01*
X00095D01*
Y0180385D02*
X00096D01*
Y0180335D01*
X0009583Y0180319D01*
X0009517D01*
X00095Y0180335D01*
Y0180385D01*
Y0180219D02*
Y0180285D01*
X00096D01*
Y0180219D01*
X000955Y0180285D02*
Y0180252D01*
X00096Y0180185D02*
X00095D01*
Y0180135D01*
X0009517Y0180119D01*
X000955D01*
X0009567Y0180135D01*
Y0180185D01*
Y0180152D02*
X00096Y0180119D01*
Y0179985D02*
X00095D01*
Y0179935D01*
X0009517Y0179919D01*
X000955D01*
X0009567Y0179935D01*
Y0179985D01*
X00095Y0179885D02*
Y0179819D01*
Y0179852D01*
X00096D01*
X0009517Y0179719D02*
X00095Y0179736D01*
Y0179769D01*
X0009517Y0179786D01*
X0009583D01*
X00096Y0179769D01*
Y0179736D01*
X0009583Y0179719D01*
X00095Y0179519D02*
Y0179586D01*
X000955D01*
Y0179552D01*
Y0179586D01*
X00096D01*
X00095Y0179486D02*
X0009583D01*
X00096Y0179469D01*
Y0179436D01*
X0009583Y0179419D01*
X00095D01*
X0009517Y0179319D02*
X00095Y0179336D01*
Y0179369D01*
X0009517Y0179386D01*
X0009533D01*
X000955Y0179369D01*
Y0179336D01*
X0009567Y0179319D01*
X0009583D01*
X00096Y0179336D01*
Y0179369D01*
X0009583Y0179386D01*
X00095Y0179219D02*
Y0179286D01*
X00096D01*
Y0179219D01*
X000955Y0179286D02*
Y0179252D01*
X00096Y0179086D02*
X0009533D01*
X00095Y0179052D01*
X0009533Y0179019D01*
X00096D01*
X000955D01*
Y0179086D01*
X00096Y0178986D02*
X00095D01*
X00096Y0178919D01*
X00095D01*
Y0178886D02*
X00096D01*
Y0178836D01*
X0009583Y0178819D01*
X0009517D01*
X00095Y0178836D01*
Y0178886D01*
X00096Y0178686D02*
X0009533D01*
X00095Y0178653D01*
X0009533Y0178619D01*
X00096D01*
X000955D01*
Y0178686D01*
X00095Y0178586D02*
X00096D01*
Y0178536D01*
X0009583Y0178519D01*
X0009517D01*
X00095Y0178536D01*
Y0178586D01*
Y0178486D02*
X00096D01*
Y0178436D01*
X0009583Y0178419D01*
X0009517D01*
X00095Y0178436D01*
Y0178486D01*
Y0178319D02*
Y0178386D01*
X00096D01*
Y0178319D01*
X000955Y0178386D02*
Y0178353D01*
X00095Y0178286D02*
X00096D01*
Y0178236D01*
X0009583Y0178219D01*
X0009517D01*
X00095Y0178236D01*
Y0178286D01*
X00096Y0178086D02*
X00095D01*
X00096Y0178019D01*
X00095D01*
Y0177936D02*
Y0177969D01*
X0009517Y0177986D01*
X0009583D01*
X00096Y0177969D01*
Y0177936D01*
X0009583Y0177919D01*
X0009517D01*
X00095Y0177936D01*
Y0177886D02*
Y0177819D01*
Y0177853D01*
X00096D01*
X00095Y0177719D02*
Y0177786D01*
X00096D01*
Y0177719D01*
X000955Y0177786D02*
Y0177753D01*
X00096Y0177586D02*
X0009533D01*
X00095Y0177553D01*
X0009533Y017752D01*
X00096D01*
X000955D01*
Y0177586D01*
X00095Y0177486D02*
X0009567D01*
X00096Y0177453D01*
X0009567Y0177419D01*
X00095D01*
Y0177336D02*
Y017737D01*
X0009517Y0177386D01*
X0009583D01*
X00096Y017737D01*
Y0177336D01*
X0009583Y017732D01*
X0009517D01*
X00095Y0177336D01*
Y0177286D02*
Y0177253D01*
Y017727D01*
X00096D01*
Y0177286D01*
Y0177253D01*
X00095Y0177203D02*
X00096D01*
Y0177153D01*
X0009583Y0177136D01*
X0009517D01*
X00095Y0177153D01*
Y0177203D01*
Y0177003D02*
X0009567D01*
X00096Y017697D01*
X0009567Y0176936D01*
X00095D01*
Y0176903D02*
Y017687D01*
Y0176886D01*
X00096D01*
Y0176903D01*
Y017687D01*
Y017682D02*
X0009533D01*
X00095Y0176786D01*
X0009533Y0176753D01*
X00096D01*
X000955D01*
Y017682D01*
Y017672D02*
Y0176653D01*
X00095Y017662D02*
Y0176586D01*
Y0176603D01*
X00096D01*
Y017662D01*
Y0176586D01*
Y0176537D02*
X00095D01*
X00096Y017647D01*
X00095D01*
X000955Y0176436D02*
Y017637D01*
X00096Y0176337D02*
X00095D01*
Y0176286D01*
X0009517Y017627D01*
X000955D01*
X0009567Y0176286D01*
Y0176337D01*
X00096Y0176237D02*
X0009533D01*
X00095Y0176203D01*
X0009533Y017617D01*
X00096D01*
X000955D01*
Y0176237D01*
X00095Y0176137D02*
X00096D01*
Y0176087D01*
X0009583Y017607D01*
X0009517D01*
X00095Y0176087D01*
Y0176137D01*
X00096Y0175937D02*
X0009533D01*
X00095Y0175903D01*
X0009533Y017587D01*
X00096D01*
X000955D01*
Y0175937D01*
X00096Y0175837D02*
X00095D01*
X00096Y017577D01*
X00095D01*
Y0175737D02*
X00096D01*
Y0175687D01*
X0009583Y017567D01*
X0009517D01*
X00095Y0175687D01*
Y0175737D01*
Y0175537D02*
Y017547D01*
Y0175503D01*
X00096D01*
X00095Y0175437D02*
X00096D01*
X000955D01*
Y017537D01*
X00095D01*
X00096D01*
X00095Y017527D02*
Y0175337D01*
X00096D01*
Y017527D01*
X000955Y0175337D02*
Y0175303D01*
X00096Y0175237D02*
X00095D01*
Y0175187D01*
X0009517Y017517D01*
X000955D01*
X0009567Y0175187D01*
Y0175237D01*
Y0175204D02*
X00096Y017517D01*
Y0175137D02*
X00095D01*
X0009533Y0175104D01*
X00095Y017507D01*
X00096D01*
Y0175037D02*
X0009533D01*
X00095Y0175004D01*
X0009533Y017497D01*
X00096D01*
X000955D01*
Y0175037D01*
X00095Y0174937D02*
X00096D01*
Y017487D01*
X0009517Y017477D02*
X00095Y0174787D01*
Y017482D01*
X0009517Y0174837D01*
X0009533D01*
X000955Y017482D01*
Y0174787D01*
X0009567Y017477D01*
X0009583D01*
X00096Y0174787D01*
Y017482D01*
X0009583Y0174837D01*
X00096Y0174737D02*
X0009583D01*
Y017472D01*
X00096D01*
Y0174737D01*
X0070767Y0071317D02*
X007075Y00713D01*
X0070717D01*
X00707Y0071317D01*
Y0071333D01*
X0070717Y007135D01*
X007075D01*
X0070767Y0071367D01*
Y0071383D01*
X007075Y00714D01*
X0070717D01*
X00707Y0071383D01*
X0070867Y0071317D02*
X007085Y00713D01*
X0070817D01*
X00708Y0071317D01*
Y0071333D01*
X0070817Y007135D01*
X007085D01*
X0070867Y0071367D01*
Y0071383D01*
X007085Y00714D01*
X0070817D01*
X00708Y0071383D01*
X0071Y00714D02*
X0071033D01*
X0071017D01*
Y00713D01*
X0071Y0071317D01*
X0071083D02*
X00711Y00713D01*
X0071133D01*
X007115Y0071317D01*
Y0071383D01*
X0071133Y00714D01*
X00711D01*
X0071083Y0071383D01*
Y0071317D01*
X007125Y00714D02*
X0071183D01*
X007125Y0071333D01*
Y0071317D01*
X0071233Y00713D01*
X00712D01*
X0071183Y0071317D01*
X007135Y00713D02*
X0071283D01*
Y007135D01*
X0071316Y0071333D01*
X0071333D01*
X007135Y007135D01*
Y0071383D01*
X0071333Y00714D01*
X00713D01*
X0071283Y0071383D01*
X0071383Y00714D02*
X0071416D01*
X00714D01*
Y00713D01*
X0071383Y0071317D01*
X0071533Y00714D02*
X0071466D01*
X0071533Y0071333D01*
Y0071317D01*
X0071516Y00713D01*
X0071483D01*
X0071466Y0071317D01*
X0071583Y0071417D02*
X00716Y00714D01*
Y0071383D01*
X0071583D01*
Y00714D01*
X00716D01*
X0071583Y0071417D01*
X0071566Y0071433D01*
X0071766Y00714D02*
Y0071333D01*
X00718Y00713D01*
X0071833Y0071333D01*
Y00714D01*
Y007135D01*
X0071766D01*
X0071866Y00713D02*
Y00714D01*
X0071916D01*
X0071933Y0071383D01*
Y0071317D01*
X0071916Y00713D01*
X0071866D01*
X0071966D02*
Y00714D01*
X0072016D01*
X0072033Y0071383D01*
Y0071317D01*
X0072016Y00713D01*
X0071966D01*
X0072133D02*
X0072066D01*
Y00714D01*
X0072133D01*
X0072066Y007135D02*
X00721D01*
X0072166Y00713D02*
Y00714D01*
X0072216D01*
X0072233Y0071383D01*
Y0071317D01*
X0072216Y00713D01*
X0072166D01*
X0072433Y0071317D02*
X0072416Y00713D01*
X0072383D01*
X0072366Y0071317D01*
Y0071333D01*
X0072383Y007135D01*
X0072416D01*
X0072433Y0071367D01*
Y0071383D01*
X0072416Y00714D01*
X0072383D01*
X0072366Y0071383D01*
X0072466Y00713D02*
X00725D01*
X0072483D01*
Y00714D01*
X0072466D01*
X00725D01*
X0072549Y00713D02*
Y00714D01*
X0072616D01*
X0072649Y00713D02*
Y00714D01*
Y0071367D01*
X0072716Y00713D01*
X0072666Y007135D01*
X0072716Y00714D01*
X0072816Y0071317D02*
X0072799Y00713D01*
X0072766D01*
X0072749Y0071317D01*
Y0071333D01*
X0072766Y007135D01*
X0072799D01*
X0072816Y0071367D01*
Y0071383D01*
X0072799Y00714D01*
X0072766D01*
X0072749Y0071383D01*
X0072916Y0071317D02*
X0072899Y00713D01*
X0072866D01*
X0072849Y0071317D01*
Y0071383D01*
X0072866Y00714D01*
X0072899D01*
X0072916Y0071383D01*
X0072949Y00714D02*
Y00713D01*
X0072999D01*
X0073016Y0071317D01*
Y007135D01*
X0072999Y0071367D01*
X0072949D01*
X0072983D02*
X0073016Y00714D01*
X0073116Y00713D02*
X0073049D01*
Y00714D01*
X0073116D01*
X0073049Y007135D02*
X0073083D01*
X0073216Y00713D02*
X0073149D01*
Y00714D01*
X0073216D01*
X0073149Y007135D02*
X0073183D01*
X0073249Y00714D02*
Y00713D01*
X0073316Y00714D01*
Y00713D01*
X0073349Y00714D02*
Y0071383D01*
X0073366D01*
Y00714D01*
X0073349D01*
X0070767Y0078317D02*
X007075Y00783D01*
X0070717D01*
X00707Y0078317D01*
Y0078333D01*
X0070717Y007835D01*
X007075D01*
X0070767Y0078367D01*
Y0078383D01*
X007075Y00784D01*
X0070717D01*
X00707Y0078383D01*
X0070867Y0078317D02*
X007085Y00783D01*
X0070817D01*
X00708Y0078317D01*
Y0078333D01*
X0070817Y007835D01*
X007085D01*
X0070867Y0078367D01*
Y0078383D01*
X007085Y00784D01*
X0070817D01*
X00708Y0078383D01*
X0071Y00784D02*
X0071033D01*
X0071017D01*
Y00783D01*
X0071Y0078317D01*
X0071083D02*
X00711Y00783D01*
X0071133D01*
X007115Y0078317D01*
Y0078383D01*
X0071133Y00784D01*
X00711D01*
X0071083Y0078383D01*
Y0078317D01*
X007125Y00784D02*
X0071183D01*
X007125Y0078333D01*
Y0078317D01*
X0071233Y00783D01*
X00712D01*
X0071183Y0078317D01*
X007135Y00783D02*
X0071283D01*
Y007835D01*
X0071316Y0078333D01*
X0071333D01*
X007135Y007835D01*
Y0078383D01*
X0071333Y00784D01*
X00713D01*
X0071283Y0078383D01*
X0071383Y00784D02*
X0071416D01*
X00714D01*
Y00783D01*
X0071383Y0078317D01*
X0071533Y00784D02*
X0071466D01*
X0071533Y0078333D01*
Y0078317D01*
X0071516Y00783D01*
X0071483D01*
X0071466Y0078317D01*
X0071583Y0078417D02*
X00716Y00784D01*
Y0078383D01*
X0071583D01*
Y00784D01*
X00716D01*
X0071583Y0078417D01*
X0071566Y0078433D01*
X0071766Y00784D02*
Y0078333D01*
X00718Y00783D01*
X0071833Y0078333D01*
Y00784D01*
Y007835D01*
X0071766D01*
X0071866Y00783D02*
Y00784D01*
X0071916D01*
X0071933Y0078383D01*
Y0078317D01*
X0071916Y00783D01*
X0071866D01*
X0071966D02*
Y00784D01*
X0072016D01*
X0072033Y0078383D01*
Y0078317D01*
X0072016Y00783D01*
X0071966D01*
X0072133D02*
X0072066D01*
Y00784D01*
X0072133D01*
X0072066Y007835D02*
X00721D01*
X0072166Y00783D02*
Y00784D01*
X0072216D01*
X0072233Y0078383D01*
Y0078317D01*
X0072216Y00783D01*
X0072166D01*
X0072433Y0078317D02*
X0072416Y00783D01*
X0072383D01*
X0072366Y0078317D01*
Y0078333D01*
X0072383Y007835D01*
X0072416D01*
X0072433Y0078367D01*
Y0078383D01*
X0072416Y00784D01*
X0072383D01*
X0072366Y0078383D01*
X0072466Y00783D02*
X00725D01*
X0072483D01*
Y00784D01*
X0072466D01*
X00725D01*
X0072549Y00783D02*
Y00784D01*
X0072616D01*
X0072649Y00783D02*
Y00784D01*
Y0078367D01*
X0072716Y00783D01*
X0072666Y007835D01*
X0072716Y00784D01*
X0072816Y0078317D02*
X0072799Y00783D01*
X0072766D01*
X0072749Y0078317D01*
Y0078333D01*
X0072766Y007835D01*
X0072799D01*
X0072816Y0078367D01*
Y0078383D01*
X0072799Y00784D01*
X0072766D01*
X0072749Y0078383D01*
X0072916Y0078317D02*
X0072899Y00783D01*
X0072866D01*
X0072849Y0078317D01*
Y0078383D01*
X0072866Y00784D01*
X0072899D01*
X0072916Y0078383D01*
X0072949Y00784D02*
Y00783D01*
X0072999D01*
X0073016Y0078317D01*
Y007835D01*
X0072999Y0078367D01*
X0072949D01*
X0072983D02*
X0073016Y00784D01*
X0073116Y00783D02*
X0073049D01*
Y00784D01*
X0073116D01*
X0073049Y007835D02*
X0073083D01*
X0073216Y00783D02*
X0073149D01*
Y00784D01*
X0073216D01*
X0073149Y007835D02*
X0073183D01*
X0073249Y00784D02*
Y00783D01*
X0073316Y00784D01*
Y00783D01*
X0073349Y00784D02*
Y0078383D01*
X0073366D01*
Y00784D01*
X0073349D01*
X0050417Y0074133D02*
X00504Y007415D01*
Y0074183D01*
X0050417Y00742D01*
X0050433D01*
X005045Y0074183D01*
Y007415D01*
X0050467Y0074133D01*
X0050483D01*
X00505Y007415D01*
Y0074183D01*
X0050483Y00742D01*
X0050417Y0074033D02*
X00504Y007405D01*
Y0074083D01*
X0050417Y00741D01*
X0050433D01*
X005045Y0074083D01*
Y007405D01*
X0050467Y0074033D01*
X0050483D01*
X00505Y007405D01*
Y0074083D01*
X0050483Y00741D01*
X00505Y00739D02*
Y0073867D01*
Y0073883D01*
X00504D01*
X0050417Y00739D01*
Y0073817D02*
X00504Y00738D01*
Y0073767D01*
X0050417Y007375D01*
X0050483D01*
X00505Y0073767D01*
Y00738D01*
X0050483Y0073817D01*
X0050417D01*
X00505Y007365D02*
Y0073717D01*
X0050433Y007365D01*
X0050417D01*
X00504Y0073667D01*
Y00737D01*
X0050417Y0073717D01*
X00504Y007355D02*
Y0073617D01*
X005045D01*
X0050433Y0073584D01*
Y0073567D01*
X005045Y007355D01*
X0050483D01*
X00505Y0073567D01*
Y00736D01*
X0050483Y0073617D01*
X00505Y0073517D02*
Y0073484D01*
Y00735D01*
X00504D01*
X0050417Y0073517D01*
X00505Y0073367D02*
Y0073434D01*
X0050433Y0073367D01*
X0050417D01*
X00504Y0073384D01*
Y0073417D01*
X0050417Y0073434D01*
X0050517Y0073317D02*
X00505Y00733D01*
X0050483D01*
Y0073317D01*
X00505D01*
Y00733D01*
X0050517Y0073317D01*
X0050533Y0073334D01*
X00505Y0073134D02*
X0050433D01*
X00504Y00731D01*
X0050433Y0073067D01*
X00505D01*
X005045D01*
Y0073134D01*
X00504Y0073034D02*
X00505D01*
Y0072984D01*
X0050483Y0072967D01*
X0050417D01*
X00504Y0072984D01*
Y0073034D01*
Y0072934D02*
X00505D01*
Y0072884D01*
X0050483Y0072867D01*
X0050417D01*
X00504Y0072884D01*
Y0072934D01*
Y0072767D02*
Y0072834D01*
X00505D01*
Y0072767D01*
X005045Y0072834D02*
Y00728D01*
X00504Y0072734D02*
X00505D01*
Y0072684D01*
X0050483Y0072667D01*
X0050417D01*
X00504Y0072684D01*
Y0072734D01*
X0050417Y0072467D02*
X00504Y0072484D01*
Y0072517D01*
X0050417Y0072534D01*
X0050433D01*
X005045Y0072517D01*
Y0072484D01*
X0050467Y0072467D01*
X0050483D01*
X00505Y0072484D01*
Y0072517D01*
X0050483Y0072534D01*
X00504Y0072434D02*
Y00724D01*
Y0072417D01*
X00505D01*
Y0072434D01*
Y00724D01*
X00504Y0072351D02*
X00505D01*
Y0072284D01*
X00504Y0072251D02*
X00505D01*
X0050467D01*
X00504Y0072184D01*
X005045Y0072234D01*
X00505Y0072184D01*
X0050417Y0072084D02*
X00504Y0072101D01*
Y0072134D01*
X0050417Y0072151D01*
X0050433D01*
X005045Y0072134D01*
Y0072101D01*
X0050467Y0072084D01*
X0050483D01*
X00505Y0072101D01*
Y0072134D01*
X0050483Y0072151D01*
X0050417Y0071984D02*
X00504Y0072001D01*
Y0072034D01*
X0050417Y0072051D01*
X0050483D01*
X00505Y0072034D01*
Y0072001D01*
X0050483Y0071984D01*
X00505Y0071951D02*
X00504D01*
Y0071901D01*
X0050417Y0071884D01*
X005045D01*
X0050467Y0071901D01*
Y0071951D01*
Y0071917D02*
X00505Y0071884D01*
X00504Y0071784D02*
Y0071851D01*
X00505D01*
Y0071784D01*
X005045Y0071851D02*
Y0071817D01*
X00504Y0071684D02*
Y0071751D01*
X00505D01*
Y0071684D01*
X005045Y0071751D02*
Y0071717D01*
X00505Y0071651D02*
X00504D01*
X00505Y0071584D01*
X00504D01*
X00505Y0071551D02*
X0050483D01*
Y0071534D01*
X00505D01*
Y0071551D01*
X0249688Y0011683D02*
X0249705Y00117D01*
X0249738D01*
X0249755Y0011683D01*
Y0011667D01*
X0249738Y001165D01*
X0249705D01*
X0249688Y0011633D01*
Y0011617D01*
X0249705Y00116D01*
X0249738D01*
X0249755Y0011617D01*
X0249588Y0011683D02*
X0249605Y00117D01*
X0249638D01*
X0249655Y0011683D01*
Y0011667D01*
X0249638Y001165D01*
X0249605D01*
X0249588Y0011633D01*
Y0011617D01*
X0249605Y00116D01*
X0249638D01*
X0249655Y0011617D01*
X0249455Y00116D02*
X0249422D01*
X0249438D01*
Y00117D01*
X0249455Y0011683D01*
X0249372D02*
X0249355Y00117D01*
X0249322D01*
X0249305Y0011683D01*
Y0011617D01*
X0249322Y00116D01*
X0249355D01*
X0249372Y0011617D01*
Y0011683D01*
X0249205Y00116D02*
X0249271D01*
X0249205Y0011667D01*
Y0011683D01*
X0249222Y00117D01*
X0249255D01*
X0249271Y0011683D01*
X0249105Y00117D02*
X0249172D01*
Y001165D01*
X0249138Y0011667D01*
X0249122D01*
X0249105Y001165D01*
Y0011617D01*
X0249122Y00116D01*
X0249155D01*
X0249172Y0011617D01*
X0249072Y00116D02*
X0249038D01*
X0249055D01*
Y00117D01*
X0249072Y0011683D01*
X0248922Y00116D02*
X0248988D01*
X0248922Y0011667D01*
Y0011683D01*
X0248938Y00117D01*
X0248972D01*
X0248988Y0011683D01*
X0248872Y0011583D02*
X0248855Y00116D01*
Y0011617D01*
X0248872D01*
Y00116D01*
X0248855D01*
X0248872Y0011583D01*
X0248888Y0011567D01*
X0248688Y00116D02*
Y0011667D01*
X0248655Y00117D01*
X0248622Y0011667D01*
Y00116D01*
Y001165D01*
X0248688D01*
X0248588Y00117D02*
Y00116D01*
X0248538D01*
X0248522Y0011617D01*
Y0011683D01*
X0248538Y00117D01*
X0248588D01*
X0248488D02*
Y00116D01*
X0248439D01*
X0248422Y0011617D01*
Y0011683D01*
X0248439Y00117D01*
X0248488D01*
X0248322D02*
X0248389D01*
Y00116D01*
X0248322D01*
X0248389Y001165D02*
X0248355D01*
X0248288Y00117D02*
Y00116D01*
X0248238D01*
X0248222Y0011617D01*
Y0011683D01*
X0248238Y00117D01*
X0248288D01*
X0248022Y0011683D02*
X0248039Y00117D01*
X0248072D01*
X0248089Y0011683D01*
Y0011667D01*
X0248072Y001165D01*
X0248039D01*
X0248022Y0011633D01*
Y0011617D01*
X0248039Y00116D01*
X0248072D01*
X0248089Y0011617D01*
X0247989Y00117D02*
X0247955D01*
X0247972D01*
Y00116D01*
X0247989D01*
X0247955D01*
X0247905Y00117D02*
Y00116D01*
X0247839D01*
X0247805Y00117D02*
Y00116D01*
Y0011633D01*
X0247739Y00117D01*
X0247789Y001165D01*
X0247739Y00116D01*
X0247639Y0011683D02*
X0247655Y00117D01*
X0247689D01*
X0247705Y0011683D01*
Y0011667D01*
X0247689Y001165D01*
X0247655D01*
X0247639Y0011633D01*
Y0011617D01*
X0247655Y00116D01*
X0247689D01*
X0247705Y0011617D01*
X0247539Y0011683D02*
X0247555Y00117D01*
X0247589D01*
X0247605Y0011683D01*
Y0011617D01*
X0247589Y00116D01*
X0247555D01*
X0247539Y0011617D01*
X0247505Y00116D02*
Y00117D01*
X0247455D01*
X0247439Y0011683D01*
Y001165D01*
X0247455Y0011633D01*
X0247505D01*
X0247472D02*
X0247439Y00116D01*
X0247339Y00117D02*
X0247405D01*
Y00116D01*
X0247339D01*
X0247405Y001165D02*
X0247372D01*
X0247239Y00117D02*
X0247305D01*
Y00116D01*
X0247239D01*
X0247305Y001165D02*
X0247272D01*
X0247205Y00116D02*
Y00117D01*
X0247139Y00116D01*
Y00117D01*
X0247106Y00116D02*
Y0011617D01*
X0247089D01*
Y00116D01*
X0247106D01*
X0183628Y0129694D02*
X0183611Y0129711D01*
Y0129744D01*
X0183628Y0129761D01*
X0183644D01*
X0183661Y0129744D01*
Y0129711D01*
X0183678Y0129694D01*
X0183694D01*
X0183711Y0129711D01*
Y0129744D01*
X0183694Y0129761D01*
X0183628Y0129594D02*
X0183611Y0129611D01*
Y0129644D01*
X0183628Y0129661D01*
X0183644D01*
X0183661Y0129644D01*
Y0129611D01*
X0183678Y0129594D01*
X0183694D01*
X0183711Y0129611D01*
Y0129644D01*
X0183694Y0129661D01*
X0183711Y0129461D02*
Y0129427D01*
Y0129444D01*
X0183611D01*
X0183628Y0129461D01*
Y0129377D02*
X0183611Y0129361D01*
Y0129327D01*
X0183628Y0129311D01*
X0183694D01*
X0183711Y0129327D01*
Y0129361D01*
X0183694Y0129377D01*
X0183628D01*
X0183711Y0129211D02*
Y0129277D01*
X0183644Y0129211D01*
X0183628D01*
X0183611Y0129227D01*
Y0129261D01*
X0183628Y0129277D01*
X0183611Y0129111D02*
Y0129177D01*
X0183661D01*
X0183644Y0129144D01*
Y0129128D01*
X0183661Y0129111D01*
X0183694D01*
X0183711Y0129128D01*
Y0129161D01*
X0183694Y0129177D01*
X0183711Y0129077D02*
Y0129044D01*
Y0129061D01*
X0183611D01*
X0183628Y0129077D01*
X0183711Y0128928D02*
Y0128994D01*
X0183644Y0128928D01*
X0183628D01*
X0183611Y0128944D01*
Y0128978D01*
X0183628Y0128994D01*
X0183728Y0128878D02*
X0183711Y0128861D01*
X0183694D01*
Y0128878D01*
X0183711D01*
Y0128861D01*
X0183728Y0128878D01*
X0183744Y0128894D01*
X0183711Y0128694D02*
X0183644D01*
X0183611Y0128661D01*
X0183644Y0128628D01*
X0183711D01*
X0183661D01*
Y0128694D01*
X0183611Y0128594D02*
X0183711D01*
Y0128544D01*
X0183694Y0128528D01*
X0183628D01*
X0183611Y0128544D01*
Y0128594D01*
Y0128494D02*
X0183711D01*
Y0128444D01*
X0183694Y0128428D01*
X0183628D01*
X0183611Y0128444D01*
Y0128494D01*
Y0128328D02*
Y0128394D01*
X0183711D01*
Y0128328D01*
X0183661Y0128394D02*
Y0128361D01*
X0183611Y0128294D02*
X0183711D01*
Y0128244D01*
X0183694Y0128228D01*
X0183628D01*
X0183611Y0128244D01*
Y0128294D01*
X0183628Y0128028D02*
X0183611Y0128044D01*
Y0128078D01*
X0183628Y0128094D01*
X0183644D01*
X0183661Y0128078D01*
Y0128044D01*
X0183678Y0128028D01*
X0183694D01*
X0183711Y0128044D01*
Y0128078D01*
X0183694Y0128094D01*
X0183611Y0127995D02*
Y0127961D01*
Y0127978D01*
X0183711D01*
Y0127995D01*
Y0127961D01*
X0183611Y0127911D02*
X0183711D01*
Y0127845D01*
X0183611Y0127811D02*
X0183711D01*
X0183678D01*
X0183611Y0127745D01*
X0183661Y0127795D01*
X0183711Y0127745D01*
X0183628Y0127645D02*
X0183611Y0127661D01*
Y0127695D01*
X0183628Y0127711D01*
X0183644D01*
X0183661Y0127695D01*
Y0127661D01*
X0183678Y0127645D01*
X0183694D01*
X0183711Y0127661D01*
Y0127695D01*
X0183694Y0127711D01*
X0183628Y0127545D02*
X0183611Y0127561D01*
Y0127595D01*
X0183628Y0127611D01*
X0183694D01*
X0183711Y0127595D01*
Y0127561D01*
X0183694Y0127545D01*
X0183711Y0127511D02*
X0183611D01*
Y0127461D01*
X0183628Y0127445D01*
X0183661D01*
X0183678Y0127461D01*
Y0127511D01*
Y0127478D02*
X0183711Y0127445D01*
X0183611Y0127345D02*
Y0127411D01*
X0183711D01*
Y0127345D01*
X0183661Y0127411D02*
Y0127378D01*
X0183611Y0127245D02*
Y0127311D01*
X0183711D01*
Y0127245D01*
X0183661Y0127311D02*
Y0127278D01*
X0183711Y0127211D02*
X0183611D01*
X0183711Y0127145D01*
X0183611D01*
X0183711Y0127111D02*
X0183694D01*
Y0127095D01*
X0183711D01*
Y0127111D01*
X0202683Y0056267D02*
X02027Y005625D01*
Y0056217D01*
X0202683Y00562D01*
X0202667D01*
X020265Y0056217D01*
Y005625D01*
X0202633Y0056267D01*
X0202617D01*
X02026Y005625D01*
Y0056217D01*
X0202617Y00562D01*
X0202683Y0056367D02*
X02027Y005635D01*
Y0056317D01*
X0202683Y00563D01*
X0202667D01*
X020265Y0056317D01*
Y005635D01*
X0202633Y0056367D01*
X0202617D01*
X02026Y005635D01*
Y0056317D01*
X0202617Y00563D01*
X02026Y00565D02*
Y0056533D01*
Y0056517D01*
X02027D01*
X0202683Y00565D01*
Y0056583D02*
X02027Y00566D01*
Y0056633D01*
X0202683Y005665D01*
X0202617D01*
X02026Y0056633D01*
Y00566D01*
X0202617Y0056583D01*
X0202683D01*
X02026Y005675D02*
Y0056683D01*
X0202667Y005675D01*
X0202683D01*
X02027Y0056733D01*
Y00567D01*
X0202683Y0056683D01*
X02027Y005685D02*
Y0056783D01*
X020265D01*
X0202667Y0056817D01*
Y0056833D01*
X020265Y005685D01*
X0202617D01*
X02026Y0056833D01*
Y00568D01*
X0202617Y0056783D01*
X02026Y0056883D02*
Y0056916D01*
Y00569D01*
X02027D01*
X0202683Y0056883D01*
X02026Y0057033D02*
Y0056966D01*
X0202667Y0057033D01*
X0202683D01*
X02027Y0057016D01*
Y0056983D01*
X0202683Y0056966D01*
X0202583Y0057083D02*
X02026Y00571D01*
X0202617D01*
Y0057083D01*
X02026D01*
Y00571D01*
X0202583Y0057083D01*
X0202567Y0057066D01*
X02026Y0057266D02*
X0202667D01*
X02027Y00573D01*
X0202667Y0057333D01*
X02026D01*
X020265D01*
Y0057266D01*
X02027Y0057366D02*
X02026D01*
Y0057416D01*
X0202617Y0057433D01*
X0202683D01*
X02027Y0057416D01*
Y0057366D01*
Y0057466D02*
X02026D01*
Y0057516D01*
X0202617Y0057533D01*
X0202683D01*
X02027Y0057516D01*
Y0057466D01*
Y0057633D02*
Y0057566D01*
X02026D01*
Y0057633D01*
X020265Y0057566D02*
Y00576D01*
X02027Y0057666D02*
X02026D01*
Y0057716D01*
X0202617Y0057733D01*
X0202683D01*
X02027Y0057716D01*
Y0057666D01*
X0202683Y0057933D02*
X02027Y0057916D01*
Y0057883D01*
X0202683Y0057866D01*
X0202667D01*
X020265Y0057883D01*
Y0057916D01*
X0202633Y0057933D01*
X0202617D01*
X02026Y0057916D01*
Y0057883D01*
X0202617Y0057866D01*
X02027Y0057966D02*
Y0057999D01*
Y0057983D01*
X02026D01*
Y0057966D01*
Y0057999D01*
X02027Y0058049D02*
X02026D01*
Y0058116D01*
X02027Y0058149D02*
X02026D01*
X0202633D01*
X02027Y0058216D01*
X020265Y0058166D01*
X02026Y0058216D01*
X0202683Y0058316D02*
X02027Y0058299D01*
Y0058266D01*
X0202683Y0058249D01*
X0202667D01*
X020265Y0058266D01*
Y0058299D01*
X0202633Y0058316D01*
X0202617D01*
X02026Y0058299D01*
Y0058266D01*
X0202617Y0058249D01*
X0202683Y0058416D02*
X02027Y0058399D01*
Y0058366D01*
X0202683Y0058349D01*
X0202617D01*
X02026Y0058366D01*
Y0058399D01*
X0202617Y0058416D01*
X02026Y0058449D02*
X02027D01*
Y0058499D01*
X0202683Y0058516D01*
X020265D01*
X0202633Y0058499D01*
Y0058449D01*
Y0058483D02*
X02026Y0058516D01*
X02027Y0058616D02*
Y0058549D01*
X02026D01*
Y0058616D01*
X020265Y0058549D02*
Y0058583D01*
X02027Y0058716D02*
Y0058649D01*
X02026D01*
Y0058716D01*
X020265Y0058649D02*
Y0058683D01*
X02026Y0058749D02*
X02027D01*
X02026Y0058816D01*
X02027D01*
X02026Y0058849D02*
X0202617D01*
Y0058866D01*
X02026D01*
Y0058849D01*
X016012Y0138585D02*
X0160137Y0138569D01*
Y0138536D01*
X016012Y0138519D01*
X0160104D01*
X0160087Y0138536D01*
Y0138569D01*
X016007Y0138585D01*
X0160054D01*
X0160037Y0138569D01*
Y0138536D01*
X0160054Y0138519D01*
X016012Y0138686D02*
X0160137Y0138669D01*
Y0138636D01*
X016012Y0138619D01*
X0160104D01*
X0160087Y0138636D01*
Y0138669D01*
X016007Y0138686D01*
X0160054D01*
X0160037Y0138669D01*
Y0138636D01*
X0160054Y0138619D01*
X0160037Y0138819D02*
Y0138852D01*
Y0138836D01*
X0160137D01*
X016012Y0138819D01*
Y0138902D02*
X0160137Y0138919D01*
Y0138952D01*
X016012Y0138969D01*
X0160054D01*
X0160037Y0138952D01*
Y0138919D01*
X0160054Y0138902D01*
X016012D01*
X0160037Y0139069D02*
Y0139002D01*
X0160104Y0139069D01*
X016012D01*
X0160137Y0139052D01*
Y0139019D01*
X016012Y0139002D01*
X0160137Y0139169D02*
Y0139102D01*
X0160087D01*
X0160104Y0139135D01*
Y0139152D01*
X0160087Y0139169D01*
X0160054D01*
X0160037Y0139152D01*
Y0139119D01*
X0160054Y0139102D01*
X0160037Y0139202D02*
Y0139235D01*
Y0139219D01*
X0160137D01*
X016012Y0139202D01*
X0160037Y0139352D02*
Y0139285D01*
X0160104Y0139352D01*
X016012D01*
X0160137Y0139335D01*
Y0139302D01*
X016012Y0139285D01*
X016002Y0139402D02*
X0160037Y0139419D01*
X0160054D01*
Y0139402D01*
X0160037D01*
Y0139419D01*
X016002Y0139402D01*
X0160004Y0139385D01*
X0160037Y0139585D02*
X0160104D01*
X0160137Y0139619D01*
X0160104Y0139652D01*
X0160037D01*
X0160087D01*
Y0139585D01*
X0160137Y0139685D02*
X0160037D01*
Y0139735D01*
X0160054Y0139752D01*
X016012D01*
X0160137Y0139735D01*
Y0139685D01*
Y0139785D02*
X0160037D01*
Y0139835D01*
X0160054Y0139852D01*
X016012D01*
X0160137Y0139835D01*
Y0139785D01*
Y0139952D02*
Y0139885D01*
X0160037D01*
Y0139952D01*
X0160087Y0139885D02*
Y0139918D01*
X0160137Y0139985D02*
X0160037D01*
Y0140035D01*
X0160054Y0140052D01*
X016012D01*
X0160137Y0140035D01*
Y0139985D01*
X016012Y0140252D02*
X0160137Y0140235D01*
Y0140202D01*
X016012Y0140185D01*
X0160104D01*
X0160087Y0140202D01*
Y0140235D01*
X016007Y0140252D01*
X0160054D01*
X0160037Y0140235D01*
Y0140202D01*
X0160054Y0140185D01*
X0160137Y0140285D02*
Y0140318D01*
Y0140302D01*
X0160037D01*
Y0140285D01*
Y0140318D01*
X0160137Y0140368D02*
X0160037D01*
Y0140435D01*
X0160137Y0140468D02*
X0160037D01*
X016007D01*
X0160137Y0140535D01*
X0160087Y0140485D01*
X0160037Y0140535D01*
X016012Y0140635D02*
X0160137Y0140618D01*
Y0140585D01*
X016012Y0140568D01*
X0160104D01*
X0160087Y0140585D01*
Y0140618D01*
X016007Y0140635D01*
X0160054D01*
X0160037Y0140618D01*
Y0140585D01*
X0160054Y0140568D01*
X016012Y0140735D02*
X0160137Y0140718D01*
Y0140685D01*
X016012Y0140668D01*
X0160054D01*
X0160037Y0140685D01*
Y0140718D01*
X0160054Y0140735D01*
X0160037Y0140768D02*
X0160137D01*
Y0140818D01*
X016012Y0140835D01*
X0160087D01*
X016007Y0140818D01*
Y0140768D01*
Y0140802D02*
X0160037Y0140835D01*
X0160137Y0140935D02*
Y0140868D01*
X0160037D01*
Y0140935D01*
X0160087Y0140868D02*
Y0140902D01*
X0160137Y0141035D02*
Y0140968D01*
X0160037D01*
Y0141035D01*
X0160087Y0140968D02*
Y0141001D01*
X0160037Y0141068D02*
X0160137D01*
X0160037Y0141135D01*
X0160137D01*
X0160037Y0141168D02*
X0160054D01*
Y0141185D01*
X0160037D01*
Y0141168D01*
X016112Y0151973D02*
X0161137Y0151957D01*
Y0151923D01*
X016112Y0151907D01*
X0161104D01*
X0161087Y0151923D01*
Y0151957D01*
X016107Y0151973D01*
X0161054D01*
X0161037Y0151957D01*
Y0151923D01*
X0161054Y0151907D01*
X016112Y0152073D02*
X0161137Y0152057D01*
Y0152023D01*
X016112Y0152007D01*
X0161104D01*
X0161087Y0152023D01*
Y0152057D01*
X016107Y0152073D01*
X0161054D01*
X0161037Y0152057D01*
Y0152023D01*
X0161054Y0152007D01*
X0161037Y0152207D02*
Y015224D01*
Y0152223D01*
X0161137D01*
X016112Y0152207D01*
Y015229D02*
X0161137Y0152307D01*
Y015234D01*
X016112Y0152357D01*
X0161054D01*
X0161037Y015234D01*
Y0152307D01*
X0161054Y015229D01*
X016112D01*
X0161037Y0152456D02*
Y015239D01*
X0161104Y0152456D01*
X016112D01*
X0161137Y015244D01*
Y0152407D01*
X016112Y015239D01*
X0161137Y0152557D02*
Y015249D01*
X0161087D01*
X0161104Y0152523D01*
Y015254D01*
X0161087Y0152557D01*
X0161054D01*
X0161037Y015254D01*
Y0152506D01*
X0161054Y015249D01*
X0161037Y015259D02*
Y0152623D01*
Y0152606D01*
X0161137D01*
X016112Y015259D01*
X0161037Y015274D02*
Y0152673D01*
X0161104Y015274D01*
X016112D01*
X0161137Y0152723D01*
Y015269D01*
X016112Y0152673D01*
X016102Y015279D02*
X0161037Y0152806D01*
X0161054D01*
Y015279D01*
X0161037D01*
Y0152806D01*
X016102Y015279D01*
X0161004Y0152773D01*
X0161037Y0152973D02*
X0161104D01*
X0161137Y0153006D01*
X0161104Y015304D01*
X0161037D01*
X0161087D01*
Y0152973D01*
X0161137Y0153073D02*
X0161037D01*
Y0153123D01*
X0161054Y015314D01*
X016112D01*
X0161137Y0153123D01*
Y0153073D01*
Y0153173D02*
X0161037D01*
Y0153223D01*
X0161054Y015324D01*
X016112D01*
X0161137Y0153223D01*
Y0153173D01*
Y015334D02*
Y0153273D01*
X0161037D01*
Y015334D01*
X0161087Y0153273D02*
Y0153306D01*
X0161137Y0153373D02*
X0161037D01*
Y0153423D01*
X0161054Y015344D01*
X016112D01*
X0161137Y0153423D01*
Y0153373D01*
X016112Y0153639D02*
X0161137Y0153623D01*
Y0153589D01*
X016112Y0153573D01*
X0161104D01*
X0161087Y0153589D01*
Y0153623D01*
X016107Y0153639D01*
X0161054D01*
X0161037Y0153623D01*
Y0153589D01*
X0161054Y0153573D01*
X0161137Y0153673D02*
Y0153706D01*
Y015369D01*
X0161037D01*
Y0153673D01*
Y0153706D01*
X0161137Y0153756D02*
X0161037D01*
Y0153823D01*
X0161137Y0153856D02*
X0161037D01*
X016107D01*
X0161137Y0153923D01*
X0161087Y0153873D01*
X0161037Y0153923D01*
X016112Y0154023D02*
X0161137Y0154006D01*
Y0153973D01*
X016112Y0153956D01*
X0161104D01*
X0161087Y0153973D01*
Y0154006D01*
X016107Y0154023D01*
X0161054D01*
X0161037Y0154006D01*
Y0153973D01*
X0161054Y0153956D01*
X016112Y0154123D02*
X0161137Y0154106D01*
Y0154073D01*
X016112Y0154056D01*
X0161054D01*
X0161037Y0154073D01*
Y0154106D01*
X0161054Y0154123D01*
X0161037Y0154156D02*
X0161137D01*
Y0154206D01*
X016112Y0154223D01*
X0161087D01*
X016107Y0154206D01*
Y0154156D01*
Y0154189D02*
X0161037Y0154223D01*
X0161137Y0154323D02*
Y0154256D01*
X0161037D01*
Y0154323D01*
X0161087Y0154256D02*
Y0154289D01*
X0161137Y0154423D02*
Y0154356D01*
X0161037D01*
Y0154423D01*
X0161087Y0154356D02*
Y0154389D01*
X0161037Y0154456D02*
X0161137D01*
X0161037Y0154523D01*
X0161137D01*
X0161037Y0154556D02*
X0161054D01*
Y0154573D01*
X0161037D01*
Y0154556D01*
X0338183Y0049367D02*
X03382Y004935D01*
Y0049317D01*
X0338183Y00493D01*
X0338167D01*
X033815Y0049317D01*
Y004935D01*
X0338133Y0049367D01*
X0338117D01*
X03381Y004935D01*
Y0049317D01*
X0338117Y00493D01*
X0338183Y0049467D02*
X03382Y004945D01*
Y0049417D01*
X0338183Y00494D01*
X0338167D01*
X033815Y0049417D01*
Y004945D01*
X0338133Y0049467D01*
X0338117D01*
X03381Y004945D01*
Y0049417D01*
X0338117Y00494D01*
X03381Y00496D02*
Y0049633D01*
Y0049617D01*
X03382D01*
X0338183Y00496D01*
Y0049683D02*
X03382Y00497D01*
Y0049733D01*
X0338183Y004975D01*
X0338117D01*
X03381Y0049733D01*
Y00497D01*
X0338117Y0049683D01*
X0338183D01*
X03381Y004985D02*
Y0049783D01*
X0338167Y004985D01*
X0338183D01*
X03382Y0049833D01*
Y00498D01*
X0338183Y0049783D01*
X03382Y004995D02*
Y0049883D01*
X033815D01*
X0338167Y0049916D01*
Y0049933D01*
X033815Y004995D01*
X0338117D01*
X03381Y0049933D01*
Y00499D01*
X0338117Y0049883D01*
X03381Y0049983D02*
Y0050016D01*
Y005D01*
X03382D01*
X0338183Y0049983D01*
X03381Y0050133D02*
Y0050066D01*
X0338167Y0050133D01*
X0338183D01*
X03382Y0050116D01*
Y0050083D01*
X0338183Y0050066D01*
X0338083Y0050183D02*
X03381Y00502D01*
X0338117D01*
Y0050183D01*
X03381D01*
Y00502D01*
X0338083Y0050183D01*
X0338067Y0050166D01*
X03381Y0050366D02*
X0338167D01*
X03382Y00504D01*
X0338167Y0050433D01*
X03381D01*
X033815D01*
Y0050366D01*
X03382Y0050466D02*
X03381D01*
Y0050516D01*
X0338117Y0050533D01*
X0338183D01*
X03382Y0050516D01*
Y0050466D01*
Y0050566D02*
X03381D01*
Y0050616D01*
X0338117Y0050633D01*
X0338183D01*
X03382Y0050616D01*
Y0050566D01*
Y0050733D02*
Y0050666D01*
X03381D01*
Y0050733D01*
X033815Y0050666D02*
Y00507D01*
X03382Y0050766D02*
X03381D01*
Y0050816D01*
X0338117Y0050833D01*
X0338183D01*
X03382Y0050816D01*
Y0050766D01*
X0338183Y0051033D02*
X03382Y0051016D01*
Y0050983D01*
X0338183Y0050966D01*
X0338167D01*
X033815Y0050983D01*
Y0051016D01*
X0338133Y0051033D01*
X0338117D01*
X03381Y0051016D01*
Y0050983D01*
X0338117Y0050966D01*
X03382Y0051066D02*
Y0051099D01*
Y0051083D01*
X03381D01*
Y0051066D01*
Y0051099D01*
X03382Y0051149D02*
X03381D01*
Y0051216D01*
X03382Y0051249D02*
X03381D01*
X0338133D01*
X03382Y0051316D01*
X033815Y0051266D01*
X03381Y0051316D01*
X0338183Y0051416D02*
X03382Y0051399D01*
Y0051366D01*
X0338183Y0051349D01*
X0338167D01*
X033815Y0051366D01*
Y0051399D01*
X0338133Y0051416D01*
X0338117D01*
X03381Y0051399D01*
Y0051366D01*
X0338117Y0051349D01*
X0338183Y0051516D02*
X03382Y0051499D01*
Y0051466D01*
X0338183Y0051449D01*
X0338117D01*
X03381Y0051466D01*
Y0051499D01*
X0338117Y0051516D01*
X03381Y0051549D02*
X03382D01*
Y0051599D01*
X0338183Y0051616D01*
X033815D01*
X0338133Y0051599D01*
Y0051549D01*
Y0051583D02*
X03381Y0051616D01*
X03382Y0051716D02*
Y0051649D01*
X03381D01*
Y0051716D01*
X033815Y0051649D02*
Y0051683D01*
X03382Y0051816D02*
Y0051749D01*
X03381D01*
Y0051816D01*
X033815Y0051749D02*
Y0051783D01*
X03381Y0051849D02*
X03382D01*
X03381Y0051916D01*
X03382D01*
X03381Y0051949D02*
X0338117D01*
Y0051966D01*
X03381D01*
Y0051949D01*
X0287733Y0116683D02*
X028775Y01167D01*
X0287783D01*
X02878Y0116683D01*
Y0116667D01*
X0287783Y011665D01*
X028775D01*
X0287733Y0116633D01*
Y0116617D01*
X028775Y01166D01*
X0287783D01*
X02878Y0116617D01*
X0287633Y0116683D02*
X028765Y01167D01*
X0287683D01*
X02877Y0116683D01*
Y0116667D01*
X0287683Y011665D01*
X028765D01*
X0287633Y0116633D01*
Y0116617D01*
X028765Y01166D01*
X0287683D01*
X02877Y0116617D01*
X02875Y01166D02*
X0287467D01*
X0287483D01*
Y01167D01*
X02875Y0116683D01*
X0287417D02*
X02874Y01167D01*
X0287367D01*
X028735Y0116683D01*
Y0116617D01*
X0287367Y01166D01*
X02874D01*
X0287417Y0116617D01*
Y0116683D01*
X028725Y01166D02*
X0287317D01*
X028725Y0116667D01*
Y0116683D01*
X0287267Y01167D01*
X02873D01*
X0287317Y0116683D01*
X028715Y01167D02*
X0287217D01*
Y011665D01*
X0287183Y0116667D01*
X0287167D01*
X028715Y011665D01*
Y0116617D01*
X0287167Y01166D01*
X02872D01*
X0287217Y0116617D01*
X0287117Y01166D02*
X0287084D01*
X02871D01*
Y01167D01*
X0287117Y0116683D01*
X0286967Y01166D02*
X0287034D01*
X0286967Y0116667D01*
Y0116683D01*
X0286984Y01167D01*
X0287017D01*
X0287034Y0116683D01*
X0286917Y0116583D02*
X02869Y01166D01*
Y0116617D01*
X0286917D01*
Y01166D01*
X02869D01*
X0286917Y0116583D01*
X0286934Y0116567D01*
X0286734Y01166D02*
Y0116667D01*
X02867Y01167D01*
X0286667Y0116667D01*
Y01166D01*
Y011665D01*
X0286734D01*
X0286634Y01167D02*
Y01166D01*
X0286584D01*
X0286567Y0116617D01*
Y0116683D01*
X0286584Y01167D01*
X0286634D01*
X0286534D02*
Y01166D01*
X0286484D01*
X0286467Y0116617D01*
Y0116683D01*
X0286484Y01167D01*
X0286534D01*
X0286367D02*
X0286434D01*
Y01166D01*
X0286367D01*
X0286434Y011665D02*
X02864D01*
X0286334Y01167D02*
Y01166D01*
X0286284D01*
X0286267Y0116617D01*
Y0116683D01*
X0286284Y01167D01*
X0286334D01*
X0286067Y0116683D02*
X0286084Y01167D01*
X0286117D01*
X0286134Y0116683D01*
Y0116667D01*
X0286117Y011665D01*
X0286084D01*
X0286067Y0116633D01*
Y0116617D01*
X0286084Y01166D01*
X0286117D01*
X0286134Y0116617D01*
X0286034Y01167D02*
X0286D01*
X0286017D01*
Y01166D01*
X0286034D01*
X0286D01*
X0285951Y01167D02*
Y01166D01*
X0285884D01*
X0285851Y01167D02*
Y01166D01*
Y0116633D01*
X0285784Y01167D01*
X0285834Y011665D01*
X0285784Y01166D01*
X0285684Y0116683D02*
X0285701Y01167D01*
X0285734D01*
X0285751Y0116683D01*
Y0116667D01*
X0285734Y011665D01*
X0285701D01*
X0285684Y0116633D01*
Y0116617D01*
X0285701Y01166D01*
X0285734D01*
X0285751Y0116617D01*
X0285584Y0116683D02*
X0285601Y01167D01*
X0285634D01*
X0285651Y0116683D01*
Y0116617D01*
X0285634Y01166D01*
X0285601D01*
X0285584Y0116617D01*
X0285551Y01166D02*
Y01167D01*
X0285501D01*
X0285484Y0116683D01*
Y011665D01*
X0285501Y0116633D01*
X0285551D01*
X0285517D02*
X0285484Y01166D01*
X0285384Y01167D02*
X0285451D01*
Y01166D01*
X0285384D01*
X0285451Y011665D02*
X0285417D01*
X0285284Y01167D02*
X0285351D01*
Y01166D01*
X0285284D01*
X0285351Y011665D02*
X0285317D01*
X0285251Y01166D02*
Y01167D01*
X0285184Y01166D01*
Y01167D01*
X0285151Y01166D02*
Y0116617D01*
X0285134D01*
Y01166D01*
X0285151D01*
X0321267Y0114317D02*
X032125Y01143D01*
X0321217D01*
X03212Y0114317D01*
Y0114333D01*
X0321217Y011435D01*
X032125D01*
X0321267Y0114367D01*
Y0114383D01*
X032125Y01144D01*
X0321217D01*
X03212Y0114383D01*
X0321367Y0114317D02*
X032135Y01143D01*
X0321317D01*
X03213Y0114317D01*
Y0114333D01*
X0321317Y011435D01*
X032135D01*
X0321367Y0114367D01*
Y0114383D01*
X032135Y01144D01*
X0321317D01*
X03213Y0114383D01*
X03215Y01144D02*
X0321533D01*
X0321517D01*
Y01143D01*
X03215Y0114317D01*
X0321583D02*
X03216Y01143D01*
X0321633D01*
X032165Y0114317D01*
Y0114383D01*
X0321633Y01144D01*
X03216D01*
X0321583Y0114383D01*
Y0114317D01*
X032175Y01144D02*
X0321683D01*
X032175Y0114333D01*
Y0114317D01*
X0321733Y01143D01*
X03217D01*
X0321683Y0114317D01*
X032185Y01143D02*
X0321783D01*
Y011435D01*
X0321816Y0114333D01*
X0321833D01*
X032185Y011435D01*
Y0114383D01*
X0321833Y01144D01*
X03218D01*
X0321783Y0114383D01*
X0321883Y01144D02*
X0321916D01*
X03219D01*
Y01143D01*
X0321883Y0114317D01*
X0322033Y01144D02*
X0321966D01*
X0322033Y0114333D01*
Y0114317D01*
X0322016Y01143D01*
X0321983D01*
X0321966Y0114317D01*
X0322083Y0114417D02*
X03221Y01144D01*
Y0114383D01*
X0322083D01*
Y01144D01*
X03221D01*
X0322083Y0114417D01*
X0322066Y0114433D01*
X0322266Y01144D02*
Y0114333D01*
X03223Y01143D01*
X0322333Y0114333D01*
Y01144D01*
Y011435D01*
X0322266D01*
X0322366Y01143D02*
Y01144D01*
X0322416D01*
X0322433Y0114383D01*
Y0114317D01*
X0322416Y01143D01*
X0322366D01*
X0322466D02*
Y01144D01*
X0322516D01*
X0322533Y0114383D01*
Y0114317D01*
X0322516Y01143D01*
X0322466D01*
X0322633D02*
X0322566D01*
Y01144D01*
X0322633D01*
X0322566Y011435D02*
X03226D01*
X0322666Y01143D02*
Y01144D01*
X0322716D01*
X0322733Y0114383D01*
Y0114317D01*
X0322716Y01143D01*
X0322666D01*
X0322933Y0114317D02*
X0322916Y01143D01*
X0322883D01*
X0322866Y0114317D01*
Y0114333D01*
X0322883Y011435D01*
X0322916D01*
X0322933Y0114367D01*
Y0114383D01*
X0322916Y01144D01*
X0322883D01*
X0322866Y0114383D01*
X0322966Y01143D02*
X0323D01*
X0322983D01*
Y01144D01*
X0322966D01*
X0323D01*
X0323049Y01143D02*
Y01144D01*
X0323116D01*
X0323149Y01143D02*
Y01144D01*
Y0114367D01*
X0323216Y01143D01*
X0323166Y011435D01*
X0323216Y01144D01*
X0323316Y0114317D02*
X0323299Y01143D01*
X0323266D01*
X0323249Y0114317D01*
Y0114333D01*
X0323266Y011435D01*
X0323299D01*
X0323316Y0114367D01*
Y0114383D01*
X0323299Y01144D01*
X0323266D01*
X0323249Y0114383D01*
X0323416Y0114317D02*
X0323399Y01143D01*
X0323366D01*
X0323349Y0114317D01*
Y0114383D01*
X0323366Y01144D01*
X0323399D01*
X0323416Y0114383D01*
X0323449Y01144D02*
Y01143D01*
X0323499D01*
X0323516Y0114317D01*
Y011435D01*
X0323499Y0114367D01*
X0323449D01*
X0323483D02*
X0323516Y01144D01*
X0323616Y01143D02*
X0323549D01*
Y01144D01*
X0323616D01*
X0323549Y011435D02*
X0323583D01*
X0323716Y01143D02*
X0323649D01*
Y01144D01*
X0323716D01*
X0323649Y011435D02*
X0323683D01*
X0323749Y01144D02*
Y01143D01*
X0323816Y01144D01*
Y01143D01*
X0323849Y01144D02*
Y0114383D01*
X0323866D01*
Y01144D01*
X0323849D01*
X0357333Y0069026D02*
X035735Y0069042D01*
X0357383D01*
X03574Y0069026D01*
Y0069009D01*
X0357383Y0068993D01*
X035735D01*
X0357333Y0068976D01*
Y0068959D01*
X035735Y0068942D01*
X0357383D01*
X03574Y0068959D01*
X0357233Y0069026D02*
X035725Y0069042D01*
X0357283D01*
X03573Y0069026D01*
Y0069009D01*
X0357283Y0068993D01*
X035725D01*
X0357233Y0068976D01*
Y0068959D01*
X035725Y0068942D01*
X0357283D01*
X03573Y0068959D01*
X03571Y0068942D02*
X0357067D01*
X0357083D01*
Y0069042D01*
X03571Y0069026D01*
X0357017D02*
X0357Y0069042D01*
X0356967D01*
X035695Y0069026D01*
Y0068959D01*
X0356967Y0068942D01*
X0357D01*
X0357017Y0068959D01*
Y0069026D01*
X035685Y0068942D02*
X0356917D01*
X035685Y0069009D01*
Y0069026D01*
X0356867Y0069042D01*
X03569D01*
X0356917Y0069026D01*
X035675Y0069042D02*
X0356817D01*
Y0068993D01*
X0356784Y0069009D01*
X0356767D01*
X035675Y0068993D01*
Y0068959D01*
X0356767Y0068942D01*
X03568D01*
X0356817Y0068959D01*
X0356717Y0068942D02*
X0356684D01*
X03567D01*
Y0069042D01*
X0356717Y0069026D01*
X0356567Y0068942D02*
X0356634D01*
X0356567Y0069009D01*
Y0069026D01*
X0356584Y0069042D01*
X0356617D01*
X0356634Y0069026D01*
X0356517Y0068926D02*
X03565Y0068942D01*
Y0068959D01*
X0356517D01*
Y0068942D01*
X03565D01*
X0356517Y0068926D01*
X0356534Y0068909D01*
X0356334Y0068942D02*
Y0069009D01*
X03563Y0069042D01*
X0356267Y0069009D01*
Y0068942D01*
Y0068993D01*
X0356334D01*
X0356234Y0069042D02*
Y0068942D01*
X0356184D01*
X0356167Y0068959D01*
Y0069026D01*
X0356184Y0069042D01*
X0356234D01*
X0356134D02*
Y0068942D01*
X0356084D01*
X0356067Y0068959D01*
Y0069026D01*
X0356084Y0069042D01*
X0356134D01*
X0355967D02*
X0356034D01*
Y0068942D01*
X0355967D01*
X0356034Y0068993D02*
X0356D01*
X0355934Y0069042D02*
Y0068942D01*
X0355884D01*
X0355867Y0068959D01*
Y0069026D01*
X0355884Y0069042D01*
X0355934D01*
X0355667Y0069026D02*
X0355684Y0069042D01*
X0355717D01*
X0355734Y0069026D01*
Y0069009D01*
X0355717Y0068993D01*
X0355684D01*
X0355667Y0068976D01*
Y0068959D01*
X0355684Y0068942D01*
X0355717D01*
X0355734Y0068959D01*
X0355634Y0069042D02*
X0355601D01*
X0355617D01*
Y0068942D01*
X0355634D01*
X0355601D01*
X0355551Y0069042D02*
Y0068942D01*
X0355484D01*
X0355451Y0069042D02*
Y0068942D01*
Y0068976D01*
X0355384Y0069042D01*
X0355434Y0068993D01*
X0355384Y0068942D01*
X0355284Y0069026D02*
X0355301Y0069042D01*
X0355334D01*
X0355351Y0069026D01*
Y0069009D01*
X0355334Y0068993D01*
X0355301D01*
X0355284Y0068976D01*
Y0068959D01*
X0355301Y0068942D01*
X0355334D01*
X0355351Y0068959D01*
X0355184Y0069026D02*
X0355201Y0069042D01*
X0355234D01*
X0355251Y0069026D01*
Y0068959D01*
X0355234Y0068942D01*
X0355201D01*
X0355184Y0068959D01*
X0355151Y0068942D02*
Y0069042D01*
X0355101D01*
X0355084Y0069026D01*
Y0068993D01*
X0355101Y0068976D01*
X0355151D01*
X0355117D02*
X0355084Y0068942D01*
X0354984Y0069042D02*
X0355051D01*
Y0068942D01*
X0354984D01*
X0355051Y0068993D02*
X0355017D01*
X0354884Y0069042D02*
X0354951D01*
Y0068942D01*
X0354884D01*
X0354951Y0068993D02*
X0354917D01*
X0354851Y0068942D02*
Y0069042D01*
X0354784Y0068942D01*
Y0069042D01*
X0354751Y0068942D02*
Y0068959D01*
X0354734D01*
Y0068942D01*
X0354751D01*
M02*
