G04*
G04 #@! TF.GenerationSoftware,Altium Limited,Altium Designer,20.0.13 (296)*
G04*
G04 Layer_Physical_Order=2*
G04 Layer_Color=16711680*
%FSTAX25Y25*%
%MOIN*%
G70*
G01*
G75*
%ADD10C,0.03000*%
%ADD11C,0.02000*%
%ADD15C,0.01000*%
%ADD30R,0.04300X0.03900*%
%ADD31R,0.03900X0.04300*%
%ADD32R,0.05118X0.05906*%
%ADD33R,0.05906X0.05118*%
%ADD35R,0.04331X0.03937*%
%ADD36R,0.03937X0.04331*%
%ADD89C,0.12500*%
%ADD94C,0.30000*%
%ADD104C,0.05000*%
%ADD116C,0.05000*%
%ADD117C,0.04000*%
%ADD124O,0.07000X0.10000*%
%ADD125C,0.05866*%
%ADD126R,0.06693X0.06693*%
%ADD127C,0.06693*%
%ADD128C,0.26772*%
%ADD129C,0.06102*%
%ADD130C,0.09500*%
%ADD131R,0.09500X0.09500*%
%ADD132R,0.12000X0.12000*%
%ADD133C,0.12000*%
%ADD134C,0.06300*%
%ADD135C,0.07874*%
%ADD136R,0.07874X0.07874*%
%ADD137R,0.06102X0.06102*%
%ADD138C,0.14000*%
%ADD139C,0.05315*%
%ADD140R,0.05315X0.05315*%
%ADD141C,0.04724*%
%ADD142C,0.05937*%
%ADD143R,0.05937X0.05937*%
%ADD144C,0.05906*%
%ADD145R,0.05906X0.05906*%
%ADD146R,0.05118X0.05118*%
%ADD147C,0.05118*%
%ADD148C,0.04500*%
%ADD149R,0.04724X0.04724*%
%ADD150R,0.06260X0.06260*%
%ADD151C,0.06260*%
%ADD152C,0.05512*%
%ADD153O,0.08000X0.09500*%
%ADD154C,0.06000*%
%ADD155R,0.05937X0.05937*%
%ADD156C,0.09449*%
%ADD157R,0.05906X0.05906*%
%ADD158C,0.03000*%
%ADD159C,0.04000*%
G04:AMPARAMS|DCode=160|XSize=65.4mil|YSize=23.5mil|CornerRadius=5.88mil|HoleSize=0mil|Usage=FLASHONLY|Rotation=0.000|XOffset=0mil|YOffset=0mil|HoleType=Round|Shape=RoundedRectangle|*
%AMROUNDEDRECTD160*
21,1,0.06540,0.01175,0,0,0.0*
21,1,0.05365,0.02350,0,0,0.0*
1,1,0.01175,0.02683,-0.00588*
1,1,0.01175,-0.02683,-0.00588*
1,1,0.01175,-0.02683,0.00588*
1,1,0.01175,0.02683,0.00588*
%
%ADD160ROUNDEDRECTD160*%
G04:AMPARAMS|DCode=161|XSize=23.62mil|YSize=74.8mil|CornerRadius=5.91mil|HoleSize=0mil|Usage=FLASHONLY|Rotation=180.000|XOffset=0mil|YOffset=0mil|HoleType=Round|Shape=RoundedRectangle|*
%AMROUNDEDRECTD161*
21,1,0.02362,0.06299,0,0,180.0*
21,1,0.01181,0.07480,0,0,180.0*
1,1,0.01181,-0.00591,0.03150*
1,1,0.01181,0.00591,0.03150*
1,1,0.01181,0.00591,-0.03150*
1,1,0.01181,-0.00591,-0.03150*
%
%ADD161ROUNDEDRECTD161*%
G04:AMPARAMS|DCode=162|XSize=15.75mil|YSize=78.74mil|CornerRadius=3.94mil|HoleSize=0mil|Usage=FLASHONLY|Rotation=180.000|XOffset=0mil|YOffset=0mil|HoleType=Round|Shape=RoundedRectangle|*
%AMROUNDEDRECTD162*
21,1,0.01575,0.07087,0,0,180.0*
21,1,0.00787,0.07874,0,0,180.0*
1,1,0.00787,-0.00394,0.03543*
1,1,0.00787,0.00394,0.03543*
1,1,0.00787,0.00394,-0.03543*
1,1,0.00787,-0.00394,-0.03543*
%
%ADD162ROUNDEDRECTD162*%
G04:AMPARAMS|DCode=163|XSize=23.62mil|YSize=47.24mil|CornerRadius=5.91mil|HoleSize=0mil|Usage=FLASHONLY|Rotation=90.000|XOffset=0mil|YOffset=0mil|HoleType=Round|Shape=RoundedRectangle|*
%AMROUNDEDRECTD163*
21,1,0.02362,0.03543,0,0,90.0*
21,1,0.01181,0.04724,0,0,90.0*
1,1,0.01181,0.01772,0.00591*
1,1,0.01181,0.01772,-0.00591*
1,1,0.01181,-0.01772,-0.00591*
1,1,0.01181,-0.01772,0.00591*
%
%ADD163ROUNDEDRECTD163*%
%ADD164R,0.06299X0.07087*%
%ADD165R,0.13386X0.07480*%
%ADD166R,0.05118X0.04331*%
%ADD167R,0.05118X0.03543*%
G04:AMPARAMS|DCode=168|XSize=23.62mil|YSize=57.09mil|CornerRadius=2.01mil|HoleSize=0mil|Usage=FLASHONLY|Rotation=90.000|XOffset=0mil|YOffset=0mil|HoleType=Round|Shape=RoundedRectangle|*
%AMROUNDEDRECTD168*
21,1,0.02362,0.05307,0,0,90.0*
21,1,0.01961,0.05709,0,0,90.0*
1,1,0.00402,0.02653,0.00980*
1,1,0.00402,0.02653,-0.00980*
1,1,0.00402,-0.02653,-0.00980*
1,1,0.00402,-0.02653,0.00980*
%
%ADD168ROUNDEDRECTD168*%
%ADD169R,0.06000X0.06000*%
%ADD170R,0.06000X0.12000*%
%ADD171R,0.06000X0.11000*%
%ADD172R,0.08669X0.29000*%
%ADD173R,0.02536X0.01500*%
G36*
X0020193Y0429092D02*
X0288851D01*
Y0421209D01*
X0288351Y0420902D01*
X0287315Y0421039D01*
X028614Y0420884D01*
X0285046Y0420431D01*
X0284105Y0419709D01*
X0283384Y0418769D01*
X0282931Y0417675D01*
X0282776Y04165D01*
X0282931Y0415325D01*
X0283384Y0414231D01*
X0284105Y0413291D01*
X0285046Y0412569D01*
X028614Y0412116D01*
X0287315Y0411961D01*
X0288351Y0412098D01*
X0288851Y0411791D01*
Y0187903D01*
X0288351Y0187569D01*
X0287815Y0187791D01*
Y0183D01*
Y0178209D01*
X0288351Y0178431D01*
X0288851Y0178097D01*
Y0177D01*
X0263035D01*
Y0182547D01*
X0254098D01*
Y0177D01*
X0233196D01*
X023295Y01775D01*
X0233374Y0178052D01*
X0233763Y0178992D01*
X0233895Y018D01*
X0233763Y0181008D01*
X0233374Y0181948D01*
X0232755Y0182755D01*
X0231948Y0183374D01*
X0231614Y0183512D01*
X0231714Y0184012D01*
X0233862D01*
Y0191736D01*
X0226138D01*
Y0184012D01*
X0228286D01*
X0228386Y0183512D01*
X0228052Y0183374D01*
X0227245Y0182755D01*
X0226626Y0181948D01*
X0226495Y0181631D01*
X0213354D01*
X021273Y0181507D01*
X0212201Y0181154D01*
X0208047Y0177D01*
X0085D01*
X0045331Y0216669D01*
Y0233162D01*
X0108574Y0233162D01*
X0109033Y0233352D01*
X0109223Y0233811D01*
X0109223Y0306926D01*
X0109033Y0307385D01*
X0095846Y0320572D01*
X0095727Y0320621D01*
X0095636Y0320713D01*
X0095507D01*
X0095425Y0320746D01*
Y0323453D01*
X0091972D01*
Y03185D01*
X0088972D01*
Y0323453D01*
X008552D01*
Y0322624D01*
X0053698D01*
X0042544Y0322649D01*
X0042544Y0322649D01*
X0042544Y0322649D01*
X0042318Y0322555D01*
X0042085Y032246D01*
X0042085Y0322459D01*
X0042084Y0322459D01*
X004173Y0322106D01*
X004173Y0322105D01*
X004173Y0322105D01*
X0041635Y0321875D01*
X0041539Y0321647D01*
X004154Y0321646D01*
X0041539Y0321646D01*
Y0296635D01*
X0041039Y0296427D01*
X0039999Y0297468D01*
X0040005Y02975D01*
X0039826Y0298397D01*
X0039318Y0299158D01*
X0038557Y0299667D01*
X003766Y0299845D01*
X0036762Y0299667D01*
X0036002Y0299158D01*
X0035493Y0298397D01*
X0035315Y02975D01*
X0035493Y0296603D01*
X0036002Y0295842D01*
X0036762Y0295333D01*
X003766Y0295155D01*
X0037692Y0295161D01*
X0039069Y0293784D01*
Y0223585D01*
X0038607Y0223393D01*
X00365Y02255D01*
X0001569Y02255D01*
Y0410468D01*
X0001557Y041053D01*
X0001712Y0412901D01*
X0002188Y0415293D01*
X0002972Y0417602D01*
X000405Y0419789D01*
X0005405Y0421816D01*
X0007012Y0423649D01*
X0008846Y0425256D01*
X0010873Y0426611D01*
X001306Y042769D01*
X0015369Y0428473D01*
X001776Y0428949D01*
X0020131Y0429104D01*
X0020193Y0429092D01*
D02*
G37*
G36*
X0053697Y0321974D02*
X008602D01*
Y0314047D01*
X0094925D01*
Y0319921D01*
X0095387Y0320113D01*
X0108574Y0306926D01*
X0108574Y0233811D01*
X0045331Y0233811D01*
Y0294184D01*
X0047494Y0296346D01*
X0047847Y0296876D01*
X0047971Y02975D01*
X0047847Y0298124D01*
X0047494Y0298654D01*
X0046964Y0299007D01*
X004634Y0299131D01*
X0045716Y0299007D01*
X0045187Y0298654D01*
X0042689Y0296156D01*
X0042189Y0296357D01*
Y0321646D01*
X0042543Y0321999D01*
X0053697Y0321974D01*
D02*
G37*
G36*
X0026181Y0224851D02*
Y0201D01*
X0026371Y0200541D01*
X0026831Y0200351D01*
X0026851D01*
Y0198D01*
X00269Y0197881D01*
Y01904D01*
Y0185792D01*
X0026444Y0185293D01*
X0024293Y0185299D01*
Y0187517D01*
X0009707D01*
Y0178837D01*
X0024293D01*
Y0180663D01*
X0024647Y0181016D01*
X0034395Y018099D01*
X0035035Y0180157D01*
X0035903Y017949D01*
X0036037Y0179435D01*
Y0178935D01*
X0035903Y017888D01*
X0035035Y0178213D01*
X0034369Y0177345D01*
X003395Y0176333D01*
X0033807Y0175248D01*
X003395Y0174163D01*
X0034048Y0173926D01*
X002677Y0166648D01*
X0024755Y0164633D01*
X0024293Y0164824D01*
Y0172163D01*
X0009707D01*
Y0166511D01*
X0005486Y016229D01*
X0005022Y0161595D01*
X0004859Y0160776D01*
Y0144884D01*
X0004833Y0144846D01*
X0004655Y0143949D01*
X0004833Y0143051D01*
X0004859Y0143013D01*
Y0140935D01*
X0004833Y0140897D01*
X0004655Y014D01*
X0004833Y0139103D01*
X0005342Y0138342D01*
X0006103Y0137833D01*
X0007Y0137655D01*
X0007897Y0137833D01*
X0008658Y0138342D01*
X0009166Y0139103D01*
X0009345Y014D01*
X0009166Y0140897D01*
X0009141Y0140935D01*
Y0143013D01*
X0009166Y0143051D01*
X0009345Y0143949D01*
X0009166Y0144846D01*
X0009141Y0144884D01*
Y0159889D01*
X0012735Y0163483D01*
X0022951D01*
X0023143Y0163021D01*
X0018234Y0158112D01*
X001501D01*
Y0153368D01*
X0021328D01*
Y0156592D01*
X0027739Y0163003D01*
X0028245Y0162497D01*
X0028239Y0162465D01*
X0028418Y0161568D01*
X0028926Y0160807D01*
X0028995Y0160761D01*
Y0160159D01*
X0028837Y0160054D01*
X0026895Y0158112D01*
X0023672D01*
Y0153368D01*
X0029025D01*
X0029177Y0152868D01*
X0029043Y0152779D01*
X0026895Y0150631D01*
X0023672D01*
Y0145888D01*
X002999D01*
Y0149112D01*
X0030873Y0149995D01*
X0034176D01*
X0034369Y0149529D01*
X0035035Y0148661D01*
X0035903Y0147994D01*
X0036369Y0147802D01*
Y014D01*
X0036493Y0139376D01*
X0036847Y0138847D01*
X0051209Y0124484D01*
X0051064Y0124005D01*
X0050911Y0123975D01*
X005015Y0123466D01*
X0049641Y0122705D01*
X0049463Y0121808D01*
X0049641Y0120911D01*
X004983Y0120628D01*
X0049829Y0120603D01*
X0049577Y0120107D01*
X0048911Y0119975D01*
X004815Y0119466D01*
X0047641Y0118705D01*
X0047463Y0117808D01*
X0047641Y0116911D01*
X004815Y011615D01*
X0048911Y0115641D01*
X0049808Y0115463D01*
X004984Y0115469D01*
X0073583Y0091726D01*
X0074112Y0091373D01*
X0074736Y0091249D01*
X0077531D01*
X0077767Y0090807D01*
X007768Y0090677D01*
X0077501Y008978D01*
X007768Y0088882D01*
X0078188Y0088122D01*
X0078215Y0088104D01*
Y0083569D01*
X0077081D01*
Y0078431D01*
X0078406D01*
Y0076569D01*
X0077081D01*
Y0071431D01*
X0078406D01*
Y0070039D01*
X0077557Y0069388D01*
X0076828Y0068437D01*
X0076369Y006733D01*
X0076213Y0066142D01*
X0076369Y0064954D01*
X0076828Y0063846D01*
X0077557Y0062896D01*
X0078508Y0062166D01*
X0079615Y0061708D01*
X0080803Y0061551D01*
X0081991Y0061708D01*
X0083098Y0062166D01*
X0084049Y0062896D01*
X0084779Y0063846D01*
X0085237Y0064954D01*
X0085394Y0066142D01*
X0085237Y006733D01*
X0084779Y0068437D01*
X0084049Y0069388D01*
X0083098Y0070117D01*
X0081991Y0070576D01*
X0081669Y0070618D01*
Y0071431D01*
X0082612D01*
Y0072369D01*
X0087324D01*
X0092369Y0067324D01*
Y0042469D01*
X0092493Y0041844D01*
X0092847Y0041315D01*
X0106857Y0027305D01*
Y0015512D01*
X0106981Y0014887D01*
X0107335Y0014358D01*
X0119348Y0002345D01*
X0119141Y0001845D01*
X0020193D01*
X0020131Y0001833D01*
X001776Y0001988D01*
X0015369Y0002464D01*
X001306Y0003247D01*
X0010873Y0004326D01*
X0008846Y000568D01*
X0007012Y0007288D01*
X0005405Y0009121D01*
X000405Y0011148D01*
X0002972Y0013335D01*
X0002188Y0015644D01*
X0001712Y0018035D01*
X0001557Y0020407D01*
X0001569Y0020469D01*
Y0224851D01*
X0026181Y0224851D01*
D02*
G37*
G36*
X0038148Y0222934D02*
X0038267Y0222885D01*
X0038358Y0222793D01*
X0038487D01*
X0038607Y0222744D01*
X0039069Y0222482D01*
Y0208257D01*
X0039193Y0207633D01*
X0039546Y0207104D01*
X0078423Y0168227D01*
X0078952Y0167873D01*
X0079577Y0167749D01*
X0125534D01*
X0139341Y0153943D01*
Y015095D01*
X0144841D01*
Y015605D01*
X0141848D01*
X014041Y0157488D01*
X0140601Y015795D01*
X0144841D01*
Y016305D01*
X0141848D01*
X0130121Y0174777D01*
X0129592Y017513D01*
X0128967Y0175255D01*
X0080252D01*
X0045331Y0210176D01*
Y0215097D01*
X0045793Y0215288D01*
X0084541Y0176541D01*
X0085Y017635D01*
X0206745D01*
X0206936Y0175889D01*
X0205315Y0174268D01*
X0205283Y0174274D01*
X0204386Y0174096D01*
X0203625Y0173587D01*
X0203117Y0172827D01*
X0202939Y0171929D01*
X0203117Y0171032D01*
X0203625Y0170271D01*
X0204386Y0169763D01*
X0205283Y0169584D01*
X0206181Y0169763D01*
X0206942Y0170271D01*
X020745Y0171032D01*
X0207629Y0171929D01*
X0207622Y0171961D01*
X021403Y0178369D01*
X0226495D01*
X0226626Y0178052D01*
X0227245Y0177245D01*
X0228052Y0176626D01*
X0228992Y0176237D01*
X023Y0176104D01*
X0231008Y0176237D01*
X0231948Y0176626D01*
X0232189Y0176812D01*
X0232505Y0176738D01*
X0232718Y0176587D01*
X0232737Y0176541D01*
X0232875Y0176484D01*
X0232988Y0176385D01*
X0233096Y0176392D01*
X0233196Y017635D01*
X0254098D01*
Y017361D01*
X0263035D01*
Y017635D01*
X0288851D01*
Y0127294D01*
X0288435Y0127016D01*
X0288036Y0127181D01*
X02875Y0127252D01*
Y0123315D01*
Y0119378D01*
X0288036Y0119449D01*
X0288435Y0119614D01*
X0288851Y0119336D01*
Y0117328D01*
X0288512Y0116969D01*
X0288351Y0116969D01*
X0285846D01*
Y0114D01*
Y0111031D01*
X0288351D01*
X0288512Y0111031D01*
X0288851Y0110672D01*
Y0060393D01*
X0288351Y0060109D01*
X0287864Y0060206D01*
X0282499D01*
X0281879Y0060083D01*
X0281354Y0059732D01*
X0281003Y0059207D01*
X028088Y0058587D01*
Y0057412D01*
X0281003Y0056793D01*
X0281354Y0056268D01*
X0281879Y0055917D01*
X0282499Y0055794D01*
X0287864D01*
X0288351Y0055891D01*
X0288851Y0055607D01*
Y0054958D01*
X0288351Y005469D01*
X0288327Y0054706D01*
X0287864Y0054798D01*
X0282499D01*
X0282035Y0054706D01*
X0281642Y0054444D01*
X0281427Y0054122D01*
X0270914D01*
X0270658Y0054505D01*
X0269897Y0055013D01*
X0269Y0055191D01*
X0268103Y0055013D01*
X0267342Y0054505D01*
X0266833Y0053744D01*
X0266655Y0052846D01*
X0266833Y0051949D01*
X0267342Y0051188D01*
X0268103Y005068D01*
X0269Y0050501D01*
X0269897Y005068D01*
X0270658Y0051188D01*
X0271119Y0051878D01*
X0281427D01*
X0281642Y0051556D01*
X0282035Y0051294D01*
X0282499Y0051202D01*
X0287864D01*
X0288327Y0051294D01*
X0288351Y005131D01*
X0288851Y0051042D01*
Y0049958D01*
X0288351Y004969D01*
X0288327Y0049706D01*
X0287864Y0049798D01*
X0282499D01*
X0282035Y0049706D01*
X0281642Y0049444D01*
X0281427Y0049122D01*
X0270683D01*
X0270658Y0049158D01*
X0269897Y0049667D01*
X0269Y0049845D01*
X0268103Y0049667D01*
X0267342Y0049158D01*
X0266833Y0048397D01*
X0266655Y00475D01*
X0266833Y0046603D01*
X0267342Y0045842D01*
X0268103Y0045333D01*
X0269Y0045155D01*
X0269897Y0045333D01*
X0270658Y0045842D01*
X0271167Y0046603D01*
X0271221Y0046878D01*
X0281427D01*
X0281642Y0046556D01*
X0282035Y0046294D01*
X0282499Y0046202D01*
X0287864D01*
X0288327Y0046294D01*
X0288351Y004631D01*
X0288851Y0046042D01*
Y0044958D01*
X0288351Y004469D01*
X0288327Y0044706D01*
X0287864Y0044798D01*
X0282499D01*
X0282035Y0044706D01*
X0281642Y0044444D01*
X0281427Y0044122D01*
X0276763D01*
X0276533Y0044076D01*
X0276397Y0044167D01*
X02755Y0044345D01*
X0274603Y0044167D01*
X0273842Y0043658D01*
X0273824Y0043631D01*
X0267926D01*
X0265194Y0046363D01*
Y0098234D01*
X0278392Y0111432D01*
X0281419D01*
Y0116569D01*
X0278631D01*
Y0118846D01*
X0281469D01*
Y0127784D01*
X0272532D01*
Y0118846D01*
X0275369D01*
Y0115654D01*
X0275493Y0115029D01*
X0275847Y01145D01*
X0275888Y0114458D01*
Y0113542D01*
X0262409Y0100063D01*
X0262056Y0099534D01*
X0261932Y0098909D01*
Y0045687D01*
X0262056Y0045063D01*
X0262409Y0044534D01*
X0266096Y0040846D01*
X0266626Y0040493D01*
X026725Y0040369D01*
X0273824D01*
X0273842Y0040342D01*
X0273869Y0040324D01*
Y0012365D01*
X0266135Y0004631D01*
X0183384D01*
X0183232Y0005131D01*
X018331Y0005183D01*
X0183818Y0005944D01*
X0183997Y0006842D01*
X018399Y0006873D01*
X0192639Y0015522D01*
X0195884Y0012278D01*
X0196413Y0011924D01*
X0197037Y00118D01*
X0226969D01*
X0227594Y0011924D01*
X0228123Y0012278D01*
X0235378Y0019533D01*
X0235732Y0020062D01*
X0235856Y0020687D01*
Y0028565D01*
X0236305Y0028751D01*
X0237441Y0029622D01*
X0238286Y0030724D01*
X0238555Y003076D01*
X0238571D01*
X023884Y0030724D01*
X0239685Y0029622D01*
X0240821Y0028751D01*
X0242144Y0028203D01*
X0243563Y0028016D01*
X0244982Y0028203D01*
X0246305Y0028751D01*
X0247441Y0029622D01*
X0248287Y0030724D01*
X0248555Y003076D01*
X0248571D01*
X0248839Y0030724D01*
X0249685Y0029622D01*
X0250821Y0028751D01*
X0252144Y0028203D01*
X0253563Y0028016D01*
X0254982Y0028203D01*
X0256305Y0028751D01*
X0257441Y0029622D01*
X0258126Y0030515D01*
X0258626Y0030346D01*
Y0028563D01*
X0263063D01*
Y00335D01*
Y0038437D01*
X0258626D01*
Y0036654D01*
X0258126Y0036485D01*
X0257441Y0037378D01*
X0256305Y0038249D01*
X0254982Y0038797D01*
X0253563Y0038984D01*
X0252144Y0038797D01*
X0250821Y0038249D01*
X0249685Y0037378D01*
X0248839Y0036276D01*
X0248571Y003624D01*
X0248555D01*
X0248287Y0036276D01*
X0247441Y0037378D01*
X0246305Y0038249D01*
X0244982Y0038797D01*
X0243563Y0038984D01*
X0242144Y0038797D01*
X0240821Y0038249D01*
X0239685Y0037378D01*
X023884Y0036276D01*
X0238571Y003624D01*
X0238555D01*
X0238286Y0036276D01*
X0237441Y0037378D01*
X0236305Y0038249D01*
X0235568Y0038554D01*
X0235451Y0039144D01*
X0249153Y0052846D01*
X0249507Y0053376D01*
X0249631Y0054D01*
X0249631Y0054D01*
Y0072824D01*
X0249658Y0072842D01*
X0250167Y0073603D01*
X0250345Y00745D01*
X0250167Y0075397D01*
X0249658Y0076158D01*
X0248897Y0076666D01*
X0248Y0076845D01*
X0247103Y0076666D01*
X0246342Y0076158D01*
X0245833Y0075397D01*
X0245655Y00745D01*
X0245833Y0073603D01*
X0246342Y0072842D01*
X0246369Y0072824D01*
Y0054676D01*
X023241Y0040716D01*
X0232056Y0040187D01*
X0231932Y0039563D01*
Y0038709D01*
X0230821Y0038249D01*
X0229685Y0037378D01*
X0228814Y0036242D01*
X0228266Y0034919D01*
X0228079Y00335D01*
X0228266Y0032081D01*
X0228814Y0030758D01*
X0229685Y0029622D01*
X0230821Y0028751D01*
X0232144Y0028203D01*
X0232593Y0028144D01*
Y0021362D01*
X0226294Y0015063D01*
X0219892D01*
X0219741Y0015563D01*
X0220158Y0015842D01*
X0220667Y0016603D01*
X0220845Y00175D01*
X0220667Y0018397D01*
X0220634Y0018446D01*
X0220685Y00187D01*
Y0021904D01*
X0222113D01*
Y0027404D01*
X0217013D01*
Y0021904D01*
X0218441D01*
Y0019833D01*
X0217603Y0019667D01*
X0216842Y0019158D01*
X0216333Y0018397D01*
X0216155Y00175D01*
X0216333Y0016603D01*
X0216842Y0015842D01*
X0217259Y0015563D01*
X0217108Y0015063D01*
X0197713D01*
X0195215Y0017561D01*
X0199557Y0021903D01*
X020255D01*
Y0023085D01*
X020395D01*
Y0021967D01*
X0207222D01*
X0207464Y0021466D01*
X0207083Y0020897D01*
X0206905Y002D01*
X0207083Y0019103D01*
X0207592Y0018342D01*
X0208353Y0017833D01*
X020925Y0017655D01*
X0210147Y0017833D01*
X0210908Y0018342D01*
X0211417Y0019103D01*
X0211595Y002D01*
X0211464Y0020658D01*
X021271Y0021904D01*
X0216424D01*
Y0027404D01*
X0211324D01*
Y002369D01*
X0209858Y0022224D01*
X020925Y0022345D01*
X020905Y0022509D01*
Y0027466D01*
X020395D01*
Y0026348D01*
X020255D01*
Y0027404D01*
X019745D01*
Y0024411D01*
X0192197Y0019158D01*
X0191747Y0019068D01*
X0191218Y0018715D01*
X0181683Y000918D01*
X0181652Y0009187D01*
X0180754Y0009008D01*
X0179993Y00085D01*
X0179485Y0007739D01*
X0179464Y0007631D01*
X0142676D01*
X0137342Y0012965D01*
Y002703D01*
X0146286D01*
X0147044Y0026043D01*
X0148056Y0025267D01*
X0149235Y0024778D01*
X0149433Y0024752D01*
Y0024248D01*
X0149235Y0024222D01*
X0148056Y0023733D01*
X0147044Y0022956D01*
X0146267Y0021944D01*
X0145778Y0020765D01*
X0145612Y00195D01*
X0145778Y0018235D01*
X0146267Y0017056D01*
X0147044Y0016044D01*
X0148056Y0015267D01*
X0149235Y0014778D01*
X01505Y0014612D01*
X0151765Y0014778D01*
X0152944Y0015267D01*
X0153956Y0016044D01*
X0154733Y0017056D01*
X0155222Y0018235D01*
X0155248Y0018433D01*
X0155752D01*
X0155778Y0018235D01*
X0156267Y0017056D01*
X0157044Y0016044D01*
X0158056Y0015267D01*
X0159235Y0014778D01*
X01605Y0014612D01*
X0161765Y0014778D01*
X0162944Y0015267D01*
X0163956Y0016044D01*
X0164733Y0017056D01*
X0165222Y0018235D01*
X0165248Y0018433D01*
X0165752D01*
X0165778Y0018235D01*
X0166267Y0017056D01*
X0167043Y0016044D01*
X0168056Y0015267D01*
X0169235Y0014778D01*
X01705Y0014612D01*
X0171765Y0014778D01*
X0172944Y0015267D01*
X0173957Y0016044D01*
X0174733Y0017056D01*
X0175222Y0018235D01*
X0175388Y00195D01*
X0175222Y0020765D01*
X0174733Y0021944D01*
X0174134Y0022725D01*
X017414Y002284D01*
X017435Y0023263D01*
X017459Y002331D01*
X0174954Y0023553D01*
X0184293Y0032893D01*
X0184293Y0032893D01*
X0184536Y0033257D01*
X0184622Y0033686D01*
Y0071007D01*
X0185158Y0071365D01*
X0185667Y0072126D01*
X0185845Y0073024D01*
X0185667Y0073921D01*
X0185158Y0074682D01*
X0184397Y007519D01*
X01835Y0075369D01*
X0182603Y007519D01*
X0181842Y0074682D01*
X0181333Y0073921D01*
X0181155Y0073024D01*
X0181333Y0072126D01*
X0181842Y0071365D01*
X0182378Y0071007D01*
Y003415D01*
X0175308Y002708D01*
X0174846Y0027272D01*
Y0029D01*
X01705D01*
Y00295D01*
X017D01*
Y0033846D01*
X0167086D01*
X0166894Y0034308D01*
X0178489Y0045903D01*
X0178489Y0045903D01*
X0178733Y0046267D01*
X0178818Y0046696D01*
X0178818Y0046696D01*
Y0075732D01*
X0186965Y0083878D01*
X019562D01*
X0195979Y0083342D01*
X019674Y0082833D01*
X0197637Y0082655D01*
X0198534Y0082833D01*
X0199295Y0083342D01*
X0199654Y0083879D01*
X0200154Y0083727D01*
Y0075264D01*
X0195596Y0070705D01*
X0194963Y0070831D01*
X0194065Y0070653D01*
X0193305Y0070145D01*
X0192796Y0069384D01*
X0192618Y0068486D01*
X0192796Y0067589D01*
X0193305Y0066828D01*
X0194065Y006632D01*
X019484Y0066166D01*
X0195177Y0065713D01*
X0195155Y0065604D01*
X0195333Y0064706D01*
X0195842Y0063945D01*
X0196603Y0063437D01*
X0197432Y0063272D01*
Y0062581D01*
X0202569D01*
Y0068112D01*
X0197743D01*
X0197318Y0068477D01*
X0197294Y0068555D01*
X0197182Y0069119D01*
X0202069Y0074006D01*
X0202312Y007437D01*
X0202397Y0074799D01*
X0202397Y0074799D01*
Y011839D01*
X0202397Y011839D01*
X0202312Y0118819D01*
X0202069Y0119183D01*
X0202069Y0119183D01*
X0194219Y0127032D01*
X0194345Y0127665D01*
X0194167Y0128563D01*
X0193658Y0129324D01*
X0192897Y0129832D01*
X0192Y013001D01*
X0191103Y0129832D01*
X0190342Y0129324D01*
X0189833Y0128563D01*
X0189779Y0128292D01*
X0189279Y0128341D01*
Y0130472D01*
X0186811D01*
Y0127307D01*
Y0124142D01*
X0189279D01*
Y012699D01*
X0189779Y0127039D01*
X0189833Y0126768D01*
X0190342Y0126007D01*
X0191103Y0125499D01*
X0192Y012532D01*
X0192633Y0125446D01*
X0200154Y0117925D01*
Y0086273D01*
X0199654Y0086121D01*
X0199295Y0086658D01*
X0198534Y0087167D01*
X0197637Y0087345D01*
X019709Y0087236D01*
X0196917Y0087414D01*
X0196749Y0087678D01*
X0196912Y00885D01*
X0196733Y0089397D01*
X0196225Y0090158D01*
X0195464Y0090667D01*
X0194567Y0090845D01*
X019367Y0090667D01*
X0192909Y0090158D01*
X019255Y0089622D01*
X0187737D01*
X0187737Y0089622D01*
X0187308Y0089536D01*
X0186944Y0089293D01*
X0186944Y0089293D01*
X0174952Y0077301D01*
X0174709Y0076937D01*
X0174624Y0076508D01*
X0174624Y0076508D01*
Y0048056D01*
X0165189Y0038622D01*
X0161646D01*
X0161646Y0038622D01*
X0161217Y0038536D01*
X0160853Y0038293D01*
X0160853Y0038293D01*
X0154902Y0032342D01*
X0154403Y0032375D01*
X0153956Y0032956D01*
X0152944Y0033733D01*
X0151765Y0034222D01*
X01505Y0034388D01*
X0149235Y0034222D01*
X0148056Y0033733D01*
X0147044Y0032956D01*
X0146267Y0031944D01*
X0145778Y0030765D01*
X0145716Y0030293D01*
X0144285D01*
Y0058746D01*
X0144508Y0058895D01*
X0145017Y0059656D01*
X0145195Y0060553D01*
X0145017Y0061451D01*
X0144508Y0062212D01*
X0143747Y006272D01*
X014285Y0062899D01*
X0141953Y006272D01*
X0141393Y0062346D01*
X0140817Y0062391D01*
X0140736Y006243D01*
X0140654Y0062554D01*
X0122029Y0081178D01*
X0122216Y0081698D01*
X0122897Y0081833D01*
X0123658Y0082342D01*
X0124167Y0083103D01*
X0124345Y0084D01*
X0124167Y0084897D01*
X0123658Y0085658D01*
X0122897Y0086167D01*
X0122179Y0086309D01*
X0089335Y0119153D01*
X0088805Y0119507D01*
X0088181Y0119631D01*
X0080171D01*
X0059508Y0140294D01*
X0059514Y0140326D01*
X0059336Y0141223D01*
X0058828Y0141984D01*
X0058067Y0142492D01*
X0057169Y0142671D01*
X0056272Y0142492D01*
X0055511Y0141984D01*
X0055003Y0141223D01*
X0054824Y0140326D01*
X0055003Y0139429D01*
X0055511Y0138668D01*
X0056272Y0138159D01*
X0057169Y0137981D01*
X0057201Y0137987D01*
X0078342Y0116847D01*
X0078871Y0116493D01*
X0079495Y0116369D01*
X0087505D01*
X0090151Y0113723D01*
X0089833Y0113334D01*
X0089424Y0113607D01*
X00888Y0113731D01*
X0074776D01*
X0047505Y0141002D01*
Y0147802D01*
X0047971Y0147994D01*
X0048839Y0148661D01*
X0049506Y0149529D01*
X0049853Y0150369D01*
X0063468D01*
X0064093Y0150493D01*
X0064622Y0150847D01*
X0066984Y0153209D01*
X0067338Y0153738D01*
X0067462Y0154362D01*
Y0156388D01*
X006899D01*
Y0161132D01*
X0062672D01*
Y0156388D01*
X0064199D01*
Y0155038D01*
X0062793Y0153631D01*
X0049543D01*
X0049506Y0153723D01*
X0048839Y0154591D01*
X0047971Y0155257D01*
X0047837Y0155313D01*
Y0155813D01*
X0047971Y0155868D01*
X0048839Y0156535D01*
X0049295Y0157129D01*
X005401D01*
Y0156388D01*
X0060328D01*
Y0161132D01*
X005401D01*
Y0160391D01*
X004995D01*
X0049924Y0160585D01*
X0049506Y0161597D01*
X0048839Y0162465D01*
X0047971Y0163131D01*
X0047837Y0163187D01*
Y0163687D01*
X0047971Y0163742D01*
X0048839Y0164409D01*
X0049264Y0164962D01*
X0049838Y0165085D01*
X0049919Y0165038D01*
X0050376Y0164733D01*
X0051Y0164609D01*
X005401D01*
Y0163868D01*
X0060328D01*
Y0168612D01*
X005401D01*
Y0167871D01*
X0051676D01*
X005102Y0168527D01*
X005049Y0168881D01*
X0049866Y0169005D01*
X0049698D01*
X0049506Y0169471D01*
X0048839Y0170339D01*
X0047971Y0171006D01*
X0047837Y0171061D01*
Y0171561D01*
X0047971Y0171616D01*
X0048839Y0172283D01*
X0049506Y0173151D01*
X0049924Y0174163D01*
X0050067Y0175248D01*
X0049924Y0176333D01*
X0049506Y0177345D01*
X0048839Y0178213D01*
X0048512Y0178465D01*
X0048681Y0178965D01*
X0050032D01*
Y0187279D01*
X0041717D01*
Y0185929D01*
X0041216Y018576D01*
X0040965Y0186087D01*
X0040097Y0186754D01*
X0039085Y0187172D01*
X0038Y0187315D01*
X0036915Y0187172D01*
X0035903Y0186754D01*
X0035035Y0186087D01*
X00346Y0185521D01*
X00341Y018569D01*
Y01904D01*
Y0197881D01*
X0034149Y0198D01*
Y0200351D01*
X00355D01*
X0035959Y0200541D01*
X0036149Y0201D01*
Y0224225D01*
X0036649Y0224432D01*
X0038148Y0222934D01*
D02*
G37*
G36*
X039Y016315D02*
X0369821Y016315D01*
X0368891Y0164542D01*
X0367326Y0166326D01*
X0365542Y0167891D01*
X0363569Y0169209D01*
X0361441Y0170258D01*
X0359195Y0171021D01*
X0356868Y0171484D01*
X03545Y0171639D01*
X0352132Y0171484D01*
X0349805Y0171021D01*
X0348901Y0170714D01*
X0348495Y0171005D01*
Y04245D01*
X039D01*
X039Y016315D01*
D02*
G37*
G36*
X0042243Y0149529D02*
X0042909Y0148661D01*
X0043777Y0147994D01*
X0044243Y0147802D01*
Y0140326D01*
X0044367Y0139702D01*
X0044721Y0139172D01*
X0072947Y0110947D01*
X0073476Y0110593D01*
X00741Y0110469D01*
X0088124D01*
X0137869Y0060724D01*
Y0052653D01*
X0137842Y0052635D01*
X0137333Y0051874D01*
X0137155Y0050976D01*
X0137333Y0050079D01*
X0137842Y0049318D01*
X0138603Y004881D01*
X01395Y0048631D01*
X0140397Y004881D01*
X0140581Y0048933D01*
X0141022Y0048697D01*
Y0030293D01*
X0128768D01*
X0128143Y0030169D01*
X0127614Y0029815D01*
X0127584Y0029785D01*
X0126315D01*
X012585Y0029692D01*
X0125457Y0029429D01*
X0125194Y0029035D01*
X0125101Y0028571D01*
Y002739D01*
X0125194Y0026925D01*
X0125196Y0026921D01*
X0124929Y0026421D01*
X0122216D01*
X0122136Y0026341D01*
X0121748Y002666D01*
X0121925Y0026925D01*
X0122017Y002739D01*
Y0028571D01*
X0121925Y0029035D01*
X0121661Y0029429D01*
X0121268Y0029692D01*
X0120803Y0029785D01*
X011726D01*
X0116795Y0029692D01*
X0116675Y0029612D01*
X0109164D01*
X0095631Y0043144D01*
Y0068D01*
X0095507Y0068624D01*
X0095153Y0069153D01*
X0089153Y0075153D01*
X0088624Y0075507D01*
X0088Y0075631D01*
X0082612D01*
Y0076569D01*
X0081669D01*
Y0078431D01*
X0082612D01*
Y0083569D01*
X0081669D01*
Y0088368D01*
X0082013Y0088882D01*
X0082191Y008978D01*
X0082013Y0090677D01*
X0081926Y0090807D01*
X0082162Y0091249D01*
X009172D01*
X0125661Y0057307D01*
X0125655Y0057276D01*
X0125833Y0056378D01*
X0126342Y0055617D01*
X0127103Y0055109D01*
X0128Y0054931D01*
X0128897Y0055109D01*
X0129658Y0055617D01*
X0129695Y0055673D01*
X0130195Y0055521D01*
Y0047676D01*
X0130169Y0047658D01*
X012966Y0046897D01*
X0129482Y0046D01*
X012966Y0045103D01*
X0130169Y0044342D01*
X0130929Y0043833D01*
X0131827Y0043655D01*
X0132724Y0043833D01*
X0133485Y0044342D01*
X0133993Y0045103D01*
X0134172Y0046D01*
X0133993Y0046897D01*
X0133485Y0047658D01*
X0133458Y0047676D01*
Y0058173D01*
X0133458Y0058173D01*
X0133334Y0058798D01*
X013298Y0059327D01*
X0095153Y0097154D01*
X0094624Y0097507D01*
X0094Y0097631D01*
X0076676D01*
X0053743Y0120564D01*
X0053974Y0120911D01*
X0054005Y0121064D01*
X0054484Y0121209D01*
X0072847Y0102847D01*
X0073376Y0102493D01*
X0074Y0102369D01*
X0084324D01*
X0084342Y0102342D01*
X0085103Y0101833D01*
X0086Y0101655D01*
X0086897Y0101833D01*
X0087658Y0102342D01*
X0088166Y0103103D01*
X0088345Y0104D01*
X0088166Y0104897D01*
X0087658Y0105658D01*
X0086897Y0106167D01*
X0086Y0106345D01*
X0085103Y0106167D01*
X0084342Y0105658D01*
X0084324Y0105631D01*
X0074676D01*
X0039631Y0140676D01*
Y0147802D01*
X0040097Y0147994D01*
X0040965Y0148661D01*
X0041631Y0149529D01*
X0041687Y0149663D01*
X0042187D01*
X0042243Y0149529D01*
D02*
G37*
G36*
X0134079Y0012289D02*
X0134204Y0011665D01*
X0134557Y0011136D01*
X0140562Y0005131D01*
X0140355Y0004631D01*
X0121676D01*
X011012Y0016187D01*
Y0026349D01*
X0116675D01*
X0116795Y0026268D01*
X011726Y0026176D01*
X0120803D01*
X0121268Y0026268D01*
X0121533Y0026445D01*
X0121852Y0026057D01*
X0121577Y0025783D01*
Y0022561D01*
X0121077Y002225D01*
X0120803Y0022304D01*
X011726D01*
X0116795Y0022212D01*
X0116402Y0021949D01*
X0116138Y0021555D01*
X0116046Y0021091D01*
Y0019909D01*
X0116138Y0019445D01*
X0116402Y0019051D01*
X0116795Y0018788D01*
X011726Y0018696D01*
X0119162D01*
Y001579D01*
X0117463D01*
Y001069D01*
X0122963D01*
Y001274D01*
X0123756D01*
Y001029D01*
X0130055D01*
Y001619D01*
X0129645D01*
X0129339Y0016586D01*
X0129886Y0018701D01*
X0130323Y0018788D01*
X0130717Y0019051D01*
X013098Y0019445D01*
X0131072Y0019909D01*
Y0021091D01*
X013098Y0021555D01*
X0130724Y0021938D01*
X0130842Y0022394D01*
X0131005Y0022503D01*
X0131357Y0023029D01*
X013148Y002365D01*
Y0024831D01*
X0131357Y0025451D01*
X0131049Y0025912D01*
Y0026421D01*
X0131049Y0026421D01*
X0131049D01*
X0131277Y0026823D01*
X013145Y002703D01*
X0134079D01*
Y0012289D01*
D02*
G37*
G36*
X0281642Y0041556D02*
X0282035Y0041294D01*
X0282499Y0041202D01*
X0287864D01*
X0288327Y0041294D01*
X0288351Y004131D01*
X0288851Y0041042D01*
Y0001845D01*
X026867D01*
X0268463Y0002345D01*
X0276654Y0010535D01*
X0277007Y0011065D01*
X0277131Y0011689D01*
Y0040324D01*
X0277158Y0040342D01*
X0277667Y0041103D01*
X0277821Y0041878D01*
X0281427D01*
X0281642Y0041556D01*
D02*
G37*
%LPC*%
G36*
X019217Y0427055D02*
X019095Y0426934D01*
X0189777Y0426578D01*
X0188695Y0426D01*
X0187748Y0425223D01*
X018697Y0424275D01*
X0186392Y0423194D01*
X0186036Y042202D01*
X0185916Y04208D01*
X0186036Y041958D01*
X0186392Y0418406D01*
X018697Y0417325D01*
X0187748Y0416377D01*
X0188695Y0415599D01*
X0189777Y0415022D01*
X019095Y0414666D01*
X019217Y0414545D01*
X019339Y0414666D01*
X0194564Y0415022D01*
X0195645Y0415599D01*
X0196593Y0416377D01*
X0197371Y0417325D01*
X0197949Y0418406D01*
X0198304Y041958D01*
X0198425Y04208D01*
X0198304Y042202D01*
X0197949Y0423194D01*
X0197371Y0424275D01*
X0196593Y0425223D01*
X0195645Y0426D01*
X0194564Y0426578D01*
X019339Y0426934D01*
X019217Y0427055D01*
D02*
G37*
G36*
X01528D02*
X015158Y0426934D01*
X0150407Y0426578D01*
X0149325Y0426D01*
X0148377Y0425223D01*
X0147599Y0424275D01*
X0147022Y0423194D01*
X0146666Y042202D01*
X0146546Y04208D01*
X0146666Y041958D01*
X0147022Y0418406D01*
X0147599Y0417325D01*
X0148377Y0416377D01*
X0149325Y0415599D01*
X0150407Y0415022D01*
X015158Y0414666D01*
X01528Y0414545D01*
X015402Y0414666D01*
X0155193Y0415022D01*
X0156275Y0415599D01*
X0157223Y0416377D01*
X0158001Y0417325D01*
X0158578Y0418406D01*
X0158934Y041958D01*
X0159055Y04208D01*
X0158934Y042202D01*
X0158578Y0423194D01*
X0158001Y0424275D01*
X0157223Y0425223D01*
X0156275Y0426D01*
X0155193Y0426578D01*
X015402Y0426934D01*
X01528Y0427055D01*
D02*
G37*
G36*
X00535Y0368594D02*
X005244Y0368455D01*
X0051453Y0368046D01*
X0050605Y0367395D01*
X0049954Y0366547D01*
X0049545Y036556D01*
X0049406Y03645D01*
X0049545Y036344D01*
X0049954Y0362453D01*
X0050605Y0361605D01*
X0051453Y0360954D01*
X005244Y0360545D01*
X00535Y0360406D01*
X005456Y0360545D01*
X0055547Y0360954D01*
X0056395Y0361605D01*
X0057046Y0362453D01*
X0057455Y036344D01*
X0057594Y03645D01*
X0057455Y036556D01*
X0057046Y0366547D01*
X0056395Y0367395D01*
X0055547Y0368046D01*
X005456Y0368455D01*
X00535Y0368594D01*
D02*
G37*
G36*
X0058059Y0349374D02*
X0055D01*
Y0346315D01*
X0058059D01*
Y0349374D01*
D02*
G37*
G36*
X0052D02*
X0048941D01*
Y0346315D01*
X0052D01*
Y0349374D01*
D02*
G37*
G36*
X0058059Y0343315D02*
X0055D01*
Y0340256D01*
X0058059D01*
Y0343315D01*
D02*
G37*
G36*
X0052D02*
X0048941D01*
Y0340256D01*
X0052D01*
Y0343315D01*
D02*
G37*
G36*
X0023386Y0351454D02*
X0022081Y0351283D01*
X0020864Y0350779D01*
X001982Y0349977D01*
X0019018Y0348933D01*
X0018515Y0347716D01*
X0018343Y0346411D01*
Y0343411D01*
X0018515Y0342106D01*
X0019018Y034089D01*
X001982Y0339845D01*
X0020864Y0339044D01*
X0022081Y033854D01*
X0023386Y0338368D01*
X0024691Y033854D01*
X0025907Y0339044D01*
X0026952Y0339845D01*
X0027753Y034089D01*
X0028257Y0342106D01*
X0028429Y0343411D01*
Y0346411D01*
X0028257Y0347716D01*
X0027753Y0348933D01*
X0026952Y0349977D01*
X0025907Y0350779D01*
X0024691Y0351283D01*
X0023386Y0351454D01*
D02*
G37*
G36*
X001D02*
X0008695Y0351283D01*
X0007478Y0350779D01*
X0006434Y0349977D01*
X0005632Y0348933D01*
X0005129Y0347716D01*
X0004957Y0346411D01*
Y0343411D01*
X0005129Y0342106D01*
X0005632Y034089D01*
X0006434Y0339845D01*
X0007478Y0339044D01*
X0008695Y033854D01*
X001Y0338368D01*
X0011305Y033854D01*
X0012522Y0339044D01*
X0013566Y0339845D01*
X0014367Y034089D01*
X0014871Y0342106D01*
X0015043Y0343411D01*
Y0346411D01*
X0014871Y0347716D01*
X0014367Y0348933D01*
X0013566Y0349977D01*
X0012522Y0350779D01*
X0011305Y0351283D01*
X001Y0351454D01*
D02*
G37*
G36*
X01495Y0330895D02*
X0148492Y0330763D01*
X0147552Y0330374D01*
X0146745Y0329755D01*
X0146126Y0328948D01*
X0145737Y0328008D01*
X0145605Y0327D01*
X0145737Y0325992D01*
X0146126Y0325052D01*
X0146745Y0324245D01*
X0147552Y0323626D01*
X0148492Y0323237D01*
X01495Y0323105D01*
X0150508Y0323237D01*
X0151448Y0323626D01*
X0152255Y0324245D01*
X0152874Y0325052D01*
X0153263Y0325992D01*
X0153395Y0327D01*
X0153263Y0328008D01*
X0152874Y0328948D01*
X0152255Y0329755D01*
X0151448Y0330374D01*
X0150508Y0330763D01*
X01495Y0330895D01*
D02*
G37*
G36*
X0266Y0344932D02*
X0263664Y0344748D01*
X0261386Y0344201D01*
X0259221Y0343304D01*
X0257223Y034208D01*
X0255442Y0340558D01*
X025392Y0338777D01*
X0252696Y0336779D01*
X0251799Y0334614D01*
X0251252Y0332336D01*
X0251068Y033D01*
X0251252Y0327664D01*
X0251799Y0325386D01*
X0252696Y0323221D01*
X025392Y0321223D01*
X0255442Y0319442D01*
X0257223Y031792D01*
X0259221Y0316696D01*
X0261386Y0315799D01*
X0263664Y0315252D01*
X0266Y0315068D01*
X0268336Y0315252D01*
X0270614Y0315799D01*
X0272779Y0316696D01*
X0274777Y031792D01*
X0276558Y0319442D01*
X027808Y0321223D01*
X0279304Y0323221D01*
X0280201Y0325386D01*
X0280748Y0327664D01*
X0280932Y033D01*
X0280748Y0332336D01*
X0280201Y0334614D01*
X0279304Y0336779D01*
X027808Y0338777D01*
X0276558Y0340558D01*
X0274777Y034208D01*
X0272779Y0343304D01*
X0270614Y0344201D01*
X0268336Y0344748D01*
X0266Y0344932D01*
D02*
G37*
G36*
X012Y0322991D02*
X0118838Y0322838D01*
X0117754Y032239D01*
X0116824Y0321676D01*
X0116111Y0320746D01*
X0115662Y0319662D01*
X0115509Y03185D01*
X0115662Y0317338D01*
X0116111Y0316254D01*
X0116824Y0315324D01*
X0117754Y0314611D01*
X0118838Y0314162D01*
X012Y0314009D01*
X0121162Y0314162D01*
X0122246Y0314611D01*
X0123176Y0315324D01*
X012389Y0316254D01*
X0124338Y0317338D01*
X0124491Y03185D01*
X0124338Y0319662D01*
X012389Y0320746D01*
X0123176Y0321676D01*
X0122246Y032239D01*
X0121162Y0322838D01*
X012Y0322991D01*
D02*
G37*
G36*
X02Y0320519D02*
X0198838Y0320366D01*
X0197754Y0319917D01*
X0196824Y0319203D01*
X019611Y0318273D01*
X0195662Y031719D01*
X0195509Y0316028D01*
X0195662Y0314865D01*
X019611Y0313782D01*
X0196824Y0312852D01*
X0197754Y0312138D01*
X0198838Y0311689D01*
X02Y0311536D01*
X0201162Y0311689D01*
X0202246Y0312138D01*
X0203176Y0312852D01*
X0203889Y0313782D01*
X0204338Y0314865D01*
X0204491Y0316028D01*
X0204338Y031719D01*
X0203889Y0318273D01*
X0203176Y0319203D01*
X0202246Y0319917D01*
X0201162Y0320366D01*
X02Y0320519D01*
D02*
G37*
G36*
X01495Y0320896D02*
X0148492Y0320763D01*
X0147552Y0320374D01*
X0146745Y0319755D01*
X0146126Y0318948D01*
X0145737Y0318008D01*
X0145605Y0317D01*
X0145737Y0315992D01*
X0146126Y0315052D01*
X0146745Y0314245D01*
X0147552Y0313626D01*
X0147869Y0313495D01*
Y0310596D01*
X014695D01*
Y0305304D01*
X014695Y0305097D01*
X0146571Y0304803D01*
X014605D01*
Y0302153D01*
X015295D01*
Y0304803D01*
X0152429D01*
X015205Y0305097D01*
X015205Y0305304D01*
Y0310596D01*
X0151131D01*
Y0313495D01*
X0151448Y0313626D01*
X0152255Y0314245D01*
X0152874Y0315052D01*
X0153263Y0315992D01*
X0153395Y0317D01*
X0153263Y0318008D01*
X0152874Y0318948D01*
X0152255Y0319755D01*
X0151448Y0320374D01*
X0150508Y0320763D01*
X01495Y0320896D01*
D02*
G37*
G36*
X0023386Y0312399D02*
X0022081Y0312227D01*
X0020864Y0311723D01*
X001982Y0310922D01*
X0019018Y0309878D01*
X0018515Y0308661D01*
X0018343Y0307356D01*
Y0304356D01*
X0018515Y0303051D01*
X0019018Y0301835D01*
X001982Y030079D01*
X0020864Y0299989D01*
X0022081Y0299485D01*
X0023386Y0299313D01*
X0024691Y0299485D01*
X0025907Y0299989D01*
X0026952Y030079D01*
X0027753Y0301835D01*
X0028257Y0303051D01*
X0028429Y0304356D01*
Y0307356D01*
X0028257Y0308661D01*
X0027753Y0309878D01*
X0026952Y0310922D01*
X0025907Y0311723D01*
X0024691Y0312227D01*
X0023386Y0312399D01*
D02*
G37*
G36*
X001D02*
X0008695Y0312227D01*
X0007478Y0311723D01*
X0006434Y0310922D01*
X0005632Y0309878D01*
X0005129Y0308661D01*
X0004957Y0307356D01*
Y0304356D01*
X0005129Y0303051D01*
X0005632Y0301835D01*
X0006434Y030079D01*
X0007478Y0299989D01*
X0008695Y0299485D01*
X001Y0299313D01*
X0011305Y0299485D01*
X0012522Y0299989D01*
X0013566Y030079D01*
X0014367Y0301835D01*
X0014871Y0303051D01*
X0015043Y0304356D01*
Y0307356D01*
X0014871Y0308661D01*
X0014367Y0309878D01*
X0013566Y0310922D01*
X0012522Y0311723D01*
X0011305Y0312227D01*
X001Y0312399D01*
D02*
G37*
G36*
X015295Y0300153D02*
X01505D01*
Y0297503D01*
X015295D01*
Y0300153D01*
D02*
G37*
G36*
X01485D02*
X014605D01*
Y0297503D01*
X01485D01*
Y0300153D01*
D02*
G37*
G36*
X0204953Y0291453D02*
X02015D01*
Y0288D01*
X0204953D01*
Y0291453D01*
D02*
G37*
G36*
X01985D02*
X0195047D01*
Y0288D01*
X01985D01*
Y0291453D01*
D02*
G37*
G36*
X0204953Y0285D02*
X02015D01*
Y0281547D01*
X0204953D01*
Y0285D01*
D02*
G37*
G36*
X01985D02*
X0195047D01*
Y0281547D01*
X01985D01*
Y0285D01*
D02*
G37*
G36*
X02675Y0284315D02*
Y02705D01*
X0281315D01*
X0281243Y0271414D01*
X0280678Y0273769D01*
X0279751Y0276007D01*
X0278486Y0278071D01*
X0276913Y0279913D01*
X0275072Y0281486D01*
X0273007Y0282751D01*
X0270769Y0283678D01*
X0268414Y0284243D01*
X02675Y0284315D01*
D02*
G37*
G36*
X02645D02*
X0263586Y0284243D01*
X0261231Y0283678D01*
X0258993Y0282751D01*
X0256928Y0281486D01*
X0255087Y0279913D01*
X0253514Y0278071D01*
X0252249Y0276007D01*
X0251322Y0273769D01*
X0250757Y0271414D01*
X0250685Y02705D01*
X02645D01*
Y0284315D01*
D02*
G37*
G36*
X0143Y0273019D02*
X0141838Y0272866D01*
X0140754Y0272417D01*
X0139824Y0271703D01*
X0139111Y0270773D01*
X0138662Y026969D01*
X0138509Y0268528D01*
X0138662Y0267365D01*
X0139111Y0266282D01*
X0139824Y0265352D01*
X0140754Y0264638D01*
X0141838Y0264189D01*
X0143Y0264036D01*
X0144162Y0264189D01*
X0145246Y0264638D01*
X0146176Y0265352D01*
X0146889Y0266282D01*
X0147338Y0267365D01*
X0147491Y0268528D01*
X0147338Y026969D01*
X0146889Y0270773D01*
X0146176Y0271703D01*
X0145246Y0272417D01*
X0144162Y0272866D01*
X0143Y0273019D01*
D02*
G37*
G36*
X00155Y027029D02*
X0014286Y027013D01*
X0013155Y0269662D01*
X0012184Y0268916D01*
X0011438Y0267945D01*
X001097Y0266814D01*
X001081Y02656D01*
X001097Y0264386D01*
X0011438Y0263255D01*
X0012184Y0262284D01*
X0013155Y0261538D01*
X0014286Y026107D01*
X00155Y026091D01*
X0016714Y026107D01*
X0017845Y0261538D01*
X0018816Y0262284D01*
X0019562Y0263255D01*
X002003Y0264386D01*
X002019Y02656D01*
X002003Y0266814D01*
X0019562Y0267945D01*
X0018816Y0268916D01*
X0017845Y0269662D01*
X0016714Y027013D01*
X00155Y027029D01*
D02*
G37*
G36*
X0281315Y02675D02*
X02675D01*
Y0253685D01*
X0268414Y0253757D01*
X0270769Y0254322D01*
X0273007Y0255249D01*
X0275072Y0256514D01*
X0276913Y0258087D01*
X0278486Y0259928D01*
X0279751Y0261993D01*
X0280678Y0264231D01*
X0281243Y0266586D01*
X0281315Y02675D01*
D02*
G37*
G36*
X02645D02*
X0250685D01*
X0250757Y0266586D01*
X0251322Y0264231D01*
X0252249Y0261993D01*
X0253514Y0259928D01*
X0255087Y0258087D01*
X0256928Y0256514D01*
X0258993Y0255249D01*
X0261231Y0254322D01*
X0263586Y0253757D01*
X02645Y0253685D01*
Y02675D01*
D02*
G37*
G36*
X0147953Y0243953D02*
X01445D01*
Y02405D01*
X0147953D01*
Y0243953D01*
D02*
G37*
G36*
X01415D02*
X0138047D01*
Y02405D01*
X01415D01*
Y0243953D01*
D02*
G37*
G36*
X0147953Y02375D02*
X01445D01*
Y0234047D01*
X0147953D01*
Y02375D01*
D02*
G37*
G36*
X01415D02*
X0138047D01*
Y0234047D01*
X01415D01*
Y02375D01*
D02*
G37*
G36*
X00778Y0229629D02*
Y0222959D01*
X0084469D01*
X0084119Y0224113D01*
X0083237Y0225763D01*
X008205Y0227209D01*
X0080603Y0228397D01*
X0078953Y0229279D01*
X00778Y0229629D01*
D02*
G37*
G36*
X00728D02*
X0071647Y0229279D01*
X0069997Y0228397D01*
X006855Y0227209D01*
X0067363Y0225763D01*
X0066481Y0224113D01*
X0066131Y0222959D01*
X00728D01*
Y0229629D01*
D02*
G37*
G36*
X0084469Y0217959D02*
X00778D01*
Y021129D01*
X0078953Y021164D01*
X0080603Y0212522D01*
X008205Y0213709D01*
X0083237Y0215156D01*
X0084119Y0216806D01*
X0084469Y0217959D01*
D02*
G37*
G36*
X00728D02*
X0066131D01*
X0066481Y0216806D01*
X0067363Y0215156D01*
X006855Y0213709D01*
X0069997Y0212522D01*
X0071647Y021164D01*
X00728Y021129D01*
Y0217959D01*
D02*
G37*
G36*
X0284815Y0187791D02*
X0283793Y0187367D01*
X0282749Y0186566D01*
X0281947Y0185522D01*
X0281524Y01845D01*
X0284815D01*
Y0187791D01*
D02*
G37*
G36*
X0258567Y0192428D02*
X02574Y0192275D01*
X0256313Y0191824D01*
X025538Y0191108D01*
X0254664Y0190175D01*
X0254213Y0189088D01*
X025406Y0187921D01*
X0254213Y0186755D01*
X0254664Y0185668D01*
X025538Y0184734D01*
X0256313Y0184018D01*
X02574Y0183568D01*
X0258567Y0183414D01*
X0259733Y0183568D01*
X0260821Y0184018D01*
X0261754Y0184734D01*
X026247Y0185668D01*
X026292Y0186755D01*
X0263074Y0187921D01*
X026292Y0189088D01*
X026247Y0190175D01*
X0261754Y0191108D01*
X0260821Y0191824D01*
X0259733Y0192275D01*
X0258567Y0192428D01*
D02*
G37*
G36*
X0284815Y01815D02*
X0281524D01*
X0281947Y0180478D01*
X0282749Y0179434D01*
X0283793Y0178632D01*
X0284815Y0178209D01*
Y01815D01*
D02*
G37*
G36*
X00848Y026114D02*
X00778D01*
Y025414D01*
X00848D01*
Y026114D01*
D02*
G37*
G36*
X00728D02*
X00658D01*
Y025414D01*
X00728D01*
Y026114D01*
D02*
G37*
G36*
X00848Y0249141D02*
X00778D01*
Y0242141D01*
X00848D01*
Y0249141D01*
D02*
G37*
G36*
X00728D02*
X00658D01*
Y0242141D01*
X00728D01*
Y0249141D01*
D02*
G37*
G36*
X00155Y021119D02*
X0014286Y021103D01*
X0013155Y0210562D01*
X0012184Y0209816D01*
X0011438Y0208845D01*
X001097Y0207714D01*
X001081Y02065D01*
X001097Y0205286D01*
X0011438Y0204155D01*
X0012184Y0203184D01*
X0013155Y0202438D01*
X0014286Y020197D01*
X00155Y020181D01*
X0016714Y020197D01*
X0017845Y0202438D01*
X0018816Y0203184D01*
X0019562Y0204155D01*
X002003Y0205286D01*
X002019Y02065D01*
X002003Y0207714D01*
X0019562Y0208845D01*
X0018816Y0209816D01*
X0017845Y0210562D01*
X0016714Y021103D01*
X00155Y021119D01*
D02*
G37*
G36*
X0021728Y0152213D02*
X0018669D01*
Y0149547D01*
X0021728D01*
Y0152213D01*
D02*
G37*
G36*
X0017669D02*
X001461D01*
Y0149547D01*
X0017669D01*
Y0152213D01*
D02*
G37*
G36*
X0021728Y0148547D02*
X0018669D01*
Y0145882D01*
X0021728D01*
Y0148547D01*
D02*
G37*
G36*
X0017669D02*
X001461D01*
Y0145882D01*
X0017669D01*
Y0148547D01*
D02*
G37*
G36*
X0076319Y0083969D02*
X0073654D01*
Y00815D01*
X0076319D01*
Y0083969D01*
D02*
G37*
G36*
X0072654D02*
X0069988D01*
Y00815D01*
X0072654D01*
Y0083969D01*
D02*
G37*
G36*
X0076319Y00805D02*
X0073654D01*
Y0078031D01*
X0076319D01*
Y00805D01*
D02*
G37*
G36*
X0072654D02*
X0069988D01*
Y0078031D01*
X0072654D01*
Y00805D01*
D02*
G37*
G36*
X0076319Y0076968D02*
X0073654D01*
Y00745D01*
X0076319D01*
Y0076968D01*
D02*
G37*
G36*
X0072654D02*
X0069988D01*
Y00745D01*
X0072654D01*
Y0076968D01*
D02*
G37*
G36*
X0056068Y0074912D02*
X00536D01*
Y0072246D01*
X0056068D01*
Y0074912D01*
D02*
G37*
G36*
X00526D02*
X0050131D01*
Y0072246D01*
X00526D01*
Y0074912D01*
D02*
G37*
G36*
X0076319Y00735D02*
X0073654D01*
Y0071031D01*
X0076319D01*
Y00735D01*
D02*
G37*
G36*
X0072654D02*
X0069988D01*
Y0071031D01*
X0072654D01*
Y00735D01*
D02*
G37*
G36*
X00526Y0071246D02*
X0050131D01*
Y0068581D01*
X00526D01*
Y0071246D01*
D02*
G37*
G36*
X0071303Y0070162D02*
Y0066642D01*
X0074823D01*
X007475Y0067199D01*
X0074342Y0068185D01*
X0073693Y0069031D01*
X0072846Y006968D01*
X0071861Y0070089D01*
X0071303Y0070162D01*
D02*
G37*
G36*
X0070303D02*
X0069746Y0070089D01*
X006876Y006968D01*
X0067914Y0069031D01*
X0067264Y0068185D01*
X0066856Y0067199D01*
X0066783Y0066642D01*
X0070303D01*
Y0070162D01*
D02*
G37*
G36*
X0056068Y0071246D02*
X00536D01*
Y0068581D01*
X0055752D01*
X0056068Y0068581D01*
X0056252Y0068157D01*
Y0066541D01*
X0055668D01*
Y0067819D01*
X0050532D01*
Y0066541D01*
X0046685D01*
X0046497Y0066667D01*
X00456Y0066845D01*
X0044703Y0066667D01*
X0044515Y0066541D01*
X0041935D01*
X0041897Y0066566D01*
X0041Y0066745D01*
X0040103Y0066566D01*
X0039342Y0066058D01*
X0038833Y0065297D01*
X0038655Y00644D01*
X0038833Y0063503D01*
X0039342Y0062742D01*
X0040103Y0062234D01*
X0041Y0062055D01*
X0041897Y0062234D01*
X0041935Y0062259D01*
X0045078D01*
X00456Y0062155D01*
X0046122Y0062259D01*
X0056252D01*
Y006159D01*
X0065354D01*
Y0070693D01*
X0056568D01*
X0056252Y0070693D01*
X0056068Y0071117D01*
Y0071246D01*
D02*
G37*
G36*
X0074823Y0065642D02*
X0071303D01*
Y0062121D01*
X0071861Y0062195D01*
X0072846Y0062603D01*
X0073693Y0063252D01*
X0074342Y0064099D01*
X007475Y0065084D01*
X0074823Y0065642D01*
D02*
G37*
G36*
X0070303D02*
X0066783D01*
X0066856Y0065084D01*
X0067264Y0064099D01*
X0067914Y0063252D01*
X006876Y0062603D01*
X0069746Y0062195D01*
X0070303Y0062121D01*
Y0065642D01*
D02*
G37*
G36*
X0065331Y0168618D02*
X0062272D01*
Y0165953D01*
X0065331D01*
Y0168618D01*
D02*
G37*
G36*
X006939Y0164953D02*
X0066331D01*
Y0162287D01*
X006939D01*
Y0164953D01*
D02*
G37*
G36*
X0065331D02*
X0062272D01*
Y0162287D01*
X0065331D01*
Y0164953D01*
D02*
G37*
G36*
X0161005Y0163819D02*
X0155868D01*
Y0162175D01*
X0151533D01*
Y016305D01*
X0146034D01*
Y015795D01*
X0151533D01*
Y0159932D01*
X0155868D01*
Y0158288D01*
X0159616D01*
X0159873Y0158031D01*
X0159895Y0157892D01*
X0159865Y0157596D01*
X0159803Y0157438D01*
X0159587Y0157293D01*
X0159587Y0157293D01*
X0159419Y0157126D01*
X0155868D01*
Y0155482D01*
X0151533D01*
Y015605D01*
X0146034D01*
Y015095D01*
X0151533D01*
Y0153239D01*
X0155868D01*
Y01525D01*
X0154437D01*
Y0144319D01*
X015803D01*
X0158298Y0143819D01*
X0158244Y0143738D01*
X0154868D01*
Y0138207D01*
X0156097D01*
Y0132014D01*
X0155597Y0131747D01*
X0155555Y0131775D01*
X0155091Y0131867D01*
X0153909D01*
X0153445Y0131775D01*
X0153051Y0131512D01*
X0152788Y0131118D01*
X0152696Y0130654D01*
Y0124354D01*
X0152788Y012389D01*
X0153051Y0123496D01*
X0153445Y0123233D01*
X0153909Y0123141D01*
X0155091D01*
X0155555Y0123233D01*
X0155597Y0123261D01*
X0156097Y0122994D01*
Y0122377D01*
X0155561Y0122019D01*
X0155052Y0121258D01*
X0154874Y0120361D01*
X0155052Y0119463D01*
X0155561Y0118702D01*
X0156322Y0118194D01*
X0157219Y0118016D01*
X0158116Y0118194D01*
X0158877Y0118702D01*
X0159385Y0119463D01*
X0159564Y0120361D01*
X0159385Y0121258D01*
X0158877Y0122019D01*
X0158457Y01223D01*
X015844Y0122828D01*
X0158841Y0123154D01*
X0158909Y0123141D01*
X0160091D01*
X0160555Y0123233D01*
X0160949Y0123496D01*
X0161212Y012389D01*
X0161304Y0124354D01*
Y0130654D01*
X0161212Y0131118D01*
X0160949Y0131512D01*
X0160555Y0131775D01*
X0160091Y0131867D01*
X0158909D01*
X0158841Y0131854D01*
X0158341Y0132261D01*
Y0138207D01*
X0160005D01*
Y0141955D01*
X0161929Y0143878D01*
X0164267D01*
X0164301Y0143707D01*
X0164478Y0143442D01*
X0164743Y0143265D01*
X0165055Y0143203D01*
X0170362D01*
X0170675Y0143265D01*
X017094Y0143442D01*
X0171116Y0143707D01*
X0171179Y014402D01*
Y0144319D01*
X0178437D01*
Y01525D01*
X0161005D01*
Y0155378D01*
X0164239D01*
Y015402D01*
X0164301Y0153707D01*
X0164478Y0153442D01*
X0164743Y0153265D01*
X0165055Y0153203D01*
X0170362D01*
X0170675Y0153265D01*
X017094Y0153442D01*
X0171116Y0153707D01*
X0171179Y015402D01*
Y015598D01*
X0171116Y0156293D01*
X017094Y0156558D01*
X0170675Y0156735D01*
X0170362Y0156797D01*
X0166058D01*
X0165562Y0157293D01*
X0165547Y0157303D01*
Y0157829D01*
X0165923Y0158203D01*
X0170362D01*
X0170675Y0158265D01*
X017094Y0158442D01*
X0171116Y0158707D01*
X0171179Y015902D01*
Y016098D01*
X0171116Y0161293D01*
X017094Y0161558D01*
X0170675Y0161735D01*
X0170362Y0161797D01*
X0165055D01*
X0164743Y0161735D01*
X0164478Y0161558D01*
X0164301Y0161293D01*
X0164239Y016098D01*
Y0159828D01*
X0161248D01*
X0161005Y0160071D01*
Y0163819D01*
D02*
G37*
G36*
X0198091Y0165178D02*
X0197193Y0165D01*
X0196432Y0164491D01*
X0195924Y0163731D01*
X0195746Y0162833D01*
X0195846Y0162328D01*
X0194639Y0161122D01*
X0192607D01*
X0192573Y0161293D01*
X0192396Y0161558D01*
X0192131Y0161735D01*
X0191819Y0161797D01*
X0186512D01*
X0186199Y0161735D01*
X0185934Y0161558D01*
X0185758Y0161293D01*
X0185695Y016098D01*
Y015902D01*
X0185758Y0158707D01*
X0185934Y0158442D01*
X0186199Y0158265D01*
X0186512Y0158203D01*
X0191819D01*
X0192131Y0158265D01*
X0192396Y0158442D01*
X0192573Y0158707D01*
X0192607Y0158878D01*
X0195104D01*
X0195104Y0158878D01*
X0195533Y0158964D01*
X0195897Y0159207D01*
X0197329Y016064D01*
X0198091Y0160488D01*
X0198988Y0160667D01*
X0199749Y0161175D01*
X0200257Y0161936D01*
X0200436Y0162833D01*
X0200257Y0163731D01*
X0199749Y0164491D01*
X0198988Y0165D01*
X0198091Y0165178D01*
D02*
G37*
G36*
X0191819Y0156797D02*
X0186512D01*
X0186199Y0156735D01*
X0185934Y0156558D01*
X0185758Y0156293D01*
X0185695Y015598D01*
Y015402D01*
X0185758Y0153707D01*
X0185934Y0153442D01*
X0186199Y0153265D01*
X0186512Y0153203D01*
X0191819D01*
X0192131Y0153265D01*
X0192396Y0153442D01*
X0192573Y0153707D01*
X0192607Y0153878D01*
X0196126D01*
X0196969Y0153035D01*
Y0152183D01*
X0196432Y0151825D01*
X0195924Y0151064D01*
X0195746Y0150167D01*
X0195924Y0149269D01*
X0196432Y0148508D01*
X0197193Y0148D01*
X0198091Y0147822D01*
X0198988Y0148D01*
X0199749Y0148508D01*
X0200257Y0149269D01*
X0200436Y0150167D01*
X0200257Y0151064D01*
X0199749Y0151825D01*
X0199212Y0152183D01*
Y01535D01*
X0199212Y01535D01*
X0199127Y0153929D01*
X0198884Y0154293D01*
X0197384Y0155793D01*
X019702Y0156036D01*
X019659Y0156122D01*
X019659Y0156122D01*
X0192607D01*
X0192573Y0156293D01*
X0192396Y0156558D01*
X0192131Y0156735D01*
X0191819Y0156797D01*
D02*
G37*
G36*
X0172719Y0141943D02*
Y01375D01*
X0174034D01*
Y0140543D01*
X0173925Y0141087D01*
X0173617Y0141548D01*
X0173156Y0141856D01*
X0172719Y0141943D01*
D02*
G37*
G36*
X0171719Y0141943D02*
X0171281Y0141856D01*
X017082Y0141548D01*
X0170512Y0141087D01*
X0170404Y0140543D01*
Y01375D01*
X0171719D01*
Y0141943D01*
D02*
G37*
G36*
X0167888Y0141557D02*
X0167101D01*
X0166713Y0141479D01*
X0166384Y014126D01*
X0166165Y0140931D01*
X0166088Y0140543D01*
Y0133457D01*
X0166165Y0133069D01*
X0166384Y013274D01*
X0166713Y0132521D01*
X0167101Y0132443D01*
X0167315D01*
X0168069Y013169D01*
X0168051Y0131512D01*
X0167788Y0131118D01*
X0167696Y0130654D01*
Y0124354D01*
X0167788Y012389D01*
X0168051Y0123496D01*
X0168445Y0123233D01*
X0168909Y0123141D01*
X0170091D01*
X0170555Y0123233D01*
X0170949Y0123496D01*
X0171212Y012389D01*
X0171304Y0124354D01*
Y0130654D01*
X0171212Y0131118D01*
X0170949Y0131512D01*
X0170841Y0131584D01*
X0170834Y0131842D01*
X0171252Y0132124D01*
X0171325Y0132135D01*
X0171719Y0132057D01*
Y01365D01*
X0170404D01*
Y0133457D01*
X0170459Y0133179D01*
X0169999Y0132932D01*
X0168901Y013403D01*
Y0140543D01*
X0168824Y0140931D01*
X0168605Y014126D01*
X0168276Y0141479D01*
X0167888Y0141557D01*
D02*
G37*
G36*
X0177337D02*
X017655D01*
X0176162Y0141479D01*
X0175833Y014126D01*
X0175614Y0140931D01*
X0175536Y0140543D01*
Y0133457D01*
X0175614Y0133069D01*
X0175671Y0132983D01*
X0174555Y0131867D01*
X0173909D01*
X0173445Y0131775D01*
X0173252Y0132208D01*
X0173617Y0132452D01*
X0173925Y0132913D01*
X0174034Y0133457D01*
Y01365D01*
X0172719D01*
Y0132057D01*
X0173156Y0132144D01*
X0173349Y0131711D01*
X0173051Y0131512D01*
X0172788Y0131118D01*
X0172696Y0130654D01*
Y0124354D01*
X0172788Y012389D01*
X0173051Y0123496D01*
X0173445Y0123233D01*
X0173909Y0123141D01*
X0175091D01*
X0175555Y0123233D01*
X0175949Y0123496D01*
X0176212Y012389D01*
X0176304Y0124354D01*
Y0130444D01*
X0176844Y0130983D01*
X0177304Y0130737D01*
X0177288Y0130654D01*
Y0124354D01*
X0177411Y0123734D01*
X0177763Y0123208D01*
X0178289Y0122856D01*
X0178593Y0122796D01*
X0178698Y0122265D01*
X017833Y0122019D01*
X0177822Y0121258D01*
X0177643Y0120361D01*
X0177822Y0119463D01*
X017833Y0118702D01*
X0179091Y0118194D01*
X0179988Y0118016D01*
X0180886Y0118194D01*
X0181646Y0118702D01*
X0182155Y0119463D01*
X0182161Y0119493D01*
X0183742D01*
Y0117849D01*
X018888D01*
Y012338D01*
X0183742D01*
Y0121736D01*
X0181836D01*
X0181646Y0122019D01*
X0181002Y0122449D01*
X0180936Y0122863D01*
X018096Y0123022D01*
X0181237Y0123208D01*
X0181589Y0123734D01*
X0181712Y0124354D01*
Y0130654D01*
X0181589Y0131274D01*
X0181237Y01318D01*
X0180711Y0132152D01*
X0180091Y0132275D01*
X0178909D01*
X0178479Y013219D01*
X0178088Y0132502D01*
X0178046Y0132574D01*
X0178065Y0132669D01*
X0178065Y0132669D01*
Y0132757D01*
X0178273Y0133069D01*
X017835Y0133457D01*
Y0140543D01*
X0178273Y0140931D01*
X0178053Y014126D01*
X0177725Y0141479D01*
X0177337Y0141557D01*
D02*
G37*
G36*
X0185811Y0130472D02*
X0183343D01*
Y0127807D01*
X0185811D01*
Y0130472D01*
D02*
G37*
G36*
Y0126807D02*
X0183343D01*
Y0124142D01*
X0185811D01*
Y0126807D01*
D02*
G37*
G36*
X02865Y0127252D02*
X0285964Y0127181D01*
X0284999Y0126781D01*
X028417Y0126145D01*
X0283534Y0125316D01*
X0283134Y0124351D01*
X0283063Y0123815D01*
X02865D01*
Y0127252D01*
D02*
G37*
G36*
X0165091Y0131867D02*
X0163909D01*
X0163445Y0131775D01*
X0163051Y0131512D01*
X0162788Y0131118D01*
X0162696Y0130654D01*
Y0124354D01*
X0162788Y012389D01*
X0163051Y0123496D01*
X0163445Y0123233D01*
X0163909Y0123141D01*
X0165091D01*
X0165555Y0123233D01*
X0165949Y0123496D01*
X0166212Y012389D01*
X0166304Y0124354D01*
Y0130654D01*
X0166212Y0131118D01*
X0165949Y0131512D01*
X0165555Y0131775D01*
X0165091Y0131867D01*
D02*
G37*
G36*
X0066809Y0176508D02*
X0065912Y0176329D01*
X0065151Y0175821D01*
X0064643Y017506D01*
X0064464Y0174163D01*
X0064643Y0173265D01*
X0065151Y0172504D01*
X0065912Y0171996D01*
X0066809Y0171818D01*
X0066841Y0171824D01*
X0069657Y0169007D01*
X0069339Y0168618D01*
X0068911Y0168618D01*
X0066331D01*
Y0165953D01*
X006939D01*
Y0168121D01*
X006939Y0168568D01*
X0069779Y0168886D01*
X0085617Y0153048D01*
X0086146Y0152694D01*
X008677Y015257D01*
X0109587D01*
X0127958Y0134199D01*
X0128239Y0133788D01*
X0127731Y0133027D01*
X0127552Y013213D01*
X0127731Y0131233D01*
X0128239Y0130472D01*
X0128266Y0130454D01*
Y012892D01*
X012839Y0128296D01*
X0128744Y0127766D01*
X01353Y012121D01*
X0135131Y0120361D01*
X0135291Y0119556D01*
X0134888Y0119153D01*
X0134645Y0118789D01*
X013456Y011836D01*
X013456Y011836D01*
Y0092017D01*
X0134023Y0091658D01*
X0133515Y0090897D01*
X0133336Y009D01*
X0133515Y0089103D01*
X0134023Y0088342D01*
X0134784Y0087833D01*
X0135681Y0087655D01*
X0136579Y0087833D01*
X0137196Y0088246D01*
X0137696Y0088043D01*
Y0087347D01*
X0137788Y0086882D01*
X0138051Y0086488D01*
X0138445Y0086225D01*
X0138909Y0086133D01*
X0139582D01*
X013985Y0085633D01*
X0139833Y0085609D01*
X0139655Y0084711D01*
X0139833Y0083814D01*
X0140342Y0083053D01*
X0141103Y0082544D01*
X0142Y0082366D01*
X0142897Y0082544D01*
X0143658Y0083053D01*
X0144167Y0083814D01*
X0144345Y0084711D01*
X0144167Y0085609D01*
X0144148Y0085636D01*
X0144645Y0086133D01*
X0145091D01*
X0145555Y0086225D01*
X0145597Y0086253D01*
X0146097Y0085986D01*
Y008587D01*
X0146097Y008587D01*
X0146183Y0085441D01*
X0146426Y0085077D01*
X01474Y0084103D01*
X0147333Y0084003D01*
X0147155Y0083105D01*
X0147333Y0082208D01*
X0147842Y0081447D01*
X0148603Y0080939D01*
X01495Y0080761D01*
X0150397Y0080939D01*
X0151158Y0081447D01*
X0151667Y0082208D01*
X0151845Y0083105D01*
X0151667Y0084003D01*
X0151158Y0084764D01*
X0150397Y0085272D01*
X01495Y0085451D01*
X0149347Y0085633D01*
X014958Y0086133D01*
X0150091D01*
X0150555Y0086225D01*
X0150949Y0086488D01*
X0151212Y0086882D01*
X0151304Y0087347D01*
Y0093646D01*
X0151212Y009411D01*
X0150949Y0094504D01*
X0150622Y0094723D01*
Y0100689D01*
X0153465Y0103532D01*
X0186775D01*
X0187134Y0102995D01*
X0187894Y0102487D01*
X0188792Y0102308D01*
X0189689Y0102487D01*
X019045Y0102995D01*
X0190958Y0103756D01*
X0191137Y0104654D01*
X0190958Y0105551D01*
X019045Y0106312D01*
X0189689Y010682D01*
X0188792Y0106999D01*
X0187894Y010682D01*
X0187134Y0106312D01*
X0186775Y0105775D01*
X0153D01*
X0153Y0105775D01*
X0152571Y010569D01*
X0152207Y0105447D01*
X0152207Y0105447D01*
X0151084Y0104323D01*
X0150622Y0104515D01*
Y0123277D01*
X0150949Y0123496D01*
X0151212Y012389D01*
X0151304Y0124354D01*
Y0130654D01*
X0151212Y0131118D01*
X0150949Y0131512D01*
X0150555Y0131775D01*
X0150091Y0131867D01*
X0148909D01*
X0148445Y0131775D01*
X0148051Y0131512D01*
X0147788Y0131118D01*
X0147696Y0130654D01*
Y0124354D01*
X0147788Y012389D01*
X0148051Y0123496D01*
X0148378Y0123277D01*
Y0103881D01*
X0146426Y0101928D01*
X0146183Y0101564D01*
X0146097Y0101135D01*
X0146097Y0101135D01*
Y0095006D01*
X0145597Y0094739D01*
X0145555Y0094767D01*
X0145091Y0094859D01*
X0143909D01*
X0143445Y0094767D01*
X0143051Y0094504D01*
X0142788Y009411D01*
X0142696Y0093646D01*
Y0087356D01*
X014233Y008699D01*
X0142Y0087056D01*
X0141657Y0086988D01*
X014156Y0087085D01*
X0141304Y0087428D01*
Y0093646D01*
X0141212Y009411D01*
X0140949Y0094504D01*
X0140555Y0094767D01*
X0140091Y0094859D01*
X0138909D01*
X0138445Y0094767D01*
X0138051Y0094504D01*
X0137788Y009411D01*
X0137696Y0093646D01*
Y0091976D01*
X0137656Y009194D01*
X0137196Y0091754D01*
X0136803Y0092017D01*
Y0117693D01*
X0137233Y0118064D01*
X0137477Y0118016D01*
X0138374Y0118194D01*
X0139135Y0118702D01*
X0139643Y0119463D01*
X0139822Y0120361D01*
X0139643Y0121258D01*
X0139135Y0122019D01*
X0138568Y0122398D01*
X0138329Y0122755D01*
X0138558Y012315D01*
X0138614Y0123199D01*
X0138909Y0123141D01*
X0140091D01*
X0140555Y0123233D01*
X0140949Y0123496D01*
X0141212Y012389D01*
X0141304Y0124354D01*
Y0130654D01*
X0141212Y0131118D01*
X0140949Y0131512D01*
X0140622Y0131731D01*
Y0131879D01*
X0140622Y0131879D01*
X0140536Y0132308D01*
X0140293Y0132672D01*
X0140293Y0132672D01*
X0138598Y0134367D01*
Y0137769D01*
X0139135Y0138128D01*
X0139643Y0138889D01*
X0139822Y0139786D01*
X0139643Y0140683D01*
X0139473Y0140937D01*
X0139709Y0141378D01*
X0140295D01*
X0143378Y0138295D01*
Y0131731D01*
X0143051Y0131512D01*
X0142788Y0131118D01*
X0142696Y0130654D01*
Y0124354D01*
X0142788Y012389D01*
X0143051Y0123496D01*
X0143445Y0123233D01*
X0143909Y0123141D01*
X0145091D01*
X0145555Y0123233D01*
X0145949Y0123496D01*
X0146212Y012389D01*
X0146304Y0124354D01*
Y0130654D01*
X0146212Y0131118D01*
X0145949Y0131512D01*
X0145622Y0131731D01*
Y0138759D01*
X0145622Y0138759D01*
X0145536Y0139189D01*
X0145293Y0139552D01*
X0145293Y0139552D01*
X0141552Y0143293D01*
X0141189Y0143536D01*
X0140759Y0143622D01*
X0140759Y0143622D01*
X0133711D01*
X0132622Y0144711D01*
Y0153743D01*
X0133158Y0154102D01*
X0133667Y0154862D01*
X0133845Y015576D01*
X0133667Y0156657D01*
X0133158Y0157418D01*
X0132397Y0157926D01*
X01315Y0158105D01*
X0130603Y0157926D01*
X0129842Y0157418D01*
X0129333Y0156657D01*
X0129155Y015576D01*
X0129333Y0154862D01*
X0129842Y0154102D01*
X0130378Y0153743D01*
Y0144246D01*
X0130378Y0144246D01*
X0130464Y0143817D01*
X0130707Y0143453D01*
X0132453Y0141707D01*
X0132453Y0141707D01*
X0132817Y0141464D01*
X0133247Y0141378D01*
X0133247Y0141378D01*
X0135244D01*
X013548Y0140937D01*
X013531Y0140683D01*
X0135131Y0139786D01*
X013531Y0138889D01*
X0135818Y0138128D01*
X0136355Y0137769D01*
Y0133903D01*
X0136355Y0133903D01*
X013644Y0133473D01*
X0136683Y0133109D01*
X0138072Y0131721D01*
X0138051Y0131512D01*
X0137788Y0131118D01*
X0137696Y0130654D01*
Y0124354D01*
X013775Y0124082D01*
X0137289Y0123835D01*
X0131529Y0129596D01*
Y0130454D01*
X0131556Y0130472D01*
X0132064Y0131233D01*
X0132243Y013213D01*
X0132064Y0133027D01*
X0131556Y0133788D01*
X0131529Y0133806D01*
Y0134567D01*
X0131405Y0135191D01*
X0131051Y0135721D01*
X0111417Y0155355D01*
X0110887Y0155709D01*
X0110263Y0155833D01*
X0087446D01*
X0069148Y0174131D01*
X0069154Y0174163D01*
X0068976Y017506D01*
X0068467Y0175821D01*
X0067707Y0176329D01*
X0066809Y0176508D01*
D02*
G37*
G36*
X02865Y0122815D02*
X0283063D01*
X0283134Y0122279D01*
X0283534Y0121314D01*
X028417Y0120485D01*
X0284999Y0119849D01*
X0285964Y0119449D01*
X02865Y0119378D01*
Y0122815D01*
D02*
G37*
G36*
X0284846Y0116969D02*
X0282181D01*
Y01145D01*
X0284846D01*
Y0116969D01*
D02*
G37*
G36*
Y01135D02*
X0282181D01*
Y0111031D01*
X0284846D01*
Y01135D01*
D02*
G37*
G36*
X0119846Y0139786D02*
X0118949Y0139608D01*
X0118188Y0139099D01*
X011768Y0138338D01*
X0117501Y0137441D01*
X011768Y0136544D01*
X0118188Y0135783D01*
X0118802Y0135373D01*
Y0115077D01*
X0118802Y0115077D01*
X0118887Y0114648D01*
X011913Y0114284D01*
X0126781Y0106633D01*
X0126655Y0106D01*
X0126833Y0105103D01*
X0127342Y0104342D01*
X0128103Y0103833D01*
X0129Y0103655D01*
X0129897Y0103833D01*
X0130658Y0104342D01*
X0131167Y0105103D01*
X0131345Y0106D01*
X0131167Y0106897D01*
X0130658Y0107658D01*
X0129897Y0108167D01*
X0129Y0108345D01*
X0128367Y0108219D01*
X0121045Y0115541D01*
Y0135476D01*
X0121505Y0135783D01*
X0122013Y0136544D01*
X0122192Y0137441D01*
X0122013Y0138338D01*
X0121505Y0139099D01*
X0120744Y0139608D01*
X0119846Y0139786D01*
D02*
G37*
G36*
X0180091Y0094859D02*
X0178909D01*
X0178445Y0094767D01*
X0178051Y0094504D01*
X0177788Y009411D01*
X0177696Y0093646D01*
Y0087347D01*
X0177788Y0086882D01*
X0178051Y0086488D01*
X0178445Y0086225D01*
X0178909Y0086133D01*
X0180091D01*
X0180555Y0086225D01*
X0180949Y0086488D01*
X0181212Y0086882D01*
X0181304Y0087347D01*
Y0093646D01*
X0181212Y009411D01*
X0180949Y0094504D01*
X0180555Y0094767D01*
X0180091Y0094859D01*
D02*
G37*
G36*
X0175091D02*
X0173909D01*
X0173445Y0094767D01*
X0173051Y0094504D01*
X0172788Y009411D01*
X0172696Y0093646D01*
Y0087347D01*
X0172788Y0086882D01*
X0173051Y0086488D01*
X0173445Y0086225D01*
X0173909Y0086133D01*
X0175091D01*
X0175555Y0086225D01*
X0175949Y0086488D01*
X0176212Y0086882D01*
X0176304Y0087347D01*
Y0093646D01*
X0176212Y009411D01*
X0175949Y0094504D01*
X0175555Y0094767D01*
X0175091Y0094859D01*
D02*
G37*
G36*
X01595Y0102099D02*
X0158603Y010192D01*
X0157842Y0101412D01*
X0157333Y0100651D01*
X0157155Y0099753D01*
X0157333Y0098856D01*
X0157842Y0098095D01*
X0158378Y0097737D01*
Y0094723D01*
X0158051Y0094504D01*
X0157788Y009411D01*
X0157696Y0093646D01*
Y0087347D01*
X0157788Y0086882D01*
X0158051Y0086488D01*
X0158445Y0086225D01*
X0158909Y0086133D01*
X0160091D01*
X0160555Y0086225D01*
X0160949Y0086488D01*
X0161212Y0086882D01*
X0161304Y0087347D01*
Y0093646D01*
X0161212Y009411D01*
X0160949Y0094504D01*
X0160622Y0094723D01*
Y0097737D01*
X0161158Y0098095D01*
X0161667Y0098856D01*
X0161845Y0099753D01*
X0161667Y0100651D01*
X0161158Y0101412D01*
X0160397Y010192D01*
X01595Y0102099D01*
D02*
G37*
G36*
X01545Y0099499D02*
X0153603Y009932D01*
X0152842Y0098812D01*
X0152333Y0098051D01*
X0152155Y0097154D01*
X0152333Y0096256D01*
X0152842Y0095495D01*
X0153313Y0095181D01*
Y0094679D01*
X0153051Y0094504D01*
X0152788Y009411D01*
X0152696Y0093646D01*
Y0087347D01*
X0152788Y0086882D01*
X0153051Y0086488D01*
X0153445Y0086225D01*
X0153909Y0086133D01*
X0155091D01*
X0155555Y0086225D01*
X0155949Y0086488D01*
X0156212Y0086882D01*
X0156304Y0087347D01*
Y0093646D01*
X0156212Y009411D01*
X0155949Y0094504D01*
X0155687Y0094679D01*
Y0095181D01*
X0156158Y0095495D01*
X0156667Y0096256D01*
X0156845Y0097154D01*
X0156667Y0098051D01*
X0156158Y0098812D01*
X0155397Y009932D01*
X01545Y0099499D01*
D02*
G37*
G36*
X0217024Y007592D02*
X0216126Y0075741D01*
X0215365Y0075233D01*
X0214857Y0074472D01*
X0214679Y0073575D01*
X0214857Y0072677D01*
X0214998Y0072466D01*
X021492Y0072321D01*
X0214667Y0072061D01*
X0213874Y0072219D01*
X0212977Y0072041D01*
X0212216Y0071532D01*
X0211707Y0070771D01*
X0211529Y0069874D01*
X0211707Y0068977D01*
X0212216Y0068216D01*
X0212753Y0067857D01*
Y0034097D01*
X0211324D01*
Y0028596D01*
X0216424D01*
Y0034097D01*
X0214996D01*
Y0067857D01*
X0215402Y0068129D01*
X0215902Y0067938D01*
Y0066805D01*
X0215902Y0066805D01*
X0215987Y0066376D01*
X0216231Y0066012D01*
X0218441Y0063801D01*
Y0034097D01*
X0217013D01*
Y0028596D01*
X0222113D01*
Y0034097D01*
X0220685D01*
Y0064266D01*
X0220685Y0064266D01*
X0220599Y0064695D01*
X0220356Y0065059D01*
X0220356Y0065059D01*
X0218145Y006727D01*
Y0071558D01*
X0218682Y0071917D01*
X021919Y0072677D01*
X0219369Y0073575D01*
X021919Y0074472D01*
X0218682Y0075233D01*
X0217921Y0075741D01*
X0217024Y007592D01*
D02*
G37*
G36*
X0165091Y0094859D02*
X0163909D01*
X0163445Y0094767D01*
X0163051Y0094504D01*
X0162788Y009411D01*
X0162696Y0093646D01*
Y0087347D01*
X0162788Y0086882D01*
X0163051Y0086488D01*
X0163378Y0086269D01*
Y007504D01*
X0162842Y0074682D01*
X0162333Y0073921D01*
X0162155Y0073024D01*
X0162333Y0072126D01*
X0162842Y0071365D01*
X0163603Y0070857D01*
X01645Y0070679D01*
X0165397Y0070857D01*
X0166158Y0071365D01*
X0166667Y0072126D01*
X0166845Y0073024D01*
X0166667Y0073921D01*
X0166158Y0074682D01*
X0165622Y007504D01*
Y0086269D01*
X0165949Y0086488D01*
X0166212Y0086882D01*
X0166304Y0087347D01*
Y0093646D01*
X0166212Y009411D01*
X0165949Y0094504D01*
X0165555Y0094767D01*
X0165091Y0094859D01*
D02*
G37*
G36*
X01995Y0061819D02*
X0197031D01*
Y0059153D01*
X01995D01*
Y0061819D01*
D02*
G37*
G36*
Y0058153D02*
X0197031D01*
Y0055488D01*
X01995D01*
Y0058153D01*
D02*
G37*
G36*
X0194976Y0055445D02*
X0194079Y0055266D01*
X0193318Y0054758D01*
X019281Y0053997D01*
X0192631Y00531D01*
X019281Y0052203D01*
X0192903Y0052062D01*
X0192668Y0051622D01*
X0191818D01*
Y0052184D01*
X0186718D01*
Y0046684D01*
X0191818D01*
Y0049378D01*
X019439D01*
X0194391Y0049378D01*
X019482Y0049464D01*
X0195184Y0049707D01*
X0195769Y0050293D01*
X0195769Y0050293D01*
X0196013Y0050657D01*
X0196097Y0051083D01*
X0196635Y0051442D01*
X0197143Y0052203D01*
X0197321Y00531D01*
X0197143Y0053997D01*
X0196635Y0054758D01*
X0195874Y0055266D01*
X0194976Y0055445D01*
D02*
G37*
G36*
X0170091Y0094859D02*
X0168909D01*
X0168445Y0094767D01*
X0168051Y0094504D01*
X0167788Y009411D01*
X0167696Y0093646D01*
Y0087347D01*
X0167788Y0086882D01*
X0168051Y0086488D01*
X0168378Y0086269D01*
Y0050393D01*
X0167842Y0050035D01*
X0167333Y0049274D01*
X0167155Y0048376D01*
X0167333Y0047479D01*
X0167842Y0046718D01*
X0168603Y004621D01*
X01695Y0046031D01*
X0170397Y004621D01*
X0171158Y0046718D01*
X0171667Y0047479D01*
X0171845Y0048376D01*
X0171667Y0049274D01*
X0171158Y0050035D01*
X0170622Y0050393D01*
Y0086269D01*
X0170949Y0086488D01*
X0171212Y0086882D01*
X0171304Y0087347D01*
Y0093646D01*
X0171212Y009411D01*
X0170949Y0094504D01*
X0170555Y0094767D01*
X0170091Y0094859D01*
D02*
G37*
G36*
X02685Y0038437D02*
X0264063D01*
Y0034D01*
X02685D01*
Y0038437D01*
D02*
G37*
G36*
X0191818Y0045491D02*
X0186718D01*
Y0039991D01*
X0188146D01*
Y0038017D01*
X018761Y0037658D01*
X0187101Y0036897D01*
X0186923Y0036D01*
X0187101Y0035103D01*
X018761Y0034342D01*
X018837Y0033833D01*
X0189268Y0033655D01*
X0190165Y0033833D01*
X0190926Y0034342D01*
X0191434Y0035103D01*
X0191613Y0036D01*
X0191434Y0036897D01*
X0190926Y0037658D01*
X0190389Y0038017D01*
Y0039991D01*
X0191818D01*
Y0045491D01*
D02*
G37*
G36*
X0174846Y0033846D02*
X0171D01*
Y003D01*
X0174846D01*
Y0033846D01*
D02*
G37*
G36*
X0191819Y0151797D02*
X0186512D01*
X0186199Y0151735D01*
X0185934Y0151558D01*
X0185758Y0151293D01*
X0185695Y015098D01*
Y0149789D01*
X0184418Y0148512D01*
X0184175Y0148148D01*
X018409Y0147719D01*
X018409Y0147719D01*
Y0140187D01*
X018409Y0140187D01*
X0184175Y0139757D01*
X0184418Y0139394D01*
X0203304Y0120508D01*
Y006218D01*
X0202969Y0061819D01*
X0202804Y0061819D01*
X02005D01*
Y0058653D01*
Y0055488D01*
X0202804D01*
X0202969Y0055488D01*
X0203304Y0055127D01*
Y0042907D01*
X0199678Y0039281D01*
X0199103Y0039167D01*
X0198342Y0038658D01*
X0197833Y0037897D01*
X0197655Y0037D01*
X0197833Y0036103D01*
X0198342Y0035342D01*
X0198878Y0034983D01*
Y0034096D01*
X019745D01*
Y0028596D01*
X020255D01*
Y0034096D01*
X0201122D01*
Y0034983D01*
X0201658Y0035342D01*
X0202167Y0036103D01*
X0202345Y0037D01*
X0202167Y0037897D01*
X0201886Y0038317D01*
X0204878Y004131D01*
X0205379Y0041102D01*
Y0039017D01*
X0204842Y0038658D01*
X0204333Y0037897D01*
X0204155Y0037D01*
X0204333Y0036103D01*
X0204842Y0035342D01*
X0205379Y0034983D01*
Y0034159D01*
X020395D01*
Y0028659D01*
X020905D01*
Y0034159D01*
X0207622D01*
Y0034983D01*
X0208158Y0035342D01*
X0208667Y0036103D01*
X0208845Y0037D01*
X0208667Y0037897D01*
X0208158Y0038658D01*
X0207622Y0039017D01*
Y0132116D01*
X0207622Y0132116D01*
X0207536Y0132545D01*
X0207293Y0132909D01*
X0207293Y0132909D01*
X0194409Y0145793D01*
X0194045Y0146036D01*
X0193616Y0146122D01*
X0193616Y0146122D01*
X0192607D01*
X0192573Y0146293D01*
X0192396Y0146558D01*
X0192131Y0146735D01*
X0191819Y0146797D01*
X0186512D01*
X0186476Y0146826D01*
X0186453Y0147375D01*
X0187281Y0148203D01*
X0191819D01*
X0192131Y0148265D01*
X0192396Y0148442D01*
X0192573Y0148707D01*
X0192635Y014902D01*
Y015098D01*
X0192573Y0151293D01*
X0192396Y0151558D01*
X0192131Y0151735D01*
X0191819Y0151797D01*
D02*
G37*
G36*
X02685Y0033D02*
X0264063D01*
Y0028563D01*
X02685D01*
Y0033D01*
D02*
G37*
G36*
X0243374Y0011569D02*
X0237843D01*
Y0010122D01*
X0235992D01*
X0235634Y0010658D01*
X0234873Y0011167D01*
X0233976Y0011345D01*
X0233078Y0011167D01*
X0232317Y0010658D01*
X0231809Y0009897D01*
X023163Y0009D01*
X0231809Y0008103D01*
X0232317Y0007342D01*
X0233078Y0006833D01*
X0233976Y0006655D01*
X0234873Y0006833D01*
X0235634Y0007342D01*
X0235992Y0007878D01*
X0237843D01*
Y0006431D01*
X0243374D01*
Y0011569D01*
D02*
G37*
G36*
X0250466Y0011969D02*
X0247801D01*
Y00095D01*
X0250466D01*
Y0011969D01*
D02*
G37*
G36*
X0246801D02*
X0244136D01*
Y00095D01*
X0246801D01*
Y0011969D01*
D02*
G37*
G36*
X0250466Y00085D02*
X0247801D01*
Y0006032D01*
X0250466D01*
Y00085D01*
D02*
G37*
G36*
X0246801D02*
X0244136D01*
Y0006032D01*
X0246801D01*
Y00085D01*
D02*
G37*
%LPD*%
G36*
X0205379Y0131651D02*
Y0122312D01*
X0204878Y0122105D01*
X0186333Y0140651D01*
Y0143056D01*
X0186512Y0143203D01*
X0191819D01*
X0192131Y0143265D01*
X0192396Y0143442D01*
X0192573Y0143707D01*
X0192607Y0143878D01*
X0193151D01*
X0205379Y0131651D01*
D02*
G37*
%LPC*%
G36*
X038338Y042019D02*
Y04165D01*
X038707D01*
X0387014Y0416925D01*
X0386561Y0418019D01*
X0385839Y0418959D01*
X0384899Y0419681D01*
X0383805Y0420134D01*
X038338Y042019D01*
D02*
G37*
G36*
X038188D02*
X0381455Y0420134D01*
X0380361Y0419681D01*
X037942Y0418959D01*
X0378699Y0418019D01*
X0378246Y0416925D01*
X037819Y04165D01*
X038188D01*
Y042019D01*
D02*
G37*
G36*
X038707Y0415D02*
X038338D01*
Y041131D01*
X0383805Y0411366D01*
X0384899Y0411819D01*
X0385839Y0412541D01*
X0386561Y0413481D01*
X0387014Y0414575D01*
X038707Y0415D01*
D02*
G37*
G36*
X038188D02*
X037819D01*
X0378246Y0414575D01*
X0378699Y0413481D01*
X037942Y0412541D01*
X0380361Y0411819D01*
X0381455Y0411366D01*
X038188Y041131D01*
Y0415D01*
D02*
G37*
G36*
X0354971Y0249196D02*
Y024601D01*
X0358157D01*
X0358118Y0246304D01*
X0357715Y0247277D01*
X0357074Y0248113D01*
X0356238Y0248754D01*
X0355265Y0249157D01*
X0354971Y0249196D01*
D02*
G37*
G36*
X0353471D02*
X0353177Y0249157D01*
X0352204Y0248754D01*
X0351368Y0248113D01*
X0350727Y0247277D01*
X0350324Y0246304D01*
X0350285Y024601D01*
X0353471D01*
Y0249196D01*
D02*
G37*
G36*
X0358157Y024451D02*
X0354971D01*
Y0241324D01*
X0355265Y0241363D01*
X0356238Y0241766D01*
X0357074Y0242407D01*
X0357715Y0243243D01*
X0358118Y0244216D01*
X0358157Y024451D01*
D02*
G37*
G36*
X0353471D02*
X0350285D01*
X0350324Y0244216D01*
X0350727Y0243243D01*
X0351368Y0242407D01*
X0352204Y0241766D01*
X0353177Y0241363D01*
X0353471Y0241324D01*
Y024451D01*
D02*
G37*
G36*
X0384065Y018844D02*
Y018475D01*
X0387755D01*
X0387699Y0185175D01*
X0387246Y0186269D01*
X0386524Y0187209D01*
X0385584Y0187931D01*
X038449Y0188384D01*
X0384065Y018844D01*
D02*
G37*
G36*
X0382565D02*
X038214Y0188384D01*
X0381046Y0187931D01*
X0380105Y0187209D01*
X0379384Y0186269D01*
X0378931Y0185175D01*
X0378875Y018475D01*
X0382565D01*
Y018844D01*
D02*
G37*
G36*
X0387755Y018325D02*
X0384065D01*
Y017956D01*
X038449Y0179616D01*
X0385584Y0180069D01*
X0386524Y0180791D01*
X0387246Y0181731D01*
X0387699Y0182825D01*
X0387755Y018325D01*
D02*
G37*
G36*
X0382565D02*
X0378875D01*
X0378931Y0182825D01*
X0379384Y0181731D01*
X0380105Y0180791D01*
X0381046Y0180069D01*
X038214Y0179616D01*
X0382565Y017956D01*
Y018325D01*
D02*
G37*
%LPD*%
D10*
X03495Y00853D02*
Y0086051D01*
X0041Y00644D02*
X00588D01*
X00606Y00662D01*
X00607Y00661D01*
X0330937Y0060437D02*
X03345D01*
X0007Y0143949D02*
Y0160776D01*
Y014D02*
Y0143949D01*
X0014047Y0167823D02*
X0017D01*
X0007Y0160776D02*
X0014047Y0167823D01*
X0017Y0183177D02*
X0038Y0183122D01*
X0323654Y0111898D02*
X03495Y0086051D01*
X0323654Y0111898D02*
Y0117D01*
X03285Y0058D02*
X0330937Y0060437D01*
X034646Y0065342D02*
Y007696D01*
X03495Y008D01*
X0339602Y0065342D02*
X034646D01*
X03345Y006024D02*
X0339602Y0065342D01*
D11*
X03738Y00569D02*
X03887D01*
X0357761Y0050263D02*
X0367163D01*
X03738Y00569D01*
X03613Y0085553D02*
Y00945D01*
Y0085553D02*
X0361554Y00853D01*
X03887Y0077153D02*
X0390054Y0078507D01*
X0394207D01*
X039D02*
X0390054D01*
X0394207D02*
X03995Y00838D01*
X03722Y00655D02*
X0372821Y0066121D01*
X0388079D01*
X03887Y0066742D01*
X0354512Y0045658D02*
X03873D01*
X0331264D02*
X0354512D01*
X03622Y00755D02*
X0368247Y0081546D01*
Y00853D01*
X0376003D01*
X03887Y0066742D02*
Y0077153D01*
X0390047Y00853D02*
X03901Y0085246D01*
X0382696Y00853D02*
X0390047D01*
X0371704Y0065996D02*
X03722Y00655D01*
X0354594Y0065996D02*
X0371704D01*
X0354512Y0053513D02*
X0357761Y0050263D01*
X03873Y0045658D02*
X03887Y0047058D01*
X0080038Y0074D02*
Y0089588D01*
X0328921Y0048D02*
X0331264Y0045658D01*
X035394Y0065342D02*
X0354594Y0065996D01*
X03495Y008D02*
Y00853D01*
X036128D01*
X0121Y0003D02*
X0266811D01*
X02755Y0011689D01*
X0108488Y0015512D02*
X0121Y0003D01*
X0080038Y0066907D02*
Y0074D01*
X0330516Y0116831D02*
X0337Y0123315D01*
X0142654Y0060457D02*
X014285Y0060654D01*
X0088181Y0118D02*
X0122091Y0084091D01*
X0419579Y0075685D02*
X0419869Y0075395D01*
X0381Y0114264D02*
X0419579Y0075685D01*
X0192908Y0017561D02*
X02Y0024654D01*
X0192908Y0017561D02*
X0192908Y0017561D01*
X0135711Y0012289D02*
X0142Y0006D01*
X0181381Y0006842D02*
X0181652D01*
X0180539Y0006D02*
X0181381Y0006842D01*
X0142Y0006D02*
X0180539D01*
X0071Y0165D02*
Y0165453D01*
X0381Y0114264D02*
Y0167D01*
X0129897Y013213D02*
Y0134567D01*
Y012892D02*
Y013213D01*
Y012892D02*
X0137094Y0121723D01*
X0110263Y0154201D02*
X0129897Y0134567D01*
X008677Y0154201D02*
X0110263D01*
X0066809Y0174163D02*
X008677Y0154201D01*
X01395Y0050976D02*
Y00614D01*
X0079495Y0118D02*
X0088181D01*
X00741Y01121D02*
X00888D01*
X01395Y00614D01*
X0027923Y0165494D02*
X0037677Y0175248D01*
X0018169Y015574D02*
X0027923Y0165494D01*
Y0165126D02*
X0030584Y0162465D01*
X0027923Y0165126D02*
Y0165494D01*
X0037677Y0175248D02*
X0038D01*
X0213354Y018D02*
X023D01*
X0205283Y0171929D02*
X0213354Y018D01*
X0181688Y0006878D02*
X0192371Y0017561D01*
X0192908D01*
X026725Y0042D02*
X02755D01*
X0263563Y0045687D02*
X026725Y0042D01*
X02755Y0011689D02*
Y0042D01*
X0263563Y0045687D02*
Y0098909D01*
X0108488Y0015512D02*
Y002798D01*
X0263563Y0098909D02*
X0278654Y0114D01*
X0233563Y0039563D02*
X0248Y0054D01*
X0233563Y00335D02*
Y0039563D01*
X0226969Y0013431D02*
X0234224Y0020687D01*
X0233563Y00335D02*
X0234224Y0032839D01*
Y0020687D02*
Y0032839D01*
X0277Y0115654D02*
Y0123315D01*
Y0115654D02*
X0278654Y0114D01*
X0248Y0054D02*
Y00745D01*
X0192908Y0017561D02*
X0197037Y0013431D01*
X0226969D01*
X02Y0024654D02*
X0200063Y0024716D01*
X02065D01*
X0135711Y0028661D02*
X0142654D01*
X0128768D02*
X0135711D01*
Y0012289D02*
Y0028661D01*
X0074Y0104D02*
X0086D01*
X0092396Y009288D02*
X0128Y0057276D01*
X0074736Y009288D02*
X0092396D01*
X0131827Y0046D02*
Y0058173D01*
X0142654Y0028661D02*
X0149661D01*
X0142654D02*
Y0060457D01*
X0094Y0096D02*
X0131827Y0058173D01*
X0076Y0096D02*
X0094D01*
X0149661Y0028661D02*
X01505Y00295D01*
X0128087Y002798D02*
X0128768Y0028661D01*
X0094Y0042469D02*
Y0068D01*
X0108488Y002798D02*
X0119032D01*
X0094Y0042469D02*
X0108488Y002798D01*
X0079847Y0074D02*
X0080038D01*
X0088D02*
X0094Y0068D01*
X0080038Y0074D02*
X0088D01*
X0051808Y0120192D02*
X0076Y0096D01*
X0038Y014D02*
X0074Y0104D01*
X0051808Y0120192D02*
Y0121808D01*
X0049808Y0117808D02*
X0074736Y009288D01*
X0080038Y0066907D02*
X0080803Y0066142D01*
X0079847Y008978D02*
X0080038Y0089588D01*
X0079847Y0081D02*
Y008978D01*
X0038Y014D02*
Y0151626D01*
X0057169Y0140326D02*
X0079495Y0118D01*
X0063468Y0152D02*
X0065831Y0154362D01*
X0046248Y0152D02*
X0063468D01*
X0045874Y0151626D02*
X0046248Y0152D01*
X0045874Y0140326D02*
Y0151626D01*
Y0140326D02*
X00741Y01121D01*
X00407Y0208257D02*
X0079577Y0169381D01*
X012621D02*
X0142091Y01535D01*
X0079577Y0169381D02*
X012621D01*
X00437Y02095D02*
X0079577Y0173623D01*
X0128967D01*
X0142091Y01605D01*
X0030197Y0151626D02*
X0038D01*
X0026831Y014826D02*
X0030197Y0151626D01*
X00374Y01589D02*
X0038Y01595D01*
X0029991Y01589D02*
X00374D01*
X0026831Y015574D02*
X0029991Y01589D01*
X00437Y029486D02*
X004634Y02975D01*
X00437Y02095D02*
Y029486D01*
X00407Y0208257D02*
Y029446D01*
X003766Y02975D02*
X00407Y029446D01*
X01495Y0307846D02*
Y0317D01*
X0045874Y01595D02*
X0046771D01*
X0047511Y015876D02*
X0057169D01*
X0046771Y01595D02*
X0047511Y015876D01*
X0051Y016624D02*
X0057169D01*
X0045874Y0167374D02*
X0049866D01*
X0051Y016624D01*
X0065831Y0154362D02*
Y015876D01*
X0354481Y0245D02*
X0366D01*
X0354221Y024526D02*
X0354481Y0245D01*
X0327185Y0416D02*
X03635D01*
X0326685Y04165D02*
X0327185Y0416D01*
X0326685Y01835D02*
X0358429D01*
X0330516Y0111169D02*
Y0116831D01*
Y0111169D02*
X0330685Y0111D01*
X0317Y0123315D02*
X0317339D01*
X0323654Y0117D01*
X0322819Y0043D02*
X032845D01*
X03285Y004305D01*
X0322819Y0058D02*
X03285D01*
X0322819Y0048D02*
X0328921D01*
X03345Y005276D02*
X0335253Y0053513D01*
X0343488D01*
X033426Y0053D02*
X03345Y005276D01*
X0322819Y0053D02*
X033426D01*
D15*
X0233976Y0009D02*
X0240608D01*
X01495Y0083105D02*
Y0083589D01*
X0147219Y008587D02*
Y0101135D01*
Y008587D02*
X01495Y0083589D01*
X0176943Y0132669D02*
Y0137D01*
X01745Y0127504D02*
X0175125Y0128129D01*
Y0130851D01*
X0176943Y0132669D01*
X0148433Y0161053D02*
X0158437D01*
X0219563Y00187D02*
Y0024654D01*
X02185Y0017637D02*
X0219563Y00187D01*
X02185Y00175D02*
Y0017637D01*
X0189165Y0145D02*
X0193616D01*
X02065Y0037D02*
Y0132116D01*
X0193616Y0145D02*
X02065Y0132116D01*
X0185211Y0140187D02*
X0204425Y0120972D01*
Y0042443D02*
Y0120972D01*
X0185211Y0140187D02*
Y0147719D01*
X01395Y0127504D02*
Y0131879D01*
X0137477Y0133903D02*
Y0139786D01*
Y0133903D02*
X01395Y0131879D01*
X0126906Y0007831D02*
Y001324D01*
X0269Y00475D02*
X0269541D01*
X0270041Y0048D02*
X0285181D01*
X0269541Y00475D02*
X0270041Y0048D01*
X0276763Y0043D02*
X0285181D01*
X0275763Y0042D02*
X0276763Y0043D01*
X02755Y0042D02*
X0275763D01*
X0149644Y015436D02*
X0158437D01*
X0148784Y01535D02*
X0149644Y015436D01*
X0137094Y0120743D02*
X0137477Y0120361D01*
X0137094Y0120743D02*
Y0121723D01*
X0137477Y0120155D02*
Y0120361D01*
X0135681Y009D02*
X0136448Y0090767D01*
X0119923Y0115077D02*
Y0137364D01*
X0119846Y0137441D02*
X0119923Y0137364D01*
Y0115077D02*
X0129Y0106D01*
X0151937Y0148409D02*
X0152681Y0147665D01*
X0157437D01*
X0159772Y015D01*
X0167709D01*
X01605Y00295D02*
X0177697Y0046696D01*
Y0076196D02*
X01865Y0085D01*
X0177697Y0046696D02*
Y0076196D01*
X0175745Y0047592D02*
Y0076508D01*
X0165654Y00375D02*
X0175745Y0047592D01*
Y0076508D02*
X0187737Y00885D01*
X0269Y0052846D02*
X0269153Y0053D01*
X0285181D01*
X02755Y0058D02*
X0285181D01*
X020925Y002D02*
Y002003D01*
X0213874Y0024654D01*
Y0031409D02*
Y0069874D01*
X0194963Y0068486D02*
X0201276Y0074799D01*
X0217024Y0066805D02*
Y0073575D01*
Y0066805D02*
X0219563Y0064266D01*
X02065Y0031409D02*
Y0037D01*
X0200383Y00384D02*
X0204425Y0042443D01*
X0219563Y003201D02*
Y0064266D01*
X01645Y0073024D02*
Y0090496D01*
X01695Y0048376D02*
Y0090496D01*
X0135681Y009D02*
Y011836D01*
X0137477Y0120155D01*
X0199743Y0065604D02*
X02Y0065346D01*
X01975Y0065604D02*
X0199743D01*
X0199846Y0058807D02*
X02Y0058653D01*
X01975Y0058807D02*
X0199846D01*
X0201276Y0074799D02*
Y011839D01*
X0192Y0127665D02*
X0201276Y011839D01*
X0187737Y00885D02*
X0194567D01*
X01865Y0085D02*
X0197637D01*
X0123559Y0023654D02*
X0124145Y002424D01*
X0123559Y0016587D02*
Y0023654D01*
Y0016587D02*
X0126906Y001324D01*
X0124145Y002424D02*
X0128087D01*
X02Y0037D02*
X0200383Y0037383D01*
X0189268Y0036D02*
Y0042741D01*
X0157219Y0120361D02*
Y0140754D01*
X0157437Y0140972D01*
X0161465Y0145D01*
X0167709D01*
X0187492Y015D02*
X0189165D01*
X0185211Y0147719D02*
X0187492Y015D01*
X0200383Y0037383D02*
Y00384D01*
X01795Y0124945D02*
Y0127504D01*
X0179988Y0120361D02*
X0180242Y0120614D01*
X0186311D01*
X0167494Y013385D02*
Y0137D01*
Y013385D02*
X01695Y0131845D01*
Y0127504D02*
Y0131845D01*
X0186114Y0127504D02*
X0186311Y0127307D01*
X01795Y0127504D02*
X0186114D01*
X0136718Y0090496D02*
X01395D01*
X0136222Y009D02*
X0136718Y0090496D01*
X0135681Y009D02*
X0136222D01*
X0147219Y0101135D02*
X01495Y0103416D01*
X0153Y0104654D02*
X0188792D01*
X01495Y0101154D02*
X0153Y0104654D01*
X01495Y0090496D02*
Y0101154D01*
X01445Y0087574D02*
Y0090496D01*
X0142Y0085074D02*
X01445Y0087574D01*
X0142Y0084711D02*
Y0085074D01*
X01495Y0103416D02*
Y0127504D01*
X01545Y0090496D02*
Y0097154D01*
X01595Y0090496D02*
Y0099753D01*
X0120213Y001324D02*
Y001529D01*
X0119032Y00205D02*
X0120283Y0019248D01*
X0120213Y001529D02*
X0120283Y0015361D01*
Y0019248D01*
X0190334Y00505D02*
X0194391D01*
X0194976Y0051086D02*
Y00531D01*
X0194391Y00505D02*
X0194976Y0051086D01*
X0189268Y0049434D02*
X0190334Y00505D01*
X01835Y0033686D02*
Y0073024D01*
X0174161Y0024347D02*
X01835Y0033686D01*
X0155347Y00312D02*
X0161646Y00375D01*
X0165654D01*
X01315Y0144246D02*
Y015576D01*
Y0144246D02*
X0133247Y01425D01*
X0140759D01*
X01445Y0138759D01*
Y0127504D02*
Y0138759D01*
X02Y0031346D02*
Y0037D01*
X0155347Y0024347D02*
Y00312D01*
X01505Y00195D02*
X0155347Y0024347D01*
X01605Y00195D02*
X0165347Y0024347D01*
X0174161D01*
X0158437Y0154557D02*
X016038Y01565D01*
X0189165Y0155D02*
X019659D01*
X0189165Y016D02*
X0195104D01*
X0166035Y0155D02*
X0167709D01*
X0159906Y0159388D02*
X0160102D01*
X0158437Y0160856D02*
X0159906Y0159388D01*
X0166035Y016D02*
X0167709D01*
X0160102Y0159388D02*
X0160783Y0158707D01*
X0165354Y0155681D02*
Y0155914D01*
X0164769Y01565D02*
X0165354Y0155914D01*
Y0155681D02*
X0166035Y0155D01*
X0198091Y0150167D02*
Y01535D01*
X019659Y0155D02*
X0198091Y01535D01*
X0197937Y0162833D02*
X0198091D01*
X0195104Y016D02*
X0197937Y0162833D01*
X0165354Y0159292D02*
Y0159319D01*
X0166035Y016D01*
X0164769Y0158707D02*
X0165354Y0159292D01*
X0160783Y0158707D02*
X0164769D01*
X016038Y01565D02*
X0164769D01*
D30*
X0376003Y00853D02*
D03*
X0382696D02*
D03*
X0126906Y001324D02*
D03*
X0120213D02*
D03*
X0142091Y01535D02*
D03*
X0148784D02*
D03*
X0142091Y01605D02*
D03*
X0148784D02*
D03*
X0361554Y00853D02*
D03*
X0368247D02*
D03*
D31*
X02065Y0031409D02*
D03*
Y0024716D02*
D03*
X02Y0031346D02*
D03*
Y0024654D02*
D03*
X0189268Y0042741D02*
D03*
Y0049434D02*
D03*
X0213874Y0024654D02*
D03*
Y0031346D02*
D03*
X0219563Y0024654D02*
D03*
Y0031346D02*
D03*
X039Y00852D02*
D03*
Y0078507D02*
D03*
X01495Y0301153D02*
D03*
Y0307846D02*
D03*
D32*
X035394Y0065342D02*
D03*
X034646D02*
D03*
D33*
X03345Y005276D02*
D03*
Y006024D02*
D03*
D35*
X0079847Y0074D02*
D03*
X0073154D02*
D03*
X0079847Y0081D02*
D03*
X0073154D02*
D03*
X0240608Y0009D02*
D03*
X0247301D02*
D03*
X0278654Y0114D02*
D03*
X0285347D02*
D03*
X0330346Y0117D02*
D03*
X0323654D02*
D03*
D36*
X00531Y0065053D02*
D03*
Y0071746D02*
D03*
X0186311Y0120614D02*
D03*
Y0127307D02*
D03*
X02Y0065346D02*
D03*
Y0058653D02*
D03*
X0157437Y0147665D02*
D03*
Y0140972D02*
D03*
X0158437Y0161053D02*
D03*
Y015436D02*
D03*
D89*
X04365Y00155D02*
D03*
X05407Y00125D02*
D03*
D94*
X00245Y0022D02*
D03*
Y04085D02*
D03*
D104*
X0354221Y024526D02*
D03*
D116*
X0515839Y0100873D02*
X0548D01*
X046713Y0110213D02*
Y0144898D01*
X0489732Y01675D01*
X0459445Y0029D02*
X046713Y0036685D01*
Y0061D01*
X05065Y0110213D02*
X0515839Y0100873D01*
X05065Y0041D02*
X05185Y0029D01*
X05065Y0041D02*
Y0061D01*
D117*
X0430929Y0185D02*
X0496543Y0250614D01*
X0422Y0185D02*
X0430929D01*
X0422Y041575D02*
X0422191Y0415559D01*
X0436941D01*
X049804Y035446D01*
D124*
X001Y0305856D02*
D03*
Y0344911D02*
D03*
X0023386Y0305856D02*
D03*
Y0344911D02*
D03*
D125*
X03622Y00755D02*
D03*
X03722Y00655D02*
D03*
X03622Y00555D02*
D03*
D126*
X01705Y00295D02*
D03*
D127*
Y00195D02*
D03*
X01605Y00295D02*
D03*
Y00195D02*
D03*
X01505Y00295D02*
D03*
Y00195D02*
D03*
D128*
X0505Y0252D02*
D03*
Y03475D02*
D03*
X0266Y033D02*
D03*
Y0269D02*
D03*
D129*
X03613Y00945D02*
D03*
X03995Y00838D02*
D03*
X0080803Y0066142D02*
D03*
X0070803D02*
D03*
D130*
X0419Y00155D02*
D03*
X0558201Y00125D02*
D03*
D131*
X0402701Y00155D02*
D03*
X05745Y00125D02*
D03*
D132*
X00753Y0251641D02*
D03*
D133*
Y022046D02*
D03*
D134*
X00155Y02065D02*
D03*
Y02656D02*
D03*
D135*
X0233563Y00335D02*
D03*
X0253563D02*
D03*
X0243563D02*
D03*
X05065Y0110213D02*
D03*
Y0061D02*
D03*
X046713Y0110213D02*
D03*
Y0061D02*
D03*
D136*
X0263563Y00335D02*
D03*
D137*
X0060803Y0066142D02*
D03*
D138*
X03545Y01535D02*
D03*
X05835Y0046D02*
D03*
X0594Y04085D02*
D03*
D139*
X0045874Y0175248D02*
D03*
Y0167374D02*
D03*
X0038Y0175248D02*
D03*
Y0183122D02*
D03*
Y0167374D02*
D03*
X0045874Y0151626D02*
D03*
Y01595D02*
D03*
X0038Y0151626D02*
D03*
Y01595D02*
D03*
D140*
X0045874Y0183122D02*
D03*
D141*
X01495Y0317D02*
D03*
Y0327D02*
D03*
X023Y018D02*
D03*
X0548Y0111D02*
D03*
Y0101D02*
D03*
D142*
X0337Y0123315D02*
D03*
X0287D02*
D03*
X0317D02*
D03*
X0258567Y0187921D02*
D03*
D143*
X0277Y0123315D02*
D03*
D144*
X02Y0316028D02*
D03*
X0143Y0268528D02*
D03*
X012Y03185D02*
D03*
D145*
X02Y02865D02*
D03*
X0143Y0239D02*
D03*
D146*
X00535Y0344815D02*
D03*
D147*
Y03645D02*
D03*
D148*
X05145Y022D02*
D03*
X0594539D02*
D03*
D149*
X023Y0187874D02*
D03*
D150*
X03887Y0047058D02*
D03*
D151*
Y0066742D02*
D03*
Y00569D02*
D03*
D152*
X0459445Y0029D02*
D03*
X05185D02*
D03*
D153*
X0598Y01675D02*
D03*
X0489732D02*
D03*
D154*
X0325685Y0183D02*
D03*
X0286315D02*
D03*
X0419579Y0036315D02*
D03*
Y0075685D02*
D03*
X0422Y041575D02*
D03*
X038263D02*
D03*
X0326685Y04165D02*
D03*
X0287315D02*
D03*
X05475Y0073185D02*
D03*
Y0033815D02*
D03*
X0422685Y0184D02*
D03*
X0383315D02*
D03*
D155*
X0258567Y0178079D02*
D03*
D156*
X019217Y04208D02*
D03*
X01528D02*
D03*
D157*
X0090472Y03185D02*
D03*
D158*
X0195Y0267D02*
D03*
X0235D02*
D03*
X024Y0257D02*
D03*
X02Y0277D02*
D03*
X0255Y0247D02*
D03*
X0265D02*
D03*
X0215D02*
D03*
X025Y0277D02*
D03*
Y0257D02*
D03*
X0225Y0267D02*
D03*
X022Y0257D02*
D03*
X021Y0277D02*
D03*
X023D02*
D03*
X021Y0257D02*
D03*
X0235Y0247D02*
D03*
X0215Y0267D02*
D03*
X023Y0257D02*
D03*
X024Y0277D02*
D03*
X028Y0257D02*
D03*
X02D02*
D03*
X0245Y0267D02*
D03*
X028Y0277D02*
D03*
X0245Y0247D02*
D03*
X0275D02*
D03*
X0205Y0267D02*
D03*
Y0247D02*
D03*
X0195D02*
D03*
X0225D02*
D03*
X022Y0277D02*
D03*
X00931Y01007D02*
D03*
X00907Y00805D02*
D03*
X0354512Y0045658D02*
D03*
X0233976Y0009D02*
D03*
X00456Y00645D02*
D03*
X0041Y00644D02*
D03*
X0283Y0022D02*
D03*
X0275Y0162D02*
D03*
X02825Y0147D02*
D03*
X0275Y0132D02*
D03*
X026D02*
D03*
X02675Y0117D02*
D03*
X026Y0102D02*
D03*
Y0072D02*
D03*
X02675Y0057D02*
D03*
X026Y0042D02*
D03*
X02675Y0027D02*
D03*
X02525Y0117D02*
D03*
X0245Y0102D02*
D03*
X02525Y0087D02*
D03*
Y0057D02*
D03*
X0245Y0042D02*
D03*
X023Y0162D02*
D03*
Y0132D02*
D03*
X02375Y0117D02*
D03*
X023Y0102D02*
D03*
X02375Y0087D02*
D03*
X02225Y0147D02*
D03*
X0215Y0132D02*
D03*
X02225Y0117D02*
D03*
X0215Y0102D02*
D03*
X01925Y0117D02*
D03*
Y0027D02*
D03*
X01775Y0117D02*
D03*
X017Y0012D02*
D03*
X01625Y0117D02*
D03*
X0155Y0102D02*
D03*
Y0072D02*
D03*
Y0012D02*
D03*
X01475Y0147D02*
D03*
X014Y0072D02*
D03*
X0125Y0162D02*
D03*
X01325Y0117D02*
D03*
X0125Y0102D02*
D03*
X01325Y0087D02*
D03*
X011Y0102D02*
D03*
X01025Y0147D02*
D03*
Y0117D02*
D03*
Y0027D02*
D03*
X0095Y0012D02*
D03*
X00875Y0147D02*
D03*
Y0057D02*
D03*
Y0027D02*
D03*
X008Y0012D02*
D03*
X00725Y0147D02*
D03*
Y0087D02*
D03*
Y0057D02*
D03*
Y0027D02*
D03*
X005Y0102D02*
D03*
X00575Y0087D02*
D03*
Y0057D02*
D03*
Y0027D02*
D03*
X005Y0012D02*
D03*
X00425Y0117D02*
D03*
X0035Y0102D02*
D03*
X00425Y0087D02*
D03*
Y0057D02*
D03*
Y0027D02*
D03*
X00275Y0057D02*
D03*
X002Y0042D02*
D03*
X00125Y0147D02*
D03*
X0005Y0102D02*
D03*
X00125Y0057D02*
D03*
X0005Y0042D02*
D03*
X0225341Y0036276D02*
D03*
X01445Y02065D02*
D03*
Y01865D02*
D03*
X01395Y02165D02*
D03*
X01345Y02065D02*
D03*
X01395Y01965D02*
D03*
X01345Y01865D02*
D03*
X01295Y02165D02*
D03*
X01245Y02065D02*
D03*
X01295Y01965D02*
D03*
X01245Y01865D02*
D03*
X01195Y02165D02*
D03*
X01145Y02065D02*
D03*
X01195Y01965D02*
D03*
X01145Y01865D02*
D03*
X01095Y02165D02*
D03*
X01045Y02065D02*
D03*
X01095Y01965D02*
D03*
X01045Y01865D02*
D03*
X00995Y02165D02*
D03*
X00945Y02065D02*
D03*
X00995Y01965D02*
D03*
X00945Y01865D02*
D03*
X00895Y02165D02*
D03*
X00845Y02065D02*
D03*
X00895Y01965D02*
D03*
X00745Y02065D02*
D03*
X00795Y01965D02*
D03*
X00645Y02065D02*
D03*
X00695Y01965D02*
D03*
X00595Y02165D02*
D03*
X00495D02*
D03*
X00345Y02265D02*
D03*
X00245Y02465D02*
D03*
X00295Y02365D02*
D03*
Y02165D02*
D03*
X00145Y02465D02*
D03*
X00195Y02365D02*
D03*
X00045Y02465D02*
D03*
X00095Y02365D02*
D03*
X01Y0307D02*
D03*
X0095Y0297D02*
D03*
X01Y0287D02*
D03*
X0095Y0277D02*
D03*
X01Y0267D02*
D03*
X0095Y0257D02*
D03*
X01Y0247D02*
D03*
X0095Y0237D02*
D03*
X009Y0307D02*
D03*
X0085Y0297D02*
D03*
X009Y0287D02*
D03*
X0085Y0277D02*
D03*
X009Y0267D02*
D03*
Y0247D02*
D03*
X0085Y0237D02*
D03*
X008Y0307D02*
D03*
X0075Y0297D02*
D03*
X008Y0287D02*
D03*
X0075Y0277D02*
D03*
X008Y0267D02*
D03*
X0075Y0237D02*
D03*
X007Y0307D02*
D03*
X0065Y0297D02*
D03*
X007Y0287D02*
D03*
X0065Y0277D02*
D03*
X007Y0267D02*
D03*
X0065Y0237D02*
D03*
X006Y0307D02*
D03*
X0055Y0297D02*
D03*
X006Y0287D02*
D03*
X0055Y0277D02*
D03*
X006Y0267D02*
D03*
X0055Y0257D02*
D03*
Y0237D02*
D03*
X005Y0287D02*
D03*
Y0267D02*
D03*
Y0247D02*
D03*
X024193Y0073307D02*
D03*
X0193004Y01365D02*
D03*
X0126906Y0007831D02*
D03*
X0097158Y014726D02*
D03*
X0131827Y0046D02*
D03*
X0113421Y0023654D02*
D03*
X0137477Y0139786D02*
D03*
X0129897Y013213D02*
D03*
X0119846Y0137441D02*
D03*
X0092943Y0132653D02*
D03*
X0066809Y0174163D02*
D03*
X0030584Y0162465D02*
D03*
X0205283Y0171929D02*
D03*
X018Y0036103D02*
D03*
X0181652Y0006842D02*
D03*
X0269Y00475D02*
D03*
Y0052846D02*
D03*
X02755Y0058D02*
D03*
X0248Y00745D02*
D03*
X0238Y005855D02*
D03*
X02185Y00175D02*
D03*
X0189268Y0036D02*
D03*
X020925Y002D02*
D03*
X016555Y0060654D02*
D03*
X0194963Y0068486D02*
D03*
X0213874Y0069874D02*
D03*
X0217024Y0073575D02*
D03*
X0086Y0104D02*
D03*
X0128Y0057276D02*
D03*
X0122Y0084D02*
D03*
X01645Y0073024D02*
D03*
X01695Y0048376D02*
D03*
X01395Y0050976D02*
D03*
X0135681Y009D02*
D03*
X014285Y0060553D02*
D03*
X0194567Y00885D02*
D03*
X0197637Y0085D02*
D03*
X0192Y0127665D02*
D03*
X02Y0037D02*
D03*
X0049808Y0117808D02*
D03*
X0079847Y008978D02*
D03*
X0157219Y0120361D02*
D03*
X0179988D02*
D03*
X0137477D02*
D03*
X0188792Y0104654D02*
D03*
X0142Y0084711D02*
D03*
X0129Y0106D02*
D03*
X01495Y0083105D02*
D03*
X01545Y0097154D02*
D03*
X01595Y0099753D02*
D03*
X0051808Y0121808D02*
D03*
X0057169Y0140326D02*
D03*
X01975Y0058807D02*
D03*
Y0065604D02*
D03*
X0194976Y00531D02*
D03*
X01315Y015576D02*
D03*
X02065Y0037D02*
D03*
X01835Y0073024D02*
D03*
X02755Y0042D02*
D03*
X00305Y0188D02*
D03*
Y0190996D02*
D03*
X0102847Y016326D02*
D03*
X0007Y014D02*
D03*
Y0143949D02*
D03*
X004634Y02975D02*
D03*
X003766D02*
D03*
X0067Y0391059D02*
D03*
Y0383D02*
D03*
X01386Y03905D02*
D03*
Y0382D02*
D03*
X03495Y008D02*
D03*
X0330685Y0111D02*
D03*
X03285Y004305D02*
D03*
Y0058D02*
D03*
X0198091Y0150167D02*
D03*
X0198091Y0162833D02*
D03*
D159*
X027296Y032304D02*
D03*
X0275842Y033D02*
D03*
X0266Y0320158D02*
D03*
X025904Y033696D02*
D03*
X0256157Y033D02*
D03*
X0266Y0339843D02*
D03*
X025904Y032304D02*
D03*
X027296Y033696D02*
D03*
Y026204D02*
D03*
X0275842Y0269D02*
D03*
X0266Y0259157D02*
D03*
X025904Y027596D02*
D03*
X0256157Y0269D02*
D03*
X0266Y0278842D02*
D03*
X025904Y026204D02*
D03*
X027296Y027596D02*
D03*
X051196Y034054D02*
D03*
X0514843Y03475D02*
D03*
X0505Y0337657D02*
D03*
X049804Y035446D02*
D03*
X0495157Y03475D02*
D03*
X0505Y0357343D02*
D03*
X049804Y034054D02*
D03*
X051196Y035446D02*
D03*
Y024504D02*
D03*
X0514843Y0252D02*
D03*
X0505Y0242158D02*
D03*
X049804Y025896D02*
D03*
X0495157Y0252D02*
D03*
X0505Y0261842D02*
D03*
X049804Y024504D02*
D03*
X051196Y025896D02*
D03*
D160*
X0322819Y0043D02*
D03*
Y0048D02*
D03*
Y0053D02*
D03*
Y0058D02*
D03*
X0285181D02*
D03*
Y0053D02*
D03*
Y0048D02*
D03*
Y0043D02*
D03*
D161*
X01395Y0127504D02*
D03*
X01445D02*
D03*
X01495D02*
D03*
X01545D02*
D03*
X01595D02*
D03*
X01645D02*
D03*
X01695D02*
D03*
X01745D02*
D03*
X01795D02*
D03*
X01395Y0090496D02*
D03*
X01445D02*
D03*
X01495D02*
D03*
X01545D02*
D03*
X01595D02*
D03*
X01645D02*
D03*
X01695D02*
D03*
X01745D02*
D03*
X01795D02*
D03*
D162*
X0176943Y0137D02*
D03*
X0172219D02*
D03*
X0167494D02*
D03*
D163*
X0128087Y002798D02*
D03*
Y002424D02*
D03*
Y00205D02*
D03*
X0119032D02*
D03*
Y002798D02*
D03*
D164*
X0354512Y0053513D02*
D03*
X0343488D02*
D03*
D165*
X0017Y0183177D02*
D03*
Y0167823D02*
D03*
D166*
X0065831Y0165453D02*
D03*
X0018169Y0149047D02*
D03*
D167*
X0065831Y015876D02*
D03*
X0057169Y016624D02*
D03*
Y015876D02*
D03*
X0026831Y014826D02*
D03*
Y015574D02*
D03*
X0018169D02*
D03*
D168*
X0189165Y016D02*
D03*
Y0155D02*
D03*
Y015D02*
D03*
Y0145D02*
D03*
X0167709Y016D02*
D03*
Y015D02*
D03*
Y0155D02*
D03*
Y0145D02*
D03*
D169*
X00305Y0189D02*
D03*
D170*
Y0197D02*
D03*
D171*
Y02035D02*
D03*
D172*
X0031165Y02155D02*
D03*
D173*
X0331768Y005875D02*
D03*
M02*
