%TF.GenerationSoftware,Altium Limited,Altium Designer,20.0.13 (296)*%
G04 Layer_Color=32768*
%FSLAX26Y26*%
%MOIN*%
%TF.FileFunction,Other,Mechanical_7*%
%TF.Part,Single*%
G01*
G75*
%TA.AperFunction,NonConductor*%
%ADD105C,0.006000*%
%ADD108C,0.005000*%
%ADD159C,0.008000*%
%ADD188C,0.004000*%
D105*
X5548114Y3450013D02*
X5574772D01*
Y3470006D01*
X5561443D01*
X5574772D01*
Y3490000D01*
X5534785Y3450013D02*
Y3490000D01*
X5514791D01*
X5508127Y3483336D01*
Y3476671D01*
X5514791Y3470006D01*
X5534785D01*
X5514791D01*
X5508127Y3463342D01*
Y3456677D01*
X5514791Y3450013D01*
X5534785D01*
X5494797Y3490000D02*
X5481468D01*
X5488133D01*
Y3450013D01*
X5494797Y3456677D01*
X149013Y1830342D02*
Y1857000D01*
X169006D01*
Y1843671D01*
Y1857000D01*
X189000D01*
Y1790355D02*
Y1817013D01*
X162342Y1790355D01*
X155677D01*
X149013Y1797019D01*
Y1810348D01*
X155677Y1817013D01*
X1292323Y3841342D02*
X1298987Y3848006D01*
Y3861335D01*
X1292323Y3868000D01*
X1265665D01*
X1259000Y3861335D01*
Y3848006D01*
X1265665Y3841342D01*
X1259000Y3828013D02*
Y3814684D01*
Y3821348D01*
X1298987D01*
X1292323Y3828013D01*
X1259000Y3768032D02*
Y3794690D01*
X1285658Y3768032D01*
X1292323D01*
X1298987Y3774697D01*
Y3788026D01*
X1292323Y3794690D01*
X1127323Y3841342D02*
X1133987Y3848006D01*
Y3861335D01*
X1127323Y3868000D01*
X1100665D01*
X1094000Y3861335D01*
Y3848006D01*
X1100665Y3841342D01*
X1094000Y3828013D02*
Y3814684D01*
Y3821348D01*
X1133987D01*
X1127323Y3828013D01*
X1094000Y3794690D02*
Y3781361D01*
Y3788026D01*
X1133987D01*
X1127323Y3794690D01*
X962323Y3841342D02*
X968987Y3848006D01*
Y3861336D01*
X962323Y3868000D01*
X935664D01*
X929000Y3861336D01*
Y3848006D01*
X935664Y3841342D01*
X929000Y3828013D02*
Y3814684D01*
Y3821348D01*
X968987D01*
X962323Y3828013D01*
Y3794690D02*
X968987Y3788026D01*
Y3774697D01*
X962323Y3768032D01*
X935664D01*
X929000Y3774697D01*
Y3788026D01*
X935664Y3794690D01*
X962323D01*
X792323Y3841342D02*
X798987Y3848006D01*
Y3861336D01*
X792323Y3868000D01*
X765664D01*
X759000Y3861336D01*
Y3848006D01*
X765664Y3841342D01*
Y3828013D02*
X759000Y3821348D01*
Y3808019D01*
X765664Y3801355D01*
X792323D01*
X798987Y3808019D01*
Y3821348D01*
X792323Y3828013D01*
X785658D01*
X778994Y3821348D01*
Y3801355D01*
D108*
X3761996Y834299D02*
Y871701D01*
Y834299D02*
X3824996D01*
Y871701D01*
X3761996D02*
X3824996D01*
X1584961Y381299D02*
Y418701D01*
X1647961D01*
Y381299D02*
Y418701D01*
X1584961Y381299D02*
X1647961D01*
X1491500D02*
Y418701D01*
X1428500Y381299D02*
X1491500D01*
X1428500D02*
Y418701D01*
X1491500D01*
X1532760Y568500D02*
X1570162D01*
X1532760D02*
Y631500D01*
X1570162D01*
Y568500D02*
Y631500D01*
X2129965Y1916299D02*
Y1953701D01*
X2066965Y1916299D02*
X2129965D01*
X2066965D02*
Y1953701D01*
X2129965D01*
X2419602Y1301299D02*
Y1338701D01*
X2482602D01*
Y1301299D02*
Y1338701D01*
X2419602Y1301299D02*
X2482602D01*
X2471299Y1393500D02*
X2508701D01*
X2471299D02*
Y1456500D01*
X2508701D01*
Y1393500D02*
Y1456500D01*
X720728Y1328500D02*
X758130D01*
X720728D02*
Y1391500D01*
X758130D01*
Y1328500D02*
Y1391500D01*
X957465Y1381299D02*
Y1418701D01*
X894465Y1381299D02*
X957465D01*
X894465D02*
Y1418701D01*
X957465D01*
X640728Y1393000D02*
X678130D01*
Y1330000D02*
Y1393000D01*
X640728Y1330000D02*
X678130D01*
X640728D02*
Y1393000D01*
X1498500Y766299D02*
Y803701D01*
X1561500D01*
Y766299D02*
Y803701D01*
X1498500Y766299D02*
X1561500D01*
X2218500Y71299D02*
Y108701D01*
X2281500D01*
Y71299D02*
Y108701D01*
X2218500Y71299D02*
X2281500D01*
X1401299Y950035D02*
X1438701D01*
X1401299D02*
Y1013035D01*
X1438701D01*
Y950035D02*
Y1013035D01*
X1321299D02*
X1358701D01*
Y950035D02*
Y1013035D01*
X1321299Y950035D02*
X1358701D01*
X1321299D02*
Y1013035D01*
X2046299Y312130D02*
X2083701D01*
X2046299Y249130D02*
Y312130D01*
Y249130D02*
X2083701D01*
Y312130D01*
X1981299Y311500D02*
X2018701D01*
X1981299Y248500D02*
Y311500D01*
Y248500D02*
X2018701D01*
Y311500D01*
X1267091Y113701D02*
Y151102D01*
X1204091D02*
X1267091D01*
X1204091Y113701D02*
Y151102D01*
Y113701D02*
X1267091D01*
X1873976Y429375D02*
X1911378D01*
Y492375D01*
X1873976D02*
X1911378D01*
X1873976Y429375D02*
Y492375D01*
X2120039Y248500D02*
X2157441D01*
Y311500D01*
X2120039D02*
X2157441D01*
X2120039Y248500D02*
Y311500D01*
X2176929Y248500D02*
X2214331D01*
Y311500D01*
X2176929D02*
X2214331D01*
X2176929Y248500D02*
Y311500D01*
X1229965Y1453898D02*
Y1491299D01*
X1166965Y1453898D02*
X1229965D01*
X1166965D02*
Y1491299D01*
X1229965D01*
X1422870Y1516299D02*
Y1553701D01*
Y1516299D02*
X1485870D01*
Y1553701D01*
X1422870D02*
X1485870D01*
X1422870Y1586299D02*
Y1623701D01*
Y1586299D02*
X1485870D01*
Y1623701D01*
X1422870D02*
X1485870D01*
X2045870Y1576299D02*
Y1613701D01*
X1982870Y1576299D02*
X2045870D01*
X1982870D02*
Y1613701D01*
X2045870D01*
Y1506299D02*
Y1543701D01*
X1982870Y1506299D02*
X2045870D01*
X1982870D02*
Y1543701D01*
X2045870D01*
X1982870Y1636299D02*
Y1673701D01*
X2045870D01*
Y1636299D02*
Y1673701D01*
X1982870Y1636299D02*
X2045870D01*
X1982870Y1446299D02*
Y1483701D01*
X2045870D01*
Y1446299D02*
Y1483701D01*
X1982870Y1446299D02*
X2045870D01*
X3617500Y834299D02*
Y871701D01*
Y834299D02*
X3680500D01*
Y871701D01*
X3617500D02*
X3680500D01*
X3881299Y850035D02*
X3918701D01*
X3881299Y787035D02*
Y850035D01*
Y787035D02*
X3918701D01*
Y850035D01*
X1476299Y3013500D02*
X1513701D01*
Y3076500D01*
X1476299D02*
X1513701D01*
X1476299Y3013500D02*
Y3076500D01*
X639307Y1475622D02*
Y1544622D01*
Y1475622D02*
X677307D01*
Y1544622D01*
X639307D02*
X677307D01*
X1510500Y605500D02*
Y674500D01*
X1472500D02*
X1510500D01*
X1472500Y605500D02*
Y674500D01*
Y605500D02*
X1510500D01*
X1113929Y1302000D02*
Y1338000D01*
X1044929Y1302000D02*
X1113929D01*
X1044929D02*
Y1338000D01*
X1113929D01*
X801429Y1325500D02*
X837429D01*
X801429D02*
Y1394500D01*
X837429D01*
Y1325500D02*
Y1394500D01*
X730500Y722000D02*
Y758000D01*
Y722000D02*
X799500D01*
Y758000D01*
X730500D02*
X799500D01*
X730500Y792000D02*
Y828000D01*
Y792000D02*
X799500D01*
Y828000D01*
X730500D02*
X799500D01*
X513000Y718500D02*
X549000D01*
X513000Y649500D02*
Y718500D01*
Y649500D02*
X549000D01*
Y718500D01*
X37000Y671405D02*
X73000D01*
X37000D02*
Y740405D01*
X73000D01*
Y671405D02*
Y740405D01*
X2474047Y72000D02*
Y108000D01*
X2405047D02*
X2474047D01*
X2405047Y72000D02*
Y108000D01*
Y72000D02*
X2474047D01*
X1845110Y1274106D02*
X1881110D01*
X1845110Y1205106D02*
Y1274106D01*
Y1205106D02*
X1881110D01*
Y1274106D01*
X2312000Y801035D02*
X2348000D01*
Y732035D02*
Y801035D01*
X2312000Y732035D02*
X2348000D01*
X2312000D02*
Y801035D01*
Y654500D02*
X2348000D01*
Y585500D02*
Y654500D01*
X2312000Y585500D02*
X2348000D01*
X2312000D02*
Y654500D01*
X1477000Y947035D02*
X1513000D01*
X1477000D02*
Y1016035D01*
X1513000D01*
Y947035D02*
Y1016035D01*
X1982000Y585500D02*
X2018000D01*
Y654500D01*
X1982000D02*
X2018000D01*
X1982000Y585500D02*
Y654500D01*
X1760000Y605500D02*
X1796000D01*
X1760000D02*
Y674500D01*
X1796000D01*
Y605500D02*
Y674500D01*
X1680000Y605500D02*
X1716000D01*
X1680000D02*
Y674500D01*
X1716000D01*
Y605500D02*
Y674500D01*
X1595000Y605500D02*
X1631000D01*
X1595000D02*
Y674500D01*
X1631000D01*
Y605500D02*
Y674500D01*
X1440465Y1598099D02*
X1476465D01*
X1440465D02*
Y1667099D01*
X1476465D01*
Y1598099D02*
Y1667099D01*
X602035Y1872000D02*
Y1908000D01*
X671035D01*
Y1872000D02*
Y1908000D01*
X602035Y1872000D02*
X671035D01*
X1556370Y1408689D02*
X1592370D01*
Y1477689D01*
X1556370D02*
X1592370D01*
X1556370Y1408689D02*
Y1477689D01*
X1566370Y1542567D02*
X1602370D01*
Y1611567D01*
X1566370D02*
X1602370D01*
X1566370Y1542567D02*
Y1611567D01*
X3319213Y525630D02*
Y604370D01*
X3370787D01*
Y525630D02*
Y604370D01*
X3319213Y525630D02*
X3370787D01*
X2854500Y1122000D02*
Y1158000D01*
X2785500D02*
X2854500D01*
X2785500Y1122000D02*
Y1158000D01*
Y1122000D02*
X2854500D01*
X3235500Y1152000D02*
Y1188000D01*
Y1152000D02*
X3304500D01*
Y1188000D01*
X3235500D02*
X3304500D01*
X3462630Y627638D02*
X3541370D01*
X3462630D02*
Y679213D01*
X3541370D01*
Y627638D02*
Y679213D01*
X2737000Y534500D02*
X2773000D01*
Y465500D02*
Y534500D01*
X2737000Y465500D02*
X2773000D01*
X2737000D02*
Y534500D01*
X3317000Y499500D02*
X3353000D01*
Y430500D02*
Y499500D01*
X3317000Y430500D02*
X3353000D01*
X3317000D02*
Y499500D01*
X3715496Y868000D02*
Y838010D01*
X3730491D01*
X3735490Y843008D01*
Y853005D01*
X3730491Y858003D01*
X3715496D01*
X3725493D02*
X3735490Y868000D01*
X3745486Y843008D02*
X3750485Y838010D01*
X3760481D01*
X3765480Y843008D01*
Y848006D01*
X3760481Y853005D01*
X3765480Y858003D01*
Y863002D01*
X3760481Y868000D01*
X3750485D01*
X3745486Y863002D01*
Y858003D01*
X3750485Y853005D01*
X3745486Y848006D01*
Y843008D01*
X3750485Y853005D02*
X3760481D01*
X1538461Y385000D02*
Y414990D01*
X1553456D01*
X1558454Y409992D01*
Y399995D01*
X1553456Y394997D01*
X1538461D01*
X1548458D02*
X1558454Y385000D01*
X1568451Y409992D02*
X1573449Y414990D01*
X1583446D01*
X1588445Y409992D01*
Y404993D01*
X1583446Y399995D01*
X1578448D01*
X1583446D01*
X1588445Y394997D01*
Y389998D01*
X1583446Y385000D01*
X1573449D01*
X1568451Y389998D01*
X1598441D02*
X1603440Y385000D01*
X1613437D01*
X1618435Y389998D01*
Y409992D01*
X1613437Y414990D01*
X1603440D01*
X1598441Y409992D01*
Y404993D01*
X1603440Y399995D01*
X1618435D01*
X1538000Y415000D02*
Y385010D01*
X1523005D01*
X1518006Y390008D01*
Y400005D01*
X1523005Y405003D01*
X1538000D01*
X1528003D02*
X1518006Y415000D01*
X1508010Y390008D02*
X1503011Y385010D01*
X1493014D01*
X1488016Y390008D01*
Y395007D01*
X1493014Y400005D01*
X1498013D01*
X1493014D01*
X1488016Y405003D01*
Y410002D01*
X1493014Y415000D01*
X1503011D01*
X1508010Y410002D01*
X1478019Y390008D02*
X1473021Y385010D01*
X1463024D01*
X1458026Y390008D01*
Y395007D01*
X1463024Y400005D01*
X1458026Y405003D01*
Y410002D01*
X1463024Y415000D01*
X1473021D01*
X1478019Y410002D01*
Y405003D01*
X1473021Y400005D01*
X1478019Y395007D01*
Y390008D01*
X1473021Y400005D02*
X1463024D01*
X1566461Y522000D02*
X1536470D01*
Y536995D01*
X1541469Y541994D01*
X1551466D01*
X1556464Y536995D01*
Y522000D01*
Y531997D02*
X1566461Y541994D01*
X1541469Y551990D02*
X1536470Y556989D01*
Y566986D01*
X1541469Y571984D01*
X1546467D01*
X1551466Y566986D01*
Y561987D01*
Y566986D01*
X1556464Y571984D01*
X1561462D01*
X1566461Y566986D01*
Y556989D01*
X1561462Y551990D01*
X1536470Y581981D02*
Y601974D01*
X1541469D01*
X1561462Y581981D01*
X1566461D01*
X2176465Y1950000D02*
Y1920010D01*
X2161469D01*
X2156471Y1925008D01*
Y1935005D01*
X2161469Y1940003D01*
X2176465D01*
X2166468D02*
X2156471Y1950000D01*
X2146474Y1925008D02*
X2141476Y1920010D01*
X2131479D01*
X2126481Y1925008D01*
Y1930006D01*
X2131479Y1935005D01*
X2136477D01*
X2131479D01*
X2126481Y1940003D01*
Y1945002D01*
X2131479Y1950000D01*
X2141476D01*
X2146474Y1945002D01*
X2096490Y1920010D02*
X2116484D01*
Y1935005D01*
X2106487Y1930006D01*
X2101489D01*
X2096490Y1935005D01*
Y1945002D01*
X2101489Y1950000D01*
X2111486D01*
X2116484Y1945002D01*
X2373102Y1305000D02*
Y1334990D01*
X2388097D01*
X2393096Y1329992D01*
Y1319995D01*
X2388097Y1314997D01*
X2373102D01*
X2383099D02*
X2393096Y1305000D01*
X2403093Y1329992D02*
X2408091Y1334990D01*
X2418088D01*
X2423086Y1329992D01*
Y1324994D01*
X2418088Y1319995D01*
X2413089D01*
X2418088D01*
X2423086Y1314997D01*
Y1309998D01*
X2418088Y1305000D01*
X2408091D01*
X2403093Y1309998D01*
X2453076Y1334990D02*
X2443080Y1329992D01*
X2433083Y1319995D01*
Y1309998D01*
X2438081Y1305000D01*
X2448078D01*
X2453076Y1309998D01*
Y1314997D01*
X2448078Y1319995D01*
X2433083D01*
X2505000Y1347000D02*
X2475010D01*
Y1361995D01*
X2480008Y1366994D01*
X2490005D01*
X2495003Y1361995D01*
Y1347000D01*
Y1356997D02*
X2505000Y1366994D01*
X2480008Y1376990D02*
X2475010Y1381989D01*
Y1391986D01*
X2480008Y1396984D01*
X2485006D01*
X2490005Y1391986D01*
Y1386987D01*
Y1391986D01*
X2495003Y1396984D01*
X2500002D01*
X2505000Y1391986D01*
Y1381989D01*
X2500002Y1376990D01*
X2505000Y1421976D02*
X2475010D01*
X2490005Y1406981D01*
Y1426974D01*
X754429Y1282000D02*
X724439D01*
Y1296995D01*
X729437Y1301994D01*
X739434D01*
X744432Y1296995D01*
Y1282000D01*
Y1291997D02*
X754429Y1301994D01*
X729437Y1311990D02*
X724439Y1316989D01*
Y1326986D01*
X729437Y1331984D01*
X734436D01*
X739434Y1326986D01*
Y1321987D01*
Y1326986D01*
X744432Y1331984D01*
X749431D01*
X754429Y1326986D01*
Y1316989D01*
X749431Y1311990D01*
X729437Y1341981D02*
X724439Y1346979D01*
Y1356976D01*
X729437Y1361974D01*
X734436D01*
X739434Y1356976D01*
Y1351977D01*
Y1356976D01*
X744432Y1361974D01*
X749431D01*
X754429Y1356976D01*
Y1346979D01*
X749431Y1341981D01*
X1003965Y1415000D02*
Y1385010D01*
X988969D01*
X983971Y1390008D01*
Y1400005D01*
X988969Y1405003D01*
X1003965D01*
X993968D02*
X983971Y1415000D01*
X973974Y1390008D02*
X968976Y1385010D01*
X958979D01*
X953981Y1390008D01*
Y1395006D01*
X958979Y1400005D01*
X963977D01*
X958979D01*
X953981Y1405003D01*
Y1410002D01*
X958979Y1415000D01*
X968976D01*
X973974Y1410002D01*
X923990Y1415000D02*
X943984D01*
X923990Y1395006D01*
Y1390008D01*
X928989Y1385010D01*
X938986D01*
X943984Y1390008D01*
X644429Y1439500D02*
X674419D01*
Y1424505D01*
X669421Y1419506D01*
X659424D01*
X654426Y1424505D01*
Y1439500D01*
Y1429503D02*
X644429Y1419506D01*
X669421Y1409510D02*
X674419Y1404511D01*
Y1394514D01*
X669421Y1389516D01*
X664423D01*
X659424Y1394514D01*
Y1399513D01*
Y1394514D01*
X654426Y1389516D01*
X649428D01*
X644429Y1394514D01*
Y1404511D01*
X649428Y1409510D01*
X644429Y1379519D02*
Y1369523D01*
Y1374521D01*
X674419D01*
X669421Y1379519D01*
X288000Y450000D02*
Y479990D01*
X302995D01*
X307993Y474992D01*
Y464995D01*
X302995Y459997D01*
X288000D01*
X297997D02*
X307993Y450000D01*
X317990Y474992D02*
X322989Y479990D01*
X332986D01*
X337984Y474992D01*
Y469993D01*
X332986Y464995D01*
X327987D01*
X332986D01*
X337984Y459997D01*
Y454998D01*
X332986Y450000D01*
X322989D01*
X317990Y454998D01*
X347981Y474992D02*
X352979Y479990D01*
X362976D01*
X367974Y474992D01*
Y454998D01*
X362976Y450000D01*
X352979D01*
X347981Y454998D01*
Y474992D01*
X1452000Y770000D02*
Y799990D01*
X1466995D01*
X1471994Y794992D01*
Y784995D01*
X1466995Y779997D01*
X1452000D01*
X1461997D02*
X1471994Y770000D01*
X1501984D02*
X1481990D01*
X1501984Y789994D01*
Y794992D01*
X1496986Y799990D01*
X1486989D01*
X1481990Y794992D01*
X1511981Y774998D02*
X1516979Y770000D01*
X1526976D01*
X1531974Y774998D01*
Y794992D01*
X1526976Y799990D01*
X1516979D01*
X1511981Y794992D01*
Y789994D01*
X1516979Y784995D01*
X1531974D01*
X2172000Y75000D02*
Y104990D01*
X2186995D01*
X2191994Y99992D01*
Y89995D01*
X2186995Y84997D01*
X2172000D01*
X2181997D02*
X2191994Y75000D01*
X2221984D02*
X2201990D01*
X2221984Y94993D01*
Y99992D01*
X2216985Y104990D01*
X2206989D01*
X2201990Y99992D01*
X2231981D02*
X2236979Y104990D01*
X2246976D01*
X2251974Y99992D01*
Y94993D01*
X2246976Y89995D01*
X2251974Y84997D01*
Y79998D01*
X2246976Y75000D01*
X2236979D01*
X2231981Y79998D01*
Y84997D01*
X2236979Y89995D01*
X2231981Y94993D01*
Y99992D01*
X2236979Y89995D02*
X2246976D01*
X1435000Y903535D02*
X1405010D01*
Y918531D01*
X1410008Y923529D01*
X1420005D01*
X1425003Y918531D01*
Y903535D01*
Y913532D02*
X1435000Y923529D01*
Y953519D02*
Y933526D01*
X1415006Y953519D01*
X1410008D01*
X1405010Y948521D01*
Y938524D01*
X1410008Y933526D01*
X1405010Y963516D02*
Y983510D01*
X1410008D01*
X1430002Y963516D01*
X1435000D01*
X1325000Y1059535D02*
X1354990D01*
Y1044540D01*
X1349992Y1039542D01*
X1339995D01*
X1334997Y1044540D01*
Y1059535D01*
Y1049539D02*
X1325000Y1039542D01*
Y1009552D02*
Y1029545D01*
X1344994Y1009552D01*
X1349992D01*
X1354990Y1014550D01*
Y1024547D01*
X1349992Y1029545D01*
X1354990Y979561D02*
X1349992Y989558D01*
X1339995Y999555D01*
X1329998D01*
X1325000Y994556D01*
Y984560D01*
X1329998Y979561D01*
X1334997D01*
X1339995Y984560D01*
Y999555D01*
X2080000Y358630D02*
X2050010D01*
Y343635D01*
X2055008Y338636D01*
X2065005D01*
X2070003Y343635D01*
Y358630D01*
Y348633D02*
X2080000Y338636D01*
Y308646D02*
Y328640D01*
X2060006Y308646D01*
X2055008D01*
X2050010Y313644D01*
Y323641D01*
X2055008Y328640D01*
X2050010Y278656D02*
Y298649D01*
X2065005D01*
X2060006Y288652D01*
Y283654D01*
X2065005Y278656D01*
X2075002D01*
X2080000Y283654D01*
Y293651D01*
X2075002Y298649D01*
X2015000Y358000D02*
X1985010D01*
Y343005D01*
X1990008Y338007D01*
X2000005D01*
X2005003Y343005D01*
Y358000D01*
Y348003D02*
X2015000Y338007D01*
Y308016D02*
Y328010D01*
X1995006Y308016D01*
X1990008D01*
X1985010Y313014D01*
Y323011D01*
X1990008Y328010D01*
X2015000Y283024D02*
X1985010D01*
X2000005Y298019D01*
Y278026D01*
X1313591Y117401D02*
Y147392D01*
X1298595D01*
X1293597Y142393D01*
Y132397D01*
X1298595Y127398D01*
X1313591D01*
X1303594D02*
X1293597Y117401D01*
X1263607D02*
X1283600D01*
X1263607Y137395D01*
Y142393D01*
X1268605Y147392D01*
X1278602D01*
X1283600Y142393D01*
X1253610D02*
X1248612Y147392D01*
X1238615D01*
X1233617Y142393D01*
Y137395D01*
X1238615Y132397D01*
X1243613D01*
X1238615D01*
X1233617Y127398D01*
Y122400D01*
X1238615Y117401D01*
X1248612D01*
X1253610Y122400D01*
X1877677Y382875D02*
X1907667D01*
Y397871D01*
X1902669Y402869D01*
X1892672D01*
X1887674Y397871D01*
Y382875D01*
Y392872D02*
X1877677Y402869D01*
Y432859D02*
Y412866D01*
X1897671Y432859D01*
X1902669D01*
X1907667Y427861D01*
Y417864D01*
X1902669Y412866D01*
X1877677Y462849D02*
Y442856D01*
X1897671Y462849D01*
X1902669D01*
X1907667Y457851D01*
Y447854D01*
X1902669Y442856D01*
X2123740Y202000D02*
X2153730D01*
Y216995D01*
X2148732Y221994D01*
X2138735D01*
X2133737Y216995D01*
Y202000D01*
Y211997D02*
X2123740Y221994D01*
Y251984D02*
Y231990D01*
X2143734Y251984D01*
X2148732D01*
X2153730Y246986D01*
Y236989D01*
X2148732Y231990D01*
X2123740Y261981D02*
Y271977D01*
Y266979D01*
X2153730D01*
X2148732Y261981D01*
X2180630Y202000D02*
X2210620D01*
Y216995D01*
X2205622Y221994D01*
X2195625D01*
X2190627Y216995D01*
Y202000D01*
Y211997D02*
X2180630Y221994D01*
Y251984D02*
Y231990D01*
X2200623Y251984D01*
X2205622D01*
X2210620Y246986D01*
Y236989D01*
X2205622Y231990D01*
Y261981D02*
X2210620Y266979D01*
Y276976D01*
X2205622Y281974D01*
X2185628D01*
X2180630Y276976D01*
Y266979D01*
X2185628Y261981D01*
X2205622D01*
X1276465Y1487599D02*
Y1457608D01*
X1261469D01*
X1256471Y1462607D01*
Y1472603D01*
X1261469Y1477602D01*
X1276465D01*
X1266468D02*
X1256471Y1487599D01*
X1246474D02*
X1236477D01*
X1241476D01*
Y1457608D01*
X1246474Y1462607D01*
X1221482Y1482600D02*
X1216484Y1487599D01*
X1206487D01*
X1201489Y1482600D01*
Y1462607D01*
X1206487Y1457608D01*
X1216484D01*
X1221482Y1462607D01*
Y1467605D01*
X1216484Y1472603D01*
X1201489D01*
X763465Y1780599D02*
X733474D01*
Y1795594D01*
X738473Y1800592D01*
X748469D01*
X753468Y1795594D01*
Y1780599D01*
Y1790595D02*
X763465Y1800592D01*
Y1810589D02*
Y1820586D01*
Y1815587D01*
X733474D01*
X738473Y1810589D01*
Y1835581D02*
X733474Y1840579D01*
Y1850576D01*
X738473Y1855574D01*
X743471D01*
X748469Y1850576D01*
X753468Y1855574D01*
X758466D01*
X763465Y1850576D01*
Y1840579D01*
X758466Y1835581D01*
X753468D01*
X748469Y1840579D01*
X743471Y1835581D01*
X738473D01*
X748469Y1840579D02*
Y1850576D01*
X843465Y1924599D02*
X873455D01*
Y1909603D01*
X868457Y1904605D01*
X858460D01*
X853461Y1909603D01*
Y1924599D01*
Y1914602D02*
X843465Y1904605D01*
Y1894608D02*
Y1884611D01*
Y1889610D01*
X873455D01*
X868457Y1894608D01*
X873455Y1869616D02*
Y1849623D01*
X868457D01*
X848463Y1869616D01*
X843465D01*
X1376370Y1550000D02*
Y1520010D01*
X1391365D01*
X1396363Y1525008D01*
Y1535005D01*
X1391365Y1540003D01*
X1376370D01*
X1386367D02*
X1396363Y1550000D01*
X1406360D02*
X1416357D01*
X1411359D01*
Y1520010D01*
X1406360Y1525008D01*
X1451346Y1520010D02*
X1441349Y1525008D01*
X1431352Y1535005D01*
Y1545002D01*
X1436351Y1550000D01*
X1446347D01*
X1451346Y1545002D01*
Y1540003D01*
X1446347Y1535005D01*
X1431352D01*
X1376370Y1620000D02*
Y1590010D01*
X1391365D01*
X1396363Y1595008D01*
Y1605005D01*
X1391365Y1610003D01*
X1376370D01*
X1386367D02*
X1396363Y1620000D01*
X1406360D02*
X1416357D01*
X1411359D01*
Y1590010D01*
X1406360Y1595008D01*
X1446347Y1620000D02*
Y1590010D01*
X1431352Y1605005D01*
X1451346D01*
X2092370Y1610000D02*
Y1580010D01*
X2077375D01*
X2072376Y1585008D01*
Y1595005D01*
X2077375Y1600003D01*
X2092370D01*
X2082373D02*
X2072376Y1610000D01*
X2062380D02*
X2052383D01*
X2057381D01*
Y1580010D01*
X2062380Y1585008D01*
X2037388D02*
X2032389Y1580010D01*
X2022393D01*
X2017394Y1585008D01*
Y1590006D01*
X2022393Y1595005D01*
X2027391D01*
X2022393D01*
X2017394Y1600003D01*
Y1605002D01*
X2022393Y1610000D01*
X2032389D01*
X2037388Y1605002D01*
X2092370Y1540000D02*
Y1510010D01*
X2077375D01*
X2072376Y1515008D01*
Y1525005D01*
X2077375Y1530003D01*
X2092370D01*
X2082373D02*
X2072376Y1540000D01*
X2062380D02*
X2052383D01*
X2057381D01*
Y1510010D01*
X2062380Y1515008D01*
X2017394Y1540000D02*
X2037388D01*
X2017394Y1520006D01*
Y1515008D01*
X2022393Y1510010D01*
X2032389D01*
X2037388Y1515008D01*
X1936370Y1640000D02*
Y1669990D01*
X1951365D01*
X1956363Y1664992D01*
Y1654995D01*
X1951365Y1649997D01*
X1936370D01*
X1946367D02*
X1956363Y1640000D01*
X1966360D02*
X1976357D01*
X1971359D01*
Y1669990D01*
X1966360Y1664992D01*
X1991352Y1640000D02*
X2001349D01*
X1996351D01*
Y1669990D01*
X1991352Y1664992D01*
X1936370Y1450000D02*
Y1479990D01*
X1951365D01*
X1956363Y1474992D01*
Y1464995D01*
X1951365Y1459997D01*
X1936370D01*
X1946367D02*
X1956363Y1450000D01*
X1966360D02*
X1976357D01*
X1971359D01*
Y1479990D01*
X1966360Y1474992D01*
X1991352D02*
X1996351Y1479990D01*
X2006347D01*
X2011346Y1474992D01*
Y1454998D01*
X2006347Y1450000D01*
X1996351D01*
X1991352Y1454998D01*
Y1474992D01*
X3571000Y868000D02*
Y838010D01*
X3585995D01*
X3590994Y843008D01*
Y853005D01*
X3585995Y858003D01*
X3571000D01*
X3580997D02*
X3590994Y868000D01*
X3600990Y863002D02*
X3605989Y868000D01*
X3615985D01*
X3620984Y863002D01*
Y843008D01*
X3615985Y838010D01*
X3605989D01*
X3600990Y843008D01*
Y848006D01*
X3605989Y853005D01*
X3620984D01*
X3915000Y896535D02*
X3885010D01*
Y881540D01*
X3890008Y876542D01*
X3900005D01*
X3905003Y881540D01*
Y896535D01*
Y886539D02*
X3915000Y876542D01*
X3885010Y866545D02*
Y846552D01*
X3890008D01*
X3910002Y866545D01*
X3915000D01*
X3475000Y562130D02*
X3504990D01*
Y547135D01*
X3499992Y542136D01*
X3489995D01*
X3484997Y547135D01*
Y562130D01*
Y552133D02*
X3475000Y542136D01*
X3504990Y512146D02*
X3499992Y522143D01*
X3489995Y532140D01*
X3479998D01*
X3475000Y527141D01*
Y517144D01*
X3479998Y512146D01*
X3484997D01*
X3489995Y517144D01*
Y532140D01*
X1480000Y2967000D02*
X1509990D01*
Y2981995D01*
X1504992Y2986994D01*
X1494995D01*
X1489997Y2981995D01*
Y2967000D01*
Y2976997D02*
X1480000Y2986994D01*
Y3016984D02*
Y2996990D01*
X1499994Y3016984D01*
X1504992D01*
X1509990Y3011985D01*
Y3001989D01*
X1504992Y2996990D01*
X673297Y1568129D02*
Y1588122D01*
X658302D01*
Y1578125D01*
Y1588122D01*
X643307D01*
X673297Y1558132D02*
X643307D01*
Y1543137D01*
X648306Y1538138D01*
X653304D01*
X658302Y1543137D01*
Y1558132D01*
Y1543137D01*
X663301Y1538138D01*
X668299D01*
X673297Y1543137D01*
Y1558132D01*
Y1508148D02*
Y1528141D01*
X658302D01*
X663301Y1518145D01*
Y1513146D01*
X658302Y1508148D01*
X648306D01*
X643307Y1513146D01*
Y1523143D01*
X648306Y1528141D01*
X1476510Y581994D02*
Y562000D01*
X1491505D01*
Y571997D01*
Y562000D01*
X1506500D01*
X1476510Y591990D02*
X1506500D01*
Y606986D01*
X1501502Y611984D01*
X1496503D01*
X1491505Y606986D01*
Y591990D01*
Y606986D01*
X1486506Y611984D01*
X1481508D01*
X1476510Y606986D01*
Y591990D01*
X1481508Y621981D02*
X1476510Y626979D01*
Y636976D01*
X1481508Y641974D01*
X1486506D01*
X1491505Y636976D01*
Y631977D01*
Y636976D01*
X1496503Y641974D01*
X1501502D01*
X1506500Y636976D01*
Y626979D01*
X1501502Y621981D01*
X3434994Y520140D02*
X3415000D01*
Y535135D01*
X3424997D01*
X3415000D01*
Y550130D01*
X3444990Y520140D02*
Y550130D01*
X3459985D01*
X3464984Y545131D01*
Y540133D01*
X3459985Y535135D01*
X3444990D01*
X3459985D01*
X3464984Y530136D01*
Y525138D01*
X3459985Y520140D01*
X3444990D01*
X3494974Y550130D02*
X3474981D01*
X3494974Y530136D01*
Y525138D01*
X3489976Y520140D01*
X3479979D01*
X3474981Y525138D01*
X1137436Y1310008D02*
X1142434Y1305010D01*
X1152431D01*
X1157429Y1310008D01*
Y1330002D01*
X1152431Y1335000D01*
X1142434D01*
X1137436Y1330002D01*
X1112444Y1335000D02*
Y1305010D01*
X1127439Y1320005D01*
X1107445D01*
X1097448Y1310008D02*
X1092450Y1305010D01*
X1082453D01*
X1077455Y1310008D01*
Y1315006D01*
X1082453Y1320005D01*
X1087452D01*
X1082453D01*
X1077455Y1325003D01*
Y1330002D01*
X1082453Y1335000D01*
X1092450D01*
X1097448Y1330002D01*
X809437Y1301994D02*
X804439Y1296995D01*
Y1286998D01*
X809437Y1282000D01*
X829431D01*
X834429Y1286998D01*
Y1296995D01*
X829431Y1301994D01*
X834429Y1326986D02*
X804439D01*
X819434Y1311990D01*
Y1331984D01*
X834429Y1361974D02*
Y1341981D01*
X814436Y1361974D01*
X809437D01*
X804439Y1356976D01*
Y1346979D01*
X809437Y1341981D01*
X706994Y730008D02*
X701995Y725010D01*
X691998D01*
X687000Y730008D01*
Y750002D01*
X691998Y755000D01*
X701995D01*
X706994Y750002D01*
X731986Y755000D02*
Y725010D01*
X716990Y740005D01*
X736984D01*
X746981Y755000D02*
X756977D01*
X751979D01*
Y725010D01*
X746981Y730008D01*
X706994Y800008D02*
X701995Y795010D01*
X691998D01*
X687000Y800008D01*
Y820002D01*
X691998Y825000D01*
X701995D01*
X706994Y820002D01*
X731986Y825000D02*
Y795010D01*
X716990Y810005D01*
X736984D01*
X746981Y800008D02*
X751979Y795010D01*
X761976D01*
X766974Y800008D01*
Y820002D01*
X761976Y825000D01*
X751979D01*
X746981Y820002D01*
Y800008D01*
X521008Y742006D02*
X516010Y747005D01*
Y757002D01*
X521008Y762000D01*
X541002D01*
X546000Y757002D01*
Y747005D01*
X541002Y742006D01*
X521008Y732010D02*
X516010Y727011D01*
Y717014D01*
X521008Y712016D01*
X526006D01*
X531005Y717014D01*
Y722013D01*
Y717014D01*
X536003Y712016D01*
X541002D01*
X546000Y717014D01*
Y727011D01*
X541002Y732010D01*
Y702019D02*
X546000Y697021D01*
Y687024D01*
X541002Y682026D01*
X521008D01*
X516010Y687024D01*
Y697021D01*
X521008Y702019D01*
X526006D01*
X531005Y697021D01*
Y682026D01*
X45008Y647899D02*
X40010Y642901D01*
Y632904D01*
X45008Y627905D01*
X65002D01*
X70000Y632904D01*
Y642901D01*
X65002Y647899D01*
X45008Y657896D02*
X40010Y662894D01*
Y672891D01*
X45008Y677889D01*
X50007D01*
X55005Y672891D01*
Y667893D01*
Y672891D01*
X60003Y677889D01*
X65002D01*
X70000Y672891D01*
Y662894D01*
X65002Y657896D01*
X45008Y687886D02*
X40010Y692885D01*
Y702881D01*
X45008Y707880D01*
X50007D01*
X55005Y702881D01*
X60003Y707880D01*
X65002D01*
X70000Y702881D01*
Y692885D01*
X65002Y687886D01*
X60003D01*
X55005Y692885D01*
X50007Y687886D01*
X45008D01*
X55005Y692885D02*
Y702881D01*
X2497554Y99992D02*
X2502552Y104990D01*
X2512549D01*
X2517547Y99992D01*
Y79998D01*
X2512549Y75000D01*
X2502552D01*
X2497554Y79998D01*
X2487557Y99992D02*
X2482559Y104990D01*
X2472562D01*
X2467564Y99992D01*
Y94993D01*
X2472562Y89995D01*
X2477560D01*
X2472562D01*
X2467564Y84997D01*
Y79998D01*
X2472562Y75000D01*
X2482559D01*
X2487557Y79998D01*
X2437573Y104990D02*
X2457567D01*
Y89995D01*
X2447570Y94993D01*
X2442572D01*
X2437573Y89995D01*
Y79998D01*
X2442572Y75000D01*
X2452568D01*
X2457567Y79998D01*
X1853118Y1297613D02*
X1848120Y1302611D01*
Y1312608D01*
X1853118Y1317606D01*
X1873112D01*
X1878110Y1312608D01*
Y1302611D01*
X1873112Y1297613D01*
X1853118Y1287616D02*
X1848120Y1282618D01*
Y1272621D01*
X1853118Y1267622D01*
X1858117D01*
X1863115Y1272621D01*
Y1277619D01*
Y1272621D01*
X1868113Y1267622D01*
X1873112D01*
X1878110Y1272621D01*
Y1282618D01*
X1873112Y1287616D01*
X1878110Y1242630D02*
X1848120D01*
X1863115Y1257626D01*
Y1237632D01*
X2339992Y824542D02*
X2344990Y829540D01*
Y839537D01*
X2339992Y844535D01*
X2319998D01*
X2315000Y839537D01*
Y829540D01*
X2319998Y824542D01*
X2339992Y814545D02*
X2344990Y809547D01*
Y799550D01*
X2339992Y794552D01*
X2334994D01*
X2329995Y799550D01*
Y804548D01*
Y799550D01*
X2324997Y794552D01*
X2319998D01*
X2315000Y799550D01*
Y809547D01*
X2319998Y814545D01*
X2339992Y784555D02*
X2344990Y779557D01*
Y769560D01*
X2339992Y764561D01*
X2334994D01*
X2329995Y769560D01*
Y774558D01*
Y769560D01*
X2324997Y764561D01*
X2319998D01*
X2315000Y769560D01*
Y779557D01*
X2319998Y784555D01*
X2339992Y678006D02*
X2344990Y683005D01*
Y693002D01*
X2339992Y698000D01*
X2319998D01*
X2315000Y693002D01*
Y683005D01*
X2319998Y678006D01*
X2339992Y668010D02*
X2344990Y663011D01*
Y653014D01*
X2339992Y648016D01*
X2334994D01*
X2329995Y653014D01*
Y658013D01*
Y653014D01*
X2324997Y648016D01*
X2319998D01*
X2315000Y653014D01*
Y663011D01*
X2319998Y668010D01*
X2315000Y618026D02*
Y638019D01*
X2334994Y618026D01*
X2339992D01*
X2344990Y623024D01*
Y633021D01*
X2339992Y638019D01*
X1485008Y923529D02*
X1480010Y918531D01*
Y908534D01*
X1485008Y903535D01*
X1505002D01*
X1510000Y908534D01*
Y918531D01*
X1505002Y923529D01*
X1485008Y933526D02*
X1480010Y938524D01*
Y948521D01*
X1485008Y953519D01*
X1490006D01*
X1495005Y948521D01*
Y943523D01*
Y948521D01*
X1500003Y953519D01*
X1505002D01*
X1510000Y948521D01*
Y938524D01*
X1505002Y933526D01*
X1510000Y963516D02*
Y973513D01*
Y968514D01*
X1480010D01*
X1485008Y963516D01*
X2009992Y561994D02*
X2014990Y556995D01*
Y546998D01*
X2009992Y542000D01*
X1989998D01*
X1985000Y546998D01*
Y556995D01*
X1989998Y561994D01*
X2009992Y571990D02*
X2014990Y576989D01*
Y586986D01*
X2009992Y591984D01*
X2004994D01*
X1999995Y586986D01*
Y581987D01*
Y586986D01*
X1994997Y591984D01*
X1989998D01*
X1985000Y586986D01*
Y576989D01*
X1989998Y571990D01*
X2009992Y601981D02*
X2014990Y606979D01*
Y616976D01*
X2009992Y621974D01*
X1989998D01*
X1985000Y616976D01*
Y606979D01*
X1989998Y601981D01*
X2009992D01*
X1768008Y581994D02*
X1763010Y576995D01*
Y566998D01*
X1768008Y562000D01*
X1788002D01*
X1793000Y566998D01*
Y576995D01*
X1788002Y581994D01*
X1793000Y611984D02*
Y591990D01*
X1773006Y611984D01*
X1768008D01*
X1763010Y606986D01*
Y596989D01*
X1768008Y591990D01*
X1788002Y621981D02*
X1793000Y626979D01*
Y636976D01*
X1788002Y641974D01*
X1768008D01*
X1763010Y636976D01*
Y626979D01*
X1768008Y621981D01*
X1773006D01*
X1778005Y626979D01*
Y641974D01*
X1688008Y581994D02*
X1683010Y576995D01*
Y566998D01*
X1688008Y562000D01*
X1708002D01*
X1713000Y566998D01*
Y576995D01*
X1708002Y581994D01*
X1713000Y611984D02*
Y591990D01*
X1693006Y611984D01*
X1688008D01*
X1683010Y606986D01*
Y596989D01*
X1688008Y591990D01*
Y621981D02*
X1683010Y626979D01*
Y636976D01*
X1688008Y641974D01*
X1693006D01*
X1698005Y636976D01*
X1703003Y641974D01*
X1708002D01*
X1713000Y636976D01*
Y626979D01*
X1708002Y621981D01*
X1703003D01*
X1698005Y626979D01*
X1693006Y621981D01*
X1688008D01*
X1698005Y626979D02*
Y636976D01*
X1603008Y581994D02*
X1598010Y576995D01*
Y566998D01*
X1603008Y562000D01*
X1623002D01*
X1628000Y566998D01*
Y576995D01*
X1623002Y581994D01*
X1628000Y611984D02*
Y591990D01*
X1608006Y611984D01*
X1603008D01*
X1598010Y606986D01*
Y596989D01*
X1603008Y591990D01*
X1598010Y621981D02*
Y641974D01*
X1603008D01*
X1623002Y621981D01*
X1628000D01*
X1448473Y1574592D02*
X1443474Y1569594D01*
Y1559597D01*
X1448473Y1554599D01*
X1468466D01*
X1473465Y1559597D01*
Y1569594D01*
X1468466Y1574592D01*
X1473465Y1604582D02*
Y1584589D01*
X1453471Y1604582D01*
X1448473D01*
X1443474Y1599584D01*
Y1589587D01*
X1448473Y1584589D01*
X1443474Y1634573D02*
X1448473Y1624576D01*
X1458469Y1614579D01*
X1468466D01*
X1473465Y1619578D01*
Y1629574D01*
X1468466Y1634573D01*
X1463468D01*
X1458469Y1629574D01*
Y1614579D01*
X578529Y1899992D02*
X573531Y1904990D01*
X563534D01*
X558535Y1899992D01*
Y1879998D01*
X563534Y1875000D01*
X573531D01*
X578529Y1879998D01*
X608519Y1875000D02*
X588526D01*
X608519Y1894994D01*
Y1899992D01*
X603521Y1904990D01*
X593524D01*
X588526Y1899992D01*
X638510Y1904990D02*
X618516D01*
Y1889995D01*
X628513Y1894994D01*
X633511D01*
X638510Y1889995D01*
Y1879998D01*
X633511Y1875000D01*
X623514D01*
X618516Y1879998D01*
X1584362Y1385182D02*
X1589360Y1380184D01*
Y1370187D01*
X1584362Y1365189D01*
X1564368D01*
X1559370Y1370187D01*
Y1380184D01*
X1564368Y1385182D01*
X1559370Y1415173D02*
Y1395179D01*
X1579363Y1415173D01*
X1584362D01*
X1589360Y1410175D01*
Y1400178D01*
X1584362Y1395179D01*
X1559370Y1440165D02*
X1589360D01*
X1574365Y1425170D01*
Y1445163D01*
X1594362Y1519061D02*
X1599360Y1514062D01*
Y1504065D01*
X1594362Y1499067D01*
X1574368D01*
X1569370Y1504065D01*
Y1514062D01*
X1574368Y1519061D01*
X1569370Y1549051D02*
Y1529057D01*
X1589363Y1549051D01*
X1594362D01*
X1599360Y1544053D01*
Y1534056D01*
X1594362Y1529057D01*
Y1559048D02*
X1599360Y1564046D01*
Y1574043D01*
X1594362Y1579041D01*
X1589363D01*
X1584365Y1574043D01*
Y1569044D01*
Y1574043D01*
X1579367Y1579041D01*
X1574368D01*
X1569370Y1574043D01*
Y1564046D01*
X1574368Y1559048D01*
X3354992Y515994D02*
X3359990Y510995D01*
Y500998D01*
X3354992Y496000D01*
X3334998D01*
X3330000Y500998D01*
Y510995D01*
X3334998Y515994D01*
X3330000Y545984D02*
Y525990D01*
X3349994Y545984D01*
X3354992D01*
X3359990Y540986D01*
Y530989D01*
X3354992Y525990D01*
X3330000Y575974D02*
Y555981D01*
X3349994Y575974D01*
X3354992D01*
X3359990Y570976D01*
Y560979D01*
X3354992Y555981D01*
X2878006Y1149992D02*
X2883005Y1154990D01*
X2893002D01*
X2898000Y1149992D01*
Y1129998D01*
X2893002Y1125000D01*
X2883005D01*
X2878006Y1129998D01*
X2848016Y1125000D02*
X2868010D01*
X2848016Y1144994D01*
Y1149992D01*
X2853015Y1154990D01*
X2863011D01*
X2868010Y1149992D01*
X2838019Y1125000D02*
X2828023D01*
X2833021D01*
Y1154990D01*
X2838019Y1149992D01*
X3211994Y1160008D02*
X3206995Y1155010D01*
X3196998D01*
X3192000Y1160008D01*
Y1180002D01*
X3196998Y1185000D01*
X3206995D01*
X3211994Y1180002D01*
X3241984Y1185000D02*
X3221990D01*
X3241984Y1165006D01*
Y1160008D01*
X3236985Y1155010D01*
X3226989D01*
X3221990Y1160008D01*
X3251981D02*
X3256979Y1155010D01*
X3266976D01*
X3271974Y1160008D01*
Y1180002D01*
X3266976Y1185000D01*
X3256979D01*
X3251981Y1180002D01*
Y1160008D01*
X3551006Y663417D02*
X3556005Y668415D01*
X3566002D01*
X3571000Y663417D01*
Y643424D01*
X3566002Y638425D01*
X3556005D01*
X3551006Y643424D01*
X3541010Y638425D02*
X3531013D01*
X3536011D01*
Y668415D01*
X3541010Y663417D01*
X3516018Y643424D02*
X3511019Y638425D01*
X3501023D01*
X3496024Y643424D01*
Y663417D01*
X3501023Y668415D01*
X3511019D01*
X3516018Y663417D01*
Y658419D01*
X3511019Y653420D01*
X3496024D01*
X2764992Y558006D02*
X2769990Y563005D01*
Y573002D01*
X2764992Y578000D01*
X2744998D01*
X2740000Y573002D01*
Y563005D01*
X2744998Y558006D01*
X2740000Y548010D02*
Y538013D01*
Y543011D01*
X2769990D01*
X2764992Y548010D01*
Y523018D02*
X2769990Y518019D01*
Y508023D01*
X2764992Y503024D01*
X2759994D01*
X2754995Y508023D01*
X2749997Y503024D01*
X2744998D01*
X2740000Y508023D01*
Y518019D01*
X2744998Y523018D01*
X2749997D01*
X2754995Y518019D01*
X2759994Y523018D01*
X2764992D01*
X2754995Y518019D02*
Y508023D01*
X3344992Y523006D02*
X3349990Y528005D01*
Y538002D01*
X3344992Y543000D01*
X3324998D01*
X3320000Y538002D01*
Y528005D01*
X3324998Y523006D01*
X3320000Y513010D02*
Y503013D01*
Y508011D01*
X3349990D01*
X3344992Y513010D01*
X3349990Y488018D02*
Y468024D01*
X3344992D01*
X3324998Y488018D01*
X3320000D01*
D159*
X3501000Y1526000D02*
Y1565987D01*
X3514329Y1552658D01*
X3527658Y1565987D01*
Y1526000D01*
X3540987Y1565987D02*
X3567645D01*
X3554316D01*
Y1526000D01*
X3607632Y1559323D02*
X3600968Y1565987D01*
X3587639D01*
X3580974Y1559323D01*
Y1532665D01*
X3587639Y1526000D01*
X3600968D01*
X3607632Y1532665D01*
Y1545994D01*
X3594303D01*
X3647619Y1565987D02*
X3620961D01*
Y1545994D01*
X3634290Y1552658D01*
X3640955D01*
X3647619Y1545994D01*
Y1532665D01*
X3640955Y1526000D01*
X3627626D01*
X3620961Y1532665D01*
X5791000Y451000D02*
Y490987D01*
X5804329Y477658D01*
X5817658Y490987D01*
Y451000D01*
X5830987Y490987D02*
X5857645D01*
X5844316D01*
Y451000D01*
X5897632Y484323D02*
X5890968Y490987D01*
X5877639D01*
X5870974Y484323D01*
Y457664D01*
X5877639Y451000D01*
X5890968D01*
X5897632Y457664D01*
Y470993D01*
X5884303D01*
X5930955Y451000D02*
Y490987D01*
X5910961Y470993D01*
X5937619D01*
X201000Y211000D02*
Y250987D01*
X214329Y237658D01*
X227658Y250987D01*
Y211000D01*
X240987Y250987D02*
X267645D01*
X254316D01*
Y211000D01*
X307632Y244323D02*
X300968Y250987D01*
X287639D01*
X280974Y244323D01*
Y217665D01*
X287639Y211000D01*
X300968D01*
X307632Y217665D01*
Y230994D01*
X294303D01*
X347619Y211000D02*
X320961D01*
X347619Y237658D01*
Y244323D01*
X340955Y250987D01*
X327626D01*
X320961Y244323D01*
X201000Y4076000D02*
Y4115987D01*
X214329Y4102658D01*
X227658Y4115987D01*
Y4076000D01*
X240987Y4115987D02*
X267645D01*
X254316D01*
Y4076000D01*
X307632Y4109323D02*
X300968Y4115987D01*
X287639D01*
X280974Y4109323D01*
Y4082664D01*
X287639Y4076000D01*
X300968D01*
X307632Y4082664D01*
Y4095994D01*
X294303D01*
X320961Y4076000D02*
X334290D01*
X327626D01*
Y4115987D01*
X320961Y4109323D01*
X5896000Y4076000D02*
Y4115987D01*
X5909329Y4102658D01*
X5922658Y4115987D01*
Y4076000D01*
X5935987Y4115987D02*
X5962645D01*
X5949316D01*
Y4076000D01*
X6002632Y4109323D02*
X5995968Y4115987D01*
X5982639D01*
X5975974Y4109323D01*
Y4082664D01*
X5982639Y4076000D01*
X5995968D01*
X6002632Y4082664D01*
Y4095994D01*
X5989303D01*
X6015961Y4109323D02*
X6022626Y4115987D01*
X6035955D01*
X6042619Y4109323D01*
Y4102658D01*
X6035955Y4095994D01*
X6029290D01*
X6035955D01*
X6042619Y4089329D01*
Y4082664D01*
X6035955Y4076000D01*
X6022626D01*
X6015961Y4082664D01*
D188*
X3627000Y1535000D02*
G03*
X3627000Y1535000I-82000J0D01*
G01*
X5917000Y460000D02*
G03*
X5917000Y460000I-82000J0D01*
G01*
X327000Y220000D02*
G03*
X327000Y220000I-82000J0D01*
G01*
Y4085000D02*
G03*
X327000Y4085000I-82000J0D01*
G01*
X6022000D02*
G03*
X6022000Y4085000I-82000J0D01*
G01*
X317000Y437500D02*
Y492500D01*
X403000D01*
Y437500D02*
Y492500D01*
X317000Y437500D02*
X403000D01*
X720965Y1809599D02*
X775965D01*
X720965D02*
Y1895599D01*
X775965D01*
Y1809599D02*
Y1895599D01*
X830965D02*
X885965D01*
Y1809599D02*
Y1895599D01*
X830965Y1809599D02*
X885965D01*
X830965D02*
Y1895599D01*
X3462500Y533130D02*
X3517500D01*
Y447130D02*
Y533130D01*
X3462500Y447130D02*
X3517500D01*
X3462500D02*
Y533130D01*
X83543Y814724D02*
Y905276D01*
X26457Y814724D02*
X83543D01*
X26457D02*
Y905276D01*
X83543D01*
X3425000Y500630D02*
Y569630D01*
X3555000D01*
Y500630D02*
Y569630D01*
X3425000Y500630D02*
X3555000D01*
X5384272Y3403000D02*
X5569272D01*
X5384272D02*
Y3537000D01*
X5569272D01*
Y3403000D02*
Y3537000D01*
X103000Y1662000D02*
Y1848000D01*
Y1662000D02*
X237000D01*
Y1848000D01*
X103000D02*
X237000D01*
X1225000Y3839000D02*
X1335000D01*
X1225000Y3697000D02*
Y3839000D01*
Y3697000D02*
X1335000D01*
Y3839000D01*
X1060000Y3839000D02*
X1170000D01*
X1060000Y3697000D02*
Y3839000D01*
Y3697000D02*
X1170000D01*
Y3839000D01*
X895000Y3839000D02*
X1005000D01*
X895000Y3697000D02*
Y3839000D01*
Y3697000D02*
X1005000D01*
Y3839000D01*
X725000D02*
X835000D01*
X725000Y3697000D02*
Y3839000D01*
Y3697000D02*
X835000D01*
Y3839000D01*
X68990Y910006D02*
Y930000D01*
X53995D01*
Y920003D01*
Y930000D01*
X39000D01*
X68990Y900010D02*
X39000D01*
Y885014D01*
X43998Y880016D01*
X48997D01*
X53995Y885014D01*
Y900010D01*
Y885014D01*
X58993Y880016D01*
X63992D01*
X68990Y885014D01*
Y900010D01*
X39000Y855024D02*
X68990D01*
X53995Y870019D01*
Y850026D01*
%TF.MD5,a3c12b7b484b202c806943788aa05e92*%
M02*
