M48
;Layer_Color=9474304
;FILE_FORMAT=2:5
INCH,TZ
;TYPE=PLATED
T1F00S00C0.00787
T2F00S00C0.00900
T3F00S00C0.01500
T4F00S00C0.02000
T5F00S00C0.02756
T6F00S00C0.03000
T7F00S00C0.03228
T8F00S00C0.03937
T9F00S00C0.04000
T10F00S00C0.04173
T11F00S00C0.05500
T12F00S00C0.14200
;TYPE=NON_PLATED
T13F00S00C0.12500
%
T01
X264500Y186866
Y191000
Y195134
X268634Y191000
X260366
T02
X263516Y200590
X265060Y202390
X266975Y203475
X263516Y206700
X277030Y194740
X276000Y192000
X279211Y185813
X26513Y76972
Y73472
T03
X12396Y46063
X48937Y51865
X51854Y18052
X62154Y43036
X88346Y46700
X104970Y55097
X159065Y39047
X172500Y37500
X240742Y63801
X213536Y136994
X251000Y187654
Y203000
X278930Y197750
X284177Y208500
X292000Y194500
X295941Y183500
X287347Y175650
X276000Y180800
X301965Y204116
X292450Y123000
X203513Y73511
X164257Y72200
X136500Y87400
X115978Y79737
X108396Y96000
X116000Y111575
X75910Y84930
X71307Y71653
X65000Y185000
X80000
X87500Y200000
X72500
X57500
X42500
X27500
X50000Y185000
X44724Y81500
X48937Y69732
X54000Y58882
X40000Y58100
X26028Y59500
X35276Y73472
X35000Y215000
X50000
X42500Y230000
X27500
X35000Y245000
X50000
X13529Y272231
X65000Y245000
X80000
X87500Y230000
X72500
X57500
X65000Y215000
X80000
X140500Y234000
X150000
X163000
X176000Y231000
X172559Y257000
X165975
X160000
X181500
X180500Y282500
X186500
X171500
X163782
X156193
X211309Y277000
X208000Y237000
X229500Y247500
X239500Y240000
X239941Y216469
X271000Y243500
X281500Y240000
X285500Y243300
X278557Y261766
X248000Y308000
T04
X118000Y315000
X132000
X125000Y308000
X151000Y315000
X165000
X158000Y308000
X184000Y315000
X198000
X191000Y308000
T05
X62921Y100000
X70795
X78669
X55047
X47173
X39299
X31425
X23551
T06
X90000Y164500
Y174500
Y184500
X30000
Y174500
Y164500
Y254500
Y264500
Y274500
X90000
Y264500
Y254500
T07
X117500Y208500
Y218500
Y248500
Y258500
Y268500
T08
X253000Y43000
X273000
Y73000
Y83000
X253000
Y73000
X256500Y268500
X246500
X236500
T09
X43160Y34320
X148000Y50217
X188850Y28130
X219000Y102000
X271000
X221000Y199000
X140847Y101000
X116480
X155925Y74800
X58000Y116000
X151500Y258500
X195000Y264500
X196500Y230000
X247957Y230500
X271200Y227000
X281653Y217000
X295500Y248500
T10
X66703Y314331
X76545
X86388
X96231
T11
X251000Y21244
X267299
T12
X19500Y20500
X301000
X19500Y328000
X301000
T13
X233500Y21244
M30
