G04 #@! TF.GenerationSoftware,KiCad,Pcbnew,5.1.5-52549c5~84~ubuntu18.04.1*
G04 #@! TF.CreationDate,2020-02-06T20:48:50-05:00*
G04 #@! TF.ProjectId,led_indicator,6c65645f-696e-4646-9963-61746f722e6b,rev?*
G04 #@! TF.SameCoordinates,Original*
G04 #@! TF.FileFunction,Legend,Bot*
G04 #@! TF.FilePolarity,Positive*
%FSLAX46Y46*%
G04 Gerber Fmt 4.6, Leading zero omitted, Abs format (unit mm)*
G04 Created by KiCad (PCBNEW 5.1.5-52549c5~84~ubuntu18.04.1) date 2020-02-06 20:48:50*
%MOMM*%
%LPD*%
G04 APERTURE LIST*
%ADD10C,0.050000*%
G04 APERTURE END LIST*
D10*
X177904761Y-92973809D02*
X177666666Y-92973809D01*
X177666666Y-93473809D01*
X178071428Y-93235714D02*
X178238095Y-93235714D01*
X178309523Y-92973809D02*
X178071428Y-92973809D01*
X178071428Y-93473809D01*
X178309523Y-93473809D01*
X178523809Y-92973809D02*
X178523809Y-93473809D01*
X178642857Y-93473809D01*
X178714285Y-93450000D01*
X178761904Y-93402380D01*
X178785714Y-93354761D01*
X178809523Y-93259523D01*
X178809523Y-93188095D01*
X178785714Y-93092857D01*
X178761904Y-93045238D01*
X178714285Y-92997619D01*
X178642857Y-92973809D01*
X178523809Y-92973809D01*
X179571428Y-93235714D02*
X179642857Y-93211904D01*
X179666666Y-93188095D01*
X179690476Y-93140476D01*
X179690476Y-93069047D01*
X179666666Y-93021428D01*
X179642857Y-92997619D01*
X179595238Y-92973809D01*
X179404761Y-92973809D01*
X179404761Y-93473809D01*
X179571428Y-93473809D01*
X179619047Y-93450000D01*
X179642857Y-93426190D01*
X179666666Y-93378571D01*
X179666666Y-93330952D01*
X179642857Y-93283333D01*
X179619047Y-93259523D01*
X179571428Y-93235714D01*
X179404761Y-93235714D01*
X179976190Y-92973809D02*
X179928571Y-92997619D01*
X179904761Y-93021428D01*
X179880952Y-93069047D01*
X179880952Y-93211904D01*
X179904761Y-93259523D01*
X179928571Y-93283333D01*
X179976190Y-93307142D01*
X180047619Y-93307142D01*
X180095238Y-93283333D01*
X180119047Y-93259523D01*
X180142857Y-93211904D01*
X180142857Y-93069047D01*
X180119047Y-93021428D01*
X180095238Y-92997619D01*
X180047619Y-92973809D01*
X179976190Y-92973809D01*
X180571428Y-92973809D02*
X180571428Y-93235714D01*
X180547619Y-93283333D01*
X180500000Y-93307142D01*
X180404761Y-93307142D01*
X180357142Y-93283333D01*
X180571428Y-92997619D02*
X180523809Y-92973809D01*
X180404761Y-92973809D01*
X180357142Y-92997619D01*
X180333333Y-93045238D01*
X180333333Y-93092857D01*
X180357142Y-93140476D01*
X180404761Y-93164285D01*
X180523809Y-93164285D01*
X180571428Y-93188095D01*
X180809523Y-92973809D02*
X180809523Y-93307142D01*
X180809523Y-93211904D02*
X180833333Y-93259523D01*
X180857142Y-93283333D01*
X180904761Y-93307142D01*
X180952380Y-93307142D01*
X181333333Y-92973809D02*
X181333333Y-93473809D01*
X181333333Y-92997619D02*
X181285714Y-92973809D01*
X181190476Y-92973809D01*
X181142857Y-92997619D01*
X181119047Y-93021428D01*
X181095238Y-93069047D01*
X181095238Y-93211904D01*
X181119047Y-93259523D01*
X181142857Y-93283333D01*
X181190476Y-93307142D01*
X181285714Y-93307142D01*
X181333333Y-93283333D01*
X178047619Y-92626190D02*
X178071428Y-92650000D01*
X178119047Y-92673809D01*
X178238095Y-92673809D01*
X178285714Y-92650000D01*
X178309523Y-92626190D01*
X178333333Y-92578571D01*
X178333333Y-92530952D01*
X178309523Y-92459523D01*
X178023809Y-92173809D01*
X178333333Y-92173809D01*
X178642857Y-92673809D02*
X178690476Y-92673809D01*
X178738095Y-92650000D01*
X178761904Y-92626190D01*
X178785714Y-92578571D01*
X178809523Y-92483333D01*
X178809523Y-92364285D01*
X178785714Y-92269047D01*
X178761904Y-92221428D01*
X178738095Y-92197619D01*
X178690476Y-92173809D01*
X178642857Y-92173809D01*
X178595238Y-92197619D01*
X178571428Y-92221428D01*
X178547619Y-92269047D01*
X178523809Y-92364285D01*
X178523809Y-92483333D01*
X178547619Y-92578571D01*
X178571428Y-92626190D01*
X178595238Y-92650000D01*
X178642857Y-92673809D01*
X179023809Y-92221428D02*
X179047619Y-92197619D01*
X179023809Y-92173809D01*
X179000000Y-92197619D01*
X179023809Y-92221428D01*
X179023809Y-92173809D01*
X179357142Y-92673809D02*
X179404761Y-92673809D01*
X179452380Y-92650000D01*
X179476190Y-92626190D01*
X179500000Y-92578571D01*
X179523809Y-92483333D01*
X179523809Y-92364285D01*
X179500000Y-92269047D01*
X179476190Y-92221428D01*
X179452380Y-92197619D01*
X179404761Y-92173809D01*
X179357142Y-92173809D01*
X179309523Y-92197619D01*
X179285714Y-92221428D01*
X179261904Y-92269047D01*
X179238095Y-92364285D01*
X179238095Y-92483333D01*
X179261904Y-92578571D01*
X179285714Y-92626190D01*
X179309523Y-92650000D01*
X179357142Y-92673809D01*
X179714285Y-92626190D02*
X179738095Y-92650000D01*
X179785714Y-92673809D01*
X179904761Y-92673809D01*
X179952380Y-92650000D01*
X179976190Y-92626190D01*
X180000000Y-92578571D01*
X180000000Y-92530952D01*
X179976190Y-92459523D01*
X179690476Y-92173809D01*
X180000000Y-92173809D01*
X180309523Y-92673809D02*
X180357142Y-92673809D01*
X180404761Y-92650000D01*
X180428571Y-92626190D01*
X180452380Y-92578571D01*
X180476190Y-92483333D01*
X180476190Y-92364285D01*
X180452380Y-92269047D01*
X180428571Y-92221428D01*
X180404761Y-92197619D01*
X180357142Y-92173809D01*
X180309523Y-92173809D01*
X180261904Y-92197619D01*
X180238095Y-92221428D01*
X180214285Y-92269047D01*
X180190476Y-92364285D01*
X180190476Y-92483333D01*
X180214285Y-92578571D01*
X180238095Y-92626190D01*
X180261904Y-92650000D01*
X180309523Y-92673809D01*
X180904761Y-92673809D02*
X180809523Y-92673809D01*
X180761904Y-92650000D01*
X180738095Y-92626190D01*
X180690476Y-92554761D01*
X180666666Y-92459523D01*
X180666666Y-92269047D01*
X180690476Y-92221428D01*
X180714285Y-92197619D01*
X180761904Y-92173809D01*
X180857142Y-92173809D01*
X180904761Y-92197619D01*
X180928571Y-92221428D01*
X180952380Y-92269047D01*
X180952380Y-92388095D01*
X180928571Y-92435714D01*
X180904761Y-92459523D01*
X180857142Y-92483333D01*
X180761904Y-92483333D01*
X180714285Y-92459523D01*
X180690476Y-92435714D01*
X180666666Y-92388095D01*
M02*
