G04 #@! TF.GenerationSoftware,KiCad,Pcbnew,5.1.5-52549c5~84~ubuntu18.04.1*
G04 #@! TF.CreationDate,2020-02-06T20:48:50-05:00*
G04 #@! TF.ProjectId,led_indicator,6c65645f-696e-4646-9963-61746f722e6b,rev?*
G04 #@! TF.SameCoordinates,Original*
G04 #@! TF.FileFunction,Copper,L1,Top*
G04 #@! TF.FilePolarity,Positive*
%FSLAX46Y46*%
G04 Gerber Fmt 4.6, Leading zero omitted, Abs format (unit mm)*
G04 Created by KiCad (PCBNEW 5.1.5-52549c5~84~ubuntu18.04.1) date 2020-02-06 20:48:50*
%MOMM*%
%LPD*%
G04 APERTURE LIST*
%ADD10C,0.100000*%
%ADD11R,2.900000X1.900000*%
%ADD12R,1.300000X0.800000*%
%ADD13C,0.800000*%
%ADD14C,1.200000*%
%ADD15C,0.254000*%
G04 APERTURE END LIST*
G04 #@! TA.AperFunction,SMDPad,CuDef*
D10*
G36*
X186677712Y-95644109D02*
G01*
X185409857Y-98363033D01*
X184322288Y-97855891D01*
X185590143Y-95136967D01*
X186677712Y-95644109D01*
G37*
G04 #@! TD.AperFunction*
G04 #@! TA.AperFunction,SMDPad,CuDef*
G36*
X187006279Y-93480226D02*
G01*
X184708146Y-91551863D01*
X185993721Y-90019774D01*
X188291854Y-91948137D01*
X187006279Y-93480226D01*
G37*
G04 #@! TD.AperFunction*
G04 #@! TA.AperFunction,SMDPad,CuDef*
G36*
X173413784Y-98643003D02*
G01*
X172637327Y-95745226D01*
X174086216Y-95356997D01*
X174862673Y-98254774D01*
X173413784Y-98643003D01*
G37*
G04 #@! TD.AperFunction*
G04 #@! TA.AperFunction,SMDPad,CuDef*
G36*
X174980226Y-89743721D02*
G01*
X173051863Y-92041854D01*
X171519774Y-90756279D01*
X173448137Y-88458146D01*
X174980226Y-89743721D01*
G37*
G04 #@! TD.AperFunction*
D11*
X182000000Y-96000000D03*
D12*
X181111000Y-99225800D03*
X182838200Y-99200400D03*
D11*
X182250000Y-89619000D03*
D12*
X181361000Y-92844800D03*
X183088200Y-92819400D03*
D11*
X177500000Y-96027000D03*
D12*
X176611000Y-99252800D03*
X178338200Y-99227400D03*
D11*
X177074000Y-89619000D03*
D12*
X176185000Y-92844800D03*
X177912200Y-92819400D03*
D13*
X181650000Y-91500000D03*
X177100000Y-91500000D03*
X174600000Y-93800000D03*
X176050000Y-94150000D03*
X177550000Y-94150000D03*
X178850000Y-94150000D03*
X180050000Y-94100000D03*
X181450000Y-94100000D03*
X182750000Y-94150000D03*
X184050000Y-94150000D03*
X185250000Y-94100000D03*
X186450000Y-94500000D03*
X173400000Y-93650000D03*
X175100000Y-95150000D03*
X175300000Y-96450000D03*
X176600000Y-97800000D03*
X177850000Y-97850000D03*
X179800000Y-97750000D03*
X179750000Y-96700000D03*
X179850000Y-95500000D03*
X180950000Y-97950000D03*
X182300000Y-97850000D03*
X184350000Y-95650000D03*
X178200000Y-91450000D03*
X176000000Y-91250000D03*
X179250000Y-91450000D03*
X180400000Y-91500000D03*
X182750000Y-91550000D03*
X183750000Y-91450000D03*
X184450000Y-90400000D03*
X184850000Y-89400000D03*
X179750000Y-89200000D03*
X179700000Y-90450000D03*
D14*
X177937600Y-92844800D02*
X177912200Y-92819400D01*
X181361000Y-92844800D02*
X177937600Y-92844800D01*
X181109400Y-99227400D02*
X181111000Y-99225800D01*
X178338200Y-99227400D02*
X181109400Y-99227400D01*
X175844800Y-92844800D02*
X173250000Y-90250000D01*
X176185000Y-92844800D02*
X175844800Y-92844800D01*
X174810660Y-98060660D02*
X174810660Y-98310660D01*
X173750000Y-97000000D02*
X174810660Y-98060660D01*
X175752800Y-99252800D02*
X176611000Y-99252800D01*
X174810660Y-98310660D02*
X175752800Y-99252800D01*
X185430600Y-92819400D02*
X186500000Y-91750000D01*
X183088200Y-92819400D02*
X185430600Y-92819400D01*
X183049600Y-99200400D02*
X185500000Y-96750000D01*
X182838200Y-99200400D02*
X183049600Y-99200400D01*
D15*
G36*
X172641718Y-92530646D02*
G01*
X172744957Y-92601269D01*
X172859991Y-92650394D01*
X172982398Y-92676134D01*
X173107475Y-92677498D01*
X173230414Y-92654435D01*
X173346492Y-92607831D01*
X173451247Y-92539476D01*
X173540654Y-92451999D01*
X173615841Y-92362395D01*
X174928626Y-93675180D01*
X174967298Y-93722302D01*
X175155351Y-93876633D01*
X175369899Y-93991311D01*
X175602698Y-94061930D01*
X175784135Y-94079800D01*
X175784144Y-94079800D01*
X175844799Y-94085774D01*
X175905454Y-94079800D01*
X176245665Y-94079800D01*
X176427102Y-94061930D01*
X176659901Y-93991311D01*
X176869051Y-93879518D01*
X176959482Y-93870612D01*
X177079180Y-93834302D01*
X177087352Y-93829934D01*
X177137718Y-93845212D01*
X177219703Y-93853287D01*
X177248151Y-93876633D01*
X177462699Y-93991311D01*
X177643653Y-94046203D01*
X177695498Y-94061930D01*
X177937599Y-94085775D01*
X177998264Y-94079800D01*
X181421665Y-94079800D01*
X181603102Y-94061930D01*
X181835901Y-93991311D01*
X182045051Y-93879518D01*
X182135482Y-93870612D01*
X182255180Y-93834302D01*
X182263352Y-93829934D01*
X182313718Y-93845212D01*
X182404149Y-93854118D01*
X182613299Y-93965911D01*
X182846098Y-94036530D01*
X183027535Y-94054400D01*
X185369935Y-94054400D01*
X185430600Y-94060375D01*
X185491265Y-94054400D01*
X185574491Y-94046203D01*
X185672702Y-94036530D01*
X185905501Y-93965911D01*
X186120049Y-93851233D01*
X186289770Y-93711947D01*
X186596134Y-93969017D01*
X186699374Y-94039641D01*
X186814407Y-94088766D01*
X186936814Y-94114506D01*
X187061891Y-94115870D01*
X187075901Y-94113242D01*
X186684595Y-94943284D01*
X185859804Y-94558677D01*
X185741804Y-94517181D01*
X185617975Y-94499502D01*
X185493077Y-94506321D01*
X185371910Y-94537375D01*
X185259128Y-94591472D01*
X185159068Y-94666531D01*
X185075573Y-94759669D01*
X185011853Y-94867306D01*
X184466389Y-96037057D01*
X184085611Y-96417835D01*
X184085000Y-96285750D01*
X183926250Y-96127000D01*
X182127000Y-96127000D01*
X182127000Y-97426250D01*
X182285750Y-97585000D01*
X182916782Y-97586665D01*
X182487118Y-98016329D01*
X182363299Y-98053889D01*
X182154149Y-98165682D01*
X182063718Y-98174588D01*
X181944020Y-98210898D01*
X181935848Y-98215266D01*
X181885482Y-98199988D01*
X181795051Y-98191082D01*
X181585900Y-98079289D01*
X181353102Y-98008670D01*
X181111000Y-97984825D01*
X181034090Y-97992400D01*
X178277535Y-97992400D01*
X178096098Y-98010270D01*
X177863299Y-98080889D01*
X177654149Y-98192682D01*
X177563718Y-98201588D01*
X177444020Y-98237898D01*
X177435848Y-98242266D01*
X177385482Y-98226988D01*
X177295051Y-98218082D01*
X177085901Y-98106289D01*
X176853102Y-98035670D01*
X176671665Y-98017800D01*
X176264354Y-98017800D01*
X176011539Y-97764985D01*
X175988625Y-97689448D01*
X175963478Y-97606551D01*
X176050000Y-97615072D01*
X177214250Y-97612000D01*
X177373000Y-97453250D01*
X177373000Y-96154000D01*
X177627000Y-96154000D01*
X177627000Y-97453250D01*
X177785750Y-97612000D01*
X178950000Y-97615072D01*
X179074482Y-97602812D01*
X179194180Y-97566502D01*
X179304494Y-97507537D01*
X179401185Y-97428185D01*
X179480537Y-97331494D01*
X179539502Y-97221180D01*
X179575812Y-97101482D01*
X179588072Y-96977000D01*
X179587948Y-96950000D01*
X179911928Y-96950000D01*
X179924188Y-97074482D01*
X179960498Y-97194180D01*
X180019463Y-97304494D01*
X180098815Y-97401185D01*
X180195506Y-97480537D01*
X180305820Y-97539502D01*
X180425518Y-97575812D01*
X180550000Y-97588072D01*
X181714250Y-97585000D01*
X181873000Y-97426250D01*
X181873000Y-96127000D01*
X180073750Y-96127000D01*
X179915000Y-96285750D01*
X179911928Y-96950000D01*
X179587948Y-96950000D01*
X179585000Y-96312750D01*
X179426250Y-96154000D01*
X177627000Y-96154000D01*
X177373000Y-96154000D01*
X175573750Y-96154000D01*
X175415000Y-96312750D01*
X175412212Y-96915658D01*
X175073747Y-96577194D01*
X174702546Y-95191852D01*
X174659319Y-95077000D01*
X175411928Y-95077000D01*
X175415000Y-95741250D01*
X175573750Y-95900000D01*
X177373000Y-95900000D01*
X177373000Y-94600750D01*
X177627000Y-94600750D01*
X177627000Y-95900000D01*
X179426250Y-95900000D01*
X179585000Y-95741250D01*
X179588072Y-95077000D01*
X179585413Y-95050000D01*
X179911928Y-95050000D01*
X179915000Y-95714250D01*
X180073750Y-95873000D01*
X181873000Y-95873000D01*
X181873000Y-94573750D01*
X182127000Y-94573750D01*
X182127000Y-95873000D01*
X183926250Y-95873000D01*
X184085000Y-95714250D01*
X184088072Y-95050000D01*
X184075812Y-94925518D01*
X184039502Y-94805820D01*
X183980537Y-94695506D01*
X183901185Y-94598815D01*
X183804494Y-94519463D01*
X183694180Y-94460498D01*
X183574482Y-94424188D01*
X183450000Y-94411928D01*
X182285750Y-94415000D01*
X182127000Y-94573750D01*
X181873000Y-94573750D01*
X181714250Y-94415000D01*
X180550000Y-94411928D01*
X180425518Y-94424188D01*
X180305820Y-94460498D01*
X180195506Y-94519463D01*
X180098815Y-94598815D01*
X180019463Y-94695506D01*
X179960498Y-94805820D01*
X179924188Y-94925518D01*
X179911928Y-95050000D01*
X179585413Y-95050000D01*
X179575812Y-94952518D01*
X179539502Y-94832820D01*
X179480537Y-94722506D01*
X179401185Y-94625815D01*
X179304494Y-94546463D01*
X179194180Y-94487498D01*
X179074482Y-94451188D01*
X178950000Y-94438928D01*
X177785750Y-94442000D01*
X177627000Y-94600750D01*
X177373000Y-94600750D01*
X177214250Y-94442000D01*
X176050000Y-94438928D01*
X175925518Y-94451188D01*
X175805820Y-94487498D01*
X175695506Y-94546463D01*
X175598815Y-94625815D01*
X175519463Y-94722506D01*
X175460498Y-94832820D01*
X175424188Y-94952518D01*
X175411928Y-95077000D01*
X174659319Y-95077000D01*
X174658485Y-95074785D01*
X174592432Y-94968563D01*
X174506926Y-94877269D01*
X174405252Y-94804410D01*
X174291317Y-94752787D01*
X174169501Y-94724384D01*
X174044484Y-94720291D01*
X173921071Y-94740667D01*
X172973819Y-94994483D01*
X172229166Y-92184474D01*
X172641718Y-92530646D01*
G37*
X172641718Y-92530646D02*
X172744957Y-92601269D01*
X172859991Y-92650394D01*
X172982398Y-92676134D01*
X173107475Y-92677498D01*
X173230414Y-92654435D01*
X173346492Y-92607831D01*
X173451247Y-92539476D01*
X173540654Y-92451999D01*
X173615841Y-92362395D01*
X174928626Y-93675180D01*
X174967298Y-93722302D01*
X175155351Y-93876633D01*
X175369899Y-93991311D01*
X175602698Y-94061930D01*
X175784135Y-94079800D01*
X175784144Y-94079800D01*
X175844799Y-94085774D01*
X175905454Y-94079800D01*
X176245665Y-94079800D01*
X176427102Y-94061930D01*
X176659901Y-93991311D01*
X176869051Y-93879518D01*
X176959482Y-93870612D01*
X177079180Y-93834302D01*
X177087352Y-93829934D01*
X177137718Y-93845212D01*
X177219703Y-93853287D01*
X177248151Y-93876633D01*
X177462699Y-93991311D01*
X177643653Y-94046203D01*
X177695498Y-94061930D01*
X177937599Y-94085775D01*
X177998264Y-94079800D01*
X181421665Y-94079800D01*
X181603102Y-94061930D01*
X181835901Y-93991311D01*
X182045051Y-93879518D01*
X182135482Y-93870612D01*
X182255180Y-93834302D01*
X182263352Y-93829934D01*
X182313718Y-93845212D01*
X182404149Y-93854118D01*
X182613299Y-93965911D01*
X182846098Y-94036530D01*
X183027535Y-94054400D01*
X185369935Y-94054400D01*
X185430600Y-94060375D01*
X185491265Y-94054400D01*
X185574491Y-94046203D01*
X185672702Y-94036530D01*
X185905501Y-93965911D01*
X186120049Y-93851233D01*
X186289770Y-93711947D01*
X186596134Y-93969017D01*
X186699374Y-94039641D01*
X186814407Y-94088766D01*
X186936814Y-94114506D01*
X187061891Y-94115870D01*
X187075901Y-94113242D01*
X186684595Y-94943284D01*
X185859804Y-94558677D01*
X185741804Y-94517181D01*
X185617975Y-94499502D01*
X185493077Y-94506321D01*
X185371910Y-94537375D01*
X185259128Y-94591472D01*
X185159068Y-94666531D01*
X185075573Y-94759669D01*
X185011853Y-94867306D01*
X184466389Y-96037057D01*
X184085611Y-96417835D01*
X184085000Y-96285750D01*
X183926250Y-96127000D01*
X182127000Y-96127000D01*
X182127000Y-97426250D01*
X182285750Y-97585000D01*
X182916782Y-97586665D01*
X182487118Y-98016329D01*
X182363299Y-98053889D01*
X182154149Y-98165682D01*
X182063718Y-98174588D01*
X181944020Y-98210898D01*
X181935848Y-98215266D01*
X181885482Y-98199988D01*
X181795051Y-98191082D01*
X181585900Y-98079289D01*
X181353102Y-98008670D01*
X181111000Y-97984825D01*
X181034090Y-97992400D01*
X178277535Y-97992400D01*
X178096098Y-98010270D01*
X177863299Y-98080889D01*
X177654149Y-98192682D01*
X177563718Y-98201588D01*
X177444020Y-98237898D01*
X177435848Y-98242266D01*
X177385482Y-98226988D01*
X177295051Y-98218082D01*
X177085901Y-98106289D01*
X176853102Y-98035670D01*
X176671665Y-98017800D01*
X176264354Y-98017800D01*
X176011539Y-97764985D01*
X175988625Y-97689448D01*
X175963478Y-97606551D01*
X176050000Y-97615072D01*
X177214250Y-97612000D01*
X177373000Y-97453250D01*
X177373000Y-96154000D01*
X177627000Y-96154000D01*
X177627000Y-97453250D01*
X177785750Y-97612000D01*
X178950000Y-97615072D01*
X179074482Y-97602812D01*
X179194180Y-97566502D01*
X179304494Y-97507537D01*
X179401185Y-97428185D01*
X179480537Y-97331494D01*
X179539502Y-97221180D01*
X179575812Y-97101482D01*
X179588072Y-96977000D01*
X179587948Y-96950000D01*
X179911928Y-96950000D01*
X179924188Y-97074482D01*
X179960498Y-97194180D01*
X180019463Y-97304494D01*
X180098815Y-97401185D01*
X180195506Y-97480537D01*
X180305820Y-97539502D01*
X180425518Y-97575812D01*
X180550000Y-97588072D01*
X181714250Y-97585000D01*
X181873000Y-97426250D01*
X181873000Y-96127000D01*
X180073750Y-96127000D01*
X179915000Y-96285750D01*
X179911928Y-96950000D01*
X179587948Y-96950000D01*
X179585000Y-96312750D01*
X179426250Y-96154000D01*
X177627000Y-96154000D01*
X177373000Y-96154000D01*
X175573750Y-96154000D01*
X175415000Y-96312750D01*
X175412212Y-96915658D01*
X175073747Y-96577194D01*
X174702546Y-95191852D01*
X174659319Y-95077000D01*
X175411928Y-95077000D01*
X175415000Y-95741250D01*
X175573750Y-95900000D01*
X177373000Y-95900000D01*
X177373000Y-94600750D01*
X177627000Y-94600750D01*
X177627000Y-95900000D01*
X179426250Y-95900000D01*
X179585000Y-95741250D01*
X179588072Y-95077000D01*
X179585413Y-95050000D01*
X179911928Y-95050000D01*
X179915000Y-95714250D01*
X180073750Y-95873000D01*
X181873000Y-95873000D01*
X181873000Y-94573750D01*
X182127000Y-94573750D01*
X182127000Y-95873000D01*
X183926250Y-95873000D01*
X184085000Y-95714250D01*
X184088072Y-95050000D01*
X184075812Y-94925518D01*
X184039502Y-94805820D01*
X183980537Y-94695506D01*
X183901185Y-94598815D01*
X183804494Y-94519463D01*
X183694180Y-94460498D01*
X183574482Y-94424188D01*
X183450000Y-94411928D01*
X182285750Y-94415000D01*
X182127000Y-94573750D01*
X181873000Y-94573750D01*
X181714250Y-94415000D01*
X180550000Y-94411928D01*
X180425518Y-94424188D01*
X180305820Y-94460498D01*
X180195506Y-94519463D01*
X180098815Y-94598815D01*
X180019463Y-94695506D01*
X179960498Y-94805820D01*
X179924188Y-94925518D01*
X179911928Y-95050000D01*
X179585413Y-95050000D01*
X179575812Y-94952518D01*
X179539502Y-94832820D01*
X179480537Y-94722506D01*
X179401185Y-94625815D01*
X179304494Y-94546463D01*
X179194180Y-94487498D01*
X179074482Y-94451188D01*
X178950000Y-94438928D01*
X177785750Y-94442000D01*
X177627000Y-94600750D01*
X177373000Y-94600750D01*
X177214250Y-94442000D01*
X176050000Y-94438928D01*
X175925518Y-94451188D01*
X175805820Y-94487498D01*
X175695506Y-94546463D01*
X175598815Y-94625815D01*
X175519463Y-94722506D01*
X175460498Y-94832820D01*
X175424188Y-94952518D01*
X175411928Y-95077000D01*
X174659319Y-95077000D01*
X174658485Y-95074785D01*
X174592432Y-94968563D01*
X174506926Y-94877269D01*
X174405252Y-94804410D01*
X174291317Y-94752787D01*
X174169501Y-94724384D01*
X174044484Y-94720291D01*
X173921071Y-94740667D01*
X172973819Y-94994483D01*
X172229166Y-92184474D01*
X172641718Y-92530646D01*
G36*
X180161928Y-88669000D02*
G01*
X180165000Y-89333250D01*
X180323750Y-89492000D01*
X182123000Y-89492000D01*
X182123000Y-89472000D01*
X182377000Y-89472000D01*
X182377000Y-89492000D01*
X184176250Y-89492000D01*
X184335000Y-89333250D01*
X184338072Y-88669000D01*
X184337186Y-88660000D01*
X184457609Y-88660000D01*
X185537987Y-89577285D01*
X185504929Y-89609629D01*
X184219354Y-91141718D01*
X184148731Y-91244957D01*
X184099606Y-91359991D01*
X184073866Y-91482398D01*
X184072754Y-91584400D01*
X183027535Y-91584400D01*
X182846098Y-91602270D01*
X182613299Y-91672889D01*
X182404149Y-91784682D01*
X182313718Y-91793588D01*
X182194020Y-91829898D01*
X182185848Y-91834266D01*
X182135482Y-91818988D01*
X182045051Y-91810082D01*
X181835901Y-91698289D01*
X181603102Y-91627670D01*
X181421665Y-91609800D01*
X178179125Y-91609800D01*
X178154302Y-91602270D01*
X177912200Y-91578425D01*
X177670098Y-91602270D01*
X177437301Y-91672889D01*
X177228153Y-91784681D01*
X177137718Y-91793588D01*
X177018020Y-91829898D01*
X177009848Y-91834266D01*
X176959482Y-91818988D01*
X176869051Y-91810082D01*
X176659901Y-91698289D01*
X176427102Y-91627670D01*
X176368447Y-91621893D01*
X175952758Y-91206205D01*
X176788250Y-91204000D01*
X176947000Y-91045250D01*
X176947000Y-89746000D01*
X177201000Y-89746000D01*
X177201000Y-91045250D01*
X177359750Y-91204000D01*
X178524000Y-91207072D01*
X178648482Y-91194812D01*
X178768180Y-91158502D01*
X178878494Y-91099537D01*
X178975185Y-91020185D01*
X179054537Y-90923494D01*
X179113502Y-90813180D01*
X179149812Y-90693482D01*
X179162072Y-90569000D01*
X180161928Y-90569000D01*
X180174188Y-90693482D01*
X180210498Y-90813180D01*
X180269463Y-90923494D01*
X180348815Y-91020185D01*
X180445506Y-91099537D01*
X180555820Y-91158502D01*
X180675518Y-91194812D01*
X180800000Y-91207072D01*
X181964250Y-91204000D01*
X182123000Y-91045250D01*
X182123000Y-89746000D01*
X182377000Y-89746000D01*
X182377000Y-91045250D01*
X182535750Y-91204000D01*
X183700000Y-91207072D01*
X183824482Y-91194812D01*
X183944180Y-91158502D01*
X184054494Y-91099537D01*
X184151185Y-91020185D01*
X184230537Y-90923494D01*
X184289502Y-90813180D01*
X184325812Y-90693482D01*
X184338072Y-90569000D01*
X184335000Y-89904750D01*
X184176250Y-89746000D01*
X182377000Y-89746000D01*
X182123000Y-89746000D01*
X180323750Y-89746000D01*
X180165000Y-89904750D01*
X180161928Y-90569000D01*
X179162072Y-90569000D01*
X179159000Y-89904750D01*
X179000250Y-89746000D01*
X177201000Y-89746000D01*
X176947000Y-89746000D01*
X176927000Y-89746000D01*
X176927000Y-89492000D01*
X176947000Y-89492000D01*
X176947000Y-89472000D01*
X177201000Y-89472000D01*
X177201000Y-89492000D01*
X179000250Y-89492000D01*
X179159000Y-89333250D01*
X179162072Y-88669000D01*
X179161186Y-88660000D01*
X180162814Y-88660000D01*
X180161928Y-88669000D01*
G37*
X180161928Y-88669000D02*
X180165000Y-89333250D01*
X180323750Y-89492000D01*
X182123000Y-89492000D01*
X182123000Y-89472000D01*
X182377000Y-89472000D01*
X182377000Y-89492000D01*
X184176250Y-89492000D01*
X184335000Y-89333250D01*
X184338072Y-88669000D01*
X184337186Y-88660000D01*
X184457609Y-88660000D01*
X185537987Y-89577285D01*
X185504929Y-89609629D01*
X184219354Y-91141718D01*
X184148731Y-91244957D01*
X184099606Y-91359991D01*
X184073866Y-91482398D01*
X184072754Y-91584400D01*
X183027535Y-91584400D01*
X182846098Y-91602270D01*
X182613299Y-91672889D01*
X182404149Y-91784682D01*
X182313718Y-91793588D01*
X182194020Y-91829898D01*
X182185848Y-91834266D01*
X182135482Y-91818988D01*
X182045051Y-91810082D01*
X181835901Y-91698289D01*
X181603102Y-91627670D01*
X181421665Y-91609800D01*
X178179125Y-91609800D01*
X178154302Y-91602270D01*
X177912200Y-91578425D01*
X177670098Y-91602270D01*
X177437301Y-91672889D01*
X177228153Y-91784681D01*
X177137718Y-91793588D01*
X177018020Y-91829898D01*
X177009848Y-91834266D01*
X176959482Y-91818988D01*
X176869051Y-91810082D01*
X176659901Y-91698289D01*
X176427102Y-91627670D01*
X176368447Y-91621893D01*
X175952758Y-91206205D01*
X176788250Y-91204000D01*
X176947000Y-91045250D01*
X176947000Y-89746000D01*
X177201000Y-89746000D01*
X177201000Y-91045250D01*
X177359750Y-91204000D01*
X178524000Y-91207072D01*
X178648482Y-91194812D01*
X178768180Y-91158502D01*
X178878494Y-91099537D01*
X178975185Y-91020185D01*
X179054537Y-90923494D01*
X179113502Y-90813180D01*
X179149812Y-90693482D01*
X179162072Y-90569000D01*
X180161928Y-90569000D01*
X180174188Y-90693482D01*
X180210498Y-90813180D01*
X180269463Y-90923494D01*
X180348815Y-91020185D01*
X180445506Y-91099537D01*
X180555820Y-91158502D01*
X180675518Y-91194812D01*
X180800000Y-91207072D01*
X181964250Y-91204000D01*
X182123000Y-91045250D01*
X182123000Y-89746000D01*
X182377000Y-89746000D01*
X182377000Y-91045250D01*
X182535750Y-91204000D01*
X183700000Y-91207072D01*
X183824482Y-91194812D01*
X183944180Y-91158502D01*
X184054494Y-91099537D01*
X184151185Y-91020185D01*
X184230537Y-90923494D01*
X184289502Y-90813180D01*
X184325812Y-90693482D01*
X184338072Y-90569000D01*
X184335000Y-89904750D01*
X184176250Y-89746000D01*
X182377000Y-89746000D01*
X182123000Y-89746000D01*
X180323750Y-89746000D01*
X180165000Y-89904750D01*
X180161928Y-90569000D01*
X179162072Y-90569000D01*
X179159000Y-89904750D01*
X179000250Y-89746000D01*
X177201000Y-89746000D01*
X176947000Y-89746000D01*
X176927000Y-89746000D01*
X176927000Y-89492000D01*
X176947000Y-89492000D01*
X176947000Y-89472000D01*
X177201000Y-89472000D01*
X177201000Y-89492000D01*
X179000250Y-89492000D01*
X179159000Y-89333250D01*
X179162072Y-88669000D01*
X179161186Y-88660000D01*
X180162814Y-88660000D01*
X180161928Y-88669000D01*
M02*
