G04 #@! TF.GenerationSoftware,KiCad,Pcbnew,5.1.5-52549c5~84~ubuntu18.04.1*
G04 #@! TF.CreationDate,2020-01-14T23:08:30-05:00*
G04 #@! TF.ProjectId,emrax-228-resolver-breakout,656d7261-782d-4323-9238-2d7265736f6c,rev?*
G04 #@! TF.SameCoordinates,Original*
G04 #@! TF.FileFunction,Legend,Bot*
G04 #@! TF.FilePolarity,Positive*
%FSLAX46Y46*%
G04 Gerber Fmt 4.6, Leading zero omitted, Abs format (unit mm)*
G04 Created by KiCad (PCBNEW 5.1.5-52549c5~84~ubuntu18.04.1) date 2020-01-14 23:08:30*
%MOMM*%
%LPD*%
G04 APERTURE LIST*
%ADD10C,0.150000*%
G04 APERTURE END LIST*
D10*
X152772523Y-71445380D02*
X152772523Y-70778714D01*
X152772523Y-70969190D02*
X152724904Y-70873952D01*
X152677285Y-70826333D01*
X152582047Y-70778714D01*
X152486809Y-70778714D01*
X151772523Y-71397761D02*
X151867761Y-71445380D01*
X152058238Y-71445380D01*
X152153476Y-71397761D01*
X152201095Y-71302523D01*
X152201095Y-70921571D01*
X152153476Y-70826333D01*
X152058238Y-70778714D01*
X151867761Y-70778714D01*
X151772523Y-70826333D01*
X151724904Y-70921571D01*
X151724904Y-71016809D01*
X152201095Y-71112047D01*
X151391571Y-70778714D02*
X151153476Y-71445380D01*
X150915380Y-70778714D01*
X150582047Y-71159666D02*
X150105857Y-71159666D01*
X150677285Y-71445380D02*
X150343952Y-70445380D01*
X150010619Y-71445380D01*
X148391571Y-71445380D02*
X148963000Y-71445380D01*
X148677285Y-71445380D02*
X148677285Y-70445380D01*
X148772523Y-70588238D01*
X148867761Y-70683476D01*
X148963000Y-70731095D01*
X147915380Y-71445380D02*
X147724904Y-71445380D01*
X147629666Y-71397761D01*
X147582047Y-71350142D01*
X147486809Y-71207285D01*
X147439190Y-71016809D01*
X147439190Y-70635857D01*
X147486809Y-70540619D01*
X147534428Y-70493000D01*
X147629666Y-70445380D01*
X147820142Y-70445380D01*
X147915380Y-70493000D01*
X147963000Y-70540619D01*
X148010619Y-70635857D01*
X148010619Y-70873952D01*
X147963000Y-70969190D01*
X147915380Y-71016809D01*
X147820142Y-71064428D01*
X147629666Y-71064428D01*
X147534428Y-71016809D01*
X147486809Y-70969190D01*
X147439190Y-70873952D01*
X147010619Y-71350142D02*
X146963000Y-71397761D01*
X147010619Y-71445380D01*
X147058238Y-71397761D01*
X147010619Y-71350142D01*
X147010619Y-71445380D01*
X146629666Y-70445380D02*
X146010619Y-70445380D01*
X146343952Y-70826333D01*
X146201095Y-70826333D01*
X146105857Y-70873952D01*
X146058238Y-70921571D01*
X146010619Y-71016809D01*
X146010619Y-71254904D01*
X146058238Y-71350142D01*
X146105857Y-71397761D01*
X146201095Y-71445380D01*
X146486809Y-71445380D01*
X146582047Y-71397761D01*
X146629666Y-71350142D01*
X145629666Y-70540619D02*
X145582047Y-70493000D01*
X145486809Y-70445380D01*
X145248714Y-70445380D01*
X145153476Y-70493000D01*
X145105857Y-70540619D01*
X145058238Y-70635857D01*
X145058238Y-70731095D01*
X145105857Y-70873952D01*
X145677285Y-71445380D01*
X145058238Y-71445380D01*
X144724904Y-70445380D02*
X144058238Y-70445380D01*
X144486809Y-71445380D01*
X151963142Y-66366380D02*
X152296476Y-65890190D01*
X152534571Y-66366380D02*
X152534571Y-65366380D01*
X152153619Y-65366380D01*
X152058380Y-65414000D01*
X152010761Y-65461619D01*
X151963142Y-65556857D01*
X151963142Y-65699714D01*
X152010761Y-65794952D01*
X152058380Y-65842571D01*
X152153619Y-65890190D01*
X152534571Y-65890190D01*
X151153619Y-66318761D02*
X151248857Y-66366380D01*
X151439333Y-66366380D01*
X151534571Y-66318761D01*
X151582190Y-66223523D01*
X151582190Y-65842571D01*
X151534571Y-65747333D01*
X151439333Y-65699714D01*
X151248857Y-65699714D01*
X151153619Y-65747333D01*
X151106000Y-65842571D01*
X151106000Y-65937809D01*
X151582190Y-66033047D01*
X150725047Y-66318761D02*
X150629809Y-66366380D01*
X150439333Y-66366380D01*
X150344095Y-66318761D01*
X150296476Y-66223523D01*
X150296476Y-66175904D01*
X150344095Y-66080666D01*
X150439333Y-66033047D01*
X150582190Y-66033047D01*
X150677428Y-65985428D01*
X150725047Y-65890190D01*
X150725047Y-65842571D01*
X150677428Y-65747333D01*
X150582190Y-65699714D01*
X150439333Y-65699714D01*
X150344095Y-65747333D01*
X149725047Y-66366380D02*
X149820285Y-66318761D01*
X149867904Y-66271142D01*
X149915523Y-66175904D01*
X149915523Y-65890190D01*
X149867904Y-65794952D01*
X149820285Y-65747333D01*
X149725047Y-65699714D01*
X149582190Y-65699714D01*
X149486952Y-65747333D01*
X149439333Y-65794952D01*
X149391714Y-65890190D01*
X149391714Y-66175904D01*
X149439333Y-66271142D01*
X149486952Y-66318761D01*
X149582190Y-66366380D01*
X149725047Y-66366380D01*
X148820285Y-66366380D02*
X148915523Y-66318761D01*
X148963142Y-66223523D01*
X148963142Y-65366380D01*
X148534571Y-65699714D02*
X148296476Y-66366380D01*
X148058380Y-65699714D01*
X147296476Y-66318761D02*
X147391714Y-66366380D01*
X147582190Y-66366380D01*
X147677428Y-66318761D01*
X147725047Y-66223523D01*
X147725047Y-65842571D01*
X147677428Y-65747333D01*
X147582190Y-65699714D01*
X147391714Y-65699714D01*
X147296476Y-65747333D01*
X147248857Y-65842571D01*
X147248857Y-65937809D01*
X147725047Y-66033047D01*
X146820285Y-66366380D02*
X146820285Y-65699714D01*
X146820285Y-65890190D02*
X146772666Y-65794952D01*
X146725047Y-65747333D01*
X146629809Y-65699714D01*
X146534571Y-65699714D01*
X152320285Y-67492571D02*
X152177428Y-67540190D01*
X152129809Y-67587809D01*
X152082190Y-67683047D01*
X152082190Y-67825904D01*
X152129809Y-67921142D01*
X152177428Y-67968761D01*
X152272666Y-68016380D01*
X152653619Y-68016380D01*
X152653619Y-67016380D01*
X152320285Y-67016380D01*
X152225047Y-67064000D01*
X152177428Y-67111619D01*
X152129809Y-67206857D01*
X152129809Y-67302095D01*
X152177428Y-67397333D01*
X152225047Y-67444952D01*
X152320285Y-67492571D01*
X152653619Y-67492571D01*
X151653619Y-68016380D02*
X151653619Y-67349714D01*
X151653619Y-67540190D02*
X151606000Y-67444952D01*
X151558380Y-67397333D01*
X151463142Y-67349714D01*
X151367904Y-67349714D01*
X150653619Y-67968761D02*
X150748857Y-68016380D01*
X150939333Y-68016380D01*
X151034571Y-67968761D01*
X151082190Y-67873523D01*
X151082190Y-67492571D01*
X151034571Y-67397333D01*
X150939333Y-67349714D01*
X150748857Y-67349714D01*
X150653619Y-67397333D01*
X150606000Y-67492571D01*
X150606000Y-67587809D01*
X151082190Y-67683047D01*
X149748857Y-68016380D02*
X149748857Y-67492571D01*
X149796476Y-67397333D01*
X149891714Y-67349714D01*
X150082190Y-67349714D01*
X150177428Y-67397333D01*
X149748857Y-67968761D02*
X149844095Y-68016380D01*
X150082190Y-68016380D01*
X150177428Y-67968761D01*
X150225047Y-67873523D01*
X150225047Y-67778285D01*
X150177428Y-67683047D01*
X150082190Y-67635428D01*
X149844095Y-67635428D01*
X149748857Y-67587809D01*
X149272666Y-68016380D02*
X149272666Y-67016380D01*
X149177428Y-67635428D02*
X148891714Y-68016380D01*
X148891714Y-67349714D02*
X149272666Y-67730666D01*
X148320285Y-68016380D02*
X148415523Y-67968761D01*
X148463142Y-67921142D01*
X148510761Y-67825904D01*
X148510761Y-67540190D01*
X148463142Y-67444952D01*
X148415523Y-67397333D01*
X148320285Y-67349714D01*
X148177428Y-67349714D01*
X148082190Y-67397333D01*
X148034571Y-67444952D01*
X147986952Y-67540190D01*
X147986952Y-67825904D01*
X148034571Y-67921142D01*
X148082190Y-67968761D01*
X148177428Y-68016380D01*
X148320285Y-68016380D01*
X147129809Y-67349714D02*
X147129809Y-68016380D01*
X147558380Y-67349714D02*
X147558380Y-67873523D01*
X147510761Y-67968761D01*
X147415523Y-68016380D01*
X147272666Y-68016380D01*
X147177428Y-67968761D01*
X147129809Y-67921142D01*
X146796476Y-67349714D02*
X146415523Y-67349714D01*
X146653619Y-67016380D02*
X146653619Y-67873523D01*
X146606000Y-67968761D01*
X146510761Y-68016380D01*
X146415523Y-68016380D01*
X152915523Y-68666380D02*
X152677428Y-69666380D01*
X152486952Y-68952095D01*
X152296476Y-69666380D01*
X152058380Y-68666380D01*
X151677428Y-69571142D02*
X151629809Y-69618761D01*
X151677428Y-69666380D01*
X151725047Y-69618761D01*
X151677428Y-69571142D01*
X151677428Y-69666380D01*
X150439333Y-69666380D02*
X150439333Y-68666380D01*
X150439333Y-69142571D02*
X149867904Y-69142571D01*
X149867904Y-69666380D02*
X149867904Y-68666380D01*
X149391714Y-69666380D02*
X149391714Y-68999714D01*
X149391714Y-68666380D02*
X149439333Y-68714000D01*
X149391714Y-68761619D01*
X149344095Y-68714000D01*
X149391714Y-68666380D01*
X149391714Y-68761619D01*
X148772666Y-69666380D02*
X148867904Y-69618761D01*
X148915523Y-69523523D01*
X148915523Y-68666380D01*
X148248857Y-69666380D02*
X148344095Y-69618761D01*
X148391714Y-69523523D01*
X148391714Y-68666380D01*
X147867904Y-69666380D02*
X147867904Y-68999714D01*
X147867904Y-68666380D02*
X147915523Y-68714000D01*
X147867904Y-68761619D01*
X147820285Y-68714000D01*
X147867904Y-68666380D01*
X147867904Y-68761619D01*
X147010761Y-69618761D02*
X147106000Y-69666380D01*
X147296476Y-69666380D01*
X147391714Y-69618761D01*
X147439333Y-69523523D01*
X147439333Y-69142571D01*
X147391714Y-69047333D01*
X147296476Y-68999714D01*
X147106000Y-68999714D01*
X147010761Y-69047333D01*
X146963142Y-69142571D01*
X146963142Y-69237809D01*
X147439333Y-69333047D01*
X146534571Y-69666380D02*
X146534571Y-68999714D01*
X146534571Y-69190190D02*
X146486952Y-69094952D01*
X146439333Y-69047333D01*
X146344095Y-68999714D01*
X146248857Y-68999714D01*
M02*
