G04*
G04 #@! TF.GenerationSoftware,Altium Limited,Altium Designer,20.0.11 (256)*
G04*
G04 Layer_Color=65535*
%FSLAX25Y25*%
%MOIN*%
G70*
G01*
G75*
%ADD10C,0.00787*%
%ADD11C,0.00500*%
%ADD12C,0.01000*%
%ADD13C,0.00700*%
G36*
X144911Y17897D02*
X144984Y17866D01*
X145067Y17824D01*
X145151Y17751D01*
X145224Y17658D01*
X152969Y4239D01*
X152979Y4229D01*
X152989Y4197D01*
X153010Y4145D01*
X153021Y4073D01*
X153031Y4000D01*
Y3916D01*
X153010Y3823D01*
X152969Y3739D01*
X152958Y3729D01*
X152937Y3698D01*
X152906Y3667D01*
X152865Y3625D01*
X152802Y3573D01*
X152729Y3542D01*
X152656Y3510D01*
X152563Y3500D01*
X137000D01*
X136948Y3510D01*
X136885Y3531D01*
X136812Y3562D01*
X136739Y3604D01*
X136677Y3656D01*
X136615Y3739D01*
Y3750D01*
X136594Y3781D01*
X136583Y3823D01*
X136573Y3885D01*
X136563Y3958D01*
Y4052D01*
X136583Y4145D01*
X136615Y4239D01*
X144380Y17658D01*
X144391Y17668D01*
X144401Y17689D01*
X144422Y17720D01*
X144464Y17751D01*
X144516Y17793D01*
X144578Y17835D01*
X144651Y17876D01*
X144734Y17907D01*
X144838D01*
X144911Y17897D01*
D02*
G37*
%LPC*%
G36*
X144807Y16356D02*
X138207Y4770D01*
X151386D01*
X144807Y16356D01*
D02*
G37*
%LPD*%
G36*
X144224Y9600D02*
X146233Y10412D01*
X145224Y6654D01*
X145598D01*
X144734Y5343D01*
X144255Y6706D01*
X144630D01*
X145328Y9142D01*
X143360Y8341D01*
X144630Y12848D01*
X145630D01*
X144224Y9600D01*
D02*
G37*
D10*
X152500Y41000D02*
G03*
X152500Y41000I-394J0D01*
G01*
X100250Y43000D02*
Y67500D01*
Y43000D02*
X126750D01*
Y67500D01*
X125926D02*
X126750D01*
X100250D02*
X101074D01*
X114842Y14319D02*
Y16681D01*
X120158Y14319D02*
Y16681D01*
D11*
X134200Y63300D02*
Y65700D01*
X141800Y63300D02*
Y65700D01*
X140051Y36847D02*
X148949D01*
X140051Y45153D02*
X148949D01*
D12*
X134000Y52000D02*
X156000D01*
Y30500D02*
Y52000D01*
X134000Y30500D02*
X156000D01*
X134000D02*
Y52000D01*
D13*
X140335Y22501D02*
Y26499D01*
X141668Y25166D01*
X143001Y26499D01*
Y22501D01*
X144334D02*
Y26499D01*
X146333D01*
X146999Y25833D01*
Y24500D01*
X146333Y23833D01*
X144334D01*
X148332Y22501D02*
X149665D01*
X148999D01*
Y26499D01*
X148332Y25833D01*
X145334Y58999D02*
Y55001D01*
X147334D01*
X148000Y55667D01*
Y58333D01*
X147334Y58999D01*
X145334D01*
X149333Y55001D02*
X150666D01*
X149999D01*
Y58999D01*
X149333Y58333D01*
X92834Y73499D02*
Y70167D01*
X93501Y69501D01*
X94834D01*
X95500Y70167D01*
Y73499D01*
X96833Y69501D02*
X98166D01*
X97499D01*
Y73499D01*
X96833Y72833D01*
X136334Y73501D02*
Y77499D01*
X138333D01*
X139000Y76833D01*
Y75500D01*
X138333Y74834D01*
X136334D01*
X137667D02*
X139000Y73501D01*
X140333D02*
X141666D01*
X140999D01*
Y77499D01*
X140333Y76833D01*
X106667Y15500D02*
X106001Y14833D01*
Y13501D01*
X106667Y12834D01*
X109333D01*
X109999Y13501D01*
Y14833D01*
X109333Y15500D01*
X109999Y16833D02*
Y18166D01*
Y17499D01*
X106001D01*
X106667Y16833D01*
M02*
