G04*
G04 #@! TF.GenerationSoftware,Altium Limited,Altium Designer,20.0.10 (225)*
G04*
G04 Layer_Color=8388736*
%FSLAX25Y25*%
%MOIN*%
G70*
G01*
G75*
%ADD10C,0.00787*%
G36*
X115480Y53063D02*
Y53061D01*
Y53059D01*
Y53054D01*
Y53047D01*
Y53037D01*
Y53026D01*
X115478Y53001D01*
Y52968D01*
X115477Y52932D01*
X115473Y52890D01*
X115469Y52846D01*
X115464Y52799D01*
X115458Y52750D01*
X115444Y52650D01*
X115433Y52599D01*
X115422Y52552D01*
X115407Y52504D01*
X115393Y52460D01*
X115391Y52459D01*
X115389Y52451D01*
X115384Y52439D01*
X115376Y52424D01*
X115366Y52404D01*
X115355Y52382D01*
X115340Y52359D01*
X115322Y52331D01*
X115302Y52302D01*
X115280Y52273D01*
X115254Y52244D01*
X115225Y52213D01*
X115194Y52182D01*
X115162Y52153D01*
X115123Y52124D01*
X115083Y52096D01*
X115082Y52095D01*
X115073Y52091D01*
X115060Y52084D01*
X115043Y52075D01*
X115020Y52064D01*
X114994Y52053D01*
X114962Y52040D01*
X114927Y52027D01*
X114885Y52015D01*
X114841Y52002D01*
X114794Y51991D01*
X114741Y51980D01*
X114685Y51971D01*
X114625Y51964D01*
X114563Y51960D01*
X114496Y51958D01*
X114461D01*
X114437Y51960D01*
X114406Y51962D01*
X114372Y51965D01*
X114332Y51969D01*
X114290Y51973D01*
X114244Y51980D01*
X114197Y51987D01*
X114150Y51998D01*
X114101Y52009D01*
X114053Y52024D01*
X114004Y52040D01*
X113959Y52058D01*
X113915Y52080D01*
X113913Y52082D01*
X113906Y52086D01*
X113893Y52093D01*
X113879Y52102D01*
X113860Y52115D01*
X113839Y52131D01*
X113817Y52149D01*
X113791Y52169D01*
X113766Y52193D01*
X113738Y52220D01*
X113711Y52248D01*
X113686Y52280D01*
X113660Y52313D01*
X113637Y52351D01*
X113615Y52390D01*
X113595Y52431D01*
X113593Y52435D01*
X113591Y52442D01*
X113585Y52455D01*
X113580Y52473D01*
X113573Y52497D01*
X113566Y52526D01*
X113556Y52559D01*
X113547Y52597D01*
X113538Y52641D01*
X113529Y52688D01*
X113522Y52739D01*
X113515Y52795D01*
X113509Y52855D01*
X113504Y52921D01*
X113502Y52990D01*
X113500Y53063D01*
Y54519D01*
X113833D01*
Y53065D01*
Y53061D01*
Y53050D01*
Y53034D01*
X113835Y53012D01*
Y52985D01*
X113837Y52954D01*
X113839Y52919D01*
X113840Y52881D01*
X113844Y52843D01*
X113848Y52803D01*
X113858Y52723D01*
X113866Y52684D01*
X113873Y52646D01*
X113882Y52612D01*
X113893Y52581D01*
Y52579D01*
X113897Y52573D01*
X113900Y52566D01*
X113906Y52555D01*
X113911Y52542D01*
X113920Y52528D01*
X113942Y52493D01*
X113971Y52455D01*
X113988Y52435D01*
X114008Y52415D01*
X114028Y52395D01*
X114051Y52377D01*
X114075Y52359D01*
X114102Y52342D01*
X114104D01*
X114110Y52338D01*
X114117Y52335D01*
X114130Y52329D01*
X114144Y52322D01*
X114161Y52315D01*
X114181Y52308D01*
X114204Y52300D01*
X114230Y52293D01*
X114257Y52286D01*
X114286Y52279D01*
X114319Y52271D01*
X114354Y52266D01*
X114390Y52262D01*
X114426Y52260D01*
X114466Y52258D01*
X114483D01*
X114501Y52260D01*
X114526D01*
X114557Y52264D01*
X114590Y52267D01*
X114628Y52273D01*
X114670Y52279D01*
X114712Y52288D01*
X114756Y52298D01*
X114799Y52313D01*
X114843Y52328D01*
X114885Y52348D01*
X114923Y52369D01*
X114960Y52395D01*
X114991Y52424D01*
X114992Y52426D01*
X114998Y52431D01*
X115005Y52442D01*
X115014Y52457D01*
X115027Y52477D01*
X115040Y52502D01*
X115054Y52531D01*
X115069Y52568D01*
X115083Y52608D01*
X115098Y52653D01*
X115111Y52706D01*
X115123Y52764D01*
X115132Y52830D01*
X115140Y52901D01*
X115145Y52979D01*
X115147Y53065D01*
Y54519D01*
X115480D01*
Y53063D01*
D02*
G37*
G36*
X117075Y52000D02*
X116765D01*
Y53969D01*
X116763Y53967D01*
X116760Y53964D01*
X116754Y53958D01*
X116745Y53951D01*
X116734Y53942D01*
X116720Y53929D01*
X116703Y53917D01*
X116687Y53902D01*
X116665Y53887D01*
X116643Y53869D01*
X116620Y53853D01*
X116594Y53833D01*
X116565Y53815D01*
X116536Y53794D01*
X116470Y53755D01*
X116468Y53753D01*
X116463Y53749D01*
X116452Y53744D01*
X116439Y53738D01*
X116425Y53729D01*
X116407Y53718D01*
X116385Y53707D01*
X116363Y53694D01*
X116312Y53669D01*
X116257Y53644D01*
X116201Y53618D01*
X116146Y53596D01*
Y53895D01*
X116150Y53896D01*
X116157Y53900D01*
X116172Y53907D01*
X116190Y53917D01*
X116212Y53927D01*
X116239Y53942D01*
X116268Y53958D01*
X116299Y53977D01*
X116334Y53998D01*
X116370Y54020D01*
X116447Y54071D01*
X116525Y54128D01*
X116600Y54189D01*
X116601Y54191D01*
X116609Y54197D01*
X116618Y54206D01*
X116630Y54219D01*
X116647Y54235D01*
X116665Y54253D01*
X116685Y54275D01*
X116707Y54297D01*
X116729Y54322D01*
X116752Y54350D01*
X116798Y54406D01*
X116840Y54466D01*
X116858Y54497D01*
X116874Y54528D01*
X117075D01*
Y52000D01*
D02*
G37*
D10*
X99856Y29731D02*
Y74269D01*
Y29731D02*
X127144D01*
Y74269D01*
X99856D02*
X127144D01*
M02*
