M48
;Layer_Color=9474304
;FILE_FORMAT=2:5
INCH,TZ
;TYPE=PLATED
T1F00S00C0.01500
T2F00S00C0.02756
T3F00S00C0.03543
T4F00S00C0.03900
T5F00S00C0.03937
T6F00S00C0.04173
T7F00S00C0.04331
T8F00S00C0.05500
T9F00S00C0.05700
T10F00S00C0.06693
T11F00S00C0.06900
;TYPE=NON_PLATED
T12F00S00C0.06299
T13F00S00C0.07900
T14F00S00C0.12500
%
T01
X975000Y480000
X990000
X1005000
X1012500Y495000
Y525000
X1005000Y540000
X1012500Y555000
X997500
X1005000Y570000
X990000
X975000
X960000
X945000
X952500Y585000
X967500
X982500
X997500
X1012500
X1005000Y600000
X1012500Y615000
X997500
X982500
X968000Y616000
X960000
X952000
X944000
X948000Y624000
X956000
X964000
X972000
Y608000
X964000
X956000
X960000Y600000
X968000
X952000
X937500Y585000
X945000Y540000
X960000
X975000
X952500Y525000
X937500
X945000Y510000
X930000
Y540000
X915000
X900000
X907500Y555000
X922500
X915000Y570000
X900000
X885000
X892500Y585000
X877500
X862500
X847500
X832500
X840000Y570000
X825000
X810000
X795000
X787500Y585000
X795000Y600000
X810000
X825000
X832500Y615000
X847500
X862500
X896000Y616000
X912000
X920000
X928000
X916000Y624000
X936000Y600000
X922500Y585000
X892500Y555000
X870000Y540000
X877500Y525000
X885000Y510000
X900000
X870000
X855000
X847500Y525000
X832500
X817500
X802500
X787500
X795000Y540000
X810000
X825000
X840000
X847500Y555000
X832500
X787500
X795000Y510000
X802500Y495000
X817500
X825000Y480000
X810000
X795000
X787500Y495000
Y615000
X802500
X817500
X915000Y480000
X780000
X765000
X750000
X735000
X720000
X727500Y495000
X712500
X720000Y510000
X727500Y525000
X712500
X720000Y540000
X735000
X742500Y555000
X740500Y563000
X735000Y570000
X742500Y585000
X757500
X772500
X765000Y570000
X757500Y555000
X765000Y540000
X772500Y525000
X757500
X727500Y555000
X712500
Y585000
X727500
X735000Y600000
X720000
X727500Y615000
X742500
X712500
X660000Y616000
X652000
X644000
X648000Y608000
X656000
X660000Y600000
X652000
X644000
X648000Y592000
X656000
X660000Y584000
X652000
X644000
X648000Y576000
X656000
X660000Y568000
X652000
X644000
X648000Y560000
X656000
X652000Y552000
X644000
X648000Y544000
X656000
X660000Y536000
X652000
X644000
X648000Y528000
X656000
X660000Y520000
X652000
X644000
X648000Y512000
X656000
X660000Y504000
X652000
X644000
X648000Y496000
X656000
X660000Y488000
X652000
X644000
X640000Y496000
Y512000
Y528000
Y544000
Y560000
Y576000
Y592000
Y608000
X697500Y645000
X712500
X727500
X742500
X757500
X765000Y660000
X750000
X757500Y675000
X742500
X727500
X712500
X697500
X705000Y690000
X690000
X697500Y705000
X705000Y720000
X690000
X705000Y750000
X720000
X735000
X737500Y745500
X750000Y750000
X756000Y767000
Y775000
X764250
Y767000
X772500
Y775000
Y735000
X780000Y720000
X765000
X750000
X742500Y705000
X727500Y735000
Y765000
X712500
X697500
X705000Y660000
X720000
X690000
X716500Y631500
X795000Y660000
X787500Y675000
X817500
X825000Y660000
X840000
X847500Y675000
X840000Y690000
X870000
X885000
X900000Y688000
X908000
X912000Y696000
X904000
X908000Y704000
X892500Y705000
X900000Y720000
X915000
X930000
X932000Y704000
X936000Y696000
X932000Y688000
X928000Y680000
X920000
X924000Y672000
X916000
X908000
X900000
X892000
X896000Y680000
Y664000
X904000
X912000
X920000
X916000Y656000
X908000
X900000
X892000
X884000
X888000Y664000
Y648000
X896000
X904000
X912000
X920000
X928000
X936000
X932000Y656000
X936000Y664000
Y632000
X920000
X907500Y633000
X899500Y629000
X888000Y632000
X880000
X870000Y630000
X855000
X840000
X825000
X880000Y648000
X870000Y660000
Y720000
X885000
X855000
X832500Y735000
X817500
X802500
X787500
X795000Y750000
X810000
X817500Y765000
X832500
X840000Y750000
X802500Y765000
X787500
X795000Y720000
X810000
X817500Y705000
X948000Y704000
X956000
X964000
X972000
X982500Y705000
X997500
X1012500
X1005000Y720000
X990000
X975000
X960000
X945000
X944000Y680000
X952000
X960000
X968000
X972000Y688000
X964000
X968000Y696000
X990000Y690000
X1005000
X1012500Y675000
X997500
X982500
X972000Y672000
X964000
X956000
X948000
X940000
X944000Y664000
X952000
X960000
X968000
X972000Y656000
X964000
X956000
X948000
X940000
X944000Y648000
X952000
X960000
X968000
X972000Y640000
X964000
X956000
X960000Y632000
X968000
X990000Y630000
X1005000
X1012500Y645000
X997500
X982500
X990000Y660000
X1005000
T02
X816063Y489335
X823937
X778248Y709000
X770374
X762500
X754626
X727437Y740665
X719563
X786122Y709000
X793996
X801870
X809744
T03
X900752Y520500
X908626
X916500
X924374
X779248Y745500
X771374
X763500
X735500Y710874
X727626
X719752
X711878
X704004
Y703000
X711878
X719752
X727626
X735500
T04
X731787Y532000
X741630
X751473
X761315
X771158
X781000
T05
X985500Y508000
X995500
X1005500
X671500Y496000
Y525528
Y574472
Y604000
X702079Y771567
X711921
T06
X835000Y705000
X844843
X854685
X864528
T07
X960815Y528433
X970658
X980500
X990343
X1000185
T08
X824201Y532000
X840500
T09
X646500Y655000
X666500
Y692500
X646500
Y730000
X666500
Y767500
X646500
T10
X921311Y695342
X952689
T11
X946653Y607087
X938779Y622835
X923031
X907283
X891435
X875787
X860039
X844291
X828643
X812795
X797047
X781299
X789173Y607087
X804921
X820669
X836417
X852165
X867913
X883661
X899409
X915158
X930906
X773425
Y638583
X789173
X804921
X820669
X836417
X852165
X867913
X883661
X899409
X915158
X930906
X946653
T12
X907728Y678217
T13
X990748Y594095
X729331
X735236Y665354
X984842
T14
X858000Y532000
M30
