%TF.GenerationSoftware,Altium Limited,Altium Designer,20.0.11 (256)*%
G04 Layer_Color=8388736*
%FSLAX26Y26*%
%MOIN*%
%TF.FileFunction,Other,Top_Component_Outline*%
%TF.Part,Single*%
G01*
G75*
%TA.AperFunction,NonConductor*%
%ADD29C,0.007874*%
G36*
X1154820Y530647D02*
Y530592D01*
Y530483D01*
Y530292D01*
Y530019D01*
X1154793Y529692D01*
X1154765Y529337D01*
X1154738Y528927D01*
X1154711Y528463D01*
X1154601Y527508D01*
X1154465Y526497D01*
X1154246Y525515D01*
X1154110Y525051D01*
X1153946Y524614D01*
Y524586D01*
X1153919Y524505D01*
X1153864Y524395D01*
X1153782Y524231D01*
X1153673Y524040D01*
X1153564Y523822D01*
X1153236Y523331D01*
X1153045Y523030D01*
X1152827Y522757D01*
X1152554Y522430D01*
X1152281Y522129D01*
X1151953Y521829D01*
X1151626Y521529D01*
X1151244Y521256D01*
X1150834Y520983D01*
X1150807Y520956D01*
X1150725Y520928D01*
X1150616Y520846D01*
X1150425Y520764D01*
X1150206Y520655D01*
X1149933Y520546D01*
X1149633Y520409D01*
X1149251Y520300D01*
X1148868Y520164D01*
X1148432Y520027D01*
X1147940Y519918D01*
X1147421Y519809D01*
X1146848Y519727D01*
X1146248Y519645D01*
X1145620Y519618D01*
X1144965Y519591D01*
X1144610D01*
X1144364Y519618D01*
X1144064D01*
X1143736Y519645D01*
X1143326Y519700D01*
X1142917Y519754D01*
X1141989Y519891D01*
X1141006Y520109D01*
X1140051Y520409D01*
X1139586Y520573D01*
X1139150Y520792D01*
X1139122Y520819D01*
X1139040Y520846D01*
X1138931Y520928D01*
X1138795Y521010D01*
X1138604Y521147D01*
X1138385Y521310D01*
X1138167Y521474D01*
X1137921Y521693D01*
X1137375Y522184D01*
X1136856Y522785D01*
X1136365Y523494D01*
X1136147Y523904D01*
X1135956Y524313D01*
Y524341D01*
X1135928Y524423D01*
X1135874Y524559D01*
X1135819Y524750D01*
X1135737Y524969D01*
X1135655Y525269D01*
X1135573Y525596D01*
X1135491Y525979D01*
X1135382Y526415D01*
X1135300Y526880D01*
X1135218Y527398D01*
X1135164Y527972D01*
X1135082Y528572D01*
X1135055Y529227D01*
X1135000Y529910D01*
Y530647D01*
Y545198D01*
X1138331D01*
Y530647D01*
Y530620D01*
Y530510D01*
Y530347D01*
Y530101D01*
X1138358Y529828D01*
Y529528D01*
X1138385Y529173D01*
X1138412Y528818D01*
X1138467Y528026D01*
X1138576Y527235D01*
X1138740Y526470D01*
X1138822Y526115D01*
X1138931Y525815D01*
Y525788D01*
X1138958Y525760D01*
X1138986Y525678D01*
X1139040Y525569D01*
X1139204Y525269D01*
X1139423Y524941D01*
X1139696Y524532D01*
X1140051Y524150D01*
X1140487Y523767D01*
X1141006Y523413D01*
X1141033D01*
X1141088Y523385D01*
X1141170Y523331D01*
X1141279Y523276D01*
X1141416Y523221D01*
X1141607Y523167D01*
X1141798Y523085D01*
X1142016Y523003D01*
X1142562Y522866D01*
X1143190Y522730D01*
X1143900Y522621D01*
X1144664Y522593D01*
X1145019D01*
X1145265Y522621D01*
X1145565Y522648D01*
X1145920Y522675D01*
X1146302Y522730D01*
X1146712Y522812D01*
X1147558Y523003D01*
X1147995Y523139D01*
X1148432Y523303D01*
X1148841Y523494D01*
X1149223Y523713D01*
X1149578Y523958D01*
X1149906Y524259D01*
X1149933Y524286D01*
X1149988Y524341D01*
X1150042Y524450D01*
X1150151Y524586D01*
X1150261Y524778D01*
X1150397Y525023D01*
X1150561Y525323D01*
X1150697Y525678D01*
X1150834Y526088D01*
X1150998Y526552D01*
X1151134Y527071D01*
X1151244Y527644D01*
X1151353Y528299D01*
X1151435Y529009D01*
X1151462Y529801D01*
X1151489Y530647D01*
Y545198D01*
X1154820D01*
Y530647D01*
D02*
G37*
G36*
X1170763Y520000D02*
X1167678D01*
Y539683D01*
X1167623Y539629D01*
X1167487Y539492D01*
X1167241Y539301D01*
X1166886Y539028D01*
X1166477Y538701D01*
X1165958Y538346D01*
X1165385Y537963D01*
X1164730Y537554D01*
X1164702D01*
X1164648Y537499D01*
X1164566Y537445D01*
X1164429Y537390D01*
X1164266Y537281D01*
X1164074Y537199D01*
X1163638Y536953D01*
X1163146Y536708D01*
X1162600Y536435D01*
X1162027Y536189D01*
X1161481Y535971D01*
Y538946D01*
X1161508Y538973D01*
X1161590Y539001D01*
X1161727Y539083D01*
X1161918Y539165D01*
X1162136Y539274D01*
X1162409Y539438D01*
X1162709Y539601D01*
X1163010Y539765D01*
X1163720Y540202D01*
X1164484Y540721D01*
X1165276Y541267D01*
X1166013Y541895D01*
X1166040Y541922D01*
X1166095Y541976D01*
X1166204Y542058D01*
X1166340Y542195D01*
X1166477Y542359D01*
X1166668Y542523D01*
X1167078Y542987D01*
X1167542Y543478D01*
X1168006Y544051D01*
X1168415Y544652D01*
X1168770Y545280D01*
X1170763D01*
Y520000D01*
D02*
G37*
D29*
X998563Y297313D02*
Y742687D01*
Y297313D02*
X1271437D01*
Y742687D01*
X998563D02*
X1271437D01*
%TF.MD5,eb01c43e8e1780fedfda151bd33b8771*%
M02*
