%TF.GenerationSoftware,Altium Limited,Altium Designer,20.0.11 (256)*%
G04 Layer_Color=65535*
%FSLAX26Y26*%
%MOIN*%
%TF.FileFunction,Legend,Top*%
%TF.Part,Single*%
G01*
G75*
%TA.AperFunction,NonConductor*%
%ADD22C,0.010000*%
%ADD24C,0.007000*%
%ADD29C,0.007874*%
%ADD30C,0.005000*%
G36*
X1449113Y178970D02*
X1449841Y178658D01*
X1450674Y178242D01*
X1451507Y177513D01*
X1452236Y176576D01*
X1529686Y42391D01*
X1529790Y42287D01*
X1529894Y41975D01*
X1530103Y41454D01*
X1530207Y40725D01*
X1530311Y39997D01*
Y39164D01*
X1530103Y38227D01*
X1529686Y37394D01*
X1529582Y37290D01*
X1529374Y36978D01*
X1529062Y36666D01*
X1528645Y36249D01*
X1528021Y35729D01*
X1527292Y35416D01*
X1526563Y35104D01*
X1525626Y35000D01*
X1369997D01*
X1369476Y35104D01*
X1368852Y35312D01*
X1368123Y35625D01*
X1367394Y36041D01*
X1366770Y36562D01*
X1366145Y37394D01*
Y37498D01*
X1365937Y37811D01*
X1365833Y38227D01*
X1365729Y38852D01*
X1365625Y39580D01*
Y40517D01*
X1365833Y41454D01*
X1366145Y42391D01*
X1443804Y176576D01*
X1443908Y176680D01*
X1444012Y176888D01*
X1444220Y177201D01*
X1444637Y177513D01*
X1445157Y177929D01*
X1445782Y178346D01*
X1446510Y178762D01*
X1447343Y179074D01*
X1448384D01*
X1449113Y178970D01*
D02*
G37*
%LPC*%
G36*
X1448072Y163564D02*
X1382072Y47700D01*
X1513863D01*
X1448072Y163564D01*
D02*
G37*
%LPD*%
G36*
X1442242Y96003D02*
X1462333Y104122D01*
X1452236Y66542D01*
X1455983D01*
X1447343Y53426D01*
X1442554Y67063D01*
X1446302D01*
X1453277Y91422D01*
X1433602Y83406D01*
X1446302Y128482D01*
X1456296D01*
X1442242Y96003D01*
D02*
G37*
D22*
X1338941Y516457D02*
X1558941D01*
Y301457D02*
Y516457D01*
X1338941Y301457D02*
X1558941D01*
X1338941D02*
Y516457D01*
D24*
X1402289Y221463D02*
Y261450D01*
X1415618Y248121D01*
X1428947Y261450D01*
Y221463D01*
X1442276D02*
Y261450D01*
X1462270D01*
X1468934Y254786D01*
Y241457D01*
X1462270Y234792D01*
X1442276D01*
X1482264Y221463D02*
X1495592D01*
X1488928D01*
Y261450D01*
X1482264Y254786D01*
X1453342Y589994D02*
Y550006D01*
X1473335D01*
X1480000Y556671D01*
Y583329D01*
X1473335Y589994D01*
X1453342D01*
X1493329Y550006D02*
X1506658D01*
X1499994D01*
Y589994D01*
X1493329Y583329D01*
X928342Y734994D02*
Y701671D01*
X935006Y695006D01*
X948336D01*
X955000Y701671D01*
Y734994D01*
X968329Y695006D02*
X981658D01*
X974994D01*
Y734994D01*
X968329Y728329D01*
X1363342Y735006D02*
Y774994D01*
X1383335D01*
X1390000Y768329D01*
Y755000D01*
X1383335Y748336D01*
X1363342D01*
X1376671D02*
X1390000Y735006D01*
X1403329D02*
X1416658D01*
X1409994D01*
Y774994D01*
X1403329Y768329D01*
X1066671Y155000D02*
X1060006Y148335D01*
Y135006D01*
X1066671Y128342D01*
X1093329D01*
X1099994Y135006D01*
Y148335D01*
X1093329Y155000D01*
X1099994Y168329D02*
Y181658D01*
Y174994D01*
X1060006D01*
X1066671Y168329D01*
D29*
X1525000Y410000D02*
G03*
X1525000Y410000I-3937J0D01*
G01*
X1002500Y430000D02*
Y675000D01*
Y430000D02*
X1267500D01*
Y675000D01*
X1259264D02*
X1267500D01*
X1002500D02*
X1010736D01*
X1148425Y143189D02*
Y166811D01*
X1201575Y143189D02*
Y166811D01*
D30*
X1342000Y633000D02*
Y657000D01*
X1418000Y633000D02*
Y657000D01*
X1400512Y368465D02*
X1489488D01*
X1400512Y451535D02*
X1489488D01*
%TF.MD5,67f0f75bfbf7c093038004621c948334*%
M02*
