%TF.GenerationSoftware,Altium Limited,Altium Designer,20.0.11 (256)*%
G04 Layer_Color=32896*
%FSLAX26Y26*%
%MOIN*%
%TF.FileFunction,Legend,Bot*%
%TF.Part,Single*%
G01*
G75*
%TA.AperFunction,NonConductor*%
%ADD21C,0.006000*%
%ADD22C,0.008000*%
%ADD23C,0.010000*%
%ADD24C,0.007000*%
G36*
X522646Y505273D02*
X523335D01*
Y504584D01*
X524024D01*
Y503895D01*
X524713D01*
Y503206D01*
X525402D01*
Y502517D01*
X526091D01*
Y501828D01*
X526780D01*
Y501139D01*
X527469D01*
Y500450D01*
X528158D01*
Y499761D01*
X528847D01*
Y499072D01*
X529536D01*
Y498383D01*
X530225D01*
Y497694D01*
X530914D01*
Y497005D01*
X531603D01*
Y496316D01*
X532292D01*
Y495627D01*
X532981D01*
Y494939D01*
X533669D01*
Y494250D01*
X534358D01*
Y493561D01*
X535047D01*
Y492872D01*
X535736D01*
Y492183D01*
X536425D01*
Y491494D01*
X537114D01*
Y490805D01*
X537803D01*
Y490116D01*
X538492D01*
Y489427D01*
X539181D01*
Y488738D01*
X539870D01*
Y488049D01*
X540559D01*
Y487360D01*
X541248D01*
Y486671D01*
X541937D01*
Y485982D01*
X542626D01*
Y485293D01*
X543315D01*
Y484604D01*
X544004D01*
Y483915D01*
X544693D01*
Y483226D01*
X545382D01*
Y482538D01*
X546071D01*
Y481849D01*
X546760D01*
Y481160D01*
X547448D01*
Y480471D01*
X548137D01*
Y479782D01*
X548826D01*
Y479093D01*
X549515D01*
Y478404D01*
X550204D01*
Y477715D01*
X550893D01*
Y477026D01*
X551582D01*
Y476337D01*
X552271D01*
Y475648D01*
X552960D01*
Y474959D01*
X553649D01*
Y474270D01*
X554338D01*
Y473581D01*
X555027D01*
Y472892D01*
X555716D01*
Y472203D01*
X556405D01*
Y471514D01*
X557094D01*
Y470825D01*
X557783D01*
Y470136D01*
X558472D01*
Y469447D01*
X559160D01*
Y468759D01*
X559850D01*
Y468070D01*
X560538D01*
Y467380D01*
X561227D01*
Y466692D01*
X561916D01*
Y466003D01*
X562605D01*
Y465314D01*
X563294D01*
Y464625D01*
X563983D01*
Y463936D01*
X564672D01*
Y463247D01*
X565361D01*
Y462558D01*
X566050D01*
Y461869D01*
X566739D01*
Y461180D01*
X567428D01*
Y460491D01*
X566739D01*
Y459802D01*
Y459113D01*
Y458424D01*
X567428D01*
Y457735D01*
X566739D01*
Y457046D01*
Y456357D01*
Y455668D01*
X567428D01*
Y454979D01*
X566739D01*
Y454291D01*
Y453602D01*
Y452913D01*
X567428D01*
Y452224D01*
X566739D01*
Y451535D01*
Y450846D01*
Y450157D01*
X567428D01*
Y449468D01*
X566739D01*
Y448779D01*
Y448090D01*
Y447401D01*
X567428D01*
Y446712D01*
X566739D01*
Y446023D01*
Y445334D01*
Y444645D01*
X567428D01*
Y443956D01*
X566739D01*
Y443267D01*
Y442579D01*
Y441889D01*
X567428D01*
Y441200D01*
X566739D01*
Y440512D01*
Y439823D01*
Y439134D01*
X567428D01*
Y438445D01*
X566739D01*
Y437756D01*
Y437067D01*
Y436378D01*
X567428D01*
Y435689D01*
X566739D01*
Y435000D01*
Y434311D01*
Y433622D01*
X567428D01*
Y432933D01*
X566739D01*
Y432244D01*
Y431555D01*
Y430866D01*
X567428D01*
Y430177D01*
X566739D01*
Y429488D01*
Y428800D01*
Y428111D01*
X567428D01*
Y427422D01*
X566739D01*
Y426733D01*
Y426044D01*
Y425355D01*
X567428D01*
Y424666D01*
X566739D01*
Y423977D01*
Y423288D01*
Y422599D01*
X567428D01*
Y421910D01*
X566739D01*
Y421221D01*
Y420532D01*
Y419843D01*
X567428D01*
Y419154D01*
X566739D01*
Y418465D01*
Y417776D01*
Y417087D01*
X567428D01*
Y416398D01*
X566739D01*
Y415709D01*
Y415021D01*
Y414332D01*
X567428D01*
Y413643D01*
X566739D01*
Y412954D01*
Y412265D01*
Y411576D01*
X567428D01*
Y410887D01*
X566739D01*
Y410198D01*
Y409509D01*
Y408820D01*
X567428D01*
Y408131D01*
X566739D01*
Y407442D01*
Y406753D01*
Y406064D01*
X567428D01*
Y405375D01*
X566739D01*
Y404686D01*
Y403997D01*
Y403308D01*
X567428D01*
Y402619D01*
X566739D01*
Y401930D01*
Y401241D01*
Y400553D01*
X567428D01*
Y399864D01*
X566739D01*
Y399175D01*
Y398486D01*
Y397797D01*
X567428D01*
Y397108D01*
X566739D01*
Y396419D01*
Y395730D01*
Y395041D01*
X567428D01*
Y394352D01*
X566739D01*
Y393663D01*
Y392974D01*
Y392285D01*
X567428D01*
Y391596D01*
X566739D01*
Y390907D01*
Y390218D01*
Y389529D01*
X567428D01*
Y388840D01*
X566739D01*
Y388151D01*
Y387463D01*
Y386774D01*
X567428D01*
Y386085D01*
X566739D01*
Y385396D01*
Y384707D01*
Y384018D01*
X567428D01*
Y383329D01*
X566739D01*
Y382640D01*
Y381951D01*
Y381262D01*
X567428D01*
Y380573D01*
X566739D01*
Y379884D01*
Y379195D01*
Y378506D01*
X567428D01*
Y377817D01*
X566739D01*
Y377128D01*
Y376439D01*
Y375750D01*
X567428D01*
Y375062D01*
X566739D01*
Y374373D01*
Y373684D01*
Y372995D01*
X567428D01*
Y372306D01*
X566739D01*
Y371617D01*
Y370928D01*
Y370239D01*
X567428D01*
Y369550D01*
X566739D01*
Y368861D01*
Y368172D01*
Y367483D01*
X567428D01*
Y366794D01*
X566739D01*
Y366105D01*
Y365416D01*
Y364727D01*
X567428D01*
Y364038D01*
X566739D01*
Y363349D01*
Y362660D01*
Y361971D01*
X567428D01*
Y361283D01*
X566739D01*
Y360594D01*
Y359905D01*
Y359216D01*
X567428D01*
Y358527D01*
X566739D01*
Y357838D01*
Y357149D01*
Y356460D01*
X567428D01*
Y355771D01*
X566739D01*
Y355082D01*
Y354393D01*
Y353704D01*
X567428D01*
Y353015D01*
X566739D01*
Y352326D01*
X567428D01*
Y351637D01*
X568117D01*
Y350948D01*
X568806D01*
Y350259D01*
X569495D01*
Y349570D01*
X570184D01*
Y348881D01*
X570873D01*
Y348192D01*
X571562D01*
Y347503D01*
X572251D01*
Y346815D01*
X572939D01*
Y346126D01*
X573628D01*
Y345437D01*
X574317D01*
Y344748D01*
X575006D01*
Y344059D01*
X575695D01*
Y343370D01*
X576384D01*
Y342681D01*
X577073D01*
Y341992D01*
X577762D01*
Y341303D01*
X578451D01*
Y340614D01*
X579140D01*
Y339925D01*
X578451D01*
Y339236D01*
X577762D01*
Y338547D01*
X577073D01*
Y337858D01*
X576384D01*
Y337169D01*
X575695D01*
Y336480D01*
X575006D01*
Y335791D01*
X574317D01*
Y335102D01*
X573628D01*
Y334413D01*
X572939D01*
Y333724D01*
X572251D01*
Y333036D01*
X571562D01*
Y332347D01*
X570873D01*
Y331658D01*
X570184D01*
Y330969D01*
X569495D01*
Y330280D01*
X568806D01*
Y329591D01*
X568117D01*
Y328902D01*
X567428D01*
Y328213D01*
X566739D01*
Y327524D01*
X566050D01*
Y326835D01*
X565361D01*
Y326146D01*
X564672D01*
Y325457D01*
X563983D01*
Y324768D01*
X563294D01*
Y324079D01*
X562605D01*
Y323390D01*
X561916D01*
Y322701D01*
X561227D01*
Y322012D01*
X560538D01*
Y321324D01*
X559850D01*
Y320635D01*
X559160D01*
Y319946D01*
X558472D01*
Y319257D01*
X557783D01*
Y318568D01*
X557094D01*
Y317879D01*
X556405D01*
Y317190D01*
X555716D01*
Y316501D01*
X555027D01*
Y315812D01*
X554338D01*
Y315123D01*
X553649D01*
Y314434D01*
X552960D01*
Y313745D01*
X552271D01*
Y313056D01*
X551582D01*
Y313745D01*
X550893D01*
Y314434D01*
X550204D01*
Y315123D01*
X549515D01*
Y315812D01*
X548826D01*
Y316501D01*
X548137D01*
Y317190D01*
X547448D01*
Y317879D01*
X546760D01*
Y318568D01*
X546071D01*
Y319257D01*
X545382D01*
Y319946D01*
X544693D01*
Y320635D01*
X544004D01*
Y321324D01*
X543315D01*
Y322012D01*
X542626D01*
Y322701D01*
X541937D01*
Y323390D01*
X541248D01*
Y324079D01*
X540559D01*
Y324768D01*
X539870D01*
Y325457D01*
X539181D01*
Y326146D01*
X538492D01*
Y326835D01*
X537803D01*
Y327524D01*
X537114D01*
Y328213D01*
X536425D01*
Y328902D01*
X535736D01*
Y329591D01*
X535047D01*
Y330280D01*
X534358D01*
Y330969D01*
X533669D01*
Y331658D01*
X532981D01*
Y332347D01*
X532292D01*
Y333036D01*
X531603D01*
Y333724D01*
X530914D01*
Y334413D01*
X530225D01*
Y335102D01*
X529536D01*
Y335791D01*
X528847D01*
Y336480D01*
X528158D01*
Y337169D01*
X527469D01*
Y337858D01*
X526780D01*
Y338547D01*
X526091D01*
Y339236D01*
X525402D01*
Y339925D01*
X524713D01*
Y340614D01*
X525402D01*
Y341303D01*
X526091D01*
Y341992D01*
X526780D01*
Y342681D01*
X527469D01*
Y343370D01*
X528158D01*
Y344059D01*
X528847D01*
Y344748D01*
X529536D01*
Y345437D01*
X530225D01*
Y346126D01*
X530914D01*
Y346815D01*
X531603D01*
Y347503D01*
X532292D01*
Y348192D01*
X532981D01*
Y348881D01*
X533669D01*
Y349570D01*
X534358D01*
Y350259D01*
X535047D01*
Y350948D01*
X535736D01*
Y351637D01*
X536425D01*
Y352326D01*
X537114D01*
Y353015D01*
X536425D01*
Y353704D01*
X537114D01*
Y354393D01*
Y355082D01*
Y355771D01*
X536425D01*
Y356460D01*
X537114D01*
Y357149D01*
Y357838D01*
Y358527D01*
X536425D01*
Y359216D01*
X537114D01*
Y359905D01*
Y360594D01*
Y361283D01*
X536425D01*
Y361971D01*
X537114D01*
Y362660D01*
Y363349D01*
Y364038D01*
X536425D01*
Y364727D01*
X537114D01*
Y365416D01*
Y366105D01*
Y366794D01*
X536425D01*
Y367483D01*
X537114D01*
Y368172D01*
Y368861D01*
Y369550D01*
X536425D01*
Y370239D01*
X537114D01*
Y370928D01*
Y371617D01*
Y372306D01*
X536425D01*
Y372995D01*
X537114D01*
Y373684D01*
Y374373D01*
Y375062D01*
X536425D01*
Y375750D01*
X537114D01*
Y376439D01*
X536425D01*
Y377128D01*
X510934D01*
Y376439D01*
X511623D01*
Y375750D01*
X510934D01*
Y375062D01*
X511623D01*
Y374373D01*
X510934D01*
Y373684D01*
X511623D01*
Y372995D01*
X510934D01*
Y372306D01*
X511623D01*
Y371617D01*
X510934D01*
Y370928D01*
X511623D01*
Y370239D01*
X510934D01*
Y369550D01*
X511623D01*
Y368861D01*
X510934D01*
Y368172D01*
X511623D01*
Y367483D01*
X510934D01*
Y366794D01*
X511623D01*
Y366105D01*
X510934D01*
Y365416D01*
X511623D01*
Y364727D01*
X510934D01*
Y364038D01*
X511623D01*
Y363349D01*
X510934D01*
Y362660D01*
X511623D01*
Y361971D01*
X510934D01*
Y361283D01*
X511623D01*
Y360594D01*
X510934D01*
Y359905D01*
X511623D01*
Y359216D01*
X510934D01*
Y358527D01*
X511623D01*
Y357838D01*
X510934D01*
Y357149D01*
X511623D01*
Y356460D01*
X510934D01*
Y355771D01*
X511623D01*
Y355082D01*
X510934D01*
Y354393D01*
X511623D01*
Y353704D01*
X510934D01*
Y353015D01*
X511623D01*
Y352326D01*
Y351637D01*
X513001D01*
Y350948D01*
Y350259D01*
X514379D01*
Y349570D01*
Y348881D01*
X515757D01*
Y348192D01*
Y347503D01*
X517135D01*
Y346815D01*
X516446D01*
Y346126D01*
X518513D01*
Y345437D01*
Y344748D01*
X519890D01*
Y344059D01*
X519202D01*
Y343370D01*
X521268D01*
Y342681D01*
Y341992D01*
X522646D01*
Y341303D01*
X521957D01*
Y340614D01*
X524024D01*
Y339925D01*
X521957D01*
Y339236D01*
X522646D01*
Y338547D01*
X520579D01*
Y337858D01*
X521268D01*
Y337169D01*
X519202D01*
Y336480D01*
X519890D01*
Y335791D01*
X517824D01*
Y335102D01*
X518513D01*
Y334413D01*
X516446D01*
Y333724D01*
X517135D01*
Y333036D01*
X515068D01*
Y332347D01*
X515757D01*
Y331658D01*
X513690D01*
Y330969D01*
X514379D01*
Y330280D01*
X512312D01*
Y329591D01*
X513001D01*
Y328902D01*
X512312D01*
Y328213D01*
X511623D01*
Y327524D01*
X510934D01*
Y326835D01*
X510245D01*
Y327524D01*
X509556D01*
Y326835D01*
X510245D01*
Y326146D01*
X509556D01*
Y325457D01*
X508867D01*
Y324768D01*
X508178D01*
Y324079D01*
X507489D01*
Y324768D01*
X506800D01*
Y324079D01*
X507489D01*
Y323390D01*
X506800D01*
Y322701D01*
X506111D01*
Y322012D01*
X505423D01*
Y321324D01*
X504734D01*
Y322012D01*
X504045D01*
Y321324D01*
X504734D01*
Y320635D01*
X504045D01*
Y319946D01*
X503356D01*
Y319257D01*
X502667D01*
Y318568D01*
X501978D01*
Y319257D01*
X501289D01*
Y318568D01*
X501978D01*
Y317879D01*
X501289D01*
Y317190D01*
X500600D01*
Y316501D01*
X499911D01*
Y315812D01*
X499222D01*
Y315123D01*
X498533D01*
Y314434D01*
X497844D01*
Y313745D01*
X497155D01*
Y313056D01*
X496466D01*
Y313745D01*
X495777D01*
Y314434D01*
X495088D01*
Y315123D01*
X494399D01*
Y315812D01*
X493711D01*
Y316501D01*
X493021D01*
Y317190D01*
X492332D01*
Y317879D01*
X491644D01*
Y318568D01*
X490955D01*
Y319257D01*
X490266D01*
Y319946D01*
X489577D01*
Y320635D01*
X488888D01*
Y321324D01*
X488199D01*
Y322012D01*
X487510D01*
Y322701D01*
X486821D01*
Y323390D01*
X486132D01*
Y324079D01*
X485443D01*
Y324768D01*
X484754D01*
Y325457D01*
X484065D01*
Y326146D01*
X483376D01*
Y326835D01*
X482687D01*
Y327524D01*
X481998D01*
Y328213D01*
X481309D01*
Y328902D01*
X480620D01*
Y329591D01*
X479932D01*
Y330280D01*
X479243D01*
Y330969D01*
X478553D01*
Y331658D01*
X477865D01*
Y332347D01*
X477176D01*
Y333036D01*
X476487D01*
Y333724D01*
X475798D01*
Y334413D01*
X475109D01*
Y335102D01*
X474420D01*
Y335791D01*
X473731D01*
Y336480D01*
X473042D01*
Y337169D01*
X472353D01*
Y337858D01*
X471664D01*
Y338547D01*
X470975D01*
Y339236D01*
X470286D01*
Y339925D01*
X469597D01*
Y340614D01*
X470286D01*
Y341303D01*
X470975D01*
Y341992D01*
X471664D01*
Y342681D01*
X472353D01*
Y343370D01*
X473042D01*
Y344059D01*
X473731D01*
Y344748D01*
X474420D01*
Y345437D01*
X475109D01*
Y346126D01*
X475798D01*
Y346815D01*
X475109D01*
Y347503D01*
X477176D01*
Y348192D01*
X476487D01*
Y348881D01*
X478553D01*
Y349570D01*
X477865D01*
Y350259D01*
X479243D01*
Y350948D01*
Y351637D01*
X480620D01*
Y352326D01*
Y353015D01*
X481309D01*
Y353704D01*
X480620D01*
Y354393D01*
X481309D01*
Y355082D01*
X480620D01*
Y355771D01*
X481309D01*
Y356460D01*
X480620D01*
Y357149D01*
X481309D01*
Y357838D01*
X480620D01*
Y358527D01*
X481309D01*
Y359216D01*
X480620D01*
Y359905D01*
X481309D01*
Y360594D01*
X480620D01*
Y361283D01*
X481309D01*
Y361971D01*
X480620D01*
Y362660D01*
X481309D01*
Y363349D01*
X480620D01*
Y364038D01*
X481309D01*
Y364727D01*
X480620D01*
Y365416D01*
X481309D01*
Y366105D01*
X480620D01*
Y366794D01*
X481309D01*
Y367483D01*
X480620D01*
Y368172D01*
X481309D01*
Y368861D01*
X480620D01*
Y369550D01*
X481309D01*
Y370239D01*
X480620D01*
Y370928D01*
X481309D01*
Y371617D01*
X480620D01*
Y372306D01*
X481309D01*
Y372995D01*
X480620D01*
Y373684D01*
X481309D01*
Y374373D01*
X480620D01*
Y375062D01*
X481309D01*
Y375750D01*
X480620D01*
Y376439D01*
X481309D01*
Y377128D01*
X480620D01*
Y377817D01*
X481309D01*
Y378506D01*
X480620D01*
Y379195D01*
X481309D01*
Y379884D01*
X480620D01*
Y380573D01*
X481309D01*
Y381262D01*
X480620D01*
Y381951D01*
X481309D01*
Y382640D01*
X480620D01*
Y383329D01*
X481309D01*
Y384018D01*
X480620D01*
Y384707D01*
X481309D01*
Y385396D01*
X480620D01*
Y386085D01*
X481309D01*
Y386774D01*
X480620D01*
Y387463D01*
X481309D01*
Y388151D01*
X480620D01*
Y388840D01*
X481309D01*
Y389529D01*
X480620D01*
Y390218D01*
X481309D01*
Y390907D01*
X480620D01*
Y391596D01*
X481309D01*
Y392285D01*
X480620D01*
Y392974D01*
X481309D01*
Y393663D01*
X480620D01*
Y394352D01*
X481309D01*
Y395041D01*
X480620D01*
Y395730D01*
X481309D01*
Y396419D01*
X480620D01*
Y397108D01*
X481309D01*
Y397797D01*
X480620D01*
Y398486D01*
X481309D01*
Y399175D01*
X480620D01*
Y399864D01*
X481309D01*
Y400553D01*
X480620D01*
Y401241D01*
X481309D01*
Y401930D01*
X480620D01*
Y402619D01*
X481309D01*
Y403308D01*
X480620D01*
Y403997D01*
X481309D01*
Y404686D01*
X480620D01*
Y405375D01*
X481309D01*
Y406064D01*
X480620D01*
Y406753D01*
X481309D01*
Y407442D01*
X480620D01*
Y408131D01*
X481309D01*
Y408820D01*
X480620D01*
Y409509D01*
X481309D01*
Y410198D01*
X480620D01*
Y410887D01*
X481309D01*
Y411576D01*
X480620D01*
Y412265D01*
X481309D01*
Y412954D01*
X480620D01*
Y413643D01*
X481309D01*
Y414332D01*
X480620D01*
Y415021D01*
X481309D01*
Y415709D01*
X480620D01*
Y416398D01*
X481309D01*
Y417087D01*
X480620D01*
Y417776D01*
X481309D01*
Y418465D01*
X480620D01*
Y419154D01*
X481309D01*
Y419843D01*
X480620D01*
Y420532D01*
X481309D01*
Y421221D01*
X480620D01*
Y421910D01*
X481309D01*
Y422599D01*
X480620D01*
Y423288D01*
X481309D01*
Y423977D01*
X480620D01*
Y424666D01*
X481309D01*
Y425355D01*
X480620D01*
Y426044D01*
X481309D01*
Y426733D01*
X480620D01*
Y427422D01*
X481309D01*
Y428111D01*
X480620D01*
Y428800D01*
X481309D01*
Y429488D01*
X480620D01*
Y430177D01*
X481309D01*
Y430866D01*
X480620D01*
Y431555D01*
X481309D01*
Y432244D01*
X480620D01*
Y432933D01*
X481309D01*
Y433622D01*
X480620D01*
Y434311D01*
X481309D01*
Y435000D01*
X480620D01*
Y435689D01*
X481309D01*
Y436378D01*
X480620D01*
Y437067D01*
X481309D01*
Y437756D01*
X480620D01*
Y438445D01*
X481309D01*
Y439134D01*
X480620D01*
Y439823D01*
X481309D01*
Y440512D01*
X480620D01*
Y441200D01*
X481309D01*
Y441889D01*
X480620D01*
Y442579D01*
X481309D01*
Y443267D01*
X480620D01*
Y443956D01*
X481309D01*
Y444645D01*
X480620D01*
Y445334D01*
X481309D01*
Y446023D01*
X480620D01*
Y446712D01*
X481309D01*
Y447401D01*
X480620D01*
Y448090D01*
X481309D01*
Y448779D01*
X480620D01*
Y449468D01*
X481309D01*
Y450157D01*
X480620D01*
Y450846D01*
X481309D01*
Y451535D01*
X480620D01*
Y452224D01*
X481309D01*
Y452913D01*
X480620D01*
Y453602D01*
X481309D01*
Y454291D01*
X480620D01*
Y454979D01*
X481309D01*
Y455668D01*
X480620D01*
Y456357D01*
X481309D01*
Y457046D01*
X480620D01*
Y457735D01*
X481309D01*
Y458424D01*
X480620D01*
Y459113D01*
X481309D01*
Y459802D01*
X480620D01*
Y460491D01*
X481309D01*
Y461180D01*
X480620D01*
Y461869D01*
X481309D01*
Y462558D01*
X480620D01*
Y463247D01*
X481309D01*
Y463936D01*
X480620D01*
Y464625D01*
X481309D01*
Y465314D01*
X481998D01*
Y466003D01*
X482687D01*
Y466692D01*
X483376D01*
Y467380D01*
X484065D01*
Y468070D01*
X484754D01*
Y468759D01*
X485443D01*
Y469447D01*
X486132D01*
Y470136D01*
X486821D01*
Y470825D01*
X487510D01*
Y471514D01*
X488199D01*
Y472203D01*
X488888D01*
Y472892D01*
X489577D01*
Y473581D01*
X490266D01*
Y472892D01*
X490955D01*
Y473581D01*
X490266D01*
Y474270D01*
X490955D01*
Y474959D01*
X491644D01*
Y475648D01*
X492332D01*
Y476337D01*
X493021D01*
Y477026D01*
X493711D01*
Y477715D01*
X494399D01*
Y478404D01*
X495088D01*
Y479093D01*
X495777D01*
Y478404D01*
X496466D01*
Y479093D01*
X495777D01*
Y479782D01*
X496466D01*
Y480471D01*
X497155D01*
Y481160D01*
X497844D01*
Y481849D01*
X498533D01*
Y482538D01*
X499222D01*
Y483226D01*
X499911D01*
Y483915D01*
X500600D01*
Y484604D01*
X501289D01*
Y485293D01*
X501978D01*
Y485982D01*
X502667D01*
Y486671D01*
X503356D01*
Y487360D01*
X504045D01*
Y488049D01*
X504734D01*
Y488738D01*
X505423D01*
Y489427D01*
X506111D01*
Y490116D01*
X506800D01*
Y489427D01*
X507489D01*
Y490116D01*
X506800D01*
Y490805D01*
X507489D01*
Y491494D01*
X508178D01*
Y492183D01*
X508867D01*
Y492872D01*
X509556D01*
Y493561D01*
X510245D01*
Y494250D01*
X510934D01*
Y494939D01*
X511623D01*
Y495627D01*
X512312D01*
Y494939D01*
X513001D01*
Y495627D01*
X512312D01*
Y496316D01*
X513001D01*
Y497005D01*
X513690D01*
Y497694D01*
X514379D01*
Y498383D01*
X515068D01*
Y499072D01*
X515757D01*
Y499761D01*
X516446D01*
Y500450D01*
X517135D01*
Y501139D01*
X517824D01*
Y501828D01*
X518513D01*
Y502517D01*
X519202D01*
Y503206D01*
X519890D01*
Y503895D01*
X520579D01*
Y504584D01*
X521268D01*
Y505273D01*
X521957D01*
Y505962D01*
X522646D01*
Y505273D01*
D02*
G37*
G36*
X338008D02*
Y504584D01*
Y503895D01*
X338697D01*
Y503206D01*
X339386D01*
Y502517D01*
Y501828D01*
Y501139D01*
X340075D01*
Y500450D01*
X340764D01*
Y499761D01*
X340075D01*
Y499072D01*
X340764D01*
Y498383D01*
X341453D01*
Y497694D01*
X342142D01*
Y497005D01*
X341453D01*
Y496316D01*
X342142D01*
Y495627D01*
X342831D01*
Y494939D01*
Y494250D01*
Y493561D01*
X343520D01*
Y492872D01*
Y492183D01*
X344209D01*
Y491494D01*
Y490805D01*
X344897D01*
Y490116D01*
X344209D01*
Y489427D01*
X344897D01*
Y488738D01*
X345587D01*
Y488049D01*
X346275D01*
Y487360D01*
X345587D01*
Y486671D01*
X346275D01*
Y485982D01*
X346964D01*
Y485293D01*
Y484604D01*
Y483915D01*
X347653D01*
Y483226D01*
Y482538D01*
X348342D01*
Y481849D01*
Y481160D01*
X349031D01*
Y480471D01*
X348342D01*
Y479782D01*
X349031D01*
Y479093D01*
X349720D01*
Y478404D01*
X350409D01*
Y477715D01*
X349720D01*
Y477026D01*
X350409D01*
Y476337D01*
X351098D01*
Y475648D01*
Y474959D01*
Y474270D01*
X351787D01*
Y473581D01*
Y472892D01*
X353165D01*
Y472203D01*
X352476D01*
Y471514D01*
X353165D01*
Y470825D01*
Y470136D01*
Y469447D01*
X353854D01*
Y468759D01*
X354543D01*
Y468070D01*
X353854D01*
Y467380D01*
X354543D01*
Y466692D01*
X355232D01*
Y466003D01*
X355921D01*
Y465314D01*
X355232D01*
Y464625D01*
X355921D01*
Y463936D01*
X356610D01*
Y463247D01*
Y462558D01*
Y461869D01*
X357299D01*
Y461180D01*
X357988D01*
Y460491D01*
Y459802D01*
Y459113D01*
X358676D01*
Y458424D01*
Y457735D01*
Y457046D01*
X359365D01*
Y456357D01*
X360054D01*
Y455668D01*
X359365D01*
Y454979D01*
X360054D01*
Y454291D01*
X360743D01*
Y453602D01*
X361432D01*
Y452913D01*
X360743D01*
Y452224D01*
X361432D01*
Y451535D01*
X362121D01*
Y450846D01*
Y450157D01*
Y449468D01*
X362810D01*
Y448779D01*
Y448090D01*
X363499D01*
Y447401D01*
Y446712D01*
X364188D01*
Y446023D01*
X363499D01*
Y445334D01*
X364188D01*
Y444645D01*
X364877D01*
Y443956D01*
X365566D01*
Y443267D01*
X364877D01*
Y442579D01*
X365566D01*
Y441889D01*
X366255D01*
Y441200D01*
Y440512D01*
Y439823D01*
X366944D01*
Y439134D01*
Y438445D01*
X367633D01*
Y437756D01*
Y437067D01*
X368322D01*
Y436378D01*
X367633D01*
Y435689D01*
X368322D01*
Y435000D01*
X369011D01*
Y434311D01*
X369700D01*
Y433622D01*
Y432933D01*
Y432244D01*
X370389D01*
Y431555D01*
X371078D01*
Y430866D01*
X370389D01*
Y430177D01*
X371078D01*
Y429488D01*
X371767D01*
Y428800D01*
X372455D01*
Y428111D01*
X371767D01*
Y427422D01*
X372455D01*
Y426733D01*
Y426044D01*
X373144D01*
Y425355D01*
Y424666D01*
X373833D01*
Y423977D01*
Y423288D01*
Y422599D01*
X374522D01*
Y421910D01*
X375211D01*
Y421221D01*
X374522D01*
Y420532D01*
X375211D01*
Y419843D01*
X375900D01*
Y419154D01*
X376589D01*
Y418465D01*
X375900D01*
Y417776D01*
X376589D01*
Y417087D01*
X377278D01*
Y416398D01*
Y415709D01*
Y415021D01*
X377967D01*
Y414332D01*
Y413643D01*
Y412954D01*
X378656D01*
Y412265D01*
X379345D01*
Y411576D01*
X378656D01*
Y410887D01*
X379345D01*
Y410198D01*
X380034D01*
Y409509D01*
X380723D01*
Y408820D01*
X380034D01*
Y408131D01*
X380723D01*
Y407442D01*
X381412D01*
Y406753D01*
Y406064D01*
Y405375D01*
X382101D01*
Y404686D01*
X381412D01*
Y403997D01*
X380723D01*
Y404686D01*
X380034D01*
Y403997D01*
X377967D01*
Y404686D01*
X377278D01*
Y403997D01*
X375211D01*
Y404686D01*
X374522D01*
Y403997D01*
X372455D01*
Y404686D01*
X371767D01*
Y403997D01*
X369700D01*
Y404686D01*
X369011D01*
Y403997D01*
X366944D01*
Y404686D01*
X366255D01*
Y403997D01*
X364188D01*
Y404686D01*
X363499D01*
Y403997D01*
X361432D01*
Y404686D01*
X360743D01*
Y403997D01*
X358676D01*
Y404686D01*
X357988D01*
Y403997D01*
X355921D01*
Y404686D01*
X355232D01*
Y403997D01*
X353165D01*
Y404686D01*
X352476D01*
Y403997D01*
X350409D01*
Y404686D01*
X349720D01*
Y403997D01*
X349031D01*
Y403308D01*
X348342D01*
Y402619D01*
X349031D01*
Y401930D01*
Y401241D01*
X349720D01*
Y400553D01*
Y399864D01*
X350409D01*
Y399175D01*
X349720D01*
Y398486D01*
X350409D01*
Y397797D01*
Y397108D01*
Y396419D01*
X351098D01*
Y395730D01*
X351787D01*
Y395041D01*
X351098D01*
Y394352D01*
X351787D01*
Y393663D01*
Y392974D01*
X352476D01*
Y392285D01*
Y391596D01*
X353165D01*
Y390907D01*
X352476D01*
Y390218D01*
X353165D01*
Y389529D01*
Y388840D01*
X353854D01*
Y388151D01*
Y387463D01*
X354543D01*
Y386774D01*
X353854D01*
Y386085D01*
X354543D01*
Y385396D01*
X355232D01*
Y384707D01*
X355921D01*
Y384018D01*
X355232D01*
Y383329D01*
X355921D01*
Y382640D01*
X355232D01*
Y381951D01*
X355921D01*
Y381262D01*
X356610D01*
Y380573D01*
Y379884D01*
Y379195D01*
X357299D01*
Y378506D01*
X356610D01*
Y377817D01*
X357299D01*
Y377128D01*
X357988D01*
Y376439D01*
X358676D01*
Y375750D01*
X357988D01*
Y375062D01*
X358676D01*
Y374373D01*
X357988D01*
Y373684D01*
X358676D01*
Y372995D01*
X359365D01*
Y372306D01*
X360054D01*
Y371617D01*
X359365D01*
Y370928D01*
X360054D01*
Y370239D01*
Y369550D01*
Y368861D01*
X360743D01*
Y368172D01*
X361432D01*
Y367483D01*
X360743D01*
Y366794D01*
X361432D01*
Y366105D01*
Y365416D01*
Y364727D01*
X362121D01*
Y364038D01*
X362810D01*
Y363349D01*
X362121D01*
Y362660D01*
X362810D01*
Y361971D01*
X363499D01*
Y361283D01*
X362810D01*
Y360594D01*
X363499D01*
Y359905D01*
X364188D01*
Y359216D01*
X363499D01*
Y358527D01*
X364188D01*
Y357838D01*
X364877D01*
Y357149D01*
Y356460D01*
Y355771D01*
X365566D01*
Y355082D01*
X364877D01*
Y354393D01*
X365566D01*
Y353704D01*
X366255D01*
Y353015D01*
Y352326D01*
Y351637D01*
X366944D01*
Y350948D01*
Y350259D01*
Y349570D01*
X367633D01*
Y348881D01*
Y348192D01*
Y347503D01*
X368322D01*
Y346815D01*
X367633D01*
Y346126D01*
X368322D01*
Y345437D01*
X369011D01*
Y344748D01*
Y344059D01*
Y343370D01*
X369700D01*
Y342681D01*
Y341992D01*
Y341303D01*
X370389D01*
Y340614D01*
Y339925D01*
Y339236D01*
X371078D01*
Y338547D01*
Y337858D01*
Y337169D01*
X371767D01*
Y336480D01*
X372455D01*
Y335791D01*
X371767D01*
Y335102D01*
X372455D01*
Y334413D01*
Y333724D01*
Y333036D01*
X373144D01*
Y332347D01*
X373833D01*
Y331658D01*
X373144D01*
Y330969D01*
X373833D01*
Y330280D01*
Y329591D01*
X375211D01*
Y328902D01*
X374522D01*
Y328213D01*
X375211D01*
Y327524D01*
X374522D01*
Y326835D01*
X375211D01*
Y326146D01*
Y325457D01*
X375900D01*
Y324768D01*
Y324079D01*
X376589D01*
Y323390D01*
X375900D01*
Y322701D01*
X376589D01*
Y322012D01*
Y321324D01*
X377967D01*
Y320635D01*
X377278D01*
Y319946D01*
X377967D01*
Y319257D01*
X377278D01*
Y318568D01*
X377967D01*
Y317879D01*
X378656D01*
Y317190D01*
Y316501D01*
Y315812D01*
X379345D01*
Y315123D01*
X378656D01*
Y314434D01*
X379345D01*
Y313745D01*
X380034D01*
Y313056D01*
X380723D01*
Y312367D01*
X380034D01*
Y311678D01*
X380723D01*
Y310989D01*
X380034D01*
Y310300D01*
X380723D01*
Y309611D01*
X381412D01*
Y308923D01*
X382101D01*
Y308233D01*
X381412D01*
Y307545D01*
X380723D01*
Y308233D01*
X380034D01*
Y308923D01*
X379345D01*
Y309611D01*
X378656D01*
Y310300D01*
Y310989D01*
X377967D01*
Y311678D01*
Y312367D01*
X377278D01*
Y313056D01*
X376589D01*
Y313745D01*
X375900D01*
Y314434D01*
Y315123D01*
X374522D01*
Y315812D01*
X375211D01*
Y316501D01*
X374522D01*
Y317190D01*
X373833D01*
Y317879D01*
X373144D01*
Y318568D01*
X372455D01*
Y319257D01*
X371767D01*
Y319946D01*
Y320635D01*
X371078D01*
Y321324D01*
Y322012D01*
X370389D01*
Y322701D01*
X369700D01*
Y323390D01*
X369011D01*
Y324079D01*
X369700D01*
Y324768D01*
X367633D01*
Y325457D01*
X368322D01*
Y326146D01*
X367633D01*
Y326835D01*
X366944D01*
Y327524D01*
X366255D01*
Y328213D01*
X365566D01*
Y328902D01*
X364877D01*
Y329591D01*
Y330280D01*
X364188D01*
Y330969D01*
Y331658D01*
X363499D01*
Y332347D01*
X362810D01*
Y333036D01*
X362121D01*
Y333724D01*
X361432D01*
Y334413D01*
X360743D01*
Y335102D01*
X361432D01*
Y335791D01*
X360743D01*
Y336480D01*
X360054D01*
Y337169D01*
X359365D01*
Y337858D01*
X358676D01*
Y338547D01*
X357988D01*
Y339236D01*
X357299D01*
Y339925D01*
Y340614D01*
Y341303D01*
X356610D01*
Y341992D01*
X355921D01*
Y342681D01*
X355232D01*
Y343370D01*
X354543D01*
Y344059D01*
X353854D01*
Y344748D01*
X354543D01*
Y345437D01*
X353854D01*
Y346126D01*
X353165D01*
Y346815D01*
X352476D01*
Y347503D01*
X351787D01*
Y348192D01*
X351098D01*
Y348881D01*
X350409D01*
Y349570D01*
Y350259D01*
Y350948D01*
X349720D01*
Y351637D01*
X349031D01*
Y352326D01*
X348342D01*
Y353015D01*
X347653D01*
Y353704D01*
X346964D01*
Y354393D01*
X347653D01*
Y355082D01*
X346964D01*
Y355771D01*
X346275D01*
Y356460D01*
X345587D01*
Y357149D01*
X344897D01*
Y357838D01*
X344209D01*
Y358527D01*
X343520D01*
Y359216D01*
X342831D01*
Y359905D01*
X343520D01*
Y360594D01*
X342831D01*
Y361283D01*
X342142D01*
Y361971D01*
X341453D01*
Y362660D01*
X340764D01*
Y363349D01*
X340075D01*
Y364038D01*
X340764D01*
Y364727D01*
X338697D01*
Y365416D01*
X339386D01*
Y366105D01*
X338697D01*
Y366794D01*
X338008D01*
Y367483D01*
X337319D01*
Y368172D01*
X336630D01*
Y368861D01*
Y369550D01*
Y370239D01*
X335252D01*
Y370928D01*
Y371617D01*
X334563D01*
Y372306D01*
X333874D01*
Y372995D01*
X333185D01*
Y373684D01*
X333874D01*
Y374373D01*
X331808D01*
Y375062D01*
X332496D01*
Y375750D01*
X331808D01*
Y376439D01*
X331118D01*
Y377128D01*
X330430D01*
Y377817D01*
X329741D01*
Y378506D01*
X329052D01*
Y379195D01*
X329741D01*
Y379884D01*
X328363D01*
Y380573D01*
Y381262D01*
X327674D01*
Y381951D01*
X326985D01*
Y382640D01*
X326296D01*
Y383329D01*
Y384018D01*
X324918D01*
Y384707D01*
X325607D01*
Y385396D01*
X324918D01*
Y386085D01*
X324229D01*
Y386774D01*
X323540D01*
Y387463D01*
X322851D01*
Y388151D01*
X322162D01*
Y388840D01*
Y389529D01*
X321473D01*
Y390218D01*
Y390907D01*
X320784D01*
Y391596D01*
X320095D01*
Y392285D01*
X319406D01*
Y392974D01*
Y393663D01*
X318029D01*
Y394352D01*
X318717D01*
Y395041D01*
X318029D01*
Y395730D01*
X317340D01*
Y396419D01*
X316651D01*
Y397108D01*
X315962D01*
Y397797D01*
X315273D01*
Y398486D01*
Y399175D01*
X314584D01*
Y399864D01*
Y400553D01*
X313895D01*
Y401241D01*
X313206D01*
Y401930D01*
X312517D01*
Y402619D01*
Y403308D01*
X311139D01*
Y403997D01*
X311828D01*
Y404686D01*
X311139D01*
Y405375D01*
X310450D01*
Y406064D01*
X309761D01*
Y406753D01*
X309072D01*
Y407442D01*
X308383D01*
Y408131D01*
Y408820D01*
X307694D01*
Y409509D01*
Y410198D01*
X307005D01*
Y410887D01*
X306316D01*
Y411576D01*
X305627D01*
Y412265D01*
Y412954D01*
X304250D01*
Y413643D01*
X304938D01*
Y414332D01*
X304250D01*
Y415021D01*
X303561D01*
Y415709D01*
X302872D01*
Y416398D01*
X302183D01*
Y417087D01*
X301494D01*
Y417776D01*
Y418465D01*
X300805D01*
Y419154D01*
Y419843D01*
X300116D01*
Y420532D01*
X299427D01*
Y421221D01*
X298738D01*
Y421910D01*
X298049D01*
Y422599D01*
X297360D01*
Y423288D01*
X298049D01*
Y423977D01*
X297360D01*
Y424666D01*
X296671D01*
Y425355D01*
X295982D01*
Y426044D01*
X295293D01*
Y426733D01*
X294604D01*
Y427422D01*
X293915D01*
Y428111D01*
Y428800D01*
Y429488D01*
X293226D01*
Y430177D01*
X292537D01*
Y430866D01*
X291848D01*
Y431555D01*
X291159D01*
Y432244D01*
X290471D01*
Y432933D01*
X291159D01*
Y433622D01*
X289093D01*
Y434311D01*
X289782D01*
Y435000D01*
X289093D01*
Y435689D01*
X288404D01*
Y436378D01*
X287715D01*
Y437067D01*
X287026D01*
Y437756D01*
Y438445D01*
Y439134D01*
X286337D01*
Y439823D01*
X285648D01*
Y440512D01*
X284959D01*
Y441200D01*
X285648D01*
Y441889D01*
X286337D01*
Y441200D01*
X287026D01*
Y441889D01*
X286337D01*
Y442579D01*
X287026D01*
Y441889D01*
X287715D01*
Y441200D01*
X288404D01*
Y441889D01*
X289093D01*
Y441200D01*
X289782D01*
Y441889D01*
X289093D01*
Y442579D01*
X289782D01*
Y441889D01*
X290471D01*
Y441200D01*
X291159D01*
Y441889D01*
X291848D01*
Y441200D01*
X292537D01*
Y441889D01*
X291848D01*
Y442579D01*
X292537D01*
Y441889D01*
X293226D01*
Y441200D01*
X293915D01*
Y441889D01*
X294604D01*
Y441200D01*
X295293D01*
Y441889D01*
X294604D01*
Y442579D01*
X295293D01*
Y441889D01*
X295982D01*
Y441200D01*
X296671D01*
Y441889D01*
X297360D01*
Y441200D01*
X298049D01*
Y441889D01*
X297360D01*
Y442579D01*
X298049D01*
Y441889D01*
X298738D01*
Y441200D01*
X299427D01*
Y441889D01*
X300116D01*
Y441200D01*
X300805D01*
Y441889D01*
X300116D01*
Y442579D01*
X300805D01*
Y441889D01*
X301494D01*
Y441200D01*
X302183D01*
Y441889D01*
X302872D01*
Y441200D01*
X303561D01*
Y441889D01*
X302872D01*
Y442579D01*
X303561D01*
Y441889D01*
X304250D01*
Y441200D01*
X304938D01*
Y441889D01*
X305627D01*
Y441200D01*
X306316D01*
Y441889D01*
X305627D01*
Y442579D01*
X306316D01*
Y441889D01*
X307005D01*
Y441200D01*
X307694D01*
Y441889D01*
X308383D01*
Y441200D01*
X309072D01*
Y441889D01*
X308383D01*
Y442579D01*
X309072D01*
Y441889D01*
X309761D01*
Y441200D01*
X310450D01*
Y441889D01*
X311139D01*
Y441200D01*
X311828D01*
Y441889D01*
X311139D01*
Y442579D01*
X311828D01*
Y441889D01*
X312517D01*
Y441200D01*
X313206D01*
Y441889D01*
X313895D01*
Y441200D01*
X314584D01*
Y441889D01*
X313895D01*
Y442579D01*
X314584D01*
Y441889D01*
X315273D01*
Y441200D01*
X315962D01*
Y441889D01*
X316651D01*
Y441200D01*
X317340D01*
Y441889D01*
X316651D01*
Y442579D01*
X317340D01*
Y441889D01*
X318029D01*
Y441200D01*
X318717D01*
Y441889D01*
X319406D01*
Y442579D01*
X318717D01*
Y443267D01*
X318029D01*
Y443956D01*
X318717D01*
Y444645D01*
X318029D01*
Y445334D01*
Y446023D01*
Y446712D01*
X317340D01*
Y447401D01*
X316651D01*
Y448090D01*
X317340D01*
Y448779D01*
X316651D01*
Y449468D01*
X315962D01*
Y450157D01*
Y450846D01*
Y451535D01*
X315273D01*
Y452224D01*
X315962D01*
Y452913D01*
X315273D01*
Y453602D01*
X314584D01*
Y454291D01*
Y454979D01*
Y455668D01*
X313895D01*
Y456357D01*
X314584D01*
Y457046D01*
X313895D01*
Y457735D01*
X313206D01*
Y458424D01*
Y459113D01*
Y459802D01*
X312517D01*
Y460491D01*
Y461180D01*
Y461869D01*
X311828D01*
Y462558D01*
X311139D01*
Y463247D01*
X311828D01*
Y463936D01*
X311139D01*
Y464625D01*
Y465314D01*
Y466003D01*
X310450D01*
Y466692D01*
X309761D01*
Y467380D01*
X310450D01*
Y468070D01*
X309761D01*
Y468759D01*
X309072D01*
Y469447D01*
X308383D01*
Y470136D01*
X309072D01*
Y470825D01*
X308383D01*
Y471514D01*
Y472203D01*
Y472892D01*
X307694D01*
Y473581D01*
X307005D01*
Y474270D01*
X307694D01*
Y474959D01*
X307005D01*
Y475648D01*
Y476337D01*
X306316D01*
Y477026D01*
Y477715D01*
X305627D01*
Y478404D01*
X306316D01*
Y479093D01*
X305627D01*
Y479782D01*
X304938D01*
Y480471D01*
Y481160D01*
Y481849D01*
X304250D01*
Y482538D01*
X304938D01*
Y483226D01*
X304250D01*
Y483915D01*
X303561D01*
Y484604D01*
Y485293D01*
Y485982D01*
X302872D01*
Y486671D01*
X303561D01*
Y487360D01*
X302872D01*
Y488049D01*
X302183D01*
Y488738D01*
X301494D01*
Y489427D01*
X302183D01*
Y490116D01*
X301494D01*
Y490805D01*
Y491494D01*
Y492183D01*
X300805D01*
Y492872D01*
X300116D01*
Y493561D01*
X300805D01*
Y494250D01*
X300116D01*
Y494939D01*
X299427D01*
Y495627D01*
Y496316D01*
Y497005D01*
X298738D01*
Y497694D01*
X299427D01*
Y498383D01*
X298738D01*
Y499072D01*
X298049D01*
Y499761D01*
X297360D01*
Y500450D01*
X298049D01*
Y501139D01*
X297360D01*
Y501828D01*
Y502517D01*
Y503206D01*
X296671D01*
Y503895D01*
X295982D01*
Y504584D01*
X296671D01*
Y505273D01*
X295982D01*
Y505962D01*
X338008D01*
Y505273D01*
D02*
G37*
G36*
X428260Y504584D02*
X428949D01*
Y503895D01*
X429638D01*
Y503206D01*
X431016D01*
Y502517D01*
Y501828D01*
X431705D01*
Y501139D01*
X432394D01*
Y500450D01*
X433772D01*
Y499761D01*
Y499072D01*
X434461D01*
Y498383D01*
X435150D01*
Y497694D01*
X436528D01*
Y497005D01*
Y496316D01*
X437217D01*
Y495627D01*
X437906D01*
Y494939D01*
X439284D01*
Y494250D01*
Y493561D01*
X439972D01*
Y492872D01*
X440661D01*
Y492183D01*
X442039D01*
Y491494D01*
Y490805D01*
X442728D01*
Y490116D01*
X443417D01*
Y489427D01*
X444795D01*
Y488738D01*
Y488049D01*
X445484D01*
Y487360D01*
X446173D01*
Y486671D01*
X447551D01*
Y485982D01*
Y485293D01*
X448240D01*
Y484604D01*
X448929D01*
Y483915D01*
X450307D01*
Y483226D01*
Y482538D01*
X450996D01*
Y481849D01*
X451685D01*
Y481160D01*
X453062D01*
Y480471D01*
Y479782D01*
X453751D01*
Y479093D01*
X454440D01*
Y478404D01*
X455818D01*
Y477715D01*
Y477026D01*
X456507D01*
Y476337D01*
X457196D01*
Y475648D01*
X458574D01*
Y474959D01*
Y474270D01*
X459263D01*
Y473581D01*
X459952D01*
Y472892D01*
X461330D01*
Y472203D01*
Y471514D01*
X462019D01*
Y470825D01*
X462708D01*
Y470136D01*
X464086D01*
Y469447D01*
Y468759D01*
X464775D01*
Y468070D01*
X465464D01*
Y467380D01*
X466841D01*
Y466692D01*
Y466003D01*
X467530D01*
Y465314D01*
X468219D01*
Y464625D01*
X468908D01*
Y463936D01*
X469597D01*
Y463247D01*
X468908D01*
Y462558D01*
X469597D01*
Y461869D01*
X468908D01*
Y461180D01*
X469597D01*
Y460491D01*
X468908D01*
Y459802D01*
X469597D01*
Y459113D01*
X468908D01*
Y458424D01*
X469597D01*
Y457735D01*
X468908D01*
Y457046D01*
X469597D01*
Y456357D01*
X468908D01*
Y455668D01*
X469597D01*
Y454979D01*
X468908D01*
Y454291D01*
X469597D01*
Y453602D01*
X468908D01*
Y452913D01*
X469597D01*
Y452224D01*
X468908D01*
Y451535D01*
X469597D01*
Y450846D01*
X468908D01*
Y450157D01*
X469597D01*
Y449468D01*
X468908D01*
Y448779D01*
X469597D01*
Y448090D01*
X468908D01*
Y447401D01*
X469597D01*
Y446712D01*
X468908D01*
Y446023D01*
X469597D01*
Y445334D01*
X468908D01*
Y444645D01*
X469597D01*
Y443956D01*
X468908D01*
Y443267D01*
X469597D01*
Y442579D01*
X468908D01*
Y441889D01*
X469597D01*
Y441200D01*
X468908D01*
Y440512D01*
X469597D01*
Y439823D01*
X468908D01*
Y439134D01*
X469597D01*
Y438445D01*
X468908D01*
Y437756D01*
X469597D01*
Y437067D01*
X468908D01*
Y436378D01*
X469597D01*
Y435689D01*
X468908D01*
Y435000D01*
X469597D01*
Y434311D01*
X468908D01*
Y433622D01*
X469597D01*
Y432933D01*
X468908D01*
Y432244D01*
X469597D01*
Y431555D01*
X468908D01*
Y430866D01*
X469597D01*
Y430177D01*
X468908D01*
Y429488D01*
X469597D01*
Y428800D01*
X468908D01*
Y428111D01*
X469597D01*
Y427422D01*
X468908D01*
Y426733D01*
X469597D01*
Y426044D01*
X468908D01*
Y425355D01*
X469597D01*
Y424666D01*
X468908D01*
Y423977D01*
X469597D01*
Y423288D01*
X468908D01*
Y422599D01*
X469597D01*
Y421910D01*
X468908D01*
Y421221D01*
X469597D01*
Y420532D01*
X468908D01*
Y419843D01*
X469597D01*
Y419154D01*
X468908D01*
Y418465D01*
X469597D01*
Y417776D01*
X468908D01*
Y417087D01*
X469597D01*
Y416398D01*
X468908D01*
Y415709D01*
X469597D01*
Y415021D01*
X468908D01*
Y414332D01*
X469597D01*
Y413643D01*
X468908D01*
Y412954D01*
X469597D01*
Y412265D01*
X468908D01*
Y411576D01*
X469597D01*
Y410887D01*
X468908D01*
Y410198D01*
X469597D01*
Y409509D01*
X468908D01*
Y408820D01*
X469597D01*
Y408131D01*
X468908D01*
Y407442D01*
X469597D01*
Y406753D01*
X468908D01*
Y406064D01*
X469597D01*
Y405375D01*
X468908D01*
Y404686D01*
X469597D01*
Y403997D01*
X468908D01*
Y403308D01*
X469597D01*
Y402619D01*
X468908D01*
Y401930D01*
X469597D01*
Y401241D01*
X468908D01*
Y400553D01*
X469597D01*
Y399864D01*
X468908D01*
Y399175D01*
X469597D01*
Y398486D01*
X468908D01*
Y397797D01*
X469597D01*
Y397108D01*
X468908D01*
Y396419D01*
X469597D01*
Y395730D01*
X468908D01*
Y395041D01*
X469597D01*
Y394352D01*
X468908D01*
Y393663D01*
X469597D01*
Y392974D01*
X468908D01*
Y392285D01*
X469597D01*
Y391596D01*
X468908D01*
Y390907D01*
X469597D01*
Y390218D01*
X468908D01*
Y389529D01*
X469597D01*
Y388840D01*
X468908D01*
Y388151D01*
X469597D01*
Y387463D01*
X468908D01*
Y386774D01*
X469597D01*
Y386085D01*
X468908D01*
Y385396D01*
X469597D01*
Y384707D01*
X468908D01*
Y384018D01*
X469597D01*
Y383329D01*
X468908D01*
Y382640D01*
X469597D01*
Y381951D01*
X468908D01*
Y381262D01*
X469597D01*
Y380573D01*
X468908D01*
Y379884D01*
X469597D01*
Y379195D01*
X468908D01*
Y378506D01*
X469597D01*
Y377817D01*
X468908D01*
Y377128D01*
X469597D01*
Y376439D01*
X468908D01*
Y375750D01*
X469597D01*
Y375062D01*
X468908D01*
Y374373D01*
X469597D01*
Y373684D01*
X468908D01*
Y372995D01*
X469597D01*
Y372306D01*
X468908D01*
Y371617D01*
X469597D01*
Y370928D01*
X468908D01*
Y370239D01*
X469597D01*
Y369550D01*
X468908D01*
Y368861D01*
X469597D01*
Y368172D01*
X468908D01*
Y367483D01*
X469597D01*
Y366794D01*
X468908D01*
Y366105D01*
X469597D01*
Y365416D01*
X468908D01*
Y364727D01*
X469597D01*
Y364038D01*
X468908D01*
Y363349D01*
X469597D01*
Y362660D01*
X468908D01*
Y361971D01*
X469597D01*
Y361283D01*
X468908D01*
Y360594D01*
X469597D01*
Y359905D01*
X468908D01*
Y359216D01*
X469597D01*
Y358527D01*
X468908D01*
Y357838D01*
X469597D01*
Y357149D01*
X468908D01*
Y356460D01*
X469597D01*
Y355771D01*
X468908D01*
Y355082D01*
X469597D01*
Y354393D01*
X468908D01*
Y353704D01*
X469597D01*
Y353015D01*
X468908D01*
Y352326D01*
X468219D01*
Y351637D01*
X468908D01*
Y350948D01*
X466841D01*
Y350259D01*
X467530D01*
Y349570D01*
X465464D01*
Y348881D01*
X466152D01*
Y348192D01*
X464086D01*
Y347503D01*
X464775D01*
Y346815D01*
X462708D01*
Y346126D01*
X463397D01*
Y345437D01*
X461330D01*
Y344748D01*
X462019D01*
Y344059D01*
X459952D01*
Y343370D01*
X460641D01*
Y342681D01*
X458574D01*
Y341992D01*
X459263D01*
Y341303D01*
X457196D01*
Y340614D01*
X457885D01*
Y339925D01*
X455818D01*
Y339236D01*
X456507D01*
Y338547D01*
X454440D01*
Y337858D01*
X455129D01*
Y337169D01*
X453062D01*
Y336480D01*
X453751D01*
Y335791D01*
X451685D01*
Y335102D01*
X452373D01*
Y334413D01*
X450307D01*
Y333724D01*
X450996D01*
Y333036D01*
X448929D01*
Y332347D01*
X449618D01*
Y331658D01*
X447551D01*
Y330969D01*
X448240D01*
Y330280D01*
X446173D01*
Y329591D01*
X446862D01*
Y328902D01*
X444795D01*
Y328213D01*
X445484D01*
Y327524D01*
X443417D01*
Y326835D01*
X444106D01*
Y326146D01*
X442039D01*
Y325457D01*
X442728D01*
Y324768D01*
X440661D01*
Y324079D01*
X441350D01*
Y323390D01*
X439284D01*
Y322701D01*
X439972D01*
Y322012D01*
X437906D01*
Y321324D01*
X438595D01*
Y320635D01*
X437906D01*
Y319946D01*
X437217D01*
Y319257D01*
X436528D01*
Y318568D01*
X435839D01*
Y319257D01*
X435150D01*
Y318568D01*
X435839D01*
Y317879D01*
X435150D01*
Y317190D01*
X434461D01*
Y316501D01*
X433772D01*
Y315812D01*
X433083D01*
Y316501D01*
X432394D01*
Y315812D01*
X433083D01*
Y315123D01*
X432394D01*
Y314434D01*
X431705D01*
Y313745D01*
X431016D01*
Y313056D01*
X430327D01*
Y313745D01*
X429638D01*
Y314434D01*
X428949D01*
Y315123D01*
X428260D01*
Y315812D01*
X427571D01*
Y316501D01*
X426882D01*
Y317190D01*
X426193D01*
Y317879D01*
X424127D01*
Y318568D01*
X424816D01*
Y319257D01*
X424127D01*
Y319946D01*
X423438D01*
Y320635D01*
X421371D01*
Y321324D01*
X422060D01*
Y322012D01*
X419993D01*
Y322701D01*
X420682D01*
Y323390D01*
X418615D01*
Y324079D01*
X419304D01*
Y324768D01*
X418615D01*
Y325457D01*
X417926D01*
Y326146D01*
X415859D01*
Y326835D01*
X416548D01*
Y327524D01*
X414481D01*
Y328213D01*
X415170D01*
Y328902D01*
X413103D01*
Y329591D01*
X413792D01*
Y330280D01*
X413103D01*
Y330969D01*
X412414D01*
Y331658D01*
X410348D01*
Y332347D01*
X411036D01*
Y333036D01*
X408970D01*
Y333724D01*
X409659D01*
Y334413D01*
X407592D01*
Y335102D01*
X408281D01*
Y335791D01*
X406214D01*
Y336480D01*
X406903D01*
Y337169D01*
X404836D01*
Y337858D01*
X405525D01*
Y338547D01*
X403458D01*
Y339236D01*
X404147D01*
Y339925D01*
X402080D01*
Y340614D01*
X402769D01*
Y341303D01*
X400702D01*
Y341992D01*
X401391D01*
Y342681D01*
X399324D01*
Y343370D01*
X400013D01*
Y344059D01*
X397947D01*
Y344748D01*
Y345437D01*
X396569D01*
Y346126D01*
X397258D01*
Y346815D01*
X395191D01*
Y347503D01*
Y348192D01*
X393813D01*
Y348881D01*
X394502D01*
Y349570D01*
X392435D01*
Y350259D01*
Y350948D01*
X391057D01*
Y351637D01*
X391746D01*
Y352326D01*
X389679D01*
Y353015D01*
Y353704D01*
X388301D01*
Y354393D01*
X388990D01*
Y355082D01*
X386923D01*
Y355771D01*
Y356460D01*
X385546D01*
Y357149D01*
X386234D01*
Y357838D01*
X386923D01*
Y358527D01*
X387612D01*
Y359216D01*
Y359905D01*
X388990D01*
Y360594D01*
Y361283D01*
X390368D01*
Y361971D01*
Y362660D01*
X391746D01*
Y363349D01*
X392435D01*
Y364038D01*
X393124D01*
Y364727D01*
X393813D01*
Y365416D01*
X394502D01*
Y366105D01*
X395191D01*
Y366794D01*
X395880D01*
Y367483D01*
X396569D01*
Y368172D01*
X397258D01*
Y368861D01*
X397947D01*
Y369550D01*
X398635D01*
Y370239D01*
X399324D01*
Y370928D01*
X400013D01*
Y371617D01*
X400702D01*
Y372306D01*
X401391D01*
Y372995D01*
X402080D01*
Y373684D01*
X402769D01*
Y374373D01*
X403458D01*
Y375062D01*
X404147D01*
Y375750D01*
X404836D01*
Y376439D01*
X405525D01*
Y377128D01*
X406214D01*
Y377817D01*
X406903D01*
Y378506D01*
X407592D01*
Y377817D01*
X408970D01*
Y377128D01*
Y376439D01*
X411036D01*
Y375750D01*
X410348D01*
Y375062D01*
X411036D01*
Y374373D01*
X411726D01*
Y373684D01*
X413792D01*
Y372995D01*
X413103D01*
Y372306D01*
X414481D01*
Y371617D01*
Y370928D01*
X416548D01*
Y370239D01*
X415859D01*
Y369550D01*
X417237D01*
Y368861D01*
Y368172D01*
X419304D01*
Y367483D01*
X418615D01*
Y366794D01*
X419993D01*
Y366105D01*
Y365416D01*
X422060D01*
Y364727D01*
X421371D01*
Y364038D01*
X422060D01*
Y363349D01*
X422749D01*
Y362660D01*
X424816D01*
Y361971D01*
X424127D01*
Y361283D01*
X425505D01*
Y360594D01*
Y359905D01*
X427571D01*
Y359216D01*
X426882D01*
Y358527D01*
X428260D01*
Y357838D01*
Y357149D01*
X430327D01*
Y356460D01*
X429638D01*
Y355771D01*
X431016D01*
Y355082D01*
Y354393D01*
X432394D01*
Y355082D01*
Y355771D01*
X433772D01*
Y356460D01*
Y357149D01*
X435839D01*
Y357838D01*
X435150D01*
Y358527D01*
X436528D01*
Y359216D01*
Y359905D01*
X438595D01*
Y360594D01*
Y361283D01*
X439972D01*
Y361971D01*
X439284D01*
Y362660D01*
X439972D01*
Y363349D01*
X439284D01*
Y364038D01*
X439972D01*
Y364727D01*
X439284D01*
Y365416D01*
X439972D01*
Y366105D01*
X439284D01*
Y366794D01*
X439972D01*
Y367483D01*
X439284D01*
Y368172D01*
X439972D01*
Y368861D01*
X439284D01*
Y369550D01*
X439972D01*
Y370239D01*
X439284D01*
Y370928D01*
X439972D01*
Y371617D01*
X439284D01*
Y372306D01*
X439972D01*
Y372995D01*
X439284D01*
Y373684D01*
X439972D01*
Y374373D01*
X439284D01*
Y375062D01*
X439972D01*
Y375750D01*
X439284D01*
Y376439D01*
X439972D01*
Y377128D01*
X439284D01*
Y377817D01*
X439972D01*
Y378506D01*
X439284D01*
Y379195D01*
X439972D01*
Y379884D01*
X439284D01*
Y380573D01*
X439972D01*
Y381262D01*
X439284D01*
Y381951D01*
X439972D01*
Y382640D01*
X439284D01*
Y383329D01*
X439972D01*
Y384018D01*
X439284D01*
Y384707D01*
X439972D01*
Y385396D01*
X439284D01*
Y386085D01*
X439972D01*
Y386774D01*
X439284D01*
Y387463D01*
X439972D01*
Y388151D01*
X439284D01*
Y388840D01*
X439972D01*
Y389529D01*
X439284D01*
Y390218D01*
X439972D01*
Y390907D01*
X439284D01*
Y391596D01*
X439972D01*
Y392285D01*
X439284D01*
Y392974D01*
X439972D01*
Y393663D01*
X439284D01*
Y394352D01*
X439972D01*
Y395041D01*
X422749D01*
Y395730D01*
X422060D01*
Y396419D01*
X421371D01*
Y397108D01*
X420682D01*
Y397797D01*
X419993D01*
Y398486D01*
X419304D01*
Y399175D01*
X418615D01*
Y399864D01*
X417926D01*
Y400553D01*
X417237D01*
Y401241D01*
X416548D01*
Y401930D01*
X415859D01*
Y402619D01*
X415170D01*
Y403308D01*
X414481D01*
Y403997D01*
X413792D01*
Y404686D01*
X413103D01*
Y405375D01*
X412414D01*
Y406064D01*
X411726D01*
Y406753D01*
X411036D01*
Y407442D01*
X410348D01*
Y408131D01*
X409659D01*
Y408820D01*
X408970D01*
Y409509D01*
X408281D01*
Y410198D01*
X407592D01*
Y410887D01*
X406903D01*
Y411576D01*
X406214D01*
Y412265D01*
Y412954D01*
X404836D01*
Y413643D01*
Y414332D01*
X403458D01*
Y415021D01*
Y415709D01*
X402080D01*
Y416398D01*
X401391D01*
Y417087D01*
X400702D01*
Y417776D01*
Y418465D01*
X399324D01*
Y419154D01*
Y419843D01*
X397947D01*
Y420532D01*
Y421221D01*
X396569D01*
Y421910D01*
X395880D01*
Y422599D01*
X395191D01*
Y423288D01*
X395880D01*
Y423977D01*
X396569D01*
Y423288D01*
X397258D01*
Y423977D01*
X397947D01*
Y424666D01*
X398635D01*
Y423977D01*
X399324D01*
Y423288D01*
X400013D01*
Y423977D01*
X400702D01*
Y424666D01*
X401391D01*
Y423977D01*
X402080D01*
Y423288D01*
X402769D01*
Y423977D01*
X403458D01*
Y424666D01*
X404147D01*
Y423977D01*
X404836D01*
Y423288D01*
X405525D01*
Y423977D01*
X406214D01*
Y424666D01*
X406903D01*
Y423977D01*
X407592D01*
Y423288D01*
X408281D01*
Y423977D01*
X408970D01*
Y424666D01*
X409659D01*
Y423977D01*
X410348D01*
Y423288D01*
X411036D01*
Y423977D01*
X411726D01*
Y424666D01*
X412414D01*
Y423977D01*
X413103D01*
Y423288D01*
X413792D01*
Y423977D01*
X414481D01*
Y424666D01*
X415170D01*
Y423977D01*
X415859D01*
Y423288D01*
X416548D01*
Y423977D01*
X417237D01*
Y424666D01*
X417926D01*
Y423977D01*
X418615D01*
Y423288D01*
X419304D01*
Y423977D01*
X419993D01*
Y424666D01*
X420682D01*
Y423977D01*
X421371D01*
Y423288D01*
X422060D01*
Y423977D01*
X422749D01*
Y424666D01*
X423438D01*
Y423977D01*
X424127D01*
Y423288D01*
X424816D01*
Y423977D01*
X425505D01*
Y424666D01*
X426193D01*
Y423977D01*
X426882D01*
Y423288D01*
X427571D01*
Y423977D01*
X428260D01*
Y424666D01*
X428949D01*
Y423977D01*
X429638D01*
Y423288D01*
X430327D01*
Y423977D01*
X431016D01*
Y424666D01*
X431705D01*
Y423977D01*
X432394D01*
Y423288D01*
X433083D01*
Y423977D01*
X433772D01*
Y424666D01*
X434461D01*
Y423977D01*
X435150D01*
Y423288D01*
X435839D01*
Y423977D01*
X436528D01*
Y424666D01*
X437217D01*
Y423977D01*
X437906D01*
Y423288D01*
X438595D01*
Y423977D01*
X439284D01*
Y424666D01*
X439972D01*
Y425355D01*
X439284D01*
Y426044D01*
X439972D01*
Y426733D01*
X439284D01*
Y427422D01*
X439972D01*
Y428111D01*
X439284D01*
Y428800D01*
X439972D01*
Y429488D01*
X439284D01*
Y430177D01*
X439972D01*
Y430866D01*
X439284D01*
Y431555D01*
X439972D01*
Y432244D01*
X439284D01*
Y432933D01*
X439972D01*
Y433622D01*
X439284D01*
Y434311D01*
X439972D01*
Y435000D01*
X439284D01*
Y435689D01*
X439972D01*
Y436378D01*
X439284D01*
Y437067D01*
X439972D01*
Y437756D01*
X439284D01*
Y438445D01*
X439972D01*
Y439134D01*
X439284D01*
Y439823D01*
X439972D01*
Y440512D01*
X439284D01*
Y441200D01*
X439972D01*
Y441889D01*
X439284D01*
Y442579D01*
X439972D01*
Y443267D01*
X439284D01*
Y443956D01*
X439972D01*
Y444645D01*
X439284D01*
Y445334D01*
X439972D01*
Y446023D01*
X439284D01*
Y446712D01*
X439972D01*
Y447401D01*
X439284D01*
Y448090D01*
X439972D01*
Y448779D01*
X439284D01*
Y449468D01*
X439972D01*
Y450157D01*
X439284D01*
Y450846D01*
X439972D01*
Y451535D01*
X439284D01*
Y452224D01*
X439972D01*
Y452913D01*
X439284D01*
Y453602D01*
X439972D01*
Y454291D01*
X439284D01*
Y454979D01*
X439972D01*
Y455668D01*
X439284D01*
Y456357D01*
X439972D01*
Y457046D01*
X439284D01*
Y457735D01*
X439972D01*
Y458424D01*
X439284D01*
Y459113D01*
X439972D01*
Y459802D01*
X439284D01*
Y460491D01*
X439972D01*
Y461180D01*
X439284D01*
Y461869D01*
X439972D01*
Y462558D01*
X439284D01*
Y463247D01*
X439972D01*
Y463936D01*
X439284D01*
Y464625D01*
X439972D01*
Y465314D01*
X439284D01*
Y466003D01*
X439972D01*
Y466692D01*
X439284D01*
Y467380D01*
X439972D01*
Y468070D01*
X439284D01*
Y468759D01*
X439972D01*
Y469447D01*
X439284D01*
Y470136D01*
X439972D01*
Y470825D01*
X439284D01*
Y471514D01*
X438595D01*
Y470825D01*
X437906D01*
Y470136D01*
X437217D01*
Y469447D01*
X436528D01*
Y468759D01*
X435839D01*
Y468070D01*
X435150D01*
Y467380D01*
X434461D01*
Y466692D01*
X433772D01*
Y466003D01*
X433083D01*
Y465314D01*
X432394D01*
Y464625D01*
X431705D01*
Y463936D01*
X431016D01*
Y463247D01*
X430327D01*
Y462558D01*
X429638D01*
Y461869D01*
X428949D01*
Y461180D01*
X428260D01*
Y460491D01*
X427571D01*
Y459802D01*
X426882D01*
Y459113D01*
X426193D01*
Y458424D01*
X425505D01*
Y457735D01*
X424816D01*
Y457046D01*
X424127D01*
Y456357D01*
X423438D01*
Y455668D01*
X422749D01*
Y454979D01*
X422060D01*
Y454291D01*
X421371D01*
Y453602D01*
X420682D01*
Y452913D01*
X419993D01*
Y452224D01*
X419304D01*
Y451535D01*
X418615D01*
Y450846D01*
X417926D01*
Y450157D01*
X417237D01*
Y449468D01*
X416548D01*
Y448779D01*
X415859D01*
Y448090D01*
X415170D01*
Y447401D01*
X414481D01*
Y446712D01*
X413792D01*
Y446023D01*
X413103D01*
Y445334D01*
X412414D01*
Y444645D01*
X411726D01*
Y443956D01*
X411036D01*
Y443267D01*
X410348D01*
Y442579D01*
X409659D01*
Y441889D01*
X408970D01*
Y441200D01*
X408281D01*
Y440512D01*
X407592D01*
Y439823D01*
X406903D01*
Y440512D01*
X406214D01*
Y441200D01*
X405525D01*
Y441889D01*
X404836D01*
Y442579D01*
X404147D01*
Y443267D01*
X403458D01*
Y443956D01*
X402769D01*
Y444645D01*
X402080D01*
Y445334D01*
X401391D01*
Y446023D01*
X400702D01*
Y446712D01*
X400013D01*
Y447401D01*
X399324D01*
Y448090D01*
X398635D01*
Y448779D01*
X397947D01*
Y449468D01*
X397258D01*
Y450157D01*
X396569D01*
Y450846D01*
X395880D01*
Y451535D01*
X395191D01*
Y452224D01*
X394502D01*
Y452913D01*
X393813D01*
Y453602D01*
X393124D01*
Y454291D01*
X392435D01*
Y454979D01*
X391746D01*
Y455668D01*
X391057D01*
Y456357D01*
X390368D01*
Y457046D01*
X389679D01*
Y457735D01*
X388990D01*
Y458424D01*
X388301D01*
Y459113D01*
X387612D01*
Y459802D01*
X386923D01*
Y460491D01*
X386234D01*
Y461180D01*
X385546D01*
Y461869D01*
X384856D01*
Y462558D01*
X384168D01*
Y463247D01*
X386234D01*
Y463936D01*
X385546D01*
Y464625D01*
X387612D01*
Y465314D01*
X386923D01*
Y466003D01*
X388990D01*
Y466692D01*
X388301D01*
Y467380D01*
X390368D01*
Y468070D01*
X389679D01*
Y468759D01*
X391746D01*
Y469447D01*
X391057D01*
Y470136D01*
X393124D01*
Y470825D01*
X392435D01*
Y471514D01*
X394502D01*
Y472203D01*
X393813D01*
Y472892D01*
X395880D01*
Y473581D01*
X395191D01*
Y474270D01*
X397258D01*
Y474959D01*
X396569D01*
Y475648D01*
X398635D01*
Y476337D01*
X397947D01*
Y477026D01*
X400013D01*
Y477715D01*
X399324D01*
Y478404D01*
X401391D01*
Y479093D01*
X400702D01*
Y479782D01*
X402769D01*
Y480471D01*
X402080D01*
Y481160D01*
X404147D01*
Y481849D01*
X403458D01*
Y482538D01*
X405525D01*
Y483226D01*
X404836D01*
Y483915D01*
X406903D01*
Y484604D01*
X406214D01*
Y485293D01*
X408281D01*
Y485982D01*
X407592D01*
Y486671D01*
X409659D01*
Y487360D01*
X408970D01*
Y488049D01*
X411036D01*
Y488738D01*
X410348D01*
Y489427D01*
X412414D01*
Y490116D01*
X411726D01*
Y490805D01*
X413792D01*
Y491494D01*
X413103D01*
Y492183D01*
X415170D01*
Y492872D01*
X414481D01*
Y493561D01*
X416548D01*
Y494250D01*
X415859D01*
Y494939D01*
X417926D01*
Y495627D01*
X417237D01*
Y496316D01*
X419304D01*
Y497005D01*
X418615D01*
Y497694D01*
X420682D01*
Y498383D01*
X419993D01*
Y499072D01*
X422060D01*
Y499761D01*
X421371D01*
Y500450D01*
X423438D01*
Y501139D01*
X422749D01*
Y501828D01*
X424816D01*
Y502517D01*
X424127D01*
Y503206D01*
X426193D01*
Y503895D01*
X425505D01*
Y504584D01*
X427571D01*
Y505273D01*
X428260D01*
Y504584D01*
D02*
G37*
G36*
X408281Y378506D02*
X407592D01*
Y379195D01*
X408281D01*
Y378506D01*
D02*
G37*
G36*
X353165Y345437D02*
X352476D01*
Y346126D01*
X353165D01*
Y345437D01*
D02*
G37*
G36*
X412414Y330280D02*
X411726D01*
Y330969D01*
X412414D01*
Y330280D01*
D02*
G37*
G36*
X417926Y324768D02*
X417237D01*
Y325457D01*
X417926D01*
Y324768D01*
D02*
G37*
G36*
X427571Y315123D02*
X426882D01*
Y315812D01*
X427571D01*
Y315123D01*
D02*
G37*
G36*
X263601Y505273D02*
X262913D01*
Y504584D01*
X264979D01*
Y503895D01*
X264291D01*
Y503206D01*
X266357D01*
Y502517D01*
X265668D01*
Y501828D01*
X267735D01*
Y501139D01*
X267046D01*
Y500450D01*
X269113D01*
Y499761D01*
X268424D01*
Y499072D01*
X270491D01*
Y498383D01*
X269802D01*
Y497694D01*
X271869D01*
Y497005D01*
X271180D01*
Y496316D01*
X273247D01*
Y495627D01*
X272558D01*
Y494939D01*
X274625D01*
Y494250D01*
X273936D01*
Y493561D01*
X276003D01*
Y492872D01*
X275314D01*
Y492183D01*
X277380D01*
Y491494D01*
X276692D01*
Y490805D01*
X278758D01*
Y490116D01*
X278070D01*
Y489427D01*
X280136D01*
Y488738D01*
X279447D01*
Y488049D01*
X281514D01*
Y487360D01*
X280825D01*
Y486671D01*
X282892D01*
Y485982D01*
X282203D01*
Y485293D01*
X284270D01*
Y484604D01*
X283581D01*
Y483915D01*
X285648D01*
Y483226D01*
X284959D01*
Y482538D01*
X286337D01*
Y481849D01*
X285648D01*
Y481160D01*
Y480471D01*
X284270D01*
Y479782D01*
Y479093D01*
X282203D01*
Y478404D01*
X282892D01*
Y477715D01*
X281514D01*
Y477026D01*
X280825D01*
Y476337D01*
X279447D01*
Y475648D01*
Y474959D01*
X278070D01*
Y474270D01*
Y473581D01*
X276692D01*
Y472892D01*
Y472203D01*
X275314D01*
Y471514D01*
X274625D01*
Y470825D01*
X273936D01*
Y470136D01*
X273247D01*
Y469447D01*
Y468759D01*
Y468070D01*
X272558D01*
Y467380D01*
X273247D01*
Y466692D01*
Y466003D01*
Y465314D01*
X272558D01*
Y464625D01*
X273247D01*
Y463936D01*
Y463247D01*
Y462558D01*
X272558D01*
Y461869D01*
X273247D01*
Y461180D01*
Y460491D01*
Y459802D01*
X272558D01*
Y459113D01*
X273247D01*
Y458424D01*
Y457735D01*
Y457046D01*
X272558D01*
Y456357D01*
X273247D01*
Y455668D01*
Y454979D01*
Y454291D01*
X272558D01*
Y453602D01*
X273247D01*
Y452913D01*
Y452224D01*
Y451535D01*
X272558D01*
Y450846D01*
X273247D01*
Y450157D01*
Y449468D01*
Y448779D01*
X272558D01*
Y448090D01*
X273247D01*
Y447401D01*
Y446712D01*
Y446023D01*
X272558D01*
Y445334D01*
X273247D01*
Y444645D01*
Y443956D01*
Y443267D01*
X272558D01*
Y442579D01*
X273247D01*
Y441889D01*
Y441200D01*
Y440512D01*
X272558D01*
Y439823D01*
X273247D01*
Y439134D01*
Y438445D01*
Y437756D01*
X272558D01*
Y437067D01*
X273247D01*
Y436378D01*
Y435689D01*
Y435000D01*
X272558D01*
Y434311D01*
X273247D01*
Y433622D01*
Y432933D01*
Y432244D01*
X272558D01*
Y431555D01*
X273247D01*
Y430866D01*
Y430177D01*
Y429488D01*
X272558D01*
Y428800D01*
X273247D01*
Y428111D01*
Y427422D01*
Y426733D01*
X272558D01*
Y426044D01*
X273247D01*
Y425355D01*
Y424666D01*
Y423977D01*
X272558D01*
Y423288D01*
X273247D01*
Y422599D01*
Y421910D01*
Y421221D01*
X272558D01*
Y420532D01*
X273247D01*
Y419843D01*
Y419154D01*
Y418465D01*
X272558D01*
Y417776D01*
X273247D01*
Y417087D01*
Y416398D01*
Y415709D01*
X272558D01*
Y415021D01*
X273247D01*
Y414332D01*
Y413643D01*
Y412954D01*
X272558D01*
Y412265D01*
X273247D01*
Y411576D01*
Y410887D01*
Y410198D01*
X272558D01*
Y409509D01*
X273247D01*
Y408820D01*
Y408131D01*
Y407442D01*
X272558D01*
Y406753D01*
X273247D01*
Y406064D01*
Y405375D01*
Y404686D01*
X272558D01*
Y403997D01*
X273247D01*
Y403308D01*
Y402619D01*
Y401930D01*
X272558D01*
Y401241D01*
X273247D01*
Y400553D01*
Y399864D01*
Y399175D01*
X272558D01*
Y398486D01*
X273247D01*
Y397797D01*
Y397108D01*
Y396419D01*
X272558D01*
Y395730D01*
X273247D01*
Y395041D01*
Y394352D01*
Y393663D01*
X272558D01*
Y392974D01*
X273247D01*
Y392285D01*
Y391596D01*
Y390907D01*
X272558D01*
Y390218D01*
X273247D01*
Y389529D01*
Y388840D01*
Y388151D01*
X272558D01*
Y387463D01*
X273247D01*
Y386774D01*
Y386085D01*
Y385396D01*
X272558D01*
Y384707D01*
X273247D01*
Y384018D01*
Y383329D01*
Y382640D01*
X272558D01*
Y381951D01*
X273247D01*
Y381262D01*
Y380573D01*
Y379884D01*
X272558D01*
Y379195D01*
X273247D01*
Y378506D01*
Y377817D01*
Y377128D01*
X272558D01*
Y376439D01*
X273247D01*
Y375750D01*
Y375062D01*
Y374373D01*
X272558D01*
Y373684D01*
X273247D01*
Y372995D01*
Y372306D01*
Y371617D01*
X272558D01*
Y370928D01*
X273247D01*
Y370239D01*
Y369550D01*
Y368861D01*
X272558D01*
Y368172D01*
X273247D01*
Y367483D01*
Y366794D01*
Y366105D01*
X272558D01*
Y365416D01*
X273247D01*
Y364727D01*
Y364038D01*
Y363349D01*
X272558D01*
Y362660D01*
X273247D01*
Y361971D01*
Y361283D01*
Y360594D01*
X272558D01*
Y359905D01*
X273247D01*
Y359216D01*
Y358527D01*
Y357838D01*
X272558D01*
Y357149D01*
X273247D01*
Y356460D01*
Y355771D01*
Y355082D01*
X272558D01*
Y354393D01*
X273247D01*
Y353704D01*
Y353015D01*
Y352326D01*
X273936D01*
Y351637D01*
X274625D01*
Y350948D01*
X275314D01*
Y350259D01*
X276003D01*
Y349570D01*
X276692D01*
Y348881D01*
X277380D01*
Y348192D01*
X278070D01*
Y347503D01*
X278758D01*
Y346815D01*
X279447D01*
Y346126D01*
X280136D01*
Y345437D01*
X280825D01*
Y344748D01*
X281514D01*
Y344059D01*
X282203D01*
Y343370D01*
X282892D01*
Y342681D01*
X283581D01*
Y341992D01*
X284270D01*
Y341303D01*
X284959D01*
Y340614D01*
X285648D01*
Y339925D01*
X284959D01*
Y339236D01*
X284270D01*
Y338547D01*
X283581D01*
Y337858D01*
X282892D01*
Y337169D01*
X282203D01*
Y336480D01*
X281514D01*
Y335791D01*
X280825D01*
Y335102D01*
X280136D01*
Y334413D01*
X279447D01*
Y333724D01*
X278758D01*
Y333036D01*
X278070D01*
Y332347D01*
X277380D01*
Y331658D01*
X276692D01*
Y330969D01*
X276003D01*
Y330280D01*
X275314D01*
Y329591D01*
X274625D01*
Y328902D01*
X273936D01*
Y328213D01*
X273247D01*
Y327524D01*
X272558D01*
Y326835D01*
X271869D01*
Y326146D01*
X271180D01*
Y325457D01*
X270491D01*
Y324768D01*
X269802D01*
Y324079D01*
X269113D01*
Y323390D01*
X268424D01*
Y322701D01*
X267735D01*
Y322012D01*
X267046D01*
Y321324D01*
X266357D01*
Y320635D01*
X265668D01*
Y319946D01*
X264979D01*
Y319257D01*
X264291D01*
Y318568D01*
X263601D01*
Y317879D01*
X262913D01*
Y317190D01*
X262224D01*
Y316501D01*
X261535D01*
Y315812D01*
X260846D01*
Y315123D01*
X260157D01*
Y314434D01*
X259468D01*
Y313745D01*
X258779D01*
Y313056D01*
X258090D01*
Y313745D01*
X257401D01*
Y314434D01*
X256712D01*
Y315123D01*
X256023D01*
Y315812D01*
X255334D01*
Y316501D01*
X254645D01*
Y317190D01*
X253956D01*
Y317879D01*
X253267D01*
Y318568D01*
X252578D01*
Y319257D01*
X251889D01*
Y319946D01*
X251201D01*
Y320635D01*
X250512D01*
Y321324D01*
X249823D01*
Y322012D01*
X249134D01*
Y322701D01*
X248445D01*
Y323390D01*
X247756D01*
Y324079D01*
X247067D01*
Y324768D01*
X246378D01*
Y325457D01*
X245689D01*
Y326146D01*
X245000D01*
Y326835D01*
X244311D01*
Y327524D01*
X243622D01*
Y328213D01*
X242933D01*
Y328902D01*
X242244D01*
Y329591D01*
X241555D01*
Y330280D01*
X240866D01*
Y330969D01*
X240177D01*
Y331658D01*
X239488D01*
Y332347D01*
X238799D01*
Y333036D01*
X238111D01*
Y333724D01*
X237422D01*
Y334413D01*
X236732D01*
Y335102D01*
X236044D01*
Y335791D01*
X235355D01*
Y336480D01*
X234666D01*
Y337169D01*
X233977D01*
Y337858D01*
X233288D01*
Y338547D01*
X232599D01*
Y339236D01*
X231910D01*
Y339925D01*
X231221D01*
Y340614D01*
X231910D01*
Y341303D01*
X232599D01*
Y341992D01*
X233288D01*
Y342681D01*
X233977D01*
Y343370D01*
X234666D01*
Y344059D01*
X235355D01*
Y344748D01*
X236044D01*
Y345437D01*
X236732D01*
Y346126D01*
X237422D01*
Y346815D01*
X238111D01*
Y347503D01*
X238799D01*
Y348192D01*
X239488D01*
Y348881D01*
X240177D01*
Y349570D01*
X240866D01*
Y350259D01*
X241555D01*
Y350948D01*
X242244D01*
Y351637D01*
X242933D01*
Y352326D01*
X243622D01*
Y353015D01*
X242933D01*
Y353704D01*
X243622D01*
Y354393D01*
X242933D01*
Y355082D01*
X243622D01*
Y355771D01*
X242933D01*
Y356460D01*
X243622D01*
Y357149D01*
X242933D01*
Y357838D01*
X243622D01*
Y358527D01*
X242933D01*
Y359216D01*
X243622D01*
Y359905D01*
X242933D01*
Y360594D01*
X243622D01*
Y361283D01*
X242933D01*
Y361971D01*
X243622D01*
Y362660D01*
X242933D01*
Y363349D01*
X243622D01*
Y364038D01*
X242933D01*
Y364727D01*
X243622D01*
Y365416D01*
X242933D01*
Y366105D01*
X243622D01*
Y366794D01*
X242933D01*
Y367483D01*
X243622D01*
Y368172D01*
X242933D01*
Y368861D01*
X243622D01*
Y369550D01*
X242933D01*
Y370239D01*
X243622D01*
Y370928D01*
X242933D01*
Y371617D01*
X243622D01*
Y372306D01*
X242933D01*
Y372995D01*
X243622D01*
Y373684D01*
X242933D01*
Y374373D01*
X243622D01*
Y375062D01*
X242933D01*
Y375750D01*
X243622D01*
Y376439D01*
X242933D01*
Y377128D01*
X243622D01*
Y377817D01*
X242933D01*
Y378506D01*
X243622D01*
Y379195D01*
X242933D01*
Y379884D01*
X243622D01*
Y380573D01*
X242933D01*
Y381262D01*
X243622D01*
Y381951D01*
X242933D01*
Y382640D01*
X243622D01*
Y383329D01*
X242933D01*
Y384018D01*
X243622D01*
Y384707D01*
X242933D01*
Y385396D01*
X243622D01*
Y386085D01*
X242933D01*
Y386774D01*
X243622D01*
Y387463D01*
X242933D01*
Y388151D01*
X243622D01*
Y388840D01*
X242933D01*
Y389529D01*
X243622D01*
Y390218D01*
X242933D01*
Y390907D01*
X243622D01*
Y391596D01*
X242933D01*
Y392285D01*
X243622D01*
Y392974D01*
X242933D01*
Y393663D01*
X243622D01*
Y394352D01*
X242933D01*
Y395041D01*
X243622D01*
Y395730D01*
X242933D01*
Y396419D01*
X243622D01*
Y397108D01*
X242933D01*
Y397797D01*
X243622D01*
Y398486D01*
X242933D01*
Y399175D01*
X243622D01*
Y399864D01*
X242933D01*
Y400553D01*
X243622D01*
Y401241D01*
X242933D01*
Y401930D01*
X243622D01*
Y402619D01*
X242933D01*
Y403308D01*
X243622D01*
Y403997D01*
X242933D01*
Y404686D01*
X243622D01*
Y405375D01*
X242933D01*
Y406064D01*
X243622D01*
Y406753D01*
X242933D01*
Y407442D01*
X243622D01*
Y408131D01*
X242933D01*
Y408820D01*
X240866D01*
Y408131D01*
X241555D01*
Y407442D01*
X239488D01*
Y406753D01*
X240177D01*
Y406064D01*
X238111D01*
Y405375D01*
X238799D01*
Y404686D01*
X236732D01*
Y403997D01*
X237422D01*
Y403308D01*
X235355D01*
Y402619D01*
X236044D01*
Y401930D01*
X233977D01*
Y401241D01*
X234666D01*
Y400553D01*
X232599D01*
Y399864D01*
X233288D01*
Y399175D01*
X231221D01*
Y398486D01*
X231910D01*
Y397797D01*
X229843D01*
Y397108D01*
X230532D01*
Y396419D01*
X228465D01*
Y395730D01*
X229154D01*
Y395041D01*
X228465D01*
Y394352D01*
X227776D01*
Y393663D01*
X227087D01*
Y392974D01*
X226398D01*
Y392285D01*
X225709D01*
Y391596D01*
X225020D01*
Y390907D01*
X224332D01*
Y390218D01*
X223643D01*
Y389529D01*
X222954D01*
Y388840D01*
X222265D01*
Y388151D01*
X221576D01*
Y387463D01*
X220887D01*
Y386774D01*
X220198D01*
Y386085D01*
X219509D01*
Y385396D01*
X218820D01*
Y384707D01*
X218131D01*
Y384018D01*
X217442D01*
Y383329D01*
Y382640D01*
Y381951D01*
X218131D01*
Y381262D01*
X217442D01*
Y380573D01*
X218131D01*
Y379884D01*
X217442D01*
Y379195D01*
X218131D01*
Y378506D01*
X217442D01*
Y377817D01*
Y377128D01*
Y376439D01*
X218131D01*
Y375750D01*
X217442D01*
Y375062D01*
X218131D01*
Y374373D01*
X217442D01*
Y373684D01*
X218131D01*
Y372995D01*
X217442D01*
Y372306D01*
Y371617D01*
Y370928D01*
X218131D01*
Y370239D01*
X217442D01*
Y369550D01*
X218131D01*
Y368861D01*
X217442D01*
Y368172D01*
X218131D01*
Y367483D01*
X217442D01*
Y366794D01*
Y366105D01*
Y365416D01*
X218131D01*
Y364727D01*
X217442D01*
Y364038D01*
X218131D01*
Y363349D01*
X217442D01*
Y362660D01*
X218131D01*
Y361971D01*
X217442D01*
Y361283D01*
Y360594D01*
Y359905D01*
X218131D01*
Y359216D01*
X217442D01*
Y358527D01*
X218131D01*
Y357838D01*
X217442D01*
Y357149D01*
X218131D01*
Y356460D01*
X217442D01*
Y355771D01*
Y355082D01*
Y354393D01*
X218131D01*
Y353704D01*
X217442D01*
Y353015D01*
X218131D01*
Y352326D01*
X217442D01*
Y351637D01*
X218820D01*
Y350948D01*
Y350259D01*
X219509D01*
Y349570D01*
X220198D01*
Y348881D01*
X220887D01*
Y348192D01*
X221576D01*
Y347503D01*
X222265D01*
Y346815D01*
X222954D01*
Y346126D01*
X223643D01*
Y345437D01*
X224332D01*
Y344748D01*
X225020D01*
Y344059D01*
X225709D01*
Y343370D01*
X226398D01*
Y342681D01*
X227087D01*
Y341992D01*
X227776D01*
Y341303D01*
X228465D01*
Y340614D01*
X229154D01*
Y339925D01*
X228465D01*
Y339236D01*
X227776D01*
Y338547D01*
X227087D01*
Y337858D01*
X226398D01*
Y337169D01*
X225709D01*
Y336480D01*
X225020D01*
Y335791D01*
X224332D01*
Y335102D01*
X223643D01*
Y334413D01*
X222954D01*
Y333724D01*
X222265D01*
Y333036D01*
X221576D01*
Y332347D01*
X220887D01*
Y331658D01*
X220198D01*
Y330969D01*
X219509D01*
Y330280D01*
X218820D01*
Y329591D01*
X218131D01*
Y328902D01*
X217442D01*
Y328213D01*
X216753D01*
Y327524D01*
X216064D01*
Y326835D01*
X215375D01*
Y326146D01*
X214686D01*
Y325457D01*
X213997D01*
Y324768D01*
X213308D01*
Y324079D01*
X212619D01*
Y323390D01*
X211930D01*
Y322701D01*
X211241D01*
Y322012D01*
X210553D01*
Y321324D01*
X209864D01*
Y320635D01*
X209175D01*
Y319946D01*
X208486D01*
Y319257D01*
X207797D01*
Y318568D01*
X207108D01*
Y317879D01*
X206419D01*
Y317190D01*
X205730D01*
Y316501D01*
X205041D01*
Y315812D01*
X204352D01*
Y315123D01*
X203663D01*
Y314434D01*
X202974D01*
Y313745D01*
X202285D01*
Y313056D01*
X201596D01*
Y313745D01*
X200907D01*
Y314434D01*
X200218D01*
Y315123D01*
X199529D01*
Y315812D01*
X198840D01*
Y316501D01*
X198151D01*
Y317190D01*
X197463D01*
Y317879D01*
X196774D01*
Y318568D01*
X196085D01*
Y319257D01*
X195396D01*
Y319946D01*
X194707D01*
Y320635D01*
X194018D01*
Y321324D01*
X193329D01*
Y322012D01*
X192640D01*
Y322701D01*
X191951D01*
Y323390D01*
X191262D01*
Y324079D01*
X190573D01*
Y324768D01*
X189884D01*
Y325457D01*
X189195D01*
Y326146D01*
X188506D01*
Y326835D01*
X187817D01*
Y327524D01*
X187128D01*
Y328213D01*
X186439D01*
Y328902D01*
X185750D01*
Y329591D01*
X185061D01*
Y330280D01*
X184373D01*
Y330969D01*
X183684D01*
Y331658D01*
X182995D01*
Y332347D01*
X182306D01*
Y333036D01*
X181617D01*
Y333724D01*
X180928D01*
Y334413D01*
X180239D01*
Y335102D01*
X179550D01*
Y335791D01*
X178861D01*
Y336480D01*
X178172D01*
Y337169D01*
X177483D01*
Y337858D01*
X176794D01*
Y338547D01*
X176105D01*
Y339236D01*
X175416D01*
Y339925D01*
X174727D01*
Y340614D01*
X176794D01*
Y341303D01*
X176105D01*
Y341992D01*
X176794D01*
Y342681D01*
X177483D01*
Y343370D01*
X178861D01*
Y344059D01*
Y344748D01*
X179550D01*
Y345437D01*
X180239D01*
Y346126D01*
X182306D01*
Y346815D01*
X181617D01*
Y347503D01*
X182306D01*
Y348192D01*
X182995D01*
Y348881D01*
X184373D01*
Y349570D01*
Y350259D01*
X185061D01*
Y350948D01*
X185750D01*
Y351637D01*
X187817D01*
Y352326D01*
X187128D01*
Y353015D01*
X187817D01*
Y353704D01*
X187128D01*
Y354393D01*
X187817D01*
Y355082D01*
X187128D01*
Y355771D01*
X187817D01*
Y356460D01*
X187128D01*
Y357149D01*
X187817D01*
Y357838D01*
X187128D01*
Y358527D01*
X187817D01*
Y359216D01*
X187128D01*
Y359905D01*
X187817D01*
Y360594D01*
X187128D01*
Y361283D01*
X187817D01*
Y361971D01*
X187128D01*
Y362660D01*
X187817D01*
Y363349D01*
X187128D01*
Y364038D01*
X187817D01*
Y364727D01*
X187128D01*
Y365416D01*
X187817D01*
Y366105D01*
X187128D01*
Y366794D01*
X187817D01*
Y367483D01*
X187128D01*
Y368172D01*
X187817D01*
Y368861D01*
X187128D01*
Y369550D01*
X187817D01*
Y370239D01*
X187128D01*
Y370928D01*
X187817D01*
Y371617D01*
X187128D01*
Y372306D01*
X187817D01*
Y372995D01*
X187128D01*
Y373684D01*
X187817D01*
Y374373D01*
X187128D01*
Y375062D01*
X187817D01*
Y375750D01*
X187128D01*
Y376439D01*
X187817D01*
Y377128D01*
X187128D01*
Y377817D01*
X187817D01*
Y378506D01*
X187128D01*
Y379195D01*
X187817D01*
Y379884D01*
X187128D01*
Y380573D01*
X187817D01*
Y381262D01*
X187128D01*
Y381951D01*
X187817D01*
Y382640D01*
X187128D01*
Y383329D01*
X187817D01*
Y384018D01*
X187128D01*
Y384707D01*
X187817D01*
Y385396D01*
X187128D01*
Y386085D01*
X187817D01*
Y386774D01*
X187128D01*
Y387463D01*
X187817D01*
Y388151D01*
X187128D01*
Y388840D01*
X187817D01*
Y389529D01*
X187128D01*
Y390218D01*
X187817D01*
Y390907D01*
X187128D01*
Y391596D01*
X187817D01*
Y392285D01*
X187128D01*
Y392974D01*
X187817D01*
Y393663D01*
X187128D01*
Y394352D01*
X187817D01*
Y395041D01*
X187128D01*
Y395730D01*
X187817D01*
Y396419D01*
X187128D01*
Y397108D01*
X187817D01*
Y397797D01*
X187128D01*
Y398486D01*
X187817D01*
Y399175D01*
Y399864D01*
X189195D01*
Y400553D01*
Y401241D01*
X190573D01*
Y401930D01*
Y402619D01*
X191951D01*
Y403308D01*
X191262D01*
Y403997D01*
X193329D01*
Y404686D01*
X192640D01*
Y405375D01*
X194707D01*
Y406064D01*
X194018D01*
Y406753D01*
X196085D01*
Y407442D01*
Y408131D01*
X197463D01*
Y408820D01*
X196774D01*
Y409509D01*
X198840D01*
Y410198D01*
X198151D01*
Y410887D01*
X200218D01*
Y411576D01*
X199529D01*
Y412265D01*
X201596D01*
Y412954D01*
X200907D01*
Y413643D01*
X202974D01*
Y414332D01*
X202285D01*
Y415021D01*
X203663D01*
Y415709D01*
Y416398D01*
X205041D01*
Y417087D01*
Y417776D01*
X206419D01*
Y418465D01*
Y419154D01*
X207797D01*
Y419843D01*
Y420532D01*
X209175D01*
Y421221D01*
Y421910D01*
X208486D01*
Y422599D01*
X207797D01*
Y423288D01*
X207108D01*
Y423977D01*
X206419D01*
Y424666D01*
X205730D01*
Y425355D01*
X205041D01*
Y426044D01*
X204352D01*
Y426733D01*
X203663D01*
Y427422D01*
X202974D01*
Y428111D01*
X202285D01*
Y428800D01*
X201596D01*
Y429488D01*
X200907D01*
Y430177D01*
X200218D01*
Y430866D01*
X199529D01*
Y431555D01*
X198840D01*
Y432244D01*
X198151D01*
Y432933D01*
X197463D01*
Y433622D01*
X196774D01*
Y434311D01*
X196085D01*
Y435000D01*
X195396D01*
Y435689D01*
X194707D01*
Y436378D01*
X194018D01*
Y437067D01*
X193329D01*
Y437756D01*
X192640D01*
Y438445D01*
X191951D01*
Y439134D01*
X191262D01*
Y439823D01*
X190573D01*
Y440512D01*
X189884D01*
Y441200D01*
X189195D01*
Y441889D01*
X188506D01*
Y442579D01*
Y443267D01*
Y443956D01*
X189195D01*
Y444645D01*
X188506D01*
Y445334D01*
Y446023D01*
Y446712D01*
Y447401D01*
Y448090D01*
Y448779D01*
Y449468D01*
X189195D01*
Y450157D01*
X188506D01*
Y450846D01*
Y451535D01*
Y452224D01*
X189195D01*
Y452913D01*
X188506D01*
Y453602D01*
Y454291D01*
Y454979D01*
X189195D01*
Y455668D01*
X188506D01*
Y456357D01*
Y457046D01*
Y457735D01*
Y458424D01*
Y459113D01*
Y459802D01*
Y460491D01*
X189195D01*
Y461180D01*
X188506D01*
Y461869D01*
Y462558D01*
Y463247D01*
X189195D01*
Y463936D01*
X188506D01*
Y464625D01*
Y465314D01*
Y466003D01*
X189195D01*
Y466692D01*
X188506D01*
Y467380D01*
Y468070D01*
Y468759D01*
Y469447D01*
Y470136D01*
Y470825D01*
Y471514D01*
Y472203D01*
Y472892D01*
X189195D01*
Y473581D01*
X189884D01*
Y474270D01*
X190573D01*
Y474959D01*
X191262D01*
Y475648D01*
X191951D01*
Y476337D01*
X192640D01*
Y477026D01*
X193329D01*
Y477715D01*
X194018D01*
Y478404D01*
X194707D01*
Y479093D01*
X195396D01*
Y479782D01*
X196085D01*
Y480471D01*
X196774D01*
Y481160D01*
X197463D01*
Y481849D01*
X198151D01*
Y482538D01*
X198840D01*
Y483226D01*
X199529D01*
Y483915D01*
X200218D01*
Y484604D01*
X200907D01*
Y485293D01*
X201596D01*
Y485982D01*
X202285D01*
Y486671D01*
X202974D01*
Y487360D01*
X203663D01*
Y488049D01*
X204352D01*
Y488738D01*
X205041D01*
Y489427D01*
X205730D01*
Y490116D01*
X206419D01*
Y490805D01*
X207108D01*
Y491494D01*
X207797D01*
Y492183D01*
X208486D01*
Y492872D01*
X209175D01*
Y493561D01*
X209864D01*
Y494250D01*
X210553D01*
Y494939D01*
X211241D01*
Y495627D01*
X211930D01*
Y496316D01*
X212619D01*
Y497005D01*
X213308D01*
Y497694D01*
X213997D01*
Y498383D01*
X214686D01*
Y499072D01*
X215375D01*
Y499761D01*
X216064D01*
Y500450D01*
X216753D01*
Y501139D01*
X217442D01*
Y501828D01*
X218131D01*
Y502517D01*
X218820D01*
Y503206D01*
X219509D01*
Y503895D01*
X220198D01*
Y504584D01*
X221576D01*
Y505273D01*
Y505962D01*
X263601D01*
Y505273D01*
D02*
G37*
G36*
X135457D02*
X136146D01*
Y504584D01*
X136835D01*
Y503895D01*
X137524D01*
Y503206D01*
X138213D01*
Y502517D01*
X138902D01*
Y501828D01*
X139591D01*
Y501139D01*
X140280D01*
Y500450D01*
X140969D01*
Y499761D01*
X141658D01*
Y499072D01*
X142347D01*
Y498383D01*
X143036D01*
Y497694D01*
X143725D01*
Y497005D01*
X144413D01*
Y496316D01*
X145102D01*
Y495627D01*
X145791D01*
Y494939D01*
X146480D01*
Y494250D01*
X147169D01*
Y493561D01*
X147858D01*
Y492872D01*
X148547D01*
Y492183D01*
X149236D01*
Y491494D01*
X149925D01*
Y490805D01*
X150614D01*
Y490116D01*
X151303D01*
Y489427D01*
X151992D01*
Y488738D01*
X152681D01*
Y488049D01*
X153370D01*
Y487360D01*
X154059D01*
Y486671D01*
X154748D01*
Y485982D01*
X155437D01*
Y485293D01*
X156126D01*
Y484604D01*
X156815D01*
Y483915D01*
X157504D01*
Y483226D01*
X158192D01*
Y482538D01*
X158881D01*
Y481849D01*
X159570D01*
Y481160D01*
X160259D01*
Y480471D01*
X160948D01*
Y479782D01*
X161637D01*
Y479093D01*
X162326D01*
Y478404D01*
X163015D01*
Y477715D01*
X163704D01*
Y477026D01*
X164393D01*
Y476337D01*
X165082D01*
Y475648D01*
X165771D01*
Y474959D01*
X166460D01*
Y474270D01*
X167149D01*
Y473581D01*
X167838D01*
Y472892D01*
X168527D01*
Y472203D01*
X169216D01*
Y471514D01*
X169905D01*
Y470825D01*
X170594D01*
Y470136D01*
X171282D01*
Y469447D01*
X171971D01*
Y468759D01*
X172660D01*
Y468070D01*
X173349D01*
Y467380D01*
X174038D01*
Y466692D01*
X174727D01*
Y466003D01*
X175416D01*
Y465314D01*
X176105D01*
Y464625D01*
X176794D01*
Y463936D01*
X176105D01*
Y463247D01*
X176794D01*
Y462558D01*
X176105D01*
Y461869D01*
X176794D01*
Y461180D01*
X176105D01*
Y460491D01*
X176794D01*
Y459802D01*
X176105D01*
Y459113D01*
X176794D01*
Y458424D01*
X176105D01*
Y457735D01*
X176794D01*
Y457046D01*
X176105D01*
Y456357D01*
X176794D01*
Y455668D01*
X176105D01*
Y454979D01*
X176794D01*
Y454291D01*
X176105D01*
Y453602D01*
X176794D01*
Y452913D01*
X176105D01*
Y452224D01*
X176794D01*
Y451535D01*
X176105D01*
Y450846D01*
X176794D01*
Y450157D01*
X176105D01*
Y449468D01*
X176794D01*
Y448779D01*
X176105D01*
Y448090D01*
X176794D01*
Y447401D01*
X176105D01*
Y446712D01*
X176794D01*
Y446023D01*
X176105D01*
Y445334D01*
X176794D01*
Y444645D01*
X176105D01*
Y443956D01*
X176794D01*
Y443267D01*
X176105D01*
Y442579D01*
X176794D01*
Y441889D01*
X176105D01*
Y441200D01*
X176794D01*
Y440512D01*
X176105D01*
Y439823D01*
X176794D01*
Y439134D01*
X176105D01*
Y438445D01*
X176794D01*
Y437756D01*
X176105D01*
Y437067D01*
X176794D01*
Y436378D01*
X176105D01*
Y435689D01*
X176794D01*
Y435000D01*
X176105D01*
Y434311D01*
X176794D01*
Y433622D01*
X176105D01*
Y432933D01*
X176794D01*
Y432244D01*
X176105D01*
Y431555D01*
X176794D01*
Y430866D01*
X176105D01*
Y430177D01*
X176794D01*
Y429488D01*
X176105D01*
Y428800D01*
X176794D01*
Y428111D01*
X176105D01*
Y427422D01*
X176794D01*
Y426733D01*
X176105D01*
Y426044D01*
X176794D01*
Y425355D01*
X176105D01*
Y424666D01*
X176794D01*
Y423977D01*
X176105D01*
Y423288D01*
X176794D01*
Y422599D01*
X176105D01*
Y421910D01*
X176794D01*
Y421221D01*
X176105D01*
Y420532D01*
X176794D01*
Y419843D01*
X176105D01*
Y419154D01*
X176794D01*
Y418465D01*
X176105D01*
Y417776D01*
X176794D01*
Y417087D01*
X176105D01*
Y416398D01*
X176794D01*
Y415709D01*
X176105D01*
Y415021D01*
X176794D01*
Y414332D01*
X176105D01*
Y413643D01*
X176794D01*
Y412954D01*
X176105D01*
Y412265D01*
X176794D01*
Y411576D01*
X176105D01*
Y410887D01*
X176794D01*
Y410198D01*
X176105D01*
Y409509D01*
X176794D01*
Y408820D01*
X176105D01*
Y408131D01*
X176794D01*
Y407442D01*
X176105D01*
Y406753D01*
X176794D01*
Y406064D01*
X176105D01*
Y405375D01*
X176794D01*
Y404686D01*
X176105D01*
Y403997D01*
X176794D01*
Y403308D01*
X176105D01*
Y402619D01*
X176794D01*
Y401930D01*
X176105D01*
Y401241D01*
X176794D01*
Y400553D01*
X176105D01*
Y399864D01*
X176794D01*
Y399175D01*
X176105D01*
Y398486D01*
X176794D01*
Y397797D01*
X176105D01*
Y397108D01*
X176794D01*
Y396419D01*
X176105D01*
Y395730D01*
X176794D01*
Y395041D01*
X176105D01*
Y394352D01*
X176794D01*
Y393663D01*
X176105D01*
Y392974D01*
X176794D01*
Y392285D01*
X176105D01*
Y391596D01*
X176794D01*
Y390907D01*
X176105D01*
Y390218D01*
X176794D01*
Y389529D01*
X176105D01*
Y388840D01*
X176794D01*
Y388151D01*
X176105D01*
Y387463D01*
X176794D01*
Y386774D01*
X176105D01*
Y386085D01*
X176794D01*
Y385396D01*
X176105D01*
Y384707D01*
X176794D01*
Y384018D01*
X176105D01*
Y383329D01*
X176794D01*
Y382640D01*
X176105D01*
Y381951D01*
X176794D01*
Y381262D01*
X176105D01*
Y380573D01*
X176794D01*
Y379884D01*
X176105D01*
Y379195D01*
X176794D01*
Y378506D01*
X176105D01*
Y377817D01*
X176794D01*
Y377128D01*
X176105D01*
Y376439D01*
X176794D01*
Y375750D01*
X176105D01*
Y375062D01*
X176794D01*
Y374373D01*
X176105D01*
Y373684D01*
X176794D01*
Y372995D01*
X176105D01*
Y372306D01*
X176794D01*
Y371617D01*
X176105D01*
Y370928D01*
X176794D01*
Y370239D01*
X176105D01*
Y369550D01*
X176794D01*
Y368861D01*
X176105D01*
Y368172D01*
X176794D01*
Y367483D01*
X176105D01*
Y366794D01*
X176794D01*
Y366105D01*
X176105D01*
Y365416D01*
X176794D01*
Y364727D01*
X176105D01*
Y364038D01*
X176794D01*
Y363349D01*
X176105D01*
Y362660D01*
X176794D01*
Y361971D01*
X176105D01*
Y361283D01*
X176794D01*
Y360594D01*
X176105D01*
Y359905D01*
X176794D01*
Y359216D01*
X176105D01*
Y358527D01*
X176794D01*
Y357838D01*
X176105D01*
Y357149D01*
X176794D01*
Y356460D01*
X176105D01*
Y355771D01*
X176794D01*
Y355082D01*
X176105D01*
Y354393D01*
X176794D01*
Y353704D01*
X176105D01*
Y353015D01*
X176794D01*
Y352326D01*
X176105D01*
Y351637D01*
X175416D01*
Y350948D01*
X174727D01*
Y350259D01*
X174038D01*
Y349570D01*
X173349D01*
Y348881D01*
X172660D01*
Y348192D01*
X171971D01*
Y347503D01*
X171282D01*
Y346815D01*
X170594D01*
Y346126D01*
X169905D01*
Y345437D01*
X169216D01*
Y344748D01*
X168527D01*
Y344059D01*
X167838D01*
Y343370D01*
X167149D01*
Y342681D01*
X166460D01*
Y341992D01*
X165771D01*
Y341303D01*
X165082D01*
Y340614D01*
X164393D01*
Y339925D01*
X163704D01*
Y339236D01*
X163015D01*
Y338547D01*
X162326D01*
Y337858D01*
X161637D01*
Y337169D01*
X160948D01*
Y336480D01*
X160259D01*
Y335791D01*
X159570D01*
Y335102D01*
X158881D01*
Y334413D01*
X158192D01*
Y333724D01*
X157504D01*
Y333036D01*
X156815D01*
Y332347D01*
X156126D01*
Y331658D01*
X155437D01*
Y330969D01*
X154748D01*
Y330280D01*
X154059D01*
Y329591D01*
X153370D01*
Y328902D01*
X152681D01*
Y328213D01*
X151992D01*
Y327524D01*
X151303D01*
Y326835D01*
X150614D01*
Y326146D01*
X149925D01*
Y325457D01*
X149236D01*
Y324768D01*
X148547D01*
Y324079D01*
X147858D01*
Y323390D01*
X147169D01*
Y322701D01*
X146480D01*
Y322012D01*
X145791D01*
Y321324D01*
X145102D01*
Y320635D01*
X144413D01*
Y319946D01*
X143725D01*
Y319257D01*
X143036D01*
Y318568D01*
X142347D01*
Y317879D01*
X141658D01*
Y317190D01*
X140969D01*
Y316501D01*
X140280D01*
Y315812D01*
X139591D01*
Y315123D01*
X138902D01*
Y314434D01*
X138213D01*
Y313745D01*
X137524D01*
Y313056D01*
X136835D01*
Y313745D01*
X136146D01*
Y314434D01*
X135457D01*
Y315123D01*
X134768D01*
Y315812D01*
X134079D01*
Y316501D01*
X133390D01*
Y317190D01*
X132701D01*
Y317879D01*
X132012D01*
Y318568D01*
X131323D01*
Y319257D01*
X130635D01*
Y319946D01*
X129946D01*
Y320635D01*
X129257D01*
Y321324D01*
X128568D01*
Y322012D01*
X127879D01*
Y322701D01*
X127190D01*
Y323390D01*
X126501D01*
Y324079D01*
X125812D01*
Y324768D01*
X125123D01*
Y325457D01*
X124434D01*
Y326146D01*
X123745D01*
Y326835D01*
X123056D01*
Y327524D01*
X122367D01*
Y328213D01*
X121678D01*
Y328902D01*
X120989D01*
Y329591D01*
X120300D01*
Y330280D01*
X119611D01*
Y330969D01*
X118922D01*
Y331658D01*
X118233D01*
Y332347D01*
X117544D01*
Y333036D01*
X116856D01*
Y333724D01*
X116167D01*
Y334413D01*
X115478D01*
Y335102D01*
X114789D01*
Y335791D01*
X114100D01*
Y336480D01*
X113411D01*
Y337169D01*
X112722D01*
Y337858D01*
X112033D01*
Y338547D01*
X111344D01*
Y339236D01*
X110655D01*
Y339925D01*
X109966D01*
Y340614D01*
X109277D01*
Y341303D01*
X108588D01*
Y341992D01*
X107899D01*
Y342681D01*
X107210D01*
Y343370D01*
X106521D01*
Y344059D01*
X105832D01*
Y344748D01*
X105143D01*
Y345437D01*
X104454D01*
Y346126D01*
X103766D01*
Y346815D01*
X103076D01*
Y347503D01*
X102388D01*
Y348192D01*
X101699D01*
Y348881D01*
X101010D01*
Y349570D01*
X100321D01*
Y350259D01*
X99632D01*
Y350948D01*
X98943D01*
Y351637D01*
X98254D01*
Y352326D01*
X97565D01*
Y353015D01*
X96876D01*
Y353704D01*
X96187D01*
Y354393D01*
X95498D01*
Y355082D01*
X94809D01*
Y355771D01*
X94120D01*
Y356460D01*
X93431D01*
Y357149D01*
X92742D01*
Y357838D01*
Y358527D01*
Y359216D01*
Y359905D01*
Y360594D01*
Y361283D01*
Y361971D01*
Y362660D01*
Y363349D01*
Y364038D01*
Y364727D01*
Y365416D01*
Y366105D01*
Y366794D01*
Y367483D01*
Y368172D01*
Y368861D01*
Y369550D01*
Y370239D01*
Y370928D01*
Y371617D01*
Y372306D01*
Y372995D01*
Y373684D01*
Y374373D01*
Y375062D01*
Y375750D01*
Y376439D01*
Y377128D01*
Y377817D01*
Y378506D01*
Y379195D01*
Y379884D01*
Y380573D01*
Y381262D01*
Y381951D01*
Y382640D01*
Y383329D01*
Y384018D01*
Y384707D01*
Y385396D01*
Y386085D01*
Y386774D01*
Y387463D01*
Y388151D01*
Y388840D01*
Y389529D01*
Y390218D01*
Y390907D01*
Y391596D01*
Y392285D01*
Y392974D01*
Y393663D01*
Y394352D01*
Y395041D01*
Y395730D01*
Y396419D01*
Y397108D01*
Y397797D01*
Y398486D01*
Y399175D01*
Y399864D01*
Y400553D01*
Y401241D01*
Y401930D01*
Y402619D01*
Y403308D01*
Y403997D01*
Y404686D01*
Y405375D01*
Y406064D01*
Y406753D01*
Y407442D01*
Y408131D01*
Y408820D01*
Y409509D01*
Y410198D01*
Y410887D01*
Y411576D01*
Y412265D01*
Y412954D01*
Y413643D01*
Y414332D01*
Y415021D01*
Y415709D01*
Y416398D01*
Y417087D01*
Y417776D01*
Y418465D01*
Y419154D01*
Y419843D01*
Y420532D01*
Y421221D01*
Y421910D01*
Y422599D01*
Y423288D01*
Y423977D01*
Y424666D01*
Y425355D01*
Y426044D01*
Y426733D01*
Y427422D01*
Y428111D01*
Y428800D01*
Y429488D01*
Y430177D01*
Y430866D01*
Y431555D01*
Y432244D01*
Y432933D01*
Y433622D01*
Y434311D01*
Y435000D01*
Y435689D01*
Y436378D01*
Y437067D01*
Y437756D01*
Y438445D01*
Y439134D01*
Y439823D01*
Y440512D01*
Y441200D01*
Y441889D01*
Y442579D01*
Y443267D01*
Y443956D01*
Y444645D01*
Y445334D01*
Y446023D01*
Y446712D01*
Y447401D01*
Y448090D01*
Y448779D01*
Y449468D01*
Y450157D01*
Y450846D01*
Y451535D01*
Y452224D01*
Y452913D01*
Y453602D01*
Y454291D01*
Y454979D01*
Y455668D01*
Y456357D01*
Y457046D01*
Y457735D01*
Y458424D01*
Y459113D01*
Y459802D01*
Y460491D01*
Y461180D01*
Y461869D01*
Y462558D01*
Y463247D01*
Y463936D01*
X93431D01*
Y464625D01*
X94120D01*
Y465314D01*
X94809D01*
Y466003D01*
X95498D01*
Y466692D01*
X96187D01*
Y467380D01*
X96876D01*
Y468070D01*
X97565D01*
Y468759D01*
X98254D01*
Y469447D01*
X98943D01*
Y470136D01*
X99632D01*
Y470825D01*
X100321D01*
Y471514D01*
X101010D01*
Y472203D01*
X101699D01*
Y472892D01*
X102388D01*
Y473581D01*
X103076D01*
Y474270D01*
X103766D01*
Y474959D01*
X104454D01*
Y475648D01*
X105143D01*
Y476337D01*
X105832D01*
Y477026D01*
X106521D01*
Y477715D01*
X107210D01*
Y478404D01*
X107899D01*
Y479093D01*
X108588D01*
Y479782D01*
X109277D01*
Y480471D01*
X109966D01*
Y481160D01*
X110655D01*
Y481849D01*
X111344D01*
Y482538D01*
X112033D01*
Y483226D01*
X112722D01*
Y483915D01*
X113411D01*
Y484604D01*
X114100D01*
Y485293D01*
X114789D01*
Y485982D01*
X115478D01*
Y486671D01*
X116167D01*
Y487360D01*
X116856D01*
Y488049D01*
X117544D01*
Y488738D01*
X118233D01*
Y489427D01*
X118922D01*
Y490116D01*
X119611D01*
Y490805D01*
X120300D01*
Y491494D01*
X120989D01*
Y492183D01*
X121678D01*
Y492872D01*
X122367D01*
Y493561D01*
X123056D01*
Y494250D01*
X123745D01*
Y494939D01*
X124434D01*
Y495627D01*
X125123D01*
Y496316D01*
X125812D01*
Y497005D01*
X126501D01*
Y497694D01*
X127190D01*
Y498383D01*
X127879D01*
Y499072D01*
X128568D01*
Y499761D01*
X129257D01*
Y500450D01*
X129946D01*
Y501139D01*
X130635D01*
Y501828D01*
X131323D01*
Y502517D01*
X132012D01*
Y503206D01*
X132701D01*
Y503895D01*
X133390D01*
Y504584D01*
X134079D01*
Y505273D01*
X134768D01*
Y505962D01*
X135457D01*
Y505273D01*
D02*
G37*
G36*
X1371566Y780771D02*
X1372955Y780250D01*
X1374170Y779556D01*
X1375212Y778861D01*
X1376080Y778167D01*
X1376601Y777473D01*
X1376948Y776952D01*
X1377122Y776778D01*
X1377816Y775216D01*
X1378163Y773654D01*
Y772265D01*
X1377990Y771049D01*
X1377642Y770008D01*
X1377469Y769140D01*
X1377295Y768619D01*
X1377122Y768446D01*
X1247269Y543807D01*
X1246054Y542245D01*
X1244838Y541203D01*
X1243450Y540509D01*
X1242061Y540162D01*
X1240846Y539988D01*
X1239110D01*
X1237721Y540335D01*
X1236506Y540856D01*
X1235464Y541377D01*
X1234596Y542071D01*
X1233902Y542765D01*
X1233554Y543286D01*
X1233381Y543634D01*
X1233207Y543807D01*
X1103528Y768446D01*
X1103007Y770008D01*
X1102834Y771570D01*
Y772959D01*
X1103007Y774174D01*
X1103181Y775216D01*
X1103354Y776084D01*
X1103528Y776605D01*
Y776778D01*
X1104570Y778167D01*
X1105611Y779209D01*
X1106826Y779903D01*
X1107868Y780424D01*
X1108910Y780771D01*
X1109778Y780945D01*
X1370004D01*
X1371566Y780771D01*
D02*
G37*
G36*
X1444071Y779742D02*
X1445286Y779047D01*
X1446328Y778353D01*
X1447196Y777658D01*
X1447890Y777138D01*
X1448238Y776617D01*
X1448411Y776270D01*
X1448585Y776096D01*
X1578090Y552326D01*
X1578611Y550763D01*
X1578958Y549201D01*
Y547638D01*
X1578785Y546423D01*
X1578611Y545382D01*
X1578438Y544687D01*
X1578090Y544166D01*
Y543993D01*
X1577049Y542604D01*
X1576007Y541736D01*
X1574792Y541042D01*
X1573577Y540521D01*
X1572535Y540174D01*
X1571667Y540000D01*
X1312135D01*
X1310573Y540174D01*
X1309358Y540694D01*
X1308142Y541215D01*
X1307101Y542083D01*
X1306406Y542778D01*
X1305886Y543298D01*
X1305538Y543819D01*
X1305365Y543993D01*
X1304670Y545382D01*
X1304323Y546944D01*
Y548333D01*
X1304497Y549548D01*
X1304670Y550763D01*
X1305018Y551631D01*
X1305191Y552152D01*
X1305365Y552326D01*
X1434523Y776096D01*
X1435738Y777658D01*
X1437127Y778874D01*
X1438516Y779568D01*
X1439731Y780089D01*
X1440946Y780262D01*
X1442682D01*
X1444071Y779742D01*
D02*
G37*
G36*
X1043402Y781130D02*
X1044618Y780610D01*
X1045486Y779915D01*
X1046354Y779221D01*
X1047048Y778526D01*
X1047569Y777832D01*
X1047742Y777485D01*
X1047916Y777311D01*
X1177942Y552326D01*
X1178463Y550763D01*
X1178637Y549201D01*
Y547812D01*
X1178463Y546597D01*
X1178290Y545555D01*
X1178116Y544687D01*
X1177942Y544166D01*
Y543993D01*
X1176901Y542604D01*
X1175859Y541736D01*
X1174644Y541042D01*
X1173429Y540521D01*
X1172387Y540173D01*
X1171519Y540000D01*
X910772D01*
X909210Y540173D01*
X907821Y540694D01*
X906606Y541215D01*
X905738Y542083D01*
X904870Y542778D01*
X904349Y543298D01*
X904002Y543819D01*
X903828Y543993D01*
X903307Y545555D01*
X902960Y547117D01*
Y548506D01*
X903134Y549721D01*
X903307Y550763D01*
X903481Y551631D01*
X903828Y552152D01*
Y552326D01*
X1033681Y777311D01*
X1034896Y778874D01*
X1036285Y780089D01*
X1037847Y780783D01*
X1039062Y781304D01*
X1040278Y781477D01*
X1042014D01*
X1043402Y781130D01*
D02*
G37*
%LPC*%
G36*
X536425Y472203D02*
X535736D01*
Y471514D01*
Y470825D01*
X534358D01*
Y470136D01*
X535047D01*
Y469447D01*
X532981D01*
Y468759D01*
Y468070D01*
X531603D01*
Y467380D01*
X532292D01*
Y466692D01*
X530225D01*
Y466003D01*
Y465314D01*
X528847D01*
Y464625D01*
X529536D01*
Y463936D01*
X527469D01*
Y463247D01*
X528158D01*
Y462558D01*
X526091D01*
Y461869D01*
X526780D01*
Y461180D01*
X524713D01*
Y460491D01*
X525402D01*
Y459802D01*
X523335D01*
Y459113D01*
X524024D01*
Y458424D01*
X521957D01*
Y457735D01*
X522646D01*
Y457046D01*
X520579D01*
Y456357D01*
X521268D01*
Y455668D01*
X519202D01*
Y454979D01*
X519890D01*
Y454291D01*
X517824D01*
Y453602D01*
X518513D01*
Y452913D01*
X516446D01*
Y452224D01*
X517135D01*
Y451535D01*
X515068D01*
Y450846D01*
X515757D01*
Y450157D01*
X513690D01*
Y449468D01*
X514379D01*
Y448779D01*
X513690D01*
Y448090D01*
X513001D01*
Y447401D01*
X512312D01*
Y446712D01*
X511623D01*
Y446023D01*
X510934D01*
Y445334D01*
X511623D01*
Y444645D01*
X510934D01*
Y443956D01*
X511623D01*
Y443267D01*
X510934D01*
Y442579D01*
X511623D01*
Y441889D01*
X510934D01*
Y441200D01*
X511623D01*
Y440512D01*
X510934D01*
Y439823D01*
X511623D01*
Y439134D01*
X510934D01*
Y438445D01*
X511623D01*
Y437756D01*
X510934D01*
Y437067D01*
X511623D01*
Y436378D01*
X510934D01*
Y435689D01*
X511623D01*
Y435000D01*
X510934D01*
Y434311D01*
X511623D01*
Y433622D01*
X510934D01*
Y432933D01*
X511623D01*
Y432244D01*
X510934D01*
Y431555D01*
X511623D01*
Y430866D01*
X510934D01*
Y430177D01*
X511623D01*
Y429488D01*
X510934D01*
Y428800D01*
X511623D01*
Y428111D01*
X510934D01*
Y427422D01*
X511623D01*
Y426733D01*
X510934D01*
Y426044D01*
X511623D01*
Y425355D01*
X510934D01*
Y424666D01*
X511623D01*
Y423977D01*
X510934D01*
Y423288D01*
X511623D01*
Y422599D01*
X510934D01*
Y421910D01*
X511623D01*
Y421221D01*
X510934D01*
Y420532D01*
X511623D01*
Y419843D01*
X510934D01*
Y419154D01*
X511623D01*
Y418465D01*
X510934D01*
Y417776D01*
X511623D01*
Y417087D01*
X510934D01*
Y416398D01*
X511623D01*
Y415709D01*
X510934D01*
Y415021D01*
X511623D01*
Y414332D01*
X510934D01*
Y413643D01*
X511623D01*
Y412954D01*
X510934D01*
Y412265D01*
X511623D01*
Y411576D01*
X510934D01*
Y410887D01*
X511623D01*
Y410198D01*
X510934D01*
Y409509D01*
X511623D01*
Y408820D01*
X510934D01*
Y408131D01*
X536425D01*
Y408820D01*
X537114D01*
Y409509D01*
Y410198D01*
Y410887D01*
X536425D01*
Y411576D01*
X537114D01*
Y412265D01*
Y412954D01*
Y413643D01*
X536425D01*
Y414332D01*
X537114D01*
Y415021D01*
Y415709D01*
Y416398D01*
X536425D01*
Y417087D01*
X537114D01*
Y417776D01*
Y418465D01*
Y419154D01*
X536425D01*
Y419843D01*
X537114D01*
Y420532D01*
Y421221D01*
Y421910D01*
X536425D01*
Y422599D01*
X537114D01*
Y423288D01*
Y423977D01*
Y424666D01*
X536425D01*
Y425355D01*
X537114D01*
Y426044D01*
Y426733D01*
Y427422D01*
X536425D01*
Y428111D01*
X537114D01*
Y428800D01*
Y429488D01*
Y430177D01*
X536425D01*
Y430866D01*
X537114D01*
Y431555D01*
Y432244D01*
Y432933D01*
X536425D01*
Y433622D01*
X537114D01*
Y434311D01*
Y435000D01*
Y435689D01*
X536425D01*
Y436378D01*
X537114D01*
Y437067D01*
Y437756D01*
Y438445D01*
X536425D01*
Y439134D01*
X537114D01*
Y439823D01*
Y440512D01*
Y441200D01*
X536425D01*
Y441889D01*
X537114D01*
Y442579D01*
Y443267D01*
Y443956D01*
X536425D01*
Y444645D01*
X537114D01*
Y445334D01*
Y446023D01*
Y446712D01*
X536425D01*
Y447401D01*
X537114D01*
Y448090D01*
Y448779D01*
Y449468D01*
X536425D01*
Y450157D01*
X537114D01*
Y450846D01*
Y451535D01*
Y452224D01*
X536425D01*
Y452913D01*
X537114D01*
Y453602D01*
Y454291D01*
Y454979D01*
X536425D01*
Y455668D01*
X537114D01*
Y456357D01*
Y457046D01*
Y457735D01*
X536425D01*
Y458424D01*
X537114D01*
Y459113D01*
Y459802D01*
Y460491D01*
X536425D01*
Y461180D01*
X537114D01*
Y461869D01*
Y462558D01*
Y463247D01*
X536425D01*
Y463936D01*
X537114D01*
Y464625D01*
Y465314D01*
Y466003D01*
X536425D01*
Y466692D01*
X537114D01*
Y467380D01*
Y468070D01*
Y468759D01*
X536425D01*
Y469447D01*
X537114D01*
Y470136D01*
Y470825D01*
Y471514D01*
X536425D01*
Y472203D01*
D02*
G37*
G36*
X342142Y495627D02*
X341453D01*
Y494939D01*
X342142D01*
Y495627D01*
D02*
G37*
G36*
X439972Y472203D02*
X439284D01*
Y471514D01*
X439972D01*
Y472203D01*
D02*
G37*
G36*
X245689Y484604D02*
X245000D01*
Y483915D01*
X245689D01*
Y484604D01*
D02*
G37*
G36*
X245000Y483915D02*
X244311D01*
Y483226D01*
X243622D01*
Y482538D01*
X242933D01*
Y481849D01*
X242244D01*
Y481160D01*
X241555D01*
Y480471D01*
X240866D01*
Y479782D01*
X240177D01*
Y479093D01*
X239488D01*
Y478404D01*
X238799D01*
Y477715D01*
X238111D01*
Y477026D01*
X237422D01*
Y476337D01*
X236732D01*
Y475648D01*
X236044D01*
Y474959D01*
X235355D01*
Y474270D01*
X234666D01*
Y473581D01*
X233977D01*
Y472892D01*
X233288D01*
Y472203D01*
X232599D01*
Y471514D01*
X231910D01*
Y470825D01*
X231221D01*
Y470136D01*
X230532D01*
Y469447D01*
X229843D01*
Y468759D01*
X229154D01*
Y468070D01*
X228465D01*
Y467380D01*
X227776D01*
Y466692D01*
X227087D01*
Y466003D01*
X226398D01*
Y465314D01*
X225709D01*
Y464625D01*
X225020D01*
Y463936D01*
X224332D01*
Y463247D01*
X223643D01*
Y462558D01*
X222954D01*
Y461869D01*
X222265D01*
Y461180D01*
X221576D01*
Y460491D01*
X220887D01*
Y459802D01*
X220198D01*
Y459113D01*
X219509D01*
Y458424D01*
X218820D01*
Y457735D01*
X218131D01*
Y457046D01*
X217442D01*
Y456357D01*
X216753D01*
Y455668D01*
X216064D01*
Y454979D01*
X215375D01*
Y454291D01*
X216064D01*
Y453602D01*
X216753D01*
Y452913D01*
X217442D01*
Y452224D01*
X218131D01*
Y451535D01*
X218820D01*
Y450846D01*
X219509D01*
Y450157D01*
X220198D01*
Y449468D01*
X220887D01*
Y448779D01*
X221576D01*
Y448090D01*
X222265D01*
Y447401D01*
X222954D01*
Y446712D01*
X223643D01*
Y446023D01*
X224332D01*
Y445334D01*
X225020D01*
Y444645D01*
X225709D01*
Y443956D01*
X226398D01*
Y443267D01*
X227087D01*
Y442579D01*
X227776D01*
Y441889D01*
X228465D01*
Y441200D01*
X229154D01*
Y440512D01*
X229843D01*
Y439823D01*
X230532D01*
Y439134D01*
X231221D01*
Y438445D01*
X231910D01*
Y437756D01*
X232599D01*
Y437067D01*
X234666D01*
Y436378D01*
X233977D01*
Y435689D01*
X234666D01*
Y435000D01*
X235355D01*
Y434311D01*
X237422D01*
Y433622D01*
X236732D01*
Y432933D01*
X237422D01*
Y432244D01*
X238111D01*
Y431555D01*
X240177D01*
Y430866D01*
X239488D01*
Y430177D01*
X240177D01*
Y429488D01*
X240866D01*
Y428800D01*
X242933D01*
Y428111D01*
X242244D01*
Y427422D01*
X243622D01*
Y426733D01*
Y426044D01*
X245689D01*
Y426733D01*
X245000D01*
Y427422D01*
Y428111D01*
Y428800D01*
X245689D01*
Y429488D01*
X245000D01*
Y430177D01*
Y430866D01*
Y431555D01*
X245689D01*
Y432244D01*
X245000D01*
Y432933D01*
Y433622D01*
Y434311D01*
X245689D01*
Y435000D01*
X245000D01*
Y435689D01*
Y436378D01*
Y437067D01*
X245689D01*
Y437756D01*
X245000D01*
Y438445D01*
Y439134D01*
Y439823D01*
X245689D01*
Y440512D01*
X245000D01*
Y441200D01*
Y441889D01*
Y442579D01*
X245689D01*
Y443267D01*
X245000D01*
Y443956D01*
Y444645D01*
Y445334D01*
X245689D01*
Y446023D01*
X245000D01*
Y446712D01*
Y447401D01*
Y448090D01*
X245689D01*
Y448779D01*
X245000D01*
Y449468D01*
Y450157D01*
Y450846D01*
X245689D01*
Y451535D01*
X245000D01*
Y452224D01*
Y452913D01*
Y453602D01*
X245689D01*
Y454291D01*
X245000D01*
Y454979D01*
Y455668D01*
Y456357D01*
X245689D01*
Y457046D01*
X245000D01*
Y457735D01*
Y458424D01*
Y459113D01*
X245689D01*
Y459802D01*
X245000D01*
Y460491D01*
Y461180D01*
Y461869D01*
X245689D01*
Y462558D01*
X245000D01*
Y463247D01*
Y463936D01*
Y464625D01*
X245689D01*
Y465314D01*
X245000D01*
Y466003D01*
Y466692D01*
Y467380D01*
X245689D01*
Y468070D01*
X245000D01*
Y468759D01*
Y469447D01*
Y470136D01*
X245689D01*
Y470825D01*
X245000D01*
Y471514D01*
Y472203D01*
Y472892D01*
X245689D01*
Y473581D01*
X245000D01*
Y474270D01*
Y474959D01*
Y475648D01*
X245689D01*
Y476337D01*
X245000D01*
Y477026D01*
Y477715D01*
Y478404D01*
X245689D01*
Y479093D01*
X245000D01*
Y479782D01*
Y480471D01*
Y481160D01*
X245689D01*
Y481849D01*
X245000D01*
Y482538D01*
Y483226D01*
Y483915D01*
D02*
G37*
G36*
X242933Y410198D02*
X242244D01*
Y409509D01*
X242933D01*
Y408820D01*
X243622D01*
Y409509D01*
X242933D01*
Y410198D01*
D02*
G37*
G36*
X146480Y472203D02*
X145791D01*
Y471514D01*
X145102D01*
Y470825D01*
X144413D01*
Y470136D01*
X143725D01*
Y469447D01*
X143036D01*
Y468759D01*
X142347D01*
Y468070D01*
X141658D01*
Y467380D01*
X140969D01*
Y466692D01*
X140280D01*
Y466003D01*
X139591D01*
Y465314D01*
X138902D01*
Y464625D01*
X138213D01*
Y463936D01*
X137524D01*
Y463247D01*
X136835D01*
Y462558D01*
X136146D01*
Y461869D01*
X135457D01*
Y461180D01*
X134768D01*
Y460491D01*
X134079D01*
Y459802D01*
X133390D01*
Y459113D01*
X132701D01*
Y458424D01*
X132012D01*
Y457735D01*
X131323D01*
Y457046D01*
X130635D01*
Y456357D01*
X129946D01*
Y455668D01*
X129257D01*
Y454979D01*
X128568D01*
Y454291D01*
X127879D01*
Y453602D01*
X127190D01*
Y452913D01*
X126501D01*
Y452224D01*
X125812D01*
Y451535D01*
X125123D01*
Y450846D01*
X124434D01*
Y450157D01*
X123745D01*
Y449468D01*
X123056D01*
Y448779D01*
X122367D01*
Y448090D01*
X123056D01*
Y447401D01*
X122367D01*
Y446712D01*
X123056D01*
Y446023D01*
X122367D01*
Y445334D01*
X123056D01*
Y444645D01*
X122367D01*
Y443956D01*
X123056D01*
Y443267D01*
X122367D01*
Y442579D01*
X123056D01*
Y441889D01*
X122367D01*
Y441200D01*
X123056D01*
Y440512D01*
X122367D01*
Y439823D01*
X123056D01*
Y439134D01*
X122367D01*
Y438445D01*
X123056D01*
Y437756D01*
X122367D01*
Y437067D01*
X123056D01*
Y436378D01*
X122367D01*
Y435689D01*
X123056D01*
Y435000D01*
X122367D01*
Y434311D01*
X123056D01*
Y433622D01*
X122367D01*
Y432933D01*
X123056D01*
Y432244D01*
X122367D01*
Y431555D01*
X123056D01*
Y430866D01*
X122367D01*
Y430177D01*
X123056D01*
Y429488D01*
X122367D01*
Y428800D01*
X123056D01*
Y428111D01*
X122367D01*
Y427422D01*
X123056D01*
Y426733D01*
X122367D01*
Y426044D01*
X123056D01*
Y425355D01*
X122367D01*
Y424666D01*
X123056D01*
Y423977D01*
X122367D01*
Y423288D01*
X123056D01*
Y422599D01*
X122367D01*
Y421910D01*
X123056D01*
Y421221D01*
X122367D01*
Y420532D01*
X123056D01*
Y419843D01*
X122367D01*
Y419154D01*
X123056D01*
Y418465D01*
X122367D01*
Y417776D01*
X123056D01*
Y417087D01*
X122367D01*
Y416398D01*
X123056D01*
Y415709D01*
X122367D01*
Y415021D01*
X123056D01*
Y414332D01*
X122367D01*
Y413643D01*
X123056D01*
Y412954D01*
X122367D01*
Y412265D01*
X123056D01*
Y411576D01*
X122367D01*
Y410887D01*
X123056D01*
Y410198D01*
X122367D01*
Y409509D01*
X123056D01*
Y408820D01*
X122367D01*
Y408131D01*
X123056D01*
Y407442D01*
X122367D01*
Y406753D01*
X123056D01*
Y406064D01*
X122367D01*
Y405375D01*
X123056D01*
Y404686D01*
X122367D01*
Y403997D01*
X123056D01*
Y403308D01*
X122367D01*
Y402619D01*
X123056D01*
Y401930D01*
X122367D01*
Y401241D01*
X123056D01*
Y400553D01*
X122367D01*
Y399864D01*
X123056D01*
Y399175D01*
X122367D01*
Y398486D01*
X123056D01*
Y397797D01*
X122367D01*
Y397108D01*
X123056D01*
Y396419D01*
X122367D01*
Y395730D01*
X123056D01*
Y395041D01*
X122367D01*
Y394352D01*
X123056D01*
Y393663D01*
X122367D01*
Y392974D01*
X123056D01*
Y392285D01*
X122367D01*
Y391596D01*
X123056D01*
Y390907D01*
X122367D01*
Y390218D01*
X123056D01*
Y389529D01*
X122367D01*
Y388840D01*
X123056D01*
Y388151D01*
X122367D01*
Y387463D01*
X123056D01*
Y386774D01*
X122367D01*
Y386085D01*
X123056D01*
Y385396D01*
X122367D01*
Y384707D01*
X123056D01*
Y384018D01*
X122367D01*
Y383329D01*
X123056D01*
Y382640D01*
X122367D01*
Y381951D01*
X123056D01*
Y381262D01*
X122367D01*
Y380573D01*
X123056D01*
Y379884D01*
X122367D01*
Y379195D01*
X123056D01*
Y378506D01*
X122367D01*
Y377817D01*
X123056D01*
Y377128D01*
X122367D01*
Y376439D01*
X123056D01*
Y375750D01*
X122367D01*
Y375062D01*
X123056D01*
Y374373D01*
X122367D01*
Y373684D01*
X123056D01*
Y372995D01*
X122367D01*
Y372306D01*
X123056D01*
Y371617D01*
X122367D01*
Y370928D01*
X123056D01*
Y370239D01*
X123745D01*
Y369550D01*
X124434D01*
Y368861D01*
X125123D01*
Y368172D01*
X125812D01*
Y367483D01*
X126501D01*
Y366794D01*
X127190D01*
Y366105D01*
X127879D01*
Y365416D01*
X128568D01*
Y364727D01*
X129257D01*
Y364038D01*
X129946D01*
Y363349D01*
X130635D01*
Y362660D01*
X131323D01*
Y361971D01*
X132012D01*
Y361283D01*
X132701D01*
Y360594D01*
X133390D01*
Y359905D01*
X134079D01*
Y359216D01*
X134768D01*
Y358527D01*
X135457D01*
Y357838D01*
X136146D01*
Y357149D01*
X136835D01*
Y356460D01*
X137524D01*
Y355771D01*
X138213D01*
Y355082D01*
X138902D01*
Y354393D01*
X139591D01*
Y355082D01*
X140280D01*
Y355771D01*
X140969D01*
Y356460D01*
X141658D01*
Y357149D01*
X142347D01*
Y357838D01*
X143036D01*
Y358527D01*
X143725D01*
Y359216D01*
X144413D01*
Y359905D01*
X145102D01*
Y360594D01*
X145791D01*
Y361283D01*
X146480D01*
Y361971D01*
Y362660D01*
Y363349D01*
Y364038D01*
Y364727D01*
X147169D01*
Y365416D01*
X146480D01*
Y366105D01*
Y366794D01*
Y367483D01*
Y368172D01*
Y368861D01*
Y369550D01*
Y370239D01*
X147169D01*
Y370928D01*
X146480D01*
Y371617D01*
Y372306D01*
Y372995D01*
Y373684D01*
Y374373D01*
Y375062D01*
Y375750D01*
X147169D01*
Y376439D01*
X146480D01*
Y377128D01*
Y377817D01*
Y378506D01*
Y379195D01*
Y379884D01*
Y380573D01*
Y381262D01*
X147169D01*
Y381951D01*
X146480D01*
Y382640D01*
Y383329D01*
Y384018D01*
Y384707D01*
Y385396D01*
Y386085D01*
Y386774D01*
X147169D01*
Y387463D01*
X146480D01*
Y388151D01*
Y388840D01*
Y389529D01*
Y390218D01*
Y390907D01*
Y391596D01*
Y392285D01*
X147169D01*
Y392974D01*
X146480D01*
Y393663D01*
Y394352D01*
Y395041D01*
Y395730D01*
Y396419D01*
Y397108D01*
Y397797D01*
X147169D01*
Y398486D01*
X146480D01*
Y399175D01*
Y399864D01*
Y400553D01*
Y401241D01*
Y401930D01*
Y402619D01*
Y403308D01*
X147169D01*
Y403997D01*
X146480D01*
Y404686D01*
Y405375D01*
Y406064D01*
Y406753D01*
Y407442D01*
Y408131D01*
Y408820D01*
X147169D01*
Y409509D01*
X146480D01*
Y410198D01*
Y410887D01*
Y411576D01*
Y412265D01*
Y412954D01*
Y413643D01*
Y414332D01*
X147169D01*
Y415021D01*
X146480D01*
Y415709D01*
Y416398D01*
Y417087D01*
Y417776D01*
Y418465D01*
Y419154D01*
Y419843D01*
X147169D01*
Y420532D01*
X146480D01*
Y421221D01*
Y421910D01*
Y422599D01*
Y423288D01*
Y423977D01*
Y424666D01*
Y425355D01*
X147169D01*
Y426044D01*
X146480D01*
Y426733D01*
Y427422D01*
Y428111D01*
Y428800D01*
Y429488D01*
Y430177D01*
Y430866D01*
X147169D01*
Y431555D01*
X146480D01*
Y432244D01*
Y432933D01*
Y433622D01*
Y434311D01*
Y435000D01*
Y435689D01*
Y436378D01*
X147169D01*
Y437067D01*
X146480D01*
Y437756D01*
Y438445D01*
Y439134D01*
Y439823D01*
Y440512D01*
Y441200D01*
Y441889D01*
X147169D01*
Y442579D01*
X146480D01*
Y443267D01*
Y443956D01*
Y444645D01*
Y445334D01*
Y446023D01*
Y446712D01*
Y447401D01*
X147169D01*
Y448090D01*
X146480D01*
Y448779D01*
Y449468D01*
Y450157D01*
Y450846D01*
Y451535D01*
Y452224D01*
Y452913D01*
X147169D01*
Y453602D01*
X146480D01*
Y454291D01*
Y454979D01*
Y455668D01*
Y456357D01*
Y457046D01*
Y457735D01*
Y458424D01*
X147169D01*
Y459113D01*
X146480D01*
Y459802D01*
Y460491D01*
Y461180D01*
Y461869D01*
Y462558D01*
Y463247D01*
Y463936D01*
X147169D01*
Y464625D01*
X146480D01*
Y465314D01*
Y466003D01*
Y466692D01*
Y467380D01*
Y468070D01*
Y468759D01*
Y469447D01*
X147169D01*
Y470136D01*
X146480D01*
Y470825D01*
Y471514D01*
Y472203D01*
D02*
G37*
G36*
X1350214Y759765D02*
X1129915D01*
X1193279Y648488D01*
X1196057Y651265D01*
X1197446Y652654D01*
X1198487Y653696D01*
X1199529Y654737D01*
X1200223Y655432D01*
X1200744Y655953D01*
X1200918Y656126D01*
Y657515D01*
Y658036D01*
Y658210D01*
X1199702Y660293D01*
X1198661Y661855D01*
X1197966Y662897D01*
X1197619Y663070D01*
Y663244D01*
X1195710Y664980D01*
X1194147Y666369D01*
X1192758Y667584D01*
X1191717Y668625D01*
X1190849Y669494D01*
X1190154Y670014D01*
X1189807Y670361D01*
X1189634Y670535D01*
X1189286Y670882D01*
X1188939Y671577D01*
X1188766Y672097D01*
X1188592Y672271D01*
X1187724Y673486D01*
X1187030Y674875D01*
X1186335Y677826D01*
X1185988Y680778D01*
X1186162Y683729D01*
X1186509Y686333D01*
X1186682Y687548D01*
X1186856Y688590D01*
X1187030Y689284D01*
X1187203Y689978D01*
X1187377Y690326D01*
Y690499D01*
X1188245Y692235D01*
X1189113Y693798D01*
X1191196Y696228D01*
X1193279Y698311D01*
X1195362Y699700D01*
X1197272Y700741D01*
X1198661Y701436D01*
X1199702Y701610D01*
X1199876Y701783D01*
X1200050D01*
X1200918Y698485D01*
X1202306Y699353D01*
X1203522Y700394D01*
X1204390Y701610D01*
X1205258Y702825D01*
X1205952Y703866D01*
X1206473Y704734D01*
X1206646Y705429D01*
X1206820Y705602D01*
Y705776D01*
Y705949D01*
Y706123D01*
X1207167D01*
Y706297D01*
X1207341Y706470D01*
X1207688D01*
X1207862Y706297D01*
Y706123D01*
X1208382D01*
X1208556Y705776D01*
Y705602D01*
Y705429D01*
Y705255D01*
X1207862Y703346D01*
X1206994Y701783D01*
X1206126Y700394D01*
X1205084Y699353D01*
X1204390Y698485D01*
X1203695Y697964D01*
X1203174Y697790D01*
X1203001Y697617D01*
X1204390Y697964D01*
X1205778Y698311D01*
X1206646Y698485D01*
X1208556D01*
X1209771Y698658D01*
X1210466Y698832D01*
X1210986D01*
Y699005D01*
X1211160Y699179D01*
X1211507Y699005D01*
Y698832D01*
X1211681D01*
X1211854Y698658D01*
X1212028Y698485D01*
Y698311D01*
X1212202Y698138D01*
Y697964D01*
X1212028D01*
Y697790D01*
Y697617D01*
X1211681Y697269D01*
X1211507Y697096D01*
X1210292Y696922D01*
X1209077Y696749D01*
X1208209Y696575D01*
X1207862D01*
X1206646Y696402D01*
X1205431Y696228D01*
X1204737Y695881D01*
X1204390D01*
X1205952Y695186D01*
X1207167Y694145D01*
X1208209Y693103D01*
X1209077Y692062D01*
X1209771Y691020D01*
X1210292Y690152D01*
X1210639Y689631D01*
Y689457D01*
Y689284D01*
Y689110D01*
Y688937D01*
Y688763D01*
X1210466Y688416D01*
X1210292Y688242D01*
X1209945D01*
Y688069D01*
X1209771D01*
Y687895D01*
X1209424D01*
Y688069D01*
Y688242D01*
X1209077D01*
X1208903Y688416D01*
X1208730Y688590D01*
Y688763D01*
X1207862Y690326D01*
X1206994Y691714D01*
X1205778Y692756D01*
X1204563Y693624D01*
X1203522Y694318D01*
X1202654Y694665D01*
X1201959Y695013D01*
X1201786D01*
X1202654Y691541D01*
X1201438Y691020D01*
X1200397Y690152D01*
X1198661Y688242D01*
X1197966Y687374D01*
X1197446Y686506D01*
X1197272Y685986D01*
X1197098Y685812D01*
X1196404Y684423D01*
X1196057Y683034D01*
X1195883Y681993D01*
X1196057Y680951D01*
X1196230Y680083D01*
X1196404Y679562D01*
X1196751Y679215D01*
Y679042D01*
X1196925Y678694D01*
X1197272Y678347D01*
X1198140Y677306D01*
X1199008Y676438D01*
X1199182Y676264D01*
X1199355Y676090D01*
X1200050Y675396D01*
X1200918Y674702D01*
X1201612Y674007D01*
X1201786Y673833D01*
X1203001Y672618D01*
X1204216Y671577D01*
X1204910Y670882D01*
X1205258Y670535D01*
X1206820Y668799D01*
X1208035Y667063D01*
X1209077Y665674D01*
X1209771Y664459D01*
X1210292Y663418D01*
X1210639Y662723D01*
X1210813Y662202D01*
Y662029D01*
X1211507Y659946D01*
X1211854Y657862D01*
Y655953D01*
X1211681Y654217D01*
X1211334Y652654D01*
X1210986Y651613D01*
X1210813Y650745D01*
X1210639Y650571D01*
X1209077Y648835D01*
X1207167Y646926D01*
X1205258Y645016D01*
X1203348Y642933D01*
X1201612Y641197D01*
X1200223Y639808D01*
X1199182Y638940D01*
X1199008Y638593D01*
X1198834D01*
X1240325Y565507D01*
X1350214Y759765D01*
D02*
G37*
%LPD*%
G36*
X1249873Y753169D02*
X1256990D01*
X1258726Y752995D01*
X1263761D01*
Y738586D01*
X1266538Y736156D01*
X1268622Y733899D01*
X1270184Y731816D01*
X1271399Y729906D01*
X1272094Y728344D01*
X1272614Y726955D01*
X1272962Y726261D01*
Y725913D01*
X1273482Y723483D01*
X1273830Y721400D01*
X1274350Y719317D01*
X1274698Y717581D01*
X1274871Y716192D01*
X1275045Y714977D01*
X1275218Y714282D01*
Y714109D01*
Y713588D01*
X1243450Y717928D01*
X1251435Y706470D01*
X1227999Y712025D01*
X1236506Y698832D01*
X1213764Y704734D01*
Y718796D01*
X1214806Y723483D01*
X1216194Y727476D01*
X1217583Y730774D01*
X1219319Y733378D01*
X1220708Y735635D01*
X1221923Y737024D01*
X1222791Y737892D01*
X1223138Y738239D01*
Y738586D01*
Y739454D01*
X1223312Y740496D01*
Y741885D01*
Y743274D01*
X1223486Y744315D01*
Y745183D01*
Y745530D01*
X1223659Y747961D01*
Y749697D01*
X1223486Y751086D01*
Y751953D01*
X1223312Y752474D01*
Y752822D01*
X1223138Y752995D01*
X1223312D01*
X1223833Y753169D01*
X1224874D01*
X1226090Y753342D01*
X1246748D01*
X1249873Y753169D01*
D02*
G37*
G36*
X1254734Y711852D02*
X1255602D01*
X1256643Y711505D01*
X1258379Y711331D01*
X1260636Y710984D01*
X1260983D01*
X1261851Y710810D01*
X1263240Y710463D01*
X1264976Y710289D01*
X1267233Y709769D01*
X1269663Y709422D01*
X1272441Y709074D01*
X1275218Y708553D01*
Y653522D01*
Y653349D01*
Y652654D01*
X1274871Y651786D01*
X1274524Y650745D01*
X1274003Y649703D01*
X1272962Y648835D01*
X1271746Y648141D01*
X1270010Y647967D01*
X1269142D01*
X1268274Y648314D01*
X1267233Y648662D01*
X1266191Y649356D01*
X1265323Y650224D01*
X1264629Y651613D01*
X1264455Y653522D01*
Y685812D01*
X1262719D01*
Y639981D01*
Y639808D01*
Y639114D01*
X1262372Y638245D01*
X1262025Y637204D01*
X1261330Y636162D01*
X1260462Y635294D01*
X1259074Y634600D01*
X1257338Y634426D01*
X1256470D01*
X1255775Y634774D01*
X1254734Y635121D01*
X1253866Y635815D01*
X1252998Y636683D01*
X1252303Y638072D01*
X1252130Y639981D01*
Y685812D01*
X1250220D01*
Y632690D01*
Y632517D01*
Y631822D01*
X1249873Y630954D01*
X1249526Y629739D01*
X1249005Y628697D01*
X1247963Y627830D01*
X1246748Y627135D01*
X1245012Y626962D01*
X1244144D01*
X1243276Y627309D01*
X1242408Y627656D01*
X1241366Y628350D01*
X1240498Y629392D01*
X1239804Y630781D01*
X1239630Y632690D01*
Y685812D01*
X1237721D01*
Y639981D01*
Y639808D01*
Y639114D01*
X1237374Y638245D01*
X1237026Y637204D01*
X1236332Y636162D01*
X1235464Y635294D01*
X1234075Y634600D01*
X1232339Y634426D01*
X1231471D01*
X1230603Y634774D01*
X1229562Y635121D01*
X1228520Y635815D01*
X1227652Y636683D01*
X1226958Y638072D01*
X1226784Y639981D01*
Y685812D01*
X1225222D01*
Y669320D01*
Y669146D01*
X1225048Y668973D01*
X1224527Y667931D01*
X1223833Y666716D01*
X1222618Y665154D01*
X1221055Y663591D01*
X1219146Y662202D01*
X1216715Y661334D01*
X1215326Y661161D01*
X1213764D01*
Y699700D01*
X1248484Y690499D01*
Y690673D01*
X1248310Y690846D01*
X1247963Y691367D01*
X1247442Y692062D01*
X1246574Y693277D01*
X1245533Y694839D01*
X1243970Y697096D01*
X1243797Y697443D01*
X1243276Y698138D01*
X1242582Y699179D01*
X1241887Y700394D01*
X1241019Y701610D01*
X1240325Y702825D01*
X1239804Y703866D01*
X1239630Y704387D01*
X1239804D01*
X1240151Y704561D01*
X1240846Y704387D01*
X1241540D01*
X1242234Y704213D01*
X1243102Y704040D01*
X1244318Y703693D01*
X1245533Y703346D01*
X1247095Y702998D01*
X1249005Y702477D01*
X1251088Y701957D01*
X1251262D01*
X1251609Y701783D01*
X1252130Y701610D01*
X1252998Y701436D01*
X1254907Y700915D01*
X1257164Y700221D01*
X1259421Y699526D01*
X1261330Y699005D01*
X1262198Y698832D01*
X1262719Y698658D01*
X1263066Y698485D01*
X1263240D01*
X1253866Y712025D01*
X1254213D01*
X1254734Y711852D01*
D02*
G37*
%LPC*%
G36*
X1441467Y754396D02*
X1331752Y561179D01*
X1551530D01*
X1441467Y754396D01*
D02*
G37*
%LPD*%
G36*
X1465598Y620724D02*
X1432787Y634091D01*
X1444418Y593469D01*
X1450668D01*
X1442682Y570727D01*
X1428274Y592601D01*
X1434523D01*
X1417684Y655270D01*
X1451189Y641730D01*
X1427753Y695893D01*
X1444418D01*
X1465598Y620724D01*
D02*
G37*
%LPC*%
G36*
X1063193Y720891D02*
X1063019Y720544D01*
X1062846Y720023D01*
X1062498Y718981D01*
X1062149Y717932D01*
X1062612Y717117D01*
X1062672Y717593D01*
X1062846Y718808D01*
X1063019Y719850D01*
X1063193Y720717D01*
Y720891D01*
D02*
G37*
G36*
X1040798Y755438D02*
X930562Y561179D01*
X1151382D01*
X1062612Y717117D01*
X1062498Y716204D01*
X1062325Y714641D01*
X1061630Y711343D01*
X1061110Y708045D01*
X1060936Y706482D01*
X1060762Y705267D01*
X1060589Y704052D01*
X1060415Y703184D01*
X1060242Y702663D01*
Y702490D01*
X1059721Y699191D01*
X1059200Y696240D01*
X1058679Y693636D01*
X1058332Y691379D01*
X1057985Y689643D01*
X1057811Y688081D01*
X1057464Y686865D01*
X1057290Y685824D01*
Y685130D01*
X1057117Y684609D01*
X1056943Y683914D01*
Y684261D01*
X1056770Y684782D01*
Y685650D01*
X1056596Y687560D01*
X1056422Y689817D01*
X1056249Y691900D01*
X1056075Y693809D01*
Y694678D01*
X1055902Y695198D01*
Y695545D01*
Y695719D01*
X1055728Y697802D01*
X1055554Y699712D01*
X1055381Y701448D01*
X1055207Y702837D01*
Y704052D01*
X1055034Y705093D01*
Y705788D01*
Y706482D01*
X1054860Y707524D01*
Y708045D01*
X1055034Y707871D01*
X1055207Y707697D01*
X1055381Y707524D01*
X1055902Y706830D01*
X1056075Y706656D01*
Y706482D01*
X1056596Y705788D01*
X1056770Y705267D01*
X1057117Y705093D01*
Y704920D01*
X1057290Y704573D01*
X1057464Y704746D01*
X1057811Y705614D01*
X1058158Y706309D01*
X1058332Y706482D01*
Y706656D01*
X1059026Y708566D01*
X1059721Y710475D01*
X1059894Y711343D01*
X1060068Y712038D01*
X1060242Y712385D01*
Y712558D01*
X1060762Y713947D01*
X1061283Y715336D01*
X1061978Y717419D01*
X1062149Y717932D01*
X1040798Y755438D01*
D02*
G37*
%LPD*%
G36*
X1053124Y706830D02*
Y706135D01*
X1052950Y705267D01*
X1052777Y704052D01*
X1052603Y702663D01*
X1052430Y701101D01*
X1051909Y697802D01*
X1051388Y694504D01*
X1051041Y692942D01*
X1050867Y691553D01*
X1050694Y690511D01*
X1050520Y689470D01*
X1050346Y688949D01*
Y688775D01*
X1049826Y685650D01*
X1049305Y682873D01*
X1048784Y680442D01*
X1048437Y678533D01*
X1048090Y676623D01*
X1047742Y675234D01*
X1047569Y674019D01*
X1047222Y672977D01*
X1047048Y672283D01*
Y671589D01*
X1046874Y670894D01*
X1046701Y670547D01*
X1046527Y670374D01*
X1046354Y670721D01*
X1046180Y671415D01*
X1045833Y672457D01*
X1045659Y673498D01*
X1045486Y674366D01*
X1045312Y675061D01*
Y675234D01*
X1044791Y676797D01*
X1044444Y678012D01*
X1044270Y678706D01*
Y679053D01*
X1043923Y680095D01*
X1043750Y680616D01*
Y680789D01*
X1043576Y680442D01*
X1043402Y679748D01*
X1043229Y679053D01*
Y678880D01*
Y678706D01*
X1042708Y677144D01*
X1042187Y675582D01*
X1041840Y674540D01*
X1041666Y674193D01*
Y674019D01*
X1041319Y672630D01*
X1040972Y671589D01*
X1040278Y669679D01*
X1039930Y668290D01*
X1039757Y667596D01*
X1039583Y667075D01*
X1039410Y666728D01*
Y666381D01*
X1039757Y666554D01*
X1040278D01*
X1040451Y666728D01*
X1045312Y668464D01*
X1050173Y669679D01*
X1054686Y670547D01*
X1058853Y671068D01*
X1060762D01*
X1062325Y671241D01*
X1065102D01*
X1066144Y671068D01*
X1067533D01*
X1069442Y670894D01*
X1070831Y670547D01*
X1072220Y670200D01*
X1073088Y669679D01*
X1073782Y669332D01*
X1074303Y669158D01*
X1074477Y668811D01*
X1074650D01*
X1075345Y668117D01*
X1075866Y667769D01*
X1076039Y667596D01*
X1077428Y667422D01*
X1078817Y666902D01*
X1080379Y666034D01*
X1081942Y665165D01*
X1083157Y664124D01*
X1084198Y663429D01*
X1084893Y662735D01*
X1085240Y662562D01*
X1086108Y661520D01*
X1086802Y660478D01*
X1087150Y659610D01*
Y658916D01*
Y658221D01*
Y657701D01*
X1086976Y657527D01*
Y657354D01*
X1086802Y656659D01*
X1086455Y656312D01*
X1086108Y655617D01*
X1085761Y655444D01*
X1085587D01*
X1085066Y655791D01*
X1084719Y656312D01*
X1084372Y656833D01*
Y657006D01*
X1084198Y658569D01*
X1083851Y659610D01*
X1083504Y660305D01*
X1083330Y660652D01*
X1082983Y660826D01*
X1082636D01*
X1082289Y660478D01*
X1082115Y659957D01*
X1081768Y659437D01*
Y659090D01*
Y658569D01*
X1081594Y658221D01*
X1081421Y657874D01*
X1081074Y657527D01*
Y657701D01*
X1080726Y657874D01*
X1080206Y658742D01*
X1079685Y659610D01*
X1079338Y659784D01*
Y659957D01*
X1078643Y661346D01*
X1077775Y662214D01*
X1077081Y662735D01*
X1076734Y662909D01*
X1075692Y663429D01*
X1075171Y663603D01*
X1074998Y663777D01*
Y663603D01*
X1074824Y663429D01*
Y663256D01*
Y663082D01*
X1074477Y662388D01*
X1074303Y662214D01*
Y662041D01*
X1073956Y661346D01*
X1073262Y660999D01*
X1072220Y660826D01*
X1069616D01*
X1068574Y660999D01*
X1067880Y661173D01*
X1067533D01*
X1063193Y661693D01*
X1059547Y661867D01*
X1056422Y661693D01*
X1053818Y661173D01*
X1051735Y660652D01*
X1050346Y660131D01*
X1049652Y659784D01*
X1049305Y659610D01*
X1048263Y658742D01*
X1050173Y656138D01*
X1051562Y654402D01*
X1052777Y652840D01*
X1053298Y652145D01*
X1053645Y651625D01*
X1053992Y651278D01*
Y651104D01*
X1054686Y650236D01*
X1055554Y649194D01*
X1056770Y648326D01*
X1057985Y647458D01*
X1059200Y646590D01*
X1060242Y646069D01*
X1060762Y645722D01*
X1061110Y645549D01*
X1063019Y644333D01*
X1064755Y643292D01*
X1066318Y642250D01*
X1067706Y641382D01*
X1068748Y640688D01*
X1069790Y639994D01*
X1071352Y638778D01*
X1072394Y638084D01*
X1073088Y637563D01*
X1073435Y637216D01*
X1073609Y636869D01*
Y636521D01*
X1073435Y635654D01*
X1073088Y634959D01*
X1072914Y634612D01*
X1072394Y633570D01*
X1072220Y633223D01*
Y633049D01*
X1071873Y632702D01*
X1071699Y632529D01*
Y632355D01*
X1071873Y632008D01*
X1072220Y631661D01*
X1073262Y630793D01*
X1074477Y629925D01*
X1074824Y629751D01*
X1074998Y629577D01*
X1076907Y628362D01*
X1078643Y627147D01*
X1080206Y626106D01*
X1081421Y625237D01*
X1083851Y623501D01*
X1085414Y622286D01*
X1086629Y621245D01*
X1087497Y620550D01*
X1087844Y620203D01*
X1088018Y620029D01*
X1088886Y618814D01*
X1089406Y617599D01*
X1090101Y614995D01*
X1090274Y613780D01*
X1090448Y612912D01*
Y612217D01*
Y612044D01*
Y610655D01*
X1090274Y609093D01*
X1090101Y607183D01*
X1089927Y605274D01*
X1089754Y603538D01*
X1089580Y602149D01*
X1089406Y601107D01*
Y600933D01*
Y600760D01*
X1089059Y598156D01*
X1088886Y595899D01*
X1088712Y594857D01*
X1088538Y594163D01*
Y593642D01*
Y593469D01*
X1088018Y590865D01*
Y589997D01*
X1087844Y589129D01*
X1087670Y588434D01*
Y587913D01*
Y587740D01*
Y587566D01*
Y586004D01*
X1087497Y584615D01*
X1087323Y583921D01*
Y583573D01*
X1087150Y582706D01*
X1086976Y582358D01*
Y582185D01*
X1086108D01*
X1085414Y582358D01*
X1084893Y582532D01*
X1084719D01*
X1083851Y582706D01*
X1082983Y582879D01*
X1082289D01*
X1082462Y582706D01*
X1082636Y582532D01*
Y582358D01*
X1082983Y581664D01*
X1083157Y581490D01*
Y581317D01*
X1084025Y580796D01*
X1085240Y580449D01*
X1086282Y580275D01*
X1088018D01*
X1089059Y579928D01*
X1089754Y579754D01*
X1090274Y579407D01*
X1090622Y579060D01*
X1090795Y578713D01*
Y578539D01*
Y578365D01*
X1090622Y578018D01*
X1090448Y577671D01*
X1089754Y577150D01*
X1089059Y576803D01*
X1088712Y576630D01*
X1086802Y575761D01*
X1085066Y575414D01*
X1083504D01*
X1082289Y575761D01*
X1081421Y576109D01*
X1080726Y576456D01*
X1080379Y576803D01*
X1080206Y576977D01*
X1078990Y578192D01*
X1078122Y577324D01*
X1077428Y576630D01*
X1076560Y576456D01*
X1075866Y576630D01*
X1075518D01*
X1074477Y576803D01*
X1073782Y577324D01*
X1073435Y577671D01*
X1073262Y577845D01*
Y579060D01*
Y579928D01*
Y580449D01*
Y580970D01*
Y581317D01*
Y583747D01*
X1071699Y584094D01*
X1071005Y584268D01*
X1070831D01*
X1070484Y584442D01*
X1070310Y584615D01*
X1070484Y584962D01*
X1070831Y585830D01*
X1071352Y586872D01*
X1071873Y588087D01*
X1072394Y589302D01*
X1072914Y590344D01*
X1073262Y591038D01*
X1073435Y591385D01*
X1074998Y594684D01*
X1076386Y597809D01*
X1077602Y600413D01*
X1078643Y602843D01*
X1079511Y604753D01*
X1080032Y606141D01*
X1080379Y607010D01*
X1080553Y607357D01*
Y608225D01*
X1080379Y609093D01*
X1080206Y609440D01*
X1080032Y609614D01*
X1079164Y610481D01*
X1078122Y611176D01*
X1076907Y611870D01*
X1075518Y612565D01*
X1074303Y613086D01*
X1073262Y613433D01*
X1072567Y613606D01*
X1072220Y613780D01*
X1070831Y614127D01*
X1069963Y614474D01*
X1069269Y614648D01*
X1068748Y614822D01*
X1068401Y614995D01*
X1068227D01*
X1068401Y614822D01*
X1068574Y614648D01*
Y614474D01*
X1068748Y613606D01*
Y613259D01*
Y613086D01*
X1070137Y610308D01*
X1071005Y607530D01*
X1071352Y606315D01*
X1071526Y605274D01*
X1071699Y604579D01*
Y604405D01*
X1072046Y601454D01*
X1068401Y596073D01*
X1066491Y592774D01*
X1064755Y589649D01*
X1063019Y586698D01*
X1061630Y584094D01*
X1060415Y581837D01*
X1059547Y580101D01*
X1059200Y579581D01*
X1059026Y579060D01*
X1058853Y578886D01*
Y578713D01*
X1056422Y574373D01*
X1054686Y575588D01*
X1053818Y576109D01*
X1053298Y576282D01*
X1052950Y576109D01*
Y575414D01*
X1053124Y574720D01*
X1053298Y574199D01*
X1053471Y574025D01*
X1053818Y573331D01*
X1054166Y572810D01*
X1055381Y571769D01*
X1056422Y571074D01*
X1056770Y570727D01*
X1056943D01*
X1057811Y570033D01*
X1058332Y569338D01*
X1058679Y568817D01*
Y568297D01*
Y567602D01*
X1058506Y567255D01*
X1058158Y567082D01*
X1057464Y566908D01*
X1055902Y566734D01*
X1055207D01*
X1054513Y566908D01*
X1053992D01*
X1052603Y567082D01*
X1051562Y567429D01*
X1050694Y567602D01*
X1050173Y567949D01*
X1049652Y568297D01*
X1049478Y568644D01*
X1049305Y568817D01*
X1048958Y570033D01*
X1048437Y570901D01*
X1047916Y571422D01*
X1047395Y571942D01*
X1046701Y572289D01*
X1046354D01*
X1045138Y572463D01*
X1044270Y572637D01*
X1043750Y572984D01*
X1043229Y573505D01*
X1042882Y574199D01*
Y574373D01*
Y574546D01*
X1043055Y575588D01*
X1043229Y576282D01*
X1044097Y577497D01*
X1044965Y578192D01*
X1045138Y578365D01*
X1045312D01*
X1045833Y578886D01*
X1046354Y579234D01*
X1046527Y579581D01*
Y579754D01*
Y579928D01*
X1046354D01*
X1046180Y580101D01*
X1045833Y580449D01*
X1045486Y580622D01*
X1045312Y580796D01*
X1044270Y581317D01*
X1046180Y584615D01*
X1048090Y587913D01*
X1049999Y590865D01*
X1051909Y593469D01*
X1053471Y595726D01*
X1054860Y597635D01*
X1055902Y599024D01*
X1056770Y599892D01*
X1056943Y600239D01*
X1059894Y604058D01*
X1056770Y606141D01*
X1054860Y607530D01*
X1052950Y609093D01*
X1051214Y610655D01*
X1049652Y612217D01*
X1048437Y613433D01*
X1047569Y614474D01*
X1046874Y615342D01*
X1046701Y615516D01*
X1046006Y616210D01*
X1045312Y616731D01*
X1044444Y617078D01*
X1042187D01*
X1041840Y616905D01*
X1041666D01*
X1040972Y616558D01*
X1040451Y616210D01*
X1039583D01*
Y616384D01*
Y616558D01*
X1039757Y617078D01*
X1039930Y617426D01*
Y617599D01*
X1040104Y618641D01*
X1040278Y619682D01*
Y620377D01*
Y620724D01*
X1040798Y623328D01*
X1040972Y625411D01*
X1041146Y626279D01*
Y626973D01*
Y627321D01*
Y627494D01*
X1040972Y628362D01*
X1040798Y629230D01*
X1040104Y631140D01*
X1039757Y632008D01*
X1039410Y632702D01*
X1039062Y633049D01*
Y633223D01*
X1037326Y636695D01*
X1033507Y637910D01*
X1032639Y638084D01*
X1031598Y638431D01*
X1029341Y638952D01*
X1028299Y639299D01*
X1027431Y639473D01*
X1026910Y639646D01*
X1026737D01*
X1025174Y640167D01*
X1023959Y640514D01*
X1022918Y640688D01*
X1022223Y640861D01*
X1021702Y641035D01*
X1021182D01*
X1021008Y640861D01*
X1020834Y640688D01*
X1020661Y640341D01*
X1020487Y640167D01*
X1019098Y638778D01*
X1018578Y638258D01*
X1018404Y638084D01*
X1017536Y636695D01*
X1016321Y634959D01*
X1014932Y633223D01*
X1013370Y631313D01*
X1012154Y629751D01*
X1010939Y628362D01*
X1010245Y627321D01*
X1009898Y627147D01*
Y626973D01*
X1006946Y623501D01*
X1005558Y621765D01*
X1004342Y620203D01*
X1003301Y618814D01*
X1002433Y617773D01*
X1001912Y617078D01*
X1001738Y616731D01*
X1001218Y615863D01*
X1000697Y615169D01*
X1000350Y614822D01*
X1000002Y614648D01*
X999308D01*
X998961Y614474D01*
X998787Y614127D01*
X998614Y613086D01*
Y611870D01*
X998787Y611523D01*
Y611350D01*
X998961Y609961D01*
Y609093D01*
X998614Y608572D01*
X998266Y608398D01*
X997919Y608572D01*
X997572Y608745D01*
X997398Y608919D01*
X997225Y609093D01*
X996878Y609440D01*
X996530Y609614D01*
X996357D01*
X996183Y609440D01*
Y609266D01*
Y608919D01*
Y608572D01*
X996357Y607530D01*
X996530Y606662D01*
X996704Y606489D01*
Y606315D01*
X997051Y604926D01*
X997225Y603711D01*
X997051Y602843D01*
Y602322D01*
X996704Y601802D01*
X996530Y601628D01*
X996357Y601454D01*
X996183Y601281D01*
X995836D01*
X995315Y601454D01*
X994794Y601802D01*
X994621Y601975D01*
X994100Y602496D01*
X992711D01*
X992364Y602843D01*
X992017Y603711D01*
X991670Y604579D01*
X991496Y605621D01*
X991322Y606489D01*
X991149Y607183D01*
Y607357D01*
Y608919D01*
X991496Y610829D01*
X992190Y612912D01*
X993232Y615169D01*
X994274Y617426D01*
X995489Y619856D01*
X998266Y624717D01*
X999655Y626973D01*
X1001044Y629057D01*
X1002259Y630966D01*
X1003474Y632702D01*
X1004516Y634091D01*
X1005210Y635306D01*
X1005731Y636001D01*
X1005905Y636174D01*
X1007467Y638258D01*
X1008682Y639994D01*
X1009724Y641556D01*
X1010592Y642945D01*
X1011113Y643986D01*
X1011634Y645028D01*
X1012154Y646417D01*
X1012328Y647111D01*
Y647632D01*
X1012154Y647806D01*
X1011981D01*
X1011807Y647632D01*
Y647458D01*
Y647285D01*
X1011460Y646590D01*
Y646417D01*
X1011113Y645375D01*
X1010766Y644854D01*
X1010592D01*
X1010418Y645028D01*
X1010245Y645722D01*
Y645896D01*
Y646069D01*
X1010071Y646243D01*
X1009898D01*
Y645896D01*
Y645722D01*
X1009550Y644507D01*
X1009377Y643639D01*
X1009030Y643118D01*
X1008856Y642771D01*
X1008682Y642597D01*
X1008509D01*
X1008335Y642945D01*
X1008162Y643466D01*
Y644333D01*
Y645028D01*
Y645202D01*
Y645549D01*
X1007988Y645722D01*
X1007814Y645549D01*
Y645375D01*
X1007641D01*
X1007467Y645549D01*
X1007294Y645896D01*
Y646069D01*
X1006946Y647285D01*
X1006773Y646417D01*
X1006426Y645549D01*
X1006078Y646417D01*
Y646590D01*
X1005905Y647458D01*
X1005731Y648326D01*
X1005558Y648500D01*
Y648673D01*
X1005210Y650236D01*
X1004690Y648673D01*
X1004516Y648326D01*
X1004169Y648153D01*
X1003995D01*
X1003822Y648326D01*
Y648500D01*
X1003474Y650583D01*
Y652666D01*
X1003822Y654750D01*
X1004342Y656659D01*
X1004863Y658221D01*
X1005384Y659610D01*
X1005731Y660478D01*
X1005905Y660826D01*
X1006426Y662214D01*
X1006773Y663256D01*
X1006946Y663777D01*
X1007120Y664124D01*
X1007294Y664298D01*
Y665339D01*
X1007467Y665860D01*
X1007641Y666034D01*
X1007814D01*
X1008335Y665860D01*
X1010245D01*
X1010939Y665686D01*
X1011460D01*
X1012154Y665860D01*
X1012502Y666207D01*
Y666381D01*
X1012675Y666902D01*
X1013022Y667075D01*
X1013543Y667249D01*
X1014411D01*
X1015106Y667075D01*
X1015279Y666902D01*
X1015453Y666728D01*
X1015800Y666381D01*
X1016321Y665860D01*
X1016842Y665339D01*
X1017015Y665165D01*
X1017883Y664471D01*
X1018578Y663777D01*
X1018925Y663256D01*
X1019098Y663082D01*
X1019966Y662041D01*
X1020661Y661346D01*
X1021182Y660826D01*
X1021702Y660652D01*
X1022050Y660478D01*
X1022223D01*
X1022570Y660652D01*
X1023265Y660826D01*
X1023959Y660999D01*
X1024654D01*
X1025348Y661173D01*
X1025869Y661346D01*
X1026042D01*
X1028994Y662214D01*
Y664992D01*
Y666034D01*
Y666728D01*
X1029167Y667422D01*
Y667769D01*
X1029341Y668290D01*
Y668464D01*
Y668985D01*
X1030903Y668117D01*
X1032118Y667249D01*
X1033160Y666554D01*
X1034202Y666207D01*
X1034896Y665860D01*
X1035590Y665686D01*
X1036111Y665513D01*
X1036458D01*
X1036632Y665686D01*
X1036806Y666207D01*
X1036979Y666902D01*
X1037153Y667769D01*
X1037674Y670026D01*
X1038194Y672630D01*
X1038542Y675061D01*
X1039062Y677317D01*
X1039236Y678359D01*
Y679053D01*
X1039410Y679401D01*
Y679574D01*
X1039757Y682178D01*
X1040104Y684609D01*
X1040451Y686518D01*
X1040625Y688254D01*
X1040972Y689643D01*
X1041146Y690685D01*
X1041319Y691553D01*
Y692247D01*
X1041493Y692768D01*
Y693115D01*
X1041666Y693462D01*
X1041840Y693289D01*
X1042014Y692768D01*
X1042361Y691900D01*
X1042882Y691206D01*
X1043402Y690337D01*
X1043750Y689470D01*
X1043923Y688949D01*
X1044097Y688775D01*
X1044618Y687386D01*
X1045138Y686345D01*
X1045486Y685477D01*
X1045659Y685303D01*
X1046006Y684609D01*
X1046180Y684261D01*
X1046354Y684609D01*
X1046527Y685130D01*
X1046701Y685997D01*
X1047222Y687734D01*
X1047916Y689817D01*
X1048610Y691900D01*
X1049131Y693809D01*
X1049305Y694504D01*
X1049478Y695025D01*
X1049652Y695372D01*
Y695545D01*
X1050694Y698670D01*
X1051041Y699885D01*
X1051388Y701101D01*
X1051735Y701969D01*
X1051909Y702837D01*
X1052082Y703184D01*
Y703357D01*
X1052430Y704573D01*
X1052603Y705441D01*
X1052950Y706135D01*
Y706482D01*
X1053124Y707003D01*
Y706830D01*
D02*
G37*
D21*
X170004Y223491D02*
Y290000D01*
X567004Y60000D02*
Y290000D01*
X170004D02*
X567004D01*
X170004Y60000D02*
Y126509D01*
Y60000D02*
X567004D01*
X170004Y723491D02*
Y790000D01*
X567004Y560000D02*
Y790000D01*
X170004D02*
X567004D01*
X170004Y560000D02*
Y626509D01*
Y560000D02*
X567004D01*
D22*
X1527000Y280407D02*
Y230418D01*
X1493674Y280407D02*
Y230418D01*
X1527000Y256603D02*
X1493674D01*
X1479867Y280407D02*
X1460824Y230418D01*
X1441780Y280407D02*
X1460824Y230418D01*
X1396076Y280407D02*
Y230418D01*
X1385602Y263744D02*
Y230418D01*
Y254222D02*
X1378460Y261364D01*
X1373699Y263744D01*
X1366558D01*
X1361797Y261364D01*
X1359417Y254222D01*
Y230418D01*
X1317759Y280407D02*
Y230418D01*
Y256603D02*
X1322520Y261364D01*
X1327281Y263744D01*
X1334422D01*
X1339183Y261364D01*
X1343944Y256603D01*
X1346324Y249461D01*
Y244701D01*
X1343944Y237559D01*
X1339183Y232798D01*
X1334422Y230418D01*
X1327281D01*
X1322520Y232798D01*
X1317759Y237559D01*
X1299668Y280407D02*
X1297287Y278027D01*
X1294907Y280407D01*
X1297287Y282788D01*
X1299668Y280407D01*
X1297287Y263744D02*
Y230418D01*
X1257534Y256603D02*
X1262295Y261364D01*
X1267056Y263744D01*
X1274197D01*
X1278958Y261364D01*
X1283719Y256603D01*
X1286099Y249461D01*
Y244701D01*
X1283719Y237559D01*
X1278958Y232798D01*
X1274197Y230418D01*
X1267056D01*
X1262295Y232798D01*
X1257534Y237559D01*
X1218257Y263744D02*
Y230418D01*
Y256603D02*
X1223017Y261364D01*
X1227778Y263744D01*
X1234920D01*
X1239681Y261364D01*
X1244441Y256603D01*
X1246822Y249461D01*
Y244701D01*
X1244441Y237559D01*
X1239681Y232798D01*
X1234920Y230418D01*
X1227778D01*
X1223017Y232798D01*
X1218257Y237559D01*
X1197785Y280407D02*
Y239940D01*
X1195404Y232798D01*
X1190643Y230418D01*
X1185883D01*
X1204926Y263744D02*
X1188263D01*
X1166839D02*
X1171600Y261364D01*
X1176361Y256603D01*
X1178741Y249461D01*
Y244701D01*
X1176361Y237559D01*
X1171600Y232798D01*
X1166839Y230418D01*
X1159698D01*
X1154937Y232798D01*
X1150176Y237559D01*
X1147795Y244701D01*
Y249461D01*
X1150176Y256603D01*
X1154937Y261364D01*
X1159698Y263744D01*
X1166839D01*
X1136845D02*
Y230418D01*
Y249461D02*
X1134465Y256603D01*
X1129704Y261364D01*
X1124943Y263744D01*
X1117802D01*
X1488913Y151231D02*
X1507957Y201220D01*
X1527000Y151231D01*
X1519859Y167894D02*
X1496054D01*
X1477249Y184557D02*
Y151231D01*
Y175035D02*
X1470108Y182177D01*
X1465347Y184557D01*
X1458205D01*
X1453444Y182177D01*
X1451064Y175035D01*
Y151231D01*
X1409406Y201220D02*
Y151231D01*
Y177416D02*
X1414167Y182177D01*
X1418928Y184557D01*
X1426069D01*
X1430830Y182177D01*
X1435591Y177416D01*
X1437972Y170274D01*
Y165513D01*
X1435591Y158372D01*
X1430830Y153611D01*
X1426069Y151231D01*
X1418928D01*
X1414167Y153611D01*
X1409406Y158372D01*
X1396076Y184557D02*
Y151231D01*
Y170274D02*
X1393695Y177416D01*
X1388934Y182177D01*
X1384174Y184557D01*
X1377032D01*
X1372509Y170274D02*
X1343944D01*
Y175035D01*
X1346324Y179796D01*
X1348705Y182177D01*
X1353466Y184557D01*
X1360607D01*
X1365368Y182177D01*
X1370129Y177416D01*
X1372509Y170274D01*
Y165513D01*
X1370129Y158372D01*
X1365368Y153611D01*
X1360607Y151231D01*
X1353466D01*
X1348705Y153611D01*
X1343944Y158372D01*
X1333232Y184557D02*
X1323710Y151231D01*
X1314188Y184557D02*
X1323710Y151231D01*
X1314188Y184557D02*
X1304667Y151231D01*
X1295145Y184557D02*
X1304667Y151231D01*
X1244204Y201220D02*
Y151231D01*
X1210877Y201220D02*
X1244204Y167894D01*
X1232301Y179796D02*
X1210877Y151231D01*
X1171124Y184557D02*
Y151231D01*
Y177416D02*
X1175885Y182177D01*
X1180646Y184557D01*
X1187787D01*
X1192548Y182177D01*
X1197309Y177416D01*
X1199689Y170274D01*
Y165513D01*
X1197309Y158372D01*
X1192548Y153611D01*
X1187787Y151231D01*
X1180646D01*
X1175885Y153611D01*
X1171124Y158372D01*
X1150652Y201220D02*
Y160752D01*
X1148272Y153611D01*
X1143511Y151231D01*
X1138750D01*
X1157793Y184557D02*
X1141130D01*
X1105424D02*
X1131609Y151231D01*
Y184557D02*
X1105424D01*
X1131609Y151231D02*
X1105424D01*
X1498435Y102989D02*
Y69663D01*
Y95848D02*
X1503196Y100609D01*
X1507957Y102989D01*
X1515098D01*
X1519859Y100609D01*
X1524620Y95848D01*
X1527000Y88707D01*
Y83946D01*
X1524620Y76804D01*
X1519859Y72043D01*
X1515098Y69663D01*
X1507957D01*
X1503196Y72043D01*
X1498435Y76804D01*
X1456539Y102989D02*
Y69663D01*
Y95848D02*
X1461300Y100609D01*
X1466061Y102989D01*
X1473202D01*
X1477963Y100609D01*
X1482724Y95848D01*
X1485104Y88707D01*
Y83946D01*
X1482724Y76804D01*
X1477963Y72043D01*
X1473202Y69663D01*
X1466061D01*
X1461300Y72043D01*
X1456539Y76804D01*
X1443208Y119652D02*
Y69663D01*
X1419404Y102989D02*
X1443208Y79185D01*
X1433687Y88707D02*
X1417024Y69663D01*
X1380603Y102989D02*
Y69663D01*
Y95848D02*
X1385364Y100609D01*
X1390125Y102989D01*
X1397266D01*
X1402027Y100609D01*
X1406788Y95848D01*
X1409168Y88707D01*
Y83946D01*
X1406788Y76804D01*
X1402027Y72043D01*
X1397266Y69663D01*
X1390125D01*
X1385364Y72043D01*
X1380603Y76804D01*
X1360131Y119652D02*
Y79185D01*
X1357751Y72043D01*
X1352990Y69663D01*
X1348229D01*
X1367272Y102989D02*
X1350609D01*
X1314902D02*
X1341087Y69663D01*
Y102989D02*
X1314902D01*
X1341087Y69663D02*
X1314902D01*
X1299668Y119652D02*
X1273483D01*
X1287765Y100609D01*
X1280624D01*
X1275863Y98228D01*
X1273483Y95848D01*
X1271102Y88707D01*
Y83946D01*
X1273483Y76804D01*
X1278244Y72043D01*
X1285385Y69663D01*
X1292526D01*
X1299668Y72043D01*
X1302048Y74424D01*
X1304429Y79185D01*
X1224208Y100609D02*
X1226588Y105370D01*
X1231349Y107750D01*
X1238490D01*
X1243251Y105370D01*
X1245632Y102989D01*
X1248012Y95848D01*
Y88707D01*
X1245632Y83946D01*
X1240871Y81565D01*
X1233729D01*
X1228968Y83946D01*
X1226588Y88707D01*
X1238490Y107750D02*
X1243251Y102989D01*
X1245632Y95848D01*
Y88707D01*
X1243251Y83946D01*
X1240871Y81565D01*
X1224208Y107750D02*
X1226588Y88707D01*
Y83946D01*
X1221827Y81565D01*
X1217066D01*
X1212305Y86326D01*
X1209925Y93468D01*
Y98228D01*
X1212305Y105370D01*
X1214686Y110131D01*
X1219447Y114891D01*
X1224208Y117272D01*
X1231349Y119652D01*
X1238490D01*
X1245632Y117272D01*
X1250392Y114891D01*
X1255153Y110131D01*
X1257534Y105370D01*
X1259914Y98228D01*
Y91087D01*
X1257534Y83946D01*
X1255153Y79185D01*
X1250392Y74424D01*
X1245632Y72043D01*
X1238490Y69663D01*
X1231349D01*
X1224208Y72043D01*
X1219447Y74424D01*
X1217066Y76804D01*
X1221827Y107750D02*
X1224208Y88707D01*
Y83946D01*
X1221827Y81565D01*
X1168505Y102989D02*
Y64902D01*
X1170886Y57761D01*
X1173266Y55380D01*
X1178027Y53000D01*
X1185168D01*
X1189929Y55380D01*
X1168505Y95848D02*
X1173266Y100609D01*
X1178027Y102989D01*
X1185168D01*
X1189929Y100609D01*
X1194690Y95848D01*
X1197071Y88707D01*
Y83946D01*
X1194690Y76804D01*
X1189929Y72043D01*
X1185168Y69663D01*
X1178027D01*
X1173266Y72043D01*
X1168505Y76804D01*
X1155175Y102989D02*
Y69663D01*
Y93468D02*
X1148034Y100609D01*
X1143273Y102989D01*
X1136131D01*
X1131370Y100609D01*
X1128990Y93468D01*
Y69663D01*
Y93468D02*
X1121849Y100609D01*
X1117088Y102989D01*
X1109946D01*
X1105186Y100609D01*
X1102805Y93468D01*
Y69663D01*
X1058529Y102989D02*
Y69663D01*
Y95848D02*
X1063290Y100609D01*
X1068051Y102989D01*
X1075192D01*
X1079953Y100609D01*
X1084714Y95848D01*
X1087094Y88707D01*
Y83946D01*
X1084714Y76804D01*
X1079953Y72043D01*
X1075192Y69663D01*
X1068051D01*
X1063290Y72043D01*
X1058529Y76804D01*
X1040437Y119652D02*
X1038057Y117272D01*
X1035677Y119652D01*
X1038057Y122033D01*
X1040437Y119652D01*
X1038057Y102989D02*
Y69663D01*
X1026869Y119652D02*
Y69663D01*
X1014015Y74424D02*
X1016395Y72043D01*
X1014015Y69663D01*
X1011634Y72043D01*
X1014015Y74424D01*
X972119Y95848D02*
X976880Y100609D01*
X981641Y102989D01*
X988782D01*
X993543Y100609D01*
X998304Y95848D01*
X1000684Y88707D01*
Y83946D01*
X998304Y76804D01*
X993543Y72043D01*
X988782Y69663D01*
X981641D01*
X976880Y72043D01*
X972119Y76804D01*
X949505Y102989D02*
X954265Y100609D01*
X959026Y95848D01*
X961407Y88707D01*
Y83946D01*
X959026Y76804D01*
X954265Y72043D01*
X949505Y69663D01*
X942363D01*
X937602Y72043D01*
X932841Y76804D01*
X930461Y83946D01*
Y88707D01*
X932841Y95848D01*
X937602Y100609D01*
X942363Y102989D01*
X949505D01*
X919511D02*
Y69663D01*
Y93468D02*
X912370Y100609D01*
X907609Y102989D01*
X900467D01*
X895707Y100609D01*
X893326Y93468D01*
Y69663D01*
Y93468D02*
X886185Y100609D01*
X881424Y102989D01*
X874283D01*
X869522Y100609D01*
X867141Y93468D01*
Y69663D01*
D23*
X833527Y209987D02*
Y150000D01*
X793535Y209987D02*
Y150000D01*
X833527Y181422D02*
X793535D01*
X776967Y209987D02*
X754115Y150000D01*
X731263Y209987D02*
X754115Y150000D01*
X676418Y175709D02*
X625000D01*
X835000Y709987D02*
Y650000D01*
X795009Y709987D02*
Y650000D01*
X835000Y681422D02*
X795009D01*
X778441Y709987D02*
X755588Y650000D01*
X732736Y709987D02*
X755588Y650000D01*
X652182Y701418D02*
Y650000D01*
X677891Y675709D02*
X626473D01*
D24*
X978645Y463013D02*
Y503000D01*
X965316Y489671D01*
X951987Y503000D01*
Y463013D01*
X938658Y496336D02*
X931994Y503000D01*
X918664D01*
X912000Y496336D01*
Y489671D01*
X918664Y483006D01*
X925329D01*
X918664D01*
X912000Y476342D01*
Y469677D01*
X918664Y463013D01*
X931994D01*
X938658Y469677D01*
X1091942Y398228D02*
Y438216D01*
X1065284Y398228D01*
Y438216D01*
X1051955Y424886D02*
Y404893D01*
X1045290Y398228D01*
X1025297D01*
Y391564D01*
X1031961Y384899D01*
X1038626D01*
X1025297Y398228D02*
Y424886D01*
X1011968Y398228D02*
X998639D01*
X1005303D01*
Y438216D01*
X1011968D01*
X971981Y398228D02*
X958652D01*
X951987Y404893D01*
Y418222D01*
X958652Y424886D01*
X971981D01*
X978645Y418222D01*
Y404893D01*
X971981Y398228D01*
X938658D02*
Y424886D01*
X918664D01*
X912000Y418222D01*
Y398228D01*
X1045290Y320115D02*
X1031961D01*
X1025297Y326779D01*
Y340108D01*
X1031961Y346773D01*
X1045290D01*
X1051955Y340108D01*
Y326779D01*
X1045290Y320115D01*
X1011968D02*
Y346773D01*
X991974D01*
X985310Y340108D01*
Y320115D01*
X971981D02*
X958652D01*
X965316D01*
Y360102D01*
X971981D01*
X938658Y346773D02*
Y326779D01*
X931994Y320115D01*
X912000D01*
Y313450D01*
X918664Y306786D01*
X925329D01*
X912000Y320115D02*
Y346773D01*
X115000Y94994D02*
X128329D01*
X121665D01*
Y61671D01*
X128329Y55007D01*
X134994D01*
X141658Y61671D01*
X75013Y55007D02*
X101671D01*
X75013Y81665D01*
Y88329D01*
X81677Y94994D01*
X95006D01*
X101671Y88329D01*
X115000Y589994D02*
X128329D01*
X121665D01*
Y556671D01*
X128329Y550006D01*
X134994D01*
X141658Y556671D01*
X101671Y550006D02*
X88342D01*
X95006D01*
Y589994D01*
X101671Y583329D01*
%TF.MD5,10cd25d6c3eab8c6a6858c8ea7b23551*%
M02*
