%TF.GenerationSoftware,Altium Limited,Altium Designer,20.0.11 (256)*%
G04 Layer_Color=0*
%FSLAX26Y26*%
%MOIN*%
%TF.FileFunction,Profile,NP*%
%TF.Part,Single*%
G01*
G75*
%TA.AperFunction,Profile*%
%ADD42C,0.001000*%
G36*
X712508Y418007D02*
Y411803D01*
X714929Y399633D01*
X719677Y388169D01*
X726571Y377852D01*
X735345Y369078D01*
X745662Y362184D01*
X757126Y357436D01*
X769296Y355015D01*
X775500D01*
X781704D01*
X793874Y357436D01*
X805338Y362184D01*
X815655Y369078D01*
X824429Y377852D01*
X831323Y388169D01*
X836071Y399633D01*
X838492Y411803D01*
Y418007D01*
Y424211D01*
X836071Y436381D01*
X831323Y447845D01*
X824429Y458162D01*
X815655Y466936D01*
X805338Y473830D01*
X793874Y478578D01*
X781704Y480999D01*
X775500D01*
X769296D01*
X757126Y478578D01*
X745662Y473830D01*
X735345Y466936D01*
X726571Y458162D01*
X719677Y447845D01*
X714929Y436381D01*
X712508Y424211D01*
Y418007D01*
D01*
D02*
G37*
D42*
X50500Y-497D02*
G02*
X500Y49503I0J50000D01*
G01*
Y749503D01*
D02*
G02*
X50500Y799503I50000J0D01*
G01*
X1525500D01*
D02*
G02*
X1600500Y724503I0J-75000D01*
G01*
Y74503D01*
D02*
G02*
X1525500Y-497I-75000J0D01*
G01*
X50500D01*
%TF.MD5,f1dd8add05d3ade281b3a2160e8d610d*%
M02*
