%TF.GenerationSoftware,Altium Limited,Altium Designer,20.0.11 (256)*%
G04 Layer_Color=2752767*
%FSLAX26Y26*%
%MOIN*%
%TF.FileFunction,Drawing*%
%TF.Part,Single*%
G01*
G75*
%TA.AperFunction,NonConductor*%
%ADD23C,0.010000*%
%ADD41C,0.015000*%
%ADD46C,0.003333*%
%ADD47C,0.016000*%
D23*
X-126843Y5728385D02*
X-110176Y5711718D01*
X-143509Y5728385D02*
X-126843D01*
X-143509D02*
X-126843Y5745051D01*
X-143509Y5761718D02*
X-126843Y5745051D01*
X-143509Y5761718D02*
X-126843D01*
X-110176Y5778385D01*
X-93509Y5761718D01*
X-76843D01*
X-93509Y5745051D02*
X-76843Y5761718D01*
X-93509Y5745051D02*
X-76843Y5728385D01*
X-93509D02*
X-76843D01*
X-110176Y5711718D02*
X-93509Y5728385D01*
X-110176Y5561718D02*
X-76843Y5628385D01*
X-143509D02*
X-76843D01*
X-143509D02*
X-110176Y5561718D01*
X-143509Y5411718D02*
X-76843D01*
Y5478385D01*
X-143509D02*
X-76843D01*
X-143509Y5411718D02*
Y5478385D01*
X6126984Y5751705D02*
X6096993D01*
X6086997Y5741708D01*
Y5721715D01*
X6096993Y5711718D01*
X6126984D01*
X6146977D02*
X6166971D01*
X6156974D01*
Y5771699D01*
X6146977Y5761702D01*
X6196961D02*
X6206958Y5771699D01*
X6226951D01*
X6236948Y5761702D01*
Y5721715D01*
X6226951Y5711718D01*
X6206958D01*
X6196961Y5721715D01*
Y5761702D01*
X6256942D02*
X6266939Y5771699D01*
X6286932D01*
X6296929Y5761702D01*
Y5721715D01*
X6286932Y5711718D01*
X6266939D01*
X6256942Y5721715D01*
Y5761702D01*
X6316922Y5771699D02*
Y5711718D01*
Y5741708D01*
X6326919Y5751705D01*
X6346913D01*
X6356909Y5741708D01*
Y5711718D01*
X6376903D02*
Y5751705D01*
X6406893D01*
X6416890Y5741708D01*
Y5711718D01*
X6436883D02*
X6456877D01*
X6446880D01*
Y5771699D01*
X6436883Y5761702D01*
X6486867D02*
X6496864Y5771699D01*
X6516858D01*
X6526854Y5761702D01*
Y5721715D01*
X6516858Y5711718D01*
X6496864D01*
X6486867Y5721715D01*
Y5761702D01*
X6546848D02*
X6556845Y5771699D01*
X6576838D01*
X6586835Y5761702D01*
Y5721715D01*
X6576838Y5711718D01*
X6556845D01*
X6546848Y5721715D01*
Y5761702D01*
X6606828Y5711718D02*
Y5751705D01*
X6616825D01*
X6626822Y5741708D01*
Y5711718D01*
Y5741708D01*
X6636819Y5751705D01*
X6646816Y5741708D01*
Y5711718D01*
X6666809Y5761702D02*
X6676806Y5771699D01*
X6696799D01*
X6706796Y5761702D01*
Y5721715D01*
X6696799Y5711718D01*
X6676806D01*
X6666809Y5721715D01*
Y5761702D01*
X6726790Y5691725D02*
Y5751705D01*
X6756780D01*
X6766777Y5741708D01*
Y5721715D01*
X6756780Y5711718D01*
X6726790D01*
X6786770Y5761702D02*
X6796767Y5771699D01*
X6816761D01*
X6826757Y5761702D01*
Y5751705D01*
X6816761Y5741708D01*
X6806764D01*
X6816761D01*
X6826757Y5731712D01*
Y5721715D01*
X6816761Y5711718D01*
X6796767D01*
X6786770Y5721715D01*
X6886738Y5771699D02*
X6846751D01*
Y5741708D01*
X6866744Y5751705D01*
X6876741D01*
X6886738Y5741708D01*
Y5721715D01*
X6876741Y5711718D01*
X6856748D01*
X6846751Y5721715D01*
X6936722Y5711718D02*
Y5771699D01*
X6906731Y5741708D01*
X6946719D01*
X6126984Y5601705D02*
X6096993D01*
X6086997Y5591708D01*
Y5571715D01*
X6096993Y5561718D01*
X6126984D01*
X6146977Y5611702D02*
X6156974Y5621699D01*
X6176968D01*
X6186964Y5611702D01*
Y5601705D01*
X6176968Y5591708D01*
X6166971D01*
X6176968D01*
X6186964Y5581712D01*
Y5571715D01*
X6176968Y5561718D01*
X6156974D01*
X6146977Y5571715D01*
X6206958Y5561718D02*
X6226951D01*
X6216955D01*
Y5621699D01*
X6206958Y5611702D01*
X6256942D02*
X6266939Y5621699D01*
X6286932D01*
X6296929Y5611702D01*
Y5601705D01*
X6286932Y5591708D01*
X6296929Y5581712D01*
Y5571715D01*
X6286932Y5561718D01*
X6266939D01*
X6256942Y5571715D01*
Y5581712D01*
X6266939Y5591708D01*
X6256942Y5601705D01*
Y5611702D01*
X6266939Y5591708D02*
X6286932D01*
X6316922Y5621699D02*
Y5561718D01*
Y5591708D01*
X6326919Y5601705D01*
X6346913D01*
X6356909Y5591708D01*
Y5561718D01*
X6376903D02*
Y5601705D01*
X6406893D01*
X6416890Y5591708D01*
Y5561718D01*
X6436883Y5611702D02*
X6446880Y5621699D01*
X6466874D01*
X6476871Y5611702D01*
Y5601705D01*
X6466874Y5591708D01*
X6456877D01*
X6466874D01*
X6476871Y5581712D01*
Y5571715D01*
X6466874Y5561718D01*
X6446880D01*
X6436883Y5571715D01*
X6496864Y5561718D02*
X6516858D01*
X6506861D01*
Y5621699D01*
X6496864Y5611702D01*
X6546848D02*
X6556845Y5621699D01*
X6576838D01*
X6586835Y5611702D01*
Y5601705D01*
X6576838Y5591708D01*
X6586835Y5581712D01*
Y5571715D01*
X6576838Y5561718D01*
X6556845D01*
X6546848Y5571715D01*
Y5581712D01*
X6556845Y5591708D01*
X6546848Y5601705D01*
Y5611702D01*
X6556845Y5591708D02*
X6576838D01*
X6106990Y5411718D02*
X6086997Y5431712D01*
Y5451705D01*
X6106990Y5471699D01*
X6136980Y5411718D02*
Y5471699D01*
X6156974Y5451705D01*
X6176968Y5471699D01*
Y5411718D01*
X6196961D02*
X6216955D01*
X6206958D01*
Y5451705D01*
X6196961D01*
X6246945D02*
X6286932Y5411718D01*
X6266938Y5431712D01*
X6286932Y5451705D01*
X6246945Y5411718D01*
X6336916D02*
X6316922D01*
X6306926Y5421715D01*
Y5441708D01*
X6316922Y5451705D01*
X6336916D01*
X6346913Y5441708D01*
Y5431712D01*
X6306926D01*
X6406893Y5471699D02*
Y5411718D01*
X6376903D01*
X6366906Y5421715D01*
Y5441708D01*
X6376903Y5451705D01*
X6406893D01*
X6426887Y5411718D02*
X6446880Y5431712D01*
Y5451705D01*
X6426887Y5471699D01*
X5341199Y5711718D02*
Y5771699D01*
X5371189D01*
X5381186Y5761702D01*
Y5741708D01*
X5371189Y5731712D01*
X5341199D01*
X5361192D02*
X5381186Y5711718D01*
X5411176D02*
X5431169D01*
X5441166Y5721715D01*
Y5741708D01*
X5431169Y5751705D01*
X5411176D01*
X5401179Y5741708D01*
Y5721715D01*
X5411176Y5711718D01*
X5461160Y5751705D02*
Y5721715D01*
X5471157Y5711718D01*
X5501147D01*
Y5751705D01*
X5521140Y5711718D02*
Y5751705D01*
X5551131D01*
X5561127Y5741708D01*
Y5711718D01*
X5621108Y5771699D02*
Y5711718D01*
X5591118D01*
X5581121Y5721715D01*
Y5741708D01*
X5591118Y5751705D01*
X5621108D01*
X5671092Y5711718D02*
X5651098D01*
X5641102Y5721715D01*
Y5741708D01*
X5651098Y5751705D01*
X5671092D01*
X5681089Y5741708D01*
Y5731712D01*
X5641102D01*
X5741069Y5771699D02*
Y5711718D01*
X5711079D01*
X5701082Y5721715D01*
Y5741708D01*
X5711079Y5751705D01*
X5741069D01*
X5341199Y5561718D02*
Y5621699D01*
X5371189D01*
X5381186Y5611702D01*
Y5591708D01*
X5371189Y5581712D01*
X5341199D01*
X5361192D02*
X5381186Y5561718D01*
X5411176D02*
X5431169D01*
X5441166Y5571715D01*
Y5591708D01*
X5431169Y5601705D01*
X5411176D01*
X5401179Y5591708D01*
Y5571715D01*
X5411176Y5561718D01*
X5461160Y5601705D02*
Y5571715D01*
X5471157Y5561718D01*
X5501147D01*
Y5601705D01*
X5521140Y5561718D02*
Y5601705D01*
X5551131D01*
X5561127Y5591708D01*
Y5561718D01*
X5621108Y5621699D02*
Y5561718D01*
X5591118D01*
X5581121Y5571715D01*
Y5591708D01*
X5591118Y5601705D01*
X5621108D01*
X5671092Y5561718D02*
X5651098D01*
X5641102Y5571715D01*
Y5591708D01*
X5651098Y5601705D01*
X5671092D01*
X5681089Y5591708D01*
Y5581712D01*
X5641102D01*
X5741069Y5621699D02*
Y5561718D01*
X5711079D01*
X5701082Y5571715D01*
Y5591708D01*
X5711079Y5601705D01*
X5741069D01*
X5361192Y5411718D02*
X5341199Y5431712D01*
Y5451705D01*
X5361192Y5471699D01*
X5391182Y5411718D02*
Y5471699D01*
X5411176Y5451705D01*
X5431169Y5471699D01*
Y5411718D01*
X5451163D02*
X5471157D01*
X5461160D01*
Y5451705D01*
X5451163D01*
X5501147D02*
X5541134Y5411718D01*
X5521140Y5431712D01*
X5541134Y5451705D01*
X5501147Y5411718D01*
X5591118D02*
X5571124D01*
X5561127Y5421715D01*
Y5441708D01*
X5571124Y5451705D01*
X5591118D01*
X5601114Y5441708D01*
Y5431712D01*
X5561127D01*
X5661095Y5471699D02*
Y5411718D01*
X5631105D01*
X5621108Y5421715D01*
Y5441708D01*
X5631105Y5451705D01*
X5661095D01*
X5681089Y5411718D02*
X5701082Y5431712D01*
Y5451705D01*
X5681089Y5471699D01*
X4751350Y5711718D02*
Y5771699D01*
X4781340D01*
X4791337Y5761702D01*
Y5741708D01*
X4781340Y5731712D01*
X4751350D01*
X4821327Y5751705D02*
X4841321D01*
X4851318Y5741708D01*
Y5711718D01*
X4821327D01*
X4811331Y5721715D01*
X4821327Y5731712D01*
X4851318D01*
X4911298Y5771699D02*
Y5711718D01*
X4881308D01*
X4871311Y5721715D01*
Y5741708D01*
X4881308Y5751705D01*
X4911298D01*
X4751350Y5561718D02*
Y5621699D01*
X4781340D01*
X4791337Y5611702D01*
Y5591708D01*
X4781340Y5581712D01*
X4751350D01*
X4821327Y5601705D02*
X4841321D01*
X4851318Y5591708D01*
Y5561718D01*
X4821327D01*
X4811331Y5571715D01*
X4821327Y5581712D01*
X4851318D01*
X4911298Y5621699D02*
Y5561718D01*
X4881308D01*
X4871311Y5571715D01*
Y5591708D01*
X4881308Y5601705D01*
X4911298D01*
X4751350Y5411718D02*
Y5471699D01*
X4781340D01*
X4791337Y5461702D01*
Y5441708D01*
X4781340Y5431712D01*
X4751350D01*
X4821327Y5451705D02*
X4841321D01*
X4851318Y5441708D01*
Y5411718D01*
X4821327D01*
X4811331Y5421715D01*
X4821327Y5431712D01*
X4851318D01*
X4911298Y5471699D02*
Y5411718D01*
X4881308D01*
X4871311Y5421715D01*
Y5441708D01*
X4881308Y5451705D01*
X4911298D01*
X3251800Y5771699D02*
X3291787D01*
X3271793D01*
Y5711718D01*
X3321777D02*
X3341770D01*
X3351767Y5721715D01*
Y5741708D01*
X3341770Y5751705D01*
X3321777D01*
X3311780Y5741708D01*
Y5721715D01*
X3321777Y5711718D01*
X3371761Y5691725D02*
Y5751705D01*
X3401751D01*
X3411748Y5741708D01*
Y5721715D01*
X3401751Y5711718D01*
X3371761D01*
X3491722Y5771699D02*
Y5711718D01*
X3531709D01*
X3561699Y5751705D02*
X3581693D01*
X3591690Y5741708D01*
Y5711718D01*
X3561699D01*
X3551702Y5721715D01*
X3561699Y5731712D01*
X3591690D01*
X3611683Y5751705D02*
Y5721715D01*
X3621680Y5711718D01*
X3651670D01*
Y5701721D01*
X3641673Y5691725D01*
X3631677D01*
X3651670Y5711718D02*
Y5751705D01*
X3701654Y5711718D02*
X3681660D01*
X3671664Y5721715D01*
Y5741708D01*
X3681660Y5751705D01*
X3701654D01*
X3711651Y5741708D01*
Y5731712D01*
X3671664D01*
X3731644Y5751705D02*
Y5711718D01*
Y5731712D01*
X3741641Y5741708D01*
X3751638Y5751705D01*
X3761635D01*
X3851606Y5741708D02*
X3891593D01*
X3971567Y5771699D02*
Y5711718D01*
X4001557D01*
X4011554Y5721715D01*
Y5731712D01*
X4001557Y5741708D01*
X3971567D01*
X4001557D01*
X4011554Y5751705D01*
Y5761702D01*
X4001557Y5771699D01*
X3971567D01*
X4041544Y5711718D02*
X4061538D01*
X4071534Y5721715D01*
Y5741708D01*
X4061538Y5751705D01*
X4041544D01*
X4031547Y5741708D01*
Y5721715D01*
X4041544Y5711718D01*
X4101525Y5761702D02*
Y5751705D01*
X4091528D01*
X4111521D01*
X4101525D01*
Y5721715D01*
X4111521Y5711718D01*
X4151508Y5761702D02*
Y5751705D01*
X4141512D01*
X4161505D01*
X4151508D01*
Y5721715D01*
X4161505Y5711718D01*
X4201492D02*
X4221486D01*
X4231483Y5721715D01*
Y5741708D01*
X4221486Y5751705D01*
X4201492D01*
X4191495Y5741708D01*
Y5721715D01*
X4201492Y5711718D01*
X4251476D02*
Y5751705D01*
X4261473D01*
X4271470Y5741708D01*
Y5711718D01*
Y5741708D01*
X4281466Y5751705D01*
X4291463Y5741708D01*
Y5711718D01*
X4371437Y5771699D02*
Y5711718D01*
X4411424D01*
X4441415Y5751705D02*
X4461408D01*
X4471405Y5741708D01*
Y5711718D01*
X4441415D01*
X4431418Y5721715D01*
X4441415Y5731712D01*
X4471405D01*
X4491399Y5751705D02*
Y5721715D01*
X4501395Y5711718D01*
X4531386D01*
Y5701721D01*
X4521389Y5691725D01*
X4511392D01*
X4531386Y5711718D02*
Y5751705D01*
X4581369Y5711718D02*
X4561376D01*
X4551379Y5721715D01*
Y5741708D01*
X4561376Y5751705D01*
X4581369D01*
X4591366Y5741708D01*
Y5731712D01*
X4551379D01*
X4611360Y5751705D02*
Y5711718D01*
Y5731712D01*
X4621356Y5741708D01*
X4631353Y5751705D01*
X4641350D01*
X3251800Y5621699D02*
X3291787D01*
X3271793D01*
Y5561718D01*
X3321777D02*
X3341770D01*
X3351767Y5571715D01*
Y5591708D01*
X3341770Y5601705D01*
X3321777D01*
X3311780Y5591708D01*
Y5571715D01*
X3321777Y5561718D01*
X3371761Y5541725D02*
Y5601705D01*
X3401751D01*
X3411748Y5591708D01*
Y5571715D01*
X3401751Y5561718D01*
X3371761D01*
X3491722Y5621699D02*
Y5561718D01*
X3531709D01*
X3561699Y5601705D02*
X3581693D01*
X3591690Y5591708D01*
Y5561718D01*
X3561699D01*
X3551702Y5571715D01*
X3561699Y5581712D01*
X3591690D01*
X3611683Y5601705D02*
Y5571715D01*
X3621680Y5561718D01*
X3651670D01*
Y5551721D01*
X3641673Y5541725D01*
X3631677D01*
X3651670Y5561718D02*
Y5601705D01*
X3701654Y5561718D02*
X3681660D01*
X3671664Y5571715D01*
Y5591708D01*
X3681660Y5601705D01*
X3701654D01*
X3711651Y5591708D01*
Y5581712D01*
X3671664D01*
X3731644Y5601705D02*
Y5561718D01*
Y5581712D01*
X3741641Y5591708D01*
X3751638Y5601705D01*
X3761635D01*
X3851606Y5591708D02*
X3891593D01*
X3971567Y5621699D02*
Y5561718D01*
X4001557D01*
X4011554Y5571715D01*
Y5581712D01*
X4001557Y5591708D01*
X3971567D01*
X4001557D01*
X4011554Y5601705D01*
Y5611702D01*
X4001557Y5621699D01*
X3971567D01*
X4041544Y5561718D02*
X4061538D01*
X4071534Y5571715D01*
Y5591708D01*
X4061538Y5601705D01*
X4041544D01*
X4031547Y5591708D01*
Y5571715D01*
X4041544Y5561718D01*
X4101525Y5611702D02*
Y5601705D01*
X4091528D01*
X4111521D01*
X4101525D01*
Y5571715D01*
X4111521Y5561718D01*
X4151508Y5611702D02*
Y5601705D01*
X4141512D01*
X4161505D01*
X4151508D01*
Y5571715D01*
X4161505Y5561718D01*
X4201492D02*
X4221486D01*
X4231483Y5571715D01*
Y5591708D01*
X4221486Y5601705D01*
X4201492D01*
X4191495Y5591708D01*
Y5571715D01*
X4201492Y5561718D01*
X4251476D02*
Y5601705D01*
X4261473D01*
X4271470Y5591708D01*
Y5561718D01*
Y5591708D01*
X4281466Y5601705D01*
X4291463Y5591708D01*
Y5561718D01*
X4371437Y5621699D02*
Y5561718D01*
X4411424D01*
X4441415Y5601705D02*
X4461408D01*
X4471405Y5591708D01*
Y5561718D01*
X4441415D01*
X4431418Y5571715D01*
X4441415Y5581712D01*
X4471405D01*
X4491399Y5601705D02*
Y5571715D01*
X4501395Y5561718D01*
X4531386D01*
Y5551721D01*
X4521389Y5541725D01*
X4511392D01*
X4531386Y5561718D02*
Y5601705D01*
X4581369Y5561718D02*
X4561376D01*
X4551379Y5571715D01*
Y5591708D01*
X4561376Y5601705D01*
X4581369D01*
X4591366Y5591708D01*
Y5581712D01*
X4551379D01*
X4611360Y5601705D02*
Y5561718D01*
Y5581712D01*
X4621356Y5591708D01*
X4631353Y5601705D01*
X4641350D01*
X3251800Y5471699D02*
X3291787D01*
X3271793D01*
Y5411718D01*
X3321777D02*
X3341770D01*
X3351767Y5421715D01*
Y5441708D01*
X3341770Y5451705D01*
X3321777D01*
X3311780Y5441708D01*
Y5421715D01*
X3321777Y5411718D01*
X3371761Y5391725D02*
Y5451705D01*
X3401751D01*
X3411748Y5441708D01*
Y5421715D01*
X3401751Y5411718D01*
X3371761D01*
X3491722Y5471699D02*
Y5411718D01*
X3531709D01*
X3561699Y5451705D02*
X3581693D01*
X3591690Y5441708D01*
Y5411718D01*
X3561699D01*
X3551702Y5421715D01*
X3561699Y5431712D01*
X3591690D01*
X3611683Y5451705D02*
Y5421715D01*
X3621680Y5411718D01*
X3651670D01*
Y5401721D01*
X3641673Y5391725D01*
X3631677D01*
X3651670Y5411718D02*
Y5451705D01*
X3701654Y5411718D02*
X3681660D01*
X3671664Y5421715D01*
Y5441708D01*
X3681660Y5451705D01*
X3701654D01*
X3711651Y5441708D01*
Y5431712D01*
X3671664D01*
X3731644Y5451705D02*
Y5411718D01*
Y5431712D01*
X3741641Y5441708D01*
X3751638Y5451705D01*
X3761635D01*
X3851606Y5441708D02*
X3891593D01*
X3971567Y5471699D02*
Y5411718D01*
X4001557D01*
X4011554Y5421715D01*
Y5431712D01*
X4001557Y5441708D01*
X3971567D01*
X4001557D01*
X4011554Y5451705D01*
Y5461702D01*
X4001557Y5471699D01*
X3971567D01*
X4041544Y5411718D02*
X4061538D01*
X4071534Y5421715D01*
Y5441708D01*
X4061538Y5451705D01*
X4041544D01*
X4031547Y5441708D01*
Y5421715D01*
X4041544Y5411718D01*
X4101525Y5461702D02*
Y5451705D01*
X4091528D01*
X4111521D01*
X4101525D01*
Y5421715D01*
X4111521Y5411718D01*
X4151508Y5461702D02*
Y5451705D01*
X4141512D01*
X4161505D01*
X4151508D01*
Y5421715D01*
X4161505Y5411718D01*
X4201492D02*
X4221486D01*
X4231483Y5421715D01*
Y5441708D01*
X4221486Y5451705D01*
X4201492D01*
X4191495Y5441708D01*
Y5421715D01*
X4201492Y5411718D01*
X4251476D02*
Y5451705D01*
X4261473D01*
X4271470Y5441708D01*
Y5411718D01*
Y5441708D01*
X4281466Y5451705D01*
X4291463Y5441708D01*
Y5411718D01*
X4371437Y5471699D02*
Y5411718D01*
X4411424D01*
X4441415Y5451705D02*
X4461408D01*
X4471405Y5441708D01*
Y5411718D01*
X4441415D01*
X4431418Y5421715D01*
X4441415Y5431712D01*
X4471405D01*
X4491399Y5451705D02*
Y5421715D01*
X4501395Y5411718D01*
X4531386D01*
Y5401721D01*
X4521389Y5391725D01*
X4511392D01*
X4531386Y5411718D02*
Y5451705D01*
X4581369Y5411718D02*
X4561376D01*
X4551379Y5421715D01*
Y5441708D01*
X4561376Y5451705D01*
X4581369D01*
X4591366Y5441708D01*
Y5431712D01*
X4551379D01*
X4611360Y5451705D02*
Y5411718D01*
Y5431712D01*
X4621356Y5441708D01*
X4631353Y5451705D01*
X4641350D01*
X2517997Y5711718D02*
Y5771699D01*
X2547988D01*
X2557985Y5761702D01*
Y5741708D01*
X2547988Y5731712D01*
X2517997D01*
X2537991D02*
X2557985Y5711718D01*
X2587975D02*
X2607968D01*
X2617965Y5721715D01*
Y5741708D01*
X2607968Y5751705D01*
X2587975D01*
X2577978Y5741708D01*
Y5721715D01*
X2587975Y5711718D01*
X2637959Y5751705D02*
Y5721715D01*
X2647956Y5711718D01*
X2677946D01*
Y5751705D01*
X2697939Y5711718D02*
Y5751705D01*
X2727930D01*
X2737926Y5741708D01*
Y5711718D01*
X2797907Y5771699D02*
Y5711718D01*
X2767917D01*
X2757920Y5721715D01*
Y5741708D01*
X2767917Y5751705D01*
X2797907D01*
X2517997Y5561718D02*
Y5621699D01*
X2547988D01*
X2557985Y5611702D01*
Y5591708D01*
X2547988Y5581712D01*
X2517997D01*
X2537991D02*
X2557985Y5561718D01*
X2587975D02*
X2607968D01*
X2617965Y5571715D01*
Y5591708D01*
X2607968Y5601705D01*
X2587975D01*
X2577978Y5591708D01*
Y5571715D01*
X2587975Y5561718D01*
X2637959Y5601705D02*
Y5571715D01*
X2647956Y5561718D01*
X2677946D01*
Y5601705D01*
X2697939Y5561718D02*
Y5601705D01*
X2727930D01*
X2737926Y5591708D01*
Y5561718D01*
X2797907Y5621699D02*
Y5561718D01*
X2767917D01*
X2757920Y5571715D01*
Y5591708D01*
X2767917Y5601705D01*
X2797907D01*
X2517997Y5411718D02*
Y5471699D01*
X2547988D01*
X2557985Y5461702D01*
Y5441708D01*
X2547988Y5431712D01*
X2517997D01*
X2537991D02*
X2557985Y5411718D01*
X2587975D02*
X2607968D01*
X2617965Y5421715D01*
Y5441708D01*
X2607968Y5451705D01*
X2587975D01*
X2577978Y5441708D01*
Y5421715D01*
X2587975Y5411718D01*
X2637959Y5451705D02*
Y5421715D01*
X2647956Y5411718D01*
X2677946D01*
Y5451705D01*
X2697939Y5411718D02*
Y5451705D01*
X2727930D01*
X2737926Y5441708D01*
Y5411718D01*
X2797907Y5471699D02*
Y5411718D01*
X2767917D01*
X2757920Y5421715D01*
Y5441708D01*
X2767917Y5451705D01*
X2797907D01*
X2012122Y5711718D02*
Y5771699D01*
X2052109Y5711718D01*
Y5771699D01*
X2072102Y5711718D02*
Y5771699D01*
X2102093D01*
X2112089Y5761702D01*
Y5741708D01*
X2102093Y5731712D01*
X2072102D01*
X2132083Y5771699D02*
X2172070D01*
X2152076D01*
Y5711718D01*
X2192064Y5771699D02*
Y5711718D01*
Y5741708D01*
X2232051D01*
Y5771699D01*
Y5711718D01*
X2012122Y5561718D02*
Y5621699D01*
X2052109Y5561718D01*
Y5621699D01*
X2072102Y5561718D02*
Y5621699D01*
X2102093D01*
X2112089Y5611702D01*
Y5591708D01*
X2102093Y5581712D01*
X2072102D01*
X2132083Y5621699D02*
X2172070D01*
X2152076D01*
Y5561718D01*
X2192064Y5621699D02*
Y5561718D01*
Y5591708D01*
X2232051D01*
Y5621699D01*
Y5561718D01*
X2012122Y5411718D02*
Y5471699D01*
X2042112D01*
X2052109Y5461702D01*
Y5441708D01*
X2042112Y5431712D01*
X2012122D01*
X2072102Y5471699D02*
X2112089D01*
X2092096D01*
Y5411718D01*
X2132083Y5471699D02*
Y5411718D01*
Y5441708D01*
X2172070D01*
Y5471699D01*
Y5411718D01*
X872455Y5761702D02*
X882452Y5771699D01*
X902445D01*
X912442Y5761702D01*
Y5751705D01*
X902445Y5741708D01*
X892448D01*
X902445D01*
X912442Y5731712D01*
Y5721715D01*
X902445Y5711718D01*
X882452D01*
X872455Y5721715D01*
X932436D02*
X942432Y5711718D01*
X962426D01*
X972423Y5721715D01*
Y5761702D01*
X962426Y5771699D01*
X942432D01*
X932436Y5761702D01*
Y5751705D01*
X942432Y5741708D01*
X972423D01*
X992416Y5711718D02*
Y5721715D01*
X1002413D01*
Y5711718D01*
X992416D01*
X1042400Y5761702D02*
X1052397Y5771699D01*
X1072390D01*
X1082387Y5761702D01*
Y5751705D01*
X1072390Y5741708D01*
X1062393D01*
X1072390D01*
X1082387Y5731712D01*
Y5721715D01*
X1072390Y5711718D01*
X1052397D01*
X1042400Y5721715D01*
X1102381Y5771699D02*
X1142368D01*
Y5761702D01*
X1102381Y5721715D01*
Y5711718D01*
X1162361D02*
Y5751705D01*
X1172358D01*
X1182355Y5741708D01*
Y5711718D01*
Y5741708D01*
X1192351Y5751705D01*
X1202348Y5741708D01*
Y5711718D01*
X1222342D02*
X1242335D01*
X1232339D01*
Y5751705D01*
X1222342D01*
X1272326Y5711718D02*
X1292319D01*
X1282322D01*
Y5771699D01*
X1272326D01*
X1402284Y5711718D02*
X1382290Y5731712D01*
Y5751705D01*
X1402284Y5771699D01*
X1432274Y5711718D02*
X1452267D01*
X1442271D01*
Y5771699D01*
X1432274Y5761702D01*
X1482258Y5711718D02*
Y5721715D01*
X1492254D01*
Y5711718D01*
X1482258D01*
X1532241Y5761702D02*
X1542238Y5771699D01*
X1562232D01*
X1572228Y5761702D01*
Y5721715D01*
X1562232Y5711718D01*
X1542238D01*
X1532241Y5721715D01*
Y5761702D01*
X1592222D02*
X1602219Y5771699D01*
X1622212D01*
X1632209Y5761702D01*
Y5721715D01*
X1622212Y5711718D01*
X1602219D01*
X1592222Y5721715D01*
Y5761702D01*
X1652203D02*
X1662199Y5771699D01*
X1682193D01*
X1692190Y5761702D01*
Y5721715D01*
X1682193Y5711718D01*
X1662199D01*
X1652203Y5721715D01*
Y5761702D01*
X1712183Y5711718D02*
Y5751705D01*
X1722180D01*
X1732177Y5741708D01*
Y5711718D01*
Y5741708D01*
X1742174Y5751705D01*
X1752170Y5741708D01*
Y5711718D01*
X1772164D02*
Y5751705D01*
X1782161D01*
X1792157Y5741708D01*
Y5711718D01*
Y5741708D01*
X1802154Y5751705D01*
X1812151Y5741708D01*
Y5711718D01*
X1832144D02*
X1852138Y5731712D01*
Y5751705D01*
X1832144Y5771699D01*
X872455Y5561718D02*
X892448D01*
X882452D01*
Y5621699D01*
X872455Y5611702D01*
X962426Y5561718D02*
X922439D01*
X962426Y5601705D01*
Y5611702D01*
X952429Y5621699D01*
X932436D01*
X922439Y5611702D01*
X1022407Y5621699D02*
X982419D01*
Y5591708D01*
X1002413Y5601705D01*
X1012410D01*
X1022407Y5591708D01*
Y5571715D01*
X1012410Y5561718D01*
X992416D01*
X982419Y5571715D01*
X1042400Y5561718D02*
Y5571715D01*
X1052397D01*
Y5561718D01*
X1042400D01*
X1092384Y5611702D02*
X1102381Y5621699D01*
X1122374D01*
X1132371Y5611702D01*
Y5571715D01*
X1122374Y5561718D01*
X1102381D01*
X1092384Y5571715D01*
Y5611702D01*
X1152364D02*
X1162361Y5621699D01*
X1182355D01*
X1192351Y5611702D01*
Y5571715D01*
X1182355Y5561718D01*
X1162361D01*
X1152364Y5571715D01*
Y5611702D01*
X1212345Y5561718D02*
Y5601705D01*
X1222342D01*
X1232339Y5591708D01*
Y5561718D01*
Y5591708D01*
X1242335Y5601705D01*
X1252332Y5591708D01*
Y5561718D01*
X1272326D02*
X1292319D01*
X1282322D01*
Y5601705D01*
X1272326D01*
X1322309Y5561718D02*
X1342303D01*
X1332306D01*
Y5621699D01*
X1322309D01*
X1452267Y5561718D02*
X1432274Y5581712D01*
Y5601705D01*
X1452267Y5621699D01*
X1482258Y5611702D02*
X1492254Y5621699D01*
X1512248D01*
X1522245Y5611702D01*
Y5601705D01*
X1512248Y5591708D01*
X1502251D01*
X1512248D01*
X1522245Y5581712D01*
Y5571715D01*
X1512248Y5561718D01*
X1492254D01*
X1482258Y5571715D01*
X1542238Y5561718D02*
Y5571715D01*
X1552235D01*
Y5561718D01*
X1542238D01*
X1592222D02*
X1612216D01*
X1602219D01*
Y5621699D01*
X1592222Y5611702D01*
X1642206Y5621699D02*
X1682193D01*
Y5611702D01*
X1642206Y5571715D01*
Y5561718D01*
X1742174Y5621699D02*
X1702186D01*
Y5591708D01*
X1722180Y5601705D01*
X1732177D01*
X1742174Y5591708D01*
Y5571715D01*
X1732177Y5561718D01*
X1712183D01*
X1702186Y5571715D01*
X1762167Y5561718D02*
Y5601705D01*
X1772164D01*
X1782160Y5591708D01*
Y5561718D01*
Y5591708D01*
X1792157Y5601705D01*
X1802154Y5591708D01*
Y5561718D01*
X1822148D02*
Y5601705D01*
X1832144D01*
X1842141Y5591708D01*
Y5561718D01*
Y5591708D01*
X1852138Y5601705D01*
X1862135Y5591708D01*
Y5561718D01*
X1882128D02*
X1902122Y5581712D01*
Y5601705D01*
X1882128Y5621699D01*
X912442Y5471699D02*
X872455D01*
Y5441708D01*
X892448Y5451705D01*
X902445D01*
X912442Y5441708D01*
Y5421715D01*
X902445Y5411718D01*
X882452D01*
X872455Y5421715D01*
X972423Y5471699D02*
X932436D01*
Y5441708D01*
X952429Y5451705D01*
X962426D01*
X972423Y5441708D01*
Y5421715D01*
X962426Y5411718D01*
X942432D01*
X932436Y5421715D01*
X992416Y5411718D02*
Y5421715D01*
X1002413D01*
Y5411718D01*
X992416D01*
X1042400Y5461702D02*
X1052397Y5471699D01*
X1072390D01*
X1082387Y5461702D01*
Y5421715D01*
X1072390Y5411718D01*
X1052397D01*
X1042400Y5421715D01*
Y5461702D01*
X1102381D02*
X1112377Y5471699D01*
X1132371D01*
X1142368Y5461702D01*
Y5421715D01*
X1132371Y5411718D01*
X1112377D01*
X1102381Y5421715D01*
Y5461702D01*
X1162361Y5411718D02*
Y5451705D01*
X1172358D01*
X1182355Y5441708D01*
Y5411718D01*
Y5441708D01*
X1192351Y5451705D01*
X1202348Y5441708D01*
Y5411718D01*
X1222342D02*
X1242335D01*
X1232339D01*
Y5451705D01*
X1222342D01*
X1272326Y5411718D02*
X1292319D01*
X1282322D01*
Y5471699D01*
X1272326D01*
X1402284Y5411718D02*
X1382290Y5431712D01*
Y5451705D01*
X1402284Y5471699D01*
X1432274Y5411718D02*
X1452267D01*
X1442271D01*
Y5471699D01*
X1432274Y5461702D01*
X1482258Y5411718D02*
Y5421715D01*
X1492254D01*
Y5411718D01*
X1482258D01*
X1532241Y5461702D02*
X1542238Y5471699D01*
X1562232D01*
X1572228Y5461702D01*
Y5451705D01*
X1562232Y5441708D01*
X1552235D01*
X1562232D01*
X1572228Y5431712D01*
Y5421715D01*
X1562232Y5411718D01*
X1542238D01*
X1532241Y5421715D01*
X1592222D02*
X1602219Y5411718D01*
X1622212D01*
X1632209Y5421715D01*
Y5461702D01*
X1622212Y5471699D01*
X1602219D01*
X1592222Y5461702D01*
Y5451705D01*
X1602219Y5441708D01*
X1632209D01*
X1652203Y5471699D02*
X1692190D01*
Y5461702D01*
X1652203Y5421715D01*
Y5411718D01*
X1712183D02*
Y5451705D01*
X1722180D01*
X1732177Y5441708D01*
Y5411718D01*
Y5441708D01*
X1742174Y5451705D01*
X1752170Y5441708D01*
Y5411718D01*
X1772164D02*
Y5451705D01*
X1782161D01*
X1792157Y5441708D01*
Y5411718D01*
Y5441708D01*
X1802154Y5451705D01*
X1812151Y5441708D01*
Y5411718D01*
X1832144D02*
X1852138Y5431712D01*
Y5451705D01*
X1832144Y5471699D01*
X392575Y5311702D02*
X402572Y5321699D01*
X422565D01*
X432562Y5311702D01*
Y5301705D01*
X422565Y5291708D01*
X432562Y5281712D01*
Y5271715D01*
X422565Y5261718D01*
X402572D01*
X392575Y5271715D01*
Y5281712D01*
X402572Y5291708D01*
X392575Y5301705D01*
Y5311702D01*
X402572Y5291708D02*
X422565D01*
X512536Y5321699D02*
X552523D01*
X532529D01*
Y5261718D01*
X582513D02*
X602507D01*
X612504Y5271715D01*
Y5291708D01*
X602507Y5301705D01*
X582513D01*
X572516Y5291708D01*
Y5271715D01*
X582513Y5261718D01*
X642494Y5311702D02*
Y5301705D01*
X632497D01*
X652491D01*
X642494D01*
Y5271715D01*
X652491Y5261718D01*
X692478Y5301705D02*
X712471D01*
X722468Y5291708D01*
Y5261718D01*
X692478D01*
X682481Y5271715D01*
X692478Y5281712D01*
X722468D01*
X742462Y5261718D02*
X762455D01*
X752458D01*
Y5321699D01*
X742462D01*
X432562Y5711718D02*
X392575D01*
X432562Y5751705D01*
Y5761702D01*
X422565Y5771699D01*
X402572D01*
X392575Y5761702D01*
X432562Y5561718D02*
X392575D01*
X432562Y5601705D01*
Y5611702D01*
X422565Y5621699D01*
X402572D01*
X392575Y5611702D01*
X422565Y5411718D02*
Y5471699D01*
X392575Y5441708D01*
X432562D01*
D41*
X-203301Y5816718D02*
X7056719D01*
X-203301Y5366718D02*
X7056719D01*
X-203301Y5216718D02*
X7056719D01*
Y5966718D01*
X-203301D02*
X7056719D01*
X-203301Y5216718D02*
Y5966718D01*
X6041997Y5216718D02*
Y5966718D01*
X5296199Y5216718D02*
Y5966718D01*
X4706350Y5216718D02*
Y5966718D01*
X3206800Y5216718D02*
Y5966718D01*
X2472997Y5216718D02*
Y5966718D01*
X1967122Y5216718D02*
Y5966718D01*
X827455Y5216718D02*
Y5966718D01*
X347575Y5216718D02*
Y5966718D01*
D46*
X433333Y658333D02*
X466667D01*
Y691667D01*
X433333D02*
X466667D01*
X433333Y658333D02*
Y691667D01*
X270341Y658333D02*
X303675D01*
Y691667D01*
X270341D02*
X303675D01*
X270341Y658333D02*
Y691667D01*
X112004Y658333D02*
X128671Y691667D01*
X95337D02*
X128671D01*
X95337D02*
X112004Y658333D01*
X433333Y158333D02*
X466667D01*
Y191667D01*
X433333D02*
X466667D01*
X433333Y158333D02*
Y191667D01*
X270341Y158333D02*
X303675D01*
Y191667D01*
X270341D02*
X303675D01*
X270341Y158333D02*
Y191667D01*
X112004Y158333D02*
X128671Y191667D01*
X95337D02*
X128671D01*
X95337D02*
X112004Y158333D01*
X1516474Y473990D02*
X1524807Y465656D01*
X1508140Y473990D02*
X1516474D01*
X1508140D02*
X1516474Y482323D01*
X1508140Y490656D02*
X1516474Y482323D01*
X1508140Y490656D02*
X1516474D01*
X1524807Y498990D01*
X1533140Y490656D01*
X1541474D01*
X1533140Y482323D02*
X1541474Y490656D01*
X1533140Y482323D02*
X1541474Y473990D01*
X1533140D02*
X1541474D01*
X1524807Y465656D02*
X1533140Y473990D01*
X1367931Y325386D02*
X1376264Y317052D01*
X1359597Y325386D02*
X1367931D01*
X1359597D02*
X1367931Y333719D01*
X1359597Y342052D02*
X1367931Y333719D01*
X1359597Y342052D02*
X1367931D01*
X1376264Y350385D01*
X1384597Y342052D01*
X1392930D01*
X1384597Y333719D02*
X1392930Y342052D01*
X1384597Y333719D02*
X1392930Y325386D01*
X1384597D02*
X1392930D01*
X1376264Y317052D02*
X1384597Y325386D01*
D47*
X6086997Y5933695D02*
X6134981D01*
X6110989D01*
Y5861718D01*
X6194962D02*
X6170970D01*
X6158973Y5873714D01*
Y5897706D01*
X6170970Y5909703D01*
X6194962D01*
X6206958Y5897706D01*
Y5885710D01*
X6158973D01*
X6230950Y5861718D02*
Y5909703D01*
X6242946D01*
X6254942Y5897706D01*
Y5861718D01*
Y5897706D01*
X6266939Y5909703D01*
X6278935Y5897706D01*
Y5861718D01*
X6302927Y5837726D02*
Y5909703D01*
X6338915D01*
X6350911Y5897706D01*
Y5873714D01*
X6338915Y5861718D01*
X6302927D01*
X6374904D02*
X6398896D01*
X6386900D01*
Y5933695D01*
X6374904D01*
X6446880Y5909703D02*
X6470873D01*
X6482869Y5897706D01*
Y5861718D01*
X6446880D01*
X6434884Y5873714D01*
X6446880Y5885710D01*
X6482869D01*
X6518857Y5921699D02*
Y5909703D01*
X6506861D01*
X6530853D01*
X6518857D01*
Y5873714D01*
X6530853Y5861718D01*
X6602830D02*
X6578837D01*
X6566841Y5873714D01*
Y5897706D01*
X6578837Y5909703D01*
X6602830D01*
X6614826Y5897706D01*
Y5885710D01*
X6566841D01*
X5341199Y5861718D02*
Y5933695D01*
X5377187D01*
X5389183Y5921699D01*
Y5897706D01*
X5377187Y5885710D01*
X5341199D01*
X5425171Y5909703D02*
X5449164D01*
X5461160Y5897706D01*
Y5861718D01*
X5425171D01*
X5413175Y5873714D01*
X5425171Y5885710D01*
X5461160D01*
X5533136Y5933695D02*
Y5861718D01*
X5497148D01*
X5485152Y5873714D01*
Y5897706D01*
X5497148Y5909703D01*
X5533136D01*
X5677090Y5921699D02*
X5665094Y5933695D01*
X5641101D01*
X5629105Y5921699D01*
Y5909703D01*
X5641101Y5897706D01*
X5665094D01*
X5677090Y5885710D01*
Y5873714D01*
X5665094Y5861718D01*
X5641101D01*
X5629105Y5873714D01*
X5701082Y5933695D02*
Y5861718D01*
Y5897706D01*
X5713078Y5909703D01*
X5737070D01*
X5749067Y5897706D01*
Y5861718D01*
X5785055Y5909703D02*
X5809047D01*
X5821043Y5897706D01*
Y5861718D01*
X5785055D01*
X5773059Y5873714D01*
X5785055Y5885710D01*
X5821043D01*
X5845035Y5837726D02*
Y5909703D01*
X5881024D01*
X5893020Y5897706D01*
Y5873714D01*
X5881024Y5861718D01*
X5845035D01*
X5953001D02*
X5929008D01*
X5917012Y5873714D01*
Y5897706D01*
X5929008Y5909703D01*
X5953001D01*
X5964997Y5897706D01*
Y5885710D01*
X5917012D01*
X4751350Y5933695D02*
Y5885710D01*
X4775342Y5861718D01*
X4799334Y5885710D01*
Y5933695D01*
X4823327Y5861718D02*
X4847319D01*
X4835323D01*
Y5909703D01*
X4823327D01*
X4895303D02*
X4919296D01*
X4931292Y5897706D01*
Y5861718D01*
X4895303D01*
X4883307Y5873714D01*
X4895303Y5885710D01*
X4931292D01*
X4955284Y5861718D02*
X5003269Y5909703D01*
X5027261Y5861718D02*
Y5933695D01*
X5063249D01*
X5075245Y5921699D01*
Y5897706D01*
X5063249Y5885710D01*
X5027261D01*
X5111234Y5909703D02*
X5135226D01*
X5147222Y5897706D01*
Y5861718D01*
X5111234D01*
X5099237Y5873714D01*
X5111234Y5885710D01*
X5147222D01*
X5219199Y5933695D02*
Y5861718D01*
X5183210D01*
X5171214Y5873714D01*
Y5897706D01*
X5183210Y5909703D01*
X5219199D01*
X3251800Y5933695D02*
Y5861718D01*
X3287788D01*
X3299784Y5873714D01*
Y5921699D01*
X3287788Y5933695D01*
X3251800D01*
X3323776Y5909703D02*
Y5861718D01*
Y5885710D01*
X3335772Y5897706D01*
X3347768Y5909703D01*
X3359765D01*
X3395753Y5861718D02*
X3419745D01*
X3407749D01*
Y5909703D01*
X3395753D01*
X3455733Y5861718D02*
X3479726D01*
X3467730D01*
Y5933695D01*
X3455733D01*
X3515714Y5861718D02*
X3539706D01*
X3527710D01*
Y5933695D01*
X3515714D01*
X3647671D02*
Y5861718D01*
X3695656D01*
X3731644Y5909703D02*
X3755637D01*
X3767633Y5897706D01*
Y5861718D01*
X3731644D01*
X3719648Y5873714D01*
X3731644Y5885710D01*
X3767633D01*
X3791625Y5909703D02*
Y5873714D01*
X3803621Y5861718D01*
X3839609D01*
Y5849722D01*
X3827613Y5837726D01*
X3815617D01*
X3839609Y5861718D02*
Y5909703D01*
X3899590Y5861718D02*
X3875598D01*
X3863602Y5873714D01*
Y5897706D01*
X3875598Y5909703D01*
X3899590D01*
X3911586Y5897706D01*
Y5885710D01*
X3863602D01*
X3935578Y5909703D02*
Y5861718D01*
Y5885710D01*
X3947574Y5897706D01*
X3959570Y5909703D01*
X3971567D01*
X4079532Y5861718D02*
Y5933695D01*
X4115520D01*
X4127516Y5921699D01*
Y5897706D01*
X4115520Y5885710D01*
X4079532D01*
X4163504Y5909703D02*
X4187497D01*
X4199493Y5897706D01*
Y5861718D01*
X4163504D01*
X4151508Y5873714D01*
X4163504Y5885710D01*
X4199493D01*
X4223485Y5861718D02*
X4247477D01*
X4235481D01*
Y5909703D01*
X4223485D01*
X4283466D02*
Y5861718D01*
Y5885710D01*
X4295462Y5897706D01*
X4307458Y5909703D01*
X4319454D01*
X2517997Y5933695D02*
Y5861718D01*
Y5897706D01*
X2565982D01*
Y5933695D01*
Y5861718D01*
X2601970D02*
X2625963D01*
X2637959Y5873714D01*
Y5897706D01*
X2625963Y5909703D01*
X2601970D01*
X2589974Y5897706D01*
Y5873714D01*
X2601970Y5861718D01*
X2661951D02*
X2685943D01*
X2673947D01*
Y5933695D01*
X2661951D01*
X2757920Y5861718D02*
X2733928D01*
X2721932Y5873714D01*
Y5897706D01*
X2733928Y5909703D01*
X2757920D01*
X2769916Y5897706D01*
Y5885710D01*
X2721932D01*
X2865885Y5933695D02*
X2913869D01*
X2889877D01*
Y5861718D01*
X2937862Y5909703D02*
Y5873714D01*
X2949858Y5861718D01*
X2985846D01*
Y5849722D01*
X2973850Y5837726D01*
X2961854D01*
X2985846Y5861718D02*
Y5909703D01*
X3009838Y5837726D02*
Y5909703D01*
X3045827D01*
X3057823Y5897706D01*
Y5873714D01*
X3045827Y5861718D01*
X3009838D01*
X3117803D02*
X3093811D01*
X3081815Y5873714D01*
Y5897706D01*
X3093811Y5909703D01*
X3117803D01*
X3129800Y5897706D01*
Y5885710D01*
X3081815D01*
X2012122Y5861718D02*
Y5933695D01*
X2048110D01*
X2060106Y5921699D01*
Y5897706D01*
X2048110Y5885710D01*
X2012122D01*
X2084098Y5861718D02*
X2108091D01*
X2096095D01*
Y5933695D01*
X2084098D01*
X2156075Y5909703D02*
X2180067D01*
X2192064Y5897706D01*
Y5861718D01*
X2156075D01*
X2144079Y5873714D01*
X2156075Y5885710D01*
X2192064D01*
X2228052Y5921699D02*
Y5909703D01*
X2216056D01*
X2240048D01*
X2228052D01*
Y5873714D01*
X2240048Y5861718D01*
X2312025D02*
X2288032D01*
X2276036Y5873714D01*
Y5897706D01*
X2288032Y5909703D01*
X2312025D01*
X2324021Y5897706D01*
Y5885710D01*
X2276036D01*
X2395997Y5933695D02*
Y5861718D01*
X2360009D01*
X2348013Y5873714D01*
Y5897706D01*
X2360009Y5909703D01*
X2395997D01*
X872455Y5933695D02*
Y5861718D01*
Y5897706D01*
X920439D01*
Y5933695D01*
Y5861718D01*
X956428D02*
X980420D01*
X992416Y5873714D01*
Y5897706D01*
X980420Y5909703D01*
X956428D01*
X944432Y5897706D01*
Y5873714D01*
X956428Y5861718D01*
X1016408D02*
X1040401D01*
X1028405D01*
Y5933695D01*
X1016408D01*
X1112377Y5861718D02*
X1088385D01*
X1076389Y5873714D01*
Y5897706D01*
X1088385Y5909703D01*
X1112377D01*
X1124373Y5897706D01*
Y5885710D01*
X1076389D01*
X1268327Y5921699D02*
X1256331Y5933695D01*
X1232339D01*
X1220342Y5921699D01*
Y5909703D01*
X1232339Y5897706D01*
X1256331D01*
X1268327Y5885710D01*
Y5873714D01*
X1256331Y5861718D01*
X1232339D01*
X1220342Y5873714D01*
X1292319Y5861718D02*
X1316311D01*
X1304315D01*
Y5909703D01*
X1292319D01*
X1352300D02*
X1400284D01*
X1352300Y5861718D01*
X1400284D01*
X1460265D02*
X1436273D01*
X1424276Y5873714D01*
Y5897706D01*
X1436273Y5909703D01*
X1460265D01*
X1472261Y5897706D01*
Y5885710D01*
X1424276D01*
X440559Y5921699D02*
X428563Y5933695D01*
X404571D01*
X392575Y5921699D01*
Y5873714D01*
X404571Y5861718D01*
X428563D01*
X440559Y5873714D01*
X476548Y5861718D02*
X500540D01*
X512536Y5873714D01*
Y5897706D01*
X500540Y5909703D01*
X476548D01*
X464551Y5897706D01*
Y5873714D01*
X476548Y5861718D01*
X536528Y5909703D02*
Y5873714D01*
X548524Y5861718D01*
X584513D01*
Y5909703D01*
X608505Y5861718D02*
Y5909703D01*
X644493D01*
X656489Y5897706D01*
Y5861718D01*
X692478Y5921699D02*
Y5909703D01*
X680481D01*
X704474D01*
X692478D01*
Y5873714D01*
X704474Y5861718D01*
X-65317Y5921699D02*
X-77313Y5933695D01*
X-101305D01*
X-113301Y5921699D01*
Y5909703D01*
X-101305Y5897706D01*
X-77313D01*
X-65317Y5885710D01*
Y5873714D01*
X-77313Y5861718D01*
X-101305D01*
X-113301Y5873714D01*
X-41324Y5909703D02*
Y5873714D01*
X-29328Y5861718D01*
X6660D01*
Y5849722D01*
X-5336Y5837726D01*
X-17332D01*
X6660Y5861718D02*
Y5909703D01*
X30652Y5861718D02*
Y5909703D01*
X42648D01*
X54645Y5897706D01*
Y5861718D01*
Y5897706D01*
X66641Y5909703D01*
X78637Y5897706D01*
Y5861718D01*
X102629Y5933695D02*
Y5861718D01*
X138618D01*
X150614Y5873714D01*
Y5885710D01*
Y5897706D01*
X138618Y5909703D01*
X102629D01*
X186602Y5861718D02*
X210594D01*
X222590Y5873714D01*
Y5897706D01*
X210594Y5909703D01*
X186602D01*
X174606Y5897706D01*
Y5873714D01*
X186602Y5861718D01*
X246583D02*
X270575D01*
X258579D01*
Y5933695D01*
X246583D01*
%TF.MD5,cc50f409d127307b3a6a1df222090abc*%
M02*
