G04*
G04 #@! TF.GenerationSoftware,Altium Limited,Altium Designer,20.0.10 (225)*
G04*
G04 Layer_Color=32768*
%FSLAX25Y25*%
%MOIN*%
G70*
G01*
G75*
%ADD34C,0.00010*%
D34*
X264100Y188367D02*
Y188300D01*
X264033Y188367D01*
X264017D01*
X264000Y188350D01*
Y188317D01*
X264017Y188300D01*
X264100Y188400D02*
X264083D01*
Y188417D01*
X264100D01*
Y188400D01*
X264017Y188650D02*
X264000Y188633D01*
Y188600D01*
X264017Y188583D01*
X264033D01*
X264050Y188600D01*
Y188633D01*
X264067Y188650D01*
X264083D01*
X264100Y188633D01*
Y188600D01*
X264083Y188583D01*
X264017Y188750D02*
X264000Y188733D01*
Y188700D01*
X264017Y188683D01*
X264033D01*
X264050Y188700D01*
Y188733D01*
X264067Y188750D01*
X264083D01*
X264100Y188733D01*
Y188700D01*
X264083Y188683D01*
X264100Y188883D02*
Y188917D01*
Y188900D01*
X264000D01*
X264017Y188883D01*
Y188967D02*
X264000Y188983D01*
Y189016D01*
X264017Y189033D01*
X264083D01*
X264100Y189016D01*
Y188983D01*
X264083Y188967D01*
X264017D01*
X264100Y189133D02*
Y189066D01*
X264033Y189133D01*
X264017D01*
X264000Y189116D01*
Y189083D01*
X264017Y189066D01*
X264000Y189233D02*
Y189166D01*
X264050D01*
X264033Y189200D01*
Y189216D01*
X264050Y189233D01*
X264083D01*
X264100Y189216D01*
Y189183D01*
X264083Y189166D01*
X264100Y189266D02*
Y189300D01*
Y189283D01*
X264000D01*
X264017Y189266D01*
X264100Y189416D02*
Y189350D01*
X264033Y189416D01*
X264017D01*
X264000Y189400D01*
Y189366D01*
X264017Y189350D01*
X264117Y189466D02*
X264100Y189483D01*
X264083D01*
Y189466D01*
X264100D01*
Y189483D01*
X264117Y189466D01*
X264133Y189450D01*
X264100Y189650D02*
X264033D01*
X264000Y189683D01*
X264033Y189716D01*
X264100D01*
X264050D01*
Y189650D01*
X264000Y189750D02*
X264100D01*
Y189799D01*
X264083Y189816D01*
X264017D01*
X264000Y189799D01*
Y189750D01*
Y189849D02*
X264100D01*
Y189900D01*
X264083Y189916D01*
X264017D01*
X264000Y189900D01*
Y189849D01*
Y190016D02*
Y189950D01*
X264100D01*
Y190016D01*
X264050Y189950D02*
Y189983D01*
X264000Y190050D02*
X264100D01*
Y190100D01*
X264083Y190116D01*
X264017D01*
X264000Y190100D01*
Y190050D01*
X264017Y190316D02*
X264000Y190299D01*
Y190266D01*
X264017Y190249D01*
X264033D01*
X264050Y190266D01*
Y190299D01*
X264067Y190316D01*
X264083D01*
X264100Y190299D01*
Y190266D01*
X264083Y190249D01*
X264000Y190349D02*
Y190383D01*
Y190366D01*
X264100D01*
Y190349D01*
Y190383D01*
X264000Y190433D02*
X264100D01*
Y190499D01*
X264000Y190533D02*
X264100D01*
X264067D01*
X264000Y190599D01*
X264050Y190549D01*
X264100Y190599D01*
X264017Y190699D02*
X264000Y190683D01*
Y190649D01*
X264017Y190633D01*
X264033D01*
X264050Y190649D01*
Y190683D01*
X264067Y190699D01*
X264083D01*
X264100Y190683D01*
Y190649D01*
X264083Y190633D01*
X264017Y190799D02*
X264000Y190783D01*
Y190749D01*
X264017Y190733D01*
X264083D01*
X264100Y190749D01*
Y190783D01*
X264083Y190799D01*
X264100Y190833D02*
X264000D01*
Y190883D01*
X264017Y190899D01*
X264050D01*
X264067Y190883D01*
Y190833D01*
Y190866D02*
X264100Y190899D01*
X264000Y190999D02*
Y190933D01*
X264100D01*
Y190999D01*
X264050Y190933D02*
Y190966D01*
X264000Y191099D02*
Y191033D01*
X264100D01*
Y191099D01*
X264050Y191033D02*
Y191066D01*
X264100Y191132D02*
X264000D01*
X264100Y191199D01*
X264000D01*
X264100Y191233D02*
X264083D01*
Y191249D01*
X264100D01*
Y191233D01*
X263600Y188300D02*
X263700D01*
Y188367D01*
X263600Y188450D02*
Y188417D01*
X263617Y188400D01*
X263683D01*
X263700Y188417D01*
Y188450D01*
X263683Y188467D01*
X263617D01*
X263600Y188450D01*
X263617Y188567D02*
X263600Y188550D01*
Y188517D01*
X263617Y188500D01*
X263683D01*
X263700Y188517D01*
Y188550D01*
X263683Y188567D01*
X263700Y188600D02*
X263633D01*
X263600Y188633D01*
X263633Y188667D01*
X263700D01*
X263650D01*
Y188600D01*
X263600Y188700D02*
Y188767D01*
Y188733D01*
X263700D01*
X263600Y188800D02*
Y188833D01*
Y188816D01*
X263700D01*
Y188800D01*
Y188833D01*
X263600Y188933D02*
Y188900D01*
X263617Y188883D01*
X263683D01*
X263700Y188900D01*
Y188933D01*
X263683Y188950D01*
X263617D01*
X263600Y188933D01*
X263700Y188983D02*
X263600D01*
X263700Y189050D01*
X263600D01*
X263633Y189083D02*
Y189100D01*
X263650D01*
Y189083D01*
X263633D01*
X263683D02*
Y189100D01*
X263700D01*
Y189083D01*
X263683D01*
X263617Y189333D02*
X263600Y189316D01*
Y189283D01*
X263617Y189266D01*
X263633D01*
X263650Y189283D01*
Y189316D01*
X263667Y189333D01*
X263683D01*
X263700Y189316D01*
Y189283D01*
X263683Y189266D01*
X263600Y189366D02*
X263683D01*
X263700Y189383D01*
Y189416D01*
X263683Y189433D01*
X263600D01*
X263700Y189466D02*
X263600D01*
Y189516D01*
X263617Y189533D01*
X263650D01*
X263667Y189516D01*
Y189466D01*
Y189500D02*
X263700Y189533D01*
X263600Y189633D02*
Y189566D01*
X263650D01*
Y189600D01*
Y189566D01*
X263700D01*
Y189666D02*
X263633D01*
X263600Y189700D01*
X263633Y189733D01*
X263700D01*
X263650D01*
Y189666D01*
X263617Y189833D02*
X263600Y189816D01*
Y189783D01*
X263617Y189766D01*
X263683D01*
X263700Y189783D01*
Y189816D01*
X263683Y189833D01*
X263600Y189933D02*
Y189866D01*
X263700D01*
Y189933D01*
X263650Y189866D02*
Y189900D01*
X263700Y189966D02*
X263600D01*
X263633Y189999D01*
X263600Y190033D01*
X263700D01*
X263600Y190116D02*
Y190083D01*
X263617Y190066D01*
X263683D01*
X263700Y190083D01*
Y190116D01*
X263683Y190133D01*
X263617D01*
X263600Y190116D01*
Y190166D02*
X263683D01*
X263700Y190183D01*
Y190216D01*
X263683Y190233D01*
X263600D01*
X263700Y190266D02*
X263600D01*
X263700Y190333D01*
X263600D01*
Y190366D02*
Y190433D01*
Y190399D01*
X263700D01*
Y190533D02*
Y190466D01*
X263633Y190533D01*
X263617D01*
X263600Y190516D01*
Y190483D01*
X263617Y190466D01*
X263600Y190566D02*
X263700D01*
Y190633D01*
X263600Y190733D02*
Y190666D01*
X263700D01*
Y190733D01*
X263650Y190666D02*
Y190699D01*
X263700Y190766D02*
X263633D01*
X263600Y190799D01*
X263633Y190833D01*
X263700D01*
X263650D01*
Y190766D01*
X263600Y190866D02*
X263700D01*
Y190916D01*
X263683Y190933D01*
X263617D01*
X263600Y190916D01*
Y190866D01*
X263700Y190966D02*
X263683D01*
Y190982D01*
X263700D01*
Y190966D01*
Y191049D02*
X263600D01*
Y191099D01*
X263617Y191116D01*
X263650D01*
X263667Y191099D01*
Y191049D01*
X263617Y191216D02*
X263600Y191199D01*
Y191166D01*
X263617Y191149D01*
X263683D01*
X263700Y191166D01*
Y191199D01*
X263683Y191216D01*
X263600Y191249D02*
X263700D01*
Y191299D01*
X263683Y191316D01*
X263667D01*
X263650Y191299D01*
Y191249D01*
Y191299D01*
X263633Y191316D01*
X263617D01*
X263600Y191299D01*
Y191249D01*
Y191349D02*
X263700D01*
Y191416D01*
X263600Y191449D02*
Y191482D01*
Y191466D01*
X263700D01*
Y191449D01*
Y191482D01*
X263600Y191532D02*
X263700D01*
Y191582D01*
X263683Y191599D01*
X263667D01*
X263650Y191582D01*
Y191532D01*
Y191582D01*
X263633Y191599D01*
X263617D01*
X263600Y191582D01*
Y191532D01*
X263800Y188300D02*
X263900D01*
X263850D01*
Y188367D01*
X263800D01*
X263900D01*
X263800Y188400D02*
Y188433D01*
Y188417D01*
X263900D01*
Y188400D01*
Y188433D01*
X263817Y188550D02*
X263800Y188533D01*
Y188500D01*
X263817Y188483D01*
X263833D01*
X263850Y188500D01*
Y188533D01*
X263867Y188550D01*
X263883D01*
X263900Y188533D01*
Y188500D01*
X263883Y188483D01*
X263800Y188583D02*
Y188650D01*
Y188617D01*
X263900D01*
X263800Y188733D02*
Y188700D01*
X263817Y188683D01*
X263883D01*
X263900Y188700D01*
Y188733D01*
X263883Y188750D01*
X263817D01*
X263800Y188733D01*
X263900Y188783D02*
X263800D01*
Y188833D01*
X263817Y188850D01*
X263850D01*
X263867Y188833D01*
Y188783D01*
Y188816D02*
X263900Y188850D01*
X263800Y188883D02*
X263817D01*
X263850Y188917D01*
X263817Y188950D01*
X263800D01*
X263850Y188917D02*
X263900D01*
X263833Y188983D02*
Y189000D01*
X263850D01*
Y188983D01*
X263833D01*
X263883D02*
Y189000D01*
X263900D01*
Y188983D01*
X263883D01*
X263900Y189166D02*
X263800D01*
X263833Y189200D01*
X263800Y189233D01*
X263900D01*
X263800Y189266D02*
Y189333D01*
Y189300D01*
X263900D01*
X263817Y189466D02*
X263800Y189483D01*
Y189516D01*
X263817Y189533D01*
X263883D01*
X263900Y189516D01*
Y189483D01*
X263883Y189466D01*
X263817D01*
X263900Y189633D02*
Y189566D01*
X263833Y189633D01*
X263817D01*
X263800Y189616D01*
Y189583D01*
X263817Y189566D01*
X263900Y189666D02*
Y189700D01*
Y189683D01*
X263800D01*
X263817Y189666D01*
X263800Y189750D02*
Y189816D01*
X263817D01*
X263883Y189750D01*
X263900D01*
Y189849D02*
Y189883D01*
Y189866D01*
X263800D01*
X263817Y189849D01*
X263900Y189933D02*
Y189966D01*
Y189950D01*
X263800D01*
X263817Y189933D01*
X263917Y190033D02*
X263900Y190050D01*
X263883D01*
Y190033D01*
X263900D01*
Y190050D01*
X263917Y190033D01*
X263933Y190016D01*
X263800Y190266D02*
Y190233D01*
X263817Y190216D01*
X263883D01*
X263900Y190233D01*
Y190266D01*
X263883Y190283D01*
X263817D01*
X263800Y190266D01*
Y190316D02*
X263900D01*
Y190383D01*
X263800Y190416D02*
X263900D01*
Y190466D01*
X263883Y190483D01*
X263817D01*
X263800Y190466D01*
Y190416D01*
Y190583D02*
Y190516D01*
X263900D01*
Y190583D01*
X263850Y190516D02*
Y190549D01*
X263900Y190616D02*
X263800D01*
Y190666D01*
X263817Y190683D01*
X263850D01*
X263867Y190666D01*
Y190616D01*
Y190649D02*
X263900Y190683D01*
X263800Y190883D02*
Y190816D01*
X263850D01*
Y190849D01*
Y190816D01*
X263900D01*
X263800Y190966D02*
Y190933D01*
X263817Y190916D01*
X263883D01*
X263900Y190933D01*
Y190966D01*
X263883Y190982D01*
X263817D01*
X263800Y190966D01*
Y191066D02*
Y191033D01*
X263817Y191016D01*
X263883D01*
X263900Y191033D01*
Y191066D01*
X263883Y191083D01*
X263817D01*
X263800Y191066D01*
Y191116D02*
Y191182D01*
Y191149D01*
X263900D01*
Y191216D02*
X263800D01*
Y191266D01*
X263817Y191282D01*
X263850D01*
X263867Y191266D01*
Y191216D01*
X263900Y191316D02*
X263800D01*
Y191366D01*
X263817Y191382D01*
X263850D01*
X263867Y191366D01*
Y191316D01*
Y191349D02*
X263900Y191382D01*
X263800Y191416D02*
Y191449D01*
Y191432D01*
X263900D01*
Y191416D01*
Y191449D01*
Y191499D02*
X263800D01*
X263900Y191566D01*
X263800D01*
Y191599D02*
Y191666D01*
Y191632D01*
X263900D01*
Y191699D02*
X263883D01*
Y191716D01*
X263900D01*
Y191699D01*
X263817Y191949D02*
X263800Y191932D01*
Y191899D01*
X263817Y191882D01*
X263833D01*
X263850Y191899D01*
Y191932D01*
X263867Y191949D01*
X263883D01*
X263900Y191932D01*
Y191899D01*
X263883Y191882D01*
X263800Y191982D02*
Y192049D01*
Y192016D01*
X263900D01*
Y192082D02*
X263833D01*
X263800Y192115D01*
X263833Y192149D01*
X263900D01*
X263850D01*
Y192082D01*
X263900Y192182D02*
X263800D01*
X263900Y192249D01*
X263800D01*
Y192282D02*
X263900D01*
Y192332D01*
X263883Y192349D01*
X263817D01*
X263800Y192332D01*
Y192282D01*
X263900Y192382D02*
X263833D01*
X263800Y192415D01*
X263833Y192449D01*
X263900D01*
X263850D01*
Y192382D01*
X263900Y192482D02*
X263800D01*
Y192532D01*
X263817Y192549D01*
X263850D01*
X263867Y192532D01*
Y192482D01*
Y192515D02*
X263900Y192549D01*
X263800Y192582D02*
X263900D01*
Y192632D01*
X263883Y192649D01*
X263817D01*
X263800Y192632D01*
Y192582D01*
X263900Y192782D02*
X263800D01*
X263833Y192815D01*
X263800Y192849D01*
X263900D01*
Y192882D02*
X263833D01*
X263800Y192915D01*
X263833Y192949D01*
X263900D01*
X263850D01*
Y192882D01*
X263800Y192982D02*
X263900Y193049D01*
X263800D02*
X263900Y192982D01*
X263800Y193182D02*
X263900D01*
X263850D01*
Y193248D01*
X263800D01*
X263900D01*
X263800Y193349D02*
Y193282D01*
X263900D01*
Y193349D01*
X263850Y193282D02*
Y193315D01*
X263800Y193382D02*
Y193415D01*
Y193398D01*
X263900D01*
Y193382D01*
Y193415D01*
X263817Y193532D02*
X263800Y193515D01*
Y193482D01*
X263817Y193465D01*
X263883D01*
X263900Y193482D01*
Y193515D01*
X263883Y193532D01*
X263850D01*
Y193499D01*
X263800Y193565D02*
X263900D01*
X263850D01*
Y193632D01*
X263800D01*
X263900D01*
X263800Y193665D02*
Y193732D01*
Y193698D01*
X263900D01*
Y193865D02*
Y193898D01*
Y193882D01*
X263800D01*
X263817Y193865D01*
X263900Y193948D02*
X263883D01*
Y193965D01*
X263900D01*
Y193948D01*
Y194032D02*
Y194065D01*
Y194048D01*
X263800D01*
X263817Y194032D01*
X263900Y194115D02*
X263800D01*
X263833Y194148D01*
X263800Y194182D01*
X263900D01*
Y194215D02*
X263800D01*
X263833Y194248D01*
X263800Y194282D01*
X263900D01*
M02*
