G04*
G04 #@! TF.GenerationSoftware,Altium Limited,Altium Designer,20.0.10 (225)*
G04*
G04 Layer_Color=65535*
%FSLAX25Y25*%
%MOIN*%
G70*
G01*
G75*
%ADD10C,0.00787*%
%ADD11C,0.01000*%
%ADD12C,0.00500*%
%ADD13C,0.00700*%
G36*
X274411Y148397D02*
X274484Y148366D01*
X274567Y148324D01*
X274651Y148251D01*
X274724Y148158D01*
X282469Y134739D01*
X282479Y134729D01*
X282489Y134697D01*
X282510Y134645D01*
X282521Y134573D01*
X282531Y134500D01*
Y134416D01*
X282510Y134323D01*
X282469Y134239D01*
X282458Y134229D01*
X282437Y134198D01*
X282406Y134167D01*
X282365Y134125D01*
X282302Y134073D01*
X282229Y134042D01*
X282156Y134010D01*
X282063Y134000D01*
X266500D01*
X266448Y134010D01*
X266385Y134031D01*
X266312Y134063D01*
X266239Y134104D01*
X266177Y134156D01*
X266114Y134239D01*
Y134250D01*
X266094Y134281D01*
X266083Y134323D01*
X266073Y134385D01*
X266062Y134458D01*
Y134552D01*
X266083Y134645D01*
X266114Y134739D01*
X273880Y148158D01*
X273891Y148168D01*
X273901Y148189D01*
X273922Y148220D01*
X273964Y148251D01*
X274016Y148293D01*
X274078Y148335D01*
X274151Y148376D01*
X274234Y148407D01*
X274338D01*
X274411Y148397D01*
D02*
G37*
%LPC*%
G36*
X274307Y146856D02*
X267707Y135270D01*
X280886D01*
X274307Y146856D01*
D02*
G37*
%LPD*%
G36*
X273724Y140100D02*
X275733Y140912D01*
X274724Y137154D01*
X275098D01*
X274234Y135843D01*
X273756Y137206D01*
X274130D01*
X274828Y139642D01*
X272860Y138841D01*
X274130Y143348D01*
X275130D01*
X273724Y140100D01*
D02*
G37*
D10*
X282000Y171500D02*
G03*
X282000Y171500I-394J0D01*
G01*
X255426Y198000D02*
X256250D01*
Y173500D02*
Y198000D01*
X229750Y173500D02*
X256250D01*
X229750Y198000D02*
X230574D01*
X229750Y173500D02*
Y198000D01*
X244342Y144819D02*
Y147181D01*
X249658Y144819D02*
Y147181D01*
D11*
X263000Y182500D02*
X285000D01*
Y161000D02*
Y182500D01*
X263000Y161000D02*
X285000D01*
X263000D02*
Y182500D01*
D12*
X263700Y193800D02*
Y196200D01*
X271300Y193800D02*
Y196200D01*
X269551Y167347D02*
X278449D01*
X269551Y175654D02*
X278449D01*
D13*
X269335Y153001D02*
Y156999D01*
X270668Y155666D01*
X272001Y156999D01*
Y153001D01*
X273334D02*
Y156999D01*
X275333D01*
X275999Y156333D01*
Y155000D01*
X275333Y154333D01*
X273334D01*
X277332Y153001D02*
X278665D01*
X277999D01*
Y156999D01*
X277332Y156333D01*
X274834Y189499D02*
Y185501D01*
X276834D01*
X277500Y186167D01*
Y188833D01*
X276834Y189499D01*
X274834D01*
X278833Y185501D02*
X280166D01*
X279499D01*
Y189499D01*
X278833Y188833D01*
X222334Y203999D02*
Y200667D01*
X223001Y200001D01*
X224334D01*
X225000Y200667D01*
Y203999D01*
X226333Y200001D02*
X227666D01*
X226999D01*
Y203999D01*
X226333Y203333D01*
X265834Y204001D02*
Y207999D01*
X267834D01*
X268500Y207333D01*
Y206000D01*
X267834Y205334D01*
X265834D01*
X267167D02*
X268500Y204001D01*
X269833D02*
X271166D01*
X270499D01*
Y207999D01*
X269833Y207333D01*
X236167Y146000D02*
X235501Y145334D01*
Y144001D01*
X236167Y143334D01*
X238833D01*
X239499Y144001D01*
Y145334D01*
X238833Y146000D01*
X239499Y147333D02*
Y148666D01*
Y147999D01*
X235501D01*
X236167Y147333D01*
M02*
