G04*
G04 #@! TF.GenerationSoftware,Altium Limited,Altium Designer,20.0.11 (256)*
G04*
G04 Layer_Color=16711935*
%FSLAX25Y25*%
%MOIN*%
G70*
G01*
G75*
%ADD61C,0.04500*%
%ADD101C,0.06500*%
%ADD102R,0.06500X0.06500*%
%ADD103C,0.06602*%
%ADD104R,0.06602X0.06602*%
%ADD105R,0.05728X0.05728*%
%ADD106C,0.05728*%
%ADD107C,0.30500*%
%ADD108C,0.08000*%
%ADD109R,0.08000X0.08000*%
%ADD110C,0.07390*%
%ADD111C,0.05224*%
%ADD112R,0.05224X0.05224*%
%ADD113C,0.06760*%
%ADD114R,0.06760X0.06760*%
%ADD153R,0.12936X0.04900*%
D61*
X198000Y315000D02*
D03*
X184000D02*
D03*
X191000Y308000D02*
D03*
X132000Y315000D02*
D03*
X118000D02*
D03*
X125000Y308000D02*
D03*
X165000Y315000D02*
D03*
X151000D02*
D03*
X158000Y308000D02*
D03*
D101*
X90000Y264500D02*
D03*
Y274500D02*
D03*
Y254500D02*
D03*
X30000D02*
D03*
X90000Y184500D02*
D03*
Y174500D02*
D03*
X30000Y274500D02*
D03*
Y184500D02*
D03*
Y264500D02*
D03*
Y174500D02*
D03*
Y164500D02*
D03*
D102*
X90000D02*
D03*
D103*
X253000Y83000D02*
D03*
Y73000D02*
D03*
Y43000D02*
D03*
X273000D02*
D03*
Y73000D02*
D03*
X219000Y102000D02*
D03*
X155925Y74800D02*
D03*
X116480Y101000D02*
D03*
X151500Y258500D02*
D03*
X271200Y227000D02*
D03*
X43160Y34320D02*
D03*
X140847Y101000D02*
D03*
X295500Y248500D02*
D03*
X196500Y230000D02*
D03*
X195000Y264500D02*
D03*
X247957Y230500D02*
D03*
X221000Y199000D02*
D03*
X58000Y116000D02*
D03*
X281653Y217000D02*
D03*
X271000Y102000D02*
D03*
X148000Y50217D02*
D03*
X188850Y28130D02*
D03*
D104*
X273000Y83000D02*
D03*
D105*
X117500Y208500D02*
D03*
D106*
Y218500D02*
D03*
Y258500D02*
D03*
Y268500D02*
D03*
Y248500D02*
D03*
D107*
X19500Y20500D02*
D03*
Y328000D02*
D03*
X301000D02*
D03*
Y20500D02*
D03*
D108*
X251000Y21244D02*
D03*
D109*
X267299D02*
D03*
D110*
X246500Y268500D02*
D03*
X236500D02*
D03*
X256500D02*
D03*
D111*
X62921Y100000D02*
D03*
X55047D02*
D03*
X78669D02*
D03*
X70795D02*
D03*
X31425D02*
D03*
X47173D02*
D03*
X39299D02*
D03*
D112*
X23551D02*
D03*
D113*
X96231Y314331D02*
D03*
X86388D02*
D03*
X76545D02*
D03*
D114*
X66703D02*
D03*
D153*
X257468Y21194D02*
D03*
M02*
