G04*
G04 #@! TF.GenerationSoftware,Altium Limited,Altium Designer,20.0.13 (296)*
G04*
G04 Layer_Color=16711935*
%FSLAX25Y25*%
%MOIN*%
G70*
G01*
G75*
%ADD58R,0.04800X0.04400*%
%ADD59R,0.04400X0.04800*%
%ADD60R,0.05618X0.06406*%
%ADD61R,0.06406X0.05618*%
%ADD63R,0.04831X0.04437*%
%ADD64R,0.04437X0.04831*%
%ADD78O,0.07500X0.10500*%
%ADD79C,0.06366*%
%ADD80R,0.07193X0.07193*%
%ADD81C,0.07193*%
%ADD82C,0.05500*%
%ADD83C,0.27272*%
%ADD84C,0.06602*%
%ADD85C,0.13800*%
%ADD86C,0.10000*%
%ADD87R,0.10000X0.10000*%
%ADD88R,0.12500X0.12500*%
%ADD89C,0.12500*%
%ADD90C,0.06800*%
%ADD91C,0.08374*%
%ADD92R,0.08374X0.08374*%
%ADD93R,0.06602X0.06602*%
%ADD94C,0.30000*%
%ADD95C,0.05815*%
%ADD96R,0.05815X0.05815*%
%ADD97C,0.05224*%
%ADD98C,0.06437*%
%ADD99R,0.06437X0.06437*%
%ADD100C,0.06406*%
%ADD101R,0.06406X0.06406*%
%ADD102R,0.05618X0.05618*%
%ADD103C,0.05618*%
%ADD104C,0.05000*%
%ADD105C,0.30500*%
%ADD106R,0.05224X0.05224*%
%ADD107R,0.06760X0.06760*%
%ADD108C,0.06760*%
%ADD109C,0.06012*%
%ADD110O,0.08500X0.10000*%
%ADD111C,0.06500*%
%ADD112R,0.06437X0.06437*%
%ADD113C,0.09949*%
%ADD114R,0.06406X0.06406*%
G04:AMPARAMS|DCode=174|XSize=70.4mil|YSize=28.5mil|CornerRadius=8.38mil|HoleSize=0mil|Usage=FLASHONLY|Rotation=0.000|XOffset=0mil|YOffset=0mil|HoleType=Round|Shape=RoundedRectangle|*
%AMROUNDEDRECTD174*
21,1,0.07040,0.01175,0,0,0.0*
21,1,0.05365,0.02850,0,0,0.0*
1,1,0.01675,0.02683,-0.00588*
1,1,0.01675,-0.02683,-0.00588*
1,1,0.01675,-0.02683,0.00588*
1,1,0.01675,0.02683,0.00588*
%
%ADD174ROUNDEDRECTD174*%
G04:AMPARAMS|DCode=175|XSize=28.62mil|YSize=79.8mil|CornerRadius=8.41mil|HoleSize=0mil|Usage=FLASHONLY|Rotation=180.000|XOffset=0mil|YOffset=0mil|HoleType=Round|Shape=RoundedRectangle|*
%AMROUNDEDRECTD175*
21,1,0.02862,0.06299,0,0,180.0*
21,1,0.01181,0.07980,0,0,180.0*
1,1,0.01681,-0.00591,0.03150*
1,1,0.01681,0.00591,0.03150*
1,1,0.01681,0.00591,-0.03150*
1,1,0.01681,-0.00591,-0.03150*
%
%ADD175ROUNDEDRECTD175*%
G04:AMPARAMS|DCode=176|XSize=20.75mil|YSize=83.74mil|CornerRadius=6.44mil|HoleSize=0mil|Usage=FLASHONLY|Rotation=180.000|XOffset=0mil|YOffset=0mil|HoleType=Round|Shape=RoundedRectangle|*
%AMROUNDEDRECTD176*
21,1,0.02075,0.07087,0,0,180.0*
21,1,0.00787,0.08374,0,0,180.0*
1,1,0.01287,-0.00394,0.03543*
1,1,0.01287,0.00394,0.03543*
1,1,0.01287,0.00394,-0.03543*
1,1,0.01287,-0.00394,-0.03543*
%
%ADD176ROUNDEDRECTD176*%
G04:AMPARAMS|DCode=177|XSize=28.62mil|YSize=52.24mil|CornerRadius=8.41mil|HoleSize=0mil|Usage=FLASHONLY|Rotation=90.000|XOffset=0mil|YOffset=0mil|HoleType=Round|Shape=RoundedRectangle|*
%AMROUNDEDRECTD177*
21,1,0.02862,0.03543,0,0,90.0*
21,1,0.01181,0.05224,0,0,90.0*
1,1,0.01681,0.01772,0.00591*
1,1,0.01681,0.01772,-0.00591*
1,1,0.01681,-0.01772,-0.00591*
1,1,0.01681,-0.01772,0.00591*
%
%ADD177ROUNDEDRECTD177*%
%ADD178R,0.06799X0.07587*%
%ADD179R,0.13886X0.07980*%
%ADD180R,0.05618X0.04831*%
%ADD181R,0.05618X0.04043*%
G04:AMPARAMS|DCode=182|XSize=28.62mil|YSize=62.09mil|CornerRadius=4.51mil|HoleSize=0mil|Usage=FLASHONLY|Rotation=90.000|XOffset=0mil|YOffset=0mil|HoleType=Round|Shape=RoundedRectangle|*
%AMROUNDEDRECTD182*
21,1,0.02862,0.05307,0,0,90.0*
21,1,0.01961,0.06209,0,0,90.0*
1,1,0.00902,0.02653,0.00980*
1,1,0.00902,0.02653,-0.00980*
1,1,0.00902,-0.02653,-0.00980*
1,1,0.00902,-0.02653,0.00980*
%
%ADD182ROUNDEDRECTD182*%
D58*
X376003Y85300D02*
D03*
X382696D02*
D03*
X126906Y13240D02*
D03*
X120213D02*
D03*
X142091Y153500D02*
D03*
X148784D02*
D03*
X142091Y160500D02*
D03*
X148784D02*
D03*
X361554Y85300D02*
D03*
X368247D02*
D03*
D59*
X206500Y31409D02*
D03*
Y24716D02*
D03*
X200000Y31346D02*
D03*
Y24654D02*
D03*
X189268Y42741D02*
D03*
Y49434D02*
D03*
X213874Y24654D02*
D03*
Y31346D02*
D03*
X219563Y24654D02*
D03*
Y31346D02*
D03*
X390000Y85200D02*
D03*
Y78507D02*
D03*
X149500Y301153D02*
D03*
Y307846D02*
D03*
D60*
X353940Y65342D02*
D03*
X346460D02*
D03*
D61*
X334500Y52760D02*
D03*
Y60240D02*
D03*
D63*
X79847Y74000D02*
D03*
X73154D02*
D03*
X79847Y81000D02*
D03*
X73154D02*
D03*
X240608Y9000D02*
D03*
X247301D02*
D03*
X278654Y114000D02*
D03*
X285347D02*
D03*
X330346Y117000D02*
D03*
X323654D02*
D03*
D64*
X53100Y65053D02*
D03*
Y71746D02*
D03*
X186311Y120614D02*
D03*
Y127307D02*
D03*
X200000Y65346D02*
D03*
Y58653D02*
D03*
X157437Y147665D02*
D03*
Y140972D02*
D03*
X158437Y161053D02*
D03*
Y154360D02*
D03*
D78*
X10000Y305856D02*
D03*
Y344911D02*
D03*
X23386Y305856D02*
D03*
Y344911D02*
D03*
D79*
X362200Y75500D02*
D03*
X372200Y65500D02*
D03*
X362200Y55500D02*
D03*
D80*
X170500Y29500D02*
D03*
D81*
Y19500D02*
D03*
X160500Y29500D02*
D03*
Y19500D02*
D03*
X150500Y29500D02*
D03*
Y19500D02*
D03*
D82*
X354221Y245260D02*
D03*
D83*
X505000Y252000D02*
D03*
Y347500D02*
D03*
X266000Y330000D02*
D03*
Y269000D02*
D03*
D84*
X361300Y94500D02*
D03*
X399500Y83800D02*
D03*
X80803Y66142D02*
D03*
X70803D02*
D03*
D85*
X436500Y15500D02*
D03*
X540700Y12500D02*
D03*
D86*
X419000Y15500D02*
D03*
X558201Y12500D02*
D03*
D87*
X402701Y15500D02*
D03*
X574500Y12500D02*
D03*
D88*
X75300Y251641D02*
D03*
D89*
Y220460D02*
D03*
D90*
X15500Y206500D02*
D03*
Y265600D02*
D03*
D91*
X233563Y33500D02*
D03*
X253563D02*
D03*
X243563D02*
D03*
X506500Y110213D02*
D03*
Y61000D02*
D03*
X467130Y110213D02*
D03*
Y61000D02*
D03*
D92*
X263563Y33500D02*
D03*
D93*
X60803Y66142D02*
D03*
D94*
X354500Y153500D02*
D03*
X583500Y46000D02*
D03*
X594000Y408500D02*
D03*
D95*
X45874Y175248D02*
D03*
Y167374D02*
D03*
X38000Y175248D02*
D03*
Y183122D02*
D03*
Y167374D02*
D03*
X45874Y151626D02*
D03*
Y159500D02*
D03*
X38000Y151626D02*
D03*
Y159500D02*
D03*
D96*
X45874Y183122D02*
D03*
D97*
X149500Y317000D02*
D03*
Y327000D02*
D03*
X230000Y180000D02*
D03*
X548000Y111000D02*
D03*
Y101000D02*
D03*
D98*
X337000Y123315D02*
D03*
X287000D02*
D03*
X317000D02*
D03*
X258567Y187921D02*
D03*
D99*
X277000Y123315D02*
D03*
D100*
X200000Y316028D02*
D03*
X143000Y268528D02*
D03*
X120000Y318500D02*
D03*
D101*
X200000Y286500D02*
D03*
X143000Y239000D02*
D03*
D102*
X53500Y344815D02*
D03*
D103*
Y364500D02*
D03*
D104*
X514500Y220000D02*
D03*
X594539D02*
D03*
D105*
X24500Y22000D02*
D03*
Y408500D02*
D03*
D106*
X230000Y187874D02*
D03*
D107*
X388700Y47058D02*
D03*
D108*
Y66742D02*
D03*
Y56900D02*
D03*
D109*
X459445Y29000D02*
D03*
X518500D02*
D03*
D110*
X598000Y167500D02*
D03*
X489732D02*
D03*
D111*
X325685Y183000D02*
D03*
X286315D02*
D03*
X419579Y36315D02*
D03*
Y75685D02*
D03*
X422000Y415750D02*
D03*
X382630D02*
D03*
X326685Y416500D02*
D03*
X287315D02*
D03*
X547500Y73185D02*
D03*
Y33815D02*
D03*
X422685Y184000D02*
D03*
X383315D02*
D03*
D112*
X258567Y178079D02*
D03*
D113*
X192170Y420800D02*
D03*
X152800D02*
D03*
D114*
X90472Y318500D02*
D03*
D174*
X322819Y43000D02*
D03*
Y48000D02*
D03*
Y53000D02*
D03*
Y58000D02*
D03*
X285181D02*
D03*
Y53000D02*
D03*
Y48000D02*
D03*
Y43000D02*
D03*
D175*
X139500Y127504D02*
D03*
X144500D02*
D03*
X149500D02*
D03*
X154500D02*
D03*
X159500D02*
D03*
X164500D02*
D03*
X169500D02*
D03*
X174500D02*
D03*
X179500D02*
D03*
X139500Y90496D02*
D03*
X144500D02*
D03*
X149500D02*
D03*
X154500D02*
D03*
X159500D02*
D03*
X164500D02*
D03*
X169500D02*
D03*
X174500D02*
D03*
X179500D02*
D03*
D176*
X176943Y137000D02*
D03*
X172219D02*
D03*
X167494D02*
D03*
D177*
X128087Y27980D02*
D03*
Y24240D02*
D03*
Y20500D02*
D03*
X119032D02*
D03*
Y27980D02*
D03*
D178*
X354512Y53513D02*
D03*
X343488D02*
D03*
D179*
X17000Y183177D02*
D03*
Y167823D02*
D03*
D180*
X65831Y165453D02*
D03*
X18169Y149047D02*
D03*
D181*
X65831Y158760D02*
D03*
X57169Y166240D02*
D03*
Y158760D02*
D03*
X26831Y148260D02*
D03*
Y155740D02*
D03*
X18169D02*
D03*
D182*
X189165Y160000D02*
D03*
Y155000D02*
D03*
Y150000D02*
D03*
Y145000D02*
D03*
X167709Y160000D02*
D03*
Y150000D02*
D03*
Y155000D02*
D03*
Y145000D02*
D03*
M02*
