M48
;Layer_Color=9474304
;FILE_FORMAT=2:5
INCH,TZ
;TYPE=PLATED
T1F00S00C0.01500
T2F00S00C0.02000
T3F00S00C0.02700
T4F00S00C0.02756
T5F00S00C0.03000
T6F00S00C0.03110
T7F00S00C0.03150
T8F00S00C0.03500
T9F00S00C0.03543
T10F00S00C0.03937
T11F00S00C0.04000
T13F00S00C0.04173
T14F00S00C0.04331
T15F00S00C0.04350
T16F00S00C0.05118
T17F00S00C0.05500
T18F00S00C0.06000
T19F00S00C0.12598
T20F00S00C0.14200
;TYPE=NON_PLATED
T21F00S00C0.06300
T22F00S00C0.12500
T23F00S00C0.14200
%
T01
X126906Y7831
X181652Y6842
X233976Y9000
X245000Y42000
X260000
X269000Y47500
Y52846
X267500Y57000
X275500Y58000
Y42000
X267500Y27000
X283000Y22000
X252500Y57000
X238000Y58550
X241930Y73307
X248000Y74500
X260000Y72000
X252500Y87000
X237500
X245000Y102000
X260000
X267500Y117000
X252500
X237500
X230000Y132000
X260000
X275000
X282500Y147000
X275000Y162000
X230000
Y102000
X330685Y111000
X349500Y80000
X354512Y45658
X328500Y43050
Y58000
X225341Y36276
X206500Y37000
X200000Y37000
X189268Y36000
X180000Y36103
X192500Y27000
X209250Y20000
X218500Y17500
X170000Y12000
X155000
X169500Y48376
X165550Y60654
X164500Y73024
X155000Y72000
X140000
X142850Y60553
X139500Y50976
X131827Y46000
X128000Y57276
X122000Y84000
X132500Y87000
X135681Y90000
X142000Y84711
X149500Y83105
X154500Y97154
X155000Y102000
X159500Y99753
X162500Y117000
X157219Y120361
X137477
X132500Y117000
X129000Y106000
X125000Y102000
X110000
X93100Y100700
X86000Y104000
X79847Y89780
X90700Y80500
X87500Y57000
Y27000
X102500
X113421Y23654
X95000Y12000
X80000
X102500Y117000
X92943Y132653
X97158Y147260
X102500Y147000
X87500
X102847Y163260
X125000Y162000
X131500Y155760
X137477Y139786
X129897Y132130
X119846Y137441
X147500Y147000
X198091Y150167
X198091Y162833
X193004Y136500
X192000Y127665
X192500Y117000
X177500
X179988Y120361
X188792Y104654
X194567Y88500
X197637Y85000
X194963Y68486
X197500Y65604
Y58807
X194976Y53100
X183500Y73024
X213874Y69874
X217024Y73575
X215000Y102000
X222500Y117000
X215000Y132000
X222500Y147000
X72500
X57169Y140326
X51808Y121808
X49808Y117808
X42500Y117000
X50000Y102000
X35000
X42500Y87000
X57500
X72500
Y57000
X57500
X42500
X41000Y64400
X45600Y64500
X27500Y57000
X12500
X20000Y42000
X5000
X42500Y27000
X57500
X72500
X50000Y12000
X5000Y102000
X7000Y140000
Y143949
X12500Y147000
X30584Y162465
X30500Y188000
Y190996
X29500Y216500
X34500Y226500
X29500Y236500
X19500
X9500
X14500Y246500
X24500
X4500
X50000Y247000
X55000Y257000
X60000Y267000
X70000
X65000Y277000
X55000
X60000Y287000
X70000
X65000Y297000
X55000
X46340Y297500
X37660
X50000Y287000
Y267000
X55000Y237000
X65000
X59500Y216500
X49500
X64500Y206500
X69500Y196500
X66809Y174163
X70000Y307000
X60000
X80000
X90000
X100000
X95000Y297000
X85000
X75000
X80000Y287000
X90000
X100000
X95000Y277000
X85000
X75000
X80000Y267000
X90000
X100000
X95000Y257000
X100000Y247000
X90000
X95000Y237000
X85000
X75000
X74500Y206500
X84500
X94500
X104500
X114500
X124500
X134500
X144500
X139500Y216500
X129500
X119500
X109500
X99500
X89500
Y196500
X99500
X109500
X119500
X129500
X139500
X144500Y186500
X134500
X124500
X114500
X104500
X94500
X79500Y196500
X205283Y171929
X205000Y247000
X215000
X225000
X220000Y257000
X210000
X200000
X195000Y267000
X205000
X215000
X225000
X220000Y277000
X210000
X200000
X195000Y247000
X235000
X245000
X255000
X265000
X275000
X280000Y257000
Y277000
X250000
X240000
X230000
X235000Y267000
X245000
X240000Y257000
X250000
X230000
X138600Y382000
Y390500
X67000Y391059
Y383000
T02
X259040Y262040
X266000Y259157
X272960Y262040
X275842Y269000
X272960Y275960
X266000Y278842
X259040Y275960
X256157Y269000
X259040Y323040
X266000Y320158
X272960Y323040
X498040Y258960
X495157Y252000
X498040Y245040
X505000Y242158
X511960Y245040
X514843Y252000
X511960Y258960
X505000Y261842
Y337657
X511960Y340540
X514843Y347500
X511960Y354460
X505000Y357343
X498040Y354460
X495157Y347500
X498040Y340540
X272960Y336960
X275842Y330000
X256157
X259040Y336960
X266000Y339843
T03
X354221Y245260
T04
X548000Y101000
Y111000
X149500Y317000
X230000Y187874
Y180000
X149500Y327000
T05
X514500Y220000
X594539
T06
X362200Y55500
Y75500
X372200Y65500
T07
X459445Y29000
X518500
X53500Y344815
Y364500
T08
X547500Y33815
Y73185
X419579Y75685
Y36315
X383315Y184000
X325685Y183000
X286315
X422685Y184000
X422000Y415750
X382630
X326685Y416500
X287315
T09
X38000Y151626
X45874
Y159500
X38000
Y167374
X45874
Y175248
Y183122
X38000
Y175248
T10
X467130Y61000
X506500
Y110213
X467130
X337000Y123315
X317000
X287000
X277000
X80803Y66142
X70803
X60803
X143000Y239000
Y268528
X120000Y318500
X90472
X200000Y316028
Y286500
X258567Y187921
Y178079
X489732Y167500
X598000
T11
X399500Y83800
X361300Y94500
T13
X388700Y47058
Y56900
Y66742
T14
X150500Y19500
X160500
X170500
Y29500
X160500
X150500
T15
X233563Y33500
X243563
X253563
X263563
T16
X152800Y420800
X192170
T17
X558201Y12500
X574500
X419000Y15500
X402701
T18
X75300Y220460
Y251641
T19
X266000Y269000
X505000Y252000
Y347500
X266000Y330000
T20
X24500Y22000
Y408500
T21
X15500Y206500
Y265600
T22
X436500Y15500
X540700Y12500
T23
X583500Y46000
X354500Y153500
X594000Y408500
M30
