G04*
G04 #@! TF.GenerationSoftware,Altium Limited,Altium Designer,20.0.13 (296)*
G04*
G04 Layer_Physical_Order=2*
G04 Layer_Color=16711680*
%FSLAX25Y25*%
%MOIN*%
G70*
G01*
G75*
%ADD10C,0.03000*%
%ADD11C,0.02000*%
%ADD15C,0.01000*%
%ADD30R,0.04300X0.03900*%
%ADD31R,0.03900X0.04300*%
%ADD32R,0.05118X0.05906*%
%ADD33R,0.05906X0.05118*%
%ADD35R,0.04331X0.03937*%
%ADD36R,0.03937X0.04331*%
%ADD89C,0.12500*%
%ADD94C,0.30000*%
%ADD104C,0.05000*%
%ADD116C,0.05000*%
%ADD117C,0.04000*%
%ADD124O,0.07000X0.10000*%
%ADD125C,0.05866*%
%ADD126R,0.06693X0.06693*%
%ADD127C,0.06693*%
%ADD128C,0.26772*%
%ADD129C,0.06102*%
%ADD130C,0.09500*%
%ADD131R,0.09500X0.09500*%
%ADD132R,0.12000X0.12000*%
%ADD133C,0.12000*%
%ADD134C,0.06300*%
%ADD135C,0.07874*%
%ADD136R,0.07874X0.07874*%
%ADD137R,0.06102X0.06102*%
%ADD138C,0.14000*%
%ADD139C,0.05315*%
%ADD140R,0.05315X0.05315*%
%ADD141C,0.04724*%
%ADD142C,0.05937*%
%ADD143R,0.05937X0.05937*%
%ADD144C,0.05906*%
%ADD145R,0.05906X0.05906*%
%ADD146R,0.05118X0.05118*%
%ADD147C,0.05118*%
%ADD148C,0.04500*%
%ADD149R,0.04724X0.04724*%
%ADD150R,0.06260X0.06260*%
%ADD151C,0.06260*%
%ADD152C,0.05512*%
%ADD153O,0.08000X0.09500*%
%ADD154C,0.06000*%
%ADD155R,0.05937X0.05937*%
%ADD156C,0.09449*%
%ADD157R,0.05906X0.05906*%
%ADD158C,0.03000*%
%ADD159C,0.04000*%
G04:AMPARAMS|DCode=160|XSize=65.4mil|YSize=23.5mil|CornerRadius=5.88mil|HoleSize=0mil|Usage=FLASHONLY|Rotation=0.000|XOffset=0mil|YOffset=0mil|HoleType=Round|Shape=RoundedRectangle|*
%AMROUNDEDRECTD160*
21,1,0.06540,0.01175,0,0,0.0*
21,1,0.05365,0.02350,0,0,0.0*
1,1,0.01175,0.02683,-0.00588*
1,1,0.01175,-0.02683,-0.00588*
1,1,0.01175,-0.02683,0.00588*
1,1,0.01175,0.02683,0.00588*
%
%ADD160ROUNDEDRECTD160*%
G04:AMPARAMS|DCode=161|XSize=23.62mil|YSize=74.8mil|CornerRadius=5.91mil|HoleSize=0mil|Usage=FLASHONLY|Rotation=180.000|XOffset=0mil|YOffset=0mil|HoleType=Round|Shape=RoundedRectangle|*
%AMROUNDEDRECTD161*
21,1,0.02362,0.06299,0,0,180.0*
21,1,0.01181,0.07480,0,0,180.0*
1,1,0.01181,-0.00591,0.03150*
1,1,0.01181,0.00591,0.03150*
1,1,0.01181,0.00591,-0.03150*
1,1,0.01181,-0.00591,-0.03150*
%
%ADD161ROUNDEDRECTD161*%
G04:AMPARAMS|DCode=162|XSize=15.75mil|YSize=78.74mil|CornerRadius=3.94mil|HoleSize=0mil|Usage=FLASHONLY|Rotation=180.000|XOffset=0mil|YOffset=0mil|HoleType=Round|Shape=RoundedRectangle|*
%AMROUNDEDRECTD162*
21,1,0.01575,0.07087,0,0,180.0*
21,1,0.00787,0.07874,0,0,180.0*
1,1,0.00787,-0.00394,0.03543*
1,1,0.00787,0.00394,0.03543*
1,1,0.00787,0.00394,-0.03543*
1,1,0.00787,-0.00394,-0.03543*
%
%ADD162ROUNDEDRECTD162*%
G04:AMPARAMS|DCode=163|XSize=23.62mil|YSize=47.24mil|CornerRadius=5.91mil|HoleSize=0mil|Usage=FLASHONLY|Rotation=90.000|XOffset=0mil|YOffset=0mil|HoleType=Round|Shape=RoundedRectangle|*
%AMROUNDEDRECTD163*
21,1,0.02362,0.03543,0,0,90.0*
21,1,0.01181,0.04724,0,0,90.0*
1,1,0.01181,0.01772,0.00591*
1,1,0.01181,0.01772,-0.00591*
1,1,0.01181,-0.01772,-0.00591*
1,1,0.01181,-0.01772,0.00591*
%
%ADD163ROUNDEDRECTD163*%
%ADD164R,0.06299X0.07087*%
%ADD165R,0.13386X0.07480*%
%ADD166R,0.05118X0.04331*%
%ADD167R,0.05118X0.03543*%
G04:AMPARAMS|DCode=168|XSize=23.62mil|YSize=57.09mil|CornerRadius=2.01mil|HoleSize=0mil|Usage=FLASHONLY|Rotation=90.000|XOffset=0mil|YOffset=0mil|HoleType=Round|Shape=RoundedRectangle|*
%AMROUNDEDRECTD168*
21,1,0.02362,0.05307,0,0,90.0*
21,1,0.01961,0.05709,0,0,90.0*
1,1,0.00402,0.02653,0.00980*
1,1,0.00402,0.02653,-0.00980*
1,1,0.00402,-0.02653,-0.00980*
1,1,0.00402,-0.02653,0.00980*
%
%ADD168ROUNDEDRECTD168*%
%ADD169R,0.06000X0.06000*%
%ADD170R,0.06000X0.12000*%
%ADD171R,0.06000X0.11000*%
%ADD172R,0.08669X0.29000*%
%ADD173R,0.02536X0.01500*%
G36*
X20193Y429092D02*
X288851D01*
Y421209D01*
X288351Y420902D01*
X287315Y421039D01*
X286140Y420884D01*
X285046Y420431D01*
X284105Y419709D01*
X283384Y418769D01*
X282931Y417675D01*
X282776Y416500D01*
X282931Y415325D01*
X283384Y414231D01*
X284105Y413291D01*
X285046Y412569D01*
X286140Y412116D01*
X287315Y411961D01*
X288351Y412098D01*
X288851Y411791D01*
Y187903D01*
X288351Y187569D01*
X287815Y187791D01*
Y183000D01*
Y178209D01*
X288351Y178431D01*
X288851Y178097D01*
Y177000D01*
X263035D01*
Y182547D01*
X254098D01*
Y177000D01*
X233196D01*
X232950Y177500D01*
X233374Y178052D01*
X233763Y178992D01*
X233895Y180000D01*
X233763Y181008D01*
X233374Y181948D01*
X232755Y182755D01*
X231948Y183374D01*
X231614Y183512D01*
X231714Y184012D01*
X233862D01*
Y191736D01*
X226138D01*
Y184012D01*
X228286D01*
X228386Y183512D01*
X228052Y183374D01*
X227245Y182755D01*
X226626Y181948D01*
X226495Y181631D01*
X213354D01*
X212730Y181507D01*
X212201Y181154D01*
X208047Y177000D01*
X85000D01*
X45331Y216669D01*
Y233162D01*
X108574Y233162D01*
X109033Y233352D01*
X109223Y233811D01*
X109223Y306926D01*
X109033Y307385D01*
X95846Y320572D01*
X95727Y320621D01*
X95636Y320713D01*
X95507D01*
X95425Y320746D01*
Y323453D01*
X91972D01*
Y318500D01*
X88972D01*
Y323453D01*
X85520D01*
Y322624D01*
X53698D01*
X42544Y322649D01*
X42544Y322649D01*
X42544Y322649D01*
X42318Y322555D01*
X42085Y322460D01*
X42085Y322459D01*
X42084Y322459D01*
X41730Y322106D01*
X41730Y322105D01*
X41730Y322105D01*
X41635Y321875D01*
X41539Y321647D01*
X41540Y321646D01*
X41539Y321646D01*
Y296635D01*
X41039Y296427D01*
X39999Y297468D01*
X40005Y297500D01*
X39826Y298397D01*
X39318Y299158D01*
X38557Y299667D01*
X37660Y299845D01*
X36762Y299667D01*
X36002Y299158D01*
X35493Y298397D01*
X35315Y297500D01*
X35493Y296603D01*
X36002Y295842D01*
X36762Y295333D01*
X37660Y295155D01*
X37692Y295161D01*
X39069Y293784D01*
Y223585D01*
X38607Y223393D01*
X36500Y225500D01*
X1569Y225500D01*
Y410468D01*
X1557Y410530D01*
X1712Y412901D01*
X2188Y415293D01*
X2972Y417602D01*
X4050Y419789D01*
X5405Y421816D01*
X7012Y423649D01*
X8846Y425256D01*
X10873Y426611D01*
X13060Y427690D01*
X15369Y428473D01*
X17760Y428949D01*
X20131Y429104D01*
X20193Y429092D01*
D02*
G37*
G36*
X53697Y321974D02*
X86020D01*
Y314047D01*
X94925D01*
Y319921D01*
X95387Y320113D01*
X108574Y306926D01*
X108574Y233811D01*
X45331Y233811D01*
Y294184D01*
X47494Y296346D01*
X47847Y296876D01*
X47971Y297500D01*
X47847Y298124D01*
X47494Y298654D01*
X46964Y299007D01*
X46340Y299131D01*
X45716Y299007D01*
X45187Y298654D01*
X42689Y296156D01*
X42189Y296357D01*
Y321646D01*
X42543Y321999D01*
X53697Y321974D01*
D02*
G37*
G36*
X26181Y224851D02*
Y201000D01*
X26371Y200541D01*
X26831Y200351D01*
X26851D01*
Y198000D01*
X26900Y197881D01*
Y190400D01*
Y185792D01*
X26444Y185293D01*
X24293Y185299D01*
Y187517D01*
X9707D01*
Y178837D01*
X24293D01*
Y180663D01*
X24647Y181016D01*
X34395Y180990D01*
X35035Y180157D01*
X35903Y179490D01*
X36037Y179435D01*
Y178935D01*
X35903Y178880D01*
X35035Y178213D01*
X34369Y177345D01*
X33950Y176333D01*
X33807Y175248D01*
X33950Y174163D01*
X34048Y173926D01*
X26770Y166648D01*
X24755Y164633D01*
X24293Y164824D01*
Y172163D01*
X9707D01*
Y166511D01*
X5486Y162290D01*
X5022Y161595D01*
X4859Y160776D01*
Y144884D01*
X4833Y144846D01*
X4655Y143949D01*
X4833Y143051D01*
X4859Y143013D01*
Y140935D01*
X4833Y140897D01*
X4655Y140000D01*
X4833Y139103D01*
X5342Y138342D01*
X6103Y137833D01*
X7000Y137655D01*
X7897Y137833D01*
X8658Y138342D01*
X9166Y139103D01*
X9345Y140000D01*
X9166Y140897D01*
X9141Y140935D01*
Y143013D01*
X9166Y143051D01*
X9345Y143949D01*
X9166Y144846D01*
X9141Y144884D01*
Y159889D01*
X12735Y163483D01*
X22951D01*
X23143Y163021D01*
X18234Y158112D01*
X15010D01*
Y153368D01*
X21328D01*
Y156592D01*
X27739Y163003D01*
X28245Y162497D01*
X28239Y162465D01*
X28418Y161568D01*
X28926Y160807D01*
X28995Y160761D01*
Y160159D01*
X28837Y160054D01*
X26895Y158112D01*
X23672D01*
Y153368D01*
X29025D01*
X29177Y152868D01*
X29043Y152779D01*
X26895Y150631D01*
X23672D01*
Y145888D01*
X29990D01*
Y149112D01*
X30873Y149995D01*
X34176D01*
X34369Y149529D01*
X35035Y148661D01*
X35903Y147994D01*
X36369Y147802D01*
Y140000D01*
X36493Y139376D01*
X36847Y138847D01*
X51209Y124484D01*
X51064Y124005D01*
X50911Y123975D01*
X50150Y123466D01*
X49641Y122705D01*
X49463Y121808D01*
X49641Y120911D01*
X49830Y120628D01*
X49829Y120603D01*
X49577Y120107D01*
X48911Y119975D01*
X48150Y119466D01*
X47641Y118705D01*
X47463Y117808D01*
X47641Y116911D01*
X48150Y116150D01*
X48911Y115641D01*
X49808Y115463D01*
X49840Y115469D01*
X73583Y91726D01*
X74112Y91373D01*
X74736Y91249D01*
X77531D01*
X77767Y90807D01*
X77680Y90677D01*
X77501Y89780D01*
X77680Y88882D01*
X78188Y88122D01*
X78215Y88104D01*
Y83569D01*
X77081D01*
Y78431D01*
X78406D01*
Y76569D01*
X77081D01*
Y71431D01*
X78406D01*
Y70039D01*
X77557Y69388D01*
X76828Y68437D01*
X76369Y67330D01*
X76213Y66142D01*
X76369Y64954D01*
X76828Y63846D01*
X77557Y62896D01*
X78508Y62166D01*
X79615Y61708D01*
X80803Y61551D01*
X81991Y61708D01*
X83098Y62166D01*
X84049Y62896D01*
X84779Y63846D01*
X85237Y64954D01*
X85394Y66142D01*
X85237Y67330D01*
X84779Y68437D01*
X84049Y69388D01*
X83098Y70117D01*
X81991Y70576D01*
X81669Y70618D01*
Y71431D01*
X82612D01*
Y72369D01*
X87324D01*
X92369Y67324D01*
Y42469D01*
X92493Y41844D01*
X92847Y41315D01*
X106857Y27305D01*
Y15512D01*
X106981Y14887D01*
X107335Y14358D01*
X119348Y2345D01*
X119141Y1845D01*
X20193D01*
X20131Y1833D01*
X17760Y1988D01*
X15369Y2464D01*
X13060Y3247D01*
X10873Y4326D01*
X8846Y5680D01*
X7012Y7288D01*
X5405Y9121D01*
X4050Y11148D01*
X2972Y13335D01*
X2188Y15644D01*
X1712Y18035D01*
X1557Y20407D01*
X1569Y20469D01*
Y224851D01*
X26181Y224851D01*
D02*
G37*
G36*
X38148Y222934D02*
X38267Y222885D01*
X38358Y222793D01*
X38487D01*
X38607Y222744D01*
X39069Y222482D01*
Y208257D01*
X39193Y207633D01*
X39546Y207104D01*
X78423Y168227D01*
X78952Y167873D01*
X79577Y167749D01*
X125534D01*
X139341Y153943D01*
Y150950D01*
X144841D01*
Y156050D01*
X141848D01*
X140410Y157488D01*
X140601Y157950D01*
X144841D01*
Y163050D01*
X141848D01*
X130121Y174777D01*
X129592Y175130D01*
X128967Y175255D01*
X80252D01*
X45331Y210176D01*
Y215097D01*
X45793Y215288D01*
X84541Y176541D01*
X85000Y176350D01*
X206745D01*
X206936Y175889D01*
X205315Y174268D01*
X205283Y174274D01*
X204386Y174096D01*
X203625Y173587D01*
X203117Y172827D01*
X202939Y171929D01*
X203117Y171032D01*
X203625Y170271D01*
X204386Y169763D01*
X205283Y169584D01*
X206181Y169763D01*
X206942Y170271D01*
X207450Y171032D01*
X207629Y171929D01*
X207622Y171961D01*
X214030Y178369D01*
X226495D01*
X226626Y178052D01*
X227245Y177245D01*
X228052Y176626D01*
X228992Y176237D01*
X230000Y176104D01*
X231008Y176237D01*
X231948Y176626D01*
X232189Y176812D01*
X232505Y176738D01*
X232718Y176587D01*
X232737Y176541D01*
X232875Y176484D01*
X232988Y176385D01*
X233096Y176392D01*
X233196Y176350D01*
X254098D01*
Y173610D01*
X263035D01*
Y176350D01*
X288851D01*
Y127294D01*
X288435Y127016D01*
X288036Y127181D01*
X287500Y127252D01*
Y123315D01*
Y119378D01*
X288036Y119449D01*
X288435Y119614D01*
X288851Y119336D01*
Y117328D01*
X288512Y116969D01*
X288351Y116969D01*
X285846D01*
Y114000D01*
Y111031D01*
X288351D01*
X288512Y111031D01*
X288851Y110672D01*
Y60393D01*
X288351Y60109D01*
X287864Y60206D01*
X282499D01*
X281879Y60083D01*
X281354Y59732D01*
X281003Y59207D01*
X280880Y58587D01*
Y57412D01*
X281003Y56793D01*
X281354Y56268D01*
X281879Y55917D01*
X282499Y55794D01*
X287864D01*
X288351Y55891D01*
X288851Y55607D01*
Y54958D01*
X288351Y54690D01*
X288327Y54706D01*
X287864Y54798D01*
X282499D01*
X282035Y54706D01*
X281642Y54444D01*
X281427Y54122D01*
X270914D01*
X270658Y54505D01*
X269897Y55013D01*
X269000Y55191D01*
X268103Y55013D01*
X267342Y54505D01*
X266833Y53744D01*
X266655Y52846D01*
X266833Y51949D01*
X267342Y51188D01*
X268103Y50680D01*
X269000Y50501D01*
X269897Y50680D01*
X270658Y51188D01*
X271119Y51878D01*
X281427D01*
X281642Y51556D01*
X282035Y51294D01*
X282499Y51202D01*
X287864D01*
X288327Y51294D01*
X288351Y51310D01*
X288851Y51042D01*
Y49958D01*
X288351Y49690D01*
X288327Y49706D01*
X287864Y49798D01*
X282499D01*
X282035Y49706D01*
X281642Y49444D01*
X281427Y49122D01*
X270683D01*
X270658Y49158D01*
X269897Y49667D01*
X269000Y49845D01*
X268103Y49667D01*
X267342Y49158D01*
X266833Y48397D01*
X266655Y47500D01*
X266833Y46603D01*
X267342Y45842D01*
X268103Y45333D01*
X269000Y45155D01*
X269897Y45333D01*
X270658Y45842D01*
X271167Y46603D01*
X271221Y46878D01*
X281427D01*
X281642Y46556D01*
X282035Y46294D01*
X282499Y46202D01*
X287864D01*
X288327Y46294D01*
X288351Y46310D01*
X288851Y46042D01*
Y44958D01*
X288351Y44690D01*
X288327Y44706D01*
X287864Y44798D01*
X282499D01*
X282035Y44706D01*
X281642Y44444D01*
X281427Y44122D01*
X276763D01*
X276533Y44076D01*
X276397Y44167D01*
X275500Y44345D01*
X274603Y44167D01*
X273842Y43658D01*
X273824Y43631D01*
X267926D01*
X265194Y46363D01*
Y98234D01*
X278392Y111432D01*
X281419D01*
Y116569D01*
X278631D01*
Y118846D01*
X281469D01*
Y127784D01*
X272532D01*
Y118846D01*
X275369D01*
Y115654D01*
X275493Y115029D01*
X275847Y114500D01*
X275888Y114458D01*
Y113542D01*
X262409Y100063D01*
X262056Y99534D01*
X261932Y98909D01*
Y45687D01*
X262056Y45063D01*
X262409Y44534D01*
X266096Y40846D01*
X266626Y40493D01*
X267250Y40369D01*
X273824D01*
X273842Y40342D01*
X273869Y40324D01*
Y12365D01*
X266135Y4631D01*
X183384D01*
X183232Y5131D01*
X183310Y5183D01*
X183818Y5944D01*
X183997Y6842D01*
X183990Y6873D01*
X192639Y15522D01*
X195884Y12278D01*
X196413Y11924D01*
X197037Y11800D01*
X226969D01*
X227594Y11924D01*
X228123Y12278D01*
X235378Y19533D01*
X235732Y20062D01*
X235856Y20687D01*
Y28565D01*
X236305Y28751D01*
X237441Y29622D01*
X238286Y30724D01*
X238555Y30760D01*
X238571D01*
X238840Y30724D01*
X239685Y29622D01*
X240821Y28751D01*
X242144Y28203D01*
X243563Y28016D01*
X244982Y28203D01*
X246305Y28751D01*
X247441Y29622D01*
X248287Y30724D01*
X248555Y30760D01*
X248571D01*
X248839Y30724D01*
X249685Y29622D01*
X250821Y28751D01*
X252144Y28203D01*
X253563Y28016D01*
X254982Y28203D01*
X256305Y28751D01*
X257441Y29622D01*
X258126Y30515D01*
X258626Y30346D01*
Y28563D01*
X263063D01*
Y33500D01*
Y38437D01*
X258626D01*
Y36654D01*
X258126Y36485D01*
X257441Y37378D01*
X256305Y38249D01*
X254982Y38797D01*
X253563Y38984D01*
X252144Y38797D01*
X250821Y38249D01*
X249685Y37378D01*
X248839Y36276D01*
X248571Y36240D01*
X248555D01*
X248287Y36276D01*
X247441Y37378D01*
X246305Y38249D01*
X244982Y38797D01*
X243563Y38984D01*
X242144Y38797D01*
X240821Y38249D01*
X239685Y37378D01*
X238840Y36276D01*
X238571Y36240D01*
X238555D01*
X238286Y36276D01*
X237441Y37378D01*
X236305Y38249D01*
X235568Y38554D01*
X235451Y39144D01*
X249153Y52846D01*
X249507Y53376D01*
X249631Y54000D01*
X249631Y54000D01*
Y72824D01*
X249658Y72842D01*
X250167Y73603D01*
X250345Y74500D01*
X250167Y75397D01*
X249658Y76158D01*
X248897Y76666D01*
X248000Y76845D01*
X247103Y76666D01*
X246342Y76158D01*
X245833Y75397D01*
X245655Y74500D01*
X245833Y73603D01*
X246342Y72842D01*
X246369Y72824D01*
Y54676D01*
X232410Y40716D01*
X232056Y40187D01*
X231932Y39563D01*
Y38709D01*
X230821Y38249D01*
X229685Y37378D01*
X228814Y36242D01*
X228266Y34919D01*
X228079Y33500D01*
X228266Y32081D01*
X228814Y30758D01*
X229685Y29622D01*
X230821Y28751D01*
X232144Y28203D01*
X232593Y28144D01*
Y21362D01*
X226294Y15063D01*
X219892D01*
X219741Y15563D01*
X220158Y15842D01*
X220667Y16603D01*
X220845Y17500D01*
X220667Y18397D01*
X220634Y18446D01*
X220685Y18700D01*
Y21904D01*
X222113D01*
Y27404D01*
X217013D01*
Y21904D01*
X218441D01*
Y19833D01*
X217603Y19667D01*
X216842Y19158D01*
X216333Y18397D01*
X216155Y17500D01*
X216333Y16603D01*
X216842Y15842D01*
X217259Y15563D01*
X217108Y15063D01*
X197713D01*
X195215Y17561D01*
X199557Y21903D01*
X202550D01*
Y23085D01*
X203950D01*
Y21967D01*
X207222D01*
X207464Y21466D01*
X207083Y20897D01*
X206905Y20000D01*
X207083Y19103D01*
X207592Y18342D01*
X208353Y17833D01*
X209250Y17655D01*
X210147Y17833D01*
X210908Y18342D01*
X211417Y19103D01*
X211595Y20000D01*
X211464Y20658D01*
X212710Y21904D01*
X216424D01*
Y27404D01*
X211324D01*
Y23690D01*
X209858Y22224D01*
X209250Y22345D01*
X209050Y22509D01*
Y27466D01*
X203950D01*
Y26348D01*
X202550D01*
Y27404D01*
X197450D01*
Y24411D01*
X192197Y19158D01*
X191747Y19068D01*
X191218Y18715D01*
X181683Y9180D01*
X181652Y9187D01*
X180754Y9008D01*
X179993Y8500D01*
X179485Y7739D01*
X179464Y7631D01*
X142676D01*
X137342Y12965D01*
Y27030D01*
X146286D01*
X147044Y26043D01*
X148056Y25267D01*
X149235Y24778D01*
X149433Y24752D01*
Y24248D01*
X149235Y24222D01*
X148056Y23733D01*
X147044Y22956D01*
X146267Y21944D01*
X145778Y20765D01*
X145612Y19500D01*
X145778Y18235D01*
X146267Y17056D01*
X147044Y16044D01*
X148056Y15267D01*
X149235Y14778D01*
X150500Y14612D01*
X151765Y14778D01*
X152944Y15267D01*
X153956Y16044D01*
X154733Y17056D01*
X155222Y18235D01*
X155248Y18433D01*
X155752D01*
X155778Y18235D01*
X156267Y17056D01*
X157044Y16044D01*
X158056Y15267D01*
X159235Y14778D01*
X160500Y14612D01*
X161765Y14778D01*
X162944Y15267D01*
X163956Y16044D01*
X164733Y17056D01*
X165222Y18235D01*
X165248Y18433D01*
X165752D01*
X165778Y18235D01*
X166267Y17056D01*
X167043Y16044D01*
X168056Y15267D01*
X169235Y14778D01*
X170500Y14612D01*
X171765Y14778D01*
X172944Y15267D01*
X173957Y16044D01*
X174733Y17056D01*
X175222Y18235D01*
X175388Y19500D01*
X175222Y20765D01*
X174733Y21944D01*
X174134Y22725D01*
X174140Y22840D01*
X174350Y23263D01*
X174590Y23310D01*
X174954Y23553D01*
X184293Y32893D01*
X184293Y32893D01*
X184536Y33257D01*
X184622Y33686D01*
Y71007D01*
X185158Y71365D01*
X185667Y72126D01*
X185845Y73024D01*
X185667Y73921D01*
X185158Y74682D01*
X184397Y75190D01*
X183500Y75369D01*
X182603Y75190D01*
X181842Y74682D01*
X181333Y73921D01*
X181155Y73024D01*
X181333Y72126D01*
X181842Y71365D01*
X182378Y71007D01*
Y34150D01*
X175308Y27080D01*
X174846Y27272D01*
Y29000D01*
X170500D01*
Y29500D01*
X170000D01*
Y33846D01*
X167086D01*
X166894Y34308D01*
X178489Y45903D01*
X178489Y45903D01*
X178733Y46267D01*
X178818Y46696D01*
X178818Y46696D01*
Y75732D01*
X186965Y83878D01*
X195620D01*
X195979Y83342D01*
X196740Y82833D01*
X197637Y82655D01*
X198534Y82833D01*
X199295Y83342D01*
X199654Y83879D01*
X200154Y83727D01*
Y75264D01*
X195596Y70705D01*
X194963Y70831D01*
X194065Y70653D01*
X193305Y70145D01*
X192796Y69384D01*
X192618Y68486D01*
X192796Y67589D01*
X193305Y66828D01*
X194065Y66320D01*
X194840Y66166D01*
X195177Y65713D01*
X195155Y65604D01*
X195333Y64706D01*
X195842Y63945D01*
X196603Y63437D01*
X197432Y63272D01*
Y62581D01*
X202569D01*
Y68112D01*
X197743D01*
X197318Y68477D01*
X197294Y68555D01*
X197182Y69119D01*
X202069Y74006D01*
X202312Y74370D01*
X202397Y74799D01*
X202397Y74799D01*
Y118390D01*
X202397Y118390D01*
X202312Y118819D01*
X202069Y119183D01*
X202069Y119183D01*
X194219Y127032D01*
X194345Y127665D01*
X194167Y128563D01*
X193658Y129324D01*
X192897Y129832D01*
X192000Y130010D01*
X191103Y129832D01*
X190342Y129324D01*
X189833Y128563D01*
X189779Y128292D01*
X189279Y128341D01*
Y130472D01*
X186811D01*
Y127307D01*
Y124142D01*
X189279D01*
Y126990D01*
X189779Y127039D01*
X189833Y126768D01*
X190342Y126007D01*
X191103Y125499D01*
X192000Y125320D01*
X192633Y125446D01*
X200154Y117925D01*
Y86273D01*
X199654Y86121D01*
X199295Y86658D01*
X198534Y87167D01*
X197637Y87345D01*
X197090Y87236D01*
X196917Y87414D01*
X196749Y87678D01*
X196912Y88500D01*
X196733Y89397D01*
X196225Y90158D01*
X195464Y90667D01*
X194567Y90845D01*
X193670Y90667D01*
X192909Y90158D01*
X192550Y89622D01*
X187737D01*
X187737Y89622D01*
X187308Y89536D01*
X186944Y89293D01*
X186944Y89293D01*
X174952Y77301D01*
X174709Y76937D01*
X174624Y76508D01*
X174624Y76508D01*
Y48056D01*
X165189Y38622D01*
X161646D01*
X161646Y38622D01*
X161217Y38536D01*
X160853Y38293D01*
X160853Y38293D01*
X154902Y32342D01*
X154403Y32375D01*
X153956Y32956D01*
X152944Y33733D01*
X151765Y34222D01*
X150500Y34388D01*
X149235Y34222D01*
X148056Y33733D01*
X147044Y32956D01*
X146267Y31944D01*
X145778Y30765D01*
X145716Y30293D01*
X144285D01*
Y58746D01*
X144508Y58895D01*
X145017Y59656D01*
X145195Y60553D01*
X145017Y61451D01*
X144508Y62212D01*
X143747Y62720D01*
X142850Y62899D01*
X141953Y62720D01*
X141393Y62346D01*
X140817Y62391D01*
X140736Y62430D01*
X140654Y62554D01*
X122029Y81178D01*
X122216Y81698D01*
X122897Y81833D01*
X123658Y82342D01*
X124167Y83103D01*
X124345Y84000D01*
X124167Y84897D01*
X123658Y85658D01*
X122897Y86167D01*
X122179Y86309D01*
X89335Y119153D01*
X88805Y119507D01*
X88181Y119631D01*
X80171D01*
X59508Y140294D01*
X59514Y140326D01*
X59336Y141223D01*
X58828Y141984D01*
X58067Y142492D01*
X57169Y142671D01*
X56272Y142492D01*
X55511Y141984D01*
X55003Y141223D01*
X54824Y140326D01*
X55003Y139429D01*
X55511Y138668D01*
X56272Y138159D01*
X57169Y137981D01*
X57201Y137987D01*
X78342Y116847D01*
X78871Y116493D01*
X79495Y116369D01*
X87505D01*
X90151Y113723D01*
X89833Y113334D01*
X89424Y113607D01*
X88800Y113731D01*
X74776D01*
X47505Y141002D01*
Y147802D01*
X47971Y147994D01*
X48839Y148661D01*
X49506Y149529D01*
X49853Y150369D01*
X63468D01*
X64093Y150493D01*
X64622Y150847D01*
X66984Y153209D01*
X67338Y153738D01*
X67462Y154362D01*
Y156388D01*
X68990D01*
Y161132D01*
X62672D01*
Y156388D01*
X64199D01*
Y155038D01*
X62793Y153631D01*
X49543D01*
X49506Y153723D01*
X48839Y154591D01*
X47971Y155257D01*
X47837Y155313D01*
Y155813D01*
X47971Y155868D01*
X48839Y156535D01*
X49295Y157129D01*
X54010D01*
Y156388D01*
X60328D01*
Y161132D01*
X54010D01*
Y160391D01*
X49950D01*
X49924Y160585D01*
X49506Y161597D01*
X48839Y162465D01*
X47971Y163131D01*
X47837Y163187D01*
Y163687D01*
X47971Y163742D01*
X48839Y164409D01*
X49264Y164962D01*
X49838Y165085D01*
X49919Y165038D01*
X50376Y164733D01*
X51000Y164609D01*
X54010D01*
Y163868D01*
X60328D01*
Y168612D01*
X54010D01*
Y167871D01*
X51676D01*
X51020Y168527D01*
X50490Y168881D01*
X49866Y169005D01*
X49698D01*
X49506Y169471D01*
X48839Y170339D01*
X47971Y171006D01*
X47837Y171061D01*
Y171561D01*
X47971Y171616D01*
X48839Y172283D01*
X49506Y173151D01*
X49924Y174163D01*
X50067Y175248D01*
X49924Y176333D01*
X49506Y177345D01*
X48839Y178213D01*
X48512Y178465D01*
X48681Y178965D01*
X50032D01*
Y187279D01*
X41717D01*
Y185929D01*
X41216Y185760D01*
X40965Y186087D01*
X40097Y186754D01*
X39085Y187172D01*
X38000Y187315D01*
X36915Y187172D01*
X35903Y186754D01*
X35035Y186087D01*
X34600Y185521D01*
X34100Y185690D01*
Y190400D01*
Y197881D01*
X34149Y198000D01*
Y200351D01*
X35500D01*
X35959Y200541D01*
X36149Y201000D01*
Y224225D01*
X36649Y224432D01*
X38148Y222934D01*
D02*
G37*
G36*
X390000Y163150D02*
X369821Y163150D01*
X368891Y164542D01*
X367326Y166326D01*
X365542Y167891D01*
X363569Y169209D01*
X361441Y170258D01*
X359195Y171021D01*
X356868Y171484D01*
X354500Y171639D01*
X352132Y171484D01*
X349805Y171021D01*
X348901Y170714D01*
X348495Y171005D01*
Y424500D01*
X390000D01*
X390000Y163150D01*
D02*
G37*
G36*
X42243Y149529D02*
X42909Y148661D01*
X43777Y147994D01*
X44243Y147802D01*
Y140326D01*
X44367Y139702D01*
X44721Y139172D01*
X72947Y110947D01*
X73476Y110593D01*
X74100Y110469D01*
X88124D01*
X137869Y60724D01*
Y52653D01*
X137842Y52635D01*
X137333Y51874D01*
X137155Y50976D01*
X137333Y50079D01*
X137842Y49318D01*
X138603Y48810D01*
X139500Y48631D01*
X140397Y48810D01*
X140581Y48933D01*
X141022Y48697D01*
Y30293D01*
X128768D01*
X128143Y30169D01*
X127614Y29815D01*
X127584Y29785D01*
X126315D01*
X125850Y29692D01*
X125457Y29429D01*
X125194Y29035D01*
X125101Y28571D01*
Y27390D01*
X125194Y26925D01*
X125196Y26921D01*
X124929Y26421D01*
X122216D01*
X122136Y26341D01*
X121748Y26660D01*
X121925Y26925D01*
X122017Y27390D01*
Y28571D01*
X121925Y29035D01*
X121661Y29429D01*
X121268Y29692D01*
X120803Y29785D01*
X117260D01*
X116795Y29692D01*
X116675Y29612D01*
X109164D01*
X95631Y43144D01*
Y68000D01*
X95507Y68624D01*
X95153Y69153D01*
X89153Y75153D01*
X88624Y75507D01*
X88000Y75631D01*
X82612D01*
Y76569D01*
X81669D01*
Y78431D01*
X82612D01*
Y83569D01*
X81669D01*
Y88368D01*
X82013Y88882D01*
X82191Y89780D01*
X82013Y90677D01*
X81926Y90807D01*
X82162Y91249D01*
X91720D01*
X125661Y57307D01*
X125655Y57276D01*
X125833Y56378D01*
X126342Y55617D01*
X127103Y55109D01*
X128000Y54931D01*
X128897Y55109D01*
X129658Y55617D01*
X129695Y55673D01*
X130195Y55521D01*
Y47676D01*
X130169Y47658D01*
X129660Y46897D01*
X129482Y46000D01*
X129660Y45103D01*
X130169Y44342D01*
X130929Y43833D01*
X131827Y43655D01*
X132724Y43833D01*
X133485Y44342D01*
X133993Y45103D01*
X134172Y46000D01*
X133993Y46897D01*
X133485Y47658D01*
X133458Y47676D01*
Y58173D01*
X133458Y58173D01*
X133334Y58798D01*
X132980Y59327D01*
X95153Y97154D01*
X94624Y97507D01*
X94000Y97631D01*
X76676D01*
X53743Y120564D01*
X53974Y120911D01*
X54005Y121064D01*
X54484Y121209D01*
X72847Y102847D01*
X73376Y102493D01*
X74000Y102369D01*
X84324D01*
X84342Y102342D01*
X85103Y101833D01*
X86000Y101655D01*
X86897Y101833D01*
X87658Y102342D01*
X88166Y103103D01*
X88345Y104000D01*
X88166Y104897D01*
X87658Y105658D01*
X86897Y106167D01*
X86000Y106345D01*
X85103Y106167D01*
X84342Y105658D01*
X84324Y105631D01*
X74676D01*
X39631Y140676D01*
Y147802D01*
X40097Y147994D01*
X40965Y148661D01*
X41631Y149529D01*
X41687Y149663D01*
X42187D01*
X42243Y149529D01*
D02*
G37*
G36*
X134079Y12289D02*
X134204Y11665D01*
X134557Y11136D01*
X140562Y5131D01*
X140355Y4631D01*
X121676D01*
X110120Y16187D01*
Y26349D01*
X116675D01*
X116795Y26268D01*
X117260Y26176D01*
X120803D01*
X121268Y26268D01*
X121533Y26445D01*
X121852Y26057D01*
X121577Y25783D01*
Y22561D01*
X121077Y22250D01*
X120803Y22304D01*
X117260D01*
X116795Y22212D01*
X116402Y21949D01*
X116138Y21555D01*
X116046Y21091D01*
Y19909D01*
X116138Y19445D01*
X116402Y19051D01*
X116795Y18788D01*
X117260Y18696D01*
X119162D01*
Y15790D01*
X117463D01*
Y10690D01*
X122963D01*
Y12740D01*
X123756D01*
Y10290D01*
X130055D01*
Y16190D01*
X129645D01*
X129339Y16586D01*
X129886Y18701D01*
X130323Y18788D01*
X130717Y19051D01*
X130980Y19445D01*
X131072Y19909D01*
Y21091D01*
X130980Y21555D01*
X130724Y21938D01*
X130842Y22394D01*
X131005Y22503D01*
X131357Y23029D01*
X131480Y23650D01*
Y24831D01*
X131357Y25451D01*
X131049Y25912D01*
Y26421D01*
X131049Y26421D01*
X131049D01*
X131277Y26823D01*
X131450Y27030D01*
X134079D01*
Y12289D01*
D02*
G37*
G36*
X281642Y41556D02*
X282035Y41294D01*
X282499Y41202D01*
X287864D01*
X288327Y41294D01*
X288351Y41310D01*
X288851Y41042D01*
Y1845D01*
X268670D01*
X268463Y2345D01*
X276654Y10535D01*
X277007Y11065D01*
X277131Y11689D01*
Y40324D01*
X277158Y40342D01*
X277667Y41103D01*
X277821Y41878D01*
X281427D01*
X281642Y41556D01*
D02*
G37*
%LPC*%
G36*
X192170Y427055D02*
X190950Y426934D01*
X189777Y426578D01*
X188695Y426000D01*
X187748Y425223D01*
X186970Y424275D01*
X186392Y423194D01*
X186036Y422020D01*
X185916Y420800D01*
X186036Y419580D01*
X186392Y418406D01*
X186970Y417325D01*
X187748Y416377D01*
X188695Y415599D01*
X189777Y415022D01*
X190950Y414666D01*
X192170Y414545D01*
X193390Y414666D01*
X194564Y415022D01*
X195645Y415599D01*
X196593Y416377D01*
X197371Y417325D01*
X197949Y418406D01*
X198304Y419580D01*
X198425Y420800D01*
X198304Y422020D01*
X197949Y423194D01*
X197371Y424275D01*
X196593Y425223D01*
X195645Y426000D01*
X194564Y426578D01*
X193390Y426934D01*
X192170Y427055D01*
D02*
G37*
G36*
X152800D02*
X151580Y426934D01*
X150407Y426578D01*
X149325Y426000D01*
X148377Y425223D01*
X147599Y424275D01*
X147022Y423194D01*
X146666Y422020D01*
X146546Y420800D01*
X146666Y419580D01*
X147022Y418406D01*
X147599Y417325D01*
X148377Y416377D01*
X149325Y415599D01*
X150407Y415022D01*
X151580Y414666D01*
X152800Y414545D01*
X154020Y414666D01*
X155193Y415022D01*
X156275Y415599D01*
X157223Y416377D01*
X158001Y417325D01*
X158578Y418406D01*
X158934Y419580D01*
X159055Y420800D01*
X158934Y422020D01*
X158578Y423194D01*
X158001Y424275D01*
X157223Y425223D01*
X156275Y426000D01*
X155193Y426578D01*
X154020Y426934D01*
X152800Y427055D01*
D02*
G37*
G36*
X53500Y368594D02*
X52440Y368455D01*
X51453Y368046D01*
X50605Y367395D01*
X49954Y366547D01*
X49545Y365560D01*
X49406Y364500D01*
X49545Y363440D01*
X49954Y362453D01*
X50605Y361605D01*
X51453Y360954D01*
X52440Y360545D01*
X53500Y360406D01*
X54560Y360545D01*
X55547Y360954D01*
X56395Y361605D01*
X57046Y362453D01*
X57455Y363440D01*
X57594Y364500D01*
X57455Y365560D01*
X57046Y366547D01*
X56395Y367395D01*
X55547Y368046D01*
X54560Y368455D01*
X53500Y368594D01*
D02*
G37*
G36*
X58059Y349374D02*
X55000D01*
Y346315D01*
X58059D01*
Y349374D01*
D02*
G37*
G36*
X52000D02*
X48941D01*
Y346315D01*
X52000D01*
Y349374D01*
D02*
G37*
G36*
X58059Y343315D02*
X55000D01*
Y340256D01*
X58059D01*
Y343315D01*
D02*
G37*
G36*
X52000D02*
X48941D01*
Y340256D01*
X52000D01*
Y343315D01*
D02*
G37*
G36*
X23386Y351454D02*
X22081Y351283D01*
X20864Y350779D01*
X19820Y349977D01*
X19018Y348933D01*
X18515Y347716D01*
X18343Y346411D01*
Y343411D01*
X18515Y342106D01*
X19018Y340890D01*
X19820Y339845D01*
X20864Y339044D01*
X22081Y338540D01*
X23386Y338368D01*
X24691Y338540D01*
X25907Y339044D01*
X26952Y339845D01*
X27753Y340890D01*
X28257Y342106D01*
X28429Y343411D01*
Y346411D01*
X28257Y347716D01*
X27753Y348933D01*
X26952Y349977D01*
X25907Y350779D01*
X24691Y351283D01*
X23386Y351454D01*
D02*
G37*
G36*
X10000D02*
X8695Y351283D01*
X7478Y350779D01*
X6434Y349977D01*
X5632Y348933D01*
X5129Y347716D01*
X4957Y346411D01*
Y343411D01*
X5129Y342106D01*
X5632Y340890D01*
X6434Y339845D01*
X7478Y339044D01*
X8695Y338540D01*
X10000Y338368D01*
X11305Y338540D01*
X12522Y339044D01*
X13566Y339845D01*
X14367Y340890D01*
X14871Y342106D01*
X15043Y343411D01*
Y346411D01*
X14871Y347716D01*
X14367Y348933D01*
X13566Y349977D01*
X12522Y350779D01*
X11305Y351283D01*
X10000Y351454D01*
D02*
G37*
G36*
X149500Y330895D02*
X148492Y330763D01*
X147552Y330374D01*
X146745Y329755D01*
X146126Y328948D01*
X145737Y328008D01*
X145605Y327000D01*
X145737Y325992D01*
X146126Y325052D01*
X146745Y324245D01*
X147552Y323626D01*
X148492Y323237D01*
X149500Y323105D01*
X150508Y323237D01*
X151448Y323626D01*
X152255Y324245D01*
X152874Y325052D01*
X153263Y325992D01*
X153395Y327000D01*
X153263Y328008D01*
X152874Y328948D01*
X152255Y329755D01*
X151448Y330374D01*
X150508Y330763D01*
X149500Y330895D01*
D02*
G37*
G36*
X266000Y344932D02*
X263664Y344748D01*
X261386Y344201D01*
X259221Y343304D01*
X257223Y342080D01*
X255442Y340558D01*
X253920Y338777D01*
X252696Y336779D01*
X251799Y334614D01*
X251252Y332336D01*
X251068Y330000D01*
X251252Y327664D01*
X251799Y325386D01*
X252696Y323221D01*
X253920Y321223D01*
X255442Y319442D01*
X257223Y317920D01*
X259221Y316696D01*
X261386Y315799D01*
X263664Y315252D01*
X266000Y315068D01*
X268336Y315252D01*
X270614Y315799D01*
X272779Y316696D01*
X274777Y317920D01*
X276558Y319442D01*
X278080Y321223D01*
X279304Y323221D01*
X280201Y325386D01*
X280748Y327664D01*
X280932Y330000D01*
X280748Y332336D01*
X280201Y334614D01*
X279304Y336779D01*
X278080Y338777D01*
X276558Y340558D01*
X274777Y342080D01*
X272779Y343304D01*
X270614Y344201D01*
X268336Y344748D01*
X266000Y344932D01*
D02*
G37*
G36*
X120000Y322991D02*
X118838Y322838D01*
X117754Y322390D01*
X116824Y321676D01*
X116111Y320746D01*
X115662Y319662D01*
X115509Y318500D01*
X115662Y317338D01*
X116111Y316254D01*
X116824Y315324D01*
X117754Y314611D01*
X118838Y314162D01*
X120000Y314009D01*
X121162Y314162D01*
X122246Y314611D01*
X123176Y315324D01*
X123890Y316254D01*
X124338Y317338D01*
X124491Y318500D01*
X124338Y319662D01*
X123890Y320746D01*
X123176Y321676D01*
X122246Y322390D01*
X121162Y322838D01*
X120000Y322991D01*
D02*
G37*
G36*
X200000Y320519D02*
X198838Y320366D01*
X197754Y319917D01*
X196824Y319203D01*
X196110Y318273D01*
X195662Y317190D01*
X195509Y316028D01*
X195662Y314865D01*
X196110Y313782D01*
X196824Y312852D01*
X197754Y312138D01*
X198838Y311689D01*
X200000Y311536D01*
X201162Y311689D01*
X202246Y312138D01*
X203176Y312852D01*
X203889Y313782D01*
X204338Y314865D01*
X204491Y316028D01*
X204338Y317190D01*
X203889Y318273D01*
X203176Y319203D01*
X202246Y319917D01*
X201162Y320366D01*
X200000Y320519D01*
D02*
G37*
G36*
X149500Y320896D02*
X148492Y320763D01*
X147552Y320374D01*
X146745Y319755D01*
X146126Y318948D01*
X145737Y318008D01*
X145605Y317000D01*
X145737Y315992D01*
X146126Y315052D01*
X146745Y314245D01*
X147552Y313626D01*
X147869Y313495D01*
Y310596D01*
X146950D01*
Y305304D01*
X146950Y305097D01*
X146571Y304803D01*
X146050D01*
Y302153D01*
X152950D01*
Y304803D01*
X152429D01*
X152050Y305097D01*
X152050Y305304D01*
Y310596D01*
X151131D01*
Y313495D01*
X151448Y313626D01*
X152255Y314245D01*
X152874Y315052D01*
X153263Y315992D01*
X153395Y317000D01*
X153263Y318008D01*
X152874Y318948D01*
X152255Y319755D01*
X151448Y320374D01*
X150508Y320763D01*
X149500Y320896D01*
D02*
G37*
G36*
X23386Y312399D02*
X22081Y312227D01*
X20864Y311723D01*
X19820Y310922D01*
X19018Y309878D01*
X18515Y308661D01*
X18343Y307356D01*
Y304356D01*
X18515Y303051D01*
X19018Y301835D01*
X19820Y300790D01*
X20864Y299989D01*
X22081Y299485D01*
X23386Y299313D01*
X24691Y299485D01*
X25907Y299989D01*
X26952Y300790D01*
X27753Y301835D01*
X28257Y303051D01*
X28429Y304356D01*
Y307356D01*
X28257Y308661D01*
X27753Y309878D01*
X26952Y310922D01*
X25907Y311723D01*
X24691Y312227D01*
X23386Y312399D01*
D02*
G37*
G36*
X10000D02*
X8695Y312227D01*
X7478Y311723D01*
X6434Y310922D01*
X5632Y309878D01*
X5129Y308661D01*
X4957Y307356D01*
Y304356D01*
X5129Y303051D01*
X5632Y301835D01*
X6434Y300790D01*
X7478Y299989D01*
X8695Y299485D01*
X10000Y299313D01*
X11305Y299485D01*
X12522Y299989D01*
X13566Y300790D01*
X14367Y301835D01*
X14871Y303051D01*
X15043Y304356D01*
Y307356D01*
X14871Y308661D01*
X14367Y309878D01*
X13566Y310922D01*
X12522Y311723D01*
X11305Y312227D01*
X10000Y312399D01*
D02*
G37*
G36*
X152950Y300153D02*
X150500D01*
Y297503D01*
X152950D01*
Y300153D01*
D02*
G37*
G36*
X148500D02*
X146050D01*
Y297503D01*
X148500D01*
Y300153D01*
D02*
G37*
G36*
X204953Y291453D02*
X201500D01*
Y288000D01*
X204953D01*
Y291453D01*
D02*
G37*
G36*
X198500D02*
X195047D01*
Y288000D01*
X198500D01*
Y291453D01*
D02*
G37*
G36*
X204953Y285000D02*
X201500D01*
Y281547D01*
X204953D01*
Y285000D01*
D02*
G37*
G36*
X198500D02*
X195047D01*
Y281547D01*
X198500D01*
Y285000D01*
D02*
G37*
G36*
X267500Y284315D02*
Y270500D01*
X281315D01*
X281243Y271414D01*
X280678Y273769D01*
X279751Y276007D01*
X278486Y278071D01*
X276913Y279913D01*
X275072Y281486D01*
X273007Y282751D01*
X270769Y283678D01*
X268414Y284243D01*
X267500Y284315D01*
D02*
G37*
G36*
X264500D02*
X263586Y284243D01*
X261231Y283678D01*
X258993Y282751D01*
X256928Y281486D01*
X255087Y279913D01*
X253514Y278071D01*
X252249Y276007D01*
X251322Y273769D01*
X250757Y271414D01*
X250685Y270500D01*
X264500D01*
Y284315D01*
D02*
G37*
G36*
X143000Y273019D02*
X141838Y272866D01*
X140754Y272417D01*
X139824Y271703D01*
X139111Y270773D01*
X138662Y269690D01*
X138509Y268528D01*
X138662Y267365D01*
X139111Y266282D01*
X139824Y265352D01*
X140754Y264638D01*
X141838Y264189D01*
X143000Y264036D01*
X144162Y264189D01*
X145246Y264638D01*
X146176Y265352D01*
X146889Y266282D01*
X147338Y267365D01*
X147491Y268528D01*
X147338Y269690D01*
X146889Y270773D01*
X146176Y271703D01*
X145246Y272417D01*
X144162Y272866D01*
X143000Y273019D01*
D02*
G37*
G36*
X15500Y270290D02*
X14286Y270130D01*
X13155Y269662D01*
X12184Y268916D01*
X11438Y267945D01*
X10970Y266814D01*
X10810Y265600D01*
X10970Y264386D01*
X11438Y263255D01*
X12184Y262284D01*
X13155Y261538D01*
X14286Y261070D01*
X15500Y260910D01*
X16714Y261070D01*
X17845Y261538D01*
X18816Y262284D01*
X19562Y263255D01*
X20030Y264386D01*
X20190Y265600D01*
X20030Y266814D01*
X19562Y267945D01*
X18816Y268916D01*
X17845Y269662D01*
X16714Y270130D01*
X15500Y270290D01*
D02*
G37*
G36*
X281315Y267500D02*
X267500D01*
Y253685D01*
X268414Y253757D01*
X270769Y254322D01*
X273007Y255249D01*
X275072Y256514D01*
X276913Y258087D01*
X278486Y259928D01*
X279751Y261993D01*
X280678Y264231D01*
X281243Y266586D01*
X281315Y267500D01*
D02*
G37*
G36*
X264500D02*
X250685D01*
X250757Y266586D01*
X251322Y264231D01*
X252249Y261993D01*
X253514Y259928D01*
X255087Y258087D01*
X256928Y256514D01*
X258993Y255249D01*
X261231Y254322D01*
X263586Y253757D01*
X264500Y253685D01*
Y267500D01*
D02*
G37*
G36*
X147953Y243953D02*
X144500D01*
Y240500D01*
X147953D01*
Y243953D01*
D02*
G37*
G36*
X141500D02*
X138047D01*
Y240500D01*
X141500D01*
Y243953D01*
D02*
G37*
G36*
X147953Y237500D02*
X144500D01*
Y234047D01*
X147953D01*
Y237500D01*
D02*
G37*
G36*
X141500D02*
X138047D01*
Y234047D01*
X141500D01*
Y237500D01*
D02*
G37*
G36*
X77800Y229629D02*
Y222959D01*
X84469D01*
X84119Y224113D01*
X83237Y225763D01*
X82050Y227209D01*
X80603Y228397D01*
X78953Y229279D01*
X77800Y229629D01*
D02*
G37*
G36*
X72800D02*
X71647Y229279D01*
X69997Y228397D01*
X68550Y227209D01*
X67363Y225763D01*
X66481Y224113D01*
X66131Y222959D01*
X72800D01*
Y229629D01*
D02*
G37*
G36*
X84469Y217959D02*
X77800D01*
Y211290D01*
X78953Y211640D01*
X80603Y212522D01*
X82050Y213709D01*
X83237Y215156D01*
X84119Y216806D01*
X84469Y217959D01*
D02*
G37*
G36*
X72800D02*
X66131D01*
X66481Y216806D01*
X67363Y215156D01*
X68550Y213709D01*
X69997Y212522D01*
X71647Y211640D01*
X72800Y211290D01*
Y217959D01*
D02*
G37*
G36*
X284815Y187791D02*
X283793Y187367D01*
X282749Y186566D01*
X281947Y185522D01*
X281524Y184500D01*
X284815D01*
Y187791D01*
D02*
G37*
G36*
X258567Y192428D02*
X257400Y192275D01*
X256313Y191824D01*
X255380Y191108D01*
X254664Y190175D01*
X254213Y189088D01*
X254060Y187921D01*
X254213Y186755D01*
X254664Y185668D01*
X255380Y184734D01*
X256313Y184018D01*
X257400Y183568D01*
X258567Y183414D01*
X259733Y183568D01*
X260821Y184018D01*
X261754Y184734D01*
X262470Y185668D01*
X262920Y186755D01*
X263074Y187921D01*
X262920Y189088D01*
X262470Y190175D01*
X261754Y191108D01*
X260821Y191824D01*
X259733Y192275D01*
X258567Y192428D01*
D02*
G37*
G36*
X284815Y181500D02*
X281524D01*
X281947Y180478D01*
X282749Y179434D01*
X283793Y178632D01*
X284815Y178209D01*
Y181500D01*
D02*
G37*
G36*
X84800Y261140D02*
X77800D01*
Y254140D01*
X84800D01*
Y261140D01*
D02*
G37*
G36*
X72800D02*
X65800D01*
Y254140D01*
X72800D01*
Y261140D01*
D02*
G37*
G36*
X84800Y249141D02*
X77800D01*
Y242141D01*
X84800D01*
Y249141D01*
D02*
G37*
G36*
X72800D02*
X65800D01*
Y242141D01*
X72800D01*
Y249141D01*
D02*
G37*
G36*
X15500Y211190D02*
X14286Y211030D01*
X13155Y210562D01*
X12184Y209816D01*
X11438Y208845D01*
X10970Y207714D01*
X10810Y206500D01*
X10970Y205286D01*
X11438Y204155D01*
X12184Y203184D01*
X13155Y202438D01*
X14286Y201970D01*
X15500Y201810D01*
X16714Y201970D01*
X17845Y202438D01*
X18816Y203184D01*
X19562Y204155D01*
X20030Y205286D01*
X20190Y206500D01*
X20030Y207714D01*
X19562Y208845D01*
X18816Y209816D01*
X17845Y210562D01*
X16714Y211030D01*
X15500Y211190D01*
D02*
G37*
G36*
X21728Y152213D02*
X18669D01*
Y149547D01*
X21728D01*
Y152213D01*
D02*
G37*
G36*
X17669D02*
X14610D01*
Y149547D01*
X17669D01*
Y152213D01*
D02*
G37*
G36*
X21728Y148547D02*
X18669D01*
Y145882D01*
X21728D01*
Y148547D01*
D02*
G37*
G36*
X17669D02*
X14610D01*
Y145882D01*
X17669D01*
Y148547D01*
D02*
G37*
G36*
X76319Y83969D02*
X73654D01*
Y81500D01*
X76319D01*
Y83969D01*
D02*
G37*
G36*
X72654D02*
X69988D01*
Y81500D01*
X72654D01*
Y83969D01*
D02*
G37*
G36*
X76319Y80500D02*
X73654D01*
Y78031D01*
X76319D01*
Y80500D01*
D02*
G37*
G36*
X72654D02*
X69988D01*
Y78031D01*
X72654D01*
Y80500D01*
D02*
G37*
G36*
X76319Y76968D02*
X73654D01*
Y74500D01*
X76319D01*
Y76968D01*
D02*
G37*
G36*
X72654D02*
X69988D01*
Y74500D01*
X72654D01*
Y76968D01*
D02*
G37*
G36*
X56068Y74912D02*
X53600D01*
Y72246D01*
X56068D01*
Y74912D01*
D02*
G37*
G36*
X52600D02*
X50131D01*
Y72246D01*
X52600D01*
Y74912D01*
D02*
G37*
G36*
X76319Y73500D02*
X73654D01*
Y71031D01*
X76319D01*
Y73500D01*
D02*
G37*
G36*
X72654D02*
X69988D01*
Y71031D01*
X72654D01*
Y73500D01*
D02*
G37*
G36*
X52600Y71246D02*
X50131D01*
Y68581D01*
X52600D01*
Y71246D01*
D02*
G37*
G36*
X71303Y70162D02*
Y66642D01*
X74823D01*
X74750Y67199D01*
X74342Y68185D01*
X73693Y69031D01*
X72846Y69680D01*
X71861Y70089D01*
X71303Y70162D01*
D02*
G37*
G36*
X70303D02*
X69746Y70089D01*
X68760Y69680D01*
X67914Y69031D01*
X67264Y68185D01*
X66856Y67199D01*
X66783Y66642D01*
X70303D01*
Y70162D01*
D02*
G37*
G36*
X56068Y71246D02*
X53600D01*
Y68581D01*
X55752D01*
X56068Y68581D01*
X56252Y68157D01*
Y66541D01*
X55668D01*
Y67819D01*
X50532D01*
Y66541D01*
X46685D01*
X46497Y66667D01*
X45600Y66845D01*
X44703Y66667D01*
X44515Y66541D01*
X41935D01*
X41897Y66566D01*
X41000Y66745D01*
X40103Y66566D01*
X39342Y66058D01*
X38833Y65297D01*
X38655Y64400D01*
X38833Y63503D01*
X39342Y62742D01*
X40103Y62234D01*
X41000Y62055D01*
X41897Y62234D01*
X41935Y62259D01*
X45078D01*
X45600Y62155D01*
X46122Y62259D01*
X56252D01*
Y61590D01*
X65354D01*
Y70693D01*
X56568D01*
X56252Y70693D01*
X56068Y71117D01*
Y71246D01*
D02*
G37*
G36*
X74823Y65642D02*
X71303D01*
Y62121D01*
X71861Y62195D01*
X72846Y62603D01*
X73693Y63252D01*
X74342Y64099D01*
X74750Y65084D01*
X74823Y65642D01*
D02*
G37*
G36*
X70303D02*
X66783D01*
X66856Y65084D01*
X67264Y64099D01*
X67914Y63252D01*
X68760Y62603D01*
X69746Y62195D01*
X70303Y62121D01*
Y65642D01*
D02*
G37*
G36*
X65331Y168618D02*
X62272D01*
Y165953D01*
X65331D01*
Y168618D01*
D02*
G37*
G36*
X69390Y164953D02*
X66331D01*
Y162287D01*
X69390D01*
Y164953D01*
D02*
G37*
G36*
X65331D02*
X62272D01*
Y162287D01*
X65331D01*
Y164953D01*
D02*
G37*
G36*
X161005Y163819D02*
X155868D01*
Y162175D01*
X151533D01*
Y163050D01*
X146034D01*
Y157950D01*
X151533D01*
Y159932D01*
X155868D01*
Y158288D01*
X159616D01*
X159873Y158031D01*
X159895Y157892D01*
X159865Y157596D01*
X159803Y157438D01*
X159587Y157293D01*
X159587Y157293D01*
X159419Y157126D01*
X155868D01*
Y155482D01*
X151533D01*
Y156050D01*
X146034D01*
Y150950D01*
X151533D01*
Y153239D01*
X155868D01*
Y152500D01*
X154437D01*
Y144319D01*
X158030D01*
X158298Y143819D01*
X158244Y143738D01*
X154868D01*
Y138207D01*
X156097D01*
Y132014D01*
X155597Y131747D01*
X155555Y131775D01*
X155091Y131867D01*
X153909D01*
X153445Y131775D01*
X153051Y131512D01*
X152788Y131118D01*
X152696Y130654D01*
Y124354D01*
X152788Y123890D01*
X153051Y123496D01*
X153445Y123233D01*
X153909Y123141D01*
X155091D01*
X155555Y123233D01*
X155597Y123261D01*
X156097Y122994D01*
Y122377D01*
X155561Y122019D01*
X155052Y121258D01*
X154874Y120361D01*
X155052Y119463D01*
X155561Y118702D01*
X156322Y118194D01*
X157219Y118016D01*
X158116Y118194D01*
X158877Y118702D01*
X159385Y119463D01*
X159564Y120361D01*
X159385Y121258D01*
X158877Y122019D01*
X158457Y122300D01*
X158440Y122828D01*
X158841Y123154D01*
X158909Y123141D01*
X160091D01*
X160555Y123233D01*
X160949Y123496D01*
X161212Y123890D01*
X161304Y124354D01*
Y130654D01*
X161212Y131118D01*
X160949Y131512D01*
X160555Y131775D01*
X160091Y131867D01*
X158909D01*
X158841Y131854D01*
X158341Y132261D01*
Y138207D01*
X160005D01*
Y141955D01*
X161929Y143878D01*
X164267D01*
X164301Y143707D01*
X164478Y143442D01*
X164743Y143265D01*
X165055Y143203D01*
X170362D01*
X170675Y143265D01*
X170940Y143442D01*
X171116Y143707D01*
X171179Y144020D01*
Y144319D01*
X178437D01*
Y152500D01*
X161005D01*
Y155378D01*
X164239D01*
Y154020D01*
X164301Y153707D01*
X164478Y153442D01*
X164743Y153265D01*
X165055Y153203D01*
X170362D01*
X170675Y153265D01*
X170940Y153442D01*
X171116Y153707D01*
X171179Y154020D01*
Y155980D01*
X171116Y156293D01*
X170940Y156558D01*
X170675Y156735D01*
X170362Y156797D01*
X166058D01*
X165562Y157293D01*
X165547Y157303D01*
Y157829D01*
X165923Y158203D01*
X170362D01*
X170675Y158265D01*
X170940Y158442D01*
X171116Y158707D01*
X171179Y159020D01*
Y160980D01*
X171116Y161293D01*
X170940Y161558D01*
X170675Y161735D01*
X170362Y161797D01*
X165055D01*
X164743Y161735D01*
X164478Y161558D01*
X164301Y161293D01*
X164239Y160980D01*
Y159828D01*
X161248D01*
X161005Y160071D01*
Y163819D01*
D02*
G37*
G36*
X198091Y165178D02*
X197193Y165000D01*
X196432Y164491D01*
X195924Y163731D01*
X195746Y162833D01*
X195846Y162328D01*
X194639Y161122D01*
X192607D01*
X192573Y161293D01*
X192396Y161558D01*
X192131Y161735D01*
X191819Y161797D01*
X186512D01*
X186199Y161735D01*
X185934Y161558D01*
X185758Y161293D01*
X185695Y160980D01*
Y159020D01*
X185758Y158707D01*
X185934Y158442D01*
X186199Y158265D01*
X186512Y158203D01*
X191819D01*
X192131Y158265D01*
X192396Y158442D01*
X192573Y158707D01*
X192607Y158878D01*
X195104D01*
X195104Y158878D01*
X195533Y158964D01*
X195897Y159207D01*
X197329Y160640D01*
X198091Y160488D01*
X198988Y160667D01*
X199749Y161175D01*
X200257Y161936D01*
X200436Y162833D01*
X200257Y163731D01*
X199749Y164491D01*
X198988Y165000D01*
X198091Y165178D01*
D02*
G37*
G36*
X191819Y156797D02*
X186512D01*
X186199Y156735D01*
X185934Y156558D01*
X185758Y156293D01*
X185695Y155980D01*
Y154020D01*
X185758Y153707D01*
X185934Y153442D01*
X186199Y153265D01*
X186512Y153203D01*
X191819D01*
X192131Y153265D01*
X192396Y153442D01*
X192573Y153707D01*
X192607Y153878D01*
X196126D01*
X196969Y153035D01*
Y152183D01*
X196432Y151825D01*
X195924Y151064D01*
X195746Y150167D01*
X195924Y149269D01*
X196432Y148508D01*
X197193Y148000D01*
X198091Y147822D01*
X198988Y148000D01*
X199749Y148508D01*
X200257Y149269D01*
X200436Y150167D01*
X200257Y151064D01*
X199749Y151825D01*
X199212Y152183D01*
Y153500D01*
X199212Y153500D01*
X199127Y153929D01*
X198884Y154293D01*
X197384Y155793D01*
X197020Y156036D01*
X196590Y156122D01*
X196590Y156122D01*
X192607D01*
X192573Y156293D01*
X192396Y156558D01*
X192131Y156735D01*
X191819Y156797D01*
D02*
G37*
G36*
X172719Y141943D02*
Y137500D01*
X174034D01*
Y140543D01*
X173925Y141087D01*
X173617Y141548D01*
X173156Y141856D01*
X172719Y141943D01*
D02*
G37*
G36*
X171719Y141943D02*
X171281Y141856D01*
X170820Y141548D01*
X170512Y141087D01*
X170404Y140543D01*
Y137500D01*
X171719D01*
Y141943D01*
D02*
G37*
G36*
X167888Y141557D02*
X167101D01*
X166713Y141479D01*
X166384Y141260D01*
X166165Y140931D01*
X166088Y140543D01*
Y133457D01*
X166165Y133069D01*
X166384Y132740D01*
X166713Y132521D01*
X167101Y132443D01*
X167315D01*
X168069Y131690D01*
X168051Y131512D01*
X167788Y131118D01*
X167696Y130654D01*
Y124354D01*
X167788Y123890D01*
X168051Y123496D01*
X168445Y123233D01*
X168909Y123141D01*
X170091D01*
X170555Y123233D01*
X170949Y123496D01*
X171212Y123890D01*
X171304Y124354D01*
Y130654D01*
X171212Y131118D01*
X170949Y131512D01*
X170841Y131584D01*
X170834Y131842D01*
X171252Y132124D01*
X171325Y132135D01*
X171719Y132057D01*
Y136500D01*
X170404D01*
Y133457D01*
X170459Y133179D01*
X169999Y132932D01*
X168901Y134030D01*
Y140543D01*
X168824Y140931D01*
X168605Y141260D01*
X168276Y141479D01*
X167888Y141557D01*
D02*
G37*
G36*
X177337D02*
X176550D01*
X176162Y141479D01*
X175833Y141260D01*
X175614Y140931D01*
X175536Y140543D01*
Y133457D01*
X175614Y133069D01*
X175671Y132983D01*
X174555Y131867D01*
X173909D01*
X173445Y131775D01*
X173252Y132208D01*
X173617Y132452D01*
X173925Y132913D01*
X174034Y133457D01*
Y136500D01*
X172719D01*
Y132057D01*
X173156Y132144D01*
X173349Y131711D01*
X173051Y131512D01*
X172788Y131118D01*
X172696Y130654D01*
Y124354D01*
X172788Y123890D01*
X173051Y123496D01*
X173445Y123233D01*
X173909Y123141D01*
X175091D01*
X175555Y123233D01*
X175949Y123496D01*
X176212Y123890D01*
X176304Y124354D01*
Y130444D01*
X176844Y130983D01*
X177304Y130737D01*
X177288Y130654D01*
Y124354D01*
X177411Y123734D01*
X177763Y123208D01*
X178289Y122856D01*
X178593Y122796D01*
X178698Y122265D01*
X178330Y122019D01*
X177822Y121258D01*
X177643Y120361D01*
X177822Y119463D01*
X178330Y118702D01*
X179091Y118194D01*
X179988Y118016D01*
X180886Y118194D01*
X181646Y118702D01*
X182155Y119463D01*
X182161Y119493D01*
X183742D01*
Y117849D01*
X188880D01*
Y123380D01*
X183742D01*
Y121736D01*
X181836D01*
X181646Y122019D01*
X181002Y122449D01*
X180936Y122863D01*
X180960Y123022D01*
X181237Y123208D01*
X181589Y123734D01*
X181712Y124354D01*
Y130654D01*
X181589Y131274D01*
X181237Y131800D01*
X180711Y132152D01*
X180091Y132275D01*
X178909D01*
X178479Y132190D01*
X178088Y132502D01*
X178046Y132574D01*
X178065Y132669D01*
X178065Y132669D01*
Y132757D01*
X178273Y133069D01*
X178350Y133457D01*
Y140543D01*
X178273Y140931D01*
X178053Y141260D01*
X177725Y141479D01*
X177337Y141557D01*
D02*
G37*
G36*
X185811Y130472D02*
X183343D01*
Y127807D01*
X185811D01*
Y130472D01*
D02*
G37*
G36*
Y126807D02*
X183343D01*
Y124142D01*
X185811D01*
Y126807D01*
D02*
G37*
G36*
X286500Y127252D02*
X285964Y127181D01*
X284999Y126781D01*
X284170Y126145D01*
X283534Y125316D01*
X283134Y124351D01*
X283063Y123815D01*
X286500D01*
Y127252D01*
D02*
G37*
G36*
X165091Y131867D02*
X163909D01*
X163445Y131775D01*
X163051Y131512D01*
X162788Y131118D01*
X162696Y130654D01*
Y124354D01*
X162788Y123890D01*
X163051Y123496D01*
X163445Y123233D01*
X163909Y123141D01*
X165091D01*
X165555Y123233D01*
X165949Y123496D01*
X166212Y123890D01*
X166304Y124354D01*
Y130654D01*
X166212Y131118D01*
X165949Y131512D01*
X165555Y131775D01*
X165091Y131867D01*
D02*
G37*
G36*
X66809Y176508D02*
X65912Y176329D01*
X65151Y175821D01*
X64643Y175060D01*
X64464Y174163D01*
X64643Y173265D01*
X65151Y172504D01*
X65912Y171996D01*
X66809Y171818D01*
X66841Y171824D01*
X69657Y169007D01*
X69339Y168618D01*
X68911Y168618D01*
X66331D01*
Y165953D01*
X69390D01*
Y168121D01*
X69390Y168568D01*
X69779Y168886D01*
X85617Y153048D01*
X86146Y152694D01*
X86770Y152570D01*
X109587D01*
X127958Y134199D01*
X128239Y133788D01*
X127731Y133027D01*
X127552Y132130D01*
X127731Y131233D01*
X128239Y130472D01*
X128266Y130454D01*
Y128920D01*
X128390Y128296D01*
X128744Y127766D01*
X135300Y121210D01*
X135131Y120361D01*
X135291Y119556D01*
X134888Y119153D01*
X134645Y118789D01*
X134560Y118360D01*
X134560Y118360D01*
Y92017D01*
X134023Y91658D01*
X133515Y90897D01*
X133336Y90000D01*
X133515Y89103D01*
X134023Y88342D01*
X134784Y87833D01*
X135681Y87655D01*
X136579Y87833D01*
X137196Y88246D01*
X137696Y88043D01*
Y87347D01*
X137788Y86882D01*
X138051Y86488D01*
X138445Y86225D01*
X138909Y86133D01*
X139582D01*
X139850Y85633D01*
X139833Y85609D01*
X139655Y84711D01*
X139833Y83814D01*
X140342Y83053D01*
X141103Y82544D01*
X142000Y82366D01*
X142897Y82544D01*
X143658Y83053D01*
X144167Y83814D01*
X144345Y84711D01*
X144167Y85609D01*
X144148Y85636D01*
X144645Y86133D01*
X145091D01*
X145555Y86225D01*
X145597Y86253D01*
X146097Y85986D01*
Y85870D01*
X146097Y85870D01*
X146183Y85441D01*
X146426Y85077D01*
X147400Y84103D01*
X147333Y84003D01*
X147155Y83105D01*
X147333Y82208D01*
X147842Y81447D01*
X148603Y80939D01*
X149500Y80761D01*
X150397Y80939D01*
X151158Y81447D01*
X151667Y82208D01*
X151845Y83105D01*
X151667Y84003D01*
X151158Y84764D01*
X150397Y85272D01*
X149500Y85451D01*
X149347Y85633D01*
X149580Y86133D01*
X150091D01*
X150555Y86225D01*
X150949Y86488D01*
X151212Y86882D01*
X151304Y87347D01*
Y93646D01*
X151212Y94110D01*
X150949Y94504D01*
X150622Y94723D01*
Y100689D01*
X153465Y103532D01*
X186775D01*
X187134Y102995D01*
X187894Y102487D01*
X188792Y102308D01*
X189689Y102487D01*
X190450Y102995D01*
X190958Y103756D01*
X191137Y104654D01*
X190958Y105551D01*
X190450Y106312D01*
X189689Y106820D01*
X188792Y106999D01*
X187894Y106820D01*
X187134Y106312D01*
X186775Y105775D01*
X153000D01*
X153000Y105775D01*
X152571Y105690D01*
X152207Y105447D01*
X152207Y105447D01*
X151084Y104323D01*
X150622Y104515D01*
Y123277D01*
X150949Y123496D01*
X151212Y123890D01*
X151304Y124354D01*
Y130654D01*
X151212Y131118D01*
X150949Y131512D01*
X150555Y131775D01*
X150091Y131867D01*
X148909D01*
X148445Y131775D01*
X148051Y131512D01*
X147788Y131118D01*
X147696Y130654D01*
Y124354D01*
X147788Y123890D01*
X148051Y123496D01*
X148378Y123277D01*
Y103881D01*
X146426Y101928D01*
X146183Y101564D01*
X146097Y101135D01*
X146097Y101135D01*
Y95006D01*
X145597Y94739D01*
X145555Y94767D01*
X145091Y94859D01*
X143909D01*
X143445Y94767D01*
X143051Y94504D01*
X142788Y94110D01*
X142696Y93646D01*
Y87356D01*
X142330Y86990D01*
X142000Y87056D01*
X141657Y86988D01*
X141560Y87085D01*
X141304Y87428D01*
Y93646D01*
X141212Y94110D01*
X140949Y94504D01*
X140555Y94767D01*
X140091Y94859D01*
X138909D01*
X138445Y94767D01*
X138051Y94504D01*
X137788Y94110D01*
X137696Y93646D01*
Y91976D01*
X137656Y91940D01*
X137196Y91754D01*
X136803Y92017D01*
Y117693D01*
X137233Y118064D01*
X137477Y118016D01*
X138374Y118194D01*
X139135Y118702D01*
X139643Y119463D01*
X139822Y120361D01*
X139643Y121258D01*
X139135Y122019D01*
X138568Y122398D01*
X138329Y122755D01*
X138558Y123150D01*
X138614Y123199D01*
X138909Y123141D01*
X140091D01*
X140555Y123233D01*
X140949Y123496D01*
X141212Y123890D01*
X141304Y124354D01*
Y130654D01*
X141212Y131118D01*
X140949Y131512D01*
X140622Y131731D01*
Y131879D01*
X140622Y131879D01*
X140536Y132308D01*
X140293Y132672D01*
X140293Y132672D01*
X138598Y134367D01*
Y137769D01*
X139135Y138128D01*
X139643Y138889D01*
X139822Y139786D01*
X139643Y140683D01*
X139473Y140937D01*
X139709Y141378D01*
X140295D01*
X143378Y138295D01*
Y131731D01*
X143051Y131512D01*
X142788Y131118D01*
X142696Y130654D01*
Y124354D01*
X142788Y123890D01*
X143051Y123496D01*
X143445Y123233D01*
X143909Y123141D01*
X145091D01*
X145555Y123233D01*
X145949Y123496D01*
X146212Y123890D01*
X146304Y124354D01*
Y130654D01*
X146212Y131118D01*
X145949Y131512D01*
X145622Y131731D01*
Y138759D01*
X145622Y138759D01*
X145536Y139189D01*
X145293Y139552D01*
X145293Y139552D01*
X141552Y143293D01*
X141189Y143536D01*
X140759Y143622D01*
X140759Y143622D01*
X133711D01*
X132622Y144711D01*
Y153743D01*
X133158Y154102D01*
X133667Y154862D01*
X133845Y155760D01*
X133667Y156657D01*
X133158Y157418D01*
X132397Y157926D01*
X131500Y158105D01*
X130603Y157926D01*
X129842Y157418D01*
X129333Y156657D01*
X129155Y155760D01*
X129333Y154862D01*
X129842Y154102D01*
X130378Y153743D01*
Y144246D01*
X130378Y144246D01*
X130464Y143817D01*
X130707Y143453D01*
X132453Y141707D01*
X132453Y141707D01*
X132817Y141464D01*
X133247Y141378D01*
X133247Y141378D01*
X135244D01*
X135480Y140937D01*
X135310Y140683D01*
X135131Y139786D01*
X135310Y138889D01*
X135818Y138128D01*
X136355Y137769D01*
Y133903D01*
X136355Y133903D01*
X136440Y133473D01*
X136683Y133109D01*
X138072Y131721D01*
X138051Y131512D01*
X137788Y131118D01*
X137696Y130654D01*
Y124354D01*
X137750Y124082D01*
X137289Y123835D01*
X131529Y129596D01*
Y130454D01*
X131556Y130472D01*
X132064Y131233D01*
X132243Y132130D01*
X132064Y133027D01*
X131556Y133788D01*
X131529Y133806D01*
Y134567D01*
X131405Y135191D01*
X131051Y135721D01*
X111417Y155355D01*
X110887Y155709D01*
X110263Y155833D01*
X87446D01*
X69148Y174131D01*
X69154Y174163D01*
X68976Y175060D01*
X68467Y175821D01*
X67707Y176329D01*
X66809Y176508D01*
D02*
G37*
G36*
X286500Y122815D02*
X283063D01*
X283134Y122279D01*
X283534Y121314D01*
X284170Y120485D01*
X284999Y119849D01*
X285964Y119449D01*
X286500Y119378D01*
Y122815D01*
D02*
G37*
G36*
X284846Y116969D02*
X282181D01*
Y114500D01*
X284846D01*
Y116969D01*
D02*
G37*
G36*
Y113500D02*
X282181D01*
Y111031D01*
X284846D01*
Y113500D01*
D02*
G37*
G36*
X119846Y139786D02*
X118949Y139608D01*
X118188Y139099D01*
X117680Y138338D01*
X117501Y137441D01*
X117680Y136544D01*
X118188Y135783D01*
X118802Y135373D01*
Y115077D01*
X118802Y115077D01*
X118887Y114648D01*
X119130Y114284D01*
X126781Y106633D01*
X126655Y106000D01*
X126833Y105103D01*
X127342Y104342D01*
X128103Y103833D01*
X129000Y103655D01*
X129897Y103833D01*
X130658Y104342D01*
X131167Y105103D01*
X131345Y106000D01*
X131167Y106897D01*
X130658Y107658D01*
X129897Y108167D01*
X129000Y108345D01*
X128367Y108219D01*
X121045Y115541D01*
Y135476D01*
X121505Y135783D01*
X122013Y136544D01*
X122192Y137441D01*
X122013Y138338D01*
X121505Y139099D01*
X120744Y139608D01*
X119846Y139786D01*
D02*
G37*
G36*
X180091Y94859D02*
X178909D01*
X178445Y94767D01*
X178051Y94504D01*
X177788Y94110D01*
X177696Y93646D01*
Y87347D01*
X177788Y86882D01*
X178051Y86488D01*
X178445Y86225D01*
X178909Y86133D01*
X180091D01*
X180555Y86225D01*
X180949Y86488D01*
X181212Y86882D01*
X181304Y87347D01*
Y93646D01*
X181212Y94110D01*
X180949Y94504D01*
X180555Y94767D01*
X180091Y94859D01*
D02*
G37*
G36*
X175091D02*
X173909D01*
X173445Y94767D01*
X173051Y94504D01*
X172788Y94110D01*
X172696Y93646D01*
Y87347D01*
X172788Y86882D01*
X173051Y86488D01*
X173445Y86225D01*
X173909Y86133D01*
X175091D01*
X175555Y86225D01*
X175949Y86488D01*
X176212Y86882D01*
X176304Y87347D01*
Y93646D01*
X176212Y94110D01*
X175949Y94504D01*
X175555Y94767D01*
X175091Y94859D01*
D02*
G37*
G36*
X159500Y102099D02*
X158603Y101920D01*
X157842Y101412D01*
X157333Y100651D01*
X157155Y99753D01*
X157333Y98856D01*
X157842Y98095D01*
X158378Y97737D01*
Y94723D01*
X158051Y94504D01*
X157788Y94110D01*
X157696Y93646D01*
Y87347D01*
X157788Y86882D01*
X158051Y86488D01*
X158445Y86225D01*
X158909Y86133D01*
X160091D01*
X160555Y86225D01*
X160949Y86488D01*
X161212Y86882D01*
X161304Y87347D01*
Y93646D01*
X161212Y94110D01*
X160949Y94504D01*
X160622Y94723D01*
Y97737D01*
X161158Y98095D01*
X161667Y98856D01*
X161845Y99753D01*
X161667Y100651D01*
X161158Y101412D01*
X160397Y101920D01*
X159500Y102099D01*
D02*
G37*
G36*
X154500Y99499D02*
X153603Y99320D01*
X152842Y98812D01*
X152333Y98051D01*
X152155Y97154D01*
X152333Y96256D01*
X152842Y95495D01*
X153313Y95181D01*
Y94679D01*
X153051Y94504D01*
X152788Y94110D01*
X152696Y93646D01*
Y87347D01*
X152788Y86882D01*
X153051Y86488D01*
X153445Y86225D01*
X153909Y86133D01*
X155091D01*
X155555Y86225D01*
X155949Y86488D01*
X156212Y86882D01*
X156304Y87347D01*
Y93646D01*
X156212Y94110D01*
X155949Y94504D01*
X155687Y94679D01*
Y95181D01*
X156158Y95495D01*
X156667Y96256D01*
X156845Y97154D01*
X156667Y98051D01*
X156158Y98812D01*
X155397Y99320D01*
X154500Y99499D01*
D02*
G37*
G36*
X217024Y75920D02*
X216126Y75741D01*
X215365Y75233D01*
X214857Y74472D01*
X214679Y73575D01*
X214857Y72677D01*
X214998Y72466D01*
X214920Y72321D01*
X214667Y72061D01*
X213874Y72219D01*
X212977Y72041D01*
X212216Y71532D01*
X211707Y70771D01*
X211529Y69874D01*
X211707Y68977D01*
X212216Y68216D01*
X212753Y67857D01*
Y34097D01*
X211324D01*
Y28596D01*
X216424D01*
Y34097D01*
X214996D01*
Y67857D01*
X215402Y68129D01*
X215902Y67938D01*
Y66805D01*
X215902Y66805D01*
X215987Y66376D01*
X216231Y66012D01*
X218441Y63801D01*
Y34097D01*
X217013D01*
Y28596D01*
X222113D01*
Y34097D01*
X220685D01*
Y64266D01*
X220685Y64266D01*
X220599Y64695D01*
X220356Y65059D01*
X220356Y65059D01*
X218145Y67270D01*
Y71558D01*
X218682Y71917D01*
X219190Y72677D01*
X219369Y73575D01*
X219190Y74472D01*
X218682Y75233D01*
X217921Y75741D01*
X217024Y75920D01*
D02*
G37*
G36*
X165091Y94859D02*
X163909D01*
X163445Y94767D01*
X163051Y94504D01*
X162788Y94110D01*
X162696Y93646D01*
Y87347D01*
X162788Y86882D01*
X163051Y86488D01*
X163378Y86269D01*
Y75040D01*
X162842Y74682D01*
X162333Y73921D01*
X162155Y73024D01*
X162333Y72126D01*
X162842Y71365D01*
X163603Y70857D01*
X164500Y70679D01*
X165397Y70857D01*
X166158Y71365D01*
X166667Y72126D01*
X166845Y73024D01*
X166667Y73921D01*
X166158Y74682D01*
X165622Y75040D01*
Y86269D01*
X165949Y86488D01*
X166212Y86882D01*
X166304Y87347D01*
Y93646D01*
X166212Y94110D01*
X165949Y94504D01*
X165555Y94767D01*
X165091Y94859D01*
D02*
G37*
G36*
X199500Y61819D02*
X197031D01*
Y59153D01*
X199500D01*
Y61819D01*
D02*
G37*
G36*
Y58153D02*
X197031D01*
Y55488D01*
X199500D01*
Y58153D01*
D02*
G37*
G36*
X194976Y55445D02*
X194079Y55266D01*
X193318Y54758D01*
X192810Y53997D01*
X192631Y53100D01*
X192810Y52203D01*
X192903Y52062D01*
X192668Y51622D01*
X191818D01*
Y52184D01*
X186718D01*
Y46684D01*
X191818D01*
Y49378D01*
X194390D01*
X194391Y49378D01*
X194820Y49464D01*
X195184Y49707D01*
X195769Y50293D01*
X195769Y50293D01*
X196013Y50657D01*
X196097Y51083D01*
X196635Y51442D01*
X197143Y52203D01*
X197321Y53100D01*
X197143Y53997D01*
X196635Y54758D01*
X195874Y55266D01*
X194976Y55445D01*
D02*
G37*
G36*
X170091Y94859D02*
X168909D01*
X168445Y94767D01*
X168051Y94504D01*
X167788Y94110D01*
X167696Y93646D01*
Y87347D01*
X167788Y86882D01*
X168051Y86488D01*
X168378Y86269D01*
Y50393D01*
X167842Y50035D01*
X167333Y49274D01*
X167155Y48376D01*
X167333Y47479D01*
X167842Y46718D01*
X168603Y46210D01*
X169500Y46031D01*
X170397Y46210D01*
X171158Y46718D01*
X171667Y47479D01*
X171845Y48376D01*
X171667Y49274D01*
X171158Y50035D01*
X170622Y50393D01*
Y86269D01*
X170949Y86488D01*
X171212Y86882D01*
X171304Y87347D01*
Y93646D01*
X171212Y94110D01*
X170949Y94504D01*
X170555Y94767D01*
X170091Y94859D01*
D02*
G37*
G36*
X268500Y38437D02*
X264063D01*
Y34000D01*
X268500D01*
Y38437D01*
D02*
G37*
G36*
X191818Y45491D02*
X186718D01*
Y39991D01*
X188146D01*
Y38017D01*
X187610Y37658D01*
X187101Y36897D01*
X186923Y36000D01*
X187101Y35103D01*
X187610Y34342D01*
X188370Y33833D01*
X189268Y33655D01*
X190165Y33833D01*
X190926Y34342D01*
X191434Y35103D01*
X191613Y36000D01*
X191434Y36897D01*
X190926Y37658D01*
X190389Y38017D01*
Y39991D01*
X191818D01*
Y45491D01*
D02*
G37*
G36*
X174846Y33846D02*
X171000D01*
Y30000D01*
X174846D01*
Y33846D01*
D02*
G37*
G36*
X191819Y151797D02*
X186512D01*
X186199Y151735D01*
X185934Y151558D01*
X185758Y151293D01*
X185695Y150980D01*
Y149789D01*
X184418Y148512D01*
X184175Y148148D01*
X184090Y147719D01*
X184090Y147719D01*
Y140187D01*
X184090Y140187D01*
X184175Y139757D01*
X184418Y139394D01*
X203304Y120508D01*
Y62180D01*
X202969Y61819D01*
X202804Y61819D01*
X200500D01*
Y58653D01*
Y55488D01*
X202804D01*
X202969Y55488D01*
X203304Y55127D01*
Y42907D01*
X199678Y39281D01*
X199103Y39167D01*
X198342Y38658D01*
X197833Y37897D01*
X197655Y37000D01*
X197833Y36103D01*
X198342Y35342D01*
X198878Y34983D01*
Y34096D01*
X197450D01*
Y28596D01*
X202550D01*
Y34096D01*
X201122D01*
Y34983D01*
X201658Y35342D01*
X202167Y36103D01*
X202345Y37000D01*
X202167Y37897D01*
X201886Y38317D01*
X204878Y41310D01*
X205379Y41102D01*
Y39017D01*
X204842Y38658D01*
X204333Y37897D01*
X204155Y37000D01*
X204333Y36103D01*
X204842Y35342D01*
X205379Y34983D01*
Y34159D01*
X203950D01*
Y28659D01*
X209050D01*
Y34159D01*
X207622D01*
Y34983D01*
X208158Y35342D01*
X208667Y36103D01*
X208845Y37000D01*
X208667Y37897D01*
X208158Y38658D01*
X207622Y39017D01*
Y132116D01*
X207622Y132116D01*
X207536Y132545D01*
X207293Y132909D01*
X207293Y132909D01*
X194409Y145793D01*
X194045Y146036D01*
X193616Y146122D01*
X193616Y146122D01*
X192607D01*
X192573Y146293D01*
X192396Y146558D01*
X192131Y146735D01*
X191819Y146797D01*
X186512D01*
X186476Y146826D01*
X186453Y147375D01*
X187281Y148203D01*
X191819D01*
X192131Y148265D01*
X192396Y148442D01*
X192573Y148707D01*
X192635Y149020D01*
Y150980D01*
X192573Y151293D01*
X192396Y151558D01*
X192131Y151735D01*
X191819Y151797D01*
D02*
G37*
G36*
X268500Y33000D02*
X264063D01*
Y28563D01*
X268500D01*
Y33000D01*
D02*
G37*
G36*
X243374Y11569D02*
X237843D01*
Y10122D01*
X235992D01*
X235634Y10658D01*
X234873Y11167D01*
X233976Y11345D01*
X233078Y11167D01*
X232317Y10658D01*
X231809Y9897D01*
X231630Y9000D01*
X231809Y8103D01*
X232317Y7342D01*
X233078Y6833D01*
X233976Y6655D01*
X234873Y6833D01*
X235634Y7342D01*
X235992Y7878D01*
X237843D01*
Y6431D01*
X243374D01*
Y11569D01*
D02*
G37*
G36*
X250466Y11969D02*
X247801D01*
Y9500D01*
X250466D01*
Y11969D01*
D02*
G37*
G36*
X246801D02*
X244136D01*
Y9500D01*
X246801D01*
Y11969D01*
D02*
G37*
G36*
X250466Y8500D02*
X247801D01*
Y6032D01*
X250466D01*
Y8500D01*
D02*
G37*
G36*
X246801D02*
X244136D01*
Y6032D01*
X246801D01*
Y8500D01*
D02*
G37*
%LPD*%
G36*
X205379Y131651D02*
Y122312D01*
X204878Y122105D01*
X186333Y140651D01*
Y143056D01*
X186512Y143203D01*
X191819D01*
X192131Y143265D01*
X192396Y143442D01*
X192573Y143707D01*
X192607Y143878D01*
X193151D01*
X205379Y131651D01*
D02*
G37*
%LPC*%
G36*
X383380Y420190D02*
Y416500D01*
X387070D01*
X387014Y416925D01*
X386561Y418019D01*
X385839Y418959D01*
X384899Y419681D01*
X383805Y420134D01*
X383380Y420190D01*
D02*
G37*
G36*
X381880D02*
X381455Y420134D01*
X380361Y419681D01*
X379420Y418959D01*
X378699Y418019D01*
X378246Y416925D01*
X378190Y416500D01*
X381880D01*
Y420190D01*
D02*
G37*
G36*
X387070Y415000D02*
X383380D01*
Y411310D01*
X383805Y411366D01*
X384899Y411819D01*
X385839Y412541D01*
X386561Y413481D01*
X387014Y414575D01*
X387070Y415000D01*
D02*
G37*
G36*
X381880D02*
X378190D01*
X378246Y414575D01*
X378699Y413481D01*
X379420Y412541D01*
X380361Y411819D01*
X381455Y411366D01*
X381880Y411310D01*
Y415000D01*
D02*
G37*
G36*
X354971Y249196D02*
Y246010D01*
X358157D01*
X358118Y246304D01*
X357715Y247277D01*
X357074Y248113D01*
X356238Y248754D01*
X355265Y249157D01*
X354971Y249196D01*
D02*
G37*
G36*
X353471D02*
X353177Y249157D01*
X352204Y248754D01*
X351368Y248113D01*
X350727Y247277D01*
X350324Y246304D01*
X350285Y246010D01*
X353471D01*
Y249196D01*
D02*
G37*
G36*
X358157Y244510D02*
X354971D01*
Y241324D01*
X355265Y241363D01*
X356238Y241766D01*
X357074Y242407D01*
X357715Y243243D01*
X358118Y244216D01*
X358157Y244510D01*
D02*
G37*
G36*
X353471D02*
X350285D01*
X350324Y244216D01*
X350727Y243243D01*
X351368Y242407D01*
X352204Y241766D01*
X353177Y241363D01*
X353471Y241324D01*
Y244510D01*
D02*
G37*
G36*
X384065Y188440D02*
Y184750D01*
X387755D01*
X387699Y185175D01*
X387246Y186269D01*
X386524Y187209D01*
X385584Y187931D01*
X384490Y188384D01*
X384065Y188440D01*
D02*
G37*
G36*
X382565D02*
X382140Y188384D01*
X381046Y187931D01*
X380105Y187209D01*
X379384Y186269D01*
X378931Y185175D01*
X378875Y184750D01*
X382565D01*
Y188440D01*
D02*
G37*
G36*
X387755Y183250D02*
X384065D01*
Y179560D01*
X384490Y179616D01*
X385584Y180069D01*
X386524Y180791D01*
X387246Y181731D01*
X387699Y182825D01*
X387755Y183250D01*
D02*
G37*
G36*
X382565D02*
X378875D01*
X378931Y182825D01*
X379384Y181731D01*
X380105Y180791D01*
X381046Y180069D01*
X382140Y179616D01*
X382565Y179560D01*
Y183250D01*
D02*
G37*
%LPD*%
D10*
X349500Y85300D02*
Y86051D01*
X41000Y64400D02*
X58800D01*
X60600Y66200D01*
X60700Y66100D01*
X330937Y60437D02*
X334500D01*
X7000Y143949D02*
Y160776D01*
Y140000D02*
Y143949D01*
X14047Y167823D02*
X17000D01*
X7000Y160776D02*
X14047Y167823D01*
X17000Y183177D02*
X38000Y183122D01*
X323654Y111898D02*
X349500Y86051D01*
X323654Y111898D02*
Y117000D01*
X328500Y58000D02*
X330937Y60437D01*
X346460Y65342D02*
Y76960D01*
X349500Y80000D01*
X339602Y65342D02*
X346460D01*
X334500Y60240D02*
X339602Y65342D01*
D11*
X373800Y56900D02*
X388700D01*
X357761Y50263D02*
X367163D01*
X373800Y56900D01*
X361300Y85553D02*
Y94500D01*
Y85553D02*
X361554Y85300D01*
X388700Y77153D02*
X390054Y78507D01*
X394207D01*
X390000D02*
X390054D01*
X394207D02*
X399500Y83800D01*
X372200Y65500D02*
X372821Y66121D01*
X388079D01*
X388700Y66742D01*
X354512Y45658D02*
X387300D01*
X331264D02*
X354512D01*
X362200Y75500D02*
X368247Y81546D01*
Y85300D01*
X376003D01*
X388700Y66742D02*
Y77153D01*
X390047Y85300D02*
X390100Y85246D01*
X382696Y85300D02*
X390047D01*
X371704Y65996D02*
X372200Y65500D01*
X354594Y65996D02*
X371704D01*
X354512Y53513D02*
X357761Y50263D01*
X387300Y45658D02*
X388700Y47058D01*
X80038Y74000D02*
Y89588D01*
X328921Y48000D02*
X331264Y45658D01*
X353940Y65342D02*
X354594Y65996D01*
X349500Y80000D02*
Y85300D01*
X361280D01*
X121000Y3000D02*
X266811D01*
X275500Y11689D01*
X108488Y15512D02*
X121000Y3000D01*
X80038Y66907D02*
Y74000D01*
X330516Y116831D02*
X337000Y123315D01*
X142654Y60457D02*
X142850Y60654D01*
X88181Y118000D02*
X122091Y84091D01*
X419579Y75685D02*
X419869Y75395D01*
X381000Y114264D02*
X419579Y75685D01*
X192908Y17561D02*
X200000Y24654D01*
X192908Y17561D02*
X192908Y17561D01*
X135711Y12289D02*
X142000Y6000D01*
X181381Y6842D02*
X181652D01*
X180539Y6000D02*
X181381Y6842D01*
X142000Y6000D02*
X180539D01*
X71000Y165000D02*
Y165453D01*
X381000Y114264D02*
Y167000D01*
X129897Y132130D02*
Y134567D01*
Y128920D02*
Y132130D01*
Y128920D02*
X137094Y121723D01*
X110263Y154201D02*
X129897Y134567D01*
X86770Y154201D02*
X110263D01*
X66809Y174163D02*
X86770Y154201D01*
X139500Y50976D02*
Y61400D01*
X79495Y118000D02*
X88181D01*
X74100Y112100D02*
X88800D01*
X139500Y61400D01*
X27923Y165494D02*
X37677Y175248D01*
X18169Y155740D02*
X27923Y165494D01*
Y165126D02*
X30584Y162465D01*
X27923Y165126D02*
Y165494D01*
X37677Y175248D02*
X38000D01*
X213354Y180000D02*
X230000D01*
X205283Y171929D02*
X213354Y180000D01*
X181688Y6878D02*
X192371Y17561D01*
X192908D01*
X267250Y42000D02*
X275500D01*
X263563Y45687D02*
X267250Y42000D01*
X275500Y11689D02*
Y42000D01*
X263563Y45687D02*
Y98909D01*
X108488Y15512D02*
Y27980D01*
X263563Y98909D02*
X278654Y114000D01*
X233563Y39563D02*
X248000Y54000D01*
X233563Y33500D02*
Y39563D01*
X226969Y13431D02*
X234224Y20687D01*
X233563Y33500D02*
X234224Y32839D01*
Y20687D02*
Y32839D01*
X277000Y115654D02*
Y123315D01*
Y115654D02*
X278654Y114000D01*
X248000Y54000D02*
Y74500D01*
X192908Y17561D02*
X197037Y13431D01*
X226969D01*
X200000Y24654D02*
X200063Y24716D01*
X206500D01*
X135711Y28661D02*
X142654D01*
X128768D02*
X135711D01*
Y12289D02*
Y28661D01*
X74000Y104000D02*
X86000D01*
X92396Y92880D02*
X128000Y57276D01*
X74736Y92880D02*
X92396D01*
X131827Y46000D02*
Y58173D01*
X142654Y28661D02*
X149661D01*
X142654D02*
Y60457D01*
X94000Y96000D02*
X131827Y58173D01*
X76000Y96000D02*
X94000D01*
X149661Y28661D02*
X150500Y29500D01*
X128087Y27980D02*
X128768Y28661D01*
X94000Y42469D02*
Y68000D01*
X108488Y27980D02*
X119032D01*
X94000Y42469D02*
X108488Y27980D01*
X79847Y74000D02*
X80038D01*
X88000D02*
X94000Y68000D01*
X80038Y74000D02*
X88000D01*
X51808Y120192D02*
X76000Y96000D01*
X38000Y140000D02*
X74000Y104000D01*
X51808Y120192D02*
Y121808D01*
X49808Y117808D02*
X74736Y92880D01*
X80038Y66907D02*
X80803Y66142D01*
X79847Y89780D02*
X80038Y89588D01*
X79847Y81000D02*
Y89780D01*
X38000Y140000D02*
Y151626D01*
X57169Y140326D02*
X79495Y118000D01*
X63468Y152000D02*
X65831Y154362D01*
X46248Y152000D02*
X63468D01*
X45874Y151626D02*
X46248Y152000D01*
X45874Y140326D02*
Y151626D01*
Y140326D02*
X74100Y112100D01*
X40700Y208257D02*
X79577Y169381D01*
X126210D02*
X142091Y153500D01*
X79577Y169381D02*
X126210D01*
X43700Y209500D02*
X79577Y173623D01*
X128967D01*
X142091Y160500D01*
X30197Y151626D02*
X38000D01*
X26831Y148260D02*
X30197Y151626D01*
X37400Y158900D02*
X38000Y159500D01*
X29991Y158900D02*
X37400D01*
X26831Y155740D02*
X29991Y158900D01*
X43700Y294860D02*
X46340Y297500D01*
X43700Y209500D02*
Y294860D01*
X40700Y208257D02*
Y294460D01*
X37660Y297500D02*
X40700Y294460D01*
X149500Y307846D02*
Y317000D01*
X45874Y159500D02*
X46771D01*
X47511Y158760D02*
X57169D01*
X46771Y159500D02*
X47511Y158760D01*
X51000Y166240D02*
X57169D01*
X45874Y167374D02*
X49866D01*
X51000Y166240D01*
X65831Y154362D02*
Y158760D01*
X354481Y245000D02*
X366000D01*
X354221Y245260D02*
X354481Y245000D01*
X327185Y416000D02*
X363500D01*
X326685Y416500D02*
X327185Y416000D01*
X326685Y183500D02*
X358429D01*
X330516Y111169D02*
Y116831D01*
Y111169D02*
X330685Y111000D01*
X317000Y123315D02*
X317339D01*
X323654Y117000D01*
X322819Y43000D02*
X328450D01*
X328500Y43050D01*
X322819Y58000D02*
X328500D01*
X322819Y48000D02*
X328921D01*
X334500Y52760D02*
X335253Y53513D01*
X343488D01*
X334260Y53000D02*
X334500Y52760D01*
X322819Y53000D02*
X334260D01*
D15*
X233976Y9000D02*
X240608D01*
X149500Y83105D02*
Y83589D01*
X147219Y85870D02*
Y101135D01*
Y85870D02*
X149500Y83589D01*
X176943Y132669D02*
Y137000D01*
X174500Y127504D02*
X175125Y128129D01*
Y130851D01*
X176943Y132669D01*
X148433Y161053D02*
X158437D01*
X219563Y18700D02*
Y24654D01*
X218500Y17637D02*
X219563Y18700D01*
X218500Y17500D02*
Y17637D01*
X189165Y145000D02*
X193616D01*
X206500Y37000D02*
Y132116D01*
X193616Y145000D02*
X206500Y132116D01*
X185211Y140187D02*
X204425Y120972D01*
Y42443D02*
Y120972D01*
X185211Y140187D02*
Y147719D01*
X139500Y127504D02*
Y131879D01*
X137477Y133903D02*
Y139786D01*
Y133903D02*
X139500Y131879D01*
X126906Y7831D02*
Y13240D01*
X269000Y47500D02*
X269541D01*
X270041Y48000D02*
X285181D01*
X269541Y47500D02*
X270041Y48000D01*
X276763Y43000D02*
X285181D01*
X275763Y42000D02*
X276763Y43000D01*
X275500Y42000D02*
X275763D01*
X149644Y154360D02*
X158437D01*
X148784Y153500D02*
X149644Y154360D01*
X137094Y120743D02*
X137477Y120361D01*
X137094Y120743D02*
Y121723D01*
X137477Y120155D02*
Y120361D01*
X135681Y90000D02*
X136448Y90767D01*
X119923Y115077D02*
Y137364D01*
X119846Y137441D02*
X119923Y137364D01*
Y115077D02*
X129000Y106000D01*
X151937Y148409D02*
X152681Y147665D01*
X157437D01*
X159772Y150000D01*
X167709D01*
X160500Y29500D02*
X177697Y46696D01*
Y76196D02*
X186500Y85000D01*
X177697Y46696D02*
Y76196D01*
X175745Y47592D02*
Y76508D01*
X165654Y37500D02*
X175745Y47592D01*
Y76508D02*
X187737Y88500D01*
X269000Y52846D02*
X269153Y53000D01*
X285181D01*
X275500Y58000D02*
X285181D01*
X209250Y20000D02*
Y20030D01*
X213874Y24654D01*
Y31409D02*
Y69874D01*
X194963Y68486D02*
X201276Y74799D01*
X217024Y66805D02*
Y73575D01*
Y66805D02*
X219563Y64266D01*
X206500Y31409D02*
Y37000D01*
X200383Y38400D02*
X204425Y42443D01*
X219563Y32010D02*
Y64266D01*
X164500Y73024D02*
Y90496D01*
X169500Y48376D02*
Y90496D01*
X135681Y90000D02*
Y118360D01*
X137477Y120155D01*
X199743Y65604D02*
X200000Y65346D01*
X197500Y65604D02*
X199743D01*
X199846Y58807D02*
X200000Y58653D01*
X197500Y58807D02*
X199846D01*
X201276Y74799D02*
Y118390D01*
X192000Y127665D02*
X201276Y118390D01*
X187737Y88500D02*
X194567D01*
X186500Y85000D02*
X197637D01*
X123559Y23654D02*
X124145Y24240D01*
X123559Y16587D02*
Y23654D01*
Y16587D02*
X126906Y13240D01*
X124145Y24240D02*
X128087D01*
X200000Y37000D02*
X200383Y37383D01*
X189268Y36000D02*
Y42741D01*
X157219Y120361D02*
Y140754D01*
X157437Y140972D01*
X161465Y145000D01*
X167709D01*
X187492Y150000D02*
X189165D01*
X185211Y147719D02*
X187492Y150000D01*
X200383Y37383D02*
Y38400D01*
X179500Y124945D02*
Y127504D01*
X179988Y120361D02*
X180242Y120614D01*
X186311D01*
X167494Y133850D02*
Y137000D01*
Y133850D02*
X169500Y131845D01*
Y127504D02*
Y131845D01*
X186114Y127504D02*
X186311Y127307D01*
X179500Y127504D02*
X186114D01*
X136718Y90496D02*
X139500D01*
X136222Y90000D02*
X136718Y90496D01*
X135681Y90000D02*
X136222D01*
X147219Y101135D02*
X149500Y103416D01*
X153000Y104654D02*
X188792D01*
X149500Y101154D02*
X153000Y104654D01*
X149500Y90496D02*
Y101154D01*
X144500Y87574D02*
Y90496D01*
X142000Y85074D02*
X144500Y87574D01*
X142000Y84711D02*
Y85074D01*
X149500Y103416D02*
Y127504D01*
X154500Y90496D02*
Y97154D01*
X159500Y90496D02*
Y99753D01*
X120213Y13240D02*
Y15290D01*
X119032Y20500D02*
X120283Y19248D01*
X120213Y15290D02*
X120283Y15361D01*
Y19248D01*
X190334Y50500D02*
X194391D01*
X194976Y51086D02*
Y53100D01*
X194391Y50500D02*
X194976Y51086D01*
X189268Y49434D02*
X190334Y50500D01*
X183500Y33686D02*
Y73024D01*
X174161Y24347D02*
X183500Y33686D01*
X155347Y31200D02*
X161646Y37500D01*
X165654D01*
X131500Y144246D02*
Y155760D01*
Y144246D02*
X133247Y142500D01*
X140759D01*
X144500Y138759D01*
Y127504D02*
Y138759D01*
X200000Y31346D02*
Y37000D01*
X155347Y24347D02*
Y31200D01*
X150500Y19500D02*
X155347Y24347D01*
X160500Y19500D02*
X165347Y24347D01*
X174161D01*
X158437Y154557D02*
X160380Y156500D01*
X189165Y155000D02*
X196590D01*
X189165Y160000D02*
X195104D01*
X166035Y155000D02*
X167709D01*
X159906Y159388D02*
X160102D01*
X158437Y160856D02*
X159906Y159388D01*
X166035Y160000D02*
X167709D01*
X160102Y159388D02*
X160783Y158707D01*
X165354Y155681D02*
Y155914D01*
X164769Y156500D02*
X165354Y155914D01*
Y155681D02*
X166035Y155000D01*
X198091Y150167D02*
Y153500D01*
X196590Y155000D02*
X198091Y153500D01*
X197937Y162833D02*
X198091D01*
X195104Y160000D02*
X197937Y162833D01*
X165354Y159292D02*
Y159319D01*
X166035Y160000D01*
X164769Y158707D02*
X165354Y159292D01*
X160783Y158707D02*
X164769D01*
X160380Y156500D02*
X164769D01*
D30*
X376003Y85300D02*
D03*
X382696D02*
D03*
X126906Y13240D02*
D03*
X120213D02*
D03*
X142091Y153500D02*
D03*
X148784D02*
D03*
X142091Y160500D02*
D03*
X148784D02*
D03*
X361554Y85300D02*
D03*
X368247D02*
D03*
D31*
X206500Y31409D02*
D03*
Y24716D02*
D03*
X200000Y31346D02*
D03*
Y24654D02*
D03*
X189268Y42741D02*
D03*
Y49434D02*
D03*
X213874Y24654D02*
D03*
Y31346D02*
D03*
X219563Y24654D02*
D03*
Y31346D02*
D03*
X390000Y85200D02*
D03*
Y78507D02*
D03*
X149500Y301153D02*
D03*
Y307846D02*
D03*
D32*
X353940Y65342D02*
D03*
X346460D02*
D03*
D33*
X334500Y52760D02*
D03*
Y60240D02*
D03*
D35*
X79847Y74000D02*
D03*
X73154D02*
D03*
X79847Y81000D02*
D03*
X73154D02*
D03*
X240608Y9000D02*
D03*
X247301D02*
D03*
X278654Y114000D02*
D03*
X285347D02*
D03*
X330346Y117000D02*
D03*
X323654D02*
D03*
D36*
X53100Y65053D02*
D03*
Y71746D02*
D03*
X186311Y120614D02*
D03*
Y127307D02*
D03*
X200000Y65346D02*
D03*
Y58653D02*
D03*
X157437Y147665D02*
D03*
Y140972D02*
D03*
X158437Y161053D02*
D03*
Y154360D02*
D03*
D89*
X436500Y15500D02*
D03*
X540700Y12500D02*
D03*
D94*
X24500Y22000D02*
D03*
Y408500D02*
D03*
D104*
X354221Y245260D02*
D03*
D116*
X515839Y100873D02*
X548000D01*
X467130Y110213D02*
Y144898D01*
X489732Y167500D01*
X459445Y29000D02*
X467130Y36685D01*
Y61000D01*
X506500Y110213D02*
X515839Y100873D01*
X506500Y41000D02*
X518500Y29000D01*
X506500Y41000D02*
Y61000D01*
D117*
X430929Y185000D02*
X496543Y250614D01*
X422000Y185000D02*
X430929D01*
X422000Y415750D02*
X422191Y415559D01*
X436941D01*
X498040Y354460D01*
D124*
X10000Y305856D02*
D03*
Y344911D02*
D03*
X23386Y305856D02*
D03*
Y344911D02*
D03*
D125*
X362200Y75500D02*
D03*
X372200Y65500D02*
D03*
X362200Y55500D02*
D03*
D126*
X170500Y29500D02*
D03*
D127*
Y19500D02*
D03*
X160500Y29500D02*
D03*
Y19500D02*
D03*
X150500Y29500D02*
D03*
Y19500D02*
D03*
D128*
X505000Y252000D02*
D03*
Y347500D02*
D03*
X266000Y330000D02*
D03*
Y269000D02*
D03*
D129*
X361300Y94500D02*
D03*
X399500Y83800D02*
D03*
X80803Y66142D02*
D03*
X70803D02*
D03*
D130*
X419000Y15500D02*
D03*
X558201Y12500D02*
D03*
D131*
X402701Y15500D02*
D03*
X574500Y12500D02*
D03*
D132*
X75300Y251641D02*
D03*
D133*
Y220460D02*
D03*
D134*
X15500Y206500D02*
D03*
Y265600D02*
D03*
D135*
X233563Y33500D02*
D03*
X253563D02*
D03*
X243563D02*
D03*
X506500Y110213D02*
D03*
Y61000D02*
D03*
X467130Y110213D02*
D03*
Y61000D02*
D03*
D136*
X263563Y33500D02*
D03*
D137*
X60803Y66142D02*
D03*
D138*
X354500Y153500D02*
D03*
X583500Y46000D02*
D03*
X594000Y408500D02*
D03*
D139*
X45874Y175248D02*
D03*
Y167374D02*
D03*
X38000Y175248D02*
D03*
Y183122D02*
D03*
Y167374D02*
D03*
X45874Y151626D02*
D03*
Y159500D02*
D03*
X38000Y151626D02*
D03*
Y159500D02*
D03*
D140*
X45874Y183122D02*
D03*
D141*
X149500Y317000D02*
D03*
Y327000D02*
D03*
X230000Y180000D02*
D03*
X548000Y111000D02*
D03*
Y101000D02*
D03*
D142*
X337000Y123315D02*
D03*
X287000D02*
D03*
X317000D02*
D03*
X258567Y187921D02*
D03*
D143*
X277000Y123315D02*
D03*
D144*
X200000Y316028D02*
D03*
X143000Y268528D02*
D03*
X120000Y318500D02*
D03*
D145*
X200000Y286500D02*
D03*
X143000Y239000D02*
D03*
D146*
X53500Y344815D02*
D03*
D147*
Y364500D02*
D03*
D148*
X514500Y220000D02*
D03*
X594539D02*
D03*
D149*
X230000Y187874D02*
D03*
D150*
X388700Y47058D02*
D03*
D151*
Y66742D02*
D03*
Y56900D02*
D03*
D152*
X459445Y29000D02*
D03*
X518500D02*
D03*
D153*
X598000Y167500D02*
D03*
X489732D02*
D03*
D154*
X325685Y183000D02*
D03*
X286315D02*
D03*
X419579Y36315D02*
D03*
Y75685D02*
D03*
X422000Y415750D02*
D03*
X382630D02*
D03*
X326685Y416500D02*
D03*
X287315D02*
D03*
X547500Y73185D02*
D03*
Y33815D02*
D03*
X422685Y184000D02*
D03*
X383315D02*
D03*
D155*
X258567Y178079D02*
D03*
D156*
X192170Y420800D02*
D03*
X152800D02*
D03*
D157*
X90472Y318500D02*
D03*
D158*
X195000Y267000D02*
D03*
X235000D02*
D03*
X240000Y257000D02*
D03*
X200000Y277000D02*
D03*
X255000Y247000D02*
D03*
X265000D02*
D03*
X215000D02*
D03*
X250000Y277000D02*
D03*
Y257000D02*
D03*
X225000Y267000D02*
D03*
X220000Y257000D02*
D03*
X210000Y277000D02*
D03*
X230000D02*
D03*
X210000Y257000D02*
D03*
X235000Y247000D02*
D03*
X215000Y267000D02*
D03*
X230000Y257000D02*
D03*
X240000Y277000D02*
D03*
X280000Y257000D02*
D03*
X200000D02*
D03*
X245000Y267000D02*
D03*
X280000Y277000D02*
D03*
X245000Y247000D02*
D03*
X275000D02*
D03*
X205000Y267000D02*
D03*
Y247000D02*
D03*
X195000D02*
D03*
X225000D02*
D03*
X220000Y277000D02*
D03*
X93100Y100700D02*
D03*
X90700Y80500D02*
D03*
X354512Y45658D02*
D03*
X233976Y9000D02*
D03*
X45600Y64500D02*
D03*
X41000Y64400D02*
D03*
X283000Y22000D02*
D03*
X275000Y162000D02*
D03*
X282500Y147000D02*
D03*
X275000Y132000D02*
D03*
X260000D02*
D03*
X267500Y117000D02*
D03*
X260000Y102000D02*
D03*
Y72000D02*
D03*
X267500Y57000D02*
D03*
X260000Y42000D02*
D03*
X267500Y27000D02*
D03*
X252500Y117000D02*
D03*
X245000Y102000D02*
D03*
X252500Y87000D02*
D03*
Y57000D02*
D03*
X245000Y42000D02*
D03*
X230000Y162000D02*
D03*
Y132000D02*
D03*
X237500Y117000D02*
D03*
X230000Y102000D02*
D03*
X237500Y87000D02*
D03*
X222500Y147000D02*
D03*
X215000Y132000D02*
D03*
X222500Y117000D02*
D03*
X215000Y102000D02*
D03*
X192500Y117000D02*
D03*
Y27000D02*
D03*
X177500Y117000D02*
D03*
X170000Y12000D02*
D03*
X162500Y117000D02*
D03*
X155000Y102000D02*
D03*
Y72000D02*
D03*
Y12000D02*
D03*
X147500Y147000D02*
D03*
X140000Y72000D02*
D03*
X125000Y162000D02*
D03*
X132500Y117000D02*
D03*
X125000Y102000D02*
D03*
X132500Y87000D02*
D03*
X110000Y102000D02*
D03*
X102500Y147000D02*
D03*
Y117000D02*
D03*
Y27000D02*
D03*
X95000Y12000D02*
D03*
X87500Y147000D02*
D03*
Y57000D02*
D03*
Y27000D02*
D03*
X80000Y12000D02*
D03*
X72500Y147000D02*
D03*
Y87000D02*
D03*
Y57000D02*
D03*
Y27000D02*
D03*
X50000Y102000D02*
D03*
X57500Y87000D02*
D03*
Y57000D02*
D03*
Y27000D02*
D03*
X50000Y12000D02*
D03*
X42500Y117000D02*
D03*
X35000Y102000D02*
D03*
X42500Y87000D02*
D03*
Y57000D02*
D03*
Y27000D02*
D03*
X27500Y57000D02*
D03*
X20000Y42000D02*
D03*
X12500Y147000D02*
D03*
X5000Y102000D02*
D03*
X12500Y57000D02*
D03*
X5000Y42000D02*
D03*
X225341Y36276D02*
D03*
X144500Y206500D02*
D03*
Y186500D02*
D03*
X139500Y216500D02*
D03*
X134500Y206500D02*
D03*
X139500Y196500D02*
D03*
X134500Y186500D02*
D03*
X129500Y216500D02*
D03*
X124500Y206500D02*
D03*
X129500Y196500D02*
D03*
X124500Y186500D02*
D03*
X119500Y216500D02*
D03*
X114500Y206500D02*
D03*
X119500Y196500D02*
D03*
X114500Y186500D02*
D03*
X109500Y216500D02*
D03*
X104500Y206500D02*
D03*
X109500Y196500D02*
D03*
X104500Y186500D02*
D03*
X99500Y216500D02*
D03*
X94500Y206500D02*
D03*
X99500Y196500D02*
D03*
X94500Y186500D02*
D03*
X89500Y216500D02*
D03*
X84500Y206500D02*
D03*
X89500Y196500D02*
D03*
X74500Y206500D02*
D03*
X79500Y196500D02*
D03*
X64500Y206500D02*
D03*
X69500Y196500D02*
D03*
X59500Y216500D02*
D03*
X49500D02*
D03*
X34500Y226500D02*
D03*
X24500Y246500D02*
D03*
X29500Y236500D02*
D03*
Y216500D02*
D03*
X14500Y246500D02*
D03*
X19500Y236500D02*
D03*
X4500Y246500D02*
D03*
X9500Y236500D02*
D03*
X100000Y307000D02*
D03*
X95000Y297000D02*
D03*
X100000Y287000D02*
D03*
X95000Y277000D02*
D03*
X100000Y267000D02*
D03*
X95000Y257000D02*
D03*
X100000Y247000D02*
D03*
X95000Y237000D02*
D03*
X90000Y307000D02*
D03*
X85000Y297000D02*
D03*
X90000Y287000D02*
D03*
X85000Y277000D02*
D03*
X90000Y267000D02*
D03*
Y247000D02*
D03*
X85000Y237000D02*
D03*
X80000Y307000D02*
D03*
X75000Y297000D02*
D03*
X80000Y287000D02*
D03*
X75000Y277000D02*
D03*
X80000Y267000D02*
D03*
X75000Y237000D02*
D03*
X70000Y307000D02*
D03*
X65000Y297000D02*
D03*
X70000Y287000D02*
D03*
X65000Y277000D02*
D03*
X70000Y267000D02*
D03*
X65000Y237000D02*
D03*
X60000Y307000D02*
D03*
X55000Y297000D02*
D03*
X60000Y287000D02*
D03*
X55000Y277000D02*
D03*
X60000Y267000D02*
D03*
X55000Y257000D02*
D03*
Y237000D02*
D03*
X50000Y287000D02*
D03*
Y267000D02*
D03*
Y247000D02*
D03*
X241930Y73307D02*
D03*
X193004Y136500D02*
D03*
X126906Y7831D02*
D03*
X97158Y147260D02*
D03*
X131827Y46000D02*
D03*
X113421Y23654D02*
D03*
X137477Y139786D02*
D03*
X129897Y132130D02*
D03*
X119846Y137441D02*
D03*
X92943Y132653D02*
D03*
X66809Y174163D02*
D03*
X30584Y162465D02*
D03*
X205283Y171929D02*
D03*
X180000Y36103D02*
D03*
X181652Y6842D02*
D03*
X269000Y47500D02*
D03*
Y52846D02*
D03*
X275500Y58000D02*
D03*
X248000Y74500D02*
D03*
X238000Y58550D02*
D03*
X218500Y17500D02*
D03*
X189268Y36000D02*
D03*
X209250Y20000D02*
D03*
X165550Y60654D02*
D03*
X194963Y68486D02*
D03*
X213874Y69874D02*
D03*
X217024Y73575D02*
D03*
X86000Y104000D02*
D03*
X128000Y57276D02*
D03*
X122000Y84000D02*
D03*
X164500Y73024D02*
D03*
X169500Y48376D02*
D03*
X139500Y50976D02*
D03*
X135681Y90000D02*
D03*
X142850Y60553D02*
D03*
X194567Y88500D02*
D03*
X197637Y85000D02*
D03*
X192000Y127665D02*
D03*
X200000Y37000D02*
D03*
X49808Y117808D02*
D03*
X79847Y89780D02*
D03*
X157219Y120361D02*
D03*
X179988D02*
D03*
X137477D02*
D03*
X188792Y104654D02*
D03*
X142000Y84711D02*
D03*
X129000Y106000D02*
D03*
X149500Y83105D02*
D03*
X154500Y97154D02*
D03*
X159500Y99753D02*
D03*
X51808Y121808D02*
D03*
X57169Y140326D02*
D03*
X197500Y58807D02*
D03*
Y65604D02*
D03*
X194976Y53100D02*
D03*
X131500Y155760D02*
D03*
X206500Y37000D02*
D03*
X183500Y73024D02*
D03*
X275500Y42000D02*
D03*
X30500Y188000D02*
D03*
Y190996D02*
D03*
X102847Y163260D02*
D03*
X7000Y140000D02*
D03*
Y143949D02*
D03*
X46340Y297500D02*
D03*
X37660D02*
D03*
X67000Y391059D02*
D03*
Y383000D02*
D03*
X138600Y390500D02*
D03*
Y382000D02*
D03*
X349500Y80000D02*
D03*
X330685Y111000D02*
D03*
X328500Y43050D02*
D03*
Y58000D02*
D03*
X198091Y150167D02*
D03*
X198091Y162833D02*
D03*
D159*
X272960Y323040D02*
D03*
X275842Y330000D02*
D03*
X266000Y320158D02*
D03*
X259040Y336960D02*
D03*
X256157Y330000D02*
D03*
X266000Y339843D02*
D03*
X259040Y323040D02*
D03*
X272960Y336960D02*
D03*
Y262040D02*
D03*
X275842Y269000D02*
D03*
X266000Y259157D02*
D03*
X259040Y275960D02*
D03*
X256157Y269000D02*
D03*
X266000Y278842D02*
D03*
X259040Y262040D02*
D03*
X272960Y275960D02*
D03*
X511960Y340540D02*
D03*
X514843Y347500D02*
D03*
X505000Y337657D02*
D03*
X498040Y354460D02*
D03*
X495157Y347500D02*
D03*
X505000Y357343D02*
D03*
X498040Y340540D02*
D03*
X511960Y354460D02*
D03*
Y245040D02*
D03*
X514843Y252000D02*
D03*
X505000Y242158D02*
D03*
X498040Y258960D02*
D03*
X495157Y252000D02*
D03*
X505000Y261842D02*
D03*
X498040Y245040D02*
D03*
X511960Y258960D02*
D03*
D160*
X322819Y43000D02*
D03*
Y48000D02*
D03*
Y53000D02*
D03*
Y58000D02*
D03*
X285181D02*
D03*
Y53000D02*
D03*
Y48000D02*
D03*
Y43000D02*
D03*
D161*
X139500Y127504D02*
D03*
X144500D02*
D03*
X149500D02*
D03*
X154500D02*
D03*
X159500D02*
D03*
X164500D02*
D03*
X169500D02*
D03*
X174500D02*
D03*
X179500D02*
D03*
X139500Y90496D02*
D03*
X144500D02*
D03*
X149500D02*
D03*
X154500D02*
D03*
X159500D02*
D03*
X164500D02*
D03*
X169500D02*
D03*
X174500D02*
D03*
X179500D02*
D03*
D162*
X176943Y137000D02*
D03*
X172219D02*
D03*
X167494D02*
D03*
D163*
X128087Y27980D02*
D03*
Y24240D02*
D03*
Y20500D02*
D03*
X119032D02*
D03*
Y27980D02*
D03*
D164*
X354512Y53513D02*
D03*
X343488D02*
D03*
D165*
X17000Y183177D02*
D03*
Y167823D02*
D03*
D166*
X65831Y165453D02*
D03*
X18169Y149047D02*
D03*
D167*
X65831Y158760D02*
D03*
X57169Y166240D02*
D03*
Y158760D02*
D03*
X26831Y148260D02*
D03*
Y155740D02*
D03*
X18169D02*
D03*
D168*
X189165Y160000D02*
D03*
Y155000D02*
D03*
Y150000D02*
D03*
Y145000D02*
D03*
X167709Y160000D02*
D03*
Y150000D02*
D03*
Y155000D02*
D03*
Y145000D02*
D03*
D169*
X30500Y189000D02*
D03*
D170*
Y197000D02*
D03*
D171*
Y203500D02*
D03*
D172*
X31165Y215500D02*
D03*
D173*
X331768Y58750D02*
D03*
M02*
