M48
;Layer_Color=9474304
;FILE_FORMAT=2:5
INCH,TZ
;TYPE=PLATED
T1F00S00C0.00787
T2F00S00C0.00900
T3F00S00C0.01500
T4F00S00C0.02000
T5F00S00C0.02756
T6F00S00C0.03000
T7F00S00C0.03228
T8F00S00C0.03937
T9F00S00C0.04000
T10F00S00C0.04173
T11F00S00C0.05500
T12F00S00C0.05700
T13F00S00C0.14200
%
T01
X260366Y191000
X264500
Y186866
X268634Y191000
X264500Y195134
T02
X263516Y200590
X265060Y202390
X266975Y203475
X263516Y206700
X277030Y194740
X276000Y192000
X279211Y185813
X45347Y93925
X40000Y85000
Y81500
T03
X54000Y54496
X62154Y43036
X88346Y46700
X172500Y37500
X199260Y50260
X241528Y46000
X292450Y123000
X287347Y175650
X295941Y183500
X292000Y194500
X278930Y197750
X284177Y208500
X301965Y204116
X276000Y180800
X251000Y187654
Y203000
X194778Y80482
X164257Y72200
X136500Y87400
X116000Y95000
X108396Y96000
X116000Y111575
X115978Y79737
X75910Y84930
X96535Y130837
X55328Y84840
X55047Y77360
X44724Y81500
X35276Y81400
X28800Y72900
X26028Y59500
X40000Y58100
X140500Y234000
X150000
X163000
X176000Y231000
X172559Y257000
X165975
X160000
X181500
X180500Y282500
X186500
X171500
X163782
X156193
X211309Y277000
X208000Y237000
X229500Y247500
X239500Y240000
X239941Y216469
X271000Y243500
X281500Y240000
X285500Y243300
X278557Y261766
X248000Y308000
T04
X125000Y308000
X118000Y315000
X132000
X151000
X158000Y308000
X165000Y315000
X184000
X191000Y308000
X198000Y315000
T05
X62921Y100000
X70795
X78669
X55047
X47173
X39299
X31425
X23551
T06
X90000Y164500
Y174500
Y184500
X30000
Y174500
Y164500
Y254500
Y264500
Y274500
X90000
Y264500
Y254500
T07
X117500Y208500
Y218500
Y248500
Y258500
Y268500
T08
X253000Y43000
X273000
Y73000
Y83000
X253000
Y73000
X256500Y268500
X246500
X236500
T09
X43160Y34320
X148000Y50217
X188850Y28130
X219000Y102000
X271000
X221000Y199000
X140847Y101000
X124846
X155925Y74800
X58000Y116000
X151500Y258500
X195000Y264500
X196500Y230000
X247957Y230500
X271200Y227000
X281653Y217000
X295500Y248500
T10
X66703Y314331
X76545
X86388
X96231
T11
X251000Y21244
X267299
T12
X13338Y48000
Y68000
T13
X19500Y20500
X301000
X19500Y328000
X301000
M30
