G04 #@! TF.GenerationSoftware,KiCad,Pcbnew,5.1.5-52549c5~84~ubuntu18.04.1*
G04 #@! TF.CreationDate,2020-02-06T22:07:39-05:00*
G04 #@! TF.ProjectId,TSAL,5453414c-2e6b-4696-9361-645f70636258,rev?*
G04 #@! TF.SameCoordinates,Original*
G04 #@! TF.FileFunction,Soldermask,Bot*
G04 #@! TF.FilePolarity,Negative*
%FSLAX46Y46*%
G04 Gerber Fmt 4.6, Leading zero omitted, Abs format (unit mm)*
G04 Created by KiCad (PCBNEW 5.1.5-52549c5~84~ubuntu18.04.1) date 2020-02-06 22:07:39*
%MOMM*%
%LPD*%
G04 APERTURE LIST*
%ADD10C,0.100000*%
G04 APERTURE END LIST*
D10*
G36*
X115889761Y-119222837D02*
G01*
X116148200Y-119301234D01*
X116386372Y-119428539D01*
X116595134Y-119599866D01*
X116766461Y-119808628D01*
X116893766Y-120046800D01*
X116972163Y-120305240D01*
X116992000Y-120506652D01*
X116992000Y-121301349D01*
X116972163Y-121502761D01*
X116893766Y-121761200D01*
X116766461Y-121999372D01*
X116595134Y-122208133D01*
X116386370Y-122379461D01*
X116148199Y-122506766D01*
X115889760Y-122585163D01*
X115621000Y-122611633D01*
X115352239Y-122585163D01*
X115093800Y-122506766D01*
X114855628Y-122379461D01*
X114646867Y-122208134D01*
X114475539Y-121999370D01*
X114348234Y-121761199D01*
X114269837Y-121502760D01*
X114250000Y-121301348D01*
X114250000Y-120506651D01*
X114269837Y-120305239D01*
X114348234Y-120046800D01*
X114475539Y-119808628D01*
X114646866Y-119599867D01*
X114855630Y-119428539D01*
X115093801Y-119301234D01*
X115352240Y-119222837D01*
X115621000Y-119196367D01*
X115889761Y-119222837D01*
G37*
G36*
X121004436Y-119206635D02*
G01*
X121034027Y-119215611D01*
X121061296Y-119230187D01*
X121085198Y-119249802D01*
X121104813Y-119273704D01*
X121119389Y-119300973D01*
X121128365Y-119330564D01*
X121132000Y-119367474D01*
X121132000Y-122440526D01*
X121128365Y-122477436D01*
X121119389Y-122507027D01*
X121104813Y-122534296D01*
X121085198Y-122558198D01*
X121061296Y-122577813D01*
X121034027Y-122592389D01*
X121004436Y-122601365D01*
X120967526Y-122605000D01*
X118554474Y-122605000D01*
X118517564Y-122601365D01*
X118487973Y-122592389D01*
X118460704Y-122577813D01*
X118436802Y-122558198D01*
X118417187Y-122534296D01*
X118402611Y-122507027D01*
X118393635Y-122477436D01*
X118390000Y-122440526D01*
X118390000Y-119367474D01*
X118393635Y-119330564D01*
X118402611Y-119300973D01*
X118417187Y-119273704D01*
X118436802Y-119249802D01*
X118460704Y-119230187D01*
X118487973Y-119215611D01*
X118517564Y-119206635D01*
X118554474Y-119203000D01*
X120967526Y-119203000D01*
X121004436Y-119206635D01*
G37*
G36*
X111659661Y-119326062D02*
G01*
X111958303Y-119449764D01*
X111958305Y-119449765D01*
X112227076Y-119629352D01*
X112455648Y-119857924D01*
X112635236Y-120126697D01*
X112758938Y-120425339D01*
X112822000Y-120742374D01*
X112822000Y-121065626D01*
X112758938Y-121382661D01*
X112709190Y-121502762D01*
X112635235Y-121681305D01*
X112455648Y-121950076D01*
X112227076Y-122178648D01*
X111958305Y-122358235D01*
X111958304Y-122358236D01*
X111958303Y-122358236D01*
X111659661Y-122481938D01*
X111342626Y-122545000D01*
X111019374Y-122545000D01*
X110702339Y-122481938D01*
X110403697Y-122358236D01*
X110403696Y-122358236D01*
X110403695Y-122358235D01*
X110134924Y-122178648D01*
X109906352Y-121950076D01*
X109726765Y-121681305D01*
X109652810Y-121502762D01*
X109603062Y-121382661D01*
X109540000Y-121065626D01*
X109540000Y-120742374D01*
X109603062Y-120425339D01*
X109726764Y-120126697D01*
X109906352Y-119857924D01*
X110134924Y-119629352D01*
X110403695Y-119449765D01*
X110403697Y-119449764D01*
X110702339Y-119326062D01*
X111019374Y-119263000D01*
X111342626Y-119263000D01*
X111659661Y-119326062D01*
G37*
G36*
X114094585Y-105158802D02*
G01*
X114244410Y-105188604D01*
X114526674Y-105305521D01*
X114780705Y-105475259D01*
X114996741Y-105691295D01*
X115166479Y-105945326D01*
X115283396Y-106227590D01*
X115343000Y-106527240D01*
X115343000Y-106832760D01*
X115283396Y-107132410D01*
X115166479Y-107414674D01*
X114996741Y-107668705D01*
X114780705Y-107884741D01*
X114526674Y-108054479D01*
X114244410Y-108171396D01*
X114094585Y-108201198D01*
X113944761Y-108231000D01*
X113639239Y-108231000D01*
X113489415Y-108201198D01*
X113339590Y-108171396D01*
X113057326Y-108054479D01*
X112803295Y-107884741D01*
X112587259Y-107668705D01*
X112417521Y-107414674D01*
X112300604Y-107132410D01*
X112241000Y-106832760D01*
X112241000Y-106527240D01*
X112300604Y-106227590D01*
X112417521Y-105945326D01*
X112587259Y-105691295D01*
X112803295Y-105475259D01*
X113057326Y-105305521D01*
X113339590Y-105188604D01*
X113489415Y-105158802D01*
X113639239Y-105129000D01*
X113944761Y-105129000D01*
X114094585Y-105158802D01*
G37*
G36*
X144828585Y-104498402D02*
G01*
X144978410Y-104528204D01*
X145260674Y-104645121D01*
X145514705Y-104814859D01*
X145730741Y-105030895D01*
X145900479Y-105284926D01*
X146017396Y-105567190D01*
X146077000Y-105866840D01*
X146077000Y-106172360D01*
X146017396Y-106472010D01*
X145900479Y-106754274D01*
X145730741Y-107008305D01*
X145514705Y-107224341D01*
X145260674Y-107394079D01*
X144978410Y-107510996D01*
X144828585Y-107540798D01*
X144678761Y-107570600D01*
X144373239Y-107570600D01*
X144223415Y-107540798D01*
X144073590Y-107510996D01*
X143791326Y-107394079D01*
X143537295Y-107224341D01*
X143321259Y-107008305D01*
X143151521Y-106754274D01*
X143034604Y-106472010D01*
X142975000Y-106172360D01*
X142975000Y-105866840D01*
X143034604Y-105567190D01*
X143151521Y-105284926D01*
X143321259Y-105030895D01*
X143537295Y-104814859D01*
X143791326Y-104645121D01*
X144073590Y-104528204D01*
X144223415Y-104498402D01*
X144373239Y-104468600D01*
X144678761Y-104468600D01*
X144828585Y-104498402D01*
G37*
G36*
X157416242Y-100403404D02*
G01*
X157453337Y-100414657D01*
X157487515Y-100432925D01*
X157517481Y-100457519D01*
X157542075Y-100487485D01*
X157560343Y-100521663D01*
X157571596Y-100558758D01*
X157576000Y-100603474D01*
X157576000Y-101496526D01*
X157571596Y-101541242D01*
X157560343Y-101578337D01*
X157542075Y-101612515D01*
X157517481Y-101642481D01*
X157487515Y-101667075D01*
X157453337Y-101685343D01*
X157416242Y-101696596D01*
X157371526Y-101701000D01*
X155928474Y-101701000D01*
X155883758Y-101696596D01*
X155846663Y-101685343D01*
X155812485Y-101667075D01*
X155782519Y-101642481D01*
X155757925Y-101612515D01*
X155739657Y-101578337D01*
X155728404Y-101541242D01*
X155724000Y-101496526D01*
X155724000Y-100603474D01*
X155728404Y-100558758D01*
X155739657Y-100521663D01*
X155757925Y-100487485D01*
X155782519Y-100457519D01*
X155812485Y-100432925D01*
X155846663Y-100414657D01*
X155883758Y-100403404D01*
X155928474Y-100399000D01*
X157371526Y-100399000D01*
X157416242Y-100403404D01*
G37*
G36*
X164216242Y-98403404D02*
G01*
X164253337Y-98414657D01*
X164287515Y-98432925D01*
X164317481Y-98457519D01*
X164342075Y-98487485D01*
X164360343Y-98521663D01*
X164371596Y-98558758D01*
X164376000Y-98603474D01*
X164376000Y-99496526D01*
X164371596Y-99541242D01*
X164360343Y-99578337D01*
X164342075Y-99612515D01*
X164317481Y-99642481D01*
X164287515Y-99667075D01*
X164253337Y-99685343D01*
X164216242Y-99696596D01*
X164171526Y-99701000D01*
X162728474Y-99701000D01*
X162683758Y-99696596D01*
X162646663Y-99685343D01*
X162612485Y-99667075D01*
X162582519Y-99642481D01*
X162557925Y-99612515D01*
X162539657Y-99578337D01*
X162528404Y-99541242D01*
X162524000Y-99496526D01*
X162524000Y-98603474D01*
X162528404Y-98558758D01*
X162539657Y-98521663D01*
X162557925Y-98487485D01*
X162582519Y-98457519D01*
X162612485Y-98432925D01*
X162646663Y-98414657D01*
X162683758Y-98403404D01*
X162728474Y-98399000D01*
X164171526Y-98399000D01*
X164216242Y-98403404D01*
G37*
G36*
X156988855Y-98402140D02*
G01*
X157052618Y-98408420D01*
X157133400Y-98432925D01*
X157175336Y-98445646D01*
X157288425Y-98506094D01*
X157387554Y-98587446D01*
X157468906Y-98686575D01*
X157529354Y-98799664D01*
X157529355Y-98799668D01*
X157566580Y-98922382D01*
X157579149Y-99050000D01*
X157566580Y-99177618D01*
X157539040Y-99268404D01*
X157529354Y-99300336D01*
X157468906Y-99413425D01*
X157387554Y-99512554D01*
X157288425Y-99593906D01*
X157175336Y-99654354D01*
X157143404Y-99664040D01*
X157052618Y-99691580D01*
X156988855Y-99697860D01*
X156956974Y-99701000D01*
X156343026Y-99701000D01*
X156311145Y-99697860D01*
X156247382Y-99691580D01*
X156156596Y-99664040D01*
X156124664Y-99654354D01*
X156011575Y-99593906D01*
X155912446Y-99512554D01*
X155831094Y-99413425D01*
X155770646Y-99300336D01*
X155760960Y-99268404D01*
X155733420Y-99177618D01*
X155720851Y-99050000D01*
X155733420Y-98922382D01*
X155770645Y-98799668D01*
X155770646Y-98799664D01*
X155831094Y-98686575D01*
X155912446Y-98587446D01*
X156011575Y-98506094D01*
X156124664Y-98445646D01*
X156166600Y-98432925D01*
X156247382Y-98408420D01*
X156311145Y-98402140D01*
X156343026Y-98399000D01*
X156956974Y-98399000D01*
X156988855Y-98402140D01*
G37*
G36*
X156988855Y-96402140D02*
G01*
X157052618Y-96408420D01*
X157143404Y-96435960D01*
X157175336Y-96445646D01*
X157288425Y-96506094D01*
X157387554Y-96587446D01*
X157468906Y-96686575D01*
X157529354Y-96799664D01*
X157529355Y-96799668D01*
X157566580Y-96922382D01*
X157579149Y-97050000D01*
X157566580Y-97177618D01*
X157539040Y-97268404D01*
X157529354Y-97300336D01*
X157468906Y-97413425D01*
X157387554Y-97512554D01*
X157288425Y-97593906D01*
X157175336Y-97654354D01*
X157143404Y-97664040D01*
X157052618Y-97691580D01*
X156988855Y-97697860D01*
X156956974Y-97701000D01*
X156343026Y-97701000D01*
X156311145Y-97697860D01*
X156247382Y-97691580D01*
X156156596Y-97664040D01*
X156124664Y-97654354D01*
X156011575Y-97593906D01*
X155912446Y-97512554D01*
X155831094Y-97413425D01*
X155770646Y-97300336D01*
X155760960Y-97268404D01*
X155733420Y-97177618D01*
X155720851Y-97050000D01*
X155733420Y-96922382D01*
X155770645Y-96799668D01*
X155770646Y-96799664D01*
X155831094Y-96686575D01*
X155912446Y-96587446D01*
X156011575Y-96506094D01*
X156124664Y-96445646D01*
X156156596Y-96435960D01*
X156247382Y-96408420D01*
X156311145Y-96402140D01*
X156343026Y-96399000D01*
X156956974Y-96399000D01*
X156988855Y-96402140D01*
G37*
G36*
X163788855Y-96402140D02*
G01*
X163852618Y-96408420D01*
X163943404Y-96435960D01*
X163975336Y-96445646D01*
X164088425Y-96506094D01*
X164187554Y-96587446D01*
X164268906Y-96686575D01*
X164329354Y-96799664D01*
X164329355Y-96799668D01*
X164366580Y-96922382D01*
X164379149Y-97050000D01*
X164366580Y-97177618D01*
X164339040Y-97268404D01*
X164329354Y-97300336D01*
X164268906Y-97413425D01*
X164187554Y-97512554D01*
X164088425Y-97593906D01*
X163975336Y-97654354D01*
X163943404Y-97664040D01*
X163852618Y-97691580D01*
X163788855Y-97697860D01*
X163756974Y-97701000D01*
X163143026Y-97701000D01*
X163111145Y-97697860D01*
X163047382Y-97691580D01*
X162956596Y-97664040D01*
X162924664Y-97654354D01*
X162811575Y-97593906D01*
X162712446Y-97512554D01*
X162631094Y-97413425D01*
X162570646Y-97300336D01*
X162560960Y-97268404D01*
X162533420Y-97177618D01*
X162520851Y-97050000D01*
X162533420Y-96922382D01*
X162570645Y-96799668D01*
X162570646Y-96799664D01*
X162631094Y-96686575D01*
X162712446Y-96587446D01*
X162811575Y-96506094D01*
X162924664Y-96445646D01*
X162956596Y-96435960D01*
X163047382Y-96408420D01*
X163111145Y-96402140D01*
X163143026Y-96399000D01*
X163756974Y-96399000D01*
X163788855Y-96402140D01*
G37*
G36*
X116468761Y-92298837D02*
G01*
X116727200Y-92377234D01*
X116965372Y-92504539D01*
X117174134Y-92675866D01*
X117345461Y-92884628D01*
X117472766Y-93122800D01*
X117551163Y-93381240D01*
X117571000Y-93582652D01*
X117571000Y-94377349D01*
X117551163Y-94578761D01*
X117472766Y-94837200D01*
X117345461Y-95075372D01*
X117174134Y-95284133D01*
X116965370Y-95455461D01*
X116727199Y-95582766D01*
X116468760Y-95661163D01*
X116200000Y-95687633D01*
X115931239Y-95661163D01*
X115672800Y-95582766D01*
X115434628Y-95455461D01*
X115225867Y-95284134D01*
X115054539Y-95075370D01*
X114927234Y-94837199D01*
X114848837Y-94578760D01*
X114829000Y-94377348D01*
X114829000Y-93582651D01*
X114848837Y-93381239D01*
X114927234Y-93122800D01*
X115054539Y-92884628D01*
X115225866Y-92675867D01*
X115434630Y-92504539D01*
X115672801Y-92377234D01*
X115931240Y-92298837D01*
X116200000Y-92272367D01*
X116468761Y-92298837D01*
G37*
G36*
X121583436Y-92282635D02*
G01*
X121613027Y-92291611D01*
X121640296Y-92306187D01*
X121664198Y-92325802D01*
X121683813Y-92349704D01*
X121698389Y-92376973D01*
X121707365Y-92406564D01*
X121711000Y-92443474D01*
X121711000Y-95516526D01*
X121707365Y-95553436D01*
X121698389Y-95583027D01*
X121683813Y-95610296D01*
X121664198Y-95634198D01*
X121640296Y-95653813D01*
X121613027Y-95668389D01*
X121583436Y-95677365D01*
X121546526Y-95681000D01*
X119133474Y-95681000D01*
X119096564Y-95677365D01*
X119066973Y-95668389D01*
X119039704Y-95653813D01*
X119015802Y-95634198D01*
X118996187Y-95610296D01*
X118981611Y-95583027D01*
X118972635Y-95553436D01*
X118969000Y-95516526D01*
X118969000Y-92443474D01*
X118972635Y-92406564D01*
X118981611Y-92376973D01*
X118996187Y-92349704D01*
X119015802Y-92325802D01*
X119039704Y-92306187D01*
X119066973Y-92291611D01*
X119096564Y-92282635D01*
X119133474Y-92279000D01*
X121546526Y-92279000D01*
X121583436Y-92282635D01*
G37*
G36*
X112238661Y-92402062D02*
G01*
X112537303Y-92525764D01*
X112537305Y-92525765D01*
X112806076Y-92705352D01*
X113034648Y-92933924D01*
X113214236Y-93202697D01*
X113337938Y-93501339D01*
X113401000Y-93818374D01*
X113401000Y-94141626D01*
X113337938Y-94458661D01*
X113288190Y-94578762D01*
X113214235Y-94757305D01*
X113034648Y-95026076D01*
X112806076Y-95254648D01*
X112537305Y-95434235D01*
X112537304Y-95434236D01*
X112537303Y-95434236D01*
X112238661Y-95557938D01*
X111921626Y-95621000D01*
X111598374Y-95621000D01*
X111281339Y-95557938D01*
X110982697Y-95434236D01*
X110982696Y-95434236D01*
X110982695Y-95434235D01*
X110713924Y-95254648D01*
X110485352Y-95026076D01*
X110305765Y-94757305D01*
X110231810Y-94578762D01*
X110182062Y-94458661D01*
X110119000Y-94141626D01*
X110119000Y-93818374D01*
X110182062Y-93501339D01*
X110305764Y-93202697D01*
X110485352Y-92933924D01*
X110713924Y-92705352D01*
X110982695Y-92525765D01*
X110982697Y-92525764D01*
X111281339Y-92402062D01*
X111598374Y-92339000D01*
X111921626Y-92339000D01*
X112238661Y-92402062D01*
G37*
G36*
X161777618Y-90083420D02*
G01*
X161858400Y-90107925D01*
X161900336Y-90120646D01*
X162013425Y-90181094D01*
X162112554Y-90262446D01*
X162193906Y-90361575D01*
X162254354Y-90474664D01*
X162254355Y-90474668D01*
X162291580Y-90597382D01*
X162301000Y-90693027D01*
X162301000Y-91306973D01*
X162291580Y-91402618D01*
X162264040Y-91493404D01*
X162254354Y-91525336D01*
X162193906Y-91638425D01*
X162112554Y-91737553D01*
X162013424Y-91818906D01*
X161900335Y-91879354D01*
X161868403Y-91889040D01*
X161777617Y-91916580D01*
X161650000Y-91929149D01*
X161522382Y-91916580D01*
X161431596Y-91889040D01*
X161399664Y-91879354D01*
X161286575Y-91818906D01*
X161187447Y-91737554D01*
X161106094Y-91638424D01*
X161045646Y-91525335D01*
X161035960Y-91493403D01*
X161008420Y-91402617D01*
X160999000Y-91306972D01*
X160999000Y-90693027D01*
X161008420Y-90597382D01*
X161045645Y-90474668D01*
X161045645Y-90474667D01*
X161077957Y-90414217D01*
X161106095Y-90361574D01*
X161119493Y-90345249D01*
X161187447Y-90262446D01*
X161286576Y-90181094D01*
X161399665Y-90120646D01*
X161441601Y-90107925D01*
X161522383Y-90083420D01*
X161650000Y-90070851D01*
X161777618Y-90083420D01*
G37*
G36*
X159777618Y-90083420D02*
G01*
X159858400Y-90107925D01*
X159900336Y-90120646D01*
X160013425Y-90181094D01*
X160112554Y-90262446D01*
X160193906Y-90361575D01*
X160254354Y-90474664D01*
X160254355Y-90474668D01*
X160291580Y-90597382D01*
X160301000Y-90693027D01*
X160301000Y-91306973D01*
X160291580Y-91402618D01*
X160264040Y-91493404D01*
X160254354Y-91525336D01*
X160193906Y-91638425D01*
X160112554Y-91737553D01*
X160013424Y-91818906D01*
X159900335Y-91879354D01*
X159868403Y-91889040D01*
X159777617Y-91916580D01*
X159650000Y-91929149D01*
X159522382Y-91916580D01*
X159431596Y-91889040D01*
X159399664Y-91879354D01*
X159286575Y-91818906D01*
X159187447Y-91737554D01*
X159106094Y-91638424D01*
X159045646Y-91525335D01*
X159035960Y-91493403D01*
X159008420Y-91402617D01*
X158999000Y-91306972D01*
X158999000Y-90693027D01*
X159008420Y-90597382D01*
X159045645Y-90474668D01*
X159045645Y-90474667D01*
X159077957Y-90414217D01*
X159106095Y-90361574D01*
X159119493Y-90345249D01*
X159187447Y-90262446D01*
X159286576Y-90181094D01*
X159399665Y-90120646D01*
X159441601Y-90107925D01*
X159522383Y-90083420D01*
X159650000Y-90070851D01*
X159777618Y-90083420D01*
G37*
G36*
X157777618Y-90083420D02*
G01*
X157858400Y-90107925D01*
X157900336Y-90120646D01*
X158013425Y-90181094D01*
X158112554Y-90262446D01*
X158193906Y-90361575D01*
X158254354Y-90474664D01*
X158254355Y-90474668D01*
X158291580Y-90597382D01*
X158301000Y-90693027D01*
X158301000Y-91306973D01*
X158291580Y-91402618D01*
X158264040Y-91493404D01*
X158254354Y-91525336D01*
X158193906Y-91638425D01*
X158112554Y-91737553D01*
X158013424Y-91818906D01*
X157900335Y-91879354D01*
X157868403Y-91889040D01*
X157777617Y-91916580D01*
X157650000Y-91929149D01*
X157522382Y-91916580D01*
X157431596Y-91889040D01*
X157399664Y-91879354D01*
X157286575Y-91818906D01*
X157187447Y-91737554D01*
X157106094Y-91638424D01*
X157045646Y-91525335D01*
X157035960Y-91493403D01*
X157008420Y-91402617D01*
X156999000Y-91306972D01*
X156999000Y-90693027D01*
X157008420Y-90597382D01*
X157045645Y-90474668D01*
X157045645Y-90474667D01*
X157077957Y-90414217D01*
X157106095Y-90361574D01*
X157119493Y-90345249D01*
X157187447Y-90262446D01*
X157286576Y-90181094D01*
X157399665Y-90120646D01*
X157441601Y-90107925D01*
X157522383Y-90083420D01*
X157650000Y-90070851D01*
X157777618Y-90083420D01*
G37*
G36*
X164141242Y-90078404D02*
G01*
X164178337Y-90089657D01*
X164212515Y-90107925D01*
X164242481Y-90132519D01*
X164267075Y-90162485D01*
X164285343Y-90196663D01*
X164296596Y-90233758D01*
X164301000Y-90278474D01*
X164301000Y-91721526D01*
X164296596Y-91766242D01*
X164285343Y-91803337D01*
X164267075Y-91837515D01*
X164242481Y-91867481D01*
X164212515Y-91892075D01*
X164178337Y-91910343D01*
X164141242Y-91921596D01*
X164096526Y-91926000D01*
X163203474Y-91926000D01*
X163158758Y-91921596D01*
X163121663Y-91910343D01*
X163087485Y-91892075D01*
X163057519Y-91867481D01*
X163032925Y-91837515D01*
X163014657Y-91803337D01*
X163003404Y-91766242D01*
X162999000Y-91721526D01*
X162999000Y-90278474D01*
X163003404Y-90233758D01*
X163014657Y-90196663D01*
X163032925Y-90162485D01*
X163057519Y-90132519D01*
X163087485Y-90107925D01*
X163121663Y-90089657D01*
X163158758Y-90078404D01*
X163203474Y-90074000D01*
X164096526Y-90074000D01*
X164141242Y-90078404D01*
G37*
M02*
