M48
; DRILL file {KiCad 5.1.5-52549c5~84~ubuntu18.04.1} date Fri 07 Feb 2020 01:44:18 PM EST
; FORMAT={-:-/ absolute / metric / decimal}
; #@! TF.CreationDate,2020-02-07T13:44:18-05:00
; #@! TF.GenerationSoftware,Kicad,Pcbnew,5.1.5-52549c5~84~ubuntu18.04.1
FMAT,2
METRIC
T1C0.400
T2C0.750
T3C1.000
T4C1.400
T5C3.000
T6C3.180
%
G90
G05
T1
X142.0Y-118.0
X154.6Y-119.8
X154.6Y-123.4
X158.0Y-118.0
X158.6Y-109.975
X160.95Y-106.2
X161.4Y-111.85
X166.3Y-113.5
X170.0Y-104.0
X173.4Y-104.0
X173.8Y-111.4
X173.8Y-117.2
X174.0Y-124.0
T2
X157.65Y-91.0
X159.65Y-91.0
X161.65Y-91.0
X163.65Y-91.0
X163.45Y-97.05
X163.45Y-99.05
T3
X156.75Y-96.57
X156.75Y-99.11
X156.75Y-101.65
T4
X116.2Y-93.98
X120.34Y-93.98
X115.621Y-120.904
X119.761Y-120.904
T5
X113.792Y-106.68
X144.526Y-106.02
T6
X111.76Y-93.98
X111.181Y-120.904
T0
M30
