G04 #@! TF.GenerationSoftware,KiCad,Pcbnew,5.1.5-52549c5~84~ubuntu18.04.1*
G04 #@! TF.CreationDate,2020-02-07T08:01:34-05:00*
G04 #@! TF.ProjectId,TSAL,5453414c-2e6b-4696-9361-645f70636258,rev?*
G04 #@! TF.SameCoordinates,Original*
G04 #@! TF.FileFunction,Soldermask,Top*
G04 #@! TF.FilePolarity,Negative*
%FSLAX46Y46*%
G04 Gerber Fmt 4.6, Leading zero omitted, Abs format (unit mm)*
G04 Created by KiCad (PCBNEW 5.1.5-52549c5~84~ubuntu18.04.1) date 2020-02-07 08:01:34*
%MOMM*%
%LPD*%
G04 APERTURE LIST*
%ADD10C,0.100000*%
G04 APERTURE END LIST*
D10*
G36*
X144364499Y-123303445D02*
G01*
X144401995Y-123314820D01*
X144436554Y-123333292D01*
X144466847Y-123358153D01*
X144491708Y-123388446D01*
X144510180Y-123423005D01*
X144521555Y-123460501D01*
X144526000Y-123505638D01*
X144526000Y-124244362D01*
X144521555Y-124289499D01*
X144510180Y-124326995D01*
X144491708Y-124361554D01*
X144466847Y-124391847D01*
X144436554Y-124416708D01*
X144401995Y-124435180D01*
X144364499Y-124446555D01*
X144319362Y-124451000D01*
X143680638Y-124451000D01*
X143635501Y-124446555D01*
X143598005Y-124435180D01*
X143563446Y-124416708D01*
X143533153Y-124391847D01*
X143508292Y-124361554D01*
X143489820Y-124326995D01*
X143478445Y-124289499D01*
X143474000Y-124244362D01*
X143474000Y-123505638D01*
X143478445Y-123460501D01*
X143489820Y-123423005D01*
X143508292Y-123388446D01*
X143533153Y-123358153D01*
X143563446Y-123333292D01*
X143598005Y-123314820D01*
X143635501Y-123303445D01*
X143680638Y-123299000D01*
X144319362Y-123299000D01*
X144364499Y-123303445D01*
G37*
G36*
X165364499Y-123178445D02*
G01*
X165401995Y-123189820D01*
X165436554Y-123208292D01*
X165466847Y-123233153D01*
X165491708Y-123263446D01*
X165510180Y-123298005D01*
X165521555Y-123335501D01*
X165526000Y-123380638D01*
X165526000Y-124119362D01*
X165521555Y-124164499D01*
X165510180Y-124201995D01*
X165491708Y-124236554D01*
X165466847Y-124266847D01*
X165436554Y-124291708D01*
X165401995Y-124310180D01*
X165364499Y-124321555D01*
X165319362Y-124326000D01*
X164680638Y-124326000D01*
X164635501Y-124321555D01*
X164598005Y-124310180D01*
X164563446Y-124291708D01*
X164533153Y-124266847D01*
X164508292Y-124236554D01*
X164489820Y-124201995D01*
X164478445Y-124164499D01*
X164474000Y-124119362D01*
X164474000Y-123380638D01*
X164478445Y-123335501D01*
X164489820Y-123298005D01*
X164508292Y-123263446D01*
X164533153Y-123233153D01*
X164563446Y-123208292D01*
X164598005Y-123189820D01*
X164635501Y-123178445D01*
X164680638Y-123174000D01*
X165319362Y-123174000D01*
X165364499Y-123178445D01*
G37*
G36*
X161364499Y-123178445D02*
G01*
X161401995Y-123189820D01*
X161436554Y-123208292D01*
X161466847Y-123233153D01*
X161491708Y-123263446D01*
X161510180Y-123298005D01*
X161521555Y-123335501D01*
X161526000Y-123380638D01*
X161526000Y-124119362D01*
X161521555Y-124164499D01*
X161510180Y-124201995D01*
X161491708Y-124236554D01*
X161466847Y-124266847D01*
X161436554Y-124291708D01*
X161401995Y-124310180D01*
X161364499Y-124321555D01*
X161319362Y-124326000D01*
X160680638Y-124326000D01*
X160635501Y-124321555D01*
X160598005Y-124310180D01*
X160563446Y-124291708D01*
X160533153Y-124266847D01*
X160508292Y-124236554D01*
X160489820Y-124201995D01*
X160478445Y-124164499D01*
X160474000Y-124119362D01*
X160474000Y-123380638D01*
X160478445Y-123335501D01*
X160489820Y-123298005D01*
X160508292Y-123263446D01*
X160533153Y-123233153D01*
X160563446Y-123208292D01*
X160598005Y-123189820D01*
X160635501Y-123178445D01*
X160680638Y-123174000D01*
X161319362Y-123174000D01*
X161364499Y-123178445D01*
G37*
G36*
X163364499Y-123178445D02*
G01*
X163401995Y-123189820D01*
X163436554Y-123208292D01*
X163466847Y-123233153D01*
X163491708Y-123263446D01*
X163510180Y-123298005D01*
X163521555Y-123335501D01*
X163526000Y-123380638D01*
X163526000Y-124119362D01*
X163521555Y-124164499D01*
X163510180Y-124201995D01*
X163491708Y-124236554D01*
X163466847Y-124266847D01*
X163436554Y-124291708D01*
X163401995Y-124310180D01*
X163364499Y-124321555D01*
X163319362Y-124326000D01*
X162680638Y-124326000D01*
X162635501Y-124321555D01*
X162598005Y-124310180D01*
X162563446Y-124291708D01*
X162533153Y-124266847D01*
X162508292Y-124236554D01*
X162489820Y-124201995D01*
X162478445Y-124164499D01*
X162474000Y-124119362D01*
X162474000Y-123380638D01*
X162478445Y-123335501D01*
X162489820Y-123298005D01*
X162508292Y-123263446D01*
X162533153Y-123233153D01*
X162563446Y-123208292D01*
X162598005Y-123189820D01*
X162635501Y-123178445D01*
X162680638Y-123174000D01*
X163319362Y-123174000D01*
X163364499Y-123178445D01*
G37*
G36*
X147401000Y-124051000D02*
G01*
X146599000Y-124051000D01*
X146599000Y-123349000D01*
X147401000Y-123349000D01*
X147401000Y-124051000D01*
G37*
G36*
X157934928Y-123191764D02*
G01*
X157956009Y-123198160D01*
X157975445Y-123208548D01*
X157992476Y-123222524D01*
X158006452Y-123239555D01*
X158016840Y-123258991D01*
X158023236Y-123280072D01*
X158026000Y-123308140D01*
X158026000Y-123771860D01*
X158023236Y-123799928D01*
X158016840Y-123821009D01*
X158006452Y-123840445D01*
X157992476Y-123857476D01*
X157975445Y-123871452D01*
X157956009Y-123881840D01*
X157934928Y-123888236D01*
X157906860Y-123891000D01*
X156093140Y-123891000D01*
X156065072Y-123888236D01*
X156043991Y-123881840D01*
X156024555Y-123871452D01*
X156007524Y-123857476D01*
X155993548Y-123840445D01*
X155983160Y-123821009D01*
X155976764Y-123799928D01*
X155974000Y-123771860D01*
X155974000Y-123308140D01*
X155976764Y-123280072D01*
X155983160Y-123258991D01*
X155993548Y-123239555D01*
X156007524Y-123222524D01*
X156024555Y-123208548D01*
X156043991Y-123198160D01*
X156065072Y-123191764D01*
X156093140Y-123189000D01*
X157906860Y-123189000D01*
X157934928Y-123191764D01*
G37*
G36*
X152984928Y-123191764D02*
G01*
X153006009Y-123198160D01*
X153025445Y-123208548D01*
X153042476Y-123222524D01*
X153056452Y-123239555D01*
X153066840Y-123258991D01*
X153073236Y-123280072D01*
X153076000Y-123308140D01*
X153076000Y-123771860D01*
X153073236Y-123799928D01*
X153066840Y-123821009D01*
X153056452Y-123840445D01*
X153042476Y-123857476D01*
X153025445Y-123871452D01*
X153006009Y-123881840D01*
X152984928Y-123888236D01*
X152956860Y-123891000D01*
X151143140Y-123891000D01*
X151115072Y-123888236D01*
X151093991Y-123881840D01*
X151074555Y-123871452D01*
X151057524Y-123857476D01*
X151043548Y-123840445D01*
X151033160Y-123821009D01*
X151026764Y-123799928D01*
X151024000Y-123771860D01*
X151024000Y-123308140D01*
X151026764Y-123280072D01*
X151033160Y-123258991D01*
X151043548Y-123239555D01*
X151057524Y-123222524D01*
X151074555Y-123208548D01*
X151093991Y-123198160D01*
X151115072Y-123191764D01*
X151143140Y-123189000D01*
X152956860Y-123189000D01*
X152984928Y-123191764D01*
G37*
G36*
X141833000Y-123877000D02*
G01*
X139731000Y-123877000D01*
X139731000Y-121995000D01*
X141833000Y-121995000D01*
X141833000Y-123877000D01*
G37*
G36*
X132303000Y-123877000D02*
G01*
X130201000Y-123877000D01*
X130201000Y-121995000D01*
X132303000Y-121995000D01*
X132303000Y-123877000D01*
G37*
G36*
X144364499Y-121553445D02*
G01*
X144401995Y-121564820D01*
X144436554Y-121583292D01*
X144466847Y-121608153D01*
X144491708Y-121638446D01*
X144510180Y-121673005D01*
X144521555Y-121710501D01*
X144526000Y-121755638D01*
X144526000Y-122494362D01*
X144521555Y-122539499D01*
X144510180Y-122576995D01*
X144491708Y-122611554D01*
X144466847Y-122641847D01*
X144436554Y-122666708D01*
X144401995Y-122685180D01*
X144364499Y-122696555D01*
X144319362Y-122701000D01*
X143680638Y-122701000D01*
X143635501Y-122696555D01*
X143598005Y-122685180D01*
X143563446Y-122666708D01*
X143533153Y-122641847D01*
X143508292Y-122611554D01*
X143489820Y-122576995D01*
X143478445Y-122539499D01*
X143474000Y-122494362D01*
X143474000Y-121755638D01*
X143478445Y-121710501D01*
X143489820Y-121673005D01*
X143508292Y-121638446D01*
X143533153Y-121608153D01*
X143563446Y-121583292D01*
X143598005Y-121564820D01*
X143635501Y-121553445D01*
X143680638Y-121549000D01*
X144319362Y-121549000D01*
X144364499Y-121553445D01*
G37*
G36*
X147401000Y-122651000D02*
G01*
X146599000Y-122651000D01*
X146599000Y-121949000D01*
X147401000Y-121949000D01*
X147401000Y-122651000D01*
G37*
G36*
X152984928Y-121921764D02*
G01*
X153006009Y-121928160D01*
X153025445Y-121938548D01*
X153042476Y-121952524D01*
X153056452Y-121969555D01*
X153066840Y-121988991D01*
X153073236Y-122010072D01*
X153076000Y-122038140D01*
X153076000Y-122501860D01*
X153073236Y-122529928D01*
X153066840Y-122551009D01*
X153056452Y-122570445D01*
X153042476Y-122587476D01*
X153025445Y-122601452D01*
X153006009Y-122611840D01*
X152984928Y-122618236D01*
X152956860Y-122621000D01*
X151143140Y-122621000D01*
X151115072Y-122618236D01*
X151093991Y-122611840D01*
X151074555Y-122601452D01*
X151057524Y-122587476D01*
X151043548Y-122570445D01*
X151033160Y-122551009D01*
X151026764Y-122529928D01*
X151024000Y-122501860D01*
X151024000Y-122038140D01*
X151026764Y-122010072D01*
X151033160Y-121988991D01*
X151043548Y-121969555D01*
X151057524Y-121952524D01*
X151074555Y-121938548D01*
X151093991Y-121928160D01*
X151115072Y-121921764D01*
X151143140Y-121919000D01*
X152956860Y-121919000D01*
X152984928Y-121921764D01*
G37*
G36*
X157934928Y-121921764D02*
G01*
X157956009Y-121928160D01*
X157975445Y-121938548D01*
X157992476Y-121952524D01*
X158006452Y-121969555D01*
X158016840Y-121988991D01*
X158023236Y-122010072D01*
X158026000Y-122038140D01*
X158026000Y-122501860D01*
X158023236Y-122529928D01*
X158016840Y-122551009D01*
X158006452Y-122570445D01*
X157992476Y-122587476D01*
X157975445Y-122601452D01*
X157956009Y-122611840D01*
X157934928Y-122618236D01*
X157906860Y-122621000D01*
X156093140Y-122621000D01*
X156065072Y-122618236D01*
X156043991Y-122611840D01*
X156024555Y-122601452D01*
X156007524Y-122587476D01*
X155993548Y-122570445D01*
X155983160Y-122551009D01*
X155976764Y-122529928D01*
X155974000Y-122501860D01*
X155974000Y-122038140D01*
X155976764Y-122010072D01*
X155983160Y-121988991D01*
X155993548Y-121969555D01*
X156007524Y-121952524D01*
X156024555Y-121938548D01*
X156043991Y-121928160D01*
X156065072Y-121921764D01*
X156093140Y-121919000D01*
X157906860Y-121919000D01*
X157934928Y-121921764D01*
G37*
G36*
X115889761Y-119222837D02*
G01*
X116148200Y-119301234D01*
X116386372Y-119428539D01*
X116595134Y-119599866D01*
X116766461Y-119808628D01*
X116893766Y-120046800D01*
X116972163Y-120305240D01*
X116992000Y-120506652D01*
X116992000Y-121301349D01*
X116972163Y-121502761D01*
X116893766Y-121761200D01*
X116766461Y-121999372D01*
X116595134Y-122208133D01*
X116386370Y-122379461D01*
X116148199Y-122506766D01*
X115889760Y-122585163D01*
X115621000Y-122611633D01*
X115352239Y-122585163D01*
X115093800Y-122506766D01*
X114855628Y-122379461D01*
X114646867Y-122208134D01*
X114475539Y-121999370D01*
X114348234Y-121761199D01*
X114269837Y-121502760D01*
X114250000Y-121301348D01*
X114250000Y-120506651D01*
X114269837Y-120305239D01*
X114348234Y-120046800D01*
X114475539Y-119808628D01*
X114646866Y-119599867D01*
X114702691Y-119554053D01*
X114855629Y-119428540D01*
X114855628Y-119428540D01*
X114855630Y-119428539D01*
X115093801Y-119301234D01*
X115352240Y-119222837D01*
X115621000Y-119196367D01*
X115889761Y-119222837D01*
G37*
G36*
X121004436Y-119206635D02*
G01*
X121034027Y-119215611D01*
X121061296Y-119230187D01*
X121085198Y-119249802D01*
X121104813Y-119273704D01*
X121119389Y-119300973D01*
X121128365Y-119330564D01*
X121132000Y-119367474D01*
X121132000Y-122440526D01*
X121128365Y-122477436D01*
X121119389Y-122507027D01*
X121104813Y-122534296D01*
X121085198Y-122558198D01*
X121061296Y-122577813D01*
X121034027Y-122592389D01*
X121004436Y-122601365D01*
X120967526Y-122605000D01*
X118554474Y-122605000D01*
X118517564Y-122601365D01*
X118487973Y-122592389D01*
X118460704Y-122577813D01*
X118436802Y-122558198D01*
X118417187Y-122534296D01*
X118402611Y-122507027D01*
X118393635Y-122477436D01*
X118390000Y-122440526D01*
X118390000Y-119367474D01*
X118393635Y-119330564D01*
X118402611Y-119300973D01*
X118417187Y-119273704D01*
X118436802Y-119249802D01*
X118460704Y-119230187D01*
X118487973Y-119215611D01*
X118517564Y-119206635D01*
X118554474Y-119203000D01*
X120967526Y-119203000D01*
X121004436Y-119206635D01*
G37*
G36*
X165364499Y-121428445D02*
G01*
X165401995Y-121439820D01*
X165436554Y-121458292D01*
X165466847Y-121483153D01*
X165491708Y-121513446D01*
X165510180Y-121548005D01*
X165521555Y-121585501D01*
X165526000Y-121630638D01*
X165526000Y-122369362D01*
X165521555Y-122414499D01*
X165510180Y-122451995D01*
X165491708Y-122486554D01*
X165466847Y-122516847D01*
X165436554Y-122541708D01*
X165401995Y-122560180D01*
X165364499Y-122571555D01*
X165319362Y-122576000D01*
X164680638Y-122576000D01*
X164635501Y-122571555D01*
X164598005Y-122560180D01*
X164563446Y-122541708D01*
X164533153Y-122516847D01*
X164508292Y-122486554D01*
X164489820Y-122451995D01*
X164478445Y-122414499D01*
X164474000Y-122369362D01*
X164474000Y-121630638D01*
X164478445Y-121585501D01*
X164489820Y-121548005D01*
X164508292Y-121513446D01*
X164533153Y-121483153D01*
X164563446Y-121458292D01*
X164598005Y-121439820D01*
X164635501Y-121428445D01*
X164680638Y-121424000D01*
X165319362Y-121424000D01*
X165364499Y-121428445D01*
G37*
G36*
X161364499Y-121428445D02*
G01*
X161401995Y-121439820D01*
X161436554Y-121458292D01*
X161466847Y-121483153D01*
X161491708Y-121513446D01*
X161510180Y-121548005D01*
X161521555Y-121585501D01*
X161526000Y-121630638D01*
X161526000Y-122369362D01*
X161521555Y-122414499D01*
X161510180Y-122451995D01*
X161491708Y-122486554D01*
X161466847Y-122516847D01*
X161436554Y-122541708D01*
X161401995Y-122560180D01*
X161364499Y-122571555D01*
X161319362Y-122576000D01*
X160680638Y-122576000D01*
X160635501Y-122571555D01*
X160598005Y-122560180D01*
X160563446Y-122541708D01*
X160533153Y-122516847D01*
X160508292Y-122486554D01*
X160489820Y-122451995D01*
X160478445Y-122414499D01*
X160474000Y-122369362D01*
X160474000Y-121630638D01*
X160478445Y-121585501D01*
X160489820Y-121548005D01*
X160508292Y-121513446D01*
X160533153Y-121483153D01*
X160563446Y-121458292D01*
X160598005Y-121439820D01*
X160635501Y-121428445D01*
X160680638Y-121424000D01*
X161319362Y-121424000D01*
X161364499Y-121428445D01*
G37*
G36*
X163364499Y-121428445D02*
G01*
X163401995Y-121439820D01*
X163436554Y-121458292D01*
X163466847Y-121483153D01*
X163491708Y-121513446D01*
X163510180Y-121548005D01*
X163521555Y-121585501D01*
X163526000Y-121630638D01*
X163526000Y-122369362D01*
X163521555Y-122414499D01*
X163510180Y-122451995D01*
X163491708Y-122486554D01*
X163466847Y-122516847D01*
X163436554Y-122541708D01*
X163401995Y-122560180D01*
X163364499Y-122571555D01*
X163319362Y-122576000D01*
X162680638Y-122576000D01*
X162635501Y-122571555D01*
X162598005Y-122560180D01*
X162563446Y-122541708D01*
X162533153Y-122516847D01*
X162508292Y-122486554D01*
X162489820Y-122451995D01*
X162478445Y-122414499D01*
X162474000Y-122369362D01*
X162474000Y-121630638D01*
X162478445Y-121585501D01*
X162489820Y-121548005D01*
X162508292Y-121513446D01*
X162533153Y-121483153D01*
X162563446Y-121458292D01*
X162598005Y-121439820D01*
X162635501Y-121428445D01*
X162680638Y-121424000D01*
X163319362Y-121424000D01*
X163364499Y-121428445D01*
G37*
G36*
X111659661Y-119326062D02*
G01*
X111958303Y-119449764D01*
X111958305Y-119449765D01*
X112227076Y-119629352D01*
X112455648Y-119857924D01*
X112604703Y-120081000D01*
X112635236Y-120126697D01*
X112758938Y-120425339D01*
X112822000Y-120742374D01*
X112822000Y-121065626D01*
X112758938Y-121382661D01*
X112665536Y-121608153D01*
X112635235Y-121681305D01*
X112455648Y-121950076D01*
X112227076Y-122178648D01*
X111958305Y-122358235D01*
X111958304Y-122358236D01*
X111958303Y-122358236D01*
X111659661Y-122481938D01*
X111342626Y-122545000D01*
X111019374Y-122545000D01*
X110702339Y-122481938D01*
X110403697Y-122358236D01*
X110403696Y-122358236D01*
X110403695Y-122358235D01*
X110134924Y-122178648D01*
X109906352Y-121950076D01*
X109726765Y-121681305D01*
X109696464Y-121608153D01*
X109603062Y-121382661D01*
X109540000Y-121065626D01*
X109540000Y-120742374D01*
X109603062Y-120425339D01*
X109726764Y-120126697D01*
X109757298Y-120081000D01*
X109906352Y-119857924D01*
X110134924Y-119629352D01*
X110403695Y-119449765D01*
X110403697Y-119449764D01*
X110702339Y-119326062D01*
X111019374Y-119263000D01*
X111342626Y-119263000D01*
X111659661Y-119326062D01*
G37*
G36*
X149364499Y-121303445D02*
G01*
X149401995Y-121314820D01*
X149436554Y-121333292D01*
X149466847Y-121358153D01*
X149491708Y-121388446D01*
X149510180Y-121423005D01*
X149521555Y-121460501D01*
X149526000Y-121505638D01*
X149526000Y-122244362D01*
X149521555Y-122289499D01*
X149510180Y-122326995D01*
X149491708Y-122361554D01*
X149466847Y-122391847D01*
X149436554Y-122416708D01*
X149401995Y-122435180D01*
X149364499Y-122446555D01*
X149319362Y-122451000D01*
X148680638Y-122451000D01*
X148635501Y-122446555D01*
X148598005Y-122435180D01*
X148563446Y-122416708D01*
X148533153Y-122391847D01*
X148508292Y-122361554D01*
X148489820Y-122326995D01*
X148478445Y-122289499D01*
X148474000Y-122244362D01*
X148474000Y-121505638D01*
X148478445Y-121460501D01*
X148489820Y-121423005D01*
X148508292Y-121388446D01*
X148533153Y-121358153D01*
X148563446Y-121333292D01*
X148598005Y-121314820D01*
X148635501Y-121303445D01*
X148680638Y-121299000D01*
X149319362Y-121299000D01*
X149364499Y-121303445D01*
G37*
G36*
X152984928Y-120651764D02*
G01*
X153006009Y-120658160D01*
X153025445Y-120668548D01*
X153042476Y-120682524D01*
X153056452Y-120699555D01*
X153066840Y-120718991D01*
X153073236Y-120740072D01*
X153076000Y-120768140D01*
X153076000Y-121231860D01*
X153073236Y-121259928D01*
X153066840Y-121281009D01*
X153056452Y-121300445D01*
X153042476Y-121317476D01*
X153025445Y-121331452D01*
X153006009Y-121341840D01*
X152984928Y-121348236D01*
X152956860Y-121351000D01*
X151143140Y-121351000D01*
X151115072Y-121348236D01*
X151093991Y-121341840D01*
X151074555Y-121331452D01*
X151057524Y-121317476D01*
X151043548Y-121300445D01*
X151033160Y-121281009D01*
X151026764Y-121259928D01*
X151024000Y-121231860D01*
X151024000Y-120768140D01*
X151026764Y-120740072D01*
X151033160Y-120718991D01*
X151043548Y-120699555D01*
X151057524Y-120682524D01*
X151074555Y-120668548D01*
X151093991Y-120658160D01*
X151115072Y-120651764D01*
X151143140Y-120649000D01*
X152956860Y-120649000D01*
X152984928Y-120651764D01*
G37*
G36*
X157934928Y-120651764D02*
G01*
X157956009Y-120658160D01*
X157975445Y-120668548D01*
X157992476Y-120682524D01*
X158006452Y-120699555D01*
X158016840Y-120718991D01*
X158023236Y-120740072D01*
X158026000Y-120768140D01*
X158026000Y-121231860D01*
X158023236Y-121259928D01*
X158016840Y-121281009D01*
X158006452Y-121300445D01*
X157992476Y-121317476D01*
X157975445Y-121331452D01*
X157956009Y-121341840D01*
X157934928Y-121348236D01*
X157906860Y-121351000D01*
X156093140Y-121351000D01*
X156065072Y-121348236D01*
X156043991Y-121341840D01*
X156024555Y-121331452D01*
X156007524Y-121317476D01*
X155993548Y-121300445D01*
X155983160Y-121281009D01*
X155976764Y-121259928D01*
X155974000Y-121231860D01*
X155974000Y-120768140D01*
X155976764Y-120740072D01*
X155983160Y-120718991D01*
X155993548Y-120699555D01*
X156007524Y-120682524D01*
X156024555Y-120668548D01*
X156043991Y-120658160D01*
X156065072Y-120651764D01*
X156093140Y-120649000D01*
X157906860Y-120649000D01*
X157934928Y-120651764D01*
G37*
G36*
X141833000Y-121337000D02*
G01*
X139731000Y-121337000D01*
X139731000Y-119455000D01*
X141833000Y-119455000D01*
X141833000Y-121337000D01*
G37*
G36*
X132303000Y-121337000D02*
G01*
X130201000Y-121337000D01*
X130201000Y-119455000D01*
X132303000Y-119455000D01*
X132303000Y-121337000D01*
G37*
G36*
X171921934Y-118702671D02*
G01*
X171951877Y-118711754D01*
X171979465Y-118726500D01*
X172003651Y-118746349D01*
X172023500Y-118770535D01*
X172038246Y-118798123D01*
X172047329Y-118828066D01*
X172051000Y-118865340D01*
X172051000Y-121134660D01*
X172047329Y-121171934D01*
X172038246Y-121201877D01*
X172023500Y-121229465D01*
X172003651Y-121253651D01*
X171979465Y-121273500D01*
X171951877Y-121288246D01*
X171921934Y-121297329D01*
X171884660Y-121301000D01*
X168115340Y-121301000D01*
X168078066Y-121297329D01*
X168048123Y-121288246D01*
X168020535Y-121273500D01*
X167996349Y-121253651D01*
X167976500Y-121229465D01*
X167961754Y-121201877D01*
X167952671Y-121171934D01*
X167949000Y-121134660D01*
X167949000Y-118865340D01*
X167952671Y-118828066D01*
X167961754Y-118798123D01*
X167976500Y-118770535D01*
X167996349Y-118746349D01*
X168020535Y-118726500D01*
X168048123Y-118711754D01*
X168078066Y-118702671D01*
X168115340Y-118699000D01*
X171884660Y-118699000D01*
X171921934Y-118702671D01*
G37*
G36*
X179921934Y-118702671D02*
G01*
X179951877Y-118711754D01*
X179979465Y-118726500D01*
X180003651Y-118746349D01*
X180023500Y-118770535D01*
X180038246Y-118798123D01*
X180047329Y-118828066D01*
X180051000Y-118865340D01*
X180051000Y-121134660D01*
X180047329Y-121171934D01*
X180038246Y-121201877D01*
X180023500Y-121229465D01*
X180003651Y-121253651D01*
X179979465Y-121273500D01*
X179951877Y-121288246D01*
X179921934Y-121297329D01*
X179884660Y-121301000D01*
X176115340Y-121301000D01*
X176078066Y-121297329D01*
X176048123Y-121288246D01*
X176020535Y-121273500D01*
X175996349Y-121253651D01*
X175976500Y-121229465D01*
X175961754Y-121201877D01*
X175952671Y-121171934D01*
X175949000Y-121134660D01*
X175949000Y-118865340D01*
X175952671Y-118828066D01*
X175961754Y-118798123D01*
X175976500Y-118770535D01*
X175996349Y-118746349D01*
X176020535Y-118726500D01*
X176048123Y-118711754D01*
X176078066Y-118702671D01*
X176115340Y-118699000D01*
X179884660Y-118699000D01*
X179921934Y-118702671D01*
G37*
G36*
X149364499Y-119553445D02*
G01*
X149401995Y-119564820D01*
X149436554Y-119583292D01*
X149466847Y-119608153D01*
X149491708Y-119638446D01*
X149510180Y-119673005D01*
X149521555Y-119710501D01*
X149526000Y-119755638D01*
X149526000Y-120494362D01*
X149521555Y-120539499D01*
X149510180Y-120576995D01*
X149491708Y-120611554D01*
X149466847Y-120641847D01*
X149436554Y-120666708D01*
X149401995Y-120685180D01*
X149364499Y-120696555D01*
X149319362Y-120701000D01*
X148680638Y-120701000D01*
X148635501Y-120696555D01*
X148598005Y-120685180D01*
X148563446Y-120666708D01*
X148533153Y-120641847D01*
X148508292Y-120611554D01*
X148489820Y-120576995D01*
X148478445Y-120539499D01*
X148474000Y-120494362D01*
X148474000Y-119755638D01*
X148478445Y-119710501D01*
X148489820Y-119673005D01*
X148508292Y-119638446D01*
X148533153Y-119608153D01*
X148563446Y-119583292D01*
X148598005Y-119564820D01*
X148635501Y-119553445D01*
X148680638Y-119549000D01*
X149319362Y-119549000D01*
X149364499Y-119553445D01*
G37*
G36*
X157934928Y-119381764D02*
G01*
X157956009Y-119388160D01*
X157975445Y-119398548D01*
X157992476Y-119412524D01*
X158006452Y-119429555D01*
X158016840Y-119448991D01*
X158023236Y-119470072D01*
X158026000Y-119498140D01*
X158026000Y-119961860D01*
X158023236Y-119989928D01*
X158016840Y-120011009D01*
X158006452Y-120030445D01*
X157992476Y-120047476D01*
X157975445Y-120061452D01*
X157956009Y-120071840D01*
X157934928Y-120078236D01*
X157906860Y-120081000D01*
X156093140Y-120081000D01*
X156065072Y-120078236D01*
X156043991Y-120071840D01*
X156024555Y-120061452D01*
X156007524Y-120047476D01*
X155993548Y-120030445D01*
X155983160Y-120011009D01*
X155976764Y-119989928D01*
X155974000Y-119961860D01*
X155974000Y-119498140D01*
X155976764Y-119470072D01*
X155983160Y-119448991D01*
X155993548Y-119429555D01*
X156007524Y-119412524D01*
X156024555Y-119398548D01*
X156043991Y-119388160D01*
X156065072Y-119381764D01*
X156093140Y-119379000D01*
X157906860Y-119379000D01*
X157934928Y-119381764D01*
G37*
G36*
X152984928Y-119381764D02*
G01*
X153006009Y-119388160D01*
X153025445Y-119398548D01*
X153042476Y-119412524D01*
X153056452Y-119429555D01*
X153066840Y-119448991D01*
X153073236Y-119470072D01*
X153076000Y-119498140D01*
X153076000Y-119961860D01*
X153073236Y-119989928D01*
X153066840Y-120011009D01*
X153056452Y-120030445D01*
X153042476Y-120047476D01*
X153025445Y-120061452D01*
X153006009Y-120071840D01*
X152984928Y-120078236D01*
X152956860Y-120081000D01*
X151143140Y-120081000D01*
X151115072Y-120078236D01*
X151093991Y-120071840D01*
X151074555Y-120061452D01*
X151057524Y-120047476D01*
X151043548Y-120030445D01*
X151033160Y-120011009D01*
X151026764Y-119989928D01*
X151024000Y-119961860D01*
X151024000Y-119498140D01*
X151026764Y-119470072D01*
X151033160Y-119448991D01*
X151043548Y-119429555D01*
X151057524Y-119412524D01*
X151074555Y-119398548D01*
X151093991Y-119388160D01*
X151115072Y-119381764D01*
X151143140Y-119379000D01*
X152956860Y-119379000D01*
X152984928Y-119381764D01*
G37*
G36*
X161664499Y-118478445D02*
G01*
X161701995Y-118489820D01*
X161736554Y-118508292D01*
X161766847Y-118533153D01*
X161791708Y-118563446D01*
X161810180Y-118598005D01*
X161821555Y-118635501D01*
X161826000Y-118680638D01*
X161826000Y-119319362D01*
X161821555Y-119364499D01*
X161810180Y-119401995D01*
X161791708Y-119436554D01*
X161766847Y-119466847D01*
X161736554Y-119491708D01*
X161701995Y-119510180D01*
X161664499Y-119521555D01*
X161619362Y-119526000D01*
X160880638Y-119526000D01*
X160835501Y-119521555D01*
X160798005Y-119510180D01*
X160763446Y-119491708D01*
X160733153Y-119466847D01*
X160708292Y-119436554D01*
X160689820Y-119401995D01*
X160678445Y-119364499D01*
X160674000Y-119319362D01*
X160674000Y-118680638D01*
X160678445Y-118635501D01*
X160689820Y-118598005D01*
X160708292Y-118563446D01*
X160733153Y-118533153D01*
X160763446Y-118508292D01*
X160798005Y-118489820D01*
X160835501Y-118478445D01*
X160880638Y-118474000D01*
X161619362Y-118474000D01*
X161664499Y-118478445D01*
G37*
G36*
X163414499Y-118478445D02*
G01*
X163451995Y-118489820D01*
X163486554Y-118508292D01*
X163516847Y-118533153D01*
X163541708Y-118563446D01*
X163560180Y-118598005D01*
X163571555Y-118635501D01*
X163576000Y-118680638D01*
X163576000Y-119319362D01*
X163571555Y-119364499D01*
X163560180Y-119401995D01*
X163541708Y-119436554D01*
X163516847Y-119466847D01*
X163486554Y-119491708D01*
X163451995Y-119510180D01*
X163414499Y-119521555D01*
X163369362Y-119526000D01*
X162630638Y-119526000D01*
X162585501Y-119521555D01*
X162548005Y-119510180D01*
X162513446Y-119491708D01*
X162483153Y-119466847D01*
X162458292Y-119436554D01*
X162439820Y-119401995D01*
X162428445Y-119364499D01*
X162424000Y-119319362D01*
X162424000Y-118680638D01*
X162428445Y-118635501D01*
X162439820Y-118598005D01*
X162458292Y-118563446D01*
X162483153Y-118533153D01*
X162513446Y-118508292D01*
X162548005Y-118489820D01*
X162585501Y-118478445D01*
X162630638Y-118474000D01*
X163369362Y-118474000D01*
X163414499Y-118478445D01*
G37*
G36*
X163414499Y-116478445D02*
G01*
X163451995Y-116489820D01*
X163486554Y-116508292D01*
X163516847Y-116533153D01*
X163541708Y-116563446D01*
X163560180Y-116598005D01*
X163571555Y-116635501D01*
X163576000Y-116680638D01*
X163576000Y-117319362D01*
X163571555Y-117364499D01*
X163560180Y-117401995D01*
X163541708Y-117436554D01*
X163516847Y-117466847D01*
X163486554Y-117491708D01*
X163451995Y-117510180D01*
X163414499Y-117521555D01*
X163369362Y-117526000D01*
X162630638Y-117526000D01*
X162585501Y-117521555D01*
X162548005Y-117510180D01*
X162513446Y-117491708D01*
X162483153Y-117466847D01*
X162458292Y-117436554D01*
X162439820Y-117401995D01*
X162428445Y-117364499D01*
X162424000Y-117319362D01*
X162424000Y-116680638D01*
X162428445Y-116635501D01*
X162439820Y-116598005D01*
X162458292Y-116563446D01*
X162483153Y-116533153D01*
X162513446Y-116508292D01*
X162548005Y-116489820D01*
X162585501Y-116478445D01*
X162630638Y-116474000D01*
X163369362Y-116474000D01*
X163414499Y-116478445D01*
G37*
G36*
X161664499Y-116478445D02*
G01*
X161701995Y-116489820D01*
X161736554Y-116508292D01*
X161766847Y-116533153D01*
X161791708Y-116563446D01*
X161810180Y-116598005D01*
X161821555Y-116635501D01*
X161826000Y-116680638D01*
X161826000Y-117319362D01*
X161821555Y-117364499D01*
X161810180Y-117401995D01*
X161791708Y-117436554D01*
X161766847Y-117466847D01*
X161736554Y-117491708D01*
X161701995Y-117510180D01*
X161664499Y-117521555D01*
X161619362Y-117526000D01*
X160880638Y-117526000D01*
X160835501Y-117521555D01*
X160798005Y-117510180D01*
X160763446Y-117491708D01*
X160733153Y-117466847D01*
X160708292Y-117436554D01*
X160689820Y-117401995D01*
X160678445Y-117364499D01*
X160674000Y-117319362D01*
X160674000Y-116680638D01*
X160678445Y-116635501D01*
X160689820Y-116598005D01*
X160708292Y-116563446D01*
X160733153Y-116533153D01*
X160763446Y-116508292D01*
X160798005Y-116489820D01*
X160835501Y-116478445D01*
X160880638Y-116474000D01*
X161619362Y-116474000D01*
X161664499Y-116478445D01*
G37*
G36*
X132225562Y-115728181D02*
G01*
X132260481Y-115738774D01*
X132292663Y-115755976D01*
X132320873Y-115779127D01*
X132344024Y-115807337D01*
X132361226Y-115839519D01*
X132371819Y-115874438D01*
X132376000Y-115916895D01*
X132376000Y-117058105D01*
X132371819Y-117100562D01*
X132361226Y-117135481D01*
X132344024Y-117167663D01*
X132320873Y-117195873D01*
X132292663Y-117219024D01*
X132260481Y-117236226D01*
X132225562Y-117246819D01*
X132183105Y-117251000D01*
X129816895Y-117251000D01*
X129774438Y-117246819D01*
X129739519Y-117236226D01*
X129707337Y-117219024D01*
X129679127Y-117195873D01*
X129655976Y-117167663D01*
X129638774Y-117135481D01*
X129628181Y-117100562D01*
X129624000Y-117058105D01*
X129624000Y-115916895D01*
X129628181Y-115874438D01*
X129638774Y-115839519D01*
X129655976Y-115807337D01*
X129679127Y-115779127D01*
X129707337Y-115755976D01*
X129739519Y-115738774D01*
X129774438Y-115728181D01*
X129816895Y-115724000D01*
X132183105Y-115724000D01*
X132225562Y-115728181D01*
G37*
G36*
X126584468Y-114341065D02*
G01*
X126623138Y-114352796D01*
X126658777Y-114371846D01*
X126690017Y-114397483D01*
X126715654Y-114428723D01*
X126734704Y-114464362D01*
X126746435Y-114503032D01*
X126751000Y-114549388D01*
X126751000Y-115200612D01*
X126746435Y-115246968D01*
X126734704Y-115285638D01*
X126715654Y-115321277D01*
X126690017Y-115352517D01*
X126658777Y-115378154D01*
X126623138Y-115397204D01*
X126584468Y-115408935D01*
X126538112Y-115413500D01*
X125461888Y-115413500D01*
X125415532Y-115408935D01*
X125376862Y-115397204D01*
X125341223Y-115378154D01*
X125309983Y-115352517D01*
X125284346Y-115321277D01*
X125265296Y-115285638D01*
X125253565Y-115246968D01*
X125249000Y-115200612D01*
X125249000Y-114549388D01*
X125253565Y-114503032D01*
X125265296Y-114464362D01*
X125284346Y-114428723D01*
X125309983Y-114397483D01*
X125341223Y-114371846D01*
X125376862Y-114352796D01*
X125415532Y-114341065D01*
X125461888Y-114336500D01*
X126538112Y-114336500D01*
X126584468Y-114341065D01*
G37*
G36*
X160551000Y-115401000D02*
G01*
X159649000Y-115401000D01*
X159649000Y-114399000D01*
X160551000Y-114399000D01*
X160551000Y-115401000D01*
G37*
G36*
X158651000Y-115401000D02*
G01*
X157749000Y-115401000D01*
X157749000Y-114399000D01*
X158651000Y-114399000D01*
X158651000Y-115401000D01*
G37*
G36*
X164664499Y-114228445D02*
G01*
X164701995Y-114239820D01*
X164736554Y-114258292D01*
X164766847Y-114283153D01*
X164791708Y-114313446D01*
X164810180Y-114348005D01*
X164821555Y-114385501D01*
X164826000Y-114430638D01*
X164826000Y-115069362D01*
X164821555Y-115114499D01*
X164810180Y-115151995D01*
X164791708Y-115186554D01*
X164766847Y-115216847D01*
X164736554Y-115241708D01*
X164701995Y-115260180D01*
X164664499Y-115271555D01*
X164619362Y-115276000D01*
X163880638Y-115276000D01*
X163835501Y-115271555D01*
X163798005Y-115260180D01*
X163763446Y-115241708D01*
X163733153Y-115216847D01*
X163708292Y-115186554D01*
X163689820Y-115151995D01*
X163678445Y-115114499D01*
X163674000Y-115069362D01*
X163674000Y-114430638D01*
X163678445Y-114385501D01*
X163689820Y-114348005D01*
X163708292Y-114313446D01*
X163733153Y-114283153D01*
X163763446Y-114258292D01*
X163798005Y-114239820D01*
X163835501Y-114228445D01*
X163880638Y-114224000D01*
X164619362Y-114224000D01*
X164664499Y-114228445D01*
G37*
G36*
X162914499Y-114228445D02*
G01*
X162951995Y-114239820D01*
X162986554Y-114258292D01*
X163016847Y-114283153D01*
X163041708Y-114313446D01*
X163060180Y-114348005D01*
X163071555Y-114385501D01*
X163076000Y-114430638D01*
X163076000Y-115069362D01*
X163071555Y-115114499D01*
X163060180Y-115151995D01*
X163041708Y-115186554D01*
X163016847Y-115216847D01*
X162986554Y-115241708D01*
X162951995Y-115260180D01*
X162914499Y-115271555D01*
X162869362Y-115276000D01*
X162130638Y-115276000D01*
X162085501Y-115271555D01*
X162048005Y-115260180D01*
X162013446Y-115241708D01*
X161983153Y-115216847D01*
X161958292Y-115186554D01*
X161939820Y-115151995D01*
X161928445Y-115114499D01*
X161924000Y-115069362D01*
X161924000Y-114430638D01*
X161928445Y-114385501D01*
X161939820Y-114348005D01*
X161958292Y-114313446D01*
X161983153Y-114283153D01*
X162013446Y-114258292D01*
X162048005Y-114239820D01*
X162085501Y-114228445D01*
X162130638Y-114224000D01*
X162869362Y-114224000D01*
X162914499Y-114228445D01*
G37*
G36*
X132225562Y-112753181D02*
G01*
X132260481Y-112763774D01*
X132292663Y-112780976D01*
X132320873Y-112804127D01*
X132344024Y-112832337D01*
X132361226Y-112864519D01*
X132371819Y-112899438D01*
X132376000Y-112941895D01*
X132376000Y-114083105D01*
X132371819Y-114125562D01*
X132361226Y-114160481D01*
X132344024Y-114192663D01*
X132320873Y-114220873D01*
X132292663Y-114244024D01*
X132260481Y-114261226D01*
X132225562Y-114271819D01*
X132183105Y-114276000D01*
X129816895Y-114276000D01*
X129774438Y-114271819D01*
X129739519Y-114261226D01*
X129707337Y-114244024D01*
X129679127Y-114220873D01*
X129655976Y-114192663D01*
X129638774Y-114160481D01*
X129628181Y-114125562D01*
X129624000Y-114083105D01*
X129624000Y-112941895D01*
X129628181Y-112899438D01*
X129638774Y-112864519D01*
X129655976Y-112832337D01*
X129679127Y-112804127D01*
X129707337Y-112780976D01*
X129739519Y-112763774D01*
X129774438Y-112753181D01*
X129816895Y-112749000D01*
X132183105Y-112749000D01*
X132225562Y-112753181D01*
G37*
G36*
X126584468Y-112466065D02*
G01*
X126623138Y-112477796D01*
X126658777Y-112496846D01*
X126690017Y-112522483D01*
X126715654Y-112553723D01*
X126734704Y-112589362D01*
X126746435Y-112628032D01*
X126751000Y-112674388D01*
X126751000Y-113325612D01*
X126746435Y-113371968D01*
X126734704Y-113410638D01*
X126715654Y-113446277D01*
X126690017Y-113477517D01*
X126658777Y-113503154D01*
X126623138Y-113522204D01*
X126584468Y-113533935D01*
X126538112Y-113538500D01*
X125461888Y-113538500D01*
X125415532Y-113533935D01*
X125376862Y-113522204D01*
X125341223Y-113503154D01*
X125309983Y-113477517D01*
X125284346Y-113446277D01*
X125265296Y-113410638D01*
X125253565Y-113371968D01*
X125249000Y-113325612D01*
X125249000Y-112674388D01*
X125253565Y-112628032D01*
X125265296Y-112589362D01*
X125284346Y-112553723D01*
X125309983Y-112522483D01*
X125341223Y-112496846D01*
X125376862Y-112477796D01*
X125415532Y-112466065D01*
X125461888Y-112461500D01*
X126538112Y-112461500D01*
X126584468Y-112466065D01*
G37*
G36*
X159601000Y-113401000D02*
G01*
X158699000Y-113401000D01*
X158699000Y-112399000D01*
X159601000Y-112399000D01*
X159601000Y-113401000D01*
G37*
G36*
X155264499Y-111403445D02*
G01*
X155301995Y-111414820D01*
X155336554Y-111433292D01*
X155366847Y-111458153D01*
X155391708Y-111488446D01*
X155410180Y-111523005D01*
X155421555Y-111560501D01*
X155426000Y-111605638D01*
X155426000Y-112344362D01*
X155421555Y-112389499D01*
X155410180Y-112426995D01*
X155391708Y-112461554D01*
X155366847Y-112491847D01*
X155336554Y-112516708D01*
X155301995Y-112535180D01*
X155264499Y-112546555D01*
X155219362Y-112551000D01*
X154580638Y-112551000D01*
X154535501Y-112546555D01*
X154498005Y-112535180D01*
X154463446Y-112516708D01*
X154433153Y-112491847D01*
X154408292Y-112461554D01*
X154389820Y-112426995D01*
X154378445Y-112389499D01*
X154374000Y-112344362D01*
X154374000Y-111605638D01*
X154378445Y-111560501D01*
X154389820Y-111523005D01*
X154408292Y-111488446D01*
X154433153Y-111458153D01*
X154463446Y-111433292D01*
X154498005Y-111414820D01*
X154535501Y-111403445D01*
X154580638Y-111399000D01*
X155219362Y-111399000D01*
X155264499Y-111403445D01*
G37*
G36*
X155264499Y-109653445D02*
G01*
X155301995Y-109664820D01*
X155336554Y-109683292D01*
X155366847Y-109708153D01*
X155391708Y-109738446D01*
X155410180Y-109773005D01*
X155421555Y-109810501D01*
X155426000Y-109855638D01*
X155426000Y-110594362D01*
X155421555Y-110639499D01*
X155410180Y-110676995D01*
X155391708Y-110711554D01*
X155366847Y-110741847D01*
X155336554Y-110766708D01*
X155301995Y-110785180D01*
X155264499Y-110796555D01*
X155219362Y-110801000D01*
X154580638Y-110801000D01*
X154535501Y-110796555D01*
X154498005Y-110785180D01*
X154463446Y-110766708D01*
X154433153Y-110741847D01*
X154408292Y-110711554D01*
X154389820Y-110676995D01*
X154378445Y-110639499D01*
X154374000Y-110594362D01*
X154374000Y-109855638D01*
X154378445Y-109810501D01*
X154389820Y-109773005D01*
X154408292Y-109738446D01*
X154433153Y-109708153D01*
X154463446Y-109683292D01*
X154498005Y-109664820D01*
X154535501Y-109653445D01*
X154580638Y-109649000D01*
X155219362Y-109649000D01*
X155264499Y-109653445D01*
G37*
G36*
X163739499Y-109003445D02*
G01*
X163776995Y-109014820D01*
X163811554Y-109033292D01*
X163841847Y-109058153D01*
X163866708Y-109088446D01*
X163885180Y-109123005D01*
X163896555Y-109160501D01*
X163901000Y-109205638D01*
X163901000Y-109844362D01*
X163896555Y-109889499D01*
X163885180Y-109926995D01*
X163866708Y-109961554D01*
X163841847Y-109991847D01*
X163811554Y-110016708D01*
X163776995Y-110035180D01*
X163739499Y-110046555D01*
X163694362Y-110051000D01*
X162955638Y-110051000D01*
X162910501Y-110046555D01*
X162873005Y-110035180D01*
X162838446Y-110016708D01*
X162808153Y-109991847D01*
X162783292Y-109961554D01*
X162764820Y-109926995D01*
X162753445Y-109889499D01*
X162749000Y-109844362D01*
X162749000Y-109205638D01*
X162753445Y-109160501D01*
X162764820Y-109123005D01*
X162783292Y-109088446D01*
X162808153Y-109058153D01*
X162838446Y-109033292D01*
X162873005Y-109014820D01*
X162910501Y-109003445D01*
X162955638Y-108999000D01*
X163694362Y-108999000D01*
X163739499Y-109003445D01*
G37*
G36*
X165489499Y-109003445D02*
G01*
X165526995Y-109014820D01*
X165561554Y-109033292D01*
X165591847Y-109058153D01*
X165616708Y-109088446D01*
X165635180Y-109123005D01*
X165646555Y-109160501D01*
X165651000Y-109205638D01*
X165651000Y-109844362D01*
X165646555Y-109889499D01*
X165635180Y-109926995D01*
X165616708Y-109961554D01*
X165591847Y-109991847D01*
X165561554Y-110016708D01*
X165526995Y-110035180D01*
X165489499Y-110046555D01*
X165444362Y-110051000D01*
X164705638Y-110051000D01*
X164660501Y-110046555D01*
X164623005Y-110035180D01*
X164588446Y-110016708D01*
X164558153Y-109991847D01*
X164533292Y-109961554D01*
X164514820Y-109926995D01*
X164503445Y-109889499D01*
X164499000Y-109844362D01*
X164499000Y-109205638D01*
X164503445Y-109160501D01*
X164514820Y-109123005D01*
X164533292Y-109088446D01*
X164558153Y-109058153D01*
X164588446Y-109033292D01*
X164623005Y-109014820D01*
X164660501Y-109003445D01*
X164705638Y-108999000D01*
X165444362Y-108999000D01*
X165489499Y-109003445D01*
G37*
G36*
X179921934Y-106702671D02*
G01*
X179951877Y-106711754D01*
X179979465Y-106726500D01*
X180003651Y-106746349D01*
X180023500Y-106770535D01*
X180038246Y-106798123D01*
X180047329Y-106828066D01*
X180051000Y-106865340D01*
X180051000Y-109134660D01*
X180047329Y-109171934D01*
X180038246Y-109201877D01*
X180023500Y-109229465D01*
X180003651Y-109253651D01*
X179979465Y-109273500D01*
X179951877Y-109288246D01*
X179921934Y-109297329D01*
X179884660Y-109301000D01*
X176115340Y-109301000D01*
X176078066Y-109297329D01*
X176048123Y-109288246D01*
X176020535Y-109273500D01*
X175996349Y-109253651D01*
X175976500Y-109229465D01*
X175961754Y-109201877D01*
X175952671Y-109171934D01*
X175949000Y-109134660D01*
X175949000Y-106865340D01*
X175952671Y-106828066D01*
X175961754Y-106798123D01*
X175976500Y-106770535D01*
X175996349Y-106746349D01*
X176020535Y-106726500D01*
X176048123Y-106711754D01*
X176078066Y-106702671D01*
X176115340Y-106699000D01*
X179884660Y-106699000D01*
X179921934Y-106702671D01*
G37*
G36*
X171921934Y-106702671D02*
G01*
X171951877Y-106711754D01*
X171979465Y-106726500D01*
X172003651Y-106746349D01*
X172023500Y-106770535D01*
X172038246Y-106798123D01*
X172047329Y-106828066D01*
X172051000Y-106865340D01*
X172051000Y-109134660D01*
X172047329Y-109171934D01*
X172038246Y-109201877D01*
X172023500Y-109229465D01*
X172003651Y-109253651D01*
X171979465Y-109273500D01*
X171951877Y-109288246D01*
X171921934Y-109297329D01*
X171884660Y-109301000D01*
X168115340Y-109301000D01*
X168078066Y-109297329D01*
X168048123Y-109288246D01*
X168020535Y-109273500D01*
X167996349Y-109253651D01*
X167976500Y-109229465D01*
X167961754Y-109201877D01*
X167952671Y-109171934D01*
X167949000Y-109134660D01*
X167949000Y-106865340D01*
X167952671Y-106828066D01*
X167961754Y-106798123D01*
X167976500Y-106770535D01*
X167996349Y-106746349D01*
X168020535Y-106726500D01*
X168048123Y-106711754D01*
X168078066Y-106702671D01*
X168115340Y-106699000D01*
X171884660Y-106699000D01*
X171921934Y-106702671D01*
G37*
G36*
X157451000Y-108551000D02*
G01*
X156549000Y-108551000D01*
X156549000Y-107549000D01*
X157451000Y-107549000D01*
X157451000Y-108551000D01*
G37*
G36*
X155551000Y-108551000D02*
G01*
X154649000Y-108551000D01*
X154649000Y-107549000D01*
X155551000Y-107549000D01*
X155551000Y-108551000D01*
G37*
G36*
X130664499Y-107478445D02*
G01*
X130701995Y-107489820D01*
X130736554Y-107508292D01*
X130766847Y-107533153D01*
X130791708Y-107563446D01*
X130810180Y-107598005D01*
X130821555Y-107635501D01*
X130826000Y-107680638D01*
X130826000Y-108319362D01*
X130821555Y-108364499D01*
X130810180Y-108401995D01*
X130791708Y-108436554D01*
X130766847Y-108466847D01*
X130736554Y-108491708D01*
X130701995Y-108510180D01*
X130664499Y-108521555D01*
X130619362Y-108526000D01*
X129880638Y-108526000D01*
X129835501Y-108521555D01*
X129798005Y-108510180D01*
X129763446Y-108491708D01*
X129733153Y-108466847D01*
X129708292Y-108436554D01*
X129689820Y-108401995D01*
X129678445Y-108364499D01*
X129674000Y-108319362D01*
X129674000Y-107680638D01*
X129678445Y-107635501D01*
X129689820Y-107598005D01*
X129708292Y-107563446D01*
X129733153Y-107533153D01*
X129763446Y-107508292D01*
X129798005Y-107489820D01*
X129835501Y-107478445D01*
X129880638Y-107474000D01*
X130619362Y-107474000D01*
X130664499Y-107478445D01*
G37*
G36*
X132414499Y-107478445D02*
G01*
X132451995Y-107489820D01*
X132486554Y-107508292D01*
X132516847Y-107533153D01*
X132541708Y-107563446D01*
X132560180Y-107598005D01*
X132571555Y-107635501D01*
X132576000Y-107680638D01*
X132576000Y-108319362D01*
X132571555Y-108364499D01*
X132560180Y-108401995D01*
X132541708Y-108436554D01*
X132516847Y-108466847D01*
X132486554Y-108491708D01*
X132451995Y-108510180D01*
X132414499Y-108521555D01*
X132369362Y-108526000D01*
X131630638Y-108526000D01*
X131585501Y-108521555D01*
X131548005Y-108510180D01*
X131513446Y-108491708D01*
X131483153Y-108466847D01*
X131458292Y-108436554D01*
X131439820Y-108401995D01*
X131428445Y-108364499D01*
X131424000Y-108319362D01*
X131424000Y-107680638D01*
X131428445Y-107635501D01*
X131439820Y-107598005D01*
X131458292Y-107563446D01*
X131483153Y-107533153D01*
X131513446Y-107508292D01*
X131548005Y-107489820D01*
X131585501Y-107478445D01*
X131630638Y-107474000D01*
X132369362Y-107474000D01*
X132414499Y-107478445D01*
G37*
G36*
X159414499Y-107378445D02*
G01*
X159451995Y-107389820D01*
X159486554Y-107408292D01*
X159516847Y-107433153D01*
X159541708Y-107463446D01*
X159560180Y-107498005D01*
X159571555Y-107535501D01*
X159576000Y-107580638D01*
X159576000Y-108319362D01*
X159571555Y-108364499D01*
X159560180Y-108401995D01*
X159541708Y-108436554D01*
X159516847Y-108466847D01*
X159486554Y-108491708D01*
X159451995Y-108510180D01*
X159414499Y-108521555D01*
X159369362Y-108526000D01*
X158730638Y-108526000D01*
X158685501Y-108521555D01*
X158648005Y-108510180D01*
X158613446Y-108491708D01*
X158583153Y-108466847D01*
X158558292Y-108436554D01*
X158539820Y-108401995D01*
X158528445Y-108364499D01*
X158524000Y-108319362D01*
X158524000Y-107580638D01*
X158528445Y-107535501D01*
X158539820Y-107498005D01*
X158558292Y-107463446D01*
X158583153Y-107433153D01*
X158613446Y-107408292D01*
X158648005Y-107389820D01*
X158685501Y-107378445D01*
X158730638Y-107374000D01*
X159369362Y-107374000D01*
X159414499Y-107378445D01*
G37*
G36*
X114094585Y-105158802D02*
G01*
X114244410Y-105188604D01*
X114526674Y-105305521D01*
X114780705Y-105475259D01*
X114996741Y-105691295D01*
X115166479Y-105945326D01*
X115283396Y-106227590D01*
X115283396Y-106227591D01*
X115343000Y-106527239D01*
X115343000Y-106832761D01*
X115332509Y-106885501D01*
X115283396Y-107132410D01*
X115166479Y-107414674D01*
X114996741Y-107668705D01*
X114780705Y-107884741D01*
X114526674Y-108054479D01*
X114244410Y-108171396D01*
X114094585Y-108201198D01*
X113944761Y-108231000D01*
X113639239Y-108231000D01*
X113489415Y-108201198D01*
X113339590Y-108171396D01*
X113057326Y-108054479D01*
X112803295Y-107884741D01*
X112587259Y-107668705D01*
X112417521Y-107414674D01*
X112300604Y-107132410D01*
X112251491Y-106885501D01*
X112241000Y-106832761D01*
X112241000Y-106527239D01*
X112300604Y-106227591D01*
X112300604Y-106227590D01*
X112417521Y-105945326D01*
X112587259Y-105691295D01*
X112803295Y-105475259D01*
X113057326Y-105305521D01*
X113339590Y-105188604D01*
X113489415Y-105158802D01*
X113639239Y-105129000D01*
X113944761Y-105129000D01*
X114094585Y-105158802D01*
G37*
G36*
X165439499Y-106728445D02*
G01*
X165476995Y-106739820D01*
X165511554Y-106758292D01*
X165541847Y-106783153D01*
X165566708Y-106813446D01*
X165585180Y-106848005D01*
X165596555Y-106885501D01*
X165601000Y-106930638D01*
X165601000Y-107569362D01*
X165596555Y-107614499D01*
X165585180Y-107651995D01*
X165566708Y-107686554D01*
X165541847Y-107716847D01*
X165511554Y-107741708D01*
X165476995Y-107760180D01*
X165439499Y-107771555D01*
X165394362Y-107776000D01*
X164655638Y-107776000D01*
X164610501Y-107771555D01*
X164573005Y-107760180D01*
X164538446Y-107741708D01*
X164508153Y-107716847D01*
X164483292Y-107686554D01*
X164464820Y-107651995D01*
X164453445Y-107614499D01*
X164449000Y-107569362D01*
X164449000Y-106930638D01*
X164453445Y-106885501D01*
X164464820Y-106848005D01*
X164483292Y-106813446D01*
X164508153Y-106783153D01*
X164538446Y-106758292D01*
X164573005Y-106739820D01*
X164610501Y-106728445D01*
X164655638Y-106724000D01*
X165394362Y-106724000D01*
X165439499Y-106728445D01*
G37*
G36*
X163689499Y-106728445D02*
G01*
X163726995Y-106739820D01*
X163761554Y-106758292D01*
X163791847Y-106783153D01*
X163816708Y-106813446D01*
X163835180Y-106848005D01*
X163846555Y-106885501D01*
X163851000Y-106930638D01*
X163851000Y-107569362D01*
X163846555Y-107614499D01*
X163835180Y-107651995D01*
X163816708Y-107686554D01*
X163791847Y-107716847D01*
X163761554Y-107741708D01*
X163726995Y-107760180D01*
X163689499Y-107771555D01*
X163644362Y-107776000D01*
X162905638Y-107776000D01*
X162860501Y-107771555D01*
X162823005Y-107760180D01*
X162788446Y-107741708D01*
X162758153Y-107716847D01*
X162733292Y-107686554D01*
X162714820Y-107651995D01*
X162703445Y-107614499D01*
X162699000Y-107569362D01*
X162699000Y-106930638D01*
X162703445Y-106885501D01*
X162714820Y-106848005D01*
X162733292Y-106813446D01*
X162758153Y-106783153D01*
X162788446Y-106758292D01*
X162823005Y-106739820D01*
X162860501Y-106728445D01*
X162905638Y-106724000D01*
X163644362Y-106724000D01*
X163689499Y-106728445D01*
G37*
G36*
X144828585Y-104498402D02*
G01*
X144978410Y-104528204D01*
X145260674Y-104645121D01*
X145514705Y-104814859D01*
X145730741Y-105030895D01*
X145900479Y-105284926D01*
X146017396Y-105567190D01*
X146077000Y-105866840D01*
X146077000Y-106172360D01*
X146017396Y-106472010D01*
X145900479Y-106754274D01*
X145730741Y-107008305D01*
X145514705Y-107224341D01*
X145260674Y-107394079D01*
X144978410Y-107510996D01*
X144828585Y-107540798D01*
X144678761Y-107570600D01*
X144373239Y-107570600D01*
X144223415Y-107540798D01*
X144073590Y-107510996D01*
X143791326Y-107394079D01*
X143537295Y-107224341D01*
X143321259Y-107008305D01*
X143151521Y-106754274D01*
X143034604Y-106472010D01*
X142975000Y-106172360D01*
X142975000Y-105866840D01*
X143034604Y-105567190D01*
X143151521Y-105284926D01*
X143321259Y-105030895D01*
X143537295Y-104814859D01*
X143791326Y-104645121D01*
X144073590Y-104528204D01*
X144223415Y-104498402D01*
X144373239Y-104468600D01*
X144678761Y-104468600D01*
X144828585Y-104498402D01*
G37*
G36*
X159414499Y-105628445D02*
G01*
X159451995Y-105639820D01*
X159486554Y-105658292D01*
X159516847Y-105683153D01*
X159541708Y-105713446D01*
X159560180Y-105748005D01*
X159571555Y-105785501D01*
X159576000Y-105830638D01*
X159576000Y-106569362D01*
X159571555Y-106614499D01*
X159560180Y-106651995D01*
X159541708Y-106686554D01*
X159516847Y-106716847D01*
X159486554Y-106741708D01*
X159451995Y-106760180D01*
X159414499Y-106771555D01*
X159369362Y-106776000D01*
X158730638Y-106776000D01*
X158685501Y-106771555D01*
X158648005Y-106760180D01*
X158613446Y-106741708D01*
X158583153Y-106716847D01*
X158558292Y-106686554D01*
X158539820Y-106651995D01*
X158528445Y-106614499D01*
X158524000Y-106569362D01*
X158524000Y-105830638D01*
X158528445Y-105785501D01*
X158539820Y-105748005D01*
X158558292Y-105713446D01*
X158583153Y-105683153D01*
X158613446Y-105658292D01*
X158648005Y-105639820D01*
X158685501Y-105628445D01*
X158730638Y-105624000D01*
X159369362Y-105624000D01*
X159414499Y-105628445D01*
G37*
G36*
X156501000Y-106551000D02*
G01*
X155599000Y-106551000D01*
X155599000Y-105549000D01*
X156501000Y-105549000D01*
X156501000Y-106551000D01*
G37*
G36*
X165414499Y-103878445D02*
G01*
X165451995Y-103889820D01*
X165486554Y-103908292D01*
X165516847Y-103933153D01*
X165541708Y-103963446D01*
X165560180Y-103998005D01*
X165571555Y-104035501D01*
X165576000Y-104080638D01*
X165576000Y-104819362D01*
X165571555Y-104864499D01*
X165560180Y-104901995D01*
X165541708Y-104936554D01*
X165516847Y-104966847D01*
X165486554Y-104991708D01*
X165451995Y-105010180D01*
X165414499Y-105021555D01*
X165369362Y-105026000D01*
X164730638Y-105026000D01*
X164685501Y-105021555D01*
X164648005Y-105010180D01*
X164613446Y-104991708D01*
X164583153Y-104966847D01*
X164558292Y-104936554D01*
X164539820Y-104901995D01*
X164528445Y-104864499D01*
X164524000Y-104819362D01*
X164524000Y-104080638D01*
X164528445Y-104035501D01*
X164539820Y-103998005D01*
X164558292Y-103963446D01*
X164583153Y-103933153D01*
X164613446Y-103908292D01*
X164648005Y-103889820D01*
X164685501Y-103878445D01*
X164730638Y-103874000D01*
X165369362Y-103874000D01*
X165414499Y-103878445D01*
G37*
G36*
X162514499Y-103878445D02*
G01*
X162551995Y-103889820D01*
X162586554Y-103908292D01*
X162616847Y-103933153D01*
X162641708Y-103963446D01*
X162660180Y-103998005D01*
X162671555Y-104035501D01*
X162676000Y-104080638D01*
X162676000Y-104819362D01*
X162671555Y-104864499D01*
X162660180Y-104901995D01*
X162641708Y-104936554D01*
X162616847Y-104966847D01*
X162586554Y-104991708D01*
X162551995Y-105010180D01*
X162514499Y-105021555D01*
X162469362Y-105026000D01*
X161830638Y-105026000D01*
X161785501Y-105021555D01*
X161748005Y-105010180D01*
X161713446Y-104991708D01*
X161683153Y-104966847D01*
X161658292Y-104936554D01*
X161639820Y-104901995D01*
X161628445Y-104864499D01*
X161624000Y-104819362D01*
X161624000Y-104080638D01*
X161628445Y-104035501D01*
X161639820Y-103998005D01*
X161658292Y-103963446D01*
X161683153Y-103933153D01*
X161713446Y-103908292D01*
X161748005Y-103889820D01*
X161785501Y-103878445D01*
X161830638Y-103874000D01*
X162469362Y-103874000D01*
X162514499Y-103878445D01*
G37*
G36*
X130539499Y-102478445D02*
G01*
X130576995Y-102489820D01*
X130611554Y-102508292D01*
X130641847Y-102533153D01*
X130666708Y-102563446D01*
X130685180Y-102598005D01*
X130696555Y-102635501D01*
X130701000Y-102680638D01*
X130701000Y-103319362D01*
X130696555Y-103364499D01*
X130685180Y-103401995D01*
X130666708Y-103436554D01*
X130641847Y-103466847D01*
X130611554Y-103491708D01*
X130576995Y-103510180D01*
X130539499Y-103521555D01*
X130494362Y-103526000D01*
X129755638Y-103526000D01*
X129710501Y-103521555D01*
X129673005Y-103510180D01*
X129638446Y-103491708D01*
X129608153Y-103466847D01*
X129583292Y-103436554D01*
X129564820Y-103401995D01*
X129553445Y-103364499D01*
X129549000Y-103319362D01*
X129549000Y-102680638D01*
X129553445Y-102635501D01*
X129564820Y-102598005D01*
X129583292Y-102563446D01*
X129608153Y-102533153D01*
X129638446Y-102508292D01*
X129673005Y-102489820D01*
X129710501Y-102478445D01*
X129755638Y-102474000D01*
X130494362Y-102474000D01*
X130539499Y-102478445D01*
G37*
G36*
X132289499Y-102478445D02*
G01*
X132326995Y-102489820D01*
X132361554Y-102508292D01*
X132391847Y-102533153D01*
X132416708Y-102563446D01*
X132435180Y-102598005D01*
X132446555Y-102635501D01*
X132451000Y-102680638D01*
X132451000Y-103319362D01*
X132446555Y-103364499D01*
X132435180Y-103401995D01*
X132416708Y-103436554D01*
X132391847Y-103466847D01*
X132361554Y-103491708D01*
X132326995Y-103510180D01*
X132289499Y-103521555D01*
X132244362Y-103526000D01*
X131505638Y-103526000D01*
X131460501Y-103521555D01*
X131423005Y-103510180D01*
X131388446Y-103491708D01*
X131358153Y-103466847D01*
X131333292Y-103436554D01*
X131314820Y-103401995D01*
X131303445Y-103364499D01*
X131299000Y-103319362D01*
X131299000Y-102680638D01*
X131303445Y-102635501D01*
X131314820Y-102598005D01*
X131333292Y-102563446D01*
X131358153Y-102533153D01*
X131388446Y-102508292D01*
X131423005Y-102489820D01*
X131460501Y-102478445D01*
X131505638Y-102474000D01*
X132244362Y-102474000D01*
X132289499Y-102478445D01*
G37*
G36*
X165414499Y-102128445D02*
G01*
X165451995Y-102139820D01*
X165486554Y-102158292D01*
X165516847Y-102183153D01*
X165541708Y-102213446D01*
X165560180Y-102248005D01*
X165571555Y-102285501D01*
X165576000Y-102330638D01*
X165576000Y-103069362D01*
X165571555Y-103114499D01*
X165560180Y-103151995D01*
X165541708Y-103186554D01*
X165516847Y-103216847D01*
X165486554Y-103241708D01*
X165451995Y-103260180D01*
X165414499Y-103271555D01*
X165369362Y-103276000D01*
X164730638Y-103276000D01*
X164685501Y-103271555D01*
X164648005Y-103260180D01*
X164613446Y-103241708D01*
X164583153Y-103216847D01*
X164558292Y-103186554D01*
X164539820Y-103151995D01*
X164528445Y-103114499D01*
X164524000Y-103069362D01*
X164524000Y-102330638D01*
X164528445Y-102285501D01*
X164539820Y-102248005D01*
X164558292Y-102213446D01*
X164583153Y-102183153D01*
X164613446Y-102158292D01*
X164648005Y-102139820D01*
X164685501Y-102128445D01*
X164730638Y-102124000D01*
X165369362Y-102124000D01*
X165414499Y-102128445D01*
G37*
G36*
X162514499Y-102128445D02*
G01*
X162551995Y-102139820D01*
X162586554Y-102158292D01*
X162616847Y-102183153D01*
X162641708Y-102213446D01*
X162660180Y-102248005D01*
X162671555Y-102285501D01*
X162676000Y-102330638D01*
X162676000Y-103069362D01*
X162671555Y-103114499D01*
X162660180Y-103151995D01*
X162641708Y-103186554D01*
X162616847Y-103216847D01*
X162586554Y-103241708D01*
X162551995Y-103260180D01*
X162514499Y-103271555D01*
X162469362Y-103276000D01*
X161830638Y-103276000D01*
X161785501Y-103271555D01*
X161748005Y-103260180D01*
X161713446Y-103241708D01*
X161683153Y-103216847D01*
X161658292Y-103186554D01*
X161639820Y-103151995D01*
X161628445Y-103114499D01*
X161624000Y-103069362D01*
X161624000Y-102330638D01*
X161628445Y-102285501D01*
X161639820Y-102248005D01*
X161658292Y-102213446D01*
X161683153Y-102183153D01*
X161713446Y-102158292D01*
X161748005Y-102139820D01*
X161785501Y-102128445D01*
X161830638Y-102124000D01*
X162469362Y-102124000D01*
X162514499Y-102128445D01*
G37*
G36*
X170951000Y-101801000D02*
G01*
X169049000Y-101801000D01*
X169049000Y-98199000D01*
X170951000Y-98199000D01*
X170951000Y-101801000D01*
G37*
G36*
X175951000Y-101801000D02*
G01*
X174049000Y-101801000D01*
X174049000Y-98199000D01*
X175951000Y-98199000D01*
X175951000Y-101801000D01*
G37*
G36*
X157416242Y-100403404D02*
G01*
X157453337Y-100414657D01*
X157487515Y-100432925D01*
X157517481Y-100457519D01*
X157542075Y-100487485D01*
X157560343Y-100521663D01*
X157571596Y-100558758D01*
X157576000Y-100603474D01*
X157576000Y-101496526D01*
X157571596Y-101541242D01*
X157560343Y-101578337D01*
X157542075Y-101612515D01*
X157517481Y-101642481D01*
X157487515Y-101667075D01*
X157453337Y-101685343D01*
X157416242Y-101696596D01*
X157371526Y-101701000D01*
X155928474Y-101701000D01*
X155883758Y-101696596D01*
X155846663Y-101685343D01*
X155812485Y-101667075D01*
X155782519Y-101642481D01*
X155757925Y-101612515D01*
X155739657Y-101578337D01*
X155728404Y-101541242D01*
X155724000Y-101496526D01*
X155724000Y-100603474D01*
X155728404Y-100558758D01*
X155739657Y-100521663D01*
X155757925Y-100487485D01*
X155782519Y-100457519D01*
X155812485Y-100432925D01*
X155846663Y-100414657D01*
X155883758Y-100403404D01*
X155928474Y-100399000D01*
X157371526Y-100399000D01*
X157416242Y-100403404D01*
G37*
G36*
X156988855Y-98402140D02*
G01*
X157052618Y-98408420D01*
X157133400Y-98432925D01*
X157175336Y-98445646D01*
X157288425Y-98506094D01*
X157387554Y-98587446D01*
X157468906Y-98686575D01*
X157529354Y-98799664D01*
X157529355Y-98799668D01*
X157566580Y-98922382D01*
X157579149Y-99050000D01*
X157566580Y-99177618D01*
X157539040Y-99268404D01*
X157529354Y-99300336D01*
X157468906Y-99413425D01*
X157387554Y-99512554D01*
X157288425Y-99593906D01*
X157175336Y-99654354D01*
X157143404Y-99664040D01*
X157052618Y-99691580D01*
X156988855Y-99697860D01*
X156956974Y-99701000D01*
X156343026Y-99701000D01*
X156311145Y-99697860D01*
X156247382Y-99691580D01*
X156156596Y-99664040D01*
X156124664Y-99654354D01*
X156011575Y-99593906D01*
X155912446Y-99512554D01*
X155831094Y-99413425D01*
X155770646Y-99300336D01*
X155760960Y-99268404D01*
X155733420Y-99177618D01*
X155720851Y-99050000D01*
X155733420Y-98922382D01*
X155770645Y-98799668D01*
X155770646Y-98799664D01*
X155831094Y-98686575D01*
X155912446Y-98587446D01*
X156011575Y-98506094D01*
X156124664Y-98445646D01*
X156166600Y-98432925D01*
X156247382Y-98408420D01*
X156311145Y-98402140D01*
X156343026Y-98399000D01*
X156956974Y-98399000D01*
X156988855Y-98402140D01*
G37*
G36*
X164216242Y-98403404D02*
G01*
X164253337Y-98414657D01*
X164287515Y-98432925D01*
X164317481Y-98457519D01*
X164342075Y-98487485D01*
X164360343Y-98521663D01*
X164371596Y-98558758D01*
X164376000Y-98603474D01*
X164376000Y-99496526D01*
X164371596Y-99541242D01*
X164360343Y-99578337D01*
X164342075Y-99612515D01*
X164317481Y-99642481D01*
X164287515Y-99667075D01*
X164253337Y-99685343D01*
X164216242Y-99696596D01*
X164171526Y-99701000D01*
X162728474Y-99701000D01*
X162683758Y-99696596D01*
X162646663Y-99685343D01*
X162612485Y-99667075D01*
X162582519Y-99642481D01*
X162557925Y-99612515D01*
X162539657Y-99578337D01*
X162528404Y-99541242D01*
X162524000Y-99496526D01*
X162524000Y-98603474D01*
X162528404Y-98558758D01*
X162539657Y-98521663D01*
X162557925Y-98487485D01*
X162582519Y-98457519D01*
X162612485Y-98432925D01*
X162646663Y-98414657D01*
X162683758Y-98403404D01*
X162728474Y-98399000D01*
X164171526Y-98399000D01*
X164216242Y-98403404D01*
G37*
G36*
X140479000Y-98963000D02*
G01*
X133977000Y-98963000D01*
X133977000Y-93061000D01*
X140479000Y-93061000D01*
X140479000Y-98963000D01*
G37*
G36*
X132079000Y-98943000D02*
G01*
X129777000Y-98943000D01*
X129777000Y-97641000D01*
X132079000Y-97641000D01*
X132079000Y-98943000D01*
G37*
G36*
X156988855Y-96402140D02*
G01*
X157052618Y-96408420D01*
X157143404Y-96435960D01*
X157175336Y-96445646D01*
X157288425Y-96506094D01*
X157387554Y-96587446D01*
X157468906Y-96686575D01*
X157529354Y-96799664D01*
X157529355Y-96799668D01*
X157566580Y-96922382D01*
X157579149Y-97050000D01*
X157566580Y-97177618D01*
X157539040Y-97268404D01*
X157529354Y-97300336D01*
X157468906Y-97413425D01*
X157387554Y-97512554D01*
X157288425Y-97593906D01*
X157175336Y-97654354D01*
X157143404Y-97664040D01*
X157052618Y-97691580D01*
X156988855Y-97697860D01*
X156956974Y-97701000D01*
X156343026Y-97701000D01*
X156311145Y-97697860D01*
X156247382Y-97691580D01*
X156156596Y-97664040D01*
X156124664Y-97654354D01*
X156011575Y-97593906D01*
X155912446Y-97512554D01*
X155831094Y-97413425D01*
X155770646Y-97300336D01*
X155760960Y-97268404D01*
X155733420Y-97177618D01*
X155720851Y-97050000D01*
X155733420Y-96922382D01*
X155770645Y-96799668D01*
X155770646Y-96799664D01*
X155831094Y-96686575D01*
X155912446Y-96587446D01*
X156011575Y-96506094D01*
X156124664Y-96445646D01*
X156156596Y-96435960D01*
X156247382Y-96408420D01*
X156311145Y-96402140D01*
X156343026Y-96399000D01*
X156956974Y-96399000D01*
X156988855Y-96402140D01*
G37*
G36*
X163788855Y-96402140D02*
G01*
X163852618Y-96408420D01*
X163943404Y-96435960D01*
X163975336Y-96445646D01*
X164088425Y-96506094D01*
X164187554Y-96587446D01*
X164268906Y-96686575D01*
X164329354Y-96799664D01*
X164329355Y-96799668D01*
X164366580Y-96922382D01*
X164379149Y-97050000D01*
X164366580Y-97177618D01*
X164339040Y-97268404D01*
X164329354Y-97300336D01*
X164268906Y-97413425D01*
X164187554Y-97512554D01*
X164088425Y-97593906D01*
X163975336Y-97654354D01*
X163943404Y-97664040D01*
X163852618Y-97691580D01*
X163788855Y-97697860D01*
X163756974Y-97701000D01*
X163143026Y-97701000D01*
X163111145Y-97697860D01*
X163047382Y-97691580D01*
X162956596Y-97664040D01*
X162924664Y-97654354D01*
X162811575Y-97593906D01*
X162712446Y-97512554D01*
X162631094Y-97413425D01*
X162570646Y-97300336D01*
X162560960Y-97268404D01*
X162533420Y-97177618D01*
X162520851Y-97050000D01*
X162533420Y-96922382D01*
X162570645Y-96799668D01*
X162570646Y-96799664D01*
X162631094Y-96686575D01*
X162712446Y-96587446D01*
X162811575Y-96506094D01*
X162924664Y-96445646D01*
X162956596Y-96435960D01*
X163047382Y-96408420D01*
X163111145Y-96402140D01*
X163143026Y-96399000D01*
X163756974Y-96399000D01*
X163788855Y-96402140D01*
G37*
G36*
X175951000Y-96801000D02*
G01*
X174049000Y-96801000D01*
X174049000Y-93199000D01*
X175951000Y-93199000D01*
X175951000Y-96801000D01*
G37*
G36*
X170951000Y-96801000D02*
G01*
X169049000Y-96801000D01*
X169049000Y-93199000D01*
X170951000Y-93199000D01*
X170951000Y-96801000D01*
G37*
G36*
X116468761Y-92298837D02*
G01*
X116727200Y-92377234D01*
X116965372Y-92504539D01*
X117174134Y-92675866D01*
X117345461Y-92884628D01*
X117472766Y-93122800D01*
X117551163Y-93381240D01*
X117571000Y-93582652D01*
X117571000Y-94377349D01*
X117551163Y-94578761D01*
X117472766Y-94837200D01*
X117345461Y-95075372D01*
X117174134Y-95284133D01*
X116965370Y-95455461D01*
X116727199Y-95582766D01*
X116468760Y-95661163D01*
X116200000Y-95687633D01*
X115931239Y-95661163D01*
X115672800Y-95582766D01*
X115434628Y-95455461D01*
X115225867Y-95284134D01*
X115054539Y-95075370D01*
X114927234Y-94837199D01*
X114848837Y-94578760D01*
X114829000Y-94377348D01*
X114829000Y-93582651D01*
X114848837Y-93381239D01*
X114927234Y-93122800D01*
X115054539Y-92884628D01*
X115225866Y-92675867D01*
X115434630Y-92504539D01*
X115672801Y-92377234D01*
X115931240Y-92298837D01*
X116200000Y-92272367D01*
X116468761Y-92298837D01*
G37*
G36*
X121583436Y-92282635D02*
G01*
X121613027Y-92291611D01*
X121640296Y-92306187D01*
X121664198Y-92325802D01*
X121683813Y-92349704D01*
X121698389Y-92376973D01*
X121707365Y-92406564D01*
X121711000Y-92443474D01*
X121711000Y-95516526D01*
X121707365Y-95553436D01*
X121698389Y-95583027D01*
X121683813Y-95610296D01*
X121664198Y-95634198D01*
X121640296Y-95653813D01*
X121613027Y-95668389D01*
X121583436Y-95677365D01*
X121546526Y-95681000D01*
X119133474Y-95681000D01*
X119096564Y-95677365D01*
X119066973Y-95668389D01*
X119039704Y-95653813D01*
X119015802Y-95634198D01*
X118996187Y-95610296D01*
X118981611Y-95583027D01*
X118972635Y-95553436D01*
X118969000Y-95516526D01*
X118969000Y-92443474D01*
X118972635Y-92406564D01*
X118981611Y-92376973D01*
X118996187Y-92349704D01*
X119015802Y-92325802D01*
X119039704Y-92306187D01*
X119066973Y-92291611D01*
X119096564Y-92282635D01*
X119133474Y-92279000D01*
X121546526Y-92279000D01*
X121583436Y-92282635D01*
G37*
G36*
X112238661Y-92402062D02*
G01*
X112537303Y-92525764D01*
X112537305Y-92525765D01*
X112806076Y-92705352D01*
X113034648Y-92933924D01*
X113214236Y-93202697D01*
X113337938Y-93501339D01*
X113401000Y-93818374D01*
X113401000Y-94141626D01*
X113337938Y-94458661D01*
X113288190Y-94578762D01*
X113214235Y-94757305D01*
X113034648Y-95026076D01*
X112806076Y-95254648D01*
X112537305Y-95434235D01*
X112537304Y-95434236D01*
X112537303Y-95434236D01*
X112238661Y-95557938D01*
X111921626Y-95621000D01*
X111598374Y-95621000D01*
X111281339Y-95557938D01*
X110982697Y-95434236D01*
X110982696Y-95434236D01*
X110982695Y-95434235D01*
X110713924Y-95254648D01*
X110485352Y-95026076D01*
X110305765Y-94757305D01*
X110231810Y-94578762D01*
X110182062Y-94458661D01*
X110119000Y-94141626D01*
X110119000Y-93818374D01*
X110182062Y-93501339D01*
X110305764Y-93202697D01*
X110485352Y-92933924D01*
X110713924Y-92705352D01*
X110982695Y-92525765D01*
X110982697Y-92525764D01*
X111281339Y-92402062D01*
X111598374Y-92339000D01*
X111921626Y-92339000D01*
X112238661Y-92402062D01*
G37*
G36*
X132079000Y-94383000D02*
G01*
X129777000Y-94383000D01*
X129777000Y-93081000D01*
X132079000Y-93081000D01*
X132079000Y-94383000D01*
G37*
G36*
X161777618Y-90083420D02*
G01*
X161858400Y-90107925D01*
X161900336Y-90120646D01*
X162013425Y-90181094D01*
X162112554Y-90262446D01*
X162193906Y-90361575D01*
X162254354Y-90474664D01*
X162254355Y-90474668D01*
X162291580Y-90597382D01*
X162301000Y-90693027D01*
X162301000Y-91306973D01*
X162291580Y-91402618D01*
X162282976Y-91430980D01*
X162254354Y-91525336D01*
X162193906Y-91638425D01*
X162112554Y-91737553D01*
X162013424Y-91818906D01*
X161900335Y-91879354D01*
X161868403Y-91889040D01*
X161777617Y-91916580D01*
X161650000Y-91929149D01*
X161522382Y-91916580D01*
X161431596Y-91889040D01*
X161399664Y-91879354D01*
X161286575Y-91818906D01*
X161187447Y-91737554D01*
X161106094Y-91638424D01*
X161045646Y-91525335D01*
X161023097Y-91451000D01*
X161008420Y-91402617D01*
X160999000Y-91306972D01*
X160999000Y-90693027D01*
X161008420Y-90597382D01*
X161033237Y-90515573D01*
X161045645Y-90474667D01*
X161098368Y-90376031D01*
X161106095Y-90361574D01*
X161121073Y-90343323D01*
X161187447Y-90262446D01*
X161286576Y-90181094D01*
X161399665Y-90120646D01*
X161441601Y-90107925D01*
X161522383Y-90083420D01*
X161650000Y-90070851D01*
X161777618Y-90083420D01*
G37*
G36*
X159777618Y-90083420D02*
G01*
X159858400Y-90107925D01*
X159900336Y-90120646D01*
X160013425Y-90181094D01*
X160112554Y-90262446D01*
X160193906Y-90361575D01*
X160254354Y-90474664D01*
X160254355Y-90474668D01*
X160291580Y-90597382D01*
X160301000Y-90693027D01*
X160301000Y-91306973D01*
X160291580Y-91402618D01*
X160282976Y-91430980D01*
X160254354Y-91525336D01*
X160193906Y-91638425D01*
X160112554Y-91737553D01*
X160013424Y-91818906D01*
X159900335Y-91879354D01*
X159868403Y-91889040D01*
X159777617Y-91916580D01*
X159650000Y-91929149D01*
X159522382Y-91916580D01*
X159431596Y-91889040D01*
X159399664Y-91879354D01*
X159286575Y-91818906D01*
X159187447Y-91737554D01*
X159106094Y-91638424D01*
X159045646Y-91525335D01*
X159023097Y-91451000D01*
X159008420Y-91402617D01*
X158999000Y-91306972D01*
X158999000Y-90693027D01*
X159008420Y-90597382D01*
X159033237Y-90515573D01*
X159045645Y-90474667D01*
X159098368Y-90376031D01*
X159106095Y-90361574D01*
X159121073Y-90343323D01*
X159187447Y-90262446D01*
X159286576Y-90181094D01*
X159399665Y-90120646D01*
X159441601Y-90107925D01*
X159522383Y-90083420D01*
X159650000Y-90070851D01*
X159777618Y-90083420D01*
G37*
G36*
X157777618Y-90083420D02*
G01*
X157858400Y-90107925D01*
X157900336Y-90120646D01*
X158013425Y-90181094D01*
X158112554Y-90262446D01*
X158193906Y-90361575D01*
X158254354Y-90474664D01*
X158254355Y-90474668D01*
X158291580Y-90597382D01*
X158301000Y-90693027D01*
X158301000Y-91306973D01*
X158291580Y-91402618D01*
X158282976Y-91430980D01*
X158254354Y-91525336D01*
X158193906Y-91638425D01*
X158112554Y-91737553D01*
X158013424Y-91818906D01*
X157900335Y-91879354D01*
X157868403Y-91889040D01*
X157777617Y-91916580D01*
X157650000Y-91929149D01*
X157522382Y-91916580D01*
X157431596Y-91889040D01*
X157399664Y-91879354D01*
X157286575Y-91818906D01*
X157187447Y-91737554D01*
X157106094Y-91638424D01*
X157045646Y-91525335D01*
X157023097Y-91451000D01*
X157008420Y-91402617D01*
X156999000Y-91306972D01*
X156999000Y-90693027D01*
X157008420Y-90597382D01*
X157033237Y-90515573D01*
X157045645Y-90474667D01*
X157098368Y-90376031D01*
X157106095Y-90361574D01*
X157121073Y-90343323D01*
X157187447Y-90262446D01*
X157286576Y-90181094D01*
X157399665Y-90120646D01*
X157441601Y-90107925D01*
X157522383Y-90083420D01*
X157650000Y-90070851D01*
X157777618Y-90083420D01*
G37*
G36*
X164141242Y-90078404D02*
G01*
X164178337Y-90089657D01*
X164212515Y-90107925D01*
X164242481Y-90132519D01*
X164267075Y-90162485D01*
X164285343Y-90196663D01*
X164296596Y-90233758D01*
X164301000Y-90278474D01*
X164301000Y-91721526D01*
X164296596Y-91766242D01*
X164285343Y-91803337D01*
X164267075Y-91837515D01*
X164242481Y-91867481D01*
X164212515Y-91892075D01*
X164178337Y-91910343D01*
X164141242Y-91921596D01*
X164096526Y-91926000D01*
X163203474Y-91926000D01*
X163158758Y-91921596D01*
X163121663Y-91910343D01*
X163087485Y-91892075D01*
X163057519Y-91867481D01*
X163032925Y-91837515D01*
X163014657Y-91803337D01*
X163003404Y-91766242D01*
X162999000Y-91721526D01*
X162999000Y-90278474D01*
X163003404Y-90233758D01*
X163014657Y-90196663D01*
X163032925Y-90162485D01*
X163057519Y-90132519D01*
X163087485Y-90107925D01*
X163121663Y-90089657D01*
X163158758Y-90078404D01*
X163203474Y-90074000D01*
X164096526Y-90074000D01*
X164141242Y-90078404D01*
G37*
G36*
X169320781Y-88253295D02*
G01*
X169356816Y-88264227D01*
X169390024Y-88281977D01*
X169419134Y-88305866D01*
X169443023Y-88334976D01*
X169460773Y-88368184D01*
X169471705Y-88404219D01*
X169476000Y-88447831D01*
X169476000Y-91552169D01*
X169471705Y-91595781D01*
X169460773Y-91631816D01*
X169443023Y-91665024D01*
X169419134Y-91694134D01*
X169390024Y-91718023D01*
X169356816Y-91735773D01*
X169320781Y-91746705D01*
X169277169Y-91751000D01*
X168272831Y-91751000D01*
X168229219Y-91746705D01*
X168193184Y-91735773D01*
X168159976Y-91718023D01*
X168130866Y-91694134D01*
X168106977Y-91665024D01*
X168089227Y-91631816D01*
X168078295Y-91595781D01*
X168074000Y-91552169D01*
X168074000Y-88447831D01*
X168078295Y-88404219D01*
X168089227Y-88368184D01*
X168106977Y-88334976D01*
X168130866Y-88305866D01*
X168159976Y-88281977D01*
X168193184Y-88264227D01*
X168229219Y-88253295D01*
X168272831Y-88249000D01*
X169277169Y-88249000D01*
X169320781Y-88253295D01*
G37*
G36*
X173770781Y-88253295D02*
G01*
X173806816Y-88264227D01*
X173840024Y-88281977D01*
X173869134Y-88305866D01*
X173893023Y-88334976D01*
X173910773Y-88368184D01*
X173921705Y-88404219D01*
X173926000Y-88447831D01*
X173926000Y-91552169D01*
X173921705Y-91595781D01*
X173910773Y-91631816D01*
X173893023Y-91665024D01*
X173869134Y-91694134D01*
X173840024Y-91718023D01*
X173806816Y-91735773D01*
X173770781Y-91746705D01*
X173727169Y-91751000D01*
X172722831Y-91751000D01*
X172679219Y-91746705D01*
X172643184Y-91735773D01*
X172609976Y-91718023D01*
X172580866Y-91694134D01*
X172556977Y-91665024D01*
X172539227Y-91631816D01*
X172528295Y-91595781D01*
X172524000Y-91552169D01*
X172524000Y-88447831D01*
X172528295Y-88404219D01*
X172539227Y-88368184D01*
X172556977Y-88334976D01*
X172580866Y-88305866D01*
X172609976Y-88281977D01*
X172643184Y-88264227D01*
X172679219Y-88253295D01*
X172722831Y-88249000D01*
X173727169Y-88249000D01*
X173770781Y-88253295D01*
G37*
G36*
X176364499Y-90303445D02*
G01*
X176401995Y-90314820D01*
X176436554Y-90333292D01*
X176466847Y-90358153D01*
X176491708Y-90388446D01*
X176510180Y-90423005D01*
X176521555Y-90460501D01*
X176526000Y-90505638D01*
X176526000Y-91244362D01*
X176521555Y-91289499D01*
X176510180Y-91326995D01*
X176491708Y-91361554D01*
X176466847Y-91391847D01*
X176436554Y-91416708D01*
X176401995Y-91435180D01*
X176364499Y-91446555D01*
X176319362Y-91451000D01*
X175680638Y-91451000D01*
X175635501Y-91446555D01*
X175598005Y-91435180D01*
X175563446Y-91416708D01*
X175533153Y-91391847D01*
X175508292Y-91361554D01*
X175489820Y-91326995D01*
X175478445Y-91289499D01*
X175474000Y-91244362D01*
X175474000Y-90505638D01*
X175478445Y-90460501D01*
X175489820Y-90423005D01*
X175508292Y-90388446D01*
X175533153Y-90358153D01*
X175563446Y-90333292D01*
X175598005Y-90314820D01*
X175635501Y-90303445D01*
X175680638Y-90299000D01*
X176319362Y-90299000D01*
X176364499Y-90303445D01*
G37*
G36*
X176364499Y-88553445D02*
G01*
X176401995Y-88564820D01*
X176436554Y-88583292D01*
X176466847Y-88608153D01*
X176491708Y-88638446D01*
X176510180Y-88673005D01*
X176521555Y-88710501D01*
X176526000Y-88755638D01*
X176526000Y-89494362D01*
X176521555Y-89539499D01*
X176510180Y-89576995D01*
X176491708Y-89611554D01*
X176466847Y-89641847D01*
X176436554Y-89666708D01*
X176401995Y-89685180D01*
X176364499Y-89696555D01*
X176319362Y-89701000D01*
X175680638Y-89701000D01*
X175635501Y-89696555D01*
X175598005Y-89685180D01*
X175563446Y-89666708D01*
X175533153Y-89641847D01*
X175508292Y-89611554D01*
X175489820Y-89576995D01*
X175478445Y-89539499D01*
X175474000Y-89494362D01*
X175474000Y-88755638D01*
X175478445Y-88710501D01*
X175489820Y-88673005D01*
X175508292Y-88638446D01*
X175533153Y-88608153D01*
X175563446Y-88583292D01*
X175598005Y-88564820D01*
X175635501Y-88553445D01*
X175680638Y-88549000D01*
X176319362Y-88549000D01*
X176364499Y-88553445D01*
G37*
M02*
