G04 #@! TF.GenerationSoftware,KiCad,Pcbnew,5.1.5-52549c5~84~ubuntu18.04.1*
G04 #@! TF.CreationDate,2020-02-07T13:44:20-05:00*
G04 #@! TF.ProjectId,TSAL,5453414c-2e6b-4696-9361-645f70636258,rev?*
G04 #@! TF.SameCoordinates,Original*
G04 #@! TF.FileFunction,Legend,Top*
G04 #@! TF.FilePolarity,Positive*
%FSLAX46Y46*%
G04 Gerber Fmt 4.6, Leading zero omitted, Abs format (unit mm)*
G04 Created by KiCad (PCBNEW 5.1.5-52549c5~84~ubuntu18.04.1) date 2020-02-07 13:44:20*
%MOMM*%
%LPD*%
G04 APERTURE LIST*
%ADD10C,0.150000*%
%ADD11C,0.120000*%
%ADD12C,0.200000*%
%ADD13C,0.500000*%
%ADD14C,0.300000*%
%ADD15C,0.250000*%
G04 APERTURE END LIST*
D10*
X147759404Y-92132380D02*
X147187976Y-92132380D01*
X147473690Y-92132380D02*
X147473690Y-91132380D01*
X147378452Y-91275238D01*
X147283214Y-91370476D01*
X147187976Y-91418095D01*
X148140357Y-91227619D02*
X148187976Y-91180000D01*
X148283214Y-91132380D01*
X148521309Y-91132380D01*
X148616547Y-91180000D01*
X148664166Y-91227619D01*
X148711785Y-91322857D01*
X148711785Y-91418095D01*
X148664166Y-91560952D01*
X148092738Y-92132380D01*
X148711785Y-92132380D01*
X149140357Y-92037142D02*
X149187976Y-92084761D01*
X149140357Y-92132380D01*
X149092738Y-92084761D01*
X149140357Y-92037142D01*
X149140357Y-92132380D01*
X149521309Y-91132380D02*
X150140357Y-91132380D01*
X149807023Y-91513333D01*
X149949880Y-91513333D01*
X150045119Y-91560952D01*
X150092738Y-91608571D01*
X150140357Y-91703809D01*
X150140357Y-91941904D01*
X150092738Y-92037142D01*
X150045119Y-92084761D01*
X149949880Y-92132380D01*
X149664166Y-92132380D01*
X149568928Y-92084761D01*
X149521309Y-92037142D01*
X151330833Y-92132380D02*
X151330833Y-91465714D01*
X151330833Y-91560952D02*
X151378452Y-91513333D01*
X151473690Y-91465714D01*
X151616547Y-91465714D01*
X151711785Y-91513333D01*
X151759404Y-91608571D01*
X151759404Y-92132380D01*
X151759404Y-91608571D02*
X151807023Y-91513333D01*
X151902261Y-91465714D01*
X152045119Y-91465714D01*
X152140357Y-91513333D01*
X152187976Y-91608571D01*
X152187976Y-92132380D01*
X152664166Y-92132380D02*
X152664166Y-91465714D01*
X152664166Y-91560952D02*
X152711785Y-91513333D01*
X152807023Y-91465714D01*
X152949880Y-91465714D01*
X153045119Y-91513333D01*
X153092738Y-91608571D01*
X153092738Y-92132380D01*
X153092738Y-91608571D02*
X153140357Y-91513333D01*
X153235595Y-91465714D01*
X153378452Y-91465714D01*
X153473690Y-91513333D01*
X153521309Y-91608571D01*
X153521309Y-92132380D01*
D11*
X140750000Y-92950000D02*
X153050000Y-92950000D01*
X140750000Y-97650000D02*
X140750000Y-92363579D01*
X153050000Y-97650000D02*
X153050000Y-92363579D01*
X153050000Y-92950000D02*
X151923496Y-93536421D01*
X153050000Y-92950000D02*
X151923496Y-92363579D01*
X140750000Y-92950000D02*
X141876504Y-93536421D01*
X140750000Y-92950000D02*
X141876504Y-92363579D01*
D12*
X145850000Y-100464285D02*
X145707142Y-100750000D01*
X145707142Y-101178571D01*
X145850000Y-101607142D01*
X146135714Y-101892857D01*
X146421428Y-102035714D01*
X146992857Y-102178571D01*
X147421428Y-102178571D01*
X147992857Y-102035714D01*
X148278571Y-101892857D01*
X148564285Y-101607142D01*
X148707142Y-101178571D01*
X148707142Y-100892857D01*
X148564285Y-100464285D01*
X148421428Y-100321428D01*
X147421428Y-100321428D01*
X147421428Y-100892857D01*
X148707142Y-97607142D02*
X148707142Y-99035714D01*
X145707142Y-99035714D01*
X145707142Y-97035714D02*
X148707142Y-96035714D01*
X145707142Y-95035714D01*
D13*
X144399000Y-104000000D02*
X144399000Y-86360000D01*
D14*
X140642857Y-101378571D02*
X140642857Y-103092857D01*
X137642857Y-102235714D02*
X140642857Y-102235714D01*
X137785714Y-103950000D02*
X137642857Y-104378571D01*
X137642857Y-105092857D01*
X137785714Y-105378571D01*
X137928571Y-105521428D01*
X138214285Y-105664285D01*
X138500000Y-105664285D01*
X138785714Y-105521428D01*
X138928571Y-105378571D01*
X139071428Y-105092857D01*
X139214285Y-104521428D01*
X139357142Y-104235714D01*
X139500000Y-104092857D01*
X139785714Y-103950000D01*
X140071428Y-103950000D01*
X140357142Y-104092857D01*
X140500000Y-104235714D01*
X140642857Y-104521428D01*
X140642857Y-105235714D01*
X140500000Y-105664285D01*
X140642857Y-106521428D02*
X137642857Y-107521428D01*
X140642857Y-108521428D01*
D13*
X136144000Y-114300000D02*
X144000000Y-108000000D01*
D15*
X116078333Y-115839761D02*
X116078333Y-113839761D01*
X116078333Y-114792142D02*
X117221190Y-114792142D01*
X117221190Y-115839761D02*
X117221190Y-113839761D01*
X117887857Y-113839761D02*
X118554523Y-115839761D01*
X119221190Y-113839761D01*
X119887857Y-115077857D02*
X121411666Y-115077857D01*
X115443333Y-99964761D02*
X115443333Y-97964761D01*
X115443333Y-98917142D02*
X116586190Y-98917142D01*
X116586190Y-99964761D02*
X116586190Y-97964761D01*
X117252857Y-97964761D02*
X117919523Y-99964761D01*
X118586190Y-97964761D01*
X119252857Y-99202857D02*
X120776666Y-99202857D01*
X120014761Y-99964761D02*
X120014761Y-98440952D01*
D11*
X158080000Y-102980000D02*
X156750000Y-102980000D01*
X158080000Y-101650000D02*
X158080000Y-102980000D01*
X158080000Y-100380000D02*
X155420000Y-100380000D01*
X155420000Y-100380000D02*
X155420000Y-95240000D01*
X158080000Y-100380000D02*
X158080000Y-95240000D01*
X158080000Y-95240000D02*
X155420000Y-95240000D01*
X164321267Y-106740000D02*
X163978733Y-106740000D01*
X164321267Y-107760000D02*
X163978733Y-107760000D01*
X164371267Y-109015000D02*
X164028733Y-109015000D01*
X164371267Y-110035000D02*
X164028733Y-110035000D01*
X166010000Y-93110000D02*
X166010000Y-91860000D01*
X164760000Y-93110000D02*
X166010000Y-93110000D01*
X158650000Y-88700000D02*
X158650000Y-89200000D01*
X158550000Y-89200000D02*
X158550000Y-88700000D01*
X158750000Y-89200000D02*
X158550000Y-89200000D01*
X158750000Y-88700000D02*
X158750000Y-89200000D01*
X160650000Y-88700000D02*
X160650000Y-89200000D01*
X160550000Y-89200000D02*
X160550000Y-88700000D01*
X160750000Y-89200000D02*
X160550000Y-89200000D01*
X160750000Y-88700000D02*
X160750000Y-89200000D01*
X162650000Y-88700000D02*
X162650000Y-89200000D01*
X162550000Y-89200000D02*
X162550000Y-88700000D01*
X162750000Y-89200000D02*
X162550000Y-89200000D01*
X162750000Y-88700000D02*
X162750000Y-89200000D01*
X155590000Y-90200000D02*
X156200000Y-90200000D01*
X155590000Y-91500000D02*
X156200000Y-91500000D01*
X165710000Y-90200000D02*
X165100000Y-90200000D01*
X165710000Y-91500000D02*
X165100000Y-91500000D01*
X158150000Y-92200000D02*
X158150000Y-92810000D01*
X156200000Y-92200000D02*
X158150000Y-92200000D01*
X156200000Y-88700000D02*
X156200000Y-92200000D01*
X165100000Y-88700000D02*
X156200000Y-88700000D01*
X165100000Y-92200000D02*
X165100000Y-88700000D01*
X163150000Y-92200000D02*
X165100000Y-92200000D01*
X163150000Y-92810000D02*
X163150000Y-92200000D01*
X163950000Y-92910000D02*
X164250000Y-92910000D01*
X164250000Y-93010000D02*
X164250000Y-92810000D01*
X163950000Y-93010000D02*
X164250000Y-93010000D01*
X163950000Y-92810000D02*
X163950000Y-93010000D01*
X155590000Y-92810000D02*
X165710000Y-92810000D01*
X155590000Y-88090000D02*
X155590000Y-92810000D01*
X165710000Y-88090000D02*
X155590000Y-88090000D01*
X165710000Y-92810000D02*
X165710000Y-88090000D01*
X164540000Y-103403733D02*
X164540000Y-103746267D01*
X165560000Y-103403733D02*
X165560000Y-103746267D01*
X162660000Y-103746267D02*
X162660000Y-103403733D01*
X161640000Y-103746267D02*
X161640000Y-103403733D01*
X161340000Y-101410000D02*
X162590000Y-101410000D01*
X161340000Y-100160000D02*
X161340000Y-101410000D01*
X165750000Y-98050000D02*
X165250000Y-98050000D01*
X165250000Y-97950000D02*
X165750000Y-97950000D01*
X165250000Y-98150000D02*
X165250000Y-97950000D01*
X165750000Y-98150000D02*
X165250000Y-98150000D01*
X164250000Y-94990000D02*
X164250000Y-95600000D01*
X162950000Y-94990000D02*
X162950000Y-95600000D01*
X164250000Y-101110000D02*
X164250000Y-100500000D01*
X162950000Y-101110000D02*
X162950000Y-100500000D01*
X162250000Y-97550000D02*
X161640000Y-97550000D01*
X162250000Y-95600000D02*
X162250000Y-97550000D01*
X165750000Y-95600000D02*
X162250000Y-95600000D01*
X165750000Y-100500000D02*
X165750000Y-95600000D01*
X162250000Y-100500000D02*
X165750000Y-100500000D01*
X162250000Y-98550000D02*
X162250000Y-100500000D01*
X161640000Y-98550000D02*
X162250000Y-98550000D01*
X161540000Y-99350000D02*
X161540000Y-99650000D01*
X161440000Y-99650000D02*
X161640000Y-99650000D01*
X161440000Y-99350000D02*
X161440000Y-99650000D01*
X161640000Y-99350000D02*
X161440000Y-99350000D01*
X161640000Y-94990000D02*
X161640000Y-101110000D01*
X166360000Y-94990000D02*
X161640000Y-94990000D01*
X166360000Y-101110000D02*
X166360000Y-94990000D01*
X161640000Y-101110000D02*
X166360000Y-101110000D01*
X131296267Y-107490000D02*
X130953733Y-107490000D01*
X131296267Y-108510000D02*
X130953733Y-108510000D01*
X154525000Y-119075000D02*
X151075000Y-119075000D01*
X154525000Y-119075000D02*
X156475000Y-119075000D01*
X154525000Y-124195000D02*
X152575000Y-124195000D01*
X154525000Y-124195000D02*
X156475000Y-124195000D01*
X163203733Y-115260000D02*
X163546267Y-115260000D01*
X163203733Y-114240000D02*
X163546267Y-114240000D01*
X148490000Y-120828733D02*
X148490000Y-121171267D01*
X149510000Y-120828733D02*
X149510000Y-121171267D01*
X158540000Y-106903733D02*
X158540000Y-107246267D01*
X159560000Y-106903733D02*
X159560000Y-107246267D01*
X129640000Y-114397936D02*
X129640000Y-115602064D01*
X132360000Y-114397936D02*
X132360000Y-115602064D01*
X160730000Y-113140000D02*
X160730000Y-114600000D01*
X157570000Y-113140000D02*
X157570000Y-115300000D01*
X157570000Y-113140000D02*
X158500000Y-113140000D01*
X160730000Y-113140000D02*
X159800000Y-113140000D01*
X172386252Y-88290000D02*
X169613748Y-88290000D01*
X172386252Y-91710000D02*
X169613748Y-91710000D01*
X146400000Y-123700000D02*
X146400000Y-121850000D01*
X147600000Y-123700000D02*
X147600000Y-121850000D01*
X147600000Y-121850000D02*
X146400000Y-121850000D01*
X176650000Y-93100000D02*
X176650000Y-100000000D01*
X173350000Y-93100000D02*
X173350000Y-100000000D01*
X176650000Y-93100000D02*
X173350000Y-93100000D01*
X168350000Y-101900000D02*
X168350000Y-95000000D01*
X171650000Y-101900000D02*
X171650000Y-95000000D01*
X168350000Y-101900000D02*
X171650000Y-101900000D01*
X161953733Y-117510000D02*
X162296267Y-117510000D01*
X161953733Y-116490000D02*
X162296267Y-116490000D01*
X165510000Y-123046267D02*
X165510000Y-122703733D01*
X164490000Y-123046267D02*
X164490000Y-122703733D01*
X163510000Y-123046267D02*
X163510000Y-122703733D01*
X162490000Y-123046267D02*
X162490000Y-122703733D01*
X180125000Y-111385000D02*
X180125000Y-110135000D01*
X180750000Y-110760000D02*
X179500000Y-110760000D01*
X179260000Y-103804437D02*
X178195563Y-102740000D01*
X179260000Y-112195563D02*
X178195563Y-113260000D01*
X179260000Y-112195563D02*
X179260000Y-109510000D01*
X179260000Y-103804437D02*
X179260000Y-106490000D01*
X178195563Y-102740000D02*
X168740000Y-102740000D01*
X178195563Y-113260000D02*
X168740000Y-113260000D01*
X168740000Y-113260000D02*
X168740000Y-109510000D01*
X168740000Y-102740000D02*
X168740000Y-106490000D01*
X180125000Y-123385000D02*
X180125000Y-122135000D01*
X180750000Y-122760000D02*
X179500000Y-122760000D01*
X179260000Y-115804437D02*
X178195563Y-114740000D01*
X179260000Y-124195563D02*
X178195563Y-125260000D01*
X179260000Y-124195563D02*
X179260000Y-121510000D01*
X179260000Y-115804437D02*
X179260000Y-118490000D01*
X178195563Y-114740000D02*
X168740000Y-114740000D01*
X178195563Y-125260000D02*
X168740000Y-125260000D01*
X168740000Y-125260000D02*
X168740000Y-121510000D01*
X168740000Y-114740000D02*
X168740000Y-118490000D01*
X125290000Y-113678922D02*
X125290000Y-114196078D01*
X126710000Y-113678922D02*
X126710000Y-114196078D01*
X120640000Y-90355736D02*
X120340000Y-90780000D01*
X120040000Y-90355736D02*
X120640000Y-90355736D01*
X120340000Y-90780000D02*
X120040000Y-90355736D01*
X113450000Y-90320000D02*
X113450000Y-91080000D01*
X114810000Y-90320000D02*
X113450000Y-90320000D01*
X114810000Y-91080000D02*
X114810000Y-90320000D01*
X117590000Y-90320000D02*
X117590000Y-91080000D01*
X118950000Y-90320000D02*
X117590000Y-90320000D01*
X118950000Y-91080000D02*
X118950000Y-90320000D01*
X121935000Y-90320000D02*
X121935000Y-91080000D01*
X123295000Y-90320000D02*
X121935000Y-90320000D01*
X123295000Y-91080000D02*
X123295000Y-90320000D01*
X124595000Y-95590000D02*
X123295000Y-95590000D01*
X124595000Y-92370000D02*
X124595000Y-95590000D01*
X123295000Y-92370000D02*
X124595000Y-92370000D01*
X113245000Y-96880000D02*
X113245000Y-95083302D01*
X123295000Y-96880000D02*
X113245000Y-96880000D01*
X123295000Y-93980000D02*
X123295000Y-96880000D01*
X113245000Y-91080000D02*
X113245000Y-92876698D01*
X123295000Y-91080000D02*
X113245000Y-91080000D01*
X123295000Y-93980000D02*
X123295000Y-91080000D01*
X154390000Y-110928733D02*
X154390000Y-111271267D01*
X155410000Y-110928733D02*
X155410000Y-111271267D01*
X160490000Y-122703733D02*
X160490000Y-123046267D01*
X161510000Y-122703733D02*
X161510000Y-123046267D01*
X161953733Y-119510000D02*
X162296267Y-119510000D01*
X161953733Y-118490000D02*
X162296267Y-118490000D01*
X175490000Y-89828733D02*
X175490000Y-90171267D01*
X176510000Y-89828733D02*
X176510000Y-90171267D01*
X131171267Y-102490000D02*
X130828733Y-102490000D01*
X131171267Y-103510000D02*
X130828733Y-103510000D01*
X143490000Y-122828733D02*
X143490000Y-123171267D01*
X144510000Y-122828733D02*
X144510000Y-123171267D01*
X132658000Y-99192000D02*
X131558000Y-99192000D01*
X132658000Y-99462000D02*
X132658000Y-99192000D01*
X134158000Y-99462000D02*
X132658000Y-99462000D01*
X132658000Y-92832000D02*
X129828000Y-92832000D01*
X132658000Y-92562000D02*
X132658000Y-92832000D01*
X134158000Y-92562000D02*
X132658000Y-92562000D01*
X139252000Y-119066000D02*
X137017000Y-119066000D01*
X139252000Y-124266000D02*
X139252000Y-119066000D01*
X132782000Y-124266000D02*
X139252000Y-124266000D01*
X132782000Y-119066000D02*
X132782000Y-124266000D01*
X135017000Y-119066000D02*
X132782000Y-119066000D01*
X137017000Y-119066000D02*
G75*
G02X135017000Y-119066000I-1000000J0D01*
G01*
X157630000Y-106290000D02*
X157630000Y-107750000D01*
X154470000Y-106290000D02*
X154470000Y-108450000D01*
X154470000Y-106290000D02*
X155400000Y-106290000D01*
X157630000Y-106290000D02*
X156700000Y-106290000D01*
X120061000Y-117279736D02*
X119761000Y-117704000D01*
X119461000Y-117279736D02*
X120061000Y-117279736D01*
X119761000Y-117704000D02*
X119461000Y-117279736D01*
X112871000Y-117244000D02*
X112871000Y-118004000D01*
X114231000Y-117244000D02*
X112871000Y-117244000D01*
X114231000Y-118004000D02*
X114231000Y-117244000D01*
X117011000Y-117244000D02*
X117011000Y-118004000D01*
X118371000Y-117244000D02*
X117011000Y-117244000D01*
X118371000Y-118004000D02*
X118371000Y-117244000D01*
X121356000Y-117244000D02*
X121356000Y-118004000D01*
X122716000Y-117244000D02*
X121356000Y-117244000D01*
X122716000Y-118004000D02*
X122716000Y-117244000D01*
X124016000Y-122514000D02*
X122716000Y-122514000D01*
X124016000Y-119294000D02*
X124016000Y-122514000D01*
X122716000Y-119294000D02*
X124016000Y-119294000D01*
X112666000Y-123804000D02*
X112666000Y-122007302D01*
X122716000Y-123804000D02*
X112666000Y-123804000D01*
X122716000Y-120904000D02*
X122716000Y-123804000D01*
X112666000Y-118004000D02*
X112666000Y-119800698D01*
X122716000Y-118004000D02*
X112666000Y-118004000D01*
X122716000Y-120904000D02*
X122716000Y-118004000D01*
D10*
X156416666Y-103432380D02*
X156416666Y-104146666D01*
X156369047Y-104289523D01*
X156273809Y-104384761D01*
X156130952Y-104432380D01*
X156035714Y-104432380D01*
X156797619Y-103432380D02*
X157416666Y-103432380D01*
X157083333Y-103813333D01*
X157226190Y-103813333D01*
X157321428Y-103860952D01*
X157369047Y-103908571D01*
X157416666Y-104003809D01*
X157416666Y-104241904D01*
X157369047Y-104337142D01*
X157321428Y-104384761D01*
X157226190Y-104432380D01*
X156940476Y-104432380D01*
X156845238Y-104384761D01*
X156797619Y-104337142D01*
X167227380Y-108042857D02*
X166751190Y-108376190D01*
X167227380Y-108614285D02*
X166227380Y-108614285D01*
X166227380Y-108233333D01*
X166275000Y-108138095D01*
X166322619Y-108090476D01*
X166417857Y-108042857D01*
X166560714Y-108042857D01*
X166655952Y-108090476D01*
X166703571Y-108138095D01*
X166751190Y-108233333D01*
X166751190Y-108614285D01*
X167227380Y-107090476D02*
X167227380Y-107661904D01*
X167227380Y-107376190D02*
X166227380Y-107376190D01*
X166370238Y-107471428D01*
X166465476Y-107566666D01*
X166513095Y-107661904D01*
X166560714Y-106233333D02*
X167227380Y-106233333D01*
X166179761Y-106471428D02*
X166894047Y-106709523D01*
X166894047Y-106090476D01*
X163532142Y-111527380D02*
X163198809Y-111051190D01*
X162960714Y-111527380D02*
X162960714Y-110527380D01*
X163341666Y-110527380D01*
X163436904Y-110575000D01*
X163484523Y-110622619D01*
X163532142Y-110717857D01*
X163532142Y-110860714D01*
X163484523Y-110955952D01*
X163436904Y-111003571D01*
X163341666Y-111051190D01*
X162960714Y-111051190D01*
X164484523Y-111527380D02*
X163913095Y-111527380D01*
X164198809Y-111527380D02*
X164198809Y-110527380D01*
X164103571Y-110670238D01*
X164008333Y-110765476D01*
X163913095Y-110813095D01*
X164817857Y-110527380D02*
X165436904Y-110527380D01*
X165103571Y-110908333D01*
X165246428Y-110908333D01*
X165341666Y-110955952D01*
X165389285Y-111003571D01*
X165436904Y-111098809D01*
X165436904Y-111336904D01*
X165389285Y-111432142D01*
X165341666Y-111479761D01*
X165246428Y-111527380D01*
X164960714Y-111527380D01*
X164865476Y-111479761D01*
X164817857Y-111432142D01*
X160316666Y-93352380D02*
X160316666Y-94066666D01*
X160269047Y-94209523D01*
X160173809Y-94304761D01*
X160030952Y-94352380D01*
X159935714Y-94352380D01*
X161221428Y-93685714D02*
X161221428Y-94352380D01*
X160983333Y-93304761D02*
X160745238Y-94019047D01*
X161364285Y-94019047D01*
X166352380Y-104735714D02*
X166352380Y-104164285D01*
X167352380Y-104450000D02*
X166352380Y-104450000D01*
X167352380Y-103830952D02*
X166352380Y-103830952D01*
X166828571Y-103830952D02*
X166828571Y-103259523D01*
X167352380Y-103259523D02*
X166352380Y-103259523D01*
X167352380Y-102259523D02*
X167352380Y-102830952D01*
X167352380Y-102545238D02*
X166352380Y-102545238D01*
X166495238Y-102640476D01*
X166590476Y-102735714D01*
X166638095Y-102830952D01*
X160057142Y-105252380D02*
X159723809Y-104776190D01*
X159485714Y-105252380D02*
X159485714Y-104252380D01*
X159866666Y-104252380D01*
X159961904Y-104300000D01*
X160009523Y-104347619D01*
X160057142Y-104442857D01*
X160057142Y-104585714D01*
X160009523Y-104680952D01*
X159961904Y-104728571D01*
X159866666Y-104776190D01*
X159485714Y-104776190D01*
X161009523Y-105252380D02*
X160438095Y-105252380D01*
X160723809Y-105252380D02*
X160723809Y-104252380D01*
X160628571Y-104395238D01*
X160533333Y-104490476D01*
X160438095Y-104538095D01*
X161390476Y-104347619D02*
X161438095Y-104300000D01*
X161533333Y-104252380D01*
X161771428Y-104252380D01*
X161866666Y-104300000D01*
X161914285Y-104347619D01*
X161961904Y-104442857D01*
X161961904Y-104538095D01*
X161914285Y-104680952D01*
X161342857Y-105252380D01*
X161961904Y-105252380D01*
X160002380Y-98383333D02*
X160716666Y-98383333D01*
X160859523Y-98430952D01*
X160954761Y-98526190D01*
X161002380Y-98669047D01*
X161002380Y-98764285D01*
X160002380Y-97430952D02*
X160002380Y-97907142D01*
X160478571Y-97954761D01*
X160430952Y-97907142D01*
X160383333Y-97811904D01*
X160383333Y-97573809D01*
X160430952Y-97478571D01*
X160478571Y-97430952D01*
X160573809Y-97383333D01*
X160811904Y-97383333D01*
X160907142Y-97430952D01*
X160954761Y-97478571D01*
X161002380Y-97573809D01*
X161002380Y-97811904D01*
X160954761Y-97907142D01*
X160907142Y-97954761D01*
X113030095Y-103132380D02*
X113030095Y-102132380D01*
X113030095Y-102608571D02*
X113601523Y-102608571D01*
X113601523Y-103132380D02*
X113601523Y-102132380D01*
X114030095Y-102227619D02*
X114077714Y-102180000D01*
X114172952Y-102132380D01*
X114411047Y-102132380D01*
X114506285Y-102180000D01*
X114553904Y-102227619D01*
X114601523Y-102322857D01*
X114601523Y-102418095D01*
X114553904Y-102560952D01*
X113982476Y-103132380D01*
X114601523Y-103132380D01*
X143764095Y-102471980D02*
X143764095Y-101471980D01*
X143764095Y-101948171D02*
X144335523Y-101948171D01*
X144335523Y-102471980D02*
X144335523Y-101471980D01*
X145335523Y-102471980D02*
X144764095Y-102471980D01*
X145049809Y-102471980D02*
X145049809Y-101471980D01*
X144954571Y-101614838D01*
X144859333Y-101710076D01*
X144764095Y-101757695D01*
X130958333Y-109882380D02*
X130625000Y-109406190D01*
X130386904Y-109882380D02*
X130386904Y-108882380D01*
X130767857Y-108882380D01*
X130863095Y-108930000D01*
X130910714Y-108977619D01*
X130958333Y-109072857D01*
X130958333Y-109215714D01*
X130910714Y-109310952D01*
X130863095Y-109358571D01*
X130767857Y-109406190D01*
X130386904Y-109406190D01*
X131291666Y-108882380D02*
X131910714Y-108882380D01*
X131577380Y-109263333D01*
X131720238Y-109263333D01*
X131815476Y-109310952D01*
X131863095Y-109358571D01*
X131910714Y-109453809D01*
X131910714Y-109691904D01*
X131863095Y-109787142D01*
X131815476Y-109834761D01*
X131720238Y-109882380D01*
X131434523Y-109882380D01*
X131339285Y-109834761D01*
X131291666Y-109787142D01*
X153763095Y-117687380D02*
X153763095Y-118496904D01*
X153810714Y-118592142D01*
X153858333Y-118639761D01*
X153953571Y-118687380D01*
X154144047Y-118687380D01*
X154239285Y-118639761D01*
X154286904Y-118592142D01*
X154334523Y-118496904D01*
X154334523Y-117687380D01*
X155239285Y-118020714D02*
X155239285Y-118687380D01*
X155001190Y-117639761D02*
X154763095Y-118354047D01*
X155382142Y-118354047D01*
X162732142Y-113772380D02*
X162398809Y-113296190D01*
X162160714Y-113772380D02*
X162160714Y-112772380D01*
X162541666Y-112772380D01*
X162636904Y-112820000D01*
X162684523Y-112867619D01*
X162732142Y-112962857D01*
X162732142Y-113105714D01*
X162684523Y-113200952D01*
X162636904Y-113248571D01*
X162541666Y-113296190D01*
X162160714Y-113296190D01*
X163684523Y-113772380D02*
X163113095Y-113772380D01*
X163398809Y-113772380D02*
X163398809Y-112772380D01*
X163303571Y-112915238D01*
X163208333Y-113010476D01*
X163113095Y-113058095D01*
X164636904Y-113772380D02*
X164065476Y-113772380D01*
X164351190Y-113772380D02*
X164351190Y-112772380D01*
X164255952Y-112915238D01*
X164160714Y-113010476D01*
X164065476Y-113058095D01*
X149452380Y-118517857D02*
X148976190Y-118851190D01*
X149452380Y-119089285D02*
X148452380Y-119089285D01*
X148452380Y-118708333D01*
X148500000Y-118613095D01*
X148547619Y-118565476D01*
X148642857Y-118517857D01*
X148785714Y-118517857D01*
X148880952Y-118565476D01*
X148928571Y-118613095D01*
X148976190Y-118708333D01*
X148976190Y-119089285D01*
X149452380Y-117565476D02*
X149452380Y-118136904D01*
X149452380Y-117851190D02*
X148452380Y-117851190D01*
X148595238Y-117946428D01*
X148690476Y-118041666D01*
X148738095Y-118136904D01*
X148452380Y-116946428D02*
X148452380Y-116851190D01*
X148500000Y-116755952D01*
X148547619Y-116708333D01*
X148642857Y-116660714D01*
X148833333Y-116613095D01*
X149071428Y-116613095D01*
X149261904Y-116660714D01*
X149357142Y-116708333D01*
X149404761Y-116755952D01*
X149452380Y-116851190D01*
X149452380Y-116946428D01*
X149404761Y-117041666D01*
X149357142Y-117089285D01*
X149261904Y-117136904D01*
X149071428Y-117184523D01*
X148833333Y-117184523D01*
X148642857Y-117136904D01*
X148547619Y-117089285D01*
X148500000Y-117041666D01*
X148452380Y-116946428D01*
X160932380Y-107241666D02*
X160456190Y-107575000D01*
X160932380Y-107813095D02*
X159932380Y-107813095D01*
X159932380Y-107432142D01*
X159980000Y-107336904D01*
X160027619Y-107289285D01*
X160122857Y-107241666D01*
X160265714Y-107241666D01*
X160360952Y-107289285D01*
X160408571Y-107336904D01*
X160456190Y-107432142D01*
X160456190Y-107813095D01*
X160932380Y-106765476D02*
X160932380Y-106575000D01*
X160884761Y-106479761D01*
X160837142Y-106432142D01*
X160694285Y-106336904D01*
X160503809Y-106289285D01*
X160122857Y-106289285D01*
X160027619Y-106336904D01*
X159980000Y-106384523D01*
X159932380Y-106479761D01*
X159932380Y-106670238D01*
X159980000Y-106765476D01*
X160027619Y-106813095D01*
X160122857Y-106860714D01*
X160360952Y-106860714D01*
X160456190Y-106813095D01*
X160503809Y-106765476D01*
X160551428Y-106670238D01*
X160551428Y-106479761D01*
X160503809Y-106384523D01*
X160456190Y-106336904D01*
X160360952Y-106289285D01*
X129484380Y-111418666D02*
X129008190Y-111752000D01*
X129484380Y-111990095D02*
X128484380Y-111990095D01*
X128484380Y-111609142D01*
X128532000Y-111513904D01*
X128579619Y-111466285D01*
X128674857Y-111418666D01*
X128817714Y-111418666D01*
X128912952Y-111466285D01*
X128960571Y-111513904D01*
X129008190Y-111609142D01*
X129008190Y-111990095D01*
X129484380Y-110466285D02*
X129484380Y-111037714D01*
X129484380Y-110752000D02*
X128484380Y-110752000D01*
X128627238Y-110847238D01*
X128722476Y-110942476D01*
X128770095Y-111037714D01*
X157197619Y-113995238D02*
X157150000Y-114090476D01*
X157054761Y-114185714D01*
X156911904Y-114328571D01*
X156864285Y-114423809D01*
X156864285Y-114519047D01*
X157102380Y-114471428D02*
X157054761Y-114566666D01*
X156959523Y-114661904D01*
X156769047Y-114709523D01*
X156435714Y-114709523D01*
X156245238Y-114661904D01*
X156150000Y-114566666D01*
X156102380Y-114471428D01*
X156102380Y-114280952D01*
X156150000Y-114185714D01*
X156245238Y-114090476D01*
X156435714Y-114042857D01*
X156769047Y-114042857D01*
X156959523Y-114090476D01*
X157054761Y-114185714D01*
X157102380Y-114280952D01*
X157102380Y-114471428D01*
X156197619Y-113661904D02*
X156150000Y-113614285D01*
X156102380Y-113519047D01*
X156102380Y-113280952D01*
X156150000Y-113185714D01*
X156197619Y-113138095D01*
X156292857Y-113090476D01*
X156388095Y-113090476D01*
X156530952Y-113138095D01*
X157102380Y-113709523D01*
X157102380Y-113090476D01*
X170666666Y-92578571D02*
X170333333Y-92578571D01*
X170333333Y-93102380D02*
X170333333Y-92102380D01*
X170809523Y-92102380D01*
X171714285Y-93102380D02*
X171142857Y-93102380D01*
X171428571Y-93102380D02*
X171428571Y-92102380D01*
X171333333Y-92245238D01*
X171238095Y-92340476D01*
X171142857Y-92388095D01*
X147452380Y-120738095D02*
X146452380Y-120738095D01*
X146452380Y-120500000D01*
X146500000Y-120357142D01*
X146595238Y-120261904D01*
X146690476Y-120214285D01*
X146880952Y-120166666D01*
X147023809Y-120166666D01*
X147214285Y-120214285D01*
X147309523Y-120261904D01*
X147404761Y-120357142D01*
X147452380Y-120500000D01*
X147452380Y-120738095D01*
X146452380Y-119833333D02*
X146452380Y-119214285D01*
X146833333Y-119547619D01*
X146833333Y-119404761D01*
X146880952Y-119309523D01*
X146928571Y-119261904D01*
X147023809Y-119214285D01*
X147261904Y-119214285D01*
X147357142Y-119261904D01*
X147404761Y-119309523D01*
X147452380Y-119404761D01*
X147452380Y-119690476D01*
X147404761Y-119785714D01*
X147357142Y-119833333D01*
X177952380Y-98238095D02*
X176952380Y-98238095D01*
X176952380Y-98000000D01*
X177000000Y-97857142D01*
X177095238Y-97761904D01*
X177190476Y-97714285D01*
X177380952Y-97666666D01*
X177523809Y-97666666D01*
X177714285Y-97714285D01*
X177809523Y-97761904D01*
X177904761Y-97857142D01*
X177952380Y-98000000D01*
X177952380Y-98238095D01*
X177047619Y-97285714D02*
X177000000Y-97238095D01*
X176952380Y-97142857D01*
X176952380Y-96904761D01*
X177000000Y-96809523D01*
X177047619Y-96761904D01*
X177142857Y-96714285D01*
X177238095Y-96714285D01*
X177380952Y-96761904D01*
X177952380Y-97333333D01*
X177952380Y-96714285D01*
X167952380Y-98238095D02*
X166952380Y-98238095D01*
X166952380Y-98000000D01*
X167000000Y-97857142D01*
X167095238Y-97761904D01*
X167190476Y-97714285D01*
X167380952Y-97666666D01*
X167523809Y-97666666D01*
X167714285Y-97714285D01*
X167809523Y-97761904D01*
X167904761Y-97857142D01*
X167952380Y-98000000D01*
X167952380Y-98238095D01*
X167952380Y-96714285D02*
X167952380Y-97285714D01*
X167952380Y-97000000D02*
X166952380Y-97000000D01*
X167095238Y-97095238D01*
X167190476Y-97190476D01*
X167238095Y-97285714D01*
X164833333Y-117357142D02*
X164785714Y-117404761D01*
X164642857Y-117452380D01*
X164547619Y-117452380D01*
X164404761Y-117404761D01*
X164309523Y-117309523D01*
X164261904Y-117214285D01*
X164214285Y-117023809D01*
X164214285Y-116880952D01*
X164261904Y-116690476D01*
X164309523Y-116595238D01*
X164404761Y-116500000D01*
X164547619Y-116452380D01*
X164642857Y-116452380D01*
X164785714Y-116500000D01*
X164833333Y-116547619D01*
X165690476Y-116452380D02*
X165500000Y-116452380D01*
X165404761Y-116500000D01*
X165357142Y-116547619D01*
X165261904Y-116690476D01*
X165214285Y-116880952D01*
X165214285Y-117261904D01*
X165261904Y-117357142D01*
X165309523Y-117404761D01*
X165404761Y-117452380D01*
X165595238Y-117452380D01*
X165690476Y-117404761D01*
X165738095Y-117357142D01*
X165785714Y-117261904D01*
X165785714Y-117023809D01*
X165738095Y-116928571D01*
X165690476Y-116880952D01*
X165595238Y-116833333D01*
X165404761Y-116833333D01*
X165309523Y-116880952D01*
X165261904Y-116928571D01*
X165214285Y-117023809D01*
X165357142Y-126166666D02*
X165404761Y-126214285D01*
X165452380Y-126357142D01*
X165452380Y-126452380D01*
X165404761Y-126595238D01*
X165309523Y-126690476D01*
X165214285Y-126738095D01*
X165023809Y-126785714D01*
X164880952Y-126785714D01*
X164690476Y-126738095D01*
X164595238Y-126690476D01*
X164500000Y-126595238D01*
X164452380Y-126452380D01*
X164452380Y-126357142D01*
X164500000Y-126214285D01*
X164547619Y-126166666D01*
X164452380Y-125261904D02*
X164452380Y-125738095D01*
X164928571Y-125785714D01*
X164880952Y-125738095D01*
X164833333Y-125642857D01*
X164833333Y-125404761D01*
X164880952Y-125309523D01*
X164928571Y-125261904D01*
X165023809Y-125214285D01*
X165261904Y-125214285D01*
X165357142Y-125261904D01*
X165404761Y-125309523D01*
X165452380Y-125404761D01*
X165452380Y-125642857D01*
X165404761Y-125738095D01*
X165357142Y-125785714D01*
X163357142Y-126166666D02*
X163404761Y-126214285D01*
X163452380Y-126357142D01*
X163452380Y-126452380D01*
X163404761Y-126595238D01*
X163309523Y-126690476D01*
X163214285Y-126738095D01*
X163023809Y-126785714D01*
X162880952Y-126785714D01*
X162690476Y-126738095D01*
X162595238Y-126690476D01*
X162500000Y-126595238D01*
X162452380Y-126452380D01*
X162452380Y-126357142D01*
X162500000Y-126214285D01*
X162547619Y-126166666D01*
X162785714Y-125309523D02*
X163452380Y-125309523D01*
X162404761Y-125547619D02*
X163119047Y-125785714D01*
X163119047Y-125166666D01*
X173833333Y-114557142D02*
X173785714Y-114604761D01*
X173642857Y-114652380D01*
X173547619Y-114652380D01*
X173404761Y-114604761D01*
X173309523Y-114509523D01*
X173261904Y-114414285D01*
X173214285Y-114223809D01*
X173214285Y-114080952D01*
X173261904Y-113890476D01*
X173309523Y-113795238D01*
X173404761Y-113700000D01*
X173547619Y-113652380D01*
X173642857Y-113652380D01*
X173785714Y-113700000D01*
X173833333Y-113747619D01*
X174166666Y-113652380D02*
X174785714Y-113652380D01*
X174452380Y-114033333D01*
X174595238Y-114033333D01*
X174690476Y-114080952D01*
X174738095Y-114128571D01*
X174785714Y-114223809D01*
X174785714Y-114461904D01*
X174738095Y-114557142D01*
X174690476Y-114604761D01*
X174595238Y-114652380D01*
X174309523Y-114652380D01*
X174214285Y-114604761D01*
X174166666Y-114557142D01*
X173833333Y-126557142D02*
X173785714Y-126604761D01*
X173642857Y-126652380D01*
X173547619Y-126652380D01*
X173404761Y-126604761D01*
X173309523Y-126509523D01*
X173261904Y-126414285D01*
X173214285Y-126223809D01*
X173214285Y-126080952D01*
X173261904Y-125890476D01*
X173309523Y-125795238D01*
X173404761Y-125700000D01*
X173547619Y-125652380D01*
X173642857Y-125652380D01*
X173785714Y-125700000D01*
X173833333Y-125747619D01*
X174214285Y-125747619D02*
X174261904Y-125700000D01*
X174357142Y-125652380D01*
X174595238Y-125652380D01*
X174690476Y-125700000D01*
X174738095Y-125747619D01*
X174785714Y-125842857D01*
X174785714Y-125938095D01*
X174738095Y-126080952D01*
X174166666Y-126652380D01*
X174785714Y-126652380D01*
X126341142Y-110910666D02*
X126388761Y-110958285D01*
X126436380Y-111101142D01*
X126436380Y-111196380D01*
X126388761Y-111339238D01*
X126293523Y-111434476D01*
X126198285Y-111482095D01*
X126007809Y-111529714D01*
X125864952Y-111529714D01*
X125674476Y-111482095D01*
X125579238Y-111434476D01*
X125484000Y-111339238D01*
X125436380Y-111196380D01*
X125436380Y-111101142D01*
X125484000Y-110958285D01*
X125531619Y-110910666D01*
X126436380Y-109958285D02*
X126436380Y-110529714D01*
X126436380Y-110244000D02*
X125436380Y-110244000D01*
X125579238Y-110339238D01*
X125674476Y-110434476D01*
X125722095Y-110529714D01*
X125142380Y-94313333D02*
X125856666Y-94313333D01*
X125999523Y-94360952D01*
X126094761Y-94456190D01*
X126142380Y-94599047D01*
X126142380Y-94694285D01*
X126142380Y-93313333D02*
X126142380Y-93884761D01*
X126142380Y-93599047D02*
X125142380Y-93599047D01*
X125285238Y-93694285D01*
X125380476Y-93789523D01*
X125428095Y-93884761D01*
X153701380Y-111266666D02*
X153225190Y-111600000D01*
X153701380Y-111838095D02*
X152701380Y-111838095D01*
X152701380Y-111457142D01*
X152749000Y-111361904D01*
X152796619Y-111314285D01*
X152891857Y-111266666D01*
X153034714Y-111266666D01*
X153129952Y-111314285D01*
X153177571Y-111361904D01*
X153225190Y-111457142D01*
X153225190Y-111838095D01*
X153129952Y-110695238D02*
X153082333Y-110790476D01*
X153034714Y-110838095D01*
X152939476Y-110885714D01*
X152891857Y-110885714D01*
X152796619Y-110838095D01*
X152749000Y-110790476D01*
X152701380Y-110695238D01*
X152701380Y-110504761D01*
X152749000Y-110409523D01*
X152796619Y-110361904D01*
X152891857Y-110314285D01*
X152939476Y-110314285D01*
X153034714Y-110361904D01*
X153082333Y-110409523D01*
X153129952Y-110504761D01*
X153129952Y-110695238D01*
X153177571Y-110790476D01*
X153225190Y-110838095D01*
X153320428Y-110885714D01*
X153510904Y-110885714D01*
X153606142Y-110838095D01*
X153653761Y-110790476D01*
X153701380Y-110695238D01*
X153701380Y-110504761D01*
X153653761Y-110409523D01*
X153606142Y-110361904D01*
X153510904Y-110314285D01*
X153320428Y-110314285D01*
X153225190Y-110361904D01*
X153177571Y-110409523D01*
X153129952Y-110504761D01*
X161452380Y-126166666D02*
X160976190Y-126500000D01*
X161452380Y-126738095D02*
X160452380Y-126738095D01*
X160452380Y-126357142D01*
X160500000Y-126261904D01*
X160547619Y-126214285D01*
X160642857Y-126166666D01*
X160785714Y-126166666D01*
X160880952Y-126214285D01*
X160928571Y-126261904D01*
X160976190Y-126357142D01*
X160976190Y-126738095D01*
X160452380Y-125833333D02*
X160452380Y-125166666D01*
X161452380Y-125595238D01*
X165083333Y-119452380D02*
X164750000Y-118976190D01*
X164511904Y-119452380D02*
X164511904Y-118452380D01*
X164892857Y-118452380D01*
X164988095Y-118500000D01*
X165035714Y-118547619D01*
X165083333Y-118642857D01*
X165083333Y-118785714D01*
X165035714Y-118880952D01*
X164988095Y-118928571D01*
X164892857Y-118976190D01*
X164511904Y-118976190D01*
X165940476Y-118452380D02*
X165750000Y-118452380D01*
X165654761Y-118500000D01*
X165607142Y-118547619D01*
X165511904Y-118690476D01*
X165464285Y-118880952D01*
X165464285Y-119261904D01*
X165511904Y-119357142D01*
X165559523Y-119404761D01*
X165654761Y-119452380D01*
X165845238Y-119452380D01*
X165940476Y-119404761D01*
X165988095Y-119357142D01*
X166035714Y-119261904D01*
X166035714Y-119023809D01*
X165988095Y-118928571D01*
X165940476Y-118880952D01*
X165845238Y-118833333D01*
X165654761Y-118833333D01*
X165559523Y-118880952D01*
X165511904Y-118928571D01*
X165464285Y-119023809D01*
X178103380Y-90279666D02*
X177627190Y-90613000D01*
X178103380Y-90851095D02*
X177103380Y-90851095D01*
X177103380Y-90470142D01*
X177151000Y-90374904D01*
X177198619Y-90327285D01*
X177293857Y-90279666D01*
X177436714Y-90279666D01*
X177531952Y-90327285D01*
X177579571Y-90374904D01*
X177627190Y-90470142D01*
X177627190Y-90851095D01*
X177103380Y-89374904D02*
X177103380Y-89851095D01*
X177579571Y-89898714D01*
X177531952Y-89851095D01*
X177484333Y-89755857D01*
X177484333Y-89517761D01*
X177531952Y-89422523D01*
X177579571Y-89374904D01*
X177674809Y-89327285D01*
X177912904Y-89327285D01*
X178008142Y-89374904D01*
X178055761Y-89422523D01*
X178103380Y-89517761D01*
X178103380Y-89755857D01*
X178055761Y-89851095D01*
X178008142Y-89898714D01*
X130833333Y-104882380D02*
X130500000Y-104406190D01*
X130261904Y-104882380D02*
X130261904Y-103882380D01*
X130642857Y-103882380D01*
X130738095Y-103930000D01*
X130785714Y-103977619D01*
X130833333Y-104072857D01*
X130833333Y-104215714D01*
X130785714Y-104310952D01*
X130738095Y-104358571D01*
X130642857Y-104406190D01*
X130261904Y-104406190D01*
X131690476Y-104215714D02*
X131690476Y-104882380D01*
X131452380Y-103834761D02*
X131214285Y-104549047D01*
X131833333Y-104549047D01*
X144452380Y-120166666D02*
X143976190Y-120500000D01*
X144452380Y-120738095D02*
X143452380Y-120738095D01*
X143452380Y-120357142D01*
X143500000Y-120261904D01*
X143547619Y-120214285D01*
X143642857Y-120166666D01*
X143785714Y-120166666D01*
X143880952Y-120214285D01*
X143928571Y-120261904D01*
X143976190Y-120357142D01*
X143976190Y-120738095D01*
X143547619Y-119785714D02*
X143500000Y-119738095D01*
X143452380Y-119642857D01*
X143452380Y-119404761D01*
X143500000Y-119309523D01*
X143547619Y-119261904D01*
X143642857Y-119214285D01*
X143738095Y-119214285D01*
X143880952Y-119261904D01*
X144452380Y-119833333D01*
X144452380Y-119214285D01*
X134366095Y-90964380D02*
X134366095Y-91773904D01*
X134413714Y-91869142D01*
X134461333Y-91916761D01*
X134556571Y-91964380D01*
X134747047Y-91964380D01*
X134842285Y-91916761D01*
X134889904Y-91869142D01*
X134937523Y-91773904D01*
X134937523Y-90964380D01*
X135366095Y-91059619D02*
X135413714Y-91012000D01*
X135508952Y-90964380D01*
X135747047Y-90964380D01*
X135842285Y-91012000D01*
X135889904Y-91059619D01*
X135937523Y-91154857D01*
X135937523Y-91250095D01*
X135889904Y-91392952D01*
X135318476Y-91964380D01*
X135937523Y-91964380D01*
X131826095Y-125182380D02*
X131826095Y-125991904D01*
X131873714Y-126087142D01*
X131921333Y-126134761D01*
X132016571Y-126182380D01*
X132207047Y-126182380D01*
X132302285Y-126134761D01*
X132349904Y-126087142D01*
X132397523Y-125991904D01*
X132397523Y-125182380D01*
X133397523Y-126182380D02*
X132826095Y-126182380D01*
X133111809Y-126182380D02*
X133111809Y-125182380D01*
X133016571Y-125325238D01*
X132921333Y-125420476D01*
X132826095Y-125468095D01*
X154097619Y-107145238D02*
X154050000Y-107240476D01*
X153954761Y-107335714D01*
X153811904Y-107478571D01*
X153764285Y-107573809D01*
X153764285Y-107669047D01*
X154002380Y-107621428D02*
X153954761Y-107716666D01*
X153859523Y-107811904D01*
X153669047Y-107859523D01*
X153335714Y-107859523D01*
X153145238Y-107811904D01*
X153050000Y-107716666D01*
X153002380Y-107621428D01*
X153002380Y-107430952D01*
X153050000Y-107335714D01*
X153145238Y-107240476D01*
X153335714Y-107192857D01*
X153669047Y-107192857D01*
X153859523Y-107240476D01*
X153954761Y-107335714D01*
X154002380Y-107430952D01*
X154002380Y-107621428D01*
X154002380Y-106240476D02*
X154002380Y-106811904D01*
X154002380Y-106526190D02*
X153002380Y-106526190D01*
X153145238Y-106621428D01*
X153240476Y-106716666D01*
X153288095Y-106811904D01*
X124563380Y-121237333D02*
X125277666Y-121237333D01*
X125420523Y-121284952D01*
X125515761Y-121380190D01*
X125563380Y-121523047D01*
X125563380Y-121618285D01*
X124658619Y-120808761D02*
X124611000Y-120761142D01*
X124563380Y-120665904D01*
X124563380Y-120427809D01*
X124611000Y-120332571D01*
X124658619Y-120284952D01*
X124753857Y-120237333D01*
X124849095Y-120237333D01*
X124991952Y-120284952D01*
X125563380Y-120856380D01*
X125563380Y-120237333D01*
M02*
