M48
; DRILL file {KiCad 5.1.5-52549c5~84~ubuntu18.04.1} date Sun 01 Mar 2020 04:52:47 PM EST
; FORMAT={-:-/ absolute / metric / decimal}
; #@! TF.CreationDate,2020-03-01T16:52:47-05:00
; #@! TF.GenerationSoftware,Kicad,Pcbnew,5.1.5-52549c5~84~ubuntu18.04.1
FMAT,2
METRIC
T1C0.400
T2C0.750
T3C1.000
T4C1.200
T5C1.400
T6C3.000
T7C3.180
%
G90
G05
T1
X142.0Y-118.0
X153.924Y-105.664
X154.6Y-119.8
X154.6Y-123.4
X158.0Y-118.0
X158.6Y-110.744
X161.036Y-107.696
X161.4Y-111.85
X166.116Y-115.316
X170.18Y-104.14
X170.18Y-111.4
X173.8Y-117.2
X174.0Y-124.0
X174.752Y-103.632
T2
X163.45Y-96.584
X163.45Y-98.584
X163.45Y-100.584
X157.65Y-90.805
X159.65Y-90.805
X161.65Y-90.805
X163.65Y-90.805
T3
X156.75Y-96.57
X156.75Y-99.11
X156.75Y-101.65
T4
X129.54Y-91.44
X129.54Y-116.84
T5
X116.2Y-93.98
X120.34Y-93.98
X115.621Y-120.904
X119.761Y-120.904
T6
X142.24Y-106.02
X112.395Y-106.68
T7
X111.76Y-93.98
X111.181Y-120.904
T0
M30
