G04 #@! TF.GenerationSoftware,KiCad,Pcbnew,5.1.5-52549c5~84~ubuntu18.04.1*
G04 #@! TF.CreationDate,2020-03-01T16:52:49-05:00*
G04 #@! TF.ProjectId,TSAL,5453414c-2e6b-4696-9361-645f70636258,rev?*
G04 #@! TF.SameCoordinates,Original*
G04 #@! TF.FileFunction,Soldermask,Bot*
G04 #@! TF.FilePolarity,Negative*
%FSLAX46Y46*%
G04 Gerber Fmt 4.6, Leading zero omitted, Abs format (unit mm)*
G04 Created by KiCad (PCBNEW 5.1.5-52549c5~84~ubuntu18.04.1) date 2020-03-01 16:52:49*
%MOMM*%
%LPD*%
G04 APERTURE LIST*
%ADD10C,0.100000*%
G04 APERTURE END LIST*
D10*
G36*
X115889761Y-119222837D02*
G01*
X116148200Y-119301234D01*
X116386372Y-119428539D01*
X116595134Y-119599866D01*
X116766461Y-119808628D01*
X116893766Y-120046800D01*
X116972163Y-120305240D01*
X116992000Y-120506652D01*
X116992000Y-121301349D01*
X116972163Y-121502761D01*
X116893766Y-121761200D01*
X116766461Y-121999372D01*
X116595134Y-122208133D01*
X116386370Y-122379461D01*
X116148199Y-122506766D01*
X115889760Y-122585163D01*
X115621000Y-122611633D01*
X115352239Y-122585163D01*
X115093800Y-122506766D01*
X114855628Y-122379461D01*
X114646867Y-122208134D01*
X114475539Y-121999370D01*
X114348234Y-121761199D01*
X114269837Y-121502760D01*
X114250000Y-121301348D01*
X114250000Y-120506651D01*
X114269837Y-120305239D01*
X114348234Y-120046800D01*
X114475539Y-119808628D01*
X114646866Y-119599867D01*
X114855630Y-119428539D01*
X115093801Y-119301234D01*
X115352240Y-119222837D01*
X115621000Y-119196367D01*
X115889761Y-119222837D01*
G37*
G36*
X121004436Y-119206635D02*
G01*
X121034027Y-119215611D01*
X121061296Y-119230187D01*
X121085198Y-119249802D01*
X121104813Y-119273704D01*
X121119389Y-119300973D01*
X121128365Y-119330564D01*
X121132000Y-119367474D01*
X121132000Y-122440526D01*
X121128365Y-122477436D01*
X121119389Y-122507027D01*
X121104813Y-122534296D01*
X121085198Y-122558198D01*
X121061296Y-122577813D01*
X121034027Y-122592389D01*
X121004436Y-122601365D01*
X120967526Y-122605000D01*
X118554474Y-122605000D01*
X118517564Y-122601365D01*
X118487973Y-122592389D01*
X118460704Y-122577813D01*
X118436802Y-122558198D01*
X118417187Y-122534296D01*
X118402611Y-122507027D01*
X118393635Y-122477436D01*
X118390000Y-122440526D01*
X118390000Y-119367474D01*
X118393635Y-119330564D01*
X118402611Y-119300973D01*
X118417187Y-119273704D01*
X118436802Y-119249802D01*
X118460704Y-119230187D01*
X118487973Y-119215611D01*
X118517564Y-119206635D01*
X118554474Y-119203000D01*
X120967526Y-119203000D01*
X121004436Y-119206635D01*
G37*
G36*
X111659661Y-119326062D02*
G01*
X111958303Y-119449764D01*
X111958305Y-119449765D01*
X112227076Y-119629352D01*
X112455648Y-119857924D01*
X112635236Y-120126697D01*
X112758938Y-120425339D01*
X112822000Y-120742374D01*
X112822000Y-121065626D01*
X112758938Y-121382661D01*
X112709190Y-121502762D01*
X112635235Y-121681305D01*
X112455648Y-121950076D01*
X112227076Y-122178648D01*
X111958305Y-122358235D01*
X111958304Y-122358236D01*
X111958303Y-122358236D01*
X111659661Y-122481938D01*
X111342626Y-122545000D01*
X111019374Y-122545000D01*
X110702339Y-122481938D01*
X110403697Y-122358236D01*
X110403696Y-122358236D01*
X110403695Y-122358235D01*
X110134924Y-122178648D01*
X109906352Y-121950076D01*
X109726765Y-121681305D01*
X109652810Y-121502762D01*
X109603062Y-121382661D01*
X109540000Y-121065626D01*
X109540000Y-120742374D01*
X109603062Y-120425339D01*
X109726764Y-120126697D01*
X109906352Y-119857924D01*
X110134924Y-119629352D01*
X110403695Y-119449765D01*
X110403697Y-119449764D01*
X110702339Y-119326062D01*
X111019374Y-119263000D01*
X111342626Y-119263000D01*
X111659661Y-119326062D01*
G37*
G36*
X129904903Y-115637075D02*
G01*
X130132571Y-115731378D01*
X130337466Y-115868285D01*
X130511715Y-116042534D01*
X130648622Y-116247429D01*
X130742925Y-116475097D01*
X130791000Y-116716787D01*
X130791000Y-116963213D01*
X130742925Y-117204903D01*
X130648622Y-117432571D01*
X130511715Y-117637466D01*
X130337466Y-117811715D01*
X130132571Y-117948622D01*
X130132570Y-117948623D01*
X130132569Y-117948623D01*
X129904903Y-118042925D01*
X129663214Y-118091000D01*
X129416786Y-118091000D01*
X129175097Y-118042925D01*
X128947431Y-117948623D01*
X128947430Y-117948623D01*
X128947429Y-117948622D01*
X128742534Y-117811715D01*
X128568285Y-117637466D01*
X128431378Y-117432571D01*
X128337075Y-117204903D01*
X128289000Y-116963213D01*
X128289000Y-116716787D01*
X128337075Y-116475097D01*
X128431378Y-116247429D01*
X128568285Y-116042534D01*
X128742534Y-115868285D01*
X128947429Y-115731378D01*
X129175097Y-115637075D01*
X129416786Y-115589000D01*
X129663214Y-115589000D01*
X129904903Y-115637075D01*
G37*
G36*
X167528820Y-110278103D02*
G01*
X167562985Y-110288467D01*
X167594464Y-110305293D01*
X167622060Y-110327940D01*
X167644707Y-110355536D01*
X167661533Y-110387015D01*
X167671897Y-110421180D01*
X167676000Y-110462842D01*
X167676000Y-111712158D01*
X167671897Y-111753820D01*
X167661533Y-111787985D01*
X167644707Y-111819464D01*
X167622060Y-111847060D01*
X167594464Y-111869707D01*
X167562985Y-111886533D01*
X167528820Y-111896897D01*
X167487158Y-111901000D01*
X164412842Y-111901000D01*
X164371180Y-111896897D01*
X164337015Y-111886533D01*
X164305536Y-111869707D01*
X164277940Y-111847060D01*
X164255293Y-111819464D01*
X164238467Y-111787985D01*
X164228103Y-111753820D01*
X164224000Y-111712158D01*
X164224000Y-110462842D01*
X164228103Y-110421180D01*
X164238467Y-110387015D01*
X164255293Y-110355536D01*
X164277940Y-110327940D01*
X164305536Y-110305293D01*
X164337015Y-110288467D01*
X164371180Y-110278103D01*
X164412842Y-110274000D01*
X167487158Y-110274000D01*
X167528820Y-110278103D01*
G37*
G36*
X162678820Y-108478103D02*
G01*
X162712985Y-108488467D01*
X162744464Y-108505293D01*
X162772060Y-108527940D01*
X162794707Y-108555536D01*
X162811533Y-108587015D01*
X162821897Y-108621180D01*
X162826000Y-108662842D01*
X162826000Y-109912158D01*
X162821897Y-109953820D01*
X162811533Y-109987985D01*
X162794707Y-110019464D01*
X162772060Y-110047060D01*
X162744464Y-110069707D01*
X162712985Y-110086533D01*
X162678820Y-110096897D01*
X162637158Y-110101000D01*
X159562842Y-110101000D01*
X159521180Y-110096897D01*
X159487015Y-110086533D01*
X159455536Y-110069707D01*
X159427940Y-110047060D01*
X159405293Y-110019464D01*
X159388467Y-109987985D01*
X159378103Y-109953820D01*
X159374000Y-109912158D01*
X159374000Y-108662842D01*
X159378103Y-108621180D01*
X159388467Y-108587015D01*
X159405293Y-108555536D01*
X159427940Y-108527940D01*
X159455536Y-108505293D01*
X159487015Y-108488467D01*
X159521180Y-108478103D01*
X159562842Y-108474000D01*
X162637158Y-108474000D01*
X162678820Y-108478103D01*
G37*
G36*
X112697585Y-105158802D02*
G01*
X112847410Y-105188604D01*
X113129674Y-105305521D01*
X113383705Y-105475259D01*
X113599741Y-105691295D01*
X113769479Y-105945326D01*
X113886396Y-106227590D01*
X113946000Y-106527240D01*
X113946000Y-106832760D01*
X113886396Y-107132410D01*
X113769479Y-107414674D01*
X113599741Y-107668705D01*
X113383705Y-107884741D01*
X113129674Y-108054479D01*
X112847410Y-108171396D01*
X112697585Y-108201198D01*
X112547761Y-108231000D01*
X112242239Y-108231000D01*
X112092415Y-108201198D01*
X111942590Y-108171396D01*
X111660326Y-108054479D01*
X111406295Y-107884741D01*
X111190259Y-107668705D01*
X111020521Y-107414674D01*
X110903604Y-107132410D01*
X110844000Y-106832760D01*
X110844000Y-106527240D01*
X110903604Y-106227590D01*
X111020521Y-105945326D01*
X111190259Y-105691295D01*
X111406295Y-105475259D01*
X111660326Y-105305521D01*
X111942590Y-105188604D01*
X112092415Y-105158802D01*
X112242239Y-105129000D01*
X112547761Y-105129000D01*
X112697585Y-105158802D01*
G37*
G36*
X142542585Y-104498402D02*
G01*
X142692410Y-104528204D01*
X142974674Y-104645121D01*
X143228705Y-104814859D01*
X143444741Y-105030895D01*
X143614479Y-105284926D01*
X143731396Y-105567190D01*
X143791000Y-105866840D01*
X143791000Y-106172360D01*
X143731396Y-106472010D01*
X143614479Y-106754274D01*
X143444741Y-107008305D01*
X143228705Y-107224341D01*
X142974674Y-107394079D01*
X142692410Y-107510996D01*
X142542585Y-107540798D01*
X142392761Y-107570600D01*
X142087239Y-107570600D01*
X141937415Y-107540798D01*
X141787590Y-107510996D01*
X141505326Y-107394079D01*
X141251295Y-107224341D01*
X141035259Y-107008305D01*
X140865521Y-106754274D01*
X140748604Y-106472010D01*
X140689000Y-106172360D01*
X140689000Y-105866840D01*
X140748604Y-105567190D01*
X140865521Y-105284926D01*
X141035259Y-105030895D01*
X141251295Y-104814859D01*
X141505326Y-104645121D01*
X141787590Y-104528204D01*
X141937415Y-104498402D01*
X142087239Y-104468600D01*
X142392761Y-104468600D01*
X142542585Y-104498402D01*
G37*
G36*
X167528820Y-104303103D02*
G01*
X167562985Y-104313467D01*
X167594464Y-104330293D01*
X167622060Y-104352940D01*
X167644707Y-104380536D01*
X167661533Y-104412015D01*
X167671897Y-104446180D01*
X167676000Y-104487842D01*
X167676000Y-105737158D01*
X167671897Y-105778820D01*
X167661533Y-105812985D01*
X167644707Y-105844464D01*
X167622060Y-105872060D01*
X167594464Y-105894707D01*
X167562985Y-105911533D01*
X167528820Y-105921897D01*
X167487158Y-105926000D01*
X164412842Y-105926000D01*
X164371180Y-105921897D01*
X164337015Y-105911533D01*
X164305536Y-105894707D01*
X164277940Y-105872060D01*
X164255293Y-105844464D01*
X164238467Y-105812985D01*
X164228103Y-105778820D01*
X164224000Y-105737158D01*
X164224000Y-104487842D01*
X164228103Y-104446180D01*
X164238467Y-104412015D01*
X164255293Y-104380536D01*
X164277940Y-104352940D01*
X164305536Y-104330293D01*
X164337015Y-104313467D01*
X164371180Y-104303103D01*
X164412842Y-104299000D01*
X167487158Y-104299000D01*
X167528820Y-104303103D01*
G37*
G36*
X162678820Y-102503103D02*
G01*
X162712985Y-102513467D01*
X162744464Y-102530293D01*
X162772060Y-102552940D01*
X162794707Y-102580536D01*
X162811533Y-102612015D01*
X162821897Y-102646180D01*
X162826000Y-102687842D01*
X162826000Y-103937158D01*
X162821897Y-103978820D01*
X162811533Y-104012985D01*
X162794707Y-104044464D01*
X162772060Y-104072060D01*
X162744464Y-104094707D01*
X162712985Y-104111533D01*
X162678820Y-104121897D01*
X162637158Y-104126000D01*
X159562842Y-104126000D01*
X159521180Y-104121897D01*
X159487015Y-104111533D01*
X159455536Y-104094707D01*
X159427940Y-104072060D01*
X159405293Y-104044464D01*
X159388467Y-104012985D01*
X159378103Y-103978820D01*
X159374000Y-103937158D01*
X159374000Y-102687842D01*
X159378103Y-102646180D01*
X159388467Y-102612015D01*
X159405293Y-102580536D01*
X159427940Y-102552940D01*
X159455536Y-102530293D01*
X159487015Y-102513467D01*
X159521180Y-102503103D01*
X159562842Y-102499000D01*
X162637158Y-102499000D01*
X162678820Y-102503103D01*
G37*
G36*
X157651000Y-102551000D02*
G01*
X155849000Y-102551000D01*
X155849000Y-100749000D01*
X157651000Y-100749000D01*
X157651000Y-102551000D01*
G37*
G36*
X164216242Y-99937404D02*
G01*
X164253337Y-99948657D01*
X164287515Y-99966925D01*
X164317481Y-99991519D01*
X164342075Y-100021485D01*
X164360343Y-100055663D01*
X164371596Y-100092758D01*
X164376000Y-100137474D01*
X164376000Y-101030526D01*
X164371596Y-101075242D01*
X164360343Y-101112337D01*
X164342075Y-101146515D01*
X164317481Y-101176481D01*
X164287515Y-101201075D01*
X164253337Y-101219343D01*
X164216242Y-101230596D01*
X164171526Y-101235000D01*
X162728474Y-101235000D01*
X162683758Y-101230596D01*
X162646663Y-101219343D01*
X162612485Y-101201075D01*
X162582519Y-101176481D01*
X162557925Y-101146515D01*
X162539657Y-101112337D01*
X162528404Y-101075242D01*
X162524000Y-101030526D01*
X162524000Y-100137474D01*
X162528404Y-100092758D01*
X162539657Y-100055663D01*
X162557925Y-100021485D01*
X162582519Y-99991519D01*
X162612485Y-99966925D01*
X162646663Y-99948657D01*
X162683758Y-99937404D01*
X162728474Y-99933000D01*
X164171526Y-99933000D01*
X164216242Y-99937404D01*
G37*
G36*
X156863512Y-98213927D02*
G01*
X157012812Y-98243624D01*
X157176784Y-98311544D01*
X157324354Y-98410147D01*
X157449853Y-98535646D01*
X157548456Y-98683216D01*
X157616376Y-98847188D01*
X157651000Y-99021259D01*
X157651000Y-99198741D01*
X157616376Y-99372812D01*
X157548456Y-99536784D01*
X157449853Y-99684354D01*
X157324354Y-99809853D01*
X157176784Y-99908456D01*
X157012812Y-99976376D01*
X156863512Y-100006073D01*
X156838742Y-100011000D01*
X156661258Y-100011000D01*
X156636488Y-100006073D01*
X156487188Y-99976376D01*
X156323216Y-99908456D01*
X156175646Y-99809853D01*
X156050147Y-99684354D01*
X155951544Y-99536784D01*
X155883624Y-99372812D01*
X155849000Y-99198741D01*
X155849000Y-99021259D01*
X155883624Y-98847188D01*
X155951544Y-98683216D01*
X156050147Y-98535646D01*
X156175646Y-98410147D01*
X156323216Y-98311544D01*
X156487188Y-98243624D01*
X156636488Y-98213927D01*
X156661258Y-98209000D01*
X156838742Y-98209000D01*
X156863512Y-98213927D01*
G37*
G36*
X163788855Y-97936140D02*
G01*
X163852618Y-97942420D01*
X163943404Y-97969960D01*
X163975336Y-97979646D01*
X164088425Y-98040094D01*
X164187554Y-98121446D01*
X164268906Y-98220575D01*
X164329354Y-98333664D01*
X164329355Y-98333668D01*
X164366580Y-98456382D01*
X164379149Y-98584000D01*
X164366580Y-98711618D01*
X164339040Y-98802404D01*
X164329354Y-98834336D01*
X164268906Y-98947425D01*
X164187554Y-99046554D01*
X164088425Y-99127906D01*
X163975336Y-99188354D01*
X163943404Y-99198040D01*
X163852618Y-99225580D01*
X163788855Y-99231860D01*
X163756974Y-99235000D01*
X163143026Y-99235000D01*
X163111145Y-99231860D01*
X163047382Y-99225580D01*
X162956596Y-99198040D01*
X162924664Y-99188354D01*
X162811575Y-99127906D01*
X162712446Y-99046554D01*
X162631094Y-98947425D01*
X162570646Y-98834336D01*
X162560960Y-98802404D01*
X162533420Y-98711618D01*
X162520851Y-98584000D01*
X162533420Y-98456382D01*
X162570645Y-98333668D01*
X162570646Y-98333664D01*
X162631094Y-98220575D01*
X162712446Y-98121446D01*
X162811575Y-98040094D01*
X162924664Y-97979646D01*
X162956596Y-97969960D01*
X163047382Y-97942420D01*
X163111145Y-97936140D01*
X163143026Y-97933000D01*
X163756974Y-97933000D01*
X163788855Y-97936140D01*
G37*
G36*
X156863512Y-95673927D02*
G01*
X157012812Y-95703624D01*
X157176784Y-95771544D01*
X157324354Y-95870147D01*
X157449853Y-95995646D01*
X157548456Y-96143216D01*
X157616376Y-96307188D01*
X157651000Y-96481259D01*
X157651000Y-96658741D01*
X157616376Y-96832812D01*
X157548456Y-96996784D01*
X157449853Y-97144354D01*
X157324354Y-97269853D01*
X157176784Y-97368456D01*
X157012812Y-97436376D01*
X156863512Y-97466073D01*
X156838742Y-97471000D01*
X156661258Y-97471000D01*
X156636488Y-97466073D01*
X156487188Y-97436376D01*
X156323216Y-97368456D01*
X156175646Y-97269853D01*
X156050147Y-97144354D01*
X155951544Y-96996784D01*
X155883624Y-96832812D01*
X155849000Y-96658741D01*
X155849000Y-96481259D01*
X155883624Y-96307188D01*
X155951544Y-96143216D01*
X156050147Y-95995646D01*
X156175646Y-95870147D01*
X156323216Y-95771544D01*
X156487188Y-95703624D01*
X156636488Y-95673927D01*
X156661258Y-95669000D01*
X156838742Y-95669000D01*
X156863512Y-95673927D01*
G37*
G36*
X163788855Y-95936140D02*
G01*
X163852618Y-95942420D01*
X163943404Y-95969960D01*
X163975336Y-95979646D01*
X164088425Y-96040094D01*
X164187554Y-96121446D01*
X164268906Y-96220575D01*
X164329354Y-96333664D01*
X164329355Y-96333668D01*
X164366580Y-96456382D01*
X164379149Y-96584000D01*
X164366580Y-96711618D01*
X164339040Y-96802404D01*
X164329354Y-96834336D01*
X164268906Y-96947425D01*
X164187554Y-97046554D01*
X164088425Y-97127906D01*
X163975336Y-97188354D01*
X163943404Y-97198040D01*
X163852618Y-97225580D01*
X163788855Y-97231860D01*
X163756974Y-97235000D01*
X163143026Y-97235000D01*
X163111145Y-97231860D01*
X163047382Y-97225580D01*
X162956596Y-97198040D01*
X162924664Y-97188354D01*
X162811575Y-97127906D01*
X162712446Y-97046554D01*
X162631094Y-96947425D01*
X162570646Y-96834336D01*
X162560960Y-96802404D01*
X162533420Y-96711618D01*
X162520851Y-96584000D01*
X162533420Y-96456382D01*
X162570645Y-96333668D01*
X162570646Y-96333664D01*
X162631094Y-96220575D01*
X162712446Y-96121446D01*
X162811575Y-96040094D01*
X162924664Y-95979646D01*
X162956596Y-95969960D01*
X163047382Y-95942420D01*
X163111145Y-95936140D01*
X163143026Y-95933000D01*
X163756974Y-95933000D01*
X163788855Y-95936140D01*
G37*
G36*
X116468761Y-92298837D02*
G01*
X116727200Y-92377234D01*
X116965372Y-92504539D01*
X117174134Y-92675866D01*
X117345461Y-92884628D01*
X117472766Y-93122800D01*
X117551163Y-93381240D01*
X117571000Y-93582652D01*
X117571000Y-94377349D01*
X117551163Y-94578761D01*
X117472766Y-94837200D01*
X117345461Y-95075372D01*
X117174134Y-95284133D01*
X116965370Y-95455461D01*
X116727199Y-95582766D01*
X116468760Y-95661163D01*
X116200000Y-95687633D01*
X115931239Y-95661163D01*
X115672800Y-95582766D01*
X115434628Y-95455461D01*
X115225867Y-95284134D01*
X115054539Y-95075370D01*
X114927234Y-94837199D01*
X114848837Y-94578760D01*
X114829000Y-94377348D01*
X114829000Y-93582651D01*
X114848837Y-93381239D01*
X114927234Y-93122800D01*
X115054539Y-92884628D01*
X115225866Y-92675867D01*
X115434630Y-92504539D01*
X115672801Y-92377234D01*
X115931240Y-92298837D01*
X116200000Y-92272367D01*
X116468761Y-92298837D01*
G37*
G36*
X121583436Y-92282635D02*
G01*
X121613027Y-92291611D01*
X121640296Y-92306187D01*
X121664198Y-92325802D01*
X121683813Y-92349704D01*
X121698389Y-92376973D01*
X121707365Y-92406564D01*
X121711000Y-92443474D01*
X121711000Y-95516526D01*
X121707365Y-95553436D01*
X121698389Y-95583027D01*
X121683813Y-95610296D01*
X121664198Y-95634198D01*
X121640296Y-95653813D01*
X121613027Y-95668389D01*
X121583436Y-95677365D01*
X121546526Y-95681000D01*
X119133474Y-95681000D01*
X119096564Y-95677365D01*
X119066973Y-95668389D01*
X119039704Y-95653813D01*
X119015802Y-95634198D01*
X118996187Y-95610296D01*
X118981611Y-95583027D01*
X118972635Y-95553436D01*
X118969000Y-95516526D01*
X118969000Y-92443474D01*
X118972635Y-92406564D01*
X118981611Y-92376973D01*
X118996187Y-92349704D01*
X119015802Y-92325802D01*
X119039704Y-92306187D01*
X119066973Y-92291611D01*
X119096564Y-92282635D01*
X119133474Y-92279000D01*
X121546526Y-92279000D01*
X121583436Y-92282635D01*
G37*
G36*
X112238661Y-92402062D02*
G01*
X112537303Y-92525764D01*
X112537305Y-92525765D01*
X112784597Y-92691000D01*
X112806076Y-92705352D01*
X113034648Y-92933924D01*
X113214236Y-93202697D01*
X113337938Y-93501339D01*
X113401000Y-93818374D01*
X113401000Y-94141626D01*
X113337938Y-94458661D01*
X113288190Y-94578762D01*
X113214235Y-94757305D01*
X113034648Y-95026076D01*
X112806076Y-95254648D01*
X112537305Y-95434235D01*
X112537304Y-95434236D01*
X112537303Y-95434236D01*
X112238661Y-95557938D01*
X111921626Y-95621000D01*
X111598374Y-95621000D01*
X111281339Y-95557938D01*
X110982697Y-95434236D01*
X110982696Y-95434236D01*
X110982695Y-95434235D01*
X110713924Y-95254648D01*
X110485352Y-95026076D01*
X110305765Y-94757305D01*
X110231810Y-94578762D01*
X110182062Y-94458661D01*
X110119000Y-94141626D01*
X110119000Y-93818374D01*
X110182062Y-93501339D01*
X110305764Y-93202697D01*
X110485352Y-92933924D01*
X110713924Y-92705352D01*
X110735403Y-92691000D01*
X110982695Y-92525765D01*
X110982697Y-92525764D01*
X111281339Y-92402062D01*
X111598374Y-92339000D01*
X111921626Y-92339000D01*
X112238661Y-92402062D01*
G37*
G36*
X129904903Y-90237075D02*
G01*
X130007730Y-90279667D01*
X130132571Y-90331378D01*
X130337466Y-90468285D01*
X130511715Y-90642534D01*
X130511716Y-90642536D01*
X130648623Y-90847431D01*
X130742925Y-91075097D01*
X130791000Y-91316786D01*
X130791000Y-91563214D01*
X130766718Y-91685286D01*
X130742925Y-91804903D01*
X130648622Y-92032571D01*
X130511715Y-92237466D01*
X130337466Y-92411715D01*
X130132571Y-92548622D01*
X130132570Y-92548623D01*
X130132569Y-92548623D01*
X129904903Y-92642925D01*
X129663214Y-92691000D01*
X129416786Y-92691000D01*
X129175097Y-92642925D01*
X128947431Y-92548623D01*
X128947430Y-92548623D01*
X128947429Y-92548622D01*
X128742534Y-92411715D01*
X128568285Y-92237466D01*
X128431378Y-92032571D01*
X128337075Y-91804903D01*
X128313282Y-91685286D01*
X128289000Y-91563214D01*
X128289000Y-91316786D01*
X128337075Y-91075097D01*
X128431377Y-90847431D01*
X128568284Y-90642536D01*
X128568285Y-90642534D01*
X128742534Y-90468285D01*
X128947429Y-90331378D01*
X129072271Y-90279667D01*
X129175097Y-90237075D01*
X129416786Y-90189000D01*
X129663214Y-90189000D01*
X129904903Y-90237075D01*
G37*
G36*
X159777618Y-89888420D02*
G01*
X159858400Y-89912925D01*
X159900336Y-89925646D01*
X160013425Y-89986094D01*
X160112554Y-90067446D01*
X160193906Y-90166575D01*
X160254354Y-90279664D01*
X160254355Y-90279668D01*
X160291580Y-90402382D01*
X160301000Y-90498027D01*
X160301000Y-91111973D01*
X160291580Y-91207618D01*
X160264040Y-91298404D01*
X160254354Y-91330336D01*
X160193906Y-91443425D01*
X160112554Y-91542553D01*
X160013424Y-91623906D01*
X159900335Y-91684354D01*
X159868403Y-91694040D01*
X159777617Y-91721580D01*
X159650000Y-91734149D01*
X159522382Y-91721580D01*
X159431596Y-91694040D01*
X159399664Y-91684354D01*
X159286575Y-91623906D01*
X159187447Y-91542554D01*
X159106094Y-91443424D01*
X159045646Y-91330335D01*
X159035960Y-91298403D01*
X159008420Y-91207617D01*
X158999000Y-91111972D01*
X158999000Y-90498027D01*
X159008420Y-90402382D01*
X159045645Y-90279668D01*
X159045645Y-90279667D01*
X159094108Y-90189000D01*
X159106095Y-90166574D01*
X159119493Y-90150249D01*
X159187447Y-90067446D01*
X159286576Y-89986094D01*
X159399665Y-89925646D01*
X159441601Y-89912925D01*
X159522383Y-89888420D01*
X159650000Y-89875851D01*
X159777618Y-89888420D01*
G37*
G36*
X161777618Y-89888420D02*
G01*
X161858400Y-89912925D01*
X161900336Y-89925646D01*
X162013425Y-89986094D01*
X162112554Y-90067446D01*
X162193906Y-90166575D01*
X162254354Y-90279664D01*
X162254355Y-90279668D01*
X162291580Y-90402382D01*
X162301000Y-90498027D01*
X162301000Y-91111973D01*
X162291580Y-91207618D01*
X162264040Y-91298404D01*
X162254354Y-91330336D01*
X162193906Y-91443425D01*
X162112554Y-91542553D01*
X162013424Y-91623906D01*
X161900335Y-91684354D01*
X161868403Y-91694040D01*
X161777617Y-91721580D01*
X161650000Y-91734149D01*
X161522382Y-91721580D01*
X161431596Y-91694040D01*
X161399664Y-91684354D01*
X161286575Y-91623906D01*
X161187447Y-91542554D01*
X161106094Y-91443424D01*
X161045646Y-91330335D01*
X161035960Y-91298403D01*
X161008420Y-91207617D01*
X160999000Y-91111972D01*
X160999000Y-90498027D01*
X161008420Y-90402382D01*
X161045645Y-90279668D01*
X161045645Y-90279667D01*
X161094108Y-90189000D01*
X161106095Y-90166574D01*
X161119493Y-90150249D01*
X161187447Y-90067446D01*
X161286576Y-89986094D01*
X161399665Y-89925646D01*
X161441601Y-89912925D01*
X161522383Y-89888420D01*
X161650000Y-89875851D01*
X161777618Y-89888420D01*
G37*
G36*
X157777618Y-89888420D02*
G01*
X157858400Y-89912925D01*
X157900336Y-89925646D01*
X158013425Y-89986094D01*
X158112554Y-90067446D01*
X158193906Y-90166575D01*
X158254354Y-90279664D01*
X158254355Y-90279668D01*
X158291580Y-90402382D01*
X158301000Y-90498027D01*
X158301000Y-91111973D01*
X158291580Y-91207618D01*
X158264040Y-91298404D01*
X158254354Y-91330336D01*
X158193906Y-91443425D01*
X158112554Y-91542553D01*
X158013424Y-91623906D01*
X157900335Y-91684354D01*
X157868403Y-91694040D01*
X157777617Y-91721580D01*
X157650000Y-91734149D01*
X157522382Y-91721580D01*
X157431596Y-91694040D01*
X157399664Y-91684354D01*
X157286575Y-91623906D01*
X157187447Y-91542554D01*
X157106094Y-91443424D01*
X157045646Y-91330335D01*
X157035960Y-91298403D01*
X157008420Y-91207617D01*
X156999000Y-91111972D01*
X156999000Y-90498027D01*
X157008420Y-90402382D01*
X157045645Y-90279668D01*
X157045645Y-90279667D01*
X157094108Y-90189000D01*
X157106095Y-90166574D01*
X157119493Y-90150249D01*
X157187447Y-90067446D01*
X157286576Y-89986094D01*
X157399665Y-89925646D01*
X157441601Y-89912925D01*
X157522383Y-89888420D01*
X157650000Y-89875851D01*
X157777618Y-89888420D01*
G37*
G36*
X164141242Y-89883404D02*
G01*
X164178337Y-89894657D01*
X164212515Y-89912925D01*
X164242481Y-89937519D01*
X164267075Y-89967485D01*
X164285343Y-90001663D01*
X164296596Y-90038758D01*
X164301000Y-90083474D01*
X164301000Y-91526526D01*
X164296596Y-91571242D01*
X164285343Y-91608337D01*
X164267075Y-91642515D01*
X164242481Y-91672481D01*
X164212515Y-91697075D01*
X164178337Y-91715343D01*
X164141242Y-91726596D01*
X164096526Y-91731000D01*
X163203474Y-91731000D01*
X163158758Y-91726596D01*
X163121663Y-91715343D01*
X163087485Y-91697075D01*
X163057519Y-91672481D01*
X163032925Y-91642515D01*
X163014657Y-91608337D01*
X163003404Y-91571242D01*
X162999000Y-91526526D01*
X162999000Y-90083474D01*
X163003404Y-90038758D01*
X163014657Y-90001663D01*
X163032925Y-89967485D01*
X163057519Y-89937519D01*
X163087485Y-89912925D01*
X163121663Y-89894657D01*
X163158758Y-89883404D01*
X163203474Y-89879000D01*
X164096526Y-89879000D01*
X164141242Y-89883404D01*
G37*
M02*
