G04 #@! TF.GenerationSoftware,KiCad,Pcbnew,5.1.5-52549c5~84~ubuntu18.04.1*
G04 #@! TF.CreationDate,2020-02-06T22:07:39-05:00*
G04 #@! TF.ProjectId,TSAL,5453414c-2e6b-4696-9361-645f70636258,rev?*
G04 #@! TF.SameCoordinates,Original*
G04 #@! TF.FileFunction,Copper,L2,Bot*
G04 #@! TF.FilePolarity,Positive*
%FSLAX46Y46*%
G04 Gerber Fmt 4.6, Leading zero omitted, Abs format (unit mm)*
G04 Created by KiCad (PCBNEW 5.1.5-52549c5~84~ubuntu18.04.1) date 2020-02-06 22:07:39*
%MOMM*%
%LPD*%
G04 APERTURE LIST*
%ADD10O,1.200000X1.750000*%
%ADD11C,0.100000*%
%ADD12O,1.750000X1.200000*%
%ADD13O,2.640000X3.300000*%
%ADD14C,0.800000*%
%ADD15C,1.200000*%
%ADD16C,0.254000*%
G04 APERTURE END LIST*
D10*
X157650000Y-91000000D03*
X159650000Y-91000000D03*
X161650000Y-91000000D03*
G04 #@! TA.AperFunction,ComponentPad*
D11*
G36*
X164024505Y-90126204D02*
G01*
X164048773Y-90129804D01*
X164072572Y-90135765D01*
X164095671Y-90144030D01*
X164117850Y-90154520D01*
X164138893Y-90167132D01*
X164158599Y-90181747D01*
X164176777Y-90198223D01*
X164193253Y-90216401D01*
X164207868Y-90236107D01*
X164220480Y-90257150D01*
X164230970Y-90279329D01*
X164239235Y-90302428D01*
X164245196Y-90326227D01*
X164248796Y-90350495D01*
X164250000Y-90374999D01*
X164250000Y-91625001D01*
X164248796Y-91649505D01*
X164245196Y-91673773D01*
X164239235Y-91697572D01*
X164230970Y-91720671D01*
X164220480Y-91742850D01*
X164207868Y-91763893D01*
X164193253Y-91783599D01*
X164176777Y-91801777D01*
X164158599Y-91818253D01*
X164138893Y-91832868D01*
X164117850Y-91845480D01*
X164095671Y-91855970D01*
X164072572Y-91864235D01*
X164048773Y-91870196D01*
X164024505Y-91873796D01*
X164000001Y-91875000D01*
X163299999Y-91875000D01*
X163275495Y-91873796D01*
X163251227Y-91870196D01*
X163227428Y-91864235D01*
X163204329Y-91855970D01*
X163182150Y-91845480D01*
X163161107Y-91832868D01*
X163141401Y-91818253D01*
X163123223Y-91801777D01*
X163106747Y-91783599D01*
X163092132Y-91763893D01*
X163079520Y-91742850D01*
X163069030Y-91720671D01*
X163060765Y-91697572D01*
X163054804Y-91673773D01*
X163051204Y-91649505D01*
X163050000Y-91625001D01*
X163050000Y-90374999D01*
X163051204Y-90350495D01*
X163054804Y-90326227D01*
X163060765Y-90302428D01*
X163069030Y-90279329D01*
X163079520Y-90257150D01*
X163092132Y-90236107D01*
X163106747Y-90216401D01*
X163123223Y-90198223D01*
X163141401Y-90181747D01*
X163161107Y-90167132D01*
X163182150Y-90154520D01*
X163204329Y-90144030D01*
X163227428Y-90135765D01*
X163251227Y-90129804D01*
X163275495Y-90126204D01*
X163299999Y-90125000D01*
X164000001Y-90125000D01*
X164024505Y-90126204D01*
G37*
G04 #@! TD.AperFunction*
D12*
X163450000Y-97050000D03*
G04 #@! TA.AperFunction,ComponentPad*
D11*
G36*
X164099505Y-98451204D02*
G01*
X164123773Y-98454804D01*
X164147572Y-98460765D01*
X164170671Y-98469030D01*
X164192850Y-98479520D01*
X164213893Y-98492132D01*
X164233599Y-98506747D01*
X164251777Y-98523223D01*
X164268253Y-98541401D01*
X164282868Y-98561107D01*
X164295480Y-98582150D01*
X164305970Y-98604329D01*
X164314235Y-98627428D01*
X164320196Y-98651227D01*
X164323796Y-98675495D01*
X164325000Y-98699999D01*
X164325000Y-99400001D01*
X164323796Y-99424505D01*
X164320196Y-99448773D01*
X164314235Y-99472572D01*
X164305970Y-99495671D01*
X164295480Y-99517850D01*
X164282868Y-99538893D01*
X164268253Y-99558599D01*
X164251777Y-99576777D01*
X164233599Y-99593253D01*
X164213893Y-99607868D01*
X164192850Y-99620480D01*
X164170671Y-99630970D01*
X164147572Y-99639235D01*
X164123773Y-99645196D01*
X164099505Y-99648796D01*
X164075001Y-99650000D01*
X162824999Y-99650000D01*
X162800495Y-99648796D01*
X162776227Y-99645196D01*
X162752428Y-99639235D01*
X162729329Y-99630970D01*
X162707150Y-99620480D01*
X162686107Y-99607868D01*
X162666401Y-99593253D01*
X162648223Y-99576777D01*
X162631747Y-99558599D01*
X162617132Y-99538893D01*
X162604520Y-99517850D01*
X162594030Y-99495671D01*
X162585765Y-99472572D01*
X162579804Y-99448773D01*
X162576204Y-99424505D01*
X162575000Y-99400001D01*
X162575000Y-98699999D01*
X162576204Y-98675495D01*
X162579804Y-98651227D01*
X162585765Y-98627428D01*
X162594030Y-98604329D01*
X162604520Y-98582150D01*
X162617132Y-98561107D01*
X162631747Y-98541401D01*
X162648223Y-98523223D01*
X162666401Y-98506747D01*
X162686107Y-98492132D01*
X162707150Y-98479520D01*
X162729329Y-98469030D01*
X162752428Y-98460765D01*
X162776227Y-98454804D01*
X162800495Y-98451204D01*
X162824999Y-98450000D01*
X164075001Y-98450000D01*
X164099505Y-98451204D01*
G37*
G04 #@! TD.AperFunction*
D12*
X156650000Y-97050000D03*
X156650000Y-99050000D03*
G04 #@! TA.AperFunction,ComponentPad*
D11*
G36*
X157299505Y-100451204D02*
G01*
X157323773Y-100454804D01*
X157347572Y-100460765D01*
X157370671Y-100469030D01*
X157392850Y-100479520D01*
X157413893Y-100492132D01*
X157433599Y-100506747D01*
X157451777Y-100523223D01*
X157468253Y-100541401D01*
X157482868Y-100561107D01*
X157495480Y-100582150D01*
X157505970Y-100604329D01*
X157514235Y-100627428D01*
X157520196Y-100651227D01*
X157523796Y-100675495D01*
X157525000Y-100699999D01*
X157525000Y-101400001D01*
X157523796Y-101424505D01*
X157520196Y-101448773D01*
X157514235Y-101472572D01*
X157505970Y-101495671D01*
X157495480Y-101517850D01*
X157482868Y-101538893D01*
X157468253Y-101558599D01*
X157451777Y-101576777D01*
X157433599Y-101593253D01*
X157413893Y-101607868D01*
X157392850Y-101620480D01*
X157370671Y-101630970D01*
X157347572Y-101639235D01*
X157323773Y-101645196D01*
X157299505Y-101648796D01*
X157275001Y-101650000D01*
X156024999Y-101650000D01*
X156000495Y-101648796D01*
X155976227Y-101645196D01*
X155952428Y-101639235D01*
X155929329Y-101630970D01*
X155907150Y-101620480D01*
X155886107Y-101607868D01*
X155866401Y-101593253D01*
X155848223Y-101576777D01*
X155831747Y-101558599D01*
X155817132Y-101538893D01*
X155804520Y-101517850D01*
X155794030Y-101495671D01*
X155785765Y-101472572D01*
X155779804Y-101448773D01*
X155776204Y-101424505D01*
X155775000Y-101400001D01*
X155775000Y-100699999D01*
X155776204Y-100675495D01*
X155779804Y-100651227D01*
X155785765Y-100627428D01*
X155794030Y-100604329D01*
X155804520Y-100582150D01*
X155817132Y-100561107D01*
X155831747Y-100541401D01*
X155848223Y-100523223D01*
X155866401Y-100506747D01*
X155886107Y-100492132D01*
X155907150Y-100479520D01*
X155929329Y-100469030D01*
X155952428Y-100460765D01*
X155976227Y-100454804D01*
X156000495Y-100451204D01*
X156024999Y-100450000D01*
X157275001Y-100450000D01*
X157299505Y-100451204D01*
G37*
G04 #@! TD.AperFunction*
D13*
X116200000Y-93980000D03*
G04 #@! TA.AperFunction,ComponentPad*
D11*
G36*
X121434504Y-92331204D02*
G01*
X121458773Y-92334804D01*
X121482571Y-92340765D01*
X121505671Y-92349030D01*
X121527849Y-92359520D01*
X121548893Y-92372133D01*
X121568598Y-92386747D01*
X121586777Y-92403223D01*
X121603253Y-92421402D01*
X121617867Y-92441107D01*
X121630480Y-92462151D01*
X121640970Y-92484329D01*
X121649235Y-92507429D01*
X121655196Y-92531227D01*
X121658796Y-92555496D01*
X121660000Y-92580000D01*
X121660000Y-95380000D01*
X121658796Y-95404504D01*
X121655196Y-95428773D01*
X121649235Y-95452571D01*
X121640970Y-95475671D01*
X121630480Y-95497849D01*
X121617867Y-95518893D01*
X121603253Y-95538598D01*
X121586777Y-95556777D01*
X121568598Y-95573253D01*
X121548893Y-95587867D01*
X121527849Y-95600480D01*
X121505671Y-95610970D01*
X121482571Y-95619235D01*
X121458773Y-95625196D01*
X121434504Y-95628796D01*
X121410000Y-95630000D01*
X119270000Y-95630000D01*
X119245496Y-95628796D01*
X119221227Y-95625196D01*
X119197429Y-95619235D01*
X119174329Y-95610970D01*
X119152151Y-95600480D01*
X119131107Y-95587867D01*
X119111402Y-95573253D01*
X119093223Y-95556777D01*
X119076747Y-95538598D01*
X119062133Y-95518893D01*
X119049520Y-95497849D01*
X119039030Y-95475671D01*
X119030765Y-95452571D01*
X119024804Y-95428773D01*
X119021204Y-95404504D01*
X119020000Y-95380000D01*
X119020000Y-92580000D01*
X119021204Y-92555496D01*
X119024804Y-92531227D01*
X119030765Y-92507429D01*
X119039030Y-92484329D01*
X119049520Y-92462151D01*
X119062133Y-92441107D01*
X119076747Y-92421402D01*
X119093223Y-92403223D01*
X119111402Y-92386747D01*
X119131107Y-92372133D01*
X119152151Y-92359520D01*
X119174329Y-92349030D01*
X119197429Y-92340765D01*
X119221227Y-92334804D01*
X119245496Y-92331204D01*
X119270000Y-92330000D01*
X121410000Y-92330000D01*
X121434504Y-92331204D01*
G37*
G04 #@! TD.AperFunction*
D13*
X115621000Y-120904000D03*
G04 #@! TA.AperFunction,ComponentPad*
D11*
G36*
X120855504Y-119255204D02*
G01*
X120879773Y-119258804D01*
X120903571Y-119264765D01*
X120926671Y-119273030D01*
X120948849Y-119283520D01*
X120969893Y-119296133D01*
X120989598Y-119310747D01*
X121007777Y-119327223D01*
X121024253Y-119345402D01*
X121038867Y-119365107D01*
X121051480Y-119386151D01*
X121061970Y-119408329D01*
X121070235Y-119431429D01*
X121076196Y-119455227D01*
X121079796Y-119479496D01*
X121081000Y-119504000D01*
X121081000Y-122304000D01*
X121079796Y-122328504D01*
X121076196Y-122352773D01*
X121070235Y-122376571D01*
X121061970Y-122399671D01*
X121051480Y-122421849D01*
X121038867Y-122442893D01*
X121024253Y-122462598D01*
X121007777Y-122480777D01*
X120989598Y-122497253D01*
X120969893Y-122511867D01*
X120948849Y-122524480D01*
X120926671Y-122534970D01*
X120903571Y-122543235D01*
X120879773Y-122549196D01*
X120855504Y-122552796D01*
X120831000Y-122554000D01*
X118691000Y-122554000D01*
X118666496Y-122552796D01*
X118642227Y-122549196D01*
X118618429Y-122543235D01*
X118595329Y-122534970D01*
X118573151Y-122524480D01*
X118552107Y-122511867D01*
X118532402Y-122497253D01*
X118514223Y-122480777D01*
X118497747Y-122462598D01*
X118483133Y-122442893D01*
X118470520Y-122421849D01*
X118460030Y-122399671D01*
X118451765Y-122376571D01*
X118445804Y-122352773D01*
X118442204Y-122328504D01*
X118441000Y-122304000D01*
X118441000Y-119504000D01*
X118442204Y-119479496D01*
X118445804Y-119455227D01*
X118451765Y-119431429D01*
X118460030Y-119408329D01*
X118470520Y-119386151D01*
X118483133Y-119365107D01*
X118497747Y-119345402D01*
X118514223Y-119327223D01*
X118532402Y-119310747D01*
X118552107Y-119296133D01*
X118573151Y-119283520D01*
X118595329Y-119273030D01*
X118618429Y-119264765D01*
X118642227Y-119258804D01*
X118666496Y-119255204D01*
X118691000Y-119254000D01*
X120831000Y-119254000D01*
X120855504Y-119255204D01*
G37*
G04 #@! TD.AperFunction*
D14*
X154600000Y-119800000D03*
X174000000Y-124000000D03*
X173800000Y-111400000D03*
X173400000Y-104000000D03*
X173800000Y-117200000D03*
X154600000Y-123400000D03*
X165400000Y-112400000D03*
X158600000Y-109975000D03*
X142000000Y-118000000D03*
X158000000Y-118000000D03*
X170000000Y-104000000D03*
D15*
X142000000Y-118000000D02*
X158000000Y-118000000D01*
X158000000Y-118000000D02*
X166000000Y-118000000D01*
X166000000Y-118000000D02*
X170000000Y-114000000D01*
X170000000Y-114000000D02*
X170000000Y-104000000D01*
D16*
G36*
X178891212Y-126340000D02*
G01*
X143144010Y-126340000D01*
X143131071Y-119235000D01*
X165939335Y-119235000D01*
X166000000Y-119240975D01*
X166060665Y-119235000D01*
X166242102Y-119217130D01*
X166474901Y-119146511D01*
X166689449Y-119031833D01*
X166877502Y-118877502D01*
X166916178Y-118830375D01*
X170830381Y-114916173D01*
X170877502Y-114877502D01*
X171031833Y-114689449D01*
X171146511Y-114474901D01*
X171217130Y-114242102D01*
X171235000Y-114060665D01*
X171235000Y-114060664D01*
X171240975Y-114000001D01*
X171235000Y-113939338D01*
X171235000Y-103939335D01*
X171217130Y-103757898D01*
X171146511Y-103525099D01*
X171031833Y-103310551D01*
X170877502Y-103122498D01*
X170689449Y-102968167D01*
X170474901Y-102853489D01*
X170242102Y-102782870D01*
X170000000Y-102759025D01*
X169757899Y-102782870D01*
X169525100Y-102853489D01*
X169310552Y-102968167D01*
X169122499Y-103122498D01*
X168968168Y-103310551D01*
X168853490Y-103525099D01*
X168782871Y-103757898D01*
X168765001Y-103939335D01*
X168765000Y-113488446D01*
X165488447Y-116765000D01*
X153127143Y-116765000D01*
X153139111Y-97050000D01*
X155134025Y-97050000D01*
X155157870Y-97292102D01*
X155228489Y-97524901D01*
X155343167Y-97739449D01*
X155497498Y-97927502D01*
X155646762Y-98050000D01*
X155497498Y-98172498D01*
X155343167Y-98360551D01*
X155228489Y-98575099D01*
X155157870Y-98807898D01*
X155134025Y-99050000D01*
X155157870Y-99292102D01*
X155228489Y-99524901D01*
X155343167Y-99739449D01*
X155497498Y-99927502D01*
X155536111Y-99959191D01*
X155531613Y-99961595D01*
X155397038Y-100072038D01*
X155286595Y-100206613D01*
X155204528Y-100360149D01*
X155153992Y-100526745D01*
X155136928Y-100699999D01*
X155136928Y-101400001D01*
X155153992Y-101573255D01*
X155204528Y-101739851D01*
X155286595Y-101893387D01*
X155397038Y-102027962D01*
X155531613Y-102138405D01*
X155685149Y-102220472D01*
X155851745Y-102271008D01*
X156024999Y-102288072D01*
X157275001Y-102288072D01*
X157448255Y-102271008D01*
X157614851Y-102220472D01*
X157768387Y-102138405D01*
X157902962Y-102027962D01*
X158013405Y-101893387D01*
X158095472Y-101739851D01*
X158146008Y-101573255D01*
X158163072Y-101400001D01*
X158163072Y-100699999D01*
X158146008Y-100526745D01*
X158095472Y-100360149D01*
X158013405Y-100206613D01*
X157902962Y-100072038D01*
X157768387Y-99961595D01*
X157763889Y-99959191D01*
X157802502Y-99927502D01*
X157956833Y-99739449D01*
X158071511Y-99524901D01*
X158142130Y-99292102D01*
X158165975Y-99050000D01*
X158142130Y-98807898D01*
X158109400Y-98699999D01*
X161936928Y-98699999D01*
X161936928Y-99400001D01*
X161953992Y-99573255D01*
X162004528Y-99739851D01*
X162086595Y-99893387D01*
X162197038Y-100027962D01*
X162331613Y-100138405D01*
X162485149Y-100220472D01*
X162651745Y-100271008D01*
X162824999Y-100288072D01*
X164075001Y-100288072D01*
X164248255Y-100271008D01*
X164414851Y-100220472D01*
X164568387Y-100138405D01*
X164702962Y-100027962D01*
X164813405Y-99893387D01*
X164895472Y-99739851D01*
X164946008Y-99573255D01*
X164963072Y-99400001D01*
X164963072Y-98699999D01*
X164946008Y-98526745D01*
X164895472Y-98360149D01*
X164813405Y-98206613D01*
X164702962Y-98072038D01*
X164568387Y-97961595D01*
X164563594Y-97959033D01*
X164688078Y-97833474D01*
X164822421Y-97630533D01*
X164914591Y-97405282D01*
X164918462Y-97367609D01*
X164793731Y-97177000D01*
X163577000Y-97177000D01*
X163577000Y-97197000D01*
X163323000Y-97197000D01*
X163323000Y-97177000D01*
X162106269Y-97177000D01*
X161981538Y-97367609D01*
X161985409Y-97405282D01*
X162077579Y-97630533D01*
X162211922Y-97833474D01*
X162336406Y-97959033D01*
X162331613Y-97961595D01*
X162197038Y-98072038D01*
X162086595Y-98206613D01*
X162004528Y-98360149D01*
X161953992Y-98526745D01*
X161936928Y-98699999D01*
X158109400Y-98699999D01*
X158071511Y-98575099D01*
X157956833Y-98360551D01*
X157802502Y-98172498D01*
X157653238Y-98050000D01*
X157802502Y-97927502D01*
X157956833Y-97739449D01*
X158071511Y-97524901D01*
X158142130Y-97292102D01*
X158165975Y-97050000D01*
X158142130Y-96807898D01*
X158119226Y-96732391D01*
X161981538Y-96732391D01*
X162106269Y-96923000D01*
X163323000Y-96923000D01*
X163323000Y-95815000D01*
X163577000Y-95815000D01*
X163577000Y-96923000D01*
X164793731Y-96923000D01*
X164918462Y-96732391D01*
X164914591Y-96694718D01*
X164822421Y-96469467D01*
X164688078Y-96266526D01*
X164516725Y-96093693D01*
X164314946Y-95957610D01*
X164090496Y-95863507D01*
X163852000Y-95815000D01*
X163577000Y-95815000D01*
X163323000Y-95815000D01*
X163048000Y-95815000D01*
X162809504Y-95863507D01*
X162585054Y-95957610D01*
X162383275Y-96093693D01*
X162211922Y-96266526D01*
X162077579Y-96469467D01*
X161985409Y-96694718D01*
X161981538Y-96732391D01*
X158119226Y-96732391D01*
X158071511Y-96575099D01*
X157956833Y-96360551D01*
X157802502Y-96172498D01*
X157614449Y-96018167D01*
X157399901Y-95903489D01*
X157167102Y-95832870D01*
X156985665Y-95815000D01*
X156314335Y-95815000D01*
X156132898Y-95832870D01*
X155900099Y-95903489D01*
X155685551Y-96018167D01*
X155497498Y-96172498D01*
X155343167Y-96360551D01*
X155228489Y-96575099D01*
X155157870Y-96807898D01*
X155134025Y-97050000D01*
X153139111Y-97050000D01*
X153142987Y-90664335D01*
X156415000Y-90664335D01*
X156415000Y-91335664D01*
X156432870Y-91517101D01*
X156503489Y-91749900D01*
X156618167Y-91964448D01*
X156772498Y-92152502D01*
X156960551Y-92306833D01*
X157175099Y-92421511D01*
X157407898Y-92492130D01*
X157650000Y-92515975D01*
X157892101Y-92492130D01*
X158124900Y-92421511D01*
X158339448Y-92306833D01*
X158527502Y-92152502D01*
X158650000Y-92003237D01*
X158772498Y-92152502D01*
X158960551Y-92306833D01*
X159175099Y-92421511D01*
X159407898Y-92492130D01*
X159650000Y-92515975D01*
X159892101Y-92492130D01*
X160124900Y-92421511D01*
X160339448Y-92306833D01*
X160527502Y-92152502D01*
X160650000Y-92003237D01*
X160772498Y-92152502D01*
X160960551Y-92306833D01*
X161175099Y-92421511D01*
X161407898Y-92492130D01*
X161650000Y-92515975D01*
X161892101Y-92492130D01*
X162124900Y-92421511D01*
X162339448Y-92306833D01*
X162493309Y-92180564D01*
X162519463Y-92229494D01*
X162598815Y-92326185D01*
X162695506Y-92405537D01*
X162805820Y-92464502D01*
X162925518Y-92500812D01*
X163050000Y-92513072D01*
X163364250Y-92510000D01*
X163523000Y-92351250D01*
X163523000Y-91127000D01*
X163777000Y-91127000D01*
X163777000Y-92351250D01*
X163935750Y-92510000D01*
X164250000Y-92513072D01*
X164374482Y-92500812D01*
X164494180Y-92464502D01*
X164604494Y-92405537D01*
X164701185Y-92326185D01*
X164780537Y-92229494D01*
X164839502Y-92119180D01*
X164875812Y-91999482D01*
X164888072Y-91875000D01*
X164885000Y-91285750D01*
X164726250Y-91127000D01*
X163777000Y-91127000D01*
X163523000Y-91127000D01*
X163503000Y-91127000D01*
X163503000Y-90873000D01*
X163523000Y-90873000D01*
X163523000Y-89648750D01*
X163777000Y-89648750D01*
X163777000Y-90873000D01*
X164726250Y-90873000D01*
X164885000Y-90714250D01*
X164888072Y-90125000D01*
X164875812Y-90000518D01*
X164839502Y-89880820D01*
X164780537Y-89770506D01*
X164701185Y-89673815D01*
X164604494Y-89594463D01*
X164494180Y-89535498D01*
X164374482Y-89499188D01*
X164250000Y-89486928D01*
X163935750Y-89490000D01*
X163777000Y-89648750D01*
X163523000Y-89648750D01*
X163364250Y-89490000D01*
X163050000Y-89486928D01*
X162925518Y-89499188D01*
X162805820Y-89535498D01*
X162695506Y-89594463D01*
X162598815Y-89673815D01*
X162519463Y-89770506D01*
X162493309Y-89819436D01*
X162339449Y-89693167D01*
X162124901Y-89578489D01*
X161892102Y-89507870D01*
X161650000Y-89484025D01*
X161407899Y-89507870D01*
X161175100Y-89578489D01*
X160960552Y-89693167D01*
X160772499Y-89847498D01*
X160650001Y-89996763D01*
X160527502Y-89847498D01*
X160339449Y-89693167D01*
X160124901Y-89578489D01*
X159892102Y-89507870D01*
X159650000Y-89484025D01*
X159407899Y-89507870D01*
X159175100Y-89578489D01*
X158960552Y-89693167D01*
X158772499Y-89847498D01*
X158650001Y-89996763D01*
X158527502Y-89847498D01*
X158339449Y-89693167D01*
X158124901Y-89578489D01*
X157892102Y-89507870D01*
X157650000Y-89484025D01*
X157407899Y-89507870D01*
X157175100Y-89578489D01*
X156960552Y-89693167D01*
X156772499Y-89847498D01*
X156618168Y-90035551D01*
X156503489Y-90250099D01*
X156432870Y-90482898D01*
X156415000Y-90664335D01*
X153142987Y-90664335D01*
X153145135Y-87127000D01*
X178891212Y-87127000D01*
X178891212Y-126340000D01*
G37*
X178891212Y-126340000D02*
X143144010Y-126340000D01*
X143131071Y-119235000D01*
X165939335Y-119235000D01*
X166000000Y-119240975D01*
X166060665Y-119235000D01*
X166242102Y-119217130D01*
X166474901Y-119146511D01*
X166689449Y-119031833D01*
X166877502Y-118877502D01*
X166916178Y-118830375D01*
X170830381Y-114916173D01*
X170877502Y-114877502D01*
X171031833Y-114689449D01*
X171146511Y-114474901D01*
X171217130Y-114242102D01*
X171235000Y-114060665D01*
X171235000Y-114060664D01*
X171240975Y-114000001D01*
X171235000Y-113939338D01*
X171235000Y-103939335D01*
X171217130Y-103757898D01*
X171146511Y-103525099D01*
X171031833Y-103310551D01*
X170877502Y-103122498D01*
X170689449Y-102968167D01*
X170474901Y-102853489D01*
X170242102Y-102782870D01*
X170000000Y-102759025D01*
X169757899Y-102782870D01*
X169525100Y-102853489D01*
X169310552Y-102968167D01*
X169122499Y-103122498D01*
X168968168Y-103310551D01*
X168853490Y-103525099D01*
X168782871Y-103757898D01*
X168765001Y-103939335D01*
X168765000Y-113488446D01*
X165488447Y-116765000D01*
X153127143Y-116765000D01*
X153139111Y-97050000D01*
X155134025Y-97050000D01*
X155157870Y-97292102D01*
X155228489Y-97524901D01*
X155343167Y-97739449D01*
X155497498Y-97927502D01*
X155646762Y-98050000D01*
X155497498Y-98172498D01*
X155343167Y-98360551D01*
X155228489Y-98575099D01*
X155157870Y-98807898D01*
X155134025Y-99050000D01*
X155157870Y-99292102D01*
X155228489Y-99524901D01*
X155343167Y-99739449D01*
X155497498Y-99927502D01*
X155536111Y-99959191D01*
X155531613Y-99961595D01*
X155397038Y-100072038D01*
X155286595Y-100206613D01*
X155204528Y-100360149D01*
X155153992Y-100526745D01*
X155136928Y-100699999D01*
X155136928Y-101400001D01*
X155153992Y-101573255D01*
X155204528Y-101739851D01*
X155286595Y-101893387D01*
X155397038Y-102027962D01*
X155531613Y-102138405D01*
X155685149Y-102220472D01*
X155851745Y-102271008D01*
X156024999Y-102288072D01*
X157275001Y-102288072D01*
X157448255Y-102271008D01*
X157614851Y-102220472D01*
X157768387Y-102138405D01*
X157902962Y-102027962D01*
X158013405Y-101893387D01*
X158095472Y-101739851D01*
X158146008Y-101573255D01*
X158163072Y-101400001D01*
X158163072Y-100699999D01*
X158146008Y-100526745D01*
X158095472Y-100360149D01*
X158013405Y-100206613D01*
X157902962Y-100072038D01*
X157768387Y-99961595D01*
X157763889Y-99959191D01*
X157802502Y-99927502D01*
X157956833Y-99739449D01*
X158071511Y-99524901D01*
X158142130Y-99292102D01*
X158165975Y-99050000D01*
X158142130Y-98807898D01*
X158109400Y-98699999D01*
X161936928Y-98699999D01*
X161936928Y-99400001D01*
X161953992Y-99573255D01*
X162004528Y-99739851D01*
X162086595Y-99893387D01*
X162197038Y-100027962D01*
X162331613Y-100138405D01*
X162485149Y-100220472D01*
X162651745Y-100271008D01*
X162824999Y-100288072D01*
X164075001Y-100288072D01*
X164248255Y-100271008D01*
X164414851Y-100220472D01*
X164568387Y-100138405D01*
X164702962Y-100027962D01*
X164813405Y-99893387D01*
X164895472Y-99739851D01*
X164946008Y-99573255D01*
X164963072Y-99400001D01*
X164963072Y-98699999D01*
X164946008Y-98526745D01*
X164895472Y-98360149D01*
X164813405Y-98206613D01*
X164702962Y-98072038D01*
X164568387Y-97961595D01*
X164563594Y-97959033D01*
X164688078Y-97833474D01*
X164822421Y-97630533D01*
X164914591Y-97405282D01*
X164918462Y-97367609D01*
X164793731Y-97177000D01*
X163577000Y-97177000D01*
X163577000Y-97197000D01*
X163323000Y-97197000D01*
X163323000Y-97177000D01*
X162106269Y-97177000D01*
X161981538Y-97367609D01*
X161985409Y-97405282D01*
X162077579Y-97630533D01*
X162211922Y-97833474D01*
X162336406Y-97959033D01*
X162331613Y-97961595D01*
X162197038Y-98072038D01*
X162086595Y-98206613D01*
X162004528Y-98360149D01*
X161953992Y-98526745D01*
X161936928Y-98699999D01*
X158109400Y-98699999D01*
X158071511Y-98575099D01*
X157956833Y-98360551D01*
X157802502Y-98172498D01*
X157653238Y-98050000D01*
X157802502Y-97927502D01*
X157956833Y-97739449D01*
X158071511Y-97524901D01*
X158142130Y-97292102D01*
X158165975Y-97050000D01*
X158142130Y-96807898D01*
X158119226Y-96732391D01*
X161981538Y-96732391D01*
X162106269Y-96923000D01*
X163323000Y-96923000D01*
X163323000Y-95815000D01*
X163577000Y-95815000D01*
X163577000Y-96923000D01*
X164793731Y-96923000D01*
X164918462Y-96732391D01*
X164914591Y-96694718D01*
X164822421Y-96469467D01*
X164688078Y-96266526D01*
X164516725Y-96093693D01*
X164314946Y-95957610D01*
X164090496Y-95863507D01*
X163852000Y-95815000D01*
X163577000Y-95815000D01*
X163323000Y-95815000D01*
X163048000Y-95815000D01*
X162809504Y-95863507D01*
X162585054Y-95957610D01*
X162383275Y-96093693D01*
X162211922Y-96266526D01*
X162077579Y-96469467D01*
X161985409Y-96694718D01*
X161981538Y-96732391D01*
X158119226Y-96732391D01*
X158071511Y-96575099D01*
X157956833Y-96360551D01*
X157802502Y-96172498D01*
X157614449Y-96018167D01*
X157399901Y-95903489D01*
X157167102Y-95832870D01*
X156985665Y-95815000D01*
X156314335Y-95815000D01*
X156132898Y-95832870D01*
X155900099Y-95903489D01*
X155685551Y-96018167D01*
X155497498Y-96172498D01*
X155343167Y-96360551D01*
X155228489Y-96575099D01*
X155157870Y-96807898D01*
X155134025Y-97050000D01*
X153139111Y-97050000D01*
X153142987Y-90664335D01*
X156415000Y-90664335D01*
X156415000Y-91335664D01*
X156432870Y-91517101D01*
X156503489Y-91749900D01*
X156618167Y-91964448D01*
X156772498Y-92152502D01*
X156960551Y-92306833D01*
X157175099Y-92421511D01*
X157407898Y-92492130D01*
X157650000Y-92515975D01*
X157892101Y-92492130D01*
X158124900Y-92421511D01*
X158339448Y-92306833D01*
X158527502Y-92152502D01*
X158650000Y-92003237D01*
X158772498Y-92152502D01*
X158960551Y-92306833D01*
X159175099Y-92421511D01*
X159407898Y-92492130D01*
X159650000Y-92515975D01*
X159892101Y-92492130D01*
X160124900Y-92421511D01*
X160339448Y-92306833D01*
X160527502Y-92152502D01*
X160650000Y-92003237D01*
X160772498Y-92152502D01*
X160960551Y-92306833D01*
X161175099Y-92421511D01*
X161407898Y-92492130D01*
X161650000Y-92515975D01*
X161892101Y-92492130D01*
X162124900Y-92421511D01*
X162339448Y-92306833D01*
X162493309Y-92180564D01*
X162519463Y-92229494D01*
X162598815Y-92326185D01*
X162695506Y-92405537D01*
X162805820Y-92464502D01*
X162925518Y-92500812D01*
X163050000Y-92513072D01*
X163364250Y-92510000D01*
X163523000Y-92351250D01*
X163523000Y-91127000D01*
X163777000Y-91127000D01*
X163777000Y-92351250D01*
X163935750Y-92510000D01*
X164250000Y-92513072D01*
X164374482Y-92500812D01*
X164494180Y-92464502D01*
X164604494Y-92405537D01*
X164701185Y-92326185D01*
X164780537Y-92229494D01*
X164839502Y-92119180D01*
X164875812Y-91999482D01*
X164888072Y-91875000D01*
X164885000Y-91285750D01*
X164726250Y-91127000D01*
X163777000Y-91127000D01*
X163523000Y-91127000D01*
X163503000Y-91127000D01*
X163503000Y-90873000D01*
X163523000Y-90873000D01*
X163523000Y-89648750D01*
X163777000Y-89648750D01*
X163777000Y-90873000D01*
X164726250Y-90873000D01*
X164885000Y-90714250D01*
X164888072Y-90125000D01*
X164875812Y-90000518D01*
X164839502Y-89880820D01*
X164780537Y-89770506D01*
X164701185Y-89673815D01*
X164604494Y-89594463D01*
X164494180Y-89535498D01*
X164374482Y-89499188D01*
X164250000Y-89486928D01*
X163935750Y-89490000D01*
X163777000Y-89648750D01*
X163523000Y-89648750D01*
X163364250Y-89490000D01*
X163050000Y-89486928D01*
X162925518Y-89499188D01*
X162805820Y-89535498D01*
X162695506Y-89594463D01*
X162598815Y-89673815D01*
X162519463Y-89770506D01*
X162493309Y-89819436D01*
X162339449Y-89693167D01*
X162124901Y-89578489D01*
X161892102Y-89507870D01*
X161650000Y-89484025D01*
X161407899Y-89507870D01*
X161175100Y-89578489D01*
X160960552Y-89693167D01*
X160772499Y-89847498D01*
X160650001Y-89996763D01*
X160527502Y-89847498D01*
X160339449Y-89693167D01*
X160124901Y-89578489D01*
X159892102Y-89507870D01*
X159650000Y-89484025D01*
X159407899Y-89507870D01*
X159175100Y-89578489D01*
X158960552Y-89693167D01*
X158772499Y-89847498D01*
X158650001Y-89996763D01*
X158527502Y-89847498D01*
X158339449Y-89693167D01*
X158124901Y-89578489D01*
X157892102Y-89507870D01*
X157650000Y-89484025D01*
X157407899Y-89507870D01*
X157175100Y-89578489D01*
X156960552Y-89693167D01*
X156772499Y-89847498D01*
X156618168Y-90035551D01*
X156503489Y-90250099D01*
X156432870Y-90482898D01*
X156415000Y-90664335D01*
X153142987Y-90664335D01*
X153145135Y-87127000D01*
X178891212Y-87127000D01*
X178891212Y-126340000D01*
M02*
