G04 #@! TF.GenerationSoftware,KiCad,Pcbnew,5.1.5-52549c5~84~ubuntu18.04.1*
G04 #@! TF.CreationDate,2020-02-07T14:07:18-05:00*
G04 #@! TF.ProjectId,pedal-board-2020,70656461-6c2d-4626-9f61-72642d323032,rev?*
G04 #@! TF.SameCoordinates,Original*
G04 #@! TF.FileFunction,Soldermask,Top*
G04 #@! TF.FilePolarity,Negative*
%FSLAX46Y46*%
G04 Gerber Fmt 4.6, Leading zero omitted, Abs format (unit mm)*
G04 Created by KiCad (PCBNEW 5.1.5-52549c5~84~ubuntu18.04.1) date 2020-02-07 14:07:18*
%MOMM*%
%LPD*%
G04 APERTURE LIST*
%ADD10C,0.100000*%
G04 APERTURE END LIST*
D10*
G36*
X98691000Y-111391000D02*
G01*
X96889000Y-111391000D01*
X96889000Y-109589000D01*
X98691000Y-109589000D01*
X98691000Y-111391000D01*
G37*
G36*
X100443512Y-109593927D02*
G01*
X100592812Y-109623624D01*
X100756784Y-109691544D01*
X100904354Y-109790147D01*
X101029853Y-109915646D01*
X101128456Y-110063216D01*
X101196376Y-110227188D01*
X101231000Y-110401259D01*
X101231000Y-110578741D01*
X101196376Y-110752812D01*
X101128456Y-110916784D01*
X101029853Y-111064354D01*
X100904354Y-111189853D01*
X100756784Y-111288456D01*
X100592812Y-111356376D01*
X100443512Y-111386073D01*
X100418742Y-111391000D01*
X100241258Y-111391000D01*
X100216488Y-111386073D01*
X100067188Y-111356376D01*
X99903216Y-111288456D01*
X99755646Y-111189853D01*
X99630147Y-111064354D01*
X99531544Y-110916784D01*
X99463624Y-110752812D01*
X99429000Y-110578741D01*
X99429000Y-110401259D01*
X99463624Y-110227188D01*
X99531544Y-110063216D01*
X99630147Y-109915646D01*
X99755646Y-109790147D01*
X99903216Y-109691544D01*
X100067188Y-109623624D01*
X100216488Y-109593927D01*
X100241258Y-109589000D01*
X100418742Y-109589000D01*
X100443512Y-109593927D01*
G37*
G36*
X102983512Y-109593927D02*
G01*
X103132812Y-109623624D01*
X103296784Y-109691544D01*
X103444354Y-109790147D01*
X103569853Y-109915646D01*
X103668456Y-110063216D01*
X103736376Y-110227188D01*
X103771000Y-110401259D01*
X103771000Y-110578741D01*
X103736376Y-110752812D01*
X103668456Y-110916784D01*
X103569853Y-111064354D01*
X103444354Y-111189853D01*
X103296784Y-111288456D01*
X103132812Y-111356376D01*
X102983512Y-111386073D01*
X102958742Y-111391000D01*
X102781258Y-111391000D01*
X102756488Y-111386073D01*
X102607188Y-111356376D01*
X102443216Y-111288456D01*
X102295646Y-111189853D01*
X102170147Y-111064354D01*
X102071544Y-110916784D01*
X102003624Y-110752812D01*
X101969000Y-110578741D01*
X101969000Y-110401259D01*
X102003624Y-110227188D01*
X102071544Y-110063216D01*
X102170147Y-109915646D01*
X102295646Y-109790147D01*
X102443216Y-109691544D01*
X102607188Y-109623624D01*
X102756488Y-109593927D01*
X102781258Y-109589000D01*
X102958742Y-109589000D01*
X102983512Y-109593927D01*
G37*
G36*
X97903512Y-107053927D02*
G01*
X98052812Y-107083624D01*
X98216784Y-107151544D01*
X98364354Y-107250147D01*
X98489853Y-107375646D01*
X98588456Y-107523216D01*
X98656376Y-107687188D01*
X98691000Y-107861259D01*
X98691000Y-108038741D01*
X98656376Y-108212812D01*
X98588456Y-108376784D01*
X98489853Y-108524354D01*
X98364354Y-108649853D01*
X98216784Y-108748456D01*
X98052812Y-108816376D01*
X97903512Y-108846073D01*
X97878742Y-108851000D01*
X97701258Y-108851000D01*
X97676488Y-108846073D01*
X97527188Y-108816376D01*
X97363216Y-108748456D01*
X97215646Y-108649853D01*
X97090147Y-108524354D01*
X96991544Y-108376784D01*
X96923624Y-108212812D01*
X96889000Y-108038741D01*
X96889000Y-107861259D01*
X96923624Y-107687188D01*
X96991544Y-107523216D01*
X97090147Y-107375646D01*
X97215646Y-107250147D01*
X97363216Y-107151544D01*
X97527188Y-107083624D01*
X97676488Y-107053927D01*
X97701258Y-107049000D01*
X97878742Y-107049000D01*
X97903512Y-107053927D01*
G37*
G36*
X100443512Y-107053927D02*
G01*
X100592812Y-107083624D01*
X100756784Y-107151544D01*
X100904354Y-107250147D01*
X101029853Y-107375646D01*
X101128456Y-107523216D01*
X101196376Y-107687188D01*
X101231000Y-107861259D01*
X101231000Y-108038741D01*
X101196376Y-108212812D01*
X101128456Y-108376784D01*
X101029853Y-108524354D01*
X100904354Y-108649853D01*
X100756784Y-108748456D01*
X100592812Y-108816376D01*
X100443512Y-108846073D01*
X100418742Y-108851000D01*
X100241258Y-108851000D01*
X100216488Y-108846073D01*
X100067188Y-108816376D01*
X99903216Y-108748456D01*
X99755646Y-108649853D01*
X99630147Y-108524354D01*
X99531544Y-108376784D01*
X99463624Y-108212812D01*
X99429000Y-108038741D01*
X99429000Y-107861259D01*
X99463624Y-107687188D01*
X99531544Y-107523216D01*
X99630147Y-107375646D01*
X99755646Y-107250147D01*
X99903216Y-107151544D01*
X100067188Y-107083624D01*
X100216488Y-107053927D01*
X100241258Y-107049000D01*
X100418742Y-107049000D01*
X100443512Y-107053927D01*
G37*
G36*
X102983512Y-107053927D02*
G01*
X103132812Y-107083624D01*
X103296784Y-107151544D01*
X103444354Y-107250147D01*
X103569853Y-107375646D01*
X103668456Y-107523216D01*
X103736376Y-107687188D01*
X103771000Y-107861259D01*
X103771000Y-108038741D01*
X103736376Y-108212812D01*
X103668456Y-108376784D01*
X103569853Y-108524354D01*
X103444354Y-108649853D01*
X103296784Y-108748456D01*
X103132812Y-108816376D01*
X102983512Y-108846073D01*
X102958742Y-108851000D01*
X102781258Y-108851000D01*
X102756488Y-108846073D01*
X102607188Y-108816376D01*
X102443216Y-108748456D01*
X102295646Y-108649853D01*
X102170147Y-108524354D01*
X102071544Y-108376784D01*
X102003624Y-108212812D01*
X101969000Y-108038741D01*
X101969000Y-107861259D01*
X102003624Y-107687188D01*
X102071544Y-107523216D01*
X102170147Y-107375646D01*
X102295646Y-107250147D01*
X102443216Y-107151544D01*
X102607188Y-107083624D01*
X102756488Y-107053927D01*
X102781258Y-107049000D01*
X102958742Y-107049000D01*
X102983512Y-107053927D01*
G37*
G36*
X106558928Y-105337764D02*
G01*
X106580009Y-105344160D01*
X106599445Y-105354548D01*
X106616476Y-105368524D01*
X106630452Y-105385555D01*
X106640840Y-105404991D01*
X106647236Y-105426072D01*
X106650000Y-105454140D01*
X106650000Y-107267860D01*
X106647236Y-107295928D01*
X106640840Y-107317009D01*
X106630452Y-107336445D01*
X106616476Y-107353476D01*
X106599445Y-107367452D01*
X106580009Y-107377840D01*
X106558928Y-107384236D01*
X106530860Y-107387000D01*
X106067140Y-107387000D01*
X106039072Y-107384236D01*
X106017991Y-107377840D01*
X105998555Y-107367452D01*
X105981524Y-107353476D01*
X105967548Y-107336445D01*
X105957160Y-107317009D01*
X105950764Y-107295928D01*
X105948000Y-107267860D01*
X105948000Y-105454140D01*
X105950764Y-105426072D01*
X105957160Y-105404991D01*
X105967548Y-105385555D01*
X105981524Y-105368524D01*
X105998555Y-105354548D01*
X106017991Y-105344160D01*
X106039072Y-105337764D01*
X106067140Y-105335000D01*
X106530860Y-105335000D01*
X106558928Y-105337764D01*
G37*
G36*
X107828928Y-105337764D02*
G01*
X107850009Y-105344160D01*
X107869445Y-105354548D01*
X107886476Y-105368524D01*
X107900452Y-105385555D01*
X107910840Y-105404991D01*
X107917236Y-105426072D01*
X107920000Y-105454140D01*
X107920000Y-107267860D01*
X107917236Y-107295928D01*
X107910840Y-107317009D01*
X107900452Y-107336445D01*
X107886476Y-107353476D01*
X107869445Y-107367452D01*
X107850009Y-107377840D01*
X107828928Y-107384236D01*
X107800860Y-107387000D01*
X107337140Y-107387000D01*
X107309072Y-107384236D01*
X107287991Y-107377840D01*
X107268555Y-107367452D01*
X107251524Y-107353476D01*
X107237548Y-107336445D01*
X107227160Y-107317009D01*
X107220764Y-107295928D01*
X107218000Y-107267860D01*
X107218000Y-105454140D01*
X107220764Y-105426072D01*
X107227160Y-105404991D01*
X107237548Y-105385555D01*
X107251524Y-105368524D01*
X107268555Y-105354548D01*
X107287991Y-105344160D01*
X107309072Y-105337764D01*
X107337140Y-105335000D01*
X107800860Y-105335000D01*
X107828928Y-105337764D01*
G37*
G36*
X109098928Y-105337764D02*
G01*
X109120009Y-105344160D01*
X109139445Y-105354548D01*
X109156476Y-105368524D01*
X109170452Y-105385555D01*
X109180840Y-105404991D01*
X109187236Y-105426072D01*
X109190000Y-105454140D01*
X109190000Y-107267860D01*
X109187236Y-107295928D01*
X109180840Y-107317009D01*
X109170452Y-107336445D01*
X109156476Y-107353476D01*
X109139445Y-107367452D01*
X109120009Y-107377840D01*
X109098928Y-107384236D01*
X109070860Y-107387000D01*
X108607140Y-107387000D01*
X108579072Y-107384236D01*
X108557991Y-107377840D01*
X108538555Y-107367452D01*
X108521524Y-107353476D01*
X108507548Y-107336445D01*
X108497160Y-107317009D01*
X108490764Y-107295928D01*
X108488000Y-107267860D01*
X108488000Y-105454140D01*
X108490764Y-105426072D01*
X108497160Y-105404991D01*
X108507548Y-105385555D01*
X108521524Y-105368524D01*
X108538555Y-105354548D01*
X108557991Y-105344160D01*
X108579072Y-105337764D01*
X108607140Y-105335000D01*
X109070860Y-105335000D01*
X109098928Y-105337764D01*
G37*
G36*
X110368928Y-105337764D02*
G01*
X110390009Y-105344160D01*
X110409445Y-105354548D01*
X110426476Y-105368524D01*
X110440452Y-105385555D01*
X110450840Y-105404991D01*
X110457236Y-105426072D01*
X110460000Y-105454140D01*
X110460000Y-107267860D01*
X110457236Y-107295928D01*
X110450840Y-107317009D01*
X110440452Y-107336445D01*
X110426476Y-107353476D01*
X110409445Y-107367452D01*
X110390009Y-107377840D01*
X110368928Y-107384236D01*
X110340860Y-107387000D01*
X109877140Y-107387000D01*
X109849072Y-107384236D01*
X109827991Y-107377840D01*
X109808555Y-107367452D01*
X109791524Y-107353476D01*
X109777548Y-107336445D01*
X109767160Y-107317009D01*
X109760764Y-107295928D01*
X109758000Y-107267860D01*
X109758000Y-105454140D01*
X109760764Y-105426072D01*
X109767160Y-105404991D01*
X109777548Y-105385555D01*
X109791524Y-105368524D01*
X109808555Y-105354548D01*
X109827991Y-105344160D01*
X109849072Y-105337764D01*
X109877140Y-105335000D01*
X110340860Y-105335000D01*
X110368928Y-105337764D01*
G37*
G36*
X98864499Y-104153445D02*
G01*
X98901995Y-104164820D01*
X98936554Y-104183292D01*
X98966847Y-104208153D01*
X98991708Y-104238446D01*
X99010180Y-104273005D01*
X99021555Y-104310501D01*
X99026000Y-104355638D01*
X99026000Y-105094362D01*
X99021555Y-105139499D01*
X99010180Y-105176995D01*
X98991708Y-105211554D01*
X98966847Y-105241847D01*
X98936554Y-105266708D01*
X98901995Y-105285180D01*
X98864499Y-105296555D01*
X98819362Y-105301000D01*
X98180638Y-105301000D01*
X98135501Y-105296555D01*
X98098005Y-105285180D01*
X98063446Y-105266708D01*
X98033153Y-105241847D01*
X98008292Y-105211554D01*
X97989820Y-105176995D01*
X97978445Y-105139499D01*
X97974000Y-105094362D01*
X97974000Y-104355638D01*
X97978445Y-104310501D01*
X97989820Y-104273005D01*
X98008292Y-104238446D01*
X98033153Y-104208153D01*
X98063446Y-104183292D01*
X98098005Y-104164820D01*
X98135501Y-104153445D01*
X98180638Y-104149000D01*
X98819362Y-104149000D01*
X98864499Y-104153445D01*
G37*
G36*
X98864499Y-102403445D02*
G01*
X98901995Y-102414820D01*
X98936554Y-102433292D01*
X98966847Y-102458153D01*
X98991708Y-102488446D01*
X99010180Y-102523005D01*
X99021555Y-102560501D01*
X99026000Y-102605638D01*
X99026000Y-103344362D01*
X99021555Y-103389499D01*
X99010180Y-103426995D01*
X98991708Y-103461554D01*
X98966847Y-103491847D01*
X98936554Y-103516708D01*
X98901995Y-103535180D01*
X98864499Y-103546555D01*
X98819362Y-103551000D01*
X98180638Y-103551000D01*
X98135501Y-103546555D01*
X98098005Y-103535180D01*
X98063446Y-103516708D01*
X98033153Y-103491847D01*
X98008292Y-103461554D01*
X97989820Y-103426995D01*
X97978445Y-103389499D01*
X97974000Y-103344362D01*
X97974000Y-102605638D01*
X97978445Y-102560501D01*
X97989820Y-102523005D01*
X98008292Y-102488446D01*
X98033153Y-102458153D01*
X98063446Y-102433292D01*
X98098005Y-102414820D01*
X98135501Y-102403445D01*
X98180638Y-102399000D01*
X98819362Y-102399000D01*
X98864499Y-102403445D01*
G37*
G36*
X101413000Y-102489000D02*
G01*
X100911000Y-102489000D01*
X100911000Y-99187000D01*
X101413000Y-99187000D01*
X101413000Y-102489000D01*
G37*
G36*
X102613000Y-102489000D02*
G01*
X102111000Y-102489000D01*
X102111000Y-99187000D01*
X102613000Y-99187000D01*
X102613000Y-102489000D01*
G37*
G36*
X103813000Y-102489000D02*
G01*
X103311000Y-102489000D01*
X103311000Y-99187000D01*
X103813000Y-99187000D01*
X103813000Y-102489000D01*
G37*
G36*
X106558928Y-100387764D02*
G01*
X106580009Y-100394160D01*
X106599445Y-100404548D01*
X106616476Y-100418524D01*
X106630452Y-100435555D01*
X106640840Y-100454991D01*
X106647236Y-100476072D01*
X106650000Y-100504140D01*
X106650000Y-102317860D01*
X106647236Y-102345928D01*
X106640840Y-102367009D01*
X106630452Y-102386445D01*
X106616476Y-102403476D01*
X106599445Y-102417452D01*
X106580009Y-102427840D01*
X106558928Y-102434236D01*
X106530860Y-102437000D01*
X106067140Y-102437000D01*
X106039072Y-102434236D01*
X106017991Y-102427840D01*
X105998555Y-102417452D01*
X105981524Y-102403476D01*
X105967548Y-102386445D01*
X105957160Y-102367009D01*
X105950764Y-102345928D01*
X105948000Y-102317860D01*
X105948000Y-100504140D01*
X105950764Y-100476072D01*
X105957160Y-100454991D01*
X105967548Y-100435555D01*
X105981524Y-100418524D01*
X105998555Y-100404548D01*
X106017991Y-100394160D01*
X106039072Y-100387764D01*
X106067140Y-100385000D01*
X106530860Y-100385000D01*
X106558928Y-100387764D01*
G37*
G36*
X107828928Y-100387764D02*
G01*
X107850009Y-100394160D01*
X107869445Y-100404548D01*
X107886476Y-100418524D01*
X107900452Y-100435555D01*
X107910840Y-100454991D01*
X107917236Y-100476072D01*
X107920000Y-100504140D01*
X107920000Y-102317860D01*
X107917236Y-102345928D01*
X107910840Y-102367009D01*
X107900452Y-102386445D01*
X107886476Y-102403476D01*
X107869445Y-102417452D01*
X107850009Y-102427840D01*
X107828928Y-102434236D01*
X107800860Y-102437000D01*
X107337140Y-102437000D01*
X107309072Y-102434236D01*
X107287991Y-102427840D01*
X107268555Y-102417452D01*
X107251524Y-102403476D01*
X107237548Y-102386445D01*
X107227160Y-102367009D01*
X107220764Y-102345928D01*
X107218000Y-102317860D01*
X107218000Y-100504140D01*
X107220764Y-100476072D01*
X107227160Y-100454991D01*
X107237548Y-100435555D01*
X107251524Y-100418524D01*
X107268555Y-100404548D01*
X107287991Y-100394160D01*
X107309072Y-100387764D01*
X107337140Y-100385000D01*
X107800860Y-100385000D01*
X107828928Y-100387764D01*
G37*
G36*
X109098928Y-100387764D02*
G01*
X109120009Y-100394160D01*
X109139445Y-100404548D01*
X109156476Y-100418524D01*
X109170452Y-100435555D01*
X109180840Y-100454991D01*
X109187236Y-100476072D01*
X109190000Y-100504140D01*
X109190000Y-102317860D01*
X109187236Y-102345928D01*
X109180840Y-102367009D01*
X109170452Y-102386445D01*
X109156476Y-102403476D01*
X109139445Y-102417452D01*
X109120009Y-102427840D01*
X109098928Y-102434236D01*
X109070860Y-102437000D01*
X108607140Y-102437000D01*
X108579072Y-102434236D01*
X108557991Y-102427840D01*
X108538555Y-102417452D01*
X108521524Y-102403476D01*
X108507548Y-102386445D01*
X108497160Y-102367009D01*
X108490764Y-102345928D01*
X108488000Y-102317860D01*
X108488000Y-100504140D01*
X108490764Y-100476072D01*
X108497160Y-100454991D01*
X108507548Y-100435555D01*
X108521524Y-100418524D01*
X108538555Y-100404548D01*
X108557991Y-100394160D01*
X108579072Y-100387764D01*
X108607140Y-100385000D01*
X109070860Y-100385000D01*
X109098928Y-100387764D01*
G37*
G36*
X110368928Y-100387764D02*
G01*
X110390009Y-100394160D01*
X110409445Y-100404548D01*
X110426476Y-100418524D01*
X110440452Y-100435555D01*
X110450840Y-100454991D01*
X110457236Y-100476072D01*
X110460000Y-100504140D01*
X110460000Y-102317860D01*
X110457236Y-102345928D01*
X110450840Y-102367009D01*
X110440452Y-102386445D01*
X110426476Y-102403476D01*
X110409445Y-102417452D01*
X110390009Y-102427840D01*
X110368928Y-102434236D01*
X110340860Y-102437000D01*
X109877140Y-102437000D01*
X109849072Y-102434236D01*
X109827991Y-102427840D01*
X109808555Y-102417452D01*
X109791524Y-102403476D01*
X109777548Y-102386445D01*
X109767160Y-102367009D01*
X109760764Y-102345928D01*
X109758000Y-102317860D01*
X109758000Y-100504140D01*
X109760764Y-100476072D01*
X109767160Y-100454991D01*
X109777548Y-100435555D01*
X109791524Y-100418524D01*
X109808555Y-100404548D01*
X109827991Y-100394160D01*
X109849072Y-100387764D01*
X109877140Y-100385000D01*
X110340860Y-100385000D01*
X110368928Y-100387764D01*
G37*
G36*
X110536928Y-97187764D02*
G01*
X110558009Y-97194160D01*
X110577445Y-97204548D01*
X110594476Y-97218524D01*
X110608452Y-97235555D01*
X110618840Y-97254991D01*
X110625236Y-97276072D01*
X110628000Y-97304140D01*
X110628000Y-97767860D01*
X110625236Y-97795928D01*
X110618840Y-97817009D01*
X110608452Y-97836445D01*
X110594476Y-97853476D01*
X110577445Y-97867452D01*
X110558009Y-97877840D01*
X110536928Y-97884236D01*
X110508860Y-97887000D01*
X108595140Y-97887000D01*
X108567072Y-97884236D01*
X108545991Y-97877840D01*
X108526555Y-97867452D01*
X108509524Y-97853476D01*
X108495548Y-97836445D01*
X108485160Y-97817009D01*
X108478764Y-97795928D01*
X108476000Y-97767860D01*
X108476000Y-97304140D01*
X108478764Y-97276072D01*
X108485160Y-97254991D01*
X108495548Y-97235555D01*
X108509524Y-97218524D01*
X108526555Y-97204548D01*
X108545991Y-97194160D01*
X108567072Y-97187764D01*
X108595140Y-97185000D01*
X110508860Y-97185000D01*
X110536928Y-97187764D01*
G37*
G36*
X101236928Y-97187764D02*
G01*
X101258009Y-97194160D01*
X101277445Y-97204548D01*
X101294476Y-97218524D01*
X101308452Y-97235555D01*
X101318840Y-97254991D01*
X101325236Y-97276072D01*
X101328000Y-97304140D01*
X101328000Y-97767860D01*
X101325236Y-97795928D01*
X101318840Y-97817009D01*
X101308452Y-97836445D01*
X101294476Y-97853476D01*
X101277445Y-97867452D01*
X101258009Y-97877840D01*
X101236928Y-97884236D01*
X101208860Y-97887000D01*
X99295140Y-97887000D01*
X99267072Y-97884236D01*
X99245991Y-97877840D01*
X99226555Y-97867452D01*
X99209524Y-97853476D01*
X99195548Y-97836445D01*
X99185160Y-97817009D01*
X99178764Y-97795928D01*
X99176000Y-97767860D01*
X99176000Y-97304140D01*
X99178764Y-97276072D01*
X99185160Y-97254991D01*
X99195548Y-97235555D01*
X99209524Y-97218524D01*
X99226555Y-97204548D01*
X99245991Y-97194160D01*
X99267072Y-97187764D01*
X99295140Y-97185000D01*
X101208860Y-97185000D01*
X101236928Y-97187764D01*
G37*
G36*
X88314585Y-94804802D02*
G01*
X88464410Y-94834604D01*
X88746674Y-94951521D01*
X89000705Y-95121259D01*
X89216741Y-95337295D01*
X89386479Y-95591326D01*
X89503396Y-95873590D01*
X89503396Y-95873591D01*
X89563000Y-96173239D01*
X89563000Y-96478761D01*
X89545727Y-96565597D01*
X89503396Y-96778410D01*
X89386479Y-97060674D01*
X89216741Y-97314705D01*
X89000705Y-97530741D01*
X88746674Y-97700479D01*
X88464410Y-97817396D01*
X88372907Y-97835597D01*
X88164761Y-97877000D01*
X87859239Y-97877000D01*
X87651093Y-97835597D01*
X87559590Y-97817396D01*
X87277326Y-97700479D01*
X87023295Y-97530741D01*
X86807259Y-97314705D01*
X86637521Y-97060674D01*
X86520604Y-96778410D01*
X86478273Y-96565597D01*
X86461000Y-96478761D01*
X86461000Y-96173239D01*
X86520604Y-95873591D01*
X86520604Y-95873590D01*
X86637521Y-95591326D01*
X86807259Y-95337295D01*
X87023295Y-95121259D01*
X87277326Y-94951521D01*
X87559590Y-94834604D01*
X87709415Y-94804802D01*
X87859239Y-94775000D01*
X88164761Y-94775000D01*
X88314585Y-94804802D01*
G37*
G36*
X96314585Y-94804802D02*
G01*
X96464410Y-94834604D01*
X96746674Y-94951521D01*
X97000705Y-95121259D01*
X97216741Y-95337295D01*
X97386479Y-95591326D01*
X97503396Y-95873590D01*
X97503396Y-95873591D01*
X97563000Y-96173239D01*
X97563000Y-96478761D01*
X97545727Y-96565597D01*
X97503396Y-96778410D01*
X97386479Y-97060674D01*
X97216741Y-97314705D01*
X97000705Y-97530741D01*
X96746674Y-97700479D01*
X96464410Y-97817396D01*
X96372907Y-97835597D01*
X96164761Y-97877000D01*
X95859239Y-97877000D01*
X95651093Y-97835597D01*
X95559590Y-97817396D01*
X95277326Y-97700479D01*
X95023295Y-97530741D01*
X94807259Y-97314705D01*
X94637521Y-97060674D01*
X94520604Y-96778410D01*
X94478273Y-96565597D01*
X94461000Y-96478761D01*
X94461000Y-96173239D01*
X94520604Y-95873591D01*
X94520604Y-95873590D01*
X94637521Y-95591326D01*
X94807259Y-95337295D01*
X95023295Y-95121259D01*
X95277326Y-94951521D01*
X95559590Y-94834604D01*
X95709415Y-94804802D01*
X95859239Y-94775000D01*
X96164761Y-94775000D01*
X96314585Y-94804802D01*
G37*
G36*
X101236928Y-95917764D02*
G01*
X101258009Y-95924160D01*
X101277445Y-95934548D01*
X101294476Y-95948524D01*
X101308452Y-95965555D01*
X101318840Y-95984991D01*
X101325236Y-96006072D01*
X101328000Y-96034140D01*
X101328000Y-96497860D01*
X101325236Y-96525928D01*
X101318840Y-96547009D01*
X101308452Y-96566445D01*
X101294476Y-96583476D01*
X101277445Y-96597452D01*
X101258009Y-96607840D01*
X101236928Y-96614236D01*
X101208860Y-96617000D01*
X99295140Y-96617000D01*
X99267072Y-96614236D01*
X99245991Y-96607840D01*
X99226555Y-96597452D01*
X99209524Y-96583476D01*
X99195548Y-96566445D01*
X99185160Y-96547009D01*
X99178764Y-96525928D01*
X99176000Y-96497860D01*
X99176000Y-96034140D01*
X99178764Y-96006072D01*
X99185160Y-95984991D01*
X99195548Y-95965555D01*
X99209524Y-95948524D01*
X99226555Y-95934548D01*
X99245991Y-95924160D01*
X99267072Y-95917764D01*
X99295140Y-95915000D01*
X101208860Y-95915000D01*
X101236928Y-95917764D01*
G37*
G36*
X110536928Y-95917764D02*
G01*
X110558009Y-95924160D01*
X110577445Y-95934548D01*
X110594476Y-95948524D01*
X110608452Y-95965555D01*
X110618840Y-95984991D01*
X110625236Y-96006072D01*
X110628000Y-96034140D01*
X110628000Y-96497860D01*
X110625236Y-96525928D01*
X110618840Y-96547009D01*
X110608452Y-96566445D01*
X110594476Y-96583476D01*
X110577445Y-96597452D01*
X110558009Y-96607840D01*
X110536928Y-96614236D01*
X110508860Y-96617000D01*
X108595140Y-96617000D01*
X108567072Y-96614236D01*
X108545991Y-96607840D01*
X108526555Y-96597452D01*
X108509524Y-96583476D01*
X108495548Y-96566445D01*
X108485160Y-96547009D01*
X108478764Y-96525928D01*
X108476000Y-96497860D01*
X108476000Y-96034140D01*
X108478764Y-96006072D01*
X108485160Y-95984991D01*
X108495548Y-95965555D01*
X108509524Y-95948524D01*
X108526555Y-95934548D01*
X108545991Y-95924160D01*
X108567072Y-95917764D01*
X108595140Y-95915000D01*
X110508860Y-95915000D01*
X110536928Y-95917764D01*
G37*
G36*
X92227361Y-92787452D02*
G01*
X92464410Y-92834604D01*
X92746674Y-92951521D01*
X93000705Y-93121259D01*
X93216741Y-93337295D01*
X93386479Y-93591326D01*
X93503396Y-93873590D01*
X93515758Y-93935738D01*
X93537974Y-94047423D01*
X93563000Y-94173240D01*
X93563000Y-94478760D01*
X93503396Y-94778410D01*
X93386479Y-95060674D01*
X93216741Y-95314705D01*
X93000705Y-95530741D01*
X92746674Y-95700479D01*
X92464410Y-95817396D01*
X92314585Y-95847198D01*
X92164761Y-95877000D01*
X91859239Y-95877000D01*
X91709415Y-95847198D01*
X91559590Y-95817396D01*
X91277326Y-95700479D01*
X91023295Y-95530741D01*
X90807259Y-95314705D01*
X90637521Y-95060674D01*
X90520604Y-94778410D01*
X90461000Y-94478760D01*
X90461000Y-94173240D01*
X90486027Y-94047423D01*
X90508242Y-93935738D01*
X90520604Y-93873590D01*
X90637521Y-93591326D01*
X90807259Y-93337295D01*
X91023295Y-93121259D01*
X91277326Y-92951521D01*
X91559590Y-92834604D01*
X91796639Y-92787452D01*
X91859239Y-92775000D01*
X92164761Y-92775000D01*
X92227361Y-92787452D01*
G37*
G36*
X101236928Y-94647764D02*
G01*
X101258009Y-94654160D01*
X101277445Y-94664548D01*
X101294476Y-94678524D01*
X101308452Y-94695555D01*
X101318840Y-94714991D01*
X101325236Y-94736072D01*
X101328000Y-94764140D01*
X101328000Y-95227860D01*
X101325236Y-95255928D01*
X101318840Y-95277009D01*
X101308452Y-95296445D01*
X101294476Y-95313476D01*
X101277445Y-95327452D01*
X101258009Y-95337840D01*
X101236928Y-95344236D01*
X101208860Y-95347000D01*
X99295140Y-95347000D01*
X99267072Y-95344236D01*
X99245991Y-95337840D01*
X99226555Y-95327452D01*
X99209524Y-95313476D01*
X99195548Y-95296445D01*
X99185160Y-95277009D01*
X99178764Y-95255928D01*
X99176000Y-95227860D01*
X99176000Y-94764140D01*
X99178764Y-94736072D01*
X99185160Y-94714991D01*
X99195548Y-94695555D01*
X99209524Y-94678524D01*
X99226555Y-94664548D01*
X99245991Y-94654160D01*
X99267072Y-94647764D01*
X99295140Y-94645000D01*
X101208860Y-94645000D01*
X101236928Y-94647764D01*
G37*
G36*
X110536928Y-94647764D02*
G01*
X110558009Y-94654160D01*
X110577445Y-94664548D01*
X110594476Y-94678524D01*
X110608452Y-94695555D01*
X110618840Y-94714991D01*
X110625236Y-94736072D01*
X110628000Y-94764140D01*
X110628000Y-95227860D01*
X110625236Y-95255928D01*
X110618840Y-95277009D01*
X110608452Y-95296445D01*
X110594476Y-95313476D01*
X110577445Y-95327452D01*
X110558009Y-95337840D01*
X110536928Y-95344236D01*
X110508860Y-95347000D01*
X108595140Y-95347000D01*
X108567072Y-95344236D01*
X108545991Y-95337840D01*
X108526555Y-95327452D01*
X108509524Y-95313476D01*
X108495548Y-95296445D01*
X108485160Y-95277009D01*
X108478764Y-95255928D01*
X108476000Y-95227860D01*
X108476000Y-94764140D01*
X108478764Y-94736072D01*
X108485160Y-94714991D01*
X108495548Y-94695555D01*
X108509524Y-94678524D01*
X108526555Y-94664548D01*
X108545991Y-94654160D01*
X108567072Y-94647764D01*
X108595140Y-94645000D01*
X110508860Y-94645000D01*
X110536928Y-94647764D01*
G37*
G36*
X101236928Y-93377764D02*
G01*
X101258009Y-93384160D01*
X101277445Y-93394548D01*
X101294476Y-93408524D01*
X101308452Y-93425555D01*
X101318840Y-93444991D01*
X101325236Y-93466072D01*
X101328000Y-93494140D01*
X101328000Y-93957860D01*
X101325236Y-93985928D01*
X101318840Y-94007009D01*
X101308452Y-94026445D01*
X101294476Y-94043476D01*
X101277445Y-94057452D01*
X101258009Y-94067840D01*
X101236928Y-94074236D01*
X101208860Y-94077000D01*
X99295140Y-94077000D01*
X99267072Y-94074236D01*
X99245991Y-94067840D01*
X99226555Y-94057452D01*
X99209524Y-94043476D01*
X99195548Y-94026445D01*
X99185160Y-94007009D01*
X99178764Y-93985928D01*
X99176000Y-93957860D01*
X99176000Y-93494140D01*
X99178764Y-93466072D01*
X99185160Y-93444991D01*
X99195548Y-93425555D01*
X99209524Y-93408524D01*
X99226555Y-93394548D01*
X99245991Y-93384160D01*
X99267072Y-93377764D01*
X99295140Y-93375000D01*
X101208860Y-93375000D01*
X101236928Y-93377764D01*
G37*
G36*
X110536928Y-93377764D02*
G01*
X110558009Y-93384160D01*
X110577445Y-93394548D01*
X110594476Y-93408524D01*
X110608452Y-93425555D01*
X110618840Y-93444991D01*
X110625236Y-93466072D01*
X110628000Y-93494140D01*
X110628000Y-93957860D01*
X110625236Y-93985928D01*
X110618840Y-94007009D01*
X110608452Y-94026445D01*
X110594476Y-94043476D01*
X110577445Y-94057452D01*
X110558009Y-94067840D01*
X110536928Y-94074236D01*
X110508860Y-94077000D01*
X108595140Y-94077000D01*
X108567072Y-94074236D01*
X108545991Y-94067840D01*
X108526555Y-94057452D01*
X108509524Y-94043476D01*
X108495548Y-94026445D01*
X108485160Y-94007009D01*
X108478764Y-93985928D01*
X108476000Y-93957860D01*
X108476000Y-93494140D01*
X108478764Y-93466072D01*
X108485160Y-93444991D01*
X108495548Y-93425555D01*
X108509524Y-93408524D01*
X108526555Y-93394548D01*
X108545991Y-93384160D01*
X108567072Y-93377764D01*
X108595140Y-93375000D01*
X110508860Y-93375000D01*
X110536928Y-93377764D01*
G37*
G36*
X96314585Y-90804802D02*
G01*
X96464410Y-90834604D01*
X96746674Y-90951521D01*
X97000705Y-91121259D01*
X97216741Y-91337295D01*
X97386479Y-91591326D01*
X97503396Y-91873590D01*
X97503396Y-91873591D01*
X97555310Y-92134577D01*
X97563000Y-92173240D01*
X97563000Y-92478760D01*
X97503396Y-92778410D01*
X97386479Y-93060674D01*
X97216741Y-93314705D01*
X97000705Y-93530741D01*
X96746674Y-93700479D01*
X96464410Y-93817396D01*
X96314585Y-93847198D01*
X96164761Y-93877000D01*
X95859239Y-93877000D01*
X95709415Y-93847198D01*
X95559590Y-93817396D01*
X95277326Y-93700479D01*
X95023295Y-93530741D01*
X94807259Y-93314705D01*
X94637521Y-93060674D01*
X94520604Y-92778410D01*
X94461000Y-92478760D01*
X94461000Y-92173240D01*
X94468691Y-92134577D01*
X94520604Y-91873591D01*
X94520604Y-91873590D01*
X94637521Y-91591326D01*
X94807259Y-91337295D01*
X95023295Y-91121259D01*
X95277326Y-90951521D01*
X95559590Y-90834604D01*
X95709415Y-90804802D01*
X95859239Y-90775000D01*
X96164761Y-90775000D01*
X96314585Y-90804802D01*
G37*
G36*
X88314585Y-90804802D02*
G01*
X88464410Y-90834604D01*
X88746674Y-90951521D01*
X89000705Y-91121259D01*
X89216741Y-91337295D01*
X89386479Y-91591326D01*
X89503396Y-91873590D01*
X89503396Y-91873591D01*
X89555310Y-92134577D01*
X89563000Y-92173240D01*
X89563000Y-92478760D01*
X89503396Y-92778410D01*
X89386479Y-93060674D01*
X89216741Y-93314705D01*
X89000705Y-93530741D01*
X88746674Y-93700479D01*
X88464410Y-93817396D01*
X88314585Y-93847198D01*
X88164761Y-93877000D01*
X87859239Y-93877000D01*
X87709415Y-93847198D01*
X87559590Y-93817396D01*
X87277326Y-93700479D01*
X87023295Y-93530741D01*
X86807259Y-93314705D01*
X86637521Y-93060674D01*
X86520604Y-92778410D01*
X86461000Y-92478760D01*
X86461000Y-92173240D01*
X86468691Y-92134577D01*
X86520604Y-91873591D01*
X86520604Y-91873590D01*
X86637521Y-91591326D01*
X86807259Y-91337295D01*
X87023295Y-91121259D01*
X87277326Y-90951521D01*
X87559590Y-90834604D01*
X87709415Y-90804802D01*
X87859239Y-90775000D01*
X88164761Y-90775000D01*
X88314585Y-90804802D01*
G37*
G36*
X110536928Y-92107764D02*
G01*
X110558009Y-92114160D01*
X110577445Y-92124548D01*
X110594476Y-92138524D01*
X110608452Y-92155555D01*
X110618840Y-92174991D01*
X110625236Y-92196072D01*
X110628000Y-92224140D01*
X110628000Y-92687860D01*
X110625236Y-92715928D01*
X110618840Y-92737009D01*
X110608452Y-92756445D01*
X110594476Y-92773476D01*
X110577445Y-92787452D01*
X110558009Y-92797840D01*
X110536928Y-92804236D01*
X110508860Y-92807000D01*
X108595140Y-92807000D01*
X108567072Y-92804236D01*
X108545991Y-92797840D01*
X108526555Y-92787452D01*
X108509524Y-92773476D01*
X108495548Y-92756445D01*
X108485160Y-92737009D01*
X108478764Y-92715928D01*
X108476000Y-92687860D01*
X108476000Y-92224140D01*
X108478764Y-92196072D01*
X108485160Y-92174991D01*
X108495548Y-92155555D01*
X108509524Y-92138524D01*
X108526555Y-92124548D01*
X108545991Y-92114160D01*
X108567072Y-92107764D01*
X108595140Y-92105000D01*
X110508860Y-92105000D01*
X110536928Y-92107764D01*
G37*
G36*
X101236928Y-92107764D02*
G01*
X101258009Y-92114160D01*
X101277445Y-92124548D01*
X101294476Y-92138524D01*
X101308452Y-92155555D01*
X101318840Y-92174991D01*
X101325236Y-92196072D01*
X101328000Y-92224140D01*
X101328000Y-92687860D01*
X101325236Y-92715928D01*
X101318840Y-92737009D01*
X101308452Y-92756445D01*
X101294476Y-92773476D01*
X101277445Y-92787452D01*
X101258009Y-92797840D01*
X101236928Y-92804236D01*
X101208860Y-92807000D01*
X99295140Y-92807000D01*
X99267072Y-92804236D01*
X99245991Y-92797840D01*
X99226555Y-92787452D01*
X99209524Y-92773476D01*
X99195548Y-92756445D01*
X99185160Y-92737009D01*
X99178764Y-92715928D01*
X99176000Y-92687860D01*
X99176000Y-92224140D01*
X99178764Y-92196072D01*
X99185160Y-92174991D01*
X99195548Y-92155555D01*
X99209524Y-92138524D01*
X99226555Y-92124548D01*
X99245991Y-92114160D01*
X99267072Y-92107764D01*
X99295140Y-92105000D01*
X101208860Y-92105000D01*
X101236928Y-92107764D01*
G37*
G36*
X92314585Y-88804802D02*
G01*
X92464410Y-88834604D01*
X92746674Y-88951521D01*
X93000705Y-89121259D01*
X93216741Y-89337295D01*
X93386479Y-89591326D01*
X93503396Y-89873590D01*
X93563000Y-90173240D01*
X93563000Y-90478760D01*
X93503396Y-90778410D01*
X93386479Y-91060674D01*
X93216741Y-91314705D01*
X93000705Y-91530741D01*
X92746674Y-91700479D01*
X92464410Y-91817396D01*
X92314585Y-91847198D01*
X92164761Y-91877000D01*
X91859239Y-91877000D01*
X91709415Y-91847198D01*
X91559590Y-91817396D01*
X91277326Y-91700479D01*
X91023295Y-91530741D01*
X90807259Y-91314705D01*
X90637521Y-91060674D01*
X90520604Y-90778410D01*
X90461000Y-90478760D01*
X90461000Y-90173240D01*
X90520604Y-89873590D01*
X90637521Y-89591326D01*
X90807259Y-89337295D01*
X91023295Y-89121259D01*
X91277326Y-88951521D01*
X91559590Y-88834604D01*
X91709415Y-88804802D01*
X91859239Y-88775000D01*
X92164761Y-88775000D01*
X92314585Y-88804802D01*
G37*
G36*
X101236928Y-90837764D02*
G01*
X101258009Y-90844160D01*
X101277445Y-90854548D01*
X101294476Y-90868524D01*
X101308452Y-90885555D01*
X101318840Y-90904991D01*
X101325236Y-90926072D01*
X101328000Y-90954140D01*
X101328000Y-91417860D01*
X101325236Y-91445928D01*
X101318840Y-91467009D01*
X101308452Y-91486445D01*
X101294476Y-91503476D01*
X101277445Y-91517452D01*
X101258009Y-91527840D01*
X101236928Y-91534236D01*
X101208860Y-91537000D01*
X99295140Y-91537000D01*
X99267072Y-91534236D01*
X99245991Y-91527840D01*
X99226555Y-91517452D01*
X99209524Y-91503476D01*
X99195548Y-91486445D01*
X99185160Y-91467009D01*
X99178764Y-91445928D01*
X99176000Y-91417860D01*
X99176000Y-90954140D01*
X99178764Y-90926072D01*
X99185160Y-90904991D01*
X99195548Y-90885555D01*
X99209524Y-90868524D01*
X99226555Y-90854548D01*
X99245991Y-90844160D01*
X99267072Y-90837764D01*
X99295140Y-90835000D01*
X101208860Y-90835000D01*
X101236928Y-90837764D01*
G37*
G36*
X110536928Y-90837764D02*
G01*
X110558009Y-90844160D01*
X110577445Y-90854548D01*
X110594476Y-90868524D01*
X110608452Y-90885555D01*
X110618840Y-90904991D01*
X110625236Y-90926072D01*
X110628000Y-90954140D01*
X110628000Y-91417860D01*
X110625236Y-91445928D01*
X110618840Y-91467009D01*
X110608452Y-91486445D01*
X110594476Y-91503476D01*
X110577445Y-91517452D01*
X110558009Y-91527840D01*
X110536928Y-91534236D01*
X110508860Y-91537000D01*
X108595140Y-91537000D01*
X108567072Y-91534236D01*
X108545991Y-91527840D01*
X108526555Y-91517452D01*
X108509524Y-91503476D01*
X108495548Y-91486445D01*
X108485160Y-91467009D01*
X108478764Y-91445928D01*
X108476000Y-91417860D01*
X108476000Y-90954140D01*
X108478764Y-90926072D01*
X108485160Y-90904991D01*
X108495548Y-90885555D01*
X108509524Y-90868524D01*
X108526555Y-90854548D01*
X108545991Y-90844160D01*
X108567072Y-90837764D01*
X108595140Y-90835000D01*
X110508860Y-90835000D01*
X110536928Y-90837764D01*
G37*
G36*
X101236928Y-89567764D02*
G01*
X101258009Y-89574160D01*
X101277445Y-89584548D01*
X101294476Y-89598524D01*
X101308452Y-89615555D01*
X101318840Y-89634991D01*
X101325236Y-89656072D01*
X101328000Y-89684140D01*
X101328000Y-90147860D01*
X101325236Y-90175928D01*
X101318840Y-90197009D01*
X101308452Y-90216445D01*
X101294476Y-90233476D01*
X101277445Y-90247452D01*
X101258009Y-90257840D01*
X101236928Y-90264236D01*
X101208860Y-90267000D01*
X99295140Y-90267000D01*
X99267072Y-90264236D01*
X99245991Y-90257840D01*
X99226555Y-90247452D01*
X99209524Y-90233476D01*
X99195548Y-90216445D01*
X99185160Y-90197009D01*
X99178764Y-90175928D01*
X99176000Y-90147860D01*
X99176000Y-89684140D01*
X99178764Y-89656072D01*
X99185160Y-89634991D01*
X99195548Y-89615555D01*
X99209524Y-89598524D01*
X99226555Y-89584548D01*
X99245991Y-89574160D01*
X99267072Y-89567764D01*
X99295140Y-89565000D01*
X101208860Y-89565000D01*
X101236928Y-89567764D01*
G37*
G36*
X110536928Y-89567764D02*
G01*
X110558009Y-89574160D01*
X110577445Y-89584548D01*
X110594476Y-89598524D01*
X110608452Y-89615555D01*
X110618840Y-89634991D01*
X110625236Y-89656072D01*
X110628000Y-89684140D01*
X110628000Y-90147860D01*
X110625236Y-90175928D01*
X110618840Y-90197009D01*
X110608452Y-90216445D01*
X110594476Y-90233476D01*
X110577445Y-90247452D01*
X110558009Y-90257840D01*
X110536928Y-90264236D01*
X110508860Y-90267000D01*
X108595140Y-90267000D01*
X108567072Y-90264236D01*
X108545991Y-90257840D01*
X108526555Y-90247452D01*
X108509524Y-90233476D01*
X108495548Y-90216445D01*
X108485160Y-90197009D01*
X108478764Y-90175928D01*
X108476000Y-90147860D01*
X108476000Y-89684140D01*
X108478764Y-89656072D01*
X108485160Y-89634991D01*
X108495548Y-89615555D01*
X108509524Y-89598524D01*
X108526555Y-89584548D01*
X108545991Y-89574160D01*
X108567072Y-89567764D01*
X108595140Y-89565000D01*
X110508860Y-89565000D01*
X110536928Y-89567764D01*
G37*
G36*
X96314585Y-86804802D02*
G01*
X96464410Y-86834604D01*
X96746674Y-86951521D01*
X97000705Y-87121259D01*
X97216741Y-87337295D01*
X97386479Y-87591326D01*
X97503396Y-87873590D01*
X97563000Y-88173240D01*
X97563000Y-88478760D01*
X97503396Y-88778410D01*
X97386479Y-89060674D01*
X97216741Y-89314705D01*
X97000705Y-89530741D01*
X96746674Y-89700479D01*
X96464410Y-89817396D01*
X96314585Y-89847198D01*
X96164761Y-89877000D01*
X95859239Y-89877000D01*
X95709415Y-89847198D01*
X95559590Y-89817396D01*
X95277326Y-89700479D01*
X95023295Y-89530741D01*
X94807259Y-89314705D01*
X94637521Y-89060674D01*
X94520604Y-88778410D01*
X94461000Y-88478760D01*
X94461000Y-88173240D01*
X94520604Y-87873590D01*
X94637521Y-87591326D01*
X94807259Y-87337295D01*
X95023295Y-87121259D01*
X95277326Y-86951521D01*
X95559590Y-86834604D01*
X95709415Y-86804802D01*
X95859239Y-86775000D01*
X96164761Y-86775000D01*
X96314585Y-86804802D01*
G37*
G36*
X88314585Y-86804802D02*
G01*
X88464410Y-86834604D01*
X88746674Y-86951521D01*
X89000705Y-87121259D01*
X89216741Y-87337295D01*
X89386479Y-87591326D01*
X89503396Y-87873590D01*
X89563000Y-88173240D01*
X89563000Y-88478760D01*
X89503396Y-88778410D01*
X89386479Y-89060674D01*
X89216741Y-89314705D01*
X89000705Y-89530741D01*
X88746674Y-89700479D01*
X88464410Y-89817396D01*
X88314585Y-89847198D01*
X88164761Y-89877000D01*
X87859239Y-89877000D01*
X87709415Y-89847198D01*
X87559590Y-89817396D01*
X87277326Y-89700479D01*
X87023295Y-89530741D01*
X86807259Y-89314705D01*
X86637521Y-89060674D01*
X86520604Y-88778410D01*
X86461000Y-88478760D01*
X86461000Y-88173240D01*
X86520604Y-87873590D01*
X86637521Y-87591326D01*
X86807259Y-87337295D01*
X87023295Y-87121259D01*
X87277326Y-86951521D01*
X87559590Y-86834604D01*
X87709415Y-86804802D01*
X87859239Y-86775000D01*
X88164761Y-86775000D01*
X88314585Y-86804802D01*
G37*
G36*
X110536928Y-88297764D02*
G01*
X110558009Y-88304160D01*
X110577445Y-88314548D01*
X110594476Y-88328524D01*
X110608452Y-88345555D01*
X110618840Y-88364991D01*
X110625236Y-88386072D01*
X110628000Y-88414140D01*
X110628000Y-88877860D01*
X110625236Y-88905928D01*
X110618840Y-88927009D01*
X110608452Y-88946445D01*
X110594476Y-88963476D01*
X110577445Y-88977452D01*
X110558009Y-88987840D01*
X110536928Y-88994236D01*
X110508860Y-88997000D01*
X108595140Y-88997000D01*
X108567072Y-88994236D01*
X108545991Y-88987840D01*
X108526555Y-88977452D01*
X108509524Y-88963476D01*
X108495548Y-88946445D01*
X108485160Y-88927009D01*
X108478764Y-88905928D01*
X108476000Y-88877860D01*
X108476000Y-88414140D01*
X108478764Y-88386072D01*
X108485160Y-88364991D01*
X108495548Y-88345555D01*
X108509524Y-88328524D01*
X108526555Y-88314548D01*
X108545991Y-88304160D01*
X108567072Y-88297764D01*
X108595140Y-88295000D01*
X110508860Y-88295000D01*
X110536928Y-88297764D01*
G37*
G36*
X101236928Y-88297764D02*
G01*
X101258009Y-88304160D01*
X101277445Y-88314548D01*
X101294476Y-88328524D01*
X101308452Y-88345555D01*
X101318840Y-88364991D01*
X101325236Y-88386072D01*
X101328000Y-88414140D01*
X101328000Y-88877860D01*
X101325236Y-88905928D01*
X101318840Y-88927009D01*
X101308452Y-88946445D01*
X101294476Y-88963476D01*
X101277445Y-88977452D01*
X101258009Y-88987840D01*
X101236928Y-88994236D01*
X101208860Y-88997000D01*
X99295140Y-88997000D01*
X99267072Y-88994236D01*
X99245991Y-88987840D01*
X99226555Y-88977452D01*
X99209524Y-88963476D01*
X99195548Y-88946445D01*
X99185160Y-88927009D01*
X99178764Y-88905928D01*
X99176000Y-88877860D01*
X99176000Y-88414140D01*
X99178764Y-88386072D01*
X99185160Y-88364991D01*
X99195548Y-88345555D01*
X99209524Y-88328524D01*
X99226555Y-88314548D01*
X99245991Y-88304160D01*
X99267072Y-88297764D01*
X99295140Y-88295000D01*
X101208860Y-88295000D01*
X101236928Y-88297764D01*
G37*
G36*
X92314585Y-84804802D02*
G01*
X92464410Y-84834604D01*
X92746674Y-84951521D01*
X93000705Y-85121259D01*
X93216741Y-85337295D01*
X93386479Y-85591326D01*
X93503396Y-85873590D01*
X93563000Y-86173240D01*
X93563000Y-86478760D01*
X93503396Y-86778410D01*
X93386479Y-87060674D01*
X93216741Y-87314705D01*
X93000705Y-87530741D01*
X92746674Y-87700479D01*
X92464410Y-87817396D01*
X92314585Y-87847198D01*
X92164761Y-87877000D01*
X91859239Y-87877000D01*
X91709415Y-87847198D01*
X91559590Y-87817396D01*
X91277326Y-87700479D01*
X91023295Y-87530741D01*
X90807259Y-87314705D01*
X90637521Y-87060674D01*
X90520604Y-86778410D01*
X90461000Y-86478760D01*
X90461000Y-86173240D01*
X90520604Y-85873590D01*
X90637521Y-85591326D01*
X90807259Y-85337295D01*
X91023295Y-85121259D01*
X91277326Y-84951521D01*
X91559590Y-84834604D01*
X91709415Y-84804802D01*
X91859239Y-84775000D01*
X92164761Y-84775000D01*
X92314585Y-84804802D01*
G37*
G36*
X110536928Y-87027764D02*
G01*
X110558009Y-87034160D01*
X110577445Y-87044548D01*
X110594476Y-87058524D01*
X110608452Y-87075555D01*
X110618840Y-87094991D01*
X110625236Y-87116072D01*
X110628000Y-87144140D01*
X110628000Y-87607860D01*
X110625236Y-87635928D01*
X110618840Y-87657009D01*
X110608452Y-87676445D01*
X110594476Y-87693476D01*
X110577445Y-87707452D01*
X110558009Y-87717840D01*
X110536928Y-87724236D01*
X110508860Y-87727000D01*
X108595140Y-87727000D01*
X108567072Y-87724236D01*
X108545991Y-87717840D01*
X108526555Y-87707452D01*
X108509524Y-87693476D01*
X108495548Y-87676445D01*
X108485160Y-87657009D01*
X108478764Y-87635928D01*
X108476000Y-87607860D01*
X108476000Y-87144140D01*
X108478764Y-87116072D01*
X108485160Y-87094991D01*
X108495548Y-87075555D01*
X108509524Y-87058524D01*
X108526555Y-87044548D01*
X108545991Y-87034160D01*
X108567072Y-87027764D01*
X108595140Y-87025000D01*
X110508860Y-87025000D01*
X110536928Y-87027764D01*
G37*
G36*
X101236928Y-87027764D02*
G01*
X101258009Y-87034160D01*
X101277445Y-87044548D01*
X101294476Y-87058524D01*
X101308452Y-87075555D01*
X101318840Y-87094991D01*
X101325236Y-87116072D01*
X101328000Y-87144140D01*
X101328000Y-87607860D01*
X101325236Y-87635928D01*
X101318840Y-87657009D01*
X101308452Y-87676445D01*
X101294476Y-87693476D01*
X101277445Y-87707452D01*
X101258009Y-87717840D01*
X101236928Y-87724236D01*
X101208860Y-87727000D01*
X99295140Y-87727000D01*
X99267072Y-87724236D01*
X99245991Y-87717840D01*
X99226555Y-87707452D01*
X99209524Y-87693476D01*
X99195548Y-87676445D01*
X99185160Y-87657009D01*
X99178764Y-87635928D01*
X99176000Y-87607860D01*
X99176000Y-87144140D01*
X99178764Y-87116072D01*
X99185160Y-87094991D01*
X99195548Y-87075555D01*
X99209524Y-87058524D01*
X99226555Y-87044548D01*
X99245991Y-87034160D01*
X99267072Y-87027764D01*
X99295140Y-87025000D01*
X101208860Y-87025000D01*
X101236928Y-87027764D01*
G37*
G36*
X88314585Y-82804802D02*
G01*
X88464410Y-82834604D01*
X88746674Y-82951521D01*
X89000705Y-83121259D01*
X89216741Y-83337295D01*
X89386479Y-83591326D01*
X89503396Y-83873590D01*
X89503396Y-83873591D01*
X89562930Y-84172885D01*
X89563000Y-84173240D01*
X89563000Y-84478760D01*
X89503396Y-84778410D01*
X89386479Y-85060674D01*
X89216741Y-85314705D01*
X89000705Y-85530741D01*
X88746674Y-85700479D01*
X88464410Y-85817396D01*
X88314585Y-85847198D01*
X88164761Y-85877000D01*
X87859239Y-85877000D01*
X87709415Y-85847198D01*
X87559590Y-85817396D01*
X87277326Y-85700479D01*
X87023295Y-85530741D01*
X86807259Y-85314705D01*
X86637521Y-85060674D01*
X86520604Y-84778410D01*
X86461000Y-84478760D01*
X86461000Y-84173240D01*
X86461071Y-84172885D01*
X86520604Y-83873591D01*
X86520604Y-83873590D01*
X86637521Y-83591326D01*
X86807259Y-83337295D01*
X87023295Y-83121259D01*
X87277326Y-82951521D01*
X87559590Y-82834604D01*
X87709415Y-82804802D01*
X87859239Y-82775000D01*
X88164761Y-82775000D01*
X88314585Y-82804802D01*
G37*
G36*
X96314585Y-82804802D02*
G01*
X96464410Y-82834604D01*
X96746674Y-82951521D01*
X97000705Y-83121259D01*
X97216741Y-83337295D01*
X97386479Y-83591326D01*
X97503396Y-83873590D01*
X97503396Y-83873591D01*
X97562930Y-84172885D01*
X97563000Y-84173240D01*
X97563000Y-84478760D01*
X97503396Y-84778410D01*
X97386479Y-85060674D01*
X97216741Y-85314705D01*
X97000705Y-85530741D01*
X96746674Y-85700479D01*
X96464410Y-85817396D01*
X96314585Y-85847198D01*
X96164761Y-85877000D01*
X95859239Y-85877000D01*
X95709415Y-85847198D01*
X95559590Y-85817396D01*
X95277326Y-85700479D01*
X95023295Y-85530741D01*
X94807259Y-85314705D01*
X94637521Y-85060674D01*
X94520604Y-84778410D01*
X94461000Y-84478760D01*
X94461000Y-84173240D01*
X94461071Y-84172885D01*
X94520604Y-83873591D01*
X94520604Y-83873590D01*
X94637521Y-83591326D01*
X94807259Y-83337295D01*
X95023295Y-83121259D01*
X95277326Y-82951521D01*
X95559590Y-82834604D01*
X95709415Y-82804802D01*
X95859239Y-82775000D01*
X96164761Y-82775000D01*
X96314585Y-82804802D01*
G37*
G36*
X108759499Y-84314445D02*
G01*
X108796995Y-84325820D01*
X108831554Y-84344292D01*
X108861847Y-84369153D01*
X108886708Y-84399446D01*
X108905180Y-84434005D01*
X108916555Y-84471501D01*
X108921000Y-84516638D01*
X108921000Y-85155362D01*
X108916555Y-85200499D01*
X108905180Y-85237995D01*
X108886708Y-85272554D01*
X108861847Y-85302847D01*
X108831554Y-85327708D01*
X108796995Y-85346180D01*
X108759499Y-85357555D01*
X108714362Y-85362000D01*
X107975638Y-85362000D01*
X107930501Y-85357555D01*
X107893005Y-85346180D01*
X107858446Y-85327708D01*
X107828153Y-85302847D01*
X107803292Y-85272554D01*
X107784820Y-85237995D01*
X107773445Y-85200499D01*
X107769000Y-85155362D01*
X107769000Y-84516638D01*
X107773445Y-84471501D01*
X107784820Y-84434005D01*
X107803292Y-84399446D01*
X107828153Y-84369153D01*
X107858446Y-84344292D01*
X107893005Y-84325820D01*
X107930501Y-84314445D01*
X107975638Y-84310000D01*
X108714362Y-84310000D01*
X108759499Y-84314445D01*
G37*
G36*
X110509499Y-84314445D02*
G01*
X110546995Y-84325820D01*
X110581554Y-84344292D01*
X110611847Y-84369153D01*
X110636708Y-84399446D01*
X110655180Y-84434005D01*
X110666555Y-84471501D01*
X110671000Y-84516638D01*
X110671000Y-85155362D01*
X110666555Y-85200499D01*
X110655180Y-85237995D01*
X110636708Y-85272554D01*
X110611847Y-85302847D01*
X110581554Y-85327708D01*
X110546995Y-85346180D01*
X110509499Y-85357555D01*
X110464362Y-85362000D01*
X109725638Y-85362000D01*
X109680501Y-85357555D01*
X109643005Y-85346180D01*
X109608446Y-85327708D01*
X109578153Y-85302847D01*
X109553292Y-85272554D01*
X109534820Y-85237995D01*
X109523445Y-85200499D01*
X109519000Y-85155362D01*
X109519000Y-84516638D01*
X109523445Y-84471501D01*
X109534820Y-84434005D01*
X109553292Y-84399446D01*
X109578153Y-84369153D01*
X109608446Y-84344292D01*
X109643005Y-84325820D01*
X109680501Y-84314445D01*
X109725638Y-84310000D01*
X110464362Y-84310000D01*
X110509499Y-84314445D01*
G37*
G36*
X104949499Y-84060445D02*
G01*
X104986995Y-84071820D01*
X105021554Y-84090292D01*
X105051847Y-84115153D01*
X105076708Y-84145446D01*
X105095180Y-84180005D01*
X105106555Y-84217501D01*
X105111000Y-84262638D01*
X105111000Y-84901362D01*
X105106555Y-84946499D01*
X105095180Y-84983995D01*
X105076708Y-85018554D01*
X105051847Y-85048847D01*
X105021554Y-85073708D01*
X104986995Y-85092180D01*
X104949499Y-85103555D01*
X104904362Y-85108000D01*
X104165638Y-85108000D01*
X104120501Y-85103555D01*
X104083005Y-85092180D01*
X104048446Y-85073708D01*
X104018153Y-85048847D01*
X103993292Y-85018554D01*
X103974820Y-84983995D01*
X103963445Y-84946499D01*
X103959000Y-84901362D01*
X103959000Y-84262638D01*
X103963445Y-84217501D01*
X103974820Y-84180005D01*
X103993292Y-84145446D01*
X104018153Y-84115153D01*
X104048446Y-84090292D01*
X104083005Y-84071820D01*
X104120501Y-84060445D01*
X104165638Y-84056000D01*
X104904362Y-84056000D01*
X104949499Y-84060445D01*
G37*
G36*
X101139499Y-84060445D02*
G01*
X101176995Y-84071820D01*
X101211554Y-84090292D01*
X101241847Y-84115153D01*
X101266708Y-84145446D01*
X101285180Y-84180005D01*
X101296555Y-84217501D01*
X101301000Y-84262638D01*
X101301000Y-84901362D01*
X101296555Y-84946499D01*
X101285180Y-84983995D01*
X101266708Y-85018554D01*
X101241847Y-85048847D01*
X101211554Y-85073708D01*
X101176995Y-85092180D01*
X101139499Y-85103555D01*
X101094362Y-85108000D01*
X100355638Y-85108000D01*
X100310501Y-85103555D01*
X100273005Y-85092180D01*
X100238446Y-85073708D01*
X100208153Y-85048847D01*
X100183292Y-85018554D01*
X100164820Y-84983995D01*
X100153445Y-84946499D01*
X100149000Y-84901362D01*
X100149000Y-84262638D01*
X100153445Y-84217501D01*
X100164820Y-84180005D01*
X100183292Y-84145446D01*
X100208153Y-84115153D01*
X100238446Y-84090292D01*
X100273005Y-84071820D01*
X100310501Y-84060445D01*
X100355638Y-84056000D01*
X101094362Y-84056000D01*
X101139499Y-84060445D01*
G37*
G36*
X102889499Y-84060445D02*
G01*
X102926995Y-84071820D01*
X102961554Y-84090292D01*
X102991847Y-84115153D01*
X103016708Y-84145446D01*
X103035180Y-84180005D01*
X103046555Y-84217501D01*
X103051000Y-84262638D01*
X103051000Y-84901362D01*
X103046555Y-84946499D01*
X103035180Y-84983995D01*
X103016708Y-85018554D01*
X102991847Y-85048847D01*
X102961554Y-85073708D01*
X102926995Y-85092180D01*
X102889499Y-85103555D01*
X102844362Y-85108000D01*
X102105638Y-85108000D01*
X102060501Y-85103555D01*
X102023005Y-85092180D01*
X101988446Y-85073708D01*
X101958153Y-85048847D01*
X101933292Y-85018554D01*
X101914820Y-84983995D01*
X101903445Y-84946499D01*
X101899000Y-84901362D01*
X101899000Y-84262638D01*
X101903445Y-84217501D01*
X101914820Y-84180005D01*
X101933292Y-84145446D01*
X101958153Y-84115153D01*
X101988446Y-84090292D01*
X102023005Y-84071820D01*
X102060501Y-84060445D01*
X102105638Y-84056000D01*
X102844362Y-84056000D01*
X102889499Y-84060445D01*
G37*
G36*
X106699499Y-84060445D02*
G01*
X106736995Y-84071820D01*
X106771554Y-84090292D01*
X106801847Y-84115153D01*
X106826708Y-84145446D01*
X106845180Y-84180005D01*
X106856555Y-84217501D01*
X106861000Y-84262638D01*
X106861000Y-84901362D01*
X106856555Y-84946499D01*
X106845180Y-84983995D01*
X106826708Y-85018554D01*
X106801847Y-85048847D01*
X106771554Y-85073708D01*
X106736995Y-85092180D01*
X106699499Y-85103555D01*
X106654362Y-85108000D01*
X105915638Y-85108000D01*
X105870501Y-85103555D01*
X105833005Y-85092180D01*
X105798446Y-85073708D01*
X105768153Y-85048847D01*
X105743292Y-85018554D01*
X105724820Y-84983995D01*
X105713445Y-84946499D01*
X105709000Y-84901362D01*
X105709000Y-84262638D01*
X105713445Y-84217501D01*
X105724820Y-84180005D01*
X105743292Y-84145446D01*
X105768153Y-84115153D01*
X105798446Y-84090292D01*
X105833005Y-84071820D01*
X105870501Y-84060445D01*
X105915638Y-84056000D01*
X106654362Y-84056000D01*
X106699499Y-84060445D01*
G37*
G36*
X92314585Y-80804802D02*
G01*
X92464410Y-80834604D01*
X92746674Y-80951521D01*
X93000705Y-81121259D01*
X93216741Y-81337295D01*
X93386479Y-81591326D01*
X93503396Y-81873590D01*
X93563000Y-82173240D01*
X93563000Y-82478760D01*
X93503396Y-82778410D01*
X93386479Y-83060674D01*
X93216741Y-83314705D01*
X93000705Y-83530741D01*
X92746674Y-83700479D01*
X92464410Y-83817396D01*
X92314585Y-83847198D01*
X92164761Y-83877000D01*
X91859239Y-83877000D01*
X91709415Y-83847198D01*
X91559590Y-83817396D01*
X91277326Y-83700479D01*
X91023295Y-83530741D01*
X90807259Y-83314705D01*
X90637521Y-83060674D01*
X90520604Y-82778410D01*
X90461000Y-82478760D01*
X90461000Y-82173240D01*
X90520604Y-81873590D01*
X90637521Y-81591326D01*
X90807259Y-81337295D01*
X91023295Y-81121259D01*
X91277326Y-80951521D01*
X91559590Y-80834604D01*
X91709415Y-80804802D01*
X91859239Y-80775000D01*
X92164761Y-80775000D01*
X92314585Y-80804802D01*
G37*
G36*
X107774000Y-82825000D02*
G01*
X101522000Y-82825000D01*
X101522000Y-81123000D01*
X107774000Y-81123000D01*
X107774000Y-82825000D01*
G37*
G36*
X96314585Y-78804802D02*
G01*
X96464410Y-78834604D01*
X96746674Y-78951521D01*
X97000705Y-79121259D01*
X97216741Y-79337295D01*
X97386479Y-79591326D01*
X97503396Y-79873590D01*
X97563000Y-80173240D01*
X97563000Y-80478760D01*
X97503396Y-80778410D01*
X97386479Y-81060674D01*
X97216741Y-81314705D01*
X97000705Y-81530741D01*
X96746674Y-81700479D01*
X96464410Y-81817396D01*
X96314585Y-81847198D01*
X96164761Y-81877000D01*
X95859239Y-81877000D01*
X95709415Y-81847198D01*
X95559590Y-81817396D01*
X95277326Y-81700479D01*
X95023295Y-81530741D01*
X94807259Y-81314705D01*
X94637521Y-81060674D01*
X94520604Y-80778410D01*
X94461000Y-80478760D01*
X94461000Y-80173240D01*
X94520604Y-79873590D01*
X94637521Y-79591326D01*
X94807259Y-79337295D01*
X95023295Y-79121259D01*
X95277326Y-78951521D01*
X95559590Y-78834604D01*
X95709415Y-78804802D01*
X95859239Y-78775000D01*
X96164761Y-78775000D01*
X96314585Y-78804802D01*
G37*
G36*
X88314585Y-78804802D02*
G01*
X88464410Y-78834604D01*
X88746674Y-78951521D01*
X89000705Y-79121259D01*
X89216741Y-79337295D01*
X89386479Y-79591326D01*
X89503396Y-79873590D01*
X89563000Y-80173240D01*
X89563000Y-80478760D01*
X89503396Y-80778410D01*
X89386479Y-81060674D01*
X89216741Y-81314705D01*
X89000705Y-81530741D01*
X88746674Y-81700479D01*
X88464410Y-81817396D01*
X88314585Y-81847198D01*
X88164761Y-81877000D01*
X87859239Y-81877000D01*
X87709415Y-81847198D01*
X87559590Y-81817396D01*
X87277326Y-81700479D01*
X87023295Y-81530741D01*
X86807259Y-81314705D01*
X86637521Y-81060674D01*
X86520604Y-80778410D01*
X86461000Y-80478760D01*
X86461000Y-80173240D01*
X86520604Y-79873590D01*
X86637521Y-79591326D01*
X86807259Y-79337295D01*
X87023295Y-79121259D01*
X87277326Y-78951521D01*
X87559590Y-78834604D01*
X87709415Y-78804802D01*
X87859239Y-78775000D01*
X88164761Y-78775000D01*
X88314585Y-78804802D01*
G37*
G36*
X101249000Y-80850000D02*
G01*
X99547000Y-80850000D01*
X99547000Y-74598000D01*
X101249000Y-74598000D01*
X101249000Y-80850000D01*
G37*
G36*
X109749000Y-80850000D02*
G01*
X108047000Y-80850000D01*
X108047000Y-74598000D01*
X109749000Y-74598000D01*
X109749000Y-80850000D01*
G37*
G36*
X92314585Y-76804802D02*
G01*
X92464410Y-76834604D01*
X92746674Y-76951521D01*
X93000705Y-77121259D01*
X93216741Y-77337295D01*
X93386479Y-77591326D01*
X93503396Y-77873590D01*
X93563000Y-78173240D01*
X93563000Y-78478760D01*
X93503396Y-78778410D01*
X93386479Y-79060674D01*
X93216741Y-79314705D01*
X93000705Y-79530741D01*
X92746674Y-79700479D01*
X92464410Y-79817396D01*
X92314585Y-79847198D01*
X92164761Y-79877000D01*
X91859239Y-79877000D01*
X91709415Y-79847198D01*
X91559590Y-79817396D01*
X91277326Y-79700479D01*
X91023295Y-79530741D01*
X90807259Y-79314705D01*
X90637521Y-79060674D01*
X90520604Y-78778410D01*
X90461000Y-78478760D01*
X90461000Y-78173240D01*
X90520604Y-77873590D01*
X90637521Y-77591326D01*
X90807259Y-77337295D01*
X91023295Y-77121259D01*
X91277326Y-76951521D01*
X91559590Y-76834604D01*
X91709415Y-76804802D01*
X91859239Y-76775000D01*
X92164761Y-76775000D01*
X92314585Y-76804802D01*
G37*
G36*
X88314585Y-74804802D02*
G01*
X88464410Y-74834604D01*
X88746674Y-74951521D01*
X89000705Y-75121259D01*
X89216741Y-75337295D01*
X89386479Y-75591326D01*
X89503396Y-75873590D01*
X89563000Y-76173240D01*
X89563000Y-76478760D01*
X89503396Y-76778410D01*
X89386479Y-77060674D01*
X89216741Y-77314705D01*
X89000705Y-77530741D01*
X88746674Y-77700479D01*
X88464410Y-77817396D01*
X88314585Y-77847198D01*
X88164761Y-77877000D01*
X87859239Y-77877000D01*
X87709415Y-77847198D01*
X87559590Y-77817396D01*
X87277326Y-77700479D01*
X87023295Y-77530741D01*
X86807259Y-77314705D01*
X86637521Y-77060674D01*
X86520604Y-76778410D01*
X86461000Y-76478760D01*
X86461000Y-76173240D01*
X86520604Y-75873590D01*
X86637521Y-75591326D01*
X86807259Y-75337295D01*
X87023295Y-75121259D01*
X87277326Y-74951521D01*
X87559590Y-74834604D01*
X87709415Y-74804802D01*
X87859239Y-74775000D01*
X88164761Y-74775000D01*
X88314585Y-74804802D01*
G37*
G36*
X96314585Y-74804802D02*
G01*
X96464410Y-74834604D01*
X96746674Y-74951521D01*
X97000705Y-75121259D01*
X97216741Y-75337295D01*
X97386479Y-75591326D01*
X97503396Y-75873590D01*
X97563000Y-76173240D01*
X97563000Y-76478760D01*
X97503396Y-76778410D01*
X97386479Y-77060674D01*
X97216741Y-77314705D01*
X97000705Y-77530741D01*
X96746674Y-77700479D01*
X96464410Y-77817396D01*
X96314585Y-77847198D01*
X96164761Y-77877000D01*
X95859239Y-77877000D01*
X95709415Y-77847198D01*
X95559590Y-77817396D01*
X95277326Y-77700479D01*
X95023295Y-77530741D01*
X94807259Y-77314705D01*
X94637521Y-77060674D01*
X94520604Y-76778410D01*
X94461000Y-76478760D01*
X94461000Y-76173240D01*
X94520604Y-75873590D01*
X94637521Y-75591326D01*
X94807259Y-75337295D01*
X95023295Y-75121259D01*
X95277326Y-74951521D01*
X95559590Y-74834604D01*
X95709415Y-74804802D01*
X95859239Y-74775000D01*
X96164761Y-74775000D01*
X96314585Y-74804802D01*
G37*
G36*
X92314585Y-72804802D02*
G01*
X92464410Y-72834604D01*
X92746674Y-72951521D01*
X93000705Y-73121259D01*
X93216741Y-73337295D01*
X93386479Y-73591326D01*
X93503396Y-73873590D01*
X93563000Y-74173240D01*
X93563000Y-74478760D01*
X93503396Y-74778410D01*
X93386479Y-75060674D01*
X93216741Y-75314705D01*
X93000705Y-75530741D01*
X92746674Y-75700479D01*
X92464410Y-75817396D01*
X92314585Y-75847198D01*
X92164761Y-75877000D01*
X91859239Y-75877000D01*
X91709415Y-75847198D01*
X91559590Y-75817396D01*
X91277326Y-75700479D01*
X91023295Y-75530741D01*
X90807259Y-75314705D01*
X90637521Y-75060674D01*
X90520604Y-74778410D01*
X90461000Y-74478760D01*
X90461000Y-74173240D01*
X90520604Y-73873590D01*
X90637521Y-73591326D01*
X90807259Y-73337295D01*
X91023295Y-73121259D01*
X91277326Y-72951521D01*
X91559590Y-72834604D01*
X91709415Y-72804802D01*
X91859239Y-72775000D01*
X92164761Y-72775000D01*
X92314585Y-72804802D01*
G37*
G36*
X107774000Y-74325000D02*
G01*
X101522000Y-74325000D01*
X101522000Y-72623000D01*
X107774000Y-72623000D01*
X107774000Y-74325000D01*
G37*
G36*
X88314585Y-70804802D02*
G01*
X88464410Y-70834604D01*
X88746674Y-70951521D01*
X89000705Y-71121259D01*
X89216741Y-71337295D01*
X89386479Y-71591326D01*
X89503396Y-71873590D01*
X89563000Y-72173240D01*
X89563000Y-72478760D01*
X89503396Y-72778410D01*
X89386479Y-73060674D01*
X89216741Y-73314705D01*
X89000705Y-73530741D01*
X88746674Y-73700479D01*
X88464410Y-73817396D01*
X88314585Y-73847198D01*
X88164761Y-73877000D01*
X87859239Y-73877000D01*
X87709415Y-73847198D01*
X87559590Y-73817396D01*
X87277326Y-73700479D01*
X87023295Y-73530741D01*
X86807259Y-73314705D01*
X86637521Y-73060674D01*
X86520604Y-72778410D01*
X86461000Y-72478760D01*
X86461000Y-72173240D01*
X86520604Y-71873590D01*
X86637521Y-71591326D01*
X86807259Y-71337295D01*
X87023295Y-71121259D01*
X87277326Y-70951521D01*
X87559590Y-70834604D01*
X87709415Y-70804802D01*
X87859239Y-70775000D01*
X88164761Y-70775000D01*
X88314585Y-70804802D01*
G37*
G36*
X96314585Y-70804802D02*
G01*
X96464410Y-70834604D01*
X96746674Y-70951521D01*
X97000705Y-71121259D01*
X97216741Y-71337295D01*
X97386479Y-71591326D01*
X97503396Y-71873590D01*
X97563000Y-72173240D01*
X97563000Y-72478760D01*
X97503396Y-72778410D01*
X97386479Y-73060674D01*
X97216741Y-73314705D01*
X97000705Y-73530741D01*
X96746674Y-73700479D01*
X96464410Y-73817396D01*
X96314585Y-73847198D01*
X96164761Y-73877000D01*
X95859239Y-73877000D01*
X95709415Y-73847198D01*
X95559590Y-73817396D01*
X95277326Y-73700479D01*
X95023295Y-73530741D01*
X94807259Y-73314705D01*
X94637521Y-73060674D01*
X94520604Y-72778410D01*
X94461000Y-72478760D01*
X94461000Y-72173240D01*
X94520604Y-71873590D01*
X94637521Y-71591326D01*
X94807259Y-71337295D01*
X95023295Y-71121259D01*
X95277326Y-70951521D01*
X95559590Y-70834604D01*
X95709415Y-70804802D01*
X95859239Y-70775000D01*
X96164761Y-70775000D01*
X96314585Y-70804802D01*
G37*
G36*
X92235143Y-68789000D02*
G01*
X92464410Y-68834604D01*
X92746674Y-68951521D01*
X93000705Y-69121259D01*
X93216741Y-69337295D01*
X93386479Y-69591326D01*
X93503396Y-69873590D01*
X93563000Y-70173240D01*
X93563000Y-70478760D01*
X93503396Y-70778410D01*
X93386479Y-71060674D01*
X93216741Y-71314705D01*
X93000705Y-71530741D01*
X92746674Y-71700479D01*
X92464410Y-71817396D01*
X92314585Y-71847198D01*
X92164761Y-71877000D01*
X91859239Y-71877000D01*
X91709415Y-71847198D01*
X91559590Y-71817396D01*
X91277326Y-71700479D01*
X91023295Y-71530741D01*
X90807259Y-71314705D01*
X90637521Y-71060674D01*
X90520604Y-70778410D01*
X90461000Y-70478760D01*
X90461000Y-70173240D01*
X90520604Y-69873590D01*
X90637521Y-69591326D01*
X90807259Y-69337295D01*
X91023295Y-69121259D01*
X91277326Y-68951521D01*
X91559590Y-68834604D01*
X91788857Y-68789000D01*
X91859239Y-68775000D01*
X92164761Y-68775000D01*
X92235143Y-68789000D01*
G37*
G36*
X109838499Y-69391445D02*
G01*
X109875995Y-69402820D01*
X109910554Y-69421292D01*
X109940847Y-69446153D01*
X109965708Y-69476446D01*
X109984180Y-69511005D01*
X109995555Y-69548501D01*
X110000000Y-69593638D01*
X110000000Y-70332362D01*
X109995555Y-70377499D01*
X109984180Y-70414995D01*
X109965708Y-70449554D01*
X109940847Y-70479847D01*
X109910554Y-70504708D01*
X109875995Y-70523180D01*
X109838499Y-70534555D01*
X109793362Y-70539000D01*
X109154638Y-70539000D01*
X109109501Y-70534555D01*
X109072005Y-70523180D01*
X109037446Y-70504708D01*
X109007153Y-70479847D01*
X108982292Y-70449554D01*
X108963820Y-70414995D01*
X108952445Y-70377499D01*
X108948000Y-70332362D01*
X108948000Y-69593638D01*
X108952445Y-69548501D01*
X108963820Y-69511005D01*
X108982292Y-69476446D01*
X109007153Y-69446153D01*
X109037446Y-69421292D01*
X109072005Y-69402820D01*
X109109501Y-69391445D01*
X109154638Y-69387000D01*
X109793362Y-69387000D01*
X109838499Y-69391445D01*
G37*
G36*
X88314585Y-66804802D02*
G01*
X88464410Y-66834604D01*
X88746674Y-66951521D01*
X89000705Y-67121259D01*
X89216741Y-67337295D01*
X89386479Y-67591326D01*
X89503396Y-67873590D01*
X89503396Y-67873591D01*
X89563000Y-68173239D01*
X89563000Y-68478761D01*
X89543397Y-68577309D01*
X89503396Y-68778410D01*
X89386479Y-69060674D01*
X89216741Y-69314705D01*
X89000705Y-69530741D01*
X88746674Y-69700479D01*
X88464410Y-69817396D01*
X88314585Y-69847198D01*
X88164761Y-69877000D01*
X87859239Y-69877000D01*
X87709415Y-69847198D01*
X87559590Y-69817396D01*
X87277326Y-69700479D01*
X87023295Y-69530741D01*
X86807259Y-69314705D01*
X86637521Y-69060674D01*
X86520604Y-68778410D01*
X86480603Y-68577309D01*
X86461000Y-68478761D01*
X86461000Y-68173239D01*
X86520604Y-67873591D01*
X86520604Y-67873590D01*
X86637521Y-67591326D01*
X86807259Y-67337295D01*
X87023295Y-67121259D01*
X87277326Y-66951521D01*
X87559590Y-66834604D01*
X87709415Y-66804802D01*
X87859239Y-66775000D01*
X88164761Y-66775000D01*
X88314585Y-66804802D01*
G37*
G36*
X97563000Y-69877000D02*
G01*
X94461000Y-69877000D01*
X94461000Y-66775000D01*
X97563000Y-66775000D01*
X97563000Y-69877000D01*
G37*
G36*
X101824571Y-67274863D02*
G01*
X101903023Y-67282590D01*
X102003682Y-67313125D01*
X102054013Y-67328392D01*
X102193165Y-67402771D01*
X102315133Y-67502867D01*
X102415229Y-67624835D01*
X102489608Y-67763987D01*
X102489608Y-67763988D01*
X102535410Y-67914977D01*
X102550875Y-68072000D01*
X102535410Y-68229023D01*
X102504875Y-68329682D01*
X102489608Y-68380013D01*
X102415229Y-68519165D01*
X102315133Y-68641133D01*
X102193165Y-68741229D01*
X102054013Y-68815608D01*
X102003682Y-68830875D01*
X101903023Y-68861410D01*
X101824571Y-68869137D01*
X101785346Y-68873000D01*
X100906654Y-68873000D01*
X100867429Y-68869137D01*
X100788977Y-68861410D01*
X100688318Y-68830875D01*
X100637987Y-68815608D01*
X100498835Y-68741229D01*
X100376867Y-68641133D01*
X100276771Y-68519165D01*
X100202392Y-68380013D01*
X100187125Y-68329682D01*
X100156590Y-68229023D01*
X100141125Y-68072000D01*
X100156590Y-67914977D01*
X100202392Y-67763988D01*
X100202392Y-67763987D01*
X100276771Y-67624835D01*
X100376867Y-67502867D01*
X100498835Y-67402771D01*
X100637987Y-67328392D01*
X100688318Y-67313125D01*
X100788977Y-67282590D01*
X100867429Y-67274863D01*
X100906654Y-67271000D01*
X101785346Y-67271000D01*
X101824571Y-67274863D01*
G37*
G36*
X109838499Y-67641445D02*
G01*
X109875995Y-67652820D01*
X109910554Y-67671292D01*
X109940847Y-67696153D01*
X109965708Y-67726446D01*
X109984180Y-67761005D01*
X109995555Y-67798501D01*
X110000000Y-67843638D01*
X110000000Y-68582362D01*
X109995555Y-68627499D01*
X109984180Y-68664995D01*
X109965708Y-68699554D01*
X109940847Y-68729847D01*
X109910554Y-68754708D01*
X109875995Y-68773180D01*
X109838499Y-68784555D01*
X109793362Y-68789000D01*
X109154638Y-68789000D01*
X109109501Y-68784555D01*
X109072005Y-68773180D01*
X109037446Y-68754708D01*
X109007153Y-68729847D01*
X108982292Y-68699554D01*
X108963820Y-68664995D01*
X108952445Y-68627499D01*
X108948000Y-68582362D01*
X108948000Y-67843638D01*
X108952445Y-67798501D01*
X108963820Y-67761005D01*
X108982292Y-67726446D01*
X109007153Y-67696153D01*
X109037446Y-67671292D01*
X109072005Y-67652820D01*
X109109501Y-67641445D01*
X109154638Y-67637000D01*
X109793362Y-67637000D01*
X109838499Y-67641445D01*
G37*
G36*
X109838499Y-65186445D02*
G01*
X109875995Y-65197820D01*
X109910554Y-65216292D01*
X109940847Y-65241153D01*
X109965708Y-65271446D01*
X109984180Y-65306005D01*
X109995555Y-65343501D01*
X110000000Y-65388638D01*
X110000000Y-66127362D01*
X109995555Y-66172499D01*
X109984180Y-66209995D01*
X109965708Y-66244554D01*
X109940847Y-66274847D01*
X109910554Y-66299708D01*
X109875995Y-66318180D01*
X109838499Y-66329555D01*
X109793362Y-66334000D01*
X109154638Y-66334000D01*
X109109501Y-66329555D01*
X109072005Y-66318180D01*
X109037446Y-66299708D01*
X109007153Y-66274847D01*
X108982292Y-66244554D01*
X108963820Y-66209995D01*
X108952445Y-66172499D01*
X108948000Y-66127362D01*
X108948000Y-65388638D01*
X108952445Y-65343501D01*
X108963820Y-65306005D01*
X108982292Y-65271446D01*
X109007153Y-65241153D01*
X109037446Y-65216292D01*
X109072005Y-65197820D01*
X109109501Y-65186445D01*
X109154638Y-65182000D01*
X109793362Y-65182000D01*
X109838499Y-65186445D01*
G37*
G36*
X101824571Y-64734863D02*
G01*
X101903023Y-64742590D01*
X102003682Y-64773125D01*
X102054013Y-64788392D01*
X102193165Y-64862771D01*
X102315133Y-64962867D01*
X102415229Y-65084835D01*
X102489608Y-65223987D01*
X102494815Y-65241153D01*
X102535410Y-65374977D01*
X102550875Y-65532000D01*
X102535410Y-65689023D01*
X102504875Y-65789682D01*
X102489608Y-65840013D01*
X102415229Y-65979165D01*
X102315133Y-66101133D01*
X102193165Y-66201229D01*
X102054013Y-66275608D01*
X102007633Y-66289677D01*
X101903023Y-66321410D01*
X101826497Y-66328947D01*
X101785346Y-66333000D01*
X100906654Y-66333000D01*
X100865503Y-66328947D01*
X100788977Y-66321410D01*
X100684367Y-66289677D01*
X100637987Y-66275608D01*
X100498835Y-66201229D01*
X100376867Y-66101133D01*
X100276771Y-65979165D01*
X100202392Y-65840013D01*
X100187125Y-65789682D01*
X100156590Y-65689023D01*
X100141125Y-65532000D01*
X100156590Y-65374977D01*
X100197185Y-65241153D01*
X100202392Y-65223987D01*
X100276771Y-65084835D01*
X100376867Y-64962867D01*
X100498835Y-64862771D01*
X100637987Y-64788392D01*
X100688318Y-64773125D01*
X100788977Y-64742590D01*
X100867429Y-64734863D01*
X100906654Y-64731000D01*
X101785346Y-64731000D01*
X101824571Y-64734863D01*
G37*
G36*
X109838499Y-63436445D02*
G01*
X109875995Y-63447820D01*
X109910554Y-63466292D01*
X109940847Y-63491153D01*
X109965708Y-63521446D01*
X109984180Y-63556005D01*
X109995555Y-63593501D01*
X110000000Y-63638638D01*
X110000000Y-64377362D01*
X109995555Y-64422499D01*
X109984180Y-64459995D01*
X109965708Y-64494554D01*
X109940847Y-64524847D01*
X109910554Y-64549708D01*
X109875995Y-64568180D01*
X109838499Y-64579555D01*
X109793362Y-64584000D01*
X109154638Y-64584000D01*
X109109501Y-64579555D01*
X109072005Y-64568180D01*
X109037446Y-64549708D01*
X109007153Y-64524847D01*
X108982292Y-64494554D01*
X108963820Y-64459995D01*
X108952445Y-64422499D01*
X108948000Y-64377362D01*
X108948000Y-63638638D01*
X108952445Y-63593501D01*
X108963820Y-63556005D01*
X108982292Y-63521446D01*
X109007153Y-63491153D01*
X109037446Y-63466292D01*
X109072005Y-63447820D01*
X109109501Y-63436445D01*
X109154638Y-63432000D01*
X109793362Y-63432000D01*
X109838499Y-63436445D01*
G37*
G36*
X102547000Y-63793000D02*
G01*
X100145000Y-63793000D01*
X100145000Y-62191000D01*
X102547000Y-62191000D01*
X102547000Y-63793000D01*
G37*
G36*
X102127499Y-57644445D02*
G01*
X102164995Y-57655820D01*
X102199554Y-57674292D01*
X102229847Y-57699153D01*
X102254708Y-57729446D01*
X102273180Y-57764005D01*
X102284555Y-57801501D01*
X102289000Y-57846638D01*
X102289000Y-58485362D01*
X102284555Y-58530499D01*
X102273180Y-58567995D01*
X102254708Y-58602554D01*
X102229847Y-58632847D01*
X102199554Y-58657708D01*
X102164995Y-58676180D01*
X102127499Y-58687555D01*
X102082362Y-58692000D01*
X101343638Y-58692000D01*
X101298501Y-58687555D01*
X101261005Y-58676180D01*
X101226446Y-58657708D01*
X101196153Y-58632847D01*
X101171292Y-58602554D01*
X101152820Y-58567995D01*
X101141445Y-58530499D01*
X101137000Y-58485362D01*
X101137000Y-57846638D01*
X101141445Y-57801501D01*
X101152820Y-57764005D01*
X101171292Y-57729446D01*
X101196153Y-57699153D01*
X101226446Y-57674292D01*
X101261005Y-57655820D01*
X101298501Y-57644445D01*
X101343638Y-57640000D01*
X102082362Y-57640000D01*
X102127499Y-57644445D01*
G37*
G36*
X100377499Y-57644445D02*
G01*
X100414995Y-57655820D01*
X100449554Y-57674292D01*
X100479847Y-57699153D01*
X100504708Y-57729446D01*
X100523180Y-57764005D01*
X100534555Y-57801501D01*
X100539000Y-57846638D01*
X100539000Y-58485362D01*
X100534555Y-58530499D01*
X100523180Y-58567995D01*
X100504708Y-58602554D01*
X100479847Y-58632847D01*
X100449554Y-58657708D01*
X100414995Y-58676180D01*
X100377499Y-58687555D01*
X100332362Y-58692000D01*
X99593638Y-58692000D01*
X99548501Y-58687555D01*
X99511005Y-58676180D01*
X99476446Y-58657708D01*
X99446153Y-58632847D01*
X99421292Y-58602554D01*
X99402820Y-58567995D01*
X99391445Y-58530499D01*
X99387000Y-58485362D01*
X99387000Y-57846638D01*
X99391445Y-57801501D01*
X99402820Y-57764005D01*
X99421292Y-57729446D01*
X99446153Y-57699153D01*
X99476446Y-57674292D01*
X99511005Y-57655820D01*
X99548501Y-57644445D01*
X99593638Y-57640000D01*
X100332362Y-57640000D01*
X100377499Y-57644445D01*
G37*
G36*
X106699499Y-57644445D02*
G01*
X106736995Y-57655820D01*
X106771554Y-57674292D01*
X106801847Y-57699153D01*
X106826708Y-57729446D01*
X106845180Y-57764005D01*
X106856555Y-57801501D01*
X106861000Y-57846638D01*
X106861000Y-58485362D01*
X106856555Y-58530499D01*
X106845180Y-58567995D01*
X106826708Y-58602554D01*
X106801847Y-58632847D01*
X106771554Y-58657708D01*
X106736995Y-58676180D01*
X106699499Y-58687555D01*
X106654362Y-58692000D01*
X105915638Y-58692000D01*
X105870501Y-58687555D01*
X105833005Y-58676180D01*
X105798446Y-58657708D01*
X105768153Y-58632847D01*
X105743292Y-58602554D01*
X105724820Y-58567995D01*
X105713445Y-58530499D01*
X105709000Y-58485362D01*
X105709000Y-57846638D01*
X105713445Y-57801501D01*
X105724820Y-57764005D01*
X105743292Y-57729446D01*
X105768153Y-57699153D01*
X105798446Y-57674292D01*
X105833005Y-57655820D01*
X105870501Y-57644445D01*
X105915638Y-57640000D01*
X106654362Y-57640000D01*
X106699499Y-57644445D01*
G37*
G36*
X104949499Y-57644445D02*
G01*
X104986995Y-57655820D01*
X105021554Y-57674292D01*
X105051847Y-57699153D01*
X105076708Y-57729446D01*
X105095180Y-57764005D01*
X105106555Y-57801501D01*
X105111000Y-57846638D01*
X105111000Y-58485362D01*
X105106555Y-58530499D01*
X105095180Y-58567995D01*
X105076708Y-58602554D01*
X105051847Y-58632847D01*
X105021554Y-58657708D01*
X104986995Y-58676180D01*
X104949499Y-58687555D01*
X104904362Y-58692000D01*
X104165638Y-58692000D01*
X104120501Y-58687555D01*
X104083005Y-58676180D01*
X104048446Y-58657708D01*
X104018153Y-58632847D01*
X103993292Y-58602554D01*
X103974820Y-58567995D01*
X103963445Y-58530499D01*
X103959000Y-58485362D01*
X103959000Y-57846638D01*
X103963445Y-57801501D01*
X103974820Y-57764005D01*
X103993292Y-57729446D01*
X104018153Y-57699153D01*
X104048446Y-57674292D01*
X104083005Y-57655820D01*
X104120501Y-57644445D01*
X104165638Y-57640000D01*
X104904362Y-57640000D01*
X104949499Y-57644445D01*
G37*
M02*
