M48
; DRILL file {KiCad 5.1.5-52549c5~84~ubuntu18.04.1} date Fri 07 Feb 2020 02:07:17 PM EST
; FORMAT={-:-/ absolute / metric / decimal}
; #@! TF.CreationDate,2020-02-07T14:07:17-05:00
; #@! TF.GenerationSoftware,Kicad,Pcbnew,5.1.5-52549c5~84~ubuntu18.04.1
FMAT,2
METRIC
T1C0.400
T2C1.000
T3C1.750
T4C2.850
%
G90
G05
T1
X100.33Y-81.534
X102.108Y-78.232
X102.5Y-79.35
X103.378Y-80.264
X104.394Y-105.428
X105.028Y-80.264
X105.918Y-91.186
X106.426Y-92.71
X106.426Y-93.98
X107.442Y-103.124
X107.696Y-94.996
X108.966Y-71.628
X109.22Y-73.406
X110.744Y-79.756
X111.252Y-92.456
X111.252Y-93.726
X111.524Y-80.82
X111.524Y-91.186
T2
X101.346Y-62.992
X101.346Y-65.532
X101.346Y-68.072
X97.79Y-107.95
X97.79Y-110.49
X100.33Y-107.95
X100.33Y-110.49
X102.87Y-107.95
X102.87Y-110.49
T3
X88.012Y-68.326
X88.012Y-72.326
X88.012Y-76.326
X88.012Y-80.326
X88.012Y-84.326
X88.012Y-88.326
X88.012Y-92.326
X88.012Y-96.326
X92.012Y-70.326
X92.012Y-74.326
X92.012Y-78.326
X92.012Y-82.326
X92.012Y-86.326
X92.012Y-90.326
X92.012Y-94.326
X96.012Y-68.326
X96.012Y-72.326
X96.012Y-76.326
X96.012Y-80.326
X96.012Y-84.326
X96.012Y-88.326
X96.012Y-92.326
X96.012Y-96.326
T4
X91.512Y-61.826
X91.512Y-102.826
T0
M30
