G04*
G04 #@! TF.GenerationSoftware,Altium Limited,Altium Designer,20.0.13 (296)*
G04*
G04 Layer_Physical_Order=2*
G04 Layer_Color=16711680*
%FSLAX25Y25*%
%MOIN*%
G70*
G01*
G75*
%ADD12C,0.02000*%
%ADD13C,0.04000*%
%ADD26C,0.06299*%
%ADD28C,0.30000*%
%ADD39C,0.06000*%
%ADD40C,0.05906*%
%ADD41R,0.05906X0.05906*%
G04:AMPARAMS|DCode=42|XSize=157.48mil|YSize=98.43mil|CornerRadius=24.61mil|HoleSize=0mil|Usage=FLASHONLY|Rotation=0.000|XOffset=0mil|YOffset=0mil|HoleType=Round|Shape=RoundedRectangle|*
%AMROUNDEDRECTD42*
21,1,0.15748,0.04921,0,0,0.0*
21,1,0.10827,0.09843,0,0,0.0*
1,1,0.04921,0.05413,-0.02461*
1,1,0.04921,-0.05413,-0.02461*
1,1,0.04921,-0.05413,0.02461*
1,1,0.04921,0.05413,0.02461*
%
%ADD42ROUNDEDRECTD42*%
%ADD43O,0.05512X0.13583*%
%ADD44C,0.12000*%
%ADD45R,0.12000X0.12000*%
%ADD46C,0.14000*%
%ADD47C,0.07874*%
%ADD48R,0.07874X0.07874*%
%ADD49C,0.04724*%
%ADD50R,0.04724X0.04724*%
%ADD51R,0.03740X0.06102*%
%ADD52R,0.03543X0.04921*%
%ADD53R,0.08500X0.07300*%
%ADD54R,0.24800X0.21900*%
%ADD55R,0.35500X0.29000*%
G36*
X90500Y106000D02*
X4539Y106000D01*
Y128688D01*
X5390Y129574D01*
X6539Y130262D01*
X7417Y130176D01*
X8742Y130306D01*
X10015Y130693D01*
X11189Y131320D01*
X12218Y132164D01*
X13062Y133193D01*
X13689Y134367D01*
X14075Y135640D01*
X14206Y136965D01*
Y145035D01*
X14075Y146360D01*
X13689Y147633D01*
X13062Y148807D01*
X12218Y149836D01*
X11189Y150680D01*
X10015Y151307D01*
X8742Y151694D01*
X7417Y151824D01*
X6539Y151737D01*
X5390Y152426D01*
X4539Y153312D01*
Y352500D01*
X41000Y352500D01*
Y389162D01*
X90500D01*
X90500Y106000D01*
D02*
G37*
%LPC*%
G36*
X51579Y375953D02*
Y372500D01*
X55031D01*
X54577Y373597D01*
X53751Y374673D01*
X52676Y375498D01*
X51579Y375953D01*
D02*
G37*
G36*
X48579D02*
X47482Y375498D01*
X46406Y374673D01*
X45581Y373597D01*
X45126Y372500D01*
X48579D01*
Y375953D01*
D02*
G37*
G36*
X55031Y369500D02*
X51579D01*
Y366047D01*
X52676Y366502D01*
X53751Y367327D01*
X54577Y368403D01*
X55031Y369500D01*
D02*
G37*
G36*
X48579D02*
X45126D01*
X45581Y368403D01*
X46406Y367327D01*
X47482Y366502D01*
X48579Y366047D01*
Y369500D01*
D02*
G37*
G36*
X72146Y320937D02*
X67709D01*
Y316500D01*
X72146D01*
Y320937D01*
D02*
G37*
G36*
X64709D02*
X60272D01*
Y316500D01*
X64709D01*
Y320937D01*
D02*
G37*
G36*
X72146Y313500D02*
X67709D01*
Y309063D01*
X72146D01*
Y313500D01*
D02*
G37*
G36*
X64709D02*
X60272D01*
Y309063D01*
X64709D01*
Y313500D01*
D02*
G37*
G36*
X72146Y271187D02*
X67709D01*
Y266750D01*
X72146D01*
Y271187D01*
D02*
G37*
G36*
X64709D02*
X60272D01*
Y266750D01*
X64709D01*
Y271187D01*
D02*
G37*
G36*
X72146Y263750D02*
X67709D01*
Y259313D01*
X72146D01*
Y263750D01*
D02*
G37*
G36*
X64709D02*
X60272D01*
Y259313D01*
X64709D01*
Y263750D01*
D02*
G37*
G36*
X72146Y221437D02*
X67709D01*
Y217000D01*
X72146D01*
Y221437D01*
D02*
G37*
G36*
X64709D02*
X60272D01*
Y217000D01*
X64709D01*
Y221437D01*
D02*
G37*
G36*
X72146Y214000D02*
X67709D01*
Y209563D01*
X72146D01*
Y214000D01*
D02*
G37*
G36*
X64709D02*
X60272D01*
Y209563D01*
X64709D01*
Y214000D01*
D02*
G37*
G36*
X72146Y171687D02*
X67709D01*
Y167250D01*
X72146D01*
Y171687D01*
D02*
G37*
G36*
X64709D02*
X60272D01*
Y167250D01*
X64709D01*
Y171687D01*
D02*
G37*
G36*
X72146Y164250D02*
X67709D01*
Y159813D01*
X72146D01*
Y164250D01*
D02*
G37*
G36*
X64709D02*
X60272D01*
Y159813D01*
X64709D01*
Y164250D01*
D02*
G37*
G36*
X32122Y160558D02*
X28209D01*
Y155098D01*
X36621D01*
Y156059D01*
X36468Y157223D01*
X36018Y158309D01*
X35303Y159240D01*
X34372Y159955D01*
X33286Y160405D01*
X32122Y160558D01*
D02*
G37*
G36*
X25209D02*
X21295D01*
X20131Y160405D01*
X19046Y159955D01*
X18114Y159240D01*
X17399Y158309D01*
X16950Y157223D01*
X16796Y156059D01*
Y155098D01*
X25209D01*
Y160558D01*
D02*
G37*
G36*
X36621Y152098D02*
X28209D01*
Y146639D01*
X32122D01*
X33286Y146792D01*
X34372Y147241D01*
X35303Y147956D01*
X36018Y148888D01*
X36468Y149973D01*
X36621Y151138D01*
Y152098D01*
D02*
G37*
G36*
X25209D02*
X16796D01*
Y151138D01*
X16950Y149973D01*
X17399Y148888D01*
X18114Y147956D01*
X19046Y147241D01*
X20131Y146792D01*
X21295Y146639D01*
X25209D01*
Y152098D01*
D02*
G37*
G36*
X46000Y151824D02*
X44676Y151694D01*
X43402Y151307D01*
X42228Y150680D01*
X41200Y149836D01*
X40356Y148807D01*
X39728Y147633D01*
X39342Y146360D01*
X39211Y145035D01*
Y136965D01*
X39342Y135640D01*
X39728Y134367D01*
X40356Y133193D01*
X41200Y132164D01*
X42228Y131320D01*
X43402Y130693D01*
X44676Y130306D01*
X46000Y130176D01*
X47324Y130306D01*
X48598Y130693D01*
X49771Y131320D01*
X50800Y132164D01*
X51644Y133193D01*
X52272Y134367D01*
X52658Y135640D01*
X52789Y136965D01*
Y145035D01*
X52658Y146360D01*
X52272Y147633D01*
X51644Y148807D01*
X50800Y149836D01*
X49771Y150680D01*
X48598Y151307D01*
X47324Y151694D01*
X46000Y151824D01*
D02*
G37*
G36*
X72146Y121937D02*
X67709D01*
Y117500D01*
X72146D01*
Y121937D01*
D02*
G37*
G36*
X64709D02*
X60272D01*
Y117500D01*
X64709D01*
Y121937D01*
D02*
G37*
G36*
X72146Y114500D02*
X67709D01*
Y110063D01*
X72146D01*
Y114500D01*
D02*
G37*
G36*
X64709D02*
X60272D01*
Y110063D01*
X64709D01*
Y114500D01*
D02*
G37*
%LPD*%
D12*
X252316Y89050D02*
X252366Y89000D01*
X245950Y89050D02*
X252316D01*
X236000Y99000D02*
X245950Y89050D01*
X252366Y89000D02*
X263374D01*
X260240Y115705D02*
Y116000D01*
Y115705D02*
X265000Y110945D01*
Y100000D02*
Y110945D01*
X260240Y116000D02*
Y117083D01*
X254323Y123000D02*
X260240Y117083D01*
X216000Y123000D02*
X254323D01*
X208900Y108000D02*
Y115900D01*
X216000Y123000D01*
X252366Y115606D02*
X252760Y116000D01*
X252366Y105634D02*
Y115606D01*
Y105634D02*
X253000Y105000D01*
D13*
X273578Y89050D02*
Y89971D01*
X275000Y91393D01*
Y100000D01*
D26*
X315272Y385784D02*
D03*
Y293783D02*
D03*
X311961Y185126D02*
D03*
X246272Y239784D02*
D03*
X333000Y18000D02*
D03*
X203079D02*
D03*
X370000Y214000D02*
D03*
Y343921D02*
D03*
X180000Y371000D02*
D03*
X50079D02*
D03*
D28*
X19500Y22500D02*
D03*
D39*
X87500Y132500D02*
X165000D01*
X86000Y134000D02*
X87500Y132500D01*
X190000Y96000D02*
Y107500D01*
X165000Y132500D02*
X190000Y107500D01*
X196000Y90000D02*
X208900D01*
X190000Y96000D02*
X196000Y90000D01*
D40*
X265000Y100000D02*
D03*
D41*
X275000D02*
D03*
D42*
X203383Y310000D02*
D03*
X26709Y153598D02*
D03*
X368000Y117000D02*
D03*
D43*
X184091Y297402D02*
D03*
X222674D02*
D03*
X7417Y141000D02*
D03*
X46000D02*
D03*
X387291Y129598D02*
D03*
X348709D02*
D03*
D44*
X270311Y368657D02*
D03*
Y276658D02*
D03*
X267000Y168000D02*
D03*
X201311Y222657D02*
D03*
D45*
X301689Y368657D02*
D03*
Y276658D02*
D03*
X298378Y168000D02*
D03*
X232689Y222657D02*
D03*
D46*
X374000Y22500D02*
D03*
Y374000D02*
D03*
X19500D02*
D03*
D47*
X199945Y58382D02*
D03*
X180102Y28618D02*
D03*
X105693Y58382D02*
D03*
X154791Y265250D02*
D03*
Y165750D02*
D03*
Y215500D02*
D03*
Y315000D02*
D03*
Y116000D02*
D03*
D48*
X105693Y28618D02*
D03*
X66209Y265250D02*
D03*
Y165750D02*
D03*
Y215500D02*
D03*
Y315000D02*
D03*
Y116000D02*
D03*
D49*
X59665Y44063D02*
D03*
D50*
Y51937D02*
D03*
D51*
X273578Y89050D02*
D03*
X264326D02*
D03*
D52*
X260634Y117083D02*
D03*
X252366D02*
D03*
D53*
X208900Y90000D02*
D03*
Y108000D02*
D03*
D54*
X236000Y99000D02*
D03*
D55*
X238750Y98500D02*
D03*
M02*
