M48
;Layer_Color=9474304
;FILE_FORMAT=2:5
INCH,TZ
;TYPE=PLATED
T1F00S00C0.02756
T2F00S00C0.03543
T3F00S00C0.05118
T5F00S00C0.06693
T6F00S00C0.14200
;TYPE=NON_PLATED
T8F00S00C0.06299
T9F00S00C0.14200
%
T01
X59665Y44063
Y51937
T02
X333000Y18000
X275000Y100000
X265000
X203079Y18000
X370000Y214000
Y343921
X180000Y371000
X50079
T03
X105693Y28618
Y58382
X199945
X180102Y28618
X154791Y116000
X66209
Y165750
Y215500
Y265250
Y315000
X154791
Y265250
Y215500
Y165750
T05
X201311Y222657
X232689
X267000Y168000
X298378
X301689Y276658
X270311
Y368657
X301689
T06
X19500Y22500
T08
X246272Y239784
X311961Y185126
X315272Y293783
Y385784
T09
X374000Y22500
Y374000
X19500
M30
