G04 #@! TF.GenerationSoftware,KiCad,Pcbnew,5.1.5-52549c5~84~ubuntu18.04.1*
G04 #@! TF.CreationDate,2020-02-06T21:07:47-05:00*
G04 #@! TF.ProjectId,FH_fault-latch,46485f66-6175-46c7-942d-6c617463682e,rev?*
G04 #@! TF.SameCoordinates,Original*
G04 #@! TF.FileFunction,Legend,Top*
G04 #@! TF.FilePolarity,Positive*
%FSLAX46Y46*%
G04 Gerber Fmt 4.6, Leading zero omitted, Abs format (unit mm)*
G04 Created by KiCad (PCBNEW 5.1.5-52549c5~84~ubuntu18.04.1) date 2020-02-06 21:07:47*
%MOMM*%
%LPD*%
G04 APERTURE LIST*
%ADD10C,0.400000*%
%ADD11C,0.127000*%
%ADD12C,0.120000*%
%ADD13C,0.150000*%
%ADD14C,0.050000*%
G04 APERTURE END LIST*
D10*
X138248000Y-84724000D02*
G75*
G03X138248000Y-84724000I-200000J0D01*
G01*
D11*
X154448000Y-83774000D02*
X105648000Y-83774000D01*
X114348000Y-45874000D02*
X114348000Y-65174000D01*
X145748000Y-45874000D02*
X114348000Y-45874000D01*
X145748000Y-65174000D02*
X145748000Y-45874000D01*
X114348000Y-65174000D02*
X105648000Y-65174000D01*
X145748000Y-65174000D02*
X114348000Y-65174000D01*
X154448000Y-65174000D02*
X145748000Y-65174000D01*
X154448000Y-65174000D02*
X154448000Y-68724000D01*
X154448000Y-83774000D02*
X154448000Y-68724000D01*
X105648000Y-68724000D02*
X105648000Y-83774000D01*
X105648000Y-68724000D02*
X105648000Y-65174000D01*
X154448000Y-68724000D02*
X105648000Y-68724000D01*
D12*
X148670000Y-87260000D02*
X147970000Y-87260000D01*
X148670000Y-88460000D02*
X148670000Y-87260000D01*
X147970000Y-88460000D02*
X148670000Y-88460000D01*
X147970000Y-87260000D02*
X147970000Y-88460000D01*
X147970000Y-88060000D02*
X148670000Y-87660000D01*
X148670000Y-87890000D02*
X149770000Y-87890000D01*
X147970000Y-87890000D02*
X146870000Y-87890000D01*
X149800000Y-87110000D02*
X149800000Y-86050000D01*
X146800000Y-87110000D02*
X149800000Y-87110000D01*
X146800000Y-86050000D02*
X146800000Y-87090000D01*
X153470000Y-86050000D02*
X143150000Y-86050000D01*
X153470000Y-106720000D02*
X153470000Y-86050000D01*
X143150000Y-106720000D02*
X153470000Y-106720000D01*
X143150000Y-86050000D02*
X143150000Y-106720000D01*
X142990000Y-87200000D02*
X142990000Y-85900000D01*
X142990000Y-85900000D02*
X144200000Y-85900000D01*
X125095000Y-119844500D02*
X128545000Y-119844500D01*
X125095000Y-119844500D02*
X123145000Y-119844500D01*
X125095000Y-114724500D02*
X127045000Y-114724500D01*
X125095000Y-114724500D02*
X123145000Y-114724500D01*
X140512000Y-127306000D02*
X142327000Y-127306000D01*
X140512000Y-127551000D02*
X140512000Y-127306000D01*
X136652000Y-127551000D02*
X140512000Y-127551000D01*
X132792000Y-127551000D02*
X132792000Y-127306000D01*
X136652000Y-127551000D02*
X132792000Y-127551000D01*
X140512000Y-115781000D02*
X140512000Y-116026000D01*
X136652000Y-115781000D02*
X140512000Y-115781000D01*
X132792000Y-115781000D02*
X132792000Y-116026000D01*
X136652000Y-115781000D02*
X132792000Y-115781000D01*
D13*
X109405000Y-117948500D02*
X107980000Y-117948500D01*
X116655000Y-117723500D02*
X116330000Y-117723500D01*
X116655000Y-124973500D02*
X116330000Y-124973500D01*
X109405000Y-124973500D02*
X109730000Y-124973500D01*
X109405000Y-117723500D02*
X109730000Y-117723500D01*
X109405000Y-124973500D02*
X109405000Y-124648500D01*
X116655000Y-124973500D02*
X116655000Y-124648500D01*
X116655000Y-117723500D02*
X116655000Y-118048500D01*
X109405000Y-117723500D02*
X109405000Y-117948500D01*
D12*
X152795000Y-127563000D02*
X152795000Y-126323000D01*
X151555000Y-127563000D02*
X152795000Y-127563000D01*
X143935000Y-115602000D02*
X152555000Y-115602000D01*
X143935000Y-127323000D02*
X152555000Y-127323000D01*
X152555000Y-127323000D02*
X152555000Y-115602000D01*
X143935000Y-127323000D02*
X143935000Y-115602000D01*
X114882000Y-113362000D02*
X114882000Y-112112000D01*
X113632000Y-113362000D02*
X114882000Y-113362000D01*
X111522000Y-108952000D02*
X111522000Y-109452000D01*
X111422000Y-109452000D02*
X111422000Y-108952000D01*
X111622000Y-109452000D02*
X111422000Y-109452000D01*
X111622000Y-108952000D02*
X111622000Y-109452000D01*
X108462000Y-110452000D02*
X109072000Y-110452000D01*
X108462000Y-111752000D02*
X109072000Y-111752000D01*
X114582000Y-110452000D02*
X113972000Y-110452000D01*
X114582000Y-111752000D02*
X113972000Y-111752000D01*
X111022000Y-112452000D02*
X111022000Y-113062000D01*
X109072000Y-112452000D02*
X111022000Y-112452000D01*
X109072000Y-108952000D02*
X109072000Y-112452000D01*
X113972000Y-108952000D02*
X109072000Y-108952000D01*
X113972000Y-112452000D02*
X113972000Y-108952000D01*
X112022000Y-112452000D02*
X113972000Y-112452000D01*
X112022000Y-113062000D02*
X112022000Y-112452000D01*
X112822000Y-113162000D02*
X113122000Y-113162000D01*
X113122000Y-113262000D02*
X113122000Y-113062000D01*
X112822000Y-113262000D02*
X113122000Y-113262000D01*
X112822000Y-113062000D02*
X112822000Y-113262000D01*
X108462000Y-113062000D02*
X114582000Y-113062000D01*
X108462000Y-108342000D02*
X108462000Y-113062000D01*
X114582000Y-108342000D02*
X108462000Y-108342000D01*
X114582000Y-113062000D02*
X114582000Y-108342000D01*
X127243333Y-113362000D02*
X127243333Y-112112000D01*
X125993333Y-113362000D02*
X127243333Y-113362000D01*
X123883333Y-108952000D02*
X123883333Y-109452000D01*
X123783333Y-109452000D02*
X123783333Y-108952000D01*
X123983333Y-109452000D02*
X123783333Y-109452000D01*
X123983333Y-108952000D02*
X123983333Y-109452000D01*
X120823333Y-110452000D02*
X121433333Y-110452000D01*
X120823333Y-111752000D02*
X121433333Y-111752000D01*
X126943333Y-110452000D02*
X126333333Y-110452000D01*
X126943333Y-111752000D02*
X126333333Y-111752000D01*
X123383333Y-112452000D02*
X123383333Y-113062000D01*
X121433333Y-112452000D02*
X123383333Y-112452000D01*
X121433333Y-108952000D02*
X121433333Y-112452000D01*
X126333333Y-108952000D02*
X121433333Y-108952000D01*
X126333333Y-112452000D02*
X126333333Y-108952000D01*
X124383333Y-112452000D02*
X126333333Y-112452000D01*
X124383333Y-113062000D02*
X124383333Y-112452000D01*
X125183333Y-113162000D02*
X125483333Y-113162000D01*
X125483333Y-113262000D02*
X125483333Y-113062000D01*
X125183333Y-113262000D02*
X125483333Y-113262000D01*
X125183333Y-113062000D02*
X125183333Y-113262000D01*
X120823333Y-113062000D02*
X126943333Y-113062000D01*
X120823333Y-108342000D02*
X120823333Y-113062000D01*
X126943333Y-108342000D02*
X120823333Y-108342000D01*
X126943333Y-113062000D02*
X126943333Y-108342000D01*
X139604666Y-113362000D02*
X139604666Y-112112000D01*
X138354666Y-113362000D02*
X139604666Y-113362000D01*
X136244666Y-108952000D02*
X136244666Y-109452000D01*
X136144666Y-109452000D02*
X136144666Y-108952000D01*
X136344666Y-109452000D02*
X136144666Y-109452000D01*
X136344666Y-108952000D02*
X136344666Y-109452000D01*
X133184666Y-110452000D02*
X133794666Y-110452000D01*
X133184666Y-111752000D02*
X133794666Y-111752000D01*
X139304666Y-110452000D02*
X138694666Y-110452000D01*
X139304666Y-111752000D02*
X138694666Y-111752000D01*
X135744666Y-112452000D02*
X135744666Y-113062000D01*
X133794666Y-112452000D02*
X135744666Y-112452000D01*
X133794666Y-108952000D02*
X133794666Y-112452000D01*
X138694666Y-108952000D02*
X133794666Y-108952000D01*
X138694666Y-112452000D02*
X138694666Y-108952000D01*
X136744666Y-112452000D02*
X138694666Y-112452000D01*
X136744666Y-113062000D02*
X136744666Y-112452000D01*
X137544666Y-113162000D02*
X137844666Y-113162000D01*
X137844666Y-113262000D02*
X137844666Y-113062000D01*
X137544666Y-113262000D02*
X137844666Y-113262000D01*
X137544666Y-113062000D02*
X137544666Y-113262000D01*
X133184666Y-113062000D02*
X139304666Y-113062000D01*
X133184666Y-108342000D02*
X133184666Y-113062000D01*
X139304666Y-108342000D02*
X133184666Y-108342000D01*
X139304666Y-113062000D02*
X139304666Y-108342000D01*
X151966000Y-113362000D02*
X151966000Y-112112000D01*
X150716000Y-113362000D02*
X151966000Y-113362000D01*
X148606000Y-108952000D02*
X148606000Y-109452000D01*
X148506000Y-109452000D02*
X148506000Y-108952000D01*
X148706000Y-109452000D02*
X148506000Y-109452000D01*
X148706000Y-108952000D02*
X148706000Y-109452000D01*
X145546000Y-110452000D02*
X146156000Y-110452000D01*
X145546000Y-111752000D02*
X146156000Y-111752000D01*
X151666000Y-110452000D02*
X151056000Y-110452000D01*
X151666000Y-111752000D02*
X151056000Y-111752000D01*
X148106000Y-112452000D02*
X148106000Y-113062000D01*
X146156000Y-112452000D02*
X148106000Y-112452000D01*
X146156000Y-108952000D02*
X146156000Y-112452000D01*
X151056000Y-108952000D02*
X146156000Y-108952000D01*
X151056000Y-112452000D02*
X151056000Y-108952000D01*
X149106000Y-112452000D02*
X151056000Y-112452000D01*
X149106000Y-113062000D02*
X149106000Y-112452000D01*
X149906000Y-113162000D02*
X150206000Y-113162000D01*
X150206000Y-113262000D02*
X150206000Y-113062000D01*
X149906000Y-113262000D02*
X150206000Y-113262000D01*
X149906000Y-113062000D02*
X149906000Y-113262000D01*
X145546000Y-113062000D02*
X151666000Y-113062000D01*
X145546000Y-108342000D02*
X145546000Y-113062000D01*
X151666000Y-108342000D02*
X145546000Y-108342000D01*
X151666000Y-113062000D02*
X151666000Y-108342000D01*
X112120000Y-87260000D02*
X111420000Y-87260000D01*
X112120000Y-88460000D02*
X112120000Y-87260000D01*
X111420000Y-88460000D02*
X112120000Y-88460000D01*
X111420000Y-87260000D02*
X111420000Y-88460000D01*
X111420000Y-88060000D02*
X112120000Y-87660000D01*
X112120000Y-87890000D02*
X113220000Y-87890000D01*
X111420000Y-87890000D02*
X110320000Y-87890000D01*
X113250000Y-87110000D02*
X113250000Y-86050000D01*
X110250000Y-87110000D02*
X113250000Y-87110000D01*
X110250000Y-86050000D02*
X110250000Y-87090000D01*
X116920000Y-86050000D02*
X106600000Y-86050000D01*
X116920000Y-106720000D02*
X116920000Y-86050000D01*
X106600000Y-106720000D02*
X116920000Y-106720000D01*
X106600000Y-86050000D02*
X106600000Y-106720000D01*
X106440000Y-87200000D02*
X106440000Y-85900000D01*
X106440000Y-85900000D02*
X107650000Y-85900000D01*
X124303333Y-87260000D02*
X123603333Y-87260000D01*
X124303333Y-88460000D02*
X124303333Y-87260000D01*
X123603333Y-88460000D02*
X124303333Y-88460000D01*
X123603333Y-87260000D02*
X123603333Y-88460000D01*
X123603333Y-88060000D02*
X124303333Y-87660000D01*
X124303333Y-87890000D02*
X125403333Y-87890000D01*
X123603333Y-87890000D02*
X122503333Y-87890000D01*
X125433333Y-87110000D02*
X125433333Y-86050000D01*
X122433333Y-87110000D02*
X125433333Y-87110000D01*
X122433333Y-86050000D02*
X122433333Y-87090000D01*
X129103333Y-86050000D02*
X118783333Y-86050000D01*
X129103333Y-106720000D02*
X129103333Y-86050000D01*
X118783333Y-106720000D02*
X129103333Y-106720000D01*
X118783333Y-86050000D02*
X118783333Y-106720000D01*
X118623333Y-87200000D02*
X118623333Y-85900000D01*
X118623333Y-85900000D02*
X119833333Y-85900000D01*
X136486666Y-87260000D02*
X135786666Y-87260000D01*
X136486666Y-88460000D02*
X136486666Y-87260000D01*
X135786666Y-88460000D02*
X136486666Y-88460000D01*
X135786666Y-87260000D02*
X135786666Y-88460000D01*
X135786666Y-88060000D02*
X136486666Y-87660000D01*
X136486666Y-87890000D02*
X137586666Y-87890000D01*
X135786666Y-87890000D02*
X134686666Y-87890000D01*
X137616666Y-87110000D02*
X137616666Y-86050000D01*
X134616666Y-87110000D02*
X137616666Y-87110000D01*
X134616666Y-86050000D02*
X134616666Y-87090000D01*
X141286666Y-86050000D02*
X130966666Y-86050000D01*
X141286666Y-106720000D02*
X141286666Y-86050000D01*
X130966666Y-106720000D02*
X141286666Y-106720000D01*
X130966666Y-86050000D02*
X130966666Y-106720000D01*
X130806666Y-87200000D02*
X130806666Y-85900000D01*
X130806666Y-85900000D02*
X132016666Y-85900000D01*
X129028500Y-125920500D02*
X129028500Y-127250500D01*
X129028500Y-127250500D02*
X127698500Y-127250500D01*
X129028500Y-124650500D02*
X126428500Y-124650500D01*
X126428500Y-124650500D02*
X126428500Y-127250500D01*
X126428500Y-127250500D02*
X121288500Y-127250500D01*
X121288500Y-122050500D02*
X121288500Y-127250500D01*
X129028500Y-122050500D02*
X121288500Y-122050500D01*
X129028500Y-122050500D02*
X129028500Y-124650500D01*
D14*
X151716720Y-84574648D02*
X151716720Y-85290320D01*
X151669008Y-85433454D01*
X151573585Y-85528877D01*
X151430451Y-85576588D01*
X151335028Y-85576588D01*
X152146122Y-84670071D02*
X152193834Y-84622360D01*
X152289257Y-84574648D01*
X152527814Y-84574648D01*
X152623237Y-84622360D01*
X152670948Y-84670071D01*
X152718660Y-84765494D01*
X152718660Y-84860917D01*
X152670948Y-85004051D01*
X152098411Y-85576588D01*
X152718660Y-85576588D01*
X146894311Y-64208642D02*
X146846665Y-64256288D01*
X146703728Y-64303934D01*
X146608437Y-64303934D01*
X146465500Y-64256288D01*
X146370208Y-64160997D01*
X146322562Y-64065705D01*
X146274917Y-63875122D01*
X146274917Y-63732185D01*
X146322562Y-63541602D01*
X146370208Y-63446311D01*
X146465500Y-63351020D01*
X146608437Y-63303374D01*
X146703728Y-63303374D01*
X146846665Y-63351020D01*
X146894311Y-63398665D01*
X147466060Y-64303934D02*
X147370768Y-64256288D01*
X147323122Y-64208642D01*
X147275477Y-64113351D01*
X147275477Y-63827477D01*
X147323122Y-63732185D01*
X147370768Y-63684540D01*
X147466060Y-63636894D01*
X147608997Y-63636894D01*
X147704288Y-63684540D01*
X147751934Y-63732185D01*
X147799580Y-63827477D01*
X147799580Y-64113351D01*
X147751934Y-64208642D01*
X147704288Y-64256288D01*
X147608997Y-64303934D01*
X147466060Y-64303934D01*
X148228391Y-63636894D02*
X148228391Y-64303934D01*
X148228391Y-63732185D02*
X148276037Y-63684540D01*
X148371328Y-63636894D01*
X148514265Y-63636894D01*
X148609557Y-63684540D01*
X148657202Y-63779831D01*
X148657202Y-64303934D01*
X149133660Y-63636894D02*
X149133660Y-64303934D01*
X149133660Y-63732185D02*
X149181305Y-63684540D01*
X149276597Y-63636894D01*
X149419534Y-63636894D01*
X149514825Y-63684540D01*
X149562471Y-63779831D01*
X149562471Y-64303934D01*
X149800700Y-64399225D02*
X150563031Y-64399225D01*
X150991842Y-63303374D02*
X151087134Y-63303374D01*
X151182425Y-63351020D01*
X151230071Y-63398665D01*
X151277717Y-63493957D01*
X151325362Y-63684540D01*
X151325362Y-63922768D01*
X151277717Y-64113351D01*
X151230071Y-64208642D01*
X151182425Y-64256288D01*
X151087134Y-64303934D01*
X150991842Y-64303934D01*
X150896551Y-64256288D01*
X150848905Y-64208642D01*
X150801260Y-64113351D01*
X150753614Y-63922768D01*
X150753614Y-63684540D01*
X150801260Y-63493957D01*
X150848905Y-63398665D01*
X150896551Y-63351020D01*
X150991842Y-63303374D01*
X152278277Y-64303934D02*
X151706528Y-64303934D01*
X151992402Y-64303934D02*
X151992402Y-63303374D01*
X151897111Y-63446311D01*
X151801820Y-63541602D01*
X151706528Y-63589248D01*
X152611797Y-64303934D02*
X153135900Y-63636894D01*
X152611797Y-63636894D02*
X153135900Y-64303934D01*
X154041168Y-64303934D02*
X153469420Y-64303934D01*
X153755294Y-64303934D02*
X153755294Y-63303374D01*
X153660002Y-63446311D01*
X153564711Y-63541602D01*
X153469420Y-63589248D01*
X154898791Y-63636894D02*
X154898791Y-64303934D01*
X154660562Y-63255728D02*
X154422334Y-63970414D01*
X155041728Y-63970414D01*
D13*
X146361904Y-85652380D02*
X146361904Y-84652380D01*
X146933333Y-85652380D02*
X146504761Y-85080952D01*
X146933333Y-84652380D02*
X146361904Y-85223809D01*
X147885714Y-85652380D02*
X147314285Y-85652380D01*
X147600000Y-85652380D02*
X147600000Y-84652380D01*
X147504761Y-84795238D01*
X147409523Y-84890476D01*
X147314285Y-84938095D01*
X124333095Y-120136880D02*
X124333095Y-120946404D01*
X124380714Y-121041642D01*
X124428333Y-121089261D01*
X124523571Y-121136880D01*
X124714047Y-121136880D01*
X124809285Y-121089261D01*
X124856904Y-121041642D01*
X124904523Y-120946404D01*
X124904523Y-120136880D01*
X125809285Y-120470214D02*
X125809285Y-121136880D01*
X125571190Y-120089261D02*
X125333095Y-120803547D01*
X125952142Y-120803547D01*
X135890095Y-127838380D02*
X135890095Y-128647904D01*
X135937714Y-128743142D01*
X135985333Y-128790761D01*
X136080571Y-128838380D01*
X136271047Y-128838380D01*
X136366285Y-128790761D01*
X136413904Y-128743142D01*
X136461523Y-128647904D01*
X136461523Y-127838380D01*
X136842476Y-127838380D02*
X137461523Y-127838380D01*
X137128190Y-128219333D01*
X137271047Y-128219333D01*
X137366285Y-128266952D01*
X137413904Y-128314571D01*
X137461523Y-128409809D01*
X137461523Y-128647904D01*
X137413904Y-128743142D01*
X137366285Y-128790761D01*
X137271047Y-128838380D01*
X136985333Y-128838380D01*
X136890095Y-128790761D01*
X136842476Y-128743142D01*
X112268095Y-114750880D02*
X112268095Y-115560404D01*
X112315714Y-115655642D01*
X112363333Y-115703261D01*
X112458571Y-115750880D01*
X112649047Y-115750880D01*
X112744285Y-115703261D01*
X112791904Y-115655642D01*
X112839523Y-115560404D01*
X112839523Y-114750880D01*
X113268095Y-114846119D02*
X113315714Y-114798500D01*
X113410952Y-114750880D01*
X113649047Y-114750880D01*
X113744285Y-114798500D01*
X113791904Y-114846119D01*
X113839523Y-114941357D01*
X113839523Y-115036595D01*
X113791904Y-115179452D01*
X113220476Y-115750880D01*
X113839523Y-115750880D01*
X142387380Y-122173904D02*
X143196904Y-122173904D01*
X143292142Y-122126285D01*
X143339761Y-122078666D01*
X143387380Y-121983428D01*
X143387380Y-121792952D01*
X143339761Y-121697714D01*
X143292142Y-121650095D01*
X143196904Y-121602476D01*
X142387380Y-121602476D01*
X143387380Y-120602476D02*
X143387380Y-121173904D01*
X143387380Y-120888190D02*
X142387380Y-120888190D01*
X142530238Y-120983428D01*
X142625476Y-121078666D01*
X142673095Y-121173904D01*
X107449880Y-111561428D02*
X106449880Y-111561428D01*
X107449880Y-111085238D02*
X106449880Y-111085238D01*
X107164166Y-110751904D01*
X106449880Y-110418571D01*
X107449880Y-110418571D01*
X107449880Y-109942380D02*
X106449880Y-109942380D01*
X106449880Y-109704285D01*
X106497500Y-109561428D01*
X106592738Y-109466190D01*
X106687976Y-109418571D01*
X106878452Y-109370952D01*
X107021309Y-109370952D01*
X107211785Y-109418571D01*
X107307023Y-109466190D01*
X107402261Y-109561428D01*
X107449880Y-109704285D01*
X107449880Y-109942380D01*
X118832380Y-112617023D02*
X118832380Y-112045595D01*
X119832380Y-112331309D02*
X118832380Y-112331309D01*
X119832380Y-111712261D02*
X118832380Y-111712261D01*
X119546666Y-111378928D01*
X118832380Y-111045595D01*
X119832380Y-111045595D01*
X119784761Y-110617023D02*
X119832380Y-110474166D01*
X119832380Y-110236071D01*
X119784761Y-110140833D01*
X119737142Y-110093214D01*
X119641904Y-110045595D01*
X119546666Y-110045595D01*
X119451428Y-110093214D01*
X119403809Y-110140833D01*
X119356190Y-110236071D01*
X119308571Y-110426547D01*
X119260952Y-110521785D01*
X119213333Y-110569404D01*
X119118095Y-110617023D01*
X119022857Y-110617023D01*
X118927619Y-110569404D01*
X118880000Y-110521785D01*
X118832380Y-110426547D01*
X118832380Y-110188452D01*
X118880000Y-110045595D01*
X118927619Y-109664642D02*
X118880000Y-109617023D01*
X118832380Y-109521785D01*
X118832380Y-109283690D01*
X118880000Y-109188452D01*
X118927619Y-109140833D01*
X119022857Y-109093214D01*
X119118095Y-109093214D01*
X119260952Y-109140833D01*
X119832380Y-109712261D01*
X119832380Y-109093214D01*
X131151380Y-112426523D02*
X131151380Y-111855095D01*
X132151380Y-112140809D02*
X131151380Y-112140809D01*
X132151380Y-111521761D02*
X131151380Y-111521761D01*
X131865666Y-111188428D01*
X131151380Y-110855095D01*
X132151380Y-110855095D01*
X132103761Y-110426523D02*
X132151380Y-110283666D01*
X132151380Y-110045571D01*
X132103761Y-109950333D01*
X132056142Y-109902714D01*
X131960904Y-109855095D01*
X131865666Y-109855095D01*
X131770428Y-109902714D01*
X131722809Y-109950333D01*
X131675190Y-110045571D01*
X131627571Y-110236047D01*
X131579952Y-110331285D01*
X131532333Y-110378904D01*
X131437095Y-110426523D01*
X131341857Y-110426523D01*
X131246619Y-110378904D01*
X131199000Y-110331285D01*
X131151380Y-110236047D01*
X131151380Y-109997952D01*
X131199000Y-109855095D01*
X132151380Y-108902714D02*
X132151380Y-109474142D01*
X132151380Y-109188428D02*
X131151380Y-109188428D01*
X131294238Y-109283666D01*
X131389476Y-109378904D01*
X131437095Y-109474142D01*
X144327571Y-111593190D02*
X144375190Y-111450333D01*
X144422809Y-111402714D01*
X144518047Y-111355095D01*
X144660904Y-111355095D01*
X144756142Y-111402714D01*
X144803761Y-111450333D01*
X144851380Y-111545571D01*
X144851380Y-111926523D01*
X143851380Y-111926523D01*
X143851380Y-111593190D01*
X143899000Y-111497952D01*
X143946619Y-111450333D01*
X144041857Y-111402714D01*
X144137095Y-111402714D01*
X144232333Y-111450333D01*
X144279952Y-111497952D01*
X144327571Y-111593190D01*
X144327571Y-111926523D01*
X144851380Y-110926523D02*
X143851380Y-110926523D01*
X144565666Y-110593190D01*
X143851380Y-110259857D01*
X144851380Y-110259857D01*
X144803761Y-109831285D02*
X144851380Y-109688428D01*
X144851380Y-109450333D01*
X144803761Y-109355095D01*
X144756142Y-109307476D01*
X144660904Y-109259857D01*
X144565666Y-109259857D01*
X144470428Y-109307476D01*
X144422809Y-109355095D01*
X144375190Y-109450333D01*
X144327571Y-109640809D01*
X144279952Y-109736047D01*
X144232333Y-109783666D01*
X144137095Y-109831285D01*
X144041857Y-109831285D01*
X143946619Y-109783666D01*
X143899000Y-109736047D01*
X143851380Y-109640809D01*
X143851380Y-109402714D01*
X143899000Y-109259857D01*
X109811904Y-85652380D02*
X109811904Y-84652380D01*
X110383333Y-85652380D02*
X109954761Y-85080952D01*
X110383333Y-84652380D02*
X109811904Y-85223809D01*
X111240476Y-84985714D02*
X111240476Y-85652380D01*
X111002380Y-84604761D02*
X110764285Y-85319047D01*
X111383333Y-85319047D01*
X121995237Y-85652380D02*
X121995237Y-84652380D01*
X122566666Y-85652380D02*
X122138094Y-85080952D01*
X122566666Y-84652380D02*
X121995237Y-85223809D01*
X122899999Y-84652380D02*
X123519047Y-84652380D01*
X123185713Y-85033333D01*
X123328571Y-85033333D01*
X123423809Y-85080952D01*
X123471428Y-85128571D01*
X123519047Y-85223809D01*
X123519047Y-85461904D01*
X123471428Y-85557142D01*
X123423809Y-85604761D01*
X123328571Y-85652380D01*
X123042856Y-85652380D01*
X122947618Y-85604761D01*
X122899999Y-85557142D01*
X134178570Y-85652380D02*
X134178570Y-84652380D01*
X134749999Y-85652380D02*
X134321427Y-85080952D01*
X134749999Y-84652380D02*
X134178570Y-85223809D01*
X135130951Y-84747619D02*
X135178570Y-84700000D01*
X135273808Y-84652380D01*
X135511904Y-84652380D01*
X135607142Y-84700000D01*
X135654761Y-84747619D01*
X135702380Y-84842857D01*
X135702380Y-84938095D01*
X135654761Y-85080952D01*
X135083332Y-85652380D01*
X135702380Y-85652380D01*
X129920880Y-124983833D02*
X130635166Y-124983833D01*
X130778023Y-125031452D01*
X130873261Y-125126690D01*
X130920880Y-125269547D01*
X130920880Y-125364785D01*
X130920880Y-123983833D02*
X130920880Y-124555261D01*
X130920880Y-124269547D02*
X129920880Y-124269547D01*
X130063738Y-124364785D01*
X130158976Y-124460023D01*
X130206595Y-124555261D01*
M02*
