G04 #@! TF.GenerationSoftware,KiCad,Pcbnew,5.1.5-52549c5~84~ubuntu18.04.1*
G04 #@! TF.CreationDate,2020-03-02T21:01:08-05:00*
G04 #@! TF.ProjectId,left-board_rev2,6c656674-2d62-46f6-9172-645f72657632,rev?*
G04 #@! TF.SameCoordinates,Original*
G04 #@! TF.FileFunction,Legend,Top*
G04 #@! TF.FilePolarity,Positive*
%FSLAX46Y46*%
G04 Gerber Fmt 4.6, Leading zero omitted, Abs format (unit mm)*
G04 Created by KiCad (PCBNEW 5.1.5-52549c5~84~ubuntu18.04.1) date 2020-03-02 21:01:08*
%MOMM*%
%LPD*%
G04 APERTURE LIST*
%ADD10C,0.010000*%
%ADD11C,0.120000*%
%ADD12C,0.150000*%
G04 APERTURE END LIST*
D10*
G36*
X112322832Y-40238187D02*
G01*
X112453505Y-40257542D01*
X112705681Y-40334216D01*
X112951831Y-40451701D01*
X113197430Y-40615249D01*
X113447955Y-40830112D01*
X113708882Y-41101543D01*
X113985687Y-41434793D01*
X114283847Y-41835114D01*
X114608837Y-42307759D01*
X114639904Y-42354500D01*
X114864325Y-42688854D01*
X115057289Y-42966137D01*
X115230565Y-43202080D01*
X115395921Y-43412411D01*
X115565126Y-43612862D01*
X115669251Y-43730333D01*
X115857066Y-43928488D01*
X116068081Y-44133822D01*
X116284960Y-44330894D01*
X116490369Y-44504259D01*
X116666973Y-44638474D01*
X116748462Y-44691753D01*
X116932090Y-44801062D01*
X117595128Y-44690934D01*
X118014689Y-44624907D01*
X118370316Y-44579348D01*
X118680408Y-44554998D01*
X118963368Y-44552596D01*
X119237597Y-44572880D01*
X119521494Y-44616591D01*
X119833463Y-44684468D01*
X120191902Y-44777250D01*
X120269000Y-44798367D01*
X120635244Y-44893303D01*
X120939336Y-44955747D01*
X121197498Y-44985241D01*
X121425952Y-44981324D01*
X121640919Y-44943537D01*
X121858622Y-44871420D01*
X122095282Y-44764513D01*
X122133238Y-44745539D01*
X122409381Y-44596125D01*
X122667952Y-44433007D01*
X122919975Y-44246808D01*
X123176471Y-44028154D01*
X123448467Y-43767669D01*
X123746983Y-43455980D01*
X124070351Y-43098064D01*
X124459106Y-42665597D01*
X124817706Y-42280586D01*
X125142163Y-41947009D01*
X125428491Y-41668844D01*
X125672704Y-41450068D01*
X125870814Y-41294659D01*
X125893361Y-41279055D01*
X126218177Y-41079729D01*
X126503000Y-40952411D01*
X126752704Y-40897307D01*
X126972161Y-40914624D01*
X127166244Y-41004567D01*
X127339827Y-41167343D01*
X127464455Y-41345549D01*
X127668622Y-41760759D01*
X127820249Y-42235357D01*
X127919348Y-42762348D01*
X127965931Y-43334735D01*
X127960011Y-43945524D01*
X127901598Y-44587718D01*
X127790706Y-45254324D01*
X127627345Y-45938344D01*
X127455636Y-46503166D01*
X127382915Y-46726679D01*
X127321154Y-46926905D01*
X127275016Y-47087891D01*
X127249162Y-47193684D01*
X127245282Y-47222833D01*
X127233856Y-47458241D01*
X127196333Y-47743534D01*
X127137849Y-48049901D01*
X127063541Y-48348529D01*
X127017781Y-48499053D01*
X126955994Y-48690217D01*
X126915256Y-48837568D01*
X126895535Y-48962578D01*
X126896800Y-49086718D01*
X126919020Y-49231460D01*
X126962164Y-49418275D01*
X127016131Y-49629550D01*
X127070293Y-49855539D01*
X127121809Y-50097689D01*
X127162104Y-50314801D01*
X127172460Y-50380587D01*
X127192347Y-50584167D01*
X127202257Y-50837096D01*
X127202847Y-51117495D01*
X127194772Y-51403484D01*
X127178687Y-51673185D01*
X127155247Y-51904718D01*
X127125108Y-52076204D01*
X127121221Y-52091166D01*
X127063500Y-52302833D01*
X119290279Y-52313529D01*
X111517059Y-52324225D01*
X111469490Y-52080695D01*
X111379079Y-51424985D01*
X111354715Y-50740298D01*
X111361553Y-50624065D01*
X116655546Y-50624065D01*
X116676500Y-50770696D01*
X116737640Y-50890663D01*
X116824416Y-50960500D01*
X116869652Y-50969333D01*
X116959237Y-51006488D01*
X117053653Y-51103295D01*
X117135300Y-51237762D01*
X117179170Y-51356050D01*
X117251868Y-51563079D01*
X117351517Y-51710257D01*
X117487883Y-51817862D01*
X117674406Y-51888970D01*
X117864112Y-51886224D01*
X118026705Y-51815022D01*
X118127450Y-51705135D01*
X118218875Y-51533971D01*
X118237555Y-51486939D01*
X118314142Y-51303697D01*
X118388544Y-51186129D01*
X118476291Y-51117118D01*
X118592914Y-51079545D01*
X118610183Y-51076227D01*
X118792121Y-51025629D01*
X118902168Y-50948108D01*
X118951392Y-50833659D01*
X118956666Y-50763042D01*
X118920472Y-50591867D01*
X118825439Y-50420340D01*
X118691889Y-50278140D01*
X118576311Y-50207600D01*
X118480346Y-50178102D01*
X118374743Y-50173527D01*
X118228469Y-50193642D01*
X118171575Y-50204544D01*
X118025684Y-50229837D01*
X117910429Y-50235557D01*
X117792035Y-50219303D01*
X117636729Y-50178679D01*
X117582304Y-50162691D01*
X117343354Y-50107086D01*
X117154107Y-50103343D01*
X116994605Y-50155203D01*
X116844891Y-50266408D01*
X116801701Y-50309003D01*
X116703580Y-50431610D01*
X116661371Y-50553001D01*
X116655546Y-50624065D01*
X111361553Y-50624065D01*
X111395370Y-50049329D01*
X111500018Y-49374768D01*
X111607667Y-48938235D01*
X113742310Y-48938235D01*
X113776621Y-49163470D01*
X113874881Y-49351484D01*
X114057649Y-49536984D01*
X114310296Y-49691804D01*
X114621903Y-49810568D01*
X114956166Y-49884118D01*
X115127988Y-49896177D01*
X115349120Y-49892229D01*
X115586244Y-49874737D01*
X115806044Y-49846162D01*
X115975201Y-49808968D01*
X115975908Y-49808751D01*
X116240332Y-49701792D01*
X116432975Y-49560258D01*
X116487034Y-49482161D01*
X120116041Y-49482161D01*
X120151498Y-49633071D01*
X120154824Y-49639696D01*
X120316046Y-49858590D01*
X120547392Y-50037992D01*
X120842916Y-50175583D01*
X121196674Y-50269039D01*
X121602718Y-50316042D01*
X121898833Y-50320438D01*
X122134482Y-50312708D01*
X122307603Y-50299189D01*
X122440299Y-50276574D01*
X122554673Y-50241553D01*
X122628111Y-50211257D01*
X122831884Y-50090598D01*
X123017285Y-49926342D01*
X123161482Y-49741732D01*
X123231004Y-49597526D01*
X123258298Y-49386866D01*
X123216726Y-49154212D01*
X123114443Y-48912720D01*
X122959608Y-48675548D01*
X122760377Y-48455854D01*
X122524909Y-48266795D01*
X122338126Y-48157335D01*
X121976151Y-48009846D01*
X121627046Y-47932831D01*
X121298483Y-47925384D01*
X120998136Y-47986599D01*
X120733679Y-48115570D01*
X120512787Y-48311393D01*
X120459038Y-48379102D01*
X120337129Y-48579625D01*
X120237056Y-48810160D01*
X120163638Y-49050738D01*
X120121694Y-49281394D01*
X120116041Y-49482161D01*
X116487034Y-49482161D01*
X116562454Y-49373206D01*
X116637392Y-49129692D01*
X116660691Y-48939411D01*
X116648906Y-48595263D01*
X116563769Y-48291111D01*
X116408494Y-48030814D01*
X116186297Y-47818230D01*
X115900391Y-47657217D01*
X115553991Y-47551635D01*
X115495144Y-47540488D01*
X115148202Y-47519956D01*
X114818944Y-47579247D01*
X114515355Y-47714074D01*
X114245420Y-47920152D01*
X114017125Y-48193193D01*
X113898262Y-48397684D01*
X113782812Y-48684794D01*
X113742310Y-48938235D01*
X111607667Y-48938235D01*
X111612589Y-48918278D01*
X111709869Y-48581723D01*
X111626717Y-48262111D01*
X111593861Y-48120622D01*
X111571371Y-47979247D01*
X111557861Y-47818681D01*
X111551949Y-47619620D01*
X111552251Y-47362760D01*
X111553735Y-47244000D01*
X111555976Y-46954765D01*
X111551741Y-46722894D01*
X111538876Y-46521193D01*
X111515229Y-46322470D01*
X111478646Y-46099531D01*
X111451491Y-45952833D01*
X111380523Y-45543952D01*
X111327053Y-45149722D01*
X111289324Y-44748677D01*
X111265579Y-44319351D01*
X111254061Y-43840280D01*
X111252289Y-43518666D01*
X111259153Y-42941791D01*
X111280490Y-42434098D01*
X111317417Y-41981164D01*
X111371048Y-41568565D01*
X111427540Y-41253833D01*
X111488401Y-40995681D01*
X111560509Y-40757279D01*
X111637948Y-40553788D01*
X111714801Y-40400368D01*
X111785151Y-40312178D01*
X111798478Y-40303399D01*
X111938371Y-40257968D01*
X112124977Y-40235403D01*
X112322832Y-40238187D01*
G37*
X112322832Y-40238187D02*
X112453505Y-40257542D01*
X112705681Y-40334216D01*
X112951831Y-40451701D01*
X113197430Y-40615249D01*
X113447955Y-40830112D01*
X113708882Y-41101543D01*
X113985687Y-41434793D01*
X114283847Y-41835114D01*
X114608837Y-42307759D01*
X114639904Y-42354500D01*
X114864325Y-42688854D01*
X115057289Y-42966137D01*
X115230565Y-43202080D01*
X115395921Y-43412411D01*
X115565126Y-43612862D01*
X115669251Y-43730333D01*
X115857066Y-43928488D01*
X116068081Y-44133822D01*
X116284960Y-44330894D01*
X116490369Y-44504259D01*
X116666973Y-44638474D01*
X116748462Y-44691753D01*
X116932090Y-44801062D01*
X117595128Y-44690934D01*
X118014689Y-44624907D01*
X118370316Y-44579348D01*
X118680408Y-44554998D01*
X118963368Y-44552596D01*
X119237597Y-44572880D01*
X119521494Y-44616591D01*
X119833463Y-44684468D01*
X120191902Y-44777250D01*
X120269000Y-44798367D01*
X120635244Y-44893303D01*
X120939336Y-44955747D01*
X121197498Y-44985241D01*
X121425952Y-44981324D01*
X121640919Y-44943537D01*
X121858622Y-44871420D01*
X122095282Y-44764513D01*
X122133238Y-44745539D01*
X122409381Y-44596125D01*
X122667952Y-44433007D01*
X122919975Y-44246808D01*
X123176471Y-44028154D01*
X123448467Y-43767669D01*
X123746983Y-43455980D01*
X124070351Y-43098064D01*
X124459106Y-42665597D01*
X124817706Y-42280586D01*
X125142163Y-41947009D01*
X125428491Y-41668844D01*
X125672704Y-41450068D01*
X125870814Y-41294659D01*
X125893361Y-41279055D01*
X126218177Y-41079729D01*
X126503000Y-40952411D01*
X126752704Y-40897307D01*
X126972161Y-40914624D01*
X127166244Y-41004567D01*
X127339827Y-41167343D01*
X127464455Y-41345549D01*
X127668622Y-41760759D01*
X127820249Y-42235357D01*
X127919348Y-42762348D01*
X127965931Y-43334735D01*
X127960011Y-43945524D01*
X127901598Y-44587718D01*
X127790706Y-45254324D01*
X127627345Y-45938344D01*
X127455636Y-46503166D01*
X127382915Y-46726679D01*
X127321154Y-46926905D01*
X127275016Y-47087891D01*
X127249162Y-47193684D01*
X127245282Y-47222833D01*
X127233856Y-47458241D01*
X127196333Y-47743534D01*
X127137849Y-48049901D01*
X127063541Y-48348529D01*
X127017781Y-48499053D01*
X126955994Y-48690217D01*
X126915256Y-48837568D01*
X126895535Y-48962578D01*
X126896800Y-49086718D01*
X126919020Y-49231460D01*
X126962164Y-49418275D01*
X127016131Y-49629550D01*
X127070293Y-49855539D01*
X127121809Y-50097689D01*
X127162104Y-50314801D01*
X127172460Y-50380587D01*
X127192347Y-50584167D01*
X127202257Y-50837096D01*
X127202847Y-51117495D01*
X127194772Y-51403484D01*
X127178687Y-51673185D01*
X127155247Y-51904718D01*
X127125108Y-52076204D01*
X127121221Y-52091166D01*
X127063500Y-52302833D01*
X119290279Y-52313529D01*
X111517059Y-52324225D01*
X111469490Y-52080695D01*
X111379079Y-51424985D01*
X111354715Y-50740298D01*
X111361553Y-50624065D01*
X116655546Y-50624065D01*
X116676500Y-50770696D01*
X116737640Y-50890663D01*
X116824416Y-50960500D01*
X116869652Y-50969333D01*
X116959237Y-51006488D01*
X117053653Y-51103295D01*
X117135300Y-51237762D01*
X117179170Y-51356050D01*
X117251868Y-51563079D01*
X117351517Y-51710257D01*
X117487883Y-51817862D01*
X117674406Y-51888970D01*
X117864112Y-51886224D01*
X118026705Y-51815022D01*
X118127450Y-51705135D01*
X118218875Y-51533971D01*
X118237555Y-51486939D01*
X118314142Y-51303697D01*
X118388544Y-51186129D01*
X118476291Y-51117118D01*
X118592914Y-51079545D01*
X118610183Y-51076227D01*
X118792121Y-51025629D01*
X118902168Y-50948108D01*
X118951392Y-50833659D01*
X118956666Y-50763042D01*
X118920472Y-50591867D01*
X118825439Y-50420340D01*
X118691889Y-50278140D01*
X118576311Y-50207600D01*
X118480346Y-50178102D01*
X118374743Y-50173527D01*
X118228469Y-50193642D01*
X118171575Y-50204544D01*
X118025684Y-50229837D01*
X117910429Y-50235557D01*
X117792035Y-50219303D01*
X117636729Y-50178679D01*
X117582304Y-50162691D01*
X117343354Y-50107086D01*
X117154107Y-50103343D01*
X116994605Y-50155203D01*
X116844891Y-50266408D01*
X116801701Y-50309003D01*
X116703580Y-50431610D01*
X116661371Y-50553001D01*
X116655546Y-50624065D01*
X111361553Y-50624065D01*
X111395370Y-50049329D01*
X111500018Y-49374768D01*
X111607667Y-48938235D01*
X113742310Y-48938235D01*
X113776621Y-49163470D01*
X113874881Y-49351484D01*
X114057649Y-49536984D01*
X114310296Y-49691804D01*
X114621903Y-49810568D01*
X114956166Y-49884118D01*
X115127988Y-49896177D01*
X115349120Y-49892229D01*
X115586244Y-49874737D01*
X115806044Y-49846162D01*
X115975201Y-49808968D01*
X115975908Y-49808751D01*
X116240332Y-49701792D01*
X116432975Y-49560258D01*
X116487034Y-49482161D01*
X120116041Y-49482161D01*
X120151498Y-49633071D01*
X120154824Y-49639696D01*
X120316046Y-49858590D01*
X120547392Y-50037992D01*
X120842916Y-50175583D01*
X121196674Y-50269039D01*
X121602718Y-50316042D01*
X121898833Y-50320438D01*
X122134482Y-50312708D01*
X122307603Y-50299189D01*
X122440299Y-50276574D01*
X122554673Y-50241553D01*
X122628111Y-50211257D01*
X122831884Y-50090598D01*
X123017285Y-49926342D01*
X123161482Y-49741732D01*
X123231004Y-49597526D01*
X123258298Y-49386866D01*
X123216726Y-49154212D01*
X123114443Y-48912720D01*
X122959608Y-48675548D01*
X122760377Y-48455854D01*
X122524909Y-48266795D01*
X122338126Y-48157335D01*
X121976151Y-48009846D01*
X121627046Y-47932831D01*
X121298483Y-47925384D01*
X120998136Y-47986599D01*
X120733679Y-48115570D01*
X120512787Y-48311393D01*
X120459038Y-48379102D01*
X120337129Y-48579625D01*
X120237056Y-48810160D01*
X120163638Y-49050738D01*
X120121694Y-49281394D01*
X120116041Y-49482161D01*
X116487034Y-49482161D01*
X116562454Y-49373206D01*
X116637392Y-49129692D01*
X116660691Y-48939411D01*
X116648906Y-48595263D01*
X116563769Y-48291111D01*
X116408494Y-48030814D01*
X116186297Y-47818230D01*
X115900391Y-47657217D01*
X115553991Y-47551635D01*
X115495144Y-47540488D01*
X115148202Y-47519956D01*
X114818944Y-47579247D01*
X114515355Y-47714074D01*
X114245420Y-47920152D01*
X114017125Y-48193193D01*
X113898262Y-48397684D01*
X113782812Y-48684794D01*
X113742310Y-48938235D01*
X111607667Y-48938235D01*
X111612589Y-48918278D01*
X111709869Y-48581723D01*
X111626717Y-48262111D01*
X111593861Y-48120622D01*
X111571371Y-47979247D01*
X111557861Y-47818681D01*
X111551949Y-47619620D01*
X111552251Y-47362760D01*
X111553735Y-47244000D01*
X111555976Y-46954765D01*
X111551741Y-46722894D01*
X111538876Y-46521193D01*
X111515229Y-46322470D01*
X111478646Y-46099531D01*
X111451491Y-45952833D01*
X111380523Y-45543952D01*
X111327053Y-45149722D01*
X111289324Y-44748677D01*
X111265579Y-44319351D01*
X111254061Y-43840280D01*
X111252289Y-43518666D01*
X111259153Y-42941791D01*
X111280490Y-42434098D01*
X111317417Y-41981164D01*
X111371048Y-41568565D01*
X111427540Y-41253833D01*
X111488401Y-40995681D01*
X111560509Y-40757279D01*
X111637948Y-40553788D01*
X111714801Y-40400368D01*
X111785151Y-40312178D01*
X111798478Y-40303399D01*
X111938371Y-40257968D01*
X112124977Y-40235403D01*
X112322832Y-40238187D01*
G36*
X122086781Y-48513312D02*
G01*
X122311017Y-48614941D01*
X122487796Y-48781238D01*
X122610999Y-49002984D01*
X122674510Y-49270960D01*
X122682000Y-49410339D01*
X122654821Y-49684843D01*
X122575883Y-49897891D01*
X122449085Y-50045985D01*
X122278326Y-50125624D01*
X122067504Y-50133310D01*
X121914533Y-50099218D01*
X121704538Y-49992063D01*
X121525209Y-49818427D01*
X121391890Y-49595100D01*
X121350889Y-49482505D01*
X121304312Y-49305112D01*
X121288674Y-49168927D01*
X121302701Y-49036858D01*
X121331560Y-48919502D01*
X121426189Y-48719051D01*
X121575635Y-48576847D01*
X121767625Y-48499491D01*
X121989885Y-48493584D01*
X122086781Y-48513312D01*
G37*
X122086781Y-48513312D02*
X122311017Y-48614941D01*
X122487796Y-48781238D01*
X122610999Y-49002984D01*
X122674510Y-49270960D01*
X122682000Y-49410339D01*
X122654821Y-49684843D01*
X122575883Y-49897891D01*
X122449085Y-50045985D01*
X122278326Y-50125624D01*
X122067504Y-50133310D01*
X121914533Y-50099218D01*
X121704538Y-49992063D01*
X121525209Y-49818427D01*
X121391890Y-49595100D01*
X121350889Y-49482505D01*
X121304312Y-49305112D01*
X121288674Y-49168927D01*
X121302701Y-49036858D01*
X121331560Y-48919502D01*
X121426189Y-48719051D01*
X121575635Y-48576847D01*
X121767625Y-48499491D01*
X121989885Y-48493584D01*
X122086781Y-48513312D01*
G36*
X115875592Y-48225241D02*
G01*
X116052438Y-48334492D01*
X116180971Y-48496712D01*
X116248583Y-48708481D01*
X116259183Y-48950892D01*
X116216045Y-49195137D01*
X116122444Y-49412409D01*
X116068120Y-49489609D01*
X115907434Y-49623534D01*
X115711203Y-49692771D01*
X115502126Y-49694084D01*
X115302902Y-49624235D01*
X115269343Y-49603524D01*
X115111764Y-49451217D01*
X115009084Y-49253399D01*
X114961250Y-49028972D01*
X114968211Y-48796836D01*
X115029913Y-48575893D01*
X115146306Y-48385043D01*
X115273026Y-48270583D01*
X115464163Y-48187876D01*
X115672259Y-48174565D01*
X115875592Y-48225241D01*
G37*
X115875592Y-48225241D02*
X116052438Y-48334492D01*
X116180971Y-48496712D01*
X116248583Y-48708481D01*
X116259183Y-48950892D01*
X116216045Y-49195137D01*
X116122444Y-49412409D01*
X116068120Y-49489609D01*
X115907434Y-49623534D01*
X115711203Y-49692771D01*
X115502126Y-49694084D01*
X115302902Y-49624235D01*
X115269343Y-49603524D01*
X115111764Y-49451217D01*
X115009084Y-49253399D01*
X114961250Y-49028972D01*
X114968211Y-48796836D01*
X115029913Y-48575893D01*
X115146306Y-48385043D01*
X115273026Y-48270583D01*
X115464163Y-48187876D01*
X115672259Y-48174565D01*
X115875592Y-48225241D01*
D11*
X99040000Y-36555000D02*
X99040000Y-39645000D01*
X104100000Y-38100000D02*
G75*
G03X104100000Y-38100000I-2500000J0D01*
G01*
X104590000Y-38099538D02*
G75*
G02X99040000Y-39644830I-2990000J-462D01*
G01*
X104590000Y-38100462D02*
G75*
G03X99040000Y-36555170I-2990000J462D01*
G01*
X116820000Y-36555000D02*
X116820000Y-39645000D01*
X121880000Y-38100000D02*
G75*
G03X121880000Y-38100000I-2500000J0D01*
G01*
X122370000Y-38099538D02*
G75*
G02X116820000Y-39644830I-2990000J-462D01*
G01*
X122370000Y-38100462D02*
G75*
G03X116820000Y-36555170I-2990000J462D01*
G01*
X134600000Y-36555000D02*
X134600000Y-39645000D01*
X139660000Y-38100000D02*
G75*
G03X139660000Y-38100000I-2500000J0D01*
G01*
X140150000Y-38099538D02*
G75*
G02X134600000Y-39644830I-2990000J-462D01*
G01*
X140150000Y-38100462D02*
G75*
G03X134600000Y-36555170I-2990000J462D01*
G01*
D12*
X100861904Y-34592380D02*
X100861904Y-33592380D01*
X101100000Y-33592380D01*
X101242857Y-33640000D01*
X101338095Y-33735238D01*
X101385714Y-33830476D01*
X101433333Y-34020952D01*
X101433333Y-34163809D01*
X101385714Y-34354285D01*
X101338095Y-34449523D01*
X101242857Y-34544761D01*
X101100000Y-34592380D01*
X100861904Y-34592380D01*
X101766666Y-33592380D02*
X102385714Y-33592380D01*
X102052380Y-33973333D01*
X102195238Y-33973333D01*
X102290476Y-34020952D01*
X102338095Y-34068571D01*
X102385714Y-34163809D01*
X102385714Y-34401904D01*
X102338095Y-34497142D01*
X102290476Y-34544761D01*
X102195238Y-34592380D01*
X101909523Y-34592380D01*
X101814285Y-34544761D01*
X101766666Y-34497142D01*
X118641904Y-34592380D02*
X118641904Y-33592380D01*
X118880000Y-33592380D01*
X119022857Y-33640000D01*
X119118095Y-33735238D01*
X119165714Y-33830476D01*
X119213333Y-34020952D01*
X119213333Y-34163809D01*
X119165714Y-34354285D01*
X119118095Y-34449523D01*
X119022857Y-34544761D01*
X118880000Y-34592380D01*
X118641904Y-34592380D01*
X119594285Y-33687619D02*
X119641904Y-33640000D01*
X119737142Y-33592380D01*
X119975238Y-33592380D01*
X120070476Y-33640000D01*
X120118095Y-33687619D01*
X120165714Y-33782857D01*
X120165714Y-33878095D01*
X120118095Y-34020952D01*
X119546666Y-34592380D01*
X120165714Y-34592380D01*
X136421904Y-34592380D02*
X136421904Y-33592380D01*
X136660000Y-33592380D01*
X136802857Y-33640000D01*
X136898095Y-33735238D01*
X136945714Y-33830476D01*
X136993333Y-34020952D01*
X136993333Y-34163809D01*
X136945714Y-34354285D01*
X136898095Y-34449523D01*
X136802857Y-34544761D01*
X136660000Y-34592380D01*
X136421904Y-34592380D01*
X137945714Y-34592380D02*
X137374285Y-34592380D01*
X137660000Y-34592380D02*
X137660000Y-33592380D01*
X137564761Y-33735238D01*
X137469523Y-33830476D01*
X137374285Y-33878095D01*
M02*
