%TF.GenerationSoftware,Altium Limited,Altium Designer,20.0.11 (256)*%
G04 Layer_Physical_Order=2*
G04 Layer_Color=16711680*
%FSLAX26Y26*%
%MOIN*%
%TF.FileFunction,Copper,L2,Bot,Signal*%
%TF.Part,Single*%
G01*
G75*
%TA.AperFunction,Conductor*%
%ADD51C,0.010000*%
%ADD52C,0.020000*%
%ADD53C,0.008000*%
%ADD54C,0.015000*%
%ADD55C,0.012000*%
%ADD57C,0.030000*%
%TA.AperFunction,ComponentPad*%
%ADD64C,0.047244*%
%ADD65R,0.047244X0.047244*%
%ADD66C,0.062598*%
%ADD67R,0.062598X0.062598*%
%ADD68C,0.060000*%
%ADD69R,0.060000X0.060000*%
%ADD70C,0.040000*%
%ADD71C,0.075000*%
%ADD72R,0.075000X0.075000*%
%ADD73C,0.125000*%
%ADD74C,0.300000*%
%ADD75C,0.078740*%
%ADD76R,0.078740X0.078740*%
%ADD77C,0.061024*%
%ADD78C,0.068898*%
%ADD79C,0.100000*%
%ADD80R,0.052283X0.052283*%
%ADD81C,0.052283*%
%TA.AperFunction,ViaPad*%
%ADD82C,0.019685*%
%ADD83C,0.030000*%
%ADD84C,0.016000*%
%TA.AperFunction,SMDPad,SMDef*%
%ADD85R,0.020000X0.020000*%
%TA.AperFunction,NonConductor*%
%ADD86C,0.020000*%
%TA.AperFunction,Conductor*%
%ADD87R,0.035000X0.041000*%
%ADD88R,0.043000X0.041000*%
%ADD89R,0.114578X0.103347*%
G36*
X284466Y999303D02*
X285392Y992267D01*
X288377Y985061D01*
X293125Y978873D01*
X299313Y974125D01*
X306519Y971140D01*
X314252Y970122D01*
X321985Y971140D01*
X329191Y974125D01*
X335379Y978873D01*
X340127Y985061D01*
X343111Y992267D01*
X343868Y998016D01*
X363376D01*
X364133Y992267D01*
X367117Y985061D01*
X371865Y978873D01*
X378053Y974125D01*
X383687Y971792D01*
Y850000D01*
Y815000D01*
Y741480D01*
X258206Y615999D01*
X252083Y614782D01*
X247314Y611595D01*
X242314Y614229D01*
Y933983D01*
X241072Y940226D01*
X237535Y945519D01*
X217296Y965759D01*
X219209Y970378D01*
X249273D01*
X341540Y878110D01*
Y831763D01*
X337616Y829140D01*
X332974Y822194D01*
X331344Y814000D01*
X332974Y805806D01*
X337616Y798860D01*
X344562Y794218D01*
X352756Y792589D01*
X360950Y794218D01*
X367896Y798860D01*
X372538Y805806D01*
X374167Y814000D01*
X372538Y822194D01*
X367896Y829140D01*
X363971Y831763D01*
Y882756D01*
X363118Y887048D01*
X360687Y890686D01*
X360686Y890687D01*
X265134Y986239D01*
Y996913D01*
X268783Y1000331D01*
X284466Y999303D01*
D02*
G37*
G36*
X3135000Y3473686D02*
Y3473686D01*
X3154081Y3471469D01*
X3167109Y3467517D01*
X3181615Y3459764D01*
X3194329Y3449329D01*
X3204764Y3436615D01*
X3212517Y3422109D01*
X3216469Y3409082D01*
X3218686Y3390000D01*
X3218686Y3390000D01*
X3218686Y3390000D01*
X3218686Y3370000D01*
Y100001D01*
X3218686Y100000D01*
X3218686Y100000D01*
X3216469Y80918D01*
X3212517Y67891D01*
X3204764Y53386D01*
X3194329Y40671D01*
X3181615Y30236D01*
X3167109Y22483D01*
X3154081Y18531D01*
X3135000Y16314D01*
X3135000Y16314D01*
X3115000Y16314D01*
X2869878D01*
X2861594Y36313D01*
X2910288Y85008D01*
X2918022Y78403D01*
X2938959Y65573D01*
X2961644Y56176D01*
X2985521Y50444D01*
X3010000Y48518D01*
X3034479Y50444D01*
X3058356Y56176D01*
X3081041Y65573D01*
X3101978Y78403D01*
X3120650Y94350D01*
X3136597Y113022D01*
X3149427Y133958D01*
X3158824Y156644D01*
X3164556Y180521D01*
X3166482Y205000D01*
X3164556Y229479D01*
X3158824Y253356D01*
X3149427Y276041D01*
X3136597Y296978D01*
X3120650Y315650D01*
X3120442Y320933D01*
X3180140Y380631D01*
X3184782Y387578D01*
X3186411Y395772D01*
Y2945000D01*
X3184782Y2953194D01*
X3180140Y2960140D01*
X3034867Y3105413D01*
X3034770Y3110419D01*
X3041447Y3127117D01*
X3058356Y3131176D01*
X3081041Y3140573D01*
X3101978Y3153403D01*
X3120650Y3169350D01*
X3136597Y3188022D01*
X3149427Y3208959D01*
X3158824Y3231644D01*
X3164556Y3255521D01*
X3166482Y3280000D01*
X3164556Y3304479D01*
X3158824Y3328356D01*
X3149427Y3351041D01*
X3136597Y3371978D01*
X3120650Y3390650D01*
X3101978Y3406597D01*
X3081041Y3419427D01*
X3058356Y3428824D01*
X3034479Y3434556D01*
X3010000Y3436482D01*
X2985521Y3434556D01*
X2961644Y3428824D01*
X2938959Y3419427D01*
X2918022Y3406597D01*
X2899350Y3390650D01*
X2883403Y3371978D01*
X2870573Y3351041D01*
X2861176Y3328356D01*
X2855444Y3304479D01*
X2853518Y3280000D01*
X2855444Y3255521D01*
X2861176Y3231644D01*
X2870573Y3208959D01*
X2883403Y3188022D01*
X2899350Y3169350D01*
X2918022Y3153403D01*
X2938959Y3140573D01*
X2961644Y3131176D01*
X2978589Y3127108D01*
Y3110000D01*
X2980218Y3101806D01*
X2984860Y3094860D01*
X3143589Y2936131D01*
Y404640D01*
X3082488Y343540D01*
X3081041Y344427D01*
X3058356Y353824D01*
X3034479Y359556D01*
X3010000Y361482D01*
X2985521Y359556D01*
X2961644Y353824D01*
X2938959Y344427D01*
X2918022Y331597D01*
X2899350Y315650D01*
X2883403Y296978D01*
X2870573Y276041D01*
X2861176Y253356D01*
X2855444Y229479D01*
X2853518Y205000D01*
X2855444Y180521D01*
X2861176Y156644D01*
X2870573Y133958D01*
X2881252Y116532D01*
X2831131Y66411D01*
X363869D01*
X319598Y110682D01*
X321597Y113022D01*
X334427Y133958D01*
X343824Y156644D01*
X349556Y180521D01*
X351482Y205000D01*
X349556Y229479D01*
X343824Y253356D01*
X334427Y276041D01*
X321597Y296978D01*
X305650Y315650D01*
X286978Y331597D01*
X266041Y344427D01*
X243356Y353824D01*
X219479Y359556D01*
X195000Y361482D01*
X170521Y359556D01*
X146644Y353824D01*
X123959Y344427D01*
X103022Y331597D01*
X100682Y329598D01*
X76411Y353869D01*
Y445330D01*
X96411Y452119D01*
X101060Y446060D01*
X112758Y437084D01*
X126381Y431441D01*
X141000Y429517D01*
X155619Y431441D01*
X169242Y437084D01*
X180940Y446060D01*
X189916Y457758D01*
X195559Y471381D01*
X197483Y486000D01*
X195559Y500619D01*
X189916Y514242D01*
X180940Y525940D01*
X169242Y534916D01*
X155619Y540559D01*
X141000Y542483D01*
X126381Y540559D01*
X112758Y534916D01*
X101060Y525940D01*
X96411Y519881D01*
X76411Y526670D01*
Y645330D01*
X96411Y652119D01*
X101060Y646060D01*
X112758Y637084D01*
X126381Y631441D01*
X141000Y629517D01*
X155619Y631441D01*
X169242Y637084D01*
X180940Y646060D01*
X189686Y657459D01*
X190653Y657589D01*
X209686Y653226D01*
Y545000D01*
X210928Y538757D01*
X214465Y533465D01*
X592701Y155228D01*
X593919Y149105D01*
X598561Y142159D01*
X605507Y137518D01*
X613701Y135888D01*
X621895Y137518D01*
X628841Y142159D01*
X633482Y149105D01*
X635112Y157299D01*
X633482Y165493D01*
X628841Y172439D01*
X621895Y177081D01*
X615772Y178299D01*
X250741Y543330D01*
X252532Y567525D01*
X260277Y573589D01*
X268471Y575218D01*
X275417Y579860D01*
X280059Y586806D01*
X281276Y592929D01*
X411535Y723188D01*
X415072Y728480D01*
X416313Y734723D01*
Y788188D01*
X421447Y791982D01*
X436313Y797047D01*
X439050Y795218D01*
X447244Y793589D01*
X455438Y795218D01*
X462384Y799860D01*
X465007Y803784D01*
X523163D01*
X525805Y800518D01*
X532022Y783784D01*
X530691Y781792D01*
X529061Y773598D01*
X530691Y765405D01*
X531291Y764506D01*
X529638Y762033D01*
X528784Y757740D01*
X528784Y757740D01*
Y562723D01*
X524860Y560101D01*
X520218Y553154D01*
X518589Y544961D01*
X520218Y536767D01*
X524860Y529821D01*
X531806Y525179D01*
X540000Y523549D01*
X548194Y525179D01*
X555140Y529821D01*
X559782Y536767D01*
X561411Y544961D01*
X559782Y553154D01*
X555140Y560101D01*
X551216Y562723D01*
Y752335D01*
X558666Y753817D01*
X565612Y758458D01*
X570254Y765405D01*
X571884Y773598D01*
X570254Y781792D01*
X568923Y783784D01*
X575140Y800518D01*
X577782Y803784D01*
X726598D01*
X726598Y803784D01*
X730890Y804638D01*
X734529Y807069D01*
X755973Y828514D01*
X759098Y827893D01*
X767291Y829522D01*
X774238Y834164D01*
X778879Y841110D01*
X780509Y849304D01*
X778879Y857498D01*
X774238Y864444D01*
X767291Y869086D01*
X759098Y870715D01*
X750904Y869086D01*
X743957Y864444D01*
X739316Y857498D01*
X737686Y849304D01*
X738907Y843169D01*
X721953Y826216D01*
X465007D01*
X462384Y830140D01*
X455438Y834782D01*
X447244Y836411D01*
X439050Y834782D01*
X436313Y832953D01*
X421447Y838018D01*
X416313Y841812D01*
Y850000D01*
Y979297D01*
X427334Y991774D01*
X432362Y992832D01*
X443620Y990463D01*
X445857Y985061D01*
X450606Y978873D01*
X456793Y974125D01*
X463999Y971140D01*
X471732Y970122D01*
X479465Y971140D01*
X486671Y974125D01*
X492859Y978873D01*
X497607Y985061D01*
X499844Y990462D01*
X511102Y992832D01*
X522360Y990462D01*
X524598Y985061D01*
X529346Y978873D01*
X535534Y974125D01*
X542740Y971140D01*
X550472Y970122D01*
X558205Y971140D01*
X565411Y974125D01*
X571599Y978873D01*
X576347Y985061D01*
X578585Y990463D01*
X589842Y992832D01*
X601100Y990463D01*
X603338Y985061D01*
X608086Y978873D01*
X614274Y974125D01*
X621480Y971140D01*
X629212Y970122D01*
X636945Y971140D01*
X644151Y974125D01*
X650339Y978873D01*
X655087Y985061D01*
X657325Y990462D01*
X668583Y992832D01*
X679841Y990462D01*
X682078Y985061D01*
X686826Y978873D01*
X693014Y974125D01*
X700220Y971140D01*
X707953Y970122D01*
X715686Y971140D01*
X722891Y974125D01*
X729079Y978873D01*
X733827Y985061D01*
X736065Y990462D01*
X747323Y992832D01*
X758581Y990462D01*
X760818Y985061D01*
X765566Y978873D01*
X771754Y974125D01*
X778960Y971140D01*
X786693Y970122D01*
X794426Y971140D01*
X801632Y974125D01*
X807820Y978873D01*
X812568Y985061D01*
X815552Y992267D01*
X816571Y1000000D01*
X815552Y1007733D01*
X812568Y1014939D01*
X807820Y1021127D01*
X801632Y1025875D01*
X794426Y1028860D01*
X786693Y1029878D01*
X778960Y1028860D01*
X771754Y1025875D01*
X765566Y1021127D01*
X760818Y1014939D01*
X758581Y1009538D01*
X747323Y1007168D01*
X736065Y1009538D01*
X733827Y1014939D01*
X729079Y1021127D01*
X722891Y1025875D01*
X715686Y1028860D01*
X707953Y1029878D01*
X700220Y1028860D01*
X693014Y1025875D01*
X686826Y1021127D01*
X682078Y1014939D01*
X679841Y1009538D01*
X668583Y1007168D01*
X657325Y1009538D01*
X655087Y1014939D01*
X650339Y1021127D01*
X644151Y1025875D01*
X636945Y1028860D01*
X629212Y1029878D01*
X621480Y1028860D01*
X614274Y1025875D01*
X608086Y1021127D01*
X603338Y1014939D01*
X601100Y1009537D01*
X589842Y1007168D01*
X578585Y1009537D01*
X576347Y1014939D01*
X571599Y1021127D01*
X565411Y1025875D01*
X558205Y1028860D01*
X550472Y1029878D01*
X542740Y1028860D01*
X535534Y1025875D01*
X529346Y1021127D01*
X524598Y1014939D01*
X522360Y1009538D01*
X511102Y1007168D01*
X499844Y1009538D01*
X497607Y1014939D01*
X492859Y1021127D01*
X486671Y1025875D01*
X479465Y1028860D01*
X471732Y1029878D01*
X463999Y1028860D01*
X456793Y1025875D01*
X450606Y1021127D01*
X445857Y1014939D01*
X443620Y1009537D01*
X432362Y1007168D01*
X421104Y1009537D01*
X418867Y1014939D01*
X414119Y1021127D01*
X407931Y1025875D01*
X400725Y1028860D01*
X392992Y1029878D01*
X385259Y1028860D01*
X378053Y1025875D01*
X371865Y1021127D01*
X367117Y1014939D01*
X364133Y1007733D01*
X363708Y1004510D01*
X343536D01*
X343111Y1007733D01*
X340127Y1014939D01*
X335379Y1021127D01*
X329191Y1025875D01*
X321985Y1028860D01*
X314252Y1029878D01*
X306519Y1028860D01*
X299313Y1025875D01*
X293125Y1021127D01*
X288377Y1014939D01*
X285392Y1007733D01*
X285134Y1005768D01*
X265134Y1007079D01*
Y1029622D01*
X205890D01*
Y1003296D01*
X187412Y995642D01*
X168314Y1014741D01*
Y1146071D01*
X182544Y1160000D01*
X188314Y1160000D01*
X340000D01*
Y1445000D01*
X188314D01*
X182544Y1445000D01*
X168314Y1458929D01*
Y2969243D01*
X510159Y3311088D01*
X788243D01*
X847566Y3251765D01*
Y3176920D01*
X845069Y3175886D01*
X837278Y3169907D01*
X831299Y3162116D01*
X827540Y3153042D01*
X826259Y3143305D01*
X827540Y3133568D01*
X831299Y3124494D01*
X837278Y3116703D01*
X845069Y3110724D01*
X854143Y3106966D01*
X863880Y3105684D01*
X873617Y3106966D01*
X882690Y3110724D01*
X890482Y3116703D01*
X896460Y3124494D01*
X900219Y3133568D01*
X901501Y3143305D01*
X900219Y3153042D01*
X896460Y3162116D01*
X890482Y3169907D01*
X882690Y3175886D01*
X880193Y3176920D01*
Y3258522D01*
X878951Y3264765D01*
X875415Y3270057D01*
X806535Y3338937D01*
X801243Y3342473D01*
X795000Y3343715D01*
X503402D01*
X497159Y3342473D01*
X491866Y3338937D01*
X351488Y3198558D01*
X334427Y3208959D01*
X343824Y3231644D01*
X349556Y3255521D01*
X351482Y3280000D01*
X349556Y3304479D01*
X343824Y3328356D01*
X334427Y3351041D01*
X321597Y3371978D01*
X305650Y3390650D01*
X286978Y3406597D01*
X266041Y3419427D01*
X243356Y3428824D01*
X219479Y3434556D01*
X195000Y3436482D01*
X170521Y3434556D01*
X146644Y3428824D01*
X123959Y3419427D01*
X103022Y3406597D01*
X84350Y3390650D01*
X68403Y3371978D01*
X55573Y3351041D01*
X46176Y3328356D01*
X40444Y3304479D01*
X38518Y3280000D01*
X40444Y3255521D01*
X46176Y3231644D01*
X55573Y3208959D01*
X60553Y3200833D01*
X39860Y3180140D01*
X19538Y3185211D01*
X16314Y3187423D01*
Y3390000D01*
X16168Y3390731D01*
X17708Y3406369D01*
X22483Y3422109D01*
X30236Y3436615D01*
X40671Y3449329D01*
X53385Y3459764D01*
X67891Y3467517D01*
X80918Y3471469D01*
X100000Y3473686D01*
Y3473686D01*
X120000Y3473686D01*
X3134999D01*
X3135000Y3473686D01*
D02*
G37*
%LPC*%
G36*
X1832500Y3179272D02*
X1832168Y3179228D01*
X1824871Y3176205D01*
X1818604Y3171396D01*
X1813795Y3165129D01*
X1810772Y3157832D01*
X1810728Y3157500D01*
X1832500D01*
Y3179272D01*
D02*
G37*
G36*
X1517500D02*
Y3157500D01*
X1539272D01*
X1539228Y3157832D01*
X1536205Y3165129D01*
X1531396Y3171396D01*
X1525129Y3176205D01*
X1517832Y3179228D01*
X1517500Y3179272D01*
D02*
G37*
G36*
X1502500D02*
X1502168Y3179228D01*
X1494871Y3176205D01*
X1488604Y3171396D01*
X1483795Y3165129D01*
X1480772Y3157832D01*
X1480728Y3157500D01*
X1502500D01*
Y3179272D01*
D02*
G37*
G36*
X1187500D02*
Y3157500D01*
X1209272D01*
X1209228Y3157832D01*
X1206205Y3165129D01*
X1201396Y3171396D01*
X1195129Y3176205D01*
X1187832Y3179228D01*
X1187500Y3179272D01*
D02*
G37*
G36*
X1172500D02*
X1172168Y3179228D01*
X1164871Y3176205D01*
X1158604Y3171396D01*
X1153795Y3165129D01*
X1150772Y3157832D01*
X1150728Y3157500D01*
X1172500D01*
Y3179272D01*
D02*
G37*
G36*
X1320000Y3176224D02*
X1313213Y3175331D01*
X1306888Y3172711D01*
X1301457Y3168544D01*
X1297289Y3163112D01*
X1294669Y3156787D01*
X1293776Y3150000D01*
X1294669Y3143213D01*
X1297289Y3136888D01*
X1301457Y3131456D01*
X1306888Y3127289D01*
X1313213Y3124669D01*
X1320000Y3123776D01*
X1326787Y3124669D01*
X1333112Y3127289D01*
X1338543Y3131456D01*
X1342711Y3136888D01*
X1345331Y3143213D01*
X1346224Y3150000D01*
X1345331Y3156787D01*
X1342711Y3163112D01*
X1338543Y3168544D01*
X1333112Y3172711D01*
X1326787Y3175331D01*
X1320000Y3176224D01*
D02*
G37*
G36*
X1539272Y3142500D02*
X1517500D01*
Y3120728D01*
X1517832Y3120772D01*
X1525129Y3123795D01*
X1531396Y3128604D01*
X1536205Y3134871D01*
X1539228Y3142168D01*
X1539272Y3142500D01*
D02*
G37*
G36*
X1502500D02*
X1480728D01*
X1480772Y3142168D01*
X1483795Y3134871D01*
X1488604Y3128604D01*
X1494871Y3123795D01*
X1502168Y3120772D01*
X1502500Y3120728D01*
Y3142500D01*
D02*
G37*
G36*
X1209272D02*
X1187500D01*
Y3120728D01*
X1187832Y3120772D01*
X1195129Y3123795D01*
X1201396Y3128604D01*
X1206205Y3134871D01*
X1209228Y3142168D01*
X1209272Y3142500D01*
D02*
G37*
G36*
X1172500D02*
X1150728D01*
X1150772Y3142168D01*
X1153795Y3134871D01*
X1158604Y3128604D01*
X1164871Y3123795D01*
X1172168Y3120772D01*
X1172500Y3120728D01*
Y3142500D01*
D02*
G37*
G36*
X962305Y3180926D02*
X952568Y3179644D01*
X943494Y3175886D01*
X935703Y3169907D01*
X929724Y3162116D01*
X925966Y3153042D01*
X924684Y3143305D01*
X925966Y3133568D01*
X929724Y3124494D01*
X935703Y3116703D01*
X943494Y3110724D01*
X952568Y3106966D01*
X962305Y3105684D01*
X972042Y3106966D01*
X981115Y3110724D01*
X988907Y3116703D01*
X994886Y3124494D01*
X998644Y3133568D01*
X999926Y3143305D01*
X998644Y3153042D01*
X994886Y3162116D01*
X988907Y3169907D01*
X981115Y3175886D01*
X972042Y3179644D01*
X962305Y3180926D01*
D02*
G37*
G36*
X1580000Y3106224D02*
X1573213Y3105331D01*
X1566888Y3102711D01*
X1561457Y3098544D01*
X1557289Y3093112D01*
X1554669Y3086787D01*
X1553776Y3080000D01*
X1554669Y3073213D01*
X1557289Y3066888D01*
X1561457Y3061456D01*
X1566888Y3057289D01*
X1573213Y3054669D01*
X1580000Y3053776D01*
X1586787Y3054669D01*
X1593112Y3057289D01*
X1598543Y3061456D01*
X1602711Y3066888D01*
X1605331Y3073213D01*
X1606224Y3080000D01*
X1605331Y3086787D01*
X1602711Y3093112D01*
X1598543Y3098544D01*
X1593112Y3102711D01*
X1586787Y3105331D01*
X1580000Y3106224D01*
D02*
G37*
G36*
X1847500Y3179272D02*
Y3150000D01*
X1840000D01*
Y3142500D01*
X1810728D01*
X1810772Y3142168D01*
X1813795Y3134871D01*
X1818604Y3128604D01*
X1824871Y3123795D01*
X1832168Y3120772D01*
X1834155Y3120510D01*
X1841431Y3105695D01*
X1842004Y3100075D01*
X1760000Y3018071D01*
X1667214Y3110857D01*
X1668016Y3131052D01*
X1668543Y3131456D01*
X1672711Y3136888D01*
X1675331Y3143213D01*
X1676224Y3150000D01*
X1675331Y3156787D01*
X1672711Y3163112D01*
X1668543Y3168544D01*
X1663112Y3172711D01*
X1656787Y3175331D01*
X1650000Y3176224D01*
X1643213Y3175331D01*
X1636888Y3172711D01*
X1631457Y3168544D01*
X1627289Y3163112D01*
X1624669Y3156787D01*
X1623776Y3150000D01*
X1624669Y3143213D01*
X1627289Y3136888D01*
X1631457Y3131456D01*
X1633687Y3129745D01*
Y3105000D01*
X1634928Y3098757D01*
X1638465Y3093464D01*
X1743686Y2988243D01*
Y2818457D01*
X1740107Y2799961D01*
X1084966Y2796494D01*
X1082693Y2795539D01*
X1080408Y2794592D01*
X1080401Y2794575D01*
X1080384Y2794568D01*
X1079453Y2792287D01*
X1078506Y2790000D01*
Y2085000D01*
X1080408Y2080408D01*
X1125408Y2035408D01*
X1130000Y2033506D01*
X1889184Y2033505D01*
X1900000Y2033505D01*
X1900001Y2033506D01*
X1904592Y2035408D01*
X1906494Y2039999D01*
X1906495Y2040000D01*
X1906494Y2050815D01*
X1906494Y2603207D01*
X1908966Y2605389D01*
X1926494Y2611972D01*
X1929569Y2609613D01*
X1939424Y2605531D01*
X1942500Y2605126D01*
Y2645000D01*
Y2684874D01*
X1939424Y2684469D01*
X1929569Y2680387D01*
X1926494Y2678028D01*
X1908966Y2684611D01*
X1906494Y2686793D01*
X1906495Y2784697D01*
X1906495Y2790767D01*
X1906494Y2790767D01*
X1906491Y2790776D01*
X1906495Y2790784D01*
X1906494Y2790785D01*
X1905546Y2793058D01*
X1905545Y2793058D01*
X1904592Y2795359D01*
X1904582Y2795366D01*
X1904580Y2795372D01*
X1904579Y2795372D01*
X1901036Y2798897D01*
X1901035Y2798898D01*
X1901030Y2798900D01*
X1901023Y2798910D01*
X1898730Y2799845D01*
X1898729Y2799846D01*
X1896439Y2800787D01*
X1896438Y2800788D01*
X1896430Y2800784D01*
X1896421Y2800787D01*
X1896421Y2800788D01*
X1890632Y2800757D01*
X1890632Y2800757D01*
X1890335Y2800755D01*
X1790493Y2800227D01*
X1776313Y2814332D01*
Y2988243D01*
X1864123Y3076052D01*
X1874534Y3074613D01*
X1886104Y3069749D01*
X1887289Y3066888D01*
X1891457Y3061456D01*
X1896888Y3057289D01*
X1903213Y3054669D01*
X1910000Y3053776D01*
X1916787Y3054669D01*
X1923112Y3057289D01*
X1928543Y3061456D01*
X1932711Y3066888D01*
X1935331Y3073213D01*
X1936224Y3080000D01*
X1935331Y3086787D01*
X1932711Y3093112D01*
X1928543Y3098544D01*
X1925568Y3100827D01*
X1920733Y3122478D01*
X1930788Y3133686D01*
X1959745D01*
X1961457Y3131456D01*
X1966888Y3127289D01*
X1973213Y3124669D01*
X1980000Y3123776D01*
X1986787Y3124669D01*
X1993112Y3127289D01*
X1998543Y3131456D01*
X2002711Y3136888D01*
X2005331Y3143213D01*
X2006224Y3150000D01*
X2005331Y3156787D01*
X2002711Y3163112D01*
X1998543Y3168544D01*
X1993112Y3172711D01*
X1986787Y3175331D01*
X1980000Y3176224D01*
X1973213Y3175331D01*
X1966888Y3172711D01*
X1961457Y3168544D01*
X1959745Y3166314D01*
X1915000D01*
X1908757Y3165072D01*
X1903465Y3161535D01*
X1889925Y3147996D01*
X1884305Y3148569D01*
X1869489Y3155845D01*
X1869228Y3157832D01*
X1866205Y3165129D01*
X1861396Y3171396D01*
X1855129Y3176205D01*
X1847832Y3179228D01*
X1847500Y3179272D01*
D02*
G37*
G36*
X2565000Y2941827D02*
X2555468Y2940572D01*
X2546587Y2936893D01*
X2538959Y2931041D01*
X2533107Y2923413D01*
X2529428Y2914532D01*
X2528173Y2905000D01*
X2529428Y2895468D01*
X2533107Y2886587D01*
X2538959Y2878959D01*
X2546587Y2873107D01*
X2555468Y2869428D01*
X2565000Y2868173D01*
X2574532Y2869428D01*
X2583413Y2873107D01*
X2591041Y2878959D01*
X2596893Y2886587D01*
X2600572Y2895468D01*
X2601827Y2905000D01*
X2600572Y2914532D01*
X2596893Y2923413D01*
X2591041Y2931041D01*
X2583413Y2936893D01*
X2574532Y2940572D01*
X2565000Y2941827D01*
D02*
G37*
G36*
X900000Y2781311D02*
X890602Y2780073D01*
X881845Y2776446D01*
X874324Y2770675D01*
X868554Y2763155D01*
X864927Y2754398D01*
X863689Y2745000D01*
X864927Y2735602D01*
X868554Y2726845D01*
X874324Y2719325D01*
X881845Y2713554D01*
X890602Y2709927D01*
X900000Y2708689D01*
X909398Y2709927D01*
X918155Y2713554D01*
X925676Y2719325D01*
X931446Y2726845D01*
X935073Y2735602D01*
X936311Y2745000D01*
X935073Y2754398D01*
X931446Y2763155D01*
X925676Y2770675D01*
X918155Y2776446D01*
X909398Y2780073D01*
X900000Y2781311D01*
D02*
G37*
G36*
X300000D02*
X290602Y2780073D01*
X281845Y2776446D01*
X274325Y2770675D01*
X268554Y2763155D01*
X264927Y2754398D01*
X263689Y2745000D01*
X264927Y2735602D01*
X268554Y2726845D01*
X274325Y2719325D01*
X281845Y2713554D01*
X290602Y2709927D01*
X300000Y2708689D01*
X309398Y2709927D01*
X318155Y2713554D01*
X325675Y2719325D01*
X331446Y2726845D01*
X335073Y2735602D01*
X336311Y2745000D01*
X335073Y2754398D01*
X331446Y2763155D01*
X325675Y2770675D01*
X318155Y2776446D01*
X309398Y2780073D01*
X300000Y2781311D01*
D02*
G37*
G36*
X2565000Y2725798D02*
X2554441Y2724408D01*
X2544601Y2720332D01*
X2536152Y2713848D01*
X2529668Y2705399D01*
X2526482Y2697707D01*
X2525592Y2695559D01*
X2524740Y2693897D01*
X2505260D01*
X2504408Y2695559D01*
X2503733Y2697189D01*
X2500332Y2705399D01*
X2493848Y2713848D01*
X2485399Y2720332D01*
X2475559Y2724408D01*
X2465000Y2725798D01*
X2454441Y2724408D01*
X2444601Y2720332D01*
X2436152Y2713848D01*
X2429668Y2705399D01*
X2426482Y2697707D01*
X2425592Y2695559D01*
X2424740Y2693897D01*
X2405260D01*
X2404408Y2695559D01*
X2403733Y2697189D01*
X2400332Y2705399D01*
X2393848Y2713848D01*
X2385399Y2720332D01*
X2375559Y2724408D01*
X2365000Y2725798D01*
X2354441Y2724408D01*
X2344601Y2720332D01*
X2336152Y2713848D01*
X2329668Y2705399D01*
X2325592Y2695559D01*
X2324202Y2685000D01*
X2325592Y2674441D01*
X2329668Y2664601D01*
X2336152Y2656152D01*
X2344601Y2649668D01*
X2354441Y2645592D01*
X2365000Y2644202D01*
X2375559Y2645592D01*
X2385399Y2649668D01*
X2393848Y2656152D01*
X2400332Y2664601D01*
X2403518Y2672293D01*
X2404408Y2674441D01*
X2405260Y2676103D01*
X2424740D01*
X2425592Y2674441D01*
X2426267Y2672811D01*
X2429668Y2664601D01*
X2436152Y2656152D01*
X2444601Y2649668D01*
X2454441Y2645592D01*
X2465000Y2644202D01*
X2475559Y2645592D01*
X2485399Y2649668D01*
X2493848Y2656152D01*
X2500332Y2664601D01*
X2503518Y2672293D01*
X2504408Y2674441D01*
X2505260Y2676103D01*
X2524740D01*
X2525592Y2674441D01*
X2526267Y2672811D01*
X2529668Y2664601D01*
X2536152Y2656152D01*
X2544601Y2649668D01*
X2554441Y2645592D01*
X2565000Y2644202D01*
X2575559Y2645592D01*
X2585399Y2649668D01*
X2593848Y2656152D01*
X2600332Y2664601D01*
X2604408Y2674441D01*
X2605798Y2685000D01*
X2604408Y2695559D01*
X2600332Y2705399D01*
X2593848Y2713848D01*
X2585399Y2720332D01*
X2575559Y2724408D01*
X2565000Y2725798D01*
D02*
G37*
G36*
X704328Y3180604D02*
X629730D01*
Y3106006D01*
X650687D01*
Y2748757D01*
X563243Y2661314D01*
X332209D01*
X331446Y2663155D01*
X325675Y2670675D01*
X318155Y2676446D01*
X309398Y2680073D01*
X300000Y2681311D01*
X290602Y2680073D01*
X281845Y2676446D01*
X274325Y2670675D01*
X268554Y2663155D01*
X264927Y2654398D01*
X263689Y2645000D01*
X264927Y2635602D01*
X268554Y2626845D01*
X274325Y2619325D01*
X281845Y2613554D01*
X290602Y2609927D01*
X300000Y2608689D01*
X309398Y2609927D01*
X318155Y2613554D01*
X325675Y2619325D01*
X331446Y2626845D01*
X332209Y2628686D01*
X570000D01*
X576243Y2629928D01*
X581535Y2633465D01*
X678535Y2730465D01*
X682072Y2735757D01*
X683313Y2742000D01*
Y3106006D01*
X704328D01*
Y3180604D01*
D02*
G37*
G36*
X1957500Y2684874D02*
Y2652500D01*
X1989874D01*
X1989469Y2655576D01*
X1985387Y2665431D01*
X1978893Y2673893D01*
X1970431Y2680387D01*
X1960576Y2684469D01*
X1957500Y2684874D01*
D02*
G37*
G36*
X900000Y2681311D02*
X890602Y2680073D01*
X881845Y2676446D01*
X874324Y2670675D01*
X868554Y2663155D01*
X864927Y2654398D01*
X863689Y2645000D01*
X864927Y2635602D01*
X868554Y2626845D01*
X874324Y2619325D01*
X881845Y2613554D01*
X890602Y2609927D01*
X900000Y2608689D01*
X909398Y2609927D01*
X918155Y2613554D01*
X925676Y2619325D01*
X931446Y2626845D01*
X935073Y2635602D01*
X936311Y2645000D01*
X935073Y2654398D01*
X931446Y2663155D01*
X925676Y2670675D01*
X918155Y2676446D01*
X909398Y2680073D01*
X900000Y2681311D01*
D02*
G37*
G36*
X1989874Y2637500D02*
X1957500D01*
Y2605126D01*
X1960576Y2605531D01*
X1970431Y2609613D01*
X1978893Y2616107D01*
X1985387Y2624569D01*
X1989469Y2634424D01*
X1989874Y2637500D01*
D02*
G37*
G36*
X900000Y2581311D02*
X890602Y2580073D01*
X881845Y2576446D01*
X874324Y2570675D01*
X868554Y2563155D01*
X864927Y2554398D01*
X863689Y2545000D01*
X864927Y2535602D01*
X868554Y2526845D01*
X874324Y2519325D01*
X881845Y2513554D01*
X890602Y2509927D01*
X900000Y2508689D01*
X909398Y2509927D01*
X918155Y2513554D01*
X925676Y2519325D01*
X931446Y2526845D01*
X935073Y2535602D01*
X936311Y2545000D01*
X935073Y2554398D01*
X931446Y2563155D01*
X925676Y2570675D01*
X918155Y2576446D01*
X909398Y2580073D01*
X900000Y2581311D01*
D02*
G37*
G36*
X300000D02*
X290602Y2580073D01*
X281845Y2576446D01*
X274325Y2570675D01*
X268554Y2563155D01*
X264927Y2554398D01*
X263689Y2545000D01*
X264927Y2535602D01*
X268554Y2526845D01*
X274325Y2519325D01*
X281845Y2513554D01*
X290602Y2509927D01*
X300000Y2508689D01*
X309398Y2509927D01*
X318155Y2513554D01*
X325675Y2519325D01*
X331446Y2526845D01*
X335073Y2535602D01*
X336311Y2545000D01*
X335073Y2554398D01*
X331446Y2563155D01*
X325675Y2570675D01*
X318155Y2576446D01*
X309398Y2580073D01*
X300000Y2581311D01*
D02*
G37*
G36*
X2785566Y2639076D02*
X2777372Y2637446D01*
X2770426Y2632805D01*
X2765784Y2625858D01*
X2764155Y2617664D01*
X2765784Y2609471D01*
X2770426Y2602524D01*
X2776186Y2598675D01*
Y2517047D01*
X2714629Y2455491D01*
X2710000Y2456411D01*
X2701806Y2454782D01*
X2694860Y2450140D01*
X2690218Y2443194D01*
X2688589Y2435000D01*
X2689540Y2430216D01*
X2682782Y2417293D01*
X2677250Y2410215D01*
X2413431D01*
X2410140Y2415140D01*
X2403194Y2419782D01*
X2395000Y2421411D01*
X2386806Y2419782D01*
X2379860Y2415140D01*
X2362591Y2423270D01*
X2315491Y2470371D01*
X2316411Y2475000D01*
X2314782Y2483194D01*
X2310140Y2490140D01*
X2303194Y2494782D01*
X2295000Y2496411D01*
X2286806Y2494782D01*
X2279860Y2490140D01*
X2275218Y2483194D01*
X2273589Y2475000D01*
X2275218Y2466806D01*
X2279860Y2459860D01*
X2286806Y2455218D01*
X2295000Y2453589D01*
X2299629Y2454509D01*
X2358242Y2395896D01*
X2358243Y2395896D01*
X2361881Y2393465D01*
X2366173Y2392611D01*
X2375058D01*
X2375218Y2391806D01*
X2379860Y2384860D01*
X2386806Y2380218D01*
X2395000Y2378589D01*
X2403194Y2380218D01*
X2410140Y2384860D01*
X2412094Y2387785D01*
X2797906D01*
X2799860Y2384860D01*
X2806806Y2380218D01*
X2815000Y2378589D01*
X2823194Y2380218D01*
X2830140Y2384860D01*
X2834782Y2391806D01*
X2836411Y2400000D01*
X2834782Y2408194D01*
X2830140Y2415140D01*
X2823194Y2419782D01*
X2815000Y2421411D01*
X2806806Y2419782D01*
X2799860Y2415140D01*
X2796569Y2410215D01*
X2742750D01*
X2737218Y2417293D01*
X2730460Y2430216D01*
X2731411Y2435000D01*
X2730491Y2439629D01*
X2795332Y2504471D01*
X2797763Y2508110D01*
X2798617Y2512402D01*
X2798617Y2512402D01*
Y2601128D01*
X2800706Y2602524D01*
X2805348Y2609471D01*
X2806977Y2617664D01*
X2805348Y2625858D01*
X2800706Y2632805D01*
X2793760Y2637446D01*
X2785566Y2639076D01*
D02*
G37*
G36*
X1965000Y2336827D02*
X1955468Y2335572D01*
X1946587Y2331893D01*
X1938959Y2326041D01*
X1933107Y2318413D01*
X1929428Y2309532D01*
X1928173Y2300000D01*
X1929428Y2290468D01*
X1933107Y2281587D01*
X1938959Y2273959D01*
X1946587Y2268107D01*
X1955468Y2264428D01*
X1965000Y2263173D01*
X1974532Y2264428D01*
X1983413Y2268107D01*
X1991041Y2273959D01*
X1996893Y2281587D01*
X2000572Y2290468D01*
X2001827Y2300000D01*
X2000572Y2309532D01*
X1996893Y2318413D01*
X1991041Y2326041D01*
X1983413Y2331893D01*
X1974532Y2335572D01*
X1965000Y2336827D01*
D02*
G37*
G36*
X2815768Y2296827D02*
X2806236Y2295572D01*
X2797354Y2291893D01*
X2789727Y2286041D01*
X2783875Y2278413D01*
X2780196Y2269532D01*
X2778941Y2260000D01*
X2780196Y2250468D01*
X2783875Y2241587D01*
X2789727Y2233959D01*
X2797354Y2228107D01*
X2806236Y2224428D01*
X2815768Y2223173D01*
X2825299Y2224428D01*
X2834181Y2228107D01*
X2841808Y2233959D01*
X2847661Y2241587D01*
X2851340Y2250468D01*
X2852595Y2260000D01*
X2851340Y2269532D01*
X2847661Y2278413D01*
X2841808Y2286041D01*
X2834181Y2291893D01*
X2825299Y2295572D01*
X2815768Y2296827D01*
D02*
G37*
G36*
X3070000Y2196827D02*
X3060468Y2195572D01*
X3051587Y2191893D01*
X3043959Y2186041D01*
X3038107Y2178413D01*
X3034428Y2169532D01*
X3033173Y2160000D01*
X3034428Y2150468D01*
X3038107Y2141587D01*
X3043959Y2133959D01*
X3051587Y2128107D01*
X3060468Y2124428D01*
X3070000Y2123173D01*
X3079532Y2124428D01*
X3088413Y2128107D01*
X3096041Y2133959D01*
X3101893Y2141587D01*
X3105572Y2150468D01*
X3106827Y2160000D01*
X3105572Y2169532D01*
X3101893Y2178413D01*
X3096041Y2186041D01*
X3088413Y2191893D01*
X3079532Y2195572D01*
X3070000Y2196827D01*
D02*
G37*
G36*
X2540000Y2181827D02*
X2530468Y2180572D01*
X2521587Y2176893D01*
X2513959Y2171041D01*
X2508107Y2163413D01*
X2504428Y2154532D01*
X2503173Y2145000D01*
X2504428Y2135468D01*
X2508107Y2126587D01*
X2513959Y2118959D01*
X2521587Y2113107D01*
X2530468Y2109428D01*
X2540000Y2108173D01*
X2549532Y2109428D01*
X2558413Y2113107D01*
X2566041Y2118959D01*
X2571893Y2126587D01*
X2575572Y2135468D01*
X2576827Y2145000D01*
X2575572Y2154532D01*
X2571893Y2163413D01*
X2566041Y2171041D01*
X2558413Y2176893D01*
X2549532Y2180572D01*
X2540000Y2181827D01*
D02*
G37*
G36*
X1335000Y3311314D02*
X1328757Y3310072D01*
X1323465Y3306535D01*
X1238465Y3221535D01*
X1234928Y3216243D01*
X1233687Y3210000D01*
Y3100255D01*
X1231457Y3098544D01*
X1227289Y3093112D01*
X1224669Y3086787D01*
X1223776Y3080000D01*
X1224669Y3073213D01*
X1227289Y3066888D01*
X1231457Y3061456D01*
X1236888Y3057289D01*
X1243213Y3054669D01*
X1250000Y3053776D01*
X1256787Y3054669D01*
X1263112Y3057289D01*
X1268543Y3061456D01*
X1272711Y3066888D01*
X1275331Y3073213D01*
X1276224Y3080000D01*
X1275331Y3086787D01*
X1272711Y3093112D01*
X1268543Y3098544D01*
X1266313Y3100255D01*
Y3203243D01*
X1341757Y3278686D01*
X2113243D01*
X2208686Y3183243D01*
Y2825000D01*
Y2390000D01*
X2209928Y2383757D01*
X2213465Y2378465D01*
X2296144Y2295785D01*
X2301437Y2292249D01*
X2307680Y2291007D01*
X2445847D01*
X2447678Y2286587D01*
X2453530Y2278959D01*
X2461158Y2273107D01*
X2470040Y2269428D01*
X2479571Y2268173D01*
X2489103Y2269428D01*
X2497985Y2273107D01*
X2505612Y2278959D01*
X2511464Y2286587D01*
X2513295Y2291007D01*
X2535923D01*
X2618844Y2208085D01*
Y2069439D01*
X2600512Y2059232D01*
X2570197D01*
X2566295Y2058456D01*
X2562987Y2056245D01*
X2547226Y2040484D01*
X2527514Y2041587D01*
X2525140Y2045140D01*
X2518194Y2049782D01*
X2510000Y2051411D01*
X2501806Y2049782D01*
X2494860Y2045140D01*
X2490218Y2038194D01*
X2488589Y2030000D01*
X2490218Y2021806D01*
X2490613Y2021216D01*
X2482238Y2001719D01*
X2481754Y2001216D01*
X2244874D01*
X2241893Y2008413D01*
X2236041Y2016041D01*
X2228413Y2021893D01*
X2219532Y2025572D01*
X2210000Y2026827D01*
X2200468Y2025572D01*
X2198369Y2024702D01*
X2131314Y2091757D01*
Y2651616D01*
X2134782Y2656806D01*
X2136411Y2665000D01*
X2134782Y2673194D01*
X2130140Y2680140D01*
X2123194Y2684782D01*
X2115000Y2686411D01*
X2106806Y2684782D01*
X2099860Y2680140D01*
X2095218Y2673194D01*
X2093589Y2665000D01*
X2095218Y2656806D01*
X2098686Y2651616D01*
Y2085000D01*
X2099928Y2078757D01*
X2103465Y2073465D01*
X2175298Y2001631D01*
X2174428Y1999532D01*
X2173173Y1990000D01*
X2174428Y1980468D01*
X2178107Y1971587D01*
X2183959Y1963959D01*
X2191587Y1958107D01*
X2200468Y1954428D01*
X2210000Y1953173D01*
X2219532Y1954428D01*
X2228413Y1958107D01*
X2236041Y1963959D01*
X2241893Y1971587D01*
X2244874Y1978784D01*
X2544999D01*
X2545000Y1978784D01*
X2549292Y1979638D01*
X2552931Y1982069D01*
X2562930Y1992069D01*
X2565362Y1995708D01*
X2565420Y1996001D01*
X2585461Y2016042D01*
X2602044D01*
X2620883Y2008237D01*
X2621970Y2002775D01*
X2623942Y1999823D01*
Y1990001D01*
X2623942Y1990000D01*
X2624209Y1988660D01*
X2619302Y1977002D01*
X2615814Y1971475D01*
X2612781Y1968660D01*
X2587508D01*
X2582916Y1966758D01*
X2581014Y1962166D01*
Y1858819D01*
X2582916Y1854227D01*
X2587508Y1852324D01*
X2694021D01*
X2702743Y1841170D01*
X2694074Y1821764D01*
X2584237D01*
X2531089Y1874913D01*
X2531411Y1876535D01*
X2529782Y1884729D01*
X2525140Y1891676D01*
X2518194Y1896317D01*
X2510000Y1897947D01*
X2501806Y1896317D01*
X2494860Y1891676D01*
X2490218Y1884729D01*
X2488589Y1876535D01*
X2490218Y1868342D01*
X2494860Y1861395D01*
X2501806Y1856754D01*
X2510000Y1855124D01*
X2511623Y1855447D01*
X2568802Y1798267D01*
X2573268Y1795283D01*
X2578535Y1794236D01*
X2743941D01*
X2744860Y1792860D01*
X2751806Y1788218D01*
X2760000Y1786589D01*
X2768194Y1788218D01*
X2775140Y1792860D01*
X2779782Y1799806D01*
X2781411Y1808000D01*
X2797614Y1822765D01*
X2942328D01*
X2944269Y1819860D01*
X2951216Y1815218D01*
X2959410Y1813589D01*
X2967603Y1815218D01*
X2974550Y1819860D01*
X2979191Y1826806D01*
X2980821Y1835000D01*
X2979191Y1843194D01*
X2974550Y1850140D01*
X2967603Y1854782D01*
X2959410Y1856411D01*
X2957359Y1856004D01*
X2947506Y1874436D01*
X2966535Y1893465D01*
X2970072Y1898757D01*
X2971314Y1905000D01*
Y2305000D01*
Y2452237D01*
X2973413Y2453107D01*
X2981041Y2458959D01*
X2986893Y2466587D01*
X2990572Y2475468D01*
X2991827Y2485000D01*
X2990572Y2494532D01*
X2986893Y2503413D01*
X2981041Y2511041D01*
X2973413Y2516893D01*
X2971314Y2517763D01*
Y2935000D01*
X2970072Y2941243D01*
X2966535Y2946535D01*
X2821535Y3091535D01*
X2816243Y3095072D01*
X2810000Y3096314D01*
X2493384D01*
X2488194Y3099782D01*
X2480000Y3101411D01*
X2471806Y3099782D01*
X2464860Y3095140D01*
X2460218Y3088194D01*
X2458589Y3080000D01*
X2460218Y3071806D01*
X2464860Y3064860D01*
X2471806Y3060218D01*
X2480000Y3058589D01*
X2488194Y3060218D01*
X2493384Y3063686D01*
X2803243D01*
X2938686Y2928243D01*
Y2517763D01*
X2936587Y2516893D01*
X2928959Y2511041D01*
X2923107Y2503413D01*
X2919428Y2494532D01*
X2918173Y2485000D01*
X2919428Y2475468D01*
X2923107Y2466587D01*
X2928959Y2458959D01*
X2936587Y2453107D01*
X2938686Y2452237D01*
Y2305000D01*
Y1981534D01*
X2936915Y1978706D01*
X2920000Y1966411D01*
X2911806Y1964782D01*
X2904860Y1960140D01*
X2900218Y1953194D01*
X2898589Y1945000D01*
X2883404Y1931216D01*
X2851166D01*
X2842882Y1951216D01*
X2850466Y1958800D01*
X2850466Y1958800D01*
X2852897Y1962438D01*
X2853751Y1966730D01*
X2853751Y1966731D01*
Y2067751D01*
X2856908Y2069860D01*
X2861549Y2076806D01*
X2863179Y2085000D01*
X2861549Y2093194D01*
X2856908Y2100140D01*
X2849961Y2104782D01*
X2841768Y2106411D01*
X2833574Y2104782D01*
X2826628Y2100140D01*
X2821986Y2093194D01*
X2820356Y2085000D01*
X2821986Y2076806D01*
X2826628Y2069860D01*
X2831320Y2066724D01*
Y2015101D01*
X2816535Y1998911D01*
X2808342Y1997282D01*
X2801395Y1992640D01*
X2798773Y1988715D01*
X2665723D01*
X2662119Y1993407D01*
X2664634Y2014478D01*
X2665093Y2014785D01*
X2668188Y2019416D01*
X2669274Y2024878D01*
X2669274Y2024878D01*
X2675000Y2025726D01*
X2680463Y2026812D01*
X2685093Y2029907D01*
X2688188Y2034537D01*
X2689274Y2040000D01*
X2688188Y2045463D01*
X2685093Y2050093D01*
X2680463Y2053188D01*
X2675181Y2054238D01*
X2673174Y2056245D01*
X2669866Y2058456D01*
X2669353Y2058558D01*
X2651471Y2069439D01*
Y2214843D01*
X2650229Y2221086D01*
X2646693Y2226378D01*
X2646599Y2226441D01*
X2646535Y2226535D01*
X2554215Y2318856D01*
X2548923Y2322392D01*
X2542680Y2323634D01*
X2511295D01*
X2505612Y2331041D01*
X2497985Y2336893D01*
X2489103Y2340572D01*
X2479571Y2341827D01*
X2470040Y2340572D01*
X2461158Y2336893D01*
X2453530Y2331041D01*
X2447847Y2323634D01*
X2314437D01*
X2241314Y2396757D01*
Y2825000D01*
Y3190000D01*
X2240072Y3196243D01*
X2236535Y3201535D01*
X2131535Y3306535D01*
X2126243Y3310072D01*
X2120000Y3311314D01*
X1335001D01*
X1335000Y3311314D01*
D02*
G37*
G36*
X3065000Y1896827D02*
X3055468Y1895572D01*
X3046587Y1891893D01*
X3038959Y1886041D01*
X3033107Y1878413D01*
X3029428Y1869532D01*
X3028173Y1860000D01*
X3029428Y1850468D01*
X3033107Y1841587D01*
X3038959Y1833959D01*
X3046587Y1828107D01*
X3055468Y1824428D01*
X3065000Y1823173D01*
X3074532Y1824428D01*
X3083413Y1828107D01*
X3091041Y1833959D01*
X3096893Y1841587D01*
X3100572Y1850468D01*
X3101827Y1860000D01*
X3100572Y1869532D01*
X3096893Y1878413D01*
X3091041Y1886041D01*
X3083413Y1891893D01*
X3074532Y1895572D01*
X3065000Y1896827D01*
D02*
G37*
G36*
X765454Y3180926D02*
X755717Y3179644D01*
X746644Y3175886D01*
X738852Y3169907D01*
X732874Y3162116D01*
X729115Y3153042D01*
X727833Y3143305D01*
X729115Y3133568D01*
X732874Y3124494D01*
X738852Y3116703D01*
X746644Y3110724D01*
X751686Y3108635D01*
X751687Y1877000D01*
X752928Y1870757D01*
X756465Y1865465D01*
X865689Y1756240D01*
X864927Y1754398D01*
X863689Y1745000D01*
X864927Y1735602D01*
X868554Y1726845D01*
X874324Y1719324D01*
X881845Y1713554D01*
X890602Y1709927D01*
X900000Y1708689D01*
X909398Y1709927D01*
X918155Y1713554D01*
X925676Y1719324D01*
X931446Y1726845D01*
X935073Y1735602D01*
X936311Y1745000D01*
X935073Y1754398D01*
X931446Y1763155D01*
X925676Y1770676D01*
X918155Y1776446D01*
X909398Y1780073D01*
X900000Y1781311D01*
X890602Y1780073D01*
X888760Y1779310D01*
X870645Y1797426D01*
X881845Y1813554D01*
X890602Y1809927D01*
X900000Y1808689D01*
X909398Y1809927D01*
X918155Y1813554D01*
X925676Y1819324D01*
X931446Y1826845D01*
X935073Y1835602D01*
X936311Y1845000D01*
X935073Y1854398D01*
X931446Y1863155D01*
X925676Y1870676D01*
X918155Y1876446D01*
X909398Y1880073D01*
X900000Y1881311D01*
X890602Y1880073D01*
X881845Y1876446D01*
X874324Y1870676D01*
X868554Y1863155D01*
X864927Y1854398D01*
X863689Y1845000D01*
X864927Y1835602D01*
X868554Y1826845D01*
X865021Y1824392D01*
X852426Y1815645D01*
X784313Y1883757D01*
X784313Y3110761D01*
X792057Y3116703D01*
X798035Y3124494D01*
X801794Y3133568D01*
X803076Y3143305D01*
X801794Y3153042D01*
X798035Y3162116D01*
X792057Y3169907D01*
X784265Y3175886D01*
X775192Y3179644D01*
X765454Y3180926D01*
D02*
G37*
G36*
X300000Y1881311D02*
X290602Y1880073D01*
X281845Y1876446D01*
X274325Y1870676D01*
X268554Y1863155D01*
X264927Y1854398D01*
X263689Y1845000D01*
X264927Y1835602D01*
X268554Y1826845D01*
X274325Y1819324D01*
X281845Y1813554D01*
X290602Y1809927D01*
X300000Y1808689D01*
X309398Y1809927D01*
X318155Y1813554D01*
X325675Y1819324D01*
X331446Y1826845D01*
X335073Y1835602D01*
X336311Y1845000D01*
X335073Y1854398D01*
X331446Y1863155D01*
X325675Y1870676D01*
X318155Y1876446D01*
X309398Y1880073D01*
X300000Y1881311D01*
D02*
G37*
G36*
Y1781311D02*
X290602Y1780073D01*
X281845Y1776446D01*
X274325Y1770676D01*
X268554Y1763155D01*
X264927Y1754398D01*
X263689Y1745000D01*
X264927Y1735602D01*
X268554Y1726845D01*
X274325Y1719324D01*
X281845Y1713554D01*
X290602Y1709927D01*
X300000Y1708689D01*
X309398Y1709927D01*
X318155Y1713554D01*
X325675Y1719324D01*
X331446Y1726845D01*
X335073Y1735602D01*
X336311Y1745000D01*
X335073Y1754398D01*
X331446Y1763155D01*
X325675Y1770676D01*
X318155Y1776446D01*
X309398Y1780073D01*
X300000Y1781311D01*
D02*
G37*
G36*
X936000Y1681000D02*
X864000D01*
Y1609000D01*
X936000D01*
Y1681000D01*
D02*
G37*
G36*
X300000Y1681311D02*
X290602Y1680073D01*
X281845Y1676446D01*
X274325Y1670676D01*
X268554Y1663155D01*
X264927Y1654398D01*
X263689Y1645000D01*
X264927Y1635602D01*
X268554Y1626845D01*
X274325Y1619324D01*
X281845Y1613554D01*
X290602Y1609927D01*
X300000Y1608689D01*
X309398Y1609927D01*
X318155Y1613554D01*
X325675Y1619324D01*
X331446Y1626845D01*
X335073Y1635602D01*
X336311Y1645000D01*
X335073Y1654398D01*
X331446Y1663155D01*
X325675Y1670676D01*
X318155Y1676446D01*
X309398Y1680073D01*
X300000Y1681311D01*
D02*
G37*
G36*
X3055000Y1283875D02*
X2807761D01*
Y1196125D01*
X3055000D01*
Y1196500D01*
X3058128D01*
Y1283500D01*
X3055000D01*
Y1283875D01*
D02*
G37*
G36*
X2676632Y1308831D02*
X2663204Y1307509D01*
X2650292Y1303592D01*
X2638392Y1297231D01*
X2627961Y1288671D01*
X2619401Y1278241D01*
X2613040Y1266341D01*
X2609123Y1253428D01*
X2607801Y1240000D01*
X2609123Y1226572D01*
X2613040Y1213659D01*
X2619401Y1201759D01*
X2627961Y1191329D01*
X2638392Y1182769D01*
X2650292Y1176408D01*
X2663204Y1172491D01*
X2676632Y1171169D01*
X2690061Y1172491D01*
X2702973Y1176408D01*
X2714873Y1182769D01*
X2725303Y1191329D01*
X2733863Y1201759D01*
X2740224Y1213659D01*
X2744141Y1226572D01*
X2745464Y1240000D01*
X2744141Y1253428D01*
X2740224Y1266341D01*
X2733863Y1278241D01*
X2725303Y1288671D01*
X2714873Y1297231D01*
X2702973Y1303592D01*
X2690061Y1307509D01*
X2676632Y1308831D01*
D02*
G37*
G36*
X580000Y1207827D02*
X570468Y1206572D01*
X561587Y1202893D01*
X553959Y1197041D01*
X548107Y1189413D01*
X544428Y1180532D01*
X543173Y1171000D01*
X544428Y1161468D01*
X548107Y1152587D01*
X553959Y1144959D01*
X561587Y1139107D01*
X570468Y1135428D01*
X580000Y1134173D01*
X589532Y1135428D01*
X598413Y1139107D01*
X606041Y1144959D01*
X611893Y1152587D01*
X615572Y1161468D01*
X616827Y1171000D01*
X615572Y1180532D01*
X611893Y1189413D01*
X606041Y1197041D01*
X598413Y1202893D01*
X589532Y1206572D01*
X580000Y1207827D01*
D02*
G37*
G36*
X1114488Y1147244D02*
X992441D01*
Y1084252D01*
X1114488D01*
X1114488Y1084252D01*
Y1147244D01*
D02*
G37*
G36*
X2180000Y1086411D02*
X2171806Y1084782D01*
X2164860Y1080140D01*
X2160218Y1073194D01*
X2158589Y1065000D01*
X2160218Y1056806D01*
X2164860Y1049860D01*
X2171806Y1045218D01*
X2180000Y1043589D01*
X2188194Y1045218D01*
X2195140Y1049860D01*
X2199782Y1056806D01*
X2201411Y1065000D01*
X2199782Y1073194D01*
X2195140Y1080140D01*
X2188194Y1084782D01*
X2180000Y1086411D01*
D02*
G37*
G36*
X2327185Y1038809D02*
Y997500D01*
X2368494D01*
X2367784Y1002888D01*
X2362810Y1014898D01*
X2354896Y1025211D01*
X2344583Y1033125D01*
X2332573Y1038099D01*
X2327185Y1038809D01*
D02*
G37*
G36*
X2312185D02*
X2306797Y1038099D01*
X2294787Y1033125D01*
X2284474Y1025211D01*
X2276560Y1014898D01*
X2271586Y1002888D01*
X2270876Y997500D01*
X2312185D01*
Y1038809D01*
D02*
G37*
G36*
X2062588Y1018824D02*
X2054394Y1017194D01*
X2047447Y1012553D01*
X2042806Y1005606D01*
X2041176Y997413D01*
X2042806Y989219D01*
X2047447Y982272D01*
X2054394Y977631D01*
X2062588Y976001D01*
X2070781Y977631D01*
X2077728Y982272D01*
X2082369Y989219D01*
X2083999Y997413D01*
X2082369Y1005606D01*
X2077728Y1012553D01*
X2070781Y1017194D01*
X2062588Y1018824D01*
D02*
G37*
G36*
X2800000Y1035762D02*
X2788156Y1034202D01*
X2777119Y1029631D01*
X2767642Y1022358D01*
X2760369Y1012881D01*
X2755798Y1001844D01*
X2754238Y990000D01*
X2755798Y978156D01*
X2760369Y967119D01*
X2767642Y957642D01*
X2777119Y950369D01*
X2788156Y945798D01*
X2800000Y944238D01*
X2811844Y945798D01*
X2822881Y950369D01*
X2832358Y957642D01*
X2839631Y967119D01*
X2844202Y978156D01*
X2845762Y990000D01*
X2844202Y1001844D01*
X2839631Y1012881D01*
X2832358Y1022358D01*
X2822881Y1029631D01*
X2811844Y1034202D01*
X2800000Y1035762D01*
D02*
G37*
G36*
X2368494Y982500D02*
X2327185D01*
Y941191D01*
X2332573Y941901D01*
X2344583Y946875D01*
X2354896Y954789D01*
X2362810Y965102D01*
X2367784Y977112D01*
X2368494Y982500D01*
D02*
G37*
G36*
X2312185D02*
X2270876D01*
X2271586Y977112D01*
X2276560Y965102D01*
X2284474Y954789D01*
X2294787Y946875D01*
X2306797Y941901D01*
X2312185Y941191D01*
Y982500D01*
D02*
G37*
G36*
X1160000Y971411D02*
X1151806Y969782D01*
X1144860Y965140D01*
X1140218Y958194D01*
X1138589Y950000D01*
X1140218Y941806D01*
X1144860Y934860D01*
X1151806Y930218D01*
X1160000Y928589D01*
X1168194Y930218D01*
X1175140Y934860D01*
X1179782Y941806D01*
X1181411Y950000D01*
X1179782Y958194D01*
X1175140Y965140D01*
X1168194Y969782D01*
X1160000Y971411D01*
D02*
G37*
G36*
X2735000Y881411D02*
X2726806Y879782D01*
X2719860Y875140D01*
X2715218Y868194D01*
X2713589Y860000D01*
X2715218Y851806D01*
X2719860Y844860D01*
X2726806Y840218D01*
X2735000Y838589D01*
X2743194Y840218D01*
X2750140Y844860D01*
X2754782Y851806D01*
X2756411Y860000D01*
X2754782Y868194D01*
X2750140Y875140D01*
X2743194Y879782D01*
X2735000Y881411D01*
D02*
G37*
G36*
X1955000Y1691411D02*
X1946806Y1689782D01*
X1939860Y1685140D01*
X1935218Y1678194D01*
X1933589Y1670000D01*
X1935218Y1661806D01*
X1939860Y1654860D01*
X1943784Y1652237D01*
Y827217D01*
X1941806Y826824D01*
X1934860Y822182D01*
X1930218Y815236D01*
X1928589Y807042D01*
X1930218Y798848D01*
X1934860Y791902D01*
X1941806Y787260D01*
X1950000Y785631D01*
X1958194Y787260D01*
X1965140Y791902D01*
X1969782Y798848D01*
X1971411Y807042D01*
X1969782Y815236D01*
X1965859Y821107D01*
X1966216Y822900D01*
X1966216Y822900D01*
Y1652237D01*
X1970140Y1654860D01*
X1974782Y1661806D01*
X1976411Y1670000D01*
X1974782Y1678194D01*
X1970140Y1685140D01*
X1963194Y1689782D01*
X1955000Y1691411D01*
D02*
G37*
G36*
X2286315Y799150D02*
X2195575D01*
Y708409D01*
X2286315D01*
Y799150D01*
D02*
G37*
G36*
X2415276Y1376018D02*
X2407082Y1374388D01*
X2400135Y1369746D01*
X2395494Y1362800D01*
X2393864Y1354606D01*
X2395494Y1346412D01*
X2400135Y1339466D01*
X2404060Y1336844D01*
Y750921D01*
X2180522Y527383D01*
X2175893Y528304D01*
X2167699Y526674D01*
X2160753Y522033D01*
X2156111Y515087D01*
X2154481Y506893D01*
X2156111Y498699D01*
X2160753Y491753D01*
X2167699Y487111D01*
X2175893Y485481D01*
X2184087Y487111D01*
X2191033Y491753D01*
X2195674Y498699D01*
X2197304Y506893D01*
X2196383Y511522D01*
X2423206Y738345D01*
X2423206Y738345D01*
X2425637Y741984D01*
X2426491Y746276D01*
X2426491Y746276D01*
Y1336844D01*
X2430416Y1339466D01*
X2435057Y1346412D01*
X2436687Y1354606D01*
X2435057Y1362800D01*
X2430416Y1369746D01*
X2423469Y1374388D01*
X2415276Y1376018D01*
D02*
G37*
G36*
X2800000Y563321D02*
X2788156Y561761D01*
X2777119Y557190D01*
X2767642Y549917D01*
X2760369Y540440D01*
X2755798Y529403D01*
X2754238Y517559D01*
X2755798Y505715D01*
X2760369Y494678D01*
X2767642Y485201D01*
X2777119Y477928D01*
X2788156Y473357D01*
X2800000Y471797D01*
X2811844Y473357D01*
X2822881Y477928D01*
X2832358Y485201D01*
X2839631Y494678D01*
X2844202Y505715D01*
X2845762Y517559D01*
X2844202Y529403D01*
X2839631Y540440D01*
X2832358Y549917D01*
X2822881Y557190D01*
X2811844Y561761D01*
X2800000Y563321D01*
D02*
G37*
G36*
X2319685D02*
X2307841Y561761D01*
X2296804Y557190D01*
X2287327Y549917D01*
X2280054Y540440D01*
X2275483Y529403D01*
X2273923Y517559D01*
X2275483Y505715D01*
X2280054Y494678D01*
X2287327Y485201D01*
X2296804Y477928D01*
X2307841Y473357D01*
X2319685Y471797D01*
X2331529Y473357D01*
X2342566Y477928D01*
X2352043Y485201D01*
X2359316Y494678D01*
X2363887Y505715D01*
X2365447Y517559D01*
X2363887Y529403D01*
X2359316Y540440D01*
X2352043Y549917D01*
X2342566Y557190D01*
X2331529Y561761D01*
X2319685Y563321D01*
D02*
G37*
G36*
X1159777Y818784D02*
X1151584Y817155D01*
X1144637Y812513D01*
X1139996Y805567D01*
X1138366Y797373D01*
X1139996Y789179D01*
X1144637Y782233D01*
X1151584Y777591D01*
X1159777Y775962D01*
X1164407Y776882D01*
X1659720Y281570D01*
X1659720Y281569D01*
X1663358Y279138D01*
X1667650Y278284D01*
X1667651Y278284D01*
X1939572D01*
X1941860Y274860D01*
X1948806Y270218D01*
X1957000Y268589D01*
X1965194Y270218D01*
X1972140Y274860D01*
X1976782Y281806D01*
X1978411Y290000D01*
X1976782Y298194D01*
X1972140Y305140D01*
X1965194Y309782D01*
X1957000Y311411D01*
X1948806Y309782D01*
X1941860Y305140D01*
X1938903Y300716D01*
X1672296D01*
X1180268Y792744D01*
X1181189Y797373D01*
X1179559Y805567D01*
X1174918Y812513D01*
X1167971Y817155D01*
X1159777Y818784D01*
D02*
G37*
%LPD*%
G36*
X1785913Y2795623D02*
X1785922Y2795619D01*
X1785925Y2795611D01*
X1788205Y2794680D01*
X1790510Y2793733D01*
X1790519Y2793736D01*
X1790527Y2793733D01*
X1890370Y2794261D01*
X1890372Y2794262D01*
X1890374Y2794261D01*
X1890469Y2794262D01*
X1890667Y2794263D01*
X1890667Y2794263D01*
X1895171Y2794287D01*
X1895172Y2794287D01*
X1896455Y2794293D01*
X1900000Y2790767D01*
Y2789484D01*
X1900000Y2789483D01*
X1900000Y2784697D01*
X1900000Y2686793D01*
X1900083Y2686594D01*
X1900013Y2686390D01*
X1901022Y2684325D01*
X1901902Y2682201D01*
X1902102Y2682118D01*
X1902196Y2681924D01*
X1904668Y2679742D01*
X1905805Y2679352D01*
X1906682Y2678532D01*
X1919664Y2673656D01*
X1921375Y2667672D01*
X1918107Y2663413D01*
X1914428Y2654532D01*
X1913173Y2645000D01*
X1914428Y2635468D01*
X1918107Y2626587D01*
X1921375Y2622328D01*
X1919664Y2616344D01*
X1906682Y2611468D01*
X1905805Y2610648D01*
X1904668Y2610258D01*
X1902196Y2608076D01*
X1902102Y2607882D01*
X1901902Y2607799D01*
X1901022Y2605675D01*
X1900013Y2603610D01*
X1900083Y2603406D01*
X1900000Y2603207D01*
X1900000Y2080403D01*
Y2050764D01*
X1900000Y2044464D01*
X1900000Y2044464D01*
Y2040000D01*
X1895536D01*
X1895535Y2040000D01*
X1889185Y2040000D01*
X1131292Y2040000D01*
D01*
X1130000D01*
X1129086Y2040914D01*
X1085914Y2084086D01*
X1085000Y2085000D01*
Y2086292D01*
Y2788708D01*
Y2790000D01*
X1086292Y2790007D01*
D01*
X1101070Y2790085D01*
X1740141Y2793466D01*
X1743686Y2789940D01*
Y2789533D01*
Y2323384D01*
X1740218Y2318194D01*
X1738589Y2310000D01*
X1740218Y2301806D01*
X1744860Y2294860D01*
X1751806Y2290218D01*
X1760000Y2288589D01*
X1768194Y2290218D01*
X1775140Y2294860D01*
X1779782Y2301806D01*
X1781411Y2310000D01*
X1779782Y2318194D01*
X1776313Y2323384D01*
Y2793658D01*
Y2798659D01*
X1780930Y2800579D01*
X1785913Y2795623D01*
D02*
G37*
%LPC*%
G36*
X1175000Y2717419D02*
X1166609Y2716314D01*
X1158791Y2713076D01*
X1152076Y2707924D01*
X1146924Y2701209D01*
X1143686Y2693391D01*
X1142581Y2685000D01*
X1143686Y2676609D01*
X1146924Y2668791D01*
X1152076Y2662076D01*
X1158791Y2656924D01*
X1166609Y2653686D01*
X1175000Y2652581D01*
X1183391Y2653686D01*
X1191209Y2656924D01*
X1197924Y2662076D01*
X1203076Y2668791D01*
X1206314Y2676609D01*
X1207419Y2685000D01*
X1206314Y2693391D01*
X1203076Y2701209D01*
X1197924Y2707924D01*
X1191209Y2713076D01*
X1183391Y2716314D01*
X1175000Y2717419D01*
D02*
G37*
G36*
X1182500Y2620466D02*
Y2592500D01*
X1210466D01*
X1210211Y2594435D01*
X1206570Y2603227D01*
X1200777Y2610777D01*
X1193227Y2616570D01*
X1184435Y2620211D01*
X1182500Y2620466D01*
D02*
G37*
G36*
X1167500D02*
X1165565Y2620211D01*
X1156773Y2616570D01*
X1149223Y2610777D01*
X1143430Y2603227D01*
X1139789Y2594435D01*
X1139534Y2592500D01*
X1167500D01*
Y2620466D01*
D02*
G37*
G36*
X1520000Y2625203D02*
Y2590000D01*
X1555203D01*
X1554469Y2595576D01*
X1550387Y2605431D01*
X1543893Y2613893D01*
X1535431Y2620387D01*
X1525576Y2624469D01*
X1520000Y2625203D01*
D02*
G37*
G36*
X1510000D02*
X1504424Y2624469D01*
X1494569Y2620387D01*
X1486107Y2613893D01*
X1479613Y2605431D01*
X1475531Y2595576D01*
X1474797Y2590000D01*
X1510000D01*
Y2625203D01*
D02*
G37*
G36*
X1210466Y2577500D02*
X1182500D01*
Y2549534D01*
X1184435Y2549789D01*
X1193227Y2553430D01*
X1200777Y2559223D01*
X1206570Y2566773D01*
X1210211Y2575565D01*
X1210466Y2577500D01*
D02*
G37*
G36*
X1167500D02*
X1139534D01*
X1139789Y2575565D01*
X1143430Y2566773D01*
X1149223Y2559223D01*
X1156773Y2553430D01*
X1165565Y2549789D01*
X1167500Y2549534D01*
Y2577500D01*
D02*
G37*
G36*
X1555203Y2580000D02*
X1520000D01*
Y2544797D01*
X1525576Y2545531D01*
X1535431Y2549613D01*
X1543893Y2556107D01*
X1550387Y2564569D01*
X1554469Y2574424D01*
X1555203Y2580000D01*
D02*
G37*
G36*
X1510000D02*
X1474797D01*
X1475531Y2574424D01*
X1479613Y2564569D01*
X1486107Y2556107D01*
X1494569Y2549613D01*
X1504424Y2545531D01*
X1510000Y2544797D01*
Y2580000D01*
D02*
G37*
G36*
X1175000Y2517419D02*
X1166609Y2516314D01*
X1158791Y2513076D01*
X1152076Y2507924D01*
X1146924Y2501209D01*
X1143686Y2493391D01*
X1142581Y2485000D01*
X1143686Y2476609D01*
X1146924Y2468791D01*
X1152076Y2462076D01*
X1158791Y2456924D01*
X1166609Y2453686D01*
X1175000Y2452581D01*
X1183391Y2453686D01*
X1191209Y2456924D01*
X1197924Y2462076D01*
X1203076Y2468791D01*
X1206314Y2476609D01*
X1207419Y2485000D01*
X1206314Y2493391D01*
X1203076Y2501209D01*
X1197924Y2507924D01*
X1191209Y2513076D01*
X1183391Y2516314D01*
X1175000Y2517419D01*
D02*
G37*
G36*
X1182500Y2220466D02*
Y2192500D01*
X1210466D01*
X1210211Y2194435D01*
X1206570Y2203227D01*
X1200777Y2210777D01*
X1193227Y2216570D01*
X1184435Y2220211D01*
X1182500Y2220466D01*
D02*
G37*
G36*
X1167500D02*
X1165565Y2220211D01*
X1156773Y2216570D01*
X1149223Y2210777D01*
X1143430Y2203227D01*
X1139789Y2194435D01*
X1139534Y2192500D01*
X1167500D01*
Y2220466D01*
D02*
G37*
G36*
X1210466Y2177500D02*
X1182500D01*
Y2149534D01*
X1184435Y2149789D01*
X1193227Y2153430D01*
X1200777Y2159223D01*
X1206570Y2166773D01*
X1210211Y2175565D01*
X1210466Y2177500D01*
D02*
G37*
G36*
X1167500D02*
X1139534D01*
X1139789Y2175565D01*
X1143430Y2166773D01*
X1149223Y2159223D01*
X1156773Y2153430D01*
X1165565Y2149789D01*
X1167500Y2149534D01*
Y2177500D01*
D02*
G37*
G36*
X1207142Y2117142D02*
X1142858D01*
Y2052858D01*
X1207142D01*
Y2117142D01*
D02*
G37*
%LPD*%
D51*
X1950000Y807042D02*
X1953827Y810869D01*
Y821727D01*
X1955000Y822900D01*
Y1670000D01*
X2415276Y746276D02*
Y1354606D01*
X2177000Y508000D02*
X2415276Y746276D01*
X759098Y847499D02*
Y849304D01*
X726598Y815000D02*
X759098Y847499D01*
X550472Y768213D02*
Y773598D01*
X540000Y757740D02*
X550472Y768213D01*
X540000Y544961D02*
Y757740D01*
X2785566Y2617664D02*
X2787402Y2615829D01*
Y2512402D02*
Y2615829D01*
X2710000Y2435000D02*
X2787402Y2512402D01*
X2814000Y2399000D02*
X2815000Y2400000D01*
X2396000Y2399000D02*
X2814000D01*
X352756Y814000D02*
Y882756D01*
X235512Y1000000D02*
X352756Y882756D01*
X447244Y815000D02*
X726598D01*
X1667650Y289500D02*
X1956500D01*
X1957000Y290000D01*
X1159777Y797373D02*
X1667650Y289500D01*
X2391173Y2403827D02*
X2396000Y2399000D01*
X2635157Y1990000D02*
Y2008237D01*
X2635000Y2215000D02*
X2635157Y2214843D01*
X2210000Y1990000D02*
X2545000D01*
X2895000Y1920000D02*
X2920000Y1945000D01*
X2760000Y1920000D02*
X2895000D01*
X2823207Y1947402D02*
X2842535Y1966730D01*
Y2084232D01*
X2841768Y2085000D02*
X2842535Y2084232D01*
X2774850Y1947402D02*
X2823207D01*
X2545000Y1990000D02*
X2555000Y2000000D01*
X2635157Y1990000D02*
X2647658Y1977500D01*
X2816535D01*
X2295000Y2475000D02*
X2366173Y2403827D01*
X2391173D01*
D52*
X2908131Y1858131D02*
X2955000Y1905000D01*
X2792109Y1858131D02*
X2908131D01*
X226000Y545000D02*
X613701Y157299D01*
X2480000Y3080000D02*
X2810000D01*
X2955000Y2935000D01*
X226000Y545000D02*
Y933983D01*
X152000Y1007983D02*
X226000Y933983D01*
X667000Y2742000D02*
Y3143305D01*
X570000Y2645000D02*
X667000Y2742000D01*
X768000Y3143305D02*
X768000Y1877000D01*
X900000Y1745000D01*
X795000Y3327402D02*
X863880Y3258522D01*
Y3143305D02*
Y3258522D01*
X152000Y2976000D02*
X503402Y3327402D01*
X152000Y1007983D02*
Y2976000D01*
X260277Y595000D02*
X400000Y734723D01*
X392992Y1000000D02*
X400000Y992992D01*
Y734723D02*
Y815000D01*
X503402Y3327402D02*
X795000D01*
X1250000Y3210000D02*
X1335000Y3295000D01*
X2120000D01*
X2225000Y3190000D01*
X2635157Y2069439D02*
Y2214843D01*
X2307680Y2307320D02*
X2479571D01*
X2542680D01*
X2225000Y2825000D02*
Y3190000D01*
X400000Y850000D02*
Y992992D01*
X2542680Y2307320D02*
X2635000Y2215000D01*
X2225000Y2390000D02*
X2307680Y2307320D01*
X2115000Y2085000D02*
Y2665000D01*
Y2085000D02*
X2210000Y1990000D01*
X2955000Y2305000D02*
Y2935000D01*
X1650000Y3105000D02*
Y3150000D01*
Y3105000D02*
X1760000Y2995000D01*
Y2310000D02*
Y2995000D01*
X1915000Y3150000D02*
X1980000D01*
X1760000Y2995000D02*
X1915000Y3150000D01*
X2955000Y1905000D02*
Y2305000D01*
X2225000Y2390000D02*
Y2825000D01*
X1250000Y3080000D02*
Y3210000D01*
X300000Y2645000D02*
X570000D01*
D53*
X2665964Y2049036D02*
X2675000Y2040000D01*
X2551161Y2030000D02*
X2570197Y2049036D01*
X2665964D01*
X2581237Y2026237D02*
X2653641D01*
X2555000Y2000000D02*
X2581237Y2026237D01*
X2653641D02*
X2655000Y2024878D01*
X2510000Y2030000D02*
X2551161D01*
D54*
X2510000Y1876535D02*
X2578535Y1808000D01*
X2760000D01*
D55*
X2733660Y1835000D02*
X2959410D01*
X2696087Y1864819D02*
X2703841D01*
X2688188Y1872717D02*
Y1880472D01*
Y1872717D02*
X2696087Y1864819D01*
X2703841D02*
X2733660Y1835000D01*
D57*
X3165000Y395772D02*
Y2945000D01*
X3000000Y3110000D02*
Y3305000D01*
Y3110000D02*
X3165000Y2945000D01*
X355000Y45000D02*
X2840000D01*
X3000000Y205000D01*
X195000D02*
X355000Y45000D01*
X55000Y345000D02*
X195000Y205000D01*
X55000Y345000D02*
Y3165000D01*
X195000Y3305000D01*
X3000000Y230772D02*
X3165000Y395772D01*
X3000000Y205000D02*
Y230772D01*
D64*
X629212Y1000000D02*
D03*
X550472D02*
D03*
X786693D02*
D03*
X707953D02*
D03*
X314252D02*
D03*
X471732D02*
D03*
X392992D02*
D03*
D65*
X235512D02*
D03*
D66*
X962305Y3143305D02*
D03*
X765454D02*
D03*
X863880D02*
D03*
D67*
X667029D02*
D03*
D68*
X900000Y2645000D02*
D03*
Y2745000D02*
D03*
Y2545000D02*
D03*
X300000Y2645000D02*
D03*
X900000Y1845000D02*
D03*
Y1745000D02*
D03*
X300000Y2745000D02*
D03*
Y1845000D02*
D03*
Y2545000D02*
D03*
Y1745000D02*
D03*
Y1645000D02*
D03*
D69*
X900000D02*
D03*
D70*
X1980000Y3150000D02*
D03*
X1840000D02*
D03*
X1910000Y3080000D02*
D03*
X1510000Y3150000D02*
D03*
X1580000Y3080000D02*
D03*
X1650000Y3150000D02*
D03*
X1180000D02*
D03*
X1250000Y3080000D02*
D03*
X1320000Y3150000D02*
D03*
D71*
X2851636Y1240000D02*
D03*
D72*
X3014628D02*
D03*
D73*
X2676632D02*
D03*
D74*
X195000Y205000D02*
D03*
Y3280000D02*
D03*
X3010000D02*
D03*
Y205000D02*
D03*
D75*
X2800000Y990000D02*
D03*
Y517559D02*
D03*
X2319685Y990000D02*
D03*
Y517559D02*
D03*
D76*
X2240945Y753779D02*
D03*
D77*
X2815768Y2260000D02*
D03*
X2955000Y2485000D02*
D03*
X2540000Y2145000D02*
D03*
X3070000Y2160000D02*
D03*
X3065000Y1860000D02*
D03*
X580000Y1171000D02*
D03*
X2565000Y2905000D02*
D03*
X2479571Y2305000D02*
D03*
X2210000Y1990000D02*
D03*
X1950000Y2645000D02*
D03*
X1965000Y2300000D02*
D03*
X1515000Y2585000D02*
D03*
D78*
X2465000Y2685000D02*
D03*
X2365000D02*
D03*
X2565000D02*
D03*
D79*
X141000Y686000D02*
D03*
Y486000D02*
D03*
D80*
X1175000Y2085000D02*
D03*
D81*
Y2185000D02*
D03*
Y2585000D02*
D03*
Y2685000D02*
D03*
Y2485000D02*
D03*
D82*
X2645000Y1951339D02*
D03*
X2686339Y1910000D02*
D03*
X2645000D02*
D03*
Y1868661D02*
D03*
X2603661Y1910000D02*
D03*
D83*
X2175893Y506893D02*
D03*
X2415276Y1354606D02*
D03*
X288000Y729000D02*
D03*
X2760000Y1808000D02*
D03*
X759098Y849304D02*
D03*
X613701Y157299D02*
D03*
X1160000Y1115748D02*
D03*
X2480000Y3080000D02*
D03*
X2080000Y2370000D02*
D03*
X2399409Y2164685D02*
D03*
X3019646Y2041162D02*
D03*
X2873465Y1756500D02*
D03*
X2618984Y1350428D02*
D03*
X2230000Y1745000D02*
D03*
X1725000Y375000D02*
D03*
X1669291Y730000D02*
D03*
X1365000Y895000D02*
D03*
X1083965Y960000D02*
D03*
X2062588Y997413D02*
D03*
X883465Y467000D02*
D03*
X540000Y544961D02*
D03*
X621535Y430360D02*
D03*
X2855000Y2433000D02*
D03*
X2785566Y2617664D02*
D03*
X2710000Y2435000D02*
D03*
X352756Y814000D02*
D03*
X550472Y773598D02*
D03*
X400000Y581000D02*
D03*
X447244Y815000D02*
D03*
X1815000Y2570000D02*
D03*
X1561929Y2825000D02*
D03*
X1637824D02*
D03*
X1715000D02*
D03*
X1805000D02*
D03*
X1865000D02*
D03*
X1405000Y2340000D02*
D03*
X1500000D02*
D03*
X1630000D02*
D03*
X1600000Y2570000D02*
D03*
X260277Y595000D02*
D03*
X1957000Y290000D02*
D03*
X1159777Y797373D02*
D03*
X2735000Y860000D02*
D03*
X2180000Y1065000D02*
D03*
X2295000Y2475000D02*
D03*
X2395000Y2400000D02*
D03*
X1659755Y2570000D02*
D03*
X1725591D02*
D03*
X1160000Y950000D02*
D03*
X1760000Y2310000D02*
D03*
X2959410Y1835000D02*
D03*
X2920000Y1945000D02*
D03*
X2841768Y2085000D02*
D03*
X2115000Y2665000D02*
D03*
X2510000Y2030000D02*
D03*
X2815000Y2400000D02*
D03*
X1950000Y807042D02*
D03*
X1955000Y1670000D02*
D03*
X2816535Y1977500D02*
D03*
X2510000Y1876535D02*
D03*
D84*
X2792109Y1858131D02*
D03*
X2635157Y2069439D02*
D03*
Y2008237D02*
D03*
X2760000Y1920000D02*
D03*
X2655000Y2024878D02*
D03*
X2774850Y1947402D02*
D03*
X2675000Y2040000D02*
D03*
D85*
X400000Y815000D02*
D03*
Y850000D02*
D03*
D86*
Y815000D02*
Y850000D01*
D87*
X2963500Y1239500D02*
D03*
D88*
X2893500D02*
D03*
D89*
X2644798Y1910492D02*
D03*
%TF.MD5,59f572d4ad615d92f3f4f0a5b9760891*%
M02*
