%TF.GenerationSoftware,Altium Limited,Altium Designer,20.0.11 (256)*%
G04 Layer_Color=8388736*
%FSLAX26Y26*%
%MOIN*%
%TF.FileFunction,Other,Mechanical_6*%
%TF.Part,Single*%
G01*
G75*
%TA.AperFunction,NonConductor*%
%ADD159C,0.004000*%
D159*
X997402Y1398622D02*
Y1418622D01*
X987402Y1408622D02*
X1007402D01*
X1738465Y965000D02*
Y985000D01*
X1728465Y975000D02*
X1748465D01*
X1705000Y2675000D02*
Y2695000D01*
X1695000Y2685000D02*
X1715000D01*
X2845000Y1805000D02*
Y1825000D01*
X2835000Y1815000D02*
X2855000D01*
X1740000Y2435000D02*
Y2455000D01*
X1730000Y2445000D02*
X1750000D01*
X195000Y205000D02*
Y305000D01*
Y205000D02*
X295000D01*
X195000Y105000D02*
Y205000D01*
X95000D02*
X195000D01*
X2165000Y2425000D02*
Y2445000D01*
X2155000Y2435000D02*
X2175000D01*
X2855000Y2520000D02*
Y2540000D01*
X2845000Y2530000D02*
X2865000D01*
X595000Y235000D02*
Y255000D01*
X585000Y245000D02*
X605000D01*
X1110000Y205000D02*
Y225000D01*
X1100000Y215000D02*
X1120000D01*
X410000Y616500D02*
Y636500D01*
X400000Y626500D02*
X420000D01*
X782402Y1415748D02*
Y1435748D01*
X772402Y1425748D02*
X792402D01*
X1020000Y215000D02*
X1040000D01*
X1030000Y205000D02*
Y225000D01*
X830315Y90000D02*
Y110000D01*
X820315Y100000D02*
X840315D01*
X638465Y90000D02*
Y110000D01*
X628465Y100000D02*
X648465D01*
X1010000Y1539016D02*
Y1559016D01*
X1000000Y1549016D02*
X1020000D01*
X1610000Y2680000D02*
Y2700000D01*
X1600000Y2690000D02*
X1620000D01*
X1748465Y730000D02*
X1768465D01*
X1758465Y720000D02*
Y740000D01*
X1748465Y425000D02*
X1768465D01*
X1758465Y415000D02*
Y435000D01*
X888465Y740000D02*
Y760000D01*
X878465Y750000D02*
X898465D01*
X1388465Y835000D02*
X1408465D01*
X1398465Y825000D02*
Y845000D01*
X1108465Y905000D02*
X1128465D01*
X1118465Y895000D02*
Y915000D01*
X1888465Y625000D02*
Y645000D01*
X1878465Y635000D02*
X1898465D01*
X963465Y740000D02*
Y760000D01*
X953465Y750000D02*
X973465D01*
X2380000Y1900000D02*
Y1920000D01*
X2370000Y1910000D02*
X2390000D01*
X2460000Y1900000D02*
Y1920000D01*
X2450000Y1910000D02*
X2470000D01*
X2830000Y1691535D02*
X2850000D01*
X2840000Y1681535D02*
Y1701535D01*
X2315000Y1745000D02*
X2335000D01*
X2325000Y1735000D02*
Y1755000D01*
X2625000Y1440000D02*
Y1460000D01*
X2615000Y1450000D02*
X2635000D01*
X2725000Y1725000D02*
X2745000D01*
X2735000Y1715000D02*
Y1735000D01*
X2655157Y1725000D02*
X2675157D01*
X2665157Y1715000D02*
Y1735000D01*
X2585000Y1725000D02*
X2605000D01*
X2595000Y1715000D02*
Y1735000D01*
X2515000Y1725000D02*
X2535000D01*
X2525000Y1715000D02*
Y1735000D01*
X1620000Y2435000D02*
Y2455000D01*
X1610000Y2445000D02*
X1630000D01*
X195000Y3280000D02*
Y3380000D01*
X95000Y3280000D02*
X195000D01*
Y3180000D02*
Y3280000D01*
X295000D01*
X3010000D02*
Y3380000D01*
X2910000Y3280000D02*
X3010000D01*
Y3180000D02*
Y3280000D01*
X3110000D01*
X3010000Y205000D02*
Y305000D01*
X2910000Y205000D02*
X3010000D01*
Y105000D02*
Y205000D01*
X3110000D01*
X2025000Y290000D02*
X2045000D01*
X2035000Y280000D02*
Y300000D01*
X2313344Y1386929D02*
Y1406929D01*
X2303344Y1396929D02*
X2323344D01*
X1270276Y737008D02*
Y757008D01*
X1260276Y747008D02*
X1280276D01*
X2450000Y1715000D02*
Y1735000D01*
X2440000Y1725000D02*
X2460000D01*
X1874000Y290000D02*
X1894000D01*
X1884000Y280000D02*
Y300000D01*
X645000Y485000D02*
X665000D01*
X655000Y475000D02*
Y495000D01*
X840000Y410000D02*
X860000D01*
X850000Y400000D02*
Y420000D01*
X2124782Y2815000D02*
X2144782D01*
X2134782Y2805000D02*
Y2825000D01*
X675000Y300000D02*
Y320000D01*
X665000Y310000D02*
X685000D01*
%TF.MD5,fdc825c6b673d8b9348bc9c3bf64314d*%
M02*
