%TF.GenerationSoftware,Altium Limited,Altium Designer,20.0.11 (256)*%
G04 Layer_Color=8388736*
%FSLAX26Y26*%
%MOIN*%
%TF.FileFunction,Other,Top_3D_Body*%
%TF.Part,Single*%
G01*
G75*
%TA.AperFunction,NonConductor*%
%ADD113C,0.007874*%
%ADD115C,0.005000*%
%ADD161C,0.002000*%
G36*
X1749092Y840400D02*
X1749401Y840382D01*
X1749747Y840346D01*
X1750147Y840309D01*
X1750566Y840273D01*
X1751021Y840200D01*
X1751494Y840127D01*
X1751967Y840018D01*
X1752459Y839909D01*
X1752932Y839763D01*
X1753423Y839600D01*
X1753878Y839418D01*
X1754315Y839199D01*
X1754333Y839181D01*
X1754406Y839145D01*
X1754533Y839072D01*
X1754679Y838981D01*
X1754861Y838853D01*
X1755079Y838690D01*
X1755298Y838508D01*
X1755553Y838307D01*
X1755807Y838071D01*
X1756080Y837798D01*
X1756353Y837525D01*
X1756608Y837197D01*
X1756863Y836870D01*
X1757100Y836487D01*
X1757318Y836105D01*
X1757518Y835687D01*
X1757536Y835650D01*
X1757555Y835577D01*
X1757609Y835450D01*
X1757664Y835268D01*
X1757737Y835031D01*
X1757809Y834740D01*
X1757900Y834413D01*
X1757991Y834030D01*
X1758082Y833594D01*
X1758173Y833120D01*
X1758246Y832611D01*
X1758319Y832047D01*
X1758374Y831446D01*
X1758428Y830791D01*
X1758446Y830099D01*
X1758465Y829371D01*
Y814811D01*
X1755134D01*
Y829353D01*
Y829389D01*
Y829499D01*
Y829662D01*
X1755116Y829881D01*
Y830154D01*
X1755098Y830463D01*
X1755079Y830809D01*
X1755061Y831191D01*
X1755025Y831573D01*
X1754988Y831974D01*
X1754879Y832775D01*
X1754806Y833157D01*
X1754734Y833539D01*
X1754643Y833885D01*
X1754533Y834194D01*
Y834212D01*
X1754497Y834267D01*
X1754461Y834340D01*
X1754406Y834449D01*
X1754351Y834576D01*
X1754260Y834722D01*
X1754042Y835068D01*
X1753751Y835450D01*
X1753587Y835650D01*
X1753387Y835850D01*
X1753187Y836051D01*
X1752950Y836233D01*
X1752713Y836415D01*
X1752440Y836578D01*
X1752422D01*
X1752368Y836615D01*
X1752295Y836651D01*
X1752167Y836706D01*
X1752022Y836779D01*
X1751858Y836851D01*
X1751658Y836924D01*
X1751421Y836997D01*
X1751166Y837070D01*
X1750893Y837143D01*
X1750602Y837215D01*
X1750275Y837288D01*
X1749929Y837343D01*
X1749565Y837379D01*
X1749201Y837397D01*
X1748800Y837416D01*
X1748637D01*
X1748455Y837397D01*
X1748200D01*
X1747890Y837361D01*
X1747563Y837325D01*
X1747181Y837270D01*
X1746762Y837215D01*
X1746343Y837124D01*
X1745907Y837015D01*
X1745470Y836870D01*
X1745033Y836724D01*
X1744614Y836524D01*
X1744232Y836305D01*
X1743868Y836051D01*
X1743559Y835759D01*
X1743541Y835741D01*
X1743486Y835687D01*
X1743413Y835577D01*
X1743322Y835432D01*
X1743195Y835232D01*
X1743067Y834977D01*
X1742922Y834686D01*
X1742776Y834322D01*
X1742631Y833921D01*
X1742485Y833466D01*
X1742358Y832938D01*
X1742230Y832356D01*
X1742139Y831701D01*
X1742066Y830991D01*
X1742012Y830208D01*
X1741994Y829353D01*
Y814811D01*
X1738663D01*
Y829371D01*
Y829389D01*
Y829408D01*
Y829462D01*
Y829535D01*
Y829626D01*
Y829735D01*
X1738681Y829990D01*
Y830318D01*
X1738699Y830682D01*
X1738736Y831100D01*
X1738772Y831537D01*
X1738827Y832010D01*
X1738881Y832502D01*
X1739027Y833503D01*
X1739136Y834012D01*
X1739245Y834485D01*
X1739391Y834959D01*
X1739537Y835395D01*
X1739555Y835414D01*
X1739573Y835486D01*
X1739628Y835614D01*
X1739700Y835759D01*
X1739810Y835960D01*
X1739919Y836178D01*
X1740064Y836415D01*
X1740246Y836688D01*
X1740447Y836979D01*
X1740665Y837270D01*
X1740920Y837561D01*
X1741211Y837871D01*
X1741520Y838180D01*
X1741848Y838471D01*
X1742230Y838762D01*
X1742631Y839035D01*
X1742649Y839054D01*
X1742740Y839090D01*
X1742867Y839163D01*
X1743031Y839254D01*
X1743268Y839363D01*
X1743522Y839472D01*
X1743850Y839600D01*
X1744196Y839727D01*
X1744614Y839854D01*
X1745051Y839982D01*
X1745524Y840091D01*
X1746052Y840200D01*
X1746616Y840291D01*
X1747217Y840364D01*
X1747836Y840400D01*
X1748509Y840419D01*
X1748855D01*
X1749092Y840400D01*
D02*
G37*
G36*
X1726469D02*
X1726724Y840382D01*
X1727033Y840346D01*
X1727397Y840309D01*
X1727816Y840237D01*
X1728253Y840146D01*
X1728726Y840018D01*
X1729217Y839873D01*
X1729709Y839709D01*
X1730218Y839490D01*
X1730728Y839236D01*
X1731219Y838944D01*
X1731674Y838599D01*
X1732129Y838216D01*
X1732147Y838198D01*
X1732220Y838107D01*
X1732348Y837998D01*
X1732475Y837816D01*
X1732657Y837598D01*
X1732857Y837343D01*
X1733057Y837052D01*
X1733258Y836706D01*
X1733476Y836324D01*
X1733676Y835905D01*
X1733876Y835450D01*
X1734040Y834977D01*
X1734186Y834449D01*
X1734313Y833903D01*
X1734386Y833321D01*
X1734404Y832720D01*
Y832684D01*
Y832611D01*
Y832483D01*
X1734386Y832301D01*
X1734368Y832101D01*
X1734331Y831846D01*
X1734295Y831573D01*
X1734240Y831282D01*
X1734186Y830973D01*
X1734095Y830627D01*
X1734004Y830299D01*
X1733876Y829954D01*
X1733731Y829608D01*
X1733567Y829262D01*
X1733385Y828934D01*
X1733167Y828607D01*
X1733148Y828589D01*
X1733112Y828534D01*
X1733039Y828443D01*
X1732930Y828334D01*
X1732803Y828206D01*
X1732639Y828043D01*
X1732457Y827879D01*
X1732257Y827697D01*
X1732002Y827515D01*
X1731747Y827333D01*
X1731456Y827133D01*
X1731128Y826951D01*
X1730782Y826787D01*
X1730418Y826623D01*
X1730018Y826477D01*
X1729599Y826350D01*
X1729618D01*
X1729690Y826314D01*
X1729781Y826277D01*
X1729909Y826223D01*
X1730073Y826150D01*
X1730255Y826059D01*
X1730455Y825950D01*
X1730673Y825840D01*
X1731146Y825549D01*
X1731620Y825203D01*
X1732075Y824803D01*
X1732275Y824585D01*
X1732457Y824348D01*
X1732475Y824330D01*
X1732493Y824293D01*
X1732548Y824221D01*
X1732602Y824111D01*
X1732675Y823984D01*
X1732748Y823838D01*
X1732839Y823656D01*
X1732912Y823456D01*
X1733003Y823238D01*
X1733094Y823001D01*
X1733167Y822746D01*
X1733239Y822473D01*
X1733349Y821873D01*
X1733367Y821545D01*
X1733385Y821218D01*
Y821181D01*
Y821090D01*
X1733367Y820945D01*
X1733349Y820763D01*
X1733330Y820526D01*
X1733276Y820253D01*
X1733221Y819944D01*
X1733130Y819616D01*
X1733039Y819252D01*
X1732912Y818888D01*
X1732748Y818506D01*
X1732548Y818105D01*
X1732329Y817723D01*
X1732075Y817323D01*
X1731765Y816959D01*
X1731419Y816595D01*
X1731401Y816577D01*
X1731328Y816522D01*
X1731219Y816413D01*
X1731055Y816304D01*
X1730855Y816158D01*
X1730619Y815994D01*
X1730346Y815830D01*
X1730018Y815648D01*
X1729672Y815485D01*
X1729272Y815321D01*
X1728835Y815157D01*
X1728362Y815011D01*
X1727870Y814884D01*
X1727324Y814793D01*
X1726760Y814738D01*
X1726160Y814720D01*
X1726014D01*
X1725850Y814738D01*
X1725614Y814757D01*
X1725341Y814775D01*
X1725013Y814829D01*
X1724649Y814884D01*
X1724267Y814957D01*
X1723848Y815066D01*
X1723411Y815193D01*
X1722975Y815339D01*
X1722538Y815539D01*
X1722101Y815758D01*
X1721664Y816012D01*
X1721246Y816304D01*
X1720863Y816649D01*
X1720845Y816668D01*
X1720772Y816740D01*
X1720681Y816850D01*
X1720554Y816995D01*
X1720390Y817177D01*
X1720226Y817396D01*
X1720044Y817650D01*
X1719844Y817942D01*
X1719662Y818269D01*
X1719480Y818633D01*
X1719316Y819015D01*
X1719153Y819416D01*
X1719025Y819853D01*
X1718934Y820326D01*
X1718861Y820799D01*
X1718843Y821309D01*
Y821327D01*
Y821381D01*
Y821472D01*
X1718861Y821600D01*
X1718880Y821745D01*
X1718898Y821927D01*
X1718916Y822128D01*
X1718952Y822346D01*
X1719062Y822819D01*
X1719225Y823329D01*
X1719335Y823584D01*
X1719462Y823838D01*
X1719608Y824093D01*
X1719771Y824348D01*
X1719790Y824366D01*
X1719808Y824403D01*
X1719862Y824475D01*
X1719953Y824566D01*
X1720044Y824676D01*
X1720172Y824785D01*
X1720299Y824930D01*
X1720463Y825076D01*
X1720663Y825240D01*
X1720863Y825404D01*
X1721100Y825567D01*
X1721337Y825731D01*
X1721628Y825895D01*
X1721919Y826059D01*
X1722228Y826204D01*
X1722574Y826350D01*
X1722556D01*
X1722465Y826386D01*
X1722356Y826423D01*
X1722192Y826496D01*
X1721992Y826568D01*
X1721773Y826678D01*
X1721519Y826787D01*
X1721264Y826932D01*
X1720973Y827096D01*
X1720681Y827278D01*
X1720390Y827478D01*
X1720099Y827697D01*
X1719808Y827933D01*
X1719535Y828206D01*
X1719262Y828479D01*
X1719025Y828789D01*
X1719007Y828807D01*
X1718971Y828862D01*
X1718916Y828953D01*
X1718825Y829080D01*
X1718734Y829244D01*
X1718643Y829444D01*
X1718534Y829662D01*
X1718406Y829917D01*
X1718297Y830208D01*
X1718188Y830500D01*
X1718097Y830845D01*
X1717988Y831191D01*
X1717915Y831573D01*
X1717860Y831956D01*
X1717824Y832374D01*
X1717806Y832811D01*
Y832847D01*
Y832957D01*
X1717824Y833120D01*
X1717842Y833357D01*
X1717879Y833630D01*
X1717933Y833939D01*
X1718006Y834303D01*
X1718097Y834704D01*
X1718206Y835122D01*
X1718370Y835559D01*
X1718552Y835996D01*
X1718770Y836451D01*
X1719043Y836924D01*
X1719335Y837361D01*
X1719699Y837816D01*
X1720099Y838235D01*
X1720117Y838253D01*
X1720208Y838326D01*
X1720336Y838435D01*
X1720518Y838580D01*
X1720736Y838744D01*
X1721027Y838926D01*
X1721337Y839126D01*
X1721701Y839327D01*
X1722119Y839527D01*
X1722574Y839727D01*
X1723066Y839909D01*
X1723593Y840073D01*
X1724176Y840218D01*
X1724776Y840328D01*
X1725432Y840400D01*
X1726105Y840419D01*
X1726269D01*
X1726469Y840400D01*
D02*
G37*
G36*
X504568Y978747D02*
X504805Y978729D01*
X505078Y978711D01*
X505406Y978656D01*
X505770Y978601D01*
X506152Y978529D01*
X506552Y978419D01*
X506971Y978310D01*
X507389Y978146D01*
X507808Y977964D01*
X508227Y977746D01*
X508627Y977491D01*
X509009Y977200D01*
X509355Y976872D01*
X509373Y976854D01*
X509428Y976781D01*
X509519Y976672D01*
X509628Y976508D01*
X509755Y976308D01*
X509901Y976072D01*
X510065Y975780D01*
X510211Y975453D01*
X510374Y975071D01*
X510538Y974652D01*
X510666Y974179D01*
X510793Y973669D01*
X510902Y973123D01*
X510975Y972523D01*
X511029Y971885D01*
Y971212D01*
X508026Y970793D01*
Y970830D01*
Y970921D01*
X508008Y971067D01*
X507990Y971267D01*
X507972Y971503D01*
X507935Y971758D01*
X507899Y972049D01*
X507844Y972377D01*
X507717Y973032D01*
X507535Y973687D01*
X507408Y973979D01*
X507280Y974270D01*
X507116Y974524D01*
X506953Y974743D01*
X506935Y974761D01*
X506916Y974779D01*
X506844Y974834D01*
X506771Y974907D01*
X506680Y974980D01*
X506552Y975071D01*
X506425Y975180D01*
X506261Y975271D01*
X506079Y975362D01*
X505879Y975471D01*
X505661Y975562D01*
X505424Y975635D01*
X505151Y975707D01*
X504878Y975744D01*
X504587Y975780D01*
X504277Y975798D01*
X504150D01*
X504059Y975780D01*
X503950D01*
X503822Y975762D01*
X503531Y975726D01*
X503204Y975653D01*
X502839Y975562D01*
X502457Y975416D01*
X502111Y975234D01*
X502093D01*
X502075Y975198D01*
X501966Y975125D01*
X501802Y974998D01*
X501620Y974816D01*
X501402Y974597D01*
X501202Y974324D01*
X501001Y974015D01*
X500856Y973669D01*
Y973651D01*
X500837Y973615D01*
X500819Y973560D01*
X500801Y973487D01*
X500783Y973378D01*
X500747Y973250D01*
X500710Y973087D01*
X500674Y972905D01*
X500656Y972705D01*
X500619Y972468D01*
X500583Y972213D01*
X500565Y971922D01*
X500546Y971612D01*
X500528Y971285D01*
X500510Y970921D01*
Y970520D01*
Y953158D01*
X497179D01*
Y970320D01*
Y970357D01*
Y970466D01*
Y970630D01*
X497197Y970848D01*
Y971103D01*
X497216Y971412D01*
X497252Y971758D01*
X497270Y972122D01*
X497325Y972504D01*
X497361Y972905D01*
X497507Y973724D01*
X497598Y974124D01*
X497707Y974506D01*
X497816Y974870D01*
X497962Y975216D01*
Y975234D01*
X497998Y975289D01*
X498035Y975380D01*
X498108Y975507D01*
X498180Y975653D01*
X498289Y975817D01*
X498417Y975999D01*
X498544Y976199D01*
X498708Y976399D01*
X498890Y976617D01*
X499090Y976836D01*
X499309Y977054D01*
X499545Y977273D01*
X499800Y977473D01*
X500073Y977673D01*
X500382Y977855D01*
X500401Y977873D01*
X500455Y977891D01*
X500546Y977946D01*
X500674Y978001D01*
X500837Y978073D01*
X501019Y978146D01*
X501238Y978219D01*
X501493Y978310D01*
X501766Y978401D01*
X502057Y978474D01*
X502385Y978547D01*
X502712Y978620D01*
X503076Y978674D01*
X503458Y978729D01*
X503841Y978747D01*
X504259Y978765D01*
X504405D01*
X504568Y978747D01*
D02*
G37*
G36*
X493375Y978328D02*
Y978292D01*
Y978237D01*
Y978164D01*
Y978055D01*
X493357Y977946D01*
X493339Y977655D01*
X493303Y977346D01*
X493248Y976981D01*
X493157Y976599D01*
X493030Y976217D01*
Y976199D01*
X492993Y976144D01*
X492957Y976053D01*
X492902Y975926D01*
X492848Y975762D01*
X492757Y975580D01*
X492647Y975380D01*
X492538Y975162D01*
X492411Y974907D01*
X492247Y974652D01*
X491901Y974088D01*
X491483Y973487D01*
X490991Y972868D01*
X490973Y972850D01*
X490918Y972795D01*
X490846Y972705D01*
X490736Y972577D01*
X490591Y972413D01*
X490409Y972231D01*
X490209Y972013D01*
X489954Y971776D01*
X489681Y971503D01*
X489390Y971212D01*
X489062Y970903D01*
X488698Y970557D01*
X488298Y970211D01*
X487879Y969847D01*
X487424Y969465D01*
X486951Y969064D01*
X486933Y969046D01*
X486896Y969028D01*
X486842Y968973D01*
X486769Y968919D01*
X486678Y968828D01*
X486569Y968737D01*
X486296Y968500D01*
X485950Y968227D01*
X485586Y967881D01*
X485167Y967518D01*
X484731Y967117D01*
X484257Y966698D01*
X483802Y966262D01*
X483329Y965825D01*
X482892Y965370D01*
X482455Y964933D01*
X482073Y964514D01*
X481709Y964096D01*
X481418Y963714D01*
X481400Y963696D01*
X481363Y963623D01*
X481291Y963514D01*
X481182Y963386D01*
X481072Y963204D01*
X480963Y963004D01*
X480817Y962767D01*
X480690Y962513D01*
X480563Y962240D01*
X480417Y961948D01*
X480180Y961311D01*
X480089Y960984D01*
X480017Y960656D01*
X479980Y960328D01*
X479962Y960001D01*
Y959983D01*
Y959910D01*
Y959819D01*
X479980Y959692D01*
X479998Y959528D01*
X480035Y959346D01*
X480071Y959145D01*
X480126Y958927D01*
X480199Y958691D01*
X480290Y958436D01*
X480399Y958181D01*
X480526Y957926D01*
X480672Y957653D01*
X480854Y957398D01*
X481054Y957144D01*
X481291Y956907D01*
X481309Y956889D01*
X481345Y956852D01*
X481418Y956798D01*
X481527Y956707D01*
X481655Y956616D01*
X481818Y956506D01*
X482000Y956379D01*
X482201Y956270D01*
X482437Y956143D01*
X482692Y956033D01*
X482983Y955924D01*
X483274Y955833D01*
X483602Y955742D01*
X483948Y955688D01*
X484312Y955651D01*
X484694Y955633D01*
X484913D01*
X485058Y955651D01*
X485258Y955669D01*
X485477Y955706D01*
X485713Y955742D01*
X485986Y955797D01*
X486259Y955870D01*
X486550Y955961D01*
X486842Y956070D01*
X487151Y956197D01*
X487442Y956361D01*
X487733Y956543D01*
X488025Y956743D01*
X488279Y956980D01*
X488298Y956998D01*
X488334Y957034D01*
X488407Y957125D01*
X488480Y957216D01*
X488589Y957362D01*
X488698Y957526D01*
X488825Y957726D01*
X488935Y957944D01*
X489062Y958181D01*
X489190Y958472D01*
X489299Y958763D01*
X489408Y959091D01*
X489481Y959455D01*
X489553Y959837D01*
X489590Y960237D01*
X489608Y960674D01*
X492793Y960347D01*
Y960328D01*
Y960310D01*
X492775Y960256D01*
Y960183D01*
X492757Y960001D01*
X492702Y959764D01*
X492647Y959473D01*
X492575Y959127D01*
X492484Y958745D01*
X492375Y958345D01*
X492229Y957908D01*
X492065Y957471D01*
X491865Y957016D01*
X491628Y956561D01*
X491373Y956124D01*
X491064Y955706D01*
X490736Y955305D01*
X490354Y954941D01*
X490336Y954923D01*
X490263Y954869D01*
X490136Y954759D01*
X489972Y954650D01*
X489754Y954505D01*
X489499Y954341D01*
X489190Y954177D01*
X488844Y953995D01*
X488443Y953831D01*
X488025Y953667D01*
X487551Y953504D01*
X487042Y953358D01*
X486496Y953231D01*
X485913Y953139D01*
X485295Y953085D01*
X484639Y953067D01*
X484476D01*
X484294Y953085D01*
X484039Y953103D01*
X483729Y953121D01*
X483384Y953176D01*
X482983Y953231D01*
X482565Y953322D01*
X482110Y953431D01*
X481655Y953558D01*
X481163Y953722D01*
X480690Y953922D01*
X480217Y954159D01*
X479762Y954413D01*
X479325Y954723D01*
X478906Y955087D01*
X478888Y955105D01*
X478815Y955178D01*
X478706Y955287D01*
X478579Y955451D01*
X478415Y955633D01*
X478233Y955870D01*
X478033Y956143D01*
X477833Y956452D01*
X477651Y956798D01*
X477450Y957180D01*
X477269Y957598D01*
X477105Y958035D01*
X476977Y958509D01*
X476868Y959000D01*
X476795Y959528D01*
X476777Y960074D01*
Y960092D01*
Y960146D01*
Y960219D01*
Y960328D01*
X476795Y960474D01*
X476813Y960620D01*
X476832Y960802D01*
X476850Y961002D01*
X476923Y961457D01*
X477032Y961966D01*
X477196Y962494D01*
X477396Y963040D01*
Y963058D01*
X477432Y963113D01*
X477469Y963186D01*
X477523Y963295D01*
X477578Y963423D01*
X477669Y963586D01*
X477760Y963768D01*
X477887Y963968D01*
X478015Y964187D01*
X478160Y964423D01*
X478524Y964951D01*
X478724Y965224D01*
X478943Y965515D01*
X479198Y965807D01*
X479452Y966116D01*
X479471Y966134D01*
X479525Y966189D01*
X479598Y966280D01*
X479726Y966407D01*
X479889Y966571D01*
X480089Y966771D01*
X480308Y967008D01*
X480581Y967281D01*
X480890Y967572D01*
X481254Y967900D01*
X481637Y968264D01*
X482073Y968664D01*
X482546Y969083D01*
X483056Y969538D01*
X483620Y970029D01*
X484221Y970539D01*
X484257Y970557D01*
X484348Y970648D01*
X484476Y970757D01*
X484658Y970921D01*
X484894Y971103D01*
X485131Y971321D01*
X485404Y971558D01*
X485695Y971813D01*
X486314Y972341D01*
X486605Y972614D01*
X486896Y972868D01*
X487169Y973123D01*
X487406Y973341D01*
X487624Y973542D01*
X487788Y973724D01*
X487825Y973760D01*
X487916Y973869D01*
X488061Y974033D01*
X488243Y974233D01*
X488443Y974488D01*
X488662Y974761D01*
X488880Y975071D01*
X489080Y975380D01*
X476741D01*
Y978346D01*
X493375D01*
Y978328D01*
D02*
G37*
G36*
X2583465Y728591D02*
X2580134D01*
Y741094D01*
X2567631Y728591D01*
X2563099D01*
X2573691Y738819D01*
X2562644Y753779D01*
X2567048D01*
X2576021Y741076D01*
X2580134Y745043D01*
Y753779D01*
X2583465D01*
Y728591D01*
D02*
G37*
G36*
X2552579Y734087D02*
X2552597Y734105D01*
X2552634Y734142D01*
X2552688Y734196D01*
X2552779Y734269D01*
X2552889Y734360D01*
X2553034Y734487D01*
X2553198Y734615D01*
X2553362Y734760D01*
X2553580Y734906D01*
X2553799Y735088D01*
X2554035Y735252D01*
X2554290Y735452D01*
X2554581Y735634D01*
X2554872Y735834D01*
X2555528Y736235D01*
X2555546Y736253D01*
X2555600Y736289D01*
X2555710Y736344D01*
X2555837Y736399D01*
X2555983Y736490D01*
X2556165Y736599D01*
X2556383Y736708D01*
X2556601Y736835D01*
X2557111Y737090D01*
X2557657Y737345D01*
X2558221Y737600D01*
X2558767Y737818D01*
Y734833D01*
X2558731Y734815D01*
X2558658Y734779D01*
X2558512Y734706D01*
X2558330Y734615D01*
X2558112Y734506D01*
X2557839Y734360D01*
X2557548Y734196D01*
X2557238Y734014D01*
X2556893Y733796D01*
X2556529Y733577D01*
X2555764Y733068D01*
X2554982Y732504D01*
X2554235Y731885D01*
X2554217Y731867D01*
X2554144Y731812D01*
X2554053Y731721D01*
X2553926Y731594D01*
X2553762Y731430D01*
X2553580Y731248D01*
X2553380Y731029D01*
X2553162Y730811D01*
X2552943Y730556D01*
X2552707Y730283D01*
X2552252Y729719D01*
X2551833Y729119D01*
X2551651Y728809D01*
X2551487Y728500D01*
X2549485D01*
Y753779D01*
X2552579D01*
Y734087D01*
D02*
G37*
G36*
X1726615Y540400D02*
X1726851Y540382D01*
X1727142Y540364D01*
X1727488Y540309D01*
X1727870Y540255D01*
X1728271Y540182D01*
X1728708Y540073D01*
X1729163Y539945D01*
X1729636Y539800D01*
X1730109Y539618D01*
X1730564Y539399D01*
X1731037Y539145D01*
X1731474Y538835D01*
X1731893Y538508D01*
X1731911Y538489D01*
X1731984Y538417D01*
X1732093Y538307D01*
X1732238Y538162D01*
X1732402Y537962D01*
X1732602Y537725D01*
X1732803Y537452D01*
X1733021Y537143D01*
X1733239Y536797D01*
X1733440Y536415D01*
X1733658Y535996D01*
X1733858Y535541D01*
X1734022Y535050D01*
X1734168Y534522D01*
X1734295Y533976D01*
X1734368Y533393D01*
X1731128Y533120D01*
Y533139D01*
X1731110Y533230D01*
X1731092Y533339D01*
X1731055Y533503D01*
X1731001Y533703D01*
X1730946Y533939D01*
X1730873Y534194D01*
X1730782Y534467D01*
X1730564Y535031D01*
X1730437Y535341D01*
X1730291Y535632D01*
X1730109Y535923D01*
X1729927Y536196D01*
X1729709Y536451D01*
X1729472Y536688D01*
X1729454Y536706D01*
X1729417Y536742D01*
X1729345Y536797D01*
X1729235Y536870D01*
X1729108Y536961D01*
X1728944Y537070D01*
X1728780Y537161D01*
X1728580Y537270D01*
X1728362Y537397D01*
X1728107Y537488D01*
X1727852Y537598D01*
X1727561Y537689D01*
X1727270Y537761D01*
X1726960Y537816D01*
X1726633Y537852D01*
X1726287Y537871D01*
X1726178D01*
X1726069Y537852D01*
X1725905D01*
X1725723Y537816D01*
X1725486Y537780D01*
X1725231Y537725D01*
X1724958Y537652D01*
X1724667Y537579D01*
X1724358Y537470D01*
X1724048Y537325D01*
X1723721Y537161D01*
X1723411Y536979D01*
X1723084Y536742D01*
X1722774Y536487D01*
X1722483Y536196D01*
X1722465Y536178D01*
X1722410Y536123D01*
X1722338Y536014D01*
X1722247Y535887D01*
X1722119Y535723D01*
X1721992Y535523D01*
X1721846Y535286D01*
X1721701Y535013D01*
X1721573Y534704D01*
X1721428Y534376D01*
X1721300Y534012D01*
X1721173Y533612D01*
X1721082Y533175D01*
X1721009Y532720D01*
X1720954Y532247D01*
X1720936Y531737D01*
Y531701D01*
Y531628D01*
X1720954Y531482D01*
Y531300D01*
X1720973Y531082D01*
X1721009Y530809D01*
X1721064Y530536D01*
X1721118Y530208D01*
X1721209Y529881D01*
X1721300Y529553D01*
X1721428Y529207D01*
X1721573Y528843D01*
X1721737Y528498D01*
X1721937Y528170D01*
X1722174Y527842D01*
X1722429Y527551D01*
X1722447Y527533D01*
X1722501Y527478D01*
X1722574Y527406D01*
X1722702Y527315D01*
X1722847Y527187D01*
X1723029Y527060D01*
X1723229Y526932D01*
X1723466Y526787D01*
X1723739Y526641D01*
X1724030Y526514D01*
X1724340Y526368D01*
X1724685Y526259D01*
X1725068Y526168D01*
X1725468Y526095D01*
X1725887Y526041D01*
X1726323Y526022D01*
X1726469D01*
X1726578Y526041D01*
X1726706D01*
X1726869Y526059D01*
X1727033Y526077D01*
X1727233Y526113D01*
X1727652Y526186D01*
X1728107Y526314D01*
X1728580Y526477D01*
X1729035Y526714D01*
X1729053D01*
X1729090Y526750D01*
X1729144Y526787D01*
X1729235Y526841D01*
X1729454Y526987D01*
X1729727Y527187D01*
X1730018Y527442D01*
X1730327Y527733D01*
X1730637Y528079D01*
X1730910Y528461D01*
X1733822Y528079D01*
X1731383Y515139D01*
X1718843D01*
Y518087D01*
X1728926D01*
X1730273Y524876D01*
X1730255Y524858D01*
X1730164Y524803D01*
X1730054Y524730D01*
X1729872Y524621D01*
X1729672Y524512D01*
X1729436Y524366D01*
X1729144Y524239D01*
X1728835Y524075D01*
X1728489Y523929D01*
X1728125Y523784D01*
X1727725Y523656D01*
X1727324Y523547D01*
X1726888Y523438D01*
X1726451Y523365D01*
X1725978Y523311D01*
X1725523Y523292D01*
X1725377D01*
X1725195Y523311D01*
X1724977Y523329D01*
X1724685Y523365D01*
X1724358Y523420D01*
X1723976Y523493D01*
X1723575Y523584D01*
X1723157Y523693D01*
X1722702Y523857D01*
X1722247Y524039D01*
X1721773Y524257D01*
X1721300Y524530D01*
X1720827Y524821D01*
X1720372Y525185D01*
X1719935Y525586D01*
X1719917Y525604D01*
X1719844Y525695D01*
X1719717Y525822D01*
X1719571Y526004D01*
X1719407Y526223D01*
X1719207Y526496D01*
X1719007Y526823D01*
X1718789Y527187D01*
X1718588Y527588D01*
X1718388Y528024D01*
X1718188Y528516D01*
X1718006Y529025D01*
X1717879Y529590D01*
X1717751Y530190D01*
X1717678Y530809D01*
X1717660Y531464D01*
Y531482D01*
Y531501D01*
Y531555D01*
Y531610D01*
X1717678Y531792D01*
X1717697Y532028D01*
X1717715Y532338D01*
X1717769Y532684D01*
X1717824Y533066D01*
X1717915Y533484D01*
X1718024Y533939D01*
X1718152Y534413D01*
X1718315Y534904D01*
X1718497Y535395D01*
X1718734Y535905D01*
X1719007Y536396D01*
X1719316Y536888D01*
X1719662Y537361D01*
X1719699Y537397D01*
X1719771Y537488D01*
X1719917Y537634D01*
X1720099Y537834D01*
X1720354Y538071D01*
X1720645Y538326D01*
X1720991Y538599D01*
X1721391Y538890D01*
X1721846Y539181D01*
X1722338Y539454D01*
X1722884Y539709D01*
X1723484Y539945D01*
X1724121Y540127D01*
X1724795Y540291D01*
X1725523Y540382D01*
X1726287Y540419D01*
X1726433D01*
X1726615Y540400D01*
D02*
G37*
G36*
X1749092D02*
X1749401Y540382D01*
X1749747Y540346D01*
X1750147Y540309D01*
X1750566Y540273D01*
X1751021Y540200D01*
X1751494Y540127D01*
X1751967Y540018D01*
X1752459Y539909D01*
X1752932Y539763D01*
X1753423Y539600D01*
X1753878Y539418D01*
X1754315Y539199D01*
X1754333Y539181D01*
X1754406Y539145D01*
X1754533Y539072D01*
X1754679Y538981D01*
X1754861Y538853D01*
X1755079Y538690D01*
X1755298Y538508D01*
X1755553Y538307D01*
X1755807Y538071D01*
X1756080Y537798D01*
X1756353Y537525D01*
X1756608Y537197D01*
X1756863Y536870D01*
X1757100Y536487D01*
X1757318Y536105D01*
X1757518Y535687D01*
X1757536Y535650D01*
X1757555Y535577D01*
X1757609Y535450D01*
X1757664Y535268D01*
X1757737Y535031D01*
X1757809Y534740D01*
X1757900Y534413D01*
X1757991Y534030D01*
X1758082Y533594D01*
X1758173Y533120D01*
X1758246Y532611D01*
X1758319Y532047D01*
X1758374Y531446D01*
X1758428Y530791D01*
X1758446Y530099D01*
X1758465Y529371D01*
Y514811D01*
X1755134D01*
Y529353D01*
Y529389D01*
Y529499D01*
Y529662D01*
X1755116Y529881D01*
Y530154D01*
X1755098Y530463D01*
X1755079Y530809D01*
X1755061Y531191D01*
X1755025Y531573D01*
X1754988Y531974D01*
X1754879Y532775D01*
X1754806Y533157D01*
X1754734Y533539D01*
X1754643Y533885D01*
X1754533Y534194D01*
Y534212D01*
X1754497Y534267D01*
X1754461Y534340D01*
X1754406Y534449D01*
X1754351Y534576D01*
X1754260Y534722D01*
X1754042Y535068D01*
X1753751Y535450D01*
X1753587Y535650D01*
X1753387Y535850D01*
X1753187Y536051D01*
X1752950Y536233D01*
X1752713Y536415D01*
X1752440Y536578D01*
X1752422D01*
X1752368Y536615D01*
X1752295Y536651D01*
X1752167Y536706D01*
X1752022Y536779D01*
X1751858Y536851D01*
X1751658Y536924D01*
X1751421Y536997D01*
X1751166Y537070D01*
X1750893Y537143D01*
X1750602Y537215D01*
X1750275Y537288D01*
X1749929Y537343D01*
X1749565Y537379D01*
X1749201Y537397D01*
X1748800Y537416D01*
X1748637D01*
X1748455Y537397D01*
X1748200D01*
X1747890Y537361D01*
X1747563Y537325D01*
X1747181Y537270D01*
X1746762Y537215D01*
X1746343Y537124D01*
X1745907Y537015D01*
X1745470Y536870D01*
X1745033Y536724D01*
X1744614Y536524D01*
X1744232Y536305D01*
X1743868Y536051D01*
X1743559Y535759D01*
X1743541Y535741D01*
X1743486Y535687D01*
X1743413Y535577D01*
X1743322Y535432D01*
X1743195Y535232D01*
X1743067Y534977D01*
X1742922Y534686D01*
X1742776Y534322D01*
X1742631Y533921D01*
X1742485Y533466D01*
X1742358Y532938D01*
X1742230Y532356D01*
X1742139Y531701D01*
X1742066Y530991D01*
X1742012Y530208D01*
X1741994Y529353D01*
Y514811D01*
X1738663D01*
Y529371D01*
Y529389D01*
Y529408D01*
Y529462D01*
Y529535D01*
Y529626D01*
Y529735D01*
X1738681Y529990D01*
Y530318D01*
X1738699Y530682D01*
X1738736Y531100D01*
X1738772Y531537D01*
X1738827Y532010D01*
X1738881Y532502D01*
X1739027Y533503D01*
X1739136Y534012D01*
X1739245Y534485D01*
X1739391Y534959D01*
X1739537Y535395D01*
X1739555Y535414D01*
X1739573Y535486D01*
X1739628Y535614D01*
X1739700Y535759D01*
X1739810Y535960D01*
X1739919Y536178D01*
X1740064Y536415D01*
X1740246Y536688D01*
X1740447Y536979D01*
X1740665Y537270D01*
X1740920Y537561D01*
X1741211Y537871D01*
X1741520Y538180D01*
X1741848Y538471D01*
X1742230Y538762D01*
X1742631Y539035D01*
X1742649Y539054D01*
X1742740Y539090D01*
X1742867Y539163D01*
X1743031Y539254D01*
X1743268Y539363D01*
X1743522Y539472D01*
X1743850Y539600D01*
X1744196Y539727D01*
X1744614Y539854D01*
X1745051Y539982D01*
X1745524Y540091D01*
X1746052Y540200D01*
X1746616Y540291D01*
X1747217Y540364D01*
X1747836Y540400D01*
X1748509Y540419D01*
X1748855D01*
X1749092Y540400D01*
D02*
G37*
%LPC*%
G36*
X1726087Y837871D02*
X1725996D01*
X1725868Y837852D01*
X1725723D01*
X1725523Y837834D01*
X1725304Y837798D01*
X1725068Y837743D01*
X1724795Y837689D01*
X1724522Y837616D01*
X1724212Y837525D01*
X1723921Y837416D01*
X1723612Y837270D01*
X1723302Y837106D01*
X1722993Y836924D01*
X1722702Y836706D01*
X1722429Y836451D01*
X1722410Y836433D01*
X1722374Y836378D01*
X1722301Y836305D01*
X1722210Y836196D01*
X1722101Y836051D01*
X1721974Y835887D01*
X1721846Y835687D01*
X1721701Y835468D01*
X1721573Y835213D01*
X1721446Y834940D01*
X1721318Y834649D01*
X1721209Y834322D01*
X1721118Y833976D01*
X1721045Y833612D01*
X1721009Y833230D01*
X1720991Y832829D01*
Y832811D01*
Y832738D01*
X1721009Y832611D01*
Y832465D01*
X1721027Y832265D01*
X1721064Y832047D01*
X1721118Y831810D01*
X1721173Y831537D01*
X1721264Y831246D01*
X1721355Y830955D01*
X1721482Y830645D01*
X1721628Y830336D01*
X1721792Y830026D01*
X1721992Y829735D01*
X1722228Y829426D01*
X1722483Y829153D01*
X1722501Y829135D01*
X1722556Y829080D01*
X1722629Y829007D01*
X1722756Y828916D01*
X1722902Y828807D01*
X1723066Y828680D01*
X1723266Y828552D01*
X1723502Y828407D01*
X1723757Y828279D01*
X1724030Y828152D01*
X1724340Y828024D01*
X1724667Y827915D01*
X1725013Y827806D01*
X1725395Y827733D01*
X1725777Y827697D01*
X1726196Y827679D01*
X1726414D01*
X1726560Y827697D01*
X1726742Y827715D01*
X1726960Y827751D01*
X1727197Y827806D01*
X1727470Y827861D01*
X1727743Y827933D01*
X1728034Y828024D01*
X1728325Y828152D01*
X1728635Y828297D01*
X1728944Y828461D01*
X1729235Y828661D01*
X1729527Y828880D01*
X1729800Y829135D01*
X1729818Y829153D01*
X1729854Y829207D01*
X1729927Y829280D01*
X1730018Y829389D01*
X1730127Y829535D01*
X1730255Y829699D01*
X1730382Y829899D01*
X1730509Y830117D01*
X1730637Y830372D01*
X1730764Y830645D01*
X1730892Y830936D01*
X1731001Y831264D01*
X1731092Y831610D01*
X1731165Y831956D01*
X1731201Y832338D01*
X1731219Y832738D01*
Y832756D01*
Y832793D01*
Y832866D01*
X1731201Y832957D01*
Y833084D01*
X1731183Y833211D01*
X1731165Y833375D01*
X1731146Y833539D01*
X1731074Y833939D01*
X1730964Y834358D01*
X1730801Y834813D01*
X1730600Y835286D01*
Y835304D01*
X1730564Y835341D01*
X1730528Y835395D01*
X1730491Y835486D01*
X1730418Y835596D01*
X1730346Y835705D01*
X1730127Y835996D01*
X1729872Y836287D01*
X1729563Y836615D01*
X1729181Y836924D01*
X1728744Y837197D01*
X1728726D01*
X1728689Y837234D01*
X1728617Y837252D01*
X1728526Y837306D01*
X1728416Y837361D01*
X1728271Y837416D01*
X1728125Y837470D01*
X1727943Y837525D01*
X1727543Y837652D01*
X1727106Y837761D01*
X1726615Y837834D01*
X1726087Y837871D01*
D02*
G37*
G36*
Y825149D02*
X1725923D01*
X1725796Y825131D01*
X1725632Y825112D01*
X1725468Y825094D01*
X1725268Y825058D01*
X1725049Y825003D01*
X1724594Y824876D01*
X1724358Y824785D01*
X1724103Y824676D01*
X1723866Y824548D01*
X1723630Y824403D01*
X1723393Y824239D01*
X1723175Y824039D01*
X1723157Y824020D01*
X1723120Y823984D01*
X1723066Y823929D01*
X1722993Y823838D01*
X1722902Y823729D01*
X1722811Y823602D01*
X1722702Y823438D01*
X1722592Y823274D01*
X1722501Y823074D01*
X1722392Y822874D01*
X1722210Y822401D01*
X1722137Y822146D01*
X1722083Y821873D01*
X1722046Y821582D01*
X1722028Y821290D01*
Y821272D01*
Y821218D01*
Y821127D01*
X1722046Y820999D01*
X1722065Y820854D01*
X1722083Y820690D01*
X1722119Y820508D01*
X1722174Y820289D01*
X1722319Y819853D01*
X1722410Y819616D01*
X1722520Y819361D01*
X1722665Y819125D01*
X1722829Y818888D01*
X1723011Y818651D01*
X1723211Y818433D01*
X1723229Y818415D01*
X1723266Y818378D01*
X1723339Y818324D01*
X1723411Y818251D01*
X1723539Y818160D01*
X1723666Y818069D01*
X1723830Y817960D01*
X1724012Y817851D01*
X1724212Y817741D01*
X1724431Y817632D01*
X1724667Y817541D01*
X1724922Y817450D01*
X1725213Y817377D01*
X1725504Y817323D01*
X1725796Y817286D01*
X1726123Y817268D01*
X1726287D01*
X1726414Y817286D01*
X1726560Y817305D01*
X1726742Y817323D01*
X1726942Y817359D01*
X1727142Y817414D01*
X1727616Y817541D01*
X1727852Y817632D01*
X1728107Y817760D01*
X1728344Y817887D01*
X1728598Y818033D01*
X1728835Y818215D01*
X1729053Y818415D01*
X1729072Y818433D01*
X1729108Y818469D01*
X1729163Y818524D01*
X1729235Y818615D01*
X1729326Y818724D01*
X1729417Y818852D01*
X1729527Y818997D01*
X1729618Y819179D01*
X1729727Y819361D01*
X1729836Y819561D01*
X1730018Y820035D01*
X1730091Y820271D01*
X1730145Y820544D01*
X1730182Y820817D01*
X1730200Y821108D01*
Y821127D01*
Y821181D01*
Y821272D01*
X1730182Y821400D01*
X1730164Y821563D01*
X1730145Y821727D01*
X1730109Y821927D01*
X1730054Y822146D01*
X1729927Y822601D01*
X1729836Y822837D01*
X1729727Y823092D01*
X1729599Y823329D01*
X1729436Y823565D01*
X1729272Y823802D01*
X1729072Y824020D01*
X1729053Y824039D01*
X1729017Y824075D01*
X1728944Y824130D01*
X1728871Y824202D01*
X1728744Y824275D01*
X1728617Y824384D01*
X1728453Y824475D01*
X1728271Y824585D01*
X1728071Y824694D01*
X1727834Y824785D01*
X1727597Y824894D01*
X1727324Y824967D01*
X1727051Y825040D01*
X1726742Y825094D01*
X1726414Y825131D01*
X1726087Y825149D01*
D02*
G37*
%LPD*%
D113*
X2390000Y1645000D02*
G03*
X2390000Y1645000I-3937J0D01*
G01*
D02*
G03*
X2390000Y1645000I-3937J0D01*
G01*
X1801874Y165000D02*
G03*
X1801874Y165000I-3937J0D01*
G01*
D02*
G03*
X1801874Y165000I-3937J0D01*
G01*
X1173819Y1983032D02*
G03*
X1173819Y1983032I-3937J0D01*
G01*
D02*
G03*
X1173819Y1983032I-3937J0D01*
G01*
X2390000Y1525000D02*
G03*
X2390000Y1525000I-3937J0D01*
G01*
D02*
G03*
X2390000Y1525000I-3937J0D01*
G01*
X867402Y885827D02*
Y1070866D01*
X154803D02*
X867402D01*
X154803Y885827D02*
X867402D01*
X154803D02*
Y1070866D01*
X3030315Y425039D02*
Y1082520D01*
X2136614D02*
X3030315D01*
X2136614Y425039D02*
X3030315D01*
X2136614D02*
Y1082520D01*
D115*
X1058762Y3009447D02*
Y3235825D01*
Y3009447D02*
Y3235825D01*
X570572Y3009447D02*
Y3235825D01*
Y3009447D02*
X1058762D01*
X570572Y3235825D02*
X1058762D01*
X570572D02*
X1058762D01*
X570572Y3009447D02*
X1058762D01*
X570572D02*
Y3235825D01*
X2265512Y1638740D02*
X2354488D01*
Y1581260D02*
Y1638740D01*
Y1581260D02*
Y1638740D01*
X2265512Y1581260D02*
X2354488D01*
X2265512Y1638740D02*
X2354488D01*
X2265512Y1581260D02*
Y1638740D01*
Y1581260D02*
X2354488D01*
X2265512D02*
Y1638740D01*
X1918488Y171260D02*
Y228740D01*
X1829512D02*
X1918488D01*
X1829512Y171260D02*
X1918488D01*
Y228740D01*
X1829512Y171260D02*
X1918488D01*
X1829512D02*
Y228740D01*
Y171260D02*
Y228740D01*
X1918488D01*
X1365000Y2006260D02*
Y2779882D01*
Y2006260D02*
Y2779882D01*
X1125000D02*
X1365000D01*
X1125000D02*
X1365000D01*
X1125000Y2006260D02*
Y2779882D01*
Y2006260D02*
X1365000D01*
X1125000D02*
Y2779882D01*
Y2006260D02*
X1365000D01*
X2265512Y1461260D02*
X2354488D01*
X2265512D02*
Y1518740D01*
X2354488D01*
Y1461260D02*
Y1518740D01*
X2265512Y1461260D02*
X2354488D01*
X2265512D02*
Y1518740D01*
X2354488D01*
Y1461260D02*
Y1518740D01*
D161*
X141000Y756000D02*
X241000D01*
Y416000D02*
Y756000D01*
X41000D02*
X141000D01*
X41000Y416000D02*
X241000D01*
X41000D02*
Y756000D01*
%TF.MD5,2e898286c86cddae9642ec1e16706f6f*%
M02*
