M48
;Layer_Color=9474304
;FILE_FORMAT=2:5
INCH,LZ
T16F00S00C0.20000
%
G90
G05
T16
G00X0313502Y-001
M15
G01X0313502Y-0009965
G01X031448Y-001
G01X0316441Y-0009807
G01X0318363Y-0009425
G01X0320248Y-0008853
G01X0322059Y-0008103
G01X0323797Y-0007174
G01X0325426Y-0006085
G01X0326949Y-0004835
G01X0328335Y-0003449
G01X0329585Y-0001926
G01X0330674Y-0000297
G01X0331603Y0001441
G01X0332353Y0003252
G01X0332925Y0005137
G01X0333307Y0007059
G01X0333548Y0010001
G01X03335Y0339001
G01X0333465Y0339001
G01X03335Y033998
G01X0333307Y034194
G01X0332925Y0343863
G01X0332353Y0345748
G01X0331603Y0347559
G01X0330674Y0349297
G01X0329585Y0350927
G01X0328335Y0352449
G01X0326949Y0353835
G01X0325427Y0355085
G01X0323796Y0356174
G01X0322059Y0357103
G01X0320248Y0357853
G01X0318363Y0358425
G01X0316441Y0358807
G01X0313498Y0359048
G01X0009998Y0359
G01X0009998Y0358965
G01X000902Y0359
G01X0007059Y0358807
G01X0005137Y0358425
G01X0003252Y0357853
G01X0001441Y0357103
G01X-0000297Y0356174
G01X-0001926Y0355085
G01X-0003449Y0353835
G01X-0004835Y0352449
G01X-0006085Y0350926
G01X-0007174Y0349297
G01X-0008103Y0347559
G01X-0008853Y0345748
G01X-0009425Y0343863
G01X-0009807Y0341941
G01X-0010048Y0338999
G01X-001Y0009999
G01X-0009965Y0009999
G01X-001Y000902
G01X-0009807Y000706
G01X-0009425Y0005137
G01X-0008853Y0003252
G01X-0008103Y0001441
G01X-0007174Y-0000297
G01X-0006085Y-0001927
G01X-0004835Y-0003449
G01X-0003449Y-0004835
G01X-0001927Y-0006085
G01X-0000297Y-0007174
G01X0001441Y-0008103
G01X0003252Y-0008853
G01X0005137Y-0009425
G01X0007059Y-0009807
G01X0010002Y-0010048
G01X0313502Y-001
M16
M17
M30
