%TF.GenerationSoftware,Altium Limited,Altium Designer,20.0.11 (256)*%
G04 Layer_Color=16711935*
%FSLAX26Y26*%
%MOIN*%
%TF.FileFunction,Other,Top_Courtyard*%
%TF.Part,Single*%
G01*
G75*
%TA.AperFunction,NonConductor*%
%ADD110C,0.003937*%
%ADD113C,0.007874*%
%ADD159C,0.004000*%
%ADD162C,0.001968*%
G36*
X2729632Y1120000D02*
X3136632D01*
Y1360000D01*
X2729632D01*
Y1120000D01*
D02*
G37*
D110*
X845224Y3257315D02*
Y3296685D01*
X825539Y3277000D02*
X864909D01*
X1033780Y1115748D02*
X1073150D01*
X1053465Y1096063D02*
Y1135433D01*
D113*
X1837992Y773976D02*
Y906024D01*
X1678937D02*
X1837992D01*
X1678937Y773976D02*
X1837992D01*
X1678937D02*
Y906024D01*
X1837992Y473976D02*
Y606024D01*
X1678937D02*
X1837992D01*
X1678937Y473976D02*
Y606024D01*
Y473976D02*
X1837992D01*
D159*
X365000Y205000D02*
G03*
X365000Y205000I-170000J0D01*
G01*
Y3280000D02*
G03*
X365000Y3280000I-170000J0D01*
G01*
X3180000D02*
G03*
X3180000Y3280000I-170000J0D01*
G01*
Y205000D02*
G03*
X3180000Y205000I-170000J0D01*
G01*
D162*
X880658Y3257315D02*
Y3296685D01*
X809791D02*
X880658D01*
X809791Y3257315D02*
X880658D01*
X809791D02*
Y3296685D01*
X1114488Y1084252D02*
Y1147244D01*
X992441D02*
X1114488D01*
X992441Y1084252D02*
X1114488D01*
X992441D02*
Y1147244D01*
%TF.MD5,3fc9cb1b78cc9f14a7d716842c4fcba3*%
M02*
