G04 #@! TF.GenerationSoftware,KiCad,Pcbnew,5.1.5-52549c5~84~ubuntu18.04.1*
G04 #@! TF.CreationDate,2020-03-09T21:38:05-04:00*
G04 #@! TF.ProjectId,right,72696768-742e-46b6-9963-61645f706362,rev?*
G04 #@! TF.SameCoordinates,Original*
G04 #@! TF.FileFunction,Legend,Bot*
G04 #@! TF.FilePolarity,Positive*
%FSLAX46Y46*%
G04 Gerber Fmt 4.6, Leading zero omitted, Abs format (unit mm)*
G04 Created by KiCad (PCBNEW 5.1.5-52549c5~84~ubuntu18.04.1) date 2020-03-09 21:38:05*
%MOMM*%
%LPD*%
G04 APERTURE LIST*
%ADD10C,0.300000*%
%ADD11C,0.010000*%
%ADD12C,0.127000*%
%ADD13C,0.152400*%
%ADD14C,0.120000*%
%ADD15C,0.150000*%
%ADD16C,0.050000*%
G04 APERTURE END LIST*
D10*
X143382857Y-116090000D02*
X143525714Y-116018571D01*
X143740000Y-116018571D01*
X143954285Y-116090000D01*
X144097142Y-116232857D01*
X144168571Y-116375714D01*
X144240000Y-116661428D01*
X144240000Y-116875714D01*
X144168571Y-117161428D01*
X144097142Y-117304285D01*
X143954285Y-117447142D01*
X143740000Y-117518571D01*
X143597142Y-117518571D01*
X143382857Y-117447142D01*
X143311428Y-117375714D01*
X143311428Y-116875714D01*
X143597142Y-116875714D01*
X142668571Y-117518571D02*
X142668571Y-116018571D01*
X141811428Y-117518571D01*
X141811428Y-116018571D01*
X141097142Y-117518571D02*
X141097142Y-116018571D01*
X140740000Y-116018571D01*
X140525714Y-116090000D01*
X140382857Y-116232857D01*
X140311428Y-116375714D01*
X140240000Y-116661428D01*
X140240000Y-116875714D01*
X140311428Y-117161428D01*
X140382857Y-117304285D01*
X140525714Y-117447142D01*
X140740000Y-117518571D01*
X141097142Y-117518571D01*
X157352857Y-116018571D02*
X156495714Y-116018571D01*
X156924285Y-117518571D02*
X156924285Y-116018571D01*
X156138571Y-116018571D02*
X155138571Y-117518571D01*
X155138571Y-116018571D02*
X156138571Y-117518571D01*
X199931571Y-58027714D02*
X199217285Y-57527714D01*
X199931571Y-57170571D02*
X198431571Y-57170571D01*
X198431571Y-57742000D01*
X198503000Y-57884857D01*
X198574428Y-57956285D01*
X198717285Y-58027714D01*
X198931571Y-58027714D01*
X199074428Y-57956285D01*
X199145857Y-57884857D01*
X199217285Y-57742000D01*
X199217285Y-57170571D01*
X199931571Y-58670571D02*
X198931571Y-58670571D01*
X198431571Y-58670571D02*
X198503000Y-58599142D01*
X198574428Y-58670571D01*
X198503000Y-58742000D01*
X198431571Y-58670571D01*
X198574428Y-58670571D01*
X198931571Y-60027714D02*
X200145857Y-60027714D01*
X200288714Y-59956285D01*
X200360142Y-59884857D01*
X200431571Y-59742000D01*
X200431571Y-59527714D01*
X200360142Y-59384857D01*
X199860142Y-60027714D02*
X199931571Y-59884857D01*
X199931571Y-59599142D01*
X199860142Y-59456285D01*
X199788714Y-59384857D01*
X199645857Y-59313428D01*
X199217285Y-59313428D01*
X199074428Y-59384857D01*
X199003000Y-59456285D01*
X198931571Y-59599142D01*
X198931571Y-59884857D01*
X199003000Y-60027714D01*
X199931571Y-60742000D02*
X198431571Y-60742000D01*
X199931571Y-61384857D02*
X199145857Y-61384857D01*
X199003000Y-61313428D01*
X198931571Y-61170571D01*
X198931571Y-60956285D01*
X199003000Y-60813428D01*
X199074428Y-60742000D01*
X198931571Y-61884857D02*
X198931571Y-62456285D01*
X198431571Y-62099142D02*
X199717285Y-62099142D01*
X199860142Y-62170571D01*
X199931571Y-62313428D01*
X199931571Y-62456285D01*
X199931571Y-64099142D02*
X198431571Y-64099142D01*
X198431571Y-64456285D01*
X198503000Y-64670571D01*
X198645857Y-64813428D01*
X198788714Y-64884857D01*
X199074428Y-64956285D01*
X199288714Y-64956285D01*
X199574428Y-64884857D01*
X199717285Y-64813428D01*
X199860142Y-64670571D01*
X199931571Y-64456285D01*
X199931571Y-64099142D01*
X199931571Y-66242000D02*
X199145857Y-66242000D01*
X199003000Y-66170571D01*
X198931571Y-66027714D01*
X198931571Y-65742000D01*
X199003000Y-65599142D01*
X199860142Y-66242000D02*
X199931571Y-66099142D01*
X199931571Y-65742000D01*
X199860142Y-65599142D01*
X199717285Y-65527714D01*
X199574428Y-65527714D01*
X199431571Y-65599142D01*
X199360142Y-65742000D01*
X199360142Y-66099142D01*
X199288714Y-66242000D01*
X199860142Y-66884857D02*
X199931571Y-67027714D01*
X199931571Y-67313428D01*
X199860142Y-67456285D01*
X199717285Y-67527714D01*
X199645857Y-67527714D01*
X199503000Y-67456285D01*
X199431571Y-67313428D01*
X199431571Y-67099142D01*
X199360142Y-66956285D01*
X199217285Y-66884857D01*
X199145857Y-66884857D01*
X199003000Y-66956285D01*
X198931571Y-67099142D01*
X198931571Y-67313428D01*
X199003000Y-67456285D01*
X199931571Y-68170571D02*
X198431571Y-68170571D01*
X199931571Y-68813428D02*
X199145857Y-68813428D01*
X199003000Y-68742000D01*
X198931571Y-68599142D01*
X198931571Y-68384857D01*
X199003000Y-68242000D01*
X199074428Y-68170571D01*
X201053000Y-58134857D02*
X200981571Y-57992000D01*
X200981571Y-57777714D01*
X201053000Y-57563428D01*
X201195857Y-57420571D01*
X201338714Y-57349142D01*
X201624428Y-57277714D01*
X201838714Y-57277714D01*
X202124428Y-57349142D01*
X202267285Y-57420571D01*
X202410142Y-57563428D01*
X202481571Y-57777714D01*
X202481571Y-57920571D01*
X202410142Y-58134857D01*
X202338714Y-58206285D01*
X201838714Y-58206285D01*
X201838714Y-57920571D01*
X202338714Y-58849142D02*
X202410142Y-58920571D01*
X202481571Y-58849142D01*
X202410142Y-58777714D01*
X202338714Y-58849142D01*
X202481571Y-58849142D01*
X202410142Y-59492000D02*
X202481571Y-59706285D01*
X202481571Y-60063428D01*
X202410142Y-60206285D01*
X202338714Y-60277714D01*
X202195857Y-60349142D01*
X202053000Y-60349142D01*
X201910142Y-60277714D01*
X201838714Y-60206285D01*
X201767285Y-60063428D01*
X201695857Y-59777714D01*
X201624428Y-59634857D01*
X201553000Y-59563428D01*
X201410142Y-59492000D01*
X201267285Y-59492000D01*
X201124428Y-59563428D01*
X201053000Y-59634857D01*
X200981571Y-59777714D01*
X200981571Y-60134857D01*
X201053000Y-60349142D01*
X201481571Y-60992000D02*
X202981571Y-60992000D01*
X201553000Y-60992000D02*
X201481571Y-61134857D01*
X201481571Y-61420571D01*
X201553000Y-61563428D01*
X201624428Y-61634857D01*
X201767285Y-61706285D01*
X202195857Y-61706285D01*
X202338714Y-61634857D01*
X202410142Y-61563428D01*
X202481571Y-61420571D01*
X202481571Y-61134857D01*
X202410142Y-60992000D01*
X202410142Y-62920571D02*
X202481571Y-62777714D01*
X202481571Y-62492000D01*
X202410142Y-62349142D01*
X202267285Y-62277714D01*
X201695857Y-62277714D01*
X201553000Y-62349142D01*
X201481571Y-62492000D01*
X201481571Y-62777714D01*
X201553000Y-62920571D01*
X201695857Y-62992000D01*
X201838714Y-62992000D01*
X201981571Y-62277714D01*
X202481571Y-64277714D02*
X201695857Y-64277714D01*
X201553000Y-64206285D01*
X201481571Y-64063428D01*
X201481571Y-63777714D01*
X201553000Y-63634857D01*
X202410142Y-64277714D02*
X202481571Y-64134857D01*
X202481571Y-63777714D01*
X202410142Y-63634857D01*
X202267285Y-63563428D01*
X202124428Y-63563428D01*
X201981571Y-63634857D01*
X201910142Y-63777714D01*
X201910142Y-64134857D01*
X201838714Y-64277714D01*
X202481571Y-64992000D02*
X201481571Y-64992000D01*
X201767285Y-64992000D02*
X201624428Y-65063428D01*
X201553000Y-65134857D01*
X201481571Y-65277714D01*
X201481571Y-65420571D01*
X202481571Y-65920571D02*
X201481571Y-65920571D01*
X200981571Y-65920571D02*
X201053000Y-65849142D01*
X201124428Y-65920571D01*
X201053000Y-65992000D01*
X200981571Y-65920571D01*
X201124428Y-65920571D01*
X201481571Y-66634857D02*
X202481571Y-66634857D01*
X201624428Y-66634857D02*
X201553000Y-66706285D01*
X201481571Y-66849142D01*
X201481571Y-67063428D01*
X201553000Y-67206285D01*
X201695857Y-67277714D01*
X202481571Y-67277714D01*
X201481571Y-68634857D02*
X202695857Y-68634857D01*
X202838714Y-68563428D01*
X202910142Y-68492000D01*
X202981571Y-68349142D01*
X202981571Y-68134857D01*
X202910142Y-67992000D01*
X202410142Y-68634857D02*
X202481571Y-68492000D01*
X202481571Y-68206285D01*
X202410142Y-68063428D01*
X202338714Y-67992000D01*
X202195857Y-67920571D01*
X201767285Y-67920571D01*
X201624428Y-67992000D01*
X201553000Y-68063428D01*
X201481571Y-68206285D01*
X201481571Y-68492000D01*
X201553000Y-68634857D01*
X203674428Y-58634857D02*
X203603000Y-58706285D01*
X203531571Y-58849142D01*
X203531571Y-59206285D01*
X203603000Y-59349142D01*
X203674428Y-59420571D01*
X203817285Y-59492000D01*
X203960142Y-59492000D01*
X204174428Y-59420571D01*
X205031571Y-58563428D01*
X205031571Y-59492000D01*
X203531571Y-60420571D02*
X203531571Y-60563428D01*
X203603000Y-60706285D01*
X203674428Y-60777714D01*
X203817285Y-60849142D01*
X204103000Y-60920571D01*
X204460142Y-60920571D01*
X204745857Y-60849142D01*
X204888714Y-60777714D01*
X204960142Y-60706285D01*
X205031571Y-60563428D01*
X205031571Y-60420571D01*
X204960142Y-60277714D01*
X204888714Y-60206285D01*
X204745857Y-60134857D01*
X204460142Y-60063428D01*
X204103000Y-60063428D01*
X203817285Y-60134857D01*
X203674428Y-60206285D01*
X203603000Y-60277714D01*
X203531571Y-60420571D01*
X204888714Y-61563428D02*
X204960142Y-61634857D01*
X205031571Y-61563428D01*
X204960142Y-61492000D01*
X204888714Y-61563428D01*
X205031571Y-61563428D01*
X203531571Y-62563428D02*
X203531571Y-62706285D01*
X203603000Y-62849142D01*
X203674428Y-62920571D01*
X203817285Y-62992000D01*
X204103000Y-63063428D01*
X204460142Y-63063428D01*
X204745857Y-62992000D01*
X204888714Y-62920571D01*
X204960142Y-62849142D01*
X205031571Y-62706285D01*
X205031571Y-62563428D01*
X204960142Y-62420571D01*
X204888714Y-62349142D01*
X204745857Y-62277714D01*
X204460142Y-62206285D01*
X204103000Y-62206285D01*
X203817285Y-62277714D01*
X203674428Y-62349142D01*
X203603000Y-62420571D01*
X203531571Y-62563428D01*
X203531571Y-63563428D02*
X203531571Y-64492000D01*
X204103000Y-63992000D01*
X204103000Y-64206285D01*
X204174428Y-64349142D01*
X204245857Y-64420571D01*
X204388714Y-64492000D01*
X204745857Y-64492000D01*
X204888714Y-64420571D01*
X204960142Y-64349142D01*
X205031571Y-64206285D01*
X205031571Y-63777714D01*
X204960142Y-63634857D01*
X204888714Y-63563428D01*
X203531571Y-65420571D02*
X203531571Y-65563428D01*
X203603000Y-65706285D01*
X203674428Y-65777714D01*
X203817285Y-65849142D01*
X204103000Y-65920571D01*
X204460142Y-65920571D01*
X204745857Y-65849142D01*
X204888714Y-65777714D01*
X204960142Y-65706285D01*
X205031571Y-65563428D01*
X205031571Y-65420571D01*
X204960142Y-65277714D01*
X204888714Y-65206285D01*
X204745857Y-65134857D01*
X204460142Y-65063428D01*
X204103000Y-65063428D01*
X203817285Y-65134857D01*
X203674428Y-65206285D01*
X203603000Y-65277714D01*
X203531571Y-65420571D01*
X203531571Y-66420571D02*
X203531571Y-67349142D01*
X204103000Y-66849142D01*
X204103000Y-67063428D01*
X204174428Y-67206285D01*
X204245857Y-67277714D01*
X204388714Y-67349142D01*
X204745857Y-67349142D01*
X204888714Y-67277714D01*
X204960142Y-67206285D01*
X205031571Y-67063428D01*
X205031571Y-66634857D01*
X204960142Y-66492000D01*
X204888714Y-66420571D01*
D11*
G36*
X214484354Y-115336976D02*
G01*
X214064908Y-115755936D01*
X214064908Y-117854130D01*
X214939242Y-118727556D01*
X215329323Y-118336968D01*
X215719403Y-117946381D01*
X215719403Y-117758240D01*
X215136834Y-117758240D01*
X215062027Y-117835422D01*
X214987219Y-117912604D01*
X214828999Y-117755597D01*
X214670779Y-117598589D01*
X214670779Y-116035181D01*
X214903807Y-115803027D01*
X215136834Y-115570874D01*
X215136834Y-117758240D01*
X215719403Y-117758240D01*
X215719403Y-115732620D01*
X215311602Y-115325318D01*
X214903800Y-114918015D01*
X214484354Y-115336976D01*
G37*
X214484354Y-115336976D02*
X214064908Y-115755936D01*
X214064908Y-117854130D01*
X214939242Y-118727556D01*
X215329323Y-118336968D01*
X215719403Y-117946381D01*
X215719403Y-117758240D01*
X215136834Y-117758240D01*
X215062027Y-117835422D01*
X214987219Y-117912604D01*
X214828999Y-117755597D01*
X214670779Y-117598589D01*
X214670779Y-116035181D01*
X214903807Y-115803027D01*
X215136834Y-115570874D01*
X215136834Y-117758240D01*
X215719403Y-117758240D01*
X215719403Y-115732620D01*
X215311602Y-115325318D01*
X214903800Y-114918015D01*
X214484354Y-115336976D01*
G36*
X216022339Y-115593886D02*
G01*
X216022339Y-116198252D01*
X216429191Y-116606998D01*
X216214114Y-116822974D01*
X215999036Y-117038949D01*
X215999036Y-117945415D01*
X215877159Y-118068826D01*
X215755281Y-118192236D01*
X216023053Y-118460008D01*
X216290825Y-118727779D01*
X216813535Y-118203211D01*
X216583623Y-117946881D01*
X216582614Y-117643547D01*
X216581605Y-117340214D01*
X216837935Y-117084679D01*
X217094266Y-116829143D01*
X217094266Y-117971935D01*
X216977495Y-118086951D01*
X216860724Y-118201966D01*
X217122757Y-118464744D01*
X217212591Y-118553933D01*
X217291075Y-118630151D01*
X217352318Y-118687811D01*
X217390424Y-118721323D01*
X217399856Y-118727523D01*
X217420267Y-118711520D01*
X217466859Y-118667324D01*
X217533844Y-118600657D01*
X217615434Y-118517241D01*
X217669949Y-118460528D01*
X217924977Y-118193533D01*
X217800906Y-118071003D01*
X217676834Y-117948473D01*
X217676834Y-116525184D01*
X217140871Y-116525184D01*
X216843875Y-116228188D01*
X216546879Y-115931193D01*
X217140871Y-115337201D01*
X217140871Y-116525184D01*
X217676834Y-116525184D01*
X217676834Y-115664562D01*
X217810241Y-115529749D01*
X217943648Y-115394935D01*
X217711642Y-115162055D01*
X217479635Y-114929174D01*
X216685865Y-114929174D01*
X216022339Y-115593886D01*
G37*
X216022339Y-115593886D02*
X216022339Y-116198252D01*
X216429191Y-116606998D01*
X216214114Y-116822974D01*
X215999036Y-117038949D01*
X215999036Y-117945415D01*
X215877159Y-118068826D01*
X215755281Y-118192236D01*
X216023053Y-118460008D01*
X216290825Y-118727779D01*
X216813535Y-118203211D01*
X216583623Y-117946881D01*
X216582614Y-117643547D01*
X216581605Y-117340214D01*
X216837935Y-117084679D01*
X217094266Y-116829143D01*
X217094266Y-117971935D01*
X216977495Y-118086951D01*
X216860724Y-118201966D01*
X217122757Y-118464744D01*
X217212591Y-118553933D01*
X217291075Y-118630151D01*
X217352318Y-118687811D01*
X217390424Y-118721323D01*
X217399856Y-118727523D01*
X217420267Y-118711520D01*
X217466859Y-118667324D01*
X217533844Y-118600657D01*
X217615434Y-118517241D01*
X217669949Y-118460528D01*
X217924977Y-118193533D01*
X217800906Y-118071003D01*
X217676834Y-117948473D01*
X217676834Y-116525184D01*
X217140871Y-116525184D01*
X216843875Y-116228188D01*
X216546879Y-115931193D01*
X217140871Y-115337201D01*
X217140871Y-116525184D01*
X217676834Y-116525184D01*
X217676834Y-115664562D01*
X217810241Y-115529749D01*
X217943648Y-115394935D01*
X217711642Y-115162055D01*
X217479635Y-114929174D01*
X216685865Y-114929174D01*
X216022339Y-115593886D01*
G36*
X220491608Y-115365140D02*
G01*
X220066063Y-115791151D01*
X220286710Y-116012719D01*
X220507356Y-116234287D01*
X221148944Y-115593927D01*
X221148944Y-116562316D01*
X220264008Y-116548716D01*
X220548833Y-116834174D01*
X220833658Y-117119633D01*
X221148944Y-117119633D01*
X221148944Y-117793041D01*
X221065882Y-117856396D01*
X220982820Y-117919750D01*
X220507564Y-117446112D01*
X220087120Y-117866556D01*
X220519776Y-118297039D01*
X220636006Y-118412280D01*
X220741275Y-118515877D01*
X220831130Y-118603512D01*
X220901120Y-118670866D01*
X220946792Y-118713621D01*
X220963568Y-118727523D01*
X220982491Y-118711751D01*
X221029481Y-118667522D01*
X221099781Y-118599462D01*
X221188633Y-118512199D01*
X221291280Y-118410361D01*
X221353108Y-118348596D01*
X221731513Y-117969669D01*
X221731513Y-115758062D01*
X221324333Y-115348596D01*
X220917152Y-114939129D01*
X220491608Y-115365140D01*
G37*
X220491608Y-115365140D02*
X220066063Y-115791151D01*
X220286710Y-116012719D01*
X220507356Y-116234287D01*
X221148944Y-115593927D01*
X221148944Y-116562316D01*
X220264008Y-116548716D01*
X220548833Y-116834174D01*
X220833658Y-117119633D01*
X221148944Y-117119633D01*
X221148944Y-117793041D01*
X221065882Y-117856396D01*
X220982820Y-117919750D01*
X220507564Y-117446112D01*
X220087120Y-117866556D01*
X220519776Y-118297039D01*
X220636006Y-118412280D01*
X220741275Y-118515877D01*
X220831130Y-118603512D01*
X220901120Y-118670866D01*
X220946792Y-118713621D01*
X220963568Y-118727523D01*
X220982491Y-118711751D01*
X221029481Y-118667522D01*
X221099781Y-118599462D01*
X221188633Y-118512199D01*
X221291280Y-118410361D01*
X221353108Y-118348596D01*
X221731513Y-117969669D01*
X221731513Y-115758062D01*
X221324333Y-115348596D01*
X220917152Y-114939129D01*
X220491608Y-115365140D01*
G36*
X222552698Y-115331377D02*
G01*
X222150963Y-115733605D01*
X222150963Y-117945415D01*
X222029085Y-118068826D01*
X221907208Y-118192236D01*
X222174980Y-118460008D01*
X222442752Y-118727779D01*
X222977032Y-118191979D01*
X222733532Y-117945415D01*
X222733532Y-117469174D01*
X223246192Y-117469174D01*
X223246192Y-117945415D01*
X223124315Y-118068826D01*
X223002437Y-118192236D01*
X223270209Y-118460008D01*
X223537981Y-118727779D01*
X224072261Y-118191979D01*
X223828761Y-117945415D01*
X223828761Y-116863303D01*
X223246192Y-116863303D01*
X222733532Y-116863303D01*
X222733532Y-116104668D01*
X222988681Y-115837334D01*
X223243831Y-115570000D01*
X223245011Y-116216651D01*
X223246192Y-116863303D01*
X223828761Y-116863303D01*
X223828761Y-115802567D01*
X223391597Y-115365858D01*
X222954434Y-114929149D01*
X222552698Y-115331377D01*
G37*
X222552698Y-115331377D02*
X222150963Y-115733605D01*
X222150963Y-117945415D01*
X222029085Y-118068826D01*
X221907208Y-118192236D01*
X222174980Y-118460008D01*
X222442752Y-118727779D01*
X222977032Y-118191979D01*
X222733532Y-117945415D01*
X222733532Y-117469174D01*
X223246192Y-117469174D01*
X223246192Y-117945415D01*
X223124315Y-118068826D01*
X223002437Y-118192236D01*
X223270209Y-118460008D01*
X223537981Y-118727779D01*
X224072261Y-118191979D01*
X223828761Y-117945415D01*
X223828761Y-116863303D01*
X223246192Y-116863303D01*
X222733532Y-116863303D01*
X222733532Y-116104668D01*
X222988681Y-115837334D01*
X223243831Y-115570000D01*
X223245011Y-116216651D01*
X223246192Y-116863303D01*
X223828761Y-116863303D01*
X223828761Y-115802567D01*
X223391597Y-115365858D01*
X222954434Y-114929149D01*
X222552698Y-115331377D01*
G36*
X218480779Y-115465138D02*
G01*
X218720032Y-116117615D01*
X218357941Y-116117615D01*
X218221356Y-116117894D01*
X218125317Y-116119236D01*
X218063767Y-116122399D01*
X218030648Y-116128143D01*
X218019902Y-116137225D01*
X218025471Y-116150403D01*
X218032150Y-116158394D01*
X218050801Y-116182919D01*
X218093904Y-116241574D01*
X218158760Y-116330611D01*
X218242670Y-116446280D01*
X218342939Y-116584830D01*
X218456866Y-116742511D01*
X218581754Y-116915575D01*
X218714906Y-117100270D01*
X218853622Y-117292846D01*
X218995206Y-117489555D01*
X219136959Y-117686645D01*
X219276183Y-117880368D01*
X219410180Y-118066972D01*
X219536252Y-118242708D01*
X219651701Y-118403827D01*
X219753830Y-118546578D01*
X219839939Y-118667211D01*
X219907331Y-118761976D01*
X219953309Y-118827123D01*
X219975173Y-118858903D01*
X219975652Y-118859655D01*
X219973812Y-118847273D01*
X219957983Y-118795011D01*
X219929541Y-118706990D01*
X219889862Y-118587330D01*
X219840324Y-118440151D01*
X219782302Y-118269575D01*
X219717173Y-118079720D01*
X219655239Y-117900454D01*
X219584049Y-117694915D01*
X219517772Y-117503314D01*
X219457925Y-117330054D01*
X219406024Y-117179540D01*
X219363589Y-117056175D01*
X219332135Y-116964363D01*
X219313180Y-116908509D01*
X219308027Y-116892610D01*
X219329981Y-116890511D01*
X219390447Y-116888732D01*
X219481333Y-116887414D01*
X219594545Y-116886696D01*
X219654325Y-116886605D01*
X220000622Y-116886605D01*
X219740354Y-116298211D01*
X219658068Y-116112004D01*
X219569257Y-115910723D01*
X219479488Y-115707005D01*
X219394327Y-115513484D01*
X219319339Y-115342798D01*
X219283576Y-115261238D01*
X219087066Y-114812661D01*
X218241527Y-114812661D01*
X218480779Y-115465138D01*
G37*
X218480779Y-115465138D02*
X218720032Y-116117615D01*
X218357941Y-116117615D01*
X218221356Y-116117894D01*
X218125317Y-116119236D01*
X218063767Y-116122399D01*
X218030648Y-116128143D01*
X218019902Y-116137225D01*
X218025471Y-116150403D01*
X218032150Y-116158394D01*
X218050801Y-116182919D01*
X218093904Y-116241574D01*
X218158760Y-116330611D01*
X218242670Y-116446280D01*
X218342939Y-116584830D01*
X218456866Y-116742511D01*
X218581754Y-116915575D01*
X218714906Y-117100270D01*
X218853622Y-117292846D01*
X218995206Y-117489555D01*
X219136959Y-117686645D01*
X219276183Y-117880368D01*
X219410180Y-118066972D01*
X219536252Y-118242708D01*
X219651701Y-118403827D01*
X219753830Y-118546578D01*
X219839939Y-118667211D01*
X219907331Y-118761976D01*
X219953309Y-118827123D01*
X219975173Y-118858903D01*
X219975652Y-118859655D01*
X219973812Y-118847273D01*
X219957983Y-118795011D01*
X219929541Y-118706990D01*
X219889862Y-118587330D01*
X219840324Y-118440151D01*
X219782302Y-118269575D01*
X219717173Y-118079720D01*
X219655239Y-117900454D01*
X219584049Y-117694915D01*
X219517772Y-117503314D01*
X219457925Y-117330054D01*
X219406024Y-117179540D01*
X219363589Y-117056175D01*
X219332135Y-116964363D01*
X219313180Y-116908509D01*
X219308027Y-116892610D01*
X219329981Y-116890511D01*
X219390447Y-116888732D01*
X219481333Y-116887414D01*
X219594545Y-116886696D01*
X219654325Y-116886605D01*
X220000622Y-116886605D01*
X219740354Y-116298211D01*
X219658068Y-116112004D01*
X219569257Y-115910723D01*
X219479488Y-115707005D01*
X219394327Y-115513484D01*
X219319339Y-115342798D01*
X219283576Y-115261238D01*
X219087066Y-114812661D01*
X218241527Y-114812661D01*
X218480779Y-115465138D01*
D12*
X213360000Y-72850000D02*
G75*
G02X218360000Y-77850000I0J-5000000D01*
G01*
X162560000Y-72850000D02*
X213360000Y-72850000D01*
X157560000Y-77850000D02*
G75*
G02X162560000Y-72850000I5000000J0D01*
G01*
X157560000Y-99950000D02*
X157560000Y-77850000D01*
X162560000Y-104950000D02*
G75*
G02X157560000Y-99950000I0J5000000D01*
G01*
X213360000Y-104950000D02*
X162560000Y-104950000D01*
X218360000Y-99950000D02*
G75*
G02X213360000Y-104950000I-5000000J0D01*
G01*
X218360000Y-77850000D02*
X218360000Y-99950000D01*
D13*
X220116999Y-113779300D02*
X220116999Y-111595000D01*
X220116999Y-102374700D02*
X233070999Y-102374700D01*
X233070999Y-113779300D02*
X220116999Y-113779300D01*
X220116999Y-108674000D02*
X220116999Y-107467500D01*
X220116999Y-104546500D02*
X220116999Y-102374700D01*
D14*
X183023000Y-64318000D02*
X185883000Y-64318000D01*
X185883000Y-64318000D02*
X185883000Y-66238000D01*
X185883000Y-66238000D02*
X183023000Y-66238000D01*
X183023000Y-67366000D02*
X185883000Y-67366000D01*
X185883000Y-67366000D02*
X185883000Y-69286000D01*
X185883000Y-69286000D02*
X183023000Y-69286000D01*
X206292000Y-56954000D02*
X206292000Y-68675000D01*
X214912000Y-56954000D02*
X214912000Y-68675000D01*
X206292000Y-56954000D02*
X214912000Y-56954000D01*
X206292000Y-68675000D02*
X214912000Y-68675000D01*
X213912000Y-56714000D02*
X215152000Y-56714000D01*
X215152000Y-56714000D02*
X215152000Y-57954000D01*
X181200000Y-112154000D02*
X181200000Y-110939000D01*
X181140000Y-116114000D02*
X181140000Y-118374000D01*
X180640000Y-116114000D02*
X180640000Y-118374000D01*
X172040000Y-114514000D02*
X171040000Y-114514000D01*
X172040000Y-116114000D02*
X172040000Y-114514000D01*
X171040000Y-116114000D02*
X172040000Y-116114000D01*
X171040000Y-114514000D02*
X171040000Y-116114000D01*
X180640000Y-114514000D02*
X181640000Y-114514000D01*
X180640000Y-116114000D02*
X180640000Y-114514000D01*
X181640000Y-116114000D02*
X180640000Y-116114000D01*
X181640000Y-114514000D02*
X181640000Y-116114000D01*
X170280000Y-112154000D02*
X171200000Y-112154000D01*
X182400000Y-112154000D02*
X181480000Y-112154000D01*
X172840000Y-114014000D02*
X172840000Y-118374000D01*
X179840000Y-114014000D02*
X172840000Y-114014000D01*
X179840000Y-118374000D02*
X179840000Y-114014000D01*
X171200000Y-112154000D02*
X171480000Y-112154000D01*
X171200000Y-110554000D02*
X171200000Y-112154000D01*
X170280000Y-110554000D02*
X171200000Y-110554000D01*
X170280000Y-118374000D02*
X170280000Y-110554000D01*
X182400000Y-118374000D02*
X170280000Y-118374000D01*
X182400000Y-110554000D02*
X182400000Y-118374000D01*
X181480000Y-110554000D02*
X182400000Y-110554000D01*
X181480000Y-112154000D02*
X181480000Y-110554000D01*
X181200000Y-112154000D02*
X181480000Y-112154000D01*
X148612000Y-98368000D02*
X147812000Y-98368000D01*
X148612000Y-100768000D02*
X148612000Y-98768000D01*
X147812000Y-100768000D02*
X148612000Y-100768000D01*
X145012000Y-100768000D02*
X146012000Y-100768000D01*
X145012000Y-98768000D02*
X145012000Y-100768000D01*
X146012000Y-98368000D02*
X145012000Y-98368000D01*
X146012000Y-98368000D02*
X146012000Y-97968000D01*
X144812000Y-100768000D02*
X144812000Y-98768000D01*
X148612000Y-98768000D02*
X148612000Y-98368000D01*
X145012000Y-98768000D02*
X145012000Y-98368000D01*
X144812000Y-98768000D02*
X144812000Y-98368000D01*
X224728000Y-62611000D02*
G75*
G03X224728000Y-62611000I-700000J0D01*
G01*
X146814000Y-84109779D02*
X146814000Y-83784221D01*
X145794000Y-84109779D02*
X145794000Y-83784221D01*
X188249779Y-64768000D02*
X187924221Y-64768000D01*
X188249779Y-65788000D02*
X187924221Y-65788000D01*
X188249779Y-67816000D02*
X187924221Y-67816000D01*
X188249779Y-68836000D02*
X187924221Y-68836000D01*
X148715000Y-84927221D02*
X148715000Y-85252779D01*
X149735000Y-84927221D02*
X149735000Y-85252779D01*
X191810000Y-118530000D02*
X196870000Y-118530000D01*
X196870000Y-118530000D02*
X196870000Y-106810000D01*
X196870000Y-106810000D02*
X195450000Y-106810000D01*
X195450000Y-106810000D02*
X195450000Y-111310000D01*
X195450000Y-111310000D02*
X191810000Y-111310000D01*
X191810000Y-118530000D02*
X186750000Y-118530000D01*
X186750000Y-118530000D02*
X186750000Y-106810000D01*
X186750000Y-106810000D02*
X188170000Y-106810000D01*
X188170000Y-106810000D02*
X188170000Y-111310000D01*
X188170000Y-111310000D02*
X191810000Y-111310000D01*
X194560000Y-112420000D02*
X194560000Y-117920000D01*
X194560000Y-117920000D02*
X194060000Y-117920000D01*
X194060000Y-117920000D02*
X194060000Y-112420000D01*
X194060000Y-112420000D02*
X194560000Y-112420000D01*
X192060000Y-112420000D02*
X192060000Y-117920000D01*
X192060000Y-117920000D02*
X191560000Y-117920000D01*
X191560000Y-117920000D02*
X191560000Y-112420000D01*
X191560000Y-112420000D02*
X192060000Y-112420000D01*
X189560000Y-112420000D02*
X189560000Y-117920000D01*
X189560000Y-117920000D02*
X189060000Y-117920000D01*
X189060000Y-117920000D02*
X189060000Y-112420000D01*
X189060000Y-112420000D02*
X189560000Y-112420000D01*
X194310000Y-107720000D02*
X194610000Y-107120000D01*
X194610000Y-107120000D02*
X194010000Y-107120000D01*
X194010000Y-107120000D02*
X194310000Y-107720000D01*
X145990000Y-113090000D02*
X145990000Y-107890000D01*
X151130000Y-113090000D02*
X145990000Y-113090000D01*
X153730000Y-107890000D02*
X145990000Y-107890000D01*
X151130000Y-113090000D02*
X151130000Y-110490000D01*
X151130000Y-110490000D02*
X153730000Y-110490000D01*
X153730000Y-110490000D02*
X153730000Y-107890000D01*
X152400000Y-113090000D02*
X153730000Y-113090000D01*
X153730000Y-113090000D02*
X153730000Y-111760000D01*
X153730000Y-115510000D02*
X153730000Y-118170000D01*
X148590000Y-115510000D02*
X153730000Y-115510000D01*
X148590000Y-118170000D02*
X153730000Y-118170000D01*
X148590000Y-115510000D02*
X148590000Y-118170000D01*
X147320000Y-115510000D02*
X145990000Y-115510000D01*
X145990000Y-115510000D02*
X145990000Y-116840000D01*
X162580000Y-118530000D02*
X166390000Y-118530000D01*
X166390000Y-118530000D02*
X166390000Y-106810000D01*
X166390000Y-106810000D02*
X164970000Y-106810000D01*
X164970000Y-106810000D02*
X164970000Y-111310000D01*
X164970000Y-111310000D02*
X162580000Y-111310000D01*
X162580000Y-118530000D02*
X158770000Y-118530000D01*
X158770000Y-118530000D02*
X158770000Y-106810000D01*
X158770000Y-106810000D02*
X160190000Y-106810000D01*
X160190000Y-106810000D02*
X160190000Y-111310000D01*
X160190000Y-111310000D02*
X162580000Y-111310000D01*
X164080000Y-112420000D02*
X164080000Y-117920000D01*
X164080000Y-117920000D02*
X163580000Y-117920000D01*
X163580000Y-117920000D02*
X163580000Y-112420000D01*
X163580000Y-112420000D02*
X164080000Y-112420000D01*
X161580000Y-112420000D02*
X161580000Y-117920000D01*
X161580000Y-117920000D02*
X161080000Y-117920000D01*
X161080000Y-117920000D02*
X161080000Y-112420000D01*
X161080000Y-112420000D02*
X161580000Y-112420000D01*
X163830000Y-107720000D02*
X164130000Y-107120000D01*
X164130000Y-107120000D02*
X163530000Y-107120000D01*
X163530000Y-107120000D02*
X163830000Y-107720000D01*
X232830000Y-78700000D02*
X232830000Y-73640000D01*
X232830000Y-73640000D02*
X221110000Y-73640000D01*
X221110000Y-73640000D02*
X221110000Y-75060000D01*
X221110000Y-75060000D02*
X225610000Y-75060000D01*
X225610000Y-75060000D02*
X225610000Y-78700000D01*
X232830000Y-78700000D02*
X232830000Y-83760000D01*
X232830000Y-83760000D02*
X221110000Y-83760000D01*
X221110000Y-83760000D02*
X221110000Y-82340000D01*
X221110000Y-82340000D02*
X225610000Y-82340000D01*
X225610000Y-82340000D02*
X225610000Y-78700000D01*
X226720000Y-75950000D02*
X232220000Y-75950000D01*
X232220000Y-75950000D02*
X232220000Y-76450000D01*
X232220000Y-76450000D02*
X226720000Y-76450000D01*
X226720000Y-76450000D02*
X226720000Y-75950000D01*
X226720000Y-78450000D02*
X232220000Y-78450000D01*
X232220000Y-78450000D02*
X232220000Y-78950000D01*
X232220000Y-78950000D02*
X226720000Y-78950000D01*
X226720000Y-78950000D02*
X226720000Y-78450000D01*
X226720000Y-80950000D02*
X232220000Y-80950000D01*
X232220000Y-80950000D02*
X232220000Y-81450000D01*
X232220000Y-81450000D02*
X226720000Y-81450000D01*
X226720000Y-81450000D02*
X226720000Y-80950000D01*
X222020000Y-76200000D02*
X221420000Y-75900000D01*
X221420000Y-75900000D02*
X221420000Y-76500000D01*
X221420000Y-76500000D02*
X222020000Y-76200000D01*
X221420000Y-89200000D02*
X222020000Y-88900000D01*
X221420000Y-88600000D02*
X221420000Y-89200000D01*
X222020000Y-88900000D02*
X221420000Y-88600000D01*
X226720000Y-96650000D02*
X226720000Y-96150000D01*
X232220000Y-96650000D02*
X226720000Y-96650000D01*
X232220000Y-96150000D02*
X232220000Y-96650000D01*
X226720000Y-96150000D02*
X232220000Y-96150000D01*
X226720000Y-94150000D02*
X226720000Y-93650000D01*
X232220000Y-94150000D02*
X226720000Y-94150000D01*
X232220000Y-93650000D02*
X232220000Y-94150000D01*
X226720000Y-93650000D02*
X232220000Y-93650000D01*
X226720000Y-91650000D02*
X226720000Y-91150000D01*
X232220000Y-91650000D02*
X226720000Y-91650000D01*
X232220000Y-91150000D02*
X232220000Y-91650000D01*
X226720000Y-91150000D02*
X232220000Y-91150000D01*
X226720000Y-89150000D02*
X226720000Y-88650000D01*
X232220000Y-89150000D02*
X226720000Y-89150000D01*
X232220000Y-88650000D02*
X232220000Y-89150000D01*
X226720000Y-88650000D02*
X232220000Y-88650000D01*
X225610000Y-97540000D02*
X225610000Y-92650000D01*
X221110000Y-97540000D02*
X225610000Y-97540000D01*
X221110000Y-98960000D02*
X221110000Y-97540000D01*
X232830000Y-98960000D02*
X221110000Y-98960000D01*
X232830000Y-92650000D02*
X232830000Y-98960000D01*
X225610000Y-87760000D02*
X225610000Y-92650000D01*
X221110000Y-87760000D02*
X225610000Y-87760000D01*
X221110000Y-86340000D02*
X221110000Y-87760000D01*
X232830000Y-86340000D02*
X221110000Y-86340000D01*
X232830000Y-92650000D02*
X232830000Y-86340000D01*
X155737779Y-67435000D02*
X155412221Y-67435000D01*
X155737779Y-68455000D02*
X155412221Y-68455000D01*
X155577000Y-99984779D02*
X155577000Y-99659221D01*
X154557000Y-99984779D02*
X154557000Y-99659221D01*
X155691721Y-102618000D02*
X156017279Y-102618000D01*
X155691721Y-101598000D02*
X156017279Y-101598000D01*
X154929721Y-80520000D02*
X155255279Y-80520000D01*
X154929721Y-79500000D02*
X155255279Y-79500000D01*
X154929721Y-82425000D02*
X155255279Y-82425000D01*
X154929721Y-81405000D02*
X155255279Y-81405000D01*
D15*
X155632380Y-98536666D02*
X156346666Y-98536666D01*
X156489523Y-98489047D01*
X156584761Y-98393809D01*
X156632380Y-98250952D01*
X156632380Y-98155714D01*
X155632380Y-99441428D02*
X155632380Y-99250952D01*
X155680000Y-99155714D01*
X155727619Y-99108095D01*
X155870476Y-99012857D01*
X156060952Y-98965238D01*
X156441904Y-98965238D01*
X156537142Y-99012857D01*
X156584761Y-99060476D01*
X156632380Y-99155714D01*
X156632380Y-99346190D01*
X156584761Y-99441428D01*
X156537142Y-99489047D01*
X156441904Y-99536666D01*
X156203809Y-99536666D01*
X156108571Y-99489047D01*
X156060952Y-99441428D01*
X156013333Y-99346190D01*
X156013333Y-99155714D01*
X156060952Y-99060476D01*
X156108571Y-99012857D01*
X156203809Y-98965238D01*
D16*
X209284450Y-101706683D02*
X208616783Y-101706683D01*
X209417983Y-102107283D02*
X208950616Y-100705183D01*
X208483250Y-102107283D01*
X208015883Y-102107283D02*
X208015883Y-100705183D01*
X207548516Y-101706683D01*
X207081150Y-100705183D01*
X207081150Y-102107283D01*
X206413483Y-102107283D02*
X206413483Y-100705183D01*
X205879350Y-100705183D01*
X205745816Y-100771950D01*
X205679050Y-100838716D01*
X205612283Y-100972250D01*
X205612283Y-101172550D01*
X205679050Y-101306083D01*
X205745816Y-101372850D01*
X205879350Y-101439616D01*
X206413483Y-101439616D01*
X205078150Y-102040516D02*
X204877850Y-102107283D01*
X204544016Y-102107283D01*
X204410483Y-102040516D01*
X204343716Y-101973750D01*
X204276950Y-101840216D01*
X204276950Y-101706683D01*
X204343716Y-101573150D01*
X204410483Y-101506383D01*
X204544016Y-101439616D01*
X204811083Y-101372850D01*
X204944616Y-101306083D01*
X205011383Y-101239316D01*
X205078150Y-101105783D01*
X205078150Y-100972250D01*
X205011383Y-100838716D01*
X204944616Y-100771950D01*
X204811083Y-100705183D01*
X204477250Y-100705183D01*
X204276950Y-100771950D01*
X203676050Y-101372850D02*
X203208683Y-101372850D01*
X203008383Y-102107283D02*
X203676050Y-102107283D01*
X203676050Y-100705183D01*
X203008383Y-100705183D01*
X202474250Y-101706683D02*
X201806583Y-101706683D01*
X202607783Y-102107283D02*
X202140416Y-100705183D01*
X201673050Y-102107283D01*
X200538016Y-102107283D02*
X201205683Y-102107283D01*
X201205683Y-100705183D01*
D15*
X222609332Y-100633380D02*
X222609332Y-101347666D01*
X222656951Y-101490523D01*
X222752189Y-101585761D01*
X222895046Y-101633380D01*
X222990284Y-101633380D01*
X222228379Y-100633380D02*
X221561713Y-100633380D01*
X221990284Y-101633380D01*
X184761095Y-64080380D02*
X184761095Y-63080380D01*
X184523000Y-63080380D01*
X184380142Y-63128000D01*
X184284904Y-63223238D01*
X184237285Y-63318476D01*
X184189666Y-63508952D01*
X184189666Y-63651809D01*
X184237285Y-63842285D01*
X184284904Y-63937523D01*
X184380142Y-64032761D01*
X184523000Y-64080380D01*
X184761095Y-64080380D01*
X183332523Y-63080380D02*
X183523000Y-63080380D01*
X183618238Y-63128000D01*
X183665857Y-63175619D01*
X183761095Y-63318476D01*
X183808714Y-63508952D01*
X183808714Y-63889904D01*
X183761095Y-63985142D01*
X183713476Y-64032761D01*
X183618238Y-64080380D01*
X183427761Y-64080380D01*
X183332523Y-64032761D01*
X183284904Y-63985142D01*
X183237285Y-63889904D01*
X183237285Y-63651809D01*
X183284904Y-63556571D01*
X183332523Y-63508952D01*
X183427761Y-63461333D01*
X183618238Y-63461333D01*
X183713476Y-63508952D01*
X183761095Y-63556571D01*
X183808714Y-63651809D01*
X184761095Y-67128380D02*
X184761095Y-66128380D01*
X184523000Y-66128380D01*
X184380142Y-66176000D01*
X184284904Y-66271238D01*
X184237285Y-66366476D01*
X184189666Y-66556952D01*
X184189666Y-66699809D01*
X184237285Y-66890285D01*
X184284904Y-66985523D01*
X184380142Y-67080761D01*
X184523000Y-67128380D01*
X184761095Y-67128380D01*
X183284904Y-66128380D02*
X183761095Y-66128380D01*
X183808714Y-66604571D01*
X183761095Y-66556952D01*
X183665857Y-66509333D01*
X183427761Y-66509333D01*
X183332523Y-66556952D01*
X183284904Y-66604571D01*
X183237285Y-66699809D01*
X183237285Y-66937904D01*
X183284904Y-67033142D01*
X183332523Y-67080761D01*
X183427761Y-67128380D01*
X183665857Y-67128380D01*
X183761095Y-67080761D01*
X183808714Y-67033142D01*
X210018380Y-69342095D02*
X210827904Y-69342095D01*
X210923142Y-69389714D01*
X210970761Y-69437333D01*
X211018380Y-69532571D01*
X211018380Y-69723047D01*
X210970761Y-69818285D01*
X210923142Y-69865904D01*
X210827904Y-69913523D01*
X210018380Y-69913523D01*
X211018380Y-70913523D02*
X211018380Y-70342095D01*
X211018380Y-70627809D02*
X210018380Y-70627809D01*
X210161238Y-70532571D01*
X210256476Y-70437333D01*
X210304095Y-70342095D01*
X176673333Y-108916380D02*
X176673333Y-109630666D01*
X176720952Y-109773523D01*
X176816190Y-109868761D01*
X176959047Y-109916380D01*
X177054285Y-109916380D01*
X175720952Y-108916380D02*
X176197142Y-108916380D01*
X176244761Y-109392571D01*
X176197142Y-109344952D01*
X176101904Y-109297333D01*
X175863809Y-109297333D01*
X175768571Y-109344952D01*
X175720952Y-109392571D01*
X175673333Y-109487809D01*
X175673333Y-109725904D01*
X175720952Y-109821142D01*
X175768571Y-109868761D01*
X175863809Y-109916380D01*
X176101904Y-109916380D01*
X176197142Y-109868761D01*
X176244761Y-109821142D01*
X147288190Y-101544190D02*
X147288190Y-102020380D01*
X147621523Y-101020380D02*
X147288190Y-101544190D01*
X146954857Y-101020380D01*
X146097714Y-102020380D02*
X146669142Y-102020380D01*
X146383428Y-102020380D02*
X146383428Y-101020380D01*
X146478666Y-101163238D01*
X146573904Y-101258476D01*
X146669142Y-101306095D01*
X225162904Y-60285380D02*
X224591476Y-60285380D01*
X224877190Y-61285380D02*
X224877190Y-60285380D01*
X224258142Y-61285380D02*
X224258142Y-60285380D01*
X223877190Y-60285380D01*
X223781952Y-60333000D01*
X223734333Y-60380619D01*
X223686714Y-60475857D01*
X223686714Y-60618714D01*
X223734333Y-60713952D01*
X223781952Y-60761571D01*
X223877190Y-60809190D01*
X224258142Y-60809190D01*
X222734333Y-61285380D02*
X223305761Y-61285380D01*
X223020047Y-61285380D02*
X223020047Y-60285380D01*
X223115285Y-60428238D01*
X223210523Y-60523476D01*
X223305761Y-60571095D01*
X147335714Y-80884880D02*
X146764285Y-80884880D01*
X147050000Y-81884880D02*
X147050000Y-80884880D01*
X146430952Y-81884880D02*
X146430952Y-80884880D01*
X146430952Y-81361071D02*
X145859523Y-81361071D01*
X145859523Y-81884880D02*
X145859523Y-80884880D01*
X144859523Y-81884880D02*
X145430952Y-81884880D01*
X145145238Y-81884880D02*
X145145238Y-80884880D01*
X145240476Y-81027738D01*
X145335714Y-81122976D01*
X145430952Y-81170595D01*
X188253666Y-64300380D02*
X188587000Y-63824190D01*
X188825095Y-64300380D02*
X188825095Y-63300380D01*
X188444142Y-63300380D01*
X188348904Y-63348000D01*
X188301285Y-63395619D01*
X188253666Y-63490857D01*
X188253666Y-63633714D01*
X188301285Y-63728952D01*
X188348904Y-63776571D01*
X188444142Y-63824190D01*
X188825095Y-63824190D01*
X187396523Y-63300380D02*
X187587000Y-63300380D01*
X187682238Y-63348000D01*
X187729857Y-63395619D01*
X187825095Y-63538476D01*
X187872714Y-63728952D01*
X187872714Y-64109904D01*
X187825095Y-64205142D01*
X187777476Y-64252761D01*
X187682238Y-64300380D01*
X187491761Y-64300380D01*
X187396523Y-64252761D01*
X187348904Y-64205142D01*
X187301285Y-64109904D01*
X187301285Y-63871809D01*
X187348904Y-63776571D01*
X187396523Y-63728952D01*
X187491761Y-63681333D01*
X187682238Y-63681333D01*
X187777476Y-63728952D01*
X187825095Y-63776571D01*
X187872714Y-63871809D01*
X188253666Y-67348380D02*
X188587000Y-66872190D01*
X188825095Y-67348380D02*
X188825095Y-66348380D01*
X188444142Y-66348380D01*
X188348904Y-66396000D01*
X188301285Y-66443619D01*
X188253666Y-66538857D01*
X188253666Y-66681714D01*
X188301285Y-66776952D01*
X188348904Y-66824571D01*
X188444142Y-66872190D01*
X188825095Y-66872190D01*
X187348904Y-66348380D02*
X187825095Y-66348380D01*
X187872714Y-66824571D01*
X187825095Y-66776952D01*
X187729857Y-66729333D01*
X187491761Y-66729333D01*
X187396523Y-66776952D01*
X187348904Y-66824571D01*
X187301285Y-66919809D01*
X187301285Y-67157904D01*
X187348904Y-67253142D01*
X187396523Y-67300761D01*
X187491761Y-67348380D01*
X187729857Y-67348380D01*
X187825095Y-67300761D01*
X187872714Y-67253142D01*
X149391666Y-83002380D02*
X149725000Y-82526190D01*
X149963095Y-83002380D02*
X149963095Y-82002380D01*
X149582142Y-82002380D01*
X149486904Y-82050000D01*
X149439285Y-82097619D01*
X149391666Y-82192857D01*
X149391666Y-82335714D01*
X149439285Y-82430952D01*
X149486904Y-82478571D01*
X149582142Y-82526190D01*
X149963095Y-82526190D01*
X149058333Y-82002380D02*
X148439285Y-82002380D01*
X148772619Y-82383333D01*
X148629761Y-82383333D01*
X148534523Y-82430952D01*
X148486904Y-82478571D01*
X148439285Y-82573809D01*
X148439285Y-82811904D01*
X148486904Y-82907142D01*
X148534523Y-82954761D01*
X148629761Y-83002380D01*
X148915476Y-83002380D01*
X149010714Y-82954761D01*
X149058333Y-82907142D01*
X192143333Y-105172380D02*
X192143333Y-105886666D01*
X192190952Y-106029523D01*
X192286190Y-106124761D01*
X192429047Y-106172380D01*
X192524285Y-106172380D01*
X191238571Y-105505714D02*
X191238571Y-106172380D01*
X191476666Y-105124761D02*
X191714761Y-105839047D01*
X191095714Y-105839047D01*
X154182380Y-110156666D02*
X154896666Y-110156666D01*
X155039523Y-110109047D01*
X155134761Y-110013809D01*
X155182380Y-109870952D01*
X155182380Y-109775714D01*
X155182380Y-110680476D02*
X155182380Y-110870952D01*
X155134761Y-110966190D01*
X155087142Y-111013809D01*
X154944285Y-111109047D01*
X154753809Y-111156666D01*
X154372857Y-111156666D01*
X154277619Y-111109047D01*
X154230000Y-111061428D01*
X154182380Y-110966190D01*
X154182380Y-110775714D01*
X154230000Y-110680476D01*
X154277619Y-110632857D01*
X154372857Y-110585238D01*
X154610952Y-110585238D01*
X154706190Y-110632857D01*
X154753809Y-110680476D01*
X154801428Y-110775714D01*
X154801428Y-110966190D01*
X154753809Y-111061428D01*
X154706190Y-111109047D01*
X154610952Y-111156666D01*
X144442380Y-116506666D02*
X145156666Y-116506666D01*
X145299523Y-116459047D01*
X145394761Y-116363809D01*
X145442380Y-116220952D01*
X145442380Y-116125714D01*
X144870952Y-117125714D02*
X144823333Y-117030476D01*
X144775714Y-116982857D01*
X144680476Y-116935238D01*
X144632857Y-116935238D01*
X144537619Y-116982857D01*
X144490000Y-117030476D01*
X144442380Y-117125714D01*
X144442380Y-117316190D01*
X144490000Y-117411428D01*
X144537619Y-117459047D01*
X144632857Y-117506666D01*
X144680476Y-117506666D01*
X144775714Y-117459047D01*
X144823333Y-117411428D01*
X144870952Y-117316190D01*
X144870952Y-117125714D01*
X144918571Y-117030476D01*
X144966190Y-116982857D01*
X145061428Y-116935238D01*
X145251904Y-116935238D01*
X145347142Y-116982857D01*
X145394761Y-117030476D01*
X145442380Y-117125714D01*
X145442380Y-117316190D01*
X145394761Y-117411428D01*
X145347142Y-117459047D01*
X145251904Y-117506666D01*
X145061428Y-117506666D01*
X144966190Y-117459047D01*
X144918571Y-117411428D01*
X144870952Y-117316190D01*
X162913333Y-105172380D02*
X162913333Y-105886666D01*
X162960952Y-106029523D01*
X163056190Y-106124761D01*
X163199047Y-106172380D01*
X163294285Y-106172380D01*
X162484761Y-105267619D02*
X162437142Y-105220000D01*
X162341904Y-105172380D01*
X162103809Y-105172380D01*
X162008571Y-105220000D01*
X161960952Y-105267619D01*
X161913333Y-105362857D01*
X161913333Y-105458095D01*
X161960952Y-105600952D01*
X162532380Y-106172380D01*
X161913333Y-106172380D01*
X219472380Y-78366666D02*
X220186666Y-78366666D01*
X220329523Y-78319047D01*
X220424761Y-78223809D01*
X220472380Y-78080952D01*
X220472380Y-77985714D01*
X219472380Y-78747619D02*
X219472380Y-79366666D01*
X219853333Y-79033333D01*
X219853333Y-79176190D01*
X219900952Y-79271428D01*
X219948571Y-79319047D01*
X220043809Y-79366666D01*
X220281904Y-79366666D01*
X220377142Y-79319047D01*
X220424761Y-79271428D01*
X220472380Y-79176190D01*
X220472380Y-78890476D01*
X220424761Y-78795238D01*
X220377142Y-78747619D01*
X219472380Y-92316666D02*
X220186666Y-92316666D01*
X220329523Y-92269047D01*
X220424761Y-92173809D01*
X220472380Y-92030952D01*
X220472380Y-91935714D01*
X220472380Y-93316666D02*
X220472380Y-92745238D01*
X220472380Y-93030952D02*
X219472380Y-93030952D01*
X219615238Y-92935714D01*
X219710476Y-92840476D01*
X219758095Y-92745238D01*
X155741666Y-66872142D02*
X155789285Y-66919761D01*
X155932142Y-66967380D01*
X156027380Y-66967380D01*
X156170238Y-66919761D01*
X156265476Y-66824523D01*
X156313095Y-66729285D01*
X156360714Y-66538809D01*
X156360714Y-66395952D01*
X156313095Y-66205476D01*
X156265476Y-66110238D01*
X156170238Y-66015000D01*
X156027380Y-65967380D01*
X155932142Y-65967380D01*
X155789285Y-66015000D01*
X155741666Y-66062619D01*
X155170238Y-66395952D02*
X155265476Y-66348333D01*
X155313095Y-66300714D01*
X155360714Y-66205476D01*
X155360714Y-66157857D01*
X155313095Y-66062619D01*
X155265476Y-66015000D01*
X155170238Y-65967380D01*
X154979761Y-65967380D01*
X154884523Y-66015000D01*
X154836904Y-66062619D01*
X154789285Y-66157857D01*
X154789285Y-66205476D01*
X154836904Y-66300714D01*
X154884523Y-66348333D01*
X154979761Y-66395952D01*
X155170238Y-66395952D01*
X155265476Y-66443571D01*
X155313095Y-66491190D01*
X155360714Y-66586428D01*
X155360714Y-66776904D01*
X155313095Y-66872142D01*
X155265476Y-66919761D01*
X155170238Y-66967380D01*
X154979761Y-66967380D01*
X154884523Y-66919761D01*
X154836904Y-66872142D01*
X154789285Y-66776904D01*
X154789285Y-66586428D01*
X154836904Y-66491190D01*
X154884523Y-66443571D01*
X154979761Y-66395952D01*
X156854142Y-99655333D02*
X156901761Y-99607714D01*
X156949380Y-99464857D01*
X156949380Y-99369619D01*
X156901761Y-99226761D01*
X156806523Y-99131523D01*
X156711285Y-99083904D01*
X156520809Y-99036285D01*
X156377952Y-99036285D01*
X156187476Y-99083904D01*
X156092238Y-99131523D01*
X155997000Y-99226761D01*
X155949380Y-99369619D01*
X155949380Y-99464857D01*
X155997000Y-99607714D01*
X156044619Y-99655333D01*
X155949380Y-99988666D02*
X155949380Y-100655333D01*
X156949380Y-100226761D01*
X156021166Y-103895142D02*
X156068785Y-103942761D01*
X156211642Y-103990380D01*
X156306880Y-103990380D01*
X156449738Y-103942761D01*
X156544976Y-103847523D01*
X156592595Y-103752285D01*
X156640214Y-103561809D01*
X156640214Y-103418952D01*
X156592595Y-103228476D01*
X156544976Y-103133238D01*
X156449738Y-103038000D01*
X156306880Y-102990380D01*
X156211642Y-102990380D01*
X156068785Y-103038000D01*
X156021166Y-103085619D01*
X155164023Y-102990380D02*
X155354500Y-102990380D01*
X155449738Y-103038000D01*
X155497357Y-103085619D01*
X155592595Y-103228476D01*
X155640214Y-103418952D01*
X155640214Y-103799904D01*
X155592595Y-103895142D01*
X155544976Y-103942761D01*
X155449738Y-103990380D01*
X155259261Y-103990380D01*
X155164023Y-103942761D01*
X155116404Y-103895142D01*
X155068785Y-103799904D01*
X155068785Y-103561809D01*
X155116404Y-103466571D01*
X155164023Y-103418952D01*
X155259261Y-103371333D01*
X155449738Y-103371333D01*
X155544976Y-103418952D01*
X155592595Y-103466571D01*
X155640214Y-103561809D01*
X155259166Y-81797142D02*
X155306785Y-81844761D01*
X155449642Y-81892380D01*
X155544880Y-81892380D01*
X155687738Y-81844761D01*
X155782976Y-81749523D01*
X155830595Y-81654285D01*
X155878214Y-81463809D01*
X155878214Y-81320952D01*
X155830595Y-81130476D01*
X155782976Y-81035238D01*
X155687738Y-80940000D01*
X155544880Y-80892380D01*
X155449642Y-80892380D01*
X155306785Y-80940000D01*
X155259166Y-80987619D01*
X154354404Y-80892380D02*
X154830595Y-80892380D01*
X154878214Y-81368571D01*
X154830595Y-81320952D01*
X154735357Y-81273333D01*
X154497261Y-81273333D01*
X154402023Y-81320952D01*
X154354404Y-81368571D01*
X154306785Y-81463809D01*
X154306785Y-81701904D01*
X154354404Y-81797142D01*
X154402023Y-81844761D01*
X154497261Y-81892380D01*
X154735357Y-81892380D01*
X154830595Y-81844761D01*
X154878214Y-81797142D01*
X155259166Y-83702142D02*
X155306785Y-83749761D01*
X155449642Y-83797380D01*
X155544880Y-83797380D01*
X155687738Y-83749761D01*
X155782976Y-83654523D01*
X155830595Y-83559285D01*
X155878214Y-83368809D01*
X155878214Y-83225952D01*
X155830595Y-83035476D01*
X155782976Y-82940238D01*
X155687738Y-82845000D01*
X155544880Y-82797380D01*
X155449642Y-82797380D01*
X155306785Y-82845000D01*
X155259166Y-82892619D01*
X154402023Y-83130714D02*
X154402023Y-83797380D01*
X154640119Y-82749761D02*
X154878214Y-83464047D01*
X154259166Y-83464047D01*
M02*
