G04 #@! TF.GenerationSoftware,KiCad,Pcbnew,5.1.5-52549c5~84~ubuntu18.04.1*
G04 #@! TF.CreationDate,2020-03-09T21:38:05-04:00*
G04 #@! TF.ProjectId,right,72696768-742e-46b6-9963-61645f706362,rev?*
G04 #@! TF.SameCoordinates,Original*
G04 #@! TF.FileFunction,Soldermask,Bot*
G04 #@! TF.FilePolarity,Negative*
%FSLAX46Y46*%
G04 Gerber Fmt 4.6, Leading zero omitted, Abs format (unit mm)*
G04 Created by KiCad (PCBNEW 5.1.5-52549c5~84~ubuntu18.04.1) date 2020-03-09 21:38:05*
%MOMM*%
%LPD*%
G04 APERTURE LIST*
%ADD10C,0.100000*%
G04 APERTURE END LIST*
D10*
G36*
X148221000Y-117741000D02*
G01*
X146419000Y-117741000D01*
X146419000Y-115939000D01*
X148221000Y-115939000D01*
X148221000Y-117741000D01*
G37*
G36*
X149973512Y-115943927D02*
G01*
X150122812Y-115973624D01*
X150286784Y-116041544D01*
X150434354Y-116140147D01*
X150559853Y-116265646D01*
X150658456Y-116413216D01*
X150726376Y-116577188D01*
X150761000Y-116751259D01*
X150761000Y-116928741D01*
X150726376Y-117102812D01*
X150658456Y-117266784D01*
X150559853Y-117414354D01*
X150434354Y-117539853D01*
X150286784Y-117638456D01*
X150122812Y-117706376D01*
X149973512Y-117736073D01*
X149948742Y-117741000D01*
X149771258Y-117741000D01*
X149746488Y-117736073D01*
X149597188Y-117706376D01*
X149433216Y-117638456D01*
X149285646Y-117539853D01*
X149160147Y-117414354D01*
X149061544Y-117266784D01*
X148993624Y-117102812D01*
X148959000Y-116928741D01*
X148959000Y-116751259D01*
X148993624Y-116577188D01*
X149061544Y-116413216D01*
X149160147Y-116265646D01*
X149285646Y-116140147D01*
X149433216Y-116041544D01*
X149597188Y-115973624D01*
X149746488Y-115943927D01*
X149771258Y-115939000D01*
X149948742Y-115939000D01*
X149973512Y-115943927D01*
G37*
G36*
X152513512Y-115943927D02*
G01*
X152662812Y-115973624D01*
X152826784Y-116041544D01*
X152974354Y-116140147D01*
X153099853Y-116265646D01*
X153198456Y-116413216D01*
X153266376Y-116577188D01*
X153301000Y-116751259D01*
X153301000Y-116928741D01*
X153266376Y-117102812D01*
X153198456Y-117266784D01*
X153099853Y-117414354D01*
X152974354Y-117539853D01*
X152826784Y-117638456D01*
X152662812Y-117706376D01*
X152513512Y-117736073D01*
X152488742Y-117741000D01*
X152311258Y-117741000D01*
X152286488Y-117736073D01*
X152137188Y-117706376D01*
X151973216Y-117638456D01*
X151825646Y-117539853D01*
X151700147Y-117414354D01*
X151601544Y-117266784D01*
X151533624Y-117102812D01*
X151499000Y-116928741D01*
X151499000Y-116751259D01*
X151533624Y-116577188D01*
X151601544Y-116413216D01*
X151700147Y-116265646D01*
X151825646Y-116140147D01*
X151973216Y-116041544D01*
X152137188Y-115973624D01*
X152286488Y-115943927D01*
X152311258Y-115939000D01*
X152488742Y-115939000D01*
X152513512Y-115943927D01*
G37*
G36*
X207639256Y-111548298D02*
G01*
X207745579Y-111569447D01*
X208046042Y-111693903D01*
X208316451Y-111874585D01*
X208546415Y-112104549D01*
X208727097Y-112374958D01*
X208845580Y-112661000D01*
X208851553Y-112675422D01*
X208904808Y-112943149D01*
X208915000Y-112994391D01*
X208915000Y-113319609D01*
X208851553Y-113638579D01*
X208727097Y-113939042D01*
X208546415Y-114209451D01*
X208316451Y-114439415D01*
X208046042Y-114620097D01*
X207745579Y-114744553D01*
X207639256Y-114765702D01*
X207426611Y-114808000D01*
X207101389Y-114808000D01*
X206888744Y-114765702D01*
X206782421Y-114744553D01*
X206481958Y-114620097D01*
X206211549Y-114439415D01*
X205981585Y-114209451D01*
X205800903Y-113939042D01*
X205676447Y-113638579D01*
X205613000Y-113319609D01*
X205613000Y-112994391D01*
X205623193Y-112943149D01*
X205676447Y-112675422D01*
X205682421Y-112661000D01*
X205800903Y-112374958D01*
X205981585Y-112104549D01*
X206211549Y-111874585D01*
X206481958Y-111693903D01*
X206782421Y-111569447D01*
X206888744Y-111548298D01*
X207101389Y-111506000D01*
X207426611Y-111506000D01*
X207639256Y-111548298D01*
G37*
G36*
X178467618Y-111097420D02*
G01*
X178548400Y-111121925D01*
X178590336Y-111134646D01*
X178703425Y-111195094D01*
X178802554Y-111276446D01*
X178883906Y-111375575D01*
X178944354Y-111488664D01*
X178944355Y-111488668D01*
X178981580Y-111611382D01*
X178991000Y-111707027D01*
X178991000Y-112320973D01*
X178981580Y-112416618D01*
X178954040Y-112507404D01*
X178944354Y-112539336D01*
X178883906Y-112652425D01*
X178802554Y-112751553D01*
X178703424Y-112832906D01*
X178590335Y-112893354D01*
X178558403Y-112903040D01*
X178467617Y-112930580D01*
X178340000Y-112943149D01*
X178212382Y-112930580D01*
X178121596Y-112903040D01*
X178089664Y-112893354D01*
X177976575Y-112832906D01*
X177877447Y-112751554D01*
X177796094Y-112652424D01*
X177735646Y-112539335D01*
X177711536Y-112459853D01*
X177698420Y-112416617D01*
X177689000Y-112320972D01*
X177689000Y-111707027D01*
X177698420Y-111611382D01*
X177735645Y-111488668D01*
X177735645Y-111488667D01*
X177767957Y-111428217D01*
X177796095Y-111375574D01*
X177830856Y-111333218D01*
X177877447Y-111276446D01*
X177976576Y-111195094D01*
X178089665Y-111134646D01*
X178131601Y-111121925D01*
X178212383Y-111097420D01*
X178340000Y-111084851D01*
X178467618Y-111097420D01*
G37*
G36*
X176467618Y-111097420D02*
G01*
X176548400Y-111121925D01*
X176590336Y-111134646D01*
X176703425Y-111195094D01*
X176802554Y-111276446D01*
X176883906Y-111375575D01*
X176944354Y-111488664D01*
X176944355Y-111488668D01*
X176981580Y-111611382D01*
X176991000Y-111707027D01*
X176991000Y-112320973D01*
X176981580Y-112416618D01*
X176954040Y-112507404D01*
X176944354Y-112539336D01*
X176883906Y-112652425D01*
X176802554Y-112751553D01*
X176703424Y-112832906D01*
X176590335Y-112893354D01*
X176558403Y-112903040D01*
X176467617Y-112930580D01*
X176340000Y-112943149D01*
X176212382Y-112930580D01*
X176121596Y-112903040D01*
X176089664Y-112893354D01*
X175976575Y-112832906D01*
X175877447Y-112751554D01*
X175796094Y-112652424D01*
X175735646Y-112539335D01*
X175711536Y-112459853D01*
X175698420Y-112416617D01*
X175689000Y-112320972D01*
X175689000Y-111707027D01*
X175698420Y-111611382D01*
X175735645Y-111488668D01*
X175735645Y-111488667D01*
X175767957Y-111428217D01*
X175796095Y-111375574D01*
X175830856Y-111333218D01*
X175877447Y-111276446D01*
X175976576Y-111195094D01*
X176089665Y-111134646D01*
X176131601Y-111121925D01*
X176212383Y-111097420D01*
X176340000Y-111084851D01*
X176467618Y-111097420D01*
G37*
G36*
X174467618Y-111097420D02*
G01*
X174548400Y-111121925D01*
X174590336Y-111134646D01*
X174703425Y-111195094D01*
X174802554Y-111276446D01*
X174883906Y-111375575D01*
X174944354Y-111488664D01*
X174944355Y-111488668D01*
X174981580Y-111611382D01*
X174991000Y-111707027D01*
X174991000Y-112320973D01*
X174981580Y-112416618D01*
X174954040Y-112507404D01*
X174944354Y-112539336D01*
X174883906Y-112652425D01*
X174802554Y-112751553D01*
X174703424Y-112832906D01*
X174590335Y-112893354D01*
X174558403Y-112903040D01*
X174467617Y-112930580D01*
X174340000Y-112943149D01*
X174212382Y-112930580D01*
X174121596Y-112903040D01*
X174089664Y-112893354D01*
X173976575Y-112832906D01*
X173877447Y-112751554D01*
X173796094Y-112652424D01*
X173735646Y-112539335D01*
X173711536Y-112459853D01*
X173698420Y-112416617D01*
X173689000Y-112320972D01*
X173689000Y-111707027D01*
X173698420Y-111611382D01*
X173735645Y-111488668D01*
X173735645Y-111488667D01*
X173767957Y-111428217D01*
X173796095Y-111375574D01*
X173830856Y-111333218D01*
X173877447Y-111276446D01*
X173976576Y-111195094D01*
X174089665Y-111134646D01*
X174131601Y-111121925D01*
X174212383Y-111097420D01*
X174340000Y-111084851D01*
X174467618Y-111097420D01*
G37*
G36*
X172467618Y-111097420D02*
G01*
X172548400Y-111121925D01*
X172590336Y-111134646D01*
X172703425Y-111195094D01*
X172802554Y-111276446D01*
X172883906Y-111375575D01*
X172944354Y-111488664D01*
X172944355Y-111488668D01*
X172981580Y-111611382D01*
X172991000Y-111707027D01*
X172991000Y-112320973D01*
X172981580Y-112416618D01*
X172954040Y-112507404D01*
X172944354Y-112539336D01*
X172883906Y-112652425D01*
X172802554Y-112751553D01*
X172703424Y-112832906D01*
X172590335Y-112893354D01*
X172558403Y-112903040D01*
X172467617Y-112930580D01*
X172340000Y-112943149D01*
X172212382Y-112930580D01*
X172121596Y-112903040D01*
X172089664Y-112893354D01*
X171976575Y-112832906D01*
X171877447Y-112751554D01*
X171796094Y-112652424D01*
X171735646Y-112539335D01*
X171711536Y-112459853D01*
X171698420Y-112416617D01*
X171689000Y-112320972D01*
X171689000Y-111707027D01*
X171698420Y-111611382D01*
X171735645Y-111488668D01*
X171735645Y-111488667D01*
X171767957Y-111428217D01*
X171796095Y-111375574D01*
X171830856Y-111333218D01*
X171877447Y-111276446D01*
X171976576Y-111195094D01*
X172089665Y-111134646D01*
X172131601Y-111121925D01*
X172212383Y-111097420D01*
X172340000Y-111084851D01*
X172467618Y-111097420D01*
G37*
G36*
X180831242Y-111092404D02*
G01*
X180868337Y-111103657D01*
X180902515Y-111121925D01*
X180932481Y-111146519D01*
X180957075Y-111176485D01*
X180975343Y-111210663D01*
X180986596Y-111247758D01*
X180991000Y-111292474D01*
X180991000Y-112735526D01*
X180986596Y-112780242D01*
X180975343Y-112817337D01*
X180957075Y-112851515D01*
X180932481Y-112881481D01*
X180902515Y-112906075D01*
X180868337Y-112924343D01*
X180831242Y-112935596D01*
X180786526Y-112940000D01*
X179893474Y-112940000D01*
X179848758Y-112935596D01*
X179811663Y-112924343D01*
X179777485Y-112906075D01*
X179747519Y-112881481D01*
X179722925Y-112851515D01*
X179704657Y-112817337D01*
X179693404Y-112780242D01*
X179689000Y-112735526D01*
X179689000Y-111292474D01*
X179693404Y-111247758D01*
X179704657Y-111210663D01*
X179722925Y-111176485D01*
X179747519Y-111146519D01*
X179777485Y-111121925D01*
X179811663Y-111103657D01*
X179848758Y-111092404D01*
X179893474Y-111088000D01*
X180786526Y-111088000D01*
X180831242Y-111092404D01*
G37*
G36*
X147433512Y-110863927D02*
G01*
X147582812Y-110893624D01*
X147746784Y-110961544D01*
X147894354Y-111060147D01*
X148019853Y-111185646D01*
X148118456Y-111333216D01*
X148186376Y-111497188D01*
X148221000Y-111671259D01*
X148221000Y-111848741D01*
X148186376Y-112022812D01*
X148118456Y-112186784D01*
X148019853Y-112334354D01*
X147894354Y-112459853D01*
X147746784Y-112558456D01*
X147582812Y-112626376D01*
X147451846Y-112652426D01*
X147408742Y-112661000D01*
X147231258Y-112661000D01*
X147188154Y-112652426D01*
X147057188Y-112626376D01*
X146893216Y-112558456D01*
X146745646Y-112459853D01*
X146620147Y-112334354D01*
X146521544Y-112186784D01*
X146453624Y-112022812D01*
X146419000Y-111848741D01*
X146419000Y-111671259D01*
X146453624Y-111497188D01*
X146521544Y-111333216D01*
X146620147Y-111185646D01*
X146745646Y-111060147D01*
X146893216Y-110961544D01*
X147057188Y-110893624D01*
X147206488Y-110863927D01*
X147231258Y-110859000D01*
X147408742Y-110859000D01*
X147433512Y-110863927D01*
G37*
G36*
X149973512Y-110863927D02*
G01*
X150122812Y-110893624D01*
X150286784Y-110961544D01*
X150434354Y-111060147D01*
X150559853Y-111185646D01*
X150658456Y-111333216D01*
X150726376Y-111497188D01*
X150761000Y-111671259D01*
X150761000Y-111848741D01*
X150726376Y-112022812D01*
X150658456Y-112186784D01*
X150559853Y-112334354D01*
X150434354Y-112459853D01*
X150286784Y-112558456D01*
X150122812Y-112626376D01*
X149991846Y-112652426D01*
X149948742Y-112661000D01*
X149771258Y-112661000D01*
X149728154Y-112652426D01*
X149597188Y-112626376D01*
X149433216Y-112558456D01*
X149285646Y-112459853D01*
X149160147Y-112334354D01*
X149061544Y-112186784D01*
X148993624Y-112022812D01*
X148959000Y-111848741D01*
X148959000Y-111671259D01*
X148993624Y-111497188D01*
X149061544Y-111333216D01*
X149160147Y-111185646D01*
X149285646Y-111060147D01*
X149433216Y-110961544D01*
X149597188Y-110893624D01*
X149746488Y-110863927D01*
X149771258Y-110859000D01*
X149948742Y-110859000D01*
X149973512Y-110863927D01*
G37*
G36*
X153301000Y-112661000D02*
G01*
X151499000Y-112661000D01*
X151499000Y-110859000D01*
X153301000Y-110859000D01*
X153301000Y-112661000D01*
G37*
G36*
X221564999Y-111467998D02*
G01*
X218922999Y-111467998D01*
X218922999Y-108825998D01*
X221564999Y-108825998D01*
X221564999Y-111467998D01*
G37*
G36*
X161506627Y-108182037D02*
G01*
X161676466Y-108233557D01*
X161832991Y-108317222D01*
X161856359Y-108336400D01*
X161970186Y-108429814D01*
X162044319Y-108520147D01*
X162082778Y-108567009D01*
X162166443Y-108723534D01*
X162217963Y-108893374D01*
X162231000Y-109025743D01*
X162231000Y-109414258D01*
X162217963Y-109546627D01*
X162166443Y-109716466D01*
X162082778Y-109872991D01*
X162053448Y-109908729D01*
X161970186Y-110010186D01*
X161832989Y-110122779D01*
X161700120Y-110193799D01*
X161676465Y-110206443D01*
X161506626Y-110257963D01*
X161330000Y-110275359D01*
X161153373Y-110257963D01*
X160983534Y-110206443D01*
X160827009Y-110122778D01*
X160782652Y-110086375D01*
X160689814Y-110010186D01*
X160577221Y-109872989D01*
X160493558Y-109716467D01*
X160493557Y-109716465D01*
X160442037Y-109546626D01*
X160429000Y-109414257D01*
X160429000Y-109025742D01*
X160442037Y-108893373D01*
X160493557Y-108723534D01*
X160577222Y-108567009D01*
X160689815Y-108429815D01*
X160827010Y-108317222D01*
X160983535Y-108233557D01*
X161153374Y-108182037D01*
X161330000Y-108164641D01*
X161506627Y-108182037D01*
G37*
G36*
X164588600Y-108172989D02*
G01*
X164621652Y-108183015D01*
X164652103Y-108199292D01*
X164678799Y-108221201D01*
X164700708Y-108247897D01*
X164716985Y-108278348D01*
X164727011Y-108311400D01*
X164731000Y-108351903D01*
X164731000Y-110088097D01*
X164727011Y-110128600D01*
X164716985Y-110161652D01*
X164700708Y-110192103D01*
X164678799Y-110218799D01*
X164652103Y-110240708D01*
X164621652Y-110256985D01*
X164588600Y-110267011D01*
X164548097Y-110271000D01*
X163111903Y-110271000D01*
X163071400Y-110267011D01*
X163038348Y-110256985D01*
X163007897Y-110240708D01*
X162981201Y-110218799D01*
X162959292Y-110192103D01*
X162943015Y-110161652D01*
X162932989Y-110128600D01*
X162929000Y-110088097D01*
X162929000Y-108351903D01*
X162932989Y-108311400D01*
X162943015Y-108278348D01*
X162959292Y-108247897D01*
X162981201Y-108221201D01*
X163007897Y-108199292D01*
X163038348Y-108183015D01*
X163071400Y-108172989D01*
X163111903Y-108169000D01*
X164548097Y-108169000D01*
X164588600Y-108172989D01*
G37*
G36*
X189486627Y-108207037D02*
G01*
X189656466Y-108258557D01*
X189812991Y-108342222D01*
X189848729Y-108371552D01*
X189950186Y-108454814D01*
X190003803Y-108520148D01*
X190062778Y-108592009D01*
X190146443Y-108748534D01*
X190197963Y-108918374D01*
X190197963Y-108918376D01*
X190208538Y-109025740D01*
X190211000Y-109050743D01*
X190211000Y-109389258D01*
X190197963Y-109521627D01*
X190146443Y-109691466D01*
X190062778Y-109847991D01*
X190042262Y-109872990D01*
X189950186Y-109985186D01*
X189812989Y-110097779D01*
X189656467Y-110181442D01*
X189656465Y-110181443D01*
X189486626Y-110232963D01*
X189310000Y-110250359D01*
X189133373Y-110232963D01*
X188963534Y-110181443D01*
X188807009Y-110097778D01*
X188758173Y-110057699D01*
X188669814Y-109985186D01*
X188557221Y-109847989D01*
X188473558Y-109691467D01*
X188473557Y-109691465D01*
X188422037Y-109521626D01*
X188415519Y-109455442D01*
X188409000Y-109389259D01*
X188409000Y-109050740D01*
X188422037Y-108918375D01*
X188422037Y-108918373D01*
X188473557Y-108748534D01*
X188557222Y-108592009D01*
X188669815Y-108454815D01*
X188807010Y-108342222D01*
X188963535Y-108258557D01*
X189133374Y-108207037D01*
X189310000Y-108189641D01*
X189486627Y-108207037D01*
G37*
G36*
X191986627Y-108207037D02*
G01*
X192156466Y-108258557D01*
X192312991Y-108342222D01*
X192348729Y-108371552D01*
X192450186Y-108454814D01*
X192503803Y-108520148D01*
X192562778Y-108592009D01*
X192646443Y-108748534D01*
X192697963Y-108918374D01*
X192697963Y-108918376D01*
X192708538Y-109025740D01*
X192711000Y-109050743D01*
X192711000Y-109389258D01*
X192697963Y-109521627D01*
X192646443Y-109691466D01*
X192562778Y-109847991D01*
X192542262Y-109872990D01*
X192450186Y-109985186D01*
X192312989Y-110097779D01*
X192156467Y-110181442D01*
X192156465Y-110181443D01*
X191986626Y-110232963D01*
X191810000Y-110250359D01*
X191633373Y-110232963D01*
X191463534Y-110181443D01*
X191307009Y-110097778D01*
X191258173Y-110057699D01*
X191169814Y-109985186D01*
X191057221Y-109847989D01*
X190973558Y-109691467D01*
X190973557Y-109691465D01*
X190922037Y-109521626D01*
X190915519Y-109455442D01*
X190909000Y-109389259D01*
X190909000Y-109050740D01*
X190922037Y-108918375D01*
X190922037Y-108918373D01*
X190973557Y-108748534D01*
X191057222Y-108592009D01*
X191169815Y-108454815D01*
X191307010Y-108342222D01*
X191463535Y-108258557D01*
X191633374Y-108207037D01*
X191810000Y-108189641D01*
X191986627Y-108207037D01*
G37*
G36*
X195068600Y-108197989D02*
G01*
X195101652Y-108208015D01*
X195132103Y-108224292D01*
X195158799Y-108246201D01*
X195180708Y-108272897D01*
X195196985Y-108303348D01*
X195207011Y-108336400D01*
X195211000Y-108376903D01*
X195211000Y-110063097D01*
X195207011Y-110103600D01*
X195196985Y-110136652D01*
X195180708Y-110167103D01*
X195158799Y-110193799D01*
X195132103Y-110215708D01*
X195101652Y-110231985D01*
X195068600Y-110242011D01*
X195028097Y-110246000D01*
X193591903Y-110246000D01*
X193551400Y-110242011D01*
X193518348Y-110231985D01*
X193487897Y-110215708D01*
X193461201Y-110193799D01*
X193439292Y-110167103D01*
X193423015Y-110136652D01*
X193412989Y-110103600D01*
X193409000Y-110063097D01*
X193409000Y-108376903D01*
X193412989Y-108336400D01*
X193423015Y-108303348D01*
X193439292Y-108272897D01*
X193461201Y-108246201D01*
X193487897Y-108224292D01*
X193518348Y-108208015D01*
X193551400Y-108197989D01*
X193591903Y-108194000D01*
X195028097Y-108194000D01*
X195068600Y-108197989D01*
G37*
G36*
X152513512Y-108323927D02*
G01*
X152662812Y-108353624D01*
X152826784Y-108421544D01*
X152974354Y-108520147D01*
X153099853Y-108645646D01*
X153198456Y-108793216D01*
X153266376Y-108957188D01*
X153301000Y-109131259D01*
X153301000Y-109308741D01*
X153266376Y-109482812D01*
X153198456Y-109646784D01*
X153099853Y-109794354D01*
X152974354Y-109919853D01*
X152826784Y-110018456D01*
X152662812Y-110086376D01*
X152513512Y-110116073D01*
X152488742Y-110121000D01*
X152311258Y-110121000D01*
X152286488Y-110116073D01*
X152137188Y-110086376D01*
X151973216Y-110018456D01*
X151825646Y-109919853D01*
X151700147Y-109794354D01*
X151601544Y-109646784D01*
X151533624Y-109482812D01*
X151499000Y-109308741D01*
X151499000Y-109131259D01*
X151533624Y-108957188D01*
X151601544Y-108793216D01*
X151700147Y-108645646D01*
X151825646Y-108520147D01*
X151973216Y-108421544D01*
X152137188Y-108353624D01*
X152286488Y-108323927D01*
X152311258Y-108319000D01*
X152488742Y-108319000D01*
X152513512Y-108323927D01*
G37*
G36*
X149973512Y-108323927D02*
G01*
X150122812Y-108353624D01*
X150286784Y-108421544D01*
X150434354Y-108520147D01*
X150559853Y-108645646D01*
X150658456Y-108793216D01*
X150726376Y-108957188D01*
X150761000Y-109131259D01*
X150761000Y-109308741D01*
X150726376Y-109482812D01*
X150658456Y-109646784D01*
X150559853Y-109794354D01*
X150434354Y-109919853D01*
X150286784Y-110018456D01*
X150122812Y-110086376D01*
X149973512Y-110116073D01*
X149948742Y-110121000D01*
X149771258Y-110121000D01*
X149746488Y-110116073D01*
X149597188Y-110086376D01*
X149433216Y-110018456D01*
X149285646Y-109919853D01*
X149160147Y-109794354D01*
X149061544Y-109646784D01*
X148993624Y-109482812D01*
X148959000Y-109308741D01*
X148959000Y-109131259D01*
X148993624Y-108957188D01*
X149061544Y-108793216D01*
X149160147Y-108645646D01*
X149285646Y-108520147D01*
X149433216Y-108421544D01*
X149597188Y-108353624D01*
X149746488Y-108323927D01*
X149771258Y-108319000D01*
X149948742Y-108319000D01*
X149973512Y-108323927D01*
G37*
G36*
X147433512Y-108323927D02*
G01*
X147582812Y-108353624D01*
X147746784Y-108421544D01*
X147894354Y-108520147D01*
X148019853Y-108645646D01*
X148118456Y-108793216D01*
X148186376Y-108957188D01*
X148221000Y-109131259D01*
X148221000Y-109308741D01*
X148186376Y-109482812D01*
X148118456Y-109646784D01*
X148019853Y-109794354D01*
X147894354Y-109919853D01*
X147746784Y-110018456D01*
X147582812Y-110086376D01*
X147433512Y-110116073D01*
X147408742Y-110121000D01*
X147231258Y-110121000D01*
X147206488Y-110116073D01*
X147057188Y-110086376D01*
X146893216Y-110018456D01*
X146745646Y-109919853D01*
X146620147Y-109794354D01*
X146521544Y-109646784D01*
X146453624Y-109482812D01*
X146419000Y-109308741D01*
X146419000Y-109131259D01*
X146453624Y-108957188D01*
X146521544Y-108793216D01*
X146620147Y-108645646D01*
X146745646Y-108520147D01*
X146893216Y-108421544D01*
X147057188Y-108353624D01*
X147206488Y-108323927D01*
X147231258Y-108319000D01*
X147408742Y-108319000D01*
X147433512Y-108323927D01*
G37*
G36*
X227975507Y-106108760D02*
G01*
X228169362Y-106147320D01*
X228320638Y-106209981D01*
X228534575Y-106298596D01*
X228863260Y-106518216D01*
X229142784Y-106797740D01*
X229362404Y-107126425D01*
X229424872Y-107277236D01*
X229513680Y-107491638D01*
X229590800Y-107879347D01*
X229590800Y-108274653D01*
X229513680Y-108662362D01*
X229451019Y-108813638D01*
X229362404Y-109027575D01*
X229142784Y-109356260D01*
X228863260Y-109635784D01*
X228534575Y-109855404D01*
X228320638Y-109944019D01*
X228169362Y-110006680D01*
X228038555Y-110032699D01*
X227781654Y-110083800D01*
X227386346Y-110083800D01*
X227129445Y-110032699D01*
X226998638Y-110006680D01*
X226847362Y-109944019D01*
X226633425Y-109855404D01*
X226304740Y-109635784D01*
X226025216Y-109356260D01*
X225805596Y-109027575D01*
X225716981Y-108813638D01*
X225654320Y-108662362D01*
X225577200Y-108274653D01*
X225577200Y-107879347D01*
X225654320Y-107491638D01*
X225743128Y-107277236D01*
X225805596Y-107126425D01*
X226025216Y-106797740D01*
X226304740Y-106518216D01*
X226633425Y-106298596D01*
X226847362Y-106209981D01*
X226998638Y-106147320D01*
X227192493Y-106108760D01*
X227386346Y-106070200D01*
X227781654Y-106070200D01*
X227975507Y-106108760D01*
G37*
G36*
X220501714Y-104711384D02*
G01*
X220629321Y-104736766D01*
X220770147Y-104795098D01*
X220869726Y-104836345D01*
X220869727Y-104836346D01*
X221086088Y-104980913D01*
X221270087Y-105164912D01*
X221366684Y-105309480D01*
X221414655Y-105381274D01*
X221455902Y-105480853D01*
X221514234Y-105621679D01*
X221564999Y-105876894D01*
X221564999Y-106137108D01*
X221514234Y-106392323D01*
X221462087Y-106518216D01*
X221414655Y-106632728D01*
X221414654Y-106632729D01*
X221270087Y-106849090D01*
X221086088Y-107033089D01*
X220946400Y-107126425D01*
X220869726Y-107177657D01*
X220770147Y-107218904D01*
X220629321Y-107277236D01*
X220501714Y-107302618D01*
X220374108Y-107328001D01*
X220113890Y-107328001D01*
X219986284Y-107302618D01*
X219858677Y-107277236D01*
X219717851Y-107218904D01*
X219618272Y-107177657D01*
X219541598Y-107126425D01*
X219401910Y-107033089D01*
X219217911Y-106849090D01*
X219073344Y-106632729D01*
X219073343Y-106632728D01*
X219025911Y-106518216D01*
X218973764Y-106392323D01*
X218922999Y-106137108D01*
X218922999Y-105876894D01*
X218973764Y-105621679D01*
X219032096Y-105480853D01*
X219073343Y-105381274D01*
X219121314Y-105309480D01*
X219217911Y-105164912D01*
X219401910Y-104980913D01*
X219618271Y-104836346D01*
X219618272Y-104836345D01*
X219717851Y-104795098D01*
X219858677Y-104736766D01*
X219986284Y-104711384D01*
X220113890Y-104686001D01*
X220374108Y-104686001D01*
X220501714Y-104711384D01*
G37*
G36*
X156984091Y-101586085D02*
G01*
X157018069Y-101596393D01*
X157049390Y-101613134D01*
X157076839Y-101635661D01*
X157099366Y-101663110D01*
X157116107Y-101694431D01*
X157126415Y-101728409D01*
X157130500Y-101769890D01*
X157130500Y-102446110D01*
X157126415Y-102487591D01*
X157116107Y-102521569D01*
X157099366Y-102552890D01*
X157076839Y-102580339D01*
X157049390Y-102602866D01*
X157018069Y-102619607D01*
X156984091Y-102629915D01*
X156942610Y-102634000D01*
X156341390Y-102634000D01*
X156299909Y-102629915D01*
X156265931Y-102619607D01*
X156234610Y-102602866D01*
X156207161Y-102580339D01*
X156184634Y-102552890D01*
X156167893Y-102521569D01*
X156157585Y-102487591D01*
X156153500Y-102446110D01*
X156153500Y-101769890D01*
X156157585Y-101728409D01*
X156167893Y-101694431D01*
X156184634Y-101663110D01*
X156207161Y-101635661D01*
X156234610Y-101613134D01*
X156265931Y-101596393D01*
X156299909Y-101586085D01*
X156341390Y-101582000D01*
X156942610Y-101582000D01*
X156984091Y-101586085D01*
G37*
G36*
X155409091Y-101586085D02*
G01*
X155443069Y-101596393D01*
X155474390Y-101613134D01*
X155501839Y-101635661D01*
X155524366Y-101663110D01*
X155541107Y-101694431D01*
X155551415Y-101728409D01*
X155555500Y-101769890D01*
X155555500Y-102446110D01*
X155551415Y-102487591D01*
X155541107Y-102521569D01*
X155524366Y-102552890D01*
X155501839Y-102580339D01*
X155474390Y-102602866D01*
X155443069Y-102619607D01*
X155409091Y-102629915D01*
X155367610Y-102634000D01*
X154766390Y-102634000D01*
X154724909Y-102629915D01*
X154690931Y-102619607D01*
X154659610Y-102602866D01*
X154632161Y-102580339D01*
X154609634Y-102552890D01*
X154592893Y-102521569D01*
X154582585Y-102487591D01*
X154578500Y-102446110D01*
X154578500Y-101769890D01*
X154582585Y-101728409D01*
X154592893Y-101694431D01*
X154609634Y-101663110D01*
X154632161Y-101635661D01*
X154659610Y-101613134D01*
X154690931Y-101596393D01*
X154724909Y-101586085D01*
X154766390Y-101582000D01*
X155367610Y-101582000D01*
X155409091Y-101586085D01*
G37*
G36*
X155446591Y-100125085D02*
G01*
X155480569Y-100135393D01*
X155511890Y-100152134D01*
X155539339Y-100174661D01*
X155561866Y-100202110D01*
X155578607Y-100233431D01*
X155588915Y-100267409D01*
X155593000Y-100308890D01*
X155593000Y-100910110D01*
X155588915Y-100951591D01*
X155578607Y-100985569D01*
X155561866Y-101016890D01*
X155539339Y-101044339D01*
X155511890Y-101066866D01*
X155480569Y-101083607D01*
X155446591Y-101093915D01*
X155405110Y-101098000D01*
X154728890Y-101098000D01*
X154687409Y-101093915D01*
X154653431Y-101083607D01*
X154622110Y-101066866D01*
X154594661Y-101044339D01*
X154572134Y-101016890D01*
X154555393Y-100985569D01*
X154545085Y-100951591D01*
X154541000Y-100910110D01*
X154541000Y-100308890D01*
X154545085Y-100267409D01*
X154555393Y-100233431D01*
X154572134Y-100202110D01*
X154594661Y-100174661D01*
X154622110Y-100152134D01*
X154653431Y-100135393D01*
X154687409Y-100125085D01*
X154728890Y-100121000D01*
X155405110Y-100121000D01*
X155446591Y-100125085D01*
G37*
G36*
X148263000Y-100569000D02*
G01*
X147761000Y-100569000D01*
X147761000Y-98567000D01*
X148263000Y-98567000D01*
X148263000Y-100569000D01*
G37*
G36*
X145863000Y-100569000D02*
G01*
X145361000Y-100569000D01*
X145361000Y-98567000D01*
X145863000Y-98567000D01*
X145863000Y-100569000D01*
G37*
G36*
X147063000Y-100569000D02*
G01*
X146561000Y-100569000D01*
X146561000Y-98567000D01*
X147063000Y-98567000D01*
X147063000Y-100569000D01*
G37*
G36*
X155446591Y-98550085D02*
G01*
X155480569Y-98560393D01*
X155511890Y-98577134D01*
X155539339Y-98599661D01*
X155561866Y-98627110D01*
X155578607Y-98658431D01*
X155588915Y-98692409D01*
X155593000Y-98733890D01*
X155593000Y-99335110D01*
X155588915Y-99376591D01*
X155578607Y-99410569D01*
X155561866Y-99441890D01*
X155539339Y-99469339D01*
X155511890Y-99491866D01*
X155480569Y-99508607D01*
X155446591Y-99518915D01*
X155405110Y-99523000D01*
X154728890Y-99523000D01*
X154687409Y-99518915D01*
X154653431Y-99508607D01*
X154622110Y-99491866D01*
X154594661Y-99469339D01*
X154572134Y-99441890D01*
X154555393Y-99410569D01*
X154545085Y-99376591D01*
X154541000Y-99335110D01*
X154541000Y-98733890D01*
X154545085Y-98692409D01*
X154555393Y-98658431D01*
X154572134Y-98627110D01*
X154594661Y-98599661D01*
X154622110Y-98577134D01*
X154653431Y-98560393D01*
X154687409Y-98550085D01*
X154728890Y-98546000D01*
X155405110Y-98546000D01*
X155446591Y-98550085D01*
G37*
G36*
X223755442Y-95505518D02*
G01*
X223821627Y-95512037D01*
X223991466Y-95563557D01*
X224147991Y-95647222D01*
X224183729Y-95676552D01*
X224285186Y-95759814D01*
X224368448Y-95861271D01*
X224397778Y-95897009D01*
X224481443Y-96053534D01*
X224532963Y-96223373D01*
X224550359Y-96400000D01*
X224532963Y-96576627D01*
X224481443Y-96746466D01*
X224397778Y-96902991D01*
X224368448Y-96938729D01*
X224285186Y-97040186D01*
X224183729Y-97123448D01*
X224147991Y-97152778D01*
X223991466Y-97236443D01*
X223821627Y-97287963D01*
X223755442Y-97294482D01*
X223689260Y-97301000D01*
X223350740Y-97301000D01*
X223284558Y-97294482D01*
X223218373Y-97287963D01*
X223048534Y-97236443D01*
X222892009Y-97152778D01*
X222856271Y-97123448D01*
X222754814Y-97040186D01*
X222671552Y-96938729D01*
X222642222Y-96902991D01*
X222558557Y-96746466D01*
X222507037Y-96576627D01*
X222489641Y-96400000D01*
X222507037Y-96223373D01*
X222558557Y-96053534D01*
X222642222Y-95897009D01*
X222671552Y-95861271D01*
X222754814Y-95759814D01*
X222856271Y-95676552D01*
X222892009Y-95647222D01*
X223048534Y-95563557D01*
X223218373Y-95512037D01*
X223284558Y-95505518D01*
X223350740Y-95499000D01*
X223689260Y-95499000D01*
X223755442Y-95505518D01*
G37*
G36*
X163066564Y-95189389D02*
G01*
X163257833Y-95268615D01*
X163257835Y-95268616D01*
X163429973Y-95383635D01*
X163576365Y-95530027D01*
X163654672Y-95647221D01*
X163691385Y-95702167D01*
X163770611Y-95893436D01*
X163811000Y-96096484D01*
X163811000Y-96303516D01*
X163770611Y-96506564D01*
X163741590Y-96576627D01*
X163691384Y-96697835D01*
X163576365Y-96869973D01*
X163429973Y-97016365D01*
X163257835Y-97131384D01*
X163257834Y-97131385D01*
X163257833Y-97131385D01*
X163066564Y-97210611D01*
X162863516Y-97251000D01*
X162656484Y-97251000D01*
X162453436Y-97210611D01*
X162262167Y-97131385D01*
X162262166Y-97131385D01*
X162262165Y-97131384D01*
X162090027Y-97016365D01*
X161943635Y-96869973D01*
X161828616Y-96697835D01*
X161778410Y-96576627D01*
X161749389Y-96506564D01*
X161709000Y-96303516D01*
X161709000Y-96096484D01*
X161749389Y-95893436D01*
X161828615Y-95702167D01*
X161865329Y-95647221D01*
X161943635Y-95530027D01*
X162090027Y-95383635D01*
X162262165Y-95268616D01*
X162262167Y-95268615D01*
X162453436Y-95189389D01*
X162656484Y-95149000D01*
X162863516Y-95149000D01*
X163066564Y-95189389D01*
G37*
G36*
X213466564Y-95189389D02*
G01*
X213657833Y-95268615D01*
X213657835Y-95268616D01*
X213829973Y-95383635D01*
X213976365Y-95530027D01*
X214054672Y-95647221D01*
X214091385Y-95702167D01*
X214170611Y-95893436D01*
X214211000Y-96096484D01*
X214211000Y-96303516D01*
X214170611Y-96506564D01*
X214141590Y-96576627D01*
X214091384Y-96697835D01*
X213976365Y-96869973D01*
X213829973Y-97016365D01*
X213657835Y-97131384D01*
X213657834Y-97131385D01*
X213657833Y-97131385D01*
X213466564Y-97210611D01*
X213263516Y-97251000D01*
X213056484Y-97251000D01*
X212853436Y-97210611D01*
X212662167Y-97131385D01*
X212662166Y-97131385D01*
X212662165Y-97131384D01*
X212490027Y-97016365D01*
X212343635Y-96869973D01*
X212228616Y-96697835D01*
X212178410Y-96576627D01*
X212149389Y-96506564D01*
X212109000Y-96303516D01*
X212109000Y-96096484D01*
X212149389Y-95893436D01*
X212228615Y-95702167D01*
X212265329Y-95647221D01*
X212343635Y-95530027D01*
X212490027Y-95383635D01*
X212662165Y-95268616D01*
X212662167Y-95268615D01*
X212853436Y-95189389D01*
X213056484Y-95149000D01*
X213263516Y-95149000D01*
X213466564Y-95189389D01*
G37*
G36*
X223755443Y-93005519D02*
G01*
X223821627Y-93012037D01*
X223991466Y-93063557D01*
X224147991Y-93147222D01*
X224183729Y-93176552D01*
X224285186Y-93259814D01*
X224368448Y-93361271D01*
X224397778Y-93397009D01*
X224481443Y-93553534D01*
X224532963Y-93723373D01*
X224550359Y-93900000D01*
X224532963Y-94076627D01*
X224481443Y-94246466D01*
X224397778Y-94402991D01*
X224368448Y-94438729D01*
X224285186Y-94540186D01*
X224183729Y-94623448D01*
X224147991Y-94652778D01*
X223991466Y-94736443D01*
X223821627Y-94787963D01*
X223755442Y-94794482D01*
X223689260Y-94801000D01*
X223350740Y-94801000D01*
X223284557Y-94794481D01*
X223218373Y-94787963D01*
X223048534Y-94736443D01*
X222892009Y-94652778D01*
X222856271Y-94623448D01*
X222754814Y-94540186D01*
X222671552Y-94438729D01*
X222642222Y-94402991D01*
X222558557Y-94246466D01*
X222507037Y-94076627D01*
X222489641Y-93900000D01*
X222507037Y-93723373D01*
X222558557Y-93553534D01*
X222642222Y-93397009D01*
X222671552Y-93361271D01*
X222754814Y-93259814D01*
X222856271Y-93176552D01*
X222892009Y-93147222D01*
X223048534Y-93063557D01*
X223218373Y-93012037D01*
X223284558Y-93005518D01*
X223350740Y-92999000D01*
X223689260Y-92999000D01*
X223755443Y-93005519D01*
G37*
G36*
X186357717Y-91588898D02*
G01*
X186605858Y-91691681D01*
X186829180Y-91840900D01*
X187019100Y-92030820D01*
X187168319Y-92254142D01*
X187271102Y-92502283D01*
X187323500Y-92765706D01*
X187323500Y-93034294D01*
X187271102Y-93297717D01*
X187168319Y-93545858D01*
X187019100Y-93769180D01*
X186829180Y-93959100D01*
X186605858Y-94108319D01*
X186357717Y-94211102D01*
X186094294Y-94263500D01*
X185825706Y-94263500D01*
X185562283Y-94211102D01*
X185314142Y-94108319D01*
X185090820Y-93959100D01*
X184900900Y-93769180D01*
X184751681Y-93545858D01*
X184648898Y-93297717D01*
X184596500Y-93034294D01*
X184596500Y-92765706D01*
X184648898Y-92502283D01*
X184751681Y-92254142D01*
X184900900Y-92030820D01*
X185090820Y-91840900D01*
X185314142Y-91691681D01*
X185562283Y-91588898D01*
X185825706Y-91536500D01*
X186094294Y-91536500D01*
X186357717Y-91588898D01*
G37*
G36*
X174357717Y-91588898D02*
G01*
X174605858Y-91691681D01*
X174829180Y-91840900D01*
X175019100Y-92030820D01*
X175168319Y-92254142D01*
X175271102Y-92502283D01*
X175323500Y-92765706D01*
X175323500Y-93034294D01*
X175271102Y-93297717D01*
X175168319Y-93545858D01*
X175019100Y-93769180D01*
X174829180Y-93959100D01*
X174605858Y-94108319D01*
X174357717Y-94211102D01*
X174094294Y-94263500D01*
X173825706Y-94263500D01*
X173562283Y-94211102D01*
X173314142Y-94108319D01*
X173090820Y-93959100D01*
X172900900Y-93769180D01*
X172751681Y-93545858D01*
X172648898Y-93297717D01*
X172596500Y-93034294D01*
X172596500Y-92765706D01*
X172648898Y-92502283D01*
X172751681Y-92254142D01*
X172900900Y-92030820D01*
X173090820Y-91840900D01*
X173314142Y-91691681D01*
X173562283Y-91588898D01*
X173825706Y-91536500D01*
X174094294Y-91536500D01*
X174357717Y-91588898D01*
G37*
G36*
X178357717Y-91588898D02*
G01*
X178605858Y-91691681D01*
X178829180Y-91840900D01*
X179019100Y-92030820D01*
X179168319Y-92254142D01*
X179271102Y-92502283D01*
X179323500Y-92765706D01*
X179323500Y-93034294D01*
X179271102Y-93297717D01*
X179168319Y-93545858D01*
X179019100Y-93769180D01*
X178829180Y-93959100D01*
X178605858Y-94108319D01*
X178357717Y-94211102D01*
X178094294Y-94263500D01*
X177825706Y-94263500D01*
X177562283Y-94211102D01*
X177314142Y-94108319D01*
X177090820Y-93959100D01*
X176900900Y-93769180D01*
X176751681Y-93545858D01*
X176648898Y-93297717D01*
X176596500Y-93034294D01*
X176596500Y-92765706D01*
X176648898Y-92502283D01*
X176751681Y-92254142D01*
X176900900Y-92030820D01*
X177090820Y-91840900D01*
X177314142Y-91691681D01*
X177562283Y-91588898D01*
X177825706Y-91536500D01*
X178094294Y-91536500D01*
X178357717Y-91588898D01*
G37*
G36*
X182357717Y-91588898D02*
G01*
X182605858Y-91691681D01*
X182829180Y-91840900D01*
X183019100Y-92030820D01*
X183168319Y-92254142D01*
X183271102Y-92502283D01*
X183323500Y-92765706D01*
X183323500Y-93034294D01*
X183271102Y-93297717D01*
X183168319Y-93545858D01*
X183019100Y-93769180D01*
X182829180Y-93959100D01*
X182605858Y-94108319D01*
X182357717Y-94211102D01*
X182094294Y-94263500D01*
X181825706Y-94263500D01*
X181562283Y-94211102D01*
X181314142Y-94108319D01*
X181090820Y-93959100D01*
X180900900Y-93769180D01*
X180751681Y-93545858D01*
X180648898Y-93297717D01*
X180596500Y-93034294D01*
X180596500Y-92765706D01*
X180648898Y-92502283D01*
X180751681Y-92254142D01*
X180900900Y-92030820D01*
X181090820Y-91840900D01*
X181314142Y-91691681D01*
X181562283Y-91588898D01*
X181825706Y-91536500D01*
X182094294Y-91536500D01*
X182357717Y-91588898D01*
G37*
G36*
X190357717Y-91588898D02*
G01*
X190605858Y-91691681D01*
X190829180Y-91840900D01*
X191019100Y-92030820D01*
X191168319Y-92254142D01*
X191271102Y-92502283D01*
X191323500Y-92765706D01*
X191323500Y-93034294D01*
X191271102Y-93297717D01*
X191168319Y-93545858D01*
X191019100Y-93769180D01*
X190829180Y-93959100D01*
X190605858Y-94108319D01*
X190357717Y-94211102D01*
X190094294Y-94263500D01*
X189825706Y-94263500D01*
X189562283Y-94211102D01*
X189314142Y-94108319D01*
X189090820Y-93959100D01*
X188900900Y-93769180D01*
X188751681Y-93545858D01*
X188648898Y-93297717D01*
X188596500Y-93034294D01*
X188596500Y-92765706D01*
X188648898Y-92502283D01*
X188751681Y-92254142D01*
X188900900Y-92030820D01*
X189090820Y-91840900D01*
X189314142Y-91691681D01*
X189562283Y-91588898D01*
X189825706Y-91536500D01*
X190094294Y-91536500D01*
X190357717Y-91588898D01*
G37*
G36*
X194357717Y-91588898D02*
G01*
X194605858Y-91691681D01*
X194829180Y-91840900D01*
X195019100Y-92030820D01*
X195168319Y-92254142D01*
X195271102Y-92502283D01*
X195323500Y-92765706D01*
X195323500Y-93034294D01*
X195271102Y-93297717D01*
X195168319Y-93545858D01*
X195019100Y-93769180D01*
X194829180Y-93959100D01*
X194605858Y-94108319D01*
X194357717Y-94211102D01*
X194094294Y-94263500D01*
X193825706Y-94263500D01*
X193562283Y-94211102D01*
X193314142Y-94108319D01*
X193090820Y-93959100D01*
X192900900Y-93769180D01*
X192751681Y-93545858D01*
X192648898Y-93297717D01*
X192596500Y-93034294D01*
X192596500Y-92765706D01*
X192648898Y-92502283D01*
X192751681Y-92254142D01*
X192900900Y-92030820D01*
X193090820Y-91840900D01*
X193314142Y-91691681D01*
X193562283Y-91588898D01*
X193825706Y-91536500D01*
X194094294Y-91536500D01*
X194357717Y-91588898D01*
G37*
G36*
X202357717Y-91588898D02*
G01*
X202605858Y-91691681D01*
X202829180Y-91840900D01*
X203019100Y-92030820D01*
X203168319Y-92254142D01*
X203271102Y-92502283D01*
X203323500Y-92765706D01*
X203323500Y-93034294D01*
X203271102Y-93297717D01*
X203168319Y-93545858D01*
X203019100Y-93769180D01*
X202829180Y-93959100D01*
X202605858Y-94108319D01*
X202357717Y-94211102D01*
X202094294Y-94263500D01*
X201825706Y-94263500D01*
X201562283Y-94211102D01*
X201314142Y-94108319D01*
X201090820Y-93959100D01*
X200900900Y-93769180D01*
X200751681Y-93545858D01*
X200648898Y-93297717D01*
X200596500Y-93034294D01*
X200596500Y-92765706D01*
X200648898Y-92502283D01*
X200751681Y-92254142D01*
X200900900Y-92030820D01*
X201090820Y-91840900D01*
X201314142Y-91691681D01*
X201562283Y-91588898D01*
X201825706Y-91536500D01*
X202094294Y-91536500D01*
X202357717Y-91588898D01*
G37*
G36*
X198357717Y-91588898D02*
G01*
X198605858Y-91691681D01*
X198829180Y-91840900D01*
X199019100Y-92030820D01*
X199168319Y-92254142D01*
X199271102Y-92502283D01*
X199323500Y-92765706D01*
X199323500Y-93034294D01*
X199271102Y-93297717D01*
X199168319Y-93545858D01*
X199019100Y-93769180D01*
X198829180Y-93959100D01*
X198605858Y-94108319D01*
X198357717Y-94211102D01*
X198094294Y-94263500D01*
X197825706Y-94263500D01*
X197562283Y-94211102D01*
X197314142Y-94108319D01*
X197090820Y-93959100D01*
X196900900Y-93769180D01*
X196751681Y-93545858D01*
X196648898Y-93297717D01*
X196596500Y-93034294D01*
X196596500Y-92765706D01*
X196648898Y-92502283D01*
X196751681Y-92254142D01*
X196900900Y-92030820D01*
X197090820Y-91840900D01*
X197314142Y-91691681D01*
X197562283Y-91588898D01*
X197825706Y-91536500D01*
X198094294Y-91536500D01*
X198357717Y-91588898D01*
G37*
G36*
X223755442Y-90505518D02*
G01*
X223821627Y-90512037D01*
X223991466Y-90563557D01*
X224147991Y-90647222D01*
X224183729Y-90676552D01*
X224285186Y-90759814D01*
X224368448Y-90861271D01*
X224397778Y-90897009D01*
X224481443Y-91053534D01*
X224532963Y-91223373D01*
X224550359Y-91400000D01*
X224532963Y-91576627D01*
X224481443Y-91746466D01*
X224397778Y-91902991D01*
X224368448Y-91938729D01*
X224285186Y-92040186D01*
X224183729Y-92123448D01*
X224147991Y-92152778D01*
X223991466Y-92236443D01*
X223821627Y-92287963D01*
X223755442Y-92294482D01*
X223689260Y-92301000D01*
X223350740Y-92301000D01*
X223284558Y-92294482D01*
X223218373Y-92287963D01*
X223048534Y-92236443D01*
X222892009Y-92152778D01*
X222856271Y-92123448D01*
X222754814Y-92040186D01*
X222671552Y-91938729D01*
X222642222Y-91902991D01*
X222558557Y-91746466D01*
X222507037Y-91576627D01*
X222489641Y-91400000D01*
X222507037Y-91223373D01*
X222558557Y-91053534D01*
X222642222Y-90897009D01*
X222671552Y-90861271D01*
X222754814Y-90759814D01*
X222856271Y-90676552D01*
X222892009Y-90647222D01*
X223048534Y-90563557D01*
X223218373Y-90512037D01*
X223284558Y-90505518D01*
X223350740Y-90499000D01*
X223689260Y-90499000D01*
X223755442Y-90505518D01*
G37*
G36*
X188357717Y-87588898D02*
G01*
X188605858Y-87691681D01*
X188829180Y-87840900D01*
X189019100Y-88030820D01*
X189168319Y-88254142D01*
X189271102Y-88502283D01*
X189323500Y-88765706D01*
X189323500Y-89034294D01*
X189271102Y-89297717D01*
X189168319Y-89545858D01*
X189019100Y-89769180D01*
X188829180Y-89959100D01*
X188605858Y-90108319D01*
X188357717Y-90211102D01*
X188094294Y-90263500D01*
X187825706Y-90263500D01*
X187562283Y-90211102D01*
X187314142Y-90108319D01*
X187090820Y-89959100D01*
X186900900Y-89769180D01*
X186751681Y-89545858D01*
X186648898Y-89297717D01*
X186596500Y-89034294D01*
X186596500Y-88765706D01*
X186648898Y-88502283D01*
X186751681Y-88254142D01*
X186900900Y-88030820D01*
X187090820Y-87840900D01*
X187314142Y-87691681D01*
X187562283Y-87588898D01*
X187825706Y-87536500D01*
X188094294Y-87536500D01*
X188357717Y-87588898D01*
G37*
G36*
X196357717Y-87588898D02*
G01*
X196605858Y-87691681D01*
X196829180Y-87840900D01*
X197019100Y-88030820D01*
X197168319Y-88254142D01*
X197271102Y-88502283D01*
X197323500Y-88765706D01*
X197323500Y-89034294D01*
X197271102Y-89297717D01*
X197168319Y-89545858D01*
X197019100Y-89769180D01*
X196829180Y-89959100D01*
X196605858Y-90108319D01*
X196357717Y-90211102D01*
X196094294Y-90263500D01*
X195825706Y-90263500D01*
X195562283Y-90211102D01*
X195314142Y-90108319D01*
X195090820Y-89959100D01*
X194900900Y-89769180D01*
X194751681Y-89545858D01*
X194648898Y-89297717D01*
X194596500Y-89034294D01*
X194596500Y-88765706D01*
X194648898Y-88502283D01*
X194751681Y-88254142D01*
X194900900Y-88030820D01*
X195090820Y-87840900D01*
X195314142Y-87691681D01*
X195562283Y-87588898D01*
X195825706Y-87536500D01*
X196094294Y-87536500D01*
X196357717Y-87588898D01*
G37*
G36*
X200357717Y-87588898D02*
G01*
X200605858Y-87691681D01*
X200829180Y-87840900D01*
X201019100Y-88030820D01*
X201168319Y-88254142D01*
X201271102Y-88502283D01*
X201323500Y-88765706D01*
X201323500Y-89034294D01*
X201271102Y-89297717D01*
X201168319Y-89545858D01*
X201019100Y-89769180D01*
X200829180Y-89959100D01*
X200605858Y-90108319D01*
X200357717Y-90211102D01*
X200094294Y-90263500D01*
X199825706Y-90263500D01*
X199562283Y-90211102D01*
X199314142Y-90108319D01*
X199090820Y-89959100D01*
X198900900Y-89769180D01*
X198751681Y-89545858D01*
X198648898Y-89297717D01*
X198596500Y-89034294D01*
X198596500Y-88765706D01*
X198648898Y-88502283D01*
X198751681Y-88254142D01*
X198900900Y-88030820D01*
X199090820Y-87840900D01*
X199314142Y-87691681D01*
X199562283Y-87588898D01*
X199825706Y-87536500D01*
X200094294Y-87536500D01*
X200357717Y-87588898D01*
G37*
G36*
X192357717Y-87588898D02*
G01*
X192605858Y-87691681D01*
X192829180Y-87840900D01*
X193019100Y-88030820D01*
X193168319Y-88254142D01*
X193271102Y-88502283D01*
X193323500Y-88765706D01*
X193323500Y-89034294D01*
X193271102Y-89297717D01*
X193168319Y-89545858D01*
X193019100Y-89769180D01*
X192829180Y-89959100D01*
X192605858Y-90108319D01*
X192357717Y-90211102D01*
X192094294Y-90263500D01*
X191825706Y-90263500D01*
X191562283Y-90211102D01*
X191314142Y-90108319D01*
X191090820Y-89959100D01*
X190900900Y-89769180D01*
X190751681Y-89545858D01*
X190648898Y-89297717D01*
X190596500Y-89034294D01*
X190596500Y-88765706D01*
X190648898Y-88502283D01*
X190751681Y-88254142D01*
X190900900Y-88030820D01*
X191090820Y-87840900D01*
X191314142Y-87691681D01*
X191562283Y-87588898D01*
X191825706Y-87536500D01*
X192094294Y-87536500D01*
X192357717Y-87588898D01*
G37*
G36*
X176357717Y-87588898D02*
G01*
X176605858Y-87691681D01*
X176829180Y-87840900D01*
X177019100Y-88030820D01*
X177168319Y-88254142D01*
X177271102Y-88502283D01*
X177323500Y-88765706D01*
X177323500Y-89034294D01*
X177271102Y-89297717D01*
X177168319Y-89545858D01*
X177019100Y-89769180D01*
X176829180Y-89959100D01*
X176605858Y-90108319D01*
X176357717Y-90211102D01*
X176094294Y-90263500D01*
X175825706Y-90263500D01*
X175562283Y-90211102D01*
X175314142Y-90108319D01*
X175090820Y-89959100D01*
X174900900Y-89769180D01*
X174751681Y-89545858D01*
X174648898Y-89297717D01*
X174596500Y-89034294D01*
X174596500Y-88765706D01*
X174648898Y-88502283D01*
X174751681Y-88254142D01*
X174900900Y-88030820D01*
X175090820Y-87840900D01*
X175314142Y-87691681D01*
X175562283Y-87588898D01*
X175825706Y-87536500D01*
X176094294Y-87536500D01*
X176357717Y-87588898D01*
G37*
G36*
X180357717Y-87588898D02*
G01*
X180605858Y-87691681D01*
X180829180Y-87840900D01*
X181019100Y-88030820D01*
X181168319Y-88254142D01*
X181271102Y-88502283D01*
X181323500Y-88765706D01*
X181323500Y-89034294D01*
X181271102Y-89297717D01*
X181168319Y-89545858D01*
X181019100Y-89769180D01*
X180829180Y-89959100D01*
X180605858Y-90108319D01*
X180357717Y-90211102D01*
X180094294Y-90263500D01*
X179825706Y-90263500D01*
X179562283Y-90211102D01*
X179314142Y-90108319D01*
X179090820Y-89959100D01*
X178900900Y-89769180D01*
X178751681Y-89545858D01*
X178648898Y-89297717D01*
X178596500Y-89034294D01*
X178596500Y-88765706D01*
X178648898Y-88502283D01*
X178751681Y-88254142D01*
X178900900Y-88030820D01*
X179090820Y-87840900D01*
X179314142Y-87691681D01*
X179562283Y-87588898D01*
X179825706Y-87536500D01*
X180094294Y-87536500D01*
X180357717Y-87588898D01*
G37*
G36*
X184357717Y-87588898D02*
G01*
X184605858Y-87691681D01*
X184829180Y-87840900D01*
X185019100Y-88030820D01*
X185168319Y-88254142D01*
X185271102Y-88502283D01*
X185323500Y-88765706D01*
X185323500Y-89034294D01*
X185271102Y-89297717D01*
X185168319Y-89545858D01*
X185019100Y-89769180D01*
X184829180Y-89959100D01*
X184605858Y-90108319D01*
X184357717Y-90211102D01*
X184094294Y-90263500D01*
X183825706Y-90263500D01*
X183562283Y-90211102D01*
X183314142Y-90108319D01*
X183090820Y-89959100D01*
X182900900Y-89769180D01*
X182751681Y-89545858D01*
X182648898Y-89297717D01*
X182596500Y-89034294D01*
X182596500Y-88765706D01*
X182648898Y-88502283D01*
X182751681Y-88254142D01*
X182900900Y-88030820D01*
X183090820Y-87840900D01*
X183314142Y-87691681D01*
X183562283Y-87588898D01*
X183825706Y-87536500D01*
X184094294Y-87536500D01*
X184357717Y-87588898D01*
G37*
G36*
X224403600Y-88002989D02*
G01*
X224436652Y-88013015D01*
X224467103Y-88029292D01*
X224493799Y-88051201D01*
X224515708Y-88077897D01*
X224531985Y-88108348D01*
X224542011Y-88141400D01*
X224546000Y-88181903D01*
X224546000Y-89618097D01*
X224542011Y-89658600D01*
X224531985Y-89691652D01*
X224515708Y-89722103D01*
X224493799Y-89748799D01*
X224467103Y-89770708D01*
X224436652Y-89786985D01*
X224403600Y-89797011D01*
X224363097Y-89801000D01*
X222676903Y-89801000D01*
X222636400Y-89797011D01*
X222603348Y-89786985D01*
X222572897Y-89770708D01*
X222546201Y-89748799D01*
X222524292Y-89722103D01*
X222508015Y-89691652D01*
X222497989Y-89658600D01*
X222494000Y-89618097D01*
X222494000Y-88181903D01*
X222497989Y-88141400D01*
X222508015Y-88108348D01*
X222524292Y-88077897D01*
X222546201Y-88051201D01*
X222572897Y-88029292D01*
X222603348Y-88013015D01*
X222636400Y-88002989D01*
X222676903Y-87999000D01*
X224363097Y-87999000D01*
X224403600Y-88002989D01*
G37*
G36*
X149604591Y-85393085D02*
G01*
X149638569Y-85403393D01*
X149669890Y-85420134D01*
X149697339Y-85442661D01*
X149719866Y-85470110D01*
X149736607Y-85501431D01*
X149746915Y-85535409D01*
X149751000Y-85576890D01*
X149751000Y-86178110D01*
X149746915Y-86219591D01*
X149736607Y-86253569D01*
X149719866Y-86284890D01*
X149697339Y-86312339D01*
X149669890Y-86334866D01*
X149638569Y-86351607D01*
X149604591Y-86361915D01*
X149563110Y-86366000D01*
X148886890Y-86366000D01*
X148845409Y-86361915D01*
X148811431Y-86351607D01*
X148780110Y-86334866D01*
X148752661Y-86312339D01*
X148730134Y-86284890D01*
X148713393Y-86253569D01*
X148703085Y-86219591D01*
X148699000Y-86178110D01*
X148699000Y-85576890D01*
X148703085Y-85535409D01*
X148713393Y-85501431D01*
X148730134Y-85470110D01*
X148752661Y-85442661D01*
X148780110Y-85420134D01*
X148811431Y-85403393D01*
X148845409Y-85393085D01*
X148886890Y-85389000D01*
X149563110Y-85389000D01*
X149604591Y-85393085D01*
G37*
G36*
X174357717Y-83588898D02*
G01*
X174605858Y-83691681D01*
X174829180Y-83840900D01*
X175019100Y-84030820D01*
X175168319Y-84254142D01*
X175271102Y-84502283D01*
X175323500Y-84765706D01*
X175323500Y-85034294D01*
X175271102Y-85297717D01*
X175168319Y-85545858D01*
X175019100Y-85769180D01*
X174829180Y-85959100D01*
X174605858Y-86108319D01*
X174357717Y-86211102D01*
X174094294Y-86263500D01*
X173825706Y-86263500D01*
X173562283Y-86211102D01*
X173314142Y-86108319D01*
X173090820Y-85959100D01*
X172900900Y-85769180D01*
X172751681Y-85545858D01*
X172648898Y-85297717D01*
X172596500Y-85034294D01*
X172596500Y-84765706D01*
X172648898Y-84502283D01*
X172751681Y-84254142D01*
X172900900Y-84030820D01*
X173090820Y-83840900D01*
X173314142Y-83691681D01*
X173562283Y-83588898D01*
X173825706Y-83536500D01*
X174094294Y-83536500D01*
X174357717Y-83588898D01*
G37*
G36*
X182357717Y-83588898D02*
G01*
X182605858Y-83691681D01*
X182829180Y-83840900D01*
X183019100Y-84030820D01*
X183168319Y-84254142D01*
X183271102Y-84502283D01*
X183323500Y-84765706D01*
X183323500Y-85034294D01*
X183271102Y-85297717D01*
X183168319Y-85545858D01*
X183019100Y-85769180D01*
X182829180Y-85959100D01*
X182605858Y-86108319D01*
X182357717Y-86211102D01*
X182094294Y-86263500D01*
X181825706Y-86263500D01*
X181562283Y-86211102D01*
X181314142Y-86108319D01*
X181090820Y-85959100D01*
X180900900Y-85769180D01*
X180751681Y-85545858D01*
X180648898Y-85297717D01*
X180596500Y-85034294D01*
X180596500Y-84765706D01*
X180648898Y-84502283D01*
X180751681Y-84254142D01*
X180900900Y-84030820D01*
X181090820Y-83840900D01*
X181314142Y-83691681D01*
X181562283Y-83588898D01*
X181825706Y-83536500D01*
X182094294Y-83536500D01*
X182357717Y-83588898D01*
G37*
G36*
X186357717Y-83588898D02*
G01*
X186605858Y-83691681D01*
X186829180Y-83840900D01*
X187019100Y-84030820D01*
X187168319Y-84254142D01*
X187271102Y-84502283D01*
X187323500Y-84765706D01*
X187323500Y-85034294D01*
X187271102Y-85297717D01*
X187168319Y-85545858D01*
X187019100Y-85769180D01*
X186829180Y-85959100D01*
X186605858Y-86108319D01*
X186357717Y-86211102D01*
X186094294Y-86263500D01*
X185825706Y-86263500D01*
X185562283Y-86211102D01*
X185314142Y-86108319D01*
X185090820Y-85959100D01*
X184900900Y-85769180D01*
X184751681Y-85545858D01*
X184648898Y-85297717D01*
X184596500Y-85034294D01*
X184596500Y-84765706D01*
X184648898Y-84502283D01*
X184751681Y-84254142D01*
X184900900Y-84030820D01*
X185090820Y-83840900D01*
X185314142Y-83691681D01*
X185562283Y-83588898D01*
X185825706Y-83536500D01*
X186094294Y-83536500D01*
X186357717Y-83588898D01*
G37*
G36*
X190357717Y-83588898D02*
G01*
X190605858Y-83691681D01*
X190829180Y-83840900D01*
X191019100Y-84030820D01*
X191168319Y-84254142D01*
X191271102Y-84502283D01*
X191323500Y-84765706D01*
X191323500Y-85034294D01*
X191271102Y-85297717D01*
X191168319Y-85545858D01*
X191019100Y-85769180D01*
X190829180Y-85959100D01*
X190605858Y-86108319D01*
X190357717Y-86211102D01*
X190094294Y-86263500D01*
X189825706Y-86263500D01*
X189562283Y-86211102D01*
X189314142Y-86108319D01*
X189090820Y-85959100D01*
X188900900Y-85769180D01*
X188751681Y-85545858D01*
X188648898Y-85297717D01*
X188596500Y-85034294D01*
X188596500Y-84765706D01*
X188648898Y-84502283D01*
X188751681Y-84254142D01*
X188900900Y-84030820D01*
X189090820Y-83840900D01*
X189314142Y-83691681D01*
X189562283Y-83588898D01*
X189825706Y-83536500D01*
X190094294Y-83536500D01*
X190357717Y-83588898D01*
G37*
G36*
X198357717Y-83588898D02*
G01*
X198605858Y-83691681D01*
X198829180Y-83840900D01*
X199019100Y-84030820D01*
X199168319Y-84254142D01*
X199271102Y-84502283D01*
X199323500Y-84765706D01*
X199323500Y-85034294D01*
X199271102Y-85297717D01*
X199168319Y-85545858D01*
X199019100Y-85769180D01*
X198829180Y-85959100D01*
X198605858Y-86108319D01*
X198357717Y-86211102D01*
X198094294Y-86263500D01*
X197825706Y-86263500D01*
X197562283Y-86211102D01*
X197314142Y-86108319D01*
X197090820Y-85959100D01*
X196900900Y-85769180D01*
X196751681Y-85545858D01*
X196648898Y-85297717D01*
X196596500Y-85034294D01*
X196596500Y-84765706D01*
X196648898Y-84502283D01*
X196751681Y-84254142D01*
X196900900Y-84030820D01*
X197090820Y-83840900D01*
X197314142Y-83691681D01*
X197562283Y-83588898D01*
X197825706Y-83536500D01*
X198094294Y-83536500D01*
X198357717Y-83588898D01*
G37*
G36*
X194357717Y-83588898D02*
G01*
X194605858Y-83691681D01*
X194829180Y-83840900D01*
X195019100Y-84030820D01*
X195168319Y-84254142D01*
X195271102Y-84502283D01*
X195323500Y-84765706D01*
X195323500Y-85034294D01*
X195271102Y-85297717D01*
X195168319Y-85545858D01*
X195019100Y-85769180D01*
X194829180Y-85959100D01*
X194605858Y-86108319D01*
X194357717Y-86211102D01*
X194094294Y-86263500D01*
X193825706Y-86263500D01*
X193562283Y-86211102D01*
X193314142Y-86108319D01*
X193090820Y-85959100D01*
X192900900Y-85769180D01*
X192751681Y-85545858D01*
X192648898Y-85297717D01*
X192596500Y-85034294D01*
X192596500Y-84765706D01*
X192648898Y-84502283D01*
X192751681Y-84254142D01*
X192900900Y-84030820D01*
X193090820Y-83840900D01*
X193314142Y-83691681D01*
X193562283Y-83588898D01*
X193825706Y-83536500D01*
X194094294Y-83536500D01*
X194357717Y-83588898D01*
G37*
G36*
X178357717Y-83588898D02*
G01*
X178605858Y-83691681D01*
X178829180Y-83840900D01*
X179019100Y-84030820D01*
X179168319Y-84254142D01*
X179271102Y-84502283D01*
X179323500Y-84765706D01*
X179323500Y-85034294D01*
X179271102Y-85297717D01*
X179168319Y-85545858D01*
X179019100Y-85769180D01*
X178829180Y-85959100D01*
X178605858Y-86108319D01*
X178357717Y-86211102D01*
X178094294Y-86263500D01*
X177825706Y-86263500D01*
X177562283Y-86211102D01*
X177314142Y-86108319D01*
X177090820Y-85959100D01*
X176900900Y-85769180D01*
X176751681Y-85545858D01*
X176648898Y-85297717D01*
X176596500Y-85034294D01*
X176596500Y-84765706D01*
X176648898Y-84502283D01*
X176751681Y-84254142D01*
X176900900Y-84030820D01*
X177090820Y-83840900D01*
X177314142Y-83691681D01*
X177562283Y-83588898D01*
X177825706Y-83536500D01*
X178094294Y-83536500D01*
X178357717Y-83588898D01*
G37*
G36*
X203323500Y-86263500D02*
G01*
X200596500Y-86263500D01*
X200596500Y-83536500D01*
X203323500Y-83536500D01*
X203323500Y-86263500D01*
G37*
G36*
X146683591Y-84250085D02*
G01*
X146717569Y-84260393D01*
X146748890Y-84277134D01*
X146776339Y-84299661D01*
X146798866Y-84327110D01*
X146815607Y-84358431D01*
X146825915Y-84392409D01*
X146830000Y-84433890D01*
X146830000Y-85035110D01*
X146825915Y-85076591D01*
X146815607Y-85110569D01*
X146798866Y-85141890D01*
X146776339Y-85169339D01*
X146748890Y-85191866D01*
X146717569Y-85208607D01*
X146683591Y-85218915D01*
X146642110Y-85223000D01*
X145965890Y-85223000D01*
X145924409Y-85218915D01*
X145890431Y-85208607D01*
X145859110Y-85191866D01*
X145831661Y-85169339D01*
X145809134Y-85141890D01*
X145792393Y-85110569D01*
X145782085Y-85076591D01*
X145778000Y-85035110D01*
X145778000Y-84433890D01*
X145782085Y-84392409D01*
X145792393Y-84358431D01*
X145809134Y-84327110D01*
X145831661Y-84299661D01*
X145859110Y-84277134D01*
X145890431Y-84260393D01*
X145924409Y-84250085D01*
X145965890Y-84246000D01*
X146642110Y-84246000D01*
X146683591Y-84250085D01*
G37*
G36*
X149604591Y-83818085D02*
G01*
X149638569Y-83828393D01*
X149669890Y-83845134D01*
X149697339Y-83867661D01*
X149719866Y-83895110D01*
X149736607Y-83926431D01*
X149746915Y-83960409D01*
X149751000Y-84001890D01*
X149751000Y-84603110D01*
X149746915Y-84644591D01*
X149736607Y-84678569D01*
X149719866Y-84709890D01*
X149697339Y-84737339D01*
X149669890Y-84759866D01*
X149638569Y-84776607D01*
X149604591Y-84786915D01*
X149563110Y-84791000D01*
X148886890Y-84791000D01*
X148845409Y-84786915D01*
X148811431Y-84776607D01*
X148780110Y-84759866D01*
X148752661Y-84737339D01*
X148730134Y-84709890D01*
X148713393Y-84678569D01*
X148703085Y-84644591D01*
X148699000Y-84603110D01*
X148699000Y-84001890D01*
X148703085Y-83960409D01*
X148713393Y-83926431D01*
X148730134Y-83895110D01*
X148752661Y-83867661D01*
X148780110Y-83845134D01*
X148811431Y-83828393D01*
X148845409Y-83818085D01*
X148886890Y-83814000D01*
X149563110Y-83814000D01*
X149604591Y-83818085D01*
G37*
G36*
X146683591Y-82675085D02*
G01*
X146717569Y-82685393D01*
X146748890Y-82702134D01*
X146776339Y-82724661D01*
X146798866Y-82752110D01*
X146815607Y-82783431D01*
X146825915Y-82817409D01*
X146830000Y-82858890D01*
X146830000Y-83460110D01*
X146825915Y-83501591D01*
X146815607Y-83535569D01*
X146798866Y-83566890D01*
X146776339Y-83594339D01*
X146748890Y-83616866D01*
X146717569Y-83633607D01*
X146683591Y-83643915D01*
X146642110Y-83648000D01*
X145965890Y-83648000D01*
X145924409Y-83643915D01*
X145890431Y-83633607D01*
X145859110Y-83616866D01*
X145831661Y-83594339D01*
X145809134Y-83566890D01*
X145792393Y-83535569D01*
X145782085Y-83501591D01*
X145778000Y-83460110D01*
X145778000Y-82858890D01*
X145782085Y-82817409D01*
X145792393Y-82783431D01*
X145809134Y-82752110D01*
X145831661Y-82724661D01*
X145859110Y-82702134D01*
X145890431Y-82685393D01*
X145924409Y-82675085D01*
X145965890Y-82671000D01*
X146642110Y-82671000D01*
X146683591Y-82675085D01*
G37*
G36*
X154647091Y-81393085D02*
G01*
X154681069Y-81403393D01*
X154712390Y-81420134D01*
X154739839Y-81442661D01*
X154762366Y-81470110D01*
X154779107Y-81501431D01*
X154789415Y-81535409D01*
X154793500Y-81576890D01*
X154793500Y-82253110D01*
X154789415Y-82294591D01*
X154779107Y-82328569D01*
X154762366Y-82359890D01*
X154739839Y-82387339D01*
X154712390Y-82409866D01*
X154681069Y-82426607D01*
X154647091Y-82436915D01*
X154605610Y-82441000D01*
X154004390Y-82441000D01*
X153962909Y-82436915D01*
X153928931Y-82426607D01*
X153897610Y-82409866D01*
X153870161Y-82387339D01*
X153847634Y-82359890D01*
X153830893Y-82328569D01*
X153820585Y-82294591D01*
X153816500Y-82253110D01*
X153816500Y-81576890D01*
X153820585Y-81535409D01*
X153830893Y-81501431D01*
X153847634Y-81470110D01*
X153870161Y-81442661D01*
X153897610Y-81420134D01*
X153928931Y-81403393D01*
X153962909Y-81393085D01*
X154004390Y-81389000D01*
X154605610Y-81389000D01*
X154647091Y-81393085D01*
G37*
G36*
X156222091Y-81393085D02*
G01*
X156256069Y-81403393D01*
X156287390Y-81420134D01*
X156314839Y-81442661D01*
X156337366Y-81470110D01*
X156354107Y-81501431D01*
X156364415Y-81535409D01*
X156368500Y-81576890D01*
X156368500Y-82253110D01*
X156364415Y-82294591D01*
X156354107Y-82328569D01*
X156337366Y-82359890D01*
X156314839Y-82387339D01*
X156287390Y-82409866D01*
X156256069Y-82426607D01*
X156222091Y-82436915D01*
X156180610Y-82441000D01*
X155579390Y-82441000D01*
X155537909Y-82436915D01*
X155503931Y-82426607D01*
X155472610Y-82409866D01*
X155445161Y-82387339D01*
X155422634Y-82359890D01*
X155405893Y-82328569D01*
X155395585Y-82294591D01*
X155391500Y-82253110D01*
X155391500Y-81576890D01*
X155395585Y-81535409D01*
X155405893Y-81501431D01*
X155422634Y-81470110D01*
X155445161Y-81442661D01*
X155472610Y-81420134D01*
X155503931Y-81403393D01*
X155537909Y-81393085D01*
X155579390Y-81389000D01*
X156180610Y-81389000D01*
X156222091Y-81393085D01*
G37*
G36*
X223755443Y-80305519D02*
G01*
X223821627Y-80312037D01*
X223991466Y-80363557D01*
X224147991Y-80447222D01*
X224183729Y-80476552D01*
X224285186Y-80559814D01*
X224368448Y-80661271D01*
X224397778Y-80697009D01*
X224481443Y-80853534D01*
X224532963Y-81023373D01*
X224550359Y-81200000D01*
X224532963Y-81376627D01*
X224481443Y-81546466D01*
X224397778Y-81702991D01*
X224368448Y-81738729D01*
X224285186Y-81840186D01*
X224183729Y-81923448D01*
X224147991Y-81952778D01*
X223991466Y-82036443D01*
X223821627Y-82087963D01*
X223755442Y-82094482D01*
X223689260Y-82101000D01*
X223350740Y-82101000D01*
X223284558Y-82094482D01*
X223218373Y-82087963D01*
X223048534Y-82036443D01*
X222892009Y-81952778D01*
X222856271Y-81923448D01*
X222754814Y-81840186D01*
X222671552Y-81738729D01*
X222642222Y-81702991D01*
X222558557Y-81546466D01*
X222507037Y-81376627D01*
X222489641Y-81200000D01*
X222507037Y-81023373D01*
X222558557Y-80853534D01*
X222642222Y-80697009D01*
X222671552Y-80661271D01*
X222754814Y-80559814D01*
X222856271Y-80476552D01*
X222892009Y-80447222D01*
X223048534Y-80363557D01*
X223218373Y-80312037D01*
X223284557Y-80305519D01*
X223350740Y-80299000D01*
X223689260Y-80299000D01*
X223755443Y-80305519D01*
G37*
G36*
X156222091Y-79488085D02*
G01*
X156256069Y-79498393D01*
X156287390Y-79515134D01*
X156314839Y-79537661D01*
X156337366Y-79565110D01*
X156354107Y-79596431D01*
X156364415Y-79630409D01*
X156368500Y-79671890D01*
X156368500Y-80348110D01*
X156364415Y-80389591D01*
X156354107Y-80423569D01*
X156337366Y-80454890D01*
X156314839Y-80482339D01*
X156287390Y-80504866D01*
X156256069Y-80521607D01*
X156222091Y-80531915D01*
X156180610Y-80536000D01*
X155579390Y-80536000D01*
X155537909Y-80531915D01*
X155503931Y-80521607D01*
X155472610Y-80504866D01*
X155445161Y-80482339D01*
X155422634Y-80454890D01*
X155405893Y-80423569D01*
X155395585Y-80389591D01*
X155391500Y-80348110D01*
X155391500Y-79671890D01*
X155395585Y-79630409D01*
X155405893Y-79596431D01*
X155422634Y-79565110D01*
X155445161Y-79537661D01*
X155472610Y-79515134D01*
X155503931Y-79498393D01*
X155537909Y-79488085D01*
X155579390Y-79484000D01*
X156180610Y-79484000D01*
X156222091Y-79488085D01*
G37*
G36*
X154647091Y-79488085D02*
G01*
X154681069Y-79498393D01*
X154712390Y-79515134D01*
X154739839Y-79537661D01*
X154762366Y-79565110D01*
X154779107Y-79596431D01*
X154789415Y-79630409D01*
X154793500Y-79671890D01*
X154793500Y-80348110D01*
X154789415Y-80389591D01*
X154779107Y-80423569D01*
X154762366Y-80454890D01*
X154739839Y-80482339D01*
X154712390Y-80504866D01*
X154681069Y-80521607D01*
X154647091Y-80531915D01*
X154605610Y-80536000D01*
X154004390Y-80536000D01*
X153962909Y-80531915D01*
X153928931Y-80521607D01*
X153897610Y-80504866D01*
X153870161Y-80482339D01*
X153847634Y-80454890D01*
X153830893Y-80423569D01*
X153820585Y-80389591D01*
X153816500Y-80348110D01*
X153816500Y-79671890D01*
X153820585Y-79630409D01*
X153830893Y-79596431D01*
X153847634Y-79565110D01*
X153870161Y-79537661D01*
X153897610Y-79515134D01*
X153928931Y-79498393D01*
X153962909Y-79488085D01*
X154004390Y-79484000D01*
X154605610Y-79484000D01*
X154647091Y-79488085D01*
G37*
G36*
X223755443Y-77805519D02*
G01*
X223821627Y-77812037D01*
X223991466Y-77863557D01*
X224147991Y-77947222D01*
X224183729Y-77976552D01*
X224285186Y-78059814D01*
X224368448Y-78161271D01*
X224397778Y-78197009D01*
X224481443Y-78353534D01*
X224532963Y-78523373D01*
X224550359Y-78700000D01*
X224532963Y-78876627D01*
X224481443Y-79046466D01*
X224397778Y-79202991D01*
X224368448Y-79238729D01*
X224285186Y-79340186D01*
X224183729Y-79423448D01*
X224147991Y-79452778D01*
X223991466Y-79536443D01*
X223821627Y-79587963D01*
X223775033Y-79592552D01*
X223689260Y-79601000D01*
X223350740Y-79601000D01*
X223264967Y-79592552D01*
X223218373Y-79587963D01*
X223048534Y-79536443D01*
X222892009Y-79452778D01*
X222856271Y-79423448D01*
X222754814Y-79340186D01*
X222671552Y-79238729D01*
X222642222Y-79202991D01*
X222558557Y-79046466D01*
X222507037Y-78876627D01*
X222489641Y-78700000D01*
X222507037Y-78523373D01*
X222558557Y-78353534D01*
X222642222Y-78197009D01*
X222671552Y-78161271D01*
X222754814Y-78059814D01*
X222856271Y-77976552D01*
X222892009Y-77947222D01*
X223048534Y-77863557D01*
X223218373Y-77812037D01*
X223284557Y-77805519D01*
X223350740Y-77799000D01*
X223689260Y-77799000D01*
X223755443Y-77805519D01*
G37*
G36*
X164566564Y-77089389D02*
G01*
X164757833Y-77168615D01*
X164757835Y-77168616D01*
X164929973Y-77283635D01*
X165076365Y-77430027D01*
X165191385Y-77602167D01*
X165270611Y-77793436D01*
X165311000Y-77996484D01*
X165311000Y-78203516D01*
X165270611Y-78406564D01*
X165222227Y-78523373D01*
X165191384Y-78597835D01*
X165076365Y-78769973D01*
X164929973Y-78916365D01*
X164757835Y-79031384D01*
X164757834Y-79031385D01*
X164757833Y-79031385D01*
X164566564Y-79110611D01*
X164363516Y-79151000D01*
X164156484Y-79151000D01*
X163953436Y-79110611D01*
X163762167Y-79031385D01*
X163762166Y-79031385D01*
X163762165Y-79031384D01*
X163590027Y-78916365D01*
X163443635Y-78769973D01*
X163328616Y-78597835D01*
X163297773Y-78523373D01*
X163249389Y-78406564D01*
X163209000Y-78203516D01*
X163209000Y-77996484D01*
X163249389Y-77793436D01*
X163328615Y-77602167D01*
X163443635Y-77430027D01*
X163590027Y-77283635D01*
X163762165Y-77168616D01*
X163762167Y-77168615D01*
X163953436Y-77089389D01*
X164156484Y-77049000D01*
X164363516Y-77049000D01*
X164566564Y-77089389D01*
G37*
G36*
X211966564Y-77089389D02*
G01*
X212157833Y-77168615D01*
X212157835Y-77168616D01*
X212329973Y-77283635D01*
X212476365Y-77430027D01*
X212591385Y-77602167D01*
X212670611Y-77793436D01*
X212711000Y-77996484D01*
X212711000Y-78203516D01*
X212670611Y-78406564D01*
X212622227Y-78523373D01*
X212591384Y-78597835D01*
X212476365Y-78769973D01*
X212329973Y-78916365D01*
X212157835Y-79031384D01*
X212157834Y-79031385D01*
X212157833Y-79031385D01*
X211966564Y-79110611D01*
X211763516Y-79151000D01*
X211556484Y-79151000D01*
X211353436Y-79110611D01*
X211162167Y-79031385D01*
X211162166Y-79031385D01*
X211162165Y-79031384D01*
X210990027Y-78916365D01*
X210843635Y-78769973D01*
X210728616Y-78597835D01*
X210697773Y-78523373D01*
X210649389Y-78406564D01*
X210609000Y-78203516D01*
X210609000Y-77996484D01*
X210649389Y-77793436D01*
X210728615Y-77602167D01*
X210843635Y-77430027D01*
X210990027Y-77283635D01*
X211162165Y-77168616D01*
X211162167Y-77168615D01*
X211353436Y-77089389D01*
X211556484Y-77049000D01*
X211763516Y-77049000D01*
X211966564Y-77089389D01*
G37*
G36*
X224403600Y-75302989D02*
G01*
X224436652Y-75313015D01*
X224467103Y-75329292D01*
X224493799Y-75351201D01*
X224515708Y-75377897D01*
X224531985Y-75408348D01*
X224542011Y-75441400D01*
X224546000Y-75481903D01*
X224546000Y-76918097D01*
X224542011Y-76958600D01*
X224531985Y-76991652D01*
X224515708Y-77022103D01*
X224493799Y-77048799D01*
X224467103Y-77070708D01*
X224436652Y-77086985D01*
X224403600Y-77097011D01*
X224363097Y-77101000D01*
X222676903Y-77101000D01*
X222636400Y-77097011D01*
X222603348Y-77086985D01*
X222572897Y-77070708D01*
X222546201Y-77048799D01*
X222524292Y-77022103D01*
X222508015Y-76991652D01*
X222497989Y-76958600D01*
X222494000Y-76918097D01*
X222494000Y-75481903D01*
X222497989Y-75441400D01*
X222508015Y-75408348D01*
X222524292Y-75377897D01*
X222546201Y-75351201D01*
X222572897Y-75329292D01*
X222603348Y-75313015D01*
X222636400Y-75302989D01*
X222676903Y-75299000D01*
X224363097Y-75299000D01*
X224403600Y-75302989D01*
G37*
G36*
X145082585Y-71503802D02*
G01*
X145232410Y-71533604D01*
X145514674Y-71650521D01*
X145768705Y-71820259D01*
X145984741Y-72036295D01*
X146154479Y-72290326D01*
X146271396Y-72572590D01*
X146331000Y-72872240D01*
X146331000Y-73177760D01*
X146271396Y-73477410D01*
X146154479Y-73759674D01*
X145984741Y-74013705D01*
X145768705Y-74229741D01*
X145514674Y-74399479D01*
X145232410Y-74516396D01*
X145082585Y-74546198D01*
X144932761Y-74576000D01*
X144627239Y-74576000D01*
X144477415Y-74546198D01*
X144327590Y-74516396D01*
X144045326Y-74399479D01*
X143791295Y-74229741D01*
X143575259Y-74013705D01*
X143405521Y-73759674D01*
X143288604Y-73477410D01*
X143229000Y-73177760D01*
X143229000Y-72872240D01*
X143288604Y-72572590D01*
X143405521Y-72290326D01*
X143575259Y-72036295D01*
X143791295Y-71820259D01*
X144045326Y-71650521D01*
X144327590Y-71533604D01*
X144477415Y-71503802D01*
X144627239Y-71474000D01*
X144932761Y-71474000D01*
X145082585Y-71503802D01*
G37*
G36*
X185511674Y-67579465D02*
G01*
X185549367Y-67590899D01*
X185584103Y-67609466D01*
X185614548Y-67634452D01*
X185639534Y-67664897D01*
X185658101Y-67699633D01*
X185669535Y-67737326D01*
X185674000Y-67782661D01*
X185674000Y-68869339D01*
X185669535Y-68914674D01*
X185658101Y-68952367D01*
X185639534Y-68987103D01*
X185614548Y-69017548D01*
X185584103Y-69042534D01*
X185549367Y-69061101D01*
X185511674Y-69072535D01*
X185466339Y-69077000D01*
X184629661Y-69077000D01*
X184584326Y-69072535D01*
X184546633Y-69061101D01*
X184511897Y-69042534D01*
X184481452Y-69017548D01*
X184456466Y-68987103D01*
X184437899Y-68952367D01*
X184426465Y-68914674D01*
X184422000Y-68869339D01*
X184422000Y-67782661D01*
X184426465Y-67737326D01*
X184437899Y-67699633D01*
X184456466Y-67664897D01*
X184481452Y-67634452D01*
X184511897Y-67609466D01*
X184546633Y-67590899D01*
X184584326Y-67579465D01*
X184629661Y-67575000D01*
X185466339Y-67575000D01*
X185511674Y-67579465D01*
G37*
G36*
X183461674Y-67579465D02*
G01*
X183499367Y-67590899D01*
X183534103Y-67609466D01*
X183564548Y-67634452D01*
X183589534Y-67664897D01*
X183608101Y-67699633D01*
X183619535Y-67737326D01*
X183624000Y-67782661D01*
X183624000Y-68869339D01*
X183619535Y-68914674D01*
X183608101Y-68952367D01*
X183589534Y-68987103D01*
X183564548Y-69017548D01*
X183534103Y-69042534D01*
X183499367Y-69061101D01*
X183461674Y-69072535D01*
X183416339Y-69077000D01*
X182579661Y-69077000D01*
X182534326Y-69072535D01*
X182496633Y-69061101D01*
X182461897Y-69042534D01*
X182431452Y-69017548D01*
X182406466Y-68987103D01*
X182387899Y-68952367D01*
X182376465Y-68914674D01*
X182372000Y-68869339D01*
X182372000Y-67782661D01*
X182376465Y-67737326D01*
X182387899Y-67699633D01*
X182406466Y-67664897D01*
X182431452Y-67634452D01*
X182461897Y-67609466D01*
X182496633Y-67590899D01*
X182534326Y-67579465D01*
X182579661Y-67575000D01*
X183416339Y-67575000D01*
X183461674Y-67579465D01*
G37*
G36*
X195532000Y-68913000D02*
G01*
X192580000Y-68913000D01*
X192580000Y-65961000D01*
X195532000Y-65961000D01*
X195532000Y-68913000D01*
G37*
G36*
X189216591Y-67804085D02*
G01*
X189250569Y-67814393D01*
X189281890Y-67831134D01*
X189309339Y-67853661D01*
X189331866Y-67881110D01*
X189348607Y-67912431D01*
X189358915Y-67946409D01*
X189363000Y-67987890D01*
X189363000Y-68664110D01*
X189358915Y-68705591D01*
X189348607Y-68739569D01*
X189331866Y-68770890D01*
X189309339Y-68798339D01*
X189281890Y-68820866D01*
X189250569Y-68837607D01*
X189216591Y-68847915D01*
X189175110Y-68852000D01*
X188573890Y-68852000D01*
X188532409Y-68847915D01*
X188498431Y-68837607D01*
X188467110Y-68820866D01*
X188439661Y-68798339D01*
X188417134Y-68770890D01*
X188400393Y-68739569D01*
X188390085Y-68705591D01*
X188386000Y-68664110D01*
X188386000Y-67987890D01*
X188390085Y-67946409D01*
X188400393Y-67912431D01*
X188417134Y-67881110D01*
X188439661Y-67853661D01*
X188467110Y-67831134D01*
X188498431Y-67814393D01*
X188532409Y-67804085D01*
X188573890Y-67800000D01*
X189175110Y-67800000D01*
X189216591Y-67804085D01*
G37*
G36*
X187641591Y-67804085D02*
G01*
X187675569Y-67814393D01*
X187706890Y-67831134D01*
X187734339Y-67853661D01*
X187756866Y-67881110D01*
X187773607Y-67912431D01*
X187783915Y-67946409D01*
X187788000Y-67987890D01*
X187788000Y-68664110D01*
X187783915Y-68705591D01*
X187773607Y-68739569D01*
X187756866Y-68770890D01*
X187734339Y-68798339D01*
X187706890Y-68820866D01*
X187675569Y-68837607D01*
X187641591Y-68847915D01*
X187600110Y-68852000D01*
X186998890Y-68852000D01*
X186957409Y-68847915D01*
X186923431Y-68837607D01*
X186892110Y-68820866D01*
X186864661Y-68798339D01*
X186842134Y-68770890D01*
X186825393Y-68739569D01*
X186815085Y-68705591D01*
X186811000Y-68664110D01*
X186811000Y-67987890D01*
X186815085Y-67946409D01*
X186825393Y-67912431D01*
X186842134Y-67881110D01*
X186864661Y-67853661D01*
X186892110Y-67831134D01*
X186923431Y-67814393D01*
X186957409Y-67804085D01*
X186998890Y-67800000D01*
X187600110Y-67800000D01*
X187641591Y-67804085D01*
G37*
G36*
X156704591Y-67423085D02*
G01*
X156738569Y-67433393D01*
X156769890Y-67450134D01*
X156797339Y-67472661D01*
X156819866Y-67500110D01*
X156836607Y-67531431D01*
X156846915Y-67565409D01*
X156851000Y-67606890D01*
X156851000Y-68283110D01*
X156846915Y-68324591D01*
X156836607Y-68358569D01*
X156819866Y-68389890D01*
X156797339Y-68417339D01*
X156769890Y-68439866D01*
X156738569Y-68456607D01*
X156704591Y-68466915D01*
X156663110Y-68471000D01*
X156061890Y-68471000D01*
X156020409Y-68466915D01*
X155986431Y-68456607D01*
X155955110Y-68439866D01*
X155927661Y-68417339D01*
X155905134Y-68389890D01*
X155888393Y-68358569D01*
X155878085Y-68324591D01*
X155874000Y-68283110D01*
X155874000Y-67606890D01*
X155878085Y-67565409D01*
X155888393Y-67531431D01*
X155905134Y-67500110D01*
X155927661Y-67472661D01*
X155955110Y-67450134D01*
X155986431Y-67433393D01*
X156020409Y-67423085D01*
X156061890Y-67419000D01*
X156663110Y-67419000D01*
X156704591Y-67423085D01*
G37*
G36*
X155129591Y-67423085D02*
G01*
X155163569Y-67433393D01*
X155194890Y-67450134D01*
X155222339Y-67472661D01*
X155244866Y-67500110D01*
X155261607Y-67531431D01*
X155271915Y-67565409D01*
X155276000Y-67606890D01*
X155276000Y-68283110D01*
X155271915Y-68324591D01*
X155261607Y-68358569D01*
X155244866Y-68389890D01*
X155222339Y-68417339D01*
X155194890Y-68439866D01*
X155163569Y-68456607D01*
X155129591Y-68466915D01*
X155088110Y-68471000D01*
X154486890Y-68471000D01*
X154445409Y-68466915D01*
X154411431Y-68456607D01*
X154380110Y-68439866D01*
X154352661Y-68417339D01*
X154330134Y-68389890D01*
X154313393Y-68358569D01*
X154303085Y-68324591D01*
X154299000Y-68283110D01*
X154299000Y-67606890D01*
X154303085Y-67565409D01*
X154313393Y-67531431D01*
X154330134Y-67500110D01*
X154352661Y-67472661D01*
X154380110Y-67450134D01*
X154411431Y-67433393D01*
X154445409Y-67423085D01*
X154486890Y-67419000D01*
X155088110Y-67419000D01*
X155129591Y-67423085D01*
G37*
G36*
X213318942Y-64606718D02*
G01*
X213409023Y-64615590D01*
X213509682Y-64646125D01*
X213560013Y-64661392D01*
X213699165Y-64735771D01*
X213821133Y-64835867D01*
X213921229Y-64957835D01*
X213995608Y-65096987D01*
X213995608Y-65096988D01*
X214041410Y-65247977D01*
X214056875Y-65405000D01*
X214041410Y-65562023D01*
X214025003Y-65616110D01*
X213995608Y-65713013D01*
X213921229Y-65852165D01*
X213821133Y-65974133D01*
X213699165Y-66074229D01*
X213560013Y-66148608D01*
X213509682Y-66163875D01*
X213409023Y-66194410D01*
X213330571Y-66202137D01*
X213291346Y-66206000D01*
X212412654Y-66206000D01*
X212373429Y-66202137D01*
X212294977Y-66194410D01*
X212194318Y-66163875D01*
X212143987Y-66148608D01*
X212004835Y-66074229D01*
X211882867Y-65974133D01*
X211782771Y-65852165D01*
X211708392Y-65713013D01*
X211678997Y-65616110D01*
X211662590Y-65562023D01*
X211647125Y-65405000D01*
X211662590Y-65247977D01*
X211708392Y-65096988D01*
X211708392Y-65096987D01*
X211782771Y-64957835D01*
X211882867Y-64835867D01*
X212004835Y-64735771D01*
X212143987Y-64661392D01*
X212194318Y-64646125D01*
X212294977Y-64615590D01*
X212385058Y-64606718D01*
X212412654Y-64604000D01*
X213291346Y-64604000D01*
X213318942Y-64606718D01*
G37*
G36*
X185511674Y-64531465D02*
G01*
X185549367Y-64542899D01*
X185584103Y-64561466D01*
X185614548Y-64586452D01*
X185639534Y-64616897D01*
X185658101Y-64651633D01*
X185669535Y-64689326D01*
X185674000Y-64734661D01*
X185674000Y-65821339D01*
X185669535Y-65866674D01*
X185658101Y-65904367D01*
X185639534Y-65939103D01*
X185614548Y-65969548D01*
X185584103Y-65994534D01*
X185549367Y-66013101D01*
X185511674Y-66024535D01*
X185466339Y-66029000D01*
X184629661Y-66029000D01*
X184584326Y-66024535D01*
X184546633Y-66013101D01*
X184511897Y-65994534D01*
X184481452Y-65969548D01*
X184456466Y-65939103D01*
X184437899Y-65904367D01*
X184426465Y-65866674D01*
X184422000Y-65821339D01*
X184422000Y-64734661D01*
X184426465Y-64689326D01*
X184437899Y-64651633D01*
X184456466Y-64616897D01*
X184481452Y-64586452D01*
X184511897Y-64561466D01*
X184546633Y-64542899D01*
X184584326Y-64531465D01*
X184629661Y-64527000D01*
X185466339Y-64527000D01*
X185511674Y-64531465D01*
G37*
G36*
X183461674Y-64531465D02*
G01*
X183499367Y-64542899D01*
X183534103Y-64561466D01*
X183564548Y-64586452D01*
X183589534Y-64616897D01*
X183608101Y-64651633D01*
X183619535Y-64689326D01*
X183624000Y-64734661D01*
X183624000Y-65821339D01*
X183619535Y-65866674D01*
X183608101Y-65904367D01*
X183589534Y-65939103D01*
X183564548Y-65969548D01*
X183534103Y-65994534D01*
X183499367Y-66013101D01*
X183461674Y-66024535D01*
X183416339Y-66029000D01*
X182579661Y-66029000D01*
X182534326Y-66024535D01*
X182496633Y-66013101D01*
X182461897Y-65994534D01*
X182431452Y-65969548D01*
X182406466Y-65939103D01*
X182387899Y-65904367D01*
X182376465Y-65866674D01*
X182372000Y-65821339D01*
X182372000Y-64734661D01*
X182376465Y-64689326D01*
X182387899Y-64651633D01*
X182406466Y-64616897D01*
X182431452Y-64586452D01*
X182461897Y-64561466D01*
X182496633Y-64542899D01*
X182534326Y-64531465D01*
X182579661Y-64527000D01*
X183416339Y-64527000D01*
X183461674Y-64531465D01*
G37*
G36*
X187641591Y-64756085D02*
G01*
X187675569Y-64766393D01*
X187706890Y-64783134D01*
X187734339Y-64805661D01*
X187756866Y-64833110D01*
X187773607Y-64864431D01*
X187783915Y-64898409D01*
X187788000Y-64939890D01*
X187788000Y-65616110D01*
X187783915Y-65657591D01*
X187773607Y-65691569D01*
X187756866Y-65722890D01*
X187734339Y-65750339D01*
X187706890Y-65772866D01*
X187675569Y-65789607D01*
X187641591Y-65799915D01*
X187600110Y-65804000D01*
X186998890Y-65804000D01*
X186957409Y-65799915D01*
X186923431Y-65789607D01*
X186892110Y-65772866D01*
X186864661Y-65750339D01*
X186842134Y-65722890D01*
X186825393Y-65691569D01*
X186815085Y-65657591D01*
X186811000Y-65616110D01*
X186811000Y-64939890D01*
X186815085Y-64898409D01*
X186825393Y-64864431D01*
X186842134Y-64833110D01*
X186864661Y-64805661D01*
X186892110Y-64783134D01*
X186923431Y-64766393D01*
X186957409Y-64756085D01*
X186998890Y-64752000D01*
X187600110Y-64752000D01*
X187641591Y-64756085D01*
G37*
G36*
X189216591Y-64756085D02*
G01*
X189250569Y-64766393D01*
X189281890Y-64783134D01*
X189309339Y-64805661D01*
X189331866Y-64833110D01*
X189348607Y-64864431D01*
X189358915Y-64898409D01*
X189363000Y-64939890D01*
X189363000Y-65616110D01*
X189358915Y-65657591D01*
X189348607Y-65691569D01*
X189331866Y-65722890D01*
X189309339Y-65750339D01*
X189281890Y-65772866D01*
X189250569Y-65789607D01*
X189216591Y-65799915D01*
X189175110Y-65804000D01*
X188573890Y-65804000D01*
X188532409Y-65799915D01*
X188498431Y-65789607D01*
X188467110Y-65772866D01*
X188439661Y-65750339D01*
X188417134Y-65722890D01*
X188400393Y-65691569D01*
X188390085Y-65657591D01*
X188386000Y-65616110D01*
X188386000Y-64939890D01*
X188390085Y-64898409D01*
X188400393Y-64864431D01*
X188417134Y-64833110D01*
X188439661Y-64805661D01*
X188467110Y-64783134D01*
X188498431Y-64766393D01*
X188532409Y-64756085D01*
X188573890Y-64752000D01*
X189175110Y-64752000D01*
X189216591Y-64756085D01*
G37*
G36*
X194486532Y-61317721D02*
G01*
X194755147Y-61428985D01*
X194996895Y-61590516D01*
X195202484Y-61796105D01*
X195364015Y-62037853D01*
X195475279Y-62306468D01*
X195532000Y-62591625D01*
X195532000Y-62882375D01*
X195475279Y-63167532D01*
X195364015Y-63436147D01*
X195202484Y-63677895D01*
X194996895Y-63883484D01*
X194755147Y-64045015D01*
X194486532Y-64156279D01*
X194201375Y-64213000D01*
X193910625Y-64213000D01*
X193625468Y-64156279D01*
X193356853Y-64045015D01*
X193115105Y-63883484D01*
X192909516Y-63677895D01*
X192747985Y-63436147D01*
X192636721Y-63167532D01*
X192580000Y-62882375D01*
X192580000Y-62591625D01*
X192636721Y-62306468D01*
X192747985Y-62037853D01*
X192909516Y-61796105D01*
X193115105Y-61590516D01*
X193356853Y-61428985D01*
X193625468Y-61317721D01*
X193910625Y-61261000D01*
X194201375Y-61261000D01*
X194486532Y-61317721D01*
G37*
G36*
X144894875Y-61922479D02*
G01*
X144968516Y-61944818D01*
X145005337Y-61955987D01*
X145107139Y-62010402D01*
X145140588Y-62037853D01*
X145196369Y-62083631D01*
X145269598Y-62172861D01*
X145269599Y-62172863D01*
X145324013Y-62274662D01*
X145324524Y-62276346D01*
X145357521Y-62385124D01*
X145366000Y-62471215D01*
X145366000Y-63258785D01*
X145357521Y-63344876D01*
X145335182Y-63418517D01*
X145324013Y-63455338D01*
X145269598Y-63557140D01*
X145196370Y-63646370D01*
X145107140Y-63719598D01*
X145005338Y-63774013D01*
X144968517Y-63785182D01*
X144894876Y-63807521D01*
X144780000Y-63818835D01*
X144665125Y-63807521D01*
X144591484Y-63785182D01*
X144554663Y-63774013D01*
X144452861Y-63719598D01*
X144363631Y-63646370D01*
X144290402Y-63557138D01*
X144255240Y-63491355D01*
X144241627Y-63470980D01*
X144224300Y-63453653D01*
X144203925Y-63440040D01*
X144181286Y-63430662D01*
X144157253Y-63425882D01*
X144132749Y-63425882D01*
X144108716Y-63430662D01*
X144086077Y-63440040D01*
X144065702Y-63453653D01*
X144048375Y-63470980D01*
X144034762Y-63491354D01*
X143999598Y-63557140D01*
X143926370Y-63646370D01*
X143837140Y-63719598D01*
X143735338Y-63774013D01*
X143698517Y-63785182D01*
X143624876Y-63807521D01*
X143510000Y-63818835D01*
X143395125Y-63807521D01*
X143321484Y-63785182D01*
X143284663Y-63774013D01*
X143182861Y-63719598D01*
X143093631Y-63646370D01*
X143020402Y-63557138D01*
X142985240Y-63491355D01*
X142971627Y-63470980D01*
X142954300Y-63453653D01*
X142933925Y-63440040D01*
X142911286Y-63430662D01*
X142887253Y-63425882D01*
X142862749Y-63425882D01*
X142838716Y-63430662D01*
X142816077Y-63440040D01*
X142795702Y-63453653D01*
X142778375Y-63470980D01*
X142764762Y-63491354D01*
X142729598Y-63557140D01*
X142656370Y-63646370D01*
X142567140Y-63719598D01*
X142465338Y-63774013D01*
X142428517Y-63785182D01*
X142354876Y-63807521D01*
X142240000Y-63818835D01*
X142125125Y-63807521D01*
X142051484Y-63785182D01*
X142014663Y-63774013D01*
X141912861Y-63719598D01*
X141823631Y-63646370D01*
X141777625Y-63590310D01*
X141760298Y-63572983D01*
X141739924Y-63559369D01*
X141717285Y-63549992D01*
X141693252Y-63545211D01*
X141668748Y-63545211D01*
X141644714Y-63549991D01*
X141622076Y-63559368D01*
X141601701Y-63572982D01*
X141584374Y-63590309D01*
X141570760Y-63610683D01*
X141561383Y-63633322D01*
X141556602Y-63657355D01*
X141556000Y-63669608D01*
X141556000Y-63816000D01*
X140384000Y-63816000D01*
X140384000Y-61914000D01*
X141556000Y-61914000D01*
X141556000Y-62060392D01*
X141558402Y-62084778D01*
X141565515Y-62108227D01*
X141577066Y-62129838D01*
X141592611Y-62148780D01*
X141611553Y-62164325D01*
X141633164Y-62175876D01*
X141656613Y-62182989D01*
X141680999Y-62185391D01*
X141705385Y-62182989D01*
X141728834Y-62175876D01*
X141750445Y-62164325D01*
X141769387Y-62148780D01*
X141777625Y-62139690D01*
X141792642Y-62121392D01*
X141823631Y-62083631D01*
X141912861Y-62010402D01*
X141924507Y-62004177D01*
X142014662Y-61955987D01*
X142051483Y-61944818D01*
X142125124Y-61922479D01*
X142240000Y-61911165D01*
X142354875Y-61922479D01*
X142428516Y-61944818D01*
X142465337Y-61955987D01*
X142567139Y-62010402D01*
X142600588Y-62037853D01*
X142656369Y-62083631D01*
X142727767Y-62170630D01*
X142729601Y-62172865D01*
X142764761Y-62238645D01*
X142778374Y-62259020D01*
X142795701Y-62276347D01*
X142816076Y-62289960D01*
X142838715Y-62299338D01*
X142862748Y-62304118D01*
X142887252Y-62304118D01*
X142911285Y-62299338D01*
X142933924Y-62289960D01*
X142954299Y-62276347D01*
X142971626Y-62259020D01*
X142985239Y-62238646D01*
X143020402Y-62172861D01*
X143093629Y-62083634D01*
X143093631Y-62083631D01*
X143182861Y-62010402D01*
X143194507Y-62004177D01*
X143284662Y-61955987D01*
X143321483Y-61944818D01*
X143395124Y-61922479D01*
X143510000Y-61911165D01*
X143624875Y-61922479D01*
X143698516Y-61944818D01*
X143735337Y-61955987D01*
X143837139Y-62010402D01*
X143870588Y-62037853D01*
X143926369Y-62083631D01*
X143997767Y-62170630D01*
X143999601Y-62172865D01*
X144034761Y-62238645D01*
X144048374Y-62259020D01*
X144065701Y-62276347D01*
X144086076Y-62289960D01*
X144108715Y-62299338D01*
X144132748Y-62304118D01*
X144157252Y-62304118D01*
X144181285Y-62299338D01*
X144203924Y-62289960D01*
X144224299Y-62276347D01*
X144241626Y-62259020D01*
X144255239Y-62238646D01*
X144290402Y-62172861D01*
X144363629Y-62083634D01*
X144363631Y-62083631D01*
X144452861Y-62010402D01*
X144464507Y-62004177D01*
X144554662Y-61955987D01*
X144591483Y-61944818D01*
X144665124Y-61922479D01*
X144780000Y-61911165D01*
X144894875Y-61922479D01*
G37*
G36*
X169024876Y-61922479D02*
G01*
X169098517Y-61944818D01*
X169135338Y-61955987D01*
X169237140Y-62010402D01*
X169326370Y-62083630D01*
X169372375Y-62139689D01*
X169389702Y-62157016D01*
X169410076Y-62170630D01*
X169432715Y-62180007D01*
X169456748Y-62184788D01*
X169481252Y-62184788D01*
X169505285Y-62180008D01*
X169527924Y-62170631D01*
X169548299Y-62157017D01*
X169565626Y-62139690D01*
X169579240Y-62119316D01*
X169588617Y-62096677D01*
X169593398Y-62072644D01*
X169594000Y-62060391D01*
X169594000Y-61914000D01*
X170766000Y-61914000D01*
X170766000Y-63816000D01*
X169594000Y-63816000D01*
X169594000Y-63669608D01*
X169591598Y-63645223D01*
X169584485Y-63621774D01*
X169572934Y-63600163D01*
X169557389Y-63581221D01*
X169538447Y-63565676D01*
X169516836Y-63554125D01*
X169493387Y-63547012D01*
X169469001Y-63544610D01*
X169444615Y-63547012D01*
X169421166Y-63554125D01*
X169399555Y-63565676D01*
X169372376Y-63590310D01*
X169326370Y-63646369D01*
X169237139Y-63719598D01*
X169135337Y-63774013D01*
X169098516Y-63785182D01*
X169024875Y-63807521D01*
X168910000Y-63818835D01*
X168795124Y-63807521D01*
X168721483Y-63785182D01*
X168684662Y-63774013D01*
X168582863Y-63719599D01*
X168582861Y-63719598D01*
X168493631Y-63646369D01*
X168433405Y-63572983D01*
X168420402Y-63557139D01*
X168385239Y-63491354D01*
X168371625Y-63470980D01*
X168354298Y-63453653D01*
X168333924Y-63440039D01*
X168311285Y-63430662D01*
X168287251Y-63425882D01*
X168262747Y-63425882D01*
X168238714Y-63430663D01*
X168216075Y-63440040D01*
X168195701Y-63453654D01*
X168178374Y-63470981D01*
X168164761Y-63491355D01*
X168129601Y-63557135D01*
X168129599Y-63557138D01*
X168129598Y-63557139D01*
X168056369Y-63646369D01*
X168042982Y-63657355D01*
X167967139Y-63719598D01*
X167865337Y-63774013D01*
X167828516Y-63785182D01*
X167754875Y-63807521D01*
X167640000Y-63818835D01*
X167525124Y-63807521D01*
X167451483Y-63785182D01*
X167414662Y-63774013D01*
X167312863Y-63719599D01*
X167312861Y-63719598D01*
X167223631Y-63646369D01*
X167163405Y-63572983D01*
X167150402Y-63557139D01*
X167115239Y-63491354D01*
X167101625Y-63470980D01*
X167084298Y-63453653D01*
X167063924Y-63440039D01*
X167041285Y-63430662D01*
X167017251Y-63425882D01*
X166992747Y-63425882D01*
X166968714Y-63430663D01*
X166946075Y-63440040D01*
X166925701Y-63453654D01*
X166908374Y-63470981D01*
X166894761Y-63491355D01*
X166859601Y-63557135D01*
X166859599Y-63557138D01*
X166859598Y-63557139D01*
X166786369Y-63646369D01*
X166772982Y-63657355D01*
X166697139Y-63719598D01*
X166595337Y-63774013D01*
X166558516Y-63785182D01*
X166484875Y-63807521D01*
X166370000Y-63818835D01*
X166255124Y-63807521D01*
X166181483Y-63785182D01*
X166144662Y-63774013D01*
X166042863Y-63719599D01*
X166042861Y-63719598D01*
X165953631Y-63646369D01*
X165893405Y-63572983D01*
X165880402Y-63557139D01*
X165825987Y-63455337D01*
X165814818Y-63418516D01*
X165792479Y-63344875D01*
X165784000Y-63258784D01*
X165784000Y-62471215D01*
X165792479Y-62385124D01*
X165825988Y-62274663D01*
X165834350Y-62259019D01*
X165880403Y-62172860D01*
X165953631Y-62083630D01*
X166042861Y-62010402D01*
X166144663Y-61955987D01*
X166181484Y-61944818D01*
X166255125Y-61922479D01*
X166370000Y-61911165D01*
X166484876Y-61922479D01*
X166558517Y-61944818D01*
X166595338Y-61955987D01*
X166697140Y-62010402D01*
X166786370Y-62083630D01*
X166859598Y-62172860D01*
X166894762Y-62238646D01*
X166908376Y-62259021D01*
X166925703Y-62276347D01*
X166946078Y-62289961D01*
X166968717Y-62299338D01*
X166992750Y-62304118D01*
X167017254Y-62304118D01*
X167041288Y-62299337D01*
X167063926Y-62289960D01*
X167084301Y-62276346D01*
X167101627Y-62259019D01*
X167115240Y-62238645D01*
X167150402Y-62172862D01*
X167223631Y-62083630D01*
X167312861Y-62010402D01*
X167414663Y-61955987D01*
X167451484Y-61944818D01*
X167525125Y-61922479D01*
X167640000Y-61911165D01*
X167754876Y-61922479D01*
X167828517Y-61944818D01*
X167865338Y-61955987D01*
X167967140Y-62010402D01*
X168056370Y-62083630D01*
X168129598Y-62172860D01*
X168164762Y-62238646D01*
X168178376Y-62259021D01*
X168195703Y-62276347D01*
X168216078Y-62289961D01*
X168238717Y-62299338D01*
X168262750Y-62304118D01*
X168287254Y-62304118D01*
X168311288Y-62299337D01*
X168333926Y-62289960D01*
X168354301Y-62276346D01*
X168371627Y-62259019D01*
X168385240Y-62238645D01*
X168420402Y-62172862D01*
X168493631Y-62083630D01*
X168582861Y-62010402D01*
X168684663Y-61955987D01*
X168721484Y-61944818D01*
X168795125Y-61922479D01*
X168910000Y-61911165D01*
X169024876Y-61922479D01*
G37*
G36*
X157594875Y-61922479D02*
G01*
X157668516Y-61944818D01*
X157705337Y-61955987D01*
X157807139Y-62010402D01*
X157840588Y-62037853D01*
X157896369Y-62083631D01*
X157969598Y-62172861D01*
X157969599Y-62172863D01*
X158024013Y-62274662D01*
X158024524Y-62276346D01*
X158057521Y-62385124D01*
X158066000Y-62471215D01*
X158066000Y-63258785D01*
X158057521Y-63344876D01*
X158035182Y-63418517D01*
X158024013Y-63455338D01*
X157969598Y-63557140D01*
X157896370Y-63646370D01*
X157807140Y-63719598D01*
X157705338Y-63774013D01*
X157668517Y-63785182D01*
X157594876Y-63807521D01*
X157480000Y-63818835D01*
X157365125Y-63807521D01*
X157291484Y-63785182D01*
X157254663Y-63774013D01*
X157152861Y-63719598D01*
X157063631Y-63646370D01*
X156990402Y-63557138D01*
X156955240Y-63491355D01*
X156941627Y-63470980D01*
X156924300Y-63453653D01*
X156903925Y-63440040D01*
X156881286Y-63430662D01*
X156857253Y-63425882D01*
X156832749Y-63425882D01*
X156808716Y-63430662D01*
X156786077Y-63440040D01*
X156765702Y-63453653D01*
X156748375Y-63470980D01*
X156734762Y-63491354D01*
X156699598Y-63557140D01*
X156626370Y-63646370D01*
X156537140Y-63719598D01*
X156435338Y-63774013D01*
X156398517Y-63785182D01*
X156324876Y-63807521D01*
X156210000Y-63818835D01*
X156095125Y-63807521D01*
X156021484Y-63785182D01*
X155984663Y-63774013D01*
X155882861Y-63719598D01*
X155793631Y-63646370D01*
X155720402Y-63557138D01*
X155685240Y-63491355D01*
X155671627Y-63470980D01*
X155654300Y-63453653D01*
X155633925Y-63440040D01*
X155611286Y-63430662D01*
X155587253Y-63425882D01*
X155562749Y-63425882D01*
X155538716Y-63430662D01*
X155516077Y-63440040D01*
X155495702Y-63453653D01*
X155478375Y-63470980D01*
X155464762Y-63491354D01*
X155429598Y-63557140D01*
X155356370Y-63646370D01*
X155267140Y-63719598D01*
X155165338Y-63774013D01*
X155128517Y-63785182D01*
X155054876Y-63807521D01*
X154940000Y-63818835D01*
X154825125Y-63807521D01*
X154751484Y-63785182D01*
X154714663Y-63774013D01*
X154612861Y-63719598D01*
X154523631Y-63646370D01*
X154477625Y-63590310D01*
X154460298Y-63572983D01*
X154439924Y-63559369D01*
X154417285Y-63549992D01*
X154393252Y-63545211D01*
X154368748Y-63545211D01*
X154344714Y-63549991D01*
X154322076Y-63559368D01*
X154301701Y-63572982D01*
X154284374Y-63590309D01*
X154270760Y-63610683D01*
X154261383Y-63633322D01*
X154256602Y-63657355D01*
X154256000Y-63669608D01*
X154256000Y-63816000D01*
X153084000Y-63816000D01*
X153084000Y-61914000D01*
X154256000Y-61914000D01*
X154256000Y-62060392D01*
X154258402Y-62084778D01*
X154265515Y-62108227D01*
X154277066Y-62129838D01*
X154292611Y-62148780D01*
X154311553Y-62164325D01*
X154333164Y-62175876D01*
X154356613Y-62182989D01*
X154380999Y-62185391D01*
X154405385Y-62182989D01*
X154428834Y-62175876D01*
X154450445Y-62164325D01*
X154469387Y-62148780D01*
X154477625Y-62139690D01*
X154492642Y-62121392D01*
X154523631Y-62083631D01*
X154612861Y-62010402D01*
X154624507Y-62004177D01*
X154714662Y-61955987D01*
X154751483Y-61944818D01*
X154825124Y-61922479D01*
X154940000Y-61911165D01*
X155054875Y-61922479D01*
X155128516Y-61944818D01*
X155165337Y-61955987D01*
X155267139Y-62010402D01*
X155300588Y-62037853D01*
X155356369Y-62083631D01*
X155427767Y-62170630D01*
X155429601Y-62172865D01*
X155464761Y-62238645D01*
X155478374Y-62259020D01*
X155495701Y-62276347D01*
X155516076Y-62289960D01*
X155538715Y-62299338D01*
X155562748Y-62304118D01*
X155587252Y-62304118D01*
X155611285Y-62299338D01*
X155633924Y-62289960D01*
X155654299Y-62276347D01*
X155671626Y-62259020D01*
X155685239Y-62238646D01*
X155720402Y-62172861D01*
X155793629Y-62083634D01*
X155793631Y-62083631D01*
X155882861Y-62010402D01*
X155894507Y-62004177D01*
X155984662Y-61955987D01*
X156021483Y-61944818D01*
X156095124Y-61922479D01*
X156210000Y-61911165D01*
X156324875Y-61922479D01*
X156398516Y-61944818D01*
X156435337Y-61955987D01*
X156537139Y-62010402D01*
X156570588Y-62037853D01*
X156626369Y-62083631D01*
X156697767Y-62170630D01*
X156699601Y-62172865D01*
X156734761Y-62238645D01*
X156748374Y-62259020D01*
X156765701Y-62276347D01*
X156786076Y-62289960D01*
X156808715Y-62299338D01*
X156832748Y-62304118D01*
X156857252Y-62304118D01*
X156881285Y-62299338D01*
X156903924Y-62289960D01*
X156924299Y-62276347D01*
X156941626Y-62259020D01*
X156955239Y-62238646D01*
X156990402Y-62172861D01*
X157063629Y-62083634D01*
X157063631Y-62083631D01*
X157152861Y-62010402D01*
X157164507Y-62004177D01*
X157254662Y-61955987D01*
X157291483Y-61944818D01*
X157365124Y-61922479D01*
X157480000Y-61911165D01*
X157594875Y-61922479D01*
G37*
G36*
X213330571Y-62067863D02*
G01*
X213409023Y-62075590D01*
X213509682Y-62106125D01*
X213560013Y-62121392D01*
X213699165Y-62195771D01*
X213821133Y-62295867D01*
X213921229Y-62417835D01*
X213995608Y-62556987D01*
X213995608Y-62556988D01*
X214041410Y-62707977D01*
X214056875Y-62865000D01*
X214041410Y-63022023D01*
X214017971Y-63099290D01*
X213995608Y-63173013D01*
X213921229Y-63312165D01*
X213821133Y-63434133D01*
X213699165Y-63534229D01*
X213560013Y-63608608D01*
X213516610Y-63621774D01*
X213409023Y-63654410D01*
X213330571Y-63662137D01*
X213291346Y-63666000D01*
X212412654Y-63666000D01*
X212373429Y-63662137D01*
X212294977Y-63654410D01*
X212187390Y-63621774D01*
X212143987Y-63608608D01*
X212004835Y-63534229D01*
X211882867Y-63434133D01*
X211782771Y-63312165D01*
X211708392Y-63173013D01*
X211686029Y-63099290D01*
X211662590Y-63022023D01*
X211647125Y-62865000D01*
X211662590Y-62707977D01*
X211708392Y-62556988D01*
X211708392Y-62556987D01*
X211782771Y-62417835D01*
X211882867Y-62295867D01*
X212004835Y-62195771D01*
X212143987Y-62121392D01*
X212194318Y-62106125D01*
X212294977Y-62075590D01*
X212373429Y-62067863D01*
X212412654Y-62064000D01*
X213291346Y-62064000D01*
X213330571Y-62067863D01*
G37*
G36*
X224188721Y-62081174D02*
G01*
X224288995Y-62122709D01*
X224288996Y-62122710D01*
X224379242Y-62183010D01*
X224455990Y-62259758D01*
X224467074Y-62276347D01*
X224516291Y-62350005D01*
X224557826Y-62450279D01*
X224579000Y-62556730D01*
X224579000Y-62665270D01*
X224557826Y-62771721D01*
X224516291Y-62871995D01*
X224509355Y-62882375D01*
X224455990Y-62962242D01*
X224379242Y-63038990D01*
X224333812Y-63069345D01*
X224288995Y-63099291D01*
X224188721Y-63140826D01*
X224082270Y-63162000D01*
X223973730Y-63162000D01*
X223867279Y-63140826D01*
X223767005Y-63099291D01*
X223722188Y-63069345D01*
X223676758Y-63038990D01*
X223600010Y-62962242D01*
X223546645Y-62882375D01*
X223539709Y-62871995D01*
X223498174Y-62771721D01*
X223477000Y-62665270D01*
X223477000Y-62556730D01*
X223498174Y-62450279D01*
X223539709Y-62350005D01*
X223588926Y-62276347D01*
X223600010Y-62259758D01*
X223676758Y-62183010D01*
X223767004Y-62122710D01*
X223767005Y-62122709D01*
X223867279Y-62081174D01*
X223973730Y-62060000D01*
X224082270Y-62060000D01*
X224188721Y-62081174D01*
G37*
G36*
X178270664Y-59345014D02*
G01*
X178408579Y-59372447D01*
X178709042Y-59496903D01*
X178979451Y-59677585D01*
X179209415Y-59907549D01*
X179209416Y-59907551D01*
X179390098Y-60177960D01*
X179514553Y-60478422D01*
X179578000Y-60797389D01*
X179578000Y-61122611D01*
X179550472Y-61261000D01*
X179514553Y-61441579D01*
X179390097Y-61742042D01*
X179209415Y-62012451D01*
X178979451Y-62242415D01*
X178709042Y-62423097D01*
X178408579Y-62547553D01*
X178302256Y-62568702D01*
X178089611Y-62611000D01*
X177764389Y-62611000D01*
X177551744Y-62568702D01*
X177445421Y-62547553D01*
X177144958Y-62423097D01*
X176874549Y-62242415D01*
X176644585Y-62012451D01*
X176463903Y-61742042D01*
X176339447Y-61441579D01*
X176303528Y-61261000D01*
X176276000Y-61122611D01*
X176276000Y-60797389D01*
X176339447Y-60478422D01*
X176463902Y-60177960D01*
X176644584Y-59907551D01*
X176644585Y-59907549D01*
X176874549Y-59677585D01*
X177144958Y-59496903D01*
X177445421Y-59372447D01*
X177583336Y-59345014D01*
X177764389Y-59309000D01*
X178089611Y-59309000D01*
X178270664Y-59345014D01*
G37*
G36*
X214053000Y-61126000D02*
G01*
X211651000Y-61126000D01*
X211651000Y-59524000D01*
X214053000Y-59524000D01*
X214053000Y-61126000D01*
G37*
G36*
X194486532Y-56617721D02*
G01*
X194755147Y-56728985D01*
X194996895Y-56890516D01*
X195202484Y-57096105D01*
X195364015Y-57337853D01*
X195475279Y-57606468D01*
X195532000Y-57891625D01*
X195532000Y-58182375D01*
X195475279Y-58467532D01*
X195364015Y-58736147D01*
X195202484Y-58977895D01*
X194996895Y-59183484D01*
X194755147Y-59345015D01*
X194486532Y-59456279D01*
X194201375Y-59513000D01*
X193910625Y-59513000D01*
X193625468Y-59456279D01*
X193356853Y-59345015D01*
X193115105Y-59183484D01*
X192909516Y-58977895D01*
X192747985Y-58736147D01*
X192636721Y-58467532D01*
X192580000Y-58182375D01*
X192580000Y-57891625D01*
X192636721Y-57606468D01*
X192747985Y-57337853D01*
X192909516Y-57096105D01*
X193115105Y-56890516D01*
X193356853Y-56728985D01*
X193625468Y-56617721D01*
X193910625Y-56561000D01*
X194201375Y-56561000D01*
X194486532Y-56617721D01*
G37*
M02*
