M48
; DRILL file {KiCad 5.1.5-52549c5~84~ubuntu18.04.1} date Tue 03 Mar 2020 09:41:29 PM EST
; FORMAT={-:-/ absolute / metric / decimal}
; #@! TF.CreationDate,2020-03-03T21:41:29-05:00
; #@! TF.GenerationSoftware,Kicad,Pcbnew,5.1.5-52549c5~84~ubuntu18.04.1
FMAT,2
METRIC
T1C0.200
T2C0.400
T3C0.750
T4C0.900
T5C0.950
T6C1.000
T7C1.750
T8C1.850
T9C2.000
T10C3.200
%
G90
G05
T1
X141.525Y-86.233
X142.113Y-84.455
X143.51Y-78.105
X143.51Y-89.281
X143.51Y-92.075
X143.51Y-95.123
X145.034Y-81.534
X145.034Y-83.693
X145.288Y-84.963
X145.669Y-81.773
X146.05Y-97.155
X146.939Y-87.122
X147.32Y-81.915
X147.828Y-86.741
X147.955Y-97.155
X148.336Y-76.581
X148.336Y-78.486
X148.336Y-90.424
X148.891Y-89.916
X149.028Y-74.06
X149.555Y-91.44
X149.878Y-73.959
X150.495Y-90.043
X150.678Y-73.809
X151.127Y-77.978
X151.127Y-78.631
X151.257Y-74.422
X152.393Y-73.389
X153.035Y-102.489
X153.67Y-86.995
X154.178Y-73.533
X154.305Y-87.63
X154.305Y-97.155
X154.865Y-85.015
X157.226Y-94.996
X159.512Y-78.613
X160.274Y-72.009
X161.036Y-77.47
X161.671Y-72.644
X165.862Y-83.693
X169.291Y-75.184
X176.403Y-68.707
X180.086Y-65.405
T2
X140.843Y-70.993
X140.843Y-73.914
X140.843Y-77.47
X140.97Y-67.183
X141.7Y-82.677
X145.161Y-114.3
X150.495Y-84.455
X151.765Y-69.596
X153.162Y-99.187
X153.924Y-102.235
X154.051Y-84.582
X154.305Y-83.058
X156.337Y-76.835
X158.623Y-68.834
X158.623Y-101.981
X159.385Y-67.437
X159.766Y-64.77
X162.052Y-62.992
X162.179Y-92.329
X164.211Y-64.135
X164.465Y-67.056
X165.481Y-89.916
X222.504Y-69.789
T3
X172.34Y-109.22
X174.34Y-109.22
X176.34Y-109.22
X178.34Y-109.22
X180.34Y-109.22
T4
X140.97Y-62.865
X142.24Y-62.865
X143.51Y-62.865
X144.78Y-62.865
X153.67Y-62.865
X154.94Y-62.865
X156.21Y-62.865
X157.48Y-62.865
X166.37Y-62.865
X167.64Y-62.865
X168.91Y-62.865
X170.18Y-62.865
T5
X189.31Y-109.22
X191.81Y-109.22
X194.31Y-109.22
X223.52Y-76.2
X223.52Y-78.7
X223.52Y-81.2
X223.52Y-88.9
X223.52Y-91.4
X223.52Y-93.9
X223.52Y-96.4
T6
X161.33Y-109.22
X163.83Y-109.22
X212.852Y-60.325
X212.852Y-62.865
X212.852Y-65.405
X147.32Y-116.84
X149.86Y-116.84
X152.4Y-116.84
X147.32Y-109.22
X147.32Y-111.76
X149.86Y-109.22
X149.86Y-111.76
X152.4Y-109.22
X152.4Y-111.76
T7
X173.96Y-84.9
X173.96Y-92.9
X175.96Y-88.9
X177.96Y-84.9
X177.96Y-92.9
X179.96Y-88.9
X181.96Y-84.9
X181.96Y-92.9
X183.96Y-88.9
X185.96Y-84.9
X185.96Y-92.9
X187.96Y-88.9
X189.96Y-84.9
X189.96Y-92.9
X191.96Y-88.9
X193.96Y-84.9
X193.96Y-92.9
X195.96Y-88.9
X197.96Y-84.9
X197.96Y-92.9
X199.96Y-88.9
X201.96Y-84.9
X201.96Y-92.9
T8
X193.675Y-57.91
X193.675Y-62.61
X193.675Y-67.31
T9
X162.76Y-96.2
X164.26Y-78.1
X211.66Y-78.1
X213.16Y-96.2
T10
X177.927Y-60.96
X221.107Y-110.363
T0
M30
