G04*
G04 #@! TF.GenerationSoftware,Altium Limited,Altium Designer,20.0.11 (256)*
G04*
G04 Layer_Color=16711935*
%FSLAX25Y25*%
%MOIN*%
G70*
G01*
G75*
%ADD65C,0.04500*%
%ADD107C,0.06500*%
%ADD108R,0.06500X0.06500*%
%ADD109C,0.10500*%
%ADD110R,0.06602X0.06602*%
%ADD111C,0.06602*%
%ADD112C,0.05728*%
%ADD113R,0.05728X0.05728*%
%ADD114C,0.30500*%
%ADD115R,0.08000X0.08000*%
%ADD116C,0.08000*%
%ADD117C,0.07390*%
%ADD118C,0.05224*%
%ADD119R,0.05224X0.05224*%
%ADD120R,0.06760X0.06760*%
%ADD121C,0.06760*%
%ADD158R,0.12936X0.04900*%
D65*
X191000Y308000D02*
D03*
X184000Y315000D02*
D03*
X198000D02*
D03*
X125000Y308000D02*
D03*
X118000Y315000D02*
D03*
X132000D02*
D03*
X158000Y308000D02*
D03*
X151000Y315000D02*
D03*
X165000D02*
D03*
D107*
X30000Y164500D02*
D03*
Y174500D02*
D03*
Y264500D02*
D03*
Y184500D02*
D03*
Y274500D02*
D03*
X90000Y174500D02*
D03*
Y184500D02*
D03*
X30000Y254500D02*
D03*
X90000D02*
D03*
Y274500D02*
D03*
Y264500D02*
D03*
D108*
Y164500D02*
D03*
D109*
X13338Y48000D02*
D03*
Y68000D02*
D03*
D110*
X273000Y83000D02*
D03*
D111*
Y73000D02*
D03*
Y43000D02*
D03*
X253000D02*
D03*
Y73000D02*
D03*
Y83000D02*
D03*
X219000Y102000D02*
D03*
X155925Y74800D02*
D03*
X124846Y101000D02*
D03*
X151500Y258500D02*
D03*
X271200Y227000D02*
D03*
X43160Y34320D02*
D03*
X140847Y101000D02*
D03*
X295500Y248500D02*
D03*
X196500Y230000D02*
D03*
X195000Y264500D02*
D03*
X247957Y230500D02*
D03*
X221000Y199000D02*
D03*
X58000Y116000D02*
D03*
X281653Y217000D02*
D03*
X271000Y102000D02*
D03*
X148000Y50217D02*
D03*
X188850Y28130D02*
D03*
D112*
X117500Y248500D02*
D03*
Y268500D02*
D03*
Y258500D02*
D03*
Y218500D02*
D03*
D113*
Y208500D02*
D03*
D114*
X19500Y20500D02*
D03*
Y328000D02*
D03*
X301000D02*
D03*
Y20500D02*
D03*
D115*
X267299Y21244D02*
D03*
D116*
X251000D02*
D03*
D117*
X256500Y268500D02*
D03*
X236500D02*
D03*
X246500D02*
D03*
D118*
X39299Y100000D02*
D03*
X47173D02*
D03*
X31425D02*
D03*
X70795D02*
D03*
X78669D02*
D03*
X55047D02*
D03*
X62921D02*
D03*
D119*
X23551D02*
D03*
D120*
X66703Y314331D02*
D03*
D121*
X76545D02*
D03*
X86388D02*
D03*
X96231D02*
D03*
D158*
X257468Y21194D02*
D03*
M02*
