%TF.GenerationSoftware,Altium Limited,Altium Designer,20.0.11 (256)*%
G04 Layer_Color=255*
%FSLAX26Y26*%
%MOIN*%
%TF.FileFunction,Pads,Bot*%
%TF.Part,Single*%
G01*
G75*
%TA.AperFunction,ComponentPad*%
%ADD63C,0.060000*%
%ADD64R,0.060000X0.060000*%
%ADD65C,0.061024*%
%ADD66R,0.061024X0.061024*%
%ADD67R,0.052283X0.052283*%
%ADD68C,0.052283*%
%ADD69C,0.300000*%
%ADD70C,0.125000*%
%ADD71C,0.075000*%
%ADD72R,0.075000X0.075000*%
%ADD73C,0.068898*%
%ADD74C,0.047244*%
%ADD75R,0.047244X0.047244*%
%ADD76C,0.062598*%
%ADD77R,0.062598X0.062598*%
%ADD78C,0.040000*%
%ADD79R,0.020000X0.040000*%
%ADD80R,0.020000X0.020000*%
D63*
X900000Y2645000D02*
D03*
Y2745000D02*
D03*
Y2545000D02*
D03*
X300000D02*
D03*
X900000Y1845000D02*
D03*
Y1745000D02*
D03*
X300000Y2745000D02*
D03*
Y1845000D02*
D03*
Y2645000D02*
D03*
Y1745000D02*
D03*
Y1645000D02*
D03*
D64*
X900000D02*
D03*
D65*
X2530000Y830000D02*
D03*
Y730000D02*
D03*
Y430000D02*
D03*
X2730000D02*
D03*
Y730000D02*
D03*
X2190000Y1020000D02*
D03*
X1559252Y748000D02*
D03*
X1164803Y1010000D02*
D03*
X1515000Y2585000D02*
D03*
X2712000Y2270000D02*
D03*
X431604Y343197D02*
D03*
X1408465Y1010000D02*
D03*
X2955000Y2485000D02*
D03*
X1965000Y2300000D02*
D03*
X1950000Y2645000D02*
D03*
X2479571Y2305000D02*
D03*
X2210000Y1990000D02*
D03*
X580000Y1160000D02*
D03*
X2816535Y2170000D02*
D03*
X2710000Y1020000D02*
D03*
X1480000Y502165D02*
D03*
X1888500Y281299D02*
D03*
D66*
X2730000Y830000D02*
D03*
D67*
X1175000Y2085000D02*
D03*
D68*
Y2185000D02*
D03*
Y2585000D02*
D03*
Y2685000D02*
D03*
Y2485000D02*
D03*
D69*
X195000Y205000D02*
D03*
Y3280000D02*
D03*
X3010000D02*
D03*
Y205000D02*
D03*
D70*
X2334996Y212441D02*
D03*
D71*
X2510000D02*
D03*
D72*
X2672992D02*
D03*
D73*
X2465000Y2685000D02*
D03*
X2365000D02*
D03*
X2565000D02*
D03*
D74*
X629212Y1000000D02*
D03*
X550472D02*
D03*
X786693D02*
D03*
X707953D02*
D03*
X314252D02*
D03*
X471732D02*
D03*
X392992D02*
D03*
D75*
X235512D02*
D03*
D76*
X962305Y3143305D02*
D03*
X863880D02*
D03*
X765454D02*
D03*
D77*
X667029D02*
D03*
D78*
X1980000Y3150000D02*
D03*
X1840000D02*
D03*
X1910000Y3080000D02*
D03*
X1320000Y3150000D02*
D03*
X1180000D02*
D03*
X1250000Y3080000D02*
D03*
X1650000Y3150000D02*
D03*
X1510000D02*
D03*
X1580000Y3080000D02*
D03*
D79*
X265134Y744723D02*
D03*
D80*
Y769723D02*
D03*
%TF.MD5,c3246974a85e0188c179957714f0c288*%
M02*
