%TF.GenerationSoftware,Altium Limited,Altium Designer,20.0.11 (256)*%
G04 Layer_Physical_Order=2*
G04 Layer_Color=16711680*
%FSLAX26Y26*%
%MOIN*%
%TF.FileFunction,Copper,L2,Bot,Signal*%
%TF.Part,Single*%
G01*
G75*
%TA.AperFunction,Conductor*%
%ADD51C,0.010000*%
%ADD52C,0.020000*%
%ADD53C,0.030000*%
%ADD54C,0.015000*%
%ADD55C,0.040000*%
%ADD56C,0.008000*%
%ADD57C,0.012000*%
%TA.AperFunction,ComponentPad*%
%ADD63C,0.060000*%
%ADD64R,0.060000X0.060000*%
%ADD65C,0.061024*%
%ADD66R,0.061024X0.061024*%
%ADD67R,0.052283X0.052283*%
%ADD68C,0.052283*%
%ADD69C,0.300000*%
%ADD70C,0.125000*%
%ADD71C,0.075000*%
%ADD72R,0.075000X0.075000*%
%ADD73C,0.068898*%
%ADD74C,0.047244*%
%ADD75R,0.047244X0.047244*%
%ADD76C,0.062598*%
%ADD77R,0.062598X0.062598*%
%ADD78C,0.040000*%
%ADD79R,0.020000X0.040000*%
%ADD80R,0.020000X0.020000*%
%TA.AperFunction,ViaPad*%
%ADD81C,0.019685*%
%ADD82C,0.030000*%
%ADD83C,0.016000*%
%TA.AperFunction,Conductor*%
%ADD84C,0.080000*%
%ADD85R,0.043000X0.041000*%
%ADD86R,0.035000X0.041000*%
%ADD87R,0.571739X0.424226*%
%ADD88R,0.215108X0.156452*%
%ADD89R,0.114578X0.103347*%
G36*
X33664Y3316507D02*
X33966Y3316188D01*
X31061Y3301583D01*
X29646Y3280000D01*
X31061Y3258417D01*
X35280Y3237203D01*
X42233Y3216722D01*
X51799Y3197323D01*
X63816Y3179339D01*
X78077Y3163077D01*
X94339Y3148816D01*
X112323Y3136799D01*
X131722Y3127233D01*
X152203Y3120280D01*
X173417Y3116061D01*
X195000Y3114646D01*
X216583Y3116061D01*
X237797Y3120280D01*
X258278Y3127233D01*
X277677Y3136799D01*
X292686Y3146828D01*
X295874Y3142944D01*
X140465Y2987535D01*
X136928Y2982243D01*
X135686Y2976000D01*
Y2750545D01*
X135290Y2745756D01*
X126316Y2743971D01*
X118708Y2738888D01*
X113625Y2731280D01*
X111840Y2722306D01*
X113625Y2713332D01*
X118708Y2705724D01*
X126316Y2700640D01*
X135290Y2698855D01*
X144264Y2700640D01*
X151872Y2705724D01*
X156956Y2713332D01*
X158741Y2722306D01*
X158678Y2722623D01*
X163535Y2727480D01*
X167072Y2732773D01*
X168314Y2739016D01*
Y2969243D01*
X510159Y3311088D01*
X788243D01*
X847566Y3251765D01*
Y3186662D01*
X840530Y3183747D01*
X830859Y3176326D01*
X823437Y3166654D01*
X818772Y3155392D01*
X817181Y3143305D01*
X818772Y3131218D01*
X823437Y3119956D01*
X830859Y3110284D01*
X840530Y3102863D01*
X851461Y3098335D01*
X852742Y3097473D01*
X854754Y3093708D01*
X851159Y3086419D01*
X846226Y3085604D01*
X807648Y3124183D01*
X810562Y3131218D01*
X812153Y3143305D01*
X810562Y3155392D01*
X805897Y3166654D01*
X798475Y3176326D01*
X788804Y3183747D01*
X777541Y3188412D01*
X765454Y3190004D01*
X753368Y3188412D01*
X742105Y3183747D01*
X732433Y3176326D01*
X725012Y3166654D01*
X720347Y3155392D01*
X718756Y3143305D01*
X720347Y3131218D01*
X725012Y3119956D01*
X732433Y3110284D01*
X742105Y3102863D01*
X753368Y3098198D01*
X765454Y3096606D01*
X777541Y3098198D01*
X784577Y3101112D01*
X973543Y2912146D01*
Y1799784D01*
X943533Y1769773D01*
X937169Y1770481D01*
X932094Y1777094D01*
X922694Y1784307D01*
X911747Y1788842D01*
X900000Y1790388D01*
X888253Y1788842D01*
X883726Y1786967D01*
X883252Y1787277D01*
X881212Y1791920D01*
X880697Y1792413D01*
X880533Y1793108D01*
X875338Y1800309D01*
X875645Y1801082D01*
X881960Y1803765D01*
X888253Y1801158D01*
X892500Y1800599D01*
Y1837500D01*
X855599D01*
D01*
X856158Y1833253D01*
X860693Y1822306D01*
X867596Y1813309D01*
X866856Y1811205D01*
X866496Y1810664D01*
X865969Y1808689D01*
X342694D01*
X340765Y1807890D01*
X338748Y1807353D01*
X333511Y1803346D01*
X332441Y1801498D01*
X331164Y1799789D01*
X329197Y1792054D01*
X329329Y1791143D01*
X328999Y1790284D01*
X329136Y1785053D01*
X324680Y1782783D01*
X322694Y1784307D01*
X311747Y1788842D01*
X300000Y1790388D01*
X288253Y1788842D01*
X283726Y1786967D01*
X283252Y1787277D01*
X281212Y1791920D01*
X280697Y1792413D01*
X280533Y1793108D01*
X275338Y1800309D01*
X275646Y1801082D01*
X281960Y1803765D01*
X288253Y1801158D01*
X292500Y1800599D01*
Y1837500D01*
X255599D01*
D01*
X256158Y1833253D01*
X260693Y1822306D01*
X267596Y1813309D01*
X266856Y1811205D01*
X266497Y1810664D01*
X265969Y1808689D01*
X239181D01*
Y1809981D01*
Y1870626D01*
D01*
X239160Y1870676D01*
X239180Y1870727D01*
X239165Y1871711D01*
X238518Y1913229D01*
D01*
X231652Y2354006D01*
X16314D01*
Y3316885D01*
X20265Y3319949D01*
X33664Y3316507D01*
D02*
G37*
G36*
X3135000Y3473686D02*
Y3473686D01*
X3154081Y3471469D01*
X3167109Y3467517D01*
X3181615Y3459764D01*
X3194329Y3449329D01*
X3204764Y3436615D01*
X3212517Y3422109D01*
X3216469Y3409082D01*
X3218686Y3390000D01*
X3218686Y3390000D01*
X3218686Y3390000D01*
X3218686Y3370000D01*
Y2947725D01*
X3200209Y2940071D01*
X3042450Y3097830D01*
X3049033Y3119532D01*
X3052797Y3120280D01*
X3073278Y3127233D01*
X3092677Y3136799D01*
X3110661Y3148816D01*
X3126923Y3163077D01*
X3141184Y3179339D01*
X3153201Y3197323D01*
X3162767Y3216722D01*
X3169720Y3237203D01*
X3173939Y3258417D01*
X3175354Y3280000D01*
X3173939Y3301583D01*
X3169720Y3322797D01*
X3162767Y3343278D01*
X3153201Y3362677D01*
X3141184Y3380661D01*
X3126923Y3396923D01*
X3110661Y3411184D01*
X3092677Y3423201D01*
X3073278Y3432767D01*
X3052797Y3439720D01*
X3031583Y3443939D01*
X3010000Y3445354D01*
X2988417Y3443939D01*
X2967203Y3439720D01*
X2946722Y3432767D01*
X2927323Y3423201D01*
X2909339Y3411184D01*
X2893077Y3396923D01*
X2878816Y3380661D01*
X2866799Y3362677D01*
X2857233Y3343278D01*
X2850280Y3322797D01*
X2846061Y3301583D01*
X2844646Y3280000D01*
X2846061Y3258417D01*
X2850280Y3237203D01*
X2857233Y3216722D01*
X2866799Y3197323D01*
X2878816Y3179339D01*
X2893077Y3163077D01*
X2909339Y3148816D01*
X2927323Y3136799D01*
X2946722Y3127233D01*
X2967203Y3120280D01*
X2978589Y3118016D01*
Y3110000D01*
X2980218Y3101806D01*
X2984860Y3094860D01*
X3182589Y2897131D01*
Y443640D01*
X3088975Y350026D01*
X3073278Y357767D01*
X3052797Y364720D01*
X3031583Y368939D01*
X3010000Y370354D01*
X2988417Y368939D01*
X2967203Y364720D01*
X2946722Y357767D01*
X2927323Y348201D01*
X2909339Y336184D01*
X2893077Y321923D01*
X2878816Y305661D01*
X2866799Y287677D01*
X2857233Y268278D01*
X2850280Y247797D01*
X2846061Y226583D01*
X2844646Y205000D01*
X2846061Y183417D01*
X2850280Y162203D01*
X2857233Y141722D01*
X2866799Y122323D01*
X2874908Y110188D01*
X2831131Y66411D01*
X363869D01*
X326071Y104210D01*
X326184Y104339D01*
X338201Y122323D01*
X347767Y141722D01*
X354720Y162203D01*
X358939Y183417D01*
X360354Y205000D01*
X358939Y226583D01*
X354720Y247797D01*
X347767Y268278D01*
X338201Y287677D01*
X326184Y305661D01*
X311923Y321923D01*
X295661Y336184D01*
X277677Y348201D01*
X258278Y357767D01*
X237797Y364720D01*
X216583Y368939D01*
X195000Y370354D01*
X173417Y368939D01*
X152203Y364720D01*
X131722Y357767D01*
X112323Y348201D01*
X94339Y336184D01*
X78077Y321923D01*
X63816Y305661D01*
X51799Y287677D01*
X42233Y268278D01*
X35280Y247797D01*
X16314Y252670D01*
Y474375D01*
X36313Y482660D01*
X91151Y427823D01*
X91151Y427822D01*
X100760Y420449D01*
X111950Y415814D01*
X123959Y414233D01*
X318398D01*
Y388509D01*
X320300Y383917D01*
X324892Y382014D01*
X378814D01*
X384589Y374986D01*
X390137Y362014D01*
X387264Y355079D01*
X385700Y343197D01*
X387264Y331317D01*
X391850Y320245D01*
X399145Y310738D01*
X408652Y303443D01*
X419723Y298857D01*
X431604Y297293D01*
X443485Y298857D01*
X447534Y300534D01*
X464370Y291910D01*
X467534Y288191D01*
Y205302D01*
X467534Y205301D01*
X468427Y198514D01*
X471047Y192189D01*
X475215Y186758D01*
X499995Y161977D01*
X505426Y157810D01*
X511751Y155190D01*
X518538Y154296D01*
X525326Y155190D01*
X531651Y157810D01*
X537082Y161977D01*
X541250Y167409D01*
X543869Y173733D01*
X544763Y180521D01*
X543869Y187308D01*
X541250Y193633D01*
X537082Y199064D01*
X519982Y216164D01*
Y382014D01*
X540000D01*
X542888Y383211D01*
X554917D01*
X625430Y312698D01*
X625430Y312697D01*
X630862Y308530D01*
X637186Y305910D01*
X643974Y305016D01*
X643975Y305016D01*
X1049701D01*
X1049702Y305016D01*
X1049703Y305016D01*
X1531658D01*
X1531659Y305016D01*
X1538446Y305910D01*
X1544771Y308530D01*
X1550202Y312697D01*
X1946391Y708886D01*
X2023850D01*
X2030637Y709780D01*
X2035218Y711677D01*
X2044105Y713445D01*
X2051713Y718528D01*
X2056796Y726136D01*
X2058581Y735110D01*
X2056796Y744085D01*
X2051713Y751692D01*
X2044105Y756776D01*
X2035218Y758544D01*
X2030637Y760441D01*
X2023850Y761335D01*
X1935529D01*
X1935529Y761335D01*
X1928741Y760441D01*
X1922416Y757821D01*
X1916985Y753654D01*
X1916985Y753654D01*
X1520796Y357465D01*
X1075926D01*
Y550965D01*
X1075033Y557752D01*
X1072413Y564077D01*
X1068245Y569508D01*
X1062814Y573676D01*
X1056489Y576295D01*
X1049702Y577189D01*
X1042915Y576295D01*
X1036590Y573676D01*
X1031159Y569508D01*
X1026991Y564077D01*
X1024371Y557752D01*
X1023478Y550965D01*
Y357465D01*
X654836D01*
X584323Y427979D01*
X578891Y432146D01*
X572567Y434766D01*
X565779Y435660D01*
X565778Y435660D01*
X546494D01*
Y544961D01*
X545995Y546166D01*
X547828Y559078D01*
X551040Y568530D01*
X556582Y572234D01*
X561665Y579841D01*
X563451Y588816D01*
X561665Y597790D01*
X556582Y605398D01*
X555716Y605976D01*
X554311Y627207D01*
X632423Y705320D01*
X692903D01*
X696489Y699953D01*
X704097Y694870D01*
X713071Y693085D01*
X722045Y694870D01*
X729653Y699953D01*
X734736Y707561D01*
X736521Y716535D01*
X734736Y725510D01*
X729653Y733118D01*
X722045Y738201D01*
X713071Y739986D01*
X704097Y738201D01*
X696489Y733118D01*
X692903Y727751D01*
X627778D01*
X627778Y727751D01*
X623486Y726897D01*
X619847Y724466D01*
X619847Y724466D01*
X532069Y636688D01*
X529638Y633050D01*
X528784Y628758D01*
X528784Y628757D01*
Y608984D01*
X523418Y605398D01*
X518335Y597790D01*
X516549Y588816D01*
X518335Y579841D01*
X523418Y572234D01*
X524583Y571455D01*
X518516Y551455D01*
X324892D01*
X320300Y549553D01*
X318398Y544961D01*
Y507027D01*
X143177D01*
X104861Y545342D01*
Y579860D01*
Y1916792D01*
X231967D01*
X232686Y1870626D01*
Y1808689D01*
X234589Y1804097D01*
X239181Y1802195D01*
X265969D01*
X275266Y1789308D01*
X277306Y1784665D01*
Y1784307D01*
X267906Y1777094D01*
X260693Y1767694D01*
X256158Y1756747D01*
X254612Y1745000D01*
X256158Y1733253D01*
X260693Y1722306D01*
X267906Y1712906D01*
X277306Y1705693D01*
Y1684307D01*
X267906Y1677094D01*
X260693Y1667694D01*
X256158Y1656747D01*
X254612Y1645000D01*
X256158Y1633253D01*
X260693Y1622306D01*
X267906Y1612906D01*
X277306Y1605693D01*
X288253Y1601158D01*
X300000Y1599612D01*
X311747Y1601158D01*
X322694Y1605693D01*
X332094Y1612906D01*
X339307Y1622306D01*
X343842Y1633253D01*
X345388Y1645000D01*
X343842Y1656747D01*
X339307Y1667694D01*
X332094Y1677094D01*
X322694Y1684307D01*
Y1705693D01*
X332094Y1712906D01*
X339307Y1722306D01*
X343842Y1733253D01*
X345388Y1745000D01*
X343842Y1756747D01*
X339307Y1767694D01*
X335972Y1772041D01*
X335491Y1790454D01*
X337458Y1798188D01*
X342694Y1802195D01*
X865969D01*
X875266Y1789308D01*
X877306Y1784665D01*
Y1784307D01*
X867906Y1777094D01*
X860693Y1767694D01*
X856158Y1756747D01*
X854612Y1745000D01*
X856158Y1733253D01*
X860693Y1722306D01*
X867906Y1712906D01*
X871692Y1710000D01*
X864903Y1690000D01*
X855000D01*
Y1600000D01*
X945000D01*
Y1690000D01*
X935097D01*
X928308Y1710000D01*
X932094Y1712906D01*
X939307Y1722306D01*
X941961Y1728713D01*
X948073Y1729928D01*
X953366Y1733465D01*
X1001392Y1781491D01*
X1004928Y1786784D01*
X1006170Y1793026D01*
Y2918903D01*
X1004928Y2925146D01*
X1001392Y2930438D01*
X854110Y3077720D01*
X863452Y3096663D01*
X863880Y3096606D01*
X875966Y3098198D01*
X887229Y3102863D01*
X896901Y3110284D01*
X901654Y3116479D01*
X912941Y3118421D01*
X913243D01*
X924530Y3116479D01*
X929284Y3110284D01*
X938955Y3102863D01*
X950218Y3098198D01*
X962305Y3096606D01*
X974391Y3098198D01*
X985654Y3102863D01*
X995326Y3110284D01*
X1002747Y3119956D01*
X1007412Y3131218D01*
X1009004Y3143305D01*
X1007412Y3155392D01*
X1002747Y3166654D01*
X995326Y3176326D01*
X985654Y3183747D01*
X974391Y3188412D01*
X962305Y3190004D01*
X950218Y3188412D01*
X938955Y3183747D01*
X929284Y3176326D01*
X924530Y3170131D01*
X913243Y3168189D01*
X912941D01*
X901654Y3170131D01*
X896901Y3176326D01*
X887229Y3183747D01*
X880193Y3186662D01*
Y3258522D01*
X878951Y3264765D01*
X875415Y3270057D01*
X806535Y3338937D01*
X801243Y3342473D01*
X795000Y3343715D01*
X503402D01*
X497159Y3342473D01*
X491866Y3338937D01*
X368496Y3215567D01*
X351056Y3226412D01*
X354720Y3237203D01*
X358939Y3258417D01*
X360354Y3280000D01*
X358939Y3301583D01*
X354720Y3322797D01*
X347767Y3343278D01*
X338201Y3362677D01*
X326184Y3380661D01*
X311923Y3396923D01*
X295661Y3411184D01*
X277677Y3423201D01*
X258278Y3432767D01*
X237797Y3439720D01*
X216583Y3443939D01*
X195000Y3445354D01*
X173417Y3443939D01*
X152203Y3439720D01*
X131722Y3432767D01*
X112323Y3423201D01*
X94339Y3411184D01*
X78077Y3396923D01*
X63816Y3380661D01*
X51799Y3362677D01*
X42233Y3343278D01*
X35280Y3322797D01*
X16314Y3327670D01*
Y3390000D01*
X16168Y3390731D01*
X17708Y3406369D01*
X22483Y3422109D01*
X30236Y3436615D01*
X40671Y3449329D01*
X53385Y3459764D01*
X67891Y3467517D01*
X80918Y3471469D01*
X100000Y3473686D01*
Y3473686D01*
X120000Y3473686D01*
X3134999D01*
X3135000Y3473686D01*
D02*
G37*
G36*
X3218686Y412645D02*
Y104973D01*
X3218686Y104924D01*
X3218686Y100000D01*
X3218422Y95109D01*
X3217292Y83631D01*
X3212517Y67891D01*
X3204764Y53386D01*
X3194329Y40671D01*
X3181615Y30236D01*
X3167109Y22483D01*
X3151369Y17708D01*
X3139930Y16582D01*
X3135000Y16314D01*
X3135000Y16314D01*
X3130076Y16314D01*
X100000D01*
X100000Y16314D01*
Y16314D01*
X95109Y16578D01*
X83631Y17708D01*
X67891Y22483D01*
X53385Y30236D01*
X40671Y40671D01*
X30236Y53385D01*
X22483Y67891D01*
X17708Y83631D01*
X16578Y95109D01*
X16314Y100000D01*
X16314D01*
Y241885D01*
X20265Y244949D01*
X33664Y241507D01*
X33966Y241188D01*
X31061Y226583D01*
X30138Y212500D01*
X195000D01*
Y205000D01*
X202500D01*
Y40138D01*
X216583Y41061D01*
X237797Y45280D01*
X258278Y52233D01*
X277677Y61799D01*
X295661Y73816D01*
X295790Y73929D01*
X339860Y29860D01*
X346806Y25218D01*
X355000Y23589D01*
X2840000D01*
X2848194Y25218D01*
X2855140Y29860D01*
X2903882Y78602D01*
X2909339Y73816D01*
X2927323Y61799D01*
X2946722Y52233D01*
X2967203Y45280D01*
X2988417Y41061D01*
X3002500Y40138D01*
Y205000D01*
X3010000D01*
Y212500D01*
X3174862D01*
X3173939Y226583D01*
X3169720Y247797D01*
X3162767Y268278D01*
X3153201Y287677D01*
X3141184Y305661D01*
X3126923Y321923D01*
X3126747Y322077D01*
X3126583Y327075D01*
X3214067Y414558D01*
X3218686Y412645D01*
D02*
G37*
%LPC*%
G36*
X907500Y2789401D02*
Y2752500D01*
X944401D01*
X943842Y2756747D01*
X939307Y2767694D01*
X932094Y2777094D01*
X922694Y2784307D01*
X911747Y2788842D01*
X907500Y2789401D01*
D02*
G37*
G36*
X307500D02*
Y2752500D01*
X344401D01*
X343842Y2756747D01*
X339307Y2767694D01*
X332094Y2777094D01*
X322694Y2784307D01*
X311747Y2788842D01*
X307500Y2789401D01*
D02*
G37*
G36*
X892500D02*
X888253Y2788842D01*
X877306Y2784307D01*
X867906Y2777094D01*
X860693Y2767694D01*
X856158Y2756747D01*
X855599Y2752500D01*
X892500D01*
Y2789401D01*
D02*
G37*
G36*
X292500D02*
X288253Y2788842D01*
X277306Y2784307D01*
X267906Y2777094D01*
X260693Y2767694D01*
X256158Y2756747D01*
X255599Y2752500D01*
X292500D01*
Y2789401D01*
D02*
G37*
G36*
X944401Y2737500D02*
X907500D01*
Y2700599D01*
X911747Y2701158D01*
X922694Y2705693D01*
X932094Y2712906D01*
X939307Y2722306D01*
X943842Y2733253D01*
X944401Y2737500D01*
D02*
G37*
G36*
X344401D02*
X307500D01*
Y2700599D01*
X311747Y2701158D01*
X322694Y2705693D01*
X332094Y2712906D01*
X339307Y2722306D01*
X343842Y2733253D01*
X344401Y2737500D01*
D02*
G37*
G36*
X892500D02*
X855599D01*
X856158Y2733253D01*
X860693Y2722306D01*
X867906Y2712906D01*
X877306Y2705693D01*
X888253Y2701158D01*
X892500Y2700599D01*
Y2737500D01*
D02*
G37*
G36*
X292500D02*
X255599D01*
X256158Y2733253D01*
X260693Y2722306D01*
X267906Y2712906D01*
X277306Y2705693D01*
X288253Y2701158D01*
X292500Y2700599D01*
Y2737500D01*
D02*
G37*
G36*
X713328Y3189604D02*
X620730D01*
Y3097006D01*
X650687D01*
Y2748757D01*
X563243Y2661314D01*
X341950D01*
X339307Y2667694D01*
X332094Y2677094D01*
X322694Y2684307D01*
X311747Y2688842D01*
X300000Y2690388D01*
X288253Y2688842D01*
X277306Y2684307D01*
X267906Y2677094D01*
X260693Y2667694D01*
X256158Y2656747D01*
X254612Y2645000D01*
X256158Y2633253D01*
X260693Y2622306D01*
X267906Y2612906D01*
X277306Y2605693D01*
X288253Y2601158D01*
X300000Y2599612D01*
X311747Y2601158D01*
X322694Y2605693D01*
X332094Y2612906D01*
X339307Y2622306D01*
X341950Y2628686D01*
X570000D01*
X576243Y2629928D01*
X581535Y2633465D01*
X678535Y2730465D01*
X682072Y2735757D01*
X683313Y2742000D01*
Y3097006D01*
X713328D01*
Y3189604D01*
D02*
G37*
G36*
X900000Y2690388D02*
X888253Y2688842D01*
X877306Y2684307D01*
X867906Y2677094D01*
X860693Y2667694D01*
X856158Y2656747D01*
X854612Y2645000D01*
X856158Y2633253D01*
X860693Y2622306D01*
X867906Y2612906D01*
X877306Y2605693D01*
X888253Y2601158D01*
X900000Y2599612D01*
X911747Y2601158D01*
X922694Y2605693D01*
X932094Y2612906D01*
X939307Y2622306D01*
X943842Y2633253D01*
X945388Y2645000D01*
X943842Y2656747D01*
X939307Y2667694D01*
X932094Y2677094D01*
X922694Y2684307D01*
X911747Y2688842D01*
X900000Y2690388D01*
D02*
G37*
G36*
X907500Y2589401D02*
Y2552500D01*
X944401D01*
X943842Y2556747D01*
X939307Y2567694D01*
X932094Y2577094D01*
X922694Y2584307D01*
X911747Y2588842D01*
X907500Y2589401D01*
D02*
G37*
G36*
X307500D02*
Y2552500D01*
X344401D01*
X343842Y2556747D01*
X339307Y2567694D01*
X332094Y2577094D01*
X322694Y2584307D01*
X311747Y2588842D01*
X307500Y2589401D01*
D02*
G37*
G36*
X892500D02*
X888253Y2588842D01*
X877306Y2584307D01*
X867906Y2577094D01*
X860693Y2567694D01*
X856158Y2556747D01*
X855599Y2552500D01*
X892500D01*
Y2589401D01*
D02*
G37*
G36*
X292500D02*
X288253Y2588842D01*
X277306Y2584307D01*
X267906Y2577094D01*
X260693Y2567694D01*
X256158Y2556747D01*
X255599Y2552500D01*
X292500D01*
Y2589401D01*
D02*
G37*
G36*
X944401Y2537500D02*
X907500D01*
Y2500599D01*
X911747Y2501158D01*
X922694Y2505693D01*
X932094Y2512906D01*
X939307Y2522306D01*
X943842Y2533253D01*
X944401Y2537500D01*
D02*
G37*
G36*
X344401D02*
X307500D01*
Y2500599D01*
X311747Y2501158D01*
X322694Y2505693D01*
X332094Y2512906D01*
X339307Y2522306D01*
X343842Y2533253D01*
X344401Y2537500D01*
D02*
G37*
G36*
X892500D02*
X855599D01*
X856158Y2533253D01*
X860693Y2522306D01*
X867906Y2512906D01*
X877306Y2505693D01*
X888253Y2501158D01*
X892500Y2500599D01*
Y2537500D01*
D02*
G37*
G36*
X292500D02*
X255599D01*
X256158Y2533253D01*
X260693Y2522306D01*
X267906Y2512906D01*
X277306Y2505693D01*
X288253Y2501158D01*
X292500Y2500599D01*
Y2537500D01*
D02*
G37*
G36*
X907500Y1889401D02*
Y1852500D01*
X944401D01*
X943842Y1856747D01*
X939307Y1867694D01*
X932094Y1877094D01*
X922694Y1884307D01*
X911747Y1888842D01*
X907500Y1889401D01*
D02*
G37*
G36*
X307500D02*
Y1852500D01*
X344401D01*
X343842Y1856747D01*
X339307Y1867694D01*
X332094Y1877094D01*
X322694Y1884307D01*
X311747Y1888842D01*
X307500Y1889401D01*
D02*
G37*
G36*
X892500D02*
X888253Y1888842D01*
X877306Y1884307D01*
X867906Y1877094D01*
X860693Y1867694D01*
X856158Y1856747D01*
X855599Y1852500D01*
X892500D01*
Y1889401D01*
D02*
G37*
G36*
X292500D02*
X288253Y1888842D01*
X277306Y1884307D01*
X267906Y1877094D01*
X260693Y1867694D01*
X256158Y1856747D01*
X255599Y1852500D01*
X292500D01*
Y1889401D01*
D02*
G37*
G36*
X944401Y1837500D02*
D01*
X907500D01*
Y1800599D01*
X911747Y1801158D01*
X922694Y1805693D01*
X932094Y1812906D01*
X939307Y1822306D01*
X943842Y1833253D01*
X944401Y1837500D01*
D02*
G37*
G36*
X344401D02*
X307500D01*
Y1800599D01*
X311747Y1801158D01*
X322694Y1805693D01*
X332094Y1812906D01*
X332696Y1813689D01*
X339307Y1822306D01*
X343842Y1833253D01*
X344401Y1837500D01*
D02*
G37*
G36*
X1832500Y3184315D02*
X1830863Y3184099D01*
X1822349Y3180572D01*
X1815038Y3174962D01*
X1809428Y3167651D01*
X1805901Y3159137D01*
X1805685Y3157500D01*
X1832500D01*
Y3184315D01*
D02*
G37*
G36*
X1517500D02*
Y3157500D01*
X1544315D01*
X1544099Y3159137D01*
X1540572Y3167651D01*
X1534962Y3174962D01*
X1527651Y3180572D01*
X1519137Y3184099D01*
X1517500Y3184315D01*
D02*
G37*
G36*
X1502500D02*
X1500863Y3184099D01*
X1492349Y3180572D01*
X1485038Y3174962D01*
X1479428Y3167651D01*
X1475901Y3159137D01*
X1475685Y3157500D01*
X1502500D01*
Y3184315D01*
D02*
G37*
G36*
X1172500D02*
X1170863Y3184099D01*
X1162349Y3180572D01*
X1155038Y3174962D01*
X1149428Y3167651D01*
X1145901Y3159137D01*
X1145685Y3157500D01*
X1172500D01*
Y3184315D01*
D02*
G37*
G36*
X1980000Y3185302D02*
X1970863Y3184099D01*
X1962349Y3180572D01*
X1955038Y3174962D01*
X1949428Y3167651D01*
X1948874Y3166314D01*
X1915000D01*
X1908757Y3165072D01*
X1903465Y3161535D01*
X1895062Y3153133D01*
X1874099Y3159137D01*
X1870572Y3167651D01*
X1864962Y3174962D01*
X1857651Y3180572D01*
X1849137Y3184099D01*
X1847500Y3184315D01*
Y3150000D01*
X1840000D01*
Y3142500D01*
X1805685D01*
X1805901Y3140863D01*
X1809428Y3132349D01*
X1815038Y3125038D01*
X1822349Y3119428D01*
X1830863Y3115901D01*
X1836867Y3094938D01*
X1770174Y3028245D01*
X1769797Y3028111D01*
X1767264Y3025831D01*
X1765153Y3024353D01*
X1763254Y3023404D01*
X1761560Y3022896D01*
X1760000Y3022740D01*
X1758439Y3022896D01*
X1756746Y3023404D01*
X1754847Y3024354D01*
X1752736Y3025831D01*
X1750202Y3028111D01*
X1749826Y3028245D01*
X1676213Y3101858D01*
X1675614Y3103086D01*
X1674962Y3125038D01*
X1680572Y3132349D01*
X1684099Y3140863D01*
X1685302Y3150000D01*
X1684099Y3159137D01*
X1680572Y3167651D01*
X1674962Y3174962D01*
X1667651Y3180572D01*
X1659137Y3184099D01*
X1650000Y3185302D01*
X1640863Y3184099D01*
X1632349Y3180572D01*
X1625038Y3174962D01*
X1619428Y3167651D01*
X1615901Y3159137D01*
X1614698Y3150000D01*
X1615901Y3140863D01*
X1619428Y3132349D01*
X1625038Y3125038D01*
X1632349Y3119428D01*
X1633687Y3118874D01*
Y3105000D01*
X1634928Y3098757D01*
X1638465Y3093464D01*
X1730955Y3000974D01*
X1731104Y3000575D01*
X1733625Y2997867D01*
X1735720Y2995249D01*
X1737552Y2992553D01*
X1739129Y2989776D01*
X1740459Y2986906D01*
X1741548Y2983936D01*
X1742397Y2980857D01*
X1743007Y2977655D01*
X1743377Y2974324D01*
X1743510Y2970625D01*
X1743686Y2970238D01*
Y2818457D01*
X1740107Y2799961D01*
X1084966Y2796494D01*
X1082693Y2795539D01*
X1080408Y2794592D01*
X1080401Y2794575D01*
X1080384Y2794568D01*
X1079453Y2792287D01*
X1078506Y2790000D01*
Y2085000D01*
X1080408Y2080408D01*
X1119567Y2041248D01*
X1119567Y2041248D01*
X1119568Y2041248D01*
X1122438Y2038378D01*
X1122438Y2038378D01*
X1122882Y2038193D01*
X1123128Y2037779D01*
X1123128D01*
X1125124Y2037265D01*
X1127030Y2036476D01*
X1127562Y2036638D01*
X1127941Y2036540D01*
X1127943Y2036540D01*
X1134133Y2037418D01*
X1134135Y2037418D01*
X1134472Y2037617D01*
X1135028Y2037609D01*
X1136639Y2038897D01*
X1138414Y2039945D01*
X1138415Y2039946D01*
X1138534Y2040412D01*
X1138910Y2040712D01*
X1138911Y2040713D01*
X1139546Y2041865D01*
X1139546Y2041865D01*
X1139727Y2043489D01*
X1139880Y2043858D01*
X1209647D01*
X1209647Y2043858D01*
X1209648Y2043857D01*
X1210409Y2042021D01*
X1210857Y2040083D01*
X1210858Y2040082D01*
X1213613Y2036225D01*
X1214091Y2035927D01*
X1214306Y2035408D01*
X1216143Y2034647D01*
X1217829Y2033595D01*
X1217831Y2033594D01*
X1218379Y2033721D01*
X1218898Y2033506D01*
X1218898Y2033505D01*
X1225106Y2033506D01*
X1889184Y2033505D01*
X1900000Y2033505D01*
X1900001Y2033506D01*
X1904592Y2035408D01*
X1906494Y2039999D01*
X1906495Y2040000D01*
X1906494Y2050815D01*
Y2262116D01*
X1924262Y2275444D01*
X1926494Y2275420D01*
X1932541Y2267541D01*
X1942048Y2260245D01*
X1953119Y2255660D01*
X1965000Y2254095D01*
X1976881Y2255660D01*
X1987952Y2260245D01*
X1997459Y2267541D01*
X2004755Y2277048D01*
X2009340Y2288119D01*
X2010905Y2300000D01*
X2009340Y2311881D01*
X2004755Y2322952D01*
X1997459Y2332459D01*
X1987952Y2339755D01*
X1976881Y2344340D01*
X1965000Y2345905D01*
X1953119Y2344340D01*
X1942048Y2339755D01*
X1932541Y2332459D01*
X1926494Y2324580D01*
X1924262Y2324556D01*
X1906494Y2337884D01*
X1906494Y2595807D01*
X1926494Y2605670D01*
X1927048Y2605245D01*
X1938119Y2600660D01*
X1942500Y2600083D01*
Y2645000D01*
Y2689917D01*
X1938119Y2689340D01*
X1927048Y2684755D01*
X1926494Y2684330D01*
X1906494Y2694193D01*
X1906495Y2784697D01*
X1906495Y2790767D01*
X1906494Y2790767D01*
X1906491Y2790776D01*
X1906495Y2790784D01*
X1906494Y2790785D01*
X1905546Y2793058D01*
X1905545Y2793058D01*
X1904592Y2795359D01*
X1904582Y2795366D01*
X1904580Y2795372D01*
X1904579Y2795372D01*
X1901036Y2798897D01*
X1901035Y2798898D01*
X1901030Y2798900D01*
X1901023Y2798910D01*
X1898730Y2799845D01*
X1898729Y2799846D01*
X1896439Y2800787D01*
X1896438Y2800788D01*
X1896430Y2800784D01*
X1896421Y2800787D01*
X1896421Y2800788D01*
X1890632Y2800757D01*
X1890632Y2800757D01*
X1890335Y2800755D01*
X1790493Y2800227D01*
X1776313Y2814332D01*
Y2970238D01*
X1776490Y2970625D01*
X1776623Y2974323D01*
X1776993Y2977655D01*
X1777603Y2980857D01*
X1778452Y2983936D01*
X1779541Y2986906D01*
X1780871Y2989775D01*
X1782448Y2992553D01*
X1784280Y2995249D01*
X1786374Y2997866D01*
X1788896Y3000575D01*
X1789044Y3000974D01*
X1856164Y3068093D01*
X1859893Y3068617D01*
X1879216Y3062861D01*
X1879428Y3062349D01*
X1885038Y3055038D01*
X1892349Y3049428D01*
X1900863Y3045901D01*
X1910000Y3044698D01*
X1919137Y3045901D01*
X1927651Y3049428D01*
X1934962Y3055038D01*
X1940572Y3062349D01*
X1944099Y3070863D01*
X1945302Y3080000D01*
X1944099Y3089137D01*
X1940572Y3097651D01*
X1934962Y3104962D01*
X1927651Y3110572D01*
X1934079Y3122719D01*
X1950624Y3124549D01*
X1957566Y3123098D01*
X1962349Y3119428D01*
X1970863Y3115901D01*
X1980000Y3114698D01*
X1989137Y3115901D01*
X1997651Y3119428D01*
X2004962Y3125038D01*
X2010572Y3132349D01*
X2014099Y3140863D01*
X2015302Y3150000D01*
X2014099Y3159137D01*
X2010572Y3167651D01*
X2004962Y3174962D01*
X1997651Y3180572D01*
X1989137Y3184099D01*
X1980000Y3185302D01*
D02*
G37*
G36*
X1544315Y3142500D02*
X1517500D01*
Y3115685D01*
X1519137Y3115901D01*
X1527651Y3119428D01*
X1534962Y3125038D01*
X1540572Y3132349D01*
X1544099Y3140863D01*
X1544315Y3142500D01*
D02*
G37*
G36*
X1502500D02*
X1475685D01*
X1475901Y3140863D01*
X1479428Y3132349D01*
X1485038Y3125038D01*
X1492349Y3119428D01*
X1500863Y3115901D01*
X1502500Y3115685D01*
Y3142500D01*
D02*
G37*
G36*
X1172500D02*
X1145685D01*
X1145901Y3140863D01*
X1149428Y3132349D01*
X1155038Y3125038D01*
X1162349Y3119428D01*
X1170863Y3115901D01*
X1172500Y3115685D01*
Y3142500D01*
D02*
G37*
G36*
X1580000Y3115302D02*
X1570863Y3114099D01*
X1562349Y3110572D01*
X1555038Y3104962D01*
X1549428Y3097651D01*
X1545901Y3089137D01*
X1544698Y3080000D01*
X1545901Y3070863D01*
X1549428Y3062349D01*
X1555038Y3055038D01*
X1562349Y3049428D01*
X1570863Y3045901D01*
X1580000Y3044698D01*
X1589137Y3045901D01*
X1597651Y3049428D01*
X1604962Y3055038D01*
X1610572Y3062349D01*
X1614099Y3070863D01*
X1615302Y3080000D01*
X1614099Y3089137D01*
X1610572Y3097651D01*
X1604962Y3104962D01*
X1597651Y3110572D01*
X1589137Y3114099D01*
X1580000Y3115302D01*
D02*
G37*
G36*
X2565000Y2734876D02*
X2552091Y2733176D01*
X2540062Y2728193D01*
X2529733Y2720267D01*
X2527025Y2716738D01*
X2522949Y2715266D01*
X2507051D01*
X2502975Y2716738D01*
X2500267Y2720267D01*
X2489938Y2728193D01*
X2477909Y2733176D01*
X2465000Y2734876D01*
X2452091Y2733176D01*
X2440062Y2728193D01*
X2429733Y2720267D01*
X2427025Y2716738D01*
X2422949Y2715266D01*
X2407051D01*
X2402975Y2716738D01*
X2400267Y2720267D01*
X2389938Y2728193D01*
X2377909Y2733176D01*
X2365000Y2734876D01*
X2352091Y2733176D01*
X2340062Y2728193D01*
X2329733Y2720267D01*
X2321807Y2709938D01*
X2316824Y2697909D01*
X2315124Y2685000D01*
X2316824Y2672091D01*
X2321807Y2660062D01*
X2329733Y2649733D01*
X2340062Y2641807D01*
X2352091Y2636824D01*
X2365000Y2635124D01*
X2377909Y2636824D01*
X2389938Y2641807D01*
X2400267Y2649733D01*
X2402975Y2653262D01*
X2407051Y2654734D01*
X2422949D01*
X2427025Y2653262D01*
X2429733Y2649733D01*
X2440062Y2641807D01*
X2452091Y2636824D01*
X2465000Y2635124D01*
X2477909Y2636824D01*
X2489938Y2641807D01*
X2500267Y2649733D01*
X2502975Y2653262D01*
X2507051Y2654734D01*
X2522949D01*
X2527025Y2653262D01*
X2529733Y2649733D01*
X2540062Y2641807D01*
X2552091Y2636824D01*
X2565000Y2635124D01*
X2577909Y2636824D01*
X2589938Y2641807D01*
X2600267Y2649733D01*
X2608193Y2660062D01*
X2613176Y2672091D01*
X2614876Y2685000D01*
X2613176Y2697909D01*
X2608193Y2709938D01*
X2600267Y2720267D01*
X2589938Y2728193D01*
X2577909Y2733176D01*
X2565000Y2734876D01*
D02*
G37*
G36*
X1957500Y2689917D02*
Y2652500D01*
X1994917D01*
X1994340Y2656881D01*
X1989755Y2667952D01*
X1982459Y2677459D01*
X1972952Y2684755D01*
X1961881Y2689340D01*
X1957500Y2689917D01*
D02*
G37*
G36*
X1994917Y2637500D02*
X1957500D01*
Y2600083D01*
X1961881Y2600660D01*
X1972952Y2605245D01*
X1982459Y2612541D01*
X1989755Y2622048D01*
X1994340Y2633119D01*
X1994917Y2637500D01*
D02*
G37*
G36*
X2785566Y2641115D02*
X2776592Y2639330D01*
X2768984Y2634247D01*
X2763901Y2626639D01*
X2762115Y2617664D01*
X2763901Y2608690D01*
X2768984Y2601082D01*
X2776186Y2596270D01*
Y2517047D01*
X2716330Y2457191D01*
X2710000Y2458451D01*
X2701026Y2456666D01*
X2693418Y2451582D01*
X2688334Y2443974D01*
X2686549Y2435000D01*
X2687501Y2430216D01*
X2679853Y2416085D01*
X2674845Y2410215D01*
X2415836D01*
X2411582Y2416582D01*
X2403974Y2421666D01*
X2395000Y2423451D01*
X2386026Y2421666D01*
X2378418Y2416582D01*
X2360585Y2425276D01*
X2317191Y2468670D01*
X2318451Y2475000D01*
X2316666Y2483974D01*
X2311582Y2491582D01*
X2303974Y2496666D01*
X2295000Y2498451D01*
X2286026Y2496666D01*
X2278418Y2491582D01*
X2273334Y2483974D01*
X2271549Y2475000D01*
X2273334Y2466026D01*
X2278418Y2458418D01*
X2286026Y2453334D01*
X2295000Y2451549D01*
X2301330Y2452809D01*
X2358242Y2395896D01*
X2358243Y2395896D01*
X2361881Y2393465D01*
X2366173Y2392611D01*
X2373019D01*
X2373334Y2391026D01*
X2378418Y2383418D01*
X2386026Y2378334D01*
X2395000Y2376549D01*
X2403974Y2378334D01*
X2411582Y2383418D01*
X2414500Y2387785D01*
X2795500D01*
X2798418Y2383418D01*
X2806026Y2378334D01*
X2815000Y2376549D01*
X2823974Y2378334D01*
X2831582Y2383418D01*
X2836666Y2391026D01*
X2838451Y2400000D01*
X2836666Y2408974D01*
X2831582Y2416582D01*
X2823974Y2421666D01*
X2815000Y2423451D01*
X2806026Y2421666D01*
X2798418Y2416582D01*
X2794164Y2410215D01*
X2745155D01*
X2740147Y2416085D01*
X2732499Y2430216D01*
X2733451Y2435000D01*
X2732191Y2441330D01*
X2795332Y2504471D01*
X2797763Y2508110D01*
X2798617Y2512402D01*
X2798617Y2512402D01*
Y2598723D01*
X2802148Y2601082D01*
X2807231Y2608690D01*
X2809017Y2617664D01*
X2807231Y2626639D01*
X2802148Y2634247D01*
X2794540Y2639330D01*
X2785566Y2641115D01*
D02*
G37*
G36*
X2712000Y2315905D02*
X2700119Y2314340D01*
X2689048Y2309755D01*
X2679541Y2302459D01*
X2672245Y2292952D01*
X2667660Y2281881D01*
X2666095Y2270000D01*
X2667660Y2258119D01*
X2672245Y2247048D01*
X2679541Y2237541D01*
X2689048Y2230245D01*
X2700119Y2225660D01*
X2712000Y2224095D01*
X2723881Y2225660D01*
X2734952Y2230245D01*
X2744459Y2237541D01*
X2751755Y2247048D01*
X2756340Y2258119D01*
X2757905Y2270000D01*
X2756340Y2281881D01*
X2751755Y2292952D01*
X2744459Y2302459D01*
X2734952Y2309755D01*
X2723881Y2314340D01*
X2712000Y2315905D01*
D02*
G37*
G36*
X1335000Y3311314D02*
X1328757Y3310072D01*
X1323465Y3306535D01*
X1238465Y3221535D01*
X1234928Y3216243D01*
X1233687Y3210000D01*
Y3174636D01*
X1220449Y3160119D01*
X1214099Y3159137D01*
X1213819Y3159814D01*
X1210572Y3167651D01*
X1204962Y3174962D01*
X1197651Y3180572D01*
X1189137Y3184099D01*
X1187500Y3184315D01*
Y3150000D01*
Y3115685D01*
X1189137Y3115901D01*
X1197651Y3119428D01*
X1204962Y3125038D01*
X1210572Y3132349D01*
X1213819Y3140186D01*
X1214099Y3140863D01*
X1220450Y3139881D01*
X1233687Y3125364D01*
Y3111126D01*
X1232349Y3110572D01*
X1225038Y3104962D01*
X1219428Y3097651D01*
X1215901Y3089137D01*
X1214698Y3080000D01*
X1215901Y3070863D01*
X1219428Y3062349D01*
X1225038Y3055038D01*
X1232349Y3049428D01*
X1240863Y3045901D01*
X1250000Y3044698D01*
X1259137Y3045901D01*
X1267651Y3049428D01*
X1274962Y3055038D01*
X1280572Y3062349D01*
X1284099Y3070863D01*
X1285302Y3080000D01*
X1284099Y3089137D01*
X1280572Y3097651D01*
X1274962Y3104962D01*
X1267651Y3110572D01*
X1266313Y3111126D01*
Y3125364D01*
X1279551Y3139881D01*
X1285901Y3140863D01*
X1286181Y3140186D01*
X1289428Y3132349D01*
X1295038Y3125038D01*
X1302349Y3119428D01*
X1310863Y3115901D01*
X1320000Y3114698D01*
X1329137Y3115901D01*
X1337651Y3119428D01*
X1344962Y3125038D01*
X1350572Y3132349D01*
X1354099Y3140863D01*
X1355302Y3150000D01*
X1354099Y3159137D01*
X1350572Y3167651D01*
X1344962Y3174962D01*
X1337651Y3180572D01*
X1329137Y3184099D01*
X1320000Y3185302D01*
X1310863Y3184099D01*
X1302349Y3180572D01*
X1295038Y3174962D01*
X1289428Y3167651D01*
X1286181Y3159814D01*
X1285901Y3159137D01*
X1279551Y3160119D01*
X1266313Y3174636D01*
Y3203243D01*
X1341757Y3278686D01*
X2113243D01*
X2208686Y3183243D01*
Y2825000D01*
Y2390000D01*
X2209928Y2383757D01*
X2213465Y2378465D01*
X2296144Y2295785D01*
X2301437Y2292249D01*
X2307680Y2291007D01*
X2436106D01*
X2439817Y2282048D01*
X2447112Y2272541D01*
X2456619Y2265245D01*
X2467690Y2260660D01*
X2479571Y2259095D01*
X2491452Y2260660D01*
X2502523Y2265245D01*
X2512030Y2272541D01*
X2519326Y2282048D01*
X2519479Y2282419D01*
X2541514Y2285415D01*
X2618844Y2208085D01*
Y2067000D01*
X2602023Y2054530D01*
X2565496D01*
X2561594Y2053754D01*
X2558286Y2051544D01*
X2549232Y2042490D01*
X2528435Y2043810D01*
X2526582Y2046582D01*
X2518974Y2051666D01*
X2510000Y2053451D01*
X2501026Y2051666D01*
X2493418Y2046582D01*
X2488334Y2038974D01*
X2486549Y2030000D01*
X2488334Y2021026D01*
X2478421Y2001216D01*
X2254428D01*
X2254340Y2001881D01*
X2249755Y2012952D01*
X2242459Y2022459D01*
X2232952Y2029755D01*
X2221881Y2034340D01*
X2210000Y2035905D01*
X2198119Y2034340D01*
X2191480Y2031591D01*
X2129400Y2093671D01*
Y2753238D01*
X2129669Y2753418D01*
X2134752Y2761026D01*
X2136537Y2770000D01*
X2134752Y2778974D01*
X2129669Y2786582D01*
X2122061Y2791666D01*
X2113087Y2793451D01*
X2104113Y2791666D01*
X2096505Y2786582D01*
X2091421Y2778974D01*
X2089636Y2770000D01*
X2091421Y2761026D01*
X2096505Y2753418D01*
X2096773Y2753238D01*
Y2086913D01*
X2098015Y2080670D01*
X2101551Y2075378D01*
X2168410Y2008520D01*
X2165660Y2001881D01*
X2164095Y1990000D01*
X2165660Y1978119D01*
X2170245Y1967048D01*
X2177541Y1957541D01*
X2187048Y1950245D01*
X2198119Y1945660D01*
X2210000Y1944095D01*
X2221881Y1945660D01*
X2232952Y1950245D01*
X2242459Y1957541D01*
X2249755Y1967048D01*
X2254340Y1978119D01*
X2254428Y1978784D01*
X2544999D01*
X2545000Y1978784D01*
X2549292Y1979638D01*
X2552931Y1982069D01*
X2562930Y1992069D01*
X2565362Y1995708D01*
X2565420Y1996001D01*
X2583126Y2013707D01*
X2600005D01*
X2616394Y2006918D01*
X2623689Y1987425D01*
X2619302Y1977002D01*
X2615814Y1971475D01*
X2612781Y1968660D01*
X2587508D01*
X2582916Y1966758D01*
X2581014Y1962166D01*
Y1858819D01*
X2582916Y1854227D01*
X2587508Y1852324D01*
X2637334D01*
X2638038Y1851854D01*
X2645000Y1850469D01*
X2651962Y1851854D01*
X2652666Y1852324D01*
X2694021D01*
X2702743Y1841170D01*
X2694074Y1821764D01*
X2584237D01*
X2532789Y1873212D01*
X2533451Y1876535D01*
X2531666Y1885510D01*
X2526582Y1893118D01*
X2518974Y1898201D01*
X2510000Y1899986D01*
X2501026Y1898201D01*
X2493418Y1893118D01*
X2488334Y1885510D01*
X2486549Y1876535D01*
X2488334Y1867561D01*
X2493418Y1859953D01*
X2501026Y1854870D01*
X2510000Y1853085D01*
X2513323Y1853746D01*
X2568802Y1798267D01*
X2573268Y1795283D01*
X2578535Y1794236D01*
X2741535D01*
X2743418Y1791418D01*
X2751026Y1786334D01*
X2760000Y1784549D01*
X2768974Y1786334D01*
X2776582Y1791418D01*
X2781666Y1799026D01*
X2783451Y1808000D01*
X2800019Y1822765D01*
X2939923D01*
X2942827Y1818418D01*
X2950435Y1813334D01*
X2959410Y1811549D01*
X2968384Y1813334D01*
X2975992Y1818418D01*
X2981075Y1826026D01*
X2982860Y1835000D01*
X2981075Y1843974D01*
X2975992Y1851582D01*
X2968384Y1856666D01*
X2959410Y1858451D01*
X2950052Y1876981D01*
X2966535Y1893465D01*
X2970072Y1898757D01*
X2971314Y1905000D01*
Y2305000D01*
Y2442496D01*
X2977952Y2445245D01*
X2987459Y2452541D01*
X2994755Y2462048D01*
X2999340Y2473119D01*
X3000905Y2485000D01*
X2999340Y2496881D01*
X2994755Y2507952D01*
X2987459Y2517459D01*
X2977952Y2524755D01*
X2971314Y2527504D01*
Y2935000D01*
X2970072Y2941243D01*
X2966535Y2946535D01*
X2821535Y3091535D01*
X2816243Y3095072D01*
X2810000Y3096314D01*
X2496762D01*
X2496582Y3096582D01*
X2488974Y3101666D01*
X2480000Y3103451D01*
X2471026Y3101666D01*
X2463418Y3096582D01*
X2458334Y3088974D01*
X2456549Y3080000D01*
X2458334Y3071026D01*
X2463418Y3063418D01*
X2471026Y3058334D01*
X2480000Y3056549D01*
X2488974Y3058334D01*
X2496582Y3063418D01*
X2496762Y3063686D01*
X2803243D01*
X2938686Y2928243D01*
Y2527504D01*
X2932048Y2524755D01*
X2922541Y2517459D01*
X2915245Y2507952D01*
X2910660Y2496881D01*
X2909095Y2485000D01*
X2910660Y2473119D01*
X2915245Y2462048D01*
X2922541Y2452541D01*
X2932048Y2445245D01*
X2938686Y2442496D01*
Y2305000D01*
Y1983573D01*
X2937506Y1981517D01*
X2920000Y1968451D01*
X2911026Y1966666D01*
X2903418Y1961582D01*
X2898334Y1953974D01*
X2896549Y1945000D01*
X2898334Y1936026D01*
X2903418Y1928418D01*
X2908785Y1924832D01*
Y1905483D01*
X2901765Y1898464D01*
X2788907D01*
X2784191Y1903677D01*
X2776008Y1918464D01*
X2776314Y1920000D01*
X2789248Y1934602D01*
X2791934Y1936186D01*
X2823206D01*
X2823207Y1936186D01*
X2827499Y1937040D01*
X2831137Y1939471D01*
X2850466Y1958800D01*
X2850466Y1958800D01*
X2852897Y1962438D01*
X2853751Y1966730D01*
X2853751Y1966731D01*
Y2065345D01*
X2858350Y2068418D01*
X2863433Y2076026D01*
X2865218Y2085000D01*
X2863433Y2093974D01*
X2858350Y2101582D01*
X2853796Y2104625D01*
X2850742Y2106666D01*
X2849407Y2107151D01*
X2844439Y2109722D01*
X2839775Y2112676D01*
X2843227Y2133115D01*
X2848995Y2137541D01*
X2856290Y2147048D01*
X2860876Y2158119D01*
X2862440Y2170000D01*
X2860876Y2181881D01*
X2856290Y2192952D01*
X2848995Y2202459D01*
X2839488Y2209755D01*
X2828416Y2214340D01*
X2816535Y2215905D01*
X2804654Y2214340D01*
X2793583Y2209755D01*
X2784076Y2202459D01*
X2776781Y2192952D01*
X2772195Y2181881D01*
X2770631Y2170000D01*
X2772195Y2158119D01*
X2776781Y2147048D01*
X2784076Y2137541D01*
X2793583Y2130245D01*
X2804654Y2125660D01*
X2813804Y2124455D01*
X2818398Y2119249D01*
X2824251Y2104015D01*
X2823825Y2099545D01*
X2820102Y2093974D01*
X2818317Y2085000D01*
X2820102Y2076026D01*
X2825186Y2068418D01*
X2831320Y2064319D01*
Y1986678D01*
X2811320Y1984708D01*
X2810969Y1986474D01*
X2805885Y1994082D01*
X2798277Y1999165D01*
X2789303Y2000950D01*
X2780329Y1999165D01*
X2772721Y1994082D01*
X2769135Y1988715D01*
X2666892D01*
X2664862Y1990049D01*
X2662681Y2010039D01*
X2669746Y2018433D01*
X2675989Y2019675D01*
X2681282Y2023211D01*
X2684818Y2028503D01*
X2686060Y2034746D01*
X2684818Y2040989D01*
X2681282Y2046282D01*
X2675989Y2049818D01*
X2669746Y2051060D01*
X2668166Y2050745D01*
X2667367Y2051544D01*
X2664059Y2053755D01*
X2651471Y2067000D01*
Y2214843D01*
X2650229Y2221086D01*
X2646693Y2226378D01*
X2646599Y2226441D01*
X2646535Y2226535D01*
X2554215Y2318856D01*
X2548923Y2322392D01*
X2542680Y2323634D01*
X2521114D01*
X2519326Y2327952D01*
X2512030Y2337459D01*
X2502523Y2344755D01*
X2491452Y2349340D01*
X2479571Y2350905D01*
X2467690Y2349340D01*
X2456619Y2344755D01*
X2447112Y2337459D01*
X2439817Y2327952D01*
X2438028Y2323634D01*
X2314437D01*
X2241314Y2396757D01*
Y2825000D01*
Y3190000D01*
X2240072Y3196243D01*
X2236535Y3201535D01*
X2131535Y3306535D01*
X2126243Y3310072D01*
X2120000Y3311314D01*
X1335001D01*
X1335000Y3311314D01*
D02*
G37*
G36*
X340000Y1445000D02*
X182544D01*
Y1160000D01*
X340000D01*
Y1445000D01*
D02*
G37*
G36*
X580000Y1205905D02*
X568119Y1204340D01*
X557048Y1199755D01*
X547541Y1192459D01*
X540245Y1182952D01*
X535660Y1171881D01*
X534096Y1160000D01*
X535660Y1148119D01*
X540245Y1137048D01*
X547541Y1127541D01*
X557048Y1120245D01*
X568119Y1115660D01*
X580000Y1114095D01*
X591881Y1115660D01*
X602952Y1120245D01*
X612459Y1127541D01*
X619755Y1137048D01*
X624340Y1148119D01*
X625904Y1160000D01*
X624340Y1171881D01*
X619755Y1182952D01*
X612459Y1192459D01*
X602952Y1199755D01*
X591881Y1204340D01*
X580000Y1205905D01*
D02*
G37*
G36*
X1114488Y1147244D02*
X992441D01*
Y1084252D01*
X1114488D01*
X1114488Y1084252D01*
Y1147244D01*
D02*
G37*
G36*
X786693Y1038955D02*
X776611Y1037628D01*
X767215Y1033736D01*
X759490Y1027808D01*
X759072Y1027511D01*
X758122Y1027072D01*
X736524D01*
X735574Y1027511D01*
X735156Y1027808D01*
X727430Y1033736D01*
X718035Y1037628D01*
X707953Y1038955D01*
X697870Y1037628D01*
X688475Y1033736D01*
X680749Y1027808D01*
X680332Y1027511D01*
X679381Y1027072D01*
X657784D01*
X656834Y1027511D01*
X656416Y1027808D01*
X648690Y1033736D01*
X639295Y1037628D01*
X629212Y1038955D01*
X619130Y1037628D01*
X609735Y1033736D01*
X602009Y1027808D01*
X601591Y1027511D01*
X600641Y1027072D01*
X579043D01*
X578094Y1027511D01*
X577676Y1027808D01*
X569950Y1033736D01*
X560555Y1037628D01*
X550472Y1038955D01*
X540390Y1037628D01*
X530995Y1033736D01*
X523269Y1027808D01*
X522851Y1027511D01*
X521901Y1027072D01*
X500303D01*
X499353Y1027511D01*
X498935Y1027808D01*
X491210Y1033736D01*
X481815Y1037628D01*
X471732Y1038955D01*
X461650Y1037628D01*
X452255Y1033736D01*
X444529Y1027808D01*
X444111Y1027511D01*
X443161Y1027072D01*
X421563D01*
X420613Y1027511D01*
X420195Y1027808D01*
X412470Y1033736D01*
X403075Y1037628D01*
X392992Y1038955D01*
X382910Y1037628D01*
X373514Y1033736D01*
X365789Y1027808D01*
X365371Y1027511D01*
X364421Y1027072D01*
X342823D01*
X341873Y1027511D01*
X341455Y1027808D01*
X333730Y1033736D01*
X324334Y1037628D01*
X314252Y1038955D01*
X304170Y1037628D01*
X294774Y1033736D01*
X294134Y1033245D01*
X274134Y1038622D01*
Y1038622D01*
X196890D01*
Y961378D01*
X230681D01*
X248820Y950882D01*
Y794723D01*
X240134D01*
Y744723D01*
Y709723D01*
X248820D01*
Y615007D01*
X243695Y611582D01*
X238612Y603974D01*
X236827Y595000D01*
X238612Y586026D01*
X243695Y578418D01*
X251303Y573335D01*
X260277Y571549D01*
X269251Y573335D01*
X276859Y578418D01*
X281943Y586026D01*
X283728Y595000D01*
X281943Y603974D01*
X281447Y604716D01*
Y709723D01*
X290134D01*
Y744723D01*
Y794723D01*
X281447D01*
Y944125D01*
X301005Y963683D01*
X304170Y962372D01*
X314252Y961045D01*
X324334Y962372D01*
X333730Y966264D01*
X341455Y972192D01*
X341873Y972489D01*
X342823Y972928D01*
X364421D01*
X365371Y972489D01*
X365789Y972192D01*
X373514Y966264D01*
X382910Y962372D01*
X392992Y961045D01*
X403075Y962372D01*
X412470Y966264D01*
X420195Y972192D01*
X420613Y972489D01*
X421563Y972928D01*
X443161D01*
X444111Y972489D01*
X444529Y972192D01*
X452255Y966264D01*
X461650Y962372D01*
X471732Y961045D01*
X481815Y962372D01*
X491210Y966264D01*
X498935Y972192D01*
X499353Y972489D01*
X500303Y972928D01*
X521901D01*
X522851Y972489D01*
X523269Y972192D01*
X530995Y966264D01*
X540390Y962372D01*
X550472Y961045D01*
X560555Y962372D01*
X569950Y966264D01*
X577676Y972192D01*
X578094Y972489D01*
X579043Y972928D01*
X600641D01*
X601591Y972489D01*
X602009Y972192D01*
X609735Y966264D01*
X619130Y962372D01*
X629212Y961045D01*
X639295Y962372D01*
X648690Y966264D01*
X656416Y972192D01*
X656834Y972489D01*
X657784Y972928D01*
X679381D01*
X680332Y972489D01*
X680749Y972192D01*
X688475Y966264D01*
X697870Y962372D01*
X707953Y961045D01*
X718035Y962372D01*
X727430Y966264D01*
X735156Y972192D01*
X735574Y972489D01*
X736524Y972928D01*
X758122D01*
X759072Y972489D01*
X759490Y972192D01*
X767215Y966264D01*
X776611Y962372D01*
X786693Y961045D01*
X796775Y962372D01*
X806171Y966264D01*
X814239Y972454D01*
X820429Y980522D01*
X824321Y989918D01*
X825648Y1000000D01*
X824321Y1010082D01*
X820429Y1019478D01*
X814239Y1027546D01*
X806171Y1033736D01*
X796775Y1037628D01*
X786693Y1038955D01*
D02*
G37*
G36*
X2710000Y1065905D02*
X2698119Y1064340D01*
X2687048Y1059755D01*
X2677541Y1052459D01*
X2670245Y1042952D01*
X2665660Y1031881D01*
X2664095Y1020000D01*
X2665660Y1008119D01*
X2670245Y997048D01*
X2677541Y987541D01*
X2687048Y980245D01*
X2698119Y975660D01*
X2710000Y974096D01*
X2721881Y975660D01*
X2732952Y980245D01*
X2742459Y987541D01*
X2749755Y997048D01*
X2754340Y1008119D01*
X2755905Y1020000D01*
X2754340Y1031881D01*
X2749755Y1042952D01*
X2742459Y1052459D01*
X2732952Y1059755D01*
X2721881Y1064340D01*
X2710000Y1065905D01*
D02*
G37*
G36*
X2190000D02*
X2178119Y1064340D01*
X2167048Y1059755D01*
X2157541Y1052459D01*
X2150245Y1042952D01*
X2145660Y1031881D01*
X2144095Y1020000D01*
X2145660Y1008119D01*
X2150245Y997048D01*
X2157541Y987541D01*
X2167048Y980245D01*
X2178119Y975660D01*
X2190000Y974096D01*
X2201881Y975660D01*
X2212952Y980245D01*
X2222459Y987541D01*
X2229755Y997048D01*
X2234340Y1008119D01*
X2235905Y1020000D01*
X2234340Y1031881D01*
X2229755Y1042952D01*
X2222459Y1052459D01*
X2212952Y1059755D01*
X2201881Y1064340D01*
X2190000Y1065905D01*
D02*
G37*
G36*
X1408465Y1055905D02*
X1396584Y1054340D01*
X1385512Y1049755D01*
X1376005Y1042459D01*
X1368710Y1032952D01*
X1364124Y1021881D01*
X1362560Y1010000D01*
X1364124Y998119D01*
X1368710Y987048D01*
X1376005Y977541D01*
X1385512Y970245D01*
X1396584Y965660D01*
X1408465Y964096D01*
X1420346Y965660D01*
X1431417Y970245D01*
X1440924Y977541D01*
X1448219Y987048D01*
X1452805Y998119D01*
X1454369Y1010000D01*
X1452805Y1021881D01*
X1448219Y1032952D01*
X1440924Y1042459D01*
X1431417Y1049755D01*
X1420346Y1054340D01*
X1408465Y1055905D01*
D02*
G37*
G36*
X1164803D02*
X1152922Y1054340D01*
X1141851Y1049755D01*
X1132344Y1042459D01*
X1125049Y1032952D01*
X1120463Y1021881D01*
X1118899Y1010000D01*
X1120463Y998119D01*
X1125049Y987048D01*
X1132344Y977541D01*
X1141851Y970245D01*
X1152922Y965660D01*
X1164803Y964096D01*
X1176684Y965660D01*
X1187755Y970245D01*
X1197263Y977541D01*
X1204558Y987048D01*
X1209143Y998119D01*
X1210708Y1010000D01*
X1209143Y1021881D01*
X1204558Y1032952D01*
X1197263Y1042459D01*
X1187755Y1049755D01*
X1176684Y1054340D01*
X1164803Y1055905D01*
D02*
G37*
G36*
X759098Y872755D02*
X750123Y870969D01*
X742515Y865886D01*
X737432Y858278D01*
X735647Y849304D01*
X737206Y841468D01*
X721953Y826216D01*
X467412D01*
X463826Y831582D01*
X456218Y836665D01*
X447244Y838451D01*
X438270Y836665D01*
X430662Y831582D01*
X425579Y823974D01*
X423793Y815000D01*
X425579Y806026D01*
X430662Y798418D01*
X438270Y793335D01*
X447244Y791549D01*
X456218Y793335D01*
X463826Y798418D01*
X467412Y803784D01*
X726598D01*
X726598Y803784D01*
X730890Y804638D01*
X734529Y807069D01*
X754273Y826813D01*
X759098Y825853D01*
X768072Y827638D01*
X775680Y832722D01*
X780763Y840330D01*
X782548Y849304D01*
X780763Y858278D01*
X775680Y865886D01*
X768072Y870969D01*
X759098Y872755D01*
D02*
G37*
G36*
X1159777Y820824D02*
X1150803Y819038D01*
X1143195Y813955D01*
X1138112Y806347D01*
X1136327Y797373D01*
X1138112Y788399D01*
X1143195Y780791D01*
X1150803Y775707D01*
X1159777Y773922D01*
X1168752Y775707D01*
X1176360Y780791D01*
X1181443Y788399D01*
X1183228Y797373D01*
X1181443Y806347D01*
X1176360Y813955D01*
X1168752Y819038D01*
X1159777Y820824D01*
D02*
G37*
G36*
X1559252Y793904D02*
X1547371Y792340D01*
X1536300Y787755D01*
X1526793Y780459D01*
X1519497Y770952D01*
X1514912Y759881D01*
X1513348Y748000D01*
X1514912Y736119D01*
X1519497Y725048D01*
X1526793Y715541D01*
X1536300Y708245D01*
X1547371Y703660D01*
X1559252Y702096D01*
X1571133Y703660D01*
X1582204Y708245D01*
X1591711Y715541D01*
X1599006Y725048D01*
X1603592Y736119D01*
X1605157Y748000D01*
X1603592Y759881D01*
X1599006Y770952D01*
X1591711Y780459D01*
X1582204Y787755D01*
X1571133Y792340D01*
X1559252Y793904D01*
D02*
G37*
G36*
X2775512Y875512D02*
X2684488D01*
Y784488D01*
X2693396D01*
X2700184Y764488D01*
X2697541Y762459D01*
X2690245Y752952D01*
X2685660Y741881D01*
X2684095Y730000D01*
X2685660Y718119D01*
X2690245Y707048D01*
X2697541Y697541D01*
X2707048Y690245D01*
X2718119Y685660D01*
X2730000Y684096D01*
X2741881Y685660D01*
X2752952Y690245D01*
X2762459Y697541D01*
X2769755Y707048D01*
X2774340Y718119D01*
X2775905Y730000D01*
X2774340Y741881D01*
X2769755Y752952D01*
X2762459Y762459D01*
X2759816Y764488D01*
X2766604Y784488D01*
X2775512D01*
Y875512D01*
D02*
G37*
G36*
X2530000Y875904D02*
X2518119Y874340D01*
X2507048Y869755D01*
X2497541Y862459D01*
X2490245Y852952D01*
X2485660Y841881D01*
X2484095Y830000D01*
X2485660Y818119D01*
X2490245Y807048D01*
X2497541Y797541D01*
X2506069Y790997D01*
X2507048Y784278D01*
Y775722D01*
X2506069Y769003D01*
X2497541Y762459D01*
X2490245Y752952D01*
X2485660Y741881D01*
X2484095Y730000D01*
X2485660Y718119D01*
X2490245Y707048D01*
X2497541Y697541D01*
X2507048Y690245D01*
X2518119Y685660D01*
X2530000Y684096D01*
X2541881Y685660D01*
X2552952Y690245D01*
X2562459Y697541D01*
X2569755Y707048D01*
X2574340Y718119D01*
X2575905Y730000D01*
X2574340Y741881D01*
X2569755Y752952D01*
X2562459Y762459D01*
X2553931Y769003D01*
X2552952Y775722D01*
Y784278D01*
X2553931Y790997D01*
X2562459Y797541D01*
X2569755Y807048D01*
X2574340Y818119D01*
X2575905Y830000D01*
X2574340Y841881D01*
X2569755Y852952D01*
X2562459Y862459D01*
X2552952Y869755D01*
X2541881Y874340D01*
X2530000Y875904D01*
D02*
G37*
G36*
X352756Y758173D02*
X343782Y756388D01*
X336174Y751305D01*
X331090Y743697D01*
X329305Y734723D01*
X331090Y725749D01*
X336174Y718141D01*
X343782Y713057D01*
X352756Y711272D01*
X359086Y712532D01*
X384929Y686689D01*
X384929Y686688D01*
X384930Y686688D01*
X388568Y684257D01*
X392860Y683403D01*
X397151Y684257D01*
X397152Y684257D01*
X399919Y686106D01*
X469199D01*
X472785Y680739D01*
X480393Y675656D01*
X489367Y673871D01*
X498341Y675656D01*
X505949Y680739D01*
X511033Y688347D01*
X512818Y697321D01*
X511033Y706295D01*
X505949Y713903D01*
X498341Y718987D01*
X489367Y720772D01*
X480393Y718987D01*
X472785Y713903D01*
X469199Y708537D01*
X395563D01*
X395562Y708537D01*
X394929Y708411D01*
X374947Y728393D01*
X376207Y734723D01*
X374421Y743697D01*
X369338Y751305D01*
X361730Y756388D01*
X352756Y758173D01*
D02*
G37*
G36*
X2135357Y1393387D02*
X2126383Y1391602D01*
X2118775Y1386518D01*
X2113692Y1378910D01*
X2111907Y1369936D01*
X2113692Y1360962D01*
X2118775Y1353354D01*
X2126383Y1348271D01*
X2135357Y1346486D01*
X2144332Y1348271D01*
X2151939Y1353354D01*
X2152119Y1353623D01*
X2262820D01*
X2391106Y1225336D01*
Y654769D01*
X2390838Y654590D01*
X2385754Y646982D01*
X2383969Y638007D01*
X2385754Y629033D01*
X2390838Y621425D01*
X2398445Y616342D01*
X2407420Y614557D01*
X2416394Y616342D01*
X2424002Y621425D01*
X2429085Y629033D01*
X2430870Y638007D01*
X2429085Y646982D01*
X2424002Y654590D01*
X2423733Y654769D01*
Y1232094D01*
X2422491Y1238337D01*
X2418955Y1243629D01*
X2281113Y1381472D01*
X2275820Y1385008D01*
X2269577Y1386250D01*
X2152119D01*
X2151939Y1386518D01*
X2144332Y1391602D01*
X2135357Y1393387D01*
D02*
G37*
G36*
X1480000Y548070D02*
X1468119Y546506D01*
X1457048Y541920D01*
X1447541Y534625D01*
X1440245Y525118D01*
X1435660Y514046D01*
X1434095Y502165D01*
X1435660Y490284D01*
X1440245Y479213D01*
X1447541Y469706D01*
X1457048Y462411D01*
X1468119Y457825D01*
X1480000Y456261D01*
X1491881Y457825D01*
X1502952Y462411D01*
X1512459Y469706D01*
X1519755Y479213D01*
X1524340Y490284D01*
X1525905Y502165D01*
X1524340Y514046D01*
X1519755Y525118D01*
X1512459Y534625D01*
X1502952Y541920D01*
X1491881Y546506D01*
X1480000Y548070D01*
D02*
G37*
G36*
X2730000Y475904D02*
X2718119Y474340D01*
X2707048Y469755D01*
X2697541Y462459D01*
X2690245Y452952D01*
X2685660Y441881D01*
X2684095Y430000D01*
X2685660Y418119D01*
X2690245Y407048D01*
X2697541Y397541D01*
X2707048Y390245D01*
X2718119Y385660D01*
X2730000Y384096D01*
X2741881Y385660D01*
X2752952Y390245D01*
X2762459Y397541D01*
X2769755Y407048D01*
X2774340Y418119D01*
X2775905Y430000D01*
X2774340Y441881D01*
X2769755Y452952D01*
X2762459Y462459D01*
X2752952Y469755D01*
X2741881Y474340D01*
X2730000Y475904D01*
D02*
G37*
G36*
X2530000D02*
X2518119Y474340D01*
X2507048Y469755D01*
X2497541Y462459D01*
X2490245Y452952D01*
X2485660Y441881D01*
X2484095Y430000D01*
X2485660Y418119D01*
X2490245Y407048D01*
X2497541Y397541D01*
X2507048Y390245D01*
X2518119Y385660D01*
X2530000Y384096D01*
X2541881Y385660D01*
X2552952Y390245D01*
X2562459Y397541D01*
X2569755Y407048D01*
X2574340Y418119D01*
X2575905Y430000D01*
X2574340Y441881D01*
X2569755Y452952D01*
X2562459Y462459D01*
X2552952Y469755D01*
X2541881Y474340D01*
X2530000Y475904D01*
D02*
G37*
G36*
X1888500Y327204D02*
X1876619Y325639D01*
X1865548Y321054D01*
X1856041Y313759D01*
X1848746Y304251D01*
X1844160Y293180D01*
X1842596Y281299D01*
X1844160Y269418D01*
X1848746Y258347D01*
X1856041Y248840D01*
X1865548Y241545D01*
X1876619Y236959D01*
X1888500Y235395D01*
X1900381Y236959D01*
X1911452Y241545D01*
X1920959Y248840D01*
X1928255Y258347D01*
X1932840Y269418D01*
X1934405Y281299D01*
X1932840Y293180D01*
X1928255Y304251D01*
X1920959Y313759D01*
X1911452Y321054D01*
X1900381Y325639D01*
X1888500Y327204D01*
D02*
G37*
G36*
X2510000Y265394D02*
X2496295Y263590D01*
X2483523Y258300D01*
X2482808Y257751D01*
X2467876D01*
Y243785D01*
X2464141Y238917D01*
X2458851Y226146D01*
X2457047Y212441D01*
X2458851Y198736D01*
X2464141Y185964D01*
X2467876Y181097D01*
Y170000D01*
X2479070D01*
X2483523Y166582D01*
X2496295Y161292D01*
X2510000Y159488D01*
X2523705Y161292D01*
X2536477Y166582D01*
X2540930Y170000D01*
X2620492D01*
Y159941D01*
X2725492D01*
Y264941D01*
X2620492D01*
Y257751D01*
X2537192D01*
X2536477Y258300D01*
X2523705Y263590D01*
X2510000Y265394D01*
D02*
G37*
G36*
X2334996Y290316D02*
X2319803Y288820D01*
X2305195Y284388D01*
X2291731Y277192D01*
X2279930Y267507D01*
X2270245Y255706D01*
X2263049Y242243D01*
X2258617Y227634D01*
X2257121Y212441D01*
X2258617Y197248D01*
X2263049Y182639D01*
X2270245Y169176D01*
X2279930Y157375D01*
X2291731Y147690D01*
X2305195Y140494D01*
X2319803Y136062D01*
X2334996Y134566D01*
X2350189Y136062D01*
X2364798Y140494D01*
X2378261Y147690D01*
X2390062Y157375D01*
X2399747Y169176D01*
X2406943Y182639D01*
X2411375Y197248D01*
X2412871Y212441D01*
X2411375Y227634D01*
X2406943Y242243D01*
X2399747Y255706D01*
X2390062Y267507D01*
X2378261Y277192D01*
X2364798Y284388D01*
X2350189Y288820D01*
X2334996Y290316D01*
D02*
G37*
%LPD*%
G36*
X1784142Y3005000D02*
X1781455Y3002113D01*
X1779051Y2999109D01*
X1776929Y2995987D01*
X1775091Y2992749D01*
X1773535Y2989393D01*
X1772263Y2985921D01*
X1771273Y2982331D01*
X1770566Y2978623D01*
X1770141Y2974799D01*
X1770000Y2970858D01*
X1750000D01*
X1749859Y2974799D01*
X1749434Y2978623D01*
X1748727Y2982331D01*
X1747737Y2985921D01*
X1746464Y2989393D01*
X1744909Y2992749D01*
X1743070Y2995987D01*
X1740949Y2999109D01*
X1738545Y3002113D01*
X1735858Y3005000D01*
X1745858Y3023284D01*
X1748686Y3020739D01*
X1751515Y3018759D01*
X1754343Y3017345D01*
X1757171Y3016496D01*
X1760000Y3016213D01*
X1762828Y3016496D01*
X1765657Y3017345D01*
X1768485Y3018759D01*
X1771314Y3020739D01*
X1774142Y3023284D01*
X1784142Y3005000D01*
D02*
G37*
G36*
X1785913Y2795623D02*
X1785922Y2795619D01*
X1785925Y2795611D01*
X1788205Y2794680D01*
X1790510Y2793733D01*
X1790519Y2793736D01*
X1790527Y2793733D01*
X1890370Y2794261D01*
X1890372Y2794262D01*
X1890374Y2794261D01*
X1890469Y2794262D01*
X1890667Y2794263D01*
X1890667Y2794263D01*
X1895171Y2794287D01*
X1895172Y2794287D01*
X1896455Y2794293D01*
X1900000Y2790767D01*
Y2789484D01*
X1900000Y2789483D01*
X1900000Y2784697D01*
X1900000Y2694193D01*
X1900416Y2693189D01*
X1900345Y2692105D01*
X1901330Y2690981D01*
X1901902Y2689601D01*
X1902906Y2689185D01*
X1903622Y2688368D01*
X1916336Y2682098D01*
X1916689Y2676349D01*
X1910245Y2667952D01*
X1905660Y2656881D01*
X1904095Y2645000D01*
X1905660Y2633119D01*
X1910245Y2622048D01*
X1916689Y2613651D01*
X1916336Y2607902D01*
X1903622Y2601632D01*
X1902906Y2600815D01*
X1901902Y2600399D01*
X1901330Y2599019D01*
X1900345Y2597895D01*
X1900416Y2596811D01*
X1900000Y2595807D01*
Y2492664D01*
X1900000Y2337884D01*
X1900186Y2337436D01*
X1900065Y2336966D01*
X1901114Y2335194D01*
X1901902Y2333292D01*
X1902350Y2333106D01*
X1902597Y2332689D01*
X1920365Y2319361D01*
X1921561Y2314057D01*
X1920660Y2311881D01*
X1919095Y2300000D01*
X1920660Y2288119D01*
X1921561Y2285944D01*
X1920365Y2280640D01*
X1902597Y2267311D01*
X1902350Y2266894D01*
X1901902Y2266708D01*
X1901114Y2264806D01*
X1900065Y2263034D01*
X1900186Y2262564D01*
X1900000Y2262116D01*
Y2050764D01*
X1900000Y2044464D01*
X1900000Y2044464D01*
Y2040000D01*
X1895536D01*
X1895535Y2040000D01*
X1889185Y2040000D01*
X1614901Y2040000D01*
X1224785Y2040000D01*
X1219832Y2040000D01*
X1219832Y2040000D01*
X1218898D01*
X1216142Y2043858D01*
X1216142Y2045000D01*
Y2045150D01*
Y2126142D01*
X1133858D01*
Y2045000D01*
X1133223Y2043848D01*
X1127030Y2042970D01*
X1126343Y2043657D01*
X1126342Y2043657D01*
X1124160Y2045840D01*
X1124160Y2045840D01*
X1124160Y2045840D01*
X1085000Y2085000D01*
Y2086292D01*
Y2788708D01*
Y2790000D01*
X1086292Y2790007D01*
D01*
X1101070Y2790085D01*
X1740141Y2793466D01*
X1743686Y2789940D01*
Y2789533D01*
Y2326762D01*
X1743418Y2326582D01*
X1738334Y2318974D01*
X1736549Y2310000D01*
X1738334Y2301026D01*
X1743418Y2293418D01*
X1751026Y2288334D01*
X1760000Y2286549D01*
X1768974Y2288334D01*
X1776582Y2293418D01*
X1781665Y2301026D01*
X1783450Y2310000D01*
X1781665Y2318974D01*
X1776582Y2326582D01*
X1776313Y2326762D01*
Y2793658D01*
Y2798659D01*
X1780930Y2800579D01*
X1785913Y2795623D01*
D02*
G37*
%LPC*%
G36*
X1175000Y2726497D02*
X1164260Y2725083D01*
X1154252Y2720937D01*
X1145657Y2714343D01*
X1139063Y2705748D01*
X1134917Y2695740D01*
X1133503Y2685000D01*
X1134917Y2674260D01*
X1139063Y2664252D01*
X1145657Y2655657D01*
X1154252Y2649063D01*
X1164260Y2644917D01*
X1175000Y2643503D01*
X1185740Y2644917D01*
X1195748Y2649063D01*
X1204343Y2655657D01*
X1210937Y2664252D01*
X1215083Y2674260D01*
X1216497Y2685000D01*
X1215083Y2695740D01*
X1210937Y2705748D01*
X1204343Y2714343D01*
X1195748Y2720937D01*
X1185740Y2725083D01*
X1175000Y2726497D01*
D02*
G37*
G36*
X1182500Y2625509D02*
Y2592500D01*
X1215509D01*
X1215083Y2595740D01*
X1210937Y2605748D01*
X1204343Y2614343D01*
X1195748Y2620937D01*
X1185740Y2625083D01*
X1182500Y2625509D01*
D02*
G37*
G36*
X1522500Y2629917D02*
Y2592500D01*
X1559917D01*
X1559340Y2596881D01*
X1554755Y2607952D01*
X1547459Y2617459D01*
X1537952Y2624755D01*
X1526881Y2629340D01*
X1522500Y2629917D01*
D02*
G37*
G36*
X1507500D02*
X1503119Y2629340D01*
X1492048Y2624755D01*
X1482541Y2617459D01*
X1475245Y2607952D01*
X1470660Y2596881D01*
X1470083Y2592500D01*
X1507500D01*
Y2629917D01*
D02*
G37*
G36*
X1167500Y2625509D02*
X1164260Y2625083D01*
X1154252Y2620937D01*
X1145657Y2614343D01*
X1139063Y2605748D01*
X1134917Y2595740D01*
X1134491Y2592500D01*
X1167500D01*
Y2625509D01*
D02*
G37*
G36*
X1215509Y2577500D02*
X1182500D01*
Y2544491D01*
X1185740Y2544917D01*
X1195748Y2549063D01*
X1204343Y2555657D01*
X1210937Y2564252D01*
X1215083Y2574260D01*
X1215509Y2577500D01*
D02*
G37*
G36*
X1167500D02*
X1134491D01*
X1134917Y2574260D01*
X1139063Y2564252D01*
X1145657Y2555657D01*
X1154252Y2549063D01*
X1164260Y2544917D01*
X1167500Y2544491D01*
Y2577500D01*
D02*
G37*
G36*
X1559917D02*
X1522500D01*
Y2540083D01*
X1526881Y2540660D01*
X1537952Y2545245D01*
X1547459Y2552541D01*
X1554755Y2562048D01*
X1559340Y2573119D01*
X1559917Y2577500D01*
D02*
G37*
G36*
X1507500D02*
X1470083D01*
X1470660Y2573119D01*
X1475245Y2562048D01*
X1482541Y2552541D01*
X1492048Y2545245D01*
X1503119Y2540660D01*
X1507500Y2540083D01*
Y2577500D01*
D02*
G37*
G36*
X1175000Y2526497D02*
X1164260Y2525083D01*
X1154252Y2520937D01*
X1145657Y2514343D01*
X1139063Y2505748D01*
X1134917Y2495740D01*
X1133503Y2485000D01*
X1134917Y2474260D01*
X1139063Y2464252D01*
X1145657Y2455657D01*
X1154252Y2449063D01*
X1164260Y2444917D01*
X1175000Y2443503D01*
X1185740Y2444917D01*
X1195748Y2449063D01*
X1204343Y2455657D01*
X1210937Y2464252D01*
X1215083Y2474260D01*
X1216497Y2485000D01*
X1215083Y2495740D01*
X1210937Y2505748D01*
X1204343Y2514343D01*
X1195748Y2520937D01*
X1185740Y2525083D01*
X1175000Y2526497D01*
D02*
G37*
G36*
X1182500Y2225509D02*
Y2192500D01*
X1215509D01*
X1215083Y2195740D01*
X1210937Y2205748D01*
X1204343Y2214343D01*
X1195748Y2220937D01*
X1185740Y2225083D01*
X1182500Y2225509D01*
D02*
G37*
G36*
X1167500D02*
X1164260Y2225083D01*
X1154252Y2220937D01*
X1145657Y2214343D01*
X1139063Y2205748D01*
X1134917Y2195740D01*
X1134491Y2192500D01*
X1167500D01*
Y2225509D01*
D02*
G37*
G36*
X1215509Y2177500D02*
X1182500D01*
Y2144491D01*
X1185740Y2144917D01*
X1195748Y2149063D01*
X1204343Y2155657D01*
X1210937Y2164252D01*
X1215083Y2174260D01*
X1215509Y2177500D01*
D02*
G37*
G36*
X1167500D02*
X1134491D01*
X1134917Y2174260D01*
X1139063Y2164252D01*
X1145657Y2155657D01*
X1154252Y2149063D01*
X1164260Y2144917D01*
X1167500Y2144491D01*
Y2177500D01*
D02*
G37*
G36*
X3174862Y197500D02*
X3017500D01*
Y40138D01*
X3031583Y41061D01*
X3052797Y45280D01*
X3073278Y52233D01*
X3092677Y61799D01*
X3110661Y73816D01*
X3126923Y88077D01*
X3141184Y104339D01*
X3153201Y122323D01*
X3162767Y141722D01*
X3169720Y162203D01*
X3173939Y183417D01*
X3174862Y197500D01*
D02*
G37*
G36*
X187500D02*
X30138D01*
X31061Y183417D01*
X35280Y162203D01*
X42233Y141722D01*
X51799Y122323D01*
X63816Y104339D01*
X78077Y88077D01*
X94339Y73816D01*
X112323Y61799D01*
X131722Y52233D01*
X152203Y45280D01*
X173417Y41061D01*
X187500Y40138D01*
Y197500D01*
D02*
G37*
%LPD*%
D51*
X30000Y551395D02*
X58464Y579860D01*
X540000Y588816D02*
Y628758D01*
X627778Y716535D01*
X392860Y694619D02*
X395562Y697321D01*
X489367D01*
X352756Y734723D02*
X392860Y694619D01*
X627778Y716535D02*
X713071D01*
X726598Y815000D02*
X759098Y847499D01*
Y849304D01*
X447244Y815000D02*
X726598D01*
X2635157Y1990000D02*
Y2005903D01*
X2760000Y1893106D02*
Y1920000D01*
X2765858Y1887248D02*
X2906410D01*
X2760000Y1893106D02*
X2765858Y1887248D01*
X629212Y1000000D02*
X636117Y993096D01*
X2770303Y1947402D02*
X2823207D01*
X2842535Y1966730D01*
X2647658Y1977500D02*
X2789303D01*
X2635157Y1990000D02*
X2647658Y1977500D01*
X2920000Y1900838D02*
Y1945000D01*
X2906410Y1887248D02*
X2920000Y1900838D01*
X2785566Y2617664D02*
X2787402Y2615829D01*
Y2512402D02*
Y2615829D01*
X2710000Y2435000D02*
X2787402Y2512402D01*
X2814000Y2399000D02*
X2815000Y2400000D01*
X2396000Y2399000D02*
X2814000D01*
X2635000Y2215000D02*
X2635157Y2214843D01*
X2210000Y1990000D02*
X2545000D01*
X2842535Y1966730D02*
Y2084232D01*
X2841768Y2085000D02*
X2842535Y2084232D01*
X2545000Y1990000D02*
X2555000Y2000000D01*
X2295000Y2475000D02*
X2366173Y2403827D01*
X2391173D01*
D52*
X152000Y2976000D02*
X503402Y3327402D01*
X795000D01*
X152000Y2739016D02*
Y2976000D01*
X260277Y597706D02*
X265134Y602563D01*
X260277Y595000D02*
Y597706D01*
X135290Y2722306D02*
X152000Y2739016D01*
X900000Y1745000D02*
X941830D01*
X989857Y1793026D01*
X765454Y3143305D02*
X989857Y2918903D01*
Y1793026D02*
Y2918903D01*
X2269577Y1369936D02*
X2407420Y1232094D01*
X2135357Y1369936D02*
X2269577D01*
X2407420Y638007D02*
Y1232094D01*
X265134Y769723D02*
Y950882D01*
X314252Y1000000D01*
X265134Y602563D02*
Y734723D01*
X2635157Y2067000D02*
Y2214843D01*
X2113087Y2086913D02*
X2210000Y1990000D01*
X2113087Y2086913D02*
Y2770000D01*
X2908131Y1858131D02*
X2955000Y1905000D01*
X2792109Y1858131D02*
X2908131D01*
X2480000Y3080000D02*
X2810000D01*
X2955000Y2935000D01*
X667000Y2742000D02*
Y3143305D01*
X570000Y2645000D02*
X667000Y2742000D01*
X795000Y3327402D02*
X863880Y3258522D01*
Y3143305D02*
Y3258522D01*
X1250000Y3210000D02*
X1335000Y3295000D01*
X2120000D01*
X2225000Y3190000D01*
X2307680Y2307320D02*
X2479571D01*
X2542680D01*
X2225000Y2825000D02*
Y3190000D01*
X2542680Y2307320D02*
X2635000Y2215000D01*
X2225000Y2390000D02*
X2307680Y2307320D01*
X2955000Y2305000D02*
Y2935000D01*
X1650000Y3105000D02*
Y3150000D01*
Y3105000D02*
X1760000Y2995000D01*
Y2310000D02*
Y2995000D01*
X1915000Y3150000D02*
X1980000D01*
X1760000Y2995000D02*
X1915000Y3150000D01*
X2955000Y1905000D02*
Y2305000D01*
X2225000Y2390000D02*
Y2825000D01*
X1250000Y3080000D02*
Y3210000D01*
X300000Y2645000D02*
X570000D01*
D53*
X195000Y205000D02*
X355000Y45000D01*
X3000000Y230772D02*
X3204000Y434772D01*
X3000000Y3110000D02*
X3204000Y2906000D01*
X2840000Y45000D02*
X3000000Y205000D01*
Y230772D01*
X355000Y45000D02*
X2840000D01*
X3204000Y434772D02*
Y2906000D01*
X3000000Y3110000D02*
Y3305000D01*
D54*
X2510000Y1876535D02*
X2578535Y1808000D01*
X2760000D01*
D55*
X493758Y434751D02*
X519073Y409435D01*
X1531659Y331241D02*
X1935529Y735110D01*
X461774Y466735D02*
X493758Y434751D01*
X1049702Y331241D02*
X1531659D01*
X643974D02*
X1049702D01*
X565779Y409435D02*
X643974Y331241D01*
X519073Y409435D02*
X565779D01*
X432446Y466735D02*
X461774D01*
X493758Y205301D02*
Y434751D01*
Y205301D02*
X518538Y180521D01*
X1049702Y331241D02*
X1049702Y331241D01*
Y550965D01*
X1935529Y735110D02*
X2023850D01*
D56*
X2578903Y2023903D02*
X2650604D01*
X2555000Y2000000D02*
X2578903Y2023903D01*
X2565496Y2044335D02*
X2660158D01*
X2551161Y2030000D02*
X2565496Y2044335D01*
X2660158D02*
X2669746Y2034746D01*
X2510000Y2030000D02*
X2551161D01*
D57*
X2733660Y1835000D02*
X2959410D01*
X2696087Y1864819D02*
X2703841D01*
X2688188Y1872717D02*
Y1880472D01*
Y1872717D02*
X2696087Y1864819D01*
X2703841D02*
X2733660Y1835000D01*
D63*
X900000Y2645000D02*
D03*
Y2745000D02*
D03*
Y2545000D02*
D03*
X300000D02*
D03*
X900000Y1845000D02*
D03*
Y1745000D02*
D03*
X300000Y2745000D02*
D03*
Y1845000D02*
D03*
Y2645000D02*
D03*
Y1745000D02*
D03*
Y1645000D02*
D03*
D64*
X900000D02*
D03*
D65*
X2530000Y830000D02*
D03*
Y730000D02*
D03*
Y430000D02*
D03*
X2730000D02*
D03*
Y730000D02*
D03*
X2190000Y1020000D02*
D03*
X1559252Y748000D02*
D03*
X1164803Y1010000D02*
D03*
X1515000Y2585000D02*
D03*
X2712000Y2270000D02*
D03*
X431604Y343197D02*
D03*
X1408465Y1010000D02*
D03*
X2955000Y2485000D02*
D03*
X1965000Y2300000D02*
D03*
X1950000Y2645000D02*
D03*
X2479571Y2305000D02*
D03*
X2210000Y1990000D02*
D03*
X580000Y1160000D02*
D03*
X2816535Y2170000D02*
D03*
X2710000Y1020000D02*
D03*
X1480000Y502165D02*
D03*
X1888500Y281299D02*
D03*
D66*
X2730000Y830000D02*
D03*
D67*
X1175000Y2085000D02*
D03*
D68*
Y2185000D02*
D03*
Y2585000D02*
D03*
Y2685000D02*
D03*
Y2485000D02*
D03*
D69*
X195000Y205000D02*
D03*
Y3280000D02*
D03*
X3010000D02*
D03*
Y205000D02*
D03*
D70*
X2334996Y212441D02*
D03*
D71*
X2510000D02*
D03*
D72*
X2672992D02*
D03*
D73*
X2465000Y2685000D02*
D03*
X2365000D02*
D03*
X2565000D02*
D03*
D74*
X629212Y1000000D02*
D03*
X550472D02*
D03*
X786693D02*
D03*
X707953D02*
D03*
X314252D02*
D03*
X471732D02*
D03*
X392992D02*
D03*
D75*
X235512D02*
D03*
D76*
X962305Y3143305D02*
D03*
X863880D02*
D03*
X765454D02*
D03*
D77*
X667029D02*
D03*
D78*
X1980000Y3150000D02*
D03*
X1840000D02*
D03*
X1910000Y3080000D02*
D03*
X1320000Y3150000D02*
D03*
X1180000D02*
D03*
X1250000Y3080000D02*
D03*
X1650000Y3150000D02*
D03*
X1510000D02*
D03*
X1580000Y3080000D02*
D03*
D79*
X265134Y744723D02*
D03*
D80*
Y769723D02*
D03*
D81*
X2645000Y1951339D02*
D03*
X2686339Y1910000D02*
D03*
X2645000D02*
D03*
Y1868661D02*
D03*
X2603661Y1910000D02*
D03*
D82*
X518538Y180521D02*
D03*
X2035131Y735110D02*
D03*
X1590648Y390467D02*
D03*
X1049702Y550965D02*
D03*
X621535Y430360D02*
D03*
X489367Y518651D02*
D03*
X800000Y2450000D02*
D03*
X875000Y2300000D02*
D03*
X800000Y2150000D02*
D03*
X875000Y2000000D02*
D03*
X800000Y1850000D02*
D03*
X650000Y2450000D02*
D03*
X725000Y2300000D02*
D03*
X650000Y2150000D02*
D03*
X725000Y2000000D02*
D03*
X650000Y1850000D02*
D03*
X500000Y2450000D02*
D03*
X575000Y2300000D02*
D03*
X500000Y2150000D02*
D03*
X575000Y2000000D02*
D03*
X500000Y1850000D02*
D03*
X350000Y2450000D02*
D03*
X425000Y2300000D02*
D03*
X350000Y2150000D02*
D03*
X425000Y2000000D02*
D03*
X275000Y2300000D02*
D03*
Y2000000D02*
D03*
X540000Y588816D02*
D03*
X400000Y581000D02*
D03*
X489367Y697321D02*
D03*
X883465Y467000D02*
D03*
X123959Y460630D02*
D03*
X260277Y595000D02*
D03*
X135290Y2722306D02*
D03*
X1160000Y1115748D02*
D03*
X2135357Y1369936D02*
D03*
X2407420Y638007D02*
D03*
X352756Y734723D02*
D03*
X713071Y716535D02*
D03*
X1365000Y874000D02*
D03*
X1159777Y797373D02*
D03*
X1083965Y960000D02*
D03*
X759098Y849304D02*
D03*
X2789303Y1977500D02*
D03*
X2113087Y2770000D02*
D03*
X447244Y815000D02*
D03*
X1642569Y722000D02*
D03*
X2924500Y1230000D02*
D03*
X2510000Y1876535D02*
D03*
X2760000Y1808000D02*
D03*
X2480000Y3080000D02*
D03*
X2080000Y2370000D02*
D03*
X2399409Y2164685D02*
D03*
X3019646Y2041162D02*
D03*
X2873465Y1756500D02*
D03*
X1725000Y375000D02*
D03*
X2855000Y2433000D02*
D03*
X2785566Y2617664D02*
D03*
X2710000Y2435000D02*
D03*
X1815000Y2570000D02*
D03*
X1561929Y2825000D02*
D03*
X1637824D02*
D03*
X1715000D02*
D03*
X1805000D02*
D03*
X1865000D02*
D03*
X1405000Y2340000D02*
D03*
X1500000D02*
D03*
X1630000D02*
D03*
X1600000Y2570000D02*
D03*
X2295000Y2475000D02*
D03*
X2395000Y2400000D02*
D03*
X1659755Y2570000D02*
D03*
X1725591D02*
D03*
X1760000Y2310000D02*
D03*
X2959410Y1835000D02*
D03*
X2920000Y1945000D02*
D03*
X2841768Y2085000D02*
D03*
X2510000Y2030000D02*
D03*
X2815000Y2400000D02*
D03*
D83*
X2635157Y2005903D02*
D03*
X2760000Y1920000D02*
D03*
X2669746Y2034746D02*
D03*
X2650604Y2023903D02*
D03*
X2635157Y2067000D02*
D03*
X2770303Y1947402D02*
D03*
X2792109Y1858131D02*
D03*
D84*
X58464Y579860D02*
Y2051645D01*
Y526124D02*
Y579860D01*
X123959Y460630D02*
X455026D01*
X58464Y526124D02*
X123959Y460630D01*
X58464Y2051645D02*
X224170Y2217350D01*
X452014D01*
D85*
X2551864Y211941D02*
D03*
D86*
X2621864D02*
D03*
D87*
X302183Y2135399D02*
D03*
D88*
X432446Y466735D02*
D03*
D89*
X2644798Y1910492D02*
D03*
%TF.MD5,00e3dd1db11c12e661876b0335ce7753*%
M02*
