%TF.GenerationSoftware,Altium Limited,Altium Designer,20.0.11 (256)*%
G04 Layer_Color=16711935*
%FSLAX26Y26*%
%MOIN*%
%TF.FileFunction,Other,Mechanical_13*%
%TF.Part,Single*%
G01*
G75*
%TA.AperFunction,NonConductor*%
%ADD111C,0.003937*%
%ADD165R,0.024358X0.114961*%
D111*
X957268Y1066535D02*
G03*
X957268Y1066535I-929J0D01*
G01*
X826378Y317992D02*
G03*
X826378Y317992I-19685J0D01*
G01*
X2713898Y1858819D02*
G03*
X2713898Y1858819I-11811J0D01*
G01*
X2036850Y1380000D02*
G03*
X2036850Y1380000I-196850J0D01*
G01*
X2240000Y1020000D02*
G03*
X2240000Y1020000I-50000J0D01*
G01*
X1609252Y748000D02*
G03*
X1609252Y748000I-50000J0D01*
G01*
X1214803Y1010000D02*
G03*
X1214803Y1010000I-50000J0D01*
G01*
X1565000Y2585000D02*
G03*
X1565000Y2585000I-50000J0D01*
G01*
X2762000Y2270000D02*
G03*
X2762000Y2270000I-50000J0D01*
G01*
X481604Y343197D02*
G03*
X481604Y343197I-50000J0D01*
G01*
X1458465Y1010000D02*
G03*
X1458465Y1010000I-50000J0D01*
G01*
X3005000Y2485000D02*
G03*
X3005000Y2485000I-50000J0D01*
G01*
X2015000Y2300000D02*
G03*
X2015000Y2300000I-50000J0D01*
G01*
X2000000Y2645000D02*
G03*
X2000000Y2645000I-50000J0D01*
G01*
X1173150Y745000D02*
G03*
X1173150Y745000I-19685J0D01*
G01*
X1521850Y1380000D02*
G03*
X1521850Y1380000I-196850J0D01*
G01*
X2529571Y2305000D02*
G03*
X2529571Y2305000I-50000J0D01*
G01*
X2260000Y1990000D02*
G03*
X2260000Y1990000I-50000J0D01*
G01*
X630000Y1160000D02*
G03*
X630000Y1160000I-50000J0D01*
G01*
X2866535Y2170000D02*
G03*
X2866535Y2170000I-50000J0D01*
G01*
X2760000Y1020000D02*
G03*
X2760000Y1020000I-50000J0D01*
G01*
X1530000Y502165D02*
G03*
X1530000Y502165I-50000J0D01*
G01*
X1938500Y281299D02*
G03*
X1938500Y281299I-50000J0D01*
G01*
X951472Y1072441D02*
Y1127559D01*
X864858D02*
X951472D01*
X864858Y1072441D02*
X951472D01*
X864858D02*
Y1127559D01*
X1218110Y506102D02*
Y643898D01*
X981890D02*
X1218110D01*
X981890Y506102D02*
Y643898D01*
Y506102D02*
X1218110D01*
X686929Y1306850D02*
Y1413150D01*
X553071Y1306850D02*
Y1413150D01*
Y1306850D02*
X686929D01*
X553071Y1413150D02*
X686929D01*
X1559055Y2375945D02*
Y2494055D01*
X1440945D02*
X1559055D01*
X1440945Y2375945D02*
X1559055D01*
X1440945D02*
Y2494055D01*
X928740Y156575D02*
Y353425D01*
X771260D02*
X928740D01*
X771260Y156575D02*
X928740D01*
X771260D02*
Y353425D01*
X2726693Y1828307D02*
Y1991693D01*
X2563307D02*
X2726693D01*
X2563307Y1828307D02*
X2726693D01*
X2563307D02*
Y1991693D01*
X1849921Y871693D02*
X1907008D01*
Y958307D01*
X1849921Y871693D02*
Y958307D01*
X1907008D01*
X2164532Y2573425D02*
Y2626575D01*
X2081855D02*
X2164532D01*
X2081855Y2573425D02*
X2164532D01*
X2081855D02*
Y2626575D01*
X2872284Y2092343D02*
X2907717D01*
Y2025414D02*
Y2092343D01*
X2872284Y2025414D02*
Y2092343D01*
Y2025414D02*
X2907717D01*
X2460433Y2010315D02*
Y2049685D01*
X2389567D02*
X2460433D01*
X2389567Y2010315D02*
Y2049685D01*
Y2010315D02*
X2460433D01*
X2460433Y2080315D02*
Y2119685D01*
X2389567D02*
X2460433D01*
X2389567Y2080315D02*
Y2119685D01*
Y2080315D02*
X2460433D01*
X2809055Y2500472D02*
Y2559528D01*
X2690945D02*
X2809055D01*
X2690945Y2500472D02*
X2809055D01*
X2690945D02*
Y2559528D01*
X900748Y1357500D02*
Y1404744D01*
X869252D02*
X900748D01*
X869252Y1357500D02*
X900748D01*
X869252D02*
Y1404744D01*
X464496Y1246047D02*
Y1351953D01*
X401504D02*
X464496D01*
X401504Y1246047D02*
X464496D01*
X401504D02*
Y1351953D01*
X2383780Y683150D02*
X2446772D01*
Y576850D02*
Y683150D01*
X2383780Y576850D02*
X2446772D01*
X2383780D02*
Y683150D01*
X323779Y1210433D02*
Y1389567D01*
X196220D02*
X323779D01*
X196220Y1210433D02*
X323779D01*
X196220D02*
Y1389567D01*
X2152441Y309055D02*
X2207559D01*
Y190945D02*
Y309055D01*
X2152441Y190945D02*
X2207559D01*
X2152441D02*
Y309055D01*
X351024Y1431260D02*
X532126D01*
X351024D02*
Y1546220D01*
X532126Y1431260D02*
Y1546220D01*
X351024D02*
X532126D01*
X1180551Y722008D02*
Y847992D01*
X1066378D02*
X1180551D01*
X1066378Y722008D02*
X1180551D01*
X1066378D02*
Y847992D01*
X689449Y544961D02*
Y665039D01*
X620551D02*
X689449D01*
X620551Y544961D02*
X689449D01*
X620551D02*
Y665039D01*
X1905433Y2388071D02*
Y2521929D01*
X1834567D02*
X1905433D01*
X1834567Y2388071D02*
X1905433D01*
X1834567D02*
Y2521929D01*
X2898185Y1884409D02*
Y1955276D01*
X2858815Y1884409D02*
Y1955276D01*
Y1884409D02*
X2898185D01*
X2858815Y1955276D02*
X2898185D01*
X1581890Y558661D02*
X1635039D01*
Y641339D01*
X1581890D02*
X1635039D01*
X1581890Y558661D02*
Y641339D01*
X1801772Y626457D02*
Y683543D01*
X1715158D02*
X1801772D01*
X1715158Y626457D02*
Y683543D01*
Y626457D02*
X1801772D01*
X1581890Y853661D02*
X1635039D01*
Y936339D01*
X1581890D02*
X1635039D01*
X1581890Y853661D02*
Y936339D01*
X2327284Y2378347D02*
Y2496457D01*
X2268228D02*
X2327284D01*
X2268228Y2378347D02*
X2327284D01*
X2268228D02*
Y2496457D01*
X1427914Y649961D02*
Y770039D01*
X1359016D02*
X1427914D01*
X1359016Y649961D02*
X1427914D01*
X1359016D02*
Y770039D01*
X2989685Y2029567D02*
Y2100433D01*
X2950315Y2029567D02*
Y2100433D01*
Y2029567D02*
X2989685D01*
X2950315Y2100433D02*
X2989685D01*
X2924449Y1359961D02*
Y1480039D01*
X2855551D02*
X2924449D01*
X2855551Y1359961D02*
X2924449D01*
X2855551D02*
Y1480039D01*
X2940315Y1955433D02*
X2979685D01*
Y1884567D02*
Y1955433D01*
X2940315Y1884567D02*
Y1955433D01*
Y1884567D02*
X2979685D01*
X1840433Y2613071D02*
Y2746929D01*
X1769567D02*
X1840433D01*
X1769567Y2613071D02*
X1840433D01*
X1769567D02*
Y2746929D01*
X231024Y458661D02*
X284173D01*
Y541339D01*
X231024D02*
X284173D01*
X231024Y458661D02*
Y541339D01*
X429528Y675668D02*
Y793778D01*
X370472D02*
X429528D01*
X370472Y675668D02*
X429528D01*
X370472D02*
Y793778D01*
X1554370Y2665445D02*
Y2783555D01*
X1436260D02*
X1554370D01*
X1436260Y2665445D02*
X1554370D01*
X1436260D02*
Y2783555D01*
D165*
X519947Y1488740D02*
D03*
%TF.MD5,9071febfe7d4447c702d42edb9b46dfb*%
M02*
