%TF.GenerationSoftware,Altium Limited,Altium Designer,20.0.11 (256)*%
G04 Layer_Color=8388736*
%FSLAX26Y26*%
%MOIN*%
%TF.FileFunction,Soldermask,Top*%
%TF.Part,Single*%
G01*
G75*
%TA.AperFunction,ComponentPad*%
%ADD93C,0.065000*%
%ADD94R,0.065000X0.065000*%
%ADD95C,0.066024*%
%ADD96R,0.066024X0.066024*%
%ADD97R,0.057283X0.057283*%
%ADD98C,0.057283*%
%ADD99C,0.305000*%
%ADD100C,0.080000*%
%ADD101R,0.080000X0.080000*%
%ADD102C,0.073898*%
%ADD103C,0.052244*%
%ADD104R,0.052244X0.052244*%
%ADD105C,0.067598*%
%ADD106R,0.067598X0.067598*%
%ADD107C,0.045000*%
%TA.AperFunction,SMDPad,CuDef*%
%ADD117R,0.040433X0.020748*%
%TA.AperFunction,TestPad*%
%ADD118C,0.045000*%
%TA.AperFunction,SMDPad,CuDef*%
%ADD119R,0.090827X0.067992*%
%ADD120R,0.091614X0.067992*%
%ADD121R,0.040433X0.020748*%
%ADD122R,0.044370X0.111299*%
%ADD123R,0.043976X0.032165*%
%ADD124O,0.079803X0.028622*%
%ADD125R,0.017795X0.020748*%
G04:AMPARAMS|DCode=126|XSize=14.842mil|YSize=28.622mil|CornerRadius=4.468mil|HoleSize=0mil|Usage=FLASHONLY|Rotation=180.000|XOffset=0mil|YOffset=0mil|HoleType=Round|Shape=RoundedRectangle|*
%AMROUNDEDRECTD126*
21,1,0.014842,0.019685,0,0,180.0*
21,1,0.005906,0.028622,0,0,180.0*
1,1,0.008937,-0.002953,0.009842*
1,1,0.008937,0.002953,0.009842*
1,1,0.008937,0.002953,-0.009842*
1,1,0.008937,-0.002953,-0.009842*
%
%ADD126ROUNDEDRECTD126*%
G04:AMPARAMS|DCode=127|XSize=14.842mil|YSize=28.622mil|CornerRadius=4.468mil|HoleSize=0mil|Usage=FLASHONLY|Rotation=270.000|XOffset=0mil|YOffset=0mil|HoleType=Round|Shape=RoundedRectangle|*
%AMROUNDEDRECTD127*
21,1,0.014842,0.019685,0,0,270.0*
21,1,0.005906,0.028622,0,0,270.0*
1,1,0.008937,-0.009842,-0.002953*
1,1,0.008937,-0.009842,0.002953*
1,1,0.008937,0.009842,0.002953*
1,1,0.008937,0.009842,-0.002953*
%
%ADD127ROUNDEDRECTD127*%
G04:AMPARAMS|DCode=128|XSize=107.362mil|YSize=107.362mil|CornerRadius=4.547mil|HoleSize=0mil|Usage=FLASHONLY|Rotation=180.000|XOffset=0mil|YOffset=0mil|HoleType=Round|Shape=RoundedRectangle|*
%AMROUNDEDRECTD128*
21,1,0.107362,0.098268,0,0,180.0*
21,1,0.098268,0.107362,0,0,180.0*
1,1,0.009094,-0.049134,0.049134*
1,1,0.009094,0.049134,0.049134*
1,1,0.009094,0.049134,-0.049134*
1,1,0.009094,-0.049134,-0.049134*
%
%ADD128ROUNDEDRECTD128*%
%ADD129R,0.062087X0.052244*%
%ADD130R,0.052244X0.062087*%
%ADD131R,0.040433X0.032559*%
%ADD132R,0.040433X0.044370*%
%ADD133R,0.044370X0.048307*%
%ADD134R,0.032559X0.044370*%
%ADD135R,0.020748X0.023898*%
%ADD136R,0.053032X0.040827*%
%ADD137R,0.103425X0.162480*%
%ADD138R,0.032559X0.044370*%
%ADD139R,0.052992X0.040984*%
%ADD140R,0.053032X0.029409*%
%ADD141R,0.129016X0.075079*%
%ADD142R,0.044764X0.062874*%
%ADD143R,0.040433X0.036496*%
%ADD144R,0.103425X0.071929*%
G04:AMPARAMS|DCode=145|XSize=22.716mil|YSize=54.213mil|CornerRadius=4.449mil|HoleSize=0mil|Usage=FLASHONLY|Rotation=270.000|XOffset=0mil|YOffset=0mil|HoleType=Round|Shape=RoundedRectangle|*
%AMROUNDEDRECTD145*
21,1,0.022716,0.045315,0,0,270.0*
21,1,0.013819,0.054213,0,0,270.0*
1,1,0.008898,-0.022657,-0.006910*
1,1,0.008898,-0.022657,0.006910*
1,1,0.008898,0.022657,0.006910*
1,1,0.008898,0.022657,-0.006910*
%
%ADD145ROUNDEDRECTD145*%
G04:AMPARAMS|DCode=146|XSize=30.591mil|YSize=52.244mil|CornerRadius=4.419mil|HoleSize=0mil|Usage=FLASHONLY|Rotation=270.000|XOffset=0mil|YOffset=0mil|HoleType=Round|Shape=RoundedRectangle|*
%AMROUNDEDRECTD146*
21,1,0.030591,0.043406,0,0,270.0*
21,1,0.021752,0.052244,0,0,270.0*
1,1,0.008839,-0.021703,-0.010876*
1,1,0.008839,-0.021703,0.010876*
1,1,0.008839,0.021703,0.010876*
1,1,0.008839,0.021703,-0.010876*
%
%ADD146ROUNDEDRECTD146*%
%ADD147R,0.075866X0.050276*%
%ADD148R,0.056181X0.064055*%
%ADD149R,0.064055X0.056181*%
%ADD150R,0.044000X0.048000*%
%ADD151R,0.048307X0.044370*%
%ADD152R,0.048000X0.044000*%
%ADD153R,0.048307X0.064055*%
%ADD154R,0.044370X0.048307*%
%ADD155R,0.048307X0.044370*%
%ADD156R,0.044370X0.032559*%
%ADD157R,0.044370X0.040433*%
D93*
X900000Y2645000D02*
D03*
Y2745000D02*
D03*
Y2545000D02*
D03*
X300000D02*
D03*
X900000Y1845000D02*
D03*
Y1745000D02*
D03*
X300000Y2745000D02*
D03*
Y1845000D02*
D03*
Y2645000D02*
D03*
Y1745000D02*
D03*
Y1645000D02*
D03*
D94*
X900000D02*
D03*
D95*
X2530000Y830000D02*
D03*
Y730000D02*
D03*
Y430000D02*
D03*
X2730000D02*
D03*
Y730000D02*
D03*
X2190000Y1020000D02*
D03*
X1559252Y748000D02*
D03*
X1164803Y1010000D02*
D03*
X1515000Y2585000D02*
D03*
X2712000Y2270000D02*
D03*
X431604Y343197D02*
D03*
X1408465Y1010000D02*
D03*
X2955000Y2485000D02*
D03*
X1965000Y2300000D02*
D03*
X1950000Y2645000D02*
D03*
X2479571Y2305000D02*
D03*
X2210000Y1990000D02*
D03*
X580000Y1160000D02*
D03*
X2816535Y2170000D02*
D03*
X2710000Y1020000D02*
D03*
X1480000Y502165D02*
D03*
X1888500Y281299D02*
D03*
D96*
X2730000Y830000D02*
D03*
D97*
X1175000Y2085000D02*
D03*
D98*
Y2185000D02*
D03*
Y2585000D02*
D03*
Y2685000D02*
D03*
Y2485000D02*
D03*
D99*
X195000Y205000D02*
D03*
Y3280000D02*
D03*
X3010000D02*
D03*
Y205000D02*
D03*
D100*
X2510000Y212441D02*
D03*
D101*
X2672992D02*
D03*
D102*
X2465000Y2685000D02*
D03*
X2365000D02*
D03*
X2565000D02*
D03*
D103*
X629212Y1000000D02*
D03*
X550472D02*
D03*
X786693D02*
D03*
X707953D02*
D03*
X314252D02*
D03*
X471732D02*
D03*
X392992D02*
D03*
D104*
X235512D02*
D03*
D105*
X962305Y3143305D02*
D03*
X863880D02*
D03*
X765454D02*
D03*
D106*
X667029D02*
D03*
D107*
X1980000Y3150000D02*
D03*
X1840000D02*
D03*
X1910000Y3080000D02*
D03*
X1320000Y3150000D02*
D03*
X1180000D02*
D03*
X1250000Y3080000D02*
D03*
X1650000Y3150000D02*
D03*
X1510000D02*
D03*
X1580000Y3080000D02*
D03*
D117*
X941630Y1115748D02*
D03*
Y1084252D02*
D03*
X874701Y1115748D02*
D03*
Y1084252D02*
D03*
D118*
X2190000Y1730000D02*
D03*
X3065000Y1860000D02*
D03*
X3070000Y2160000D02*
D03*
X2540000Y2145000D02*
D03*
X2366173Y2565457D02*
D03*
X2769528Y1240000D02*
D03*
X2690000Y1730000D02*
D03*
X2590000D02*
D03*
X2490000D02*
D03*
X2390000D02*
D03*
X2290000D02*
D03*
D119*
X1280906Y575000D02*
D03*
D120*
X919095D02*
D03*
D121*
X675118Y1382638D02*
D03*
Y1337362D02*
D03*
X564882Y1382638D02*
D03*
Y1337362D02*
D03*
D122*
X1543307Y2435000D02*
D03*
X1456693D02*
D03*
X1538622Y2724500D02*
D03*
X1452008D02*
D03*
D123*
X603016Y773598D02*
D03*
Y848402D02*
D03*
X704984D02*
D03*
Y811000D02*
D03*
Y773598D02*
D03*
D124*
X942520Y330000D02*
D03*
Y230000D02*
D03*
Y280000D02*
D03*
Y180000D02*
D03*
X757480Y330000D02*
D03*
Y280000D02*
D03*
Y230000D02*
D03*
Y180000D02*
D03*
D125*
X862449Y3277000D02*
D03*
X828000D02*
D03*
D126*
X2694213Y1984803D02*
D03*
X2654843D02*
D03*
X2674528D02*
D03*
X2635157D02*
D03*
X2694213Y1835197D02*
D03*
X2654843D02*
D03*
X2674528D02*
D03*
X2635157D02*
D03*
X2615472Y1984803D02*
D03*
X2595787D02*
D03*
Y1835197D02*
D03*
X2615472D02*
D03*
D127*
X2719803Y1959213D02*
D03*
Y1919842D02*
D03*
Y1900158D02*
D03*
Y1939528D02*
D03*
Y1880472D02*
D03*
Y1860787D02*
D03*
X2570197Y1959213D02*
D03*
Y1919842D02*
D03*
Y1900158D02*
D03*
Y1939528D02*
D03*
Y1880472D02*
D03*
Y1860787D02*
D03*
D128*
X2645000Y1910000D02*
D03*
D129*
X1878465Y948465D02*
D03*
Y881535D02*
D03*
X1608465Y639370D02*
D03*
Y560630D02*
D03*
Y934370D02*
D03*
Y855630D02*
D03*
X257599Y539370D02*
D03*
Y460630D02*
D03*
D130*
X2162564Y2600000D02*
D03*
X2083824D02*
D03*
X1791929Y655000D02*
D03*
X1725000D02*
D03*
D131*
X2890000Y2086437D02*
D03*
Y2031319D02*
D03*
D132*
X2450590Y2030000D02*
D03*
X2399409D02*
D03*
D133*
X2452559Y2100000D02*
D03*
X2397441D02*
D03*
D134*
X2787402Y2577244D02*
D03*
X2750000D02*
D03*
X2712599D02*
D03*
X2787402Y2482756D02*
D03*
X2712599D02*
D03*
D135*
X885000Y1407106D02*
D03*
Y1355138D02*
D03*
D136*
X433000Y1363370D02*
D03*
Y1234630D02*
D03*
D137*
X1840000Y1537480D02*
D03*
Y1222520D02*
D03*
X1325000Y1537480D02*
D03*
Y1222520D02*
D03*
D138*
X1086929Y1115748D02*
D03*
X1020000D02*
D03*
D139*
X2415276Y694500D02*
D03*
Y565500D02*
D03*
D140*
X1706890Y802598D02*
D03*
Y840000D02*
D03*
Y877402D02*
D03*
X1810039D02*
D03*
Y840000D02*
D03*
Y802598D02*
D03*
X1706890Y502598D02*
D03*
Y540000D02*
D03*
Y577402D02*
D03*
X1810039D02*
D03*
Y540000D02*
D03*
Y502598D02*
D03*
D141*
X260000Y1402953D02*
D03*
Y1197047D02*
D03*
D142*
X2418583Y1160000D02*
D03*
X2341417D02*
D03*
X1772047Y181299D02*
D03*
X1694882D02*
D03*
X2568583Y1160000D02*
D03*
X2491417D02*
D03*
D143*
X2219370Y250000D02*
D03*
X2140630Y287402D02*
D03*
Y212599D02*
D03*
D144*
X520315Y1488740D02*
D03*
X362835D02*
D03*
D145*
X1205158Y797795D02*
D03*
Y823386D02*
D03*
Y746614D02*
D03*
Y772205D02*
D03*
X1041772Y823386D02*
D03*
Y772205D02*
D03*
Y797795D02*
D03*
Y746614D02*
D03*
D146*
X713071Y605000D02*
D03*
Y642402D02*
D03*
Y567598D02*
D03*
X596929Y642402D02*
D03*
Y567598D02*
D03*
X1451535Y710000D02*
D03*
Y747402D02*
D03*
Y672598D02*
D03*
X1335394Y747402D02*
D03*
Y672598D02*
D03*
X2948071Y1457401D02*
D03*
Y1382598D02*
D03*
X2831929D02*
D03*
Y1457401D02*
D03*
Y1420000D02*
D03*
D147*
X1870000Y2514055D02*
D03*
Y2395945D02*
D03*
X1805000Y2739055D02*
D03*
Y2620945D02*
D03*
D148*
X1775866Y975000D02*
D03*
X1701063D02*
D03*
X819803Y1425748D02*
D03*
X745000D02*
D03*
D149*
X1740000Y2482402D02*
D03*
Y2407599D02*
D03*
X1010000Y1444508D02*
D03*
Y1369705D02*
D03*
X1705000Y2722402D02*
D03*
Y2647599D02*
D03*
D150*
X1110000Y248464D02*
D03*
Y181535D02*
D03*
X1888465Y668465D02*
D03*
Y601535D02*
D03*
X963465Y783465D02*
D03*
Y716535D02*
D03*
X2885858Y1630315D02*
D03*
Y1563386D02*
D03*
X2810500Y1630315D02*
D03*
Y1563386D02*
D03*
X1270276Y780472D02*
D03*
Y713543D02*
D03*
X675000Y343464D02*
D03*
Y276535D02*
D03*
X595000Y278465D02*
D03*
Y211536D02*
D03*
X1030000Y248465D02*
D03*
Y181536D02*
D03*
D151*
X443464Y626500D02*
D03*
X376535D02*
D03*
X1791929Y730000D02*
D03*
X1725000D02*
D03*
X1791929Y425000D02*
D03*
X1725000D02*
D03*
X1431929Y835000D02*
D03*
X1365000D02*
D03*
X1151929Y905000D02*
D03*
X1085000D02*
D03*
X2923465Y1290000D02*
D03*
X2856535D02*
D03*
X688465Y485000D02*
D03*
X621535D02*
D03*
X883465Y410000D02*
D03*
X816535D02*
D03*
D152*
X2878500Y1815000D02*
D03*
X2811500D02*
D03*
X2063465Y281299D02*
D03*
X1996535D02*
D03*
X2713465Y1160000D02*
D03*
X2646535D02*
D03*
X2263465D02*
D03*
X2196535D02*
D03*
X1781929Y281299D02*
D03*
X1715000D02*
D03*
X2168246Y2815000D02*
D03*
X2101317D02*
D03*
X671929Y100000D02*
D03*
X605000D02*
D03*
X863779D02*
D03*
X796850D02*
D03*
D153*
X2190000Y1299606D02*
D03*
Y1650000D02*
D03*
X2290000Y1299606D02*
D03*
Y1650000D02*
D03*
X2390000Y1299606D02*
D03*
Y1650000D02*
D03*
X2490000Y1299606D02*
D03*
Y1650000D02*
D03*
X2590000Y1299606D02*
D03*
Y1650000D02*
D03*
X2690000Y1299606D02*
D03*
Y1650000D02*
D03*
D154*
X1010000Y1582480D02*
D03*
Y1515551D02*
D03*
X1610000Y2723465D02*
D03*
Y2656535D02*
D03*
X888465Y783465D02*
D03*
Y716535D02*
D03*
X2380000Y1943465D02*
D03*
Y1876535D02*
D03*
X2460000Y1943465D02*
D03*
Y1876535D02*
D03*
X1620000Y2478465D02*
D03*
Y2411535D02*
D03*
X2165000Y2468465D02*
D03*
Y2401535D02*
D03*
X2855000Y2563465D02*
D03*
Y2496535D02*
D03*
D155*
X2878500Y1947402D02*
D03*
Y1892284D02*
D03*
X2970000Y2092559D02*
D03*
Y2037441D02*
D03*
D156*
X2345000Y2437402D02*
D03*
Y2474803D02*
D03*
Y2400000D02*
D03*
X2250512Y2474803D02*
D03*
Y2400000D02*
D03*
X447244Y734723D02*
D03*
Y772124D02*
D03*
Y697321D02*
D03*
X352756Y772124D02*
D03*
Y697321D02*
D03*
D157*
X2960000Y1945591D02*
D03*
Y1894409D02*
D03*
%TF.MD5,6ea405a17a3b38e4d5232de5f9131d67*%
M02*
