M48
;Layer_Color=9474304
;FILE_FORMAT=2:5
INCH,LZ
;TYPE=PLATED
T1F00S00C0.00787
T2F00S00C0.00900
T3F00S00C0.01500
T4F00S00C0.02000
T5F00S00C0.02756
T6F00S00C0.03000
T7F00S00C0.03228
T8F00S00C0.03937
T9F00S00C0.04000
T10F00S00C0.04173
T11F00S00C0.05500
T12F00S00C0.05700
T13F00S00C0.14200
%
T01
X0260366Y0191
X02645
Y0186866
X0268634Y0191
X02645Y0195134
T02
X0263516Y020059
X026506Y020239
X0266975Y0203475
X0263516Y02067
X027703Y019474
X0276Y0192
X0279211Y0185813
X0045347Y0093925
X004Y0085
Y00815
T03
X0054Y0054496
X0062154Y0043036
X0088346Y00467
X01725Y00375
X019926Y005026
X0241528Y0046
X029245Y0123
X0287347Y017565
X0295941Y01835
X0292Y01945
X027893Y019775
X0284177Y02085
X0301965Y0204116
X0276Y01808
X0251Y0187654
Y0203
X0194778Y0080482
X0164257Y00722
X01365Y00874
X0116Y0095
X0108396Y0096
X0116Y0111575
X0115978Y0079737
X007591Y008493
X0096535Y0130837
X0055328Y008484
X0055047Y007736
X0044724Y00815
X0035276Y00814
X00288Y00729
X0026028Y00595
X004Y00581
X01405Y0234
X015
X0163
X0176Y0231
X0172559Y0257
X0165975
X016
X01815
X01805Y02825
X01865
X01715
X0163782
X0156193
X0211309Y0277
X0208Y0237
X02295Y02475
X02395Y024
X0239941Y0216469
X0271Y02435
X02815Y024
X02855Y02433
X0278557Y0261766
X0248Y0308
T04
X0125Y0308
X0118Y0315
X0132
X0151
X0158Y0308
X0165Y0315
X0184
X0191Y0308
X0198Y0315
T05
X0062921Y01
X0070795
X0078669
X0055047
X0047173
X0039299
X0031425
X0023551
T06
X009Y01645
Y01745
Y01845
X003
Y01745
Y01645
Y02545
Y02645
Y02745
X009
Y02645
Y02545
T07
X01175Y02085
Y02185
Y02485
Y02585
Y02685
T08
X0253Y0043
X0273
Y0073
Y0083
X0253
Y0073
X02565Y02685
X02465
X02365
T09
X004316Y003432
X0148Y0050217
X018885Y002813
X0219Y0102
X0271
X0221Y0199
X0140847Y0101
X0124846
X0155925Y00748
X0058Y0116
X01515Y02585
X0195Y02645
X01965Y023
X0247957Y02305
X02712Y0227
X0281653Y0217
X02955Y02485
T10
X0066703Y0314331
X0076545
X0086388
X0096231
T11
X0251Y0021244
X0267299
T12
X0013338Y0048
Y0068
T13
X00195Y00205
X0301
X00195Y0328
X0301
M30
