%TF.GenerationSoftware,Altium Limited,Altium Designer,20.0.11 (256)*%
G04 Layer_Color=32896*
%FSLAX26Y26*%
%MOIN*%
%TF.FileFunction,Other,Mechanical_4*%
%TF.Part,Single*%
G01*
G75*
%TA.AperFunction,NonConductor*%
%ADD159C,0.004000*%
D159*
X365000Y205000D02*
G03*
X365000Y205000I-170000J0D01*
G01*
Y3280000D02*
G03*
X365000Y3280000I-170000J0D01*
G01*
X3180000D02*
G03*
X3180000Y3280000I-170000J0D01*
G01*
Y205000D02*
G03*
X3180000Y205000I-170000J0D01*
G01*
X1813465Y935000D02*
Y1015000D01*
X1663465D02*
X1813465D01*
X1663465Y935000D02*
X1813465D01*
X1663465D02*
Y1015000D01*
X1780000Y2370000D02*
Y2520000D01*
X1700000D02*
X1780000D01*
X1700000Y2370000D02*
X1780000D01*
X1700000D02*
Y2520000D01*
X856402Y1384748D02*
Y1466748D01*
X708402D02*
X856402D01*
X708402Y1384748D02*
X856402D01*
X708402D02*
Y1466748D01*
X1140000Y150000D02*
Y280000D01*
X1080000D02*
X1140000D01*
X1080000Y150000D02*
X1140000D01*
X1080000D02*
Y280000D01*
X475000Y596500D02*
Y656500D01*
X345000D02*
X475000D01*
X345000Y596500D02*
X475000D01*
X345000D02*
Y656500D01*
X2910000Y1785000D02*
Y1845000D01*
X2780000D02*
X2910000D01*
X2780000Y1785000D02*
X2910000D01*
X2780000D02*
Y1845000D01*
X1040000Y1484016D02*
Y1614016D01*
X980000D02*
X1040000D01*
X980000Y1484016D02*
X1040000D01*
X980000D02*
Y1614016D01*
X1640000Y2625000D02*
Y2755000D01*
X1580000D02*
X1640000D01*
X1580000Y2625000D02*
X1640000D01*
X1580000D02*
Y2755000D01*
X1823465Y700000D02*
Y760000D01*
X1693465D02*
X1823465D01*
X1693465Y700000D02*
X1823465D01*
X1693465D02*
Y760000D01*
X1823465Y395000D02*
Y455000D01*
X1693465D02*
X1823465D01*
X1693465Y395000D02*
X1823465D01*
X1693465D02*
Y455000D01*
X918465Y685000D02*
Y815000D01*
X858465D02*
X918465D01*
X858465Y685000D02*
X918465D01*
X858465D02*
Y815000D01*
X1463465Y805000D02*
Y865000D01*
X1333465D02*
X1463465D01*
X1333465Y805000D02*
X1463465D01*
X1333465D02*
Y865000D01*
X1183465Y875000D02*
Y935000D01*
X1053465D02*
X1183465D01*
X1053465Y875000D02*
X1183465D01*
X1053465D02*
Y935000D01*
X970000Y1482106D02*
X1050000D01*
X970000Y1332106D02*
Y1482106D01*
X1050000Y1332106D02*
Y1482106D01*
X970000Y1332106D02*
X1050000D01*
X1918465Y570000D02*
Y700000D01*
X1858465D02*
X1918465D01*
X1858465Y570000D02*
X1918465D01*
X1858465D02*
Y700000D01*
X993465Y685000D02*
Y815000D01*
X933465D02*
X993465D01*
X933465Y685000D02*
X993465D01*
X933465D02*
Y815000D01*
X2410000Y1845000D02*
Y1975000D01*
X2350000D02*
X2410000D01*
X2350000Y1845000D02*
X2410000D01*
X2350000D02*
Y1975000D01*
X2490000Y1845000D02*
Y1975000D01*
X2430000D02*
X2490000D01*
X2430000Y1845000D02*
X2490000D01*
X2430000D02*
Y1975000D01*
X1745000Y2610000D02*
Y2760000D01*
X1665000D02*
X1745000D01*
X1665000Y2610000D02*
X1745000D01*
X1665000D02*
Y2760000D01*
X2915858Y1531850D02*
Y1661850D01*
X2855858D02*
X2915858D01*
X2855858Y1531850D02*
X2915858D01*
X2855858D02*
Y1661850D01*
X2840500Y1531850D02*
Y1661850D01*
X2780500D02*
X2840500D01*
X2780500Y1531850D02*
X2840500D01*
X2780500D02*
Y1661850D01*
X2955000Y1260000D02*
Y1320000D01*
X2825000D02*
X2955000D01*
X2825000Y1260000D02*
X2955000D01*
X2825000D02*
Y1320000D01*
X1650000Y2380000D02*
Y2510000D01*
X1590000D02*
X1650000D01*
X1590000Y2380000D02*
X1650000D01*
X1590000D02*
Y2510000D01*
X2095000Y251299D02*
Y311299D01*
X1965000D02*
X2095000D01*
X1965000Y251299D02*
X2095000D01*
X1965000D02*
Y311299D01*
X2745000Y1130000D02*
Y1190000D01*
X2615000D02*
X2745000D01*
X2615000Y1130000D02*
X2745000D01*
X2615000D02*
Y1190000D01*
X2195000Y2370000D02*
Y2500000D01*
X2135000D02*
X2195000D01*
X2135000Y2370000D02*
X2195000D01*
X2135000D02*
Y2500000D01*
X1300276Y682008D02*
Y812008D01*
X1240276D02*
X1300276D01*
X1240276Y682008D02*
X1300276D01*
X1240276D02*
Y812008D01*
X2295000Y1130000D02*
Y1190000D01*
X2165000D02*
X2295000D01*
X2165000Y1130000D02*
X2295000D01*
X2165000D02*
Y1190000D01*
X1813465Y251299D02*
Y311299D01*
X1683465D02*
X1813465D01*
X1683465Y251299D02*
X1813465D01*
X1683465D02*
Y311299D01*
X720000Y455000D02*
Y515000D01*
X590000D02*
X720000D01*
X590000Y455000D02*
X720000D01*
X590000D02*
Y515000D01*
X915000Y380000D02*
Y440000D01*
X785000D02*
X915000D01*
X785000Y380000D02*
X915000D01*
X785000D02*
Y440000D01*
X2885000Y2465000D02*
Y2595000D01*
X2825000D02*
X2885000D01*
X2825000Y2465000D02*
X2885000D01*
X2825000D02*
Y2595000D01*
X2199782Y2785000D02*
Y2845000D01*
X2069782D02*
X2199782D01*
X2069782Y2785000D02*
X2199782D01*
X2069782D02*
Y2845000D01*
X705000Y245000D02*
Y375000D01*
X645000D02*
X705000D01*
X645000Y245000D02*
X705000D01*
X645000D02*
Y375000D01*
X625000Y180000D02*
Y310000D01*
X565000D02*
X625000D01*
X565000Y180000D02*
X625000D01*
X565000D02*
Y310000D01*
X703465Y70000D02*
Y130000D01*
X573465D02*
X703465D01*
X573465Y70000D02*
X703465D01*
X573465D02*
Y130000D01*
X895315Y70000D02*
Y130000D01*
X765315D02*
X895315D01*
X765315Y70000D02*
X895315D01*
X765315D02*
Y130000D01*
X1060000Y150000D02*
Y280000D01*
X1000000D02*
X1060000D01*
X1000000Y150000D02*
X1060000D01*
X1000000D02*
Y280000D01*
%TF.MD5,ecebd0b0cb160be772a72222cd6858f2*%
M02*
