%TF.GenerationSoftware,Altium Limited,Altium Designer,20.0.11 (256)*%
G04 Layer_Physical_Order=2*
G04 Layer_Color=16711680*
%FSLAX26Y26*%
%MOIN*%
%TF.FileFunction,Copper,L2,Bot,Signal*%
%TF.Part,Single*%
G01*
G75*
%TA.AperFunction,Conductor*%
%ADD54C,0.010000*%
%ADD55C,0.020000*%
%ADD56C,0.008000*%
%ADD57C,0.015000*%
%ADD58C,0.012000*%
%ADD60C,0.030000*%
%TA.AperFunction,ComponentPad*%
%ADD65C,0.060000*%
%ADD66R,0.060000X0.060000*%
%ADD67C,0.100000*%
%ADD68R,0.061024X0.061024*%
%ADD69C,0.061024*%
%ADD70C,0.052283*%
%ADD71R,0.052283X0.052283*%
%ADD72C,0.300000*%
%ADD73R,0.075000X0.075000*%
%ADD74C,0.075000*%
%ADD75C,0.125000*%
%ADD76C,0.068898*%
%ADD77C,0.047244*%
%ADD78R,0.047244X0.047244*%
%ADD79R,0.062598X0.062598*%
%ADD80C,0.062598*%
%ADD81C,0.040000*%
%ADD82R,0.020000X0.020000*%
%ADD83R,0.020000X0.040000*%
%TA.AperFunction,ViaPad*%
%ADD84C,0.019685*%
%ADD85C,0.030000*%
%ADD86C,0.016000*%
%TA.AperFunction,Conductor*%
%ADD87R,0.035000X0.041000*%
%ADD88R,0.043000X0.041000*%
%ADD89R,0.114578X0.103347*%
G36*
X202500Y3115138D02*
X216583Y3116061D01*
X237797Y3120280D01*
X258278Y3127233D01*
X277677Y3136799D01*
X292686Y3146828D01*
X295874Y3142944D01*
X140465Y2987535D01*
X136928Y2982243D01*
X135686Y2976000D01*
Y1007983D01*
X136928Y1001740D01*
X140465Y996448D01*
X209686Y927226D01*
Y687504D01*
X206037Y684086D01*
X190111Y685130D01*
X189107Y685755D01*
X187940Y694619D01*
X182297Y708242D01*
X173321Y719940D01*
X161623Y728916D01*
X148000Y734559D01*
X133381Y736483D01*
X118762Y734559D01*
X105139Y728916D01*
X93441Y719940D01*
X84465Y708242D01*
X81411Y700869D01*
X76411Y701864D01*
Y3156131D01*
X80890Y3160610D01*
X94339Y3148816D01*
X112323Y3136799D01*
X131722Y3127233D01*
X152203Y3120280D01*
X173417Y3116061D01*
X187500Y3115138D01*
Y3280000D01*
X202500D01*
Y3115138D01*
D02*
G37*
G36*
X442873Y992267D02*
X445857Y985061D01*
X450606Y978873D01*
X456793Y974125D01*
X463999Y971140D01*
X471732Y970122D01*
X479465Y971140D01*
X483188Y972683D01*
X542067Y913804D01*
Y866164D01*
X538142Y863542D01*
X533501Y856595D01*
X531871Y848402D01*
X533501Y840208D01*
X538142Y833261D01*
X541204Y831216D01*
X539687Y826216D01*
X465007D01*
X462384Y830140D01*
X455438Y834782D01*
X447244Y836411D01*
X439050Y834782D01*
X432104Y830140D01*
X427462Y823194D01*
X425833Y815000D01*
X427462Y806806D01*
X428401Y805401D01*
X426797Y800666D01*
X421314Y798798D01*
X416833Y801317D01*
X416359Y801917D01*
X416313Y802008D01*
Y815000D01*
X416000Y816576D01*
Y848424D01*
X416313Y850000D01*
Y981734D01*
X418867Y985061D01*
X421852Y992267D01*
X422608Y998016D01*
X442116D01*
X442873Y992267D01*
D02*
G37*
G36*
X284466Y999303D02*
X285392Y992267D01*
X288377Y985061D01*
X293125Y978873D01*
X299313Y974125D01*
X306519Y971140D01*
X314252Y970122D01*
X321985Y971140D01*
X329191Y974125D01*
X335379Y978873D01*
X340127Y985061D01*
X343111Y992267D01*
X343868Y998016D01*
X363376D01*
X364133Y992267D01*
X367117Y985061D01*
X371865Y978873D01*
X378053Y974125D01*
X383687Y971792D01*
Y850000D01*
X384000Y848424D01*
Y816576D01*
X383687Y815000D01*
Y741480D01*
X258206Y615999D01*
X252083Y614782D01*
X247314Y611595D01*
X242314Y614229D01*
Y933983D01*
X241072Y940226D01*
X237535Y945519D01*
X217296Y965759D01*
X219209Y970378D01*
X249273D01*
X341540Y878110D01*
Y831763D01*
X337616Y829140D01*
X332974Y822194D01*
X331344Y814000D01*
X332974Y805806D01*
X337616Y798860D01*
X344562Y794218D01*
X352756Y792589D01*
X360950Y794218D01*
X367896Y798860D01*
X372538Y805806D01*
X374167Y814000D01*
X372538Y822194D01*
X367896Y829140D01*
X363971Y831763D01*
Y882756D01*
X363118Y887048D01*
X360687Y890686D01*
X360686Y890687D01*
X265134Y986239D01*
Y996913D01*
X268783Y1000331D01*
X284466Y999303D01*
D02*
G37*
G36*
X3135000Y3473686D02*
Y3473686D01*
X3154081Y3471469D01*
X3167109Y3467517D01*
X3181615Y3459764D01*
X3194329Y3449329D01*
X3204764Y3436615D01*
X3212517Y3422109D01*
X3216469Y3409082D01*
X3218686Y3390000D01*
X3218686Y3390000D01*
X3218686Y3390000D01*
X3218686Y3370000D01*
Y100001D01*
X3218686Y100000D01*
X3218686Y100000D01*
X3216469Y80918D01*
X3212517Y67891D01*
X3204764Y53386D01*
X3194329Y40671D01*
X3181615Y30236D01*
X3167109Y22483D01*
X3154081Y18531D01*
X3135000Y16314D01*
X3135000Y16314D01*
X3115000Y16314D01*
X2869878D01*
X2861594Y36313D01*
X2910288Y85008D01*
X2918022Y78403D01*
X2938959Y65573D01*
X2961644Y56176D01*
X2985521Y50444D01*
X3010000Y48518D01*
X3034479Y50444D01*
X3058356Y56176D01*
X3081041Y65573D01*
X3101978Y78403D01*
X3120650Y94350D01*
X3136597Y113022D01*
X3149427Y133958D01*
X3158824Y156644D01*
X3164556Y180521D01*
X3166482Y205000D01*
X3164556Y229479D01*
X3158824Y253356D01*
X3149427Y276041D01*
X3136597Y296978D01*
X3120650Y315650D01*
X3120442Y320933D01*
X3180140Y380631D01*
X3184782Y387578D01*
X3186411Y395772D01*
Y2945000D01*
X3184782Y2953194D01*
X3180140Y2960140D01*
X3034867Y3105413D01*
X3034770Y3110419D01*
X3041447Y3127117D01*
X3058356Y3131176D01*
X3081041Y3140573D01*
X3101978Y3153403D01*
X3120650Y3169350D01*
X3136597Y3188022D01*
X3149427Y3208959D01*
X3158824Y3231644D01*
X3164556Y3255521D01*
X3166482Y3280000D01*
X3164556Y3304479D01*
X3158824Y3328356D01*
X3149427Y3351041D01*
X3136597Y3371978D01*
X3120650Y3390650D01*
X3101978Y3406597D01*
X3081041Y3419427D01*
X3058356Y3428824D01*
X3034479Y3434556D01*
X3010000Y3436482D01*
X2985521Y3434556D01*
X2961644Y3428824D01*
X2938959Y3419427D01*
X2918022Y3406597D01*
X2899350Y3390650D01*
X2883403Y3371978D01*
X2870573Y3351041D01*
X2861176Y3328356D01*
X2855444Y3304479D01*
X2853518Y3280000D01*
X2855444Y3255521D01*
X2861176Y3231644D01*
X2870573Y3208959D01*
X2883403Y3188022D01*
X2899350Y3169350D01*
X2918022Y3153403D01*
X2938959Y3140573D01*
X2961644Y3131176D01*
X2978589Y3127108D01*
Y3110000D01*
X2980218Y3101806D01*
X2984860Y3094860D01*
X3143589Y2936131D01*
Y404640D01*
X3082488Y343540D01*
X3081041Y344427D01*
X3058356Y353824D01*
X3034479Y359556D01*
X3010000Y361482D01*
X2985521Y359556D01*
X2961644Y353824D01*
X2938959Y344427D01*
X2918022Y331597D01*
X2899350Y315650D01*
X2883403Y296978D01*
X2870573Y276041D01*
X2861176Y253356D01*
X2855444Y229479D01*
X2853518Y205000D01*
X2855444Y180521D01*
X2861176Y156644D01*
X2870573Y133958D01*
X2881252Y116532D01*
X2831131Y66411D01*
X363869D01*
X319598Y110682D01*
X321597Y113022D01*
X334427Y133958D01*
X343824Y156644D01*
X349556Y180521D01*
X351482Y205000D01*
X349556Y229479D01*
X343824Y253356D01*
X334427Y276041D01*
X321597Y296978D01*
X305650Y315650D01*
X286978Y331597D01*
X266041Y344427D01*
X243356Y353824D01*
X219479Y359556D01*
X195000Y361482D01*
X170521Y359556D01*
X146644Y353824D01*
X123959Y344427D01*
X103022Y331597D01*
X100682Y329598D01*
X76411Y353869D01*
Y429401D01*
X85135Y434861D01*
X96411Y437781D01*
X105139Y431084D01*
X118762Y425441D01*
X133381Y423517D01*
X148000Y425441D01*
X161623Y431084D01*
X173321Y440060D01*
X182297Y451758D01*
X187940Y465381D01*
X189864Y480000D01*
X187940Y494619D01*
X182297Y508242D01*
X173321Y519940D01*
X161623Y528916D01*
X148000Y534559D01*
X133381Y536483D01*
X118762Y534559D01*
X105139Y528916D01*
X96411Y522219D01*
X85135Y525139D01*
X76411Y530599D01*
Y629401D01*
X85135Y634861D01*
X96411Y637781D01*
X105139Y631084D01*
X118762Y625441D01*
X133381Y623517D01*
X148000Y625441D01*
X161623Y631084D01*
X173321Y640060D01*
X182297Y651758D01*
X187940Y665381D01*
X189686Y678649D01*
X209686Y677338D01*
Y484000D01*
X210928Y477757D01*
X214465Y472465D01*
X355267Y331662D01*
X360560Y328126D01*
X366803Y326884D01*
X398841D01*
X399711Y324784D01*
X405564Y317157D01*
X413191Y311305D01*
X422073Y307625D01*
X431604Y306371D01*
X437231Y307111D01*
X442406Y306082D01*
X442407Y306082D01*
X448649Y307324D01*
X453942Y310860D01*
X457478Y316152D01*
X457478Y316152D01*
X457690Y317215D01*
X463497Y324784D01*
X467176Y333666D01*
X468431Y343197D01*
X467176Y352729D01*
X463497Y361611D01*
X457645Y369238D01*
X450018Y375091D01*
X441136Y378770D01*
X431604Y380024D01*
X422073Y378770D01*
X413191Y375091D01*
X405564Y369238D01*
X399711Y361611D01*
X398841Y359511D01*
X373560D01*
X242314Y490757D01*
Y558322D01*
X243583Y560517D01*
X260277Y573589D01*
X268471Y575218D01*
X275417Y579860D01*
X280059Y586806D01*
X281276Y592929D01*
X411535Y723188D01*
X415072Y728480D01*
X416313Y734723D01*
Y788188D01*
X421447Y791982D01*
X436313Y797047D01*
X439050Y795218D01*
X447244Y793589D01*
X455438Y795218D01*
X462384Y799860D01*
X465007Y803784D01*
X523163D01*
X525805Y800518D01*
X532022Y783784D01*
X530691Y781792D01*
X529061Y773598D01*
X530691Y765405D01*
X531291Y764506D01*
X529638Y762033D01*
X528784Y757740D01*
X528784Y757740D01*
Y562723D01*
X524860Y560101D01*
X520218Y553154D01*
X518589Y544961D01*
X520218Y536767D01*
X524860Y529821D01*
X531806Y525179D01*
X540000Y523549D01*
X548194Y525179D01*
X555140Y529821D01*
X559782Y536767D01*
X561411Y544961D01*
X559782Y553154D01*
X555140Y560101D01*
X551216Y562723D01*
Y752335D01*
X558666Y753817D01*
X565612Y758458D01*
X570254Y765405D01*
X571884Y773598D01*
X570254Y781792D01*
X568923Y783784D01*
X575140Y800518D01*
X577782Y803784D01*
X726598D01*
X726598Y803784D01*
X730890Y804638D01*
X734529Y807069D01*
X755973Y828514D01*
X759098Y827893D01*
X767291Y829522D01*
X774238Y834164D01*
X778879Y841110D01*
X780509Y849304D01*
X778879Y857498D01*
X774238Y864444D01*
X767291Y869086D01*
X759098Y870715D01*
X750904Y869086D01*
X743957Y864444D01*
X739316Y857498D01*
X737686Y849304D01*
X738907Y843169D01*
X721953Y826216D01*
X587768D01*
X583648Y830136D01*
X574259Y846216D01*
X574694Y848402D01*
X573064Y856595D01*
X568422Y863542D01*
X564498Y866164D01*
Y918449D01*
X564498Y918450D01*
X563644Y922742D01*
X561213Y926380D01*
X561213Y926381D01*
X534821Y952773D01*
X540706Y966424D01*
X545040Y970838D01*
X550472Y970122D01*
X558205Y971140D01*
X565411Y974125D01*
X571599Y978873D01*
X576347Y985061D01*
X578585Y990463D01*
X589842Y992832D01*
X601100Y990463D01*
X603338Y985061D01*
X608086Y978873D01*
X614274Y974125D01*
X621480Y971140D01*
X629212Y970122D01*
X636945Y971140D01*
X644151Y974125D01*
X650339Y978873D01*
X655087Y985061D01*
X657325Y990462D01*
X668583Y992832D01*
X679841Y990462D01*
X682078Y985061D01*
X686826Y978873D01*
X693014Y974125D01*
X700220Y971140D01*
X707953Y970122D01*
X715686Y971140D01*
X722891Y974125D01*
X729079Y978873D01*
X733827Y985061D01*
X736065Y990462D01*
X747323Y992832D01*
X758581Y990462D01*
X760818Y985061D01*
X765566Y978873D01*
X771754Y974125D01*
X778960Y971140D01*
X786693Y970122D01*
X794426Y971140D01*
X801632Y974125D01*
X807820Y978873D01*
X812568Y985061D01*
X815552Y992267D01*
X816571Y1000000D01*
X815552Y1007733D01*
X812568Y1014939D01*
X807820Y1021127D01*
X801632Y1025875D01*
X794426Y1028860D01*
X786693Y1029878D01*
X778960Y1028860D01*
X771754Y1025875D01*
X765566Y1021127D01*
X760818Y1014939D01*
X758581Y1009538D01*
X747323Y1007168D01*
X736065Y1009538D01*
X733827Y1014939D01*
X729079Y1021127D01*
X722891Y1025875D01*
X715686Y1028860D01*
X707953Y1029878D01*
X700220Y1028860D01*
X693014Y1025875D01*
X686826Y1021127D01*
X682078Y1014939D01*
X679841Y1009538D01*
X668583Y1007168D01*
X657325Y1009538D01*
X655087Y1014939D01*
X650339Y1021127D01*
X644151Y1025875D01*
X636945Y1028860D01*
X629212Y1029878D01*
X621480Y1028860D01*
X614274Y1025875D01*
X608086Y1021127D01*
X603338Y1014939D01*
X601100Y1009537D01*
X589842Y1007168D01*
X578585Y1009537D01*
X576347Y1014939D01*
X571599Y1021127D01*
X565411Y1025875D01*
X558205Y1028860D01*
X550472Y1029878D01*
X542740Y1028860D01*
X535534Y1025875D01*
X529346Y1021127D01*
X524598Y1014939D01*
X521613Y1007733D01*
X521189Y1004510D01*
X501016D01*
X500592Y1007733D01*
X497607Y1014939D01*
X492859Y1021127D01*
X486671Y1025875D01*
X479465Y1028860D01*
X471732Y1029878D01*
X463999Y1028860D01*
X456793Y1025875D01*
X450606Y1021127D01*
X445857Y1014939D01*
X442873Y1007733D01*
X442449Y1004511D01*
X422276D01*
X421852Y1007733D01*
X418867Y1014939D01*
X414119Y1021127D01*
X407931Y1025875D01*
X400725Y1028860D01*
X392992Y1029878D01*
X385259Y1028860D01*
X378053Y1025875D01*
X371865Y1021127D01*
X367117Y1014939D01*
X364133Y1007733D01*
X363708Y1004510D01*
X343536D01*
X343111Y1007733D01*
X340127Y1014939D01*
X335379Y1021127D01*
X329191Y1025875D01*
X321985Y1028860D01*
X314252Y1029878D01*
X306519Y1028860D01*
X299313Y1025875D01*
X293125Y1021127D01*
X288377Y1014939D01*
X285392Y1007733D01*
X285134Y1005768D01*
X265134Y1007079D01*
Y1029622D01*
X205890D01*
Y1003296D01*
X187412Y995642D01*
X168314Y1014741D01*
Y1146071D01*
X182544Y1160000D01*
X188314Y1160000D01*
X340000D01*
Y1445000D01*
X188314D01*
X182544Y1445000D01*
X168314Y1458929D01*
Y2969243D01*
X510159Y3311088D01*
X788243D01*
X847566Y3251765D01*
Y3176920D01*
X845069Y3175886D01*
X837278Y3169907D01*
X831299Y3162116D01*
X827540Y3153042D01*
X826259Y3143305D01*
X827540Y3133568D01*
X831299Y3124494D01*
X837278Y3116703D01*
X845069Y3110724D01*
X854143Y3106966D01*
X863880Y3105684D01*
X873617Y3106966D01*
X882690Y3110724D01*
X890482Y3116703D01*
X896460Y3124494D01*
X900219Y3133568D01*
X901501Y3143305D01*
X900219Y3153042D01*
X896460Y3162116D01*
X890482Y3169907D01*
X882690Y3175886D01*
X880193Y3176920D01*
Y3258522D01*
X878951Y3264765D01*
X875415Y3270057D01*
X806535Y3338937D01*
X801243Y3342473D01*
X795000Y3343715D01*
X503402D01*
X497159Y3342473D01*
X491866Y3338937D01*
X351488Y3198558D01*
X334427Y3208959D01*
X343824Y3231644D01*
X349556Y3255521D01*
X351482Y3280000D01*
X349556Y3304479D01*
X343824Y3328356D01*
X334427Y3351041D01*
X321597Y3371978D01*
X305650Y3390650D01*
X286978Y3406597D01*
X266041Y3419427D01*
X243356Y3428824D01*
X219479Y3434556D01*
X195000Y3436482D01*
X170521Y3434556D01*
X146644Y3428824D01*
X123959Y3419427D01*
X103022Y3406597D01*
X84350Y3390650D01*
X68403Y3371978D01*
X55573Y3351041D01*
X46176Y3328356D01*
X40444Y3304479D01*
X38518Y3280000D01*
X40444Y3255521D01*
X46176Y3231644D01*
X55573Y3208959D01*
X60553Y3200833D01*
X39860Y3180140D01*
X19538Y3185211D01*
X16314Y3187423D01*
Y3390000D01*
X16168Y3390731D01*
X17708Y3406369D01*
X22483Y3422109D01*
X30236Y3436615D01*
X40671Y3449329D01*
X53385Y3459764D01*
X67891Y3467517D01*
X80918Y3471469D01*
X100000Y3473686D01*
Y3473686D01*
X120000Y3473686D01*
X3134999D01*
X3135000Y3473686D01*
D02*
G37*
G36*
X30999Y3175658D02*
X35218Y3173194D01*
X33589Y3165000D01*
Y345000D01*
X35218Y336806D01*
X39860Y329860D01*
X63929Y305791D01*
X63816Y305661D01*
X51799Y287677D01*
X42233Y268278D01*
X35280Y247797D01*
X31061Y226583D01*
X30138Y212500D01*
X195000D01*
Y205000D01*
X202500D01*
Y40138D01*
X216583Y41061D01*
X237797Y45280D01*
X258278Y52233D01*
X277677Y61799D01*
X295661Y73816D01*
X295790Y73929D01*
X339860Y29860D01*
X346806Y25218D01*
X355000Y23589D01*
X2840000D01*
X2848194Y25218D01*
X2852544Y28125D01*
X2858561Y26665D01*
X2861126Y20471D01*
X2858349Y16314D01*
X100000D01*
X100000Y16314D01*
Y16314D01*
X95109Y16578D01*
X83631Y17708D01*
X67891Y22483D01*
X53385Y30236D01*
X40671Y40671D01*
X30236Y53385D01*
X22483Y67891D01*
X17708Y83631D01*
X16578Y95109D01*
X16314Y100000D01*
X16314D01*
Y3174386D01*
X21314Y3178075D01*
X30999Y3175658D01*
D02*
G37*
%LPC*%
G36*
X1832500Y3184315D02*
X1830863Y3184099D01*
X1822349Y3180572D01*
X1815038Y3174962D01*
X1809428Y3167651D01*
X1805901Y3159137D01*
X1805685Y3157500D01*
X1832500D01*
Y3184315D01*
D02*
G37*
G36*
X1517500D02*
Y3157500D01*
X1544315D01*
X1544099Y3159137D01*
X1540572Y3167651D01*
X1534962Y3174962D01*
X1527651Y3180572D01*
X1519137Y3184099D01*
X1517500Y3184315D01*
D02*
G37*
G36*
X1502500D02*
X1500863Y3184099D01*
X1492349Y3180572D01*
X1485038Y3174962D01*
X1479428Y3167651D01*
X1475901Y3159137D01*
X1475685Y3157500D01*
X1502500D01*
Y3184315D01*
D02*
G37*
G36*
X1172500D02*
X1170863Y3184099D01*
X1162349Y3180572D01*
X1155038Y3174962D01*
X1149428Y3167651D01*
X1145901Y3159137D01*
X1145685Y3157500D01*
X1172500D01*
Y3184315D01*
D02*
G37*
G36*
X1320000Y3176224D02*
X1313213Y3175331D01*
X1306888Y3172711D01*
X1301457Y3168544D01*
X1297289Y3163112D01*
X1294669Y3156787D01*
X1293776Y3150000D01*
X1294669Y3143213D01*
X1297289Y3136888D01*
X1301457Y3131456D01*
X1306888Y3127289D01*
X1313213Y3124669D01*
X1320000Y3123776D01*
X1326787Y3124669D01*
X1333112Y3127289D01*
X1338543Y3131456D01*
X1342711Y3136888D01*
X1345331Y3143213D01*
X1346224Y3150000D01*
X1345331Y3156787D01*
X1342711Y3163112D01*
X1338543Y3168544D01*
X1333112Y3172711D01*
X1326787Y3175331D01*
X1320000Y3176224D01*
D02*
G37*
G36*
X1544315Y3142500D02*
X1517500D01*
Y3115685D01*
X1519137Y3115901D01*
X1527651Y3119428D01*
X1534962Y3125038D01*
X1540572Y3132349D01*
X1544099Y3140863D01*
X1544315Y3142500D01*
D02*
G37*
G36*
X1502500D02*
X1475685D01*
X1475901Y3140863D01*
X1479428Y3132349D01*
X1485038Y3125038D01*
X1492349Y3119428D01*
X1500863Y3115901D01*
X1502500Y3115685D01*
Y3142500D01*
D02*
G37*
G36*
X1172500D02*
X1145685D01*
X1145901Y3140863D01*
X1149428Y3132349D01*
X1155038Y3125038D01*
X1162349Y3119428D01*
X1170863Y3115901D01*
X1172500Y3115685D01*
Y3142500D01*
D02*
G37*
G36*
X962305Y3180926D02*
X952568Y3179644D01*
X943494Y3175886D01*
X935703Y3169907D01*
X929724Y3162116D01*
X925966Y3153042D01*
X924684Y3143305D01*
X925966Y3133568D01*
X929724Y3124494D01*
X935703Y3116703D01*
X943494Y3110724D01*
X952568Y3106966D01*
X962305Y3105684D01*
X972042Y3106966D01*
X981115Y3110724D01*
X988907Y3116703D01*
X994886Y3124494D01*
X998644Y3133568D01*
X999926Y3143305D01*
X998644Y3153042D01*
X994886Y3162116D01*
X988907Y3169907D01*
X981115Y3175886D01*
X972042Y3179644D01*
X962305Y3180926D01*
D02*
G37*
G36*
X1580000Y3106224D02*
X1573213Y3105331D01*
X1566888Y3102711D01*
X1561457Y3098544D01*
X1557289Y3093112D01*
X1554669Y3086787D01*
X1553776Y3080000D01*
X1554669Y3073213D01*
X1557289Y3066888D01*
X1561457Y3061456D01*
X1566888Y3057289D01*
X1573213Y3054669D01*
X1580000Y3053776D01*
X1586787Y3054669D01*
X1593112Y3057289D01*
X1598543Y3061456D01*
X1602711Y3066888D01*
X1605331Y3073213D01*
X1606224Y3080000D01*
X1605331Y3086787D01*
X1602711Y3093112D01*
X1598543Y3098544D01*
X1593112Y3102711D01*
X1586787Y3105331D01*
X1580000Y3106224D01*
D02*
G37*
G36*
X1847500Y3184315D02*
Y3150000D01*
X1840000D01*
Y3142500D01*
X1805685D01*
X1805901Y3140863D01*
X1809428Y3132349D01*
X1815038Y3125038D01*
X1822349Y3119428D01*
X1830863Y3115901D01*
X1836867Y3094938D01*
X1760000Y3018071D01*
X1667214Y3110857D01*
X1668016Y3131052D01*
X1668543Y3131456D01*
X1672711Y3136888D01*
X1675331Y3143213D01*
X1676224Y3150000D01*
X1675331Y3156787D01*
X1672711Y3163112D01*
X1668543Y3168544D01*
X1663112Y3172711D01*
X1656787Y3175331D01*
X1650000Y3176224D01*
X1643213Y3175331D01*
X1636888Y3172711D01*
X1631457Y3168544D01*
X1627289Y3163112D01*
X1624669Y3156787D01*
X1623776Y3150000D01*
X1624669Y3143213D01*
X1627289Y3136888D01*
X1631457Y3131456D01*
X1633687Y3129745D01*
Y3105000D01*
X1634928Y3098757D01*
X1638465Y3093464D01*
X1743686Y2988243D01*
Y2818457D01*
X1740107Y2799961D01*
X1084966Y2796494D01*
X1082693Y2795539D01*
X1080408Y2794592D01*
X1080401Y2794575D01*
X1080384Y2794568D01*
X1079453Y2792287D01*
X1078506Y2790000D01*
Y2085000D01*
X1080408Y2080408D01*
X1125408Y2035408D01*
X1130000Y2033506D01*
X1889184Y2033505D01*
X1900000Y2033505D01*
X1900001Y2033506D01*
X1904592Y2035408D01*
X1906494Y2039999D01*
X1906495Y2040000D01*
X1906494Y2050815D01*
X1906494Y2595807D01*
X1926494Y2605670D01*
X1927048Y2605245D01*
X1938119Y2600660D01*
X1942500Y2600083D01*
Y2645000D01*
Y2689917D01*
X1938119Y2689340D01*
X1927048Y2684755D01*
X1926494Y2684330D01*
X1906494Y2694193D01*
X1906495Y2784697D01*
X1906495Y2790767D01*
X1906494Y2790767D01*
X1906491Y2790776D01*
X1906495Y2790784D01*
X1906494Y2790785D01*
X1905546Y2793058D01*
X1905545Y2793058D01*
X1904592Y2795359D01*
X1904582Y2795366D01*
X1904580Y2795372D01*
X1904579Y2795372D01*
X1901036Y2798897D01*
X1901035Y2798898D01*
X1901030Y2798900D01*
X1901023Y2798910D01*
X1898730Y2799845D01*
X1898729Y2799846D01*
X1896439Y2800787D01*
X1896438Y2800788D01*
X1896430Y2800784D01*
X1896421Y2800787D01*
X1896421Y2800788D01*
X1890632Y2800757D01*
X1890632Y2800757D01*
X1890335Y2800755D01*
X1790493Y2800227D01*
X1776313Y2814332D01*
Y2988243D01*
X1864123Y3076052D01*
X1874534Y3074613D01*
X1886104Y3069749D01*
X1887289Y3066888D01*
X1891457Y3061456D01*
X1896888Y3057289D01*
X1903213Y3054669D01*
X1910000Y3053776D01*
X1916787Y3054669D01*
X1923112Y3057289D01*
X1928543Y3061456D01*
X1932711Y3066888D01*
X1935331Y3073213D01*
X1936224Y3080000D01*
X1935331Y3086787D01*
X1932711Y3093112D01*
X1928543Y3098544D01*
X1925568Y3100827D01*
X1920733Y3122478D01*
X1930788Y3133686D01*
X1959745D01*
X1961457Y3131456D01*
X1966888Y3127289D01*
X1973213Y3124669D01*
X1980000Y3123776D01*
X1986787Y3124669D01*
X1993112Y3127289D01*
X1998543Y3131456D01*
X2002711Y3136888D01*
X2005331Y3143213D01*
X2006224Y3150000D01*
X2005331Y3156787D01*
X2002711Y3163112D01*
X1998543Y3168544D01*
X1993112Y3172711D01*
X1986787Y3175331D01*
X1980000Y3176224D01*
X1973213Y3175331D01*
X1966888Y3172711D01*
X1961457Y3168544D01*
X1959745Y3166314D01*
X1915000D01*
X1908757Y3165072D01*
X1903465Y3161535D01*
X1895062Y3153133D01*
X1874099Y3159137D01*
X1870572Y3167651D01*
X1864962Y3174962D01*
X1857651Y3180572D01*
X1849137Y3184099D01*
X1847500Y3184315D01*
D02*
G37*
G36*
X900000Y2781311D02*
X890602Y2780073D01*
X881845Y2776446D01*
X874324Y2770675D01*
X868554Y2763155D01*
X864927Y2754398D01*
X863689Y2745000D01*
X864927Y2735602D01*
X868554Y2726845D01*
X874324Y2719325D01*
X881845Y2713554D01*
X890602Y2709927D01*
X900000Y2708689D01*
X909398Y2709927D01*
X918155Y2713554D01*
X925676Y2719325D01*
X931446Y2726845D01*
X935073Y2735602D01*
X936311Y2745000D01*
X935073Y2754398D01*
X931446Y2763155D01*
X925676Y2770675D01*
X918155Y2776446D01*
X909398Y2780073D01*
X900000Y2781311D01*
D02*
G37*
G36*
X300000D02*
X290602Y2780073D01*
X281845Y2776446D01*
X274325Y2770675D01*
X268554Y2763155D01*
X264927Y2754398D01*
X263689Y2745000D01*
X264927Y2735602D01*
X268554Y2726845D01*
X274325Y2719325D01*
X281845Y2713554D01*
X290602Y2709927D01*
X300000Y2708689D01*
X309398Y2709927D01*
X318155Y2713554D01*
X325675Y2719325D01*
X331446Y2726845D01*
X335073Y2735602D01*
X336311Y2745000D01*
X335073Y2754398D01*
X331446Y2763155D01*
X325675Y2770675D01*
X318155Y2776446D01*
X309398Y2780073D01*
X300000Y2781311D01*
D02*
G37*
G36*
X2565000Y2725798D02*
X2554441Y2724408D01*
X2544601Y2720332D01*
X2536152Y2713848D01*
X2529668Y2705399D01*
X2526482Y2697707D01*
X2525592Y2695559D01*
X2524740Y2693897D01*
X2505260D01*
X2504408Y2695559D01*
X2503733Y2697189D01*
X2500332Y2705399D01*
X2493848Y2713848D01*
X2485399Y2720332D01*
X2475559Y2724408D01*
X2465000Y2725798D01*
X2454441Y2724408D01*
X2444601Y2720332D01*
X2436152Y2713848D01*
X2429668Y2705399D01*
X2426482Y2697707D01*
X2425592Y2695559D01*
X2424740Y2693897D01*
X2405260D01*
X2404408Y2695559D01*
X2403733Y2697189D01*
X2400332Y2705399D01*
X2393848Y2713848D01*
X2385399Y2720332D01*
X2375559Y2724408D01*
X2365000Y2725798D01*
X2354441Y2724408D01*
X2344601Y2720332D01*
X2336152Y2713848D01*
X2329668Y2705399D01*
X2325592Y2695559D01*
X2324202Y2685000D01*
X2325592Y2674441D01*
X2329668Y2664601D01*
X2336152Y2656152D01*
X2344601Y2649668D01*
X2354441Y2645592D01*
X2365000Y2644202D01*
X2375559Y2645592D01*
X2385399Y2649668D01*
X2393848Y2656152D01*
X2400332Y2664601D01*
X2403518Y2672293D01*
X2404408Y2674441D01*
X2405260Y2676103D01*
X2424740D01*
X2425592Y2674441D01*
X2426267Y2672811D01*
X2429668Y2664601D01*
X2436152Y2656152D01*
X2444601Y2649668D01*
X2454441Y2645592D01*
X2465000Y2644202D01*
X2475559Y2645592D01*
X2485399Y2649668D01*
X2493848Y2656152D01*
X2500332Y2664601D01*
X2503518Y2672293D01*
X2504408Y2674441D01*
X2505260Y2676103D01*
X2524740D01*
X2525592Y2674441D01*
X2526267Y2672811D01*
X2529668Y2664601D01*
X2536152Y2656152D01*
X2544601Y2649668D01*
X2554441Y2645592D01*
X2565000Y2644202D01*
X2575559Y2645592D01*
X2585399Y2649668D01*
X2593848Y2656152D01*
X2600332Y2664601D01*
X2604408Y2674441D01*
X2605798Y2685000D01*
X2604408Y2695559D01*
X2600332Y2705399D01*
X2593848Y2713848D01*
X2585399Y2720332D01*
X2575559Y2724408D01*
X2565000Y2725798D01*
D02*
G37*
G36*
X704328Y3180604D02*
X629730D01*
Y3106006D01*
X650687D01*
Y2748757D01*
X563243Y2661314D01*
X332209D01*
X331446Y2663155D01*
X325675Y2670675D01*
X318155Y2676446D01*
X309398Y2680073D01*
X300000Y2681311D01*
X290602Y2680073D01*
X281845Y2676446D01*
X274325Y2670675D01*
X268554Y2663155D01*
X264927Y2654398D01*
X263689Y2645000D01*
X264927Y2635602D01*
X268554Y2626845D01*
X274325Y2619325D01*
X281845Y2613554D01*
X290602Y2609927D01*
X300000Y2608689D01*
X309398Y2609927D01*
X318155Y2613554D01*
X325675Y2619325D01*
X331446Y2626845D01*
X332209Y2628686D01*
X570000D01*
X576243Y2629928D01*
X581535Y2633465D01*
X678535Y2730465D01*
X682072Y2735757D01*
X683313Y2742000D01*
Y3106006D01*
X704328D01*
Y3180604D01*
D02*
G37*
G36*
X1957500Y2689917D02*
Y2652500D01*
X1994917D01*
X1994340Y2656881D01*
X1989755Y2667952D01*
X1982459Y2677459D01*
X1972952Y2684755D01*
X1961881Y2689340D01*
X1957500Y2689917D01*
D02*
G37*
G36*
X900000Y2681311D02*
X890602Y2680073D01*
X881845Y2676446D01*
X874324Y2670675D01*
X868554Y2663155D01*
X864927Y2654398D01*
X863689Y2645000D01*
X864927Y2635602D01*
X868554Y2626845D01*
X874324Y2619325D01*
X881845Y2613554D01*
X890602Y2609927D01*
X900000Y2608689D01*
X909398Y2609927D01*
X918155Y2613554D01*
X925676Y2619325D01*
X931446Y2626845D01*
X935073Y2635602D01*
X936311Y2645000D01*
X935073Y2654398D01*
X931446Y2663155D01*
X925676Y2670675D01*
X918155Y2676446D01*
X909398Y2680073D01*
X900000Y2681311D01*
D02*
G37*
G36*
X1994917Y2637500D02*
X1957500D01*
Y2600083D01*
X1961881Y2600660D01*
X1972952Y2605245D01*
X1982459Y2612541D01*
X1989755Y2622048D01*
X1994340Y2633119D01*
X1994917Y2637500D01*
D02*
G37*
G36*
X900000Y2581311D02*
X890602Y2580073D01*
X881845Y2576446D01*
X874324Y2570675D01*
X868554Y2563155D01*
X864927Y2554398D01*
X863689Y2545000D01*
X864927Y2535602D01*
X868554Y2526845D01*
X874324Y2519325D01*
X881845Y2513554D01*
X890602Y2509927D01*
X900000Y2508689D01*
X909398Y2509927D01*
X918155Y2513554D01*
X925676Y2519325D01*
X931446Y2526845D01*
X935073Y2535602D01*
X936311Y2545000D01*
X935073Y2554398D01*
X931446Y2563155D01*
X925676Y2570675D01*
X918155Y2576446D01*
X909398Y2580073D01*
X900000Y2581311D01*
D02*
G37*
G36*
X300000D02*
X290602Y2580073D01*
X281845Y2576446D01*
X274325Y2570675D01*
X268554Y2563155D01*
X264927Y2554398D01*
X263689Y2545000D01*
X264927Y2535602D01*
X268554Y2526845D01*
X274325Y2519325D01*
X281845Y2513554D01*
X290602Y2509927D01*
X300000Y2508689D01*
X309398Y2509927D01*
X318155Y2513554D01*
X325675Y2519325D01*
X331446Y2526845D01*
X335073Y2535602D01*
X336311Y2545000D01*
X335073Y2554398D01*
X331446Y2563155D01*
X325675Y2570675D01*
X318155Y2576446D01*
X309398Y2580073D01*
X300000Y2581311D01*
D02*
G37*
G36*
X2785566Y2639076D02*
X2777372Y2637446D01*
X2770426Y2632805D01*
X2765784Y2625858D01*
X2764155Y2617664D01*
X2765784Y2609471D01*
X2770426Y2602524D01*
X2776186Y2598675D01*
Y2517047D01*
X2714629Y2455491D01*
X2710000Y2456411D01*
X2701806Y2454782D01*
X2694860Y2450140D01*
X2690218Y2443194D01*
X2688589Y2435000D01*
X2689540Y2430216D01*
X2682782Y2417293D01*
X2677250Y2410215D01*
X2413431D01*
X2410140Y2415140D01*
X2403194Y2419782D01*
X2395000Y2421411D01*
X2386806Y2419782D01*
X2379860Y2415140D01*
X2362591Y2423270D01*
X2315491Y2470371D01*
X2316411Y2475000D01*
X2314782Y2483194D01*
X2310140Y2490140D01*
X2303194Y2494782D01*
X2295000Y2496411D01*
X2286806Y2494782D01*
X2279860Y2490140D01*
X2275218Y2483194D01*
X2273589Y2475000D01*
X2275218Y2466806D01*
X2279860Y2459860D01*
X2286806Y2455218D01*
X2295000Y2453589D01*
X2299629Y2454509D01*
X2358242Y2395896D01*
X2358243Y2395896D01*
X2361881Y2393465D01*
X2366173Y2392611D01*
X2375058D01*
X2375218Y2391806D01*
X2379860Y2384860D01*
X2386806Y2380218D01*
X2395000Y2378589D01*
X2403194Y2380218D01*
X2410140Y2384860D01*
X2412094Y2387785D01*
X2797906D01*
X2799860Y2384860D01*
X2806806Y2380218D01*
X2815000Y2378589D01*
X2823194Y2380218D01*
X2830140Y2384860D01*
X2834782Y2391806D01*
X2836411Y2400000D01*
X2834782Y2408194D01*
X2830140Y2415140D01*
X2823194Y2419782D01*
X2815000Y2421411D01*
X2806806Y2419782D01*
X2799860Y2415140D01*
X2796569Y2410215D01*
X2742750D01*
X2737218Y2417293D01*
X2730460Y2430216D01*
X2731411Y2435000D01*
X2730491Y2439629D01*
X2795332Y2504471D01*
X2797763Y2508110D01*
X2798617Y2512402D01*
X2798617Y2512402D01*
Y2601128D01*
X2800706Y2602524D01*
X2805348Y2609471D01*
X2806977Y2617664D01*
X2805348Y2625858D01*
X2800706Y2632805D01*
X2793760Y2637446D01*
X2785566Y2639076D01*
D02*
G37*
G36*
X1965000Y2336827D02*
X1955468Y2335572D01*
X1946587Y2331893D01*
X1938959Y2326041D01*
X1933107Y2318413D01*
X1929428Y2309532D01*
X1928173Y2300000D01*
X1929428Y2290468D01*
X1933107Y2281587D01*
X1938959Y2273959D01*
X1946587Y2268107D01*
X1955468Y2264428D01*
X1965000Y2263173D01*
X1974532Y2264428D01*
X1983413Y2268107D01*
X1991041Y2273959D01*
X1996893Y2281587D01*
X2000572Y2290468D01*
X2001827Y2300000D01*
X2000572Y2309532D01*
X1996893Y2318413D01*
X1991041Y2326041D01*
X1983413Y2331893D01*
X1974532Y2335572D01*
X1965000Y2336827D01*
D02*
G37*
G36*
X2712000Y2306827D02*
X2702468Y2305572D01*
X2693587Y2301893D01*
X2685959Y2296041D01*
X2680107Y2288413D01*
X2676428Y2279532D01*
X2675173Y2270000D01*
X2676428Y2260468D01*
X2680107Y2251587D01*
X2685959Y2243959D01*
X2693587Y2238107D01*
X2702468Y2234428D01*
X2712000Y2233173D01*
X2721532Y2234428D01*
X2730413Y2238107D01*
X2738041Y2243959D01*
X2743893Y2251587D01*
X2747572Y2260468D01*
X2748827Y2270000D01*
X2747572Y2279532D01*
X2743893Y2288413D01*
X2738041Y2296041D01*
X2730413Y2301893D01*
X2721532Y2305572D01*
X2712000Y2306827D01*
D02*
G37*
G36*
X2816535Y2206827D02*
X2807004Y2205572D01*
X2798122Y2201893D01*
X2790495Y2196041D01*
X2784642Y2188413D01*
X2780963Y2179532D01*
X2779709Y2170000D01*
X2780963Y2160468D01*
X2784642Y2151587D01*
X2790495Y2143959D01*
X2798122Y2138107D01*
X2807004Y2134428D01*
X2816535Y2133173D01*
X2826067Y2134428D01*
X2834949Y2138107D01*
X2842576Y2143959D01*
X2848428Y2151587D01*
X2852108Y2160468D01*
X2853362Y2170000D01*
X2852108Y2179532D01*
X2848428Y2188413D01*
X2842576Y2196041D01*
X2834949Y2201893D01*
X2826067Y2205572D01*
X2816535Y2206827D01*
D02*
G37*
G36*
X1335000Y3311314D02*
X1328757Y3310072D01*
X1323465Y3306535D01*
X1238465Y3221535D01*
X1234928Y3216243D01*
X1233687Y3210000D01*
Y3174636D01*
X1220449Y3160119D01*
X1214099Y3159137D01*
X1213819Y3159814D01*
X1210572Y3167651D01*
X1204962Y3174962D01*
X1197651Y3180572D01*
X1189137Y3184099D01*
X1187500Y3184315D01*
Y3150000D01*
Y3115685D01*
X1189137Y3115901D01*
X1197651Y3119428D01*
X1204962Y3125038D01*
X1210572Y3132349D01*
X1213819Y3140186D01*
X1214099Y3140863D01*
X1220450Y3139881D01*
X1233687Y3125364D01*
Y3100255D01*
X1231457Y3098544D01*
X1227289Y3093112D01*
X1224669Y3086787D01*
X1223776Y3080000D01*
X1224669Y3073213D01*
X1227289Y3066888D01*
X1231457Y3061456D01*
X1236888Y3057289D01*
X1243213Y3054669D01*
X1250000Y3053776D01*
X1256787Y3054669D01*
X1263112Y3057289D01*
X1268543Y3061456D01*
X1272711Y3066888D01*
X1275331Y3073213D01*
X1276224Y3080000D01*
X1275331Y3086787D01*
X1272711Y3093112D01*
X1268543Y3098544D01*
X1266313Y3100255D01*
Y3203243D01*
X1341757Y3278686D01*
X2113243D01*
X2208686Y3183243D01*
Y2825000D01*
Y2390000D01*
X2209928Y2383757D01*
X2213465Y2378465D01*
X2296144Y2295785D01*
X2301437Y2292249D01*
X2307680Y2291007D01*
X2445847D01*
X2447678Y2286587D01*
X2453530Y2278959D01*
X2461158Y2273107D01*
X2470040Y2269428D01*
X2479571Y2268173D01*
X2489103Y2269428D01*
X2497985Y2273107D01*
X2505612Y2278959D01*
X2511464Y2286587D01*
X2513295Y2291007D01*
X2535923D01*
X2618844Y2208085D01*
Y2067000D01*
X2602023Y2054530D01*
X2565496D01*
X2561594Y2053754D01*
X2558286Y2051544D01*
X2547226Y2040484D01*
X2527514Y2041587D01*
X2525140Y2045140D01*
X2518194Y2049782D01*
X2510000Y2051411D01*
X2501806Y2049782D01*
X2494860Y2045140D01*
X2490218Y2038194D01*
X2488589Y2030000D01*
X2490218Y2021806D01*
X2490613Y2021216D01*
X2482238Y2001719D01*
X2481754Y2001216D01*
X2244874D01*
X2241893Y2008413D01*
X2236041Y2016041D01*
X2228413Y2021893D01*
X2219532Y2025572D01*
X2210000Y2026827D01*
X2200468Y2025572D01*
X2198369Y2024702D01*
X2129400Y2093671D01*
Y2756616D01*
X2132868Y2761806D01*
X2134498Y2770000D01*
X2132868Y2778194D01*
X2128227Y2785140D01*
X2121280Y2789782D01*
X2113087Y2791411D01*
X2104893Y2789782D01*
X2097947Y2785140D01*
X2093305Y2778194D01*
X2091675Y2770000D01*
X2093305Y2761806D01*
X2096773Y2756616D01*
Y2086913D01*
X2098015Y2080670D01*
X2101551Y2075378D01*
X2175298Y2001631D01*
X2174428Y1999532D01*
X2173173Y1990000D01*
X2174428Y1980468D01*
X2178107Y1971587D01*
X2183959Y1963959D01*
X2191587Y1958107D01*
X2200468Y1954428D01*
X2210000Y1953173D01*
X2219532Y1954428D01*
X2228413Y1958107D01*
X2236041Y1963959D01*
X2241893Y1971587D01*
X2244874Y1978784D01*
X2544999D01*
X2545000Y1978784D01*
X2549292Y1979638D01*
X2552931Y1982069D01*
X2562930Y1992069D01*
X2565362Y1995708D01*
X2565420Y1996001D01*
X2583126Y2013707D01*
X2602044D01*
X2617813Y2007174D01*
X2623689Y1987425D01*
X2619302Y1977002D01*
X2615814Y1971475D01*
X2612781Y1968660D01*
X2587508D01*
X2582916Y1966758D01*
X2581014Y1962166D01*
Y1858819D01*
X2582916Y1854227D01*
X2587508Y1852324D01*
X2694021D01*
X2702743Y1841170D01*
X2694074Y1821764D01*
X2584237D01*
X2531089Y1874913D01*
X2531411Y1876535D01*
X2529782Y1884729D01*
X2525140Y1891676D01*
X2518194Y1896317D01*
X2510000Y1897947D01*
X2501806Y1896317D01*
X2494860Y1891676D01*
X2490218Y1884729D01*
X2488589Y1876535D01*
X2490218Y1868342D01*
X2494860Y1861395D01*
X2501806Y1856754D01*
X2510000Y1855124D01*
X2511623Y1855447D01*
X2568802Y1798267D01*
X2573268Y1795283D01*
X2578535Y1794236D01*
X2743941D01*
X2744860Y1792860D01*
X2751806Y1788218D01*
X2760000Y1786589D01*
X2768194Y1788218D01*
X2775140Y1792860D01*
X2779782Y1799806D01*
X2781411Y1808000D01*
X2797614Y1822765D01*
X2942328D01*
X2944269Y1819860D01*
X2951216Y1815218D01*
X2959410Y1813589D01*
X2967603Y1815218D01*
X2974550Y1819860D01*
X2979191Y1826806D01*
X2980821Y1835000D01*
X2979191Y1843194D01*
X2974550Y1850140D01*
X2967603Y1854782D01*
X2959410Y1856411D01*
X2957359Y1856004D01*
X2947506Y1874436D01*
X2966535Y1893465D01*
X2970072Y1898757D01*
X2971314Y1905000D01*
Y2305000D01*
Y2452237D01*
X2973413Y2453107D01*
X2981041Y2458959D01*
X2986893Y2466587D01*
X2990572Y2475468D01*
X2991827Y2485000D01*
X2990572Y2494532D01*
X2986893Y2503413D01*
X2981041Y2511041D01*
X2973413Y2516893D01*
X2971314Y2517763D01*
Y2935000D01*
X2970072Y2941243D01*
X2966535Y2946535D01*
X2821535Y3091535D01*
X2816243Y3095072D01*
X2810000Y3096314D01*
X2493384D01*
X2488194Y3099782D01*
X2480000Y3101411D01*
X2471806Y3099782D01*
X2464860Y3095140D01*
X2460218Y3088194D01*
X2458589Y3080000D01*
X2460218Y3071806D01*
X2464860Y3064860D01*
X2471806Y3060218D01*
X2480000Y3058589D01*
X2488194Y3060218D01*
X2493384Y3063686D01*
X2803243D01*
X2938686Y2928243D01*
Y2517763D01*
X2936587Y2516893D01*
X2928959Y2511041D01*
X2923107Y2503413D01*
X2919428Y2494532D01*
X2918173Y2485000D01*
X2919428Y2475468D01*
X2923107Y2466587D01*
X2928959Y2458959D01*
X2936587Y2453107D01*
X2938686Y2452237D01*
Y2305000D01*
Y1981534D01*
X2936915Y1978706D01*
X2920000Y1966411D01*
X2911806Y1964782D01*
X2904860Y1960140D01*
X2900218Y1953194D01*
X2898589Y1945000D01*
X2900218Y1936806D01*
X2904860Y1929860D01*
X2908785Y1927237D01*
Y1905483D01*
X2901765Y1898464D01*
X2784836D01*
X2784204Y1899335D01*
X2773969Y1918464D01*
X2774274Y1920000D01*
X2786197Y1933812D01*
X2789894Y1936186D01*
X2823206D01*
X2823207Y1936186D01*
X2827499Y1937040D01*
X2831137Y1939471D01*
X2850466Y1958800D01*
X2850466Y1958800D01*
X2852897Y1962438D01*
X2853751Y1966730D01*
X2853751Y1966731D01*
Y2067751D01*
X2856908Y2069860D01*
X2861549Y2076806D01*
X2863179Y2085000D01*
X2861549Y2093194D01*
X2856908Y2100140D01*
X2849961Y2104782D01*
X2841768Y2106411D01*
X2833574Y2104782D01*
X2826628Y2100140D01*
X2821986Y2093194D01*
X2820356Y2085000D01*
X2821986Y2076806D01*
X2826628Y2069860D01*
X2831320Y2066724D01*
Y1990533D01*
X2828965Y1988267D01*
X2823793Y1987598D01*
X2806020Y1990281D01*
X2804443Y1992640D01*
X2797497Y1997282D01*
X2789303Y1998911D01*
X2781109Y1997282D01*
X2774163Y1992640D01*
X2771541Y1988715D01*
X2676364D01*
X2661130Y2005160D01*
X2669746Y2020472D01*
X2675209Y2021559D01*
X2679840Y2024653D01*
X2682934Y2029284D01*
X2684021Y2034746D01*
X2682934Y2040209D01*
X2679840Y2044840D01*
X2675209Y2047934D01*
X2669927Y2048985D01*
X2667367Y2051544D01*
X2664059Y2053755D01*
X2651471Y2067000D01*
Y2214843D01*
X2650229Y2221086D01*
X2646693Y2226378D01*
X2646599Y2226441D01*
X2646535Y2226535D01*
X2554215Y2318856D01*
X2548923Y2322392D01*
X2542680Y2323634D01*
X2511295D01*
X2505612Y2331041D01*
X2497985Y2336893D01*
X2489103Y2340572D01*
X2479571Y2341827D01*
X2470040Y2340572D01*
X2461158Y2336893D01*
X2453530Y2331041D01*
X2447847Y2323634D01*
X2314437D01*
X2241314Y2396757D01*
Y2825000D01*
Y3190000D01*
X2240072Y3196243D01*
X2236535Y3201535D01*
X2131535Y3306535D01*
X2126243Y3310072D01*
X2120000Y3311314D01*
X1335001D01*
X1335000Y3311314D01*
D02*
G37*
G36*
X765454Y3180926D02*
X755717Y3179644D01*
X746644Y3175886D01*
X738852Y3169907D01*
X732874Y3162116D01*
X729115Y3153042D01*
X727833Y3143305D01*
X729115Y3133568D01*
X732874Y3124494D01*
X738852Y3116703D01*
X746644Y3110724D01*
X751686Y3108635D01*
X751687Y1877000D01*
X752928Y1870757D01*
X756465Y1865465D01*
X865689Y1756240D01*
X864927Y1754398D01*
X863689Y1745000D01*
X864927Y1735602D01*
X868554Y1726845D01*
X874324Y1719324D01*
X881845Y1713554D01*
X890602Y1709927D01*
X900000Y1708689D01*
X909398Y1709927D01*
X918155Y1713554D01*
X925676Y1719324D01*
X931446Y1726845D01*
X935073Y1735602D01*
X936311Y1745000D01*
X935073Y1754398D01*
X931446Y1763155D01*
X925676Y1770676D01*
X918155Y1776446D01*
X909398Y1780073D01*
X900000Y1781311D01*
X890602Y1780073D01*
X888760Y1779310D01*
X870645Y1797426D01*
X881845Y1813554D01*
X890602Y1809927D01*
X900000Y1808689D01*
X909398Y1809927D01*
X918155Y1813554D01*
X925676Y1819324D01*
X931446Y1826845D01*
X935073Y1835602D01*
X936311Y1845000D01*
X935073Y1854398D01*
X931446Y1863155D01*
X925676Y1870676D01*
X918155Y1876446D01*
X909398Y1880073D01*
X900000Y1881311D01*
X890602Y1880073D01*
X881845Y1876446D01*
X874324Y1870676D01*
X868554Y1863155D01*
X864927Y1854398D01*
X863689Y1845000D01*
X864927Y1835602D01*
X868554Y1826845D01*
X865021Y1824392D01*
X852426Y1815645D01*
X784313Y1883757D01*
X784313Y3110761D01*
X792057Y3116703D01*
X798035Y3124494D01*
X801794Y3133568D01*
X803076Y3143305D01*
X801794Y3153042D01*
X798035Y3162116D01*
X792057Y3169907D01*
X784265Y3175886D01*
X775192Y3179644D01*
X765454Y3180926D01*
D02*
G37*
G36*
X300000Y1881311D02*
X290602Y1880073D01*
X281845Y1876446D01*
X274325Y1870676D01*
X268554Y1863155D01*
X264927Y1854398D01*
X263689Y1845000D01*
X264927Y1835602D01*
X268554Y1826845D01*
X274325Y1819324D01*
X281845Y1813554D01*
X290602Y1809927D01*
X300000Y1808689D01*
X309398Y1809927D01*
X318155Y1813554D01*
X325675Y1819324D01*
X331446Y1826845D01*
X335073Y1835602D01*
X336311Y1845000D01*
X335073Y1854398D01*
X331446Y1863155D01*
X325675Y1870676D01*
X318155Y1876446D01*
X309398Y1880073D01*
X300000Y1881311D01*
D02*
G37*
G36*
Y1781311D02*
X290602Y1780073D01*
X281845Y1776446D01*
X274325Y1770676D01*
X268554Y1763155D01*
X264927Y1754398D01*
X263689Y1745000D01*
X264927Y1735602D01*
X268554Y1726845D01*
X274325Y1719324D01*
X281845Y1713554D01*
X290602Y1709927D01*
X300000Y1708689D01*
X309398Y1709927D01*
X318155Y1713554D01*
X325675Y1719324D01*
X331446Y1726845D01*
X335073Y1735602D01*
X336311Y1745000D01*
X335073Y1754398D01*
X331446Y1763155D01*
X325675Y1770676D01*
X318155Y1776446D01*
X309398Y1780073D01*
X300000Y1781311D01*
D02*
G37*
G36*
X936000Y1681000D02*
X864000D01*
Y1609000D01*
X936000D01*
Y1681000D01*
D02*
G37*
G36*
X300000Y1681311D02*
X290602Y1680073D01*
X281845Y1676446D01*
X274325Y1670676D01*
X268554Y1663155D01*
X264927Y1654398D01*
X263689Y1645000D01*
X264927Y1635602D01*
X268554Y1626845D01*
X274325Y1619324D01*
X281845Y1613554D01*
X290602Y1609927D01*
X300000Y1608689D01*
X309398Y1609927D01*
X318155Y1613554D01*
X325675Y1619324D01*
X331446Y1626845D01*
X335073Y1635602D01*
X336311Y1645000D01*
X335073Y1654398D01*
X331446Y1663155D01*
X325675Y1670676D01*
X318155Y1676446D01*
X309398Y1680073D01*
X300000Y1681311D01*
D02*
G37*
G36*
X580000Y1196827D02*
X570468Y1195572D01*
X561587Y1191893D01*
X553959Y1186041D01*
X548107Y1178413D01*
X544428Y1169532D01*
X543173Y1160000D01*
X544428Y1150468D01*
X548107Y1141587D01*
X553959Y1133959D01*
X561587Y1128107D01*
X570468Y1124428D01*
X580000Y1123173D01*
X589532Y1124428D01*
X598413Y1128107D01*
X606041Y1133959D01*
X611893Y1141587D01*
X615572Y1150468D01*
X616827Y1160000D01*
X615572Y1169532D01*
X611893Y1178413D01*
X606041Y1186041D01*
X598413Y1191893D01*
X589532Y1195572D01*
X580000Y1196827D01*
D02*
G37*
G36*
X965346Y1329777D02*
X957153Y1328148D01*
X950206Y1323506D01*
X945565Y1316560D01*
X943935Y1308366D01*
X945565Y1300172D01*
X949033Y1294982D01*
Y993118D01*
X950275Y986875D01*
X953811Y981583D01*
X1041929Y893465D01*
X1047222Y889928D01*
X1053465Y888687D01*
X1496653D01*
X1589483Y795856D01*
X1578226Y780650D01*
X1578226Y780650D01*
X1577778Y780045D01*
X1568784Y783572D01*
X1559252Y784827D01*
X1549720Y783572D01*
X1540839Y779893D01*
X1533211Y774041D01*
X1527359Y766413D01*
X1523680Y757532D01*
X1522425Y748000D01*
X1523680Y738468D01*
X1527359Y729587D01*
X1533211Y721959D01*
X1540839Y716107D01*
X1549720Y712428D01*
X1559252Y711173D01*
X1568784Y712428D01*
X1577665Y716107D01*
X1585293Y721959D01*
X1591145Y729587D01*
X1594824Y738468D01*
X1596079Y748000D01*
X1594824Y757532D01*
X1591297Y766526D01*
X1591903Y766974D01*
X1591903D01*
X1594299Y768748D01*
X1607108Y778231D01*
X1936874Y448465D01*
X1942167Y444928D01*
X1948410Y443687D01*
X2401892D01*
X2407082Y440218D01*
X2415276Y438589D01*
X2423469Y440218D01*
X2430416Y444860D01*
X2435057Y451806D01*
X2436687Y460000D01*
X2435057Y468194D01*
X2430416Y475140D01*
X2423469Y479782D01*
X2415276Y481411D01*
X2407082Y479782D01*
X2401892Y476313D01*
X2024318D01*
X2013325Y492973D01*
X2012760Y496313D01*
X2014010Y502598D01*
X2013089Y507228D01*
X2514646Y1008784D01*
X2675126D01*
X2678107Y1001587D01*
X2683959Y993959D01*
X2691587Y988107D01*
X2700468Y984428D01*
X2710000Y983173D01*
X2719532Y984428D01*
X2728413Y988107D01*
X2736041Y993959D01*
X2741893Y1001587D01*
X2745572Y1010468D01*
X2746827Y1020000D01*
X2745572Y1029532D01*
X2741893Y1038413D01*
X2736041Y1046041D01*
X2728413Y1051893D01*
X2719532Y1055572D01*
X2710000Y1056827D01*
X2700468Y1055572D01*
X2691587Y1051893D01*
X2683959Y1046041D01*
X2678107Y1038413D01*
X2675126Y1031216D01*
X2510001D01*
X2510000Y1031216D01*
X2505708Y1030362D01*
X2502069Y1027931D01*
X2502069Y1027930D01*
X1997228Y523089D01*
X1992598Y524010D01*
X1984405Y522380D01*
X1977458Y517739D01*
X1972817Y510792D01*
X1971187Y502599D01*
X1955546Y488334D01*
X1944180Y487301D01*
X1514945Y916535D01*
X1509653Y920072D01*
X1503410Y921313D01*
X1188312D01*
X1187976Y921659D01*
X1179452Y941313D01*
X1179782Y941806D01*
X1181411Y950000D01*
X1179782Y958194D01*
X1175140Y965140D01*
X1168194Y969782D01*
X1160000Y971411D01*
X1151806Y969782D01*
X1144860Y965140D01*
X1140218Y958194D01*
X1138589Y950000D01*
X1140218Y941806D01*
X1140548Y941313D01*
X1132024Y921659D01*
X1131688Y921313D01*
X1060222D01*
X981660Y999876D01*
Y1068718D01*
X992441Y1084252D01*
X1001660Y1084252D01*
X1114488D01*
X1114488Y1084252D01*
Y1147244D01*
X1001660D01*
X992441Y1147244D01*
X981660Y1162778D01*
Y1294982D01*
X985128Y1300172D01*
X986758Y1308366D01*
X985128Y1316560D01*
X980486Y1323506D01*
X973540Y1328148D01*
X965346Y1329777D01*
D02*
G37*
G36*
X2190000Y1056827D02*
X2180468Y1055572D01*
X2171587Y1051893D01*
X2163959Y1046041D01*
X2158107Y1038413D01*
X2154428Y1029532D01*
X2153173Y1020000D01*
X2154428Y1010468D01*
X2157410Y1003271D01*
X1981816Y827677D01*
X1962918Y819960D01*
X1955972Y824602D01*
X1947778Y826232D01*
X1939584Y824602D01*
X1932638Y819960D01*
X1927997Y813014D01*
X1926367Y804820D01*
X1927997Y796626D01*
X1932638Y789680D01*
X1939584Y785039D01*
X1947778Y783409D01*
X1955972Y785039D01*
X1962918Y789680D01*
X1965541Y793605D01*
X1974820D01*
X1974820Y793605D01*
X1979112Y794458D01*
X1982751Y796890D01*
X2173271Y987409D01*
X2180468Y984428D01*
X2190000Y983173D01*
X2199532Y984428D01*
X2208413Y988107D01*
X2216041Y993959D01*
X2221893Y1001587D01*
X2225572Y1010468D01*
X2226827Y1020000D01*
X2225572Y1029532D01*
X2221893Y1038413D01*
X2216041Y1046041D01*
X2208413Y1051893D01*
X2199532Y1055572D01*
X2190000Y1056827D01*
D02*
G37*
G36*
X1408465Y1046827D02*
X1398933Y1045572D01*
X1390051Y1041893D01*
X1382424Y1036041D01*
X1376572Y1028413D01*
X1372892Y1019532D01*
X1371638Y1010000D01*
X1372892Y1000468D01*
X1376572Y991587D01*
X1382424Y983959D01*
X1390051Y978107D01*
X1398933Y974428D01*
X1408465Y973173D01*
X1417996Y974428D01*
X1426878Y978107D01*
X1434505Y983959D01*
X1440358Y991587D01*
X1444037Y1000468D01*
X1445292Y1010000D01*
X1444037Y1019532D01*
X1440358Y1028413D01*
X1434505Y1036041D01*
X1426878Y1041893D01*
X1417996Y1045572D01*
X1408465Y1046827D01*
D02*
G37*
G36*
X1248465D02*
X1238933Y1045572D01*
X1230051Y1041893D01*
X1222424Y1036041D01*
X1216572Y1028413D01*
X1212892Y1019532D01*
X1211638Y1010000D01*
X1212892Y1000468D01*
X1216572Y991587D01*
X1222424Y983959D01*
X1230051Y978107D01*
X1238933Y974428D01*
X1248465Y973173D01*
X1257996Y974428D01*
X1266878Y978107D01*
X1274505Y983959D01*
X1280358Y991587D01*
X1284037Y1000468D01*
X1285292Y1010000D01*
X1284037Y1019532D01*
X1280358Y1028413D01*
X1274505Y1036041D01*
X1266878Y1041893D01*
X1257996Y1045572D01*
X1248465Y1046827D01*
D02*
G37*
G36*
X2766512Y866512D02*
X2693488D01*
Y793488D01*
X2766512D01*
Y866512D01*
D02*
G37*
G36*
X2530000Y866827D02*
X2520468Y865572D01*
X2511587Y861893D01*
X2503959Y856041D01*
X2498107Y848413D01*
X2494428Y839532D01*
X2493173Y830000D01*
X2494428Y820468D01*
X2498107Y811587D01*
X2503959Y803959D01*
X2511587Y798107D01*
X2520468Y794428D01*
X2530000Y793173D01*
X2539532Y794428D01*
X2548413Y798107D01*
X2556041Y803959D01*
X2561893Y811587D01*
X2565572Y820468D01*
X2566827Y830000D01*
X2565572Y839532D01*
X2561893Y848413D01*
X2556041Y856041D01*
X2548413Y861893D01*
X2539532Y865572D01*
X2530000Y866827D01*
D02*
G37*
G36*
X2730000Y766827D02*
X2720468Y765572D01*
X2711587Y761893D01*
X2703959Y756041D01*
X2698107Y748413D01*
X2694428Y739532D01*
X2693173Y730000D01*
X2694428Y720468D01*
X2698107Y711587D01*
X2703959Y703959D01*
X2711587Y698107D01*
X2720468Y694428D01*
X2730000Y693173D01*
X2739532Y694428D01*
X2748413Y698107D01*
X2756041Y703959D01*
X2761893Y711587D01*
X2765572Y720468D01*
X2766827Y730000D01*
X2765572Y739532D01*
X2761893Y748413D01*
X2756041Y756041D01*
X2748413Y761893D01*
X2739532Y765572D01*
X2730000Y766827D01*
D02*
G37*
G36*
X2530000D02*
X2520468Y765572D01*
X2511587Y761893D01*
X2503959Y756041D01*
X2498107Y748413D01*
X2494428Y739532D01*
X2493173Y730000D01*
X2494428Y720468D01*
X2498107Y711587D01*
X2503959Y703959D01*
X2511587Y698107D01*
X2520468Y694428D01*
X2530000Y693173D01*
X2539532Y694428D01*
X2548413Y698107D01*
X2556041Y703959D01*
X2561893Y711587D01*
X2565572Y720468D01*
X2566827Y730000D01*
X2565572Y739532D01*
X2561893Y748413D01*
X2556041Y756041D01*
X2548413Y761893D01*
X2539532Y765572D01*
X2530000Y766827D01*
D02*
G37*
G36*
X1480000Y538992D02*
X1470468Y537737D01*
X1461587Y534058D01*
X1453959Y528206D01*
X1448107Y520579D01*
X1444428Y511697D01*
X1443173Y502165D01*
X1444428Y492634D01*
X1448107Y483752D01*
X1453959Y476125D01*
X1461587Y470272D01*
X1470468Y466593D01*
X1480000Y465339D01*
X1489532Y466593D01*
X1498413Y470272D01*
X1506041Y476125D01*
X1511893Y483752D01*
X1515572Y492634D01*
X1516827Y502165D01*
X1515572Y511697D01*
X1511893Y520579D01*
X1506041Y528206D01*
X1498413Y534058D01*
X1489532Y537737D01*
X1480000Y538992D01*
D02*
G37*
G36*
X2940000Y712000D02*
X2805000D01*
Y409000D01*
X2940000D01*
Y712000D01*
D02*
G37*
G36*
X2730000Y466827D02*
X2720468Y465572D01*
X2711587Y461893D01*
X2703959Y456041D01*
X2698107Y448413D01*
X2694428Y439531D01*
X2693173Y430000D01*
X2694428Y420469D01*
X2698107Y411587D01*
X2703959Y403959D01*
X2711587Y398107D01*
X2720468Y394428D01*
X2730000Y393173D01*
X2739532Y394428D01*
X2748413Y398107D01*
X2756041Y403959D01*
X2761893Y411587D01*
X2765572Y420469D01*
X2766827Y430000D01*
X2765572Y439531D01*
X2761893Y448413D01*
X2756041Y456041D01*
X2748413Y461893D01*
X2739532Y465572D01*
X2730000Y466827D01*
D02*
G37*
G36*
X2530000D02*
X2520468Y465572D01*
X2511587Y461893D01*
X2503959Y456041D01*
X2498107Y448413D01*
X2494428Y439531D01*
X2493173Y430000D01*
X2494428Y420469D01*
X2498107Y411587D01*
X2503959Y403959D01*
X2511587Y398107D01*
X2520468Y394428D01*
X2530000Y393173D01*
X2539532Y394428D01*
X2548413Y398107D01*
X2556041Y403959D01*
X2561893Y411587D01*
X2565572Y420469D01*
X2566827Y430000D01*
X2565572Y439531D01*
X2561893Y448413D01*
X2556041Y456041D01*
X2548413Y461893D01*
X2539532Y465572D01*
X2530000Y466827D01*
D02*
G37*
G36*
X1159777Y818784D02*
X1151584Y817155D01*
X1144637Y812513D01*
X1139996Y805567D01*
X1138366Y797373D01*
X1139996Y789179D01*
X1144637Y782233D01*
X1148562Y779611D01*
Y450223D01*
X1148562Y450223D01*
X1149416Y445931D01*
X1151847Y442292D01*
X1320770Y273369D01*
X1320770Y273369D01*
X1324409Y270937D01*
X1328701Y270084D01*
X1328701Y270084D01*
X1853626D01*
X1856607Y262886D01*
X1862459Y255259D01*
X1870087Y249406D01*
X1878969Y245727D01*
X1888500Y244472D01*
X1898032Y245727D01*
X1906914Y249406D01*
X1914541Y255259D01*
X1920393Y262886D01*
X1924072Y271768D01*
X1925327Y281299D01*
X1924072Y290831D01*
X1920393Y299713D01*
X1914541Y307340D01*
X1906914Y313192D01*
X1898032Y316871D01*
X1888500Y318126D01*
X1878969Y316871D01*
X1870087Y313192D01*
X1862459Y307340D01*
X1856607Y299713D01*
X1853626Y292515D01*
X1333346D01*
X1170993Y454868D01*
Y779611D01*
X1174918Y782233D01*
X1179559Y789179D01*
X1181189Y797373D01*
X1179559Y805567D01*
X1174918Y812513D01*
X1167971Y817155D01*
X1159777Y818784D01*
D02*
G37*
G36*
X2715115Y257751D02*
X2467876D01*
Y224417D01*
X2467620Y223797D01*
X2466125Y212441D01*
X2467620Y201085D01*
X2467876Y200465D01*
Y170000D01*
X2499104D01*
X2510000Y168566D01*
X2520896Y170000D01*
X2629492D01*
Y168941D01*
X2716492D01*
Y255941D01*
X2715115D01*
Y257751D01*
D02*
G37*
G36*
X2334996Y281272D02*
X2321568Y279950D01*
X2308655Y276033D01*
X2296755Y269672D01*
X2286325Y261112D01*
X2277765Y250682D01*
X2271404Y238782D01*
X2267487Y225869D01*
X2266165Y212441D01*
X2267487Y199013D01*
X2271404Y186100D01*
X2277765Y174200D01*
X2286325Y163770D01*
X2296755Y155210D01*
X2308655Y148849D01*
X2321568Y144932D01*
X2334996Y143610D01*
X2348424Y144932D01*
X2361337Y148849D01*
X2373237Y155210D01*
X2383667Y163770D01*
X2392227Y174200D01*
X2398588Y186100D01*
X2402505Y199013D01*
X2403827Y212441D01*
X2402505Y225869D01*
X2398588Y238782D01*
X2392227Y250682D01*
X2383667Y261112D01*
X2373237Y269672D01*
X2361337Y276033D01*
X2348424Y279950D01*
X2334996Y281272D01*
D02*
G37*
%LPD*%
G36*
X1785913Y2795623D02*
X1785922Y2795619D01*
X1785925Y2795611D01*
X1788205Y2794680D01*
X1790510Y2793733D01*
X1790519Y2793736D01*
X1790527Y2793733D01*
X1890370Y2794261D01*
X1890372Y2794262D01*
X1890374Y2794261D01*
X1890469Y2794262D01*
X1890667Y2794263D01*
X1890667Y2794263D01*
X1895171Y2794287D01*
X1895172Y2794287D01*
X1896455Y2794293D01*
X1900000Y2790767D01*
Y2789484D01*
X1900000Y2789483D01*
X1900000Y2784697D01*
X1900000Y2694193D01*
X1900416Y2693189D01*
X1900345Y2692105D01*
X1901330Y2690981D01*
X1901902Y2689601D01*
X1902906Y2689185D01*
X1903622Y2688368D01*
X1923622Y2678505D01*
X1924706Y2678434D01*
X1925091Y2678212D01*
X1926644Y2673101D01*
X1926644Y2673101D01*
X1923959Y2671041D01*
X1918107Y2663413D01*
X1914428Y2654532D01*
X1913173Y2645000D01*
X1914428Y2635468D01*
X1918107Y2626587D01*
X1923959Y2618959D01*
X1926644Y2616900D01*
X1925091Y2611788D01*
X1924706Y2611566D01*
X1923622Y2611495D01*
X1903622Y2601632D01*
X1902906Y2600815D01*
X1901902Y2600399D01*
X1901330Y2599019D01*
X1900345Y2597895D01*
X1900416Y2596811D01*
X1900000Y2595807D01*
X1900000Y2078974D01*
Y2050764D01*
X1900000Y2044464D01*
X1900000Y2044464D01*
Y2040000D01*
X1895536D01*
X1895535Y2040000D01*
X1889185Y2040000D01*
X1131292Y2040000D01*
D01*
X1130000D01*
X1129086Y2040914D01*
X1085914Y2084086D01*
X1085000Y2085000D01*
Y2086292D01*
Y2788708D01*
Y2790000D01*
X1086292Y2790007D01*
D01*
X1101070Y2790085D01*
X1740141Y2793466D01*
X1743686Y2789940D01*
Y2789533D01*
Y2323384D01*
X1740218Y2318194D01*
X1738589Y2310000D01*
X1740218Y2301806D01*
X1744860Y2294860D01*
X1751806Y2290218D01*
X1760000Y2288589D01*
X1768194Y2290218D01*
X1775140Y2294860D01*
X1779782Y2301806D01*
X1781411Y2310000D01*
X1779782Y2318194D01*
X1776313Y2323384D01*
Y2793658D01*
Y2798659D01*
X1780930Y2800579D01*
X1785913Y2795623D01*
D02*
G37*
%LPC*%
G36*
X1175000Y2717419D02*
X1166609Y2716314D01*
X1158791Y2713076D01*
X1152076Y2707924D01*
X1146924Y2701209D01*
X1143686Y2693391D01*
X1142581Y2685000D01*
X1143686Y2676609D01*
X1146924Y2668791D01*
X1152076Y2662076D01*
X1158791Y2656924D01*
X1166609Y2653686D01*
X1175000Y2652581D01*
X1183391Y2653686D01*
X1191209Y2656924D01*
X1197924Y2662076D01*
X1203076Y2668791D01*
X1206314Y2676609D01*
X1207419Y2685000D01*
X1206314Y2693391D01*
X1203076Y2701209D01*
X1197924Y2707924D01*
X1191209Y2713076D01*
X1183391Y2716314D01*
X1175000Y2717419D01*
D02*
G37*
G36*
X1182500Y2625509D02*
Y2592500D01*
X1215509D01*
X1215083Y2595740D01*
X1210937Y2605748D01*
X1204343Y2614343D01*
X1195748Y2620937D01*
X1185740Y2625083D01*
X1182500Y2625509D01*
D02*
G37*
G36*
X1522500Y2629917D02*
Y2592500D01*
X1559917D01*
X1559340Y2596881D01*
X1554755Y2607952D01*
X1547459Y2617459D01*
X1537952Y2624755D01*
X1526881Y2629340D01*
X1522500Y2629917D01*
D02*
G37*
G36*
X1507500D02*
X1503119Y2629340D01*
X1492048Y2624755D01*
X1482541Y2617459D01*
X1475245Y2607952D01*
X1470660Y2596881D01*
X1470083Y2592500D01*
X1507500D01*
Y2629917D01*
D02*
G37*
G36*
X1167500Y2625509D02*
X1164260Y2625083D01*
X1154252Y2620937D01*
X1145657Y2614343D01*
X1139063Y2605748D01*
X1134917Y2595740D01*
X1134491Y2592500D01*
X1167500D01*
Y2625509D01*
D02*
G37*
G36*
X1215509Y2577500D02*
X1182500D01*
Y2544491D01*
X1185740Y2544917D01*
X1195748Y2549063D01*
X1204343Y2555657D01*
X1210937Y2564252D01*
X1215083Y2574260D01*
X1215509Y2577500D01*
D02*
G37*
G36*
X1167500D02*
X1134491D01*
X1134917Y2574260D01*
X1139063Y2564252D01*
X1145657Y2555657D01*
X1154252Y2549063D01*
X1164260Y2544917D01*
X1167500Y2544491D01*
Y2577500D01*
D02*
G37*
G36*
X1559917D02*
X1522500D01*
Y2540083D01*
X1526881Y2540660D01*
X1537952Y2545245D01*
X1547459Y2552541D01*
X1554755Y2562048D01*
X1559340Y2573119D01*
X1559917Y2577500D01*
D02*
G37*
G36*
X1507500D02*
X1470083D01*
X1470660Y2573119D01*
X1475245Y2562048D01*
X1482541Y2552541D01*
X1492048Y2545245D01*
X1503119Y2540660D01*
X1507500Y2540083D01*
Y2577500D01*
D02*
G37*
G36*
X1175000Y2517419D02*
X1166609Y2516314D01*
X1158791Y2513076D01*
X1152076Y2507924D01*
X1146924Y2501209D01*
X1143686Y2493391D01*
X1142581Y2485000D01*
X1143686Y2476609D01*
X1146924Y2468791D01*
X1152076Y2462076D01*
X1158791Y2456924D01*
X1166609Y2453686D01*
X1175000Y2452581D01*
X1183391Y2453686D01*
X1191209Y2456924D01*
X1197924Y2462076D01*
X1203076Y2468791D01*
X1206314Y2476609D01*
X1207419Y2485000D01*
X1206314Y2493391D01*
X1203076Y2501209D01*
X1197924Y2507924D01*
X1191209Y2513076D01*
X1183391Y2516314D01*
X1175000Y2517419D01*
D02*
G37*
G36*
X1182500Y2225509D02*
Y2192500D01*
X1215509D01*
X1215083Y2195740D01*
X1210937Y2205748D01*
X1204343Y2214343D01*
X1195748Y2220937D01*
X1185740Y2225083D01*
X1182500Y2225509D01*
D02*
G37*
G36*
X1167500D02*
X1164260Y2225083D01*
X1154252Y2220937D01*
X1145657Y2214343D01*
X1139063Y2205748D01*
X1134917Y2195740D01*
X1134491Y2192500D01*
X1167500D01*
Y2225509D01*
D02*
G37*
G36*
X1215509Y2177500D02*
X1182500D01*
Y2144491D01*
X1185740Y2144917D01*
X1195748Y2149063D01*
X1204343Y2155657D01*
X1210937Y2164252D01*
X1215083Y2174260D01*
X1215509Y2177500D01*
D02*
G37*
G36*
X1167500D02*
X1134491D01*
X1134917Y2174260D01*
X1139063Y2164252D01*
X1145657Y2155657D01*
X1154252Y2149063D01*
X1164260Y2144917D01*
X1167500Y2144491D01*
Y2177500D01*
D02*
G37*
G36*
X1207142Y2117142D02*
X1142858D01*
Y2052858D01*
X1207142D01*
Y2117142D01*
D02*
G37*
G36*
X187500Y197500D02*
X30138D01*
X31061Y183417D01*
X35280Y162203D01*
X42233Y141722D01*
X51799Y122323D01*
X63816Y104339D01*
X78077Y88077D01*
X94339Y73816D01*
X112323Y61799D01*
X131722Y52233D01*
X152203Y45280D01*
X173417Y41061D01*
X187500Y40138D01*
Y197500D01*
D02*
G37*
%LPD*%
D54*
X1159777Y450223D02*
Y797373D01*
X726598Y815000D02*
X759098Y847499D01*
Y849304D01*
X447244Y815000D02*
X726598D01*
X2635157Y1990000D02*
Y2005903D01*
X2760000Y1893106D02*
Y1920000D01*
X2765858Y1887248D02*
X2906410D01*
X2760000Y1893106D02*
X2765858Y1887248D01*
X629212Y1000000D02*
X636117Y993096D01*
X2770303Y1947402D02*
X2823207D01*
X2842535Y1966730D01*
X2647658Y1977500D02*
X2789303D01*
X2635157Y1990000D02*
X2647658Y1977500D01*
X2920000Y1900838D02*
Y1945000D01*
X2906410Y1887248D02*
X2920000Y1900838D01*
X471732Y1000000D02*
X553282Y918450D01*
Y848402D02*
Y918450D01*
X540000Y757740D02*
X550472Y768213D01*
Y773598D01*
X1992598Y502598D02*
X2510000Y1020000D01*
X2710000D01*
X1947778Y804820D02*
X1974820D01*
X2190000Y1020000D01*
X1328701Y281299D02*
X1888500D01*
X1159777Y450223D02*
X1328701Y281299D01*
X540000Y544961D02*
Y757740D01*
X2785566Y2617664D02*
X2787402Y2615829D01*
Y2512402D02*
Y2615829D01*
X2710000Y2435000D02*
X2787402Y2512402D01*
X2814000Y2399000D02*
X2815000Y2400000D01*
X2396000Y2399000D02*
X2814000D01*
X352756Y814000D02*
Y882756D01*
X235512Y1000000D02*
X352756Y882756D01*
X2635000Y2215000D02*
X2635157Y2214843D01*
X2210000Y1990000D02*
X2545000D01*
X2842535Y1966730D02*
Y2084232D01*
X2841768Y2085000D02*
X2842535Y2084232D01*
X2545000Y1990000D02*
X2555000Y2000000D01*
X2295000Y2475000D02*
X2366173Y2403827D01*
X2391173D01*
D55*
X2635157Y2067000D02*
Y2214843D01*
X2113087Y2086913D02*
X2210000Y1990000D01*
X2113087Y2086913D02*
Y2770000D01*
X1948410Y460000D02*
X2415276D01*
X1053465Y905000D02*
X1503410D01*
X1948410Y460000D01*
X965346Y993118D02*
Y1308366D01*
Y993118D02*
X1053465Y905000D01*
X226000Y484000D02*
X366803Y343197D01*
X426604Y338197D02*
X442406Y322395D01*
X366803Y343197D02*
X431604D01*
X226000Y484000D02*
Y933983D01*
X2908131Y1858131D02*
X2955000Y1905000D01*
X2792109Y1858131D02*
X2908131D01*
X2480000Y3080000D02*
X2810000D01*
X2955000Y2935000D01*
X152000Y1007983D02*
X226000Y933983D01*
X667000Y2742000D02*
Y3143305D01*
X570000Y2645000D02*
X667000Y2742000D01*
X768000Y3143305D02*
X768000Y1877000D01*
X900000Y1745000D01*
X795000Y3327402D02*
X863880Y3258522D01*
Y3143305D02*
Y3258522D01*
X152000Y2976000D02*
X503402Y3327402D01*
X152000Y1007983D02*
Y2976000D01*
X260277Y595000D02*
X400000Y734723D01*
X392992Y1000000D02*
X400000Y992992D01*
Y734723D02*
Y815000D01*
X503402Y3327402D02*
X795000D01*
X1250000Y3210000D02*
X1335000Y3295000D01*
X2120000D01*
X2225000Y3190000D01*
X2307680Y2307320D02*
X2479571D01*
X2542680D01*
X2225000Y2825000D02*
Y3190000D01*
X400000Y850000D02*
Y992992D01*
X2542680Y2307320D02*
X2635000Y2215000D01*
X2225000Y2390000D02*
X2307680Y2307320D01*
X2955000Y2305000D02*
Y2935000D01*
X1650000Y3105000D02*
Y3150000D01*
Y3105000D02*
X1760000Y2995000D01*
Y2310000D02*
Y2995000D01*
X1915000Y3150000D02*
X1980000D01*
X1760000Y2995000D02*
X1915000Y3150000D01*
X2955000Y1905000D02*
Y2305000D01*
X2225000Y2390000D02*
Y2825000D01*
X1250000Y3080000D02*
Y3210000D01*
X300000Y2645000D02*
X570000D01*
D56*
X2578903Y2023903D02*
X2650604D01*
X2555000Y2000000D02*
X2578903Y2023903D01*
X2565496Y2044335D02*
X2660158D01*
X2551161Y2030000D02*
X2565496Y2044335D01*
X2660158D02*
X2669746Y2034746D01*
X2510000Y2030000D02*
X2551161D01*
D57*
X2510000Y1876535D02*
X2578535Y1808000D01*
X2760000D01*
D58*
X2733660Y1835000D02*
X2959410D01*
X2696087Y1864819D02*
X2703841D01*
X2688188Y1872717D02*
Y1880472D01*
Y1872717D02*
X2696087Y1864819D01*
X2703841D02*
X2733660Y1835000D01*
D60*
X355000Y45000D02*
X2840000D01*
X195000Y205000D02*
X355000Y45000D01*
X2840000D02*
X3000000Y205000D01*
X3165000Y395772D02*
Y2945000D01*
X3000000Y3110000D02*
Y3305000D01*
Y3110000D02*
X3165000Y2945000D01*
X55000Y345000D02*
X195000Y205000D01*
X55000Y345000D02*
Y3165000D01*
X195000Y3305000D01*
X3000000Y230772D02*
X3165000Y395772D01*
X3000000Y205000D02*
Y230772D01*
D65*
X300000Y1645000D02*
D03*
Y1745000D02*
D03*
Y2645000D02*
D03*
Y1845000D02*
D03*
Y2745000D02*
D03*
X900000Y1745000D02*
D03*
Y1845000D02*
D03*
X300000Y2545000D02*
D03*
X900000D02*
D03*
Y2745000D02*
D03*
Y2645000D02*
D03*
D66*
Y1645000D02*
D03*
D67*
X133381Y480000D02*
D03*
Y680000D02*
D03*
D68*
X2730000Y830000D02*
D03*
D69*
Y730000D02*
D03*
Y430000D02*
D03*
X2530000D02*
D03*
Y730000D02*
D03*
Y830000D02*
D03*
X2190000Y1020000D02*
D03*
X1559252Y748000D02*
D03*
X1248465Y1010000D02*
D03*
X1515000Y2585000D02*
D03*
X2712000Y2270000D02*
D03*
X431604Y343197D02*
D03*
X1408465Y1010000D02*
D03*
X2955000Y2485000D02*
D03*
X1965000Y2300000D02*
D03*
X1950000Y2645000D02*
D03*
X2479571Y2305000D02*
D03*
X2210000Y1990000D02*
D03*
X580000Y1160000D02*
D03*
X2816535Y2170000D02*
D03*
X2710000Y1020000D02*
D03*
X1480000Y502165D02*
D03*
X1888500Y281299D02*
D03*
D70*
X1175000Y2485000D02*
D03*
Y2685000D02*
D03*
Y2585000D02*
D03*
Y2185000D02*
D03*
D71*
Y2085000D02*
D03*
D72*
X195000Y205000D02*
D03*
Y3280000D02*
D03*
X3010000D02*
D03*
Y205000D02*
D03*
D73*
X2672992Y212441D02*
D03*
D74*
X2510000D02*
D03*
D75*
X2334996D02*
D03*
D76*
X2565000Y2685000D02*
D03*
X2365000D02*
D03*
X2465000D02*
D03*
D77*
X392992Y1000000D02*
D03*
X471732D02*
D03*
X314252D02*
D03*
X707953D02*
D03*
X786693D02*
D03*
X550472D02*
D03*
X629212D02*
D03*
D78*
X235512D02*
D03*
D79*
X667029Y3143305D02*
D03*
D80*
X765454D02*
D03*
X863880D02*
D03*
X962305D02*
D03*
D81*
X1910000Y3080000D02*
D03*
X1840000Y3150000D02*
D03*
X1980000D02*
D03*
X1250000Y3080000D02*
D03*
X1180000Y3150000D02*
D03*
X1320000D02*
D03*
X1580000Y3080000D02*
D03*
X1510000Y3150000D02*
D03*
X1650000D02*
D03*
D82*
X400000Y850000D02*
D03*
D83*
Y825000D02*
D03*
D84*
X2603661Y1910000D02*
D03*
X2645000Y1868661D02*
D03*
Y1910000D02*
D03*
X2686339D02*
D03*
X2645000Y1951339D02*
D03*
D85*
X1365000Y874000D02*
D03*
X1159777Y797373D02*
D03*
X1083965Y960000D02*
D03*
X759098Y849304D02*
D03*
X2789303Y1977500D02*
D03*
X2113087Y2770000D02*
D03*
X553282Y848402D02*
D03*
X447244Y815000D02*
D03*
X550472Y773598D02*
D03*
X1992598Y502598D02*
D03*
X1642569Y722000D02*
D03*
X2415276Y460000D02*
D03*
X1160000Y1115748D02*
D03*
X965346Y1308366D02*
D03*
X1947778Y804820D02*
D03*
X2924500Y1230000D02*
D03*
X2510000Y1876535D02*
D03*
X288000Y729000D02*
D03*
X2760000Y1808000D02*
D03*
X2480000Y3080000D02*
D03*
X2080000Y2370000D02*
D03*
X2399409Y2164685D02*
D03*
X3019646Y2041162D02*
D03*
X2873465Y1756500D02*
D03*
X1725000Y375000D02*
D03*
X883465Y467000D02*
D03*
X540000Y544961D02*
D03*
X621535Y430360D02*
D03*
X2855000Y2433000D02*
D03*
X2785566Y2617664D02*
D03*
X2710000Y2435000D02*
D03*
X352756Y814000D02*
D03*
X400000Y581000D02*
D03*
X1815000Y2570000D02*
D03*
X1561929Y2825000D02*
D03*
X1637824D02*
D03*
X1715000D02*
D03*
X1805000D02*
D03*
X1865000D02*
D03*
X1405000Y2340000D02*
D03*
X1500000D02*
D03*
X1630000D02*
D03*
X1600000Y2570000D02*
D03*
X260277Y595000D02*
D03*
X2295000Y2475000D02*
D03*
X2395000Y2400000D02*
D03*
X1659755Y2570000D02*
D03*
X1725591D02*
D03*
X1160000Y950000D02*
D03*
X1760000Y2310000D02*
D03*
X2959410Y1835000D02*
D03*
X2920000Y1945000D02*
D03*
X2841768Y2085000D02*
D03*
X2510000Y2030000D02*
D03*
X2815000Y2400000D02*
D03*
D86*
X2635157Y2005903D02*
D03*
X2760000Y1920000D02*
D03*
X2669746Y2034746D02*
D03*
X2650604Y2023903D02*
D03*
X2635157Y2067000D02*
D03*
X2770303Y1947402D02*
D03*
X453475Y939254D02*
D03*
X2792109Y1858131D02*
D03*
D87*
X2621864Y211941D02*
D03*
D88*
X2551864D02*
D03*
D89*
X2644798Y1910492D02*
D03*
%TF.MD5,388f76c42e3db86ec820c41c45591587*%
M02*
