%TF.GenerationSoftware,Altium Limited,Altium Designer,20.0.11 (256)*%
G04 Layer_Color=8388736*
%FSLAX26Y26*%
%MOIN*%
%TF.FileFunction,Other,Fab_Notes*%
%TF.Part,Single*%
G01*
G75*
%TA.AperFunction,NonConductor*%
%ADD113C,0.010000*%
%ADD170C,0.001000*%
%ADD175C,0.015000*%
D113*
X5689702Y5212041D02*
Y5164322D01*
X5721515D01*
X5745375Y5196135D02*
X5761281D01*
X5769234Y5188181D01*
Y5164322D01*
X5745375D01*
X5737421Y5172275D01*
X5745375Y5180228D01*
X5769234D01*
X5785141Y5196135D02*
Y5172275D01*
X5793094Y5164322D01*
X5816954D01*
Y5156368D01*
X5809001Y5148415D01*
X5801047D01*
X5816954Y5164322D02*
Y5196135D01*
X5856720Y5164322D02*
X5840814D01*
X5832860Y5172275D01*
Y5188181D01*
X5840814Y5196135D01*
X5856720D01*
X5864673Y5188181D01*
Y5180228D01*
X5832860D01*
X5880580Y5196135D02*
Y5164322D01*
Y5180228D01*
X5888533Y5188181D01*
X5896486Y5196135D01*
X5904440D01*
X5721515Y4686973D02*
X5689702D01*
X5721515Y4718786D01*
Y4726739D01*
X5713562Y4734693D01*
X5697655D01*
X5689702Y4726739D01*
Y4877913D02*
X5705608D01*
X5697655D01*
Y4925632D01*
X5689702Y4917679D01*
X6019909Y5164322D02*
Y5212041D01*
X6051722Y5164322D01*
Y5212041D01*
X6075582Y5196135D02*
X6091489D01*
X6099442Y5188181D01*
Y5164322D01*
X6075582D01*
X6067629Y5172275D01*
X6075582Y5180228D01*
X6099442D01*
X6115348Y5164322D02*
Y5196135D01*
X6123302D01*
X6131255Y5188181D01*
Y5164322D01*
Y5188181D01*
X6139208Y5196135D01*
X6147161Y5188181D01*
Y5164322D01*
X6186928D02*
X6171021D01*
X6163068Y5172275D01*
Y5188181D01*
X6171021Y5196135D01*
X6186928D01*
X6194881Y5188181D01*
Y5180228D01*
X6163068D01*
X6019909Y4543753D02*
Y4496034D01*
X6043769D01*
X6051722Y4503987D01*
Y4511940D01*
X6043769Y4519894D01*
X6019909D01*
X6043769D01*
X6051722Y4527847D01*
Y4535800D01*
X6043769Y4543753D01*
X6019909D01*
X6075582Y4496034D02*
X6091489D01*
X6099442Y4503987D01*
Y4519894D01*
X6091489Y4527847D01*
X6075582D01*
X6067629Y4519894D01*
Y4503987D01*
X6075582Y4496034D01*
X6123302Y4535800D02*
Y4527847D01*
X6115348D01*
X6131255D01*
X6123302D01*
Y4503987D01*
X6131255Y4496034D01*
X6163068Y4535800D02*
Y4527847D01*
X6155115D01*
X6171021D01*
X6163068D01*
Y4503987D01*
X6171021Y4496034D01*
X6202834D02*
X6218740D01*
X6226694Y4503987D01*
Y4519894D01*
X6218740Y4527847D01*
X6202834D01*
X6194881Y4519894D01*
Y4503987D01*
X6202834Y4496034D01*
X6242600D02*
Y4527847D01*
X6250553D01*
X6258507Y4519894D01*
Y4496034D01*
Y4519894D01*
X6266460Y4527847D01*
X6274413Y4519894D01*
Y4496034D01*
X6361899Y4543753D02*
X6345993D01*
X6338039Y4535800D01*
Y4503987D01*
X6345993Y4496034D01*
X6361899D01*
X6369852Y4503987D01*
Y4535800D01*
X6361899Y4543753D01*
X6385759Y4527847D02*
X6401665Y4496034D01*
X6417572Y4527847D01*
X6457338Y4496034D02*
X6441431D01*
X6433478Y4503987D01*
Y4519894D01*
X6441431Y4527847D01*
X6457338D01*
X6465291Y4519894D01*
Y4511940D01*
X6433478D01*
X6481198Y4527847D02*
Y4496034D01*
Y4511940D01*
X6489151Y4519894D01*
X6497104Y4527847D01*
X6505057D01*
X6528917Y4496034D02*
X6544824D01*
X6536870D01*
Y4543753D01*
X6528917D01*
X6576637Y4527847D02*
X6592543D01*
X6600497Y4519894D01*
Y4496034D01*
X6576637D01*
X6568684Y4503987D01*
X6576637Y4511940D01*
X6600497D01*
X6616403Y4527847D02*
Y4503987D01*
X6624356Y4496034D01*
X6648216D01*
Y4488081D01*
X6640263Y4480127D01*
X6632310D01*
X6648216Y4496034D02*
Y4527847D01*
X6019909Y4639223D02*
Y4591503D01*
X6043769D01*
X6051722Y4599457D01*
Y4607410D01*
X6043769Y4615363D01*
X6019909D01*
X6043769D01*
X6051722Y4623316D01*
Y4631270D01*
X6043769Y4639223D01*
X6019909D01*
X6075582Y4591503D02*
X6091489D01*
X6099442Y4599457D01*
Y4615363D01*
X6091489Y4623316D01*
X6075582D01*
X6067629Y4615363D01*
Y4599457D01*
X6075582Y4591503D01*
X6123302Y4631270D02*
Y4623316D01*
X6115348D01*
X6131255D01*
X6123302D01*
Y4599457D01*
X6131255Y4591503D01*
X6163068Y4631270D02*
Y4623316D01*
X6155115D01*
X6171021D01*
X6163068D01*
Y4599457D01*
X6171021Y4591503D01*
X6202834D02*
X6218740D01*
X6226694Y4599457D01*
Y4615363D01*
X6218740Y4623316D01*
X6202834D01*
X6194881Y4615363D01*
Y4599457D01*
X6202834Y4591503D01*
X6242600D02*
Y4623316D01*
X6250553D01*
X6258507Y4615363D01*
Y4591503D01*
Y4615363D01*
X6266460Y4623316D01*
X6274413Y4615363D01*
Y4591503D01*
X6369852Y4631270D02*
X6361899Y4639223D01*
X6345993D01*
X6338039Y4631270D01*
Y4623316D01*
X6345993Y4615363D01*
X6361899D01*
X6369852Y4607410D01*
Y4599457D01*
X6361899Y4591503D01*
X6345993D01*
X6338039Y4599457D01*
X6393712Y4591503D02*
X6409618D01*
X6417572Y4599457D01*
Y4615363D01*
X6409618Y4623316D01*
X6393712D01*
X6385759Y4615363D01*
Y4599457D01*
X6393712Y4591503D01*
X6433478D02*
X6449385D01*
X6441431D01*
Y4639223D01*
X6433478D01*
X6505057D02*
Y4591503D01*
X6481198D01*
X6473244Y4599457D01*
Y4615363D01*
X6481198Y4623316D01*
X6505057D01*
X6544824Y4591503D02*
X6528917D01*
X6520964Y4599457D01*
Y4615363D01*
X6528917Y4623316D01*
X6544824D01*
X6552777Y4615363D01*
Y4607410D01*
X6520964D01*
X6568684Y4623316D02*
Y4591503D01*
Y4607410D01*
X6576637Y4615363D01*
X6584590Y4623316D01*
X6592543D01*
X6019909Y4734693D02*
Y4686973D01*
X6043769D01*
X6051722Y4694926D01*
Y4702880D01*
X6043769Y4710833D01*
X6019909D01*
X6043769D01*
X6051722Y4718786D01*
Y4726739D01*
X6043769Y4734693D01*
X6019909D01*
X6075582Y4686973D02*
X6091489D01*
X6099442Y4694926D01*
Y4710833D01*
X6091489Y4718786D01*
X6075582D01*
X6067629Y4710833D01*
Y4694926D01*
X6075582Y4686973D01*
X6123302Y4726739D02*
Y4718786D01*
X6115348D01*
X6131255D01*
X6123302D01*
Y4694926D01*
X6131255Y4686973D01*
X6163068Y4726739D02*
Y4718786D01*
X6155115D01*
X6171021D01*
X6163068D01*
Y4694926D01*
X6171021Y4686973D01*
X6202834D02*
X6218740D01*
X6226694Y4694926D01*
Y4710833D01*
X6218740Y4718786D01*
X6202834D01*
X6194881Y4710833D01*
Y4694926D01*
X6202834Y4686973D01*
X6242600D02*
Y4718786D01*
X6250553D01*
X6258507Y4710833D01*
Y4686973D01*
Y4710833D01*
X6266460Y4718786D01*
X6274413Y4710833D01*
Y4686973D01*
X6338039Y4734693D02*
Y4686973D01*
X6369852D01*
X6393712Y4718786D02*
X6409618D01*
X6417572Y4710833D01*
Y4686973D01*
X6393712D01*
X6385759Y4694926D01*
X6393712Y4702880D01*
X6417572D01*
X6433478Y4718786D02*
Y4694926D01*
X6441431Y4686973D01*
X6465291D01*
Y4679020D01*
X6457338Y4671067D01*
X6449385D01*
X6465291Y4686973D02*
Y4718786D01*
X6505057Y4686973D02*
X6489151D01*
X6481198Y4694926D01*
Y4710833D01*
X6489151Y4718786D01*
X6505057D01*
X6513011Y4710833D01*
Y4702880D01*
X6481198D01*
X6528917Y4718786D02*
Y4686973D01*
Y4702880D01*
X6536870Y4710833D01*
X6544824Y4718786D01*
X6552777D01*
X6019909Y4830162D02*
Y4782443D01*
X6043769D01*
X6051722Y4790396D01*
Y4822209D01*
X6043769Y4830162D01*
X6019909D01*
X6067629Y4782443D02*
X6083535D01*
X6075582D01*
Y4814256D01*
X6067629D01*
X6131255Y4782443D02*
X6115348D01*
X6107395Y4790396D01*
Y4806303D01*
X6115348Y4814256D01*
X6131255D01*
X6139208Y4806303D01*
Y4798349D01*
X6107395D01*
X6155115Y4782443D02*
X6171021D01*
X6163068D01*
Y4830162D01*
X6155115D01*
X6218740Y4782443D02*
X6202834D01*
X6194881Y4790396D01*
Y4806303D01*
X6202834Y4814256D01*
X6218740D01*
X6226694Y4806303D01*
Y4798349D01*
X6194881D01*
X6274413Y4814256D02*
X6250553D01*
X6242600Y4806303D01*
Y4790396D01*
X6250553Y4782443D01*
X6274413D01*
X6298273Y4822209D02*
Y4814256D01*
X6290320D01*
X6306226D01*
X6298273D01*
Y4790396D01*
X6306226Y4782443D01*
X6330086Y4814256D02*
Y4782443D01*
Y4798349D01*
X6338039Y4806303D01*
X6345993Y4814256D01*
X6353946D01*
X6377806Y4782443D02*
X6393712D01*
X6385759D01*
Y4814256D01*
X6377806D01*
X6449385D02*
X6425525D01*
X6417572Y4806303D01*
Y4790396D01*
X6425525Y4782443D01*
X6449385D01*
X6513011D02*
X6528917D01*
X6520964D01*
Y4830162D01*
X6513011Y4822209D01*
X6019909Y4925632D02*
X6051722D01*
X6035816D01*
Y4877913D01*
X6075582D02*
X6091489D01*
X6099442Y4885866D01*
Y4901772D01*
X6091489Y4909726D01*
X6075582D01*
X6067629Y4901772D01*
Y4885866D01*
X6075582Y4877913D01*
X6115348Y4862006D02*
Y4909726D01*
X6139208D01*
X6147161Y4901772D01*
Y4885866D01*
X6139208Y4877913D01*
X6115348D01*
X6210787Y4925632D02*
Y4877913D01*
X6242600D01*
X6266460Y4909726D02*
X6282367D01*
X6290320Y4901772D01*
Y4877913D01*
X6266460D01*
X6258507Y4885866D01*
X6266460Y4893819D01*
X6290320D01*
X6306226Y4909726D02*
Y4885866D01*
X6314180Y4877913D01*
X6338039D01*
Y4869959D01*
X6330086Y4862006D01*
X6322133D01*
X6338039Y4877913D02*
Y4909726D01*
X6377806Y4877913D02*
X6361899D01*
X6353946Y4885866D01*
Y4901772D01*
X6361899Y4909726D01*
X6377806D01*
X6385759Y4901772D01*
Y4893819D01*
X6353946D01*
X6401665Y4909726D02*
Y4877913D01*
Y4893819D01*
X6409619Y4901772D01*
X6417572Y4909726D01*
X6425525D01*
X6019909Y5021102D02*
X6051722D01*
X6035816D01*
Y4973382D01*
X6075582D02*
X6091489D01*
X6099442Y4981336D01*
Y4997242D01*
X6091489Y5005195D01*
X6075582D01*
X6067629Y4997242D01*
Y4981336D01*
X6075582Y4973382D01*
X6115348Y4957476D02*
Y5005195D01*
X6139208D01*
X6147161Y4997242D01*
Y4981336D01*
X6139208Y4973382D01*
X6115348D01*
X6242600Y5013149D02*
X6234647Y5021102D01*
X6218741D01*
X6210787Y5013149D01*
Y5005195D01*
X6218741Y4997242D01*
X6234647D01*
X6242600Y4989289D01*
Y4981336D01*
X6234647Y4973382D01*
X6218741D01*
X6210787Y4981336D01*
X6266460Y4973382D02*
X6282367D01*
X6290320Y4981336D01*
Y4997242D01*
X6282367Y5005195D01*
X6266460D01*
X6258507Y4997242D01*
Y4981336D01*
X6266460Y4973382D01*
X6306226D02*
X6322133D01*
X6314180D01*
Y5021102D01*
X6306226D01*
X6377806D02*
Y4973382D01*
X6353946D01*
X6345993Y4981336D01*
Y4997242D01*
X6353946Y5005195D01*
X6377806D01*
X6417572Y4973382D02*
X6401665D01*
X6393712Y4981336D01*
Y4997242D01*
X6401665Y5005195D01*
X6417572D01*
X6425525Y4997242D01*
Y4989289D01*
X6393712D01*
X6441432Y5005195D02*
Y4973382D01*
Y4989289D01*
X6449385Y4997242D01*
X6457338Y5005195D01*
X6465291D01*
X6019909Y5116572D02*
X6051722D01*
X6035816D01*
Y5068852D01*
X6075582D02*
X6091489D01*
X6099442Y5076805D01*
Y5092712D01*
X6091489Y5100665D01*
X6075582D01*
X6067629Y5092712D01*
Y5076805D01*
X6075582Y5068852D01*
X6115348Y5052945D02*
Y5100665D01*
X6139208D01*
X6147161Y5092712D01*
Y5076805D01*
X6139208Y5068852D01*
X6115348D01*
X6234647Y5116572D02*
X6218741D01*
X6210787Y5108618D01*
Y5076805D01*
X6218741Y5068852D01*
X6234647D01*
X6242600Y5076805D01*
Y5108618D01*
X6234647Y5116572D01*
X6258507Y5100665D02*
X6274413Y5068852D01*
X6290320Y5100665D01*
X6330086Y5068852D02*
X6314180D01*
X6306226Y5076805D01*
Y5092712D01*
X6314180Y5100665D01*
X6330086D01*
X6338039Y5092712D01*
Y5084758D01*
X6306226D01*
X6353946Y5100665D02*
Y5068852D01*
Y5084758D01*
X6361899Y5092712D01*
X6369852Y5100665D01*
X6377806D01*
X6401665Y5068852D02*
X6417572D01*
X6409619D01*
Y5116572D01*
X6401665D01*
X6449385Y5100665D02*
X6465291D01*
X6473245Y5092712D01*
Y5068852D01*
X6449385D01*
X6441432Y5076805D01*
X6449385Y5084758D01*
X6473245D01*
X6489151Y5100665D02*
Y5076805D01*
X6497104Y5068852D01*
X6520964D01*
Y5060899D01*
X6513011Y5052945D01*
X6505058D01*
X6520964Y5068852D02*
Y5100665D01*
X6763686Y5164322D02*
Y5212041D01*
X6779592Y5196135D01*
X6795499Y5212041D01*
Y5164322D01*
X6819359Y5196135D02*
X6835265D01*
X6843218Y5188181D01*
Y5164322D01*
X6819359D01*
X6811405Y5172275D01*
X6819359Y5180228D01*
X6843218D01*
X6867078Y5204088D02*
Y5196135D01*
X6859125D01*
X6875031D01*
X6867078D01*
Y5172275D01*
X6875031Y5164322D01*
X6922751D02*
X6906844D01*
X6898891Y5172275D01*
Y5188181D01*
X6906844Y5196135D01*
X6922751D01*
X6930704Y5188181D01*
Y5180228D01*
X6898891D01*
X6946610Y5196135D02*
Y5164322D01*
Y5180228D01*
X6954564Y5188181D01*
X6962517Y5196135D01*
X6970470D01*
X6994330Y5164322D02*
X7010236D01*
X7002283D01*
Y5196135D01*
X6994330D01*
X7042049D02*
X7057956D01*
X7065909Y5188181D01*
Y5164322D01*
X7042049D01*
X7034096Y5172275D01*
X7042049Y5180228D01*
X7065909D01*
X7081816Y5164322D02*
X7097722D01*
X7089769D01*
Y5212041D01*
X7081816D01*
X6795499Y4631270D02*
X6787546Y4639223D01*
X6771639D01*
X6763686Y4631270D01*
Y4623316D01*
X6771639Y4615363D01*
X6787546D01*
X6795499Y4607410D01*
Y4599457D01*
X6787546Y4591503D01*
X6771639D01*
X6763686Y4599457D01*
X6811405Y4591503D02*
Y4639223D01*
X6827312Y4623316D01*
X6843218Y4639223D01*
Y4591503D01*
X6859125Y4615363D02*
X6890938D01*
X6906844Y4631270D02*
X6914797Y4639223D01*
X6930704D01*
X6938657Y4631270D01*
Y4599457D01*
X6930704Y4591503D01*
X6914797D01*
X6906844Y4599457D01*
Y4631270D01*
X6954564D02*
X6962517Y4639223D01*
X6978423D01*
X6986377Y4631270D01*
Y4599457D01*
X6978423Y4591503D01*
X6962517D01*
X6954564Y4599457D01*
Y4631270D01*
X7002283Y4591503D02*
X7018190D01*
X7010236D01*
Y4639223D01*
X7002283Y4631270D01*
X6795499Y4726739D02*
X6787546Y4734693D01*
X6771639D01*
X6763686Y4726739D01*
Y4694926D01*
X6771639Y4686973D01*
X6787546D01*
X6795499Y4694926D01*
X6819359Y4686973D02*
X6835265D01*
X6843218Y4694926D01*
Y4710833D01*
X6835265Y4718786D01*
X6819359D01*
X6811405Y4710833D01*
Y4694926D01*
X6819359Y4686973D01*
X6859125Y4671067D02*
Y4718786D01*
X6882984D01*
X6890938Y4710833D01*
Y4694926D01*
X6882984Y4686973D01*
X6859125D01*
X6906844Y4671067D02*
Y4718786D01*
X6930704D01*
X6938657Y4710833D01*
Y4694926D01*
X6930704Y4686973D01*
X6906844D01*
X6978423D02*
X6962517D01*
X6954564Y4694926D01*
Y4710833D01*
X6962517Y4718786D01*
X6978423D01*
X6986377Y4710833D01*
Y4702880D01*
X6954564D01*
X7002283Y4718786D02*
Y4686973D01*
Y4702880D01*
X7010236Y4710833D01*
X7018190Y4718786D01*
X7026143D01*
X6795499Y4830162D02*
X6763686D01*
Y4806303D01*
X6779592D01*
X6763686D01*
Y4782443D01*
X6811405D02*
Y4830162D01*
X6835265D01*
X6843218Y4822209D01*
Y4806303D01*
X6835265Y4798349D01*
X6811405D01*
X6827312D02*
X6843218Y4782443D01*
X6859125Y4806303D02*
X6890938D01*
X6930704Y4782443D02*
Y4830162D01*
X6906844Y4806303D01*
X6938657D01*
X6795499Y4917679D02*
X6787546Y4925632D01*
X6771639D01*
X6763686Y4917679D01*
Y4885866D01*
X6771639Y4877913D01*
X6787546D01*
X6795499Y4885866D01*
X6819359Y4877913D02*
X6835265D01*
X6843218Y4885866D01*
Y4901772D01*
X6835265Y4909726D01*
X6819359D01*
X6811405Y4901772D01*
Y4885866D01*
X6819359Y4877913D01*
X6859125Y4862006D02*
Y4909726D01*
X6882984D01*
X6890938Y4901772D01*
Y4885866D01*
X6882984Y4877913D01*
X6859125D01*
X6906844Y4862006D02*
Y4909726D01*
X6930704D01*
X6938657Y4901772D01*
Y4885866D01*
X6930704Y4877913D01*
X6906844D01*
X6978423D02*
X6962517D01*
X6954564Y4885866D01*
Y4901772D01*
X6962517Y4909726D01*
X6978423D01*
X6986377Y4901772D01*
Y4893819D01*
X6954564D01*
X7002283Y4909726D02*
Y4877913D01*
Y4893819D01*
X7010236Y4901772D01*
X7018190Y4909726D01*
X7026143D01*
X6795499Y5013149D02*
X6787546Y5021102D01*
X6771639D01*
X6763686Y5013149D01*
Y5005195D01*
X6771639Y4997242D01*
X6787546D01*
X6795499Y4989289D01*
Y4981336D01*
X6787546Y4973382D01*
X6771639D01*
X6763686Y4981336D01*
X6811405Y4973382D02*
Y5021102D01*
X6827312Y5005195D01*
X6843218Y5021102D01*
Y4973382D01*
X6859125Y4997242D02*
X6890938D01*
X6906844Y5013149D02*
X6914797Y5021102D01*
X6930704D01*
X6938657Y5013149D01*
Y4981336D01*
X6930704Y4973382D01*
X6914797D01*
X6906844Y4981336D01*
Y5013149D01*
X6954564D02*
X6962517Y5021102D01*
X6978423D01*
X6986377Y5013149D01*
Y4981336D01*
X6978423Y4973382D01*
X6962517D01*
X6954564Y4981336D01*
Y5013149D01*
X7002283Y4973382D02*
X7018190D01*
X7010236D01*
Y5021102D01*
X7002283Y5013149D01*
X7213192Y5212041D02*
X7245005D01*
X7229099D01*
Y5164322D01*
X7260912Y5212041D02*
Y5164322D01*
Y5188181D01*
X7268865Y5196135D01*
X7284771D01*
X7292725Y5188181D01*
Y5164322D01*
X7308631D02*
X7324538D01*
X7316584D01*
Y5196135D01*
X7308631D01*
X7380210D02*
X7356350D01*
X7348397Y5188181D01*
Y5172275D01*
X7356350Y5164322D01*
X7380210D01*
X7396117D02*
Y5212041D01*
Y5180228D02*
X7419976Y5196135D01*
X7396117Y5180228D02*
X7419976Y5164322D01*
X7443836D02*
Y5196135D01*
X7467696D01*
X7475649Y5188181D01*
Y5164322D01*
X7515415D02*
X7499509D01*
X7491556Y5172275D01*
Y5188181D01*
X7499509Y5196135D01*
X7515415D01*
X7523369Y5188181D01*
Y5180228D01*
X7491556D01*
X7539275Y5164322D02*
X7563135D01*
X7571088Y5172275D01*
X7563135Y5180228D01*
X7547228D01*
X7539275Y5188181D01*
X7547228Y5196135D01*
X7571088D01*
X7586995Y5164322D02*
X7610854D01*
X7618808Y5172275D01*
X7610854Y5180228D01*
X7594948D01*
X7586995Y5188181D01*
X7594948Y5196135D01*
X7618808D01*
X7213192Y4591503D02*
X7229099D01*
X7221145D01*
Y4639223D01*
X7213192Y4631270D01*
X7252958Y4591503D02*
Y4599457D01*
X7260911D01*
Y4591503D01*
X7252958D01*
X7292724Y4631270D02*
X7300678Y4639223D01*
X7316584D01*
X7324537Y4631270D01*
Y4599457D01*
X7316584Y4591503D01*
X7300678D01*
X7292724Y4599457D01*
Y4631270D01*
X7340444D02*
X7348397Y4639223D01*
X7364304D01*
X7372257Y4631270D01*
Y4599457D01*
X7364304Y4591503D01*
X7348397D01*
X7340444Y4599457D01*
Y4631270D01*
X7388163Y4591503D02*
Y4623316D01*
X7396117D01*
X7404070Y4615363D01*
Y4591503D01*
Y4615363D01*
X7412023Y4623316D01*
X7419976Y4615363D01*
Y4591503D01*
X7435883D02*
X7451789D01*
X7443836D01*
Y4623316D01*
X7435883D01*
X7475649Y4591503D02*
X7491556D01*
X7483602D01*
Y4639223D01*
X7475649D01*
X7213192Y4686973D02*
X7229099D01*
X7221145D01*
Y4734693D01*
X7213192Y4726739D01*
X7252958Y4686973D02*
Y4694926D01*
X7260911D01*
Y4686973D01*
X7252958D01*
X7316584D02*
Y4734693D01*
X7292724Y4710833D01*
X7324537D01*
X7340444Y4726739D02*
X7348397Y4734693D01*
X7364304D01*
X7372257Y4726739D01*
Y4694926D01*
X7364304Y4686973D01*
X7348397D01*
X7340444Y4694926D01*
Y4726739D01*
X7388163Y4686973D02*
Y4718786D01*
X7396117D01*
X7404070Y4710833D01*
Y4686973D01*
Y4710833D01*
X7412023Y4718786D01*
X7419976Y4710833D01*
Y4686973D01*
X7435883D02*
X7451789D01*
X7443836D01*
Y4718786D01*
X7435883D01*
X7475649Y4686973D02*
X7491556D01*
X7483602D01*
Y4734693D01*
X7475649D01*
X7245005Y4830162D02*
X7213192D01*
Y4806303D01*
X7229099Y4814256D01*
X7237052D01*
X7245005Y4806303D01*
Y4790396D01*
X7237052Y4782443D01*
X7221145D01*
X7213192Y4790396D01*
X7260912Y4822209D02*
X7268865Y4830162D01*
X7284771D01*
X7292725Y4822209D01*
Y4814256D01*
X7284771Y4806303D01*
X7292725Y4798349D01*
Y4790396D01*
X7284771Y4782443D01*
X7268865D01*
X7260912Y4790396D01*
Y4798349D01*
X7268865Y4806303D01*
X7260912Y4814256D01*
Y4822209D01*
X7268865Y4806303D02*
X7284771D01*
X7308631Y4782443D02*
Y4790396D01*
X7316584D01*
Y4782443D01*
X7308631D01*
X7348397Y4822209D02*
X7356350Y4830162D01*
X7372257D01*
X7380210Y4822209D01*
Y4790396D01*
X7372257Y4782443D01*
X7356350D01*
X7348397Y4790396D01*
Y4822209D01*
X7396117D02*
X7404070Y4830162D01*
X7419976D01*
X7427930Y4822209D01*
Y4790396D01*
X7419976Y4782443D01*
X7404070D01*
X7396117Y4790396D01*
Y4822209D01*
X7443836Y4782443D02*
Y4814256D01*
X7451789D01*
X7459743Y4806303D01*
Y4782443D01*
Y4806303D01*
X7467696Y4814256D01*
X7475649Y4806303D01*
Y4782443D01*
X7491556D02*
X7507462D01*
X7499509D01*
Y4814256D01*
X7491556D01*
X7531322Y4782443D02*
X7547228D01*
X7539275D01*
Y4830162D01*
X7531322D01*
X7213192Y4877913D02*
X7229099D01*
X7221145D01*
Y4925632D01*
X7213192Y4917679D01*
X7252958Y4877913D02*
Y4885866D01*
X7260911D01*
Y4877913D01*
X7252958D01*
X7316584D02*
Y4925632D01*
X7292724Y4901772D01*
X7324537D01*
X7340444Y4917679D02*
X7348397Y4925632D01*
X7364304D01*
X7372257Y4917679D01*
Y4885866D01*
X7364304Y4877913D01*
X7348397D01*
X7340444Y4885866D01*
Y4917679D01*
X7388163Y4877913D02*
Y4909726D01*
X7396117D01*
X7404070Y4901772D01*
Y4877913D01*
Y4901772D01*
X7412023Y4909726D01*
X7419976Y4901772D01*
Y4877913D01*
X7435883D02*
X7451789D01*
X7443836D01*
Y4909726D01*
X7435883D01*
X7475649Y4877913D02*
X7491556D01*
X7483602D01*
Y4925632D01*
X7475649D01*
X7213192Y4973382D02*
X7229099D01*
X7221145D01*
Y5021102D01*
X7213192Y5013149D01*
X7252958Y4973382D02*
Y4981336D01*
X7260911D01*
Y4973382D01*
X7252958D01*
X7292724Y5013149D02*
X7300678Y5021102D01*
X7316584D01*
X7324537Y5013149D01*
Y4981336D01*
X7316584Y4973382D01*
X7300678D01*
X7292724Y4981336D01*
Y5013149D01*
X7340444D02*
X7348397Y5021102D01*
X7364304D01*
X7372257Y5013149D01*
Y4981336D01*
X7364304Y4973382D01*
X7348397D01*
X7340444Y4981336D01*
Y5013149D01*
X7388163Y4973382D02*
Y5005195D01*
X7396117D01*
X7404070Y4997242D01*
Y4973382D01*
Y4997242D01*
X7412023Y5005195D01*
X7419976Y4997242D01*
Y4973382D01*
X7435883D02*
X7451789D01*
X7443836D01*
Y5005195D01*
X7435883D01*
X7475649Y4973382D02*
X7491556D01*
X7483602D01*
Y5021102D01*
X7475649D01*
X7766091Y5204088D02*
X7758137Y5212041D01*
X7742231D01*
X7734278Y5204088D01*
Y5172275D01*
X7742231Y5164322D01*
X7758137D01*
X7766091Y5172275D01*
X7789950Y5164322D02*
X7805857D01*
X7813810Y5172275D01*
Y5188181D01*
X7805857Y5196135D01*
X7789950D01*
X7781997Y5188181D01*
Y5172275D01*
X7789950Y5164322D01*
X7829717D02*
Y5196135D01*
X7853576D01*
X7861529Y5188181D01*
Y5164322D01*
X7877436D02*
X7901296D01*
X7909249Y5172275D01*
X7901296Y5180228D01*
X7885389D01*
X7877436Y5188181D01*
X7885389Y5196135D01*
X7909249D01*
X7933109Y5204088D02*
Y5196135D01*
X7925155D01*
X7941062D01*
X7933109D01*
Y5172275D01*
X7941062Y5164322D01*
X7972875Y5196135D02*
X7988781D01*
X7996735Y5188181D01*
Y5164322D01*
X7972875D01*
X7964922Y5172275D01*
X7972875Y5180228D01*
X7996735D01*
X8012641Y5164322D02*
Y5196135D01*
X8036501D01*
X8044454Y5188181D01*
Y5164322D01*
X8068314Y5204088D02*
Y5196135D01*
X8060361D01*
X8076267D01*
X8068314D01*
Y5172275D01*
X8076267Y5164322D01*
X7758137Y4591503D02*
Y4639223D01*
X7734278Y4615363D01*
X7766091D01*
X7758137Y4782443D02*
Y4830162D01*
X7734278Y4806303D01*
X7766091D01*
X7781997Y4782443D02*
Y4790396D01*
X7789950D01*
Y4782443D01*
X7781997D01*
X7853576D02*
X7821763D01*
X7853576Y4814256D01*
Y4822209D01*
X7845623Y4830162D01*
X7829716D01*
X7821763Y4822209D01*
X7758137Y4973382D02*
Y5021102D01*
X7734278Y4997242D01*
X7766091D01*
X8223550Y5204088D02*
X8215597Y5212041D01*
X8199690D01*
X8191737Y5204088D01*
Y5172275D01*
X8199690Y5164322D01*
X8215597D01*
X8223550Y5172275D01*
Y5188181D01*
X8207644D01*
X8263316Y5164322D02*
X8247410D01*
X8239457Y5172275D01*
Y5188181D01*
X8247410Y5196135D01*
X8263316D01*
X8271270Y5188181D01*
Y5180228D01*
X8239457D01*
X8287176Y5196135D02*
Y5164322D01*
Y5180228D01*
X8295129Y5188181D01*
X8303083Y5196135D01*
X8311036D01*
X8334896Y5212041D02*
Y5164322D01*
X8358755D01*
X8366709Y5172275D01*
Y5180228D01*
Y5188181D01*
X8358755Y5196135D01*
X8334896D01*
X8406475Y5164322D02*
X8390568D01*
X8382615Y5172275D01*
Y5188181D01*
X8390568Y5196135D01*
X8406475D01*
X8414428Y5188181D01*
Y5180228D01*
X8382615D01*
X8430335Y5196135D02*
Y5164322D01*
Y5180228D01*
X8438288Y5188181D01*
X8446241Y5196135D01*
X8454194D01*
X8223550Y4535800D02*
X8215597Y4543753D01*
X8199690D01*
X8191737Y4535800D01*
Y4503987D01*
X8199690Y4496034D01*
X8215597D01*
X8223550Y4503987D01*
Y4519894D01*
X8207644D01*
X8239457Y4543753D02*
Y4496034D01*
X8263316D01*
X8271270Y4503987D01*
Y4511940D01*
X8263316Y4519894D01*
X8239457D01*
X8263316D01*
X8271270Y4527847D01*
Y4535800D01*
X8263316Y4543753D01*
X8239457D01*
X8311036D02*
X8295129D01*
X8287176Y4535800D01*
Y4503987D01*
X8295129Y4496034D01*
X8311036D01*
X8318989Y4503987D01*
Y4535800D01*
X8311036Y4543753D01*
X8223550Y4631270D02*
X8215597Y4639223D01*
X8199690D01*
X8191737Y4631270D01*
Y4599457D01*
X8199690Y4591503D01*
X8215597D01*
X8223550Y4599457D01*
Y4615363D01*
X8207644D01*
X8239457Y4639223D02*
Y4591503D01*
X8263316D01*
X8271270Y4599457D01*
Y4607410D01*
X8263316Y4615363D01*
X8239457D01*
X8263316D01*
X8271270Y4623316D01*
Y4631270D01*
X8263316Y4639223D01*
X8239457D01*
X8318989Y4631270D02*
X8311036Y4639223D01*
X8295129D01*
X8287176Y4631270D01*
Y4623316D01*
X8295129Y4615363D01*
X8311036D01*
X8318989Y4607410D01*
Y4599457D01*
X8311036Y4591503D01*
X8295129D01*
X8287176Y4599457D01*
X8223550Y4726739D02*
X8215597Y4734693D01*
X8199690D01*
X8191737Y4726739D01*
Y4694926D01*
X8199690Y4686973D01*
X8215597D01*
X8223550Y4694926D01*
Y4710833D01*
X8207644D01*
X8239457Y4734693D02*
Y4686973D01*
X8263316D01*
X8271270Y4694926D01*
Y4702880D01*
X8263316Y4710833D01*
X8239457D01*
X8263316D01*
X8271270Y4718786D01*
Y4726739D01*
X8263316Y4734693D01*
X8239457D01*
X8287176D02*
Y4686973D01*
X8318989D01*
X8223550Y4917679D02*
X8215597Y4925632D01*
X8199690D01*
X8191737Y4917679D01*
Y4885866D01*
X8199690Y4877913D01*
X8215597D01*
X8223550Y4885866D01*
Y4901772D01*
X8207644D01*
X8239457Y4925632D02*
X8271270D01*
X8255363D01*
Y4877913D01*
X8287176Y4925632D02*
Y4877913D01*
X8318989D01*
X8223550Y5013149D02*
X8215597Y5021102D01*
X8199690D01*
X8191737Y5013149D01*
Y4981336D01*
X8199690Y4973382D01*
X8215597D01*
X8223550Y4981336D01*
Y4997242D01*
X8207644D01*
X8239457Y5021102D02*
X8271270D01*
X8255363D01*
Y4973382D01*
X8318989Y5013149D02*
X8311036Y5021102D01*
X8295129D01*
X8287176Y5013149D01*
Y5005195D01*
X8295129Y4997242D01*
X8311036D01*
X8318989Y4989289D01*
Y4981336D01*
X8311036Y4973382D01*
X8295129D01*
X8287176Y4981336D01*
X8223550Y5108618D02*
X8215597Y5116572D01*
X8199690D01*
X8191737Y5108618D01*
Y5076805D01*
X8199690Y5068852D01*
X8215597D01*
X8223550Y5076805D01*
Y5092712D01*
X8207644D01*
X8239457Y5116572D02*
X8271270D01*
X8255363D01*
Y5068852D01*
X8311036Y5116572D02*
X8295129D01*
X8287176Y5108618D01*
Y5076805D01*
X8295129Y5068852D01*
X8311036D01*
X8318989Y5076805D01*
Y5108618D01*
X8311036Y5116572D01*
X8682061Y5212041D02*
Y5164322D01*
X8705921D01*
X8713874Y5172275D01*
Y5180228D01*
X8705921Y5188181D01*
X8682061D01*
X8705921D01*
X8713874Y5196135D01*
Y5204088D01*
X8705921Y5212041D01*
X8682061D01*
X8737734Y5164322D02*
X8753641D01*
X8761594Y5172275D01*
Y5188181D01*
X8753641Y5196135D01*
X8737734D01*
X8729781Y5188181D01*
Y5172275D01*
X8737734Y5164322D01*
X8785454Y5196135D02*
X8801360D01*
X8809313Y5188181D01*
Y5164322D01*
X8785454D01*
X8777500Y5172275D01*
X8785454Y5180228D01*
X8809313D01*
X8825220Y5196135D02*
Y5164322D01*
Y5180228D01*
X8833173Y5188181D01*
X8841126Y5196135D01*
X8849080D01*
X8904752Y5212041D02*
Y5164322D01*
X8880893D01*
X8872939Y5172275D01*
Y5188181D01*
X8880893Y5196135D01*
X8904752D01*
X8968378Y5212041D02*
Y5164322D01*
X9000191D01*
X9024051Y5196135D02*
X9039958D01*
X9047911Y5188181D01*
Y5164322D01*
X9024051D01*
X9016098Y5172275D01*
X9024051Y5180228D01*
X9047911D01*
X9063817Y5196135D02*
Y5172275D01*
X9071771Y5164322D01*
X9095630D01*
Y5156368D01*
X9087677Y5148415D01*
X9079724D01*
X9095630Y5164322D02*
Y5196135D01*
X9135397Y5164322D02*
X9119490D01*
X9111537Y5172275D01*
Y5188181D01*
X9119490Y5196135D01*
X9135397D01*
X9143350Y5188181D01*
Y5180228D01*
X9111537D01*
X9159256Y5196135D02*
Y5164322D01*
Y5180228D01*
X9167210Y5188181D01*
X9175163Y5196135D01*
X9183116D01*
X9286508Y5204088D02*
X9278555Y5212041D01*
X9262649D01*
X9254695Y5204088D01*
Y5196135D01*
X9262649Y5188181D01*
X9278555D01*
X9286508Y5180228D01*
Y5172275D01*
X9278555Y5164322D01*
X9262649D01*
X9254695Y5172275D01*
X9310368Y5204088D02*
Y5196135D01*
X9302415D01*
X9318321D01*
X9310368D01*
Y5172275D01*
X9318321Y5164322D01*
X9350134Y5196135D02*
X9366041D01*
X9373994Y5188181D01*
Y5164322D01*
X9350134D01*
X9342181Y5172275D01*
X9350134Y5180228D01*
X9373994D01*
X9421714Y5196135D02*
X9397854D01*
X9389901Y5188181D01*
Y5172275D01*
X9397854Y5164322D01*
X9421714D01*
X9437620D02*
Y5212041D01*
Y5180228D02*
X9461480Y5196135D01*
X9437620Y5180228D02*
X9461480Y5164322D01*
X5689702Y4448284D02*
X5721515D01*
X5705608D01*
Y4400564D01*
X5745375D02*
X5761281D01*
X5769234Y4408517D01*
Y4424424D01*
X5761281Y4432377D01*
X5745375D01*
X5737421Y4424424D01*
Y4408517D01*
X5745375Y4400564D01*
X5793094Y4440330D02*
Y4432377D01*
X5785141D01*
X5801047D01*
X5793094D01*
Y4408517D01*
X5801047Y4400564D01*
X5832860Y4432377D02*
X5848767D01*
X5856720Y4424424D01*
Y4400564D01*
X5832860D01*
X5824907Y4408517D01*
X5832860Y4416471D01*
X5856720D01*
X5872627Y4400564D02*
X5888533D01*
X5880580D01*
Y4448284D01*
X5872627D01*
X5960112D02*
Y4400564D01*
X5983972D01*
X5991925Y4408517D01*
Y4416471D01*
Y4424424D01*
X5983972Y4432377D01*
X5960112D01*
X6015785Y4400564D02*
X6031691D01*
X6039645Y4408517D01*
Y4424424D01*
X6031691Y4432377D01*
X6015785D01*
X6007832Y4424424D01*
Y4408517D01*
X6015785Y4400564D01*
X6063505Y4432377D02*
X6079411D01*
X6087364Y4424424D01*
Y4400564D01*
X6063505D01*
X6055551Y4408517D01*
X6063505Y4416471D01*
X6087364D01*
X6103271Y4432377D02*
Y4400564D01*
Y4416471D01*
X6111224Y4424424D01*
X6119177Y4432377D01*
X6127131D01*
X6182803Y4448284D02*
Y4400564D01*
X6158944D01*
X6150990Y4408517D01*
Y4424424D01*
X6158944Y4432377D01*
X6182803D01*
X6254382Y4440330D02*
Y4432377D01*
X6246429D01*
X6262336D01*
X6254382D01*
Y4408517D01*
X6262336Y4400564D01*
X6286195Y4448284D02*
Y4400564D01*
Y4424424D01*
X6294149Y4432377D01*
X6310055D01*
X6318008Y4424424D01*
Y4400564D01*
X6333915D02*
X6349822D01*
X6341868D01*
Y4432377D01*
X6333915D01*
X6405494D02*
X6381634D01*
X6373681Y4424424D01*
Y4408517D01*
X6381634Y4400564D01*
X6405494D01*
X6421401D02*
Y4448284D01*
Y4416471D02*
X6445260Y4432377D01*
X6421401Y4416471D02*
X6445260Y4400564D01*
X6469120D02*
Y4432377D01*
X6492980D01*
X6500933Y4424424D01*
Y4400564D01*
X6540699D02*
X6524793D01*
X6516840Y4408517D01*
Y4424424D01*
X6524793Y4432377D01*
X6540699D01*
X6548653Y4424424D01*
Y4416471D01*
X6516840D01*
X6564559Y4400564D02*
X6588419D01*
X6596372Y4408517D01*
X6588419Y4416471D01*
X6572512D01*
X6564559Y4424424D01*
X6572512Y4432377D01*
X6596372D01*
X6612279Y4400564D02*
X6636138D01*
X6644092Y4408517D01*
X6636138Y4416471D01*
X6620232D01*
X6612279Y4424424D01*
X6620232Y4432377D01*
X6644092D01*
X6659998D02*
X6667951D01*
Y4424424D01*
X6659998D01*
Y4432377D01*
Y4408517D02*
X6667951D01*
Y4400564D01*
X6659998D01*
Y4408517D01*
X7245005Y4448284D02*
X7229099Y4440330D01*
X7213192Y4424424D01*
Y4408517D01*
X7221145Y4400564D01*
X7237052D01*
X7245005Y4408517D01*
Y4416471D01*
X7237052Y4424424D01*
X7213192D01*
X7292725Y4400564D02*
X7260912D01*
X7292725Y4432377D01*
Y4440330D01*
X7284771Y4448284D01*
X7268865D01*
X7260912Y4440330D01*
X7308631Y4400564D02*
Y4408517D01*
X7316584D01*
Y4400564D01*
X7308631D01*
X7348397Y4440330D02*
X7356350Y4448284D01*
X7372257D01*
X7380210Y4440330D01*
Y4432377D01*
X7372257Y4424424D01*
X7380210Y4416471D01*
Y4408517D01*
X7372257Y4400564D01*
X7356350D01*
X7348397Y4408517D01*
Y4416471D01*
X7356350Y4424424D01*
X7348397Y4432377D01*
Y4440330D01*
X7356350Y4424424D02*
X7372257D01*
X7396117Y4440330D02*
X7404070Y4448284D01*
X7419976D01*
X7427930Y4440330D01*
Y4408517D01*
X7419976Y4400564D01*
X7404070D01*
X7396117Y4408517D01*
Y4440330D01*
X7443836Y4400564D02*
Y4432377D01*
X7451789D01*
X7459743Y4424424D01*
Y4400564D01*
Y4424424D01*
X7467696Y4432377D01*
X7475649Y4424424D01*
Y4400564D01*
X7491556D02*
X7507462D01*
X7499509D01*
Y4432377D01*
X7491556D01*
X7531322Y4400564D02*
X7547228D01*
X7539275D01*
Y4448284D01*
X7531322D01*
D170*
X9583877Y4472166D02*
X9631612Y4519901D01*
X9536142Y4472166D02*
X9631612Y4567636D01*
X9488407Y4472166D02*
X9583877Y4567636D01*
X9440673Y4472166D02*
X9536142Y4567636D01*
X9392938Y4472166D02*
X9488407Y4567636D01*
X9345203Y4472166D02*
X9440672Y4567636D01*
X9297468Y4472166D02*
X9392938Y4567636D01*
X9249733Y4472166D02*
X9345203Y4567636D01*
X9201998Y4472166D02*
X9297468Y4567636D01*
X9154263Y4472166D02*
X9249733Y4567636D01*
X9106528Y4472166D02*
X9201998Y4567636D01*
X9058793Y4472166D02*
X9154263Y4567636D01*
X9011058Y4472166D02*
X9106528Y4567636D01*
X8963324Y4472166D02*
X9058793Y4567636D01*
X8915589Y4472166D02*
X9011058Y4567636D01*
X8867854Y4472166D02*
X8963323Y4567636D01*
X8820119Y4472166D02*
X8915588Y4567636D01*
X8772384Y4472166D02*
X8867854Y4567636D01*
X8724649Y4472166D02*
X8820119Y4567636D01*
X8676914Y4472166D02*
X8772384Y4567636D01*
X8629179Y4472166D02*
X8724649Y4567636D01*
X8581444Y4472166D02*
X8676914Y4567636D01*
X8533709Y4472166D02*
X8629179Y4567636D01*
X8511929Y4498121D02*
X8581444Y4567636D01*
X8511929Y4545856D02*
X8533709Y4567636D01*
X9583877D02*
X9631612Y4615371D01*
X9536142Y4567636D02*
X9631612Y4663106D01*
X9488407Y4567636D02*
X9583877Y4663106D01*
X9440673Y4567636D02*
X9536142Y4663106D01*
X9392938Y4567636D02*
X9488407Y4663106D01*
X9345203Y4567636D02*
X9440672Y4663106D01*
X9297468Y4567636D02*
X9392938Y4663106D01*
X9249733Y4567636D02*
X9345203Y4663106D01*
X9201998Y4567636D02*
X9297468Y4663106D01*
X9154263Y4567636D02*
X9249733Y4663106D01*
X9106528Y4567636D02*
X9201998Y4663106D01*
X9058793Y4567636D02*
X9154263Y4663106D01*
X9011058Y4567636D02*
X9106528Y4663106D01*
X8963324Y4567636D02*
X9058793Y4663106D01*
X8915589Y4567636D02*
X9011058Y4663106D01*
X8867854Y4567636D02*
X8963323Y4663106D01*
X8820119Y4567636D02*
X8915588Y4663106D01*
X8772384Y4567636D02*
X8867854Y4663106D01*
X8724649Y4567636D02*
X8820119Y4663106D01*
X8676914Y4567636D02*
X8772384Y4663106D01*
X8629179Y4567636D02*
X8724649Y4663106D01*
X8581444Y4567636D02*
X8676914Y4663106D01*
X8533709Y4567636D02*
X8629179Y4663106D01*
X8511929Y4593591D02*
X8581444Y4663106D01*
X8511929Y4641326D02*
X8533709Y4663106D01*
X9583877D02*
X9631612Y4710841D01*
X9536142Y4663106D02*
X9631612Y4758575D01*
X9488407Y4663106D02*
X9583877Y4758575D01*
X9440673Y4663106D02*
X9536142Y4758575D01*
X9392938Y4663106D02*
X9488407Y4758575D01*
X9345203Y4663106D02*
X9440672Y4758575D01*
X9297468Y4663106D02*
X9392938Y4758575D01*
X9249733Y4663106D02*
X9345203Y4758575D01*
X9201998Y4663106D02*
X9297468Y4758575D01*
X9154263Y4663106D02*
X9249733Y4758575D01*
X9106528Y4663106D02*
X9201998Y4758575D01*
X9058793Y4663106D02*
X9154263Y4758575D01*
X9011058Y4663106D02*
X9106528Y4758575D01*
X8963324Y4663106D02*
X9058793Y4758575D01*
X8915589Y4663106D02*
X9011058Y4758575D01*
X8867854Y4663106D02*
X8963323Y4758575D01*
X8820119Y4663106D02*
X8915588Y4758575D01*
X8772384Y4663106D02*
X8867854Y4758575D01*
X8724649Y4663106D02*
X8820119Y4758575D01*
X8676914Y4663106D02*
X8772384Y4758575D01*
X8629179Y4663106D02*
X8724649Y4758575D01*
X8581444Y4663106D02*
X8676914Y4758575D01*
X8533709Y4663106D02*
X8629179Y4758575D01*
X8511929Y4689060D02*
X8581444Y4758575D01*
X8511929Y4736795D02*
X8533709Y4758575D01*
X9583877D02*
X9631612Y4806310D01*
X9536142Y4758575D02*
X9631612Y4854045D01*
X9488407Y4758575D02*
X9583877Y4854045D01*
X9440673Y4758575D02*
X9536142Y4854045D01*
X9392938Y4758575D02*
X9488407Y4854045D01*
X9345203Y4758575D02*
X9440672Y4854045D01*
X9297468Y4758575D02*
X9392938Y4854045D01*
X9249733Y4758575D02*
X9345203Y4854045D01*
X9201998Y4758575D02*
X9297468Y4854045D01*
X9154263Y4758575D02*
X9249733Y4854045D01*
X9106528Y4758575D02*
X9201998Y4854045D01*
X9058793Y4758575D02*
X9154263Y4854045D01*
X9011058Y4758575D02*
X9106528Y4854045D01*
X8963324Y4758575D02*
X9058793Y4854045D01*
X8915589Y4758575D02*
X9011058Y4854045D01*
X8867854Y4758575D02*
X8963323Y4854045D01*
X8820119Y4758575D02*
X8915588Y4854045D01*
X8772384Y4758575D02*
X8867854Y4854045D01*
X8724649Y4758575D02*
X8820119Y4854045D01*
X8676914Y4758575D02*
X8772384Y4854045D01*
X8629179Y4758575D02*
X8724649Y4854045D01*
X8581444Y4758575D02*
X8676914Y4854045D01*
X8533709Y4758575D02*
X8629179Y4854045D01*
X8511929Y4784530D02*
X8581444Y4854045D01*
X8511929Y4832265D02*
X8533709Y4854045D01*
X9583877D02*
X9631612Y4901780D01*
X9536142Y4854045D02*
X9631612Y4949515D01*
X9488407Y4854045D02*
X9583877Y4949515D01*
X9440673Y4854045D02*
X9536142Y4949515D01*
X9392938Y4854045D02*
X9488407Y4949515D01*
X9345203Y4854045D02*
X9440672Y4949515D01*
X9297468Y4854045D02*
X9392938Y4949515D01*
X9249733Y4854045D02*
X9345203Y4949515D01*
X9201998Y4854045D02*
X9297468Y4949515D01*
X9154263Y4854045D02*
X9249733Y4949515D01*
X9106528Y4854045D02*
X9201998Y4949515D01*
X9058793Y4854045D02*
X9154263Y4949515D01*
X9011058Y4854045D02*
X9106528Y4949515D01*
X8963324Y4854045D02*
X9058793Y4949515D01*
X8915589Y4854045D02*
X9011058Y4949515D01*
X8867854Y4854045D02*
X8963323Y4949515D01*
X8820119Y4854045D02*
X8915588Y4949515D01*
X8772384Y4854045D02*
X8867854Y4949515D01*
X8724649Y4854045D02*
X8820119Y4949515D01*
X8676914Y4854045D02*
X8772384Y4949515D01*
X8629179Y4854045D02*
X8724649Y4949515D01*
X8581444Y4854045D02*
X8676914Y4949515D01*
X8533709Y4854045D02*
X8629179Y4949515D01*
X8511929Y4880000D02*
X8581444Y4949515D01*
X8511929Y4927735D02*
X8533709Y4949515D01*
X9583877D02*
X9631612Y4997250D01*
X9536142Y4949515D02*
X9631612Y5044985D01*
X9488407Y4949515D02*
X9583877Y5044985D01*
X9440673Y4949515D02*
X9536142Y5044985D01*
X9392938Y4949515D02*
X9488407Y5044985D01*
X9345203Y4949515D02*
X9440672Y5044985D01*
X9297468Y4949515D02*
X9392938Y5044985D01*
X9249733Y4949515D02*
X9345203Y5044985D01*
X9201998Y4949515D02*
X9297468Y5044985D01*
X9154263Y4949515D02*
X9249733Y5044985D01*
X9106528Y4949515D02*
X9201998Y5044985D01*
X9058793Y4949515D02*
X9154263Y5044985D01*
X9011058Y4949515D02*
X9106528Y5044985D01*
X8963324Y4949515D02*
X9058793Y5044985D01*
X8915589Y4949515D02*
X9011058Y5044985D01*
X8867854Y4949515D02*
X8963323Y5044985D01*
X8820119Y4949515D02*
X8915588Y5044985D01*
X8772384Y4949515D02*
X8867854Y5044985D01*
X8724649Y4949515D02*
X8820119Y5044985D01*
X8676914Y4949515D02*
X8772384Y5044985D01*
X8629179Y4949515D02*
X8724649Y5044985D01*
X8581444Y4949515D02*
X8676914Y5044985D01*
X8533709Y4949515D02*
X8629179Y5044985D01*
X8511929Y4975470D02*
X8581444Y5044985D01*
X8511929Y5023204D02*
X8533709Y5044985D01*
X9583877D02*
X9631612Y5092720D01*
X9536142Y5044985D02*
X9631612Y5140454D01*
X9488407Y5044985D02*
X9583877Y5140454D01*
X9440673Y5044985D02*
X9536142Y5140454D01*
X9392938Y5044985D02*
X9488407Y5140454D01*
X9345203Y5044985D02*
X9440672Y5140454D01*
X9297468Y5044985D02*
X9392938Y5140454D01*
X9249733Y5044985D02*
X9345203Y5140454D01*
X9201998Y5044985D02*
X9297468Y5140454D01*
X9154263Y5044985D02*
X9249733Y5140454D01*
X9106528Y5044985D02*
X9201998Y5140454D01*
X9058793Y5044985D02*
X9154263Y5140454D01*
X9011058Y5044985D02*
X9106528Y5140454D01*
X8963324Y5044985D02*
X9058793Y5140454D01*
X8915589Y5044985D02*
X9011058Y5140454D01*
X8867854Y5044985D02*
X8963323Y5140454D01*
X8820119Y5044985D02*
X8915588Y5140454D01*
X8772384Y5044985D02*
X8867854Y5140454D01*
X8724649Y5044985D02*
X8820119Y5140454D01*
X8676914Y5044985D02*
X8772384Y5140454D01*
X8629179Y5044985D02*
X8724649Y5140454D01*
X8581444Y5044985D02*
X8676914Y5140454D01*
X8533709Y5044985D02*
X8629179Y5140454D01*
X8511929Y5070939D02*
X8581444Y5140454D01*
X8511929Y5118674D02*
X8533709Y5140454D01*
X9539158Y40925D02*
X9627832Y129599D01*
X9487867Y37369D02*
X9631613Y181115D01*
X9440132Y37369D02*
X9631613Y228850D01*
X9392397Y37369D02*
X9631613Y276584D01*
X9344662Y37369D02*
X9631613Y324319D01*
X9296927Y37369D02*
X9631613Y372054D01*
X9249192Y37369D02*
X9631613Y419789D01*
X9201457Y37369D02*
X9631613Y467524D01*
X9153722Y37369D02*
X9631613Y515259D01*
X9105988Y37369D02*
X9631613Y562994D01*
X9058253Y37369D02*
X9631613Y610729D01*
X9010518Y37369D02*
X9631613Y658464D01*
X8962783Y37369D02*
X9631613Y706199D01*
X8915048Y37369D02*
X9631613Y753933D01*
X8867313Y37369D02*
X9631613Y801668D01*
X8819578Y37369D02*
X9631613Y849403D01*
X8771843Y37369D02*
X9631613Y897138D01*
X8724108Y37369D02*
X9631613Y944873D01*
X8676373Y37369D02*
X9631613Y992608D01*
X8628639Y37369D02*
X9631613Y1040343D01*
X8580904Y37369D02*
X9631613Y1088078D01*
X8533169Y37369D02*
X9631613Y1135813D01*
X8485434Y37369D02*
X9631613Y1183548D01*
X8437699Y37369D02*
X9631613Y1231283D01*
X8389964Y37369D02*
X9631613Y1279017D01*
X8342229Y37369D02*
X9631613Y1326752D01*
X8294494Y37369D02*
X9631613Y1374487D01*
X8246759Y37369D02*
X9631613Y1422222D01*
X8199024Y37369D02*
X9631613Y1469957D01*
X8151290Y37369D02*
X9631613Y1517692D01*
X8103555Y37369D02*
X9631613Y1565427D01*
X8055820Y37369D02*
X9631613Y1613162D01*
X8008085Y37369D02*
X9631613Y1660897D01*
X7960350Y37369D02*
X9631613Y1708631D01*
X7912615Y37369D02*
X9631613Y1756366D01*
X7864880Y37369D02*
X9631613Y1804101D01*
X7817145Y37369D02*
X9631613Y1851836D01*
X7769410Y37369D02*
X9631613Y1899571D01*
X7721676Y37369D02*
X9631613Y1947306D01*
X7673941Y37369D02*
X9631613Y1995041D01*
X7626206Y37369D02*
X9631613Y2042776D01*
X7578471Y37369D02*
X9631613Y2090511D01*
X7530736Y37369D02*
X9631613Y2138246D01*
X7483001Y37369D02*
X9631613Y2185981D01*
X7435266Y37369D02*
X9631613Y2233715D01*
X7387531Y37369D02*
X9631613Y2281450D01*
X7339796Y37369D02*
X9631613Y2329185D01*
X7292061Y37369D02*
X9631613Y2376920D01*
X7244327Y37369D02*
X9631613Y2424655D01*
X7196592Y37369D02*
X9631613Y2472390D01*
X7148857Y37369D02*
X9631613Y2520125D01*
X7101122Y37369D02*
X9631613Y2567860D01*
X7053387Y37369D02*
X9631613Y2615595D01*
X7005652Y37369D02*
X9631613Y2663330D01*
X6957917Y37369D02*
X9631613Y2711064D01*
X6910182Y37369D02*
X9631613Y2758799D01*
X6862447Y37369D02*
X9631613Y2806534D01*
X6814712Y37369D02*
X9631613Y2854269D01*
X6766977Y37369D02*
X9631613Y2902004D01*
X6719243Y37369D02*
X9631613Y2949739D01*
X6671508Y37369D02*
X9631613Y2997474D01*
X6623773Y37369D02*
X9631613Y3045209D01*
X6576038Y37369D02*
X9631613Y3092944D01*
X6528303Y37369D02*
X9631613Y3140679D01*
X6480568Y37369D02*
X9631613Y3188414D01*
X6432833Y37369D02*
X9631613Y3236148D01*
X6385098Y37369D02*
X9631613Y3283883D01*
X6337363Y37369D02*
X9631613Y3331618D01*
X6289628Y37369D02*
X9631613Y3379353D01*
X6241894Y37369D02*
X9631613Y3427088D01*
X6194159Y37369D02*
X9631613Y3474823D01*
X6146424Y37369D02*
X9631613Y3522558D01*
X6098689Y37369D02*
X9631613Y3570293D01*
X6050954Y37369D02*
X9631613Y3618028D01*
X6003219Y37369D02*
X9631613Y3665762D01*
X5955484Y37369D02*
X9631613Y3713497D01*
X5907749Y37369D02*
X9631613Y3761232D01*
X5860014Y37369D02*
X9631613Y3808967D01*
X5812279Y37369D02*
X9631613Y3856702D01*
X5764545Y37369D02*
X9631613Y3904437D01*
X5721039Y41598D02*
X9631613Y3952172D01*
X5688577Y56871D02*
X9631613Y3999907D01*
X5662753Y78782D02*
X9631613Y4047642D01*
X5643816Y107580D02*
X9631613Y4095377D01*
X5632819Y144318D02*
X9631613Y4143111D01*
X5631966Y191200D02*
X9631613Y4190846D01*
X5631966Y238935D02*
X9631613Y4238581D01*
X5631966Y286670D02*
X9622309Y4277012D01*
X5631966Y334405D02*
X9604941Y4307380D01*
X5631966Y382140D02*
X9580214Y4330387D01*
X5631966Y429875D02*
X9548916Y4346824D01*
X5631966Y477610D02*
X9507728Y4353371D01*
X5631966Y525344D02*
X9459993Y4353371D01*
X5631966Y573079D02*
X9412258Y4353371D01*
X5631966Y620814D02*
X9364523Y4353371D01*
X5631966Y668549D02*
X9316788Y4353371D01*
X5631966Y716284D02*
X9269053Y4353371D01*
X5631966Y764019D02*
X9221318Y4353371D01*
X5631966Y811754D02*
X9173584Y4353371D01*
X5631966Y859489D02*
X9125849Y4353371D01*
X5631966Y907224D02*
X9078114Y4353371D01*
X5631966Y954958D02*
X9030379Y4353371D01*
X5631966Y1002693D02*
X8982644Y4353371D01*
X5631966Y1050428D02*
X8934909Y4353371D01*
X5631966Y1098163D02*
X8887174Y4353371D01*
X5631966Y1145898D02*
X8839439Y4353371D01*
X5631966Y1193633D02*
X8791704Y4353371D01*
X5631966Y1241368D02*
X8743969Y4353371D01*
X5631966Y1289103D02*
X8696235Y4353371D01*
X5631966Y1336838D02*
X8648500Y4353371D01*
X5631966Y1384573D02*
X8600765Y4353371D01*
X5631966Y1432307D02*
X8553030Y4353371D01*
X5631966Y1480042D02*
X8505295Y4353371D01*
X5631966Y1527777D02*
X8457560Y4353371D01*
X5631966Y1575512D02*
X8409825Y4353371D01*
X5631966Y1623247D02*
X8362090Y4353371D01*
X5631966Y1670982D02*
X8314355Y4353371D01*
X5631966Y1718717D02*
X8266621Y4353371D01*
X5631966Y1766452D02*
X8218886Y4353371D01*
X5631966Y1814187D02*
X8171151Y4353371D01*
X5631966Y1861922D02*
X8123416Y4353371D01*
X5631966Y1909657D02*
X8075681Y4353371D01*
X5631966Y1957391D02*
X8027946Y4353371D01*
X5631966Y2005126D02*
X7980211Y4353371D01*
X5631966Y2052861D02*
X7932476Y4353371D01*
X5631966Y2100596D02*
X7884741Y4353371D01*
X5631966Y2148331D02*
X7837007Y4353371D01*
X5631966Y2196066D02*
X7789272Y4353371D01*
X5631966Y2243801D02*
X7741537Y4353371D01*
X5631966Y2291536D02*
X7693802Y4353371D01*
X5631966Y2339271D02*
X7646067Y4353371D01*
X5631966Y2387006D02*
X7598332Y4353371D01*
X5631966Y2434740D02*
X7550597Y4353371D01*
X5631966Y2482475D02*
X7502862Y4353371D01*
X5631966Y2530210D02*
X7455127Y4353371D01*
X5631966Y2577945D02*
X7407392Y4353371D01*
X5631966Y2625680D02*
X7359658Y4353371D01*
X5631966Y2673415D02*
X7311923Y4353371D01*
X5631966Y2721150D02*
X7264188Y4353371D01*
X5631966Y2768885D02*
X7216453Y4353371D01*
X5631966Y2816620D02*
X7168718Y4353371D01*
X5631966Y2864354D02*
X7120983Y4353371D01*
X5631966Y2912089D02*
X7073248Y4353371D01*
X5631966Y2959824D02*
X7025513Y4353371D01*
X5631966Y3007559D02*
X6977778Y4353371D01*
X5631966Y3055294D02*
X6930043Y4353371D01*
X5631966Y3103029D02*
X6882309Y4353371D01*
X5631966Y3150764D02*
X6834574Y4353371D01*
X5631966Y3198499D02*
X6786839Y4353371D01*
X5631966Y3246234D02*
X6739104Y4353371D01*
X5631966Y3293969D02*
X6691369Y4353371D01*
X5631966Y3341704D02*
X6643634Y4353371D01*
X5631966Y3389438D02*
X6595899Y4353371D01*
X5631966Y3437173D02*
X6548164Y4353371D01*
X5631966Y3484908D02*
X6500429Y4353371D01*
X5631966Y3532643D02*
X6452694Y4353371D01*
X5631966Y3580378D02*
X6404959Y4353371D01*
X5631966Y3628113D02*
X6357225Y4353371D01*
X5631966Y3675848D02*
X6309490Y4353371D01*
X5631966Y3723583D02*
X6261755Y4353371D01*
X5631966Y3771318D02*
X6214020Y4353371D01*
X5631966Y3819052D02*
X6166285Y4353371D01*
X5631966Y3866787D02*
X6118550Y4353371D01*
X5631966Y3914522D02*
X6070815Y4353371D01*
X5631966Y3962257D02*
X6023080Y4353371D01*
X5631966Y4009992D02*
X5975345Y4353371D01*
X5631966Y4057727D02*
X5927610Y4353371D01*
X5631966Y4105462D02*
X5879876Y4353371D01*
X5631966Y4153197D02*
X5832141Y4353371D01*
X5631966Y4200932D02*
X5784406Y4353371D01*
X5633588Y4250288D02*
X5735273Y4351973D01*
D175*
X5631967Y5140454D02*
X9631612D01*
X5631967Y5235924D02*
X9631612D01*
X5631967Y4472166D02*
Y5235924D01*
Y4472166D02*
X5962175D01*
X5631967Y4567636D02*
X5962175D01*
X5631967Y4663106D02*
X5962175D01*
X5631967Y4758575D02*
X5962175D01*
X5631967Y4854045D02*
X5962175D01*
X5631967Y4949515D02*
X5962175D01*
X5631967Y5044985D02*
X5962175D01*
Y4472166D02*
Y5235924D01*
Y4472166D02*
X6705951D01*
X5962175Y4567636D02*
X6705951D01*
X5962175Y4663106D02*
X6705951D01*
X5962175Y4758575D02*
X6705951D01*
X5962175Y4854045D02*
X6705951D01*
X5962175Y4949515D02*
X6705951D01*
X5962175Y5044985D02*
X6705951D01*
Y4472166D02*
Y5235924D01*
Y4472166D02*
X7155457D01*
X6705951Y4567636D02*
X7155457D01*
X6705951Y4663106D02*
X7155457D01*
X6705951Y4758575D02*
X7155457D01*
X6705951Y4854045D02*
X7155457D01*
X6705951Y4949515D02*
X7155457D01*
X6705951Y5044985D02*
X7155457D01*
Y4472166D02*
Y5235924D01*
Y4472166D02*
X7676543D01*
X7155457Y4567636D02*
X7676543D01*
X7155457Y4663106D02*
X7676543D01*
X7155457Y4758575D02*
X7676543D01*
X7155457Y4854045D02*
X7676543D01*
X7155457Y4949515D02*
X7676543D01*
X7155457Y5044985D02*
X7676543D01*
Y4472166D02*
Y5235924D01*
Y4472166D02*
X8134002D01*
X7676543Y4567636D02*
X8134002D01*
X7676543Y4663106D02*
X8134002D01*
X7676543Y4758575D02*
X8134002D01*
X7676543Y4854045D02*
X8134002D01*
X7676543Y4949515D02*
X8134002D01*
X7676543Y5044985D02*
X8134002D01*
Y4472166D02*
Y5235924D01*
Y4472166D02*
X8511929D01*
X8134002Y4567636D02*
X8511929D01*
X8134002Y4663106D02*
X8511929D01*
X8134002Y4758575D02*
X8511929D01*
X8134002Y4854045D02*
X8511929D01*
X8134002Y4949515D02*
X8511929D01*
X8134002Y5044985D02*
X8511929D01*
Y4472166D02*
Y5235924D01*
Y4472166D02*
X9631612D01*
X8511929Y4567636D02*
X9631612D01*
X8511929Y4663106D02*
X9631612D01*
X8511929Y4758575D02*
X9631612D01*
X8511929Y4854045D02*
X9631612D01*
X8511929Y4949515D02*
X9631612D01*
X8511929Y5044985D02*
X9631612D01*
Y4472166D02*
Y5235924D01*
X9631613Y149370D02*
Y161547D01*
X9626861Y125484D02*
X9631613Y149370D01*
X9617541Y102983D02*
X9626861Y125484D01*
X9604011Y82733D02*
X9617541Y102983D01*
X9586790Y65512D02*
X9604011Y82733D01*
X9566540Y51982D02*
X9586790Y65512D01*
X9544039Y42661D02*
X9566540Y51982D01*
X9520153Y37910D02*
X9544039Y42661D01*
X9507976Y37910D02*
X9520153Y37910D01*
X5755604Y37910D02*
X9507976D01*
X5743426Y37910D02*
X5755604Y37910D01*
X5719540Y42661D02*
X5743426Y37910D01*
X5697039Y51981D02*
X5719540Y42661D01*
X5676789Y65512D02*
X5697039Y51981D01*
X5659568Y82733D02*
X5676789Y65512D01*
X5646038Y102983D02*
X5659568Y82733D01*
X5636718Y125484D02*
X5646038Y102983D01*
X5631966Y149370D02*
X5636718Y125484D01*
X5631966Y149370D02*
X5631966Y161547D01*
Y4229193D01*
X5631966Y4241370D02*
X5631966Y4229193D01*
X5631966Y4241370D02*
X5636718Y4265256D01*
X5646038Y4287757D01*
X5659568Y4308007D01*
X5676789Y4325228D01*
X5697039Y4338758D01*
X5719540Y4348078D01*
X5743426Y4352830D01*
X5755604Y4352830D01*
X9507975Y4352830D01*
X9520153Y4352830D01*
X9544039Y4348079D01*
X9566540Y4338758D01*
X9586790Y4325228D01*
X9604011Y4308007D01*
X9617541Y4287757D01*
X9626861Y4265256D01*
X9631613Y4241370D01*
X9631613Y4229193D01*
X9631613Y161547D02*
X9631613Y4229193D01*
%TF.MD5,e477282c7beed25f4a82d84c5d4c7db1*%
M02*
