%TF.GenerationSoftware,Altium Limited,Altium Designer,20.0.11 (256)*%
G04 Layer_Color=255*
%FSLAX26Y26*%
%MOIN*%
%TF.FileFunction,Pads,Top*%
%TF.Part,Single*%
G01*
G75*
%TA.AperFunction,SMDPad,CuDef*%
%ADD10R,0.035433X0.015748*%
%TA.AperFunction,TestPad*%
%ADD11C,0.040000*%
%TA.AperFunction,SMDPad,CuDef*%
%ADD12R,0.086614X0.062992*%
%ADD13R,0.085827X0.062992*%
%ADD14R,0.130000X0.320000*%
%ADD15R,0.035433X0.015748*%
%ADD16R,0.039370X0.106299*%
%ADD17O,0.074803X0.023622*%
%ADD18R,0.012795X0.015748*%
G04:AMPARAMS|DCode=19|XSize=9.842mil|YSize=23.622mil|CornerRadius=1.968mil|HoleSize=0mil|Usage=FLASHONLY|Rotation=270.000|XOffset=0mil|YOffset=0mil|HoleType=Round|Shape=RoundedRectangle|*
%AMROUNDEDRECTD19*
21,1,0.009842,0.019685,0,0,270.0*
21,1,0.005906,0.023622,0,0,270.0*
1,1,0.003937,-0.009842,-0.002953*
1,1,0.003937,-0.009842,0.002953*
1,1,0.003937,0.009842,0.002953*
1,1,0.003937,0.009842,-0.002953*
%
%ADD19ROUNDEDRECTD19*%
G04:AMPARAMS|DCode=20|XSize=9.842mil|YSize=23.622mil|CornerRadius=1.968mil|HoleSize=0mil|Usage=FLASHONLY|Rotation=180.000|XOffset=0mil|YOffset=0mil|HoleType=Round|Shape=RoundedRectangle|*
%AMROUNDEDRECTD20*
21,1,0.009842,0.019685,0,0,180.0*
21,1,0.005906,0.023622,0,0,180.0*
1,1,0.003937,-0.002953,0.009842*
1,1,0.003937,0.002953,0.009842*
1,1,0.003937,0.002953,-0.009842*
1,1,0.003937,-0.002953,-0.009842*
%
%ADD20ROUNDEDRECTD20*%
G04:AMPARAMS|DCode=21|XSize=102.362mil|YSize=102.362mil|CornerRadius=2.047mil|HoleSize=0mil|Usage=FLASHONLY|Rotation=180.000|XOffset=0mil|YOffset=0mil|HoleType=Round|Shape=RoundedRectangle|*
%AMROUNDEDRECTD21*
21,1,0.102362,0.098268,0,0,180.0*
21,1,0.098268,0.102362,0,0,180.0*
1,1,0.004094,-0.049134,0.049134*
1,1,0.004094,0.049134,0.049134*
1,1,0.004094,0.049134,-0.049134*
1,1,0.004094,-0.049134,-0.049134*
%
%ADD21ROUNDEDRECTD21*%
%ADD22R,0.057087X0.047244*%
%ADD23R,0.047244X0.057087*%
%ADD24R,0.035433X0.027559*%
%ADD25R,0.035433X0.039370*%
%ADD26R,0.039370X0.043307*%
%ADD27R,0.027559X0.039370*%
%ADD28R,0.015748X0.018898*%
%ADD29R,0.048032X0.035827*%
%ADD30R,0.098425X0.157480*%
%ADD31R,0.027559X0.039370*%
%ADD32R,0.047992X0.035984*%
%ADD33R,0.048032X0.024409*%
%ADD34R,0.055118X0.035433*%
%ADD35R,0.055118X0.043307*%
%ADD36R,0.124016X0.070079*%
%ADD37R,0.110000X0.079000*%
%ADD38R,0.039764X0.057874*%
%ADD39R,0.035433X0.031496*%
%ADD40R,0.098425X0.066929*%
G04:AMPARAMS|DCode=41|XSize=17.716mil|YSize=49.213mil|CornerRadius=1.949mil|HoleSize=0mil|Usage=FLASHONLY|Rotation=270.000|XOffset=0mil|YOffset=0mil|HoleType=Round|Shape=RoundedRectangle|*
%AMROUNDEDRECTD41*
21,1,0.017716,0.045315,0,0,270.0*
21,1,0.013819,0.049213,0,0,270.0*
1,1,0.003898,-0.022657,-0.006910*
1,1,0.003898,-0.022657,0.006910*
1,1,0.003898,0.022657,0.006910*
1,1,0.003898,0.022657,-0.006910*
%
%ADD41ROUNDEDRECTD41*%
G04:AMPARAMS|DCode=42|XSize=25.591mil|YSize=47.244mil|CornerRadius=1.919mil|HoleSize=0mil|Usage=FLASHONLY|Rotation=270.000|XOffset=0mil|YOffset=0mil|HoleType=Round|Shape=RoundedRectangle|*
%AMROUNDEDRECTD42*
21,1,0.025591,0.043406,0,0,270.0*
21,1,0.021752,0.047244,0,0,270.0*
1,1,0.003839,-0.021703,-0.010876*
1,1,0.003839,-0.021703,0.010876*
1,1,0.003839,0.021703,0.010876*
1,1,0.003839,0.021703,-0.010876*
%
%ADD42ROUNDEDRECTD42*%
%ADD43R,0.070866X0.045276*%
%ADD44R,0.051181X0.059055*%
%ADD45R,0.059055X0.051181*%
%ADD46R,0.039000X0.043000*%
%ADD47R,0.043307X0.039370*%
%ADD48R,0.043000X0.039000*%
%ADD49R,0.043307X0.059055*%
%ADD50R,0.039370X0.043307*%
%ADD51R,0.043307X0.039370*%
%ADD52R,0.039370X0.027559*%
%ADD53R,0.039370X0.035433*%
%TA.AperFunction,ComponentPad*%
%ADD65C,0.060000*%
%ADD66R,0.060000X0.060000*%
%ADD67C,0.100000*%
%ADD68R,0.061024X0.061024*%
%ADD69C,0.061024*%
%ADD70C,0.052283*%
%ADD71R,0.052283X0.052283*%
%ADD72C,0.300000*%
%ADD73R,0.075000X0.075000*%
%ADD74C,0.075000*%
%ADD75C,0.125000*%
%ADD76C,0.068898*%
%ADD77C,0.047244*%
%ADD78R,0.047244X0.047244*%
%ADD79R,0.062598X0.062598*%
%ADD80C,0.062598*%
%ADD81C,0.040000*%
%ADD82R,0.020000X0.020000*%
%ADD83R,0.020000X0.040000*%
D10*
X874701Y1084252D02*
D03*
Y1115748D02*
D03*
X941630Y1084252D02*
D03*
Y1115748D02*
D03*
D11*
X2190000Y1730000D02*
D03*
X3065000Y1860000D02*
D03*
X3070000Y2160000D02*
D03*
X2540000Y2145000D02*
D03*
X2366173Y2565457D02*
D03*
X2769528Y1240000D02*
D03*
X2690000Y1730000D02*
D03*
X2590000D02*
D03*
X2490000D02*
D03*
X2390000D02*
D03*
X2290000D02*
D03*
D12*
X919095Y575000D02*
D03*
D13*
X1280906D02*
D03*
D14*
X133381Y580000D02*
D03*
D15*
X564882Y1337362D02*
D03*
Y1382638D02*
D03*
X675118Y1337362D02*
D03*
Y1382638D02*
D03*
D16*
X1456693Y2435000D02*
D03*
X1543307D02*
D03*
X1452008Y2724500D02*
D03*
X1538622D02*
D03*
D17*
X757480Y180000D02*
D03*
Y230000D02*
D03*
Y280000D02*
D03*
Y330000D02*
D03*
X942520Y180000D02*
D03*
Y280000D02*
D03*
Y230000D02*
D03*
Y330000D02*
D03*
D18*
X828000Y3277000D02*
D03*
X862449D02*
D03*
D19*
X2570197Y1860787D02*
D03*
Y1880472D02*
D03*
Y1939528D02*
D03*
Y1900158D02*
D03*
Y1919842D02*
D03*
Y1959213D02*
D03*
X2719803Y1860787D02*
D03*
Y1880472D02*
D03*
Y1939528D02*
D03*
Y1900158D02*
D03*
Y1919842D02*
D03*
Y1959213D02*
D03*
D20*
X2615472Y1835197D02*
D03*
X2595787D02*
D03*
Y1984803D02*
D03*
X2615472D02*
D03*
X2635157Y1835197D02*
D03*
X2674528D02*
D03*
X2654843D02*
D03*
X2694213D02*
D03*
X2635157Y1984803D02*
D03*
X2674528D02*
D03*
X2654843D02*
D03*
X2694213D02*
D03*
D21*
X2645000Y1910000D02*
D03*
D22*
X1878465Y881535D02*
D03*
Y948465D02*
D03*
X1608465Y560630D02*
D03*
Y639370D02*
D03*
Y855630D02*
D03*
Y934370D02*
D03*
X257599Y460630D02*
D03*
Y539370D02*
D03*
D23*
X2083824Y2600000D02*
D03*
X2162564D02*
D03*
X1725000Y655000D02*
D03*
X1791929D02*
D03*
D24*
X2890000Y2031319D02*
D03*
Y2086437D02*
D03*
D25*
X2399409Y2030000D02*
D03*
X2450590D02*
D03*
D26*
X2397441Y2100000D02*
D03*
X2452559D02*
D03*
D27*
X2712599Y2482756D02*
D03*
X2787402D02*
D03*
X2712599Y2577244D02*
D03*
X2750000D02*
D03*
X2787402D02*
D03*
D28*
X885000Y1355138D02*
D03*
Y1407106D02*
D03*
D29*
X433000Y1234630D02*
D03*
Y1363370D02*
D03*
D30*
X1840000Y1222520D02*
D03*
Y1537480D02*
D03*
X1325000Y1222520D02*
D03*
Y1537480D02*
D03*
D31*
X1020000Y1115748D02*
D03*
X1086929D02*
D03*
D32*
X2415276Y565500D02*
D03*
Y694500D02*
D03*
D33*
X1810039Y802598D02*
D03*
Y840000D02*
D03*
Y877402D02*
D03*
X1706890D02*
D03*
Y840000D02*
D03*
Y802598D02*
D03*
X1810039Y502598D02*
D03*
Y540000D02*
D03*
Y577402D02*
D03*
X1706890D02*
D03*
Y540000D02*
D03*
Y502598D02*
D03*
D34*
X610693Y773598D02*
D03*
Y848402D02*
D03*
X697307D02*
D03*
D35*
Y781472D02*
D03*
D36*
X260000Y1197047D02*
D03*
Y1402953D02*
D03*
D37*
X2870000Y664000D02*
D03*
Y456000D02*
D03*
D38*
X2341417Y1160000D02*
D03*
X2418583D02*
D03*
X1694882Y181299D02*
D03*
X1772047D02*
D03*
X2491417Y1160000D02*
D03*
X2568583D02*
D03*
D39*
X2140630Y212599D02*
D03*
Y287402D02*
D03*
X2219370Y250000D02*
D03*
D40*
X362835Y1488740D02*
D03*
X520315D02*
D03*
D41*
X1041772Y746614D02*
D03*
Y797795D02*
D03*
Y772205D02*
D03*
Y823386D02*
D03*
X1205158Y772205D02*
D03*
Y746614D02*
D03*
Y823386D02*
D03*
Y797795D02*
D03*
D42*
X596929Y567598D02*
D03*
Y642402D02*
D03*
X713071Y567598D02*
D03*
Y642402D02*
D03*
Y605000D02*
D03*
X1335394Y672598D02*
D03*
Y747402D02*
D03*
X1451535Y672598D02*
D03*
Y747402D02*
D03*
Y710000D02*
D03*
X2831929Y1420000D02*
D03*
Y1457401D02*
D03*
Y1382598D02*
D03*
X2948071D02*
D03*
Y1457401D02*
D03*
D43*
X1870000Y2395945D02*
D03*
Y2514055D02*
D03*
X1805000Y2620945D02*
D03*
Y2739055D02*
D03*
D44*
X1701063Y975000D02*
D03*
X1775866D02*
D03*
X745000Y1425748D02*
D03*
X819803D02*
D03*
X960000Y1408622D02*
D03*
X1034803D02*
D03*
D45*
X1740000Y2407599D02*
D03*
Y2482402D02*
D03*
X1705000Y2647599D02*
D03*
Y2722402D02*
D03*
D46*
X1110000Y181535D02*
D03*
Y248464D02*
D03*
X1888465Y601535D02*
D03*
Y668465D02*
D03*
X963465Y716535D02*
D03*
Y783465D02*
D03*
X2885858Y1563386D02*
D03*
Y1630315D02*
D03*
X2810500Y1563386D02*
D03*
Y1630315D02*
D03*
X1270276Y713543D02*
D03*
Y780472D02*
D03*
X675000Y276535D02*
D03*
Y343464D02*
D03*
X595000Y211536D02*
D03*
Y278465D02*
D03*
X1030000Y181536D02*
D03*
Y248465D02*
D03*
D47*
X376535Y626500D02*
D03*
X443464D02*
D03*
X1725000Y730000D02*
D03*
X1791929D02*
D03*
X1725000Y425000D02*
D03*
X1791929D02*
D03*
X1365000Y835000D02*
D03*
X1431929D02*
D03*
X1085000Y905000D02*
D03*
X1151929D02*
D03*
X2856535Y1290000D02*
D03*
X2923465D02*
D03*
X621535Y485000D02*
D03*
X688465D02*
D03*
X816535Y410000D02*
D03*
X883465D02*
D03*
D48*
X2811500Y1815000D02*
D03*
X2878500D02*
D03*
X1996535Y281299D02*
D03*
X2063465D02*
D03*
X2646535Y1160000D02*
D03*
X2713465D02*
D03*
X2196535D02*
D03*
X2263465D02*
D03*
X1715000Y281299D02*
D03*
X1781929D02*
D03*
X2101317Y2815000D02*
D03*
X2168246D02*
D03*
X605000Y100000D02*
D03*
X671929D02*
D03*
X796850D02*
D03*
X863779D02*
D03*
D49*
X2690000Y1650000D02*
D03*
Y1299606D02*
D03*
X2590000Y1650000D02*
D03*
Y1299606D02*
D03*
X2490000Y1650000D02*
D03*
Y1299606D02*
D03*
X2390000Y1650000D02*
D03*
Y1299606D02*
D03*
X2290000Y1650000D02*
D03*
Y1299606D02*
D03*
X2190000Y1650000D02*
D03*
Y1299606D02*
D03*
D50*
X1010000Y1515551D02*
D03*
Y1582480D02*
D03*
X1610000Y2656535D02*
D03*
Y2723465D02*
D03*
X888465Y716535D02*
D03*
Y783465D02*
D03*
X2380000Y1876535D02*
D03*
Y1943465D02*
D03*
X2460000Y1876535D02*
D03*
Y1943465D02*
D03*
X1620000Y2411535D02*
D03*
Y2478465D02*
D03*
X2165000Y2401535D02*
D03*
Y2468465D02*
D03*
X2855000Y2496535D02*
D03*
Y2563465D02*
D03*
D51*
X2878500Y1892284D02*
D03*
Y1947402D02*
D03*
X2970000Y2037441D02*
D03*
Y2092559D02*
D03*
D52*
X2250512Y2400000D02*
D03*
Y2474803D02*
D03*
X2345000Y2400000D02*
D03*
Y2474803D02*
D03*
Y2437402D02*
D03*
X352756Y697321D02*
D03*
Y772124D02*
D03*
X447244Y697321D02*
D03*
Y772124D02*
D03*
Y734723D02*
D03*
D53*
X2960000Y1894409D02*
D03*
Y1945591D02*
D03*
D65*
X300000Y1645000D02*
D03*
Y1745000D02*
D03*
Y2645000D02*
D03*
Y1845000D02*
D03*
Y2745000D02*
D03*
X900000Y1745000D02*
D03*
Y1845000D02*
D03*
X300000Y2545000D02*
D03*
X900000D02*
D03*
Y2745000D02*
D03*
Y2645000D02*
D03*
D66*
Y1645000D02*
D03*
D67*
X133381Y480000D02*
D03*
Y680000D02*
D03*
D68*
X2730000Y830000D02*
D03*
D69*
Y730000D02*
D03*
Y430000D02*
D03*
X2530000D02*
D03*
Y730000D02*
D03*
Y830000D02*
D03*
X2190000Y1020000D02*
D03*
X1559252Y748000D02*
D03*
X1248465Y1010000D02*
D03*
X1515000Y2585000D02*
D03*
X2712000Y2270000D02*
D03*
X431604Y343197D02*
D03*
X1408465Y1010000D02*
D03*
X2955000Y2485000D02*
D03*
X1965000Y2300000D02*
D03*
X1950000Y2645000D02*
D03*
X2479571Y2305000D02*
D03*
X2210000Y1990000D02*
D03*
X580000Y1160000D02*
D03*
X2816535Y2170000D02*
D03*
X2710000Y1020000D02*
D03*
X1480000Y502165D02*
D03*
X1888500Y281299D02*
D03*
D70*
X1175000Y2485000D02*
D03*
Y2685000D02*
D03*
Y2585000D02*
D03*
Y2185000D02*
D03*
D71*
Y2085000D02*
D03*
D72*
X195000Y205000D02*
D03*
Y3280000D02*
D03*
X3010000D02*
D03*
Y205000D02*
D03*
D73*
X2672992Y212441D02*
D03*
D74*
X2510000D02*
D03*
D75*
X2334996D02*
D03*
D76*
X2565000Y2685000D02*
D03*
X2365000D02*
D03*
X2465000D02*
D03*
D77*
X392992Y1000000D02*
D03*
X471732D02*
D03*
X314252D02*
D03*
X707953D02*
D03*
X786693D02*
D03*
X550472D02*
D03*
X629212D02*
D03*
D78*
X235512D02*
D03*
D79*
X667029Y3143305D02*
D03*
D80*
X765454D02*
D03*
X863880D02*
D03*
X962305D02*
D03*
D81*
X1910000Y3080000D02*
D03*
X1840000Y3150000D02*
D03*
X1980000D02*
D03*
X1250000Y3080000D02*
D03*
X1180000Y3150000D02*
D03*
X1320000D02*
D03*
X1580000Y3080000D02*
D03*
X1510000Y3150000D02*
D03*
X1650000D02*
D03*
D82*
X400000Y850000D02*
D03*
D83*
Y825000D02*
D03*
%TF.MD5,4eed2d14558f69800a89dc83a64cc708*%
M02*
