%TF.GenerationSoftware,Altium Limited,Altium Designer,20.0.11 (256)*%
G04 Layer_Color=32768*
%FSLAX26Y26*%
%MOIN*%
%TF.FileFunction,Other,Mechanical_15*%
%TF.Part,Single*%
G01*
G75*
%TA.AperFunction,NonConductor*%
%ADD111C,0.003937*%
%ADD112C,0.007874*%
%ADD166C,0.001968*%
D111*
X845173Y1060630D02*
Y1139370D01*
Y1060630D02*
X971157D01*
X845173Y1139370D02*
X971157D01*
Y1060630D02*
Y1139370D01*
X888480Y1100000D02*
X927850D01*
X908165Y1080315D02*
Y1119685D01*
X1080315Y575000D02*
X1119685D01*
X1100000Y555315D02*
Y594685D01*
X600315Y1360000D02*
X639685D01*
X620000Y1340315D02*
Y1379685D01*
X1500000Y2415315D02*
Y2454685D01*
X1480315Y2435000D02*
X1519685D01*
X830315Y255000D02*
X869685D01*
X850000Y235315D02*
Y274685D01*
X2625315Y1910000D02*
X2664685D01*
X2645000Y1890315D02*
Y1929685D01*
X1858780Y915000D02*
X1898150D01*
X1878465Y895315D02*
Y934685D01*
X2123194Y2580315D02*
Y2619685D01*
X2103509Y2600000D02*
X2142879D01*
X2872284Y2058878D02*
X2907717D01*
X2890000Y2041162D02*
Y2076595D01*
X2425000Y2010315D02*
Y2049685D01*
X2405315Y2030000D02*
X2444685D01*
X2425000Y2080315D02*
Y2119685D01*
X2405315Y2100000D02*
X2444685D01*
X2750000Y2510315D02*
Y2549685D01*
X2730315Y2530000D02*
X2769685D01*
X885000Y1371280D02*
Y1390965D01*
X875158Y1381122D02*
X894842D01*
X413315Y1299000D02*
X452685D01*
X433000Y1279315D02*
Y1318685D01*
X2630000Y610315D02*
Y649685D01*
X2610315Y630000D02*
X2649685D01*
X1820315Y1380000D02*
X1859685D01*
X1840000Y1360315D02*
Y1399685D01*
X2405433Y630000D02*
X2425118D01*
X2415276Y620158D02*
Y639842D01*
X1738658Y840000D02*
X1778272D01*
X1758465Y820193D02*
Y859807D01*
X654000Y791315D02*
Y830685D01*
X634315Y811000D02*
X673685D01*
X240315Y1300000D02*
X279685D01*
X260000Y1280315D02*
Y1319685D01*
X2190000Y1000315D02*
Y1039685D01*
X2170315Y1020000D02*
X2209685D01*
X1559252Y728315D02*
Y767685D01*
X1539567Y748000D02*
X1578937D01*
X1248465Y990315D02*
Y1029685D01*
X1228780Y1010000D02*
X1268150D01*
X1515000Y2565315D02*
Y2604685D01*
X1495315Y2585000D02*
X1534685D01*
X2712000Y2250315D02*
Y2289685D01*
X2692315Y2270000D02*
X2731685D01*
X431604Y323512D02*
Y362882D01*
X411919Y343197D02*
X451289D01*
X1408465Y990315D02*
Y1029685D01*
X1388780Y1010000D02*
X1428150D01*
X2955000Y2465315D02*
Y2504685D01*
X2935315Y2485000D02*
X2974685D01*
X1965000Y2280315D02*
Y2319685D01*
X1945315Y2300000D02*
X1984685D01*
X1950000Y2625315D02*
Y2664685D01*
X1930315Y2645000D02*
X1969685D01*
X2180000Y230315D02*
Y269685D01*
X2160315Y250000D02*
X2199685D01*
X421890Y1488740D02*
X461260D01*
X441575Y1469055D02*
Y1508425D01*
X1103780Y785000D02*
X1143150D01*
X1123465Y765315D02*
Y804685D01*
X635315Y605000D02*
X674685D01*
X655000Y585315D02*
Y624685D01*
X1870000Y2435315D02*
Y2474685D01*
X1850315Y2455000D02*
X1889685D01*
X2858815Y1919842D02*
X2898185D01*
X2878500Y1900158D02*
Y1939528D01*
X1588780Y600000D02*
X1628150D01*
X1608465Y580315D02*
Y619685D01*
X1758465Y635315D02*
Y674685D01*
X1738780Y655000D02*
X1778150D01*
X1588780Y895000D02*
X1628150D01*
X1608465Y875315D02*
Y914685D01*
X2278071Y2437402D02*
X2317441D01*
X2297756Y2417716D02*
Y2457087D01*
X1738658Y540000D02*
X1778272D01*
X1758465Y520193D02*
Y559807D01*
X1373780Y710000D02*
X1413150D01*
X1393465Y690315D02*
Y729685D01*
X2950315Y2065000D02*
X2989685D01*
X2970000Y2045315D02*
Y2084685D01*
X2870315Y1420000D02*
X2909685D01*
X2890000Y1400315D02*
Y1439685D01*
X2940315Y1920000D02*
X2979685D01*
X2960000Y1900315D02*
Y1939685D01*
X1805000Y2660315D02*
Y2699685D01*
X1785315Y2680000D02*
X1824685D01*
X1305315Y1380000D02*
X1344685D01*
X1325000Y1360315D02*
Y1399685D01*
X237913Y500000D02*
X277284D01*
X257599Y480315D02*
Y519685D01*
X2479571Y2285315D02*
Y2324685D01*
X2459886Y2305000D02*
X2499256D01*
X2210000Y1970315D02*
Y2009685D01*
X2190315Y1990000D02*
X2229685D01*
X380315Y734723D02*
X419685D01*
X400000Y715038D02*
Y754408D01*
X580000Y1140315D02*
Y1179685D01*
X560315Y1160000D02*
X599685D01*
X2816535Y2150315D02*
Y2189685D01*
X2796850Y2170000D02*
X2836220D01*
X2710000Y1000315D02*
Y1039685D01*
X2690315Y1020000D02*
X2729685D01*
X1480000Y482480D02*
Y521850D01*
X1460315Y502165D02*
X1499685D01*
X1888500Y261614D02*
Y300984D01*
X1868815Y281299D02*
X1908185D01*
X1495315Y2704815D02*
Y2744185D01*
X1475630Y2724500D02*
X1515000D01*
D112*
X2478425Y380000D02*
Y880000D01*
Y380000D02*
X2781575D01*
Y880000D01*
X2478425D02*
X2781575D01*
X1678937Y773976D02*
X1837992D01*
X1678937D02*
Y906024D01*
X1837992D01*
Y773976D02*
Y906024D01*
X154803Y885827D02*
Y1070866D01*
Y885827D02*
X867402D01*
X154803Y1070866D02*
X867402D01*
Y885827D02*
Y1070866D01*
X1678937Y473976D02*
X1837992D01*
X1678937D02*
Y606024D01*
X1837992D01*
Y473976D02*
Y606024D01*
D166*
X2243937Y1020000D02*
G03*
X2243937Y1020000I-53937J0D01*
G01*
X1613189Y748000D02*
G03*
X1613189Y748000I-53937J0D01*
G01*
X1302402Y1010000D02*
G03*
X1302402Y1010000I-53937J0D01*
G01*
X1568937Y2585000D02*
G03*
X1568937Y2585000I-53937J0D01*
G01*
X2765937Y2270000D02*
G03*
X2765937Y2270000I-53937J0D01*
G01*
X485541Y343197D02*
G03*
X485541Y343197I-53937J0D01*
G01*
X1462402Y1010000D02*
G03*
X1462402Y1010000I-53937J0D01*
G01*
X3008937Y2485000D02*
G03*
X3008937Y2485000I-53937J0D01*
G01*
X2018937Y2300000D02*
G03*
X2018937Y2300000I-53937J0D01*
G01*
X2003937Y2645000D02*
G03*
X2003937Y2645000I-53937J0D01*
G01*
X2533508Y2305000D02*
G03*
X2533508Y2305000I-53937J0D01*
G01*
X2263937Y1990000D02*
G03*
X2263937Y1990000I-53937J0D01*
G01*
X633937Y1160000D02*
G03*
X633937Y1160000I-53937J0D01*
G01*
X2870472Y2170000D02*
G03*
X2870472Y2170000I-53937J0D01*
G01*
X2763937Y1020000D02*
G03*
X2763937Y1020000I-53937J0D01*
G01*
X1533937Y502165D02*
G03*
X1533937Y502165I-53937J0D01*
G01*
X1942437Y281299D02*
G03*
X1942437Y281299I-53937J0D01*
G01*
X871850Y502165D02*
Y647835D01*
Y502165D02*
X1327756D01*
X871850Y647835D02*
X1327756D01*
Y502165D02*
Y647835D01*
X543228Y1302913D02*
Y1417087D01*
Y1302913D02*
X696772D01*
X543228Y1417087D02*
X696772D01*
Y1302913D02*
Y1417087D01*
X1433071Y2372008D02*
Y2497992D01*
Y2372008D02*
X1566929D01*
X1433071Y2497992D02*
X1566929D01*
Y2372008D02*
Y2497992D01*
X716142Y152638D02*
Y357362D01*
Y152638D02*
X983858D01*
X716142Y357362D02*
X983858D01*
Y152638D02*
Y357362D01*
X2553465Y1818465D02*
Y2001535D01*
Y1818465D02*
X2736535D01*
X2553465Y2001535D02*
X2736535D01*
Y1818465D02*
Y2001535D01*
X1839094Y848071D02*
Y981929D01*
Y848071D02*
X1917835D01*
X1839094Y981929D02*
X1917835D01*
Y848071D02*
Y981929D01*
X2040517Y2550787D02*
Y2649213D01*
Y2550787D02*
X2205871D01*
X2040517Y2649213D02*
X2205871D01*
Y2550787D02*
Y2649213D01*
X2862441Y2007697D02*
Y2110059D01*
Y2007697D02*
X2917559D01*
X2862441Y2110059D02*
X2917559D01*
Y2007697D02*
Y2110059D01*
X2371850Y2000472D02*
Y2059528D01*
Y2000472D02*
X2478150D01*
X2371850Y2059528D02*
X2478150D01*
Y2000472D02*
Y2059528D01*
X2358071Y2058662D02*
Y2141339D01*
Y2058662D02*
X2491929D01*
X2358071Y2141339D02*
X2491929D01*
Y2058662D02*
Y2141339D01*
X2687008Y2459134D02*
Y2600866D01*
Y2459134D02*
X2812992D01*
X2687008Y2600866D02*
X2812992D01*
Y2459134D02*
Y2600866D01*
X865315Y1341752D02*
Y1420492D01*
Y1341752D02*
X904685D01*
X865315Y1420492D02*
X904685D01*
Y1341752D02*
Y1420492D01*
X397567Y1212780D02*
Y1385220D01*
Y1212780D02*
X468433D01*
X397567Y1385220D02*
X468433D01*
Y1212780D02*
Y1385220D01*
X1625433Y1139842D02*
Y1620158D01*
Y1139842D02*
X2054567D01*
X1625433Y1620158D02*
X2054567D01*
Y1139842D02*
Y1620158D01*
X2379843Y543583D02*
Y716417D01*
Y543583D02*
X2450709D01*
X2379843Y716417D02*
X2450709D01*
Y543583D02*
Y716417D01*
X581165Y746039D02*
Y875961D01*
Y746039D02*
X726835D01*
X581165Y875961D02*
X726835D01*
Y746039D02*
Y875961D01*
X192284Y1158071D02*
Y1441929D01*
Y1158071D02*
X327716D01*
X192284Y1441929D02*
X327716D01*
Y1158071D02*
Y1441929D01*
X2118976Y187008D02*
Y312992D01*
Y187008D02*
X2241024D01*
X2118976Y312992D02*
X2241024D01*
Y187008D02*
Y312992D01*
X309685Y1425748D02*
Y1551732D01*
Y1425748D02*
X573465D01*
X309685Y1551732D02*
X573465D01*
Y1425748D02*
Y1551732D01*
X998465Y702323D02*
Y867677D01*
Y702323D02*
X1248465D01*
X998465Y867677D02*
X1248465D01*
Y702323D02*
Y867677D01*
X554606Y524291D02*
Y685709D01*
Y524291D02*
X755394D01*
X554606Y685709D02*
X755394D01*
Y524291D02*
Y685709D01*
X1824724Y2362480D02*
Y2547520D01*
Y2362480D02*
X1915275D01*
X1824724Y2547520D02*
X1915275D01*
Y2362480D02*
Y2547520D01*
X2837161Y1852913D02*
Y1986772D01*
Y1852913D02*
X2919838D01*
X2837161Y1986772D02*
X2919838D01*
Y1852913D02*
Y1986772D01*
X1559252Y517323D02*
Y682677D01*
Y517323D02*
X1657677D01*
X1559252Y682677D02*
X1657677D01*
Y517323D02*
Y682677D01*
X1691535Y615630D02*
Y694370D01*
Y615630D02*
X1825394D01*
X1691535Y694370D02*
X1825394D01*
Y615630D02*
Y694370D01*
X1559252Y812323D02*
Y977677D01*
Y812323D02*
X1657677D01*
X1559252Y977677D02*
X1657677D01*
Y812323D02*
Y977677D01*
X2226890Y2374409D02*
Y2500394D01*
Y2374409D02*
X2368622D01*
X2226890Y2500394D02*
X2368622D01*
Y2374409D02*
Y2500394D01*
X1293071Y629291D02*
Y790709D01*
Y629291D02*
X1493858D01*
X1293071Y790709D02*
X1493858D01*
Y629291D02*
Y790709D01*
X2928661Y1998071D02*
Y2131929D01*
Y1998071D02*
X3011338D01*
X2928661Y2131929D02*
X3011338D01*
Y1998071D02*
Y2131929D01*
X2789606Y1339291D02*
Y1500709D01*
Y1339291D02*
X2990394D01*
X2789606Y1500709D02*
X2990394D01*
Y1339291D02*
Y1500709D01*
X2930472Y1866850D02*
Y1973150D01*
Y1866850D02*
X2989528D01*
X2930472Y1973150D02*
X2989528D01*
Y1866850D02*
Y1973150D01*
X1759724Y2587480D02*
Y2772520D01*
Y2587480D02*
X1850275D01*
X1759724Y2772520D02*
X1850275D01*
Y2587480D02*
Y2772520D01*
X1110433Y1139842D02*
Y1620158D01*
Y1139842D02*
X1539567D01*
X1110433Y1620158D02*
X1539567D01*
Y1139842D02*
Y1620158D01*
X208386Y417323D02*
Y582677D01*
Y417323D02*
X306811D01*
X208386Y582677D02*
X306811D01*
Y417323D02*
Y582677D01*
X329134Y671731D02*
Y797715D01*
Y671731D02*
X470866D01*
X329134Y797715D02*
X470866D01*
Y671731D02*
Y797715D01*
X1428386Y2661508D02*
Y2787492D01*
Y2661508D02*
X1562244D01*
X1428386Y2787492D02*
X1562244D01*
Y2661508D02*
Y2787492D01*
%TF.MD5,565d609b2d34c0a5882648666f88c6df*%
M02*
