%TF.GenerationSoftware,Altium Limited,Altium Designer,20.0.11 (256)*%
G04 Layer_Physical_Order=1*
G04 Layer_Color=255*
%FSLAX26Y26*%
%MOIN*%
%TF.FileFunction,Copper,L1,Top,Signal*%
%TF.Part,Single*%
G01*
G75*
%TA.AperFunction,SMDPad,CuDef*%
%ADD10R,0.035433X0.015748*%
%TA.AperFunction,TestPad*%
%ADD11C,0.040000*%
%TA.AperFunction,SMDPad,CuDef*%
%ADD12R,0.086614X0.062992*%
%ADD13R,0.085827X0.062992*%
%ADD14R,0.130000X0.320000*%
%ADD15R,0.035433X0.015748*%
%ADD16R,0.039370X0.106299*%
%ADD17O,0.074803X0.023622*%
%ADD18R,0.012795X0.015748*%
G04:AMPARAMS|DCode=19|XSize=9.842mil|YSize=23.622mil|CornerRadius=1.968mil|HoleSize=0mil|Usage=FLASHONLY|Rotation=270.000|XOffset=0mil|YOffset=0mil|HoleType=Round|Shape=RoundedRectangle|*
%AMROUNDEDRECTD19*
21,1,0.009842,0.019685,0,0,270.0*
21,1,0.005906,0.023622,0,0,270.0*
1,1,0.003937,-0.009842,-0.002953*
1,1,0.003937,-0.009842,0.002953*
1,1,0.003937,0.009842,0.002953*
1,1,0.003937,0.009842,-0.002953*
%
%ADD19ROUNDEDRECTD19*%
G04:AMPARAMS|DCode=20|XSize=9.842mil|YSize=23.622mil|CornerRadius=1.968mil|HoleSize=0mil|Usage=FLASHONLY|Rotation=180.000|XOffset=0mil|YOffset=0mil|HoleType=Round|Shape=RoundedRectangle|*
%AMROUNDEDRECTD20*
21,1,0.009842,0.019685,0,0,180.0*
21,1,0.005906,0.023622,0,0,180.0*
1,1,0.003937,-0.002953,0.009842*
1,1,0.003937,0.002953,0.009842*
1,1,0.003937,0.002953,-0.009842*
1,1,0.003937,-0.002953,-0.009842*
%
%ADD20ROUNDEDRECTD20*%
G04:AMPARAMS|DCode=21|XSize=102.362mil|YSize=102.362mil|CornerRadius=2.047mil|HoleSize=0mil|Usage=FLASHONLY|Rotation=180.000|XOffset=0mil|YOffset=0mil|HoleType=Round|Shape=RoundedRectangle|*
%AMROUNDEDRECTD21*
21,1,0.102362,0.098268,0,0,180.0*
21,1,0.098268,0.102362,0,0,180.0*
1,1,0.004094,-0.049134,0.049134*
1,1,0.004094,0.049134,0.049134*
1,1,0.004094,0.049134,-0.049134*
1,1,0.004094,-0.049134,-0.049134*
%
%ADD21ROUNDEDRECTD21*%
%ADD22R,0.057087X0.047244*%
%ADD23R,0.047244X0.057087*%
%ADD24R,0.035433X0.027559*%
%ADD25R,0.035433X0.039370*%
%ADD26R,0.039370X0.043307*%
%ADD27R,0.027559X0.039370*%
%ADD28R,0.015748X0.018898*%
%ADD29R,0.048032X0.035827*%
%ADD30R,0.098425X0.157480*%
%ADD31R,0.027559X0.039370*%
%ADD32R,0.047992X0.035984*%
%ADD33R,0.048032X0.024409*%
%ADD34R,0.055118X0.035433*%
%ADD35R,0.055118X0.043307*%
%ADD36R,0.124016X0.070079*%
%ADD37R,0.110000X0.079000*%
%ADD38R,0.039764X0.057874*%
%ADD39R,0.035433X0.031496*%
%ADD40R,0.098425X0.066929*%
G04:AMPARAMS|DCode=41|XSize=17.716mil|YSize=49.213mil|CornerRadius=1.949mil|HoleSize=0mil|Usage=FLASHONLY|Rotation=270.000|XOffset=0mil|YOffset=0mil|HoleType=Round|Shape=RoundedRectangle|*
%AMROUNDEDRECTD41*
21,1,0.017716,0.045315,0,0,270.0*
21,1,0.013819,0.049213,0,0,270.0*
1,1,0.003898,-0.022657,-0.006910*
1,1,0.003898,-0.022657,0.006910*
1,1,0.003898,0.022657,0.006910*
1,1,0.003898,0.022657,-0.006910*
%
%ADD41ROUNDEDRECTD41*%
G04:AMPARAMS|DCode=42|XSize=25.591mil|YSize=47.244mil|CornerRadius=1.919mil|HoleSize=0mil|Usage=FLASHONLY|Rotation=270.000|XOffset=0mil|YOffset=0mil|HoleType=Round|Shape=RoundedRectangle|*
%AMROUNDEDRECTD42*
21,1,0.025591,0.043406,0,0,270.0*
21,1,0.021752,0.047244,0,0,270.0*
1,1,0.003839,-0.021703,-0.010876*
1,1,0.003839,-0.021703,0.010876*
1,1,0.003839,0.021703,0.010876*
1,1,0.003839,0.021703,-0.010876*
%
%ADD42ROUNDEDRECTD42*%
%ADD43R,0.070866X0.045276*%
%ADD44R,0.051181X0.059055*%
%ADD45R,0.059055X0.051181*%
%ADD46R,0.039000X0.043000*%
%ADD47R,0.043307X0.039370*%
%ADD48R,0.043000X0.039000*%
%ADD49R,0.043307X0.059055*%
%ADD50R,0.039370X0.043307*%
%ADD51R,0.043307X0.039370*%
%ADD52R,0.039370X0.027559*%
%ADD53R,0.039370X0.035433*%
%TA.AperFunction,Conductor*%
%ADD54C,0.010000*%
%ADD55C,0.020000*%
%ADD56C,0.008000*%
%ADD57C,0.015000*%
%ADD58C,0.012000*%
%ADD59C,0.040000*%
%ADD60C,0.030000*%
%ADD61R,0.027328X0.055397*%
%ADD62R,0.041378X0.027205*%
%ADD63R,0.520000X0.105000*%
%ADD64R,0.575000X0.110000*%
%TA.AperFunction,ComponentPad*%
%ADD65C,0.060000*%
%ADD66R,0.060000X0.060000*%
%ADD67C,0.100000*%
%ADD68R,0.061024X0.061024*%
%ADD69C,0.061024*%
%ADD70C,0.052283*%
%ADD71R,0.052283X0.052283*%
%ADD72C,0.300000*%
%ADD73R,0.075000X0.075000*%
%ADD74C,0.075000*%
%ADD75C,0.125000*%
%ADD76C,0.068898*%
%ADD77C,0.047244*%
%ADD78R,0.047244X0.047244*%
%ADD79R,0.062598X0.062598*%
%ADD80C,0.062598*%
%ADD81C,0.040000*%
%ADD82R,0.020000X0.020000*%
%ADD83R,0.020000X0.040000*%
%TA.AperFunction,ViaPad*%
%ADD84C,0.019685*%
%ADD85C,0.030000*%
%ADD86C,0.016000*%
G36*
X3135000Y3473686D02*
Y3473686D01*
X3154081Y3471469D01*
X3167109Y3467517D01*
X3181615Y3459764D01*
X3194329Y3449329D01*
X3204764Y3436615D01*
X3212517Y3422109D01*
X3216469Y3409082D01*
X3218686Y3390000D01*
X3218686Y3390000D01*
X3218686Y3390000D01*
X3218686Y3370000D01*
Y100001D01*
X3218686Y100000D01*
X3218686Y100000D01*
X3216469Y80918D01*
X3212517Y67891D01*
X3204764Y53386D01*
X3194329Y40671D01*
X3181615Y30236D01*
X3167109Y22483D01*
X3154081Y18531D01*
X3135000Y16314D01*
X3135000Y16314D01*
X3115000Y16314D01*
X100000D01*
X100000Y16314D01*
X80918Y18531D01*
X67891Y22483D01*
X53385Y30236D01*
X40671Y40671D01*
X30236Y53385D01*
X22483Y67891D01*
X18531Y80918D01*
X16314Y100000D01*
Y3390000D01*
X16168Y3390731D01*
X17708Y3406369D01*
X22483Y3422109D01*
X30236Y3436615D01*
X40671Y3449329D01*
X53385Y3459764D01*
X67891Y3467517D01*
X80918Y3471469D01*
X100000Y3473686D01*
Y3473686D01*
X120000Y3473686D01*
X3134999D01*
X3135000Y3473686D01*
D02*
G37*
%LPC*%
G36*
X1327500Y3184315D02*
Y3157500D01*
X1354315D01*
X1354099Y3159137D01*
X1350572Y3167651D01*
X1344962Y3174962D01*
X1337651Y3180572D01*
X1329137Y3184099D01*
X1327500Y3184315D01*
D02*
G37*
G36*
X1312500D02*
X1310863Y3184099D01*
X1302349Y3180572D01*
X1295038Y3174962D01*
X1289428Y3167651D01*
X1285901Y3159137D01*
X1285685Y3157500D01*
X1312500D01*
Y3184315D01*
D02*
G37*
G36*
X969805Y3189016D02*
Y3150805D01*
X1008016D01*
X1007412Y3155392D01*
X1002747Y3166654D01*
X995326Y3176326D01*
X985654Y3183747D01*
X974391Y3188412D01*
X969805Y3189016D01*
D02*
G37*
G36*
X1980000Y3176224D02*
X1973213Y3175331D01*
X1966888Y3172711D01*
X1961457Y3168544D01*
X1957289Y3163112D01*
X1954669Y3156787D01*
X1953776Y3150000D01*
X1954669Y3143213D01*
X1957289Y3136888D01*
X1961457Y3131456D01*
X1966888Y3127289D01*
X1973213Y3124669D01*
X1980000Y3123776D01*
X1986787Y3124669D01*
X1993112Y3127289D01*
X1998543Y3131456D01*
X2002711Y3136888D01*
X2005331Y3143213D01*
X2006224Y3150000D01*
X2005331Y3156787D01*
X2002711Y3163112D01*
X1998543Y3168544D01*
X1993112Y3172711D01*
X1986787Y3175331D01*
X1980000Y3176224D01*
D02*
G37*
G36*
X1840000D02*
X1833213Y3175331D01*
X1826888Y3172711D01*
X1821457Y3168544D01*
X1817289Y3163112D01*
X1814669Y3156787D01*
X1813776Y3150000D01*
X1814669Y3143213D01*
X1817289Y3136888D01*
X1821457Y3131456D01*
X1826888Y3127289D01*
X1833213Y3124669D01*
X1840000Y3123776D01*
X1846787Y3124669D01*
X1853112Y3127289D01*
X1858543Y3131456D01*
X1862711Y3136888D01*
X1865331Y3143213D01*
X1866224Y3150000D01*
X1865331Y3156787D01*
X1862711Y3163112D01*
X1858543Y3168544D01*
X1853112Y3172711D01*
X1846787Y3175331D01*
X1840000Y3176224D01*
D02*
G37*
G36*
X1650000D02*
X1643213Y3175331D01*
X1636888Y3172711D01*
X1631457Y3168544D01*
X1627289Y3163112D01*
X1624669Y3156787D01*
X1623776Y3150000D01*
X1624669Y3143213D01*
X1627289Y3136888D01*
X1631457Y3131456D01*
X1636888Y3127289D01*
X1643213Y3124669D01*
X1650000Y3123776D01*
X1656787Y3124669D01*
X1663112Y3127289D01*
X1668543Y3131456D01*
X1672711Y3136888D01*
X1675331Y3143213D01*
X1676224Y3150000D01*
X1675331Y3156787D01*
X1672711Y3163112D01*
X1668543Y3168544D01*
X1663112Y3172711D01*
X1656787Y3175331D01*
X1650000Y3176224D01*
D02*
G37*
G36*
X1510000D02*
X1503213Y3175331D01*
X1496888Y3172711D01*
X1491457Y3168544D01*
X1487289Y3163112D01*
X1484669Y3156787D01*
X1483776Y3150000D01*
X1484669Y3143213D01*
X1487289Y3136888D01*
X1491457Y3131456D01*
X1496888Y3127289D01*
X1503213Y3124669D01*
X1510000Y3123776D01*
X1516787Y3124669D01*
X1523112Y3127289D01*
X1528543Y3131456D01*
X1532711Y3136888D01*
X1535331Y3143213D01*
X1536224Y3150000D01*
X1535331Y3156787D01*
X1532711Y3163112D01*
X1528543Y3168544D01*
X1523112Y3172711D01*
X1516787Y3175331D01*
X1510000Y3176224D01*
D02*
G37*
G36*
X1180000D02*
X1173213Y3175331D01*
X1166888Y3172711D01*
X1161457Y3168544D01*
X1157289Y3163112D01*
X1154669Y3156787D01*
X1153776Y3150000D01*
X1154669Y3143213D01*
X1157289Y3136888D01*
X1161457Y3131456D01*
X1166888Y3127289D01*
X1173213Y3124669D01*
X1180000Y3123776D01*
X1186787Y3124669D01*
X1193112Y3127289D01*
X1198543Y3131456D01*
X1202711Y3136888D01*
X1205331Y3143213D01*
X1206224Y3150000D01*
X1205331Y3156787D01*
X1202711Y3163112D01*
X1198543Y3168544D01*
X1193112Y3172711D01*
X1186787Y3175331D01*
X1180000Y3176224D01*
D02*
G37*
G36*
X3010000Y3436482D02*
X2985521Y3434556D01*
X2961644Y3428824D01*
X2938959Y3419427D01*
X2918022Y3406597D01*
X2899350Y3390650D01*
X2883403Y3371978D01*
X2870573Y3351041D01*
X2861176Y3328356D01*
X2855444Y3304479D01*
X2853518Y3280000D01*
X2855444Y3255521D01*
X2861176Y3231644D01*
X2870573Y3208959D01*
X2883403Y3188022D01*
X2899350Y3169350D01*
X2918022Y3153403D01*
X2938959Y3140573D01*
X2961644Y3131176D01*
X2985521Y3125444D01*
X3010000Y3123518D01*
X3034479Y3125444D01*
X3058356Y3131176D01*
X3081041Y3140573D01*
X3101978Y3153403D01*
X3120650Y3169350D01*
X3136597Y3188022D01*
X3149427Y3208959D01*
X3158824Y3231644D01*
X3164556Y3255521D01*
X3166482Y3280000D01*
X3164556Y3304479D01*
X3158824Y3328356D01*
X3149427Y3351041D01*
X3136597Y3371978D01*
X3120650Y3390650D01*
X3101978Y3406597D01*
X3081041Y3419427D01*
X3058356Y3428824D01*
X3034479Y3434556D01*
X3010000Y3436482D01*
D02*
G37*
G36*
X195000D02*
X170521Y3434556D01*
X146644Y3428824D01*
X123959Y3419427D01*
X103022Y3406597D01*
X84350Y3390650D01*
X68403Y3371978D01*
X55573Y3351041D01*
X46176Y3328356D01*
X40444Y3304479D01*
X38518Y3280000D01*
X40444Y3255521D01*
X46176Y3231644D01*
X55573Y3208959D01*
X68403Y3188022D01*
X84350Y3169350D01*
X103022Y3153403D01*
X123959Y3140573D01*
X146644Y3131176D01*
X170521Y3125444D01*
X195000Y3123518D01*
X219479Y3125444D01*
X243356Y3131176D01*
X266041Y3140573D01*
X286978Y3153403D01*
X305650Y3169350D01*
X321597Y3188022D01*
X334427Y3208959D01*
X343824Y3231644D01*
X349556Y3255521D01*
X351482Y3280000D01*
X349556Y3304479D01*
X343824Y3328356D01*
X334427Y3351041D01*
X321597Y3371978D01*
X305650Y3390650D01*
X286978Y3406597D01*
X266041Y3419427D01*
X243356Y3428824D01*
X219479Y3434556D01*
X195000Y3436482D01*
D02*
G37*
G36*
X1354315Y3142500D02*
X1327500D01*
Y3115685D01*
X1329137Y3115901D01*
X1337651Y3119428D01*
X1344962Y3125038D01*
X1350572Y3132349D01*
X1354099Y3140863D01*
X1354315Y3142500D01*
D02*
G37*
G36*
X1312500D02*
X1285685D01*
X1285901Y3140863D01*
X1289428Y3132349D01*
X1295038Y3125038D01*
X1302349Y3119428D01*
X1310863Y3115901D01*
X1312500Y3115685D01*
Y3142500D01*
D02*
G37*
G36*
X704328Y3180604D02*
X629730D01*
Y3106006D01*
X704328D01*
Y3180604D01*
D02*
G37*
G36*
X765454Y3180926D02*
X755717Y3179644D01*
X746644Y3175886D01*
X738852Y3169907D01*
X732874Y3162116D01*
X729115Y3153042D01*
X727833Y3143305D01*
X729115Y3133568D01*
X732874Y3124494D01*
X738852Y3116703D01*
X746644Y3110724D01*
X755717Y3106966D01*
X765454Y3105684D01*
X775192Y3106966D01*
X784265Y3110724D01*
X792057Y3116703D01*
X798035Y3124494D01*
X801794Y3133568D01*
X803076Y3143305D01*
X801794Y3153042D01*
X798035Y3162116D01*
X792057Y3169907D01*
X784265Y3175886D01*
X775192Y3179644D01*
X765454Y3180926D01*
D02*
G37*
G36*
X1008016Y3135805D02*
X969805D01*
Y3097594D01*
X974391Y3098198D01*
X985654Y3102863D01*
X995326Y3110284D01*
X1002747Y3119956D01*
X1007412Y3131218D01*
X1008016Y3135805D01*
D02*
G37*
G36*
X1910000Y3106224D02*
X1903213Y3105331D01*
X1896888Y3102711D01*
X1891457Y3098544D01*
X1887289Y3093112D01*
X1884669Y3086787D01*
X1883776Y3080000D01*
X1884669Y3073213D01*
X1887289Y3066888D01*
X1891457Y3061456D01*
X1896888Y3057289D01*
X1903213Y3054669D01*
X1910000Y3053776D01*
X1916787Y3054669D01*
X1923112Y3057289D01*
X1928543Y3061456D01*
X1930255Y3063686D01*
X2466616D01*
X2471806Y3060218D01*
X2480000Y3058589D01*
X2488194Y3060218D01*
X2495140Y3064860D01*
X2499782Y3071806D01*
X2501411Y3080000D01*
X2499782Y3088194D01*
X2495140Y3095140D01*
X2488194Y3099782D01*
X2480000Y3101411D01*
X2471806Y3099782D01*
X2466616Y3096314D01*
X1930255D01*
X1928543Y3098544D01*
X1923112Y3102711D01*
X1916787Y3105331D01*
X1910000Y3106224D01*
D02*
G37*
G36*
X1250000D02*
X1243213Y3105331D01*
X1236888Y3102711D01*
X1231457Y3098544D01*
X1227289Y3093112D01*
X1224669Y3086787D01*
X1223776Y3080000D01*
X1224669Y3073213D01*
X1227289Y3066888D01*
X1231457Y3061456D01*
X1236888Y3057289D01*
X1243213Y3054669D01*
X1250000Y3053776D01*
X1256787Y3054669D01*
X1263112Y3057289D01*
X1268543Y3061456D01*
X1272711Y3066888D01*
X1275331Y3073213D01*
X1276224Y3080000D01*
X1275331Y3086787D01*
X1272711Y3093112D01*
X1268543Y3098544D01*
X1263112Y3102711D01*
X1256787Y3105331D01*
X1250000Y3106224D01*
D02*
G37*
G36*
X1477693Y2783650D02*
X1426323D01*
Y2771314D01*
X1193227D01*
X1193227Y2771314D01*
X1186984Y2770072D01*
X1181691Y2766535D01*
X1167833Y2752677D01*
X1164297Y2747385D01*
X1163055Y2741142D01*
Y2714842D01*
X1158791Y2713076D01*
X1152076Y2707924D01*
X1146924Y2701209D01*
X1143686Y2693391D01*
X1142581Y2685000D01*
X1143686Y2676609D01*
Y2676609D01*
X1146924Y2668791D01*
X1152076Y2662076D01*
X1158791Y2656924D01*
X1166609Y2653686D01*
X1175000Y2652581D01*
X1183391Y2653686D01*
X1191209Y2656924D01*
X1197924Y2662076D01*
X1203076Y2668791D01*
X1206314Y2676609D01*
X1207419Y2685000D01*
X1206314Y2693391D01*
X1203076Y2701209D01*
X1197924Y2707924D01*
X1195682Y2709644D01*
Y2734385D01*
X1199984Y2738686D01*
X1426323D01*
Y2708568D01*
D01*
Y2665350D01*
X1477693D01*
Y2701294D01*
Y2783650D01*
D02*
G37*
G36*
X907500Y2789401D02*
Y2752500D01*
X944401D01*
X943842Y2756747D01*
X939307Y2767694D01*
X932094Y2777094D01*
X922694Y2784307D01*
X911747Y2788842D01*
X907500Y2789401D01*
D02*
G37*
G36*
X307500D02*
Y2752500D01*
X344401D01*
X343842Y2756747D01*
X339307Y2767694D01*
X332094Y2777094D01*
X322694Y2784307D01*
X311747Y2788842D01*
X307500Y2789401D01*
D02*
G37*
G36*
X892500D02*
X888253Y2788842D01*
X877306Y2784307D01*
X867906Y2777094D01*
X860693Y2767694D01*
X856158Y2756747D01*
X855599Y2752500D01*
X892500D01*
Y2789401D01*
D02*
G37*
G36*
X292500D02*
X288253Y2788842D01*
X277306Y2784307D01*
X267906Y2777094D01*
X260693Y2767694D01*
X256158Y2756747D01*
X255599Y2752500D01*
X292500D01*
Y2789401D01*
D02*
G37*
G36*
X2300000Y3381314D02*
X950449D01*
X944206Y3380072D01*
X938913Y3376535D01*
X901315Y3338937D01*
X897779Y3333644D01*
X896537Y3327402D01*
X896612Y3327024D01*
X864398Y3294810D01*
X844398Y3294874D01*
X831708Y3294874D01*
X811602D01*
Y3259126D01*
X838072Y3259126D01*
X845421Y3247448D01*
X848566Y3240853D01*
X847566Y3235825D01*
Y3176920D01*
X845069Y3175886D01*
X837278Y3169907D01*
X831299Y3162116D01*
X827540Y3153042D01*
X826259Y3143305D01*
X827540Y3133568D01*
X831299Y3124494D01*
X837278Y3116703D01*
X845069Y3110724D01*
X854143Y3106966D01*
X863880Y3105684D01*
X873617Y3106966D01*
X882690Y3110724D01*
X890482Y3116703D01*
X896460Y3124494D01*
X897832Y3127805D01*
X905481Y3129153D01*
X918696Y3127599D01*
X921862Y3119956D01*
X929284Y3110284D01*
X938955Y3102863D01*
X950218Y3098198D01*
X954805Y3097594D01*
Y3143305D01*
Y3189016D01*
X950218Y3188412D01*
X938955Y3183747D01*
X929284Y3176326D01*
X921862Y3166654D01*
X918696Y3159011D01*
X905481Y3157456D01*
X897832Y3158805D01*
X896460Y3162116D01*
X890482Y3169907D01*
X882690Y3175886D01*
X880193Y3176920D01*
Y3235825D01*
X878951Y3242068D01*
X877508Y3244228D01*
X874846Y3263126D01*
X881627Y3280317D01*
X912473Y3311163D01*
X912850Y3311088D01*
X919093Y3312330D01*
X924386Y3315866D01*
X957206Y3348686D01*
X2293243D01*
X2548686Y3093243D01*
Y2722024D01*
X2544601Y2720332D01*
X2536152Y2713848D01*
X2529668Y2705399D01*
X2526482Y2697707D01*
X2525592Y2695559D01*
X2524740Y2693897D01*
X2505260D01*
X2504408Y2695559D01*
X2503733Y2697189D01*
X2500332Y2705399D01*
X2493848Y2713848D01*
X2485399Y2720332D01*
X2475559Y2724408D01*
X2465000Y2725798D01*
X2454441Y2724408D01*
X2444601Y2720332D01*
X2436152Y2713848D01*
X2429668Y2705399D01*
X2426482Y2697707D01*
X2425592Y2695559D01*
X2424740Y2693897D01*
X2405260D01*
X2404408Y2695559D01*
X2403733Y2697189D01*
X2400332Y2705399D01*
X2393848Y2713848D01*
X2385399Y2720332D01*
X2375559Y2724408D01*
X2365000Y2725798D01*
X2354441Y2724408D01*
X2344601Y2720332D01*
X2336152Y2713848D01*
X2330370Y2706314D01*
X2181718D01*
Y2789500D01*
X2195746D01*
Y2840500D01*
X2148817D01*
X2128817Y2840500D01*
X2120746Y2840500D01*
X2105198D01*
X2029163Y2916535D01*
X2023870Y2920072D01*
X2017627Y2921314D01*
X1651757D01*
X1596313Y2976757D01*
Y3059745D01*
X1598543Y3061456D01*
X1602711Y3066888D01*
X1605331Y3073213D01*
X1606224Y3080000D01*
X1605331Y3086787D01*
X1602711Y3093112D01*
X1598543Y3098544D01*
X1593112Y3102711D01*
X1586787Y3105331D01*
X1580000Y3106224D01*
X1573213Y3105331D01*
X1566888Y3102711D01*
X1561457Y3098544D01*
X1557289Y3093112D01*
X1554669Y3086787D01*
X1553776Y3080000D01*
X1554669Y3073213D01*
X1557289Y3066888D01*
X1561457Y3061456D01*
X1563687Y3059745D01*
Y2970000D01*
X1564928Y2963757D01*
X1568465Y2958465D01*
X1633465Y2893465D01*
X1638757Y2889928D01*
X1645000Y2888686D01*
X2010870D01*
X2073817Y2825740D01*
Y2789500D01*
X2076806D01*
X2080185Y2787184D01*
X2091675Y2770000D01*
X2093305Y2761806D01*
X2097947Y2754860D01*
X2104893Y2750218D01*
X2113087Y2748589D01*
X2121280Y2750218D01*
X2128227Y2754860D01*
X2129091Y2756154D01*
X2149091Y2750087D01*
Y2690000D01*
Y2645057D01*
X2132942Y2634543D01*
X2113446D01*
X2112942Y2634543D01*
X2054202D01*
Y2611215D01*
X2024666D01*
X2023009Y2796357D01*
X2022452Y2797669D01*
X2022378Y2799093D01*
X2021518Y2799868D01*
X2021066Y2800932D01*
X2019744Y2801466D01*
X2018685Y2802421D01*
X1867169Y2856121D01*
X1866043Y2856062D01*
X1865000Y2856494D01*
X1510000D01*
X1505408Y2854592D01*
X1503506Y2850000D01*
X1503505Y2798465D01*
X1503505Y2787649D01*
X1503506Y2787649D01*
X1505408Y2783057D01*
X1509999Y2781155D01*
X1510000Y2781155D01*
X1512937Y2778218D01*
Y2665350D01*
X1560315D01*
X1560776D01*
X1564307D01*
X1564307Y2665350D01*
D01*
X1580315Y2655713D01*
Y2624882D01*
X1600000D01*
Y2656536D01*
X1620000D01*
Y2624882D01*
X1639685D01*
Y2678802D01*
X1645984Y2681690D01*
X1657868Y2676067D01*
X1665473Y2668757D01*
Y2612008D01*
X1695000D01*
Y2647598D01*
X1715000D01*
Y2612008D01*
X1739567D01*
X1744527Y2612008D01*
X1759567Y2600032D01*
Y2588307D01*
X1795000D01*
Y2620945D01*
Y2653583D01*
X1764528D01*
X1759567Y2653583D01*
X1744527Y2665559D01*
X1744528Y2683189D01*
X1742807Y2691080D01*
X1754139Y2705911D01*
X1754139Y2705911D01*
X1756001Y2706801D01*
X1756187Y2706937D01*
X1756409Y2706993D01*
X1756888Y2707350D01*
X1757153Y2707349D01*
X1763567Y2710417D01*
X1826502D01*
X1844390Y2704035D01*
X1844392Y2704035D01*
X1844392Y2704035D01*
D01*
X1845326Y2703068D01*
X1845841Y2701825D01*
X1846985Y2701351D01*
X1847846Y2700461D01*
X1858015Y2696044D01*
D01*
X1858016Y2696043D01*
X1859361Y2696020D01*
X1860603Y2695506D01*
X1873506D01*
Y2680758D01*
D01*
X1873506Y2580042D01*
X1874429Y2577812D01*
X1875300Y2575560D01*
X1875376Y2575526D01*
X1875408Y2575450D01*
X1877637Y2574526D01*
X1879846Y2573549D01*
X2009700Y2570458D01*
X2009754Y2570479D01*
X2009807Y2570456D01*
X2009807Y2570457D01*
X2012064Y2571372D01*
X2014336Y2572250D01*
X2014388Y2572314D01*
X2014413Y2572324D01*
X2014413Y2572325D01*
X2022959Y2580745D01*
X2022961Y2580746D01*
X2024708Y2580888D01*
X2039021Y2581453D01*
X2043343Y2580987D01*
X2054202Y2573768D01*
Y2565457D01*
X2112942D01*
X2113446Y2565457D01*
X2132942D01*
X2133446Y2565457D01*
X2192186D01*
Y2634543D01*
X2181718D01*
Y2673686D01*
X2325905D01*
X2329668Y2664601D01*
X2336152Y2656152D01*
X2344601Y2649668D01*
X2354441Y2645592D01*
X2354958Y2645524D01*
Y2588953D01*
X2353061Y2588168D01*
X2347630Y2584000D01*
X2343462Y2578569D01*
X2340843Y2572244D01*
X2339949Y2565457D01*
X2340843Y2558669D01*
X2343462Y2552345D01*
X2347630Y2546913D01*
X2353061Y2542746D01*
X2359386Y2540126D01*
X2366173Y2539232D01*
X2372961Y2540126D01*
X2379285Y2542746D01*
X2384717Y2546913D01*
X2388884Y2552345D01*
X2391504Y2558669D01*
X2392398Y2565457D01*
X2391504Y2572244D01*
X2388884Y2578569D01*
X2384717Y2584000D01*
X2379285Y2588168D01*
X2377389Y2588953D01*
Y2646350D01*
X2385399Y2649668D01*
X2393848Y2656152D01*
X2400332Y2664601D01*
X2403518Y2672293D01*
X2404408Y2674441D01*
X2405260Y2676103D01*
X2424740D01*
X2425592Y2674441D01*
X2426267Y2672811D01*
X2429668Y2664601D01*
X2436152Y2656152D01*
X2444601Y2649668D01*
X2454441Y2645592D01*
X2455972Y2645391D01*
Y2500573D01*
X2446516Y2491117D01*
X2370685D01*
Y2494583D01*
X2331226D01*
X2322065Y2494583D01*
X2318491Y2494620D01*
X2299686Y2495479D01*
X2295000Y2496411D01*
X2276197Y2494583D01*
X2276197Y2494583D01*
X2224827D01*
X2224827Y2455024D01*
X2207481Y2448617D01*
X2206533D01*
X2190685Y2464465D01*
Y2496118D01*
X2139315D01*
Y2484778D01*
X2098465D01*
X2092222Y2483536D01*
X2086929Y2480000D01*
X2013243Y2406314D01*
X1911433D01*
Y2424583D01*
X1828567D01*
Y2418085D01*
X1775527D01*
Y2436811D01*
X1778465D01*
X1777625Y2438085D01*
X1779528Y2446811D01*
X1779527Y2457532D01*
Y2472402D01*
X1740000D01*
X1700473D01*
Y2457532D01*
X1700472Y2446811D01*
X1700675Y2445881D01*
X1693370Y2436811D01*
X1704473D01*
Y2425881D01*
X1645685D01*
Y2436811D01*
X1656787D01*
X1649482Y2445881D01*
X1649685Y2446811D01*
X1649685Y2457532D01*
Y2468465D01*
X1620000D01*
X1590315D01*
Y2456753D01*
X1580315Y2445087D01*
Y2441992D01*
X1571870Y2433057D01*
X1568992Y2433452D01*
Y2438116D01*
Y2494150D01*
X1517622D01*
Y2375850D01*
X1568992D01*
Y2395222D01*
X1594315D01*
Y2383882D01*
X1645685D01*
Y2393253D01*
X1704473D01*
Y2376008D01*
X1775527D01*
Y2385458D01*
X1828567D01*
Y2367307D01*
X1851347D01*
Y2328473D01*
X1849188Y2326314D01*
X1773384D01*
X1768194Y2329782D01*
X1760000Y2331411D01*
X1751806Y2329782D01*
X1744860Y2325140D01*
X1740218Y2318194D01*
X1738589Y2310000D01*
X1740218Y2301806D01*
X1744860Y2294860D01*
X1751806Y2290218D01*
X1760000Y2288589D01*
X1768194Y2290218D01*
X1773384Y2293686D01*
X1855945D01*
X1862188Y2294928D01*
X1867480Y2298465D01*
X1879196Y2310180D01*
X1882732Y2315473D01*
X1883974Y2321716D01*
Y2367307D01*
X1911433D01*
Y2373686D01*
X1948687D01*
Y2332763D01*
X1946587Y2331893D01*
X1938959Y2326041D01*
X1933107Y2318413D01*
X1929428Y2309532D01*
X1928173Y2300000D01*
X1929428Y2290468D01*
X1933107Y2281587D01*
X1938959Y2273959D01*
X1946587Y2268107D01*
X1955468Y2264428D01*
X1965000Y2263173D01*
X1974532Y2264428D01*
X1983413Y2268107D01*
X1991041Y2273959D01*
X1996893Y2281587D01*
X2000572Y2290468D01*
X2001827Y2300000D01*
X2000572Y2309532D01*
X1996893Y2318413D01*
X1991041Y2326041D01*
X1983413Y2331893D01*
X1981313Y2332763D01*
Y2373686D01*
X2020000D01*
X2026243Y2374928D01*
X2031535Y2378465D01*
X2042829Y2389758D01*
X2044357Y2389976D01*
X2050501Y2385412D01*
X2059692Y2375547D01*
X2058589Y2370000D01*
X2060218Y2361806D01*
X2064860Y2354860D01*
X2071806Y2350218D01*
X2080000Y2348589D01*
X2088194Y2350218D01*
X2095140Y2354860D01*
X2099782Y2361806D01*
X2101411Y2370000D01*
X2100491Y2374629D01*
X2116181Y2390320D01*
X2139315D01*
Y2373882D01*
X2190685D01*
Y2388785D01*
X2224827D01*
Y2380220D01*
X2276197D01*
Y2419779D01*
X2293543Y2426186D01*
X2319315D01*
Y2380220D01*
X2370685D01*
Y2380220D01*
X2390389Y2379506D01*
X2395000Y2378589D01*
X2403194Y2380218D01*
X2410140Y2384860D01*
X2414782Y2391806D01*
X2416411Y2400000D01*
X2414782Y2408194D01*
X2410140Y2415140D01*
X2403194Y2419782D01*
X2395000Y2421411D01*
X2390685Y2420553D01*
X2377001Y2427860D01*
X2370685Y2433064D01*
Y2458490D01*
X2453273D01*
X2459516Y2459731D01*
X2464809Y2463268D01*
X2480006Y2478465D01*
X2483542Y2483757D01*
X2483988Y2486001D01*
X2487357Y2491043D01*
X2488599Y2497286D01*
Y2652124D01*
X2493848Y2656152D01*
X2500332Y2664601D01*
X2503518Y2672293D01*
X2504408Y2674441D01*
X2505260Y2676103D01*
X2524740D01*
X2525592Y2674441D01*
X2526267Y2672811D01*
X2529668Y2664601D01*
X2536152Y2656152D01*
X2544601Y2649668D01*
X2554441Y2645592D01*
X2565000Y2644202D01*
X2575559Y2645592D01*
X2585399Y2649668D01*
X2593848Y2656152D01*
X2600332Y2664601D01*
X2604408Y2674441D01*
X2605798Y2685000D01*
X2604408Y2695559D01*
X2600332Y2705399D01*
X2593848Y2713848D01*
X2585399Y2720332D01*
X2581314Y2722024D01*
Y3100000D01*
X2580072Y3106243D01*
X2576535Y3111535D01*
X2311535Y3376535D01*
X2306243Y3380072D01*
X2300000Y3381314D01*
D02*
G37*
G36*
X1815000Y2653583D02*
Y2630945D01*
X1850433D01*
Y2653583D01*
X1815000D01*
D02*
G37*
G36*
X1185000Y2625180D02*
Y2595000D01*
X1215180D01*
X1215083Y2595740D01*
X1210937Y2605748D01*
X1204343Y2614343D01*
X1195748Y2620937D01*
X1185740Y2625083D01*
X1185000Y2625180D01*
D02*
G37*
G36*
X1525000Y2629588D02*
Y2595000D01*
X1559588D01*
X1559340Y2596881D01*
X1554755Y2607952D01*
X1547459Y2617459D01*
X1537952Y2624755D01*
X1526881Y2629340D01*
X1525000Y2629588D01*
D02*
G37*
G36*
X1505000D02*
X1503119Y2629340D01*
X1492048Y2624755D01*
X1482541Y2617459D01*
X1475245Y2607952D01*
X1470660Y2596881D01*
X1470412Y2595000D01*
X1505000D01*
Y2629588D01*
D02*
G37*
G36*
X1165000Y2625180D02*
X1164260Y2625083D01*
X1154252Y2620937D01*
X1145657Y2614343D01*
X1139063Y2605748D01*
X1134917Y2595740D01*
X1134491Y2592500D01*
X1165000D01*
Y2625180D01*
D02*
G37*
G36*
X1850433Y2610945D02*
X1815000D01*
Y2588307D01*
X1850433D01*
Y2610945D01*
D02*
G37*
G36*
X344401Y2737500D02*
X300000D01*
X255599D01*
X256158Y2733253D01*
X260693Y2722306D01*
X267906Y2712906D01*
X277306Y2705693D01*
X288253Y2701158D01*
X292892Y2700547D01*
Y2681409D01*
X290602Y2680073D01*
X288091Y2679033D01*
X281845Y2676446D01*
X274325Y2670675D01*
X268554Y2663155D01*
X264927Y2654398D01*
X263689Y2645000D01*
X264927Y2635602D01*
X268554Y2626845D01*
X274325Y2619325D01*
X281845Y2613554D01*
X287726Y2611118D01*
X290602Y2609927D01*
X292892Y2608591D01*
Y2589453D01*
X288252Y2588842D01*
X277306Y2584307D01*
X267906Y2577094D01*
X260693Y2567694D01*
X256158Y2556747D01*
X255599Y2552500D01*
X300000D01*
X344401D01*
X343842Y2556747D01*
X339307Y2567694D01*
X332094Y2577094D01*
X322694Y2584307D01*
X311747Y2588842D01*
X307108Y2589453D01*
Y2608591D01*
X309398Y2609927D01*
X311909Y2610967D01*
X318155Y2613554D01*
X325675Y2619325D01*
X331446Y2626845D01*
X332209Y2628686D01*
X867791D01*
X868554Y2626845D01*
X874324Y2619325D01*
X881845Y2613554D01*
X887726Y2611118D01*
X890602Y2609927D01*
X892892Y2608591D01*
Y2589453D01*
X888252Y2588842D01*
X877306Y2584307D01*
X867906Y2577094D01*
X860693Y2567694D01*
X856158Y2556747D01*
X855599Y2552500D01*
X900000D01*
X944401D01*
X943842Y2556747D01*
X939307Y2567694D01*
X932094Y2577094D01*
X922694Y2584307D01*
X911747Y2588842D01*
X907108Y2589453D01*
Y2608591D01*
X909398Y2609927D01*
X911909Y2610967D01*
X918155Y2613554D01*
X925676Y2619325D01*
X931446Y2626845D01*
X935073Y2635602D01*
X936311Y2645000D01*
X935073Y2654398D01*
X931446Y2663155D01*
X925676Y2670675D01*
X918155Y2676446D01*
X912274Y2678882D01*
X909398Y2680073D01*
X907108Y2681409D01*
Y2700547D01*
X911748Y2701158D01*
X922694Y2705693D01*
X932094Y2712906D01*
X939307Y2722306D01*
X943842Y2733253D01*
X944401Y2737500D01*
X900000D01*
X855599D01*
X856158Y2733253D01*
X860693Y2722306D01*
X867906Y2712906D01*
X877306Y2705693D01*
X888253Y2701158D01*
X892892Y2700547D01*
Y2681409D01*
X890602Y2680073D01*
X888091Y2679033D01*
X881845Y2676446D01*
X874324Y2670675D01*
X868554Y2663155D01*
X867791Y2661314D01*
X332209D01*
X331446Y2663155D01*
X325675Y2670675D01*
X318155Y2676446D01*
X312274Y2678882D01*
X309398Y2680073D01*
X307108Y2681409D01*
Y2700547D01*
X311748Y2701158D01*
X322694Y2705693D01*
X332094Y2712906D01*
X339307Y2722306D01*
X343842Y2733253D01*
X344401Y2737500D01*
D02*
G37*
G36*
X1215180Y2575000D02*
X1185000D01*
Y2544820D01*
X1185740Y2544917D01*
X1195748Y2549063D01*
X1204343Y2555657D01*
X1210937Y2564252D01*
X1215083Y2574260D01*
X1215180Y2575000D01*
D02*
G37*
G36*
X1165000Y2577500D02*
X1134491D01*
X1134917Y2574260D01*
X1139063Y2564252D01*
X1145657Y2555657D01*
X1154252Y2549063D01*
X1164260Y2544917D01*
X1165000Y2544820D01*
Y2577500D01*
D02*
G37*
G36*
X1559588Y2575000D02*
X1525000D01*
Y2540412D01*
X1526881Y2540660D01*
X1537952Y2545245D01*
X1547459Y2552541D01*
X1554755Y2562048D01*
X1559340Y2573119D01*
X1559588Y2575000D01*
D02*
G37*
G36*
X1505000D02*
X1470412D01*
X1470660Y2573119D01*
X1475245Y2562048D01*
X1482541Y2552541D01*
X1492048Y2545245D01*
X1503119Y2540660D01*
X1505000Y2540412D01*
Y2575000D01*
D02*
G37*
G36*
X1860000Y2546693D02*
X1824567D01*
Y2524055D01*
X1860000D01*
Y2546693D01*
D02*
G37*
G36*
X944401Y2537500D02*
X907500D01*
Y2500599D01*
X911747Y2501158D01*
X922694Y2505693D01*
X932094Y2512906D01*
X939307Y2522306D01*
X943842Y2533253D01*
X944401Y2537500D01*
D02*
G37*
G36*
X344401D02*
X307500D01*
Y2500599D01*
X311747Y2501158D01*
X322694Y2505693D01*
X332094Y2512906D01*
X339307Y2522306D01*
X343842Y2533253D01*
X344401Y2537500D01*
D02*
G37*
G36*
X892500D02*
X855599D01*
X856158Y2533253D01*
X860693Y2522306D01*
X867906Y2512906D01*
X877306Y2505693D01*
X888253Y2501158D01*
X892500Y2500599D01*
Y2537500D01*
D02*
G37*
G36*
X292500D02*
X255599D01*
X256158Y2533253D01*
X260693Y2522306D01*
X267906Y2512906D01*
X277306Y2505693D01*
X288253Y2501158D01*
X292500Y2500599D01*
Y2537500D01*
D02*
G37*
G36*
X1779527Y2517992D02*
X1750000D01*
Y2492402D01*
X1779527D01*
Y2517992D01*
D02*
G37*
G36*
X1730000D02*
X1700473D01*
Y2492402D01*
X1730000D01*
Y2517992D01*
D02*
G37*
G36*
X1649685Y2510118D02*
X1630000D01*
Y2488465D01*
X1649685D01*
Y2510118D01*
D02*
G37*
G36*
X1610000D02*
X1590315D01*
Y2488465D01*
X1610000D01*
Y2510118D01*
D02*
G37*
G36*
X1915433Y2546693D02*
X1880000D01*
Y2514055D01*
Y2481417D01*
X1915433D01*
Y2546693D01*
D02*
G37*
G36*
X1860000Y2504055D02*
X1824567D01*
Y2481417D01*
X1860000D01*
Y2504055D01*
D02*
G37*
G36*
X2955000Y2521827D02*
X2945468Y2520572D01*
X2936587Y2516893D01*
X2928959Y2511041D01*
X2923107Y2503413D01*
X2919428Y2494532D01*
X2918173Y2485000D01*
X2919428Y2475468D01*
X2923107Y2466587D01*
X2928959Y2458959D01*
X2936587Y2453107D01*
X2945468Y2449428D01*
X2955000Y2448173D01*
X2964532Y2449428D01*
X2973413Y2453107D01*
X2981041Y2458959D01*
X2986893Y2466587D01*
X2990572Y2475468D01*
X2991827Y2485000D01*
X2990572Y2494532D01*
X2986893Y2503413D01*
X2981041Y2511041D01*
X2973413Y2516893D01*
X2964532Y2520572D01*
X2955000Y2521827D01*
D02*
G37*
G36*
X2415000Y3436314D02*
X715000D01*
X708757Y3435072D01*
X703465Y3431535D01*
X93465Y2821535D01*
X89928Y2816243D01*
X88686Y2810000D01*
Y943097D01*
X89928Y936854D01*
X93465Y931561D01*
X161561Y863465D01*
X166854Y859928D01*
X173097Y858687D01*
X265134D01*
X271377Y859928D01*
X276669Y863465D01*
X276883Y863784D01*
X384000D01*
Y840603D01*
X376688Y835399D01*
X368851Y832291D01*
X364000Y831743D01*
X360950Y833782D01*
X352756Y835411D01*
X344562Y833782D01*
X337616Y829140D01*
X332974Y822194D01*
X331344Y814000D01*
X331761Y811904D01*
X327071Y791904D01*
X327071Y791904D01*
Y752345D01*
X362580D01*
X377824Y737101D01*
X369539Y717101D01*
X362128Y717101D01*
X327071D01*
Y677542D01*
X341540D01*
Y648312D01*
X341540Y648311D01*
X342394Y644019D01*
X344825Y640380D01*
X348882Y636324D01*
Y600815D01*
X363930D01*
X367332Y598388D01*
X378589Y581000D01*
X380218Y572806D01*
X384860Y565860D01*
X391806Y561218D01*
X400000Y559589D01*
X408194Y561218D01*
X415140Y565860D01*
X419782Y572806D01*
X421411Y581000D01*
X436766Y596666D01*
X437105Y596815D01*
X475118D01*
Y611815D01*
X500000D01*
Y714581D01*
X518478Y722235D01*
X569011Y671701D01*
Y658230D01*
X567767Y656367D01*
X567152Y653278D01*
Y631525D01*
X567767Y628436D01*
X569517Y625816D01*
X572137Y624066D01*
X575226Y623451D01*
X618632D01*
X621722Y624066D01*
X624341Y625816D01*
X626092Y628436D01*
X626706Y631525D01*
Y653278D01*
X626092Y656367D01*
X624341Y658987D01*
X621722Y660737D01*
X618632Y661352D01*
X603646D01*
X591442Y676347D01*
X590588Y680639D01*
X588157Y684278D01*
X588157Y684278D01*
X537944Y734490D01*
X548050Y752669D01*
X550472Y752187D01*
X557134Y753512D01*
X558590Y753398D01*
X577134Y749882D01*
Y749882D01*
X639774D01*
X659654Y749819D01*
X659748Y749819D01*
Y749819D01*
X734866D01*
X734866Y813126D01*
X737001Y817038D01*
X750904Y829522D01*
X759098Y827893D01*
X767291Y829522D01*
X774238Y834164D01*
X778879Y841110D01*
X780509Y849304D01*
X778879Y857498D01*
X774238Y864444D01*
X767291Y869086D01*
X759098Y870715D01*
X750904Y869086D01*
X750866Y869060D01*
X730866Y872118D01*
Y872118D01*
X705149D01*
X685964Y876665D01*
X685110Y880957D01*
X682679Y884596D01*
X682678Y884596D01*
X623270Y944005D01*
X624188Y951644D01*
X629213Y970122D01*
X636945Y971140D01*
X644151Y974125D01*
X650339Y978873D01*
X655087Y985061D01*
X657325Y990462D01*
X668583Y992832D01*
X679841Y990462D01*
X682078Y985061D01*
X686826Y978873D01*
X693014Y974125D01*
X700220Y971140D01*
X707953Y970122D01*
X715686Y971140D01*
X722891Y974125D01*
X729079Y978873D01*
X733827Y985061D01*
X736812Y992267D01*
X737236Y995490D01*
X757409D01*
X757833Y992267D01*
X760818Y985061D01*
X765566Y978873D01*
X771754Y974125D01*
X778960Y971140D01*
X786693Y970122D01*
X794426Y971140D01*
X801632Y974125D01*
X807820Y978873D01*
X812568Y985061D01*
X815552Y992267D01*
X816571Y1000000D01*
X815552Y1007733D01*
X812568Y1014939D01*
X807820Y1021127D01*
X804414Y1023740D01*
X802425Y1039987D01*
X802758Y1045895D01*
X829899Y1073036D01*
X850984D01*
Y1070378D01*
X895570Y1070378D01*
X913913Y1066378D01*
X916760Y1066378D01*
X969346D01*
Y1078936D01*
X989346Y1088211D01*
X992441Y1085592D01*
Y1084252D01*
X1114488D01*
X1114488Y1084252D01*
Y1104533D01*
X1142238D01*
X1144860Y1100608D01*
X1151806Y1095967D01*
X1160000Y1094337D01*
X1168194Y1095967D01*
X1175140Y1100608D01*
X1179782Y1107554D01*
X1181411Y1115748D01*
X1179782Y1123942D01*
X1175140Y1130888D01*
X1168194Y1135530D01*
X1160000Y1137160D01*
X1151806Y1135530D01*
X1144860Y1130888D01*
X1142237Y1126964D01*
X1114488D01*
Y1147244D01*
X992441D01*
Y1126964D01*
X965346D01*
Y1129622D01*
X918417D01*
X917913Y1129622D01*
X898417D01*
X897913Y1129622D01*
X850984D01*
Y1126964D01*
X827779D01*
X823487Y1126110D01*
X819848Y1123679D01*
X819848Y1123678D01*
X722293Y1026123D01*
X715686Y1028860D01*
X707953Y1029878D01*
X700220Y1028860D01*
X693014Y1025875D01*
X686826Y1021127D01*
X682078Y1014939D01*
X679841Y1009538D01*
X668583Y1007168D01*
X657325Y1009538D01*
X655087Y1014939D01*
X650339Y1021127D01*
X644151Y1025875D01*
X636945Y1028860D01*
X629212Y1029878D01*
X623198Y1029086D01*
X596313Y1055970D01*
Y1127237D01*
X598413Y1128107D01*
X606041Y1133959D01*
X611893Y1141587D01*
X615572Y1150468D01*
X616827Y1160000D01*
X615572Y1169532D01*
X611893Y1178413D01*
X606041Y1186041D01*
X598413Y1191893D01*
X589532Y1195572D01*
X580000Y1196827D01*
X570468Y1195572D01*
X561587Y1191893D01*
X553959Y1186041D01*
X548107Y1178413D01*
X544428Y1169532D01*
X543173Y1160000D01*
X544428Y1150468D01*
X548107Y1141587D01*
X553959Y1133959D01*
X561587Y1128107D01*
X563687Y1127237D01*
Y1049213D01*
X564059Y1047337D01*
X563647Y1046034D01*
X554075Y1033140D01*
X550472Y1029878D01*
X542740Y1028860D01*
X535534Y1025875D01*
X529346Y1021127D01*
X524598Y1014939D01*
X522360Y1009538D01*
X511102Y1007168D01*
X499844Y1009538D01*
X497607Y1014939D01*
X492859Y1021127D01*
X486671Y1025875D01*
X479465Y1028860D01*
X471732Y1029878D01*
X463999Y1028860D01*
X456793Y1025875D01*
X450606Y1021127D01*
X445857Y1014939D01*
X443620Y1009537D01*
X432362Y1007168D01*
X421104Y1009537D01*
X418867Y1014939D01*
X414119Y1021127D01*
X409306Y1024820D01*
Y1187865D01*
X430520Y1209079D01*
X431614Y1210716D01*
X463016D01*
Y1240967D01*
X463167Y1241726D01*
X542490Y1321049D01*
X564882D01*
X571125Y1322291D01*
X572917Y1323488D01*
X588598D01*
Y1348764D01*
X588598Y1351236D01*
Y1368764D01*
X588598Y1371236D01*
Y1396512D01*
X581195D01*
Y1459921D01*
X579954Y1466164D01*
X576417Y1471457D01*
X575528Y1472346D01*
Y1528205D01*
X465102D01*
Y1466852D01*
X464789Y1465275D01*
Y1456285D01*
X421465Y1412961D01*
X417928Y1407668D01*
X416687Y1401425D01*
Y1387284D01*
X402984D01*
Y1339457D01*
X463016D01*
Y1387283D01*
X463016D01*
X461929Y1407284D01*
X492638Y1437992D01*
X496174Y1443285D01*
X497366Y1449276D01*
X548568D01*
Y1396512D01*
X541165D01*
X541165Y1371434D01*
X539534Y1366101D01*
X531391Y1352812D01*
X529489Y1352434D01*
X524197Y1348898D01*
X435480Y1260181D01*
X434386Y1258543D01*
X402984D01*
Y1228293D01*
X402833Y1227534D01*
X381457Y1206157D01*
X377920Y1200865D01*
X376679Y1194622D01*
Y1024820D01*
X371865Y1021127D01*
X367117Y1014939D01*
X364880Y1009538D01*
X353622Y1007168D01*
X342364Y1009538D01*
X340127Y1014939D01*
X335379Y1021127D01*
X329191Y1025875D01*
X328321Y1026235D01*
Y1156008D01*
X338728D01*
Y1433536D01*
X339935Y1439606D01*
Y1449276D01*
X418047D01*
Y1528205D01*
X307622D01*
Y1466852D01*
X307308Y1465275D01*
Y1446364D01*
X304937Y1443992D01*
X191992D01*
Y1441008D01*
X181272D01*
Y1156008D01*
X295694D01*
Y1023098D01*
X293125Y1021127D01*
X288377Y1014939D01*
X285392Y1007733D01*
X285134Y1007422D01*
X265134Y1007961D01*
Y1029622D01*
X205890D01*
Y970378D01*
X265134D01*
Y992039D01*
X285134Y992578D01*
X285392Y992267D01*
X288377Y985061D01*
X293125Y978873D01*
X299313Y974125D01*
X306519Y971140D01*
X314252Y970122D01*
X321985Y971140D01*
X329191Y974125D01*
X335379Y978873D01*
X340127Y985061D01*
X342364Y990462D01*
X353622Y992832D01*
X364880Y990462D01*
X367117Y985061D01*
X371865Y978873D01*
X378053Y974125D01*
X385259Y971140D01*
X392992Y970122D01*
X400725Y971140D01*
X407931Y974125D01*
X414119Y978873D01*
X418867Y985061D01*
X421104Y990463D01*
X432362Y992832D01*
X443620Y990463D01*
X445857Y985061D01*
X450606Y978873D01*
X456793Y974125D01*
X463999Y971140D01*
X471732Y970122D01*
X479465Y971140D01*
X486671Y974125D01*
X492859Y978873D01*
X497607Y985061D01*
X499844Y990462D01*
X511102Y992832D01*
X522360Y990462D01*
X524598Y985061D01*
X529346Y978873D01*
X535534Y974125D01*
X542740Y971140D01*
X550472Y970122D01*
X556081Y970861D01*
X567791Y961700D01*
X572470Y957092D01*
Y945101D01*
X572469Y945101D01*
X573323Y940809D01*
X575754Y937170D01*
X620807Y892118D01*
X612522Y872118D01*
X577134D01*
Y872118D01*
X557134Y869047D01*
X553282Y869813D01*
X545088Y868183D01*
X538142Y863542D01*
X533501Y856595D01*
X531871Y848402D01*
X532792Y843772D01*
X492069Y803050D01*
X491135Y801652D01*
X486727Y801269D01*
X468094Y811681D01*
X468040Y811904D01*
X468656Y815000D01*
X467026Y823194D01*
X462384Y830140D01*
X455438Y834782D01*
X447244Y836411D01*
X436216Y853438D01*
Y866213D01*
X436216Y866213D01*
X435362Y870505D01*
X432931Y874144D01*
X432930Y874144D01*
X424144Y882931D01*
X420505Y885362D01*
X416213Y886216D01*
X416213Y886216D01*
X276883D01*
X276669Y886535D01*
X271377Y890072D01*
X265134Y891313D01*
X179854D01*
X121314Y949854D01*
Y2803243D01*
X721757Y3403686D01*
X2408243D01*
X2696285Y3115644D01*
Y2602929D01*
X2692819D01*
Y2551559D01*
X2726220D01*
Y2547559D01*
X2773780D01*
Y2551559D01*
X2805315D01*
X2807181Y2551559D01*
X2825315Y2547054D01*
X2825315Y2531811D01*
X2826200Y2527751D01*
X2821636Y2521829D01*
X2807181Y2508441D01*
X2767622D01*
Y2457071D01*
X2807181D01*
Y2485320D01*
X2829315D01*
Y2468882D01*
X2840164D01*
X2840970Y2448882D01*
X2839860Y2448140D01*
X2835218Y2441194D01*
X2834269Y2436418D01*
X2830785Y2431186D01*
X2815523Y2421307D01*
X2815000Y2421411D01*
X2806806Y2419782D01*
X2799860Y2415140D01*
X2795218Y2408194D01*
X2793589Y2400000D01*
X2795218Y2391806D01*
X2799860Y2384860D01*
X2804552Y2381724D01*
Y2204557D01*
X2798122Y2201893D01*
X2790495Y2196041D01*
X2784642Y2188413D01*
X2780963Y2179532D01*
X2779709Y2170000D01*
X2780963Y2160468D01*
X2784642Y2151587D01*
X2790495Y2143959D01*
X2798122Y2138107D01*
X2804552Y2135443D01*
Y2013118D01*
X2789303Y1998911D01*
X2781109Y1997282D01*
X2774163Y1992640D01*
X2769521Y1985694D01*
X2767892Y1977500D01*
X2769202Y1968901D01*
X2760209Y1957495D01*
X2757115Y1952864D01*
X2757115Y1952864D01*
X2737770Y1956260D01*
Y1962165D01*
X2737152Y1965274D01*
X2735391Y1967910D01*
Y1967910D01*
X2732755Y1969671D01*
Y1969672D01*
X2729999Y1970220D01*
Y1977500D01*
X2729223Y1981402D01*
X2727013Y1984709D01*
X2719513Y1992210D01*
X2716205Y1994420D01*
X2712303Y1995196D01*
X2705398D01*
Y2030523D01*
X2719210Y2044335D01*
X2721420Y2047642D01*
X2722196Y2051544D01*
Y2104818D01*
X2722362Y2105066D01*
X2723215Y2109358D01*
Y2235126D01*
X2730413Y2238107D01*
X2738041Y2243959D01*
X2743893Y2251587D01*
X2747572Y2260468D01*
X2748827Y2270000D01*
X2747572Y2279532D01*
X2743893Y2288413D01*
X2738041Y2296041D01*
X2730413Y2301893D01*
X2723215Y2304874D01*
Y2418574D01*
X2725140Y2419860D01*
X2729782Y2426806D01*
X2731411Y2435000D01*
X2730999Y2437071D01*
X2732378Y2457071D01*
X2732378Y2457071D01*
Y2508441D01*
X2692819D01*
Y2457071D01*
X2692819Y2457071D01*
X2689291Y2438532D01*
X2688589Y2435000D01*
X2690218Y2426806D01*
X2694860Y2419860D01*
X2700785Y2415901D01*
Y2304874D01*
X2693587Y2301893D01*
X2685959Y2296041D01*
X2680107Y2288413D01*
X2676428Y2279532D01*
X2675173Y2270000D01*
X2676428Y2260468D01*
X2680107Y2251587D01*
X2685959Y2243959D01*
X2693587Y2238107D01*
X2700785Y2235126D01*
Y2109358D01*
X2701638Y2105066D01*
X2701804Y2104818D01*
Y2070848D01*
X2681804Y2062563D01*
X2652158Y2092210D01*
X2648850Y2094420D01*
X2644948Y2095196D01*
X2625263D01*
X2621361Y2094420D01*
X2618053Y2092210D01*
X2588578Y2062734D01*
X2586368Y2059427D01*
X2585591Y2055525D01*
Y1998148D01*
X2585329Y1997755D01*
X2584710Y1994646D01*
Y1993831D01*
X2580147Y1974818D01*
X2565753Y1974368D01*
X2560354D01*
X2509685Y1974906D01*
X2490000Y1975115D01*
Y1975118D01*
X2470001Y1975118D01*
X2430315D01*
X2430315Y1916162D01*
X2420000Y1910383D01*
X2409685Y1916162D01*
X2409685Y1922532D01*
Y1975118D01*
X2350315D01*
Y1922532D01*
X2350315Y1911811D01*
X2354315Y1893468D01*
Y1854078D01*
X2210000D01*
X2206098Y1853302D01*
X2202790Y1851091D01*
X2182790Y1831091D01*
X2180580Y1827784D01*
X2179804Y1823882D01*
Y1753919D01*
X2176888Y1752711D01*
X2171456Y1748543D01*
X2167289Y1743112D01*
X2164669Y1736787D01*
X2163776Y1730000D01*
X2164669Y1723213D01*
X2167289Y1716888D01*
X2171456Y1711457D01*
X2176888Y1707289D01*
X2178785Y1706503D01*
Y1685527D01*
X2162347D01*
Y1614473D01*
X2217653D01*
Y1685527D01*
X2201215D01*
Y1706503D01*
X2203112Y1707289D01*
X2208544Y1711457D01*
X2212711Y1716888D01*
X2215331Y1723213D01*
X2216224Y1730000D01*
X2215331Y1736787D01*
X2212711Y1743112D01*
X2208544Y1748543D01*
X2203112Y1752711D01*
X2200196Y1753919D01*
Y1819659D01*
X2214223Y1833686D01*
X2295254D01*
X2302907Y1815208D01*
X2282790Y1795091D01*
X2280580Y1791784D01*
X2279804Y1787882D01*
Y1753919D01*
X2276888Y1752711D01*
X2271456Y1748543D01*
X2267289Y1743112D01*
X2264669Y1736787D01*
X2263776Y1730000D01*
X2264669Y1723213D01*
X2267289Y1716888D01*
X2271456Y1711457D01*
X2276888Y1707289D01*
X2278785Y1706503D01*
Y1685527D01*
X2262347D01*
Y1614473D01*
X2317653D01*
Y1685527D01*
X2301215D01*
Y1706503D01*
X2303112Y1707289D01*
X2308544Y1711457D01*
X2312711Y1716888D01*
X2315331Y1723213D01*
X2316224Y1730000D01*
X2315331Y1736787D01*
X2312711Y1743112D01*
X2308544Y1748543D01*
X2303112Y1752711D01*
X2300196Y1753919D01*
Y1783659D01*
X2334223Y1817686D01*
X2391254D01*
X2398907Y1799208D01*
X2382790Y1783091D01*
X2380580Y1779784D01*
X2379804Y1775882D01*
Y1753919D01*
X2376888Y1752711D01*
X2371456Y1748543D01*
X2367289Y1743112D01*
X2364669Y1736787D01*
X2363776Y1730000D01*
X2364669Y1723213D01*
X2367289Y1716888D01*
X2371456Y1711457D01*
X2376888Y1707289D01*
X2378785Y1706503D01*
Y1685527D01*
X2362347D01*
Y1614473D01*
X2417653D01*
Y1685527D01*
X2401215D01*
Y1706503D01*
X2403112Y1707289D01*
X2408544Y1711457D01*
X2412711Y1716888D01*
X2415331Y1723213D01*
X2416224Y1730000D01*
X2415331Y1736787D01*
X2412711Y1743112D01*
X2408544Y1748543D01*
X2403112Y1752711D01*
X2402925Y1752789D01*
X2400934Y1772397D01*
X2430223Y1801686D01*
X2471197D01*
X2478762Y1787348D01*
X2480139Y1781686D01*
X2479804Y1780000D01*
Y1753919D01*
X2476888Y1752711D01*
X2471456Y1748543D01*
X2467289Y1743112D01*
X2464669Y1736787D01*
X2463776Y1730000D01*
X2464669Y1723213D01*
X2467289Y1716888D01*
X2471456Y1711457D01*
X2476888Y1707289D01*
X2478785Y1706503D01*
Y1685527D01*
X2462347D01*
Y1614473D01*
X2517653D01*
Y1685527D01*
X2501215D01*
Y1706503D01*
X2503112Y1707289D01*
X2508544Y1711457D01*
X2512711Y1716888D01*
X2515331Y1723213D01*
X2516224Y1730000D01*
X2515331Y1736787D01*
X2512711Y1743112D01*
X2508544Y1748543D01*
X2503112Y1752711D01*
X2500196Y1753919D01*
Y1775777D01*
X2510105Y1785686D01*
X2597846D01*
X2606068Y1766964D01*
X2601795Y1761608D01*
X2595294Y1755527D01*
X2590000Y1756224D01*
X2583213Y1755331D01*
X2576888Y1752711D01*
X2571456Y1748543D01*
X2567289Y1743112D01*
X2564669Y1736787D01*
X2563776Y1730000D01*
X2564669Y1723213D01*
X2567289Y1716888D01*
X2571456Y1711457D01*
X2576888Y1707289D01*
X2579804Y1706081D01*
Y1685527D01*
X2562347D01*
Y1614473D01*
X2617653D01*
Y1685527D01*
X2600196D01*
Y1706081D01*
X2603112Y1707289D01*
X2608544Y1711457D01*
X2612711Y1716888D01*
X2615331Y1723213D01*
X2616224Y1730000D01*
X2615331Y1736787D01*
X2614123Y1739704D01*
X2644332Y1769912D01*
X2662849Y1762242D01*
X2664332Y1755910D01*
Y1751426D01*
X2665108Y1747524D01*
X2666935Y1744790D01*
X2667318Y1743150D01*
X2667289Y1743112D01*
X2664669Y1736787D01*
X2663776Y1730000D01*
X2664669Y1723213D01*
X2667289Y1716888D01*
X2671456Y1711457D01*
X2676888Y1707289D01*
X2678785Y1706503D01*
Y1685527D01*
X2662347D01*
Y1614473D01*
X2717653D01*
Y1685527D01*
X2701215D01*
Y1706503D01*
X2703112Y1707289D01*
X2708544Y1711457D01*
X2712711Y1716888D01*
X2715331Y1723213D01*
X2716224Y1730000D01*
X2715331Y1736787D01*
X2712711Y1743112D01*
X2708544Y1748543D01*
X2703112Y1752711D01*
X2696787Y1755331D01*
X2690000Y1756224D01*
X2684724Y1775702D01*
Y1798138D01*
X2691260Y1817230D01*
X2697165D01*
X2700274Y1817848D01*
X2700274D01*
X2702910Y1819609D01*
X2723099Y1820173D01*
X2738589Y1808000D01*
X2740218Y1799806D01*
X2744860Y1792860D01*
X2751806Y1788218D01*
X2760000Y1786589D01*
X2764810Y1787545D01*
X2767672Y1787837D01*
X2786983Y1789500D01*
Y1789500D01*
X2786983Y1789500D01*
X2831000D01*
X2851000Y1789500D01*
X2853102Y1784375D01*
X2856894Y1769500D01*
X2853683Y1764694D01*
X2852053Y1756500D01*
X2853683Y1748306D01*
X2858325Y1741360D01*
X2862249Y1738737D01*
Y1657815D01*
X2860358D01*
Y1641530D01*
X2836000D01*
Y1657815D01*
X2785000D01*
Y1610886D01*
X2785000Y1590886D01*
X2768402Y1574601D01*
X2323386D01*
X2323386Y1574601D01*
X2319094Y1573747D01*
X2315455Y1571316D01*
X2315455Y1571316D01*
X2232069Y1487931D01*
X2229638Y1484292D01*
X2228784Y1480000D01*
X2228785Y1479999D01*
Y1350523D01*
X2217653Y1335134D01*
X2162347D01*
Y1264079D01*
X2178785D01*
Y1185500D01*
X2169035D01*
Y1134500D01*
X2185320D01*
Y1056211D01*
X2180468Y1055572D01*
X2171587Y1051893D01*
X2163959Y1046041D01*
X2158107Y1038413D01*
X2154428Y1029532D01*
X2153173Y1020000D01*
X2154428Y1010468D01*
X2158107Y1001587D01*
X2163959Y993959D01*
X2171587Y988107D01*
X2180468Y984428D01*
X2190000Y983173D01*
X2199532Y984428D01*
X2208413Y988107D01*
X2216041Y993959D01*
X2221893Y1001587D01*
X2225572Y1010468D01*
X2226827Y1020000D01*
X2225572Y1029532D01*
X2221893Y1038413D01*
X2216041Y1046041D01*
X2208413Y1051893D01*
X2207751Y1052167D01*
Y1134500D01*
X2235965Y1134500D01*
X2244036Y1134500D01*
X2290965D01*
Y1148784D01*
X2315535D01*
Y1125063D01*
X2367299D01*
Y1194937D01*
X2315535D01*
Y1171216D01*
X2290965D01*
Y1185500D01*
X2244036D01*
X2221216Y1185500D01*
X2201215Y1198177D01*
Y1264079D01*
X2217653D01*
Y1283293D01*
X2262347D01*
Y1264079D01*
X2317653D01*
Y1335134D01*
X2262347D01*
X2251215Y1350523D01*
Y1475354D01*
X2328031Y1552170D01*
X2785000D01*
Y1535886D01*
X2836000D01*
Y1582815D01*
X2836000Y1602815D01*
X2840358Y1607090D01*
X2860358Y1598694D01*
Y1590886D01*
X2860358Y1582815D01*
Y1535886D01*
X2874642D01*
Y1485986D01*
X2869245Y1481753D01*
X2859872Y1477251D01*
X2854642Y1476151D01*
X2853632Y1476352D01*
X2810226D01*
X2807137Y1475737D01*
X2804517Y1473987D01*
X2802767Y1471367D01*
X2802152Y1468277D01*
Y1446526D01*
X2792517Y1435553D01*
X2786878Y1431215D01*
X2709686D01*
X2709685Y1431216D01*
X2705393Y1430362D01*
X2701754Y1427930D01*
X2682069Y1408245D01*
X2679638Y1404607D01*
X2678784Y1400315D01*
X2678785Y1400314D01*
Y1335134D01*
X2662347D01*
Y1315920D01*
X2617653D01*
Y1335134D01*
X2562347D01*
Y1315920D01*
X2517653D01*
Y1335134D01*
X2462347D01*
Y1315920D01*
X2417653D01*
Y1335134D01*
X2362347D01*
Y1264079D01*
X2417653D01*
Y1283293D01*
X2462347D01*
Y1264079D01*
X2517653D01*
Y1283293D01*
X2562347D01*
Y1264079D01*
X2617653D01*
Y1283293D01*
X2662347D01*
Y1264079D01*
X2717653D01*
Y1335134D01*
X2701215D01*
Y1395669D01*
X2714331Y1408784D01*
X2758312D01*
Y1263497D01*
X2756415Y1262711D01*
X2750984Y1258543D01*
X2746817Y1253112D01*
X2744197Y1246787D01*
X2743303Y1240000D01*
X2744197Y1233213D01*
X2746817Y1226888D01*
X2750984Y1221457D01*
X2756415Y1217289D01*
X2762740Y1214669D01*
X2769528Y1213776D01*
X2776315Y1214669D01*
X2782640Y1217289D01*
X2788071Y1221457D01*
X2792239Y1226888D01*
X2794858Y1233213D01*
X2795752Y1240000D01*
X2794858Y1246787D01*
X2792239Y1253112D01*
X2788071Y1258543D01*
X2782640Y1262711D01*
X2780743Y1263497D01*
Y1361134D01*
X2790457Y1364294D01*
X2800743Y1364461D01*
X2801633Y1363129D01*
X2805576Y1360495D01*
X2810226Y1359570D01*
X2853632D01*
X2858282Y1360495D01*
X2862225Y1363129D01*
X2864860Y1367072D01*
X2865785Y1371722D01*
Y1389982D01*
X2868868Y1402298D01*
X2878482Y1412306D01*
X2882233Y1416057D01*
X2902233Y1407773D01*
Y1356764D01*
X2902233Y1356763D01*
X2903087Y1352471D01*
X2905518Y1348833D01*
X2902027Y1326336D01*
X2892249Y1318800D01*
X2888189Y1319685D01*
X2877468Y1319685D01*
X2824882D01*
Y1260315D01*
X2877468D01*
X2888189Y1260315D01*
X2892902Y1261343D01*
X2908624Y1245237D01*
X2908809Y1244315D01*
X2904718Y1238194D01*
X2903089Y1230000D01*
X2904718Y1221806D01*
X2909360Y1214860D01*
X2916306Y1210218D01*
X2924500Y1208589D01*
X2932694Y1210218D01*
X2939640Y1214860D01*
X2944282Y1221806D01*
X2945911Y1230000D01*
X2944282Y1238194D01*
X2940191Y1244315D01*
X2941154Y1249115D01*
X2946942Y1264315D01*
X2951118D01*
Y1315685D01*
X2934680D01*
Y1346747D01*
X2944664Y1359782D01*
X2949456Y1363648D01*
X2969773D01*
X2972863Y1364263D01*
X2975483Y1366013D01*
X2977233Y1368632D01*
X2977780Y1371383D01*
X3025669D01*
X3038785Y1358268D01*
Y1254646D01*
X2955354Y1171216D01*
X2740965D01*
Y1185500D01*
X2694035D01*
X2674035Y1185500D01*
X2665964Y1185500D01*
X2619035D01*
Y1171216D01*
X2594465D01*
Y1194937D01*
X2542701D01*
Y1125063D01*
X2594465D01*
Y1148784D01*
X2619035D01*
Y1134500D01*
X2665964D01*
X2685964Y1134500D01*
X2702249Y1117902D01*
Y1055806D01*
X2700468Y1055572D01*
X2691587Y1051893D01*
X2683959Y1046041D01*
X2678107Y1038413D01*
X2674428Y1029532D01*
X2673173Y1020000D01*
X2674428Y1010468D01*
X2678107Y1001587D01*
X2683959Y993959D01*
X2691587Y988107D01*
X2700468Y984428D01*
X2710000Y983173D01*
X2719532Y984428D01*
X2728413Y988107D01*
X2736041Y993959D01*
X2741893Y1001587D01*
X2745572Y1010468D01*
X2746827Y1020000D01*
X2745572Y1029532D01*
X2741893Y1038413D01*
X2736041Y1046041D01*
X2728413Y1051893D01*
X2724680Y1053439D01*
Y1134500D01*
X2740965D01*
Y1148784D01*
X2959999D01*
X2960000Y1148784D01*
X2964292Y1149638D01*
X2967931Y1152069D01*
X3057930Y1242069D01*
X3057931Y1242069D01*
X3060362Y1245708D01*
X3061215Y1250000D01*
Y1362913D01*
X3061216Y1362913D01*
X3060362Y1367205D01*
X3057931Y1370844D01*
X3038246Y1390529D01*
X3034607Y1392960D01*
X3030315Y1393814D01*
X3030314Y1393814D01*
X2977780D01*
X2977233Y1396564D01*
X2975483Y1399184D01*
X2972863Y1400934D01*
X2969773Y1401549D01*
X2926368D01*
X2924664Y1402947D01*
Y1428960D01*
X2934155Y1438451D01*
X2969773D01*
X2972863Y1439066D01*
X2975483Y1440816D01*
X2977233Y1443436D01*
X2977848Y1446525D01*
Y1468277D01*
X2977233Y1471367D01*
X2975483Y1473987D01*
X2972863Y1475737D01*
X2969773Y1476352D01*
X2926368D01*
X2923278Y1475737D01*
X2920659Y1473987D01*
X2918908Y1471368D01*
X2917073Y1470159D01*
X2898758Y1479352D01*
X2897073Y1481746D01*
Y1535886D01*
X2911358D01*
Y1582815D01*
X2911358Y1602815D01*
X2911358Y1610886D01*
Y1657815D01*
X2884680D01*
Y1738737D01*
X2888605Y1741360D01*
X2893246Y1748306D01*
X2894876Y1756500D01*
X2893246Y1764694D01*
X2890035Y1769500D01*
X2892488Y1779122D01*
X2897875Y1789500D01*
X2906000D01*
Y1840500D01*
X2884680D01*
Y1866599D01*
X2906153D01*
Y1886991D01*
X2926154Y1905558D01*
X2929636Y1905299D01*
X2930315Y1904652D01*
Y1866693D01*
X2989685D01*
Y1922126D01*
X3004611Y1934375D01*
X3034764D01*
X3053785Y1915354D01*
Y1883497D01*
X3051888Y1882711D01*
X3046456Y1878543D01*
X3042289Y1873112D01*
X3039669Y1866787D01*
X3038776Y1860000D01*
X3039669Y1853213D01*
X3042289Y1846888D01*
X3046456Y1841457D01*
X3051888Y1837289D01*
X3058213Y1834669D01*
X3065000Y1833776D01*
X3071787Y1834669D01*
X3078112Y1837289D01*
X3083544Y1841457D01*
X3087711Y1846888D01*
X3090331Y1853213D01*
X3091224Y1860000D01*
X3090331Y1866787D01*
X3087711Y1873112D01*
X3083544Y1878543D01*
X3078112Y1882711D01*
X3076215Y1883497D01*
Y1920000D01*
X3075362Y1924292D01*
X3072931Y1927931D01*
X3072930Y1927931D01*
X3047340Y1953521D01*
X3043702Y1955952D01*
X3039410Y1956806D01*
X3039409Y1956806D01*
X2985685D01*
Y1969307D01*
X2934315D01*
Y1969307D01*
X2920000Y1966411D01*
X2906153Y1973087D01*
Y1973087D01*
X2850847D01*
Y1937969D01*
X2850846Y1921717D01*
X2850847Y1901716D01*
Y1866599D01*
X2862249D01*
Y1840500D01*
X2839000Y1840500D01*
X2831000Y1840500D01*
X2821220D01*
X2817023Y1843707D01*
X2806383Y1858131D01*
X2805297Y1863593D01*
X2805297Y1863593D01*
X2802202Y1868224D01*
X2802202D01*
X2797572Y1871318D01*
X2797571Y1871318D01*
X2792109Y1872405D01*
X2792109Y1872405D01*
X2784708Y1891285D01*
X2784547Y1894421D01*
X2797233Y1907108D01*
X2797234Y1907108D01*
X2799665Y1910747D01*
X2800519Y1915039D01*
Y1959737D01*
X2804443Y1962360D01*
X2809085Y1969306D01*
X2810715Y1977500D01*
X2809794Y1982129D01*
X2823698Y1996034D01*
X2826130Y1999672D01*
X2826983Y2003965D01*
X2826983Y2003965D01*
Y2047399D01*
X2841768Y2063589D01*
X2846162Y2064463D01*
X2858329Y2054475D01*
X2862284Y2049398D01*
Y2007540D01*
X2917716D01*
Y2048314D01*
X2917717Y2055099D01*
X2917817Y2056450D01*
X2922346Y2058520D01*
X2942347Y2046874D01*
Y2011756D01*
X2997653D01*
Y2011756D01*
X3017654Y2020147D01*
X3019646Y2019750D01*
X3027840Y2021380D01*
X3034787Y2026022D01*
X3039428Y2032968D01*
X3041058Y2041162D01*
X3039428Y2049355D01*
X3034787Y2056302D01*
X3027840Y2060943D01*
X3019646Y2062573D01*
X3017653Y2062177D01*
X3014709Y2062316D01*
X3002311Y2070770D01*
X2997654Y2075777D01*
X2997653Y2083126D01*
Y2102383D01*
X3024292Y2129022D01*
X3055237D01*
X3055237Y2129021D01*
X3059529Y2129875D01*
X3063168Y2132307D01*
X3065261Y2134400D01*
X3070000Y2133776D01*
X3076787Y2134669D01*
X3083112Y2137289D01*
X3088544Y2141456D01*
X3092711Y2146888D01*
X3095331Y2153213D01*
X3096224Y2160000D01*
X3095331Y2166787D01*
X3092711Y2173112D01*
X3088544Y2178544D01*
X3083112Y2182711D01*
X3076787Y2185331D01*
X3070000Y2186224D01*
X3063213Y2185331D01*
X3056888Y2182711D01*
X3051456Y2178544D01*
X3047289Y2173112D01*
X3044669Y2166787D01*
X3043776Y2160000D01*
X3024728Y2151453D01*
X3019647D01*
X3019646Y2151453D01*
X3015354Y2150599D01*
X3011716Y2148168D01*
X3011716Y2148167D01*
X2981792Y2118244D01*
X2942347D01*
Y2096934D01*
X2913716D01*
Y2106217D01*
X2866284D01*
X2866284Y2106217D01*
X2847899Y2105570D01*
X2833066Y2119794D01*
X2834657Y2135267D01*
X2835893Y2138831D01*
X2842576Y2143959D01*
X2848428Y2151587D01*
X2852108Y2160468D01*
X2853362Y2170000D01*
X2852108Y2179532D01*
X2848428Y2188413D01*
X2842576Y2196041D01*
X2834949Y2201893D01*
X2826983Y2205193D01*
Y2382751D01*
X2830140Y2384860D01*
X2834782Y2391806D01*
X2835731Y2396582D01*
X2839215Y2401814D01*
X2854477Y2411693D01*
X2855000Y2411589D01*
X2863194Y2413218D01*
X2870140Y2417860D01*
X2874782Y2424806D01*
X2876411Y2433000D01*
X2874782Y2441194D01*
X2870140Y2448140D01*
X2869030Y2448882D01*
X2869836Y2468882D01*
X2880685D01*
Y2513468D01*
X2884685Y2531811D01*
X2884685Y2542532D01*
Y2595118D01*
X2827181D01*
X2825315Y2595118D01*
X2824073Y2595427D01*
X2807181Y2602929D01*
X2806977Y2617664D01*
X2805348Y2625858D01*
X2800706Y2632805D01*
X2793760Y2637446D01*
X2785566Y2639076D01*
X2777372Y2637446D01*
X2770426Y2632805D01*
X2765784Y2625858D01*
X2764554Y2619672D01*
X2746975Y2609321D01*
X2728912Y2615096D01*
Y3122401D01*
X2727670Y3128644D01*
X2724134Y3133937D01*
X2426535Y3431535D01*
X2421243Y3435072D01*
X2415000Y3436314D01*
D02*
G37*
G36*
X1175000Y2517419D02*
X1166609Y2516314D01*
X1158791Y2513076D01*
X1152076Y2507924D01*
X1146924Y2501209D01*
X1143686Y2493391D01*
X1142581Y2485000D01*
X1143686Y2476609D01*
X1146924Y2468791D01*
X1152076Y2462076D01*
X1158791Y2456924D01*
X1166609Y2453686D01*
X1175000Y2452581D01*
X1183261Y2453669D01*
X1203465Y2433465D01*
X1208757Y2429928D01*
X1215000Y2428686D01*
X1431008D01*
Y2375850D01*
X1482378D01*
Y2440243D01*
Y2494150D01*
X1431008D01*
Y2461314D01*
X1221757D01*
X1206331Y2476739D01*
X1207419Y2485000D01*
X1206314Y2493391D01*
X1203076Y2501209D01*
X1197924Y2507924D01*
X1191209Y2513076D01*
X1183391Y2516314D01*
X1175000Y2517419D01*
D02*
G37*
G36*
X2479571Y2341827D02*
X2470040Y2340572D01*
X2461158Y2336893D01*
X2453530Y2331041D01*
X2447678Y2323413D01*
X2443999Y2314532D01*
X2442744Y2305000D01*
X2443999Y2295468D01*
X2447678Y2286587D01*
X2453530Y2278959D01*
X2461158Y2273107D01*
X2470040Y2269428D01*
X2479571Y2268173D01*
X2489103Y2269428D01*
X2497985Y2273107D01*
X2505612Y2278959D01*
X2511464Y2286587D01*
X2515143Y2295468D01*
X2516398Y2305000D01*
X2515143Y2314532D01*
X2511464Y2323413D01*
X2505612Y2331041D01*
X2497985Y2336893D01*
X2489103Y2340572D01*
X2479571Y2341827D01*
D02*
G37*
G36*
X1182500Y2225509D02*
Y2192500D01*
X1215509D01*
X1215083Y2195740D01*
X1210937Y2205748D01*
X1204343Y2214343D01*
X1195748Y2220937D01*
X1185740Y2225083D01*
X1182500Y2225509D01*
D02*
G37*
G36*
X1167500D02*
X1164260Y2225083D01*
X1154252Y2220937D01*
X1145657Y2214343D01*
X1139063Y2205748D01*
X1134917Y2195740D01*
X1134491Y2192500D01*
X1167500D01*
Y2225509D01*
D02*
G37*
G36*
X1215509Y2177500D02*
X1182500D01*
Y2144491D01*
X1185740Y2144917D01*
X1195748Y2149063D01*
X1204343Y2155657D01*
X1210937Y2164252D01*
X1215083Y2174260D01*
X1215509Y2177500D01*
D02*
G37*
G36*
X1167500D02*
X1134491D01*
X1134917Y2174260D01*
X1139063Y2164252D01*
X1145657Y2155657D01*
X1154252Y2149063D01*
X1164260Y2144917D01*
X1167500Y2144491D01*
Y2177500D01*
D02*
G37*
G36*
X2399409Y2186096D02*
X2391216Y2184467D01*
X2384269Y2179825D01*
X2379628Y2172879D01*
X2377998Y2164685D01*
X2379628Y2156491D01*
X2384269Y2149545D01*
X2386226Y2148238D01*
Y2127653D01*
X2371756D01*
Y2079649D01*
X2371693Y2059685D01*
X2371693Y2052373D01*
Y2000315D01*
X2427126D01*
Y2004315D01*
X2474307D01*
Y2011809D01*
X2494307Y2015687D01*
X2494860Y2014860D01*
X2501806Y2010218D01*
X2510000Y2008589D01*
X2518194Y2010218D01*
X2525140Y2014860D01*
X2529782Y2021806D01*
X2531411Y2030000D01*
X2529782Y2038194D01*
X2525140Y2045140D01*
X2518194Y2049782D01*
X2510000Y2051411D01*
X2501806Y2049782D01*
X2481907Y2059013D01*
X2477128Y2067624D01*
X2478244Y2072347D01*
X2478244D01*
X2478244Y2074054D01*
Y2111792D01*
X2498198Y2131746D01*
X2518273Y2130605D01*
X2521456Y2126456D01*
X2526888Y2122289D01*
X2533213Y2119669D01*
X2540000Y2118776D01*
X2546787Y2119669D01*
X2553112Y2122289D01*
X2558544Y2126456D01*
X2562711Y2131888D01*
X2565331Y2138213D01*
X2566224Y2145000D01*
X2565331Y2151787D01*
X2562711Y2158112D01*
X2558544Y2163544D01*
X2553112Y2167711D01*
X2546787Y2170331D01*
X2540000Y2171224D01*
X2533213Y2170331D01*
X2526888Y2167711D01*
X2521456Y2163544D01*
X2517289Y2158112D01*
X2516047Y2155113D01*
X2494488D01*
X2490196Y2154259D01*
X2486558Y2151828D01*
X2486557Y2151828D01*
X2462383Y2127653D01*
X2426874Y2127654D01*
X2417279Y2129920D01*
X2414550Y2149545D01*
X2419191Y2156491D01*
X2420821Y2164685D01*
X2419191Y2172879D01*
X2414550Y2179825D01*
X2407603Y2184467D01*
X2399409Y2186096D01*
D02*
G37*
G36*
X2210000Y2026827D02*
X2200468Y2025572D01*
X2191587Y2021893D01*
X2183959Y2016041D01*
X2178107Y2008413D01*
X2174428Y1999532D01*
X2173173Y1990000D01*
X2174428Y1980468D01*
X2178107Y1971587D01*
X2183959Y1963959D01*
X2191587Y1958107D01*
X2200468Y1954428D01*
X2210000Y1953173D01*
X2219532Y1954428D01*
X2228413Y1958107D01*
X2236041Y1963959D01*
X2241893Y1971587D01*
X2245572Y1980468D01*
X2246827Y1990000D01*
X2245572Y1999532D01*
X2241893Y2008413D01*
X2236041Y2016041D01*
X2228413Y2021893D01*
X2219532Y2025572D01*
X2210000Y2026827D01*
D02*
G37*
G36*
X907500Y1889401D02*
Y1852500D01*
X944401D01*
X943842Y1856747D01*
X939307Y1867694D01*
X932094Y1877094D01*
X922694Y1884307D01*
X911747Y1888842D01*
X907500Y1889401D01*
D02*
G37*
G36*
X307500D02*
Y1852500D01*
X344401D01*
X343842Y1856747D01*
X339307Y1867694D01*
X332094Y1877094D01*
X322694Y1884307D01*
X311747Y1888842D01*
X307500Y1889401D01*
D02*
G37*
G36*
X892500D02*
X888253Y1888842D01*
X877306Y1884307D01*
X867906Y1877094D01*
X860693Y1867694D01*
X856158Y1856747D01*
X855599Y1852500D01*
X892500D01*
Y1889401D01*
D02*
G37*
G36*
X292500D02*
X288253Y1888842D01*
X277306Y1884307D01*
X267906Y1877094D01*
X260693Y1867694D01*
X256158Y1856747D01*
X255599Y1852500D01*
X292500D01*
Y1889401D01*
D02*
G37*
G36*
X344401Y1837500D02*
X300000D01*
X255599D01*
X256158Y1833253D01*
X260693Y1822306D01*
X267906Y1812906D01*
X277306Y1805693D01*
X288253Y1801158D01*
X292892Y1800547D01*
Y1781409D01*
X290602Y1780073D01*
X288091Y1779033D01*
X281845Y1776446D01*
X274325Y1770676D01*
X268554Y1763155D01*
X264927Y1754398D01*
X263689Y1745000D01*
X264927Y1735602D01*
X268554Y1726845D01*
X274325Y1719324D01*
X281845Y1713554D01*
X290602Y1709927D01*
X300000Y1708689D01*
X309398Y1709927D01*
X318155Y1713554D01*
X325675Y1719324D01*
X331446Y1726845D01*
X332209Y1728687D01*
X867791D01*
X868554Y1726845D01*
X874324Y1719324D01*
X881845Y1713554D01*
X890602Y1709927D01*
X900000Y1708689D01*
X909398Y1709927D01*
X918155Y1713554D01*
X925676Y1719324D01*
X931446Y1726845D01*
X935073Y1735602D01*
X936311Y1745000D01*
X935073Y1754398D01*
X931446Y1763155D01*
X925676Y1770676D01*
X918155Y1776446D01*
X912274Y1778882D01*
X909398Y1780073D01*
X907108Y1781409D01*
Y1800547D01*
X911748Y1801158D01*
X922694Y1805693D01*
X932094Y1812906D01*
X939307Y1822306D01*
X943842Y1833253D01*
X944401Y1837500D01*
X900000D01*
X855599D01*
X856158Y1833253D01*
X860693Y1822306D01*
X867906Y1812906D01*
X877306Y1805693D01*
X888253Y1801158D01*
X892892Y1800547D01*
Y1781409D01*
X890602Y1780073D01*
X888091Y1779033D01*
X881845Y1776446D01*
X874324Y1770676D01*
X868554Y1763155D01*
X867791Y1761313D01*
X332209D01*
X331446Y1763155D01*
X325675Y1770676D01*
X318155Y1776446D01*
X312274Y1778882D01*
X309398Y1780073D01*
X307108Y1781409D01*
Y1800547D01*
X311748Y1801158D01*
X322694Y1805693D01*
X332094Y1812906D01*
X339307Y1822306D01*
X343842Y1833253D01*
X344401Y1837500D01*
D02*
G37*
G36*
X1207142Y2117142D02*
X1142858D01*
Y2052858D01*
X1158687D01*
Y1756206D01*
X1012614Y1610134D01*
X984315D01*
Y1607210D01*
X964315Y1603756D01*
X936000Y1632071D01*
Y1681000D01*
X864000D01*
Y1661313D01*
X332209D01*
X331446Y1663155D01*
X325675Y1670676D01*
X318155Y1676446D01*
X309398Y1680073D01*
X300000Y1681311D01*
X290602Y1680073D01*
X281845Y1676446D01*
X274325Y1670676D01*
X268554Y1663155D01*
X264927Y1654398D01*
X263689Y1645000D01*
X264927Y1635602D01*
X268554Y1626845D01*
X274325Y1619324D01*
X281845Y1613554D01*
X290602Y1609927D01*
X300000Y1608689D01*
X309398Y1609927D01*
X318155Y1613554D01*
X325675Y1619324D01*
X331446Y1626845D01*
X332209Y1628687D01*
X864000D01*
Y1609000D01*
X912929D01*
X943687Y1578243D01*
Y1444150D01*
X928409D01*
Y1424936D01*
X890242D01*
X877894Y1437284D01*
X872601Y1440820D01*
X866358Y1442062D01*
X851394D01*
Y1461276D01*
X796591D01*
X776591Y1461276D01*
X768212Y1461276D01*
X713409D01*
Y1417526D01*
X710049D01*
X704781Y1416478D01*
X700316Y1413495D01*
X683597Y1396776D01*
X675492D01*
X674162Y1396512D01*
X651402D01*
Y1373579D01*
X647402Y1355236D01*
X647402Y1350421D01*
Y1319488D01*
X702835D01*
Y1350421D01*
X702835Y1355236D01*
X700989Y1375236D01*
X715750Y1389997D01*
X726909D01*
X728034Y1390221D01*
X768212D01*
X788213Y1390221D01*
X796591Y1390221D01*
X850065D01*
X852109Y1389762D01*
X859819Y1384825D01*
X864487Y1379220D01*
X866226Y1375327D01*
X867126Y1371516D01*
Y1335689D01*
X902874D01*
Y1372309D01*
X902874Y1374587D01*
X908374Y1392309D01*
X928409D01*
Y1373095D01*
X943687D01*
Y1316418D01*
X944611Y1311768D01*
X943935Y1308366D01*
X945565Y1300172D01*
X950206Y1293226D01*
X957153Y1288584D01*
X965346Y1286955D01*
X973540Y1288584D01*
X980486Y1293226D01*
X985128Y1300172D01*
X986758Y1308366D01*
X985128Y1316560D01*
X980486Y1323506D01*
X976313Y1326294D01*
Y1373095D01*
X1003213Y1373094D01*
X1011591Y1373095D01*
X1066394D01*
Y1417142D01*
X1170419Y1521167D01*
X1269787D01*
Y1452740D01*
X1380213D01*
Y1478506D01*
X1784787D01*
Y1452740D01*
X1895213D01*
Y1622220D01*
X1784787D01*
Y1596494D01*
X1380213D01*
Y1622220D01*
X1269787D01*
Y1553794D01*
X1163661D01*
X1157418Y1552552D01*
X1152126Y1549016D01*
X1047260Y1444150D01*
X1011591D01*
X997402Y1444150D01*
X976313Y1444150D01*
Y1465555D01*
X980315Y1483898D01*
X996314Y1483898D01*
X1039685D01*
Y1536484D01*
X1039685Y1547205D01*
X1035685Y1565548D01*
Y1587063D01*
X1186535Y1737913D01*
X1190072Y1743206D01*
X1191313Y1749449D01*
Y2052858D01*
X1207142D01*
Y2117142D01*
D02*
G37*
G36*
X1899213Y1311260D02*
X1780787D01*
Y1133780D01*
X1899213D01*
Y1311260D01*
D02*
G37*
G36*
X1384213D02*
X1265787D01*
Y1133780D01*
X1384213D01*
Y1311260D01*
D02*
G37*
G36*
X2448465Y1198937D02*
X2441535Y1198937D01*
X2388701D01*
Y1121063D01*
X2441535D01*
X2461535Y1121063D01*
X2468465Y1121063D01*
X2521299D01*
Y1198937D01*
X2468465D01*
X2448465Y1198937D01*
D02*
G37*
G36*
X1408465Y1046827D02*
X1398933Y1045572D01*
X1390051Y1041893D01*
X1382424Y1036041D01*
X1376572Y1028413D01*
X1372892Y1019532D01*
X1371638Y1010000D01*
X1372892Y1000468D01*
X1375874Y993271D01*
X1324416Y941812D01*
X1321985Y938174D01*
X1321131Y933882D01*
X1321131Y933881D01*
Y859241D01*
Y810759D01*
Y785381D01*
X1315776Y782482D01*
X1295776Y794399D01*
Y807972D01*
X1258698D01*
X1242867Y815172D01*
X1239998Y825993D01*
Y830295D01*
X1239071Y834957D01*
X1236430Y838910D01*
X1232477Y841551D01*
X1227815Y842478D01*
X1222424D01*
Y919076D01*
X1183583D01*
Y934685D01*
X1130997D01*
X1120276Y934685D01*
X1110397Y932531D01*
X1102997Y950685D01*
X1103746Y951806D01*
X1105376Y960000D01*
X1103746Y968194D01*
X1099105Y975140D01*
X1093651Y978784D01*
X1093483Y980232D01*
X1105750Y998784D01*
X1213590D01*
X1216572Y991587D01*
X1222424Y983959D01*
X1230051Y978107D01*
X1238933Y974428D01*
X1248465Y973173D01*
X1257996Y974428D01*
X1266878Y978107D01*
X1274505Y983959D01*
X1280358Y991587D01*
X1284037Y1000468D01*
X1285292Y1010000D01*
X1284037Y1019532D01*
X1280358Y1028413D01*
X1274505Y1036041D01*
X1266878Y1041893D01*
X1257996Y1045572D01*
X1248465Y1046827D01*
X1238933Y1045572D01*
X1230051Y1041893D01*
X1222424Y1036041D01*
X1216572Y1028413D01*
X1213590Y1021216D01*
X1071772D01*
X1071772Y1021216D01*
X1067480Y1020362D01*
X1063841Y1017931D01*
X1033841Y987931D01*
X1031410Y984292D01*
X1030556Y980000D01*
X1030556Y980000D01*
Y843229D01*
X1010675Y838112D01*
X997935Y847927D01*
X996557Y849304D01*
X992918Y851735D01*
X988626Y852589D01*
X988626Y852589D01*
X845689D01*
X845689Y852589D01*
X841397Y851735D01*
X837758Y849304D01*
X837758Y849304D01*
X794244Y805790D01*
X791812Y802151D01*
X790959Y797859D01*
X790959Y797859D01*
Y685301D01*
X765927Y660270D01*
X760129Y659588D01*
X743367Y661871D01*
X739424Y664505D01*
X734774Y665430D01*
X702244D01*
Y685301D01*
X648863D01*
X649485Y530562D01*
X629564Y510685D01*
X609743D01*
X608145Y512283D01*
Y548648D01*
X618632D01*
X621722Y549263D01*
X624341Y551013D01*
X626092Y553633D01*
X626706Y556722D01*
Y578474D01*
X626092Y581564D01*
X624341Y584184D01*
X621722Y585934D01*
X618632Y586549D01*
X575226D01*
X572137Y585934D01*
X569517Y584184D01*
X567767Y581564D01*
X567152Y578474D01*
Y575383D01*
X548469Y564896D01*
X547152Y564949D01*
X540000Y566372D01*
X531806Y564742D01*
X524860Y560101D01*
X520218Y553154D01*
X518589Y544961D01*
X520218Y536767D01*
X524860Y529821D01*
X528784Y527198D01*
Y400000D01*
X528784Y400000D01*
X529638Y395708D01*
X532069Y392069D01*
X598174Y325965D01*
X593966Y310683D01*
X590607Y305965D01*
X569500D01*
Y261378D01*
X565500Y243036D01*
X565500Y232621D01*
Y180036D01*
X624500D01*
Y232621D01*
X624500Y243036D01*
X624002Y245320D01*
X629500Y252146D01*
X649500Y249035D01*
Y249035D01*
X685091D01*
X693375Y229035D01*
X663999Y199659D01*
X661567Y196020D01*
X660713Y191728D01*
X660714Y191728D01*
Y125500D01*
X632500Y125500D01*
X624429Y125500D01*
X577500D01*
Y116314D01*
X496758D01*
X447918Y165154D01*
Y310435D01*
X450018Y311305D01*
X457645Y317157D01*
X463497Y324784D01*
X467176Y333666D01*
X468431Y343197D01*
X467176Y352729D01*
X463497Y361611D01*
X457645Y369238D01*
X450018Y375091D01*
X441136Y378770D01*
X431604Y380024D01*
X422073Y378770D01*
X413191Y375091D01*
X405564Y369238D01*
X399711Y361611D01*
X396032Y352729D01*
X394777Y343197D01*
X396032Y333666D01*
X399711Y324784D01*
X405564Y317157D01*
X413191Y311305D01*
X415291Y310435D01*
Y158396D01*
X416533Y152153D01*
X420069Y146861D01*
X478465Y88465D01*
X483757Y84928D01*
X490000Y83686D01*
X577500D01*
Y74500D01*
X624429D01*
X644429Y74500D01*
X652500Y74500D01*
X699429D01*
Y88784D01*
X769350D01*
Y74500D01*
X816279D01*
X836279Y74500D01*
X844350Y74500D01*
X891279D01*
Y125500D01*
X874995D01*
Y218785D01*
X902376D01*
X907134Y200496D01*
X905656Y193889D01*
X904088Y192841D01*
X900152Y186950D01*
X898769Y180000D01*
X900152Y173050D01*
X904088Y167159D01*
X909980Y163222D01*
X916929Y161840D01*
X968110D01*
X975060Y163222D01*
X980951Y167159D01*
X983063Y170320D01*
X1004500D01*
Y154036D01*
X1055500D01*
Y170320D01*
X1084500D01*
Y154035D01*
X1135500D01*
Y198621D01*
X1139500Y216964D01*
X1139500Y227379D01*
Y279964D01*
X1080500D01*
Y227379D01*
X1080500Y216964D01*
X1081419Y212751D01*
X1075500Y205035D01*
X1055500Y211822D01*
Y220965D01*
X1055500Y229036D01*
Y275965D01*
X1041216D01*
Y307992D01*
X1041216Y307992D01*
X1040362Y312284D01*
X1037931Y315923D01*
X1037930Y315923D01*
X1015923Y337931D01*
X1012284Y340362D01*
X1007992Y341216D01*
X1007992Y341216D01*
X982037D01*
X980951Y342841D01*
X975060Y346778D01*
X968110Y348160D01*
X933145D01*
Y373504D01*
X932291Y377796D01*
X929860Y381435D01*
X929859Y381435D01*
X911118Y400176D01*
Y435685D01*
X910020D01*
X905641Y441890D01*
X901161Y455685D01*
X903246Y458806D01*
X904876Y467000D01*
X903246Y475194D01*
X898605Y482140D01*
X891658Y486782D01*
X883465Y488411D01*
X875271Y486782D01*
X868324Y482140D01*
X863683Y475194D01*
X862053Y467000D01*
X863683Y458806D01*
X865769Y455685D01*
X861288Y441890D01*
X858193Y437504D01*
X848189Y439685D01*
X837468Y439685D01*
X784882D01*
Y380315D01*
Y349646D01*
X783071Y348160D01*
X731890D01*
X724940Y346778D01*
X720500Y343811D01*
X700500Y348340D01*
Y370964D01*
X649500D01*
Y341216D01*
X614646D01*
X551216Y404646D01*
Y517115D01*
X554999Y526428D01*
X575426Y537006D01*
X583097Y533342D01*
X585714Y529665D01*
Y507638D01*
X585714Y507638D01*
X586567Y503346D01*
X588999Y499707D01*
X593882Y494824D01*
Y459315D01*
X593882Y459315D01*
X602263Y439315D01*
X601754Y438553D01*
X600124Y430360D01*
X601754Y422166D01*
X606395Y415219D01*
X613342Y410578D01*
X621535Y408948D01*
X629729Y410578D01*
X636676Y415219D01*
X641317Y422166D01*
X642947Y430360D01*
X641317Y438553D01*
X640808Y439315D01*
X648291Y457173D01*
X656811Y455315D01*
X667532Y455315D01*
X720118D01*
Y514685D01*
X702244D01*
Y544570D01*
X734774D01*
X739424Y545495D01*
X743367Y548129D01*
X746001Y552072D01*
X746926Y556722D01*
Y578474D01*
X746001Y583125D01*
X743367Y587068D01*
X740751Y588816D01*
X742233Y591034D01*
X742848Y594124D01*
Y607932D01*
X744417Y608244D01*
X748056Y610676D01*
X810105Y672725D01*
X810105Y672725D01*
X812536Y676363D01*
X813390Y680655D01*
Y793213D01*
X841402Y821226D01*
X862432Y813972D01*
X862779Y811118D01*
X862780D01*
Y755811D01*
X858779Y748189D01*
X858780D01*
Y684882D01*
X914749D01*
Y612496D01*
X869787D01*
Y537504D01*
X968402D01*
Y612496D01*
X937180D01*
Y669360D01*
X937965Y689035D01*
X988965D01*
Y705320D01*
X1035913D01*
X1035914Y705320D01*
X1040206Y706174D01*
X1043844Y708605D01*
X1049702Y714463D01*
X1049702Y714463D01*
X1052133Y718101D01*
X1052987Y722393D01*
Y731600D01*
X1064429D01*
X1067531Y732217D01*
X1070160Y733974D01*
X1071917Y736603D01*
X1079142Y748194D01*
X1083434Y749048D01*
X1087073Y751479D01*
X1092930Y757337D01*
X1092931Y757337D01*
X1095362Y760975D01*
X1096216Y765267D01*
Y860786D01*
X1116216Y876200D01*
X1120275Y875315D01*
X1130997Y864594D01*
Y812513D01*
X1130997D01*
X1138698Y795703D01*
X1139996Y789179D01*
X1144637Y782233D01*
X1151584Y777591D01*
X1159777Y775962D01*
X1175012Y762194D01*
X1176677Y759409D01*
X1175012Y756625D01*
X1174396Y753524D01*
Y739705D01*
X1175012Y736603D01*
X1176769Y733974D01*
X1179399Y732217D01*
X1182500Y731600D01*
X1227815D01*
X1239563Y723049D01*
X1244776Y717522D01*
Y686043D01*
X1286266D01*
X1296626Y684668D01*
X1305617Y670120D01*
Y661722D01*
X1306231Y658633D01*
X1307982Y656013D01*
X1310601Y654263D01*
X1313691Y653648D01*
X1357097D01*
X1360186Y654263D01*
X1362806Y656013D01*
X1364556Y658633D01*
X1365171Y661722D01*
Y683474D01*
X1364862Y685025D01*
Y686206D01*
X1381710Y703053D01*
X1381710Y703054D01*
X1384141Y706692D01*
X1384995Y710984D01*
Y793921D01*
X1400276Y805315D01*
X1405182D01*
X1425182Y791277D01*
Y769505D01*
X1421239Y766871D01*
X1418605Y762928D01*
X1417680Y758278D01*
Y736525D01*
X1418605Y731875D01*
X1421239Y727932D01*
X1423855Y726184D01*
X1422373Y723966D01*
X1421758Y720876D01*
Y699124D01*
X1422373Y696034D01*
X1424123Y693414D01*
Y689184D01*
X1422373Y686564D01*
X1421758Y683474D01*
Y661722D01*
X1422373Y658633D01*
X1424123Y656013D01*
X1426743Y654263D01*
X1429833Y653648D01*
X1440320D01*
Y530630D01*
X1440320Y530630D01*
X1441174Y526338D01*
X1443605Y522699D01*
X1447409Y518895D01*
X1444428Y511697D01*
X1443173Y502165D01*
X1444428Y492634D01*
X1448107Y483752D01*
X1453959Y476125D01*
X1461587Y470272D01*
X1470468Y466593D01*
X1480000Y465339D01*
X1489532Y466593D01*
X1498413Y470272D01*
X1506041Y476125D01*
X1511893Y483752D01*
X1515054Y491383D01*
X1676874D01*
Y484394D01*
X1698048D01*
X1702689Y481269D01*
X1713042Y469757D01*
X1709114Y450685D01*
X1697347D01*
Y399315D01*
X1697346Y399315D01*
X1704447Y379315D01*
X1703589Y375000D01*
X1705218Y366806D01*
X1709860Y359860D01*
X1716806Y355218D01*
X1725000Y353589D01*
X1733194Y355218D01*
X1740140Y359860D01*
X1744782Y366806D01*
X1746411Y375000D01*
X1745553Y379315D01*
X1751883Y397145D01*
X1760276Y395315D01*
X1770997Y395315D01*
X1823583D01*
Y454685D01*
X1821851D01*
Y484394D01*
X1840055D01*
Y491383D01*
X1974836D01*
X1977458Y487458D01*
X1984405Y482817D01*
X1992598Y481187D01*
X2000792Y482817D01*
X2007738Y487458D01*
X2012380Y494405D01*
X2014010Y502598D01*
X2012380Y510792D01*
X2007738Y517739D01*
X2000792Y522380D01*
X1992598Y524010D01*
X1984405Y522380D01*
X1977458Y517739D01*
X1974836Y513814D01*
X1862406D01*
X1844055Y517795D01*
Y560555D01*
X1847542Y564448D01*
X1862411Y574014D01*
X1863203Y574035D01*
X1913965D01*
Y618621D01*
X1917965Y636965D01*
X1917965Y647379D01*
Y699965D01*
X1858965D01*
Y647379D01*
X1858965Y636965D01*
X1859883Y632751D01*
X1847885Y615486D01*
X1829364Y621152D01*
X1826181Y623541D01*
X1825551Y624287D01*
X1825551Y632815D01*
Y681130D01*
X1825551Y693543D01*
X1823583Y712728D01*
Y759685D01*
X1789961D01*
Y784394D01*
X1840055D01*
Y793605D01*
X1930016D01*
X1932638Y789680D01*
X1939584Y785039D01*
X1947778Y783409D01*
X1955972Y785039D01*
X1962918Y789680D01*
X1967560Y796626D01*
X1969190Y804820D01*
X1967560Y813014D01*
X1962918Y819960D01*
X1955972Y824602D01*
X1947778Y826232D01*
X1939584Y824602D01*
X1932638Y819960D01*
X1930016Y816036D01*
X1863326D01*
X1844055Y817795D01*
Y851913D01*
X1913008D01*
Y896500D01*
X1917008Y914843D01*
X1917008Y929501D01*
Y982087D01*
X1839921D01*
Y929501D01*
X1839921Y918258D01*
X1837696Y911786D01*
X1836344Y909788D01*
X1828976Y899376D01*
X1825928Y897340D01*
X1825928Y897340D01*
X1824194Y895606D01*
X1780024D01*
Y863850D01*
X1779309Y862205D01*
X1776024D01*
Y862205D01*
X1763180Y848978D01*
X1753613Y847918D01*
X1753600Y847931D01*
X1752522Y848651D01*
X1749910Y850415D01*
X1741760Y858841D01*
X1736906Y868312D01*
X1736906Y878205D01*
Y895606D01*
X1718105D01*
Y919837D01*
X1738105Y935946D01*
X1740276Y935472D01*
X1750997Y935472D01*
X1811457D01*
Y1014528D01*
X1750997D01*
X1740276Y1014528D01*
X1721933Y1010528D01*
X1669473D01*
Y950413D01*
X1664646Y945586D01*
X1643008D01*
Y963992D01*
X1573921D01*
Y905252D01*
X1573921Y904748D01*
Y885252D01*
X1573921Y884748D01*
Y826008D01*
X1594040D01*
X1595694Y823853D01*
X1601399Y806008D01*
X1575981Y780591D01*
X1568784Y783572D01*
X1559252Y784827D01*
X1549720Y783572D01*
X1540839Y779893D01*
X1533211Y774041D01*
X1527359Y766413D01*
X1523680Y757532D01*
X1522425Y748000D01*
X1522883Y744524D01*
X1509126Y728383D01*
X1508168Y727719D01*
X1493283Y728002D01*
X1485391Y736526D01*
Y758278D01*
X1484466Y762928D01*
X1481832Y766871D01*
X1478948Y768798D01*
Y826220D01*
X1463583D01*
Y864685D01*
X1404950Y864685D01*
X1394250Y870062D01*
X1385673Y877715D01*
X1384782Y882194D01*
X1380140Y889140D01*
X1373194Y893782D01*
X1365000Y895411D01*
X1363562Y895125D01*
X1346912Y905140D01*
X1343562Y908986D01*
Y929236D01*
X1391735Y977409D01*
X1398933Y974428D01*
X1408465Y973173D01*
X1417996Y974428D01*
X1426878Y978107D01*
X1434505Y983959D01*
X1440358Y991587D01*
X1444037Y1000468D01*
X1445292Y1010000D01*
X1444037Y1019532D01*
X1440358Y1028413D01*
X1434505Y1036041D01*
X1426878Y1041893D01*
X1417996Y1045572D01*
X1408465Y1046827D01*
D02*
G37*
G36*
X2790000Y946225D02*
X2789999Y946224D01*
X2620001D01*
X2620000Y946225D01*
X2613213Y945331D01*
X2606888Y942711D01*
X2601456Y938543D01*
X2601456Y938543D01*
X2529700Y866788D01*
X2520468Y865572D01*
X2511587Y861893D01*
X2503959Y856041D01*
X2498107Y848413D01*
X2494428Y839532D01*
X2493173Y830000D01*
X2494428Y820468D01*
X2498107Y811587D01*
X2503959Y803959D01*
X2511587Y798107D01*
X2520468Y794428D01*
X2530000Y793173D01*
X2539532Y794428D01*
X2548413Y798107D01*
X2556041Y803959D01*
X2561893Y811587D01*
X2565572Y820468D01*
X2566787Y829701D01*
X2630863Y893776D01*
X2779137D01*
X2828349Y844564D01*
Y712000D01*
X2805000D01*
Y409000D01*
X2805000D01*
X2812464Y389000D01*
X2679405Y255941D01*
X2629492D01*
Y168941D01*
X2716492D01*
Y218854D01*
X2868526Y370888D01*
X2868526Y370888D01*
X2872693Y376319D01*
X2875313Y382644D01*
X2876207Y389432D01*
X2876207Y389432D01*
Y409000D01*
X2940000D01*
Y712000D01*
X2880798D01*
Y855426D01*
X2880798Y855426D01*
X2879905Y862214D01*
X2877285Y868539D01*
X2873117Y873970D01*
X2873117Y873970D01*
X2808544Y938543D01*
X2803112Y942711D01*
X2796787Y945331D01*
X2790000Y946225D01*
D02*
G37*
G36*
X2766512Y866512D02*
X2693488D01*
Y793488D01*
X2766512D01*
Y866512D01*
D02*
G37*
G36*
X2730000Y766827D02*
X2720468Y765572D01*
X2711587Y761893D01*
X2703959Y756041D01*
X2698107Y748413D01*
X2694428Y739532D01*
X2693173Y730000D01*
X2694428Y720468D01*
X2695298Y718369D01*
X2558743Y581813D01*
X2445272D01*
Y589492D01*
X2385280D01*
Y541508D01*
X2398962D01*
Y473384D01*
X2395494Y468194D01*
X2393864Y460000D01*
X2395494Y451806D01*
X2400135Y444860D01*
X2407082Y440218D01*
X2415276Y438589D01*
X2423469Y440218D01*
X2430416Y444860D01*
X2435057Y451806D01*
X2436687Y460000D01*
X2435057Y468194D01*
X2431589Y473384D01*
Y541508D01*
X2445272D01*
Y549187D01*
X2565500D01*
X2571743Y550428D01*
X2577035Y553965D01*
X2718369Y695298D01*
X2720468Y694428D01*
X2730000Y693173D01*
X2739532Y694428D01*
X2748413Y698107D01*
X2756041Y703959D01*
X2761893Y711587D01*
X2765572Y720468D01*
X2766827Y730000D01*
X2765572Y739532D01*
X2761893Y748413D01*
X2756041Y756041D01*
X2748413Y761893D01*
X2739532Y765572D01*
X2730000Y766827D01*
D02*
G37*
G36*
X2530000D02*
X2520468Y765572D01*
X2511587Y761893D01*
X2503959Y756041D01*
X2498107Y748413D01*
X2497237Y746313D01*
X2450776D01*
X2444533Y745072D01*
X2439240Y741535D01*
X2417736Y720032D01*
X2416708Y718492D01*
X2385280D01*
Y693579D01*
X2207835Y516134D01*
X2204298Y510841D01*
X2203057Y504599D01*
Y271748D01*
X2195654D01*
Y228252D01*
X2243087D01*
Y271748D01*
X2235684D01*
Y497841D01*
X2408350Y670508D01*
X2445272D01*
Y700916D01*
X2445398Y701552D01*
X2457533Y713687D01*
X2497237D01*
X2498107Y711587D01*
X2503959Y703959D01*
X2511587Y698107D01*
X2520468Y694428D01*
X2530000Y693173D01*
X2539532Y694428D01*
X2548413Y698107D01*
X2556041Y703959D01*
X2561893Y711587D01*
X2565572Y720468D01*
X2566827Y730000D01*
X2565572Y739532D01*
X2561893Y748413D01*
X2556041Y756041D01*
X2548413Y761893D01*
X2539532Y765572D01*
X2530000Y766827D01*
D02*
G37*
G36*
X1333819Y616496D02*
X1227992D01*
Y533504D01*
X1333819D01*
Y616496D01*
D02*
G37*
G36*
X2730000Y466827D02*
X2720468Y465572D01*
X2711587Y461893D01*
X2704199Y456224D01*
X2555801D01*
X2548413Y461893D01*
X2539532Y465572D01*
X2530000Y466827D01*
X2520468Y465572D01*
X2511587Y461893D01*
X2503959Y456041D01*
X2498107Y448413D01*
X2494428Y439531D01*
X2493173Y430000D01*
X2494428Y420469D01*
X2498107Y411587D01*
X2503776Y404199D01*
Y255497D01*
X2498644Y254821D01*
X2488062Y250438D01*
X2478975Y243466D01*
X2472003Y234379D01*
X2467620Y223797D01*
X2466125Y212441D01*
X2467620Y201085D01*
X2472003Y190503D01*
X2478975Y181416D01*
X2488062Y174444D01*
X2498644Y170061D01*
X2510000Y168566D01*
X2521356Y170061D01*
X2531938Y174444D01*
X2541025Y181416D01*
X2547997Y190503D01*
X2550412Y196332D01*
X2552711Y199329D01*
X2555331Y205654D01*
X2556224Y212441D01*
Y403776D01*
X2704199D01*
X2711587Y398107D01*
X2720468Y394428D01*
X2730000Y393173D01*
X2739532Y394428D01*
X2748413Y398107D01*
X2756041Y403959D01*
X2761893Y411587D01*
X2765572Y420469D01*
X2766827Y430000D01*
X2765572Y439531D01*
X2761893Y448413D01*
X2756041Y456041D01*
X2748413Y461893D01*
X2739532Y465572D01*
X2730000Y466827D01*
D02*
G37*
G36*
X204381Y746000D02*
X62381D01*
Y414000D01*
X204381D01*
Y414600D01*
X224381Y424755D01*
X233279Y419245D01*
X236187Y415898D01*
Y371697D01*
X226339Y363933D01*
X216187Y359815D01*
X195000Y361482D01*
X170521Y359556D01*
X146644Y353824D01*
X123959Y344427D01*
X103022Y331597D01*
X84350Y315650D01*
X68403Y296978D01*
X55573Y276041D01*
X46176Y253356D01*
X40444Y229479D01*
X38518Y205000D01*
X40444Y180521D01*
X46176Y156644D01*
X55573Y133958D01*
X68403Y113022D01*
X84350Y94350D01*
X103022Y78403D01*
X123959Y65573D01*
X146644Y56176D01*
X170521Y50444D01*
X195000Y48518D01*
X219479Y50444D01*
X243356Y56176D01*
X266041Y65573D01*
X286978Y78403D01*
X305650Y94350D01*
X321597Y113022D01*
X334427Y133958D01*
X343824Y156644D01*
X349556Y180521D01*
X351482Y205000D01*
X349556Y229479D01*
X343824Y253356D01*
X334427Y276041D01*
X321597Y296978D01*
X305650Y315650D01*
X286978Y331597D01*
X278269Y336934D01*
X279010Y340660D01*
Y431008D01*
X292142D01*
Y489748D01*
X292142Y490252D01*
Y509748D01*
X292142Y510252D01*
Y568992D01*
X292142D01*
X281517Y584657D01*
X280493Y588992D01*
X281688Y595000D01*
X280059Y603194D01*
X275417Y610140D01*
X268471Y614782D01*
X260277Y616411D01*
X252083Y614782D01*
X245137Y610140D01*
X240495Y603194D01*
X238866Y595000D01*
X240061Y588992D01*
X238750Y583441D01*
X237816Y581640D01*
X223055Y568992D01*
X204381Y573026D01*
Y746000D01*
D02*
G37*
G36*
X1888500Y318126D02*
X1878969Y316871D01*
X1870087Y313192D01*
X1862459Y307340D01*
X1856607Y299713D01*
X1853626Y292515D01*
X1809429D01*
Y306799D01*
X1762500D01*
X1742500Y306799D01*
X1734429Y306799D01*
X1687500D01*
Y265279D01*
X1686951Y264730D01*
X1684520Y261091D01*
X1683666Y256799D01*
X1683666Y256799D01*
Y216236D01*
X1669000D01*
Y146362D01*
X1720764D01*
Y216236D01*
X1706097D01*
Y237309D01*
X1724587Y255799D01*
X1754429Y255799D01*
X1762500Y255799D01*
X1809429D01*
Y270084D01*
X1853626D01*
X1856607Y262886D01*
X1862459Y255259D01*
X1870087Y249406D01*
X1878969Y245727D01*
X1888500Y244472D01*
X1898032Y245727D01*
X1906914Y249406D01*
X1914541Y255259D01*
X1920393Y262886D01*
X1923375Y270084D01*
X1969035D01*
Y255799D01*
X2015965D01*
X2035965Y255799D01*
X2044036Y255799D01*
X2090965D01*
Y276186D01*
X2116913D01*
Y265654D01*
X2164346D01*
Y309150D01*
X2116913D01*
Y298617D01*
X2090965D01*
Y306799D01*
X2044036D01*
X2024035Y306799D01*
X2015965Y306799D01*
X1969035D01*
Y292515D01*
X1923375D01*
X1920393Y299713D01*
X1914541Y307340D01*
X1906914Y313192D01*
X1898032Y316871D01*
X1888500Y318126D01*
D02*
G37*
G36*
X2168346Y238346D02*
X2112913D01*
Y186851D01*
X2168346D01*
Y238346D01*
D02*
G37*
G36*
X2334996Y281272D02*
X2321568Y279950D01*
X2308655Y276033D01*
X2296755Y269672D01*
X2286325Y261112D01*
X2277765Y250682D01*
X2271404Y238782D01*
X2267487Y225869D01*
X2266165Y212441D01*
X2267487Y199013D01*
X2271404Y186100D01*
X2277765Y174200D01*
X2286325Y163770D01*
X2296755Y155210D01*
X2308655Y148849D01*
X2321568Y144932D01*
X2334996Y143610D01*
X2348424Y144932D01*
X2361337Y148849D01*
X2373237Y155210D01*
X2383667Y163770D01*
X2392227Y174200D01*
X2398588Y186100D01*
X2402505Y199013D01*
X2403827Y212441D01*
X2402505Y225869D01*
X2398588Y238782D01*
X2392227Y250682D01*
X2383667Y261112D01*
X2373237Y269672D01*
X2361337Y276033D01*
X2348424Y279950D01*
X2334996Y281272D01*
D02*
G37*
G36*
X1801929Y220236D02*
X1742165D01*
Y142362D01*
X1801929D01*
Y220236D01*
D02*
G37*
G36*
X3010000Y361482D02*
X2985521Y359556D01*
X2961644Y353824D01*
X2938959Y344427D01*
X2918022Y331597D01*
X2899350Y315650D01*
X2883403Y296978D01*
X2870573Y276041D01*
X2861176Y253356D01*
X2855444Y229479D01*
X2853518Y205000D01*
X2855444Y180521D01*
X2861176Y156644D01*
X2870573Y133958D01*
X2883403Y113022D01*
X2899350Y94350D01*
X2918022Y78403D01*
X2938959Y65573D01*
X2961644Y56176D01*
X2985521Y50444D01*
X3010000Y48518D01*
X3034479Y50444D01*
X3058356Y56176D01*
X3081041Y65573D01*
X3101978Y78403D01*
X3120650Y94350D01*
X3136597Y113022D01*
X3149427Y133958D01*
X3158824Y156644D01*
X3164556Y180521D01*
X3166482Y205000D01*
X3164556Y229479D01*
X3158824Y253356D01*
X3149427Y276041D01*
X3136597Y296978D01*
X3120650Y315650D01*
X3101978Y331597D01*
X3081041Y344427D01*
X3058356Y353824D01*
X3034479Y359556D01*
X3010000Y361482D01*
D02*
G37*
%LPD*%
G36*
X2016515Y2796299D02*
X2018403Y2585373D01*
X2009855Y2576951D01*
X1880000Y2580042D01*
X1880000Y2702000D01*
X1860603D01*
X1850433Y2706417D01*
X1850433Y2714000D01*
Y2729055D01*
X1805000D01*
X1759567D01*
Y2717439D01*
X1752532Y2712203D01*
X1747567Y2710935D01*
X1744527Y2712915D01*
Y2757992D01*
X1715000D01*
Y2722402D01*
X1705000D01*
Y2712402D01*
X1665473D01*
Y2702000D01*
X1639685D01*
Y2713465D01*
X1610000D01*
X1580315D01*
Y2702000D01*
X1568307D01*
Y2714500D01*
X1538622D01*
Y2724500D01*
X1528622D01*
Y2787650D01*
X1510000D01*
X1510000Y2850000D01*
X1865000D01*
X2016515Y2796299D01*
D02*
G37*
%LPC*%
G36*
X1850433Y2771693D02*
X1815000D01*
Y2749055D01*
X1850433D01*
Y2771693D01*
D02*
G37*
G36*
X1795000D02*
X1759567D01*
Y2749055D01*
X1795000D01*
Y2771693D01*
D02*
G37*
G36*
X1568307Y2787650D02*
X1548622D01*
Y2734500D01*
X1568307D01*
Y2787650D01*
D02*
G37*
G36*
X1639685Y2755118D02*
X1620000D01*
Y2733465D01*
X1639685D01*
Y2755118D01*
D02*
G37*
G36*
X1600000D02*
X1580315D01*
Y2733465D01*
X1600000D01*
Y2755118D01*
D02*
G37*
G36*
X1695000Y2757992D02*
X1665473D01*
Y2732402D01*
X1695000D01*
Y2757992D01*
D02*
G37*
G36*
X1960000Y2694631D02*
Y2655000D01*
X1999631D01*
X1999212Y2658186D01*
X1994122Y2670474D01*
X1986025Y2681026D01*
X1975474Y2689122D01*
X1963186Y2694212D01*
X1960000Y2694631D01*
D02*
G37*
G36*
X1940000D02*
X1936814Y2694212D01*
X1924526Y2689122D01*
X1913975Y2681026D01*
X1905878Y2670474D01*
X1900788Y2658186D01*
X1900369Y2655000D01*
X1940000D01*
Y2694631D01*
D02*
G37*
G36*
X1999631Y2635000D02*
X1960000D01*
Y2595369D01*
X1963186Y2595788D01*
X1975474Y2600878D01*
X1986025Y2608974D01*
X1994122Y2619526D01*
X1999212Y2631814D01*
X1999631Y2635000D01*
D02*
G37*
G36*
X1940000D02*
X1900369D01*
X1900788Y2631814D01*
X1905878Y2619526D01*
X1913975Y2608974D01*
X1924526Y2600878D01*
X1936814Y2595788D01*
X1940000Y2595369D01*
Y2635000D01*
D02*
G37*
%LPD*%
G36*
X2754737Y1880472D02*
Y1900158D01*
X2774594Y1900329D01*
X2754737Y1880472D01*
D02*
G37*
G36*
X1676874Y784394D02*
X1698048D01*
X1699834Y783191D01*
X1702622Y774102D01*
X1697346Y755685D01*
X1697347D01*
Y741216D01*
X1669292D01*
X1669291Y741216D01*
X1664999Y740362D01*
X1661361Y737931D01*
X1660314Y736884D01*
X1657709Y737140D01*
X1650763Y741782D01*
X1642569Y743411D01*
X1634376Y741782D01*
X1627429Y737140D01*
X1622788Y730194D01*
X1621158Y722000D01*
X1622788Y713806D01*
X1627429Y706860D01*
X1634376Y702218D01*
X1642569Y700589D01*
X1650763Y702218D01*
X1657709Y706860D01*
X1661569Y712637D01*
X1663143D01*
X1663143Y712637D01*
X1667435Y713490D01*
X1686106Y710813D01*
X1690076Y709464D01*
X1696609Y698785D01*
X1695378Y689543D01*
X1695378D01*
Y620457D01*
X1695378D01*
X1692869Y601496D01*
X1675674Y596176D01*
X1660159Y603537D01*
X1643223Y620472D01*
Y620748D01*
X1643008Y621831D01*
Y668992D01*
X1573921D01*
Y610252D01*
X1573921Y609748D01*
X1573921D01*
Y590252D01*
X1573921D01*
Y531008D01*
X1573921D01*
X1567147Y513814D01*
X1514695D01*
X1511893Y520579D01*
X1506041Y528206D01*
X1498413Y534058D01*
X1489532Y537737D01*
X1480000Y538992D01*
X1463809Y553660D01*
X1462751Y556189D01*
Y653648D01*
X1473238D01*
X1476328Y654263D01*
X1478948Y656013D01*
X1480698Y658633D01*
X1481313Y661722D01*
Y683474D01*
X1490947Y694447D01*
X1496587Y698784D01*
X1521252D01*
X1521252Y698784D01*
X1525544Y699638D01*
X1529183Y702069D01*
X1542523Y715409D01*
X1549720Y712428D01*
X1559252Y711173D01*
X1568784Y712428D01*
X1577665Y716107D01*
X1585293Y721959D01*
X1591145Y729587D01*
X1594824Y738468D01*
X1596079Y748000D01*
X1594824Y757532D01*
X1591843Y764729D01*
X1618496Y791383D01*
X1676874D01*
Y784394D01*
D02*
G37*
D10*
X874701Y1084252D02*
D03*
Y1115748D02*
D03*
X941630Y1084252D02*
D03*
Y1115748D02*
D03*
D11*
X2190000Y1730000D02*
D03*
X3065000Y1860000D02*
D03*
X3070000Y2160000D02*
D03*
X2540000Y2145000D02*
D03*
X2366173Y2565457D02*
D03*
X2769528Y1240000D02*
D03*
X2690000Y1730000D02*
D03*
X2590000D02*
D03*
X2490000D02*
D03*
X2390000D02*
D03*
X2290000D02*
D03*
D12*
X919095Y575000D02*
D03*
D13*
X1280906D02*
D03*
D14*
X133381Y580000D02*
D03*
D15*
X564882Y1337362D02*
D03*
Y1382638D02*
D03*
X675118Y1337362D02*
D03*
Y1382638D02*
D03*
D16*
X1456693Y2435000D02*
D03*
X1543307D02*
D03*
X1452008Y2724500D02*
D03*
X1538622D02*
D03*
D17*
X757480Y180000D02*
D03*
Y230000D02*
D03*
Y280000D02*
D03*
Y330000D02*
D03*
X942520Y180000D02*
D03*
Y280000D02*
D03*
Y230000D02*
D03*
Y330000D02*
D03*
D18*
X828000Y3277000D02*
D03*
X862449D02*
D03*
D19*
X2570197Y1860787D02*
D03*
Y1880472D02*
D03*
Y1939528D02*
D03*
Y1900158D02*
D03*
Y1919842D02*
D03*
Y1959213D02*
D03*
X2719803Y1860787D02*
D03*
Y1880472D02*
D03*
Y1939528D02*
D03*
Y1900158D02*
D03*
Y1919842D02*
D03*
Y1959213D02*
D03*
D20*
X2615472Y1835197D02*
D03*
X2595787D02*
D03*
Y1984803D02*
D03*
X2615472D02*
D03*
X2635157Y1835197D02*
D03*
X2674528D02*
D03*
X2654843D02*
D03*
X2694213D02*
D03*
X2635157Y1984803D02*
D03*
X2674528D02*
D03*
X2654843D02*
D03*
X2694213D02*
D03*
D21*
X2645000Y1910000D02*
D03*
D22*
X1878465Y881535D02*
D03*
Y948465D02*
D03*
X1608465Y560630D02*
D03*
Y639370D02*
D03*
Y855630D02*
D03*
Y934370D02*
D03*
X257599Y460630D02*
D03*
Y539370D02*
D03*
D23*
X2083824Y2600000D02*
D03*
X2162564D02*
D03*
X1725000Y655000D02*
D03*
X1791929D02*
D03*
D24*
X2890000Y2031319D02*
D03*
Y2086437D02*
D03*
D25*
X2399409Y2030000D02*
D03*
X2450590D02*
D03*
D26*
X2397441Y2100000D02*
D03*
X2452559D02*
D03*
D27*
X2712599Y2482756D02*
D03*
X2787402D02*
D03*
X2712599Y2577244D02*
D03*
X2750000D02*
D03*
X2787402D02*
D03*
D28*
X885000Y1355138D02*
D03*
Y1407106D02*
D03*
D29*
X433000Y1234630D02*
D03*
Y1363370D02*
D03*
D30*
X1840000Y1222520D02*
D03*
Y1537480D02*
D03*
X1325000Y1222520D02*
D03*
Y1537480D02*
D03*
D31*
X1020000Y1115748D02*
D03*
X1086929D02*
D03*
D32*
X2415276Y565500D02*
D03*
Y694500D02*
D03*
D33*
X1810039Y802598D02*
D03*
Y840000D02*
D03*
Y877402D02*
D03*
X1706890D02*
D03*
Y840000D02*
D03*
Y802598D02*
D03*
X1810039Y502598D02*
D03*
Y540000D02*
D03*
Y577402D02*
D03*
X1706890D02*
D03*
Y540000D02*
D03*
Y502598D02*
D03*
D34*
X610693Y773598D02*
D03*
Y848402D02*
D03*
X697307D02*
D03*
D35*
Y781472D02*
D03*
D36*
X260000Y1197047D02*
D03*
Y1402953D02*
D03*
D37*
X2870000Y664000D02*
D03*
Y456000D02*
D03*
D38*
X2341417Y1160000D02*
D03*
X2418583D02*
D03*
X1694882Y181299D02*
D03*
X1772047D02*
D03*
X2491417Y1160000D02*
D03*
X2568583D02*
D03*
D39*
X2140630Y212599D02*
D03*
Y287402D02*
D03*
X2219370Y250000D02*
D03*
D40*
X362835Y1488740D02*
D03*
X520315D02*
D03*
D41*
X1041772Y746614D02*
D03*
Y797795D02*
D03*
Y772205D02*
D03*
Y823386D02*
D03*
X1205158Y772205D02*
D03*
Y746614D02*
D03*
Y823386D02*
D03*
Y797795D02*
D03*
D42*
X596929Y567598D02*
D03*
Y642402D02*
D03*
X713071Y567598D02*
D03*
Y642402D02*
D03*
Y605000D02*
D03*
X1335394Y672598D02*
D03*
Y747402D02*
D03*
X1451535Y672598D02*
D03*
Y747402D02*
D03*
Y710000D02*
D03*
X2831929Y1420000D02*
D03*
Y1457401D02*
D03*
Y1382598D02*
D03*
X2948071D02*
D03*
Y1457401D02*
D03*
D43*
X1870000Y2395945D02*
D03*
Y2514055D02*
D03*
X1805000Y2620945D02*
D03*
Y2739055D02*
D03*
D44*
X1701063Y975000D02*
D03*
X1775866D02*
D03*
X745000Y1425748D02*
D03*
X819803D02*
D03*
X960000Y1408622D02*
D03*
X1034803D02*
D03*
D45*
X1740000Y2407599D02*
D03*
Y2482402D02*
D03*
X1705000Y2647599D02*
D03*
Y2722402D02*
D03*
D46*
X1110000Y181535D02*
D03*
Y248464D02*
D03*
X1888465Y601535D02*
D03*
Y668465D02*
D03*
X963465Y716535D02*
D03*
Y783465D02*
D03*
X2885858Y1563386D02*
D03*
Y1630315D02*
D03*
X2810500Y1563386D02*
D03*
Y1630315D02*
D03*
X1270276Y713543D02*
D03*
Y780472D02*
D03*
X675000Y276535D02*
D03*
Y343464D02*
D03*
X595000Y211536D02*
D03*
Y278465D02*
D03*
X1030000Y181536D02*
D03*
Y248465D02*
D03*
D47*
X376535Y626500D02*
D03*
X443464D02*
D03*
X1725000Y730000D02*
D03*
X1791929D02*
D03*
X1725000Y425000D02*
D03*
X1791929D02*
D03*
X1365000Y835000D02*
D03*
X1431929D02*
D03*
X1085000Y905000D02*
D03*
X1151929D02*
D03*
X2856535Y1290000D02*
D03*
X2923465D02*
D03*
X621535Y485000D02*
D03*
X688465D02*
D03*
X816535Y410000D02*
D03*
X883465D02*
D03*
D48*
X2811500Y1815000D02*
D03*
X2878500D02*
D03*
X1996535Y281299D02*
D03*
X2063465D02*
D03*
X2646535Y1160000D02*
D03*
X2713465D02*
D03*
X2196535D02*
D03*
X2263465D02*
D03*
X1715000Y281299D02*
D03*
X1781929D02*
D03*
X2101317Y2815000D02*
D03*
X2168246D02*
D03*
X605000Y100000D02*
D03*
X671929D02*
D03*
X796850D02*
D03*
X863779D02*
D03*
D49*
X2690000Y1650000D02*
D03*
Y1299606D02*
D03*
X2590000Y1650000D02*
D03*
Y1299606D02*
D03*
X2490000Y1650000D02*
D03*
Y1299606D02*
D03*
X2390000Y1650000D02*
D03*
Y1299606D02*
D03*
X2290000Y1650000D02*
D03*
Y1299606D02*
D03*
X2190000Y1650000D02*
D03*
Y1299606D02*
D03*
D50*
X1010000Y1515551D02*
D03*
Y1582480D02*
D03*
X1610000Y2656535D02*
D03*
Y2723465D02*
D03*
X888465Y716535D02*
D03*
Y783465D02*
D03*
X2380000Y1876535D02*
D03*
Y1943465D02*
D03*
X2460000Y1876535D02*
D03*
Y1943465D02*
D03*
X1620000Y2411535D02*
D03*
Y2478465D02*
D03*
X2165000Y2401535D02*
D03*
Y2468465D02*
D03*
X2855000Y2496535D02*
D03*
Y2563465D02*
D03*
D51*
X2878500Y1892284D02*
D03*
Y1947402D02*
D03*
X2970000Y2037441D02*
D03*
Y2092559D02*
D03*
D52*
X2250512Y2400000D02*
D03*
Y2474803D02*
D03*
X2345000Y2400000D02*
D03*
Y2474803D02*
D03*
Y2437402D02*
D03*
X352756Y697321D02*
D03*
Y772124D02*
D03*
X447244Y697321D02*
D03*
Y772124D02*
D03*
Y734723D02*
D03*
D53*
X2960000Y1894409D02*
D03*
Y1945591D02*
D03*
D54*
X1365000Y835000D02*
X1373780Y826220D01*
X1365000Y835000D02*
Y874000D01*
X1159777Y797373D02*
X1159989Y797584D01*
X1204946D01*
X1205158Y797795D01*
X1085000Y905000D02*
Y958965D01*
X1083965Y960000D02*
X1085000Y958965D01*
X802174Y680655D02*
Y797859D01*
X845689Y841374D02*
X988626D01*
X802174Y797859D02*
X845689Y841374D01*
X740125Y618606D02*
X802174Y680655D01*
X698210Y849304D02*
X759098D01*
X697307Y848402D02*
X698210Y849304D01*
X783071Y180000D02*
X816535Y213465D01*
X757480Y180000D02*
X783071D01*
X816535Y213465D02*
Y410000D01*
Y508569D01*
X863779Y230000D02*
Y264953D01*
Y100000D02*
Y230000D01*
X942520D01*
X878827Y280000D02*
X929860D01*
X863779Y264953D02*
X878827Y280000D01*
X265134Y875000D02*
X416213D01*
X425000Y866213D01*
Y837244D02*
X447244Y815000D01*
X425000Y837244D02*
Y866213D01*
X2815768Y2170000D02*
Y2399232D01*
Y2003965D02*
Y2170000D01*
X2789303Y1915039D02*
Y1977500D01*
X2775754Y1901489D02*
X2789303Y1915039D01*
X862449Y3277000D02*
X912850Y3327402D01*
X862449Y3237256D02*
X863880Y3235825D01*
X862449Y3237256D02*
Y3277000D01*
X2963160Y2085719D02*
X2970000Y2092559D01*
X2842486Y2085719D02*
X2963160D01*
X1775024Y526686D02*
X1781133Y532795D01*
X1775275Y439685D02*
Y485586D01*
X1775024Y485837D02*
X1775275Y485586D01*
X1781133Y532795D02*
X1802835D01*
X1775024Y485837D02*
Y526686D01*
X1768465Y751496D02*
X1789961Y730000D01*
X1774574Y832795D02*
X1802835D01*
X1768465Y751496D02*
Y826686D01*
X1774574Y832795D01*
X1624094Y840000D02*
X1706890D01*
X1608465Y855630D02*
X1624094Y840000D01*
X1706890D02*
X1745669D01*
X1812261Y804820D02*
X1947778D01*
X1810039Y802598D02*
X1812261Y804820D01*
X1789961Y730000D02*
X1890376D01*
X707953Y1000000D02*
X712031D01*
X827779Y1115748D02*
X874701D01*
X712031Y1000000D02*
X827779Y1115748D01*
X786693Y1045691D02*
X825254Y1084252D01*
X786693Y1000000D02*
Y1045691D01*
X825254Y1084252D02*
X874701D01*
X599685Y951728D02*
X674748Y876665D01*
X599685Y951728D02*
Y970472D01*
X629212Y1000000D01*
X550472Y1000000D02*
X583685Y966787D01*
Y945101D02*
Y966787D01*
Y945101D02*
X649252Y879534D01*
X550472Y1000000D02*
Y1000000D01*
X649252Y826129D02*
Y879534D01*
X674748Y861118D02*
Y876665D01*
Y861118D02*
X687465Y848402D01*
X697307D01*
X1789961Y425000D02*
X1823465D01*
X2712000Y2270000D02*
Y2433000D01*
Y2109358D02*
Y2270000D01*
X2789303Y1977500D02*
X2815768Y2003965D01*
X553282Y848402D02*
X610693D01*
X500000Y795119D02*
X553282Y848402D01*
X500000Y756573D02*
Y795119D01*
X447244Y772124D02*
Y815000D01*
X620535Y773598D02*
X648863Y801926D01*
X550472Y773598D02*
X620535D01*
X1642569Y722000D02*
X1644421Y723852D01*
X1663143D01*
X1669291Y730000D01*
X1810039Y502598D02*
X1992598D01*
X1160000Y1115748D02*
X1160000Y1115748D01*
X1086929Y1115748D02*
X1160000D01*
X2366173Y2565457D02*
Y2683827D01*
X2365000Y2685000D02*
X2366173Y2683827D01*
X2713465Y1023465D02*
Y1160000D01*
X2710000Y1020000D02*
X2713465Y1023465D01*
X2196535Y1020000D02*
Y1160000D01*
X2815000Y2400000D02*
X2815768Y2399232D01*
X1332346Y859241D02*
Y933882D01*
X1408465Y1010000D01*
X1332346Y750449D02*
Y810759D01*
Y750449D02*
X1335394Y747402D01*
X1332346Y810759D02*
Y859241D01*
X1041772Y823386D02*
Y980000D01*
X1071772Y1010000D01*
X1248465D01*
X522077Y212621D02*
X593914D01*
X518538Y216160D02*
X522077Y212621D01*
X1451535Y530630D02*
Y672598D01*
Y530630D02*
X1480000Y502165D01*
X1480433Y502598D01*
X1706890D01*
X1651063Y802598D02*
X1706890D01*
X1613850D02*
X1651063D01*
X1559252Y748000D02*
X1613850Y802598D01*
X1669291Y730000D02*
X1725000D01*
X1521252Y710000D02*
X1559252Y748000D01*
X1451535Y710000D02*
X1521252D01*
X1888500Y281299D02*
X1996535D01*
X1781929D02*
X1888500D01*
X2948071Y1382598D02*
X3030315D01*
X3050000Y1362913D01*
Y1250000D02*
Y1362913D01*
X2960000Y1160000D02*
X3050000Y1250000D01*
X2713465Y1160000D02*
X2960000D01*
X2769528Y1420000D02*
X2831929D01*
X2709685D02*
X2769528D01*
Y1240000D02*
Y1420000D01*
X2924500Y1230000D02*
Y1288965D01*
X2923465Y1290000D02*
X2924500Y1288965D01*
X2568583Y1160000D02*
X2646535D01*
X2263465D02*
X2341417D01*
X2190000Y1166535D02*
X2196535Y1160000D01*
X2190000Y1166535D02*
Y1299606D01*
X2240000Y1300000D02*
Y1480000D01*
X2323386Y1563386D01*
X2810500D01*
Y1630315D02*
X2810500Y1630315D01*
X2885858D01*
X2873465Y1642708D02*
X2885858Y1630315D01*
Y1435543D02*
Y1563386D01*
X2873465Y1756500D02*
Y1887248D01*
X2690000Y1299606D02*
Y1400315D01*
X2709685Y1420000D01*
X2870551Y1420236D02*
X2885858Y1435543D01*
X2831929Y1420000D02*
X2832165Y1420236D01*
X2870551D01*
X2923465Y1290000D02*
Y1346747D01*
X2913449Y1356763D02*
X2923465Y1346747D01*
X2913449Y1356763D02*
Y1433606D01*
X2937244Y1457401D01*
X2948071D01*
X2190000Y1650000D02*
Y1730000D01*
X2290000D02*
Y1740000D01*
Y1650000D02*
Y1730000D01*
X2390000Y1650000D02*
Y1730000D01*
X2490000Y1650000D02*
Y1730000D01*
X2690000Y1650000D02*
Y1730000D01*
X2071063Y287402D02*
X2140630D01*
X2068465Y290000D02*
X2071063Y287402D01*
X1791929Y655000D02*
Y690142D01*
X1786071Y696000D02*
X1791929Y690142D01*
X1626000Y696000D02*
X1786071D01*
X1625000Y697000D02*
X1626000Y696000D01*
X780000Y3277000D02*
X828000D01*
X779000Y3278000D02*
X780000Y3277000D01*
X1775866Y975000D02*
X1824194D01*
X1878465Y948465D02*
Y1010528D01*
X1865473Y935472D02*
X1878465Y948465D01*
X1110000Y248464D02*
X1111965Y246500D01*
X1170000D01*
X595000Y278465D02*
X596929Y276535D01*
X675000D01*
X888465Y673051D02*
Y716535D01*
X820414Y605000D02*
X888465Y673051D01*
X593914Y212621D02*
X595000Y211536D01*
X688465Y485000D02*
X752596D01*
X762402Y475194D01*
X810105Y515000D02*
X816535Y508569D01*
X1772047Y181299D02*
X1888500D01*
X1431929Y835000D02*
Y934370D01*
X1433898Y936339D01*
X1280906Y508234D02*
Y575000D01*
Y508234D02*
X1283037Y506102D01*
X1888465Y668465D02*
X1961746D01*
X1969782Y676500D01*
X941630Y1008416D02*
Y1084252D01*
Y1008416D02*
X943959Y1006087D01*
X1060200Y1515551D02*
X1149649Y1605000D01*
X1010000Y1515551D02*
X1060200D01*
X2855000Y2563465D02*
X2941220D01*
X2955000Y2577244D01*
X1995000Y2600000D02*
X2083824D01*
X2111535Y2401535D02*
X2165000D01*
X2080000Y2370000D02*
X2111535Y2401535D01*
X2166535Y2400000D02*
X2250512D01*
X2165000Y2401535D02*
X2166535Y2400000D01*
X2397441Y2100000D02*
Y2162717D01*
X2399409Y2164685D01*
X2970000Y2037441D02*
X3015926D01*
X3019646Y2041162D01*
X2873465Y1642708D02*
Y1756500D01*
Y1887248D02*
X2878500Y1892284D01*
X1637866Y540000D02*
X1706890D01*
X1714094Y532795D02*
X1729055D01*
X1706890Y540000D02*
X1714094Y532795D01*
X1741906Y485837D02*
Y519945D01*
X1729055Y532795D02*
X1741906Y519945D01*
X1725000Y375000D02*
Y425000D01*
Y468932D02*
X1741906Y485837D01*
X1725000Y425000D02*
Y468932D01*
X1775275Y439685D02*
X1789961Y425000D01*
X1802835Y532795D02*
X1810039Y540000D01*
X1608465Y560630D02*
X1627087Y542008D01*
X1635858D01*
X1637866Y540000D01*
X1725000Y730000D02*
Y768932D01*
X1751527Y795459D01*
Y834142D01*
X1745669Y840000D02*
X1751527Y834142D01*
X1373780Y710984D02*
Y826220D01*
X1335394Y672598D02*
X1345852D01*
X1353647Y680394D01*
Y690851D01*
X1373780Y710984D01*
X1270276Y713543D02*
X1274745Y709074D01*
X1298918D01*
X1317141Y690851D01*
Y680394D02*
Y690851D01*
Y680394D02*
X1324936Y672598D01*
X1335394D01*
X1041772Y759409D02*
Y772205D01*
Y746614D02*
Y759409D01*
X1079142D01*
X1085000Y765267D02*
Y905000D01*
X1079142Y759409D02*
X1085000Y765267D01*
X1041772Y722393D02*
Y746614D01*
X963465Y716535D02*
X1035914D01*
X1041772Y722393D01*
X944055Y181535D02*
X1110000D01*
X942520Y180000D02*
X944055Y181535D01*
X1030000Y248465D02*
Y307992D01*
X942520Y330000D02*
X1007992D01*
X1030000Y307992D01*
X671929Y100000D02*
X796850D01*
X671929Y191728D02*
X710201Y230000D01*
X671929Y100000D02*
Y191728D01*
X710201Y230000D02*
X757480D01*
X883465Y410000D02*
Y467000D01*
X928222Y330000D02*
X942520D01*
X921929Y336293D02*
X928222Y330000D01*
X921929Y336293D02*
Y373504D01*
X885433Y410000D02*
X921929Y373504D01*
X883465Y410000D02*
X885433D01*
X678465Y280000D02*
X757480D01*
X675000Y276535D02*
X678465Y280000D01*
X540000Y400000D02*
Y544961D01*
X610000Y330000D02*
X757480D01*
X540000Y400000D02*
X610000Y330000D01*
X621535Y430360D02*
Y485000D01*
X596929Y507638D02*
Y567598D01*
Y507638D02*
X619567Y485000D01*
X2855000Y2433000D02*
Y2496535D01*
X2796181D02*
X2855000D01*
X2787402Y2487756D02*
X2796181Y2496535D01*
X2787402Y2482756D02*
Y2487756D01*
X2750000Y2577244D02*
X2758780Y2568465D01*
Y2556845D02*
Y2568465D01*
Y2556845D02*
X2769066Y2546559D01*
X2805738D01*
X2812181Y2553003D01*
Y2555331D01*
X2820315Y2563465D01*
X2855000D01*
X2786484Y2578162D02*
X2787402Y2577244D01*
X2785566Y2617664D02*
X2786484Y2616747D01*
Y2578162D02*
Y2616747D01*
X2710000Y2435000D02*
X2712000Y2433000D01*
X2711299Y2481457D02*
X2712599Y2482756D01*
X2711299Y2436299D02*
Y2481457D01*
X2710000Y2435000D02*
X2711299Y2436299D01*
X352756Y772124D02*
Y814000D01*
X723898Y605000D02*
X737504Y618606D01*
X713071Y605000D02*
X723898D01*
X737504Y618606D02*
X740125D01*
X678449Y621227D02*
X686017Y628795D01*
X678449Y588773D02*
Y621227D01*
X686017Y628795D02*
X688638D01*
X702244Y642402D02*
X713071D01*
X688638Y628795D02*
X702244Y642402D01*
X678449Y588773D02*
X691828Y575394D01*
X705276D01*
X713071Y567598D01*
X704163D02*
X713071D01*
X696368Y559803D02*
X704163Y567598D01*
X696368Y534655D02*
Y559803D01*
X688465Y526752D02*
X696368Y534655D01*
X688465Y485000D02*
Y526752D01*
X619567Y485000D02*
X621535D01*
X588022Y642402D02*
X596929D01*
X580226Y650197D02*
X588022Y642402D01*
X580226Y650197D02*
Y676347D01*
X500000Y756573D02*
X580226Y676347D01*
X447244Y734723D02*
X480315D01*
X500000Y666500D02*
Y715038D01*
X480315Y734723D02*
X500000Y715038D01*
X473008Y639508D02*
X500000Y666500D01*
X443464Y626500D02*
X456473Y639508D01*
X473008D01*
X376535Y626500D02*
X378504D01*
X393189Y611815D01*
Y593223D02*
Y611815D01*
Y593223D02*
X400000Y586412D01*
Y581000D02*
Y586412D01*
X352756Y648311D02*
Y697321D01*
Y648311D02*
X374567Y626500D01*
X376535D01*
X438464Y706101D02*
X447244Y697321D01*
X424685Y706101D02*
X438464D01*
X358661Y772124D02*
X424685Y706101D01*
X352756Y772124D02*
X358661D01*
X648863Y825740D02*
X649252Y826129D01*
X648863Y801926D02*
Y825740D01*
X941630Y1115748D02*
X1020000D01*
X1709382Y271299D02*
X1710000D01*
X1694882Y256799D02*
X1709382Y271299D01*
X1694882Y181299D02*
Y256799D01*
X988626Y841374D02*
X1006614Y823386D01*
X1235776Y780472D02*
X1270276D01*
X1231366Y776063D02*
X1235776Y780472D01*
X1209016Y776063D02*
X1231366D01*
X1205158Y772205D02*
X1209016Y776063D01*
X2165000Y2466496D02*
X2179685Y2451811D01*
X2181654D02*
X2196063Y2437402D01*
X2179685Y2451811D02*
X2181654D01*
X2196063Y2437402D02*
X2345000D01*
X2250610Y2474901D02*
X2294901D01*
X2295000Y2475000D01*
X2450590Y2100000D02*
X2494488Y2143898D01*
X2538898D02*
X2540000Y2145000D01*
X2494488Y2143898D02*
X2538898D01*
X2450590Y2030000D02*
Y2100000D01*
X3055237Y2140237D02*
X3065000Y2150000D01*
X3019646Y2140237D02*
X3055237D01*
X2971968Y2092559D02*
X3019646Y2140237D01*
X3065000Y1860000D02*
Y1920000D01*
X2960000Y1945591D02*
X3039410D01*
X3065000Y1920000D01*
X1151929Y905000D02*
Y936517D01*
X1160000Y944588D01*
Y950000D01*
X2878500Y1947402D02*
X2880902Y1945000D01*
X2920000D01*
X2959410D02*
X2960000Y1945591D01*
X2920000Y1945000D02*
X2959410D01*
X2841768Y2085000D02*
X2842486Y2085719D01*
X2345000Y2400000D02*
X2350000Y2405000D01*
X2384588D01*
X2250512Y2474803D02*
X2250610Y2474901D01*
X2165000Y2466496D02*
Y2468465D01*
X1006614Y823386D02*
X1041772D01*
X925965Y783465D02*
X963465D01*
X888465D02*
X925965D01*
Y550965D02*
Y783465D01*
X1201299Y768346D02*
X1205158Y772205D01*
X2809500Y1815000D02*
X2811500D01*
X888465Y783465D02*
X888465Y783465D01*
X977795Y797795D02*
X1041772D01*
X963465Y783465D02*
X977795Y797795D01*
X1205158Y823386D02*
Y853740D01*
X1153898Y905000D02*
X1205158Y853740D01*
X1151929Y905000D02*
X1153898D01*
X1205158Y746614D02*
X1205551Y747008D01*
X1335000D01*
X1335394Y747402D01*
X1451535D02*
Y817362D01*
X1433898Y835000D02*
X1451535Y817362D01*
X1431929Y835000D02*
X1433898D01*
X1805394Y668465D02*
X1888465D01*
X1791929Y655000D02*
X1805394Y668465D01*
X1845984Y601535D02*
X1888465D01*
X1821851Y577402D02*
X1845984Y601535D01*
X1810039Y577402D02*
X1821851D01*
X1833858Y889409D02*
X1878465D01*
X1821851Y877402D02*
X1833858Y889409D01*
X1810039Y877402D02*
X1821851D01*
X1706890D02*
Y973110D01*
X1705000Y975000D02*
X1706890Y973110D01*
X1608465Y934370D02*
X1669291D01*
X1705000Y970079D01*
Y975000D01*
X1706890Y577402D02*
Y636890D01*
X1725000Y655000D01*
X1670433Y577402D02*
X1706890D01*
X1632008Y615827D02*
X1670433Y577402D01*
X1632008Y615827D02*
Y620748D01*
X1613386Y639370D02*
X1632008Y620748D01*
X1608465Y639370D02*
X1613386D01*
X1802835Y832795D02*
X1810039Y840000D01*
D55*
X742565Y781472D02*
X837758Y876665D01*
X697307Y781472D02*
X742565D01*
X105000Y943097D02*
Y2810000D01*
X173097Y875000D02*
X265134D01*
X105000Y943097D02*
X173097Y875000D01*
X254567Y539370D02*
X258938Y543741D01*
X134381Y586000D02*
Y686000D01*
X950449Y3365000D02*
X2300000D01*
X912850Y3327402D02*
X950449Y3365000D01*
X863880Y3143305D02*
Y3235825D01*
X2712599Y2577244D02*
Y3122401D01*
X2415000Y3420000D02*
X2712599Y3122401D01*
X1566120Y2656535D02*
X1610000D01*
X1564935Y2655350D02*
X1566120Y2656535D01*
X1555211Y2655350D02*
X1564935D01*
X1547459Y2647599D02*
X1555211Y2655350D01*
X1717130Y2635468D02*
X1805398D01*
X1610000Y2656535D02*
X1618937Y2647599D01*
X1705000D01*
X1717130Y2635468D01*
X900000Y2545000D02*
X951901D01*
X962305Y2555404D02*
Y3143305D01*
X951901Y2545000D02*
X962305Y2555404D01*
X951901Y2545000D02*
X1025000D01*
X2831929Y1350508D02*
Y1382598D01*
Y1350508D02*
X2854468Y1327969D01*
Y1299685D02*
Y1327969D01*
Y1299685D02*
X2856535Y1297618D01*
Y1201747D02*
Y1297618D01*
X2017627Y2905000D02*
X2112942Y2809686D01*
X2101317Y2815000D02*
X2103317D01*
X2112817Y2805500D01*
Y2803500D02*
Y2805500D01*
Y2803500D02*
X2113087Y2803230D01*
Y2770000D02*
Y2803230D01*
X2415276Y460000D02*
Y565500D01*
X960000Y1585000D02*
X1010551D01*
X960000Y1316418D02*
Y1408622D01*
Y1316418D02*
X965346Y1311072D01*
Y1308366D02*
Y1311072D01*
X2455000Y1160000D02*
X2491417D01*
X2418583D02*
X2455000D01*
X2450000Y1080000D02*
X2455000Y1085000D01*
Y1160000D01*
X2856535Y1201747D02*
X2858282Y1200000D01*
X2219370Y250000D02*
Y504599D01*
X2401280Y686508D02*
Y686508D01*
X2219370Y504599D02*
X2401280Y686508D01*
X2190000Y1299606D02*
X2290000D01*
X446604Y343197D02*
Y350000D01*
X490000Y100000D02*
X605000D01*
X431604Y158396D02*
Y343197D01*
Y158396D02*
X490000Y100000D01*
X2590000Y1299606D02*
X2690000D01*
X2490000D02*
X2590000D01*
X2390000D02*
X2490000D01*
X2409272Y694500D02*
X2415276D01*
X2401280Y686508D02*
X2409272Y694500D01*
X2450776Y730000D02*
X2530000D01*
X2429272Y708496D02*
X2450776Y730000D01*
X2429272Y702492D02*
Y708496D01*
X2421280Y694500D02*
X2429272Y702492D01*
X2415276Y694500D02*
X2421280D01*
X2565500Y565500D02*
X2730000Y730000D01*
X2415276Y565500D02*
X2565500D01*
X2137173Y209141D02*
X2140630Y212599D01*
X2108196Y209141D02*
X2137173D01*
X2090000Y190945D02*
X2108196Y209141D01*
X426898Y1234630D02*
X433000D01*
X418984Y1226716D02*
X426898Y1234630D01*
X418984Y1220614D02*
Y1226716D01*
X392992Y1194622D02*
X418984Y1220614D01*
X392992Y1000000D02*
Y1194622D01*
X535732Y1337362D02*
X564882D01*
X447016Y1248646D02*
X535732Y1337362D01*
X447016Y1242543D02*
Y1248646D01*
X439102Y1234630D02*
X447016Y1242543D01*
X433000Y1234630D02*
X439102D01*
X504567Y1488740D02*
X520315D01*
X481102Y1465275D02*
X504567Y1488740D01*
X481102Y1449527D02*
Y1465275D01*
X433000Y1401425D02*
X481102Y1449527D01*
X433000Y1363370D02*
Y1401425D01*
X675118Y1337362D02*
X729409D01*
X885000Y1308366D02*
X886516Y1306850D01*
X885000Y1308366D02*
Y1355138D01*
X1163661Y1537480D02*
X1325000D01*
X1050394Y1428150D02*
X1054331D01*
X1163661Y1537480D01*
X1034803Y1412559D02*
X1050394Y1428150D01*
X1034803Y1408622D02*
Y1412559D01*
X1910000Y3080000D02*
X2480000D01*
X2565000Y2685000D02*
Y3100000D01*
X2300000Y3365000D02*
X2565000Y3100000D01*
X2020000Y2390000D02*
X2098465Y2468465D01*
X2165000D01*
X1965000Y2390000D02*
X2020000D01*
X1867661Y2321716D02*
Y2398284D01*
X445433Y626500D02*
X475433Y596500D01*
X500000D01*
X105000Y2810000D02*
X715000Y3420000D01*
X2415000D01*
X443464Y626500D02*
X445433D01*
X347087Y1488740D02*
X362835D01*
X323622Y1465275D02*
X347087Y1488740D01*
X323622Y1439606D02*
Y1465275D01*
X286969Y1402953D02*
X323622Y1439606D01*
X260000Y1402953D02*
X286969D01*
X564882Y1382638D02*
Y1459921D01*
X536063Y1488740D02*
X564882Y1459921D01*
X520315Y1488740D02*
X536063D01*
X819803Y1425748D02*
X866358D01*
X885000Y1407106D01*
X1010551Y1585000D02*
X1175000Y1749449D01*
X1010000Y1584449D02*
X1010551Y1585000D01*
X1010000Y1582480D02*
Y1584449D01*
X1175000Y1749449D02*
Y2085000D01*
X1215000Y2445000D02*
X1456693D01*
X1175000Y2485000D02*
X1215000Y2445000D01*
X1193227Y2755000D02*
X1442008D01*
X1175000Y2685000D02*
X1179369Y2689369D01*
Y2741142D01*
X1193227Y2755000D01*
X1175000Y2585000D02*
X1510332D01*
X1065000D02*
X1175000D01*
X1025000Y2545000D02*
X1065000Y2585000D01*
X886516Y1408622D02*
X960000D01*
X885000Y1407106D02*
X886516Y1408622D01*
X187630Y539370D02*
X254567D01*
X141000Y586000D02*
X187630Y539370D01*
X689378Y773543D02*
X697307Y781472D01*
X689378Y700895D02*
Y773543D01*
X580000Y1049213D02*
Y1171000D01*
Y1049213D02*
X629212Y1000000D01*
X258938Y543741D02*
Y593661D01*
X312008Y1002244D02*
X314252Y1000000D01*
X312008Y1002244D02*
Y1172008D01*
X286969Y1197047D02*
X312008Y1172008D01*
X260000Y1197047D02*
X286969D01*
X2472285Y2497286D02*
Y2677715D01*
X2465000Y2685000D02*
X2472285Y2677715D01*
X1442008Y2755000D02*
X1451693Y2745315D01*
Y2730000D02*
Y2745315D01*
X900000Y1645000D02*
X960000Y1585000D01*
Y1408622D02*
Y1585000D01*
X2345000Y2474803D02*
X2453273D01*
X2468470Y2490000D01*
X2165405Y2690000D02*
Y2812159D01*
Y2602841D02*
Y2690000D01*
X2360000D01*
X2162564Y2600000D02*
X2165405Y2602841D01*
Y2812159D02*
X2168246Y2815000D01*
X1875945Y2390000D02*
X1965000D01*
Y2300000D02*
Y2390000D01*
X1855945Y2310000D02*
X1867661Y2321716D01*
X1864173Y2401772D02*
X1867661Y2398284D01*
X1760000Y2310000D02*
X1855945D01*
X1580000Y2970000D02*
Y3080000D01*
Y2970000D02*
X1645000Y2905000D01*
X2017627D01*
X300000Y2745000D02*
X900000D01*
X300000Y2645000D02*
X900000D01*
X300000Y1845000D02*
X900000D01*
X300000Y2545000D02*
X900000D01*
Y1845000D02*
Y2545000D01*
X300000Y1745000D02*
X900000D01*
X300000Y1645000D02*
X900000D01*
X1738032Y2409567D02*
X1740000Y2407599D01*
X1621968Y2409567D02*
X1738032D01*
X1620000Y2411535D02*
X1621968Y2409567D01*
X1745827Y2401772D02*
X1864173D01*
X1740000Y2407599D02*
X1745827Y2401772D01*
X1543307Y2421221D02*
Y2445000D01*
Y2421221D02*
X1552992Y2411535D01*
X1620000D01*
D56*
X2635157Y1984803D02*
Y2005903D01*
X2719803Y1900158D02*
X2774422D01*
X2754737Y1880472D02*
X2774594Y1900329D01*
X2789452Y1860787D02*
X2792109Y1858131D01*
X2719803Y1860787D02*
X2789452D01*
X2774594Y1900329D02*
X2775754Y1901489D01*
X2719803Y1880472D02*
X2754737D01*
X2719803Y1919842D02*
X2760000D01*
X2764338Y1939528D02*
X2770303Y1945492D01*
Y1947402D01*
X2719803Y1939528D02*
X2764338D01*
X2712000Y2051544D02*
Y2109358D01*
X2695202Y2034746D02*
X2712000Y2051544D01*
X2695202Y1985000D02*
Y2034746D01*
X2694291Y1985000D02*
X2712303D01*
X2644948Y2085000D02*
X2695202Y2034746D01*
X2669746Y2032581D02*
X2674528Y2027800D01*
X2669746Y2032581D02*
Y2034746D01*
X2650604Y2021738D02*
X2655000Y2017342D01*
X2650604Y2021738D02*
Y2023903D01*
X2625263Y2085000D02*
X2644948D01*
X2655000Y1984961D02*
Y2017342D01*
X2674528Y1984803D02*
Y2027800D01*
X2595787Y2055525D02*
X2625263Y2085000D01*
X2635157Y2049036D02*
Y2067000D01*
X2290000Y1740000D02*
Y1787882D01*
X2426000Y1811882D02*
X2609457D01*
X2390000Y1730000D02*
Y1775882D01*
X2426000Y1811882D01*
X2528058Y1835197D02*
X2595787D01*
X2520743Y1827882D02*
X2528058Y1835197D01*
X2615315Y1826420D02*
X2615394Y1826499D01*
X2330000Y1827882D02*
X2520743D01*
X2609457Y1811882D02*
X2615315Y1817740D01*
X2505882Y1795882D02*
X2616084D01*
X2615315Y1817740D02*
Y1826420D01*
X2615394Y1826499D02*
Y1828386D01*
X2490000Y1780000D02*
X2505882Y1795882D01*
X2290000Y1787882D02*
X2330000Y1827882D01*
X2616084Y1795882D02*
X2635079Y1814876D01*
X2514116Y1843882D02*
X2531021Y1860787D01*
X2210000Y1843882D02*
X2514116D01*
X2635079Y1835118D02*
X2635157Y1835197D01*
X2635079Y1814876D02*
Y1835118D01*
X2654843Y1794842D02*
Y1835197D01*
X2590000Y1730000D02*
X2654843Y1794842D01*
X2690000Y1730000D02*
Y1735953D01*
X2674528Y1751426D02*
Y1835197D01*
Y1751426D02*
X2690000Y1735953D01*
X2590000Y1650000D02*
Y1730000D01*
X2190000D02*
Y1823882D01*
X2490000Y1730000D02*
Y1780000D01*
X2190000Y1823882D02*
X2210000Y1843882D01*
X2531021Y1860787D02*
X2570197D01*
X2595787Y1984803D02*
Y2055525D01*
X2615472Y2029351D02*
X2635157Y2049036D01*
X2694213Y1984921D02*
X2694291Y1985000D01*
X2694213Y1984803D02*
Y1984921D01*
X2719803Y1959213D02*
Y1977500D01*
X2712303Y1985000D02*
X2719803Y1977500D01*
X2615472Y1984803D02*
Y2029351D01*
X2654843Y1984803D02*
X2655000Y1984961D01*
X2450590Y2030000D02*
X2510000D01*
X2694213Y1835197D02*
X2719803D01*
D57*
X745000Y1421852D02*
Y1425748D01*
X726909Y1403762D02*
X745000Y1421852D01*
X675492Y1383012D02*
X689299D01*
X710049Y1403762D02*
X726909D01*
X689299Y1383012D02*
X710049Y1403762D01*
X675118Y1382638D02*
X675492Y1383012D01*
X2460000Y1876535D02*
X2510000D01*
X2789303Y1835197D02*
X2809500Y1815000D01*
X2760000Y1835197D02*
X2789303D01*
X2719803D02*
X2760000D01*
Y1808000D02*
Y1835197D01*
X2380000Y1876535D02*
X2460000D01*
D58*
X2908746Y1998071D02*
X3059898D01*
X2901717Y2005100D02*
Y2023540D01*
Y2005100D02*
X2908746Y1998071D01*
X2306535Y1943465D02*
X2380000D01*
X2300000Y1950000D02*
X2306535Y1943465D01*
X2323194Y2030000D02*
X2399409D01*
X2315000Y2038194D02*
X2323194Y2030000D01*
X3059898Y1998071D02*
X3062968Y1995001D01*
X2890000Y2031319D02*
X2893937D01*
X2901717Y2023540D01*
X2959410Y1893819D02*
X2960000Y1894409D01*
X2959410Y1835000D02*
Y1893819D01*
X2463937Y1939528D02*
X2570197D01*
X2460000Y1943465D02*
X2463937Y1939528D01*
X2380000Y1943465D02*
X2460000D01*
X2570197Y1919842D02*
Y1939528D01*
Y1900158D02*
Y1919842D01*
Y1939528D02*
Y1959213D01*
D59*
X2854574Y658500D02*
Y855426D01*
X2790000Y920000D02*
X2854574Y855426D01*
X2530000Y830000D02*
X2620000Y920000D01*
X2790000D01*
X2672992Y212441D02*
X2849983Y389432D01*
Y446000D01*
X2865483Y461500D01*
X2870000D01*
X2530000Y212441D02*
Y430000D01*
X2730000D01*
X2510000Y212441D02*
X2530000D01*
D60*
X257599Y340660D02*
Y458661D01*
X195000Y278062D02*
X257599Y340660D01*
X195000Y205000D02*
Y278062D01*
D61*
X2583861Y1921672D02*
D03*
D62*
X1045689Y758602D02*
D03*
D63*
X1580000Y1537500D02*
D03*
D64*
X1567500Y1215000D02*
D03*
D65*
X300000Y1645000D02*
D03*
Y1745000D02*
D03*
Y2645000D02*
D03*
Y1845000D02*
D03*
Y2745000D02*
D03*
X900000Y1745000D02*
D03*
Y1845000D02*
D03*
X300000Y2545000D02*
D03*
X900000D02*
D03*
Y2745000D02*
D03*
Y2645000D02*
D03*
D66*
Y1645000D02*
D03*
D67*
X133381Y480000D02*
D03*
Y680000D02*
D03*
D68*
X2730000Y830000D02*
D03*
D69*
Y730000D02*
D03*
Y430000D02*
D03*
X2530000D02*
D03*
Y730000D02*
D03*
Y830000D02*
D03*
X2190000Y1020000D02*
D03*
X1559252Y748000D02*
D03*
X1248465Y1010000D02*
D03*
X1515000Y2585000D02*
D03*
X2712000Y2270000D02*
D03*
X431604Y343197D02*
D03*
X1408465Y1010000D02*
D03*
X2955000Y2485000D02*
D03*
X1965000Y2300000D02*
D03*
X1950000Y2645000D02*
D03*
X2479571Y2305000D02*
D03*
X2210000Y1990000D02*
D03*
X580000Y1160000D02*
D03*
X2816535Y2170000D02*
D03*
X2710000Y1020000D02*
D03*
X1480000Y502165D02*
D03*
X1888500Y281299D02*
D03*
D70*
X1175000Y2485000D02*
D03*
Y2685000D02*
D03*
Y2585000D02*
D03*
Y2185000D02*
D03*
D71*
Y2085000D02*
D03*
D72*
X195000Y205000D02*
D03*
Y3280000D02*
D03*
X3010000D02*
D03*
Y205000D02*
D03*
D73*
X2672992Y212441D02*
D03*
D74*
X2510000D02*
D03*
D75*
X2334996D02*
D03*
D76*
X2565000Y2685000D02*
D03*
X2365000D02*
D03*
X2465000D02*
D03*
D77*
X392992Y1000000D02*
D03*
X471732D02*
D03*
X314252D02*
D03*
X707953D02*
D03*
X786693D02*
D03*
X550472D02*
D03*
X629212D02*
D03*
D78*
X235512D02*
D03*
D79*
X667029Y3143305D02*
D03*
D80*
X765454D02*
D03*
X863880D02*
D03*
X962305D02*
D03*
D81*
X1910000Y3080000D02*
D03*
X1840000Y3150000D02*
D03*
X1980000D02*
D03*
X1250000Y3080000D02*
D03*
X1180000Y3150000D02*
D03*
X1320000D02*
D03*
X1580000Y3080000D02*
D03*
X1510000Y3150000D02*
D03*
X1650000D02*
D03*
D82*
X400000Y850000D02*
D03*
D83*
Y825000D02*
D03*
D84*
X2603661Y1910000D02*
D03*
X2645000Y1868661D02*
D03*
Y1910000D02*
D03*
X2686339D02*
D03*
X2645000Y1951339D02*
D03*
D85*
X1365000Y874000D02*
D03*
X1159777Y797373D02*
D03*
X1083965Y960000D02*
D03*
X759098Y849304D02*
D03*
X2789303Y1977500D02*
D03*
X2113087Y2770000D02*
D03*
X553282Y848402D02*
D03*
X447244Y815000D02*
D03*
X550472Y773598D02*
D03*
X1992598Y502598D02*
D03*
X1642569Y722000D02*
D03*
X2415276Y460000D02*
D03*
X1160000Y1115748D02*
D03*
X965346Y1308366D02*
D03*
X1947778Y804820D02*
D03*
X2924500Y1230000D02*
D03*
X2510000Y1876535D02*
D03*
X288000Y729000D02*
D03*
X2760000Y1808000D02*
D03*
X2480000Y3080000D02*
D03*
X2080000Y2370000D02*
D03*
X2399409Y2164685D02*
D03*
X3019646Y2041162D02*
D03*
X2873465Y1756500D02*
D03*
X1725000Y375000D02*
D03*
X883465Y467000D02*
D03*
X540000Y544961D02*
D03*
X621535Y430360D02*
D03*
X2855000Y2433000D02*
D03*
X2785566Y2617664D02*
D03*
X2710000Y2435000D02*
D03*
X352756Y814000D02*
D03*
X400000Y581000D02*
D03*
X1815000Y2570000D02*
D03*
X1561929Y2825000D02*
D03*
X1637824D02*
D03*
X1715000D02*
D03*
X1805000D02*
D03*
X1865000D02*
D03*
X1405000Y2340000D02*
D03*
X1500000D02*
D03*
X1630000D02*
D03*
X1600000Y2570000D02*
D03*
X260277Y595000D02*
D03*
X2295000Y2475000D02*
D03*
X2395000Y2400000D02*
D03*
X1659755Y2570000D02*
D03*
X1725591D02*
D03*
X1160000Y950000D02*
D03*
X1760000Y2310000D02*
D03*
X2959410Y1835000D02*
D03*
X2920000Y1945000D02*
D03*
X2841768Y2085000D02*
D03*
X2510000Y2030000D02*
D03*
X2815000Y2400000D02*
D03*
D86*
X2635157Y2005903D02*
D03*
X2760000Y1920000D02*
D03*
X2669746Y2034746D02*
D03*
X2650604Y2023903D02*
D03*
X2635157Y2067000D02*
D03*
X2770303Y1947402D02*
D03*
X453475Y939254D02*
D03*
X2792109Y1858131D02*
D03*
%TF.MD5,ac114d0ac60252278f89fb1ae242a4ff*%
M02*
