G04*
G04 #@! TF.GenerationSoftware,Altium Limited,Altium Designer,20.0.11 (256)*
G04*
G04 Layer_Color=8388736*
%FSLAX25Y25*%
%MOIN*%
G70*
G01*
G75*
%ADD14R,0.21900X0.24800*%
%ADD15R,0.07300X0.08500*%
%ADD19C,0.05500*%
%ADD20R,0.06706X0.05918*%
%ADD21R,0.04776X0.06587*%
%ADD22R,0.06902X0.04540*%
%ADD23R,0.08300X0.08300*%
%ADD24C,0.08300*%
%ADD25C,0.13300*%
D14*
X113500Y61475D02*
D03*
D15*
X122500Y34375D02*
D03*
X104500D02*
D03*
D19*
X86232Y42000D02*
X86175Y42995D01*
X86005Y43978D01*
X85724Y44934D01*
X85336Y45853D01*
X84846Y46721D01*
X84260Y47528D01*
X83586Y48262D01*
X82832Y48915D01*
X82009Y49478D01*
X81127Y49943D01*
X80198Y50305D01*
X79234Y50558D01*
X78247Y50700D01*
X77251Y50729D01*
X76257Y50643D01*
X75280Y50445D01*
X74332Y50137D01*
X73425Y49723D01*
X72571Y49208D01*
X71782Y48599D01*
X71067Y47904D01*
X70436Y47133D01*
X69897Y46294D01*
X69457Y45399D01*
X69122Y44460D01*
X68896Y43489D01*
X68782Y42498D01*
Y41502D01*
X68896Y40511D01*
X69122Y39540D01*
X69457Y38601D01*
X69897Y37706D01*
X70436Y36867D01*
X71067Y36096D01*
X71782Y35401D01*
X72571Y34792D01*
X73425Y34277D01*
X74332Y33863D01*
X75280Y33555D01*
X76257Y33357D01*
X77251Y33271D01*
X78247Y33300D01*
X79234Y33442D01*
X80198Y33695D01*
X81127Y34057D01*
X82009Y34522D01*
X82832Y35085D01*
X83586Y35738D01*
X84260Y36472D01*
X84846Y37279D01*
X85336Y38147D01*
X85724Y39066D01*
X86005Y40022D01*
X86175Y41005D01*
X86232Y42000D01*
D20*
X138000Y68240D02*
D03*
Y60760D02*
D03*
D21*
X148358Y41000D02*
D03*
X140642D02*
D03*
D22*
X117500Y10874D02*
D03*
Y20126D02*
D03*
D23*
X45000Y17500D02*
D03*
Y67500D02*
D03*
D24*
X28701Y17500D02*
D03*
Y67500D02*
D03*
D25*
X11200Y17500D02*
D03*
Y67500D02*
D03*
M02*
