G04*
G04 #@! TF.GenerationSoftware,Altium Limited,Altium Designer,20.0.11 (256)*
G04*
G04 Layer_Color=65535*
%FSLAX25Y25*%
%MOIN*%
G70*
G01*
G75*
%ADD10C,0.00787*%
%ADD11C,0.01000*%
%ADD12C,0.00500*%
%ADD13C,0.00700*%
G36*
X37309Y56287D02*
X37461Y56232D01*
X37628Y56148D01*
X37711Y56079D01*
X37795Y56010D01*
X37878Y55926D01*
X37947Y55815D01*
X53437Y28971D01*
X53451Y28943D01*
X53479Y28888D01*
X53507Y28777D01*
X53548Y28652D01*
X53562Y28499D01*
X53548Y28333D01*
X53521Y28166D01*
X53437Y27986D01*
X53423Y27972D01*
X53382Y27916D01*
X53312Y27833D01*
X53215Y27750D01*
X53104Y27653D01*
X52951Y27583D01*
X52799Y27528D01*
X52618Y27500D01*
X21555Y27500D01*
X21486Y27514D01*
X21388Y27528D01*
X21263Y27556D01*
X21138Y27625D01*
X20986Y27708D01*
X20861Y27819D01*
X20736Y27986D01*
X20722Y28014D01*
X20708Y28069D01*
X20680Y28152D01*
X20653Y28277D01*
X20639Y28430D01*
Y28596D01*
X20667Y28777D01*
X20736Y28971D01*
X36254Y55815D01*
X36268Y55829D01*
X36295Y55871D01*
X36351Y55940D01*
X36420Y56010D01*
X36531Y56093D01*
X36642Y56176D01*
X36795Y56245D01*
X36962Y56315D01*
X37170D01*
X37309Y56287D01*
D02*
G37*
%LPC*%
G36*
X37100Y53206D02*
X23914Y30026D01*
X50259Y30026D01*
X37100Y53206D01*
D02*
G37*
%LPD*%
G36*
X35935Y39700D02*
X39960Y41324D01*
X37947Y33801D01*
X38697D01*
X36962Y31192D01*
X36018Y33913D01*
X36753D01*
X38169Y38784D01*
X34213Y37188D01*
X36753Y46183D01*
X38766D01*
X35935Y39700D01*
D02*
G37*
D10*
X152500Y41000D02*
X151713D01*
X152500D01*
X139870Y64224D02*
Y64854D01*
X136130Y64224D02*
Y64854D01*
X100250Y67500D02*
X101074D01*
X125926D02*
X126750D01*
Y43000D02*
Y67500D01*
X100250Y43000D02*
X126750D01*
X100250D02*
Y67500D01*
X120158Y14319D02*
Y16681D01*
X114842Y14319D02*
Y16681D01*
D11*
X144500Y38000D02*
Y44000D01*
X133894Y30146D02*
Y51646D01*
Y30146D02*
X155894D01*
Y51646D01*
X133894D02*
X155894D01*
D12*
X140051Y45153D02*
X148949D01*
X140051Y36847D02*
X148949D01*
D13*
X142796Y66479D02*
Y70478D01*
X144796D01*
X145462Y69812D01*
Y68479D01*
X144796Y67813D01*
X142796D01*
X144129D02*
X145462Y66479D01*
X146795D02*
X148128D01*
X147461D01*
Y70478D01*
X146795Y69812D01*
X126500Y16833D02*
X125833Y17499D01*
X124501D01*
X123834Y16833D01*
Y14167D01*
X124501Y13501D01*
X125833D01*
X126500Y14167D01*
X127833Y13501D02*
X129166D01*
X128499D01*
Y17499D01*
X127833Y16833D01*
X127567Y74386D02*
Y71054D01*
X128234Y70387D01*
X129567D01*
X130233Y71054D01*
Y74386D01*
X131566Y70387D02*
X132899D01*
X132232D01*
Y74386D01*
X131566Y73720D01*
X142334Y35499D02*
Y31501D01*
X144334D01*
X145000Y32167D01*
Y34833D01*
X144334Y35499D01*
X142334D01*
X146333Y31501D02*
X147666D01*
X146999D01*
Y35499D01*
X146333Y34833D01*
X140229Y22146D02*
Y26145D01*
X141562Y24812D01*
X142895Y26145D01*
Y22146D01*
X144228D02*
Y26145D01*
X146227D01*
X146893Y25479D01*
Y24146D01*
X146227Y23479D01*
X144228D01*
X148226Y22146D02*
X149559D01*
X148893D01*
Y26145D01*
X148226Y25479D01*
M02*
