G04*
G04 #@! TF.GenerationSoftware,Altium Limited,Altium Designer,20.0.10 (225)*
G04*
G04 Layer_Color=65535*
%FSLAX25Y25*%
%MOIN*%
G70*
G01*
G75*
%ADD10C,0.00787*%
%ADD11C,0.00500*%
%ADD12C,0.01000*%
%ADD13C,0.00700*%
G36*
X144904Y17894D02*
X144981Y17866D01*
X145064Y17824D01*
X145106Y17789D01*
X145147Y17755D01*
X145189Y17713D01*
X145224Y17658D01*
X152969Y4236D01*
X152976Y4222D01*
X152989Y4194D01*
X153003Y4138D01*
X153024Y4076D01*
X153031Y4000D01*
X153024Y3916D01*
X153010Y3833D01*
X152969Y3743D01*
X152962Y3736D01*
X152941Y3708D01*
X152906Y3667D01*
X152858Y3625D01*
X152802Y3576D01*
X152726Y3542D01*
X152649Y3514D01*
X152559Y3500D01*
X137027D01*
X136993Y3507D01*
X136944Y3514D01*
X136882Y3528D01*
X136819Y3562D01*
X136743Y3604D01*
X136680Y3660D01*
X136618Y3743D01*
X136611Y3757D01*
X136604Y3785D01*
X136590Y3826D01*
X136576Y3889D01*
X136569Y3965D01*
Y4048D01*
X136583Y4138D01*
X136618Y4236D01*
X144377Y17658D01*
X144384Y17664D01*
X144398Y17685D01*
X144425Y17720D01*
X144460Y17755D01*
X144516Y17796D01*
X144571Y17838D01*
X144648Y17873D01*
X144731Y17907D01*
X144835D01*
X144904Y17894D01*
D02*
G37*
%LPC*%
G36*
X144800Y16353D02*
X138207Y4763D01*
X151379D01*
X144800Y16353D01*
D02*
G37*
%LPD*%
G36*
X144217Y9600D02*
X146230Y10412D01*
X145224Y6651D01*
X145598D01*
X144731Y5346D01*
X144259Y6706D01*
X144627D01*
X145335Y9142D01*
X143357Y8344D01*
X144627Y12841D01*
X145633D01*
X144217Y9600D01*
D02*
G37*
D10*
X152500Y41000D02*
G03*
X152500Y41000I-394J0D01*
G01*
X100250Y43000D02*
Y67500D01*
Y43000D02*
X126750D01*
Y67500D01*
X125926D02*
X126750D01*
X100250D02*
X101074D01*
X114842Y14319D02*
Y16681D01*
X120158Y14319D02*
Y16681D01*
D11*
X134200Y63300D02*
Y65700D01*
X141800Y63300D02*
Y65700D01*
X140051Y36847D02*
X148949D01*
X140051Y45153D02*
X148949D01*
D12*
X133500Y52000D02*
X155500D01*
Y30500D02*
Y52000D01*
X133500Y30500D02*
X155500D01*
X133500D02*
Y52000D01*
D13*
X139835Y22501D02*
Y26499D01*
X141168Y25166D01*
X142501Y26499D01*
Y22501D01*
X143833D02*
Y26499D01*
X145833D01*
X146499Y25833D01*
Y24500D01*
X145833Y23833D01*
X143833D01*
X147832Y22501D02*
X149165D01*
X148499D01*
Y26499D01*
X147832Y25833D01*
X145334Y58999D02*
Y55001D01*
X147334D01*
X148000Y55667D01*
Y58333D01*
X147334Y58999D01*
X145334D01*
X149333Y55001D02*
X150666D01*
X149999D01*
Y58999D01*
X149333Y58333D01*
X92834Y73499D02*
Y70167D01*
X93501Y69501D01*
X94834D01*
X95500Y70167D01*
Y73499D01*
X96833Y69501D02*
X98166D01*
X97499D01*
Y73499D01*
X96833Y72833D01*
X136334Y73501D02*
Y77499D01*
X138333D01*
X139000Y76833D01*
Y75500D01*
X138333Y74834D01*
X136334D01*
X137667D02*
X139000Y73501D01*
X140333D02*
X141666D01*
X140999D01*
Y77499D01*
X140333Y76833D01*
X106667Y15500D02*
X106001Y14833D01*
Y13501D01*
X106667Y12834D01*
X109333D01*
X109999Y13501D01*
Y14833D01*
X109333Y15500D01*
X109999Y16833D02*
Y18166D01*
Y17499D01*
X106001D01*
X106667Y16833D01*
M02*
