G04*
G04 #@! TF.GenerationSoftware,Altium Limited,Altium Designer,20.0.10 (225)*
G04*
G04 Layer_Color=32896*
%FSLAX25Y25*%
%MOIN*%
G70*
G01*
G75*
%ADD12C,0.01000*%
%ADD13C,0.00700*%
%ADD32C,0.00600*%
%ADD33C,0.00800*%
G36*
X52265Y50527D02*
X52333D01*
Y50458D01*
X52402D01*
Y50389D01*
X52471D01*
Y50321D01*
X52540D01*
Y50252D01*
X52609D01*
Y50183D01*
X52678D01*
Y50114D01*
X52747D01*
Y50045D01*
X52816D01*
Y49976D01*
X52885D01*
Y49907D01*
X52954D01*
Y49838D01*
X53022D01*
Y49769D01*
X53091D01*
Y49700D01*
X53160D01*
Y49632D01*
X53229D01*
Y49563D01*
X53298D01*
Y49494D01*
X53367D01*
Y49425D01*
X53436D01*
Y49356D01*
X53505D01*
Y49287D01*
X53574D01*
Y49218D01*
X53642D01*
Y49149D01*
X53711D01*
Y49081D01*
X53780D01*
Y49012D01*
X53849D01*
Y48943D01*
X53918D01*
Y48874D01*
X53987D01*
Y48805D01*
X54056D01*
Y48736D01*
X54125D01*
Y48667D01*
X54194D01*
Y48598D01*
X54263D01*
Y48529D01*
X54331D01*
Y48460D01*
X54400D01*
Y48392D01*
X54469D01*
Y48323D01*
X54538D01*
Y48254D01*
X54607D01*
Y48185D01*
X54676D01*
Y48116D01*
X54745D01*
Y48047D01*
X54814D01*
Y47978D01*
X54883D01*
Y47909D01*
X54952D01*
Y47840D01*
X55020D01*
Y47771D01*
X55089D01*
Y47703D01*
X55158D01*
Y47634D01*
X55227D01*
Y47565D01*
X55296D01*
Y47496D01*
X55365D01*
Y47427D01*
X55434D01*
Y47358D01*
X55503D01*
Y47289D01*
X55572D01*
Y47220D01*
X55641D01*
Y47151D01*
X55709D01*
Y47082D01*
X55778D01*
Y47014D01*
X55847D01*
Y46945D01*
X55916D01*
Y46876D01*
X55985D01*
Y46807D01*
X56054D01*
Y46738D01*
X56123D01*
Y46669D01*
X56192D01*
Y46600D01*
X56261D01*
Y46531D01*
X56329D01*
Y46463D01*
X56398D01*
Y46394D01*
X56467D01*
Y46325D01*
X56536D01*
Y46256D01*
X56605D01*
Y46187D01*
X56674D01*
Y46118D01*
X56743D01*
Y46049D01*
X56674D01*
Y45980D01*
Y45911D01*
Y45842D01*
X56743D01*
Y45774D01*
X56674D01*
Y45705D01*
Y45636D01*
Y45567D01*
X56743D01*
Y45498D01*
X56674D01*
Y45429D01*
Y45360D01*
Y45291D01*
X56743D01*
Y45222D01*
X56674D01*
Y45153D01*
Y45085D01*
Y45016D01*
X56743D01*
Y44947D01*
X56674D01*
Y44878D01*
Y44809D01*
Y44740D01*
X56743D01*
Y44671D01*
X56674D01*
Y44602D01*
Y44533D01*
Y44464D01*
X56743D01*
Y44396D01*
X56674D01*
Y44327D01*
Y44258D01*
Y44189D01*
X56743D01*
Y44120D01*
X56674D01*
Y44051D01*
Y43982D01*
Y43913D01*
X56743D01*
Y43845D01*
X56674D01*
Y43776D01*
Y43707D01*
Y43638D01*
X56743D01*
Y43569D01*
X56674D01*
Y43500D01*
Y43431D01*
Y43362D01*
X56743D01*
Y43293D01*
X56674D01*
Y43224D01*
Y43156D01*
Y43087D01*
X56743D01*
Y43018D01*
X56674D01*
Y42949D01*
Y42880D01*
Y42811D01*
X56743D01*
Y42742D01*
X56674D01*
Y42673D01*
Y42604D01*
Y42535D01*
X56743D01*
Y42467D01*
X56674D01*
Y42398D01*
Y42329D01*
Y42260D01*
X56743D01*
Y42191D01*
X56674D01*
Y42122D01*
Y42053D01*
Y41984D01*
X56743D01*
Y41915D01*
X56674D01*
Y41846D01*
Y41778D01*
Y41709D01*
X56743D01*
Y41640D01*
X56674D01*
Y41571D01*
Y41502D01*
Y41433D01*
X56743D01*
Y41364D01*
X56674D01*
Y41295D01*
Y41227D01*
Y41158D01*
X56743D01*
Y41089D01*
X56674D01*
Y41020D01*
Y40951D01*
Y40882D01*
X56743D01*
Y40813D01*
X56674D01*
Y40744D01*
Y40675D01*
Y40606D01*
X56743D01*
Y40538D01*
X56674D01*
Y40469D01*
Y40400D01*
Y40331D01*
X56743D01*
Y40262D01*
X56674D01*
Y40193D01*
Y40124D01*
Y40055D01*
X56743D01*
Y39986D01*
X56674D01*
Y39917D01*
Y39849D01*
Y39780D01*
X56743D01*
Y39711D01*
X56674D01*
Y39642D01*
Y39573D01*
Y39504D01*
X56743D01*
Y39435D01*
X56674D01*
Y39366D01*
Y39297D01*
Y39228D01*
X56743D01*
Y39160D01*
X56674D01*
Y39091D01*
Y39022D01*
Y38953D01*
X56743D01*
Y38884D01*
X56674D01*
Y38815D01*
Y38746D01*
Y38677D01*
X56743D01*
Y38609D01*
X56674D01*
Y38540D01*
Y38471D01*
Y38402D01*
X56743D01*
Y38333D01*
X56674D01*
Y38264D01*
Y38195D01*
Y38126D01*
X56743D01*
Y38057D01*
X56674D01*
Y37988D01*
Y37920D01*
Y37851D01*
X56743D01*
Y37782D01*
X56674D01*
Y37713D01*
Y37644D01*
Y37575D01*
X56743D01*
Y37506D01*
X56674D01*
Y37437D01*
Y37368D01*
Y37299D01*
X56743D01*
Y37231D01*
X56674D01*
Y37162D01*
Y37093D01*
Y37024D01*
X56743D01*
Y36955D01*
X56674D01*
Y36886D01*
Y36817D01*
Y36748D01*
X56743D01*
Y36679D01*
X56674D01*
Y36610D01*
Y36542D01*
Y36473D01*
X56743D01*
Y36404D01*
X56674D01*
Y36335D01*
Y36266D01*
Y36197D01*
X56743D01*
Y36128D01*
X56674D01*
Y36059D01*
Y35991D01*
Y35922D01*
X56743D01*
Y35853D01*
X56674D01*
Y35784D01*
Y35715D01*
Y35646D01*
X56743D01*
Y35577D01*
X56674D01*
Y35508D01*
Y35439D01*
Y35370D01*
X56743D01*
Y35302D01*
X56674D01*
Y35233D01*
X56743D01*
Y35164D01*
X56812D01*
Y35095D01*
X56881D01*
Y35026D01*
X56950D01*
Y34957D01*
X57018D01*
Y34888D01*
X57087D01*
Y34819D01*
X57156D01*
Y34750D01*
X57225D01*
Y34681D01*
X57294D01*
Y34613D01*
X57363D01*
Y34544D01*
X57432D01*
Y34475D01*
X57501D01*
Y34406D01*
X57569D01*
Y34337D01*
X57638D01*
Y34268D01*
X57707D01*
Y34199D01*
X57776D01*
Y34130D01*
X57845D01*
Y34061D01*
X57914D01*
Y33992D01*
X57845D01*
Y33924D01*
X57776D01*
Y33855D01*
X57707D01*
Y33786D01*
X57638D01*
Y33717D01*
X57569D01*
Y33648D01*
X57501D01*
Y33579D01*
X57432D01*
Y33510D01*
X57363D01*
Y33441D01*
X57294D01*
Y33372D01*
X57225D01*
Y33304D01*
X57156D01*
Y33235D01*
X57087D01*
Y33166D01*
X57018D01*
Y33097D01*
X56950D01*
Y33028D01*
X56881D01*
Y32959D01*
X56812D01*
Y32890D01*
X56743D01*
Y32821D01*
X56674D01*
Y32752D01*
X56605D01*
Y32684D01*
X56536D01*
Y32615D01*
X56467D01*
Y32546D01*
X56398D01*
Y32477D01*
X56329D01*
Y32408D01*
X56261D01*
Y32339D01*
X56192D01*
Y32270D01*
X56123D01*
Y32201D01*
X56054D01*
Y32132D01*
X55985D01*
Y32063D01*
X55916D01*
Y31995D01*
X55847D01*
Y31926D01*
X55778D01*
Y31857D01*
X55709D01*
Y31788D01*
X55641D01*
Y31719D01*
X55572D01*
Y31650D01*
X55503D01*
Y31581D01*
X55434D01*
Y31512D01*
X55365D01*
Y31443D01*
X55296D01*
Y31374D01*
X55227D01*
Y31306D01*
X55158D01*
Y31374D01*
X55089D01*
Y31443D01*
X55020D01*
Y31512D01*
X54952D01*
Y31581D01*
X54883D01*
Y31650D01*
X54814D01*
Y31719D01*
X54745D01*
Y31788D01*
X54676D01*
Y31857D01*
X54607D01*
Y31926D01*
X54538D01*
Y31995D01*
X54469D01*
Y32063D01*
X54400D01*
Y32132D01*
X54331D01*
Y32201D01*
X54263D01*
Y32270D01*
X54194D01*
Y32339D01*
X54125D01*
Y32408D01*
X54056D01*
Y32477D01*
X53987D01*
Y32546D01*
X53918D01*
Y32615D01*
X53849D01*
Y32684D01*
X53780D01*
Y32752D01*
X53711D01*
Y32821D01*
X53642D01*
Y32890D01*
X53574D01*
Y32959D01*
X53505D01*
Y33028D01*
X53436D01*
Y33097D01*
X53367D01*
Y33166D01*
X53298D01*
Y33235D01*
X53229D01*
Y33304D01*
X53160D01*
Y33372D01*
X53091D01*
Y33441D01*
X53022D01*
Y33510D01*
X52954D01*
Y33579D01*
X52885D01*
Y33648D01*
X52816D01*
Y33717D01*
X52747D01*
Y33786D01*
X52678D01*
Y33855D01*
X52609D01*
Y33924D01*
X52540D01*
Y33992D01*
X52471D01*
Y34061D01*
X52540D01*
Y34130D01*
X52609D01*
Y34199D01*
X52678D01*
Y34268D01*
X52747D01*
Y34337D01*
X52816D01*
Y34406D01*
X52885D01*
Y34475D01*
X52954D01*
Y34544D01*
X53022D01*
Y34613D01*
X53091D01*
Y34681D01*
X53160D01*
Y34750D01*
X53229D01*
Y34819D01*
X53298D01*
Y34888D01*
X53367D01*
Y34957D01*
X53436D01*
Y35026D01*
X53505D01*
Y35095D01*
X53574D01*
Y35164D01*
X53642D01*
Y35233D01*
X53711D01*
Y35302D01*
X53642D01*
Y35370D01*
X53711D01*
Y35439D01*
Y35508D01*
Y35577D01*
X53642D01*
Y35646D01*
X53711D01*
Y35715D01*
Y35784D01*
Y35853D01*
X53642D01*
Y35922D01*
X53711D01*
Y35991D01*
Y36059D01*
Y36128D01*
X53642D01*
Y36197D01*
X53711D01*
Y36266D01*
Y36335D01*
Y36404D01*
X53642D01*
Y36473D01*
X53711D01*
Y36542D01*
Y36610D01*
Y36679D01*
X53642D01*
Y36748D01*
X53711D01*
Y36817D01*
Y36886D01*
Y36955D01*
X53642D01*
Y37024D01*
X53711D01*
Y37093D01*
Y37162D01*
Y37231D01*
X53642D01*
Y37299D01*
X53711D01*
Y37368D01*
Y37437D01*
Y37506D01*
X53642D01*
Y37575D01*
X53711D01*
Y37644D01*
X53642D01*
Y37713D01*
X51093D01*
Y37644D01*
X51162D01*
Y37575D01*
X51093D01*
Y37506D01*
X51162D01*
Y37437D01*
X51093D01*
Y37368D01*
X51162D01*
Y37299D01*
X51093D01*
Y37231D01*
X51162D01*
Y37162D01*
X51093D01*
Y37093D01*
X51162D01*
Y37024D01*
X51093D01*
Y36955D01*
X51162D01*
Y36886D01*
X51093D01*
Y36817D01*
X51162D01*
Y36748D01*
X51093D01*
Y36679D01*
X51162D01*
Y36610D01*
X51093D01*
Y36542D01*
X51162D01*
Y36473D01*
X51093D01*
Y36404D01*
X51162D01*
Y36335D01*
X51093D01*
Y36266D01*
X51162D01*
Y36197D01*
X51093D01*
Y36128D01*
X51162D01*
Y36059D01*
X51093D01*
Y35991D01*
X51162D01*
Y35922D01*
X51093D01*
Y35853D01*
X51162D01*
Y35784D01*
X51093D01*
Y35715D01*
X51162D01*
Y35646D01*
X51093D01*
Y35577D01*
X51162D01*
Y35508D01*
X51093D01*
Y35439D01*
X51162D01*
Y35370D01*
X51093D01*
Y35302D01*
X51162D01*
Y35233D01*
Y35164D01*
X51300D01*
Y35095D01*
Y35026D01*
X51438D01*
Y34957D01*
Y34888D01*
X51576D01*
Y34819D01*
Y34750D01*
X51714D01*
Y34681D01*
X51645D01*
Y34613D01*
X51851D01*
Y34544D01*
Y34475D01*
X51989D01*
Y34406D01*
X51920D01*
Y34337D01*
X52127D01*
Y34268D01*
Y34199D01*
X52265D01*
Y34130D01*
X52196D01*
Y34061D01*
X52402D01*
Y33992D01*
X52196D01*
Y33924D01*
X52265D01*
Y33855D01*
X52058D01*
Y33786D01*
X52127D01*
Y33717D01*
X51920D01*
Y33648D01*
X51989D01*
Y33579D01*
X51782D01*
Y33510D01*
X51851D01*
Y33441D01*
X51645D01*
Y33372D01*
X51714D01*
Y33304D01*
X51507D01*
Y33235D01*
X51576D01*
Y33166D01*
X51369D01*
Y33097D01*
X51438D01*
Y33028D01*
X51231D01*
Y32959D01*
X51300D01*
Y32890D01*
X51231D01*
Y32821D01*
X51162D01*
Y32752D01*
X51093D01*
Y32684D01*
X51025D01*
Y32752D01*
X50956D01*
Y32684D01*
X51025D01*
Y32615D01*
X50956D01*
Y32546D01*
X50887D01*
Y32477D01*
X50818D01*
Y32408D01*
X50749D01*
Y32477D01*
X50680D01*
Y32408D01*
X50749D01*
Y32339D01*
X50680D01*
Y32270D01*
X50611D01*
Y32201D01*
X50542D01*
Y32132D01*
X50473D01*
Y32201D01*
X50405D01*
Y32132D01*
X50473D01*
Y32063D01*
X50405D01*
Y31995D01*
X50336D01*
Y31926D01*
X50267D01*
Y31857D01*
X50198D01*
Y31926D01*
X50129D01*
Y31857D01*
X50198D01*
Y31788D01*
X50129D01*
Y31719D01*
X50060D01*
Y31650D01*
X49991D01*
Y31581D01*
X49922D01*
Y31512D01*
X49853D01*
Y31443D01*
X49784D01*
Y31374D01*
X49716D01*
Y31306D01*
X49647D01*
Y31374D01*
X49578D01*
Y31443D01*
X49509D01*
Y31512D01*
X49440D01*
Y31581D01*
X49371D01*
Y31650D01*
X49302D01*
Y31719D01*
X49233D01*
Y31788D01*
X49164D01*
Y31857D01*
X49095D01*
Y31926D01*
X49027D01*
Y31995D01*
X48958D01*
Y32063D01*
X48889D01*
Y32132D01*
X48820D01*
Y32201D01*
X48751D01*
Y32270D01*
X48682D01*
Y32339D01*
X48613D01*
Y32408D01*
X48544D01*
Y32477D01*
X48475D01*
Y32546D01*
X48406D01*
Y32615D01*
X48338D01*
Y32684D01*
X48269D01*
Y32752D01*
X48200D01*
Y32821D01*
X48131D01*
Y32890D01*
X48062D01*
Y32959D01*
X47993D01*
Y33028D01*
X47924D01*
Y33097D01*
X47855D01*
Y33166D01*
X47787D01*
Y33235D01*
X47718D01*
Y33304D01*
X47649D01*
Y33372D01*
X47580D01*
Y33441D01*
X47511D01*
Y33510D01*
X47442D01*
Y33579D01*
X47373D01*
Y33648D01*
X47304D01*
Y33717D01*
X47235D01*
Y33786D01*
X47166D01*
Y33855D01*
X47098D01*
Y33924D01*
X47029D01*
Y33992D01*
X46960D01*
Y34061D01*
X47029D01*
Y34130D01*
X47098D01*
Y34199D01*
X47166D01*
Y34268D01*
X47235D01*
Y34337D01*
X47304D01*
Y34406D01*
X47373D01*
Y34475D01*
X47442D01*
Y34544D01*
X47511D01*
Y34613D01*
X47580D01*
Y34681D01*
X47511D01*
Y34750D01*
X47718D01*
Y34819D01*
X47649D01*
Y34888D01*
X47855D01*
Y34957D01*
X47787D01*
Y35026D01*
X47924D01*
Y35095D01*
Y35164D01*
X48062D01*
Y35233D01*
Y35302D01*
X48131D01*
Y35370D01*
X48062D01*
Y35439D01*
X48131D01*
Y35508D01*
X48062D01*
Y35577D01*
X48131D01*
Y35646D01*
X48062D01*
Y35715D01*
X48131D01*
Y35784D01*
X48062D01*
Y35853D01*
X48131D01*
Y35922D01*
X48062D01*
Y35991D01*
X48131D01*
Y36059D01*
X48062D01*
Y36128D01*
X48131D01*
Y36197D01*
X48062D01*
Y36266D01*
X48131D01*
Y36335D01*
X48062D01*
Y36404D01*
X48131D01*
Y36473D01*
X48062D01*
Y36542D01*
X48131D01*
Y36610D01*
X48062D01*
Y36679D01*
X48131D01*
Y36748D01*
X48062D01*
Y36817D01*
X48131D01*
Y36886D01*
X48062D01*
Y36955D01*
X48131D01*
Y37024D01*
X48062D01*
Y37093D01*
X48131D01*
Y37162D01*
X48062D01*
Y37231D01*
X48131D01*
Y37299D01*
X48062D01*
Y37368D01*
X48131D01*
Y37437D01*
X48062D01*
Y37506D01*
X48131D01*
Y37575D01*
X48062D01*
Y37644D01*
X48131D01*
Y37713D01*
X48062D01*
Y37782D01*
X48131D01*
Y37851D01*
X48062D01*
Y37920D01*
X48131D01*
Y37988D01*
X48062D01*
Y38057D01*
X48131D01*
Y38126D01*
X48062D01*
Y38195D01*
X48131D01*
Y38264D01*
X48062D01*
Y38333D01*
X48131D01*
Y38402D01*
X48062D01*
Y38471D01*
X48131D01*
Y38540D01*
X48062D01*
Y38609D01*
X48131D01*
Y38677D01*
X48062D01*
Y38746D01*
X48131D01*
Y38815D01*
X48062D01*
Y38884D01*
X48131D01*
Y38953D01*
X48062D01*
Y39022D01*
X48131D01*
Y39091D01*
X48062D01*
Y39160D01*
X48131D01*
Y39228D01*
X48062D01*
Y39297D01*
X48131D01*
Y39366D01*
X48062D01*
Y39435D01*
X48131D01*
Y39504D01*
X48062D01*
Y39573D01*
X48131D01*
Y39642D01*
X48062D01*
Y39711D01*
X48131D01*
Y39780D01*
X48062D01*
Y39849D01*
X48131D01*
Y39917D01*
X48062D01*
Y39986D01*
X48131D01*
Y40055D01*
X48062D01*
Y40124D01*
X48131D01*
Y40193D01*
X48062D01*
Y40262D01*
X48131D01*
Y40331D01*
X48062D01*
Y40400D01*
X48131D01*
Y40469D01*
X48062D01*
Y40538D01*
X48131D01*
Y40606D01*
X48062D01*
Y40675D01*
X48131D01*
Y40744D01*
X48062D01*
Y40813D01*
X48131D01*
Y40882D01*
X48062D01*
Y40951D01*
X48131D01*
Y41020D01*
X48062D01*
Y41089D01*
X48131D01*
Y41158D01*
X48062D01*
Y41227D01*
X48131D01*
Y41295D01*
X48062D01*
Y41364D01*
X48131D01*
Y41433D01*
X48062D01*
Y41502D01*
X48131D01*
Y41571D01*
X48062D01*
Y41640D01*
X48131D01*
Y41709D01*
X48062D01*
Y41778D01*
X48131D01*
Y41846D01*
X48062D01*
Y41915D01*
X48131D01*
Y41984D01*
X48062D01*
Y42053D01*
X48131D01*
Y42122D01*
X48062D01*
Y42191D01*
X48131D01*
Y42260D01*
X48062D01*
Y42329D01*
X48131D01*
Y42398D01*
X48062D01*
Y42467D01*
X48131D01*
Y42535D01*
X48062D01*
Y42604D01*
X48131D01*
Y42673D01*
X48062D01*
Y42742D01*
X48131D01*
Y42811D01*
X48062D01*
Y42880D01*
X48131D01*
Y42949D01*
X48062D01*
Y43018D01*
X48131D01*
Y43087D01*
X48062D01*
Y43156D01*
X48131D01*
Y43224D01*
X48062D01*
Y43293D01*
X48131D01*
Y43362D01*
X48062D01*
Y43431D01*
X48131D01*
Y43500D01*
X48062D01*
Y43569D01*
X48131D01*
Y43638D01*
X48062D01*
Y43707D01*
X48131D01*
Y43776D01*
X48062D01*
Y43845D01*
X48131D01*
Y43913D01*
X48062D01*
Y43982D01*
X48131D01*
Y44051D01*
X48062D01*
Y44120D01*
X48131D01*
Y44189D01*
X48062D01*
Y44258D01*
X48131D01*
Y44327D01*
X48062D01*
Y44396D01*
X48131D01*
Y44464D01*
X48062D01*
Y44533D01*
X48131D01*
Y44602D01*
X48062D01*
Y44671D01*
X48131D01*
Y44740D01*
X48062D01*
Y44809D01*
X48131D01*
Y44878D01*
X48062D01*
Y44947D01*
X48131D01*
Y45016D01*
X48062D01*
Y45085D01*
X48131D01*
Y45153D01*
X48062D01*
Y45222D01*
X48131D01*
Y45291D01*
X48062D01*
Y45360D01*
X48131D01*
Y45429D01*
X48062D01*
Y45498D01*
X48131D01*
Y45567D01*
X48062D01*
Y45636D01*
X48131D01*
Y45705D01*
X48062D01*
Y45774D01*
X48131D01*
Y45842D01*
X48062D01*
Y45911D01*
X48131D01*
Y45980D01*
X48062D01*
Y46049D01*
X48131D01*
Y46118D01*
X48062D01*
Y46187D01*
X48131D01*
Y46256D01*
X48062D01*
Y46325D01*
X48131D01*
Y46394D01*
X48062D01*
Y46463D01*
X48131D01*
Y46531D01*
X48200D01*
Y46600D01*
X48269D01*
Y46669D01*
X48338D01*
Y46738D01*
X48406D01*
Y46807D01*
X48475D01*
Y46876D01*
X48544D01*
Y46945D01*
X48613D01*
Y47014D01*
X48682D01*
Y47082D01*
X48751D01*
Y47151D01*
X48820D01*
Y47220D01*
X48889D01*
Y47289D01*
X48958D01*
Y47358D01*
X49027D01*
Y47289D01*
X49095D01*
Y47358D01*
X49027D01*
Y47427D01*
X49095D01*
Y47496D01*
X49164D01*
Y47565D01*
X49233D01*
Y47634D01*
X49302D01*
Y47703D01*
X49371D01*
Y47771D01*
X49440D01*
Y47840D01*
X49509D01*
Y47909D01*
X49578D01*
Y47840D01*
X49647D01*
Y47909D01*
X49578D01*
Y47978D01*
X49647D01*
Y48047D01*
X49716D01*
Y48116D01*
X49784D01*
Y48185D01*
X49853D01*
Y48254D01*
X49922D01*
Y48323D01*
X49991D01*
Y48392D01*
X50060D01*
Y48460D01*
X50129D01*
Y48529D01*
X50198D01*
Y48598D01*
X50267D01*
Y48667D01*
X50336D01*
Y48736D01*
X50405D01*
Y48805D01*
X50473D01*
Y48874D01*
X50542D01*
Y48943D01*
X50611D01*
Y49012D01*
X50680D01*
Y48943D01*
X50749D01*
Y49012D01*
X50680D01*
Y49081D01*
X50749D01*
Y49149D01*
X50818D01*
Y49218D01*
X50887D01*
Y49287D01*
X50956D01*
Y49356D01*
X51025D01*
Y49425D01*
X51093D01*
Y49494D01*
X51162D01*
Y49563D01*
X51231D01*
Y49494D01*
X51300D01*
Y49563D01*
X51231D01*
Y49632D01*
X51300D01*
Y49700D01*
X51369D01*
Y49769D01*
X51438D01*
Y49838D01*
X51507D01*
Y49907D01*
X51576D01*
Y49976D01*
X51645D01*
Y50045D01*
X51714D01*
Y50114D01*
X51782D01*
Y50183D01*
X51851D01*
Y50252D01*
X51920D01*
Y50321D01*
X51989D01*
Y50389D01*
X52058D01*
Y50458D01*
X52127D01*
Y50527D01*
X52196D01*
Y50596D01*
X52265D01*
Y50527D01*
D02*
G37*
G36*
X33801D02*
Y50458D01*
Y50389D01*
X33870D01*
Y50321D01*
X33939D01*
Y50252D01*
Y50183D01*
Y50114D01*
X34007D01*
Y50045D01*
X34076D01*
Y49976D01*
X34007D01*
Y49907D01*
X34076D01*
Y49838D01*
X34145D01*
Y49769D01*
X34214D01*
Y49700D01*
X34145D01*
Y49632D01*
X34214D01*
Y49563D01*
X34283D01*
Y49494D01*
Y49425D01*
Y49356D01*
X34352D01*
Y49287D01*
Y49218D01*
X34421D01*
Y49149D01*
Y49081D01*
X34490D01*
Y49012D01*
X34421D01*
Y48943D01*
X34490D01*
Y48874D01*
X34559D01*
Y48805D01*
X34628D01*
Y48736D01*
X34559D01*
Y48667D01*
X34628D01*
Y48598D01*
X34696D01*
Y48529D01*
Y48460D01*
Y48392D01*
X34765D01*
Y48323D01*
Y48254D01*
X34834D01*
Y48185D01*
Y48116D01*
X34903D01*
Y48047D01*
X34834D01*
Y47978D01*
X34903D01*
Y47909D01*
X34972D01*
Y47840D01*
X35041D01*
Y47771D01*
X34972D01*
Y47703D01*
X35041D01*
Y47634D01*
X35110D01*
Y47565D01*
Y47496D01*
Y47427D01*
X35179D01*
Y47358D01*
Y47289D01*
X35317D01*
Y47220D01*
X35248D01*
Y47151D01*
X35317D01*
Y47082D01*
Y47014D01*
Y46945D01*
X35385D01*
Y46876D01*
X35454D01*
Y46807D01*
X35385D01*
Y46738D01*
X35454D01*
Y46669D01*
X35523D01*
Y46600D01*
X35592D01*
Y46531D01*
X35523D01*
Y46463D01*
X35592D01*
Y46394D01*
X35661D01*
Y46325D01*
Y46256D01*
Y46187D01*
X35730D01*
Y46118D01*
X35799D01*
Y46049D01*
Y45980D01*
Y45911D01*
X35868D01*
Y45842D01*
Y45774D01*
Y45705D01*
X35936D01*
Y45636D01*
X36005D01*
Y45567D01*
X35936D01*
Y45498D01*
X36005D01*
Y45429D01*
X36074D01*
Y45360D01*
X36143D01*
Y45291D01*
X36074D01*
Y45222D01*
X36143D01*
Y45153D01*
X36212D01*
Y45085D01*
Y45016D01*
Y44947D01*
X36281D01*
Y44878D01*
Y44809D01*
X36350D01*
Y44740D01*
Y44671D01*
X36419D01*
Y44602D01*
X36350D01*
Y44533D01*
X36419D01*
Y44464D01*
X36488D01*
Y44396D01*
X36557D01*
Y44327D01*
X36488D01*
Y44258D01*
X36557D01*
Y44189D01*
X36625D01*
Y44120D01*
Y44051D01*
Y43982D01*
X36694D01*
Y43913D01*
Y43845D01*
X36763D01*
Y43776D01*
Y43707D01*
X36832D01*
Y43638D01*
X36763D01*
Y43569D01*
X36832D01*
Y43500D01*
X36901D01*
Y43431D01*
X36970D01*
Y43362D01*
Y43293D01*
Y43224D01*
X37039D01*
Y43156D01*
X37108D01*
Y43087D01*
X37039D01*
Y43018D01*
X37108D01*
Y42949D01*
X37177D01*
Y42880D01*
X37246D01*
Y42811D01*
X37177D01*
Y42742D01*
X37246D01*
Y42673D01*
Y42604D01*
X37314D01*
Y42535D01*
Y42467D01*
X37383D01*
Y42398D01*
Y42329D01*
Y42260D01*
X37452D01*
Y42191D01*
X37521D01*
Y42122D01*
X37452D01*
Y42053D01*
X37521D01*
Y41984D01*
X37590D01*
Y41915D01*
X37659D01*
Y41846D01*
X37590D01*
Y41778D01*
X37659D01*
Y41709D01*
X37728D01*
Y41640D01*
Y41571D01*
Y41502D01*
X37797D01*
Y41433D01*
Y41364D01*
Y41295D01*
X37866D01*
Y41227D01*
X37934D01*
Y41158D01*
X37866D01*
Y41089D01*
X37934D01*
Y41020D01*
X38003D01*
Y40951D01*
X38072D01*
Y40882D01*
X38003D01*
Y40813D01*
X38072D01*
Y40744D01*
X38141D01*
Y40675D01*
Y40606D01*
Y40538D01*
X38210D01*
Y40469D01*
X38141D01*
Y40400D01*
X38072D01*
Y40469D01*
X38003D01*
Y40400D01*
X37797D01*
Y40469D01*
X37728D01*
Y40400D01*
X37521D01*
Y40469D01*
X37452D01*
Y40400D01*
X37246D01*
Y40469D01*
X37177D01*
Y40400D01*
X36970D01*
Y40469D01*
X36901D01*
Y40400D01*
X36694D01*
Y40469D01*
X36625D01*
Y40400D01*
X36419D01*
Y40469D01*
X36350D01*
Y40400D01*
X36143D01*
Y40469D01*
X36074D01*
Y40400D01*
X35868D01*
Y40469D01*
X35799D01*
Y40400D01*
X35592D01*
Y40469D01*
X35523D01*
Y40400D01*
X35317D01*
Y40469D01*
X35248D01*
Y40400D01*
X35041D01*
Y40469D01*
X34972D01*
Y40400D01*
X34903D01*
Y40331D01*
X34834D01*
Y40262D01*
X34903D01*
Y40193D01*
Y40124D01*
X34972D01*
Y40055D01*
Y39986D01*
X35041D01*
Y39917D01*
X34972D01*
Y39849D01*
X35041D01*
Y39780D01*
Y39711D01*
Y39642D01*
X35110D01*
Y39573D01*
X35179D01*
Y39504D01*
X35110D01*
Y39435D01*
X35179D01*
Y39366D01*
Y39297D01*
X35248D01*
Y39228D01*
Y39160D01*
X35317D01*
Y39091D01*
X35248D01*
Y39022D01*
X35317D01*
Y38953D01*
Y38884D01*
X35385D01*
Y38815D01*
Y38746D01*
X35454D01*
Y38677D01*
X35385D01*
Y38609D01*
X35454D01*
Y38540D01*
X35523D01*
Y38471D01*
X35592D01*
Y38402D01*
X35523D01*
Y38333D01*
X35592D01*
Y38264D01*
X35523D01*
Y38195D01*
X35592D01*
Y38126D01*
X35661D01*
Y38057D01*
Y37988D01*
Y37920D01*
X35730D01*
Y37851D01*
X35661D01*
Y37782D01*
X35730D01*
Y37713D01*
X35799D01*
Y37644D01*
X35868D01*
Y37575D01*
X35799D01*
Y37506D01*
X35868D01*
Y37437D01*
X35799D01*
Y37368D01*
X35868D01*
Y37299D01*
X35936D01*
Y37231D01*
X36005D01*
Y37162D01*
X35936D01*
Y37093D01*
X36005D01*
Y37024D01*
Y36955D01*
Y36886D01*
X36074D01*
Y36817D01*
X36143D01*
Y36748D01*
X36074D01*
Y36679D01*
X36143D01*
Y36610D01*
Y36542D01*
Y36473D01*
X36212D01*
Y36404D01*
X36281D01*
Y36335D01*
X36212D01*
Y36266D01*
X36281D01*
Y36197D01*
X36350D01*
Y36128D01*
X36281D01*
Y36059D01*
X36350D01*
Y35991D01*
X36419D01*
Y35922D01*
X36350D01*
Y35853D01*
X36419D01*
Y35784D01*
X36488D01*
Y35715D01*
Y35646D01*
Y35577D01*
X36557D01*
Y35508D01*
X36488D01*
Y35439D01*
X36557D01*
Y35370D01*
X36625D01*
Y35302D01*
Y35233D01*
Y35164D01*
X36694D01*
Y35095D01*
Y35026D01*
Y34957D01*
X36763D01*
Y34888D01*
Y34819D01*
Y34750D01*
X36832D01*
Y34681D01*
X36763D01*
Y34613D01*
X36832D01*
Y34544D01*
X36901D01*
Y34475D01*
Y34406D01*
Y34337D01*
X36970D01*
Y34268D01*
Y34199D01*
Y34130D01*
X37039D01*
Y34061D01*
Y33992D01*
Y33924D01*
X37108D01*
Y33855D01*
Y33786D01*
Y33717D01*
X37177D01*
Y33648D01*
X37246D01*
Y33579D01*
X37177D01*
Y33510D01*
X37246D01*
Y33441D01*
Y33372D01*
Y33304D01*
X37314D01*
Y33235D01*
X37383D01*
Y33166D01*
X37314D01*
Y33097D01*
X37383D01*
Y33028D01*
Y32959D01*
X37521D01*
Y32890D01*
X37452D01*
Y32821D01*
X37521D01*
Y32752D01*
X37452D01*
Y32684D01*
X37521D01*
Y32615D01*
Y32546D01*
X37590D01*
Y32477D01*
Y32408D01*
X37659D01*
Y32339D01*
X37590D01*
Y32270D01*
X37659D01*
Y32201D01*
Y32132D01*
X37797D01*
Y32063D01*
X37728D01*
Y31995D01*
X37797D01*
Y31926D01*
X37728D01*
Y31857D01*
X37797D01*
Y31788D01*
X37866D01*
Y31719D01*
Y31650D01*
Y31581D01*
X37934D01*
Y31512D01*
X37866D01*
Y31443D01*
X37934D01*
Y31374D01*
X38003D01*
Y31306D01*
X38072D01*
Y31237D01*
X38003D01*
Y31168D01*
X38072D01*
Y31099D01*
X38003D01*
Y31030D01*
X38072D01*
Y30961D01*
X38141D01*
Y30892D01*
X38210D01*
Y30823D01*
X38141D01*
Y30755D01*
X38072D01*
Y30823D01*
X38003D01*
Y30892D01*
X37934D01*
Y30961D01*
X37866D01*
Y31030D01*
Y31099D01*
X37797D01*
Y31168D01*
Y31237D01*
X37728D01*
Y31306D01*
X37659D01*
Y31374D01*
X37590D01*
Y31443D01*
Y31512D01*
X37452D01*
Y31581D01*
X37521D01*
Y31650D01*
X37452D01*
Y31719D01*
X37383D01*
Y31788D01*
X37314D01*
Y31857D01*
X37246D01*
Y31926D01*
X37177D01*
Y31995D01*
Y32063D01*
X37108D01*
Y32132D01*
Y32201D01*
X37039D01*
Y32270D01*
X36970D01*
Y32339D01*
X36901D01*
Y32408D01*
X36970D01*
Y32477D01*
X36763D01*
Y32546D01*
X36832D01*
Y32615D01*
X36763D01*
Y32684D01*
X36694D01*
Y32752D01*
X36625D01*
Y32821D01*
X36557D01*
Y32890D01*
X36488D01*
Y32959D01*
Y33028D01*
X36419D01*
Y33097D01*
Y33166D01*
X36350D01*
Y33235D01*
X36281D01*
Y33304D01*
X36212D01*
Y33372D01*
X36143D01*
Y33441D01*
X36074D01*
Y33510D01*
X36143D01*
Y33579D01*
X36074D01*
Y33648D01*
X36005D01*
Y33717D01*
X35936D01*
Y33786D01*
X35868D01*
Y33855D01*
X35799D01*
Y33924D01*
X35730D01*
Y33992D01*
Y34061D01*
Y34130D01*
X35661D01*
Y34199D01*
X35592D01*
Y34268D01*
X35523D01*
Y34337D01*
X35454D01*
Y34406D01*
X35385D01*
Y34475D01*
X35454D01*
Y34544D01*
X35385D01*
Y34613D01*
X35317D01*
Y34681D01*
X35248D01*
Y34750D01*
X35179D01*
Y34819D01*
X35110D01*
Y34888D01*
X35041D01*
Y34957D01*
Y35026D01*
Y35095D01*
X34972D01*
Y35164D01*
X34903D01*
Y35233D01*
X34834D01*
Y35302D01*
X34765D01*
Y35370D01*
X34696D01*
Y35439D01*
X34765D01*
Y35508D01*
X34696D01*
Y35577D01*
X34628D01*
Y35646D01*
X34559D01*
Y35715D01*
X34490D01*
Y35784D01*
X34421D01*
Y35853D01*
X34352D01*
Y35922D01*
X34283D01*
Y35991D01*
X34352D01*
Y36059D01*
X34283D01*
Y36128D01*
X34214D01*
Y36197D01*
X34145D01*
Y36266D01*
X34076D01*
Y36335D01*
X34007D01*
Y36404D01*
X34076D01*
Y36473D01*
X33870D01*
Y36542D01*
X33939D01*
Y36610D01*
X33870D01*
Y36679D01*
X33801D01*
Y36748D01*
X33732D01*
Y36817D01*
X33663D01*
Y36886D01*
Y36955D01*
Y37024D01*
X33525D01*
Y37093D01*
Y37162D01*
X33456D01*
Y37231D01*
X33387D01*
Y37299D01*
X33318D01*
Y37368D01*
X33387D01*
Y37437D01*
X33181D01*
Y37506D01*
X33250D01*
Y37575D01*
X33181D01*
Y37644D01*
X33112D01*
Y37713D01*
X33043D01*
Y37782D01*
X32974D01*
Y37851D01*
X32905D01*
Y37920D01*
X32974D01*
Y37988D01*
X32836D01*
Y38057D01*
Y38126D01*
X32767D01*
Y38195D01*
X32699D01*
Y38264D01*
X32630D01*
Y38333D01*
Y38402D01*
X32492D01*
Y38471D01*
X32561D01*
Y38540D01*
X32492D01*
Y38609D01*
X32423D01*
Y38677D01*
X32354D01*
Y38746D01*
X32285D01*
Y38815D01*
X32216D01*
Y38884D01*
Y38953D01*
X32147D01*
Y39022D01*
Y39091D01*
X32078D01*
Y39160D01*
X32010D01*
Y39228D01*
X31941D01*
Y39297D01*
Y39366D01*
X31803D01*
Y39435D01*
X31872D01*
Y39504D01*
X31803D01*
Y39573D01*
X31734D01*
Y39642D01*
X31665D01*
Y39711D01*
X31596D01*
Y39780D01*
X31527D01*
Y39849D01*
Y39917D01*
X31458D01*
Y39986D01*
Y40055D01*
X31389D01*
Y40124D01*
X31321D01*
Y40193D01*
X31252D01*
Y40262D01*
Y40331D01*
X31114D01*
Y40400D01*
X31183D01*
Y40469D01*
X31114D01*
Y40538D01*
X31045D01*
Y40606D01*
X30976D01*
Y40675D01*
X30907D01*
Y40744D01*
X30838D01*
Y40813D01*
Y40882D01*
X30769D01*
Y40951D01*
Y41020D01*
X30700D01*
Y41089D01*
X30632D01*
Y41158D01*
X30563D01*
Y41227D01*
Y41295D01*
X30425D01*
Y41364D01*
X30494D01*
Y41433D01*
X30425D01*
Y41502D01*
X30356D01*
Y41571D01*
X30287D01*
Y41640D01*
X30218D01*
Y41709D01*
X30149D01*
Y41778D01*
Y41846D01*
X30081D01*
Y41915D01*
Y41984D01*
X30012D01*
Y42053D01*
X29943D01*
Y42122D01*
X29874D01*
Y42191D01*
X29805D01*
Y42260D01*
X29736D01*
Y42329D01*
X29805D01*
Y42398D01*
X29736D01*
Y42467D01*
X29667D01*
Y42535D01*
X29598D01*
Y42604D01*
X29529D01*
Y42673D01*
X29460D01*
Y42742D01*
X29392D01*
Y42811D01*
Y42880D01*
Y42949D01*
X29323D01*
Y43018D01*
X29254D01*
Y43087D01*
X29185D01*
Y43156D01*
X29116D01*
Y43224D01*
X29047D01*
Y43293D01*
X29116D01*
Y43362D01*
X28909D01*
Y43431D01*
X28978D01*
Y43500D01*
X28909D01*
Y43569D01*
X28840D01*
Y43638D01*
X28771D01*
Y43707D01*
X28703D01*
Y43776D01*
Y43845D01*
Y43913D01*
X28634D01*
Y43982D01*
X28565D01*
Y44051D01*
X28496D01*
Y44120D01*
X28565D01*
Y44189D01*
X28634D01*
Y44120D01*
X28703D01*
Y44189D01*
X28634D01*
Y44258D01*
X28703D01*
Y44189D01*
X28771D01*
Y44120D01*
X28840D01*
Y44189D01*
X28909D01*
Y44120D01*
X28978D01*
Y44189D01*
X28909D01*
Y44258D01*
X28978D01*
Y44189D01*
X29047D01*
Y44120D01*
X29116D01*
Y44189D01*
X29185D01*
Y44120D01*
X29254D01*
Y44189D01*
X29185D01*
Y44258D01*
X29254D01*
Y44189D01*
X29323D01*
Y44120D01*
X29392D01*
Y44189D01*
X29460D01*
Y44120D01*
X29529D01*
Y44189D01*
X29460D01*
Y44258D01*
X29529D01*
Y44189D01*
X29598D01*
Y44120D01*
X29667D01*
Y44189D01*
X29736D01*
Y44120D01*
X29805D01*
Y44189D01*
X29736D01*
Y44258D01*
X29805D01*
Y44189D01*
X29874D01*
Y44120D01*
X29943D01*
Y44189D01*
X30012D01*
Y44120D01*
X30081D01*
Y44189D01*
X30012D01*
Y44258D01*
X30081D01*
Y44189D01*
X30149D01*
Y44120D01*
X30218D01*
Y44189D01*
X30287D01*
Y44120D01*
X30356D01*
Y44189D01*
X30287D01*
Y44258D01*
X30356D01*
Y44189D01*
X30425D01*
Y44120D01*
X30494D01*
Y44189D01*
X30563D01*
Y44120D01*
X30632D01*
Y44189D01*
X30563D01*
Y44258D01*
X30632D01*
Y44189D01*
X30700D01*
Y44120D01*
X30769D01*
Y44189D01*
X30838D01*
Y44120D01*
X30907D01*
Y44189D01*
X30838D01*
Y44258D01*
X30907D01*
Y44189D01*
X30976D01*
Y44120D01*
X31045D01*
Y44189D01*
X31114D01*
Y44120D01*
X31183D01*
Y44189D01*
X31114D01*
Y44258D01*
X31183D01*
Y44189D01*
X31252D01*
Y44120D01*
X31321D01*
Y44189D01*
X31389D01*
Y44120D01*
X31458D01*
Y44189D01*
X31389D01*
Y44258D01*
X31458D01*
Y44189D01*
X31527D01*
Y44120D01*
X31596D01*
Y44189D01*
X31665D01*
Y44120D01*
X31734D01*
Y44189D01*
X31665D01*
Y44258D01*
X31734D01*
Y44189D01*
X31803D01*
Y44120D01*
X31872D01*
Y44189D01*
X31941D01*
Y44258D01*
X31872D01*
Y44327D01*
X31803D01*
Y44396D01*
X31872D01*
Y44464D01*
X31803D01*
Y44533D01*
Y44602D01*
Y44671D01*
X31734D01*
Y44740D01*
X31665D01*
Y44809D01*
X31734D01*
Y44878D01*
X31665D01*
Y44947D01*
X31596D01*
Y45016D01*
Y45085D01*
Y45153D01*
X31527D01*
Y45222D01*
X31596D01*
Y45291D01*
X31527D01*
Y45360D01*
X31458D01*
Y45429D01*
Y45498D01*
Y45567D01*
X31389D01*
Y45636D01*
X31458D01*
Y45705D01*
X31389D01*
Y45774D01*
X31321D01*
Y45842D01*
Y45911D01*
Y45980D01*
X31252D01*
Y46049D01*
Y46118D01*
Y46187D01*
X31183D01*
Y46256D01*
X31114D01*
Y46325D01*
X31183D01*
Y46394D01*
X31114D01*
Y46463D01*
Y46531D01*
Y46600D01*
X31045D01*
Y46669D01*
X30976D01*
Y46738D01*
X31045D01*
Y46807D01*
X30976D01*
Y46876D01*
X30907D01*
Y46945D01*
X30838D01*
Y47014D01*
X30907D01*
Y47082D01*
X30838D01*
Y47151D01*
Y47220D01*
Y47289D01*
X30769D01*
Y47358D01*
X30700D01*
Y47427D01*
X30769D01*
Y47496D01*
X30700D01*
Y47565D01*
Y47634D01*
X30632D01*
Y47703D01*
Y47771D01*
X30563D01*
Y47840D01*
X30632D01*
Y47909D01*
X30563D01*
Y47978D01*
X30494D01*
Y48047D01*
Y48116D01*
Y48185D01*
X30425D01*
Y48254D01*
X30494D01*
Y48323D01*
X30425D01*
Y48392D01*
X30356D01*
Y48460D01*
Y48529D01*
Y48598D01*
X30287D01*
Y48667D01*
X30356D01*
Y48736D01*
X30287D01*
Y48805D01*
X30218D01*
Y48874D01*
X30149D01*
Y48943D01*
X30218D01*
Y49012D01*
X30149D01*
Y49081D01*
Y49149D01*
Y49218D01*
X30081D01*
Y49287D01*
X30012D01*
Y49356D01*
X30081D01*
Y49425D01*
X30012D01*
Y49494D01*
X29943D01*
Y49563D01*
Y49632D01*
Y49700D01*
X29874D01*
Y49769D01*
X29943D01*
Y49838D01*
X29874D01*
Y49907D01*
X29805D01*
Y49976D01*
X29736D01*
Y50045D01*
X29805D01*
Y50114D01*
X29736D01*
Y50183D01*
Y50252D01*
Y50321D01*
X29667D01*
Y50389D01*
X29598D01*
Y50458D01*
X29667D01*
Y50527D01*
X29598D01*
Y50596D01*
X33801D01*
Y50527D01*
D02*
G37*
G36*
X42826Y50458D02*
X42895D01*
Y50389D01*
X42964D01*
Y50321D01*
X43102D01*
Y50252D01*
Y50183D01*
X43170D01*
Y50114D01*
X43239D01*
Y50045D01*
X43377D01*
Y49976D01*
Y49907D01*
X43446D01*
Y49838D01*
X43515D01*
Y49769D01*
X43653D01*
Y49700D01*
Y49632D01*
X43722D01*
Y49563D01*
X43791D01*
Y49494D01*
X43928D01*
Y49425D01*
Y49356D01*
X43997D01*
Y49287D01*
X44066D01*
Y49218D01*
X44204D01*
Y49149D01*
Y49081D01*
X44273D01*
Y49012D01*
X44342D01*
Y48943D01*
X44480D01*
Y48874D01*
Y48805D01*
X44548D01*
Y48736D01*
X44617D01*
Y48667D01*
X44755D01*
Y48598D01*
Y48529D01*
X44824D01*
Y48460D01*
X44893D01*
Y48392D01*
X45031D01*
Y48323D01*
Y48254D01*
X45100D01*
Y48185D01*
X45169D01*
Y48116D01*
X45306D01*
Y48047D01*
Y47978D01*
X45375D01*
Y47909D01*
X45444D01*
Y47840D01*
X45582D01*
Y47771D01*
Y47703D01*
X45651D01*
Y47634D01*
X45720D01*
Y47565D01*
X45857D01*
Y47496D01*
Y47427D01*
X45926D01*
Y47358D01*
X45995D01*
Y47289D01*
X46133D01*
Y47220D01*
Y47151D01*
X46202D01*
Y47082D01*
X46271D01*
Y47014D01*
X46409D01*
Y46945D01*
Y46876D01*
X46477D01*
Y46807D01*
X46546D01*
Y46738D01*
X46684D01*
Y46669D01*
Y46600D01*
X46753D01*
Y46531D01*
X46822D01*
Y46463D01*
X46891D01*
Y46394D01*
X46960D01*
Y46325D01*
X46891D01*
Y46256D01*
X46960D01*
Y46187D01*
X46891D01*
Y46118D01*
X46960D01*
Y46049D01*
X46891D01*
Y45980D01*
X46960D01*
Y45911D01*
X46891D01*
Y45842D01*
X46960D01*
Y45774D01*
X46891D01*
Y45705D01*
X46960D01*
Y45636D01*
X46891D01*
Y45567D01*
X46960D01*
Y45498D01*
X46891D01*
Y45429D01*
X46960D01*
Y45360D01*
X46891D01*
Y45291D01*
X46960D01*
Y45222D01*
X46891D01*
Y45153D01*
X46960D01*
Y45085D01*
X46891D01*
Y45016D01*
X46960D01*
Y44947D01*
X46891D01*
Y44878D01*
X46960D01*
Y44809D01*
X46891D01*
Y44740D01*
X46960D01*
Y44671D01*
X46891D01*
Y44602D01*
X46960D01*
Y44533D01*
X46891D01*
Y44464D01*
X46960D01*
Y44396D01*
X46891D01*
Y44327D01*
X46960D01*
Y44258D01*
X46891D01*
Y44189D01*
X46960D01*
Y44120D01*
X46891D01*
Y44051D01*
X46960D01*
Y43982D01*
X46891D01*
Y43913D01*
X46960D01*
Y43845D01*
X46891D01*
Y43776D01*
X46960D01*
Y43707D01*
X46891D01*
Y43638D01*
X46960D01*
Y43569D01*
X46891D01*
Y43500D01*
X46960D01*
Y43431D01*
X46891D01*
Y43362D01*
X46960D01*
Y43293D01*
X46891D01*
Y43224D01*
X46960D01*
Y43156D01*
X46891D01*
Y43087D01*
X46960D01*
Y43018D01*
X46891D01*
Y42949D01*
X46960D01*
Y42880D01*
X46891D01*
Y42811D01*
X46960D01*
Y42742D01*
X46891D01*
Y42673D01*
X46960D01*
Y42604D01*
X46891D01*
Y42535D01*
X46960D01*
Y42467D01*
X46891D01*
Y42398D01*
X46960D01*
Y42329D01*
X46891D01*
Y42260D01*
X46960D01*
Y42191D01*
X46891D01*
Y42122D01*
X46960D01*
Y42053D01*
X46891D01*
Y41984D01*
X46960D01*
Y41915D01*
X46891D01*
Y41846D01*
X46960D01*
Y41778D01*
X46891D01*
Y41709D01*
X46960D01*
Y41640D01*
X46891D01*
Y41571D01*
X46960D01*
Y41502D01*
X46891D01*
Y41433D01*
X46960D01*
Y41364D01*
X46891D01*
Y41295D01*
X46960D01*
Y41227D01*
X46891D01*
Y41158D01*
X46960D01*
Y41089D01*
X46891D01*
Y41020D01*
X46960D01*
Y40951D01*
X46891D01*
Y40882D01*
X46960D01*
Y40813D01*
X46891D01*
Y40744D01*
X46960D01*
Y40675D01*
X46891D01*
Y40606D01*
X46960D01*
Y40538D01*
X46891D01*
Y40469D01*
X46960D01*
Y40400D01*
X46891D01*
Y40331D01*
X46960D01*
Y40262D01*
X46891D01*
Y40193D01*
X46960D01*
Y40124D01*
X46891D01*
Y40055D01*
X46960D01*
Y39986D01*
X46891D01*
Y39917D01*
X46960D01*
Y39849D01*
X46891D01*
Y39780D01*
X46960D01*
Y39711D01*
X46891D01*
Y39642D01*
X46960D01*
Y39573D01*
X46891D01*
Y39504D01*
X46960D01*
Y39435D01*
X46891D01*
Y39366D01*
X46960D01*
Y39297D01*
X46891D01*
Y39228D01*
X46960D01*
Y39160D01*
X46891D01*
Y39091D01*
X46960D01*
Y39022D01*
X46891D01*
Y38953D01*
X46960D01*
Y38884D01*
X46891D01*
Y38815D01*
X46960D01*
Y38746D01*
X46891D01*
Y38677D01*
X46960D01*
Y38609D01*
X46891D01*
Y38540D01*
X46960D01*
Y38471D01*
X46891D01*
Y38402D01*
X46960D01*
Y38333D01*
X46891D01*
Y38264D01*
X46960D01*
Y38195D01*
X46891D01*
Y38126D01*
X46960D01*
Y38057D01*
X46891D01*
Y37988D01*
X46960D01*
Y37920D01*
X46891D01*
Y37851D01*
X46960D01*
Y37782D01*
X46891D01*
Y37713D01*
X46960D01*
Y37644D01*
X46891D01*
Y37575D01*
X46960D01*
Y37506D01*
X46891D01*
Y37437D01*
X46960D01*
Y37368D01*
X46891D01*
Y37299D01*
X46960D01*
Y37231D01*
X46891D01*
Y37162D01*
X46960D01*
Y37093D01*
X46891D01*
Y37024D01*
X46960D01*
Y36955D01*
X46891D01*
Y36886D01*
X46960D01*
Y36817D01*
X46891D01*
Y36748D01*
X46960D01*
Y36679D01*
X46891D01*
Y36610D01*
X46960D01*
Y36542D01*
X46891D01*
Y36473D01*
X46960D01*
Y36404D01*
X46891D01*
Y36335D01*
X46960D01*
Y36266D01*
X46891D01*
Y36197D01*
X46960D01*
Y36128D01*
X46891D01*
Y36059D01*
X46960D01*
Y35991D01*
X46891D01*
Y35922D01*
X46960D01*
Y35853D01*
X46891D01*
Y35784D01*
X46960D01*
Y35715D01*
X46891D01*
Y35646D01*
X46960D01*
Y35577D01*
X46891D01*
Y35508D01*
X46960D01*
Y35439D01*
X46891D01*
Y35370D01*
X46960D01*
Y35302D01*
X46891D01*
Y35233D01*
X46822D01*
Y35164D01*
X46891D01*
Y35095D01*
X46684D01*
Y35026D01*
X46753D01*
Y34957D01*
X46546D01*
Y34888D01*
X46615D01*
Y34819D01*
X46409D01*
Y34750D01*
X46477D01*
Y34681D01*
X46271D01*
Y34613D01*
X46340D01*
Y34544D01*
X46133D01*
Y34475D01*
X46202D01*
Y34406D01*
X45995D01*
Y34337D01*
X46064D01*
Y34268D01*
X45857D01*
Y34199D01*
X45926D01*
Y34130D01*
X45720D01*
Y34061D01*
X45788D01*
Y33992D01*
X45582D01*
Y33924D01*
X45651D01*
Y33855D01*
X45444D01*
Y33786D01*
X45513D01*
Y33717D01*
X45306D01*
Y33648D01*
X45375D01*
Y33579D01*
X45169D01*
Y33510D01*
X45237D01*
Y33441D01*
X45031D01*
Y33372D01*
X45100D01*
Y33304D01*
X44893D01*
Y33235D01*
X44962D01*
Y33166D01*
X44755D01*
Y33097D01*
X44824D01*
Y33028D01*
X44617D01*
Y32959D01*
X44686D01*
Y32890D01*
X44480D01*
Y32821D01*
X44548D01*
Y32752D01*
X44342D01*
Y32684D01*
X44411D01*
Y32615D01*
X44204D01*
Y32546D01*
X44273D01*
Y32477D01*
X44066D01*
Y32408D01*
X44135D01*
Y32339D01*
X43928D01*
Y32270D01*
X43997D01*
Y32201D01*
X43791D01*
Y32132D01*
X43859D01*
Y32063D01*
X43791D01*
Y31995D01*
X43722D01*
Y31926D01*
X43653D01*
Y31857D01*
X43584D01*
Y31926D01*
X43515D01*
Y31857D01*
X43584D01*
Y31788D01*
X43515D01*
Y31719D01*
X43446D01*
Y31650D01*
X43377D01*
Y31581D01*
X43308D01*
Y31650D01*
X43239D01*
Y31581D01*
X43308D01*
Y31512D01*
X43239D01*
Y31443D01*
X43170D01*
Y31374D01*
X43102D01*
Y31306D01*
X43033D01*
Y31374D01*
X42964D01*
Y31443D01*
X42895D01*
Y31512D01*
X42826D01*
Y31581D01*
X42757D01*
Y31650D01*
X42688D01*
Y31719D01*
X42619D01*
Y31788D01*
X42413D01*
Y31857D01*
X42482D01*
Y31926D01*
X42413D01*
Y31995D01*
X42344D01*
Y32063D01*
X42137D01*
Y32132D01*
X42206D01*
Y32201D01*
X41999D01*
Y32270D01*
X42068D01*
Y32339D01*
X41862D01*
Y32408D01*
X41930D01*
Y32477D01*
X41862D01*
Y32546D01*
X41793D01*
Y32615D01*
X41586D01*
Y32684D01*
X41655D01*
Y32752D01*
X41448D01*
Y32821D01*
X41517D01*
Y32890D01*
X41310D01*
Y32959D01*
X41379D01*
Y33028D01*
X41310D01*
Y33097D01*
X41241D01*
Y33166D01*
X41035D01*
Y33235D01*
X41104D01*
Y33304D01*
X40897D01*
Y33372D01*
X40966D01*
Y33441D01*
X40759D01*
Y33510D01*
X40828D01*
Y33579D01*
X40621D01*
Y33648D01*
X40690D01*
Y33717D01*
X40484D01*
Y33786D01*
X40552D01*
Y33855D01*
X40346D01*
Y33924D01*
X40415D01*
Y33992D01*
X40208D01*
Y34061D01*
X40277D01*
Y34130D01*
X40070D01*
Y34199D01*
X40139D01*
Y34268D01*
X39932D01*
Y34337D01*
X40001D01*
Y34406D01*
X39795D01*
Y34475D01*
Y34544D01*
X39657D01*
Y34613D01*
X39726D01*
Y34681D01*
X39519D01*
Y34750D01*
Y34819D01*
X39381D01*
Y34888D01*
X39450D01*
Y34957D01*
X39244D01*
Y35026D01*
Y35095D01*
X39106D01*
Y35164D01*
X39175D01*
Y35233D01*
X38968D01*
Y35302D01*
Y35370D01*
X38830D01*
Y35439D01*
X38899D01*
Y35508D01*
X38692D01*
Y35577D01*
Y35646D01*
X38555D01*
Y35715D01*
X38623D01*
Y35784D01*
X38692D01*
Y35853D01*
X38761D01*
Y35922D01*
Y35991D01*
X38899D01*
Y36059D01*
Y36128D01*
X39037D01*
Y36197D01*
Y36266D01*
X39175D01*
Y36335D01*
X39244D01*
Y36404D01*
X39312D01*
Y36473D01*
X39381D01*
Y36542D01*
X39450D01*
Y36610D01*
X39519D01*
Y36679D01*
X39588D01*
Y36748D01*
X39657D01*
Y36817D01*
X39726D01*
Y36886D01*
X39795D01*
Y36955D01*
X39863D01*
Y37024D01*
X39932D01*
Y37093D01*
X40001D01*
Y37162D01*
X40070D01*
Y37231D01*
X40139D01*
Y37299D01*
X40208D01*
Y37368D01*
X40277D01*
Y37437D01*
X40346D01*
Y37506D01*
X40415D01*
Y37575D01*
X40484D01*
Y37644D01*
X40552D01*
Y37713D01*
X40621D01*
Y37782D01*
X40690D01*
Y37851D01*
X40759D01*
Y37782D01*
X40897D01*
Y37713D01*
Y37644D01*
X41104D01*
Y37575D01*
X41035D01*
Y37506D01*
X41104D01*
Y37437D01*
X41173D01*
Y37368D01*
X41379D01*
Y37299D01*
X41310D01*
Y37231D01*
X41448D01*
Y37162D01*
Y37093D01*
X41655D01*
Y37024D01*
X41586D01*
Y36955D01*
X41724D01*
Y36886D01*
Y36817D01*
X41930D01*
Y36748D01*
X41862D01*
Y36679D01*
X41999D01*
Y36610D01*
Y36542D01*
X42206D01*
Y36473D01*
X42137D01*
Y36404D01*
X42206D01*
Y36335D01*
X42275D01*
Y36266D01*
X42482D01*
Y36197D01*
X42413D01*
Y36128D01*
X42551D01*
Y36059D01*
Y35991D01*
X42757D01*
Y35922D01*
X42688D01*
Y35853D01*
X42826D01*
Y35784D01*
Y35715D01*
X43033D01*
Y35646D01*
X42964D01*
Y35577D01*
X43102D01*
Y35508D01*
Y35439D01*
X43239D01*
Y35508D01*
Y35577D01*
X43377D01*
Y35646D01*
Y35715D01*
X43584D01*
Y35784D01*
X43515D01*
Y35853D01*
X43653D01*
Y35922D01*
Y35991D01*
X43859D01*
Y36059D01*
Y36128D01*
X43997D01*
Y36197D01*
X43928D01*
Y36266D01*
X43997D01*
Y36335D01*
X43928D01*
Y36404D01*
X43997D01*
Y36473D01*
X43928D01*
Y36542D01*
X43997D01*
Y36610D01*
X43928D01*
Y36679D01*
X43997D01*
Y36748D01*
X43928D01*
Y36817D01*
X43997D01*
Y36886D01*
X43928D01*
Y36955D01*
X43997D01*
Y37024D01*
X43928D01*
Y37093D01*
X43997D01*
Y37162D01*
X43928D01*
Y37231D01*
X43997D01*
Y37299D01*
X43928D01*
Y37368D01*
X43997D01*
Y37437D01*
X43928D01*
Y37506D01*
X43997D01*
Y37575D01*
X43928D01*
Y37644D01*
X43997D01*
Y37713D01*
X43928D01*
Y37782D01*
X43997D01*
Y37851D01*
X43928D01*
Y37920D01*
X43997D01*
Y37988D01*
X43928D01*
Y38057D01*
X43997D01*
Y38126D01*
X43928D01*
Y38195D01*
X43997D01*
Y38264D01*
X43928D01*
Y38333D01*
X43997D01*
Y38402D01*
X43928D01*
Y38471D01*
X43997D01*
Y38540D01*
X43928D01*
Y38609D01*
X43997D01*
Y38677D01*
X43928D01*
Y38746D01*
X43997D01*
Y38815D01*
X43928D01*
Y38884D01*
X43997D01*
Y38953D01*
X43928D01*
Y39022D01*
X43997D01*
Y39091D01*
X43928D01*
Y39160D01*
X43997D01*
Y39228D01*
X43928D01*
Y39297D01*
X43997D01*
Y39366D01*
X43928D01*
Y39435D01*
X43997D01*
Y39504D01*
X42275D01*
Y39573D01*
X42206D01*
Y39642D01*
X42137D01*
Y39711D01*
X42068D01*
Y39780D01*
X41999D01*
Y39849D01*
X41930D01*
Y39917D01*
X41862D01*
Y39986D01*
X41793D01*
Y40055D01*
X41724D01*
Y40124D01*
X41655D01*
Y40193D01*
X41586D01*
Y40262D01*
X41517D01*
Y40331D01*
X41448D01*
Y40400D01*
X41379D01*
Y40469D01*
X41310D01*
Y40538D01*
X41241D01*
Y40606D01*
X41173D01*
Y40675D01*
X41104D01*
Y40744D01*
X41035D01*
Y40813D01*
X40966D01*
Y40882D01*
X40897D01*
Y40951D01*
X40828D01*
Y41020D01*
X40759D01*
Y41089D01*
X40690D01*
Y41158D01*
X40621D01*
Y41227D01*
Y41295D01*
X40484D01*
Y41364D01*
Y41433D01*
X40346D01*
Y41502D01*
Y41571D01*
X40208D01*
Y41640D01*
X40139D01*
Y41709D01*
X40070D01*
Y41778D01*
Y41846D01*
X39932D01*
Y41915D01*
Y41984D01*
X39795D01*
Y42053D01*
Y42122D01*
X39657D01*
Y42191D01*
X39588D01*
Y42260D01*
X39519D01*
Y42329D01*
X39588D01*
Y42398D01*
X39657D01*
Y42329D01*
X39726D01*
Y42398D01*
X39795D01*
Y42467D01*
X39863D01*
Y42398D01*
X39932D01*
Y42329D01*
X40001D01*
Y42398D01*
X40070D01*
Y42467D01*
X40139D01*
Y42398D01*
X40208D01*
Y42329D01*
X40277D01*
Y42398D01*
X40346D01*
Y42467D01*
X40415D01*
Y42398D01*
X40484D01*
Y42329D01*
X40552D01*
Y42398D01*
X40621D01*
Y42467D01*
X40690D01*
Y42398D01*
X40759D01*
Y42329D01*
X40828D01*
Y42398D01*
X40897D01*
Y42467D01*
X40966D01*
Y42398D01*
X41035D01*
Y42329D01*
X41104D01*
Y42398D01*
X41173D01*
Y42467D01*
X41241D01*
Y42398D01*
X41310D01*
Y42329D01*
X41379D01*
Y42398D01*
X41448D01*
Y42467D01*
X41517D01*
Y42398D01*
X41586D01*
Y42329D01*
X41655D01*
Y42398D01*
X41724D01*
Y42467D01*
X41793D01*
Y42398D01*
X41862D01*
Y42329D01*
X41930D01*
Y42398D01*
X41999D01*
Y42467D01*
X42068D01*
Y42398D01*
X42137D01*
Y42329D01*
X42206D01*
Y42398D01*
X42275D01*
Y42467D01*
X42344D01*
Y42398D01*
X42413D01*
Y42329D01*
X42482D01*
Y42398D01*
X42551D01*
Y42467D01*
X42619D01*
Y42398D01*
X42688D01*
Y42329D01*
X42757D01*
Y42398D01*
X42826D01*
Y42467D01*
X42895D01*
Y42398D01*
X42964D01*
Y42329D01*
X43033D01*
Y42398D01*
X43102D01*
Y42467D01*
X43170D01*
Y42398D01*
X43239D01*
Y42329D01*
X43308D01*
Y42398D01*
X43377D01*
Y42467D01*
X43446D01*
Y42398D01*
X43515D01*
Y42329D01*
X43584D01*
Y42398D01*
X43653D01*
Y42467D01*
X43722D01*
Y42398D01*
X43791D01*
Y42329D01*
X43859D01*
Y42398D01*
X43928D01*
Y42467D01*
X43997D01*
Y42535D01*
X43928D01*
Y42604D01*
X43997D01*
Y42673D01*
X43928D01*
Y42742D01*
X43997D01*
Y42811D01*
X43928D01*
Y42880D01*
X43997D01*
Y42949D01*
X43928D01*
Y43018D01*
X43997D01*
Y43087D01*
X43928D01*
Y43156D01*
X43997D01*
Y43224D01*
X43928D01*
Y43293D01*
X43997D01*
Y43362D01*
X43928D01*
Y43431D01*
X43997D01*
Y43500D01*
X43928D01*
Y43569D01*
X43997D01*
Y43638D01*
X43928D01*
Y43707D01*
X43997D01*
Y43776D01*
X43928D01*
Y43845D01*
X43997D01*
Y43913D01*
X43928D01*
Y43982D01*
X43997D01*
Y44051D01*
X43928D01*
Y44120D01*
X43997D01*
Y44189D01*
X43928D01*
Y44258D01*
X43997D01*
Y44327D01*
X43928D01*
Y44396D01*
X43997D01*
Y44464D01*
X43928D01*
Y44533D01*
X43997D01*
Y44602D01*
X43928D01*
Y44671D01*
X43997D01*
Y44740D01*
X43928D01*
Y44809D01*
X43997D01*
Y44878D01*
X43928D01*
Y44947D01*
X43997D01*
Y45016D01*
X43928D01*
Y45085D01*
X43997D01*
Y45153D01*
X43928D01*
Y45222D01*
X43997D01*
Y45291D01*
X43928D01*
Y45360D01*
X43997D01*
Y45429D01*
X43928D01*
Y45498D01*
X43997D01*
Y45567D01*
X43928D01*
Y45636D01*
X43997D01*
Y45705D01*
X43928D01*
Y45774D01*
X43997D01*
Y45842D01*
X43928D01*
Y45911D01*
X43997D01*
Y45980D01*
X43928D01*
Y46049D01*
X43997D01*
Y46118D01*
X43928D01*
Y46187D01*
X43997D01*
Y46256D01*
X43928D01*
Y46325D01*
X43997D01*
Y46394D01*
X43928D01*
Y46463D01*
X43997D01*
Y46531D01*
X43928D01*
Y46600D01*
X43997D01*
Y46669D01*
X43928D01*
Y46738D01*
X43997D01*
Y46807D01*
X43928D01*
Y46876D01*
X43997D01*
Y46945D01*
X43928D01*
Y47014D01*
X43997D01*
Y47082D01*
X43928D01*
Y47151D01*
X43859D01*
Y47082D01*
X43791D01*
Y47014D01*
X43722D01*
Y46945D01*
X43653D01*
Y46876D01*
X43584D01*
Y46807D01*
X43515D01*
Y46738D01*
X43446D01*
Y46669D01*
X43377D01*
Y46600D01*
X43308D01*
Y46531D01*
X43239D01*
Y46463D01*
X43170D01*
Y46394D01*
X43102D01*
Y46325D01*
X43033D01*
Y46256D01*
X42964D01*
Y46187D01*
X42895D01*
Y46118D01*
X42826D01*
Y46049D01*
X42757D01*
Y45980D01*
X42688D01*
Y45911D01*
X42619D01*
Y45842D01*
X42551D01*
Y45774D01*
X42482D01*
Y45705D01*
X42413D01*
Y45636D01*
X42344D01*
Y45567D01*
X42275D01*
Y45498D01*
X42206D01*
Y45429D01*
X42137D01*
Y45360D01*
X42068D01*
Y45291D01*
X41999D01*
Y45222D01*
X41930D01*
Y45153D01*
X41862D01*
Y45085D01*
X41793D01*
Y45016D01*
X41724D01*
Y44947D01*
X41655D01*
Y44878D01*
X41586D01*
Y44809D01*
X41517D01*
Y44740D01*
X41448D01*
Y44671D01*
X41379D01*
Y44602D01*
X41310D01*
Y44533D01*
X41241D01*
Y44464D01*
X41173D01*
Y44396D01*
X41104D01*
Y44327D01*
X41035D01*
Y44258D01*
X40966D01*
Y44189D01*
X40897D01*
Y44120D01*
X40828D01*
Y44051D01*
X40759D01*
Y43982D01*
X40690D01*
Y44051D01*
X40621D01*
Y44120D01*
X40552D01*
Y44189D01*
X40484D01*
Y44258D01*
X40415D01*
Y44327D01*
X40346D01*
Y44396D01*
X40277D01*
Y44464D01*
X40208D01*
Y44533D01*
X40139D01*
Y44602D01*
X40070D01*
Y44671D01*
X40001D01*
Y44740D01*
X39932D01*
Y44809D01*
X39863D01*
Y44878D01*
X39795D01*
Y44947D01*
X39726D01*
Y45016D01*
X39657D01*
Y45085D01*
X39588D01*
Y45153D01*
X39519D01*
Y45222D01*
X39450D01*
Y45291D01*
X39381D01*
Y45360D01*
X39312D01*
Y45429D01*
X39244D01*
Y45498D01*
X39175D01*
Y45567D01*
X39106D01*
Y45636D01*
X39037D01*
Y45705D01*
X38968D01*
Y45774D01*
X38899D01*
Y45842D01*
X38830D01*
Y45911D01*
X38761D01*
Y45980D01*
X38692D01*
Y46049D01*
X38623D01*
Y46118D01*
X38555D01*
Y46187D01*
X38486D01*
Y46256D01*
X38417D01*
Y46325D01*
X38623D01*
Y46394D01*
X38555D01*
Y46463D01*
X38761D01*
Y46531D01*
X38692D01*
Y46600D01*
X38899D01*
Y46669D01*
X38830D01*
Y46738D01*
X39037D01*
Y46807D01*
X38968D01*
Y46876D01*
X39175D01*
Y46945D01*
X39106D01*
Y47014D01*
X39312D01*
Y47082D01*
X39244D01*
Y47151D01*
X39450D01*
Y47220D01*
X39381D01*
Y47289D01*
X39588D01*
Y47358D01*
X39519D01*
Y47427D01*
X39726D01*
Y47496D01*
X39657D01*
Y47565D01*
X39863D01*
Y47634D01*
X39795D01*
Y47703D01*
X40001D01*
Y47771D01*
X39932D01*
Y47840D01*
X40139D01*
Y47909D01*
X40070D01*
Y47978D01*
X40277D01*
Y48047D01*
X40208D01*
Y48116D01*
X40415D01*
Y48185D01*
X40346D01*
Y48254D01*
X40552D01*
Y48323D01*
X40484D01*
Y48392D01*
X40690D01*
Y48460D01*
X40621D01*
Y48529D01*
X40828D01*
Y48598D01*
X40759D01*
Y48667D01*
X40966D01*
Y48736D01*
X40897D01*
Y48805D01*
X41104D01*
Y48874D01*
X41035D01*
Y48943D01*
X41241D01*
Y49012D01*
X41173D01*
Y49081D01*
X41379D01*
Y49149D01*
X41310D01*
Y49218D01*
X41517D01*
Y49287D01*
X41448D01*
Y49356D01*
X41655D01*
Y49425D01*
X41586D01*
Y49494D01*
X41793D01*
Y49563D01*
X41724D01*
Y49632D01*
X41930D01*
Y49700D01*
X41862D01*
Y49769D01*
X42068D01*
Y49838D01*
X41999D01*
Y49907D01*
X42206D01*
Y49976D01*
X42137D01*
Y50045D01*
X42344D01*
Y50114D01*
X42275D01*
Y50183D01*
X42482D01*
Y50252D01*
X42413D01*
Y50321D01*
X42619D01*
Y50389D01*
X42551D01*
Y50458D01*
X42757D01*
Y50527D01*
X42826D01*
Y50458D01*
D02*
G37*
G36*
X40828Y37851D02*
X40759D01*
Y37920D01*
X40828D01*
Y37851D01*
D02*
G37*
G36*
X35317Y34544D02*
X35248D01*
Y34613D01*
X35317D01*
Y34544D01*
D02*
G37*
G36*
X41241Y33028D02*
X41173D01*
Y33097D01*
X41241D01*
Y33028D01*
D02*
G37*
G36*
X41793Y32477D02*
X41724D01*
Y32546D01*
X41793D01*
Y32477D01*
D02*
G37*
G36*
X42757Y31512D02*
X42688D01*
Y31581D01*
X42757D01*
Y31512D01*
D02*
G37*
G36*
X26360Y50527D02*
X26291D01*
Y50458D01*
X26498D01*
Y50389D01*
X26429D01*
Y50321D01*
X26636D01*
Y50252D01*
X26567D01*
Y50183D01*
X26774D01*
Y50114D01*
X26705D01*
Y50045D01*
X26911D01*
Y49976D01*
X26842D01*
Y49907D01*
X27049D01*
Y49838D01*
X26980D01*
Y49769D01*
X27187D01*
Y49700D01*
X27118D01*
Y49632D01*
X27325D01*
Y49563D01*
X27256D01*
Y49494D01*
X27463D01*
Y49425D01*
X27394D01*
Y49356D01*
X27600D01*
Y49287D01*
X27531D01*
Y49218D01*
X27738D01*
Y49149D01*
X27669D01*
Y49081D01*
X27876D01*
Y49012D01*
X27807D01*
Y48943D01*
X28014D01*
Y48874D01*
X27945D01*
Y48805D01*
X28151D01*
Y48736D01*
X28082D01*
Y48667D01*
X28289D01*
Y48598D01*
X28220D01*
Y48529D01*
X28427D01*
Y48460D01*
X28358D01*
Y48392D01*
X28565D01*
Y48323D01*
X28496D01*
Y48254D01*
X28634D01*
Y48185D01*
X28565D01*
Y48116D01*
Y48047D01*
X28427D01*
Y47978D01*
Y47909D01*
X28220D01*
Y47840D01*
X28289D01*
Y47771D01*
X28151D01*
Y47703D01*
X28082D01*
Y47634D01*
X27945D01*
Y47565D01*
Y47496D01*
X27807D01*
Y47427D01*
Y47358D01*
X27669D01*
Y47289D01*
Y47220D01*
X27531D01*
Y47151D01*
X27463D01*
Y47082D01*
X27394D01*
Y47014D01*
X27325D01*
Y46945D01*
Y46876D01*
Y46807D01*
X27256D01*
Y46738D01*
X27325D01*
Y46669D01*
Y46600D01*
Y46531D01*
X27256D01*
Y46463D01*
X27325D01*
Y46394D01*
Y46325D01*
Y46256D01*
X27256D01*
Y46187D01*
X27325D01*
Y46118D01*
Y46049D01*
Y45980D01*
X27256D01*
Y45911D01*
X27325D01*
Y45842D01*
Y45774D01*
Y45705D01*
X27256D01*
Y45636D01*
X27325D01*
Y45567D01*
Y45498D01*
Y45429D01*
X27256D01*
Y45360D01*
X27325D01*
Y45291D01*
Y45222D01*
Y45153D01*
X27256D01*
Y45085D01*
X27325D01*
Y45016D01*
Y44947D01*
Y44878D01*
X27256D01*
Y44809D01*
X27325D01*
Y44740D01*
Y44671D01*
Y44602D01*
X27256D01*
Y44533D01*
X27325D01*
Y44464D01*
Y44396D01*
Y44327D01*
X27256D01*
Y44258D01*
X27325D01*
Y44189D01*
Y44120D01*
Y44051D01*
X27256D01*
Y43982D01*
X27325D01*
Y43913D01*
Y43845D01*
Y43776D01*
X27256D01*
Y43707D01*
X27325D01*
Y43638D01*
Y43569D01*
Y43500D01*
X27256D01*
Y43431D01*
X27325D01*
Y43362D01*
Y43293D01*
Y43224D01*
X27256D01*
Y43156D01*
X27325D01*
Y43087D01*
Y43018D01*
Y42949D01*
X27256D01*
Y42880D01*
X27325D01*
Y42811D01*
Y42742D01*
Y42673D01*
X27256D01*
Y42604D01*
X27325D01*
Y42535D01*
Y42467D01*
Y42398D01*
X27256D01*
Y42329D01*
X27325D01*
Y42260D01*
Y42191D01*
Y42122D01*
X27256D01*
Y42053D01*
X27325D01*
Y41984D01*
Y41915D01*
Y41846D01*
X27256D01*
Y41778D01*
X27325D01*
Y41709D01*
Y41640D01*
Y41571D01*
X27256D01*
Y41502D01*
X27325D01*
Y41433D01*
Y41364D01*
Y41295D01*
X27256D01*
Y41227D01*
X27325D01*
Y41158D01*
Y41089D01*
Y41020D01*
X27256D01*
Y40951D01*
X27325D01*
Y40882D01*
Y40813D01*
Y40744D01*
X27256D01*
Y40675D01*
X27325D01*
Y40606D01*
Y40538D01*
Y40469D01*
X27256D01*
Y40400D01*
X27325D01*
Y40331D01*
Y40262D01*
Y40193D01*
X27256D01*
Y40124D01*
X27325D01*
Y40055D01*
Y39986D01*
Y39917D01*
X27256D01*
Y39849D01*
X27325D01*
Y39780D01*
Y39711D01*
Y39642D01*
X27256D01*
Y39573D01*
X27325D01*
Y39504D01*
Y39435D01*
Y39366D01*
X27256D01*
Y39297D01*
X27325D01*
Y39228D01*
Y39160D01*
Y39091D01*
X27256D01*
Y39022D01*
X27325D01*
Y38953D01*
Y38884D01*
Y38815D01*
X27256D01*
Y38746D01*
X27325D01*
Y38677D01*
Y38609D01*
Y38540D01*
X27256D01*
Y38471D01*
X27325D01*
Y38402D01*
Y38333D01*
Y38264D01*
X27256D01*
Y38195D01*
X27325D01*
Y38126D01*
Y38057D01*
Y37988D01*
X27256D01*
Y37920D01*
X27325D01*
Y37851D01*
Y37782D01*
Y37713D01*
X27256D01*
Y37644D01*
X27325D01*
Y37575D01*
Y37506D01*
Y37437D01*
X27256D01*
Y37368D01*
X27325D01*
Y37299D01*
Y37231D01*
Y37162D01*
X27256D01*
Y37093D01*
X27325D01*
Y37024D01*
Y36955D01*
Y36886D01*
X27256D01*
Y36817D01*
X27325D01*
Y36748D01*
Y36679D01*
Y36610D01*
X27256D01*
Y36542D01*
X27325D01*
Y36473D01*
Y36404D01*
Y36335D01*
X27256D01*
Y36266D01*
X27325D01*
Y36197D01*
Y36128D01*
Y36059D01*
X27256D01*
Y35991D01*
X27325D01*
Y35922D01*
Y35853D01*
Y35784D01*
X27256D01*
Y35715D01*
X27325D01*
Y35646D01*
Y35577D01*
Y35508D01*
X27256D01*
Y35439D01*
X27325D01*
Y35370D01*
Y35302D01*
Y35233D01*
X27394D01*
Y35164D01*
X27463D01*
Y35095D01*
X27531D01*
Y35026D01*
X27600D01*
Y34957D01*
X27669D01*
Y34888D01*
X27738D01*
Y34819D01*
X27807D01*
Y34750D01*
X27876D01*
Y34681D01*
X27945D01*
Y34613D01*
X28014D01*
Y34544D01*
X28082D01*
Y34475D01*
X28151D01*
Y34406D01*
X28220D01*
Y34337D01*
X28289D01*
Y34268D01*
X28358D01*
Y34199D01*
X28427D01*
Y34130D01*
X28496D01*
Y34061D01*
X28565D01*
Y33992D01*
X28496D01*
Y33924D01*
X28427D01*
Y33855D01*
X28358D01*
Y33786D01*
X28289D01*
Y33717D01*
X28220D01*
Y33648D01*
X28151D01*
Y33579D01*
X28082D01*
Y33510D01*
X28014D01*
Y33441D01*
X27945D01*
Y33372D01*
X27876D01*
Y33304D01*
X27807D01*
Y33235D01*
X27738D01*
Y33166D01*
X27669D01*
Y33097D01*
X27600D01*
Y33028D01*
X27531D01*
Y32959D01*
X27463D01*
Y32890D01*
X27394D01*
Y32821D01*
X27325D01*
Y32752D01*
X27256D01*
Y32684D01*
X27187D01*
Y32615D01*
X27118D01*
Y32546D01*
X27049D01*
Y32477D01*
X26980D01*
Y32408D01*
X26911D01*
Y32339D01*
X26842D01*
Y32270D01*
X26774D01*
Y32201D01*
X26705D01*
Y32132D01*
X26636D01*
Y32063D01*
X26567D01*
Y31995D01*
X26498D01*
Y31926D01*
X26429D01*
Y31857D01*
X26360D01*
Y31788D01*
X26291D01*
Y31719D01*
X26222D01*
Y31650D01*
X26153D01*
Y31581D01*
X26085D01*
Y31512D01*
X26016D01*
Y31443D01*
X25947D01*
Y31374D01*
X25878D01*
Y31306D01*
X25809D01*
Y31374D01*
X25740D01*
Y31443D01*
X25671D01*
Y31512D01*
X25602D01*
Y31581D01*
X25533D01*
Y31650D01*
X25464D01*
Y31719D01*
X25396D01*
Y31788D01*
X25327D01*
Y31857D01*
X25258D01*
Y31926D01*
X25189D01*
Y31995D01*
X25120D01*
Y32063D01*
X25051D01*
Y32132D01*
X24982D01*
Y32201D01*
X24913D01*
Y32270D01*
X24845D01*
Y32339D01*
X24776D01*
Y32408D01*
X24707D01*
Y32477D01*
X24638D01*
Y32546D01*
X24569D01*
Y32615D01*
X24500D01*
Y32684D01*
X24431D01*
Y32752D01*
X24362D01*
Y32821D01*
X24293D01*
Y32890D01*
X24224D01*
Y32959D01*
X24156D01*
Y33028D01*
X24087D01*
Y33097D01*
X24018D01*
Y33166D01*
X23949D01*
Y33235D01*
X23880D01*
Y33304D01*
X23811D01*
Y33372D01*
X23742D01*
Y33441D01*
X23673D01*
Y33510D01*
X23604D01*
Y33579D01*
X23536D01*
Y33648D01*
X23467D01*
Y33717D01*
X23398D01*
Y33786D01*
X23329D01*
Y33855D01*
X23260D01*
Y33924D01*
X23191D01*
Y33992D01*
X23122D01*
Y34061D01*
X23191D01*
Y34130D01*
X23260D01*
Y34199D01*
X23329D01*
Y34268D01*
X23398D01*
Y34337D01*
X23467D01*
Y34406D01*
X23536D01*
Y34475D01*
X23604D01*
Y34544D01*
X23673D01*
Y34613D01*
X23742D01*
Y34681D01*
X23811D01*
Y34750D01*
X23880D01*
Y34819D01*
X23949D01*
Y34888D01*
X24018D01*
Y34957D01*
X24087D01*
Y35026D01*
X24156D01*
Y35095D01*
X24224D01*
Y35164D01*
X24293D01*
Y35233D01*
X24362D01*
Y35302D01*
X24293D01*
Y35370D01*
X24362D01*
Y35439D01*
X24293D01*
Y35508D01*
X24362D01*
Y35577D01*
X24293D01*
Y35646D01*
X24362D01*
Y35715D01*
X24293D01*
Y35784D01*
X24362D01*
Y35853D01*
X24293D01*
Y35922D01*
X24362D01*
Y35991D01*
X24293D01*
Y36059D01*
X24362D01*
Y36128D01*
X24293D01*
Y36197D01*
X24362D01*
Y36266D01*
X24293D01*
Y36335D01*
X24362D01*
Y36404D01*
X24293D01*
Y36473D01*
X24362D01*
Y36542D01*
X24293D01*
Y36610D01*
X24362D01*
Y36679D01*
X24293D01*
Y36748D01*
X24362D01*
Y36817D01*
X24293D01*
Y36886D01*
X24362D01*
Y36955D01*
X24293D01*
Y37024D01*
X24362D01*
Y37093D01*
X24293D01*
Y37162D01*
X24362D01*
Y37231D01*
X24293D01*
Y37299D01*
X24362D01*
Y37368D01*
X24293D01*
Y37437D01*
X24362D01*
Y37506D01*
X24293D01*
Y37575D01*
X24362D01*
Y37644D01*
X24293D01*
Y37713D01*
X24362D01*
Y37782D01*
X24293D01*
Y37851D01*
X24362D01*
Y37920D01*
X24293D01*
Y37988D01*
X24362D01*
Y38057D01*
X24293D01*
Y38126D01*
X24362D01*
Y38195D01*
X24293D01*
Y38264D01*
X24362D01*
Y38333D01*
X24293D01*
Y38402D01*
X24362D01*
Y38471D01*
X24293D01*
Y38540D01*
X24362D01*
Y38609D01*
X24293D01*
Y38677D01*
X24362D01*
Y38746D01*
X24293D01*
Y38815D01*
X24362D01*
Y38884D01*
X24293D01*
Y38953D01*
X24362D01*
Y39022D01*
X24293D01*
Y39091D01*
X24362D01*
Y39160D01*
X24293D01*
Y39228D01*
X24362D01*
Y39297D01*
X24293D01*
Y39366D01*
X24362D01*
Y39435D01*
X24293D01*
Y39504D01*
X24362D01*
Y39573D01*
X24293D01*
Y39642D01*
X24362D01*
Y39711D01*
X24293D01*
Y39780D01*
X24362D01*
Y39849D01*
X24293D01*
Y39917D01*
X24362D01*
Y39986D01*
X24293D01*
Y40055D01*
X24362D01*
Y40124D01*
X24293D01*
Y40193D01*
X24362D01*
Y40262D01*
X24293D01*
Y40331D01*
X24362D01*
Y40400D01*
X24293D01*
Y40469D01*
X24362D01*
Y40538D01*
X24293D01*
Y40606D01*
X24362D01*
Y40675D01*
X24293D01*
Y40744D01*
X24362D01*
Y40813D01*
X24293D01*
Y40882D01*
X24087D01*
Y40813D01*
X24156D01*
Y40744D01*
X23949D01*
Y40675D01*
X24018D01*
Y40606D01*
X23811D01*
Y40538D01*
X23880D01*
Y40469D01*
X23673D01*
Y40400D01*
X23742D01*
Y40331D01*
X23536D01*
Y40262D01*
X23604D01*
Y40193D01*
X23398D01*
Y40124D01*
X23467D01*
Y40055D01*
X23260D01*
Y39986D01*
X23329D01*
Y39917D01*
X23122D01*
Y39849D01*
X23191D01*
Y39780D01*
X22984D01*
Y39711D01*
X23053D01*
Y39642D01*
X22847D01*
Y39573D01*
X22915D01*
Y39504D01*
X22847D01*
Y39435D01*
X22778D01*
Y39366D01*
X22709D01*
Y39297D01*
X22640D01*
Y39228D01*
X22571D01*
Y39160D01*
X22502D01*
Y39091D01*
X22433D01*
Y39022D01*
X22364D01*
Y38953D01*
X22295D01*
Y38884D01*
X22227D01*
Y38815D01*
X22158D01*
Y38746D01*
X22089D01*
Y38677D01*
X22020D01*
Y38609D01*
X21951D01*
Y38540D01*
X21882D01*
Y38471D01*
X21813D01*
Y38402D01*
X21744D01*
Y38333D01*
Y38264D01*
Y38195D01*
X21813D01*
Y38126D01*
X21744D01*
Y38057D01*
X21813D01*
Y37988D01*
X21744D01*
Y37920D01*
X21813D01*
Y37851D01*
X21744D01*
Y37782D01*
Y37713D01*
Y37644D01*
X21813D01*
Y37575D01*
X21744D01*
Y37506D01*
X21813D01*
Y37437D01*
X21744D01*
Y37368D01*
X21813D01*
Y37299D01*
X21744D01*
Y37231D01*
Y37162D01*
Y37093D01*
X21813D01*
Y37024D01*
X21744D01*
Y36955D01*
X21813D01*
Y36886D01*
X21744D01*
Y36817D01*
X21813D01*
Y36748D01*
X21744D01*
Y36679D01*
Y36610D01*
Y36542D01*
X21813D01*
Y36473D01*
X21744D01*
Y36404D01*
X21813D01*
Y36335D01*
X21744D01*
Y36266D01*
X21813D01*
Y36197D01*
X21744D01*
Y36128D01*
Y36059D01*
Y35991D01*
X21813D01*
Y35922D01*
X21744D01*
Y35853D01*
X21813D01*
Y35784D01*
X21744D01*
Y35715D01*
X21813D01*
Y35646D01*
X21744D01*
Y35577D01*
Y35508D01*
Y35439D01*
X21813D01*
Y35370D01*
X21744D01*
Y35302D01*
X21813D01*
Y35233D01*
X21744D01*
Y35164D01*
X21882D01*
Y35095D01*
Y35026D01*
X21951D01*
Y34957D01*
X22020D01*
Y34888D01*
X22089D01*
Y34819D01*
X22158D01*
Y34750D01*
X22227D01*
Y34681D01*
X22295D01*
Y34613D01*
X22364D01*
Y34544D01*
X22433D01*
Y34475D01*
X22502D01*
Y34406D01*
X22571D01*
Y34337D01*
X22640D01*
Y34268D01*
X22709D01*
Y34199D01*
X22778D01*
Y34130D01*
X22847D01*
Y34061D01*
X22915D01*
Y33992D01*
X22847D01*
Y33924D01*
X22778D01*
Y33855D01*
X22709D01*
Y33786D01*
X22640D01*
Y33717D01*
X22571D01*
Y33648D01*
X22502D01*
Y33579D01*
X22433D01*
Y33510D01*
X22364D01*
Y33441D01*
X22295D01*
Y33372D01*
X22227D01*
Y33304D01*
X22158D01*
Y33235D01*
X22089D01*
Y33166D01*
X22020D01*
Y33097D01*
X21951D01*
Y33028D01*
X21882D01*
Y32959D01*
X21813D01*
Y32890D01*
X21744D01*
Y32821D01*
X21675D01*
Y32752D01*
X21606D01*
Y32684D01*
X21538D01*
Y32615D01*
X21469D01*
Y32546D01*
X21400D01*
Y32477D01*
X21331D01*
Y32408D01*
X21262D01*
Y32339D01*
X21193D01*
Y32270D01*
X21124D01*
Y32201D01*
X21055D01*
Y32132D01*
X20986D01*
Y32063D01*
X20918D01*
Y31995D01*
X20849D01*
Y31926D01*
X20780D01*
Y31857D01*
X20711D01*
Y31788D01*
X20642D01*
Y31719D01*
X20573D01*
Y31650D01*
X20504D01*
Y31581D01*
X20435D01*
Y31512D01*
X20366D01*
Y31443D01*
X20297D01*
Y31374D01*
X20229D01*
Y31306D01*
X20160D01*
Y31374D01*
X20091D01*
Y31443D01*
X20022D01*
Y31512D01*
X19953D01*
Y31581D01*
X19884D01*
Y31650D01*
X19815D01*
Y31719D01*
X19746D01*
Y31788D01*
X19677D01*
Y31857D01*
X19609D01*
Y31926D01*
X19540D01*
Y31995D01*
X19471D01*
Y32063D01*
X19402D01*
Y32132D01*
X19333D01*
Y32201D01*
X19264D01*
Y32270D01*
X19195D01*
Y32339D01*
X19126D01*
Y32408D01*
X19057D01*
Y32477D01*
X18988D01*
Y32546D01*
X18920D01*
Y32615D01*
X18851D01*
Y32684D01*
X18782D01*
Y32752D01*
X18713D01*
Y32821D01*
X18644D01*
Y32890D01*
X18575D01*
Y32959D01*
X18506D01*
Y33028D01*
X18437D01*
Y33097D01*
X18368D01*
Y33166D01*
X18300D01*
Y33235D01*
X18231D01*
Y33304D01*
X18162D01*
Y33372D01*
X18093D01*
Y33441D01*
X18024D01*
Y33510D01*
X17955D01*
Y33579D01*
X17886D01*
Y33648D01*
X17817D01*
Y33717D01*
X17748D01*
Y33786D01*
X17679D01*
Y33855D01*
X17610D01*
Y33924D01*
X17542D01*
Y33992D01*
X17473D01*
Y34061D01*
X17679D01*
Y34130D01*
X17610D01*
Y34199D01*
X17679D01*
Y34268D01*
X17748D01*
Y34337D01*
X17886D01*
Y34406D01*
Y34475D01*
X17955D01*
Y34544D01*
X18024D01*
Y34613D01*
X18231D01*
Y34681D01*
X18162D01*
Y34750D01*
X18231D01*
Y34819D01*
X18300D01*
Y34888D01*
X18437D01*
Y34957D01*
Y35026D01*
X18506D01*
Y35095D01*
X18575D01*
Y35164D01*
X18782D01*
Y35233D01*
X18713D01*
Y35302D01*
X18782D01*
Y35370D01*
X18713D01*
Y35439D01*
X18782D01*
Y35508D01*
X18713D01*
Y35577D01*
X18782D01*
Y35646D01*
X18713D01*
Y35715D01*
X18782D01*
Y35784D01*
X18713D01*
Y35853D01*
X18782D01*
Y35922D01*
X18713D01*
Y35991D01*
X18782D01*
Y36059D01*
X18713D01*
Y36128D01*
X18782D01*
Y36197D01*
X18713D01*
Y36266D01*
X18782D01*
Y36335D01*
X18713D01*
Y36404D01*
X18782D01*
Y36473D01*
X18713D01*
Y36542D01*
X18782D01*
Y36610D01*
X18713D01*
Y36679D01*
X18782D01*
Y36748D01*
X18713D01*
Y36817D01*
X18782D01*
Y36886D01*
X18713D01*
Y36955D01*
X18782D01*
Y37024D01*
X18713D01*
Y37093D01*
X18782D01*
Y37162D01*
X18713D01*
Y37231D01*
X18782D01*
Y37299D01*
X18713D01*
Y37368D01*
X18782D01*
Y37437D01*
X18713D01*
Y37506D01*
X18782D01*
Y37575D01*
X18713D01*
Y37644D01*
X18782D01*
Y37713D01*
X18713D01*
Y37782D01*
X18782D01*
Y37851D01*
X18713D01*
Y37920D01*
X18782D01*
Y37988D01*
X18713D01*
Y38057D01*
X18782D01*
Y38126D01*
X18713D01*
Y38195D01*
X18782D01*
Y38264D01*
X18713D01*
Y38333D01*
X18782D01*
Y38402D01*
X18713D01*
Y38471D01*
X18782D01*
Y38540D01*
X18713D01*
Y38609D01*
X18782D01*
Y38677D01*
X18713D01*
Y38746D01*
X18782D01*
Y38815D01*
X18713D01*
Y38884D01*
X18782D01*
Y38953D01*
X18713D01*
Y39022D01*
X18782D01*
Y39091D01*
X18713D01*
Y39160D01*
X18782D01*
Y39228D01*
X18713D01*
Y39297D01*
X18782D01*
Y39366D01*
X18713D01*
Y39435D01*
X18782D01*
Y39504D01*
X18713D01*
Y39573D01*
X18782D01*
Y39642D01*
X18713D01*
Y39711D01*
X18782D01*
Y39780D01*
X18713D01*
Y39849D01*
X18782D01*
Y39917D01*
Y39986D01*
X18920D01*
Y40055D01*
Y40124D01*
X19057D01*
Y40193D01*
Y40262D01*
X19195D01*
Y40331D01*
X19126D01*
Y40400D01*
X19333D01*
Y40469D01*
X19264D01*
Y40538D01*
X19471D01*
Y40606D01*
X19402D01*
Y40675D01*
X19609D01*
Y40744D01*
Y40813D01*
X19746D01*
Y40882D01*
X19677D01*
Y40951D01*
X19884D01*
Y41020D01*
X19815D01*
Y41089D01*
X20022D01*
Y41158D01*
X19953D01*
Y41227D01*
X20160D01*
Y41295D01*
X20091D01*
Y41364D01*
X20297D01*
Y41433D01*
X20229D01*
Y41502D01*
X20366D01*
Y41571D01*
Y41640D01*
X20504D01*
Y41709D01*
Y41778D01*
X20642D01*
Y41846D01*
Y41915D01*
X20780D01*
Y41984D01*
Y42053D01*
X20918D01*
Y42122D01*
Y42191D01*
X20849D01*
Y42260D01*
X20780D01*
Y42329D01*
X20711D01*
Y42398D01*
X20642D01*
Y42467D01*
X20573D01*
Y42535D01*
X20504D01*
Y42604D01*
X20435D01*
Y42673D01*
X20366D01*
Y42742D01*
X20297D01*
Y42811D01*
X20229D01*
Y42880D01*
X20160D01*
Y42949D01*
X20091D01*
Y43018D01*
X20022D01*
Y43087D01*
X19953D01*
Y43156D01*
X19884D01*
Y43224D01*
X19815D01*
Y43293D01*
X19746D01*
Y43362D01*
X19677D01*
Y43431D01*
X19609D01*
Y43500D01*
X19540D01*
Y43569D01*
X19471D01*
Y43638D01*
X19402D01*
Y43707D01*
X19333D01*
Y43776D01*
X19264D01*
Y43845D01*
X19195D01*
Y43913D01*
X19126D01*
Y43982D01*
X19057D01*
Y44051D01*
X18988D01*
Y44120D01*
X18920D01*
Y44189D01*
X18851D01*
Y44258D01*
Y44327D01*
Y44396D01*
X18920D01*
Y44464D01*
X18851D01*
Y44533D01*
Y44602D01*
Y44671D01*
Y44740D01*
Y44809D01*
Y44878D01*
Y44947D01*
X18920D01*
Y45016D01*
X18851D01*
Y45085D01*
Y45153D01*
Y45222D01*
X18920D01*
Y45291D01*
X18851D01*
Y45360D01*
Y45429D01*
Y45498D01*
X18920D01*
Y45567D01*
X18851D01*
Y45636D01*
Y45705D01*
Y45774D01*
Y45842D01*
Y45911D01*
Y45980D01*
Y46049D01*
X18920D01*
Y46118D01*
X18851D01*
Y46187D01*
Y46256D01*
Y46325D01*
X18920D01*
Y46394D01*
X18851D01*
Y46463D01*
Y46531D01*
Y46600D01*
X18920D01*
Y46669D01*
X18851D01*
Y46738D01*
Y46807D01*
Y46876D01*
Y46945D01*
Y47014D01*
Y47082D01*
Y47151D01*
Y47220D01*
Y47289D01*
X18920D01*
Y47358D01*
X18988D01*
Y47427D01*
X19057D01*
Y47496D01*
X19126D01*
Y47565D01*
X19195D01*
Y47634D01*
X19264D01*
Y47703D01*
X19333D01*
Y47771D01*
X19402D01*
Y47840D01*
X19471D01*
Y47909D01*
X19540D01*
Y47978D01*
X19609D01*
Y48047D01*
X19677D01*
Y48116D01*
X19746D01*
Y48185D01*
X19815D01*
Y48254D01*
X19884D01*
Y48323D01*
X19953D01*
Y48392D01*
X20022D01*
Y48460D01*
X20091D01*
Y48529D01*
X20160D01*
Y48598D01*
X20229D01*
Y48667D01*
X20297D01*
Y48736D01*
X20366D01*
Y48805D01*
X20435D01*
Y48874D01*
X20504D01*
Y48943D01*
X20573D01*
Y49012D01*
X20642D01*
Y49081D01*
X20711D01*
Y49149D01*
X20780D01*
Y49218D01*
X20849D01*
Y49287D01*
X20918D01*
Y49356D01*
X20986D01*
Y49425D01*
X21055D01*
Y49494D01*
X21124D01*
Y49563D01*
X21193D01*
Y49632D01*
X21262D01*
Y49700D01*
X21331D01*
Y49769D01*
X21400D01*
Y49838D01*
X21469D01*
Y49907D01*
X21538D01*
Y49976D01*
X21606D01*
Y50045D01*
X21675D01*
Y50114D01*
X21744D01*
Y50183D01*
X21813D01*
Y50252D01*
X21882D01*
Y50321D01*
X21951D01*
Y50389D01*
X22020D01*
Y50458D01*
X22158D01*
Y50527D01*
Y50596D01*
X26360D01*
Y50527D01*
D02*
G37*
G36*
X13546D02*
X13615D01*
Y50458D01*
X13683D01*
Y50389D01*
X13752D01*
Y50321D01*
X13821D01*
Y50252D01*
X13890D01*
Y50183D01*
X13959D01*
Y50114D01*
X14028D01*
Y50045D01*
X14097D01*
Y49976D01*
X14166D01*
Y49907D01*
X14235D01*
Y49838D01*
X14304D01*
Y49769D01*
X14372D01*
Y49700D01*
X14441D01*
Y49632D01*
X14510D01*
Y49563D01*
X14579D01*
Y49494D01*
X14648D01*
Y49425D01*
X14717D01*
Y49356D01*
X14786D01*
Y49287D01*
X14855D01*
Y49218D01*
X14924D01*
Y49149D01*
X14992D01*
Y49081D01*
X15061D01*
Y49012D01*
X15130D01*
Y48943D01*
X15199D01*
Y48874D01*
X15268D01*
Y48805D01*
X15337D01*
Y48736D01*
X15406D01*
Y48667D01*
X15475D01*
Y48598D01*
X15544D01*
Y48529D01*
X15613D01*
Y48460D01*
X15682D01*
Y48392D01*
X15750D01*
Y48323D01*
X15819D01*
Y48254D01*
X15888D01*
Y48185D01*
X15957D01*
Y48116D01*
X16026D01*
Y48047D01*
X16095D01*
Y47978D01*
X16164D01*
Y47909D01*
X16233D01*
Y47840D01*
X16301D01*
Y47771D01*
X16370D01*
Y47703D01*
X16439D01*
Y47634D01*
X16508D01*
Y47565D01*
X16577D01*
Y47496D01*
X16646D01*
Y47427D01*
X16715D01*
Y47358D01*
X16784D01*
Y47289D01*
X16853D01*
Y47220D01*
X16922D01*
Y47151D01*
X16991D01*
Y47082D01*
X17059D01*
Y47014D01*
X17128D01*
Y46945D01*
X17197D01*
Y46876D01*
X17266D01*
Y46807D01*
X17335D01*
Y46738D01*
X17404D01*
Y46669D01*
X17473D01*
Y46600D01*
X17542D01*
Y46531D01*
X17610D01*
Y46463D01*
X17679D01*
Y46394D01*
X17610D01*
Y46325D01*
X17679D01*
Y46256D01*
X17610D01*
Y46187D01*
X17679D01*
Y46118D01*
X17610D01*
Y46049D01*
X17679D01*
Y45980D01*
X17610D01*
Y45911D01*
X17679D01*
Y45842D01*
X17610D01*
Y45774D01*
X17679D01*
Y45705D01*
X17610D01*
Y45636D01*
X17679D01*
Y45567D01*
X17610D01*
Y45498D01*
X17679D01*
Y45429D01*
X17610D01*
Y45360D01*
X17679D01*
Y45291D01*
X17610D01*
Y45222D01*
X17679D01*
Y45153D01*
X17610D01*
Y45085D01*
X17679D01*
Y45016D01*
X17610D01*
Y44947D01*
X17679D01*
Y44878D01*
X17610D01*
Y44809D01*
X17679D01*
Y44740D01*
X17610D01*
Y44671D01*
X17679D01*
Y44602D01*
X17610D01*
Y44533D01*
X17679D01*
Y44464D01*
X17610D01*
Y44396D01*
X17679D01*
Y44327D01*
X17610D01*
Y44258D01*
X17679D01*
Y44189D01*
X17610D01*
Y44120D01*
X17679D01*
Y44051D01*
X17610D01*
Y43982D01*
X17679D01*
Y43913D01*
X17610D01*
Y43845D01*
X17679D01*
Y43776D01*
X17610D01*
Y43707D01*
X17679D01*
Y43638D01*
X17610D01*
Y43569D01*
X17679D01*
Y43500D01*
X17610D01*
Y43431D01*
X17679D01*
Y43362D01*
X17610D01*
Y43293D01*
X17679D01*
Y43224D01*
X17610D01*
Y43156D01*
X17679D01*
Y43087D01*
X17610D01*
Y43018D01*
X17679D01*
Y42949D01*
X17610D01*
Y42880D01*
X17679D01*
Y42811D01*
X17610D01*
Y42742D01*
X17679D01*
Y42673D01*
X17610D01*
Y42604D01*
X17679D01*
Y42535D01*
X17610D01*
Y42467D01*
X17679D01*
Y42398D01*
X17610D01*
Y42329D01*
X17679D01*
Y42260D01*
X17610D01*
Y42191D01*
X17679D01*
Y42122D01*
X17610D01*
Y42053D01*
X17679D01*
Y41984D01*
X17610D01*
Y41915D01*
X17679D01*
Y41846D01*
X17610D01*
Y41778D01*
X17679D01*
Y41709D01*
X17610D01*
Y41640D01*
X17679D01*
Y41571D01*
X17610D01*
Y41502D01*
X17679D01*
Y41433D01*
X17610D01*
Y41364D01*
X17679D01*
Y41295D01*
X17610D01*
Y41227D01*
X17679D01*
Y41158D01*
X17610D01*
Y41089D01*
X17679D01*
Y41020D01*
X17610D01*
Y40951D01*
X17679D01*
Y40882D01*
X17610D01*
Y40813D01*
X17679D01*
Y40744D01*
X17610D01*
Y40675D01*
X17679D01*
Y40606D01*
X17610D01*
Y40538D01*
X17679D01*
Y40469D01*
X17610D01*
Y40400D01*
X17679D01*
Y40331D01*
X17610D01*
Y40262D01*
X17679D01*
Y40193D01*
X17610D01*
Y40124D01*
X17679D01*
Y40055D01*
X17610D01*
Y39986D01*
X17679D01*
Y39917D01*
X17610D01*
Y39849D01*
X17679D01*
Y39780D01*
X17610D01*
Y39711D01*
X17679D01*
Y39642D01*
X17610D01*
Y39573D01*
X17679D01*
Y39504D01*
X17610D01*
Y39435D01*
X17679D01*
Y39366D01*
X17610D01*
Y39297D01*
X17679D01*
Y39228D01*
X17610D01*
Y39160D01*
X17679D01*
Y39091D01*
X17610D01*
Y39022D01*
X17679D01*
Y38953D01*
X17610D01*
Y38884D01*
X17679D01*
Y38815D01*
X17610D01*
Y38746D01*
X17679D01*
Y38677D01*
X17610D01*
Y38609D01*
X17679D01*
Y38540D01*
X17610D01*
Y38471D01*
X17679D01*
Y38402D01*
X17610D01*
Y38333D01*
X17679D01*
Y38264D01*
X17610D01*
Y38195D01*
X17679D01*
Y38126D01*
X17610D01*
Y38057D01*
X17679D01*
Y37988D01*
X17610D01*
Y37920D01*
X17679D01*
Y37851D01*
X17610D01*
Y37782D01*
X17679D01*
Y37713D01*
X17610D01*
Y37644D01*
X17679D01*
Y37575D01*
X17610D01*
Y37506D01*
X17679D01*
Y37437D01*
X17610D01*
Y37368D01*
X17679D01*
Y37299D01*
X17610D01*
Y37231D01*
X17679D01*
Y37162D01*
X17610D01*
Y37093D01*
X17679D01*
Y37024D01*
X17610D01*
Y36955D01*
X17679D01*
Y36886D01*
X17610D01*
Y36817D01*
X17679D01*
Y36748D01*
X17610D01*
Y36679D01*
X17679D01*
Y36610D01*
X17610D01*
Y36542D01*
X17679D01*
Y36473D01*
X17610D01*
Y36404D01*
X17679D01*
Y36335D01*
X17610D01*
Y36266D01*
X17679D01*
Y36197D01*
X17610D01*
Y36128D01*
X17679D01*
Y36059D01*
X17610D01*
Y35991D01*
X17679D01*
Y35922D01*
X17610D01*
Y35853D01*
X17679D01*
Y35784D01*
X17610D01*
Y35715D01*
X17679D01*
Y35646D01*
X17610D01*
Y35577D01*
X17679D01*
Y35508D01*
X17610D01*
Y35439D01*
X17679D01*
Y35370D01*
X17610D01*
Y35302D01*
X17679D01*
Y35233D01*
X17610D01*
Y35164D01*
X17542D01*
Y35095D01*
X17473D01*
Y35026D01*
X17404D01*
Y34957D01*
X17335D01*
Y34888D01*
X17266D01*
Y34819D01*
X17197D01*
Y34750D01*
X17128D01*
Y34681D01*
X17059D01*
Y34613D01*
X16991D01*
Y34544D01*
X16922D01*
Y34475D01*
X16853D01*
Y34406D01*
X16784D01*
Y34337D01*
X16715D01*
Y34268D01*
X16646D01*
Y34199D01*
X16577D01*
Y34130D01*
X16508D01*
Y34061D01*
X16439D01*
Y33992D01*
X16370D01*
Y33924D01*
X16301D01*
Y33855D01*
X16233D01*
Y33786D01*
X16164D01*
Y33717D01*
X16095D01*
Y33648D01*
X16026D01*
Y33579D01*
X15957D01*
Y33510D01*
X15888D01*
Y33441D01*
X15819D01*
Y33372D01*
X15750D01*
Y33304D01*
X15682D01*
Y33235D01*
X15613D01*
Y33166D01*
X15544D01*
Y33097D01*
X15475D01*
Y33028D01*
X15406D01*
Y32959D01*
X15337D01*
Y32890D01*
X15268D01*
Y32821D01*
X15199D01*
Y32752D01*
X15130D01*
Y32684D01*
X15061D01*
Y32615D01*
X14992D01*
Y32546D01*
X14924D01*
Y32477D01*
X14855D01*
Y32408D01*
X14786D01*
Y32339D01*
X14717D01*
Y32270D01*
X14648D01*
Y32201D01*
X14579D01*
Y32132D01*
X14510D01*
Y32063D01*
X14441D01*
Y31995D01*
X14372D01*
Y31926D01*
X14304D01*
Y31857D01*
X14235D01*
Y31788D01*
X14166D01*
Y31719D01*
X14097D01*
Y31650D01*
X14028D01*
Y31581D01*
X13959D01*
Y31512D01*
X13890D01*
Y31443D01*
X13821D01*
Y31374D01*
X13752D01*
Y31306D01*
X13683D01*
Y31374D01*
X13615D01*
Y31443D01*
X13546D01*
Y31512D01*
X13477D01*
Y31581D01*
X13408D01*
Y31650D01*
X13339D01*
Y31719D01*
X13270D01*
Y31788D01*
X13201D01*
Y31857D01*
X13132D01*
Y31926D01*
X13063D01*
Y31995D01*
X12995D01*
Y32063D01*
X12926D01*
Y32132D01*
X12857D01*
Y32201D01*
X12788D01*
Y32270D01*
X12719D01*
Y32339D01*
X12650D01*
Y32408D01*
X12581D01*
Y32477D01*
X12512D01*
Y32546D01*
X12443D01*
Y32615D01*
X12375D01*
Y32684D01*
X12306D01*
Y32752D01*
X12237D01*
Y32821D01*
X12168D01*
Y32890D01*
X12099D01*
Y32959D01*
X12030D01*
Y33028D01*
X11961D01*
Y33097D01*
X11892D01*
Y33166D01*
X11823D01*
Y33235D01*
X11754D01*
Y33304D01*
X11686D01*
Y33372D01*
X11617D01*
Y33441D01*
X11548D01*
Y33510D01*
X11479D01*
Y33579D01*
X11410D01*
Y33648D01*
X11341D01*
Y33717D01*
X11272D01*
Y33786D01*
X11203D01*
Y33855D01*
X11134D01*
Y33924D01*
X11066D01*
Y33992D01*
X10997D01*
Y34061D01*
X10928D01*
Y34130D01*
X10859D01*
Y34199D01*
X10790D01*
Y34268D01*
X10721D01*
Y34337D01*
X10652D01*
Y34406D01*
X10583D01*
Y34475D01*
X10514D01*
Y34544D01*
X10445D01*
Y34613D01*
X10377D01*
Y34681D01*
X10308D01*
Y34750D01*
X10239D01*
Y34819D01*
X10170D01*
Y34888D01*
X10101D01*
Y34957D01*
X10032D01*
Y35026D01*
X9963D01*
Y35095D01*
X9894D01*
Y35164D01*
X9825D01*
Y35233D01*
X9757D01*
Y35302D01*
X9688D01*
Y35370D01*
X9619D01*
Y35439D01*
X9550D01*
Y35508D01*
X9481D01*
Y35577D01*
X9412D01*
Y35646D01*
X9343D01*
Y35715D01*
X9274D01*
Y35784D01*
Y35853D01*
Y35922D01*
Y35991D01*
Y36059D01*
Y36128D01*
Y36197D01*
Y36266D01*
Y36335D01*
Y36404D01*
Y36473D01*
Y36542D01*
Y36610D01*
Y36679D01*
Y36748D01*
Y36817D01*
Y36886D01*
Y36955D01*
Y37024D01*
Y37093D01*
Y37162D01*
Y37231D01*
Y37299D01*
Y37368D01*
Y37437D01*
Y37506D01*
Y37575D01*
Y37644D01*
Y37713D01*
Y37782D01*
Y37851D01*
Y37920D01*
Y37988D01*
Y38057D01*
Y38126D01*
Y38195D01*
Y38264D01*
Y38333D01*
Y38402D01*
Y38471D01*
Y38540D01*
Y38609D01*
Y38677D01*
Y38746D01*
Y38815D01*
Y38884D01*
Y38953D01*
Y39022D01*
Y39091D01*
Y39160D01*
Y39228D01*
Y39297D01*
Y39366D01*
Y39435D01*
Y39504D01*
Y39573D01*
Y39642D01*
Y39711D01*
Y39780D01*
Y39849D01*
Y39917D01*
Y39986D01*
Y40055D01*
Y40124D01*
Y40193D01*
Y40262D01*
Y40331D01*
Y40400D01*
Y40469D01*
Y40538D01*
Y40606D01*
Y40675D01*
Y40744D01*
Y40813D01*
Y40882D01*
Y40951D01*
Y41020D01*
Y41089D01*
Y41158D01*
Y41227D01*
Y41295D01*
Y41364D01*
Y41433D01*
Y41502D01*
Y41571D01*
Y41640D01*
Y41709D01*
Y41778D01*
Y41846D01*
Y41915D01*
Y41984D01*
Y42053D01*
Y42122D01*
Y42191D01*
Y42260D01*
Y42329D01*
Y42398D01*
Y42467D01*
Y42535D01*
Y42604D01*
Y42673D01*
Y42742D01*
Y42811D01*
Y42880D01*
Y42949D01*
Y43018D01*
Y43087D01*
Y43156D01*
Y43224D01*
Y43293D01*
Y43362D01*
Y43431D01*
Y43500D01*
Y43569D01*
Y43638D01*
Y43707D01*
Y43776D01*
Y43845D01*
Y43913D01*
Y43982D01*
Y44051D01*
Y44120D01*
Y44189D01*
Y44258D01*
Y44327D01*
Y44396D01*
Y44464D01*
Y44533D01*
Y44602D01*
Y44671D01*
Y44740D01*
Y44809D01*
Y44878D01*
Y44947D01*
Y45016D01*
Y45085D01*
Y45153D01*
Y45222D01*
Y45291D01*
Y45360D01*
Y45429D01*
Y45498D01*
Y45567D01*
Y45636D01*
Y45705D01*
Y45774D01*
Y45842D01*
Y45911D01*
Y45980D01*
Y46049D01*
Y46118D01*
Y46187D01*
Y46256D01*
Y46325D01*
Y46394D01*
X9343D01*
Y46463D01*
X9412D01*
Y46531D01*
X9481D01*
Y46600D01*
X9550D01*
Y46669D01*
X9619D01*
Y46738D01*
X9688D01*
Y46807D01*
X9757D01*
Y46876D01*
X9825D01*
Y46945D01*
X9894D01*
Y47014D01*
X9963D01*
Y47082D01*
X10032D01*
Y47151D01*
X10101D01*
Y47220D01*
X10170D01*
Y47289D01*
X10239D01*
Y47358D01*
X10308D01*
Y47427D01*
X10377D01*
Y47496D01*
X10445D01*
Y47565D01*
X10514D01*
Y47634D01*
X10583D01*
Y47703D01*
X10652D01*
Y47771D01*
X10721D01*
Y47840D01*
X10790D01*
Y47909D01*
X10859D01*
Y47978D01*
X10928D01*
Y48047D01*
X10997D01*
Y48116D01*
X11066D01*
Y48185D01*
X11134D01*
Y48254D01*
X11203D01*
Y48323D01*
X11272D01*
Y48392D01*
X11341D01*
Y48460D01*
X11410D01*
Y48529D01*
X11479D01*
Y48598D01*
X11548D01*
Y48667D01*
X11617D01*
Y48736D01*
X11686D01*
Y48805D01*
X11754D01*
Y48874D01*
X11823D01*
Y48943D01*
X11892D01*
Y49012D01*
X11961D01*
Y49081D01*
X12030D01*
Y49149D01*
X12099D01*
Y49218D01*
X12168D01*
Y49287D01*
X12237D01*
Y49356D01*
X12306D01*
Y49425D01*
X12375D01*
Y49494D01*
X12443D01*
Y49563D01*
X12512D01*
Y49632D01*
X12581D01*
Y49700D01*
X12650D01*
Y49769D01*
X12719D01*
Y49838D01*
X12788D01*
Y49907D01*
X12857D01*
Y49976D01*
X12926D01*
Y50045D01*
X12995D01*
Y50114D01*
X13063D01*
Y50183D01*
X13132D01*
Y50252D01*
X13201D01*
Y50321D01*
X13270D01*
Y50389D01*
X13339D01*
Y50458D01*
X13408D01*
Y50527D01*
X13477D01*
Y50596D01*
X13546D01*
Y50527D01*
D02*
G37*
G36*
X144417Y77961D02*
X144544Y77904D01*
X144637Y77834D01*
X144729Y77765D01*
X144787Y77707D01*
X144833Y77649D01*
X144857Y77614D01*
X144868Y77603D01*
X157803Y55226D01*
X157861Y55064D01*
X157884Y54914D01*
Y54775D01*
X157873Y54648D01*
X157850Y54544D01*
X157826Y54474D01*
X157815Y54428D01*
X157803Y54405D01*
X157699Y54266D01*
X157595Y54174D01*
X157468Y54104D01*
X157364Y54046D01*
X157260Y54023D01*
X157178Y54012D01*
X157121Y54000D01*
X131227D01*
X131077Y54023D01*
X130949Y54069D01*
X130822Y54127D01*
X130729Y54208D01*
X130649Y54278D01*
X130591Y54347D01*
X130556Y54393D01*
X130544Y54405D01*
X130475Y54555D01*
X130452Y54694D01*
X130440Y54833D01*
X130452Y54960D01*
X130487Y55064D01*
X130510Y55157D01*
X130533Y55203D01*
X130544Y55226D01*
X143456Y77603D01*
X143514Y77695D01*
X143584Y77765D01*
X143653Y77823D01*
X143723Y77881D01*
X143861Y77950D01*
X143989Y77996D01*
X144104Y78019D01*
X144278D01*
X144417Y77961D01*
D02*
G37*
G36*
X104338Y78100D02*
X104454Y78042D01*
X104558Y77973D01*
X104639Y77904D01*
X104709Y77834D01*
X104755Y77776D01*
X104778Y77730D01*
X104790Y77719D01*
X117783Y55226D01*
X117829Y55076D01*
X117852Y54926D01*
X117864Y54787D01*
X117852Y54659D01*
X117829Y54555D01*
X117806Y54474D01*
X117794Y54428D01*
X117783Y54405D01*
X117690Y54266D01*
X117574Y54173D01*
X117459Y54104D01*
X117343Y54046D01*
X117239Y54023D01*
X117158Y54012D01*
X117100Y54000D01*
X91091D01*
X90929Y54023D01*
X90790Y54069D01*
X90674Y54127D01*
X90570Y54208D01*
X90489Y54278D01*
X90431Y54347D01*
X90396Y54393D01*
X90385Y54405D01*
X90339Y54555D01*
X90316Y54706D01*
X90304Y54845D01*
X90316Y54972D01*
X90339Y55076D01*
X90362Y55157D01*
X90373Y55203D01*
X90385Y55226D01*
X103378Y77719D01*
X103436Y77811D01*
X103505Y77881D01*
X103575Y77938D01*
X103644Y77996D01*
X103783Y78066D01*
X103910Y78112D01*
X104026Y78135D01*
X104200D01*
X104338Y78100D01*
D02*
G37*
%LPC*%
G36*
X53642Y47220D02*
X53574D01*
Y47151D01*
Y47082D01*
X53436D01*
Y47014D01*
X53505D01*
Y46945D01*
X53298D01*
Y46876D01*
Y46807D01*
X53160D01*
Y46738D01*
X53229D01*
Y46669D01*
X53022D01*
Y46600D01*
Y46531D01*
X52885D01*
Y46463D01*
X52954D01*
Y46394D01*
X52747D01*
Y46325D01*
X52816D01*
Y46256D01*
X52609D01*
Y46187D01*
X52678D01*
Y46118D01*
X52471D01*
Y46049D01*
X52540D01*
Y45980D01*
X52333D01*
Y45911D01*
X52402D01*
Y45842D01*
X52196D01*
Y45774D01*
X52265D01*
Y45705D01*
X52058D01*
Y45636D01*
X52127D01*
Y45567D01*
X51920D01*
Y45498D01*
X51989D01*
Y45429D01*
X51782D01*
Y45360D01*
X51851D01*
Y45291D01*
X51645D01*
Y45222D01*
X51714D01*
Y45153D01*
X51507D01*
Y45085D01*
X51576D01*
Y45016D01*
X51369D01*
Y44947D01*
X51438D01*
Y44878D01*
X51369D01*
Y44809D01*
X51300D01*
Y44740D01*
X51231D01*
Y44671D01*
X51162D01*
Y44602D01*
X51093D01*
Y44533D01*
X51162D01*
Y44464D01*
X51093D01*
Y44396D01*
X51162D01*
Y44327D01*
X51093D01*
Y44258D01*
X51162D01*
Y44189D01*
X51093D01*
Y44120D01*
X51162D01*
Y44051D01*
X51093D01*
Y43982D01*
X51162D01*
Y43913D01*
X51093D01*
Y43845D01*
X51162D01*
Y43776D01*
X51093D01*
Y43707D01*
X51162D01*
Y43638D01*
X51093D01*
Y43569D01*
X51162D01*
Y43500D01*
X51093D01*
Y43431D01*
X51162D01*
Y43362D01*
X51093D01*
Y43293D01*
X51162D01*
Y43224D01*
X51093D01*
Y43156D01*
X51162D01*
Y43087D01*
X51093D01*
Y43018D01*
X51162D01*
Y42949D01*
X51093D01*
Y42880D01*
X51162D01*
Y42811D01*
X51093D01*
Y42742D01*
X51162D01*
Y42673D01*
X51093D01*
Y42604D01*
X51162D01*
Y42535D01*
X51093D01*
Y42467D01*
X51162D01*
Y42398D01*
X51093D01*
Y42329D01*
X51162D01*
Y42260D01*
X51093D01*
Y42191D01*
X51162D01*
Y42122D01*
X51093D01*
Y42053D01*
X51162D01*
Y41984D01*
X51093D01*
Y41915D01*
X51162D01*
Y41846D01*
X51093D01*
Y41778D01*
X51162D01*
Y41709D01*
X51093D01*
Y41640D01*
X51162D01*
Y41571D01*
X51093D01*
Y41502D01*
X51162D01*
Y41433D01*
X51093D01*
Y41364D01*
X51162D01*
Y41295D01*
X51093D01*
Y41227D01*
X51162D01*
Y41158D01*
X51093D01*
Y41089D01*
X51162D01*
Y41020D01*
X51093D01*
Y40951D01*
X51162D01*
Y40882D01*
X51093D01*
Y40813D01*
X53642D01*
Y40882D01*
X53711D01*
Y40951D01*
Y41020D01*
Y41089D01*
X53642D01*
Y41158D01*
X53711D01*
Y41227D01*
Y41295D01*
Y41364D01*
X53642D01*
Y41433D01*
X53711D01*
Y41502D01*
Y41571D01*
Y41640D01*
X53642D01*
Y41709D01*
X53711D01*
Y41778D01*
Y41846D01*
Y41915D01*
X53642D01*
Y41984D01*
X53711D01*
Y42053D01*
Y42122D01*
Y42191D01*
X53642D01*
Y42260D01*
X53711D01*
Y42329D01*
Y42398D01*
Y42467D01*
X53642D01*
Y42535D01*
X53711D01*
Y42604D01*
Y42673D01*
Y42742D01*
X53642D01*
Y42811D01*
X53711D01*
Y42880D01*
Y42949D01*
Y43018D01*
X53642D01*
Y43087D01*
X53711D01*
Y43156D01*
Y43224D01*
Y43293D01*
X53642D01*
Y43362D01*
X53711D01*
Y43431D01*
Y43500D01*
Y43569D01*
X53642D01*
Y43638D01*
X53711D01*
Y43707D01*
Y43776D01*
Y43845D01*
X53642D01*
Y43913D01*
X53711D01*
Y43982D01*
Y44051D01*
Y44120D01*
X53642D01*
Y44189D01*
X53711D01*
Y44258D01*
Y44327D01*
Y44396D01*
X53642D01*
Y44464D01*
X53711D01*
Y44533D01*
Y44602D01*
Y44671D01*
X53642D01*
Y44740D01*
X53711D01*
Y44809D01*
Y44878D01*
Y44947D01*
X53642D01*
Y45016D01*
X53711D01*
Y45085D01*
Y45153D01*
Y45222D01*
X53642D01*
Y45291D01*
X53711D01*
Y45360D01*
Y45429D01*
Y45498D01*
X53642D01*
Y45567D01*
X53711D01*
Y45636D01*
Y45705D01*
Y45774D01*
X53642D01*
Y45842D01*
X53711D01*
Y45911D01*
Y45980D01*
Y46049D01*
X53642D01*
Y46118D01*
X53711D01*
Y46187D01*
Y46256D01*
Y46325D01*
X53642D01*
Y46394D01*
X53711D01*
Y46463D01*
Y46531D01*
Y46600D01*
X53642D01*
Y46669D01*
X53711D01*
Y46738D01*
Y46807D01*
Y46876D01*
X53642D01*
Y46945D01*
X53711D01*
Y47014D01*
Y47082D01*
Y47151D01*
X53642D01*
Y47220D01*
D02*
G37*
G36*
X34214Y49563D02*
X34145D01*
Y49494D01*
X34214D01*
Y49563D01*
D02*
G37*
G36*
X43997Y47220D02*
X43928D01*
Y47151D01*
X43997D01*
Y47220D01*
D02*
G37*
G36*
X24569Y48460D02*
X24500D01*
Y48392D01*
X24569D01*
Y48460D01*
D02*
G37*
G36*
X24500Y48392D02*
X24431D01*
Y48323D01*
X24362D01*
Y48254D01*
X24293D01*
Y48185D01*
X24224D01*
Y48116D01*
X24156D01*
Y48047D01*
X24087D01*
Y47978D01*
X24018D01*
Y47909D01*
X23949D01*
Y47840D01*
X23880D01*
Y47771D01*
X23811D01*
Y47703D01*
X23742D01*
Y47634D01*
X23673D01*
Y47565D01*
X23604D01*
Y47496D01*
X23536D01*
Y47427D01*
X23467D01*
Y47358D01*
X23398D01*
Y47289D01*
X23329D01*
Y47220D01*
X23260D01*
Y47151D01*
X23191D01*
Y47082D01*
X23122D01*
Y47014D01*
X23053D01*
Y46945D01*
X22984D01*
Y46876D01*
X22915D01*
Y46807D01*
X22847D01*
Y46738D01*
X22778D01*
Y46669D01*
X22709D01*
Y46600D01*
X22640D01*
Y46531D01*
X22571D01*
Y46463D01*
X22502D01*
Y46394D01*
X22433D01*
Y46325D01*
X22364D01*
Y46256D01*
X22295D01*
Y46187D01*
X22227D01*
Y46118D01*
X22158D01*
Y46049D01*
X22089D01*
Y45980D01*
X22020D01*
Y45911D01*
X21951D01*
Y45842D01*
X21882D01*
Y45774D01*
X21813D01*
Y45705D01*
X21744D01*
Y45636D01*
X21675D01*
Y45567D01*
X21606D01*
Y45498D01*
X21538D01*
Y45429D01*
X21606D01*
Y45360D01*
X21675D01*
Y45291D01*
X21744D01*
Y45222D01*
X21813D01*
Y45153D01*
X21882D01*
Y45085D01*
X21951D01*
Y45016D01*
X22020D01*
Y44947D01*
X22089D01*
Y44878D01*
X22158D01*
Y44809D01*
X22227D01*
Y44740D01*
X22295D01*
Y44671D01*
X22364D01*
Y44602D01*
X22433D01*
Y44533D01*
X22502D01*
Y44464D01*
X22571D01*
Y44396D01*
X22640D01*
Y44327D01*
X22709D01*
Y44258D01*
X22778D01*
Y44189D01*
X22847D01*
Y44120D01*
X22915D01*
Y44051D01*
X22984D01*
Y43982D01*
X23053D01*
Y43913D01*
X23122D01*
Y43845D01*
X23191D01*
Y43776D01*
X23260D01*
Y43707D01*
X23467D01*
Y43638D01*
X23398D01*
Y43569D01*
X23467D01*
Y43500D01*
X23536D01*
Y43431D01*
X23742D01*
Y43362D01*
X23673D01*
Y43293D01*
X23742D01*
Y43224D01*
X23811D01*
Y43156D01*
X24018D01*
Y43087D01*
X23949D01*
Y43018D01*
X24018D01*
Y42949D01*
X24087D01*
Y42880D01*
X24293D01*
Y42811D01*
X24224D01*
Y42742D01*
X24362D01*
Y42673D01*
Y42604D01*
X24569D01*
Y42673D01*
X24500D01*
Y42742D01*
Y42811D01*
Y42880D01*
X24569D01*
Y42949D01*
X24500D01*
Y43018D01*
Y43087D01*
Y43156D01*
X24569D01*
Y43224D01*
X24500D01*
Y43293D01*
Y43362D01*
Y43431D01*
X24569D01*
Y43500D01*
X24500D01*
Y43569D01*
Y43638D01*
Y43707D01*
X24569D01*
Y43776D01*
X24500D01*
Y43845D01*
Y43913D01*
Y43982D01*
X24569D01*
Y44051D01*
X24500D01*
Y44120D01*
Y44189D01*
Y44258D01*
X24569D01*
Y44327D01*
X24500D01*
Y44396D01*
Y44464D01*
Y44533D01*
X24569D01*
Y44602D01*
X24500D01*
Y44671D01*
Y44740D01*
Y44809D01*
X24569D01*
Y44878D01*
X24500D01*
Y44947D01*
Y45016D01*
Y45085D01*
X24569D01*
Y45153D01*
X24500D01*
Y45222D01*
Y45291D01*
Y45360D01*
X24569D01*
Y45429D01*
X24500D01*
Y45498D01*
Y45567D01*
Y45636D01*
X24569D01*
Y45705D01*
X24500D01*
Y45774D01*
Y45842D01*
Y45911D01*
X24569D01*
Y45980D01*
X24500D01*
Y46049D01*
Y46118D01*
Y46187D01*
X24569D01*
Y46256D01*
X24500D01*
Y46325D01*
Y46394D01*
Y46463D01*
X24569D01*
Y46531D01*
X24500D01*
Y46600D01*
Y46669D01*
Y46738D01*
X24569D01*
Y46807D01*
X24500D01*
Y46876D01*
Y46945D01*
Y47014D01*
X24569D01*
Y47082D01*
X24500D01*
Y47151D01*
Y47220D01*
Y47289D01*
X24569D01*
Y47358D01*
X24500D01*
Y47427D01*
Y47496D01*
Y47565D01*
X24569D01*
Y47634D01*
X24500D01*
Y47703D01*
Y47771D01*
Y47840D01*
X24569D01*
Y47909D01*
X24500D01*
Y47978D01*
Y48047D01*
Y48116D01*
X24569D01*
Y48185D01*
X24500D01*
Y48254D01*
Y48323D01*
Y48392D01*
D02*
G37*
G36*
X24293Y41020D02*
X24224D01*
Y40951D01*
X24293D01*
Y40882D01*
X24362D01*
Y40951D01*
X24293D01*
Y41020D01*
D02*
G37*
G36*
X14648Y47220D02*
X14579D01*
Y47151D01*
X14510D01*
Y47082D01*
X14441D01*
Y47014D01*
X14372D01*
Y46945D01*
X14304D01*
Y46876D01*
X14235D01*
Y46807D01*
X14166D01*
Y46738D01*
X14097D01*
Y46669D01*
X14028D01*
Y46600D01*
X13959D01*
Y46531D01*
X13890D01*
Y46463D01*
X13821D01*
Y46394D01*
X13752D01*
Y46325D01*
X13683D01*
Y46256D01*
X13615D01*
Y46187D01*
X13546D01*
Y46118D01*
X13477D01*
Y46049D01*
X13408D01*
Y45980D01*
X13339D01*
Y45911D01*
X13270D01*
Y45842D01*
X13201D01*
Y45774D01*
X13132D01*
Y45705D01*
X13063D01*
Y45636D01*
X12995D01*
Y45567D01*
X12926D01*
Y45498D01*
X12857D01*
Y45429D01*
X12788D01*
Y45360D01*
X12719D01*
Y45291D01*
X12650D01*
Y45222D01*
X12581D01*
Y45153D01*
X12512D01*
Y45085D01*
X12443D01*
Y45016D01*
X12375D01*
Y44947D01*
X12306D01*
Y44878D01*
X12237D01*
Y44809D01*
X12306D01*
Y44740D01*
X12237D01*
Y44671D01*
X12306D01*
Y44602D01*
X12237D01*
Y44533D01*
X12306D01*
Y44464D01*
X12237D01*
Y44396D01*
X12306D01*
Y44327D01*
X12237D01*
Y44258D01*
X12306D01*
Y44189D01*
X12237D01*
Y44120D01*
X12306D01*
Y44051D01*
X12237D01*
Y43982D01*
X12306D01*
Y43913D01*
X12237D01*
Y43845D01*
X12306D01*
Y43776D01*
X12237D01*
Y43707D01*
X12306D01*
Y43638D01*
X12237D01*
Y43569D01*
X12306D01*
Y43500D01*
X12237D01*
Y43431D01*
X12306D01*
Y43362D01*
X12237D01*
Y43293D01*
X12306D01*
Y43224D01*
X12237D01*
Y43156D01*
X12306D01*
Y43087D01*
X12237D01*
Y43018D01*
X12306D01*
Y42949D01*
X12237D01*
Y42880D01*
X12306D01*
Y42811D01*
X12237D01*
Y42742D01*
X12306D01*
Y42673D01*
X12237D01*
Y42604D01*
X12306D01*
Y42535D01*
X12237D01*
Y42467D01*
X12306D01*
Y42398D01*
X12237D01*
Y42329D01*
X12306D01*
Y42260D01*
X12237D01*
Y42191D01*
X12306D01*
Y42122D01*
X12237D01*
Y42053D01*
X12306D01*
Y41984D01*
X12237D01*
Y41915D01*
X12306D01*
Y41846D01*
X12237D01*
Y41778D01*
X12306D01*
Y41709D01*
X12237D01*
Y41640D01*
X12306D01*
Y41571D01*
X12237D01*
Y41502D01*
X12306D01*
Y41433D01*
X12237D01*
Y41364D01*
X12306D01*
Y41295D01*
X12237D01*
Y41227D01*
X12306D01*
Y41158D01*
X12237D01*
Y41089D01*
X12306D01*
Y41020D01*
X12237D01*
Y40951D01*
X12306D01*
Y40882D01*
X12237D01*
Y40813D01*
X12306D01*
Y40744D01*
X12237D01*
Y40675D01*
X12306D01*
Y40606D01*
X12237D01*
Y40538D01*
X12306D01*
Y40469D01*
X12237D01*
Y40400D01*
X12306D01*
Y40331D01*
X12237D01*
Y40262D01*
X12306D01*
Y40193D01*
X12237D01*
Y40124D01*
X12306D01*
Y40055D01*
X12237D01*
Y39986D01*
X12306D01*
Y39917D01*
X12237D01*
Y39849D01*
X12306D01*
Y39780D01*
X12237D01*
Y39711D01*
X12306D01*
Y39642D01*
X12237D01*
Y39573D01*
X12306D01*
Y39504D01*
X12237D01*
Y39435D01*
X12306D01*
Y39366D01*
X12237D01*
Y39297D01*
X12306D01*
Y39228D01*
X12237D01*
Y39160D01*
X12306D01*
Y39091D01*
X12237D01*
Y39022D01*
X12306D01*
Y38953D01*
X12237D01*
Y38884D01*
X12306D01*
Y38815D01*
X12237D01*
Y38746D01*
X12306D01*
Y38677D01*
X12237D01*
Y38609D01*
X12306D01*
Y38540D01*
X12237D01*
Y38471D01*
X12306D01*
Y38402D01*
X12237D01*
Y38333D01*
X12306D01*
Y38264D01*
X12237D01*
Y38195D01*
X12306D01*
Y38126D01*
X12237D01*
Y38057D01*
X12306D01*
Y37988D01*
X12237D01*
Y37920D01*
X12306D01*
Y37851D01*
X12237D01*
Y37782D01*
X12306D01*
Y37713D01*
X12237D01*
Y37644D01*
X12306D01*
Y37575D01*
X12237D01*
Y37506D01*
X12306D01*
Y37437D01*
X12237D01*
Y37368D01*
X12306D01*
Y37299D01*
X12237D01*
Y37231D01*
X12306D01*
Y37162D01*
X12237D01*
Y37093D01*
X12306D01*
Y37024D01*
X12375D01*
Y36955D01*
X12443D01*
Y36886D01*
X12512D01*
Y36817D01*
X12581D01*
Y36748D01*
X12650D01*
Y36679D01*
X12719D01*
Y36610D01*
X12788D01*
Y36542D01*
X12857D01*
Y36473D01*
X12926D01*
Y36404D01*
X12995D01*
Y36335D01*
X13063D01*
Y36266D01*
X13132D01*
Y36197D01*
X13201D01*
Y36128D01*
X13270D01*
Y36059D01*
X13339D01*
Y35991D01*
X13408D01*
Y35922D01*
X13477D01*
Y35853D01*
X13546D01*
Y35784D01*
X13615D01*
Y35715D01*
X13683D01*
Y35646D01*
X13752D01*
Y35577D01*
X13821D01*
Y35508D01*
X13890D01*
Y35439D01*
X13959D01*
Y35508D01*
X14028D01*
Y35577D01*
X14097D01*
Y35646D01*
X14166D01*
Y35715D01*
X14235D01*
Y35784D01*
X14304D01*
Y35853D01*
X14372D01*
Y35922D01*
X14441D01*
Y35991D01*
X14510D01*
Y36059D01*
X14579D01*
Y36128D01*
X14648D01*
Y36197D01*
Y36266D01*
Y36335D01*
Y36404D01*
Y36473D01*
X14717D01*
Y36542D01*
X14648D01*
Y36610D01*
Y36679D01*
Y36748D01*
Y36817D01*
Y36886D01*
Y36955D01*
Y37024D01*
X14717D01*
Y37093D01*
X14648D01*
Y37162D01*
Y37231D01*
Y37299D01*
Y37368D01*
Y37437D01*
Y37506D01*
Y37575D01*
X14717D01*
Y37644D01*
X14648D01*
Y37713D01*
Y37782D01*
Y37851D01*
Y37920D01*
Y37988D01*
Y38057D01*
Y38126D01*
X14717D01*
Y38195D01*
X14648D01*
Y38264D01*
Y38333D01*
Y38402D01*
Y38471D01*
Y38540D01*
Y38609D01*
Y38677D01*
X14717D01*
Y38746D01*
X14648D01*
Y38815D01*
Y38884D01*
Y38953D01*
Y39022D01*
Y39091D01*
Y39160D01*
Y39228D01*
X14717D01*
Y39297D01*
X14648D01*
Y39366D01*
Y39435D01*
Y39504D01*
Y39573D01*
Y39642D01*
Y39711D01*
Y39780D01*
X14717D01*
Y39849D01*
X14648D01*
Y39917D01*
Y39986D01*
Y40055D01*
Y40124D01*
Y40193D01*
Y40262D01*
Y40331D01*
X14717D01*
Y40400D01*
X14648D01*
Y40469D01*
Y40538D01*
Y40606D01*
Y40675D01*
Y40744D01*
Y40813D01*
Y40882D01*
X14717D01*
Y40951D01*
X14648D01*
Y41020D01*
Y41089D01*
Y41158D01*
Y41227D01*
Y41295D01*
Y41364D01*
Y41433D01*
X14717D01*
Y41502D01*
X14648D01*
Y41571D01*
Y41640D01*
Y41709D01*
Y41778D01*
Y41846D01*
Y41915D01*
Y41984D01*
X14717D01*
Y42053D01*
X14648D01*
Y42122D01*
Y42191D01*
Y42260D01*
Y42329D01*
Y42398D01*
Y42467D01*
Y42535D01*
X14717D01*
Y42604D01*
X14648D01*
Y42673D01*
Y42742D01*
Y42811D01*
Y42880D01*
Y42949D01*
Y43018D01*
Y43087D01*
X14717D01*
Y43156D01*
X14648D01*
Y43224D01*
Y43293D01*
Y43362D01*
Y43431D01*
Y43500D01*
Y43569D01*
Y43638D01*
X14717D01*
Y43707D01*
X14648D01*
Y43776D01*
Y43845D01*
Y43913D01*
Y43982D01*
Y44051D01*
Y44120D01*
Y44189D01*
X14717D01*
Y44258D01*
X14648D01*
Y44327D01*
Y44396D01*
Y44464D01*
Y44533D01*
Y44602D01*
Y44671D01*
Y44740D01*
X14717D01*
Y44809D01*
X14648D01*
Y44878D01*
Y44947D01*
Y45016D01*
Y45085D01*
Y45153D01*
Y45222D01*
Y45291D01*
X14717D01*
Y45360D01*
X14648D01*
Y45429D01*
Y45498D01*
Y45567D01*
Y45636D01*
Y45705D01*
Y45774D01*
Y45842D01*
X14717D01*
Y45911D01*
X14648D01*
Y45980D01*
Y46049D01*
Y46118D01*
Y46187D01*
Y46256D01*
Y46325D01*
Y46394D01*
X14717D01*
Y46463D01*
X14648D01*
Y46531D01*
Y46600D01*
Y46669D01*
Y46738D01*
Y46807D01*
Y46876D01*
Y46945D01*
X14717D01*
Y47014D01*
X14648D01*
Y47082D01*
Y47151D01*
Y47220D01*
D02*
G37*
G36*
X144162Y75428D02*
X133194Y56106D01*
X155154D01*
X144162Y75428D01*
D02*
G37*
%LPD*%
G36*
X146569Y62076D02*
X143271Y63406D01*
X144451Y59345D01*
X145065D01*
X144278Y57078D01*
X142832Y59253D01*
X143456D01*
X141779Y65524D01*
X145134Y64170D01*
X142774Y69573D01*
X144451D01*
X146569Y62076D01*
D02*
G37*
%LPC*%
G36*
X104084Y75543D02*
X93058Y56106D01*
X115145D01*
X106263Y71713D01*
X106247Y71609D01*
X106224Y71459D01*
X106166Y71124D01*
X106120Y70800D01*
X106097Y70661D01*
X106074Y70522D01*
X106051Y70418D01*
X106039Y70325D01*
X106028Y70279D01*
Y70256D01*
X105993Y70082D01*
X105970Y69920D01*
X105923Y69620D01*
X105877Y69365D01*
X105842Y69145D01*
X105808Y68960D01*
X105785Y68810D01*
X105761Y68682D01*
X105738Y68590D01*
X105727Y68509D01*
X105715Y68451D01*
Y68416D01*
X105704Y68393D01*
Y68428D01*
X105692Y68486D01*
Y68555D01*
X105681Y68648D01*
X105669Y68752D01*
X105646Y68972D01*
X105634Y69191D01*
X105623Y69296D01*
X105611Y69388D01*
Y69458D01*
X105599Y69527D01*
Y69562D01*
Y69573D01*
X105576Y69782D01*
X105565Y69967D01*
X105553Y70140D01*
X105542Y70279D01*
X105530Y70395D01*
X105518Y70499D01*
Y70580D01*
X105507Y70649D01*
Y70696D01*
X105495Y70742D01*
Y70788D01*
Y70811D01*
X105507Y70800D01*
X105518Y70788D01*
X105530Y70765D01*
X105542Y70753D01*
X105588Y70672D01*
X105611Y70649D01*
Y70638D01*
X105646Y70580D01*
X105681Y70534D01*
X105692Y70499D01*
X105704Y70487D01*
X105727Y70452D01*
X105738Y70441D01*
X105750Y70464D01*
X105785Y70545D01*
X105831Y70626D01*
X105842Y70649D01*
Y70661D01*
X105912Y70858D01*
X105970Y71043D01*
X105993Y71124D01*
X106016Y71193D01*
X106028Y71239D01*
Y71251D01*
X106074Y71401D01*
X106120Y71529D01*
X106166Y71633D01*
X106190Y71737D01*
X106216Y71797D01*
X106263Y71713D01*
X106271Y71760D01*
X106294Y71876D01*
X106305Y71980D01*
X106317Y72061D01*
Y72084D01*
X106305Y72049D01*
X106282Y71991D01*
X106271Y71945D01*
X106247Y71887D01*
X106224Y71818D01*
X106216Y71797D01*
X104084Y75543D01*
D02*
G37*
%LPD*%
G36*
X105322Y70672D02*
X105310Y70603D01*
X105299Y70510D01*
X105287Y70395D01*
X105264Y70256D01*
X105241Y70105D01*
X105183Y69770D01*
X105125Y69446D01*
X105102Y69296D01*
X105079Y69157D01*
X105056Y69041D01*
X105044Y68960D01*
X105033Y68902D01*
Y68879D01*
X104975Y68567D01*
X104928Y68289D01*
X104882Y68058D01*
X104836Y67849D01*
X104801Y67676D01*
X104778Y67525D01*
X104755Y67398D01*
X104732Y67305D01*
X104720Y67225D01*
X104697Y67167D01*
Y67120D01*
X104685Y67086D01*
X104674Y67062D01*
Y67051D01*
X104662Y67039D01*
X104651Y67051D01*
X104639Y67074D01*
X104616Y67143D01*
X104581Y67236D01*
X104558Y67340D01*
X104547Y67421D01*
X104524Y67491D01*
Y67502D01*
Y67514D01*
X104489Y67676D01*
X104454Y67803D01*
X104443Y67849D01*
Y67896D01*
X104431Y67907D01*
Y67919D01*
X104419Y67976D01*
X104408Y68011D01*
X104385Y68058D01*
Y68069D01*
X104373Y68046D01*
X104350Y67976D01*
X104338Y67907D01*
X104327Y67884D01*
Y67872D01*
X104269Y67710D01*
X104223Y67560D01*
X104200Y67491D01*
X104188Y67444D01*
X104176Y67410D01*
Y67398D01*
X104130Y67259D01*
X104095Y67143D01*
X104072Y67051D01*
X104037Y66958D01*
X104014Y66889D01*
X104003Y66831D01*
X103968Y66750D01*
X103956Y66704D01*
X103945Y66681D01*
Y66669D01*
Y66658D01*
Y66646D01*
X103991D01*
X104037Y66658D01*
X104049Y66669D01*
X104061D01*
X104304Y66762D01*
X104547Y66843D01*
X104790Y66912D01*
X105021Y66970D01*
X105472Y67051D01*
X105692Y67074D01*
X105889Y67097D01*
X106074Y67109D01*
X106247Y67120D01*
X106618D01*
X106699Y67109D01*
X106756D01*
X106942Y67086D01*
X107092Y67051D01*
X107208Y67005D01*
X107312Y66970D01*
X107381Y66924D01*
X107428Y66900D01*
X107451Y66877D01*
X107462Y66866D01*
X107543Y66796D01*
X107589Y66762D01*
X107601Y66750D01*
X107670D01*
X107740Y66727D01*
X107890Y66669D01*
X108041Y66588D01*
X108191Y66507D01*
X108318Y66415D01*
X108434Y66334D01*
X108503Y66276D01*
X108515Y66264D01*
X108527Y66253D01*
X108619Y66149D01*
X108677Y66044D01*
X108712Y65952D01*
X108723Y65882D01*
Y65813D01*
X108712Y65767D01*
X108700Y65732D01*
Y65720D01*
X108677Y65662D01*
X108654Y65616D01*
X108631Y65593D01*
X108608Y65570D01*
X108561Y65547D01*
X108550D01*
X108503Y65582D01*
X108469Y65639D01*
X108446Y65674D01*
X108434Y65697D01*
X108423Y65778D01*
X108411Y65848D01*
X108388Y65952D01*
X108353Y66021D01*
X108330Y66067D01*
X108295Y66079D01*
X108284Y66091D01*
X108261Y66079D01*
X108249Y66067D01*
X108226Y66056D01*
X108203Y65998D01*
X108180Y65929D01*
X108168Y65917D01*
Y65905D01*
Y65848D01*
X108156Y65813D01*
X108145Y65790D01*
Y65778D01*
X108122Y65767D01*
X108110Y65755D01*
X108099Y65767D01*
X108087Y65790D01*
X108018Y65871D01*
X107960Y65952D01*
X107948Y65975D01*
X107937Y65987D01*
X107856Y66125D01*
X107763Y66218D01*
X107694Y66276D01*
X107682Y66287D01*
X107670D01*
X107613Y66311D01*
X107566Y66334D01*
X107543Y66345D01*
X107520Y66357D01*
X107497Y66368D01*
Y66357D01*
X107485Y66345D01*
Y66322D01*
Y66311D01*
X107451Y66229D01*
X107439Y66206D01*
Y66195D01*
X107428Y66160D01*
X107404Y66137D01*
X107381Y66114D01*
X107335Y66091D01*
X107219Y66079D01*
X107092Y66067D01*
X106976Y66079D01*
X106861Y66091D01*
X106814D01*
X106791Y66102D01*
X106756D01*
X106537Y66137D01*
X106328Y66172D01*
X106132Y66183D01*
X105796D01*
X105646Y66160D01*
X105507Y66149D01*
X105391Y66125D01*
X105287Y66102D01*
X105194Y66067D01*
X105113Y66044D01*
X105056Y66021D01*
X104998Y65998D01*
X104963Y65975D01*
X104952Y65963D01*
X104940D01*
X104824Y65871D01*
X105033Y65605D01*
X105171Y65443D01*
X105299Y65281D01*
X105345Y65211D01*
X105380Y65153D01*
X105403Y65119D01*
X105414Y65107D01*
X105472Y65015D01*
X105576Y64922D01*
X105692Y64829D01*
X105808Y64749D01*
X105923Y64667D01*
X106028Y64610D01*
X106097Y64563D01*
X106108Y64552D01*
X106120D01*
X106317Y64436D01*
X106490Y64320D01*
X106641Y64228D01*
X106768Y64135D01*
X106884Y64054D01*
X106988Y63996D01*
X107069Y63939D01*
X107138Y63881D01*
X107196Y63846D01*
X107242Y63811D01*
X107312Y63765D01*
X107335Y63742D01*
X107346Y63730D01*
X107358Y63696D01*
Y63649D01*
X107335Y63568D01*
X107300Y63499D01*
X107289Y63476D01*
Y63464D01*
X107266Y63395D01*
X107242Y63349D01*
X107231Y63302D01*
X107219Y63291D01*
X107196Y63256D01*
X107173Y63233D01*
Y63221D01*
X107185Y63198D01*
X107219Y63152D01*
X107277Y63117D01*
X107335Y63071D01*
X107393Y63036D01*
X107451Y63001D01*
X107485Y62978D01*
X107497Y62967D01*
X107682Y62840D01*
X107856Y62735D01*
X108006Y62620D01*
X108145Y62527D01*
X108272Y62446D01*
X108376Y62365D01*
X108469Y62296D01*
X108550Y62226D01*
X108608Y62180D01*
X108666Y62134D01*
X108747Y62064D01*
X108793Y62018D01*
X108804Y62006D01*
X108885Y61891D01*
X108955Y61764D01*
X109001Y61625D01*
X109024Y61497D01*
X109047Y61382D01*
X109059Y61289D01*
Y61220D01*
Y61208D01*
Y61197D01*
Y61139D01*
X109047Y61069D01*
X109036Y60896D01*
X109013Y60711D01*
X108990Y60526D01*
X108966Y60352D01*
X108955Y60213D01*
X108943Y60155D01*
X108932Y60109D01*
Y60086D01*
Y60074D01*
X108908Y59820D01*
X108897Y59692D01*
X108885Y59577D01*
X108874Y59484D01*
X108862Y59415D01*
X108851Y59368D01*
Y59345D01*
X108827Y59206D01*
X108816Y59091D01*
X108793Y58987D01*
X108781Y58906D01*
X108770Y58836D01*
Y58790D01*
X108758Y58767D01*
Y58755D01*
Y58593D01*
X108747Y58478D01*
Y58431D01*
X108735Y58397D01*
Y58385D01*
Y58373D01*
X108723Y58327D01*
X108712Y58293D01*
X108700Y58246D01*
Y58223D01*
X108619Y58235D01*
X108538Y58246D01*
X108492Y58258D01*
X108469D01*
X108376Y58269D01*
X108307Y58281D01*
X108226D01*
Y58269D01*
X108237Y58258D01*
X108249Y58246D01*
X108261Y58235D01*
X108307Y58177D01*
X108318Y58154D01*
Y58142D01*
X108365Y58107D01*
X108411Y58073D01*
X108527Y58038D01*
X108584D01*
X108631Y58026D01*
X108677D01*
X108816Y58015D01*
X108908Y58003D01*
X108978Y57968D01*
X109036Y57934D01*
X109059Y57899D01*
X109071Y57876D01*
X109082Y57853D01*
Y57841D01*
X109071Y57806D01*
X109047Y57760D01*
X108978Y57714D01*
X108908Y57679D01*
X108885Y57668D01*
X108874D01*
X108770Y57621D01*
X108677Y57587D01*
X108584Y57564D01*
X108503Y57552D01*
X108365D01*
X108237Y57575D01*
X108145Y57610D01*
X108087Y57656D01*
X108041Y57691D01*
X108029Y57702D01*
X107913Y57818D01*
X107821Y57726D01*
X107786Y57691D01*
X107740Y57668D01*
X107647Y57656D01*
X107578D01*
X107566Y57668D01*
X107555D01*
X107451Y57691D01*
X107370Y57726D01*
X107335Y57760D01*
X107323Y57783D01*
Y57899D01*
Y57992D01*
Y58049D01*
Y58096D01*
Y58119D01*
Y58142D01*
Y58373D01*
X107173Y58408D01*
X107104Y58420D01*
X107080Y58431D01*
X107069D01*
X107046Y58454D01*
X107023Y58466D01*
Y58478D01*
X107034Y58501D01*
X107069Y58582D01*
X107127Y58686D01*
X107185Y58813D01*
X107242Y58929D01*
X107300Y59033D01*
X107335Y59114D01*
X107346Y59126D01*
Y59137D01*
X107497Y59473D01*
X107647Y59773D01*
X107763Y60040D01*
X107867Y60271D01*
X107902Y60375D01*
X107948Y60468D01*
X107971Y60537D01*
X108006Y60606D01*
X108029Y60653D01*
X108041Y60688D01*
X108052Y60711D01*
Y60722D01*
X108064Y60780D01*
X108052Y60826D01*
X108041Y60896D01*
X108006Y60954D01*
X107994Y60965D01*
X107913Y61046D01*
X107809Y61115D01*
X107682Y61185D01*
X107555Y61243D01*
X107428Y61301D01*
X107323Y61335D01*
X107254Y61358D01*
X107242Y61370D01*
X107231D01*
X107092Y61405D01*
X106999Y61440D01*
X106930Y61463D01*
X106872Y61474D01*
X106849Y61486D01*
X106826D01*
Y61474D01*
X106837Y61463D01*
X106849Y61451D01*
X106861Y61440D01*
X106872Y61405D01*
X106884Y61358D01*
Y61324D01*
Y61312D01*
X106953Y61173D01*
X107011Y61035D01*
X107057Y60884D01*
X107104Y60745D01*
X107138Y60618D01*
X107150Y60526D01*
X107173Y60456D01*
Y60444D01*
Y60433D01*
X107208Y60144D01*
X106849Y59611D01*
X106652Y59288D01*
X106467Y58975D01*
X106305Y58674D01*
X106166Y58420D01*
X106097Y58293D01*
X106039Y58188D01*
X105993Y58107D01*
X105958Y58026D01*
X105923Y57957D01*
X105900Y57911D01*
X105877Y57888D01*
Y57876D01*
X105646Y57436D01*
X105472Y57552D01*
X105426Y57587D01*
X105380Y57610D01*
X105322Y57621D01*
X105299D01*
X105287Y57610D01*
X105299Y57540D01*
X105310Y57471D01*
X105333Y57425D01*
X105345Y57402D01*
X105380Y57344D01*
X105426Y57274D01*
X105553Y57170D01*
X105611Y57135D01*
X105657Y57101D01*
X105692Y57089D01*
X105704Y57078D01*
X105785Y57008D01*
X105842Y56939D01*
X105866Y56881D01*
X105877Y56835D01*
Y56788D01*
X105866Y56754D01*
X105854Y56742D01*
Y56731D01*
X105819Y56707D01*
X105761Y56684D01*
X105472D01*
X105426Y56696D01*
X105414D01*
X105275Y56719D01*
X105160Y56742D01*
X105079Y56765D01*
X105021Y56800D01*
X104975Y56835D01*
X104952Y56858D01*
X104940Y56869D01*
Y56881D01*
X104894Y56997D01*
X104847Y57078D01*
X104790Y57147D01*
X104743Y57182D01*
X104709Y57205D01*
X104674Y57228D01*
X104639D01*
X104524Y57240D01*
X104443Y57263D01*
X104373Y57297D01*
X104338Y57344D01*
X104315Y57390D01*
X104292Y57425D01*
Y57448D01*
Y57459D01*
X104304Y57552D01*
X104327Y57633D01*
X104361Y57702D01*
X104408Y57749D01*
X104454Y57795D01*
X104489Y57818D01*
X104512Y57841D01*
X104524D01*
X104593Y57888D01*
X104628Y57934D01*
X104651Y57957D01*
X104662Y57968D01*
X104651Y57992D01*
X104639D01*
X104616Y58003D01*
X104570Y58038D01*
X104535Y58073D01*
X104524Y58084D01*
X104443Y58142D01*
X104616Y58466D01*
X104813Y58790D01*
X105009Y59079D01*
X105194Y59345D01*
X105357Y59577D01*
X105438Y59669D01*
X105495Y59762D01*
X105553Y59831D01*
X105611Y59901D01*
X105646Y59947D01*
X105681Y59982D01*
X105692Y60005D01*
X105704Y60016D01*
X105993Y60398D01*
X105669Y60606D01*
X105472Y60745D01*
X105299Y60907D01*
X105125Y61069D01*
X104975Y61220D01*
X104847Y61347D01*
X104755Y61463D01*
X104697Y61532D01*
X104674Y61544D01*
Y61555D01*
X104604Y61625D01*
X104535Y61671D01*
X104454Y61706D01*
X104373Y61717D01*
X104292D01*
X104234Y61706D01*
X104188Y61694D01*
X104176D01*
X104107Y61648D01*
X104061Y61625D01*
X104014Y61613D01*
X103991D01*
X103968Y61625D01*
Y61636D01*
Y61648D01*
Y61659D01*
X103980Y61706D01*
X103991Y61740D01*
X104003Y61764D01*
X104014Y61868D01*
X104026Y61972D01*
Y62053D01*
Y62064D01*
Y62076D01*
X104084Y62330D01*
X104095Y62446D01*
X104107Y62550D01*
X104119Y62643D01*
Y62701D01*
Y62747D01*
Y62758D01*
X104107Y62840D01*
X104084Y62932D01*
X104014Y63117D01*
X103980Y63198D01*
X103945Y63256D01*
X103922Y63302D01*
X103910Y63314D01*
X103737Y63673D01*
X103355Y63788D01*
X103262Y63811D01*
X103158Y63846D01*
X102938Y63904D01*
X102846Y63927D01*
X102753Y63950D01*
X102707Y63973D01*
X102684D01*
X102522Y64020D01*
X102395Y64054D01*
X102290Y64078D01*
X102221Y64101D01*
X102175D01*
X102140Y64112D01*
X102117D01*
X102105Y64101D01*
X102082Y64066D01*
X102059Y64031D01*
X102048Y64020D01*
X101978Y63950D01*
X101920Y63881D01*
X101874Y63835D01*
X101851Y63811D01*
X101758Y63673D01*
X101631Y63499D01*
X101492Y63314D01*
X101342Y63140D01*
X101214Y62967D01*
X101099Y62828D01*
X101052Y62770D01*
X101018Y62735D01*
X101006Y62712D01*
X100995Y62701D01*
X100844Y62527D01*
X100705Y62353D01*
X100566Y62180D01*
X100439Y62018D01*
X100335Y61879D01*
X100243Y61775D01*
X100219Y61729D01*
X100196Y61694D01*
X100173Y61682D01*
Y61671D01*
X100127Y61590D01*
X100081Y61532D01*
X100034Y61486D01*
X100000Y61463D01*
X99942D01*
X99907Y61451D01*
X99884Y61416D01*
X99872Y61358D01*
Y61301D01*
Y61243D01*
Y61185D01*
X99884Y61150D01*
Y61139D01*
X99896Y61058D01*
Y60988D01*
Y60942D01*
Y60907D01*
X99872Y60861D01*
X99838Y60849D01*
X99803Y60861D01*
X99768Y60873D01*
X99745Y60896D01*
X99734Y60907D01*
X99699Y60942D01*
X99664Y60965D01*
X99629D01*
X99618Y60942D01*
Y60930D01*
Y60907D01*
X99629Y60861D01*
X99641Y60768D01*
X99652Y60722D01*
X99664Y60676D01*
X99676Y60653D01*
Y60641D01*
X99710Y60491D01*
X99722Y60375D01*
Y60294D01*
X99710Y60225D01*
X99687Y60190D01*
X99676Y60155D01*
X99652Y60144D01*
X99629Y60132D01*
X99595Y60120D01*
X99537Y60144D01*
X99490Y60178D01*
X99467Y60202D01*
X99410Y60248D01*
X99363Y60259D01*
X99329D01*
X99305Y60248D01*
X99282D01*
X99259Y60271D01*
X99247Y60294D01*
X99201Y60364D01*
X99178Y60456D01*
X99155Y60549D01*
X99132Y60641D01*
X99120Y60699D01*
Y60711D01*
Y60722D01*
X99132Y60884D01*
X99167Y61069D01*
X99236Y61278D01*
X99329Y61497D01*
X99433Y61729D01*
X99560Y61972D01*
X99838Y62446D01*
X99976Y62678D01*
X100104Y62897D01*
X100243Y63094D01*
X100347Y63256D01*
X100451Y63406D01*
X100520Y63511D01*
X100566Y63580D01*
X100590Y63603D01*
X100740Y63811D01*
X100867Y63996D01*
X100971Y64147D01*
X101052Y64286D01*
X101122Y64401D01*
X101168Y64494D01*
X101203Y64575D01*
X101226Y64633D01*
X101238Y64679D01*
Y64725D01*
X101226Y64760D01*
X101214Y64783D01*
X101203D01*
Y64772D01*
X101191Y64760D01*
X101180Y64737D01*
Y64725D01*
X101157Y64691D01*
X101145Y64656D01*
Y64644D01*
Y64633D01*
X101122Y64575D01*
X101110Y64529D01*
X101087Y64506D01*
X101076Y64482D01*
X101052Y64471D01*
X101041Y64494D01*
X101029Y64529D01*
Y64563D01*
Y64598D01*
Y64610D01*
X101018Y64621D01*
X101006Y64633D01*
X100995Y64610D01*
Y64587D01*
Y64575D01*
X100960Y64459D01*
X100937Y64367D01*
X100914Y64309D01*
X100891Y64274D01*
X100879Y64251D01*
X100867D01*
X100856Y64263D01*
X100844Y64286D01*
X100833Y64355D01*
X100821Y64425D01*
Y64494D01*
Y64506D01*
Y64517D01*
Y64540D01*
Y64563D01*
X100810Y64575D01*
X100798Y64563D01*
Y64552D01*
Y64540D01*
X100786D01*
X100763Y64563D01*
X100752Y64598D01*
X100740Y64610D01*
X100705Y64725D01*
X100671Y64633D01*
X100647Y64552D01*
X100613Y64633D01*
X100624D01*
X100613Y64656D01*
Y64702D01*
X100601Y64749D01*
X100578Y64795D01*
X100566Y64829D01*
X100555Y64864D01*
Y64876D01*
X100532Y65015D01*
X100474Y64876D01*
X100451Y64841D01*
X100439Y64818D01*
X100405D01*
X100393Y64829D01*
X100381Y64841D01*
X100358Y64945D01*
X100347Y65049D01*
Y65258D01*
X100381Y65466D01*
X100428Y65662D01*
X100486Y65825D01*
X100532Y65963D01*
X100555Y66010D01*
X100578Y66044D01*
X100590Y66067D01*
Y66079D01*
X100613Y66160D01*
X100636Y66218D01*
X100671Y66322D01*
X100705Y66380D01*
X100717Y66415D01*
X100728Y66438D01*
X100740D01*
Y66484D01*
X100752Y66530D01*
X100763Y66565D01*
Y66588D01*
X100786Y66611D01*
X100798D01*
X100810Y66600D01*
X100844Y66588D01*
X100925Y66577D01*
X101029D01*
X101099Y66565D01*
X101191D01*
X101226Y66588D01*
X101249Y66623D01*
X101261Y66634D01*
X101284Y66692D01*
X101319Y66715D01*
X101353Y66727D01*
X101376D01*
X101457Y66715D01*
X101515Y66704D01*
X101550Y66681D01*
X101561Y66669D01*
X101596Y66634D01*
X101643Y66577D01*
X101689Y66542D01*
X101700Y66519D01*
X101712D01*
X101793Y66438D01*
X101851Y66368D01*
X101897Y66322D01*
X101909Y66311D01*
X102001Y66206D01*
X102071Y66137D01*
X102129Y66079D01*
X102175Y66056D01*
X102198Y66044D01*
X102233D01*
X102267Y66056D01*
X102325Y66079D01*
X102406Y66091D01*
X102476Y66114D01*
X102545Y66125D01*
X102591Y66137D01*
X102614D01*
X102915Y66229D01*
Y66484D01*
Y66588D01*
Y66669D01*
X102927Y66727D01*
Y66773D01*
Y66808D01*
X102938Y66831D01*
Y66843D01*
Y66900D01*
X103089Y66808D01*
X103216Y66727D01*
X103320Y66658D01*
X103413Y66611D01*
X103494Y66588D01*
X103563Y66565D01*
X103609Y66553D01*
X103644D01*
X103656Y66565D01*
X103679Y66611D01*
X103690Y66681D01*
X103714Y66773D01*
X103737Y66877D01*
X103760Y66993D01*
X103818Y67259D01*
X103864Y67514D01*
X103887Y67629D01*
X103910Y67734D01*
X103922Y67826D01*
X103933Y67896D01*
X103945Y67942D01*
Y67953D01*
X103980Y68220D01*
X104026Y68451D01*
X104049Y68648D01*
X104084Y68821D01*
X104095Y68960D01*
X104119Y69064D01*
X104130Y69157D01*
X104142Y69226D01*
X104153Y69272D01*
X104165Y69307D01*
Y69330D01*
X104176Y69342D01*
X104188Y69319D01*
X104211Y69272D01*
X104246Y69191D01*
X104292Y69110D01*
X104338Y69018D01*
X104373Y68937D01*
X104396Y68891D01*
X104408Y68867D01*
X104466Y68729D01*
X104512Y68625D01*
X104547Y68555D01*
X104558Y68543D01*
Y68532D01*
X104581Y68486D01*
X104593Y68463D01*
X104604Y68416D01*
X104616Y68405D01*
Y68416D01*
X104628Y68463D01*
X104651Y68520D01*
X104674Y68590D01*
X104697Y68682D01*
X104720Y68775D01*
X104790Y68983D01*
X104847Y69191D01*
X104882Y69284D01*
X104905Y69376D01*
X104928Y69446D01*
X104952Y69504D01*
X104963Y69538D01*
Y69550D01*
X105021Y69712D01*
X105067Y69863D01*
X105113Y69990D01*
X105148Y70105D01*
X105171Y70210D01*
X105194Y70279D01*
X105218Y70325D01*
Y70337D01*
X105252Y70452D01*
X105275Y70545D01*
X105299Y70603D01*
X105310Y70649D01*
Y70672D01*
X105322Y70696D01*
Y70672D01*
D02*
G37*
D12*
X83500Y70999D02*
Y65000D01*
X79501Y70999D02*
Y65000D01*
X83500Y68142D02*
X79501D01*
X77844Y70999D02*
X75559Y65000D01*
X73274Y70999D02*
X75559Y65000D01*
X65218Y70142D02*
Y65000D01*
X67789Y67571D02*
X62647D01*
X83353Y20999D02*
Y15000D01*
X79353Y20999D02*
Y15000D01*
X83353Y18142D02*
X79353D01*
X77697Y20999D02*
X75411Y15000D01*
X73126Y20999D02*
X75411Y15000D01*
X67642Y17571D02*
X62500D01*
D13*
X11500Y9499D02*
X12833D01*
X12167D01*
Y6167D01*
X12833Y5501D01*
X13499D01*
X14166Y6167D01*
X7501Y5501D02*
X10167D01*
X7501Y8167D01*
Y8833D01*
X8168Y9499D01*
X9501D01*
X10167Y8833D01*
X11500Y58999D02*
X12833D01*
X12167D01*
Y55667D01*
X12833Y55001D01*
X13499D01*
X14166Y55667D01*
X10167Y55001D02*
X8834D01*
X9501D01*
Y58999D01*
X10167Y58333D01*
D32*
X17000Y6000D02*
X56700D01*
X17000D02*
Y12651D01*
Y29000D02*
X56700D01*
Y6000D02*
Y29000D01*
X17000Y22349D02*
Y29000D01*
Y56000D02*
X56700D01*
X17000D02*
Y62651D01*
Y79000D02*
X56700D01*
Y56000D02*
Y79000D01*
X17000Y72349D02*
Y79000D01*
D33*
X152200Y27541D02*
Y22542D01*
X148867Y27541D02*
Y22542D01*
X152200Y25160D02*
X148867D01*
X147487Y27541D02*
X145582Y22542D01*
X143678Y27541D02*
X145582Y22542D01*
X139108Y27541D02*
Y22542D01*
X138060Y25874D02*
Y22542D01*
Y24922D02*
X137346Y25636D01*
X136870Y25874D01*
X136156D01*
X135680Y25636D01*
X135442Y24922D01*
Y22542D01*
X131276Y27541D02*
Y22542D01*
Y25160D02*
X131752Y25636D01*
X132228Y25874D01*
X132942D01*
X133418Y25636D01*
X133894Y25160D01*
X134132Y24446D01*
Y23970D01*
X133894Y23256D01*
X133418Y22780D01*
X132942Y22542D01*
X132228D01*
X131752Y22780D01*
X131276Y23256D01*
X129467Y27541D02*
X129229Y27303D01*
X128991Y27541D01*
X129229Y27779D01*
X129467Y27541D01*
X129229Y25874D02*
Y22542D01*
X125253Y25160D02*
X125730Y25636D01*
X126206Y25874D01*
X126920D01*
X127396Y25636D01*
X127872Y25160D01*
X128110Y24446D01*
Y23970D01*
X127872Y23256D01*
X127396Y22780D01*
X126920Y22542D01*
X126206D01*
X125730Y22780D01*
X125253Y23256D01*
X121326Y25874D02*
Y22542D01*
Y25160D02*
X121802Y25636D01*
X122278Y25874D01*
X122992D01*
X123468Y25636D01*
X123944Y25160D01*
X124182Y24446D01*
Y23970D01*
X123944Y23256D01*
X123468Y22780D01*
X122992Y22542D01*
X122278D01*
X121802Y22780D01*
X121326Y23256D01*
X119279Y27541D02*
Y23494D01*
X119040Y22780D01*
X118564Y22542D01*
X118088D01*
X119993Y25874D02*
X118326D01*
X116184D02*
X116660Y25636D01*
X117136Y25160D01*
X117374Y24446D01*
Y23970D01*
X117136Y23256D01*
X116660Y22780D01*
X116184Y22542D01*
X115470D01*
X114994Y22780D01*
X114518Y23256D01*
X114279Y23970D01*
Y24446D01*
X114518Y25160D01*
X114994Y25636D01*
X115470Y25874D01*
X116184D01*
X113184D02*
Y22542D01*
Y24446D02*
X112946Y25160D01*
X112470Y25636D01*
X111994Y25874D01*
X111280D01*
X148391Y14623D02*
X150296Y19622D01*
X152200Y14623D01*
X151486Y16289D02*
X149105D01*
X147225Y17956D02*
Y14623D01*
Y17004D02*
X146511Y17718D01*
X146035Y17956D01*
X145320D01*
X144844Y17718D01*
X144606Y17004D01*
Y14623D01*
X140441Y19622D02*
Y14623D01*
Y17242D02*
X140917Y17718D01*
X141393Y17956D01*
X142107D01*
X142583Y17718D01*
X143059Y17242D01*
X143297Y16527D01*
Y16051D01*
X143059Y15337D01*
X142583Y14861D01*
X142107Y14623D01*
X141393D01*
X140917Y14861D01*
X140441Y15337D01*
X139108Y17956D02*
Y14623D01*
Y16527D02*
X138870Y17242D01*
X138393Y17718D01*
X137917Y17956D01*
X137203D01*
X136751Y16527D02*
X133894D01*
Y17004D01*
X134132Y17480D01*
X134371Y17718D01*
X134847Y17956D01*
X135561D01*
X136037Y17718D01*
X136513Y17242D01*
X136751Y16527D01*
Y16051D01*
X136513Y15337D01*
X136037Y14861D01*
X135561Y14623D01*
X134847D01*
X134371Y14861D01*
X133894Y15337D01*
X132823Y17956D02*
X131871Y14623D01*
X130919Y17956D02*
X131871Y14623D01*
X130919Y17956D02*
X129967Y14623D01*
X129015Y17956D02*
X129967Y14623D01*
X123920Y19622D02*
Y14623D01*
X120588Y19622D02*
X123920Y16289D01*
X122730Y17480D02*
X120588Y14623D01*
X116612Y17956D02*
Y14623D01*
Y17242D02*
X117088Y17718D01*
X117565Y17956D01*
X118279D01*
X118755Y17718D01*
X119231Y17242D01*
X119469Y16527D01*
Y16051D01*
X119231Y15337D01*
X118755Y14861D01*
X118279Y14623D01*
X117565D01*
X117088Y14861D01*
X116612Y15337D01*
X114565Y19622D02*
Y15575D01*
X114327Y14861D01*
X113851Y14623D01*
X113375D01*
X115279Y17956D02*
X113613D01*
X110042D02*
X112661Y14623D01*
Y17956D02*
X110042D01*
X112661Y14623D02*
X110042D01*
X149344Y9799D02*
Y6466D01*
Y9085D02*
X149820Y9561D01*
X150296Y9799D01*
X151010D01*
X151486Y9561D01*
X151962Y9085D01*
X152200Y8371D01*
Y7895D01*
X151962Y7180D01*
X151486Y6704D01*
X151010Y6466D01*
X150296D01*
X149820Y6704D01*
X149344Y7180D01*
X145154Y9799D02*
Y6466D01*
Y9085D02*
X145630Y9561D01*
X146106Y9799D01*
X146820D01*
X147296Y9561D01*
X147772Y9085D01*
X148010Y8371D01*
Y7895D01*
X147772Y7180D01*
X147296Y6704D01*
X146820Y6466D01*
X146106D01*
X145630Y6704D01*
X145154Y7180D01*
X143821Y11465D02*
Y6466D01*
X141440Y9799D02*
X143821Y7418D01*
X142869Y8371D02*
X141202Y6466D01*
X137560Y9799D02*
Y6466D01*
Y9085D02*
X138036Y9561D01*
X138513Y9799D01*
X139227D01*
X139703Y9561D01*
X140179Y9085D01*
X140417Y8371D01*
Y7895D01*
X140179Y7180D01*
X139703Y6704D01*
X139227Y6466D01*
X138513D01*
X138036Y6704D01*
X137560Y7180D01*
X135513Y11465D02*
Y7418D01*
X135275Y6704D01*
X134799Y6466D01*
X134323D01*
X136227Y9799D02*
X134561D01*
X130990D02*
X133609Y6466D01*
Y9799D02*
X130990D01*
X133609Y6466D02*
X130990D01*
X129467Y11465D02*
X126848D01*
X128277Y9561D01*
X127562D01*
X127086Y9323D01*
X126848Y9085D01*
X126610Y8371D01*
Y7895D01*
X126848Y7180D01*
X127324Y6704D01*
X128039Y6466D01*
X128753D01*
X129467Y6704D01*
X129705Y6942D01*
X129943Y7418D01*
X121921Y9561D02*
X122159Y10037D01*
X122635Y10275D01*
X123349D01*
X123825Y10037D01*
X124063Y9799D01*
X124301Y9085D01*
Y8371D01*
X124063Y7895D01*
X123587Y7656D01*
X122873D01*
X122397Y7895D01*
X122159Y8371D01*
X123349Y10275D02*
X123825Y9799D01*
X124063Y9085D01*
Y8371D01*
X123825Y7895D01*
X123587Y7656D01*
X121921Y10275D02*
X122159Y8371D01*
Y7895D01*
X121683Y7656D01*
X121207D01*
X120730Y8133D01*
X120492Y8847D01*
Y9323D01*
X120730Y10037D01*
X120969Y10513D01*
X121445Y10989D01*
X121921Y11227D01*
X122635Y11465D01*
X123349D01*
X124063Y11227D01*
X124539Y10989D01*
X125015Y10513D01*
X125253Y10037D01*
X125491Y9323D01*
Y8609D01*
X125253Y7895D01*
X125015Y7418D01*
X124539Y6942D01*
X124063Y6704D01*
X123349Y6466D01*
X122635D01*
X121921Y6704D01*
X121445Y6942D01*
X121207Y7180D01*
X121683Y10275D02*
X121921Y8371D01*
Y7895D01*
X121683Y7656D01*
X116350Y9799D02*
Y5990D01*
X116589Y5276D01*
X116827Y5038D01*
X117303Y4800D01*
X118017D01*
X118493Y5038D01*
X116350Y9085D02*
X116827Y9561D01*
X117303Y9799D01*
X118017D01*
X118493Y9561D01*
X118969Y9085D01*
X119207Y8371D01*
Y7895D01*
X118969Y7180D01*
X118493Y6704D01*
X118017Y6466D01*
X117303D01*
X116827Y6704D01*
X116350Y7180D01*
X115017Y9799D02*
Y6466D01*
Y8847D02*
X114303Y9561D01*
X113827Y9799D01*
X113113D01*
X112637Y9561D01*
X112399Y8847D01*
Y6466D01*
Y8847D02*
X111685Y9561D01*
X111209Y9799D01*
X110495D01*
X110019Y9561D01*
X109781Y8847D01*
Y6466D01*
X105353Y9799D02*
Y6466D01*
Y9085D02*
X105829Y9561D01*
X106305Y9799D01*
X107019D01*
X107495Y9561D01*
X107971Y9085D01*
X108209Y8371D01*
Y7895D01*
X107971Y7180D01*
X107495Y6704D01*
X107019Y6466D01*
X106305D01*
X105829Y6704D01*
X105353Y7180D01*
X103544Y11465D02*
X103306Y11227D01*
X103068Y11465D01*
X103306Y11703D01*
X103544Y11465D01*
X103306Y9799D02*
Y6466D01*
X102187Y11465D02*
Y6466D01*
X100901Y6942D02*
X101139Y6704D01*
X100901Y6466D01*
X100663Y6704D01*
X100901Y6942D01*
X96712Y9085D02*
X97188Y9561D01*
X97664Y9799D01*
X98378D01*
X98854Y9561D01*
X99330Y9085D01*
X99568Y8371D01*
Y7895D01*
X99330Y7180D01*
X98854Y6704D01*
X98378Y6466D01*
X97664D01*
X97188Y6704D01*
X96712Y7180D01*
X94450Y9799D02*
X94927Y9561D01*
X95403Y9085D01*
X95641Y8371D01*
Y7895D01*
X95403Y7180D01*
X94927Y6704D01*
X94450Y6466D01*
X93736D01*
X93260Y6704D01*
X92784Y7180D01*
X92546Y7895D01*
Y8371D01*
X92784Y9085D01*
X93260Y9561D01*
X93736Y9799D01*
X94450D01*
X91451D02*
Y6466D01*
Y8847D02*
X90737Y9561D01*
X90261Y9799D01*
X89547D01*
X89071Y9561D01*
X88833Y8847D01*
Y6466D01*
Y8847D02*
X88118Y9561D01*
X87642Y9799D01*
X86928D01*
X86452Y9561D01*
X86214Y8847D01*
Y6466D01*
M02*
