G04*
G04 #@! TF.GenerationSoftware,Altium Limited,Altium Designer,20.0.11 (256)*
G04*
G04 Layer_Physical_Order=2*
G04 Layer_Color=16711680*
%FSLAX25Y25*%
%MOIN*%
G70*
G01*
G75*
%ADD13C,0.01000*%
%ADD17C,0.00800*%
%ADD106C,0.04724*%
%ADD107R,0.04724X0.04724*%
%ADD110C,0.07874*%
%ADD111R,0.07874X0.07874*%
%ADD115C,0.02000*%
%ADD116C,0.01200*%
%ADD117C,0.01500*%
%ADD119C,0.03000*%
%ADD125C,0.05228*%
%ADD126R,0.05228X0.05228*%
%ADD127R,0.06260X0.06260*%
%ADD128C,0.06260*%
%ADD129C,0.10000*%
%ADD130R,0.07500X0.07500*%
%ADD131C,0.07500*%
%ADD132C,0.12500*%
%ADD133C,0.06000*%
%ADD134R,0.06000X0.06000*%
%ADD135C,0.04000*%
%ADD136C,0.30000*%
%ADD137C,0.06102*%
%ADD138C,0.03000*%
%ADD139C,0.01968*%
%ADD140C,0.01600*%
%ADD141R,0.02000X0.02000*%
%ADD142R,0.11458X0.10335*%
%ADD143R,0.03500X0.04100*%
%ADD144R,0.04300X0.04100*%
G36*
X313500Y349000D02*
X314485Y349000D01*
X316417Y348616D01*
X318237Y347862D01*
X319875Y346767D01*
X321268Y345375D01*
X322362Y343737D01*
X323116Y341917D01*
X323330Y340840D01*
X323500Y339000D01*
Y339000D01*
X323500D01*
X323500Y339000D01*
X323500Y10000D01*
Y9015D01*
X323116Y7083D01*
X322362Y5263D01*
X321268Y3625D01*
X319875Y2232D01*
X318237Y1138D01*
X316417Y384D01*
X314485Y0D01*
X313500D01*
Y0D01*
X10000D01*
X9015Y-0D01*
X7083Y384D01*
X5263Y1138D01*
X3625Y2232D01*
X2232Y3625D01*
X1138Y5263D01*
X384Y7083D01*
X-0Y9015D01*
X0Y10000D01*
Y339000D01*
X-0Y339985D01*
X384Y341917D01*
X1138Y343737D01*
X2232Y345375D01*
X3625Y346767D01*
X5263Y347862D01*
X7083Y348616D01*
X9015Y349000D01*
X10000Y349000D01*
X10000Y349000D01*
X313500Y349000D01*
D02*
G37*
%LPC*%
G36*
X183250Y317927D02*
X183217Y317923D01*
X182487Y317620D01*
X181860Y317140D01*
X181379Y316513D01*
X181077Y315783D01*
X181073Y315750D01*
X183250D01*
Y317927D01*
D02*
G37*
G36*
X151750D02*
Y315750D01*
X153927D01*
X153923Y315783D01*
X153621Y316513D01*
X153140Y317140D01*
X152513Y317620D01*
X151783Y317923D01*
X151750Y317927D01*
D02*
G37*
G36*
X150250D02*
X150217Y317923D01*
X149487Y317620D01*
X148860Y317140D01*
X148380Y316513D01*
X148077Y315783D01*
X148073Y315750D01*
X150250D01*
Y317927D01*
D02*
G37*
G36*
X118750D02*
Y315750D01*
X120927D01*
X120923Y315783D01*
X120621Y316513D01*
X120140Y317140D01*
X119513Y317620D01*
X118783Y317923D01*
X118750Y317927D01*
D02*
G37*
G36*
X117250D02*
X117217Y317923D01*
X116487Y317620D01*
X115860Y317140D01*
X115380Y316513D01*
X115077Y315783D01*
X115073Y315750D01*
X117250D01*
Y317927D01*
D02*
G37*
G36*
X132000Y317622D02*
X131321Y317533D01*
X130689Y317271D01*
X130146Y316854D01*
X129729Y316311D01*
X129467Y315679D01*
X129378Y315000D01*
X129467Y314321D01*
X129729Y313689D01*
X130146Y313146D01*
X130689Y312729D01*
X131321Y312467D01*
X132000Y312378D01*
X132679Y312467D01*
X133311Y312729D01*
X133854Y313146D01*
X134271Y313689D01*
X134533Y314321D01*
X134622Y315000D01*
X134533Y315679D01*
X134271Y316311D01*
X133854Y316854D01*
X133311Y317271D01*
X132679Y317533D01*
X132000Y317622D01*
D02*
G37*
G36*
X153927Y314250D02*
X151750D01*
Y312073D01*
X151783Y312077D01*
X152513Y312380D01*
X153140Y312860D01*
X153621Y313487D01*
X153923Y314217D01*
X153927Y314250D01*
D02*
G37*
G36*
X150250D02*
X148073D01*
X148077Y314217D01*
X148380Y313487D01*
X148860Y312860D01*
X149487Y312380D01*
X150217Y312077D01*
X150250Y312073D01*
Y314250D01*
D02*
G37*
G36*
X120927D02*
X118750D01*
Y312073D01*
X118783Y312077D01*
X119513Y312380D01*
X120140Y312860D01*
X120621Y313487D01*
X120923Y314217D01*
X120927Y314250D01*
D02*
G37*
G36*
X117250D02*
X115073D01*
X115077Y314217D01*
X115380Y313487D01*
X115860Y312860D01*
X116487Y312380D01*
X117217Y312077D01*
X117250Y312073D01*
Y314250D01*
D02*
G37*
G36*
X96231Y318093D02*
X95257Y317964D01*
X94349Y317589D01*
X93570Y316991D01*
X92972Y316212D01*
X92597Y315304D01*
X92468Y314331D01*
X92597Y313357D01*
X92972Y312449D01*
X93570Y311670D01*
X94349Y311072D01*
X95257Y310697D01*
X96231Y310568D01*
X97204Y310697D01*
X98111Y311072D01*
X98891Y311670D01*
X99489Y312449D01*
X99864Y313357D01*
X99993Y314331D01*
X99864Y315304D01*
X99489Y316212D01*
X98891Y316991D01*
X98111Y317589D01*
X97204Y317964D01*
X96231Y318093D01*
D02*
G37*
G36*
X300000Y346148D02*
X297552Y345956D01*
X295164Y345382D01*
X292896Y344443D01*
X290802Y343160D01*
X288935Y341565D01*
X287340Y339698D01*
X286057Y337604D01*
X285118Y335336D01*
X284544Y332948D01*
X284352Y330500D01*
X284544Y328052D01*
X285118Y325664D01*
X286057Y323396D01*
X287340Y321302D01*
X288935Y319435D01*
X290802Y317840D01*
X292896Y316557D01*
X295164Y315618D01*
X297552Y315044D01*
X300000Y314852D01*
X302448Y315044D01*
X304836Y315618D01*
X307104Y316557D01*
X307869Y317026D01*
X314359Y310536D01*
Y40464D01*
X307869Y33974D01*
X307104Y34443D01*
X304836Y35382D01*
X302448Y35956D01*
X300000Y36148D01*
X297552Y35956D01*
X295164Y35382D01*
X292896Y34443D01*
X290802Y33160D01*
X288935Y31565D01*
X287340Y29698D01*
X286057Y27604D01*
X285118Y25336D01*
X284544Y22948D01*
X284352Y20500D01*
X284544Y18052D01*
X285118Y15664D01*
X286057Y13396D01*
X287340Y11302D01*
X287540Y11068D01*
X283113Y6641D01*
X36387D01*
X31960Y11068D01*
X32160Y11302D01*
X33443Y13396D01*
X34382Y15664D01*
X34956Y18052D01*
X35148Y20500D01*
X34956Y22948D01*
X34382Y25336D01*
X33443Y27604D01*
X32160Y29698D01*
X30565Y31565D01*
X28698Y33160D01*
X26604Y34443D01*
X24336Y35382D01*
X21948Y35956D01*
X19500Y36148D01*
X17052Y35956D01*
X14664Y35382D01*
X12396Y34443D01*
X10302Y33160D01*
X10068Y32960D01*
X7641Y35387D01*
Y44533D01*
X9641Y45212D01*
X10106Y44606D01*
X11276Y43708D01*
X12638Y43144D01*
X14100Y42952D01*
X15562Y43144D01*
X16924Y43708D01*
X18094Y44606D01*
X18992Y45776D01*
X19556Y47138D01*
X19748Y48600D01*
X19556Y50062D01*
X18992Y51424D01*
X18094Y52594D01*
X16924Y53492D01*
X15562Y54056D01*
X14100Y54248D01*
X12638Y54056D01*
X11276Y53492D01*
X10106Y52594D01*
X9641Y51988D01*
X7641Y52667D01*
Y64533D01*
X9641Y65212D01*
X10106Y64606D01*
X11276Y63708D01*
X12638Y63144D01*
X14100Y62952D01*
X15562Y63144D01*
X16924Y63708D01*
X18094Y64606D01*
X18969Y65746D01*
X19065Y65759D01*
X20969Y65323D01*
Y54500D01*
X21093Y53876D01*
X21447Y53347D01*
X59270Y15523D01*
X59392Y14910D01*
X59856Y14216D01*
X60551Y13752D01*
X61370Y13589D01*
X62190Y13752D01*
X62884Y14216D01*
X63348Y14910D01*
X63511Y15730D01*
X63348Y16549D01*
X62884Y17244D01*
X62190Y17708D01*
X61577Y17830D01*
X25074Y54333D01*
X25253Y56753D01*
X26028Y57359D01*
X26847Y57522D01*
X27542Y57986D01*
X28006Y58681D01*
X28128Y59293D01*
X41153Y72319D01*
X41507Y72848D01*
X41631Y73472D01*
Y78819D01*
X42145Y79198D01*
X43631Y79705D01*
X43905Y79522D01*
X44724Y79359D01*
X45544Y79522D01*
X46238Y79986D01*
X46501Y80378D01*
X52316D01*
X52580Y80052D01*
X53202Y78378D01*
X53069Y78179D01*
X52906Y77360D01*
X53069Y76540D01*
X53129Y76451D01*
X52964Y76203D01*
X52878Y75774D01*
X52878Y75774D01*
Y56272D01*
X52486Y56010D01*
X52022Y55315D01*
X51859Y54496D01*
X52022Y53677D01*
X52486Y52982D01*
X53181Y52518D01*
X54000Y52355D01*
X54819Y52518D01*
X55514Y52982D01*
X55978Y53677D01*
X56141Y54496D01*
X55978Y55315D01*
X55514Y56010D01*
X55122Y56272D01*
Y75234D01*
X55867Y75382D01*
X56561Y75846D01*
X57025Y76540D01*
X57188Y77360D01*
X57025Y78179D01*
X56892Y78378D01*
X57514Y80052D01*
X57778Y80378D01*
X72660D01*
X72660Y80378D01*
X73089Y80464D01*
X73453Y80707D01*
X75597Y82851D01*
X75910Y82789D01*
X76729Y82952D01*
X77424Y83416D01*
X77888Y84111D01*
X78051Y84930D01*
X77888Y85750D01*
X77424Y86444D01*
X76729Y86909D01*
X75910Y87072D01*
X75090Y86909D01*
X74396Y86444D01*
X73932Y85750D01*
X73769Y84930D01*
X73891Y84317D01*
X72195Y82622D01*
X46501D01*
X46238Y83014D01*
X45544Y83478D01*
X44724Y83641D01*
X43905Y83478D01*
X43631Y83295D01*
X42145Y83802D01*
X41631Y84181D01*
Y85000D01*
Y97930D01*
X42733Y99177D01*
X43236Y99283D01*
X44362Y99046D01*
X44586Y98506D01*
X45061Y97887D01*
X45679Y97413D01*
X46400Y97114D01*
X47173Y97012D01*
X47947Y97114D01*
X48667Y97413D01*
X49286Y97887D01*
X49761Y98506D01*
X49984Y99046D01*
X51110Y99283D01*
X52236Y99046D01*
X52460Y98506D01*
X52935Y97887D01*
X53553Y97413D01*
X54274Y97114D01*
X55047Y97012D01*
X55821Y97114D01*
X56541Y97413D01*
X57160Y97887D01*
X57635Y98506D01*
X57859Y99046D01*
X58984Y99283D01*
X60110Y99046D01*
X60334Y98506D01*
X60809Y97887D01*
X61427Y97413D01*
X62148Y97114D01*
X62921Y97012D01*
X63695Y97114D01*
X64415Y97413D01*
X65034Y97887D01*
X65509Y98506D01*
X65733Y99046D01*
X66858Y99283D01*
X67984Y99046D01*
X68208Y98506D01*
X68683Y97887D01*
X69301Y97413D01*
X70022Y97114D01*
X70795Y97012D01*
X71569Y97114D01*
X72289Y97413D01*
X72908Y97887D01*
X73383Y98506D01*
X73606Y99046D01*
X74732Y99283D01*
X75858Y99046D01*
X76082Y98506D01*
X76557Y97887D01*
X77175Y97413D01*
X77896Y97114D01*
X78669Y97012D01*
X79443Y97114D01*
X80163Y97413D01*
X80782Y97887D01*
X81257Y98506D01*
X81555Y99227D01*
X81657Y100000D01*
X81555Y100773D01*
X81257Y101494D01*
X80782Y102113D01*
X80163Y102587D01*
X79443Y102886D01*
X78669Y102988D01*
X77896Y102886D01*
X77175Y102587D01*
X76557Y102113D01*
X76082Y101494D01*
X75858Y100954D01*
X74732Y100717D01*
X73606Y100954D01*
X73383Y101494D01*
X72908Y102113D01*
X72289Y102587D01*
X71569Y102886D01*
X70795Y102988D01*
X70022Y102886D01*
X69301Y102587D01*
X68683Y102113D01*
X68208Y101494D01*
X67984Y100954D01*
X66858Y100717D01*
X65733Y100954D01*
X65509Y101494D01*
X65034Y102113D01*
X64415Y102587D01*
X63695Y102886D01*
X62921Y102988D01*
X62148Y102886D01*
X61427Y102587D01*
X60809Y102113D01*
X60334Y101494D01*
X60110Y100954D01*
X58984Y100717D01*
X57859Y100954D01*
X57635Y101494D01*
X57160Y102113D01*
X56541Y102587D01*
X55821Y102886D01*
X55047Y102988D01*
X54274Y102886D01*
X53553Y102587D01*
X52935Y102113D01*
X52460Y101494D01*
X52236Y100954D01*
X51110Y100717D01*
X49984Y100954D01*
X49761Y101494D01*
X49286Y102113D01*
X48667Y102587D01*
X47947Y102886D01*
X47173Y102988D01*
X46400Y102886D01*
X45679Y102587D01*
X45061Y102113D01*
X44586Y101494D01*
X44362Y100954D01*
X43236Y100717D01*
X42110Y100954D01*
X41887Y101494D01*
X41412Y102113D01*
X40793Y102587D01*
X40073Y102886D01*
X39299Y102988D01*
X38526Y102886D01*
X37805Y102587D01*
X37187Y102113D01*
X36712Y101494D01*
X36488Y100954D01*
X35362Y100717D01*
X34236Y100954D01*
X34013Y101494D01*
X33538Y102113D01*
X32919Y102587D01*
X32199Y102886D01*
X31425Y102988D01*
X30652Y102886D01*
X29931Y102587D01*
X29313Y102113D01*
X28838Y101494D01*
X28539Y100773D01*
X28513Y100577D01*
X26513Y100708D01*
Y102962D01*
X20589D01*
Y100330D01*
X18741Y99564D01*
X16831Y101474D01*
Y114607D01*
X18254Y116000D01*
X18831Y116000D01*
X34000D01*
Y144500D01*
X18831D01*
X18254Y144500D01*
X16831Y145893D01*
Y296924D01*
X51016Y331109D01*
X78824D01*
X84757Y325177D01*
Y317692D01*
X84507Y317589D01*
X83728Y316991D01*
X83130Y316212D01*
X82754Y315304D01*
X82626Y314331D01*
X82754Y313357D01*
X83130Y312449D01*
X83728Y311670D01*
X84507Y311072D01*
X85414Y310697D01*
X86388Y310568D01*
X87362Y310697D01*
X88269Y311072D01*
X89048Y311670D01*
X89646Y312449D01*
X90022Y313357D01*
X90150Y314331D01*
X90022Y315304D01*
X89646Y316212D01*
X89048Y316991D01*
X88269Y317589D01*
X88019Y317692D01*
Y325852D01*
X87895Y326477D01*
X87542Y327006D01*
X80654Y333894D01*
X80124Y334247D01*
X79500Y334371D01*
X50340D01*
X49716Y334247D01*
X49187Y333894D01*
X14047Y298753D01*
X13693Y298224D01*
X13569Y297600D01*
Y100798D01*
X13693Y100174D01*
X14047Y99645D01*
X20969Y92723D01*
Y71877D01*
X19065Y71441D01*
X18969Y71454D01*
X18094Y72594D01*
X16924Y73492D01*
X15562Y74056D01*
X14100Y74248D01*
X12638Y74056D01*
X11276Y73492D01*
X10106Y72594D01*
X9641Y71988D01*
X7641Y72667D01*
Y315613D01*
X10068Y318040D01*
X10302Y317840D01*
X12396Y316557D01*
X14664Y315618D01*
X17052Y315044D01*
X19500Y314852D01*
X21948Y315044D01*
X24336Y315618D01*
X26604Y316557D01*
X28698Y317840D01*
X30565Y319435D01*
X32160Y321302D01*
X33443Y323396D01*
X34382Y325664D01*
X34956Y328052D01*
X35148Y330500D01*
X34956Y332948D01*
X34382Y335336D01*
X33443Y337604D01*
X32160Y339698D01*
X30565Y341565D01*
X28698Y343160D01*
X26604Y344443D01*
X24336Y345382D01*
X21948Y345956D01*
X19500Y346148D01*
X17052Y345956D01*
X14664Y345382D01*
X12396Y344443D01*
X10302Y343160D01*
X8435Y341565D01*
X6840Y339698D01*
X5557Y337604D01*
X4618Y335336D01*
X4044Y332948D01*
X3852Y330500D01*
X4044Y328052D01*
X4618Y325664D01*
X5557Y323396D01*
X6840Y321302D01*
X7040Y321068D01*
X3986Y318014D01*
X3522Y317319D01*
X3359Y316500D01*
Y34500D01*
X3522Y33681D01*
X3986Y32986D01*
X7040Y29932D01*
X6840Y29698D01*
X5557Y27604D01*
X4618Y25336D01*
X4044Y22948D01*
X3852Y20500D01*
X4044Y18052D01*
X4618Y15664D01*
X5557Y13396D01*
X6840Y11302D01*
X8435Y9435D01*
X10302Y7840D01*
X12396Y6557D01*
X14664Y5618D01*
X17052Y5044D01*
X19500Y4852D01*
X21948Y5044D01*
X24336Y5618D01*
X26604Y6557D01*
X28698Y7840D01*
X28932Y8040D01*
X33986Y2986D01*
X34681Y2522D01*
X35500Y2359D01*
X284000D01*
X284819Y2522D01*
X285514Y2986D01*
X290568Y8040D01*
X290802Y7840D01*
X292896Y6557D01*
X295164Y5618D01*
X297552Y5044D01*
X300000Y4852D01*
X302448Y5044D01*
X304836Y5618D01*
X307104Y6557D01*
X309198Y7840D01*
X311065Y9435D01*
X312660Y11302D01*
X313943Y13396D01*
X314882Y15664D01*
X315456Y18052D01*
X315648Y20500D01*
X315456Y22948D01*
X314882Y25336D01*
X313943Y27604D01*
X312660Y29698D01*
X311273Y31322D01*
X318014Y38063D01*
X318478Y38758D01*
X318641Y39577D01*
Y311423D01*
X318478Y312242D01*
X318014Y312937D01*
X311273Y319678D01*
X312660Y321302D01*
X313943Y323396D01*
X314882Y325664D01*
X315456Y328052D01*
X315648Y330500D01*
X315456Y332948D01*
X314882Y335336D01*
X313943Y337604D01*
X312660Y339698D01*
X311065Y341565D01*
X309198Y343160D01*
X307104Y344443D01*
X304836Y345382D01*
X302448Y345956D01*
X300000Y346148D01*
D02*
G37*
G36*
X158000Y310622D02*
X157321Y310533D01*
X156689Y310271D01*
X156146Y309854D01*
X155729Y309311D01*
X155467Y308679D01*
X155378Y308000D01*
X155467Y307321D01*
X155729Y306689D01*
X156146Y306146D01*
X156689Y305729D01*
X157321Y305467D01*
X158000Y305378D01*
X158679Y305467D01*
X159311Y305729D01*
X159854Y306146D01*
X160271Y306689D01*
X160533Y307321D01*
X160622Y308000D01*
X160533Y308679D01*
X160271Y309311D01*
X159854Y309854D01*
X159311Y310271D01*
X158679Y310533D01*
X158000Y310622D01*
D02*
G37*
G36*
X184750Y317927D02*
Y315000D01*
X184000D01*
Y314250D01*
X181073D01*
X181077Y314217D01*
X181379Y313487D01*
X181860Y312860D01*
X182487Y312380D01*
X183217Y312077D01*
X183415Y312051D01*
X184143Y310570D01*
X184200Y310008D01*
X176000Y301807D01*
X166721Y311086D01*
X166802Y313105D01*
X166854Y313146D01*
X167271Y313689D01*
X167533Y314321D01*
X167622Y315000D01*
X167533Y315679D01*
X167271Y316311D01*
X166854Y316854D01*
X166311Y317271D01*
X165679Y317533D01*
X165000Y317622D01*
X164321Y317533D01*
X163689Y317271D01*
X163146Y316854D01*
X162729Y316311D01*
X162467Y315679D01*
X162378Y315000D01*
X162467Y314321D01*
X162729Y313689D01*
X163146Y313146D01*
X163369Y312975D01*
Y310500D01*
X163493Y309876D01*
X163847Y309346D01*
X174369Y298824D01*
Y281846D01*
X174011Y279996D01*
X108497Y279649D01*
X108269Y279554D01*
X108041Y279459D01*
X108040Y279457D01*
X108038Y279457D01*
X107945Y279229D01*
X107851Y279000D01*
Y208500D01*
X108041Y208041D01*
X112541Y203541D01*
X113000Y203351D01*
X188918Y203350D01*
X190000Y203350D01*
X190000Y203351D01*
X190459Y203541D01*
X190649Y204000D01*
X190649Y204000D01*
X190649Y205082D01*
X190649Y260321D01*
X190897Y260539D01*
X192649Y261197D01*
X192957Y260961D01*
X193942Y260553D01*
X194250Y260513D01*
Y264500D01*
Y268487D01*
X193942Y268447D01*
X192957Y268039D01*
X192649Y267803D01*
X190897Y268461D01*
X190649Y268679D01*
X190649Y278470D01*
X190649Y279077D01*
X190649Y279077D01*
X190649Y279078D01*
X190649Y279078D01*
X190649Y279079D01*
X190555Y279306D01*
X190554Y279306D01*
X190459Y279536D01*
X190458Y279537D01*
X190458Y279537D01*
X190458Y279537D01*
X190104Y279890D01*
X190103Y279890D01*
X190103Y279890D01*
X190102Y279891D01*
X189873Y279984D01*
X189873Y279985D01*
X189644Y280079D01*
X189644Y280079D01*
X189643Y280078D01*
X189642Y280079D01*
X189642Y280079D01*
X189063Y280076D01*
X189063Y280076D01*
X189033Y280076D01*
X179049Y280023D01*
X177631Y281433D01*
Y298824D01*
X186412Y307605D01*
X187453Y307461D01*
X188610Y306975D01*
X188729Y306689D01*
X189146Y306146D01*
X189689Y305729D01*
X190321Y305467D01*
X191000Y305378D01*
X191679Y305467D01*
X192311Y305729D01*
X192854Y306146D01*
X193271Y306689D01*
X193533Y307321D01*
X193622Y308000D01*
X193533Y308679D01*
X193271Y309311D01*
X192854Y309854D01*
X192557Y310083D01*
X192073Y312248D01*
X193079Y313369D01*
X195975D01*
X196146Y313146D01*
X196689Y312729D01*
X197321Y312467D01*
X198000Y312378D01*
X198679Y312467D01*
X199311Y312729D01*
X199854Y313146D01*
X200271Y313689D01*
X200533Y314321D01*
X200622Y315000D01*
X200533Y315679D01*
X200271Y316311D01*
X199854Y316854D01*
X199311Y317271D01*
X198679Y317533D01*
X198000Y317622D01*
X197321Y317533D01*
X196689Y317271D01*
X196146Y316854D01*
X195975Y316631D01*
X191500D01*
X190876Y316507D01*
X190347Y316154D01*
X188993Y314800D01*
X188431Y314857D01*
X186949Y315584D01*
X186923Y315783D01*
X186620Y316513D01*
X186140Y317140D01*
X185513Y317620D01*
X184783Y317923D01*
X184750Y317927D01*
D02*
G37*
G36*
X256500Y294183D02*
X255547Y294057D01*
X254659Y293689D01*
X253896Y293104D01*
X253311Y292341D01*
X252943Y291453D01*
X252817Y290500D01*
X252943Y289547D01*
X253311Y288659D01*
X253896Y287896D01*
X254659Y287311D01*
X255547Y286943D01*
X256500Y286817D01*
X257453Y286943D01*
X258341Y287311D01*
X259104Y287896D01*
X259689Y288659D01*
X260057Y289547D01*
X260183Y290500D01*
X260057Y291453D01*
X259689Y292341D01*
X259104Y293104D01*
X258341Y293689D01*
X257453Y294057D01*
X256500Y294183D01*
D02*
G37*
G36*
X90000Y278131D02*
X89060Y278007D01*
X88184Y277645D01*
X87432Y277067D01*
X86855Y276315D01*
X86493Y275440D01*
X86369Y274500D01*
X86493Y273560D01*
X86855Y272685D01*
X87432Y271933D01*
X88184Y271355D01*
X89060Y270993D01*
X90000Y270869D01*
X90940Y270993D01*
X91816Y271355D01*
X92568Y271933D01*
X93145Y272685D01*
X93507Y273560D01*
X93631Y274500D01*
X93507Y275440D01*
X93145Y276315D01*
X92568Y277067D01*
X91816Y277645D01*
X90940Y278007D01*
X90000Y278131D01*
D02*
G37*
G36*
X30000D02*
X29060Y278007D01*
X28185Y277645D01*
X27433Y277067D01*
X26855Y276315D01*
X26493Y275440D01*
X26369Y274500D01*
X26493Y273560D01*
X26855Y272685D01*
X27433Y271933D01*
X28185Y271355D01*
X29060Y270993D01*
X30000Y270869D01*
X30940Y270993D01*
X31815Y271355D01*
X32568Y271933D01*
X33145Y272685D01*
X33507Y273560D01*
X33631Y274500D01*
X33507Y275440D01*
X33145Y276315D01*
X32568Y277067D01*
X31815Y277645D01*
X30940Y278007D01*
X30000Y278131D01*
D02*
G37*
G36*
X256500Y273076D02*
X255316Y272920D01*
X254212Y272463D01*
X253264Y271736D01*
X252596Y270865D01*
X252095Y270788D01*
X250905D01*
X250404Y270865D01*
X249736Y271736D01*
X248788Y272463D01*
X247684Y272920D01*
X246500Y273076D01*
X245316Y272920D01*
X244212Y272463D01*
X243264Y271736D01*
X242596Y270865D01*
X242095Y270788D01*
X240905D01*
X240404Y270865D01*
X239736Y271736D01*
X238788Y272463D01*
X237684Y272920D01*
X236500Y273076D01*
X235316Y272920D01*
X234212Y272463D01*
X233264Y271736D01*
X232537Y270788D01*
X232080Y269684D01*
X231924Y268500D01*
X232080Y267316D01*
X232537Y266212D01*
X233264Y265264D01*
X234212Y264537D01*
X235316Y264080D01*
X236500Y263924D01*
X237684Y264080D01*
X238788Y264537D01*
X239736Y265264D01*
X240404Y266135D01*
X240905Y266212D01*
X242095D01*
X242596Y266135D01*
X243264Y265264D01*
X244212Y264537D01*
X245316Y264080D01*
X246500Y263924D01*
X247684Y264080D01*
X248788Y264537D01*
X249736Y265264D01*
X250404Y266135D01*
X250905Y266212D01*
X252095D01*
X252596Y266135D01*
X253264Y265264D01*
X254212Y264537D01*
X255316Y264080D01*
X256500Y263924D01*
X257684Y264080D01*
X258788Y264537D01*
X259736Y265264D01*
X260463Y266212D01*
X260920Y267316D01*
X261076Y268500D01*
X260920Y269684D01*
X260463Y270788D01*
X259736Y271736D01*
X258788Y272463D01*
X257684Y272920D01*
X256500Y273076D01*
D02*
G37*
G36*
X70433Y318060D02*
X62973D01*
Y310601D01*
X65069D01*
Y274876D01*
X56324Y266131D01*
X33221D01*
X33145Y266316D01*
X32568Y267068D01*
X31815Y267645D01*
X30940Y268007D01*
X30000Y268131D01*
X29060Y268007D01*
X28185Y267645D01*
X27433Y267068D01*
X26855Y266316D01*
X26493Y265440D01*
X26369Y264500D01*
X26493Y263560D01*
X26855Y262684D01*
X27433Y261932D01*
X28185Y261355D01*
X29060Y260993D01*
X30000Y260869D01*
X30940Y260993D01*
X31815Y261355D01*
X32568Y261932D01*
X33145Y262684D01*
X33221Y262869D01*
X57000D01*
X57624Y262993D01*
X58153Y263347D01*
X67853Y273046D01*
X68207Y273576D01*
X68331Y274200D01*
Y310601D01*
X70433D01*
Y318060D01*
D02*
G37*
G36*
X195750Y268487D02*
Y265250D01*
X198987D01*
X198947Y265558D01*
X198539Y266543D01*
X197889Y267389D01*
X197043Y268039D01*
X196058Y268447D01*
X195750Y268487D01*
D02*
G37*
G36*
X90000Y268131D02*
X89060Y268007D01*
X88184Y267645D01*
X87432Y267068D01*
X86855Y266316D01*
X86493Y265440D01*
X86369Y264500D01*
X86493Y263560D01*
X86855Y262684D01*
X87432Y261932D01*
X88184Y261355D01*
X89060Y260993D01*
X90000Y260869D01*
X90940Y260993D01*
X91816Y261355D01*
X92568Y261932D01*
X93145Y262684D01*
X93507Y263560D01*
X93631Y264500D01*
X93507Y265440D01*
X93145Y266316D01*
X92568Y267068D01*
X91816Y267645D01*
X90940Y268007D01*
X90000Y268131D01*
D02*
G37*
G36*
X198987Y263750D02*
X195750D01*
Y260513D01*
X196058Y260553D01*
X197043Y260961D01*
X197889Y261611D01*
X198539Y262457D01*
X198947Y263442D01*
X198987Y263750D01*
D02*
G37*
G36*
X90000Y258131D02*
X89060Y258007D01*
X88184Y257645D01*
X87432Y257067D01*
X86855Y256315D01*
X86493Y255440D01*
X86369Y254500D01*
X86493Y253560D01*
X86855Y252684D01*
X87432Y251933D01*
X88184Y251355D01*
X89060Y250993D01*
X90000Y250869D01*
X90940Y250993D01*
X91816Y251355D01*
X92568Y251933D01*
X93145Y252684D01*
X93507Y253560D01*
X93631Y254500D01*
X93507Y255440D01*
X93145Y256315D01*
X92568Y257067D01*
X91816Y257645D01*
X90940Y258007D01*
X90000Y258131D01*
D02*
G37*
G36*
X30000D02*
X29060Y258007D01*
X28185Y257645D01*
X27433Y257067D01*
X26855Y256315D01*
X26493Y255440D01*
X26369Y254500D01*
X26493Y253560D01*
X26855Y252684D01*
X27433Y251933D01*
X28185Y251355D01*
X29060Y250993D01*
X30000Y250869D01*
X30940Y250993D01*
X31815Y251355D01*
X32568Y251933D01*
X33145Y252684D01*
X33507Y253560D01*
X33631Y254500D01*
X33507Y255440D01*
X33145Y256315D01*
X32568Y257067D01*
X31815Y257645D01*
X30940Y258007D01*
X30000Y258131D01*
D02*
G37*
G36*
X278557Y263908D02*
X277737Y263745D01*
X277043Y263281D01*
X276578Y262586D01*
X276415Y261766D01*
X276578Y260947D01*
X277043Y260252D01*
X277619Y259868D01*
Y251705D01*
X271463Y245549D01*
X271000Y245641D01*
X270181Y245478D01*
X269486Y245014D01*
X269022Y244319D01*
X268859Y243500D01*
X268954Y243022D01*
X268278Y241729D01*
X267725Y241021D01*
X241343D01*
X241014Y241514D01*
X240319Y241978D01*
X239500Y242141D01*
X238681Y241978D01*
X237986Y241514D01*
X236259Y242327D01*
X231549Y247037D01*
X231641Y247500D01*
X231478Y248319D01*
X231014Y249014D01*
X230319Y249478D01*
X229500Y249641D01*
X228681Y249478D01*
X227986Y249014D01*
X227522Y248319D01*
X227359Y247500D01*
X227522Y246681D01*
X227986Y245986D01*
X228681Y245522D01*
X229500Y245359D01*
X229963Y245451D01*
X235824Y239590D01*
X235824Y239590D01*
X236188Y239347D01*
X236617Y239261D01*
X237506D01*
X237522Y239181D01*
X237986Y238486D01*
X238681Y238022D01*
X239500Y237859D01*
X240319Y238022D01*
X241014Y238486D01*
X241209Y238778D01*
X279791D01*
X279986Y238486D01*
X280681Y238022D01*
X281500Y237859D01*
X282319Y238022D01*
X283014Y238486D01*
X283478Y239181D01*
X283641Y240000D01*
X283478Y240819D01*
X283014Y241514D01*
X282319Y241978D01*
X281500Y242141D01*
X280681Y241978D01*
X279986Y241514D01*
X279657Y241021D01*
X274275D01*
X273722Y241729D01*
X273046Y243022D01*
X273141Y243500D01*
X273049Y243963D01*
X279533Y250447D01*
X279776Y250811D01*
X279862Y251240D01*
X279862Y251240D01*
Y260113D01*
X280071Y260252D01*
X280535Y260947D01*
X280698Y261766D01*
X280535Y262586D01*
X280071Y263281D01*
X279376Y263745D01*
X278557Y263908D01*
D02*
G37*
G36*
X196500Y233683D02*
X195547Y233557D01*
X194659Y233189D01*
X193896Y232604D01*
X193311Y231841D01*
X192943Y230953D01*
X192817Y230000D01*
X192943Y229047D01*
X193311Y228159D01*
X193896Y227396D01*
X194659Y226811D01*
X195547Y226443D01*
X196500Y226317D01*
X197453Y226443D01*
X198341Y226811D01*
X199104Y227396D01*
X199689Y228159D01*
X200057Y229047D01*
X200183Y230000D01*
X200057Y230953D01*
X199689Y231841D01*
X199104Y232604D01*
X198341Y233189D01*
X197453Y233557D01*
X196500Y233683D01*
D02*
G37*
G36*
X281577Y229683D02*
X280624Y229557D01*
X279735Y229189D01*
X278973Y228604D01*
X278387Y227841D01*
X278020Y226953D01*
X277894Y226000D01*
X278020Y225047D01*
X278387Y224159D01*
X278973Y223396D01*
X279735Y222811D01*
X280624Y222443D01*
X281577Y222317D01*
X282530Y222443D01*
X283418Y222811D01*
X284181Y223396D01*
X284766Y224159D01*
X285134Y225047D01*
X285260Y226000D01*
X285134Y226953D01*
X284766Y227841D01*
X284181Y228604D01*
X283418Y229189D01*
X282530Y229557D01*
X281577Y229683D01*
D02*
G37*
G36*
X307000Y219683D02*
X306047Y219557D01*
X305159Y219189D01*
X304396Y218604D01*
X303811Y217841D01*
X303443Y216953D01*
X303317Y216000D01*
X303443Y215047D01*
X303811Y214159D01*
X304396Y213396D01*
X305159Y212811D01*
X306047Y212443D01*
X307000Y212317D01*
X307953Y212443D01*
X308841Y212811D01*
X309604Y213396D01*
X310189Y214159D01*
X310557Y215047D01*
X310683Y216000D01*
X310557Y216953D01*
X310189Y217841D01*
X309604Y218604D01*
X308841Y219189D01*
X307953Y219557D01*
X307000Y219683D01*
D02*
G37*
G36*
X254000Y218183D02*
X253047Y218057D01*
X252159Y217689D01*
X251396Y217104D01*
X250811Y216341D01*
X250443Y215453D01*
X250317Y214500D01*
X250443Y213547D01*
X250811Y212659D01*
X251396Y211896D01*
X252159Y211311D01*
X253047Y210943D01*
X254000Y210817D01*
X254953Y210943D01*
X255841Y211311D01*
X256604Y211896D01*
X257189Y212659D01*
X257557Y213547D01*
X257683Y214500D01*
X257557Y215453D01*
X257189Y216341D01*
X256604Y217104D01*
X255841Y217689D01*
X254953Y218057D01*
X254000Y218183D01*
D02*
G37*
G36*
X133500Y331131D02*
X132876Y331007D01*
X132346Y330654D01*
X123846Y322153D01*
X123493Y321624D01*
X123369Y321000D01*
Y310026D01*
X123146Y309854D01*
X122729Y309311D01*
X122467Y308679D01*
X122378Y308000D01*
X122467Y307321D01*
X122729Y306689D01*
X123146Y306146D01*
X123689Y305729D01*
X124321Y305467D01*
X125000Y305378D01*
X125679Y305467D01*
X126311Y305729D01*
X126854Y306146D01*
X127271Y306689D01*
X127533Y307321D01*
X127622Y308000D01*
X127533Y308679D01*
X127271Y309311D01*
X126854Y309854D01*
X126631Y310026D01*
Y320324D01*
X134176Y327869D01*
X211324D01*
X220869Y318324D01*
Y282500D01*
Y239000D01*
X220993Y238376D01*
X221346Y237846D01*
X229614Y229578D01*
X230144Y229225D01*
X230768Y229101D01*
X244585D01*
X244768Y228659D01*
X245353Y227896D01*
X246116Y227311D01*
X247004Y226943D01*
X247957Y226817D01*
X248910Y226943D01*
X249798Y227311D01*
X250561Y227896D01*
X251146Y228659D01*
X251329Y229101D01*
X253592D01*
X261884Y220809D01*
Y206944D01*
X260051Y205923D01*
X257020D01*
X256629Y205846D01*
X256299Y205625D01*
X254723Y204048D01*
X252751Y204159D01*
X252514Y204514D01*
X251819Y204978D01*
X251000Y205141D01*
X250181Y204978D01*
X249486Y204514D01*
X249022Y203819D01*
X248859Y203000D01*
X249022Y202181D01*
X249061Y202122D01*
X248224Y200172D01*
X248175Y200122D01*
X224487D01*
X224189Y200841D01*
X223604Y201604D01*
X222841Y202189D01*
X221953Y202557D01*
X221000Y202683D01*
X220047Y202557D01*
X219837Y202470D01*
X213131Y209176D01*
Y265162D01*
X213478Y265681D01*
X213641Y266500D01*
X213478Y267319D01*
X213014Y268014D01*
X212319Y268478D01*
X211500Y268641D01*
X210681Y268478D01*
X209986Y268014D01*
X209522Y267319D01*
X209359Y266500D01*
X209522Y265681D01*
X209869Y265162D01*
Y208500D01*
X209993Y207876D01*
X210347Y207347D01*
X217530Y200163D01*
X217443Y199953D01*
X217317Y199000D01*
X217443Y198047D01*
X217811Y197159D01*
X218396Y196396D01*
X219159Y195811D01*
X220047Y195443D01*
X221000Y195317D01*
X221953Y195443D01*
X222841Y195811D01*
X223604Y196396D01*
X224189Y197159D01*
X224487Y197878D01*
X254500D01*
X254500Y197878D01*
X254929Y197964D01*
X255293Y198207D01*
X256293Y199207D01*
X256536Y199571D01*
X256542Y199600D01*
X258546Y201604D01*
X260204D01*
X262088Y200824D01*
X262197Y200277D01*
X262394Y199982D01*
Y199000D01*
X262394Y199000D01*
X262421Y198866D01*
X261930Y197700D01*
X261581Y197148D01*
X261278Y196866D01*
X258751D01*
X258292Y196676D01*
X258101Y196217D01*
Y185882D01*
X258292Y185423D01*
X258751Y185232D01*
X269402D01*
X270274Y184117D01*
X269407Y182176D01*
X258424D01*
X253109Y187491D01*
X253141Y187654D01*
X252978Y188473D01*
X252514Y189168D01*
X251819Y189632D01*
X251000Y189795D01*
X250181Y189632D01*
X249486Y189168D01*
X249022Y188473D01*
X248859Y187654D01*
X249022Y186834D01*
X249486Y186140D01*
X250181Y185675D01*
X251000Y185512D01*
X251162Y185545D01*
X256880Y179827D01*
X257327Y179528D01*
X257854Y179424D01*
X274394D01*
X274486Y179286D01*
X275181Y178822D01*
X276000Y178659D01*
X276819Y178822D01*
X277514Y179286D01*
X277978Y179981D01*
X278141Y180800D01*
X279761Y182276D01*
X294233D01*
X294427Y181986D01*
X295122Y181522D01*
X295941Y181359D01*
X296760Y181522D01*
X297455Y181986D01*
X297919Y182681D01*
X298082Y183500D01*
X297919Y184319D01*
X297455Y185014D01*
X296760Y185478D01*
X295941Y185641D01*
X295736Y185600D01*
X294751Y187444D01*
X296654Y189347D01*
X297007Y189876D01*
X297131Y190500D01*
Y230500D01*
Y245224D01*
X297341Y245311D01*
X298104Y245896D01*
X298689Y246659D01*
X299057Y247547D01*
X299183Y248500D01*
X299057Y249453D01*
X298689Y250341D01*
X298104Y251104D01*
X297341Y251689D01*
X297131Y251776D01*
Y293500D01*
X297007Y294124D01*
X296654Y294654D01*
X282154Y309154D01*
X281624Y309507D01*
X281000Y309631D01*
X249338D01*
X248819Y309978D01*
X248000Y310141D01*
X247181Y309978D01*
X246486Y309514D01*
X246022Y308819D01*
X245859Y308000D01*
X246022Y307181D01*
X246486Y306486D01*
X247181Y306022D01*
X248000Y305859D01*
X248819Y306022D01*
X249338Y306369D01*
X280324D01*
X293869Y292824D01*
Y251776D01*
X293659Y251689D01*
X292896Y251104D01*
X292311Y250341D01*
X291943Y249453D01*
X291817Y248500D01*
X291943Y247547D01*
X292311Y246659D01*
X292896Y245896D01*
X293659Y245311D01*
X293869Y245224D01*
Y230500D01*
Y198153D01*
X293691Y197871D01*
X292000Y196641D01*
X291181Y196478D01*
X290486Y196014D01*
X290022Y195319D01*
X289859Y194500D01*
X288340Y193122D01*
X285117D01*
X284288Y195122D01*
X285047Y195880D01*
X285047Y195880D01*
X285290Y196244D01*
X285375Y196673D01*
X285375Y196673D01*
Y206775D01*
X285691Y206986D01*
X286155Y207681D01*
X286318Y208500D01*
X286155Y209319D01*
X285691Y210014D01*
X284996Y210478D01*
X284177Y210641D01*
X283357Y210478D01*
X282663Y210014D01*
X282199Y209319D01*
X282036Y208500D01*
X282199Y207681D01*
X282663Y206986D01*
X283132Y206672D01*
Y201510D01*
X281653Y199891D01*
X280834Y199728D01*
X280139Y199264D01*
X279877Y198872D01*
X266572D01*
X266212Y199341D01*
X266463Y201448D01*
X266509Y201479D01*
X266819Y201942D01*
X266927Y202488D01*
X266927Y202488D01*
X267500Y202573D01*
X268046Y202681D01*
X268509Y202991D01*
X268819Y203454D01*
X268927Y204000D01*
X268819Y204546D01*
X268509Y205009D01*
X268046Y205319D01*
X267518Y205424D01*
X267317Y205625D01*
X266987Y205846D01*
X266935Y205856D01*
X265147Y206944D01*
Y221484D01*
X265023Y222109D01*
X264669Y222638D01*
X264660Y222644D01*
X264653Y222654D01*
X255421Y231886D01*
X254892Y232239D01*
X254268Y232363D01*
X251130D01*
X250561Y233104D01*
X249798Y233689D01*
X248910Y234057D01*
X247957Y234183D01*
X247004Y234057D01*
X246116Y233689D01*
X245353Y233104D01*
X244785Y232363D01*
X231444D01*
X224131Y239676D01*
Y282500D01*
Y319000D01*
X224007Y319624D01*
X223654Y320153D01*
X213154Y330654D01*
X212624Y331007D01*
X212000Y331131D01*
X133500D01*
X133500Y331131D01*
D02*
G37*
G36*
X306500Y189683D02*
X305547Y189557D01*
X304659Y189189D01*
X303896Y188604D01*
X303311Y187841D01*
X302943Y186953D01*
X302817Y186000D01*
X302943Y185047D01*
X303311Y184159D01*
X303896Y183396D01*
X304659Y182811D01*
X305547Y182443D01*
X306500Y182317D01*
X307453Y182443D01*
X308341Y182811D01*
X309104Y183396D01*
X309689Y184159D01*
X310057Y185047D01*
X310183Y186000D01*
X310057Y186953D01*
X309689Y187841D01*
X309104Y188604D01*
X308341Y189189D01*
X307453Y189557D01*
X306500Y189683D01*
D02*
G37*
G36*
X76545Y318093D02*
X75572Y317964D01*
X74664Y317589D01*
X73885Y316991D01*
X73287Y316212D01*
X72912Y315304D01*
X72783Y314331D01*
X72912Y313357D01*
X73287Y312449D01*
X73885Y311670D01*
X74664Y311072D01*
X75169Y310863D01*
X75169Y187700D01*
X75293Y187076D01*
X75647Y186547D01*
X86569Y175624D01*
X86493Y175440D01*
X86369Y174500D01*
X86493Y173560D01*
X86855Y172685D01*
X87432Y171932D01*
X88184Y171355D01*
X89060Y170993D01*
X90000Y170869D01*
X90940Y170993D01*
X91816Y171355D01*
X92568Y171932D01*
X93145Y172685D01*
X93507Y173560D01*
X93631Y174500D01*
X93507Y175440D01*
X93145Y176315D01*
X92568Y177068D01*
X91816Y177645D01*
X90940Y178007D01*
X90000Y178131D01*
X89060Y178007D01*
X88876Y177931D01*
X87064Y179743D01*
X88184Y181355D01*
X89060Y180993D01*
X90000Y180869D01*
X90940Y180993D01*
X91816Y181355D01*
X92568Y181932D01*
X93145Y182685D01*
X93507Y183560D01*
X93631Y184500D01*
X93507Y185440D01*
X93145Y186316D01*
X92568Y187068D01*
X91816Y187645D01*
X90940Y188007D01*
X90000Y188131D01*
X89060Y188007D01*
X88184Y187645D01*
X87432Y187068D01*
X86855Y186316D01*
X86493Y185440D01*
X86369Y184500D01*
X86493Y183560D01*
X86855Y182685D01*
X86502Y182439D01*
X85243Y181564D01*
X78431Y188376D01*
X78431Y311076D01*
X79206Y311670D01*
X79804Y312449D01*
X80179Y313357D01*
X80308Y314331D01*
X80179Y315304D01*
X79804Y316212D01*
X79206Y316991D01*
X78426Y317589D01*
X77519Y317964D01*
X76545Y318093D01*
D02*
G37*
G36*
X30000Y188131D02*
X29060Y188007D01*
X28185Y187645D01*
X27433Y187068D01*
X26855Y186316D01*
X26493Y185440D01*
X26369Y184500D01*
X26493Y183560D01*
X26855Y182685D01*
X27433Y181932D01*
X28185Y181355D01*
X29060Y180993D01*
X30000Y180869D01*
X30940Y180993D01*
X31815Y181355D01*
X32568Y181932D01*
X33145Y182685D01*
X33507Y183560D01*
X33631Y184500D01*
X33507Y185440D01*
X33145Y186316D01*
X32568Y187068D01*
X31815Y187645D01*
X30940Y188007D01*
X30000Y188131D01*
D02*
G37*
G36*
Y178131D02*
X29060Y178007D01*
X28185Y177645D01*
X27433Y177068D01*
X26855Y176315D01*
X26493Y175440D01*
X26369Y174500D01*
X26493Y173560D01*
X26855Y172685D01*
X27433Y171932D01*
X28185Y171355D01*
X29060Y170993D01*
X30000Y170869D01*
X30940Y170993D01*
X31815Y171355D01*
X32568Y171932D01*
X33145Y172685D01*
X33507Y173560D01*
X33631Y174500D01*
X33507Y175440D01*
X33145Y176315D01*
X32568Y177068D01*
X31815Y177645D01*
X30940Y178007D01*
X30000Y178131D01*
D02*
G37*
G36*
X93600Y168100D02*
X86400D01*
Y160900D01*
X93600D01*
Y168100D01*
D02*
G37*
G36*
X30000Y168131D02*
X29060Y168007D01*
X28185Y167645D01*
X27433Y167068D01*
X26855Y166315D01*
X26493Y165440D01*
X26369Y164500D01*
X26493Y163560D01*
X26855Y162685D01*
X27433Y161932D01*
X28185Y161355D01*
X29060Y160993D01*
X30000Y160869D01*
X30940Y160993D01*
X31815Y161355D01*
X32568Y161932D01*
X33145Y162685D01*
X33507Y163560D01*
X33631Y164500D01*
X33507Y165440D01*
X33145Y166315D01*
X32568Y167068D01*
X31815Y167645D01*
X30940Y168007D01*
X30000Y168131D01*
D02*
G37*
G36*
X305500Y128387D02*
X280776D01*
Y119613D01*
X305500D01*
Y119650D01*
X305813D01*
Y128350D01*
X305500D01*
Y128387D01*
D02*
G37*
G36*
X267663Y130883D02*
X266320Y130751D01*
X265029Y130359D01*
X263839Y129723D01*
X262796Y128867D01*
X261940Y127824D01*
X261304Y126634D01*
X260912Y125343D01*
X260780Y124000D01*
X260912Y122657D01*
X261304Y121366D01*
X261940Y120176D01*
X262796Y119133D01*
X263839Y118277D01*
X265029Y117641D01*
X266320Y117249D01*
X267663Y117117D01*
X269006Y117249D01*
X270297Y117641D01*
X271487Y118277D01*
X272530Y119133D01*
X273386Y120176D01*
X274022Y121366D01*
X274414Y122657D01*
X274546Y124000D01*
X274414Y125343D01*
X274022Y126634D01*
X273386Y127824D01*
X272530Y128867D01*
X271487Y129723D01*
X270297Y130359D01*
X269006Y130751D01*
X267663Y130883D01*
D02*
G37*
G36*
X58000Y120783D02*
X57047Y120657D01*
X56159Y120289D01*
X55396Y119704D01*
X54811Y118941D01*
X54443Y118053D01*
X54317Y117100D01*
X54443Y116147D01*
X54811Y115259D01*
X55396Y114496D01*
X56159Y113911D01*
X57047Y113543D01*
X58000Y113417D01*
X58953Y113543D01*
X59841Y113911D01*
X60604Y114496D01*
X61189Y115259D01*
X61557Y116147D01*
X61683Y117100D01*
X61557Y118053D01*
X61189Y118941D01*
X60604Y119704D01*
X59841Y120289D01*
X58953Y120657D01*
X58000Y120783D01*
D02*
G37*
G36*
X111449Y114724D02*
X99244D01*
Y108425D01*
X111449D01*
X111449Y108425D01*
Y114724D01*
D02*
G37*
G36*
X213500Y138108D02*
X212681Y137944D01*
X211986Y137480D01*
X211522Y136786D01*
X211359Y135966D01*
X211522Y135147D01*
X211986Y134452D01*
X212379Y134190D01*
Y64849D01*
X200651Y53121D01*
X200188Y53213D01*
X199369Y53050D01*
X198674Y52586D01*
X198210Y51891D01*
X198047Y51072D01*
X198210Y50253D01*
X198674Y49558D01*
X199369Y49094D01*
X200188Y48931D01*
X201007Y49094D01*
X201702Y49558D01*
X202166Y50253D01*
X202329Y51072D01*
X202237Y51535D01*
X214293Y63591D01*
X214293Y63591D01*
X214536Y63955D01*
X214622Y64384D01*
X214621Y64384D01*
Y104176D01*
X215916Y104738D01*
X216621Y104895D01*
X217181Y104522D01*
X218000Y104359D01*
X218819Y104522D01*
X219514Y104986D01*
X219978Y105681D01*
X220141Y106500D01*
X219978Y107319D01*
X219514Y108014D01*
X218819Y108478D01*
X218000Y108641D01*
X217181Y108478D01*
X216621Y108105D01*
X215916Y108262D01*
X214621Y108824D01*
Y134190D01*
X215014Y134452D01*
X215478Y135147D01*
X215641Y135966D01*
X215478Y136786D01*
X215014Y137480D01*
X214319Y137944D01*
X213500Y138108D01*
D02*
G37*
G36*
X232718Y103881D02*
Y99750D01*
X236849D01*
X236778Y100289D01*
X236281Y101490D01*
X235490Y102521D01*
X234458Y103313D01*
X233257Y103810D01*
X232718Y103881D01*
D02*
G37*
G36*
X231219D02*
X230680Y103810D01*
X229479Y103313D01*
X228447Y102521D01*
X227656Y101490D01*
X227159Y100289D01*
X227088Y99750D01*
X231219D01*
Y103881D01*
D02*
G37*
G36*
X206259Y101882D02*
X205439Y101719D01*
X204745Y101255D01*
X204281Y100561D01*
X204118Y99741D01*
X204281Y98922D01*
X204745Y98227D01*
X205439Y97763D01*
X206259Y97600D01*
X207078Y97763D01*
X207773Y98227D01*
X208237Y98922D01*
X208400Y99741D01*
X208237Y100561D01*
X207773Y101255D01*
X207078Y101719D01*
X206259Y101882D01*
D02*
G37*
G36*
X280000Y103576D02*
X278816Y103420D01*
X277712Y102963D01*
X276764Y102236D01*
X276037Y101288D01*
X275580Y100184D01*
X275424Y99000D01*
X275580Y97816D01*
X276037Y96712D01*
X276764Y95764D01*
X277712Y95037D01*
X278816Y94580D01*
X280000Y94424D01*
X281184Y94580D01*
X282288Y95037D01*
X283236Y95764D01*
X283963Y96712D01*
X284420Y97816D01*
X284576Y99000D01*
X284420Y100184D01*
X283963Y101288D01*
X283236Y102236D01*
X282288Y102963D01*
X281184Y103420D01*
X280000Y103576D01*
D02*
G37*
G36*
X236849Y98250D02*
X232718D01*
Y94119D01*
X233257Y94190D01*
X234458Y94687D01*
X235490Y95479D01*
X236281Y96510D01*
X236778Y97711D01*
X236849Y98250D01*
D02*
G37*
G36*
X231219D02*
X227088D01*
X227159Y97711D01*
X227656Y96510D01*
X228447Y95479D01*
X229479Y94687D01*
X230680Y94190D01*
X231219Y94119D01*
Y98250D01*
D02*
G37*
G36*
X116000Y97141D02*
X115181Y96978D01*
X114486Y96514D01*
X114022Y95819D01*
X113859Y95000D01*
X114022Y94181D01*
X114486Y93486D01*
X115181Y93022D01*
X116000Y92859D01*
X116819Y93022D01*
X117514Y93486D01*
X117978Y94181D01*
X118141Y95000D01*
X117978Y95819D01*
X117514Y96514D01*
X116819Y96978D01*
X116000Y97141D01*
D02*
G37*
G36*
X273500Y88141D02*
X272681Y87978D01*
X271986Y87514D01*
X271522Y86819D01*
X271359Y86000D01*
X271522Y85181D01*
X271986Y84486D01*
X272681Y84022D01*
X273500Y83859D01*
X274319Y84022D01*
X275014Y84486D01*
X275478Y85181D01*
X275641Y86000D01*
X275478Y86819D01*
X275014Y87514D01*
X274319Y87978D01*
X273500Y88141D01*
D02*
G37*
G36*
X195500Y169141D02*
X194681Y168978D01*
X193986Y168514D01*
X193522Y167819D01*
X193359Y167000D01*
X193522Y166181D01*
X193986Y165486D01*
X194378Y165224D01*
Y138276D01*
X193986Y138014D01*
X193522Y137319D01*
X193359Y136500D01*
X193522Y135681D01*
X193878Y135147D01*
Y82481D01*
X193486Y82218D01*
X193022Y81524D01*
X192859Y80704D01*
X193022Y79885D01*
X193486Y79190D01*
X194181Y78726D01*
X195000Y78563D01*
X195819Y78726D01*
X196514Y79190D01*
X196978Y79885D01*
X197141Y80704D01*
X196978Y81524D01*
X196514Y82218D01*
X196122Y82481D01*
Y134483D01*
X196319Y134522D01*
X197014Y134986D01*
X197478Y135681D01*
X197641Y136500D01*
X197478Y137319D01*
X197014Y138014D01*
X196622Y138276D01*
Y165224D01*
X197014Y165486D01*
X197478Y166181D01*
X197641Y167000D01*
X197478Y167819D01*
X197014Y168514D01*
X196319Y168978D01*
X195500Y169141D01*
D02*
G37*
G36*
X228631Y79915D02*
X219557D01*
Y70841D01*
X228631D01*
Y79915D01*
D02*
G37*
G36*
X280000Y56332D02*
X278816Y56176D01*
X277712Y55719D01*
X276764Y54992D01*
X276037Y54044D01*
X275580Y52940D01*
X275424Y51756D01*
X275580Y50572D01*
X276037Y49468D01*
X276764Y48520D01*
X277712Y47793D01*
X278816Y47336D01*
X280000Y47180D01*
X281184Y47336D01*
X282288Y47793D01*
X283236Y48520D01*
X283963Y49468D01*
X284420Y50572D01*
X284576Y51756D01*
X284420Y52940D01*
X283963Y54044D01*
X283236Y54992D01*
X282288Y55719D01*
X281184Y56176D01*
X280000Y56332D01*
D02*
G37*
G36*
X231968D02*
X230784Y56176D01*
X229680Y55719D01*
X228733Y54992D01*
X228005Y54044D01*
X227548Y52940D01*
X227392Y51756D01*
X227548Y50572D01*
X228005Y49468D01*
X228733Y48520D01*
X229680Y47793D01*
X230784Y47336D01*
X231968Y47180D01*
X233153Y47336D01*
X234257Y47793D01*
X235204Y48520D01*
X235932Y49468D01*
X236389Y50572D01*
X236545Y51756D01*
X236389Y52940D01*
X235932Y54044D01*
X235204Y54992D01*
X234257Y55719D01*
X233153Y56176D01*
X231968Y56332D01*
D02*
G37*
G36*
X115978Y81878D02*
X115158Y81716D01*
X114464Y81251D01*
X114000Y80557D01*
X113837Y79737D01*
X114000Y78918D01*
X114464Y78223D01*
X115158Y77759D01*
X115978Y77596D01*
X116441Y77688D01*
X165972Y28157D01*
X165972Y28157D01*
X166336Y27914D01*
X166765Y27828D01*
X166765Y27828D01*
X193957D01*
X194186Y27486D01*
X194881Y27022D01*
X195700Y26859D01*
X196519Y27022D01*
X197214Y27486D01*
X197678Y28181D01*
X197841Y29000D01*
X197678Y29819D01*
X197214Y30514D01*
X196519Y30978D01*
X195700Y31141D01*
X194881Y30978D01*
X194186Y30514D01*
X193890Y30072D01*
X167230D01*
X118027Y79274D01*
X118119Y79737D01*
X117956Y80557D01*
X117492Y81251D01*
X116797Y81716D01*
X115978Y81878D01*
D02*
G37*
%LPD*%
G36*
X190000Y279077D02*
X190000Y204000D01*
X113000Y204000D01*
X108500Y208500D01*
Y279000D01*
X174014Y279347D01*
X174369Y278994D01*
Y232338D01*
X174022Y231819D01*
X173859Y231000D01*
X174022Y230181D01*
X174486Y229486D01*
X175181Y229022D01*
X176000Y228859D01*
X176819Y229022D01*
X177514Y229486D01*
X177978Y230181D01*
X178141Y231000D01*
X177978Y231819D01*
X177631Y232338D01*
Y279366D01*
X189646Y279429D01*
X190000Y279077D01*
D02*
G37*
%LPC*%
G36*
X117500Y271742D02*
X116661Y271631D01*
X115879Y271308D01*
X115208Y270792D01*
X114692Y270121D01*
X114369Y269339D01*
X114258Y268500D01*
X114369Y267661D01*
X114692Y266879D01*
X115208Y266208D01*
X115879Y265692D01*
X116661Y265369D01*
X117500Y265258D01*
X118339Y265369D01*
X119121Y265692D01*
X119792Y266208D01*
X120308Y266879D01*
X120631Y267661D01*
X120742Y268500D01*
X120631Y269339D01*
X120308Y270121D01*
X119792Y270792D01*
X119121Y271308D01*
X118339Y271631D01*
X117500Y271742D01*
D02*
G37*
G36*
X118250Y262047D02*
Y259250D01*
X121047D01*
X121021Y259443D01*
X120657Y260323D01*
X120078Y261078D01*
X119323Y261657D01*
X118444Y262021D01*
X118250Y262047D01*
D02*
G37*
G36*
X116750D02*
X116557Y262021D01*
X115677Y261657D01*
X114922Y261078D01*
X114343Y260323D01*
X113979Y259443D01*
X113953Y259250D01*
X116750D01*
Y262047D01*
D02*
G37*
G36*
X152000Y262520D02*
Y259000D01*
X155520D01*
X155447Y259558D01*
X155039Y260543D01*
X154389Y261389D01*
X153543Y262039D01*
X152558Y262447D01*
X152000Y262520D01*
D02*
G37*
G36*
X151000D02*
X150442Y262447D01*
X149457Y262039D01*
X148611Y261389D01*
X147961Y260543D01*
X147553Y259558D01*
X147480Y259000D01*
X151000D01*
Y262520D01*
D02*
G37*
G36*
X121047Y257750D02*
X118250D01*
Y254953D01*
X118444Y254979D01*
X119323Y255343D01*
X120078Y255922D01*
X120657Y256677D01*
X121021Y257557D01*
X121047Y257750D01*
D02*
G37*
G36*
X116750D02*
X113953D01*
X113979Y257557D01*
X114343Y256677D01*
X114922Y255922D01*
X115677Y255343D01*
X116557Y254979D01*
X116750Y254953D01*
Y257750D01*
D02*
G37*
G36*
X155520Y258000D02*
X152000D01*
Y254480D01*
X152558Y254553D01*
X153543Y254961D01*
X154389Y255611D01*
X155039Y256457D01*
X155447Y257442D01*
X155520Y258000D01*
D02*
G37*
G36*
X151000D02*
X147480D01*
X147553Y257442D01*
X147961Y256457D01*
X148611Y255611D01*
X149457Y254961D01*
X150442Y254553D01*
X151000Y254480D01*
Y258000D01*
D02*
G37*
G36*
X117500Y251742D02*
X116661Y251631D01*
X115879Y251308D01*
X115208Y250792D01*
X114692Y250121D01*
X114369Y249339D01*
X114258Y248500D01*
X114369Y247661D01*
X114692Y246879D01*
X115208Y246208D01*
X115879Y245692D01*
X116661Y245369D01*
X117500Y245258D01*
X118339Y245369D01*
X119121Y245692D01*
X119792Y246208D01*
X120308Y246879D01*
X120631Y247661D01*
X120742Y248500D01*
X120631Y249339D01*
X120308Y250121D01*
X119792Y250792D01*
X119121Y251308D01*
X118339Y251631D01*
X117500Y251742D01*
D02*
G37*
G36*
X118250Y222047D02*
Y219250D01*
X121047D01*
X121021Y219443D01*
X120657Y220323D01*
X120078Y221078D01*
X119323Y221657D01*
X118444Y222021D01*
X118250Y222047D01*
D02*
G37*
G36*
X116750D02*
X116557Y222021D01*
X115677Y221657D01*
X114922Y221078D01*
X114343Y220323D01*
X113979Y219443D01*
X113953Y219250D01*
X116750D01*
Y222047D01*
D02*
G37*
G36*
X121047Y217750D02*
X118250D01*
Y214953D01*
X118444Y214979D01*
X119323Y215343D01*
X120078Y215922D01*
X120657Y216677D01*
X121021Y217557D01*
X121047Y217750D01*
D02*
G37*
G36*
X116750D02*
X113953D01*
X113979Y217557D01*
X114343Y216677D01*
X114922Y215922D01*
X115677Y215343D01*
X116557Y214979D01*
X116750Y214953D01*
Y217750D01*
D02*
G37*
G36*
X120714Y211714D02*
X114286D01*
Y205286D01*
X120714D01*
Y211714D01*
D02*
G37*
%LPD*%
D13*
X75910Y84750D02*
Y84930D01*
X72660Y81500D02*
X75910Y84750D01*
X200188Y51072D02*
X213500Y64384D01*
Y135966D01*
X55047Y76821D02*
Y77360D01*
X54000Y75774D02*
X55047Y76821D01*
X54000Y54496D02*
Y75774D01*
X278557Y261766D02*
X278740Y261583D01*
Y251240D02*
Y261583D01*
X271000Y243500D02*
X278740Y251240D01*
X281400Y239900D02*
X281500Y240000D01*
X239600Y239900D02*
X281400D01*
X35276Y81400D02*
Y88276D01*
X23551Y100000D02*
X35276Y88276D01*
X44724Y81500D02*
X72660D01*
X166765Y28950D02*
X195650D01*
X195700Y29000D01*
X115978Y79737D02*
X166765Y28950D01*
X239117Y240383D02*
X239600Y239900D01*
X263516Y199000D02*
Y200824D01*
X263500Y221500D02*
X263516Y221484D01*
X221000Y199000D02*
X254500D01*
X289500Y192000D02*
X292000Y194500D01*
X276000Y192000D02*
X289500D01*
X282321Y194740D02*
X284254Y196673D01*
Y208423D01*
X284177Y208500D02*
X284254Y208423D01*
X277485Y194740D02*
X282321D01*
X254500Y199000D02*
X255500Y200000D01*
X263516Y199000D02*
X264766Y197750D01*
X281653D01*
X229500Y247500D02*
X236617Y240383D01*
X239117D01*
X195000Y80704D02*
Y136000D01*
X195500Y136500D01*
Y167000D01*
D17*
X266596Y204904D02*
X267500Y204000D01*
X255116Y203000D02*
X257020Y204904D01*
X266596D01*
X258124Y202624D02*
X265364D01*
X255500Y200000D02*
X258124Y202624D01*
X265364D02*
X265500Y202488D01*
X251000Y203000D02*
X255116D01*
D106*
X78669Y100000D02*
D03*
X70795D02*
D03*
X62921D02*
D03*
X55047D02*
D03*
X47173D02*
D03*
X39299D02*
D03*
X31425D02*
D03*
D107*
X23551D02*
D03*
D110*
X231968Y99000D02*
D03*
X280000D02*
D03*
Y51756D02*
D03*
X231968D02*
D03*
X236500Y268500D02*
D03*
X246500D02*
D03*
X256500D02*
D03*
D111*
X224095Y75378D02*
D03*
D115*
X22600Y54500D02*
X61370Y15730D01*
X248000Y308000D02*
X281000D01*
X295500Y293500D01*
X22600Y54500D02*
Y93398D01*
X15200Y100798D02*
X22600Y93398D01*
X66700Y274200D02*
Y314331D01*
X57000Y264500D02*
X66700Y274200D01*
X76800Y314331D02*
X76800Y187700D01*
X90000Y174500D01*
X79500Y332740D02*
X86388Y325852D01*
Y314331D02*
Y325852D01*
X15200Y297600D02*
X50340Y332740D01*
X15200Y100798D02*
Y297600D01*
X40000Y81500D02*
Y85000D01*
X26028Y59500D02*
X40000Y73472D01*
X39299Y100000D02*
X40000Y99299D01*
Y73472D02*
Y81500D01*
X50340Y332740D02*
X79500D01*
X125000Y321000D02*
X133500Y329500D01*
X212000D01*
X222500Y319000D01*
X263516Y206944D02*
Y221484D01*
X230768Y230732D02*
X247957D01*
X254268D01*
X222500Y282500D02*
Y319000D01*
X40000Y85000D02*
Y99299D01*
X254268Y230732D02*
X263500Y221500D01*
X222500Y239000D02*
X230768Y230732D01*
X211500Y208500D02*
Y266500D01*
Y208500D02*
X221000Y199000D01*
X295500Y230500D02*
Y293500D01*
X165000Y310500D02*
Y315000D01*
Y310500D02*
X176000Y299500D01*
Y231000D02*
Y299500D01*
X191500Y315000D02*
X198000D01*
X176000Y299500D02*
X191500Y315000D01*
X291866Y186866D02*
X295500Y190500D01*
Y230500D01*
X278930Y186866D02*
X291866D01*
X222500Y239000D02*
Y282500D01*
X125000Y308000D02*
Y321000D01*
X30000Y264500D02*
X57000D01*
D116*
X273366Y183500D02*
X295941D01*
X269609Y186482D02*
X270384D01*
X268819Y187272D02*
Y188047D01*
Y187272D02*
X269609Y186482D01*
X270384D02*
X273366Y183500D01*
D117*
X251000Y187654D02*
X257854Y180800D01*
X276000D01*
D119*
X35500Y4500D02*
X284000D01*
X300000Y20500D01*
X19500D02*
X35500Y4500D01*
X5500Y34500D02*
X19500Y20500D01*
X5500Y34500D02*
Y316500D01*
X19500Y330500D01*
X300000Y23077D02*
X316500Y39577D01*
X300000Y327923D02*
X316500Y311423D01*
Y39577D02*
Y311423D01*
X300000Y20500D02*
Y23077D01*
Y327923D02*
Y330500D01*
D125*
X117500Y258500D02*
D03*
Y218500D02*
D03*
Y248500D02*
D03*
Y268500D02*
D03*
D126*
Y208500D02*
D03*
D127*
X66703Y314331D02*
D03*
D128*
X76545D02*
D03*
X86388D02*
D03*
X96231D02*
D03*
D129*
X14100Y68600D02*
D03*
Y48600D02*
D03*
D130*
X301463Y124000D02*
D03*
D131*
X285164D02*
D03*
D132*
X267663D02*
D03*
D133*
X30000Y164500D02*
D03*
Y174500D02*
D03*
Y184500D02*
D03*
Y254500D02*
D03*
Y264500D02*
D03*
Y274500D02*
D03*
X90000D02*
D03*
Y264500D02*
D03*
Y254500D02*
D03*
Y184500D02*
D03*
Y174500D02*
D03*
D134*
Y164500D02*
D03*
D135*
X184000Y315000D02*
D03*
X191000Y308000D02*
D03*
X198000Y315000D02*
D03*
X118000D02*
D03*
X125000Y308000D02*
D03*
X132000Y315000D02*
D03*
X151000D02*
D03*
X158000Y308000D02*
D03*
X165000Y315000D02*
D03*
D136*
X19500Y20500D02*
D03*
Y330500D02*
D03*
X300000D02*
D03*
Y20500D02*
D03*
D137*
X295500Y248500D02*
D03*
X281577Y226000D02*
D03*
X58000Y117100D02*
D03*
X256500Y290500D02*
D03*
X247957Y230500D02*
D03*
X221000Y199000D02*
D03*
X195000Y264500D02*
D03*
X196500Y230000D02*
D03*
X151500Y258500D02*
D03*
X306500Y186000D02*
D03*
X307000Y216000D02*
D03*
X254000Y214500D02*
D03*
D138*
X276000Y180800D02*
D03*
X75910Y84930D02*
D03*
X61370Y15730D02*
D03*
X116000Y111575D02*
D03*
X213500Y135966D02*
D03*
X248000Y308000D02*
D03*
X208000Y237000D02*
D03*
X239941Y216469D02*
D03*
X301965Y204116D02*
D03*
X287347Y175650D02*
D03*
X261898Y135043D02*
D03*
X223000Y174500D02*
D03*
X172500Y37500D02*
D03*
X166929Y73000D02*
D03*
X136500Y89500D02*
D03*
X108396Y96000D02*
D03*
X206259Y99741D02*
D03*
X88346Y46700D02*
D03*
X54000Y54496D02*
D03*
X62154Y43036D02*
D03*
X285500Y243300D02*
D03*
X278557Y261766D02*
D03*
X271000Y243500D02*
D03*
X35276Y81400D02*
D03*
X55047Y77360D02*
D03*
X40000Y58100D02*
D03*
X44724Y81500D02*
D03*
X181500Y257000D02*
D03*
X156193Y282500D02*
D03*
X163782D02*
D03*
X171500D02*
D03*
X180500D02*
D03*
X186500D02*
D03*
X140500Y234000D02*
D03*
X150000D02*
D03*
X163000D02*
D03*
X160000Y257000D02*
D03*
X26028Y59500D02*
D03*
X195700Y29000D02*
D03*
X115978Y79737D02*
D03*
X273500Y86000D02*
D03*
X218000Y106500D02*
D03*
X229500Y247500D02*
D03*
X239500Y240000D02*
D03*
X200188Y51072D02*
D03*
X165975Y257000D02*
D03*
X172559D02*
D03*
X116000Y95000D02*
D03*
X176000Y231000D02*
D03*
X295941Y183500D02*
D03*
X292000Y194500D02*
D03*
X284177Y208500D02*
D03*
X211500Y266500D02*
D03*
X251000Y203000D02*
D03*
X281500Y240000D02*
D03*
X195000Y80704D02*
D03*
X195500Y167000D02*
D03*
Y136500D02*
D03*
X281653Y197750D02*
D03*
X251000Y187654D02*
D03*
D139*
X264500Y195134D02*
D03*
Y191000D02*
D03*
X268634D02*
D03*
X260366D02*
D03*
X264500Y186866D02*
D03*
D140*
X263516Y206944D02*
D03*
Y200824D02*
D03*
X278930Y186866D02*
D03*
X276000Y192000D02*
D03*
X265500Y202488D02*
D03*
X277485Y194740D02*
D03*
X267500Y204000D02*
D03*
D141*
X40000Y81500D02*
D03*
Y85000D02*
D03*
D142*
X264480Y191049D02*
D03*
D143*
X296350Y123950D02*
D03*
D144*
X289350D02*
D03*
M02*
