G04*
G04 #@! TF.GenerationSoftware,Altium Limited,Altium Designer,20.0.11 (256)*
G04*
G04 Layer_Color=2752767*
%FSLAX25Y25*%
%MOIN*%
G70*
G01*
G75*
%ADD151C,0.00200*%
%ADD153C,0.00267*%
%ADD154C,0.00133*%
D151*
X116700Y257700D02*
Y259300D01*
X118300D01*
Y257700D01*
X116700D01*
Y207700D02*
Y209300D01*
X118300D01*
Y207700D01*
X116700D01*
Y217700D02*
Y219300D01*
X118300D01*
Y217700D01*
X116700D01*
Y247700D02*
Y249300D01*
X118300D01*
Y247700D01*
X116700D01*
Y267700D02*
Y269300D01*
X118300D01*
Y267700D01*
X116700D01*
X14100Y67800D02*
X13300Y69400D01*
X14900D01*
X14100Y67800D01*
Y47800D02*
X13300Y49400D01*
X14900D01*
X14100Y47800D01*
X301463Y123200D02*
X301863Y123600D01*
X302263D01*
X301863Y124000D01*
X302263Y124400D01*
X301863D01*
X301463Y124800D01*
X301063Y124400D01*
X300663D01*
X301063Y124000D01*
X300663Y123600D01*
X301063D01*
X301463Y123200D01*
X285164D02*
X285564Y123600D01*
X285964D01*
X285564Y124000D01*
X285964Y124400D01*
X285564D01*
X285164Y124800D01*
X284764Y124400D01*
X284364D01*
X284764Y124000D01*
X284364Y123600D01*
X284764D01*
X285164Y123200D01*
X266863D02*
X267263Y124000D01*
X266863Y124800D01*
X267663Y124400D01*
X268463Y124800D01*
X268063Y124000D01*
X268463Y123200D01*
X267663Y123600D01*
X266863Y123200D01*
X29600Y164100D02*
Y163700D01*
X30400D01*
Y164100D01*
X30800D01*
Y164900D01*
X30400D01*
Y165300D01*
X29600D01*
Y164900D01*
X29200D01*
Y164100D01*
X29600D01*
Y174100D02*
Y173700D01*
X30400D01*
Y174100D01*
X30800D01*
Y174900D01*
X30400D01*
Y175300D01*
X29600D01*
Y174900D01*
X29200D01*
Y174100D01*
X29600D01*
Y184100D02*
Y183700D01*
X30400D01*
Y184100D01*
X30800D01*
Y184900D01*
X30400D01*
Y185300D01*
X29600D01*
Y184900D01*
X29200D01*
Y184100D01*
X29600D01*
Y254100D02*
Y253700D01*
X30400D01*
Y254100D01*
X30800D01*
Y254900D01*
X30400D01*
Y255300D01*
X29600D01*
Y254900D01*
X29200D01*
Y254100D01*
X29600D01*
Y264100D02*
Y263700D01*
X30400D01*
Y264100D01*
X30800D01*
Y264900D01*
X30400D01*
Y265300D01*
X29600D01*
Y264900D01*
X29200D01*
Y264100D01*
X29600D01*
Y274100D02*
Y273700D01*
X30400D01*
Y274100D01*
X30800D01*
Y274900D01*
X30400D01*
Y275300D01*
X29600D01*
Y274900D01*
X29200D01*
Y274100D01*
X29600D01*
X89600D02*
Y273700D01*
X90400D01*
Y274100D01*
X90800D01*
Y274900D01*
X90400D01*
Y275300D01*
X89600D01*
Y274900D01*
X89200D01*
Y274100D01*
X89600D01*
Y264100D02*
Y263700D01*
X90400D01*
Y264100D01*
X90800D01*
Y264900D01*
X90400D01*
Y265300D01*
X89600D01*
Y264900D01*
X89200D01*
Y264100D01*
X89600D01*
Y254100D02*
Y253700D01*
X90400D01*
Y254100D01*
X90800D01*
Y254900D01*
X90400D01*
Y255300D01*
X89600D01*
Y254900D01*
X89200D01*
Y254100D01*
X89600D01*
Y184100D02*
Y183700D01*
X90400D01*
Y184100D01*
X90800D01*
Y184900D01*
X90400D01*
Y185300D01*
X89600D01*
Y184900D01*
X89200D01*
Y184100D01*
X89600D01*
Y174100D02*
Y173700D01*
X90400D01*
Y174100D01*
X90800D01*
Y174900D01*
X90400D01*
Y175300D01*
X89600D01*
Y174900D01*
X89200D01*
Y174100D01*
X89600D01*
Y164100D02*
Y163700D01*
X90400D01*
Y164100D01*
X90800D01*
Y164900D01*
X90400D01*
Y165300D01*
X89600D01*
Y164900D01*
X89200D01*
Y164100D01*
X89600D01*
X77869Y99200D02*
X78269D01*
X78669Y99600D01*
X79069Y99200D01*
X79469D01*
Y99600D01*
X79069Y100000D01*
X79469Y100400D01*
Y100800D01*
X79069D01*
X78669Y100400D01*
X78269Y100800D01*
X77869D01*
Y100400D01*
X78269Y100000D01*
X77869Y99600D01*
Y99200D01*
X69995D02*
X70395D01*
X70795Y99600D01*
X71195Y99200D01*
X71595D01*
Y99600D01*
X71195Y100000D01*
X71595Y100400D01*
Y100800D01*
X71195D01*
X70795Y100400D01*
X70395Y100800D01*
X69995D01*
Y100400D01*
X70395Y100000D01*
X69995Y99600D01*
Y99200D01*
X62121D02*
X62521D01*
X62921Y99600D01*
X63321Y99200D01*
X63721D01*
Y99600D01*
X63321Y100000D01*
X63721Y100400D01*
Y100800D01*
X63321D01*
X62921Y100400D01*
X62521Y100800D01*
X62121D01*
Y100400D01*
X62521Y100000D01*
X62121Y99600D01*
Y99200D01*
X54247D02*
X54647D01*
X55047Y99600D01*
X55447Y99200D01*
X55847D01*
Y99600D01*
X55447Y100000D01*
X55847Y100400D01*
Y100800D01*
X55447D01*
X55047Y100400D01*
X54647Y100800D01*
X54247D01*
Y100400D01*
X54647Y100000D01*
X54247Y99600D01*
Y99200D01*
X46373D02*
X46773D01*
X47173Y99600D01*
X47573Y99200D01*
X47973D01*
Y99600D01*
X47573Y100000D01*
X47973Y100400D01*
Y100800D01*
X47573D01*
X47173Y100400D01*
X46773Y100800D01*
X46373D01*
Y100400D01*
X46773Y100000D01*
X46373Y99600D01*
Y99200D01*
X38499D02*
X38899D01*
X39299Y99600D01*
X39699Y99200D01*
X40099D01*
Y99600D01*
X39699Y100000D01*
X40099Y100400D01*
Y100800D01*
X39699D01*
X39299Y100400D01*
X38899Y100800D01*
X38499D01*
Y100400D01*
X38899Y100000D01*
X38499Y99600D01*
Y99200D01*
X30625D02*
X31025D01*
X31425Y99600D01*
X31825Y99200D01*
X32225D01*
Y99600D01*
X31825Y100000D01*
X32225Y100400D01*
Y100800D01*
X31825D01*
X31425Y100400D01*
X31025Y100800D01*
X30625D01*
Y100400D01*
X31025Y100000D01*
X30625Y99600D01*
Y99200D01*
X22751D02*
X23151D01*
X23551Y99600D01*
X23951Y99200D01*
X24351D01*
Y99600D01*
X23951Y100000D01*
X24351Y100400D01*
Y100800D01*
X23951D01*
X23551Y100400D01*
X23151Y100800D01*
X22751D01*
Y100400D01*
X23151Y100000D01*
X22751Y99600D01*
Y99200D01*
X183200Y315000D02*
X184000Y315800D01*
X184800Y315000D01*
X184000Y314200D01*
X183200Y315000D01*
X190200Y308000D02*
X191000Y308800D01*
X191800Y308000D01*
X191000Y307200D01*
X190200Y308000D01*
X197200Y315000D02*
X198000Y315800D01*
X198800Y315000D01*
X198000Y314200D01*
X197200Y315000D01*
X18700Y19700D02*
Y21300D01*
X20300D01*
Y19700D01*
X18700D01*
X19100Y20100D02*
Y20900D01*
X19900D01*
Y20100D01*
X19100D01*
X295500Y247700D02*
X294700Y249300D01*
X296300D01*
X295500Y247700D01*
Y248100D02*
X295100Y248900D01*
X295900D01*
X295500Y248100D01*
X236500Y267700D02*
X236900Y268100D01*
X237300D01*
X236900Y268500D01*
X237300Y268900D01*
X236900D01*
X236500Y269300D01*
X236100Y268900D01*
X235700D01*
X236100Y268500D01*
X235700Y268100D01*
X236100D01*
X236500Y267700D01*
Y268100D02*
X236700Y268300D01*
X236900D01*
X236700Y268500D01*
X236900Y268700D01*
X236700D01*
X236500Y268900D01*
X236300Y268700D01*
X236100D01*
X236300Y268500D01*
X236100Y268300D01*
X236300D01*
X236500Y268100D01*
X246500Y267700D02*
X246900Y268100D01*
X247300D01*
X246900Y268500D01*
X247300Y268900D01*
X246900D01*
X246500Y269300D01*
X246100Y268900D01*
X245700D01*
X246100Y268500D01*
X245700Y268100D01*
X246100D01*
X246500Y267700D01*
Y268100D02*
X246700Y268300D01*
X246900D01*
X246700Y268500D01*
X246900Y268700D01*
X246700D01*
X246500Y268900D01*
X246300Y268700D01*
X246100D01*
X246300Y268500D01*
X246100Y268300D01*
X246300D01*
X246500Y268100D01*
X256500Y267700D02*
X256900Y268100D01*
X257300D01*
X256900Y268500D01*
X257300Y268900D01*
X256900D01*
X256500Y269300D01*
X256100Y268900D01*
X255700D01*
X256100Y268500D01*
X255700Y268100D01*
X256100D01*
X256500Y267700D01*
Y268100D02*
X256700Y268300D01*
X256900D01*
X256700Y268500D01*
X256900Y268700D01*
X256700D01*
X256500Y268900D01*
X256300Y268700D01*
X256100D01*
X256300Y268500D01*
X256100Y268300D01*
X256300D01*
X256500Y268100D01*
X117200Y315000D02*
X118000Y315800D01*
X118800Y315000D01*
X118000Y314200D01*
X117200Y315000D01*
X124200Y308000D02*
X125000Y308800D01*
X125800Y308000D01*
X125000Y307200D01*
X124200Y308000D01*
X131200Y315000D02*
X132000Y315800D01*
X132800Y315000D01*
X132000Y314200D01*
X131200Y315000D01*
X150200D02*
X151000Y315800D01*
X151800Y315000D01*
X151000Y314200D01*
X150200Y315000D01*
X157200Y308000D02*
X158000Y308800D01*
X158800Y308000D01*
X158000Y307200D01*
X157200Y308000D01*
X164200Y315000D02*
X165000Y315800D01*
X165800Y315000D01*
X165000Y314200D01*
X164200Y315000D01*
X18700Y329700D02*
Y331300D01*
X20300D01*
Y329700D01*
X18700D01*
X19100Y330100D02*
Y330900D01*
X19900D01*
Y330100D01*
X19100D01*
X299200Y329700D02*
Y331300D01*
X300800D01*
Y329700D01*
X299200D01*
X299600Y330100D02*
Y330900D01*
X300400D01*
Y330100D01*
X299600D01*
X299200Y19700D02*
Y21300D01*
X300800D01*
Y19700D01*
X299200D01*
X299600Y20100D02*
Y20900D01*
X300400D01*
Y20100D01*
X299600D01*
X281577Y225200D02*
X280777Y226800D01*
X282377D01*
X281577Y225200D01*
Y225600D02*
X281177Y226400D01*
X281977D01*
X281577Y225600D01*
X58000Y116300D02*
X57200Y117900D01*
X58800D01*
X58000Y116300D01*
Y116700D02*
X57600Y117500D01*
X58400D01*
X58000Y116700D01*
X256500Y289700D02*
X255700Y291300D01*
X257300D01*
X256500Y289700D01*
Y290100D02*
X256100Y290900D01*
X256900D01*
X256500Y290100D01*
X247957Y229700D02*
X247157Y231300D01*
X248757D01*
X247957Y229700D01*
Y230100D02*
X247557Y230900D01*
X248357D01*
X247957Y230100D01*
X221000Y198200D02*
X220200Y199800D01*
X221800D01*
X221000Y198200D01*
Y198600D02*
X220600Y199400D01*
X221400D01*
X221000Y198600D01*
X195000Y263700D02*
X194200Y265300D01*
X195800D01*
X195000Y263700D01*
Y264100D02*
X194600Y264900D01*
X195400D01*
X195000Y264100D01*
X196500Y229200D02*
X195700Y230800D01*
X197300D01*
X196500Y229200D01*
Y229600D02*
X196100Y230400D01*
X196900D01*
X196500Y229600D01*
X151500Y257700D02*
X150700Y259300D01*
X152300D01*
X151500Y257700D01*
Y258100D02*
X151100Y258900D01*
X151900D01*
X151500Y258100D01*
X306500Y185200D02*
X305700Y186800D01*
X307300D01*
X306500Y185200D01*
Y185600D02*
X306100Y186400D01*
X306900D01*
X306500Y185600D01*
X307000Y215200D02*
X306200Y216800D01*
X307800D01*
X307000Y215200D01*
Y215600D02*
X306600Y216400D01*
X307400D01*
X307000Y215600D01*
X254000Y213700D02*
X253200Y215300D01*
X254800D01*
X254000Y213700D01*
Y214100D02*
X253600Y214900D01*
X254400D01*
X254000Y214100D01*
X275200Y180000D02*
X275600Y180800D01*
X275200Y181600D01*
X276000Y181200D01*
X276800Y181600D01*
X276400Y180800D01*
X276800Y180000D01*
X276000Y180400D01*
X275200Y180000D01*
X275600Y180400D02*
X275800Y180800D01*
X275600Y181200D01*
X276000Y181000D01*
X276400Y181200D01*
X276200Y180800D01*
X276400Y180400D01*
X276000Y180600D01*
X275600Y180400D01*
X75110Y84130D02*
X75510Y84930D01*
X75110Y85730D01*
X75910Y85330D01*
X76710Y85730D01*
X76310Y84930D01*
X76710Y84130D01*
X75910Y84530D01*
X75110Y84130D01*
X75510Y84530D02*
X75710Y84930D01*
X75510Y85330D01*
X75910Y85130D01*
X76310Y85330D01*
X76110Y84930D01*
X76310Y84530D01*
X75910Y84730D01*
X75510Y84530D01*
X60570Y14930D02*
X60970Y15730D01*
X60570Y16530D01*
X61370Y16130D01*
X62170Y16530D01*
X61770Y15730D01*
X62170Y14930D01*
X61370Y15330D01*
X60570Y14930D01*
X60970Y15330D02*
X61170Y15730D01*
X60970Y16130D01*
X61370Y15930D01*
X61770Y16130D01*
X61570Y15730D01*
X61770Y15330D01*
X61370Y15530D01*
X60970Y15330D01*
X115200Y110775D02*
X115600Y111575D01*
X115200Y112375D01*
X116000Y111975D01*
X116800Y112375D01*
X116400Y111575D01*
X116800Y110775D01*
X116000Y111175D01*
X115200Y110775D01*
X115600Y111175D02*
X115800Y111575D01*
X115600Y111975D01*
X116000Y111775D01*
X116400Y111975D01*
X116200Y111575D01*
X116400Y111175D01*
X116000Y111375D01*
X115600Y111175D01*
X212700Y135166D02*
X213100Y135966D01*
X212700Y136766D01*
X213500Y136366D01*
X214300Y136766D01*
X213900Y135966D01*
X214300Y135166D01*
X213500Y135566D01*
X212700Y135166D01*
X213100Y135566D02*
X213300Y135966D01*
X213100Y136366D01*
X213500Y136166D01*
X213900Y136366D01*
X213700Y135966D01*
X213900Y135566D01*
X213500Y135766D01*
X213100Y135566D01*
X247200Y307200D02*
X247600Y308000D01*
X247200Y308800D01*
X248000Y308400D01*
X248800Y308800D01*
X248400Y308000D01*
X248800Y307200D01*
X248000Y307600D01*
X247200Y307200D01*
X247600Y307600D02*
X247800Y308000D01*
X247600Y308400D01*
X248000Y308200D01*
X248400Y308400D01*
X248200Y308000D01*
X248400Y307600D01*
X248000Y307800D01*
X247600Y307600D01*
X207200Y236200D02*
X207600Y237000D01*
X207200Y237800D01*
X208000Y237400D01*
X208800Y237800D01*
X208400Y237000D01*
X208800Y236200D01*
X208000Y236600D01*
X207200Y236200D01*
X207600Y236600D02*
X207800Y237000D01*
X207600Y237400D01*
X208000Y237200D01*
X208400Y237400D01*
X208200Y237000D01*
X208400Y236600D01*
X208000Y236800D01*
X207600Y236600D01*
X239141Y215669D02*
X239541Y216469D01*
X239141Y217268D01*
X239941Y216868D01*
X240741Y217268D01*
X240341Y216469D01*
X240741Y215669D01*
X239941Y216069D01*
X239141Y215669D01*
X239541Y216069D02*
X239741Y216469D01*
X239541Y216868D01*
X239941Y216669D01*
X240341Y216868D01*
X240141Y216469D01*
X240341Y216069D01*
X239941Y216268D01*
X239541Y216069D01*
X301165Y203316D02*
X301565Y204116D01*
X301165Y204916D01*
X301965Y204516D01*
X302765Y204916D01*
X302365Y204116D01*
X302765Y203316D01*
X301965Y203716D01*
X301165Y203316D01*
X301565Y203716D02*
X301765Y204116D01*
X301565Y204516D01*
X301965Y204316D01*
X302365Y204516D01*
X302165Y204116D01*
X302365Y203716D01*
X301965Y203916D01*
X301565Y203716D01*
X286546Y174850D02*
X286947Y175650D01*
X286546Y176450D01*
X287347Y176050D01*
X288146Y176450D01*
X287747Y175650D01*
X288146Y174850D01*
X287347Y175250D01*
X286546Y174850D01*
X286947Y175250D02*
X287146Y175650D01*
X286947Y176050D01*
X287347Y175850D01*
X287747Y176050D01*
X287546Y175650D01*
X287747Y175250D01*
X287347Y175450D01*
X286947Y175250D01*
X261098Y134243D02*
X261498Y135043D01*
X261098Y135843D01*
X261898Y135443D01*
X262698Y135843D01*
X262298Y135043D01*
X262698Y134243D01*
X261898Y134643D01*
X261098Y134243D01*
X261498Y134643D02*
X261698Y135043D01*
X261498Y135443D01*
X261898Y135243D01*
X262298Y135443D01*
X262098Y135043D01*
X262298Y134643D01*
X261898Y134843D01*
X261498Y134643D01*
X222200Y173700D02*
X222600Y174500D01*
X222200Y175300D01*
X223000Y174900D01*
X223800Y175300D01*
X223400Y174500D01*
X223800Y173700D01*
X223000Y174100D01*
X222200Y173700D01*
X222600Y174100D02*
X222800Y174500D01*
X222600Y174900D01*
X223000Y174700D01*
X223400Y174900D01*
X223200Y174500D01*
X223400Y174100D01*
X223000Y174300D01*
X222600Y174100D01*
X171700Y36700D02*
X172100Y37500D01*
X171700Y38300D01*
X172500Y37900D01*
X173300Y38300D01*
X172900Y37500D01*
X173300Y36700D01*
X172500Y37100D01*
X171700Y36700D01*
X172100Y37100D02*
X172300Y37500D01*
X172100Y37900D01*
X172500Y37700D01*
X172900Y37900D01*
X172700Y37500D01*
X172900Y37100D01*
X172500Y37300D01*
X172100Y37100D01*
X166129Y72200D02*
X166529Y73000D01*
X166129Y73800D01*
X166929Y73400D01*
X167729Y73800D01*
X167329Y73000D01*
X167729Y72200D01*
X166929Y72600D01*
X166129Y72200D01*
X166529Y72600D02*
X166729Y73000D01*
X166529Y73400D01*
X166929Y73200D01*
X167329Y73400D01*
X167129Y73000D01*
X167329Y72600D01*
X166929Y72800D01*
X166529Y72600D01*
X135700Y88700D02*
X136100Y89500D01*
X135700Y90300D01*
X136500Y89900D01*
X137300Y90300D01*
X136900Y89500D01*
X137300Y88700D01*
X136500Y89100D01*
X135700Y88700D01*
X136100Y89100D02*
X136300Y89500D01*
X136100Y89900D01*
X136500Y89700D01*
X136900Y89900D01*
X136700Y89500D01*
X136900Y89100D01*
X136500Y89300D01*
X136100Y89100D01*
X107597Y95200D02*
X107996Y96000D01*
X107597Y96800D01*
X108396Y96400D01*
X109196Y96800D01*
X108797Y96000D01*
X109196Y95200D01*
X108396Y95600D01*
X107597Y95200D01*
X107996Y95600D02*
X108196Y96000D01*
X107996Y96400D01*
X108396Y96200D01*
X108797Y96400D01*
X108597Y96000D01*
X108797Y95600D01*
X108396Y95800D01*
X107996Y95600D01*
X205459Y98941D02*
X205859Y99741D01*
X205459Y100541D01*
X206259Y100141D01*
X207059Y100541D01*
X206659Y99741D01*
X207059Y98941D01*
X206259Y99341D01*
X205459Y98941D01*
X205859Y99341D02*
X206059Y99741D01*
X205859Y100141D01*
X206259Y99941D01*
X206659Y100141D01*
X206459Y99741D01*
X206659Y99341D01*
X206259Y99541D01*
X205859Y99341D01*
X87546Y45900D02*
X87946Y46700D01*
X87546Y47500D01*
X88346Y47100D01*
X89147Y47500D01*
X88747Y46700D01*
X89147Y45900D01*
X88346Y46300D01*
X87546Y45900D01*
X87946Y46300D02*
X88147Y46700D01*
X87946Y47100D01*
X88346Y46900D01*
X88747Y47100D01*
X88547Y46700D01*
X88747Y46300D01*
X88346Y46500D01*
X87946Y46300D01*
X53200Y53696D02*
X53600Y54496D01*
X53200Y55296D01*
X54000Y54896D01*
X54800Y55296D01*
X54400Y54496D01*
X54800Y53696D01*
X54000Y54096D01*
X53200Y53696D01*
X53600Y54096D02*
X53800Y54496D01*
X53600Y54896D01*
X54000Y54696D01*
X54400Y54896D01*
X54200Y54496D01*
X54400Y54096D01*
X54000Y54296D01*
X53600Y54096D01*
X61353Y42236D02*
X61753Y43036D01*
X61353Y43836D01*
X62154Y43436D01*
X62954Y43836D01*
X62554Y43036D01*
X62954Y42236D01*
X62154Y42636D01*
X61353Y42236D01*
X61753Y42636D02*
X61954Y43036D01*
X61753Y43436D01*
X62154Y43236D01*
X62554Y43436D01*
X62353Y43036D01*
X62554Y42636D01*
X62154Y42836D01*
X61753Y42636D01*
X284700Y242500D02*
X285100Y243300D01*
X284700Y244100D01*
X285500Y243700D01*
X286300Y244100D01*
X285900Y243300D01*
X286300Y242500D01*
X285500Y242900D01*
X284700Y242500D01*
X285100Y242900D02*
X285300Y243300D01*
X285100Y243700D01*
X285500Y243500D01*
X285900Y243700D01*
X285700Y243300D01*
X285900Y242900D01*
X285500Y243100D01*
X285100Y242900D01*
X277757Y260966D02*
X278157Y261766D01*
X277757Y262566D01*
X278557Y262166D01*
X279357Y262566D01*
X278957Y261766D01*
X279357Y260966D01*
X278557Y261366D01*
X277757Y260966D01*
X278157Y261366D02*
X278357Y261766D01*
X278157Y262166D01*
X278557Y261966D01*
X278957Y262166D01*
X278757Y261766D01*
X278957Y261366D01*
X278557Y261566D01*
X278157Y261366D01*
X270200Y242700D02*
X270600Y243500D01*
X270200Y244300D01*
X271000Y243900D01*
X271800Y244300D01*
X271400Y243500D01*
X271800Y242700D01*
X271000Y243100D01*
X270200Y242700D01*
X270600Y243100D02*
X270800Y243500D01*
X270600Y243900D01*
X271000Y243700D01*
X271400Y243900D01*
X271200Y243500D01*
X271400Y243100D01*
X271000Y243300D01*
X270600Y243100D01*
X34476Y80600D02*
X34876Y81400D01*
X34476Y82200D01*
X35276Y81800D01*
X36076Y82200D01*
X35676Y81400D01*
X36076Y80600D01*
X35276Y81000D01*
X34476Y80600D01*
X34876Y81000D02*
X35076Y81400D01*
X34876Y81800D01*
X35276Y81600D01*
X35676Y81800D01*
X35476Y81400D01*
X35676Y81000D01*
X35276Y81200D01*
X34876Y81000D01*
X54247Y76560D02*
X54647Y77360D01*
X54247Y78160D01*
X55047Y77760D01*
X55847Y78160D01*
X55447Y77360D01*
X55847Y76560D01*
X55047Y76960D01*
X54247Y76560D01*
X54647Y76960D02*
X54847Y77360D01*
X54647Y77760D01*
X55047Y77560D01*
X55447Y77760D01*
X55247Y77360D01*
X55447Y76960D01*
X55047Y77160D01*
X54647Y76960D01*
X39200Y57300D02*
X39600Y58100D01*
X39200Y58900D01*
X40000Y58500D01*
X40800Y58900D01*
X40400Y58100D01*
X40800Y57300D01*
X40000Y57700D01*
X39200Y57300D01*
X39600Y57700D02*
X39800Y58100D01*
X39600Y58500D01*
X40000Y58300D01*
X40400Y58500D01*
X40200Y58100D01*
X40400Y57700D01*
X40000Y57900D01*
X39600Y57700D01*
X43924Y80700D02*
X44324Y81500D01*
X43924Y82300D01*
X44724Y81900D01*
X45524Y82300D01*
X45124Y81500D01*
X45524Y80700D01*
X44724Y81100D01*
X43924Y80700D01*
X44324Y81100D02*
X44524Y81500D01*
X44324Y81900D01*
X44724Y81700D01*
X45124Y81900D01*
X44924Y81500D01*
X45124Y81100D01*
X44724Y81300D01*
X44324Y81100D01*
X180700Y256200D02*
X181100Y257000D01*
X180700Y257800D01*
X181500Y257400D01*
X182300Y257800D01*
X181900Y257000D01*
X182300Y256200D01*
X181500Y256600D01*
X180700Y256200D01*
X181100Y256600D02*
X181300Y257000D01*
X181100Y257400D01*
X181500Y257200D01*
X181900Y257400D01*
X181700Y257000D01*
X181900Y256600D01*
X181500Y256800D01*
X181100Y256600D01*
X155393Y281700D02*
X155793Y282500D01*
X155393Y283300D01*
X156193Y282900D01*
X156993Y283300D01*
X156593Y282500D01*
X156993Y281700D01*
X156193Y282100D01*
X155393Y281700D01*
X155793Y282100D02*
X155993Y282500D01*
X155793Y282900D01*
X156193Y282700D01*
X156593Y282900D01*
X156393Y282500D01*
X156593Y282100D01*
X156193Y282300D01*
X155793Y282100D01*
X162982Y281700D02*
X163382Y282500D01*
X162982Y283300D01*
X163782Y282900D01*
X164582Y283300D01*
X164182Y282500D01*
X164582Y281700D01*
X163782Y282100D01*
X162982Y281700D01*
X163382Y282100D02*
X163582Y282500D01*
X163382Y282900D01*
X163782Y282700D01*
X164182Y282900D01*
X163982Y282500D01*
X164182Y282100D01*
X163782Y282300D01*
X163382Y282100D01*
X170700Y281700D02*
X171100Y282500D01*
X170700Y283300D01*
X171500Y282900D01*
X172300Y283300D01*
X171900Y282500D01*
X172300Y281700D01*
X171500Y282100D01*
X170700Y281700D01*
X171100Y282100D02*
X171300Y282500D01*
X171100Y282900D01*
X171500Y282700D01*
X171900Y282900D01*
X171700Y282500D01*
X171900Y282100D01*
X171500Y282300D01*
X171100Y282100D01*
X179700Y281700D02*
X180100Y282500D01*
X179700Y283300D01*
X180500Y282900D01*
X181300Y283300D01*
X180900Y282500D01*
X181300Y281700D01*
X180500Y282100D01*
X179700Y281700D01*
X180100Y282100D02*
X180300Y282500D01*
X180100Y282900D01*
X180500Y282700D01*
X180900Y282900D01*
X180700Y282500D01*
X180900Y282100D01*
X180500Y282300D01*
X180100Y282100D01*
X185700Y281700D02*
X186100Y282500D01*
X185700Y283300D01*
X186500Y282900D01*
X187300Y283300D01*
X186900Y282500D01*
X187300Y281700D01*
X186500Y282100D01*
X185700Y281700D01*
X186100Y282100D02*
X186300Y282500D01*
X186100Y282900D01*
X186500Y282700D01*
X186900Y282900D01*
X186700Y282500D01*
X186900Y282100D01*
X186500Y282300D01*
X186100Y282100D01*
X139700Y233200D02*
X140100Y234000D01*
X139700Y234800D01*
X140500Y234400D01*
X141300Y234800D01*
X140900Y234000D01*
X141300Y233200D01*
X140500Y233600D01*
X139700Y233200D01*
X140100Y233600D02*
X140300Y234000D01*
X140100Y234400D01*
X140500Y234200D01*
X140900Y234400D01*
X140700Y234000D01*
X140900Y233600D01*
X140500Y233800D01*
X140100Y233600D01*
X149200Y233200D02*
X149600Y234000D01*
X149200Y234800D01*
X150000Y234400D01*
X150800Y234800D01*
X150400Y234000D01*
X150800Y233200D01*
X150000Y233600D01*
X149200Y233200D01*
X149600Y233600D02*
X149800Y234000D01*
X149600Y234400D01*
X150000Y234200D01*
X150400Y234400D01*
X150200Y234000D01*
X150400Y233600D01*
X150000Y233800D01*
X149600Y233600D01*
X162200Y233200D02*
X162600Y234000D01*
X162200Y234800D01*
X163000Y234400D01*
X163800Y234800D01*
X163400Y234000D01*
X163800Y233200D01*
X163000Y233600D01*
X162200Y233200D01*
X162600Y233600D02*
X162800Y234000D01*
X162600Y234400D01*
X163000Y234200D01*
X163400Y234400D01*
X163200Y234000D01*
X163400Y233600D01*
X163000Y233800D01*
X162600Y233600D01*
X159200Y256200D02*
X159600Y257000D01*
X159200Y257800D01*
X160000Y257400D01*
X160800Y257800D01*
X160400Y257000D01*
X160800Y256200D01*
X160000Y256600D01*
X159200Y256200D01*
X159600Y256600D02*
X159800Y257000D01*
X159600Y257400D01*
X160000Y257200D01*
X160400Y257400D01*
X160200Y257000D01*
X160400Y256600D01*
X160000Y256800D01*
X159600Y256600D01*
X264100Y194734D02*
Y194334D01*
X264900D01*
Y194734D01*
X265300D01*
Y195534D01*
X264900D01*
Y195934D01*
X264100D01*
Y195534D01*
X263700D01*
Y194734D01*
X264100D01*
X264300Y194934D02*
Y194734D01*
X264700D01*
Y194934D01*
X264900D01*
Y195334D01*
X264700D01*
Y195534D01*
X264300D01*
Y195334D01*
X264100D01*
Y194934D01*
X264300D01*
X264100Y190600D02*
Y190200D01*
X264900D01*
Y190600D01*
X265300D01*
Y191400D01*
X264900D01*
Y191800D01*
X264100D01*
Y191400D01*
X263700D01*
Y190600D01*
X264100D01*
X264300Y190800D02*
Y190600D01*
X264700D01*
Y190800D01*
X264900D01*
Y191200D01*
X264700D01*
Y191400D01*
X264300D01*
Y191200D01*
X264100D01*
Y190800D01*
X264300D01*
X268234Y190600D02*
Y190200D01*
X269034D01*
Y190600D01*
X269434D01*
Y191400D01*
X269034D01*
Y191800D01*
X268234D01*
Y191400D01*
X267834D01*
Y190600D01*
X268234D01*
X268434Y190800D02*
Y190600D01*
X268834D01*
Y190800D01*
X269034D01*
Y191200D01*
X268834D01*
Y191400D01*
X268434D01*
Y191200D01*
X268234D01*
Y190800D01*
X268434D01*
X259966Y190600D02*
Y190200D01*
X260766D01*
Y190600D01*
X261166D01*
Y191400D01*
X260766D01*
Y191800D01*
X259966D01*
Y191400D01*
X259566D01*
Y190600D01*
X259966D01*
X260166Y190800D02*
Y190600D01*
X260566D01*
Y190800D01*
X260766D01*
Y191200D01*
X260566D01*
Y191400D01*
X260166D01*
Y191200D01*
X259966D01*
Y190800D01*
X260166D01*
X264100Y186466D02*
Y186066D01*
X264900D01*
Y186466D01*
X265300D01*
Y187266D01*
X264900D01*
Y187666D01*
X264100D01*
Y187266D01*
X263700D01*
Y186466D01*
X264100D01*
X264300Y186666D02*
Y186466D01*
X264700D01*
Y186666D01*
X264900D01*
Y187066D01*
X264700D01*
Y187266D01*
X264300D01*
Y187066D01*
X264100D01*
Y186666D01*
X264300D01*
X25228Y58700D02*
X25628Y59500D01*
X25228Y60300D01*
X26028Y59900D01*
X26828Y60300D01*
X26428Y59500D01*
X26828Y58700D01*
X26028Y59100D01*
X25228Y58700D01*
X25628Y59100D02*
X25828Y59500D01*
X25628Y59900D01*
X26028Y59700D01*
X26428Y59900D01*
X26228Y59500D01*
X26428Y59100D01*
X26028Y59300D01*
X25628Y59100D01*
X194900Y28200D02*
X195300Y29000D01*
X194900Y29800D01*
X195700Y29400D01*
X196500Y29800D01*
X196100Y29000D01*
X196500Y28200D01*
X195700Y28600D01*
X194900Y28200D01*
X195300Y28600D02*
X195500Y29000D01*
X195300Y29400D01*
X195700Y29200D01*
X196100Y29400D01*
X195900Y29000D01*
X196100Y28600D01*
X195700Y28800D01*
X195300Y28600D01*
X115178Y78937D02*
X115578Y79737D01*
X115178Y80537D01*
X115978Y80137D01*
X116778Y80537D01*
X116378Y79737D01*
X116778Y78937D01*
X115978Y79337D01*
X115178Y78937D01*
X115578Y79337D02*
X115778Y79737D01*
X115578Y80137D01*
X115978Y79937D01*
X116378Y80137D01*
X116178Y79737D01*
X116378Y79337D01*
X115978Y79537D01*
X115578Y79337D01*
X272700Y85200D02*
X273100Y86000D01*
X272700Y86800D01*
X273500Y86400D01*
X274300Y86800D01*
X273900Y86000D01*
X274300Y85200D01*
X273500Y85600D01*
X272700Y85200D01*
X273100Y85600D02*
X273300Y86000D01*
X273100Y86400D01*
X273500Y86200D01*
X273900Y86400D01*
X273700Y86000D01*
X273900Y85600D01*
X273500Y85800D01*
X273100Y85600D01*
X217200Y105700D02*
X217600Y106500D01*
X217200Y107300D01*
X218000Y106900D01*
X218800Y107300D01*
X218400Y106500D01*
X218800Y105700D01*
X218000Y106100D01*
X217200Y105700D01*
X217600Y106100D02*
X217800Y106500D01*
X217600Y106900D01*
X218000Y106700D01*
X218400Y106900D01*
X218200Y106500D01*
X218400Y106100D01*
X218000Y106300D01*
X217600Y106100D01*
X228700Y246700D02*
X229100Y247500D01*
X228700Y248300D01*
X229500Y247900D01*
X230300Y248300D01*
X229900Y247500D01*
X230300Y246700D01*
X229500Y247100D01*
X228700Y246700D01*
X229100Y247100D02*
X229300Y247500D01*
X229100Y247900D01*
X229500Y247700D01*
X229900Y247900D01*
X229700Y247500D01*
X229900Y247100D01*
X229500Y247300D01*
X229100Y247100D01*
X238700Y239200D02*
X239100Y240000D01*
X238700Y240800D01*
X239500Y240400D01*
X240300Y240800D01*
X239900Y240000D01*
X240300Y239200D01*
X239500Y239600D01*
X238700Y239200D01*
X239100Y239600D02*
X239300Y240000D01*
X239100Y240400D01*
X239500Y240200D01*
X239900Y240400D01*
X239700Y240000D01*
X239900Y239600D01*
X239500Y239800D01*
X239100Y239600D01*
X262716Y206144D02*
X263116D01*
X263516Y206544D01*
X263916Y206144D01*
X264316D01*
Y206544D01*
X263916Y206944D01*
X264316Y207344D01*
Y207744D01*
X263916D01*
X263516Y207344D01*
X263116Y207744D01*
X262716D01*
Y207344D01*
X263116Y206944D01*
X262716Y206544D01*
Y206144D01*
X263116Y206544D02*
X263316D01*
X263516Y206744D01*
X263716Y206544D01*
X263916D01*
Y206744D01*
X263716Y206944D01*
X263916Y207144D01*
Y207344D01*
X263716D01*
X263516Y207144D01*
X263316Y207344D01*
X263116D01*
Y207144D01*
X263316Y206944D01*
X263116Y206744D01*
Y206544D01*
X262716Y200024D02*
X263116D01*
X263516Y200424D01*
X263916Y200024D01*
X264316D01*
Y200424D01*
X263916Y200824D01*
X264316Y201224D01*
Y201624D01*
X263916D01*
X263516Y201224D01*
X263116Y201624D01*
X262716D01*
Y201224D01*
X263116Y200824D01*
X262716Y200424D01*
Y200024D01*
X263116Y200424D02*
X263316D01*
X263516Y200624D01*
X263716Y200424D01*
X263916D01*
Y200624D01*
X263716Y200824D01*
X263916Y201024D01*
Y201224D01*
X263716D01*
X263516Y201024D01*
X263316Y201224D01*
X263116D01*
Y201024D01*
X263316Y200824D01*
X263116Y200624D01*
Y200424D01*
X199388Y50272D02*
X199788Y51072D01*
X199388Y51872D01*
X200188Y51472D01*
X200988Y51872D01*
X200588Y51072D01*
X200988Y50272D01*
X200188Y50672D01*
X199388Y50272D01*
X199788Y50672D02*
X199988Y51072D01*
X199788Y51472D01*
X200188Y51272D01*
X200588Y51472D01*
X200388Y51072D01*
X200588Y50672D01*
X200188Y50872D01*
X199788Y50672D01*
X165175Y256200D02*
X165576Y257000D01*
X165175Y257800D01*
X165975Y257400D01*
X166776Y257800D01*
X166376Y257000D01*
X166776Y256200D01*
X165975Y256600D01*
X165175Y256200D01*
X165576Y256600D02*
X165776Y257000D01*
X165576Y257400D01*
X165975Y257200D01*
X166376Y257400D01*
X166175Y257000D01*
X166376Y256600D01*
X165975Y256800D01*
X165576Y256600D01*
X171759Y256200D02*
X172159Y257000D01*
X171759Y257800D01*
X172559Y257400D01*
X173359Y257800D01*
X172959Y257000D01*
X173359Y256200D01*
X172559Y256600D01*
X171759Y256200D01*
X172159Y256600D02*
X172359Y257000D01*
X172159Y257400D01*
X172559Y257200D01*
X172959Y257400D01*
X172759Y257000D01*
X172959Y256600D01*
X172559Y256800D01*
X172159Y256600D01*
X115200Y94200D02*
X115600Y95000D01*
X115200Y95800D01*
X116000Y95400D01*
X116800Y95800D01*
X116400Y95000D01*
X116800Y94200D01*
X116000Y94600D01*
X115200Y94200D01*
X115600Y94600D02*
X115800Y95000D01*
X115600Y95400D01*
X116000Y95200D01*
X116400Y95400D01*
X116200Y95000D01*
X116400Y94600D01*
X116000Y94800D01*
X115600Y94600D01*
X175200Y230200D02*
X175600Y231000D01*
X175200Y231800D01*
X176000Y231400D01*
X176800Y231800D01*
X176400Y231000D01*
X176800Y230200D01*
X176000Y230600D01*
X175200Y230200D01*
X175600Y230600D02*
X175800Y231000D01*
X175600Y231400D01*
X176000Y231200D01*
X176400Y231400D01*
X176200Y231000D01*
X176400Y230600D01*
X176000Y230800D01*
X175600Y230600D01*
X278130Y186066D02*
X278530D01*
X278930Y186466D01*
X279330Y186066D01*
X279730D01*
Y186466D01*
X279330Y186866D01*
X279730Y187266D01*
Y187666D01*
X279330D01*
X278930Y187266D01*
X278530Y187666D01*
X278130D01*
Y187266D01*
X278530Y186866D01*
X278130Y186466D01*
Y186066D01*
X278530Y186466D02*
X278730D01*
X278930Y186666D01*
X279130Y186466D01*
X279330D01*
Y186666D01*
X279130Y186866D01*
X279330Y187066D01*
Y187266D01*
X279130D01*
X278930Y187066D01*
X278730Y187266D01*
X278530D01*
Y187066D01*
X278730Y186866D01*
X278530Y186666D01*
Y186466D01*
X295141Y182700D02*
X295541Y183500D01*
X295141Y184300D01*
X295941Y183900D01*
X296741Y184300D01*
X296341Y183500D01*
X296741Y182700D01*
X295941Y183100D01*
X295141Y182700D01*
X295541Y183100D02*
X295741Y183500D01*
X295541Y183900D01*
X295941Y183700D01*
X296341Y183900D01*
X296141Y183500D01*
X296341Y183100D01*
X295941Y183300D01*
X295541Y183100D01*
X291200Y193700D02*
X291600Y194500D01*
X291200Y195300D01*
X292000Y194900D01*
X292800Y195300D01*
X292400Y194500D01*
X292800Y193700D01*
X292000Y194100D01*
X291200Y193700D01*
X291600Y194100D02*
X291800Y194500D01*
X291600Y194900D01*
X292000Y194700D01*
X292400Y194900D01*
X292200Y194500D01*
X292400Y194100D01*
X292000Y194300D01*
X291600Y194100D01*
X275200Y191200D02*
X275600D01*
X276000Y191600D01*
X276400Y191200D01*
X276800D01*
Y191600D01*
X276400Y192000D01*
X276800Y192400D01*
Y192800D01*
X276400D01*
X276000Y192400D01*
X275600Y192800D01*
X275200D01*
Y192400D01*
X275600Y192000D01*
X275200Y191600D01*
Y191200D01*
X275600Y191600D02*
X275800D01*
X276000Y191800D01*
X276200Y191600D01*
X276400D01*
Y191800D01*
X276200Y192000D01*
X276400Y192200D01*
Y192400D01*
X276200D01*
X276000Y192200D01*
X275800Y192400D01*
X275600D01*
Y192200D01*
X275800Y192000D01*
X275600Y191800D01*
Y191600D01*
X264700Y201688D02*
X265100D01*
X265500Y202088D01*
X265900Y201688D01*
X266300D01*
Y202088D01*
X265900Y202488D01*
X266300Y202888D01*
Y203288D01*
X265900D01*
X265500Y202888D01*
X265100Y203288D01*
X264700D01*
Y202888D01*
X265100Y202488D01*
X264700Y202088D01*
Y201688D01*
X265100Y202088D02*
X265300D01*
X265500Y202288D01*
X265700Y202088D01*
X265900D01*
Y202288D01*
X265700Y202488D01*
X265900Y202688D01*
Y202888D01*
X265700D01*
X265500Y202688D01*
X265300Y202888D01*
X265100D01*
Y202688D01*
X265300Y202488D01*
X265100Y202288D01*
Y202088D01*
X276685Y193940D02*
X277085D01*
X277485Y194340D01*
X277885Y193940D01*
X278285D01*
Y194340D01*
X277885Y194740D01*
X278285Y195140D01*
Y195540D01*
X277885D01*
X277485Y195140D01*
X277085Y195540D01*
X276685D01*
Y195140D01*
X277085Y194740D01*
X276685Y194340D01*
Y193940D01*
X277085Y194340D02*
X277285D01*
X277485Y194540D01*
X277685Y194340D01*
X277885D01*
Y194540D01*
X277685Y194740D01*
X277885Y194940D01*
Y195140D01*
X277685D01*
X277485Y194940D01*
X277285Y195140D01*
X277085D01*
Y194940D01*
X277285Y194740D01*
X277085Y194540D01*
Y194340D01*
X283377Y207700D02*
X283777Y208500D01*
X283377Y209300D01*
X284177Y208900D01*
X284977Y209300D01*
X284577Y208500D01*
X284977Y207700D01*
X284177Y208100D01*
X283377Y207700D01*
X283777Y208100D02*
X283977Y208500D01*
X283777Y208900D01*
X284177Y208700D01*
X284577Y208900D01*
X284377Y208500D01*
X284577Y208100D01*
X284177Y208300D01*
X283777Y208100D01*
X210700Y265700D02*
X211100Y266500D01*
X210700Y267300D01*
X211500Y266900D01*
X212300Y267300D01*
X211900Y266500D01*
X212300Y265700D01*
X211500Y266100D01*
X210700Y265700D01*
X211100Y266100D02*
X211300Y266500D01*
X211100Y266900D01*
X211500Y266700D01*
X211900Y266900D01*
X211700Y266500D01*
X211900Y266100D01*
X211500Y266300D01*
X211100Y266100D01*
X266700Y203200D02*
X267100D01*
X267500Y203600D01*
X267900Y203200D01*
X268300D01*
Y203600D01*
X267900Y204000D01*
X268300Y204400D01*
Y204800D01*
X267900D01*
X267500Y204400D01*
X267100Y204800D01*
X266700D01*
Y204400D01*
X267100Y204000D01*
X266700Y203600D01*
Y203200D01*
X267100Y203600D02*
X267300D01*
X267500Y203800D01*
X267700Y203600D01*
X267900D01*
Y203800D01*
X267700Y204000D01*
X267900Y204200D01*
Y204400D01*
X267700D01*
X267500Y204200D01*
X267300Y204400D01*
X267100D01*
Y204200D01*
X267300Y204000D01*
X267100Y203800D01*
Y203600D01*
X250200Y202200D02*
X250600Y203000D01*
X250200Y203800D01*
X251000Y203400D01*
X251800Y203800D01*
X251400Y203000D01*
X251800Y202200D01*
X251000Y202600D01*
X250200Y202200D01*
X250600Y202600D02*
X250800Y203000D01*
X250600Y203400D01*
X251000Y203200D01*
X251400Y203400D01*
X251200Y203000D01*
X251400Y202600D01*
X251000Y202800D01*
X250600Y202600D01*
X280700Y239200D02*
X281100Y240000D01*
X280700Y240800D01*
X281500Y240400D01*
X282300Y240800D01*
X281900Y240000D01*
X282300Y239200D01*
X281500Y239600D01*
X280700Y239200D01*
X281100Y239600D02*
X281300Y240000D01*
X281100Y240400D01*
X281500Y240200D01*
X281900Y240400D01*
X281700Y240000D01*
X281900Y239600D01*
X281500Y239800D01*
X281100Y239600D01*
X194200Y79904D02*
X194600Y80704D01*
X194200Y81504D01*
X195000Y81104D01*
X195800Y81504D01*
X195400Y80704D01*
X195800Y79904D01*
X195000Y80304D01*
X194200Y79904D01*
X194600Y80304D02*
X194800Y80704D01*
X194600Y81104D01*
X195000Y80904D01*
X195400Y81104D01*
X195200Y80704D01*
X195400Y80304D01*
X195000Y80504D01*
X194600Y80304D01*
X194700Y166200D02*
X195100Y167000D01*
X194700Y167800D01*
X195500Y167400D01*
X196300Y167800D01*
X195900Y167000D01*
X196300Y166200D01*
X195500Y166600D01*
X194700Y166200D01*
X195100Y166600D02*
X195300Y167000D01*
X195100Y167400D01*
X195500Y167200D01*
X195900Y167400D01*
X195700Y167000D01*
X195900Y166600D01*
X195500Y166800D01*
X195100Y166600D01*
X194700Y135700D02*
X195100Y136500D01*
X194700Y137300D01*
X195500Y136900D01*
X196300Y137300D01*
X195900Y136500D01*
X196300Y135700D01*
X195500Y136100D01*
X194700Y135700D01*
X195100Y136100D02*
X195300Y136500D01*
X195100Y136900D01*
X195500Y136700D01*
X195900Y136900D01*
X195700Y136500D01*
X195900Y136100D01*
X195500Y136300D01*
X195100Y136100D01*
X280854Y196950D02*
X281254Y197750D01*
X280854Y198550D01*
X281653Y198150D01*
X282453Y198550D01*
X282053Y197750D01*
X282453Y196950D01*
X281653Y197350D01*
X280854Y196950D01*
X281254Y197350D02*
X281453Y197750D01*
X281254Y198150D01*
X281653Y197950D01*
X282053Y198150D01*
X281854Y197750D01*
X282053Y197350D01*
X281653Y197550D01*
X281254Y197350D01*
X250200Y186854D02*
X250600Y187654D01*
X250200Y188453D01*
X251000Y188054D01*
X251800Y188453D01*
X251400Y187654D01*
X251800Y186854D01*
X251000Y187253D01*
X250200Y186854D01*
X250600Y187253D02*
X250800Y187654D01*
X250600Y188054D01*
X251000Y187854D01*
X251400Y188054D01*
X251200Y187654D01*
X251400Y187253D01*
X251000Y187453D01*
X250600Y187253D01*
D153*
X67503Y314331D02*
G03*
X67503Y314331I-800J0D01*
G01*
X77345D02*
G03*
X77345Y314331I-800J0D01*
G01*
X87188D02*
G03*
X87188Y314331I-800J0D01*
G01*
X97031D02*
G03*
X97031Y314331I-800J0D01*
G01*
X232769Y99000D02*
G03*
X232769Y99000I-800J0D01*
G01*
X280800D02*
G03*
X280800Y99000I-800J0D01*
G01*
Y51756D02*
G03*
X280800Y51756I-800J0D01*
G01*
X232769D02*
G03*
X232769Y51756I-800J0D01*
G01*
X224894Y75378D02*
G03*
X224894Y75378I-800J0D01*
G01*
D154*
X232368Y99000D02*
G03*
X232368Y99000I-400J0D01*
G01*
X280400D02*
G03*
X280400Y99000I-400J0D01*
G01*
Y51756D02*
G03*
X280400Y51756I-400J0D01*
G01*
X232368D02*
G03*
X232368Y51756I-400J0D01*
G01*
X224495Y75378D02*
G03*
X224495Y75378I-400J0D01*
G01*
M02*
