G04*
G04 #@! TF.GenerationSoftware,Altium Limited,Altium Designer,20.0.11 (256)*
G04*
G04 Layer_Color=16711935*
%FSLAX25Y25*%
%MOIN*%
G70*
G01*
G75*
%ADD96C,0.05628*%
%ADD97R,0.05628X0.05628*%
%ADD98R,0.06660X0.06660*%
%ADD99C,0.06660*%
%ADD100C,0.10400*%
%ADD101R,0.07900X0.07900*%
%ADD102C,0.07900*%
%ADD103C,0.12900*%
%ADD104C,0.06400*%
%ADD105R,0.06400X0.06400*%
%ADD106C,0.04724*%
%ADD107R,0.04724X0.04724*%
%ADD108C,0.04400*%
%ADD109C,0.30400*%
%ADD110C,0.07874*%
%ADD111R,0.07874X0.07874*%
%ADD112C,0.06502*%
%ADD145R,0.12936X0.04100*%
D96*
X117500Y258500D02*
D03*
Y218500D02*
D03*
Y248500D02*
D03*
Y268500D02*
D03*
D97*
Y208500D02*
D03*
D98*
X66703Y314331D02*
D03*
D99*
X76545D02*
D03*
X86388D02*
D03*
X96231D02*
D03*
D100*
X14100Y68600D02*
D03*
Y48600D02*
D03*
D101*
X301463Y124000D02*
D03*
D102*
X285164D02*
D03*
D103*
X267663D02*
D03*
D104*
X30000Y164500D02*
D03*
Y174500D02*
D03*
Y184500D02*
D03*
Y254500D02*
D03*
Y264500D02*
D03*
Y274500D02*
D03*
X90000D02*
D03*
Y264500D02*
D03*
Y254500D02*
D03*
Y184500D02*
D03*
Y174500D02*
D03*
D105*
Y164500D02*
D03*
D106*
X78669Y100000D02*
D03*
X70795D02*
D03*
X62921D02*
D03*
X55047D02*
D03*
X47173D02*
D03*
X39299D02*
D03*
X31425D02*
D03*
D107*
X23551D02*
D03*
D108*
X184000Y315000D02*
D03*
X191000Y308000D02*
D03*
X198000Y315000D02*
D03*
X118000D02*
D03*
X125000Y308000D02*
D03*
X132000Y315000D02*
D03*
X151000D02*
D03*
X158000Y308000D02*
D03*
X165000Y315000D02*
D03*
D109*
X19500Y20500D02*
D03*
Y330500D02*
D03*
X300000D02*
D03*
Y20500D02*
D03*
D110*
X231968Y99000D02*
D03*
X280000D02*
D03*
Y51756D02*
D03*
X231968D02*
D03*
D111*
X224095Y75378D02*
D03*
D112*
X295500Y248500D02*
D03*
X281577Y226000D02*
D03*
X58000Y117100D02*
D03*
X256500Y290500D02*
D03*
X247957Y230500D02*
D03*
X221000Y199000D02*
D03*
X195000Y264500D02*
D03*
X196500Y230000D02*
D03*
X151500Y258500D02*
D03*
X306500Y186000D02*
D03*
X307000Y216000D02*
D03*
X254000Y214500D02*
D03*
D145*
X291632Y123950D02*
D03*
M02*
