M48
;Layer_Color=9474304
;FILE_FORMAT=2:5
INCH,LZ
;TYPE=PLATED
T1F00S00C0.00787
T2F00S00C0.00900
T3F00S00C0.01500
T4F00S00C0.02000
T5F00S00C0.02756
T6F00S00C0.03000
T7F00S00C0.03228
T8F00S00C0.03937
T9F00S00C0.04000
T10F00S00C0.04173
T11F00S00C0.05118
T12F00S00C0.05500
T13F00S00C0.05700
T14F00S00C0.14200
%
T01
X0260366Y0191
X02645
Y0195134
X0268634Y0191
X02645Y0186866
T02
X0263516Y0200824
X02655Y0202488
X02675Y0204
X0263516Y0206944
X0277485Y019474
X0276Y0192
X027893Y0186866
T03
X0054Y0054496
X0062154Y0043036
X006137Y001573
X0088346Y00467
X01725Y00375
X01957Y0029
X0200188Y0051072
X0218Y01065
X02135Y0135966
X0223Y01745
X0251Y0187654
Y0203
X0281653Y019775
X0284177Y02085
X0292Y01945
X0295941Y01835
X0287347Y017565
X0276Y01808
X0301965Y0204116
X0261898Y0135043
X02735Y0086
X0206259Y0099741
X0195Y0080704
X0166929Y0073
X01365Y00895
X0116Y0095
X0108396Y0096
X0116Y0111575
X0115978Y0079737
X007591Y008493
X01955Y01365
Y0167
X0055047Y007736
X0044724Y00815
X0035276Y00814
X004Y00581
X0026028Y00595
X01405Y0234
X015
X0163
X0176Y0231
X0172559Y0257
X0165975
X016
X01815
X01805Y02825
X01865
X01715
X0163782
X0156193
X02115Y02665
X0208Y0237
X02295Y02475
X02395Y024
X0239941Y0216469
X0271Y02435
X02815Y024
X02855Y02433
X0278557Y0261766
X0248Y0308
T04
X0118Y0315
X0125Y0308
X0132Y0315
X0151
X0158Y0308
X0165Y0315
X0184
X0191Y0308
X0198Y0315
T05
X0062921Y01
X0070795
X0078669
X0055047
X0047173
X0039299
X0031425
X0023551
T06
X009Y01645
Y01745
Y01845
X003
Y01745
Y01645
Y02545
Y02645
Y02745
X009
Y02645
Y02545
T07
X01175Y02085
Y02185
Y02485
Y02585
Y02685
T08
X02365Y02685
X02465
X02565
T09
X0221Y0199
X03065Y0186
X0058Y01171
X01515Y02585
X0195Y02645
X01965Y023
X0247957Y02305
X0254Y02145
X0281577Y0226
X0307Y0216
X02955Y02485
X02565Y02905
T10
X0066703Y0314331
X0076545
X0086388
X0096231
T11
X0231968Y0051756
X028
Y0099
X0231968
X0224095Y0075378
T12
X0285164Y0124
X0301463
T13
X00141Y00486
Y00686
T14
X00195Y00205
X03
X00195Y03305
X03
M30
