G04*
G04 #@! TF.GenerationSoftware,Altium Limited,Altium Designer,20.0.13 (296)*
G04*
G04 Layer_Color=32896*
%FSLAX25Y25*%
%MOIN*%
G70*
G01*
G75*
%ADD11C,0.02000*%
%ADD12C,0.00787*%
%ADD14C,0.00600*%
%ADD60C,0.00800*%
G36*
X313629Y139897D02*
X314114Y139619D01*
X314531Y139341D01*
X314878Y139063D01*
X315156Y138855D01*
X315295Y138647D01*
X315365Y138508D01*
X315434Y138438D01*
X367236Y48930D01*
X367444Y48305D01*
X367583Y47680D01*
Y47055D01*
X367514Y46569D01*
X367444Y46153D01*
X367375Y45875D01*
X367236Y45667D01*
Y45597D01*
X366820Y45042D01*
X366403Y44694D01*
X365917Y44417D01*
X365431Y44208D01*
X365014Y44069D01*
X364667Y44000D01*
X260854Y44000D01*
X260229Y44069D01*
X259743Y44278D01*
X259257Y44486D01*
X258840Y44833D01*
X258563Y45111D01*
X258354Y45319D01*
X258215Y45528D01*
X258146Y45597D01*
X257868Y46153D01*
X257729Y46778D01*
Y47333D01*
X257799Y47819D01*
X257868Y48305D01*
X258007Y48652D01*
X258077Y48861D01*
X258146Y48930D01*
X309809Y138438D01*
X310295Y139063D01*
X310851Y139549D01*
X311406Y139827D01*
X311893Y140035D01*
X312379Y140105D01*
X313073D01*
X313629Y139897D01*
D02*
G37*
%LPC*%
G36*
X312587Y129758D02*
X268701Y52472D01*
X356612Y52472D01*
X312587Y129758D01*
D02*
G37*
%LPD*%
G36*
X322239Y76290D02*
X309115Y81637D01*
X313767Y65387D01*
X316267D01*
X313073Y56291D01*
X307309Y65040D01*
X309809D01*
X303074Y90108D01*
X316476Y84692D01*
X307101Y106357D01*
X313767D01*
X322239Y76290D01*
D02*
G37*
D11*
X118000Y0D02*
Y61000D01*
X112500Y66500D02*
X118000Y61000D01*
X107500Y66500D02*
X112500D01*
X0Y66500D02*
X107500Y66500D01*
X156500Y0D02*
Y93500D01*
X145900Y104100D02*
X156500Y93500D01*
X0Y104100D02*
X145900Y104100D01*
D12*
X267771Y91707D02*
X270133D01*
X267771Y86392D02*
X270133D01*
X256224Y118953D02*
X256854D01*
X256224Y115213D02*
X256854D01*
X242025Y85750D02*
Y86574D01*
Y111426D02*
Y112250D01*
X217525D02*
X242025D01*
X217525Y85750D02*
Y112250D01*
Y85750D02*
X242025D01*
D14*
X155239Y64366D02*
X156500Y63105D01*
X150996Y64366D02*
X156500Y58863D01*
X134026Y64366D02*
X156500Y41892D01*
X146754Y64366D02*
X156500Y54620D01*
X142511Y64366D02*
X156500Y50377D01*
X138268Y64366D02*
X156500Y46135D01*
X118000Y41072D02*
X141294Y64366D01*
X118000Y36829D02*
X145537Y64366D01*
X118000Y49557D02*
X132809Y64366D01*
X129783D02*
X156500Y37649D01*
X125541Y64366D02*
X156500Y33407D01*
X118000Y32587D02*
X149779Y64366D01*
X125018Y22634D02*
X156500Y54116D01*
X129260Y22634D02*
X156500Y49874D01*
X120775Y22634D02*
X156500Y58359D01*
X137745Y22634D02*
X156500Y41388D01*
X141988Y22634D02*
X156500Y37146D01*
X133503Y22634D02*
X156500Y45631D01*
X146231Y22634D02*
X156500Y32903D01*
Y22634D02*
Y64366D01*
X121298D02*
X156500Y29164D01*
X154716Y22634D02*
X156500Y24418D01*
X150473Y22634D02*
X156500Y28660D01*
X117055Y64366D02*
X156500Y24921D01*
X117055Y64366D02*
X156500Y24921D01*
X114634Y64366D02*
X156500D01*
X118000Y28344D02*
X154022Y64366D01*
X118000Y24102D02*
X156500Y62602D01*
X118000Y28344D02*
X154022Y64366D01*
X115236Y63764D02*
X115838Y64366D01*
X117357Y61643D02*
X120081Y64366D01*
X114634D02*
X118000Y61000D01*
Y53800D02*
X128566Y64366D01*
X118000Y45315D02*
X137051Y64366D01*
X118000Y58043D02*
X124323Y64366D01*
X118000Y54936D02*
X150302Y22634D01*
X118000Y50694D02*
X146060Y22634D01*
X118000Y59179D02*
X154545Y22634D01*
X118000Y42208D02*
X137574Y22634D01*
X118000D02*
X156500D01*
X118000Y46451D02*
X141817Y22634D01*
X118000Y37966D02*
X133332Y22634D01*
X118000Y33723D02*
X129089Y22634D01*
X118000D02*
Y61000D01*
Y25238D02*
X120604Y22634D01*
X118000Y29480D02*
X124846Y22634D01*
X270067Y118682D02*
Y115483D01*
Y118682D02*
X268696D01*
X268239Y118530D01*
X268087Y118378D01*
X267934Y118073D01*
Y117768D01*
X268087Y117464D01*
X268239Y117311D01*
X268696Y117159D01*
X270067D01*
X269001D02*
X267934Y115483D01*
X265695Y118682D02*
X267218Y116550D01*
X264933D01*
X265695Y118682D02*
Y115483D01*
X240889Y117600D02*
Y115314D01*
X240737Y114857D01*
X240432Y114553D01*
X239975Y114400D01*
X239670D01*
X239213Y114553D01*
X238909Y114857D01*
X238756Y115314D01*
Y117600D01*
X237873Y116990D02*
X237568Y117143D01*
X237111Y117600D01*
Y114400D01*
X268640Y81888D02*
X268792Y82193D01*
X269097Y82497D01*
X269402Y82650D01*
X270011D01*
X270316Y82497D01*
X270621Y82193D01*
X270773Y81888D01*
X270925Y81431D01*
Y80669D01*
X270773Y80212D01*
X270621Y79907D01*
X270316Y79603D01*
X270011Y79450D01*
X269402D01*
X269097Y79603D01*
X268792Y79907D01*
X268640Y80212D01*
X267741Y82040D02*
X267437Y82193D01*
X266980Y82650D01*
Y79450D01*
D60*
X51629Y45131D02*
X51867Y45608D01*
X52343Y46084D01*
X52820Y46322D01*
X53772D01*
X54248Y46084D01*
X54724Y45608D01*
X54962Y45131D01*
X55200Y44417D01*
Y43227D01*
X54962Y42513D01*
X54724Y42037D01*
X54248Y41561D01*
X53772Y41323D01*
X52820D01*
X52343Y41561D01*
X51867Y42037D01*
X51629Y42513D01*
Y43227D01*
X52820D02*
X51629D01*
X50487Y46322D02*
Y41323D01*
Y46322D02*
X47154Y41323D01*
Y46322D02*
Y41323D01*
X45773Y46322D02*
Y41323D01*
Y46322D02*
X44107D01*
X43393Y46084D01*
X42917Y45608D01*
X42679Y45131D01*
X42441Y44417D01*
Y43227D01*
X42679Y42513D01*
X42917Y42037D01*
X43393Y41561D01*
X44107Y41323D01*
X45773D01*
X52170Y53660D02*
X52647Y54136D01*
X53361Y54374D01*
X54313D01*
X55027Y54136D01*
X55503Y53660D01*
Y53184D01*
X55265Y52707D01*
X55027Y52469D01*
X54551Y52231D01*
X53123Y51755D01*
X52647Y51517D01*
X52409Y51279D01*
X52170Y50803D01*
Y50089D01*
X52647Y49613D01*
X53361Y49375D01*
X54313D01*
X55027Y49613D01*
X55503Y50089D01*
X51052Y54374D02*
Y49375D01*
X47719Y54374D02*
Y49375D01*
X51052Y51993D02*
X47719D01*
X46338Y54374D02*
Y49375D01*
Y54374D02*
X44672D01*
X43958Y54136D01*
X43482Y53660D01*
X43244Y53184D01*
X43006Y52469D01*
Y51279D01*
X43244Y50565D01*
X43482Y50089D01*
X43958Y49613D01*
X44672Y49375D01*
X46338D01*
X41887Y54374D02*
Y49375D01*
Y54374D02*
X38554Y49375D01*
Y54374D02*
Y49375D01*
X35031Y53660D02*
Y49375D01*
X37174Y51517D02*
X32889D01*
M02*
