G04 #@! TF.GenerationSoftware,KiCad,Pcbnew,5.1.6-c6e7f7d~87~ubuntu18.04.1*
G04 #@! TF.CreationDate,2020-11-30T10:13:03-05:00*
G04 #@! TF.ProjectId,pedal-board-2020,70656461-6c2d-4626-9f61-72642d323032,rev?*
G04 #@! TF.SameCoordinates,Original*
G04 #@! TF.FileFunction,Legend,Bot*
G04 #@! TF.FilePolarity,Positive*
%FSLAX46Y46*%
G04 Gerber Fmt 4.6, Leading zero omitted, Abs format (unit mm)*
G04 Created by KiCad (PCBNEW 5.1.6-c6e7f7d~87~ubuntu18.04.1) date 2020-11-30 10:13:03*
%MOMM*%
%LPD*%
G01*
G04 APERTURE LIST*
%ADD10C,0.250000*%
%ADD11C,0.120000*%
%ADD12C,0.150000*%
G04 APERTURE END LIST*
D10*
X110441714Y-54363857D02*
X110441714Y-53163857D01*
X109984571Y-53163857D01*
X109870285Y-53221000D01*
X109813142Y-53278142D01*
X109756000Y-53392428D01*
X109756000Y-53563857D01*
X109813142Y-53678142D01*
X109870285Y-53735285D01*
X109984571Y-53792428D01*
X110441714Y-53792428D01*
X108784571Y-54306714D02*
X108898857Y-54363857D01*
X109127428Y-54363857D01*
X109241714Y-54306714D01*
X109298857Y-54192428D01*
X109298857Y-53735285D01*
X109241714Y-53621000D01*
X109127428Y-53563857D01*
X108898857Y-53563857D01*
X108784571Y-53621000D01*
X108727428Y-53735285D01*
X108727428Y-53849571D01*
X109298857Y-53963857D01*
X107698857Y-54363857D02*
X107698857Y-53163857D01*
X107698857Y-54306714D02*
X107813142Y-54363857D01*
X108041714Y-54363857D01*
X108156000Y-54306714D01*
X108213142Y-54249571D01*
X108270285Y-54135285D01*
X108270285Y-53792428D01*
X108213142Y-53678142D01*
X108156000Y-53621000D01*
X108041714Y-53563857D01*
X107813142Y-53563857D01*
X107698857Y-53621000D01*
X106613142Y-54363857D02*
X106613142Y-53735285D01*
X106670285Y-53621000D01*
X106784571Y-53563857D01*
X107013142Y-53563857D01*
X107127428Y-53621000D01*
X106613142Y-54306714D02*
X106727428Y-54363857D01*
X107013142Y-54363857D01*
X107127428Y-54306714D01*
X107184571Y-54192428D01*
X107184571Y-54078142D01*
X107127428Y-53963857D01*
X107013142Y-53906714D01*
X106727428Y-53906714D01*
X106613142Y-53849571D01*
X105870285Y-54363857D02*
X105984571Y-54306714D01*
X106041714Y-54192428D01*
X106041714Y-53163857D01*
X104098857Y-53735285D02*
X103927428Y-53792428D01*
X103870285Y-53849571D01*
X103813142Y-53963857D01*
X103813142Y-54135285D01*
X103870285Y-54249571D01*
X103927428Y-54306714D01*
X104041714Y-54363857D01*
X104498857Y-54363857D01*
X104498857Y-53163857D01*
X104098857Y-53163857D01*
X103984571Y-53221000D01*
X103927428Y-53278142D01*
X103870285Y-53392428D01*
X103870285Y-53506714D01*
X103927428Y-53621000D01*
X103984571Y-53678142D01*
X104098857Y-53735285D01*
X104498857Y-53735285D01*
X103127428Y-54363857D02*
X103241714Y-54306714D01*
X103298857Y-54249571D01*
X103356000Y-54135285D01*
X103356000Y-53792428D01*
X103298857Y-53678142D01*
X103241714Y-53621000D01*
X103127428Y-53563857D01*
X102956000Y-53563857D01*
X102841714Y-53621000D01*
X102784571Y-53678142D01*
X102727428Y-53792428D01*
X102727428Y-54135285D01*
X102784571Y-54249571D01*
X102841714Y-54306714D01*
X102956000Y-54363857D01*
X103127428Y-54363857D01*
X101698857Y-54363857D02*
X101698857Y-53735285D01*
X101756000Y-53621000D01*
X101870285Y-53563857D01*
X102098857Y-53563857D01*
X102213142Y-53621000D01*
X101698857Y-54306714D02*
X101813142Y-54363857D01*
X102098857Y-54363857D01*
X102213142Y-54306714D01*
X102270285Y-54192428D01*
X102270285Y-54078142D01*
X102213142Y-53963857D01*
X102098857Y-53906714D01*
X101813142Y-53906714D01*
X101698857Y-53849571D01*
X101127428Y-54363857D02*
X101127428Y-53563857D01*
X101127428Y-53792428D02*
X101070285Y-53678142D01*
X101013142Y-53621000D01*
X100898857Y-53563857D01*
X100784571Y-53563857D01*
X99870285Y-54363857D02*
X99870285Y-53163857D01*
X99870285Y-54306714D02*
X99984571Y-54363857D01*
X100213142Y-54363857D01*
X100327428Y-54306714D01*
X100384571Y-54249571D01*
X100441714Y-54135285D01*
X100441714Y-53792428D01*
X100384571Y-53678142D01*
X100327428Y-53621000D01*
X100213142Y-53563857D01*
X99984571Y-53563857D01*
X99870285Y-53621000D01*
X107813142Y-55956714D02*
X106898857Y-55956714D01*
X107356000Y-56413857D02*
X107356000Y-55499571D01*
X105413142Y-56413857D02*
X105413142Y-55213857D01*
X105127428Y-55213857D01*
X104956000Y-55271000D01*
X104841714Y-55385285D01*
X104784571Y-55499571D01*
X104727428Y-55728142D01*
X104727428Y-55899571D01*
X104784571Y-56128142D01*
X104841714Y-56242428D01*
X104956000Y-56356714D01*
X105127428Y-56413857D01*
X105413142Y-56413857D01*
X104270285Y-56071000D02*
X103698857Y-56071000D01*
X104384571Y-56413857D02*
X103984571Y-55213857D01*
X103584571Y-56413857D01*
X102384571Y-56528142D02*
X102498857Y-56471000D01*
X102613142Y-56356714D01*
X102784571Y-56185285D01*
X102898857Y-56128142D01*
X103013142Y-56128142D01*
X102956000Y-56413857D02*
X103070285Y-56356714D01*
X103184571Y-56242428D01*
X103241714Y-56013857D01*
X103241714Y-55613857D01*
X103184571Y-55385285D01*
X103070285Y-55271000D01*
X102956000Y-55213857D01*
X102727428Y-55213857D01*
X102613142Y-55271000D01*
X102498857Y-55385285D01*
X102441714Y-55613857D01*
X102441714Y-56013857D01*
X102498857Y-56242428D01*
X102613142Y-56356714D01*
X102727428Y-56413857D01*
X102956000Y-56413857D01*
X109041714Y-57321000D02*
X109156000Y-57263857D01*
X109327428Y-57263857D01*
X109498857Y-57321000D01*
X109613142Y-57435285D01*
X109670285Y-57549571D01*
X109727428Y-57778142D01*
X109727428Y-57949571D01*
X109670285Y-58178142D01*
X109613142Y-58292428D01*
X109498857Y-58406714D01*
X109327428Y-58463857D01*
X109213142Y-58463857D01*
X109041714Y-58406714D01*
X108984571Y-58349571D01*
X108984571Y-57949571D01*
X109213142Y-57949571D01*
X108470285Y-58349571D02*
X108413142Y-58406714D01*
X108470285Y-58463857D01*
X108527428Y-58406714D01*
X108470285Y-58349571D01*
X108470285Y-58463857D01*
X107956000Y-58406714D02*
X107784571Y-58463857D01*
X107498857Y-58463857D01*
X107384571Y-58406714D01*
X107327428Y-58349571D01*
X107270285Y-58235285D01*
X107270285Y-58121000D01*
X107327428Y-58006714D01*
X107384571Y-57949571D01*
X107498857Y-57892428D01*
X107727428Y-57835285D01*
X107841714Y-57778142D01*
X107898857Y-57721000D01*
X107956000Y-57606714D01*
X107956000Y-57492428D01*
X107898857Y-57378142D01*
X107841714Y-57321000D01*
X107727428Y-57263857D01*
X107441714Y-57263857D01*
X107270285Y-57321000D01*
X106756000Y-57663857D02*
X106756000Y-58863857D01*
X106756000Y-57721000D02*
X106641714Y-57663857D01*
X106413142Y-57663857D01*
X106298857Y-57721000D01*
X106241714Y-57778142D01*
X106184571Y-57892428D01*
X106184571Y-58235285D01*
X106241714Y-58349571D01*
X106298857Y-58406714D01*
X106413142Y-58463857D01*
X106641714Y-58463857D01*
X106756000Y-58406714D01*
X105213142Y-58406714D02*
X105327428Y-58463857D01*
X105556000Y-58463857D01*
X105670285Y-58406714D01*
X105727428Y-58292428D01*
X105727428Y-57835285D01*
X105670285Y-57721000D01*
X105556000Y-57663857D01*
X105327428Y-57663857D01*
X105213142Y-57721000D01*
X105156000Y-57835285D01*
X105156000Y-57949571D01*
X105727428Y-58063857D01*
X104127428Y-58463857D02*
X104127428Y-57835285D01*
X104184571Y-57721000D01*
X104298857Y-57663857D01*
X104527428Y-57663857D01*
X104641714Y-57721000D01*
X104127428Y-58406714D02*
X104241714Y-58463857D01*
X104527428Y-58463857D01*
X104641714Y-58406714D01*
X104698857Y-58292428D01*
X104698857Y-58178142D01*
X104641714Y-58063857D01*
X104527428Y-58006714D01*
X104241714Y-58006714D01*
X104127428Y-57949571D01*
X103556000Y-58463857D02*
X103556000Y-57663857D01*
X103556000Y-57892428D02*
X103498857Y-57778142D01*
X103441714Y-57721000D01*
X103327428Y-57663857D01*
X103213142Y-57663857D01*
X102813142Y-58463857D02*
X102813142Y-57663857D01*
X102813142Y-57263857D02*
X102870285Y-57321000D01*
X102813142Y-57378142D01*
X102756000Y-57321000D01*
X102813142Y-57263857D01*
X102813142Y-57378142D01*
X102241714Y-57663857D02*
X102241714Y-58463857D01*
X102241714Y-57778142D02*
X102184571Y-57721000D01*
X102070285Y-57663857D01*
X101898857Y-57663857D01*
X101784571Y-57721000D01*
X101727428Y-57835285D01*
X101727428Y-58463857D01*
X100641714Y-57663857D02*
X100641714Y-58635285D01*
X100698857Y-58749571D01*
X100756000Y-58806714D01*
X100870285Y-58863857D01*
X101041714Y-58863857D01*
X101156000Y-58806714D01*
X100641714Y-58406714D02*
X100756000Y-58463857D01*
X100984571Y-58463857D01*
X101098857Y-58406714D01*
X101156000Y-58349571D01*
X101213142Y-58235285D01*
X101213142Y-57892428D01*
X101156000Y-57778142D01*
X101098857Y-57721000D01*
X100984571Y-57663857D01*
X100756000Y-57663857D01*
X100641714Y-57721000D01*
X108641714Y-59428142D02*
X108584571Y-59371000D01*
X108470285Y-59313857D01*
X108184571Y-59313857D01*
X108070285Y-59371000D01*
X108013142Y-59428142D01*
X107956000Y-59542428D01*
X107956000Y-59656714D01*
X108013142Y-59828142D01*
X108698857Y-60513857D01*
X107956000Y-60513857D01*
X107213142Y-59313857D02*
X107098857Y-59313857D01*
X106984571Y-59371000D01*
X106927428Y-59428142D01*
X106870285Y-59542428D01*
X106813142Y-59771000D01*
X106813142Y-60056714D01*
X106870285Y-60285285D01*
X106927428Y-60399571D01*
X106984571Y-60456714D01*
X107098857Y-60513857D01*
X107213142Y-60513857D01*
X107327428Y-60456714D01*
X107384571Y-60399571D01*
X107441714Y-60285285D01*
X107498857Y-60056714D01*
X107498857Y-59771000D01*
X107441714Y-59542428D01*
X107384571Y-59428142D01*
X107327428Y-59371000D01*
X107213142Y-59313857D01*
X106298857Y-60399571D02*
X106241714Y-60456714D01*
X106298857Y-60513857D01*
X106356000Y-60456714D01*
X106298857Y-60399571D01*
X106298857Y-60513857D01*
X105498857Y-59313857D02*
X105384571Y-59313857D01*
X105270285Y-59371000D01*
X105213142Y-59428142D01*
X105156000Y-59542428D01*
X105098857Y-59771000D01*
X105098857Y-60056714D01*
X105156000Y-60285285D01*
X105213142Y-60399571D01*
X105270285Y-60456714D01*
X105384571Y-60513857D01*
X105498857Y-60513857D01*
X105613142Y-60456714D01*
X105670285Y-60399571D01*
X105727428Y-60285285D01*
X105784571Y-60056714D01*
X105784571Y-59771000D01*
X105727428Y-59542428D01*
X105670285Y-59428142D01*
X105613142Y-59371000D01*
X105498857Y-59313857D01*
X104641714Y-59428142D02*
X104584571Y-59371000D01*
X104470285Y-59313857D01*
X104184571Y-59313857D01*
X104070285Y-59371000D01*
X104013142Y-59428142D01*
X103956000Y-59542428D01*
X103956000Y-59656714D01*
X104013142Y-59828142D01*
X104698857Y-60513857D01*
X103956000Y-60513857D01*
X103213142Y-59313857D02*
X103098857Y-59313857D01*
X102984571Y-59371000D01*
X102927428Y-59428142D01*
X102870285Y-59542428D01*
X102813142Y-59771000D01*
X102813142Y-60056714D01*
X102870285Y-60285285D01*
X102927428Y-60399571D01*
X102984571Y-60456714D01*
X103098857Y-60513857D01*
X103213142Y-60513857D01*
X103327428Y-60456714D01*
X103384571Y-60399571D01*
X103441714Y-60285285D01*
X103498857Y-60056714D01*
X103498857Y-59771000D01*
X103441714Y-59542428D01*
X103384571Y-59428142D01*
X103327428Y-59371000D01*
X103213142Y-59313857D01*
X101784571Y-59713857D02*
X101784571Y-60513857D01*
X102070285Y-59256714D02*
X102356000Y-60113857D01*
X101613142Y-60113857D01*
D11*
X84330000Y-76117267D02*
X84330000Y-75774733D01*
X83310000Y-76117267D02*
X83310000Y-75774733D01*
X83310000Y-79838733D02*
X83310000Y-80181267D01*
X84330000Y-79838733D02*
X84330000Y-80181267D01*
D12*
X85796380Y-75779333D02*
X85320190Y-75446000D01*
X85796380Y-75207904D02*
X84796380Y-75207904D01*
X84796380Y-75588857D01*
X84844000Y-75684095D01*
X84891619Y-75731714D01*
X84986857Y-75779333D01*
X85129714Y-75779333D01*
X85224952Y-75731714D01*
X85272571Y-75684095D01*
X85320190Y-75588857D01*
X85320190Y-75207904D01*
X84891619Y-76160285D02*
X84844000Y-76207904D01*
X84796380Y-76303142D01*
X84796380Y-76541238D01*
X84844000Y-76636476D01*
X84891619Y-76684095D01*
X84986857Y-76731714D01*
X85082095Y-76731714D01*
X85224952Y-76684095D01*
X85796380Y-76112666D01*
X85796380Y-76731714D01*
X85796380Y-79843333D02*
X85320190Y-79510000D01*
X85796380Y-79271904D02*
X84796380Y-79271904D01*
X84796380Y-79652857D01*
X84844000Y-79748095D01*
X84891619Y-79795714D01*
X84986857Y-79843333D01*
X85129714Y-79843333D01*
X85224952Y-79795714D01*
X85272571Y-79748095D01*
X85320190Y-79652857D01*
X85320190Y-79271904D01*
X85796380Y-80795714D02*
X85796380Y-80224285D01*
X85796380Y-80510000D02*
X84796380Y-80510000D01*
X84939238Y-80414761D01*
X85034476Y-80319523D01*
X85082095Y-80224285D01*
M02*
